<?xml version="1.0" encoding="iso-8859-1"?>
<!-- Generator: Adobe Illustrator 19.0.0, SVG Export Plug-In . SVG Version: 6.00 Build 0)  -->
<svg xmlns="http://www.w3.org/2000/svg" xmlns:xlink="http://www.w3.org/1999/xlink" version="1.1" id="Layer_1" x="0px" y="0px" viewBox="0 0 512.004 512.004" style="enable-background:new 0 0 512.004 512.004;" xml:space="preserve">
<path style="fill:#F5F5F5;" d="M482.45,366.319l-0.008-42.41l-0.005-27.164l-0.014-81.491l-0.005-27.164l-0.008-42.486  c0-3.105-0.422-6.147-1.202-9.07c-0.42-1.572-0.948-3.107-1.576-4.597c-2.568-6.092-6.814-11.419-12.362-15.28  c-0.812-0.565-1.642-1.11-2.509-1.611l-23.71-13.684l-22.198-12.81l-17.87-10.313l-68.335-39.438l0,0l-26.659-15.386l-19.995-11.539  l-12.39-7.151c-10.918-6.302-24.37-6.3-35.286,0.006l-12.307,7.108l-19.994,11.548l-26.659,15.398v-0.001l-68.332,39.467  L81.08,95.547l-22.191,12.818l-11.697,6.756c-0.841,0.486-1.648,1.015-2.439,1.562c-3.392,2.349-6.296,5.254-8.638,8.538  c-1.572,2.206-2.883,4.585-3.911,7.092c-1.715,4.179-2.652,8.706-2.651,13.371l0.007,42.41l0.005,27.164l0.014,81.478v0.014v0.005  l0.005,27.159l0.007,42.478v0.006c0.002,11.607,5.715,22.388,15.14,28.946c0.812,0.565,1.642,1.11,2.509,1.611l23.377,13.491  l22.198,12.811l18.204,10.506l94.999,54.826l19.994,11.539l12.39,7.151c10.918,6.302,24.37,6.299,35.287-0.006l12.307-7.108  l19.994-11.548l26.659-15.397l0,0l57.587-33.261l10.742-6.205l27.325-15.782l22.191-12.818l14.319-8.27  c0.841-0.486,1.648-1.015,2.439-1.562C476.716,388.765,482.452,377.955,482.45,366.319L482.45,366.319L482.45,366.319z"/>
<g>
	<polygon style="fill:#73AF00;" points="482.443,323.91 482.438,296.746 482.436,287.523 29.578,287.523 29.579,296.733    29.579,296.746 29.579,296.751 29.583,323.91 29.588,350.683 482.448,350.683  "/>
	<path style="fill:#73AF00;" d="M256,98.043h179.297l-16.44-9.487l-17.87-10.313l-68.339-39.442l-26.659-15.386l-19.995-11.539   l-12.39-7.151c-5.447-3.143-11.524-4.717-17.603-4.723v34.88v63.16L256,98.043L256,98.043z"/>
	<path style="fill:#73AF00;" d="M246.003,224.363h236.424l-0.001-9.109l-0.005-27.164l-0.005-26.889H256v53.163   C256,219.888,251.524,224.363,246.003,224.363z"/>
	<path style="fill:#73AF00;" d="M92.814,423.254l18.204,10.506l94.998,54.826l19.994,11.539l12.39,7.151   c10.919,6.301,24.37,6.298,35.287-0.006l12.307-7.108l19.994-11.548l26.659-15.397l57.587-33.261l10.742-6.205l27.325-15.782   l7.143-4.126H76.508L92.814,423.254z"/>
</g>
<path style="fill:#FF4B55;" d="M254.321,224.363c0.927,0,1.68-0.752,1.68-1.68v-61.481v-63.16v-63.16V0.002H256  c-0.749,0-1.497,0.024-2.244,0.07c-0.015,0.001-0.029,0.001-0.044,0.001c-1.482,0.095-2.96,0.286-4.424,0.569  c-0.041,0.009-0.082,0.012-0.125,0.02c-0.657,0.129-1.311,0.285-1.963,0.452c-0.094,0.024-0.189,0.04-0.282,0.065  c-0.612,0.162-1.22,0.352-1.825,0.549c-0.13,0.042-0.261,0.074-0.39,0.117c-0.555,0.187-1.103,0.402-1.651,0.617  c-0.175,0.069-0.352,0.125-0.526,0.197c-0.487,0.2-0.965,0.429-1.445,0.651c-0.229,0.106-0.461,0.199-0.687,0.31  c-0.701,0.345-1.395,0.715-2.077,1.11l-12.307,7.108l-19.994,11.548l-26.659,15.398l0,0l-68.33,39.465L81.08,95.547l-22.191,12.818  l-11.697,6.756c-0.841,0.486-1.648,1.015-2.439,1.562c-3.392,2.349-6.296,5.254-8.638,8.538c-1.572,2.206-2.883,4.585-3.911,7.092  c-1.716,4.179-2.652,8.706-2.651,13.371l0.003,15.521l0.004,26.889l0.005,27.164l0.001,9.109h224.755V224.363z"/>
<g>
	<path style="fill:#F5F5F5;" d="M165.81,209.336h-15.419c-1.402,0-2.657-0.874-3.144-2.188l-4.965-13.404   c-1.938-5.232-2.808-10.801-2.559-16.375l1.728-38.713c0.044-0.982,0.675-1.842,1.6-2.178l0,0c1.587-0.577,3.264,0.599,3.264,2.287   v17.63c0,0.492,0.4,0.892,0.892,0.892l0,0c0.476,0,0.869-0.374,0.891-0.849l1.386-28.11c0.056-1.141,0.913-2.083,2.046-2.244l0,0   c1.403-0.2,2.671,0.859,2.722,2.274l0.956,26.208c0.019,0.526,0.485,0.922,1.007,0.857l0,0c0.442-0.055,0.777-0.426,0.786-0.872   l0.575-29.122c0.031-1.59,1.596-2.694,3.104-2.192l0,0c0.923,0.307,1.563,1.152,1.61,2.124l1.421,29.434   c0.016,0.327,0.207,0.621,0.5,0.767l0,0c0.592,0.296,1.291-0.121,1.312-0.782l0.712-22.806c0.054-1.722,1.858-2.822,3.414-2.082   l0,0c0.786,0.374,1.306,1.146,1.357,2.014l1.658,27.992l4.441,12.954c0.25,0.727,1.272,0.741,1.536,0.019   c1.258-3.434,4.113-9.844,8.694-12.668c0.811-0.5,1.852-0.435,2.614,0.136l0,0c1.121,0.841,1.253,2.463,0.294,3.485   c-2.233,2.377-5.488,7.372-5.252,16.154c0.03,1.117-0.294,2.217-0.955,3.119l-12.512,17.094c-1.253,1.712-2.057,3.71-2.337,5.813   l-0.056,0.419C168.91,208.091,167.49,209.336,165.81,209.336z"/>
	<path style="fill:#F5F5F5;" d="M158.14,78.98l2.513,7.534l7.942,0.061c0.615,0.005,0.871,0.79,0.376,1.156l-6.388,4.717   l2.396,7.572c0.185,0.586-0.482,1.072-0.982,0.714l-6.461-4.617l-6.461,4.617c-0.5,0.357-1.168-0.127-0.982-0.714l2.396-7.572   l-6.388-4.717c-0.495-0.366-0.24-1.151,0.375-1.156l7.942-0.061l2.513-7.534C157.12,78.397,157.946,78.397,158.14,78.98z"/>
	<path style="fill:#F5F5F5;" d="M120.784,89.82l2.513,7.534l7.942,0.061c0.615,0.005,0.87,0.79,0.375,1.156l-6.388,4.717   l2.396,7.572c0.185,0.586-0.482,1.072-0.982,0.714l-6.461-4.617l-6.461,4.617c-0.5,0.357-1.168-0.127-0.982-0.714l2.396-7.572   l-6.388-4.717c-0.495-0.365-0.24-1.151,0.375-1.156l7.942-0.061l2.513-7.534C119.763,89.236,120.589,89.236,120.784,89.82z"/>
	<path style="fill:#F5F5F5;" d="M196.407,89.82l2.513,7.534l7.942,0.061c0.615,0.005,0.871,0.79,0.375,1.156l-6.388,4.717   l2.396,7.572c0.185,0.586-0.482,1.072-0.982,0.714l-6.461-4.617l-6.461,4.617c-0.501,0.357-1.168-0.127-0.982-0.714l2.396-7.572   l-6.388-4.717c-0.495-0.365-0.24-1.151,0.376-1.156l7.942-0.061l2.513-7.534C195.386,89.236,196.212,89.236,196.407,89.82z"/>
	<path style="fill:#F5F5F5;" d="M221.46,118.307l2.513,7.534l7.942,0.061c0.615,0.005,0.871,0.79,0.375,1.156l-6.388,4.717   l2.396,7.572c0.185,0.586-0.482,1.072-0.982,0.714l-6.461-4.617l-6.461,4.617c-0.501,0.357-1.168-0.127-0.982-0.714l2.396-7.572   l-6.388-4.717c-0.495-0.365-0.24-1.151,0.376-1.156l7.942-0.061l2.513-7.534C220.44,117.723,221.266,117.723,221.46,118.307z"/>
	<path style="fill:#F5F5F5;" d="M93.645,118.307l2.513,7.534l7.942,0.061c0.615,0.005,0.87,0.79,0.375,1.156l-6.388,4.717   l2.396,7.572c0.185,0.586-0.482,1.072-0.982,0.714l-6.461-4.617l-6.461,4.617c-0.5,0.357-1.168-0.127-0.982-0.714l2.396-7.572   l-6.388-4.717c-0.495-0.365-0.24-1.151,0.375-1.156l7.942-0.061l2.513-7.534C92.625,117.723,93.45,117.723,93.645,118.307z"/>
	<path style="fill:#F5F5F5;" d="M228.665,155.673l2.513,7.534l7.942,0.061c0.615,0.005,0.871,0.79,0.375,1.156l-6.388,4.717   l2.396,7.572c0.185,0.586-0.482,1.072-0.982,0.715l-6.461-4.619l-6.461,4.619c-0.501,0.357-1.168-0.127-0.982-0.715l2.396-7.572   l-6.388-4.717c-0.495-0.365-0.24-1.151,0.375-1.156l7.942-0.061l2.513-7.534C227.646,155.089,228.472,155.089,228.665,155.673z"/>
	<path style="fill:#F5F5F5;" d="M83.91,155.673l2.513,7.534l7.942,0.061c0.615,0.005,0.871,0.79,0.375,1.156l-6.388,4.717   l2.396,7.572c0.185,0.586-0.482,1.072-0.982,0.715l-6.461-4.619l-6.461,4.619c-0.5,0.357-1.168-0.127-0.982-0.715l2.396-7.572   l-6.388-4.717c-0.495-0.365-0.24-1.151,0.375-1.156l7.942-0.061l2.513-7.534C82.889,155.089,83.715,155.089,83.91,155.673z"/>
</g>
<g>
</g>
<g>
</g>
<g>
</g>
<g>
</g>
<g>
</g>
<g>
</g>
<g>
</g>
<g>
</g>
<g>
</g>
<g>
</g>
<g>
</g>
<g>
</g>
<g>
</g>
<g>
</g>
<g>
</g>
</svg>
