<?xml version="1.0" encoding="iso-8859-1"?>
<!-- Generator: Adobe Illustrator 19.0.0, SVG Export Plug-In . SVG Version: 6.00 Build 0)  -->
<svg xmlns="http://www.w3.org/2000/svg" xmlns:xlink="http://www.w3.org/1999/xlink" version="1.1" id="Layer_1" x="0px" y="0px" viewBox="0 0 512 512" style="enable-background:new 0 0 512 512;" xml:space="preserve">
<path style="fill:#F5F5F5;" d="M482.444,341.393l-0.029-173.286l-0.004-22.501c-0.003-12.607-6.729-24.255-17.649-30.557  L273.601,4.725c-10.918-6.302-24.37-6.3-35.287,0.006l-69.532,40.16L47.19,115.118c-10.917,6.306-17.64,17.955-17.639,30.562  l0.036,220.713C29.59,379,36.316,390.648,47.236,396.95l121.545,70.147l69.616,40.178c10.918,6.302,24.37,6.299,35.286-0.006  l191.125-110.388c10.917-6.306,17.64-17.955,17.639-30.563L482.444,341.393z"/>
<path style="fill:#73AF00;" d="M482.415,168.107l-0.004-22.501c-0.003-12.607-6.729-24.255-17.649-30.557L273.601,4.725  c-10.918-6.302-24.37-6.3-35.287,0.006l-69.532,40.16l-12.755,64.9l12.755,58.318h313.632v-0.002H482.415z"/>
<path style="fill:#464655;" d="M168.783,467.097l69.616,40.178c10.918,6.302,24.37,6.299,35.287-0.006L464.81,396.88  c10.917-6.306,17.64-17.955,17.639-30.563l-0.004-24.926H168.783l-15.255,58.318L168.783,467.097z"/>
<path style="fill:#FF4B55;" d="M29.552,145.681l0.036,220.713c0.003,12.607,6.729,24.255,17.649,30.557l121.545,70.147V341.393  V168.107V44.89L47.19,115.118C36.274,121.424,29.55,133.074,29.552,145.681z"/>
<g>
</g>
<g>
</g>
<g>
</g>
<g>
</g>
<g>
</g>
<g>
</g>
<g>
</g>
<g>
</g>
<g>
</g>
<g>
</g>
<g>
</g>
<g>
</g>
<g>
</g>
<g>
</g>
<g>
</g>
</svg>
