<?xml version="1.0" encoding="iso-8859-1"?>
<!-- Generator: Adobe Illustrator 19.0.0, SVG Export Plug-In . SVG Version: 6.00 Build 0)  -->
<svg xmlns="http://www.w3.org/2000/svg" xmlns:xlink="http://www.w3.org/1999/xlink" version="1.1" id="Layer_1" x="0px" y="0px" viewBox="0 0 512.002 512.002" style="enable-background:new 0 0 512.002 512.002;" xml:space="preserve">
<path style="fill:#F5F5F5;" d="M482.45,366.319l-0.008-42.41l-0.005-27.164l-0.014-81.491l-0.005-27.164l-0.008-42.485  c-0.001-3.105-0.422-6.147-1.202-9.07c-0.42-1.572-0.948-3.107-1.577-4.597c-2.568-6.091-6.814-11.419-12.362-15.28  c-0.812-0.565-1.642-1.11-2.509-1.611l-23.71-13.684l-22.198-12.81l-17.87-10.313L332.645,38.8l0,0l-26.659-15.386l-19.995-11.539  l-12.39-7.151c-10.918-6.301-24.37-6.298-35.287,0.006l-12.307,7.108l-19.995,11.548l-26.659,15.398l0,0L111.026,78.25  L81.079,95.547l-22.191,12.818l-11.697,6.755c-0.841,0.486-1.648,1.015-2.439,1.561c-3.392,2.349-6.296,5.254-8.638,8.538  c-1.572,2.206-2.883,4.585-3.911,7.092c-1.715,4.179-2.652,8.706-2.651,13.371l0.007,42.41l0.005,27.164l0.014,81.478v0.014v0.005  l0.005,27.159l0.007,42.478v0.006c0.003,11.607,5.715,22.388,15.14,28.946c0.812,0.565,1.642,1.11,2.509,1.611l23.377,13.491  l22.198,12.812l18.204,10.506l94.999,54.826l19.995,11.539l12.39,7.151c10.918,6.301,24.37,6.298,35.287-0.006l12.307-7.108  l19.995-11.548l26.659-15.397l0,0l57.588-33.261l10.742-6.205l27.325-15.782l22.191-12.818l14.319-8.27  c0.841-0.486,1.648-1.015,2.439-1.561C476.716,388.765,482.452,377.956,482.45,366.319L482.45,366.319L482.45,366.319z"/>
<path style="fill:#41479B;" d="M179.356,38.785L179.356,38.785l-68.33,39.464L81.079,95.547l-22.191,12.818l-11.697,6.755  c-0.841,0.486-1.648,1.015-2.439,1.561c-3.392,2.349-6.296,5.254-8.638,8.538c-1.572,2.206-2.883,4.585-3.911,7.092  c-1.715,4.179-2.652,8.706-2.651,13.371l0.007,42.41l0.005,27.164l0.014,81.478v0.014v0.005l0.005,27.159l0.007,42.478v0.006  c0.003,11.607,5.715,22.389,15.14,28.946c0.812,0.565,1.642,1.11,2.509,1.611l23.377,13.491l22.198,12.812l18.204,10.506  l94.999,54.826l1.508,0.871V22.516l-1.508,0.871L179.356,38.785z"/>
<g>
	<path style="fill:#FFE15A;" d="M263.818,254.137c-3.564,0-7.021,1.213-9.804,3.439l-16.879,13.504   c-2.783,2.226-6.241,3.439-9.804,3.439h-4.685v-2.695c0-4.14,3.357-7.495,7.495-7.495h7.79v-3.632c0-3.621-2.937-6.558-6.558-6.558   h-3.633l0,0c0-2.814-2.282-5.095-5.095-5.095l0,0c-14.071,0-25.477,11.407-25.477,25.477h-9.781c-3.563,0-7.021-1.212-9.802-3.439   l-16.88-13.504c-2.783-2.226-6.24-3.439-9.802-3.439H76.57c-2.504,0-3.758,3.028-1.987,4.799l25.728,25.728   c3.292,3.292,7.757,5.141,12.413,5.141h18.206l14.947,11.209c3.528,2.646,7.819,4.076,12.229,4.076h18.684   c3.208,0,6.228-1.51,8.153-4.076l2.038-2.718v11.889l-12.574,25.148c-1.246,2.492,0.566,5.424,3.352,5.424h41.142   c2.069,0,3.748-1.678,3.748-3.748v-45.508l7.133,9.511c1.924,2.566,4.945,4.076,8.153,4.076h18.684c4.41,0,8.7-1.431,12.229-4.076   l14.947-11.209h18.206c4.655,0,9.12-1.849,12.412-5.141l25.728-25.728c1.771-1.771,0.516-4.799-1.987-4.799L263.818,254.137   L263.818,254.137z"/>
	<path style="fill:#FFE15A;" d="M208.344,171.577l2.436,7.304l7.7,0.06c0.997,0.007,1.411,1.28,0.609,1.872l-6.195,4.574   l2.323,7.342c0.301,0.951-0.781,1.737-1.592,1.157l-6.265-4.478l-6.265,4.478c-0.811,0.58-1.893-0.206-1.592-1.157l2.323-7.342   l-6.195-4.574c-0.802-0.592-0.389-1.864,0.609-1.872l7.7-0.06l2.436-7.304C206.691,170.632,208.028,170.632,208.344,171.577z"/>
	<path style="fill:#FFE15A;" d="M95.24,217.612l6.888,3.443l5.487-5.402c0.711-0.7,1.902-0.092,1.755,0.893l-1.146,7.614   l6.833,3.549c0.885,0.46,0.676,1.781-0.307,1.944l-7.595,1.263l-1.263,7.595c-0.164,0.983-1.485,1.192-1.944,0.309l-3.549-6.833   l-7.614,1.146c-0.986,0.149-1.593-1.043-0.894-1.755l5.402-5.487l-3.443-6.888C93.402,218.112,94.348,217.166,95.24,217.612z"/>
	<path style="fill:#FFE15A;" d="M320.871,219.003l-3.443,6.888l5.402,5.487c0.7,0.71,0.092,1.902-0.893,1.755l-7.614-1.146   l-3.549,6.833c-0.46,0.885-1.781,0.675-1.944-0.309l-1.263-7.595l-7.595-1.263c-0.983-0.164-1.192-1.485-0.307-1.944l6.833-3.549   l-1.146-7.614c-0.149-0.986,1.043-1.593,1.755-0.894l5.487,5.402l6.888-3.443C320.371,217.166,321.317,218.112,320.871,219.003z"/>
	<path style="fill:#FFE15A;" d="M147.213,183.345l5.046,5.816l7.137-2.892c0.923-0.375,1.793,0.642,1.278,1.497l-3.973,6.597   l4.955,5.893c0.641,0.764-0.057,1.903-1.028,1.678l-7.5-1.74l-4.074,6.534c-0.527,0.846-1.828,0.534-1.914-0.46l-0.664-7.672   l-7.473-1.856c-0.967-0.24-1.072-1.573-0.155-1.962l7.091-3.002l-0.545-7.68C145.324,183.105,146.56,182.593,147.213,183.345z"/>
	<path style="fill:#FFE15A;" d="M269.324,184.099l-0.545,7.68l7.091,3.002c0.919,0.389,0.814,1.722-0.155,1.962l-7.473,1.856   l-0.664,7.672c-0.086,0.993-1.387,1.306-1.914,0.46l-4.074-6.534l-7.5,1.74c-0.971,0.225-1.67-0.915-1.028-1.678l4.955-5.893   l-3.973-6.597c-0.515-0.854,0.355-1.871,1.278-1.497l7.137,2.892l5.046-5.816C268.159,182.593,269.395,183.105,269.324,184.099z"/>
	<path style="fill:#FFE15A;" d="M177.199,174.451l3.814,6.689l7.563-1.443c0.98-0.187,1.633,0.98,0.962,1.717l-5.182,5.695   l3.71,6.747c0.48,0.874-0.427,1.856-1.336,1.446l-7.017-3.169l-5.27,5.613c-0.682,0.727-1.897,0.166-1.787-0.825l0.846-7.653   l-6.968-3.278c-0.902-0.425-0.745-1.753,0.231-1.954l7.54-1.561l0.965-7.639C175.393,173.846,176.705,173.585,177.199,174.451z"/>
	<path style="fill:#FFE15A;" d="M296.816,199.013l-2.033,7.427l6.37,4.328c0.825,0.56,0.461,1.848-0.535,1.894l-7.692,0.362   l-2.148,7.394c-0.279,0.957-1.615,1.01-1.967,0.077l-2.721-7.203l-7.697,0.242c-0.996,0.031-1.46-1.223-0.681-1.847l6.01-4.814   l-2.609-7.244c-0.337-0.938,0.712-1.766,1.546-1.218l6.436,4.228l6.083-4.72C295.968,197.307,297.08,198.051,296.816,199.013z"/>
	<path style="fill:#FFE15A;" d="M119.54,197.919l6.083,4.72l6.436-4.228c0.834-0.547,1.883,0.281,1.546,1.218l-2.609,7.244   l6.01,4.814c0.779,0.624,0.315,1.878-0.681,1.847l-7.697-0.242l-2.721,7.203c-0.352,0.932-1.69,0.88-1.967-0.077l-2.147-7.394   l-7.692-0.362c-0.996-0.047-1.358-1.335-0.535-1.894l6.37-4.328l-2.033-7.427C117.639,198.051,118.751,197.307,119.54,197.919z"/>
	<path style="fill:#FFE15A;" d="M239.451,174.835l0.965,7.639l7.54,1.561c0.976,0.202,1.133,1.531,0.231,1.954l-6.968,3.278   l0.846,7.653c0.11,0.991-1.105,1.551-1.787,0.825l-5.27-5.613l-7.018,3.169c-0.909,0.41-1.817-0.572-1.336-1.446l3.71-6.747   l-5.182-5.695c-0.671-0.737-0.018-1.904,0.962-1.717l7.564,1.443l3.814-6.689C238.014,173.585,239.326,173.846,239.451,174.835z"/>
</g>
<path style="fill:#FF4B55;" d="M95.151,140.852v21.031c0,8.698-7.076,15.773-15.773,15.773s-15.773-7.076-15.773-15.773v-21.031  H95.151 M100.409,130.336H58.348c-2.904,0-5.257,2.354-5.257,5.257v26.289c0,14.519,11.769,26.288,26.288,26.288  s26.289-11.769,26.289-26.288v-26.289C105.666,132.69,103.313,130.336,100.409,130.336L100.409,130.336z"/>
<path style="fill:#F5F5F5;" d="M95.151,140.852v21.031c0,8.698-7.076,15.773-15.773,15.773s-15.773-7.076-15.773-15.773v-21.031  H95.151"/>
<g>
	<circle style="fill:#FFE15A;" cx="58.301" cy="135.59" r="2.629"/>
	<circle style="fill:#FFE15A;" cx="100.361" cy="135.59" r="2.629"/>
	<circle style="fill:#FFE15A;" cx="58.301" cy="156.62" r="2.629"/>
	<circle style="fill:#FFE15A;" cx="100.361" cy="156.62" r="2.629"/>
	<circle style="fill:#FFE15A;" cx="79.341" cy="135.59" r="2.629"/>
	<circle style="fill:#FFE15A;" cx="95.121" cy="176.01" r="2.629"/>
	<circle style="fill:#FFE15A;" cx="63.859" cy="176.01" r="2.629"/>
</g>
<g>
	<path style="fill:#41479B;" d="M82.774,155.291v4.528c0,1.872-1.523,3.395-3.395,3.395c-1.872,0-3.395-1.523-3.395-3.395v-4.528   H82.774"/>
	<path style="fill:#41479B;" d="M82.774,144.557v4.528c0,1.872-1.523,3.395-3.395,3.395c-1.872,0-3.395-1.523-3.395-3.395v-4.528   H82.774"/>
	<path style="fill:#41479B;" d="M82.774,166.136v4.528c0,1.872-1.523,3.395-3.395,3.395c-1.872,0-3.395-1.523-3.395-3.395v-4.528   H82.774"/>
	<path style="fill:#41479B;" d="M91.92,155.291v4.528c0,1.872-1.523,3.395-3.395,3.395s-3.395-1.523-3.395-3.395v-4.528H91.92"/>
	<path style="fill:#41479B;" d="M73.627,155.291v4.528c0,1.872-1.523,3.395-3.395,3.395s-3.395-1.523-3.395-3.395v-4.528H73.627"/>
</g>
<g>
</g>
<g>
</g>
<g>
</g>
<g>
</g>
<g>
</g>
<g>
</g>
<g>
</g>
<g>
</g>
<g>
</g>
<g>
</g>
<g>
</g>
<g>
</g>
<g>
</g>
<g>
</g>
<g>
</g>
</svg>
