<?xml version="1.0" encoding="iso-8859-1"?>
<!-- Generator: Adobe Illustrator 19.0.0, SVG Export Plug-In . SVG Version: 6.00 Build 0)  -->
<svg xmlns="http://www.w3.org/2000/svg" xmlns:xlink="http://www.w3.org/1999/xlink" version="1.1" id="Layer_1" x="0px" y="0px" viewBox="0 0 512 512" style="enable-background:new 0 0 512 512;" xml:space="preserve">
<path style="fill:#FFE15A;" d="M482.443,342.226l-0.003-18.318l-0.005-27.164l-0.003-12.003l-0.01-57.484l-0.003-12.003  l-0.005-27.164l-0.004-18.318l-0.004-24.168c-0.001-3.105-0.422-6.147-1.202-9.07c-0.42-1.572-0.948-3.107-1.577-4.598  c-2.568-6.091-6.814-11.419-12.362-15.28c-0.812-0.565-1.642-1.11-2.509-1.611l-4.782-2.76l-18.929-10.925l-22.198-12.81  l-17.87-10.313l-40.604-23.434L332.643,38.8l-26.659-15.386l-19.995-11.539l-12.39-7.151C268.153,1.581,262.076,0.008,255.998,0  c-6.107-0.006-12.214,1.57-17.685,4.729l-12.307,7.108l-19.995,11.548l-26.659,15.398l0,0l-27.739,16.021l-40.591,23.445  L81.074,95.545l-22.19,12.818l-6.797,3.926l-4.899,2.829c-0.841,0.486-1.648,1.015-2.439,1.561  c-3.392,2.349-6.296,5.254-8.638,8.538c-1.572,2.206-2.883,4.585-3.911,7.092c-1.715,4.179-2.652,8.706-2.651,13.371l0.004,24.092  l0.003,18.318l0.005,27.164l0.003,12.003l0.005,28.742l0.005,28.742l0.003,11.99v0.014v0.005l0.005,27.159l0.004,18.318  l0.004,24.161v0.006c0.003,11.607,5.715,22.388,15.14,28.946c0.812,0.565,1.642,1.11,2.509,1.611l4.782,2.759l18.595,10.731  l22.198,12.812l18.204,10.506l40.608,23.436l54.39,31.39l19.995,11.539l12.39,7.151c10.918,6.302,24.37,6.3,35.287-0.006  l12.307-7.108l19.995-11.548l26.659-15.397l27.737-16.021l29.849-17.24l10.742-6.205l27.325-15.782l22.191-12.818l9.42-5.44  l4.899-2.829c0.841-0.486,1.648-1.013,2.439-1.561c9.465-6.556,15.201-17.365,15.2-29.001L482.443,342.226z"/>
<g>
	<polygon style="fill:#FF4B55;" points="255.998,112.288 459.979,112.288 441.051,101.364 418.852,88.554 400.982,78.24    360.374,54.804 255.998,54.804  "/>
	<polygon style="fill:#FF4B55;" points="255.998,227.257 482.424,227.257 482.421,215.254 482.416,188.09 482.414,169.773    255.998,169.773  "/>
	<polygon style="fill:#FF4B55;" points="29.573,296.732 29.573,296.746 29.573,296.751 29.578,323.908 29.58,342.226    482.443,342.226 482.44,323.908 482.435,296.746 482.433,284.742 29.572,284.742  "/>
	<polygon style="fill:#FF4B55;" points="70.61,410.443 92.808,423.254 111.012,433.759 151.62,457.195 360.381,457.195    390.23,439.955 400.973,433.75 428.299,417.969 450.49,405.151 459.909,399.71 52.015,399.71  "/>
</g>
<path style="fill:#64466E;" d="M238.312,4.729l-12.307,7.108L206.01,23.385l-26.659,15.398l0,0l-27.739,16.021l-40.591,23.445  L81.074,95.545l-22.19,12.818l-6.797,3.926l-4.899,2.829c-0.841,0.486-1.648,1.015-2.439,1.561  c-3.392,2.349-6.296,5.254-8.638,8.538c-1.572,2.206-2.883,4.585-3.911,7.092c-1.715,4.179-2.652,8.706-2.651,13.371l0.004,24.092  l0.003,18.318l0.005,27.164l0.003,12.003l0.005,28.742h216.434c5.521,0,9.997-4.476,9.997-9.997v-18.745v-57.484v-57.484V54.804V0  C249.891-0.006,243.784,1.57,238.312,4.729z"/>
<path style="fill:#F5F5F5;" d="M237.203,166.28h-17.84v-20.39h2.549v-5.097h-2.549h-20.389h-2.549v5.097h2.549v20.389h-10.195  V145.89h2.548v-5.097h-2.548h-20.39h-2.548v5.097h2.548v20.389h-15.292v-25.487h2.548v-5.097h-25.487v5.097h2.548v25.487h-15.29  V145.89h2.548v-5.097h-2.549H97.027h-2.548v5.097h2.548v20.389H86.832V145.89h2.548v-5.097h-2.548H66.443h-2.549v5.097h2.549v20.389  h-17.84h-2.548v5.097h2.548v45.876h17.84h17.84V201.96c0-2.815,2.282-5.097,5.097-5.097s5.097,2.282,5.097,5.097v15.292h2.548  h20.389h2.549V201.96c0-2.815,2.282-5.097,5.097-5.097s5.097,2.282,5.097,5.097v15.292h2.548h2.549v-17.84  c0-4.223,3.423-7.645,7.645-7.645c4.223,0,7.645,3.424,7.645,7.645v17.84h2.549h2.548V201.96c0-2.815,2.282-5.097,5.097-5.097  s5.097,2.282,5.097,5.097v15.292h2.548h20.389h2.548V201.96c0-2.815,2.282-5.097,5.097-5.097s5.097,2.282,5.097,5.097v15.292h17.84  h17.84v-45.876h2.549v-5.097h-2.54V166.28z M81.735,186.669H71.54v-15.292c0-2.815,2.282-5.097,5.097-5.097s5.097,2.282,5.097,5.097  L81.735,186.669L81.735,186.669z M112.319,186.669h-10.195v-15.292c0-2.815,2.282-5.097,5.097-5.097s5.097,2.282,5.097,5.097  C112.319,171.377,112.319,186.669,112.319,186.669z M148.001,171.377h-10.195v-10.195c0-2.815,2.282-5.097,5.097-5.097  s5.097,2.282,5.097,5.097C148.001,161.183,148.001,171.377,148.001,171.377z M183.681,186.669h-10.195v-15.292  c0-2.815,2.282-5.097,5.097-5.097s5.097,2.282,5.097,5.097L183.681,186.669L183.681,186.669z M214.265,186.669H204.07v-15.292  c0-2.815,2.282-5.097,5.097-5.097s5.097,2.282,5.097,5.097L214.265,186.669L214.265,186.669z"/>
<g>
</g>
<g>
</g>
<g>
</g>
<g>
</g>
<g>
</g>
<g>
</g>
<g>
</g>
<g>
</g>
<g>
</g>
<g>
</g>
<g>
</g>
<g>
</g>
<g>
</g>
<g>
</g>
<g>
</g>
</svg>
