<?xml version="1.0" encoding="iso-8859-1"?>
<!-- Generator: Adobe Illustrator 19.0.0, SVG Export Plug-In . SVG Version: 6.00 Build 0)  -->
<svg xmlns="http://www.w3.org/2000/svg" xmlns:xlink="http://www.w3.org/1999/xlink" version="1.1" id="Layer_1" x="0px" y="0px" viewBox="0 0 512.013 512.013" style="enable-background:new 0 0 512.013 512.013;" xml:space="preserve">
<path style="fill:#F5F5F5;" d="M474.698,388.366c0.207-0.259,0.41-0.522,0.61-0.787c0.166-0.22,0.327-0.442,0.489-0.665  c0.214-0.297,0.427-0.595,0.632-0.898c0.095-0.142,0.185-0.287,0.279-0.431c0.504-0.771,0.978-1.558,1.42-2.367  c0.015-0.027,0.031-0.055,0.046-0.082c0.23-0.422,0.446-0.852,0.659-1.283c0.046-0.095,0.094-0.19,0.139-0.285  c0.215-0.447,0.421-0.898,0.617-1.355c0.009-0.019,0.016-0.039,0.024-0.057c0.854-1.998,1.522-4.079,1.997-6.221  c0-0.001,0-0.001,0.001-0.003l0,0c0.547-2.473,0.847-5.02,0.846-7.612l-0.008-42.41l-0.005-27.164l-0.003-15.752l0,0l-0.004-24.998  l-0.006-40.74l-0.005-27.164l-0.008-42.486c0-2.561-0.301-5.074-0.84-7.517l0,0c-0.114-0.52-0.226-1.04-0.362-1.553  c-0.42-1.572-0.948-3.107-1.577-4.598c-2.568-6.092-6.814-11.419-12.362-15.28c-0.812-0.565-1.642-1.11-2.509-1.611l-20.857-12.037  l0,0l-2.854-1.647l-22.198-12.81l-17.87-10.313l-68.338-39.438l-26.659-15.386l-19.995-11.539l-8.539-4.927l-3.851-2.223  c-0.682-0.394-1.375-0.764-2.076-1.107c-2.804-1.378-5.746-2.363-8.748-2.953c-2.252-0.444-4.538-0.665-6.822-0.665  c-1.523,0-3.047,0.099-4.559,0.296c-4.54,0.592-8.99,2.069-13.084,4.434l-7.308,4.221l0,0l-4.999,2.887l-19.995,11.548  l-26.659,15.398l0,0l-68.33,39.465L81.083,95.547l-12.956,7.484l0,0l-9.235,5.334l-11.697,6.756  c-0.841,0.486-1.648,1.015-2.439,1.562c-3.392,2.349-6.296,5.254-8.638,8.538c-0.982,1.378-1.849,2.832-2.623,4.335  c-0.464,0.902-0.902,1.817-1.288,2.758c-0.372,0.907-0.7,1.833-0.998,2.772c-0.01,0.032-0.021,0.064-0.031,0.096  c-0.299,0.95-0.554,1.914-0.771,2.892c0,0.001,0,0.001,0,0.003l0,0c-0.551,2.472-0.85,5.019-0.85,7.61l0.007,42.41l0.005,27.164  l0.003,15.752l0,0l0.004,25.907l0.006,39.819v0.014v0.005l0.005,27.159l0.007,42.478v0.006c0.001,4.805,0.993,9.462,2.81,13.744  c0.01,0.025,0.02,0.049,0.03,0.074c0.197,0.461,0.404,0.917,0.62,1.37c0.041,0.086,0.084,0.171,0.125,0.256  c0.632,1.295,1.342,2.548,2.127,3.755c0.094,0.145,0.184,0.291,0.28,0.434c0.206,0.307,0.421,0.609,0.636,0.91  c0.157,0.22,0.317,0.437,0.48,0.655c0.201,0.267,0.404,0.532,0.614,0.795c0.212,0.267,0.434,0.529,0.654,0.79  c0.179,0.211,0.354,0.426,0.537,0.634c0.396,0.447,0.806,0.885,1.226,1.312c0.15,0.152,0.307,0.3,0.461,0.45  c0.311,0.305,0.626,0.606,0.95,0.901c0.174,0.159,0.351,0.314,0.529,0.469c0.334,0.291,0.674,0.576,1.02,0.856  c0.16,0.13,0.319,0.261,0.481,0.389c0.51,0.397,1.027,0.787,1.561,1.158c0.812,0.565,1.642,1.11,2.509,1.611l23.377,13.491  l22.198,12.812l18.204,10.506l94.999,54.826l19.995,11.539l6.503,3.753l5.887,3.398c2.047,1.181,4.184,2.142,6.376,2.879  c5.846,1.969,12.085,2.362,18.089,1.178c2.251-0.444,4.469-1.108,6.619-1.996c0.717-0.296,1.426-0.616,2.127-0.961  s1.393-0.715,2.076-1.108l2.692-1.555l9.615-5.553l19.995-11.548l26.659-15.397l57.587-33.261l10.742-6.205l27.325-15.782  l15.579-8.999l0,0l6.612-3.819l14.319-8.27c0.841-0.486,1.648-1.013,2.439-1.562c0.536-0.371,1.056-0.76,1.567-1.158  c0.162-0.126,0.32-0.256,0.479-0.385c0.35-0.281,0.694-0.569,1.03-0.862c0.175-0.152,0.35-0.306,0.522-0.462  c0.33-0.3,0.652-0.606,0.97-0.917c0.149-0.145,0.3-0.286,0.446-0.434c0.422-0.429,0.834-0.866,1.233-1.315  c0.184-0.206,0.359-0.42,0.537-0.63C474.261,388.897,474.484,388.635,474.698,388.366z"/>
<g>
	<path style="fill:#FF4B55;" d="M30.405,138.072c-0.551,2.472-0.85,5.019-0.85,7.61l0.007,42.41l0.005,27.164l0.003,15.752   l160.202,6.242L30.405,138.072z"/>
	<path style="fill:#FF4B55;" d="M482.432,231.008l-0.003-15.752l-0.005-27.164l-0.008-42.486c0-2.561-0.301-5.074-0.84-7.517   L318.488,238.5L482.432,231.008z"/>
	<polygon style="fill:#FF4B55;" points="280.998,66.053 273.5,224.753 443.912,103.013 441.058,101.367 418.86,88.556    400.99,78.242 332.651,38.802 305.991,23.416 285.997,11.877 280.998,8.991  "/>
	<polygon style="fill:#FF4B55;" points="231.012,66.053 231.012,8.952 226.013,11.839 206.019,23.388 179.36,38.785 179.36,38.785    111.029,78.251 81.083,95.547 68.126,103.03 238.51,219.755  "/>
	<path style="fill:#FF4B55;" d="M194.772,275.989L29.58,280.994l0.003,15.739v0.014v0.005l0.005,27.159l0.007,42.478v0.006   c0.001,4.805,0.993,9.462,2.81,13.744c-0.846-1.998-1.512-4.08-1.981-6.221L194.772,275.989z"/>
	<polygon style="fill:#FF4B55;" points="231.012,445.949 236.01,288.486 68.099,408.989 47.242,396.953 70.619,410.444    92.817,423.255 111.021,433.76 206.019,488.586 226.013,500.127 232.516,503.88 231.012,503.011  "/>
	<polygon style="fill:#FF4B55;" points="280.998,445.949 280.998,503.05 285.997,500.163 305.991,488.615 332.651,473.218    390.238,439.956 400.98,433.751 428.305,417.971 443.885,408.972 274.75,284.737  "/>
	<path style="fill:#FF4B55;" d="M481.608,373.933c0.547-2.473,0.847-5.02,0.846-7.612l-0.008-42.41l-0.005-27.164l-0.003-15.752   l-173.949-13.753L481.608,373.933z"/>
</g>
<g>
	<path style="fill:#73AF00;" d="M268.501,239.749l71.253-8.741l141.824-92.918c-0.114-0.52-0.226-1.04-0.362-1.553   c-0.42-1.572-0.948-3.107-1.577-4.598c-2.568-6.092-6.814-11.419-12.362-15.28c-0.812-0.565-1.642-1.11-2.509-1.611l-20.857-12.037   L280.998,209.747L268.501,239.749z"/>
	<path style="fill:#73AF00;" d="M271.001,270.991l9.997,31.263l162.885,106.718l6.612-3.819l14.319-8.27   c0.841-0.486,1.648-1.013,2.439-1.562c7.355-5.095,12.444-12.764,14.354-21.389l-141.854-92.938L271.001,270.991z"/>
	<path style="fill:#73AF00;" d="M172.256,280.994L30.423,373.92c1.891,8.631,6.966,16.312,14.31,21.422   c0.812,0.565,1.642,1.11,2.509,1.611L68.1,408.99l162.913-106.736l8.748-36.261L172.256,280.994z"/>
	<path style="fill:#73AF00;" d="M242.259,238.5l-11.247-28.751L68.126,103.03l-9.235,5.334l-11.697,6.756   c-0.841,0.486-1.648,1.015-2.439,1.562c-3.392,2.349-6.296,5.254-8.638,8.538c-1.572,2.206-2.883,4.585-3.911,7.092   c-0.762,1.857-1.361,3.785-1.801,5.761l141.851,92.936L242.259,238.5z"/>
</g>
<path style="fill:#F5F5F5;" d="M482.432,231.008H339.754h-58.755v-21.259V66.053V8.991l-7.392-4.266  c-10.92-6.302-24.37-6.3-35.287,0.006l-7.308,4.221v57.101v143.696v21.259h-58.755H29.571l0.009,49.986h142.678h58.755v21.259  V445.95v57.062l7.392,4.266c10.92,6.301,24.371,6.3,35.287-0.006l7.308-4.221V445.95V302.253v-21.259h58.755h142.686  L482.432,231.008z"/>
<g>
</g>
<g>
</g>
<g>
</g>
<g>
</g>
<g>
</g>
<g>
</g>
<g>
</g>
<g>
</g>
<g>
</g>
<g>
</g>
<g>
</g>
<g>
</g>
<g>
</g>
<g>
</g>
<g>
</g>
</svg>
