<?xml version="1.0" encoding="iso-8859-1"?>
<!-- Generator: Adobe Illustrator 19.0.0, SVG Export Plug-In . SVG Version: 6.00 Build 0)  -->
<svg xmlns="http://www.w3.org/2000/svg" xmlns:xlink="http://www.w3.org/1999/xlink" version="1.1" id="Layer_1" x="0px" y="0px" viewBox="0 0 512.004 512.004" style="enable-background:new 0 0 512.004 512.004;" xml:space="preserve">
<path style="fill:#F5F5F5;" d="M482.45,366.319l-0.008-42.41l-0.005-27.164l-0.014-81.491l-0.005-27.164l-0.008-42.486  c-0.001-3.105-0.422-6.147-1.202-9.07c-0.42-1.572-0.948-3.107-1.577-4.597c-2.568-6.092-6.814-11.419-12.362-15.28  c-0.812-0.565-1.642-1.11-2.509-1.611l-23.71-13.684l-22.198-12.81l-17.87-10.313l-68.334-39.438l0,0l-26.659-15.386l-19.994-11.539  l-12.39-7.151c-10.918-6.302-24.37-6.3-35.287,0.006l-12.307,7.108l-19.994,11.548l-26.659,15.398v-0.001l-68.332,39.467  L81.08,95.547l-22.191,12.818l-11.697,6.756c-0.841,0.486-1.648,1.015-2.439,1.562c-3.392,2.349-6.296,5.254-8.638,8.538  c-1.572,2.206-2.883,4.585-3.911,7.092c-1.715,4.179-2.652,8.706-2.651,13.371l0.007,42.41l0.005,27.164l0.014,81.478v0.014v0.005  l0.005,27.159l0.007,42.478v0.006c0.002,11.607,5.715,22.388,15.14,28.946c0.812,0.565,1.642,1.11,2.509,1.611l23.377,13.491  l22.198,12.811l18.204,10.506l94.999,54.826l19.994,11.539l12.39,7.151c10.918,6.302,24.37,6.299,35.287-0.006l12.307-7.108  l19.994-11.548l26.659-15.397l0,0l57.587-33.261l10.742-6.205l27.325-15.782l22.191-12.818l14.319-8.27  c0.841-0.486,1.648-1.015,2.439-1.562C476.716,388.765,482.451,377.955,482.45,366.319L482.45,366.319L482.45,366.319z"/>
<path style="fill:#41479B;" d="M482.443,323.909l-0.005-27.164l-0.014-81.491l-0.005-27.164l-0.008-42.486  c-0.001-3.105-0.422-6.147-1.202-9.07c-0.42-1.572-0.948-3.107-1.577-4.597c-2.463-5.845-6.487-10.971-11.706-14.787L44.071,394.852  c0.221,0.161,0.434,0.332,0.659,0.489c0.812,0.565,1.642,1.11,2.509,1.611l23.377,13.491l22.198,12.811l13.34,7.699l4.864,2.807  l94.999,54.826l19.994,11.539l12.39,7.151c10.918,6.301,24.37,6.298,35.287-0.006l12.307-7.108l19.994-11.548l26.659-15.397  l57.587-33.261l10.742-6.205l4.845-2.798l22.48-12.984l22.191-12.818l14.319-8.27c0.841-0.486,1.648-1.015,2.439-1.562  c9.465-6.556,15.201-17.365,15.2-29.001L482.443,323.909z"/>
<path style="fill:#FFE15A;" d="M305.988,23.416l-19.994-11.539l-12.39-7.151c-10.918-6.302-24.37-6.3-35.287,0.006L226.01,11.84  l-19.994,11.548l-26.659,15.398v-0.001l-68.33,39.465l-4.845,2.798L81.08,95.547l-22.191,12.818l-11.697,6.756  c-0.841,0.486-1.648,1.015-2.439,1.562c-3.392,2.349-6.296,5.254-8.638,8.538c-1.572,2.206-2.883,4.585-3.911,7.092  c-1.715,4.179-2.652,8.706-2.651,13.371l0.007,42.41l0.004,20.043L224.025,81.048l85.268-55.725L305.988,23.416z"/>
<path style="fill:#464655;" d="M196.122,228.56c-3.926-26.207-24.592-46.872-50.798-50.798l-9.025-18.051l-9.025,18.051  c-26.207,3.926-46.872,24.591-50.798,50.798l-18.05,9.025l18.05,9.024c3.926,26.207,24.592,46.872,50.798,50.798l9.025,18.051  l9.025-18.051c26.207-3.926,46.872-24.591,50.798-50.798l18.05-9.024L196.122,228.56z M136.298,289.5  c-28.672,0-51.916-23.244-51.916-51.916s23.244-51.916,51.916-51.916s51.916,23.244,51.916,51.916S164.97,289.5,136.298,289.5z"/>
<polygon style="fill:#FF4B55;" points="136.298,204.313 145.614,221.449 165.113,220.949 154.931,237.584 165.113,254.221   145.614,253.721 136.298,270.856 126.982,253.721 107.484,254.221 117.666,237.584 107.484,220.949 126.982,221.449 "/>
<g>
</g>
<g>
</g>
<g>
</g>
<g>
</g>
<g>
</g>
<g>
</g>
<g>
</g>
<g>
</g>
<g>
</g>
<g>
</g>
<g>
</g>
<g>
</g>
<g>
</g>
<g>
</g>
<g>
</g>
</svg>
