<?xml version="1.0" encoding="iso-8859-1"?>
<!-- Generator: Adobe Illustrator 19.0.0, SVG Export Plug-In . SVG Version: 6.00 Build 0)  -->
<svg xmlns="http://www.w3.org/2000/svg" xmlns:xlink="http://www.w3.org/1999/xlink" version="1.1" id="Layer_1" x="0px" y="0px" viewBox="0 0 512.002 512.002" style="enable-background:new 0 0 512.002 512.002;" xml:space="preserve">
<path style="fill:#F5F5F5;" d="M482.449,366.319l-0.008-42.41l-0.005-27.164l-0.014-81.491l-0.005-27.164l-0.008-42.485  c0-3.105-0.422-6.147-1.202-9.07c-0.42-1.572-0.948-3.107-1.577-4.597c-2.568-6.091-6.814-11.419-12.362-15.28  c-0.812-0.565-1.642-1.11-2.509-1.611l-23.71-13.684l-22.198-12.81l-17.87-10.313L332.644,38.8l0,0l-26.659-15.386L285.99,11.875  L273.6,4.724c-10.918-6.301-24.37-6.298-35.287,0.006l-12.307,7.108l-19.995,11.548l-26.659,15.398l0,0L111.025,78.25L81.078,95.547  l-22.191,12.818L47.19,115.12c-0.841,0.486-1.648,1.015-2.439,1.561c-3.392,2.349-6.296,5.254-8.638,8.538  c-1.572,2.206-2.883,4.585-3.911,7.092c-1.715,4.179-2.652,8.706-2.651,13.371l0.007,42.41l0.005,27.164l0.014,81.478v0.014v0.005  l0.005,27.159l0.007,42.478v0.006c0.003,11.607,5.715,22.388,15.14,28.946c0.812,0.565,1.642,1.11,2.509,1.611l23.377,13.491  l22.198,12.812l18.204,10.506l94.999,54.826l19.995,11.539l12.39,7.151c10.918,6.301,24.37,6.298,35.287-0.006l12.307-7.108  l19.995-11.548l26.659-15.397l0,0l57.588-33.261l10.742-6.205l27.325-15.782l22.191-12.818l14.319-8.27  c0.841-0.486,1.648-1.015,2.439-1.561C476.715,388.765,482.451,377.956,482.449,366.319L482.449,366.319L482.449,366.319z"/>
<g>
	<path style="fill:#41479B;" d="M273.685,507.27l12.307-7.108l19.995-11.548l26.659-15.397l57.588-33.261l10.742-6.205   l27.325-15.782l22.191-12.818l14.319-8.27c0.841-0.486,1.648-1.013,2.439-1.562c9.465-6.556,15.201-17.365,15.2-29.001   l-0.008-42.41l-0.005-27.164l-0.006-38.208L256.992,511.969C262.767,511.814,268.51,510.259,273.685,507.27z"/>
	<path style="fill:#41479B;" d="M29.577,296.733v0.014v0.005l0.005,27.159l0.007,42.478v0.006   c0.003,11.607,5.715,22.389,15.14,28.946c0.812,0.565,1.642,1.11,2.509,1.611l23.377,13.491l22.198,12.812l18.204,10.506   l94.999,54.826l19.995,11.539l12.39,7.151c5.15,2.972,10.862,4.524,16.607,4.691L29.571,258.538L29.577,296.733z"/>
</g>
<g>
	<path style="fill:#FF4B55;" d="M238.315,4.73l-12.307,7.108l-19.995,11.548l-26.659,15.398l0,0l-68.33,39.465L81.078,95.547   l-22.191,12.818L47.19,115.12c-0.841,0.486-1.648,1.015-2.439,1.561c-3.392,2.349-6.296,5.254-8.638,8.538   c-1.572,2.206-2.883,4.585-3.911,7.092c-1.715,4.179-2.652,8.706-2.651,13.371l0.007,42.41l0.005,27.164l0.006,38.208   L255.008,0.031C249.234,0.188,243.49,1.742,238.315,4.73z"/>
	<path style="fill:#FF4B55;" d="M482.424,215.255l-0.005-27.164l-0.008-42.485c0-3.105-0.422-6.147-1.202-9.07   c-0.42-1.572-0.949-3.107-1.577-4.598c-2.568-6.091-6.814-11.419-12.362-15.278c-0.812-0.565-1.642-1.11-2.509-1.611l-23.71-13.684   l-22.198-12.811l-17.87-10.313l-68.339-39.44l-26.659-15.386L285.99,11.876L273.6,4.725c-5.15-2.972-10.862-4.524-16.607-4.691   l225.436,253.428L482.424,215.255z"/>
</g>
<path style="fill:#FFE15A;" d="M258.998,145.81l23.998,69.04l73.078,1.49c3.008,0.061,4.25,3.884,1.853,5.702L299.682,266.2  l21.165,69.961c0.871,2.88-2.381,5.242-4.851,3.524L256,297.936l-59.996,41.749c-2.471,1.718-5.722-0.644-4.851-3.524l21.165-69.961  l-58.245-44.158c-2.398-1.818-1.156-5.641,1.853-5.702l73.076-1.49L253,145.81C253.991,142.969,258.011,142.969,258.998,145.81z"/>
<g>
</g>
<g>
</g>
<g>
</g>
<g>
</g>
<g>
</g>
<g>
</g>
<g>
</g>
<g>
</g>
<g>
</g>
<g>
</g>
<g>
</g>
<g>
</g>
<g>
</g>
<g>
</g>
<g>
</g>
</svg>
