<?xml version="1.0" encoding="iso-8859-1"?>
<!-- Generator: Adobe Illustrator 19.0.0, SVG Export Plug-In . SVG Version: 6.00 Build 0)  -->
<svg xmlns="http://www.w3.org/2000/svg" xmlns:xlink="http://www.w3.org/1999/xlink" version="1.1" id="Layer_1" x="0px" y="0px" viewBox="0 0 512.006 512.006" style="enable-background:new 0 0 512.006 512.006;" xml:space="preserve">
<path style="fill:#F5F5F5;" d="M482.453,366.321l-0.008-42.41l-0.005-27.164l-0.014-81.491l-0.005-27.164l-0.008-42.486  c0-3.105-0.422-6.147-1.202-9.07c-0.42-1.572-0.948-3.107-1.577-4.598c-2.568-6.092-6.814-11.419-12.362-15.28  c-0.812-0.565-1.642-1.11-2.509-1.611l-23.71-13.684l-22.198-12.81l-17.87-10.313l-68.338-39.439l0,0l-26.659-15.386l-19.995-11.539  l-12.39-7.151c-10.918-6.301-24.37-6.3-35.287,0.006l-12.307,7.108l-19.995,11.548l-26.659,15.398l0,0l-68.329,39.467L81.081,95.549  L58.89,108.367l-11.697,6.756c-0.841,0.486-1.648,1.015-2.439,1.562c-3.392,2.349-6.296,5.254-8.638,8.538  c-1.572,2.206-2.883,4.585-3.911,7.092c-1.716,4.179-2.652,8.706-2.651,13.371l0.007,42.41l0.005,27.164l0.014,81.478v0.014v0.005  l0.005,27.159l0.007,42.478v0.006c0.003,11.607,5.715,22.388,15.14,28.946c0.812,0.565,1.642,1.11,2.509,1.611l23.377,13.491  l22.198,12.812l18.204,10.506l94.999,54.826l19.995,11.539l12.39,7.151c10.918,6.302,24.37,6.299,35.287-0.006l12.307-7.108  l19.995-11.548l26.659-15.397l0,0l57.587-33.261l10.742-6.205l27.325-15.782l22.191-12.818l14.319-8.27  c0.841-0.486,1.648-1.013,2.439-1.561C476.718,388.768,482.454,377.958,482.453,366.321L482.453,366.321L482.453,366.321z"/>
<g>
	<polygon style="fill:#41479B;" points="221.339,14.54 226.012,11.841 206.017,23.39 179.358,38.787 179.358,38.787 111.028,78.253    97.397,86.126 221.339,126.727  "/>
	<path style="fill:#41479B;" d="M125.049,136.036l-72.784-23.843l-5.071,2.929c-0.841,0.486-1.648,1.015-2.439,1.562   c-3.392,2.349-6.296,5.254-8.638,8.538c-1.572,2.206-2.883,4.585-3.911,7.092c-0.8,1.948-1.422,3.975-1.867,6.053   c0.169-0.785,0.364-1.562,0.584-2.331C30.922,136.036,125.049,136.036,125.049,136.036z"/>
	<polyline style="fill:#41479B;" points="482.423,186.022 387.09,186.022 482.428,217.253  "/>
	<polygon style="fill:#41479B;" points="414.68,86.146 400.989,78.244 332.65,38.804 305.99,23.418 290.8,14.65 290.8,126.727  "/>
	<path style="fill:#41479B;" d="M481.061,136.036c-0.395-1.395-0.862-2.764-1.423-4.094c-2.568-6.092-6.814-11.419-12.362-15.28   c-0.812-0.565-1.642-1.11-2.509-1.611l-4.932-2.847l-72.745,23.83h93.972v0.002H481.061z"/>
	<polygon style="fill:#41479B;" points="36.128,256.003 221.339,256.003 221.339,195.331  "/>
	<polygon style="fill:#41479B;" points="290.8,256.003 476.009,256.003 290.8,195.331  "/>
	<path style="fill:#41479B;" d="M366.761,354.825c3.721-4.556,6.647-9.452,8.212-15.25c1.092-4.046,2.854-7.647,4.965-10.828   c-2.433-0.166-5.096-0.264-8.079-0.264c-14.307,0-21.552,2.132-28.706,4.29l-8.798,28.668   C344.678,359.091,350.766,355.463,366.761,354.825z"/>
	<path style="fill:#41479B;" d="M383.294,355.276c15.411,1.621,20.481,6.362,36.543,7.785l23.565-19.466l-16.396,19.847   c0.912,0.019,1.851,0.031,2.827,0.031c27.085,0,28.893-7.622,52.618-8.635l-0.004-26.243c-23.721,1.013-25.531,8.634-52.614,8.634   c-22.255,0-27.435-5.152-41.752-7.548c-0.597,1.603-0.976,3.175-1.028,4.655C386.914,338.208,386.588,345.929,383.294,355.276z"/>
	<path style="fill:#41479B;" d="M367.438,381.047c-5.698,7.543-8.846,14.085-10.567,18.557c3.209,2.467,6.329,5.042,9.346,7.733   c0.009,0,0.017-0.001,0.026-0.001l28.682-23.695c-5.697-1.492-12.428-2.672-23.069-2.672   C370.297,380.969,368.837,380.999,367.438,381.047z"/>
	<path style="fill:#41479B;" d="M264.548,355.031c5.462,0.405,9.697,1.181,13.424,2.109c3.185-8.43,7.073-15.997,10.097-23.34   c-7.344-2.124-13.675-4.555-26.035-5.166L264.548,355.031z"/>
	<path style="fill:#41479B;" d="M173.31,387.537c0.36-0.209,0.73-0.402,1.091-0.609c-0.815-0.217-1.608-0.442-2.392-0.67   C172.459,386.712,172.896,387.144,173.31,387.537z"/>
	<path style="fill:#41479B;" d="M407.378,387.202l-17.748,21.484c9.714,1.838,15.32,4.915,26.177,6.408   c9.279-3.69,17.479-7.84,23.341-15.452c12.781-16.593,36.661-16.705,36.661-16.705s-19.33,7.363-23.497,16.489   c-0.725,1.588-1.788,3.888-3.338,6.606l1.521-0.879l14.319-8.27c0.841-0.486,1.648-1.013,2.439-1.561   c5.181-3.588,9.215-8.464,11.831-14.04c-20.589,1.553-23.51,8.434-49.25,8.434C419.571,389.716,412.947,388.619,407.378,387.202z"/>
	<path style="fill:#41479B;" d="M124.569,334.685c4.856,2.217,16.332,7.559,26.265,20.539c12.009,1.188,17.798,4.253,26.975,6.295   l-8.786-28.633c-7.279-2.197-14.527-4.403-29.086-4.403c-9.179,0-15.447,0.879-20.653,2.078   C120.942,332.366,122.717,333.84,124.569,334.685z"/>
	<path style="fill:#41479B;" d="M92.267,363.034c16.89-1.555,21.574-6.794,39.497-8.038c-1.976-2.642-4.253-5.047-6.981-7.148   c-5.663-4.363-9.405-10.017-11.879-15.576c-7.954,2.363-15.143,4.957-30.927,4.957c-26.986,0-28.841-7.59-52.392-8.628   l0.004,26.243c23.547,1.038,25.403,8.628,52.388,8.628c1.093,0,2.133-0.016,3.147-0.04l-16.387-19.836L92.267,363.034z"/>
	<path style="fill:#41479B;" d="M305.119,336.917c-0.509,2.506-1.171,5.097-2.027,7.772c-2.211,6.907-3.307,12.909-3.804,17.838   c3.993,0.58,8.688,0.947,14.601,0.947c0.886,0,1.742-0.009,2.576-0.025l14.63-27.585c-4.527,0.82-9.961,1.366-17.205,1.366   C310.618,337.231,307.734,337.114,305.119,336.917z"/>
	<path style="fill:#41479B;" d="M59.48,399.946c6.356,0.226,23.087,0.955,40.366,14.519c8.568-1.635,13.947-4.23,22.615-5.835   l-17.76-21.499c-5.625,1.451-12.294,2.586-22.724,2.586c-25.645,0-28.6-6.853-49.042-8.424c1.067,2.286,2.374,4.449,3.903,6.458   c-1.058-1.956-1.586-3.202-1.586-3.202S49.452,399.59,59.48,399.946z"/>
	<path style="fill:#41479B;" d="M117.133,383.575l28.777,23.772c2.336-2.084,4.74-4.09,7.192-6.041   c-3.889-6.798-6.629-13.679-9.119-20.271c-1.29-0.04-2.623-0.066-4.046-0.066C129.458,380.969,122.774,382.115,117.133,383.575z"/>
	<path style="fill:#41479B;" d="M292.708,308.787c-0.006-0.05-0.009-0.099-0.015-0.149c-1.246-9.601,1.676-18.384,5.177-25.058   c-14.23-2.338-19.442-7.398-40.849-7.572l2.503,26.287C276.235,302.755,282.505,306.364,292.708,308.787z"/>
	<path style="fill:#41479B;" d="M228.242,340.871c0.56,6.733,1.713,12.374,3.02,16.952c4.444-1.241,9.4-2.326,16.329-2.817   l2.513-26.39c-10.646,0.494-16.85,2.327-22.991,4.18C227.615,335.341,228.006,338.027,228.242,340.871z"/>
	<path style="fill:#41479B;" d="M301.85,299.179c0.886,2.373,2.327,6.302,3.369,11.503c2.589,0.192,5.442,0.306,8.67,0.306   c17.4,0,24.357-3.152,33.407-5.672l10.157-19.15l-5.52,17.989c5.064-1.115,11.167-1.916,19.923-1.916   c28.988,0,28.988,8.748,57.977,8.748c27.081,0,28.893-7.619,52.609-8.634l-0.001-5.605l-0.004-20.637   c-23.712,1.016-25.524,8.634-52.606,8.634c-28.988,0-28.988-8.748-57.977-8.748c-28.983,0-28.983,8.748-57.968,8.748   c-4.483,0-8.268-0.21-11.578-0.564C301.036,289.439,300.354,295.17,301.85,299.179z"/>
	<path style="fill:#41479B;" d="M164.901,305.427c8.863,2.501,15.868,5.562,33.02,5.562c2.363,0,4.518-0.064,6.527-0.17   c-4.807-8.841-5.15-18.522-4.239-26.094c-0.746,0.012-1.502,0.021-2.289,0.021c-28.992,0-28.992-8.748-57.984-8.748   c-28.98,0-28.98,8.748-57.959,8.748c-26.99,0-28.841-7.592-52.401-8.628l0.004,20.618v0.014v0.005l0.001,5.607   c23.556,1.036,25.408,8.628,52.397,8.628c28.98,0,28.98-8.748,57.959-8.748c8.968,0,15.158,0.839,20.293,1.994l-5.545-18.068   L164.901,305.427z"/>
	<path style="fill:#41479B;" d="M181.078,335.927l14.599,27.525c0.731,0.013,1.472,0.021,2.244,0.021   c4.632,0,8.519-0.225,11.908-0.6c-0.36-9.329,0.384-18.093,0.369-26.287c-3.475,0.401-7.472,0.645-12.277,0.645   C190.865,337.231,185.534,336.711,181.078,335.927z"/>
	<path style="fill:#41479B;" d="M217.516,309.145c11.251-2.422,17.283-6.418,35.097-6.861l2.503-26.28   c-25.942,0.147-28.272,7.419-50.856,8.58c0.807,5.548,2.376,11.449,5.417,14.715C211.467,301.222,214.448,304.477,217.516,309.145z   "/>
	<polygon style="fill:#41479B;" points="29.823,188.088 29.828,215.25 29.828,217.295 125.309,186.016 29.823,186.016  "/>
</g>
<path style="fill:#FFE15A;" d="M475.809,382.938c0,0-23.88,0.112-36.661,16.705c-5.863,7.612-14.062,11.762-23.341,15.452  c-9.369,3.726-19.837,6.986-30.116,12.865c-1.951-2.452-3.958-4.856-6.041-7.192l9.98-12.082l17.748-21.484l19.627-23.76  l16.396-19.847l-23.565,19.466l-24.912,20.579l-28.682,23.695l-0.014,0.011c-0.004-0.004-0.009-0.006-0.013-0.01  c-3.017-2.691-6.137-5.266-9.346-7.733c1.721-4.473,4.869-11.014,10.567-18.557c1.032-1.366,2.138-2.76,3.344-4.186  c6.338-7.487,10.172-14.945,12.512-21.584c3.293-9.346,3.619-17.068,3.756-20.938c0.052-1.481,0.431-3.053,1.028-4.655  c3.448-9.256,14.37-19.571,14.37-19.571s-14.081,5.92-22.514,18.635c-2.109,3.182-3.871,6.781-4.965,10.828  c-1.565,5.796-4.49,10.693-8.212,15.25c-8.239,10.09-20.383,18.511-30.317,31.341c-2.737-1.523-5.508-2.992-8.338-4.361  l6.248-20.362l8.798-28.668l8.781-28.617l5.52-17.989l-10.157,19.15l-16.202,30.548l-14.63,27.585l-5.898,11.122  c-3.815-1.33-7.687-2.534-11.623-3.587c-0.056-2.283,0.01-5.127,0.346-8.458c0.497-4.929,1.593-10.931,3.804-17.838  c0.856-2.674,1.518-5.266,2.027-7.772c2.131-10.508,1.458-19.455,0.1-26.235c-1.042-5.201-2.484-9.13-3.369-11.503  c-1.496-4.009-0.812-9.74,0.461-14.997c1.712-7.069,4.494-13.279,4.494-13.279s-4.859,4.911-8.933,12.678  c-3.502,6.674-6.423,15.458-5.177,25.058c0.006,0.05,0.009,0.099,0.015,0.149c1.088,8.681-1.218,16.708-4.639,25.013  c-3.024,7.344-6.912,14.91-10.097,23.34c-1.128,2.985-2.171,6.076-3.05,9.307c-3.098-0.351-6.216-0.631-9.362-0.81l-1.01-10.606  l-2.514-26.398l-2.508-26.343l-2.503-26.287l-0.953-10.009l-0.952,10.005l-2.503,26.28l-2.508,26.332l-2.513,26.39l-1.012,10.631  c-4.075,0.231-8.102,0.637-12.092,1.157c-1.023-2.304-2.174-5.295-3.225-8.973c-1.308-4.576-2.462-10.218-3.02-16.952  c-0.236-2.844-0.626-5.53-1.127-8.075c-2.002-10.17-5.861-17.966-9.597-23.651c-3.068-4.667-6.05-7.924-7.839-9.845  c-3.042-3.265-4.611-9.167-5.417-14.715c-1.007-6.927-0.826-13.303-0.826-13.303s-2.281,5.583-3.225,13.443  c-0.911,7.572-0.569,17.254,4.239,26.094c0.131,0.241,0.252,0.486,0.391,0.726c4.396,7.648,5.341,15.999,5.357,25.042  c0.015,8.195-0.729,16.959-0.369,26.287c0.112,2.9,0.33,5.856,0.712,8.865c-3.025,0.864-6.016,1.803-8.966,2.833l-5.897-11.119  l-14.599-27.525l-16.177-30.5l-10.215-19.26l5.545,18.068l8.793,28.651l8.786,28.633l6.225,20.284  c-3.283,1.59-6.479,3.324-9.634,5.124c-0.361,0.206-0.731,0.401-1.091,0.609c-0.414-0.394-0.851-0.825-1.301-1.278  c-4.013-4.048-9.369-10.54-14.38-20.271c-2.099-4.075-4.403-7.638-6.794-10.763c-9.934-12.98-21.41-18.322-26.265-20.539  c-1.851-0.845-3.627-2.319-5.286-4.123c-6.522-7.093-11.203-19.373-11.203-19.373s0.051,10.361,4.826,21.085  c2.474,5.557,6.216,11.213,11.879,15.576c2.727,2.101,5.004,4.505,6.981,7.148c5.426,7.254,8.551,16.331,12.218,26.039  c2.489,6.592,5.23,13.473,9.119,20.271c-2.452,1.949-4.856,3.956-7.192,6.041l-28.777-23.772l-24.866-20.542l-23.534-19.437  l16.388,19.838l19.577,23.699l17.76,21.499l10.027,12.138c-2.694,3.02-5.272,6.145-7.743,9.359  c-5.282-2.033-13.448-6.042-22.744-13.912c-0.719-0.609-1.437-1.186-2.156-1.75c-17.279-13.564-34.012-14.294-40.366-14.519  c-10.027-0.356-24.226-15.397-24.226-15.397s0.526,1.246,1.586,3.202c0.097,0.129,0.189,0.262,0.289,0.39  c0.297,0.379,0.611,0.745,0.924,1.112c0.246,0.29,0.486,0.584,0.742,0.865c0.364,0.4,0.747,0.784,1.13,1.167  c0.234,0.235,0.46,0.477,0.7,0.706c0.439,0.416,0.901,0.811,1.362,1.206c0.21,0.179,0.409,0.369,0.624,0.544  c0.685,0.559,1.392,1.095,2.123,1.605c0.812,0.565,66.287,38.418,66.287,38.418l94.999,54.826l19.995,11.539l12.39,7.151  c10.918,6.302,24.37,6.3,35.287-0.006L286,500.167l19.995-11.548l26.659-15.397l57.587-33.261l58.738-33.926  c1.55-2.718,2.613-5.017,3.338-6.606C456.479,390.3,475.809,382.938,475.809,382.938z"/>
<g>
	<polygon style="fill:#FF4B55;" points="275.146,146.033 271.065,146.033 271.065,150.78  "/>
	<polygon style="fill:#FF4B55;" points="302.643,146.033 290.34,146.033 292.577,151.237  "/>
	<path style="fill:#FF4B55;" d="M212.259,170.57c0-1.297,1.356-2.348,3.028-2.348h0.624l-14.307-22.19H29.555l0.005,29.992h182.699   V170.57L212.259,170.57z"/>
	<path style="fill:#FF4B55;" d="M296.229,168.223h0.624c1.672,0,3.028,1.051,3.028,2.348v5.455h182.541l-0.005-29.992H310.536   L296.229,168.223z"/>
	<polygon style="fill:#FF4B55;" points="241.074,146.033 236.992,146.033 241.074,150.78  "/>
	<polygon style="fill:#FF4B55;" points="221.798,146.033 209.495,146.033 219.561,151.237  "/>
	<path style="fill:#FF4B55;" d="M241.074,3.318v142.715h3.748l9.205-14.276c0.842-1.306,3.244-1.306,4.086,0l9.205,14.276h3.748   V3.409C261.578-1.084,250.581-1.112,241.074,3.318z"/>
	<rect x="241.07" y="179.541" style="fill:#FF4B55;" width="29.992" height="76.45"/>
	<polygon style="fill:#FF4B55;" points="241.466,151.237 244.821,146.033 241.074,146.033 241.074,150.78  "/>
	<polygon style="fill:#FF4B55;" points="270.672,151.237 271.065,150.78 271.065,146.033 267.316,146.033  "/>
	<polygon style="fill:#FF4B55;" points="168.807,186.022 29.569,231.198 29.572,243.133 205.533,186.022  "/>
	<polygon style="fill:#FF4B55;" points="321.709,186.022 482.431,238.198 482.429,226.265 358.434,186.022  "/>
	<polygon style="fill:#FF4B55;" points="186.089,136.036 73.958,99.663 60.769,107.281 149.363,136.036  "/>
	<polygon style="fill:#FF4B55;" points="430.911,95.512 306.056,136.036 342.78,136.036 444.148,103.152 441.056,101.368  "/>
</g>
<g>
	<path style="fill:#FFE15A;" d="M307.326,143.612l-4.682,2.421l-10.066,5.204l-2.237-5.204l-3.588-8.346   c-0.601-1.398-3.013-1.648-4.068-0.422l-7.539,8.769l-4.081,4.747l-0.392,0.456l-3.355-5.204l-9.205-14.276   c-0.842-1.306-3.244-1.306-4.086,0l-9.205,14.276l-3.355,5.204l-0.392-0.457l-4.081-4.747l-7.539-8.769   c-1.055-1.226-3.467-0.976-4.068,0.422l-3.588,8.346l-2.237,5.204l-10.066-5.204l-4.682-2.421c-1.949-1.007-4.358,0.641-3.31,2.266   l0.1,0.155l14.307,22.19h-0.624c-1.672,0-3.028,1.051-3.028,2.348v5.455v1.173c0,1.297,1.356,2.348,3.028,2.348h25.787h29.992   h25.787c1.672,0,3.028-1.051,3.028-2.348v-1.173v-5.455c0-1.297-1.356-2.348-3.028-2.348h-0.624l14.307-22.19l0.1-0.155   C311.683,144.253,309.275,142.605,307.326,143.612z"/>
	<path style="fill:#FFE15A;" d="M439.148,399.642c-5.863,7.612-14.062,11.762-23.341,15.452   c-9.369,3.726-19.837,6.986-30.116,12.865c-1.951-2.452-3.958-4.856-6.041-7.192l9.98-12.082l17.748-21.484l19.627-23.76   l16.396-19.847l-23.565,19.466l-24.912,20.579l-28.682,23.695l-0.014,0.011c-0.004-0.004-0.009-0.006-0.013-0.01   c-3.017-2.691-6.137-5.266-9.346-7.733c1.721-4.473,4.869-11.014,10.567-18.557c1.032-1.366,2.138-2.76,3.344-4.186   c6.338-7.487,10.172-14.945,12.512-21.584c3.293-9.346,3.619-17.068,3.756-20.938c0.052-1.481,0.431-3.053,1.028-4.655   c3.448-9.256,14.37-19.571,14.37-19.571s-14.081,5.92-22.514,18.635c-2.109,3.182-3.871,6.781-4.965,10.828   c-1.565,5.796-4.49,10.693-8.212,15.25c-8.239,10.09-20.383,18.511-30.317,31.341c-2.737-1.523-5.508-2.992-8.338-4.361   l6.248-20.362l8.798-28.668l8.781-28.617l5.52-17.989l-10.157,19.15l-16.202,30.548l-14.63,27.585l-5.898,11.122   c-3.815-1.33-7.687-2.534-11.623-3.587c-0.056-2.283,0.01-5.127,0.346-8.458c0.497-4.929,1.593-10.931,3.804-17.838   c0.856-2.674,1.518-5.266,2.027-7.772c2.131-10.508,1.458-19.455,0.1-26.235c-1.042-5.201-2.484-9.13-3.369-11.503   c-1.496-4.009-0.812-9.74,0.461-14.997c1.712-7.069,4.494-13.279,4.494-13.279s-4.859,4.911-8.933,12.678   c-3.502,6.674-6.423,15.458-5.177,25.058c0.006,0.05,0.009,0.099,0.015,0.149c1.088,8.681-1.218,16.708-4.639,25.013   c-3.024,7.344-6.912,14.91-10.097,23.34c-1.128,2.985-2.171,6.076-3.05,9.307c-3.098-0.351-6.216-0.631-9.362-0.81l-1.01-10.606   l-2.514-26.398l-2.508-26.342l-2.503-26.287l-0.953-10.009l-0.952,10.005l-2.503,26.28l-2.508,26.332l-2.513,26.39l-1.012,10.631   c-4.075,0.231-8.102,0.637-12.092,1.157c-1.023-2.304-2.174-5.295-3.225-8.973c-1.308-4.576-2.462-10.218-3.02-16.952   c-0.236-2.844-0.626-5.53-1.127-8.075c-2.002-10.17-5.861-17.966-9.597-23.651c-3.068-4.667-6.05-7.924-7.839-9.845   c-3.042-3.265-4.611-9.167-5.417-14.715c-1.007-6.927-0.826-13.303-0.826-13.303s-2.281,5.583-3.225,13.443   c-0.911,7.572-0.569,17.254,4.239,26.094c0.131,0.241,0.252,0.486,0.391,0.726c4.396,7.648,5.341,15.999,5.357,25.042   c0.015,8.195-0.729,16.959-0.369,26.287c0.112,2.9,0.33,5.856,0.712,8.865c-3.025,0.864-6.016,1.803-8.966,2.833l-5.897-11.119   l-14.599-27.525l-16.177-30.5l-10.215-19.26l5.545,18.068l8.793,28.651l8.786,28.633l6.225,20.284   c-3.283,1.59-6.479,3.324-9.634,5.124c-0.361,0.206-0.731,0.401-1.091,0.609c-0.414-0.394-0.851-0.825-1.301-1.278   c-4.013-4.048-9.369-10.54-14.38-20.271c-2.099-4.075-4.403-7.638-6.794-10.763c-9.934-12.98-21.41-18.322-26.265-20.539   c-1.851-0.845-3.627-2.319-5.286-4.123c-6.522-7.093-11.203-19.373-11.203-19.373s0.051,10.361,4.826,21.085   c2.474,5.557,6.216,11.213,11.879,15.576c2.727,2.101,5.004,4.505,6.981,7.148c5.426,7.254,8.551,16.331,12.218,26.039   c2.489,6.592,5.23,13.473,9.119,20.271c-2.452,1.949-4.856,3.956-7.192,6.041l-28.777-23.772l-24.866-20.542l-23.534-19.437   l16.388,19.838l19.577,23.699l17.76,21.499l10.027,12.138c-2.694,3.02-5.272,6.145-7.743,9.359   c-5.282-2.033-13.448-6.042-22.744-13.912c-0.719-0.609-1.437-1.186-2.156-1.75c-17.279-13.564-34.012-14.294-40.366-14.519   c-10.027-0.356-24.226-15.397-24.226-15.397s0.545,1.293,1.65,3.32c2.188,2.848,4.816,5.379,7.829,7.475   c0.812,0.565,1.642,1.11,2.509,1.611l23.377,13.491l9.524,5.497l12.674,7.314l18.204,10.506l21.12,12.189l73.879,42.637   l19.995,11.539l12.39,7.151c10.918,6.302,24.37,6.3,35.287-0.006L286,500.166l19.995-11.548l26.659-15.397l47.211-27.268   l10.377-5.993l10.742-6.205l27.325-15.782l3.517-2.031l17.154-9.907c1.55-2.718,2.613-5.017,3.338-6.606   c4.168-9.128,23.497-16.489,23.497-16.489S451.928,383.049,439.148,399.642z"/>
</g>
<g>
</g>
<g>
</g>
<g>
</g>
<g>
</g>
<g>
</g>
<g>
</g>
<g>
</g>
<g>
</g>
<g>
</g>
<g>
</g>
<g>
</g>
<g>
</g>
<g>
</g>
<g>
</g>
<g>
</g>
</svg>
