<?xml version="1.0" encoding="iso-8859-1"?>
<!-- Generator: Adobe Illustrator 19.0.0, SVG Export Plug-In . SVG Version: 6.00 Build 0)  -->
<svg xmlns="http://www.w3.org/2000/svg" xmlns:xlink="http://www.w3.org/1999/xlink" version="1.1" id="Layer_1" x="0px" y="0px" viewBox="0 0 512.005 512.005" style="enable-background:new 0 0 512.005 512.005;" xml:space="preserve">
<path style="fill:#F5F5F5;" d="M482.451,366.319l-0.008-42.41l-0.005-27.164l-0.014-81.491l-0.005-27.164l-0.008-42.486  c0-3.105-0.422-6.147-1.202-9.07c-0.42-1.572-0.949-3.107-1.576-4.598c-2.568-6.092-6.814-11.419-12.362-15.28  c-0.812-0.565-1.642-1.11-2.509-1.611l-23.71-13.684l-22.198-12.81l-17.87-10.313l-68.335-39.437l0,0L305.99,23.415l-19.995-11.539  l-12.39-7.151c-10.918-6.302-24.37-6.3-35.287,0.006l-12.307,7.108l-19.995,11.548l-26.659,15.398v-0.001l-68.33,39.467  L81.08,95.547l-22.191,12.818l-11.697,6.756c-0.841,0.486-1.648,1.015-2.439,1.562c-3.392,2.349-6.296,5.254-8.638,8.538  c-1.572,2.206-2.883,4.585-3.911,7.092c-1.716,4.179-2.652,8.706-2.651,13.371l0.007,42.41l0.005,27.164l0.014,81.478v0.014v0.005  l0.005,27.159l0.007,42.478v0.006c0.002,11.607,5.715,22.388,15.14,28.946c0.812,0.565,1.642,1.11,2.509,1.611l23.377,13.491  l22.198,12.812l18.204,10.506l94.999,54.826l19.995,11.539l12.39,7.151c10.918,6.302,24.37,6.299,35.287-0.006l12.307-7.108  l19.995-11.548l26.659-15.397l0,0l57.587-33.261l10.742-6.205l27.325-15.782l22.191-12.818l14.319-8.27  c0.841-0.486,1.648-1.015,2.439-1.562C476.717,388.766,482.453,377.956,482.451,366.319L482.451,366.319L482.451,366.319z"/>
<g>
	<path style="fill:#464655;" d="M256.068,0.005c-6.128-0.017-12.26,1.556-17.75,4.727l-12.307,7.108l-19.995,11.548l-26.659,15.398   l0,0l-68.33,39.465L81.08,95.547l-22.191,12.818l-11.697,6.756c-0.841,0.486-1.648,1.015-2.439,1.562   c-0.212,0.147-0.407,0.317-0.616,0.469l211.931,138.851L256.068,0.005L256.068,0.005z"/>
	<path style="fill:#464655;" d="M482.421,188.092l-0.008-42.486c0-3.105-0.422-6.147-1.202-9.07   c-0.42-1.572-0.949-3.107-1.576-4.597c-2.459-5.833-6.471-10.951-11.676-14.765L256.068,256h226.364l-0.006-40.745L482.421,188.092   z"/>
	<path style="fill:#464655;" d="M29.571,256.001l0.006,40.733v0.014v0.005l0.005,27.159l0.007,42.478v0.006   c0.001,11.342,5.467,21.885,14.511,28.48l211.967-138.875H29.571L29.571,256.001z"/>
	<path style="fill:#464655;" d="M256.068,512.001c6.085-0.005,12.168-1.581,17.62-4.73l12.307-7.108l19.995-11.548l26.659-15.397   l57.587-33.261l10.742-6.205l27.325-15.782l22.191-12.818l14.319-8.27c0.841-0.486,1.648-1.013,2.439-1.562   c0.235-0.162,0.457-0.34,0.687-0.507L256.068,256.001V512.001z"/>
</g>
<path style="fill:#FF4B55;" d="M280.062,242.005v31.991c0,13.23-10.763,23.993-23.993,23.993c-13.23,0-23.993-10.763-23.993-23.993  v-31.991H280.062 M288.058,226.009h-63.982c-4.418,0-7.998,3.582-7.998,7.998v39.989c0,22.085,17.904,39.989,39.989,39.989  s39.989-17.904,39.989-39.989v-39.989C296.057,229.591,292.476,226.009,288.058,226.009L288.058,226.009z"/>
<path style="fill:#F5F5F5;" d="M280.062,242.005v31.991c0,13.23-10.763,23.993-23.993,23.993c-13.23,0-23.993-10.763-23.993-23.993  v-31.991H280.062"/>
<g>
	<circle style="fill:#FFE15A;" cx="224.011" cy="234.011" r="3.999"/>
	<circle style="fill:#FFE15A;" cx="288.001" cy="234.011" r="3.999"/>
	<circle style="fill:#FFE15A;" cx="224.011" cy="266.001" r="3.999"/>
	<circle style="fill:#FFE15A;" cx="288.001" cy="266.001" r="3.999"/>
	<circle style="fill:#FFE15A;" cx="256.011" cy="234.011" r="3.999"/>
	<circle style="fill:#FFE15A;" cx="256.011" cy="306.301" r="3.999"/>
	<circle style="fill:#FFE15A;" cx="280.011" cy="295.491" r="3.999"/>
	<circle style="fill:#FFE15A;" cx="232.461" cy="295.491" r="3.999"/>
</g>
<g>
	<path style="fill:#41479B;" d="M261.233,263.971v6.887c0,2.848-2.317,5.165-5.165,5.165c-2.848,0-5.165-2.317-5.165-5.165v-6.887   H261.233"/>
	<path style="fill:#41479B;" d="M261.233,247.642v6.887c0,2.848-2.317,5.165-5.165,5.165c-2.848,0-5.165-2.317-5.165-5.165v-6.887   H261.233"/>
	<path style="fill:#41479B;" d="M261.233,280.467v6.887c0,2.848-2.317,5.165-5.165,5.165c-2.848,0-5.165-2.317-5.165-5.165v-6.887   H261.233"/>
	<path style="fill:#41479B;" d="M275.146,263.971v6.887c0,2.848-2.317,5.165-5.165,5.165s-5.165-2.317-5.165-5.165v-6.887H275.146"/>
	<path style="fill:#41479B;" d="M247.321,263.971v6.887c0,2.848-2.317,5.165-5.165,5.165c-2.848,0-5.165-2.317-5.165-5.165v-6.887   H247.321"/>
</g>
<path style="fill:#FFE15A;" d="M294.784,226.009h-77.038c-2.598,0-4.705-2.106-4.705-4.705v-2.94c0-2.598,2.107-4.705,4.705-4.705  h77.038c2.598,0,4.705,2.107,4.705,4.705v2.94C299.489,223.903,297.383,226.009,294.784,226.009z"/>
<polygon style="fill:#FF4B55;" points="256.266,216.747 250.091,219.834 256.266,222.922 262.44,219.834 "/>
<g>
	<ellipse style="fill:#4173CD;" cx="276.341" cy="219.831" rx="4.631" ry="3.088"/>
	<ellipse style="fill:#4173CD;" cx="236.201" cy="219.831" rx="4.631" ry="3.088"/>
</g>
<g>
	<circle style="fill:#F5F5F5;" cx="267.071" cy="219.831" r="1.543"/>
	<circle style="fill:#F5F5F5;" cx="285.601" cy="219.831" r="1.543"/>
	<circle style="fill:#F5F5F5;" cx="245.461" cy="219.831" r="1.543"/>
	<circle style="fill:#F5F5F5;" cx="226.941" cy="219.831" r="1.543"/>
</g>
<g>
	<polygon style="fill:#FF4B55;" points="213.043,218.291 213.043,221.378 216.129,222.922 222.304,219.834 216.129,216.747  "/>
	<polygon style="fill:#FF4B55;" points="299.489,221.378 299.489,218.291 296.401,216.747 290.226,219.834 296.401,222.922  "/>
</g>
<g>
	<path style="fill:#F5F5F5;" d="M235.72,193.577c-0.985-0.486-2.156-0.186-3.142,0.576c0.506-0.749,0.796-1.747,0.741-2.833   c-0.112-2.208-1.583-3.929-3.287-3.841c-1.703,0.086-2.993,1.947-2.88,4.155c0.06,1.173,0.517,2.183,1.176,2.883   c-1.33-0.649-2.784-0.586-3.673,0.304c-1.206,1.205-0.916,3.45,0.649,5.014c1.563,1.565,3.809,1.854,5.015,0.649   c0.336-0.336,0.53-0.762,0.637-1.223c0.246,0.646,0.625,1.206,1.226,1.502c1.53,0.754,3.562-0.244,4.539-2.227   C237.697,196.55,237.25,194.33,235.72,193.577z M231.18,195.804c-0.226,0.46-0.359,0.931-0.437,1.395   c-0.23-0.609-0.554-1.208-1.075-1.731c-0.09-0.09-0.199-0.132-0.294-0.215c0.339,0.14,0.691,0.24,1.063,0.221   c0.5-0.025,0.944-0.239,1.347-0.532C231.571,195.214,231.344,195.472,231.18,195.804z"/>
	<path style="fill:#F5F5F5;" d="M275.417,198.533c0.977,1.983,3.009,2.98,4.539,2.227c0.601-0.296,0.98-0.857,1.226-1.502   c0.109,0.461,0.301,0.887,0.637,1.223c1.206,1.206,3.45,0.916,5.015-0.649c1.563-1.563,1.854-3.809,0.649-5.014   c-0.89-0.89-2.343-0.952-3.673-0.304c0.659-0.7,1.116-1.71,1.176-2.883c0.112-2.208-1.177-4.069-2.879-4.155   c-1.703-0.086-3.174,1.633-3.287,3.841c-0.055,1.087,0.235,2.084,0.741,2.833c-0.986-0.762-2.157-1.061-3.142-0.576   C274.886,194.33,274.438,196.55,275.417,198.533z M280.349,194.941c0.404,0.295,0.847,0.507,1.347,0.532   c0.372,0.019,0.725-0.081,1.063-0.221c-0.094,0.081-0.204,0.124-0.294,0.215c-0.521,0.521-0.845,1.122-1.075,1.731   c-0.077-0.464-0.21-0.936-0.437-1.395C280.792,195.472,280.564,195.214,280.349,194.941z"/>
</g>
<path style="fill:#FFE15A;" d="M312.414,184.508c-4.448-1.583-13.802-2.431-17.364,5.653c-0.687,1.562,0.02,3.383,1.58,4.07  c1.508,0.666,3.242,0.006,3.979-1.451l1.163,1.378c-0.973,2.735-1.365,5.185-1.475,6.027c-1.588,6.584-7.702,7.299-10.271,7.299  c-4.144,0-6.487-4.441-6.509-4.486c-0.422-0.817-1.193-1.411-2.094-1.607c-0.904-0.196-1.846,0.012-2.569,0.579  c-1.692,1.33-6.954,4.921-10.925,5.553c-1.914,0.307-3.477-0.012-4.531-0.916c-0.855-0.73-1.157-1.646-1.157-2.211  c0-1.383,1.702-3.088,3.088-3.088c1.05,0,1.452,0.672,1.452,0.672c0.732,1.55,2.574,2.204,4.114,1.477  c1.542-0.732,2.199-2.572,1.47-4.113c-0.599-1.266-2.249-3.219-4.96-3.926c1.647-2.613,3.16-5.791,4.1-9.547l-9.262-3.088  c0,0,3.088-9.262-6.175-9.262c-9.262,0-6.175,9.262-6.175,9.262l-9.262,3.088c0.94,3.756,2.452,6.934,4.1,9.547  c-2.711,0.707-4.361,2.661-4.96,3.926c-0.73,1.541-0.072,3.38,1.47,4.113c1.54,0.726,3.382,0.072,4.111-1.471  c0,0,0.405-0.679,1.455-0.679c1.386,0,3.088,1.703,3.088,3.088c0,0.564-0.302,1.481-1.157,2.211  c-1.055,0.905-2.617,1.223-4.531,0.916c-3.971-0.634-9.234-4.224-10.925-5.553c-0.724-0.567-1.666-0.775-2.569-0.579  c-0.9,0.196-1.672,0.79-2.094,1.607c-0.022,0.045-2.366,4.486-6.509,4.486c-2.569,0-8.681-0.715-10.271-7.299  c-0.11-0.842-0.5-3.29-1.475-6.027l1.163-1.378c0.737,1.458,2.471,2.117,3.979,1.451c1.561-0.687,2.267-2.508,1.58-4.07  c-3.56-8.083-12.916-7.236-17.364-5.653c-1.273,0.452-2.106,1.68-2.053,3.03c0.051,1.351,0.977,2.508,2.282,2.862  c3.783,1.016,5.48,8.246,5.775,10.697c0.014,0.105,0.034,0.217,0.056,0.322c1.726,7.549,7.983,12.242,16.326,12.242  c4.781,0,8.088-2.708,10.007-4.951c2.704,1.782,7.057,4.266,11.119,4.911c0.78,0.124,1.542,0.187,2.287,0.187  c2.789,0,5.299-0.86,7.224-2.503c2.082-1.776,3.324-4.36,3.324-6.907c0,2.548,1.242,5.131,3.324,6.907  c1.924,1.643,4.435,2.503,7.224,2.503c0.745,0,1.507-0.064,2.287-0.187c4.063-0.645,8.415-3.129,11.119-4.911  c1.919,2.243,5.225,4.951,10.007,4.951c8.343,0,14.599-4.691,16.326-12.242c0.022-0.106,0.042-0.217,0.056-0.322  c0.296-2.452,1.993-9.681,5.776-10.697c1.306-0.352,2.231-1.511,2.282-2.862C314.52,186.186,313.688,184.959,312.414,184.508z"/>
<g>
	
		<ellipse transform="matrix(-0.9237 0.3831 -0.3831 -0.9237 467.6292 297.1499)" style="fill:#4173CD;" cx="204.226" cy="195.139" rx="3.088" ry="4.631"/>
	
		<ellipse transform="matrix(0.9237 0.3831 -0.3831 0.9237 98.2499 -103.0757)" style="fill:#4173CD;" cx="307.916" cy="195.138" rx="3.088" ry="4.631"/>
	<ellipse style="fill:#4173CD;" cx="256.071" cy="192.051" rx="4.631" ry="6.175"/>
</g>
<g>
</g>
<g>
</g>
<g>
</g>
<g>
</g>
<g>
</g>
<g>
</g>
<g>
</g>
<g>
</g>
<g>
</g>
<g>
</g>
<g>
</g>
<g>
</g>
<g>
</g>
<g>
</g>
<g>
</g>
</svg>
