<?xml version="1.0" encoding="iso-8859-1"?>
<!-- Generator: Adobe Illustrator 19.0.0, SVG Export Plug-In . SVG Version: 6.00 Build 0)  -->
<svg xmlns="http://www.w3.org/2000/svg" xmlns:xlink="http://www.w3.org/1999/xlink" version="1.1" id="Layer_1" x="0px" y="0px" viewBox="0 0 512.003 512.003" style="enable-background:new 0 0 512.003 512.003;" xml:space="preserve">
<g>
	<path style="fill:#41479B;" d="M30.374,373.707c1.852,8.719,6.951,16.483,14.356,21.635c0.812,0.565,1.642,1.11,2.509,1.611   l23.377,13.491l22.198,12.812l18.204,10.506l94.999,54.826l19.995,11.539l12.39,7.151c10.918,6.302,24.37,6.3,35.287-0.006   l12.307-7.108l19.995-11.548l94.989-54.862l27.325-15.782l22.191-12.818l14.319-8.27c0.841-0.486,1.648-1.013,2.439-1.561   c6.772-4.69,11.621-11.563,13.839-19.352L256.006,357.22L30.935,375.97C30.723,375.223,30.538,374.468,30.374,373.707z"/>
	<path style="fill:#41479B;" d="M482.444,325.982v-2.072l-0.005-27.164l-0.014-81.491l-0.005-27.164l-0.008-42.486   c-0.001-11.607-5.715-22.388-15.14-28.946c-0.812-0.565-1.642-1.11-2.509-1.611l-23.711-13.684l-22.198-12.81l-17.87-10.313   l-94.999-54.826L285.99,11.876l-12.389-7.151c-10.918-6.301-24.37-6.3-35.287,0.006l-12.307,7.108l-19.995,11.548l-94.985,54.864   L81.08,95.548l-22.191,12.818l-11.697,6.756c-0.841,0.486-1.648,1.015-2.439,1.561c-9.465,6.556-15.201,17.365-15.2,29.001   l0.007,42.41l0.005,27.164l0.014,81.491l0.005,27.164v2.072l225.168,18.739L482.444,325.982z"/>
</g>
<path style="fill:#FFE15A;" d="M481.656,373.698c0.01-0.047,0.021-0.095,0.031-0.144c0.147-0.696,0.27-1.398,0.375-2.106  c0.016-0.114,0.036-0.226,0.052-0.34c0.09-0.646,0.155-1.297,0.209-1.951c0.013-0.156,0.033-0.311,0.042-0.467  c0.054-0.786,0.085-1.576,0.085-2.371l-0.006-40.338H29.584l0.006,40.414c0,0.791,0.031,1.576,0.085,2.357  c0.01,0.151,0.03,0.299,0.041,0.45c0.054,0.656,0.119,1.308,0.209,1.956c0.014,0.105,0.032,0.209,0.047,0.312  c0.105,0.71,0.227,1.415,0.374,2.113c0.009,0.04,0.017,0.081,0.026,0.121c0.164,0.761,0.349,1.516,0.56,2.262h450.157  c0,0,0,0,0-0.001C481.303,375.22,481.491,374.463,481.656,373.698z"/>
<g>
	<path style="fill:#F5F5F5;" d="M161.111,191.022l-9.834,29.483l-31.079,0.241c-2.98,0.024-4.216,3.826-1.818,5.597l25.002,18.462   l-9.375,29.632c-0.898,2.842,2.337,5.192,4.761,3.459l25.286-18.073l25.284,18.073c2.424,1.733,5.66-0.617,4.761-3.459   l-9.375-29.632l25.002-18.462c2.397-1.771,1.162-5.573-1.818-5.597l-31.079-0.241l-9.834-29.483   C166.052,188.195,162.053,188.195,161.111,191.022z"/>
	<path style="fill:#F5F5F5;" d="M90.27,136.614l-5.691,17.065l-17.989,0.14c-1.725,0.014-2.441,2.214-1.052,3.239l14.471,10.686   l-5.426,17.152c-0.52,1.645,1.352,3.005,2.755,2.002l14.635-10.461l14.636,10.461c1.403,1.003,3.277-0.357,2.756-2.002   l-5.426-17.152l14.471-10.686c1.387-1.025,0.672-3.227-1.052-3.239l-17.989-0.14l-5.692-17.065   C93.131,134.978,90.816,134.978,90.27,136.614z"/>
</g>
<g>
</g>
<g>
</g>
<g>
</g>
<g>
</g>
<g>
</g>
<g>
</g>
<g>
</g>
<g>
</g>
<g>
</g>
<g>
</g>
<g>
</g>
<g>
</g>
<g>
</g>
<g>
</g>
<g>
</g>
</svg>
