<?xml version="1.0" encoding="iso-8859-1"?>
<!-- Generator: Adobe Illustrator 19.0.0, SVG Export Plug-In . SVG Version: 6.00 Build 0)  -->
<svg xmlns="http://www.w3.org/2000/svg" xmlns:xlink="http://www.w3.org/1999/xlink" version="1.1" id="Layer_1" x="0px" y="0px" viewBox="0 0 512.004 512.004" style="enable-background:new 0 0 512.004 512.004;" xml:space="preserve">
<path style="fill:#F5F5F5;" d="M482.437,296.745l-0.014-81.491l-0.005-27.164l-0.008-42.486  c-0.003-11.607-5.715-22.389-15.14-28.946c-0.812-0.565-1.642-1.11-2.509-1.611l-23.71-13.684l-22.198-12.81l-17.87-10.313  l-94.999-54.826l-19.993-11.539l-12.39-7.15c-10.918-6.302-24.37-6.3-35.287,0.006l-12.307,7.108l-19.994,11.548l-94.988,54.862  L81.079,95.546l-22.191,12.818l-11.697,6.756c-0.841,0.486-1.648,1.015-2.439,1.562c-9.465,6.556-15.201,17.365-15.2,29.001  l0.007,42.41l0.005,27.164l0.014,81.491l0.005,27.164l0.007,42.486c0.003,11.607,5.715,22.388,15.14,28.946  c0.812,0.565,1.642,1.11,2.509,1.611l23.377,13.491l22.198,12.811l18.204,10.506l94.999,54.826l19.994,11.539l12.39,7.151  c10.919,6.302,24.37,6.299,35.287-0.006l12.307-7.108l19.994-11.548l94.989-54.862l27.325-15.782l22.191-12.818l14.319-8.27  c0.841-0.486,1.648-1.015,2.439-1.562c9.465-6.556,15.201-17.365,15.2-29.001l-0.008-42.41L482.437,296.745z"/>
<path style="fill:#73AF00;" d="M111.022,433.761l94.993,54.824l19.994,11.539l12.39,7.151c10.918,6.301,24.37,6.298,35.287-0.006  l12.307-7.108l19.994-11.548l94.989-54.862l27.325-15.782l22.191-12.818l14.319-8.27c0.841-0.486,1.648-1.015,2.439-1.562  c9.465-6.556,15.201-17.365,15.2-29.001l-0.008-42.41l-0.005-27.164l-0.006-40.746l-91.467-15.002l-88.725,15.002L111.022,433.761z"/>
<path style="fill:#82AFFF;" d="M482.431,255.999l-0.006-40.745l-0.005-27.164l-0.008-42.486  c-0.001-11.607-5.715-22.389-15.14-28.946c-0.812-0.565-1.642-1.11-2.509-1.611l-23.711-13.684l-22.198-12.81l-17.87-10.313  l-94.999-54.826l-19.994-11.539l-12.39-7.15c-10.918-6.302-24.37-6.3-35.287,0.006l-12.307,7.108l-19.994,11.548l-94.984,54.86  l191.207,177.752H482.431z"/>
<path style="fill:#FF4B55;" d="M124.991,210.852l-10.125,30.358l-32.001,0.249c-1.755,0.014-2.482,2.253-1.071,3.295l25.744,19.01  l-9.652,30.512c-0.53,1.673,1.376,3.057,2.803,2.036l26.035-18.609l26.035,18.609c1.427,1.02,3.332-0.364,2.803-2.037l-9.654-30.512  l25.744-19.01c1.411-1.042,0.684-3.282-1.071-3.295l-32.001-0.249l-10.125-30.358C127.9,209.187,125.546,209.187,124.991,210.852z"/>
<g>
</g>
<g>
</g>
<g>
</g>
<g>
</g>
<g>
</g>
<g>
</g>
<g>
</g>
<g>
</g>
<g>
</g>
<g>
</g>
<g>
</g>
<g>
</g>
<g>
</g>
<g>
</g>
<g>
</g>
</svg>
