<?xml version="1.0" encoding="iso-8859-1"?>
<!-- Generator: Adobe Illustrator 19.0.0, SVG Export Plug-In . SVG Version: 6.00 Build 0)  -->
<svg xmlns="http://www.w3.org/2000/svg" xmlns:xlink="http://www.w3.org/1999/xlink" version="1.1" id="Layer_1" x="0px" y="0px" viewBox="0 0 512.002 512.002" style="enable-background:new 0 0 512.002 512.002;" xml:space="preserve">
<path style="fill:#F5F5F5;" d="M482.45,366.319l-0.008-42.41l-0.005-27.164l-0.014-81.491l-0.005-27.164l-0.008-42.485  c0-3.105-0.422-6.147-1.202-9.07c-0.42-1.572-0.948-3.107-1.577-4.597c-2.568-6.091-6.814-11.419-12.362-15.28  c-0.812-0.565-1.642-1.11-2.509-1.611l-23.71-13.684l-22.198-12.81l-17.87-10.313L332.645,38.8l0,0l-26.659-15.386l-19.995-11.539  l-12.39-7.151c-10.918-6.301-24.37-6.298-35.287,0.006l-12.307,7.108l-19.995,11.548l-26.659,15.398l0,0L111.026,78.25  L81.079,95.547l-22.191,12.818l-11.697,6.755c-0.841,0.486-1.648,1.015-2.439,1.561c-3.392,2.349-6.296,5.254-8.638,8.538  c-1.572,2.206-2.883,4.585-3.911,7.092c-1.715,4.179-2.652,8.706-2.651,13.371l0.007,42.41l0.005,27.164l0.014,81.478v0.014v0.005  l0.005,27.159l0.007,42.478v0.006c0.003,11.607,5.715,22.388,15.14,28.946c0.812,0.565,1.642,1.11,2.509,1.611l23.377,13.491  l22.198,12.812l18.204,10.506l94.999,54.826l19.995,11.539l12.39,7.151c10.918,6.301,24.37,6.298,35.287-0.006l12.307-7.108  l19.995-11.548l26.659-15.397l0,0l57.588-33.261l10.742-6.205l27.325-15.782l22.191-12.818l14.319-8.27  c0.841-0.486,1.648-1.015,2.439-1.561C476.716,388.765,482.452,377.956,482.45,366.319L482.45,366.319L482.45,366.319z"/>
<g>
	<path style="fill:#73AF00;" d="M295.99,216.011h186.435v-0.756l-0.005-27.164l-0.008-42.485c0-3.105-0.422-6.147-1.202-9.07   c-0.42-1.572-0.948-3.107-1.577-4.598c-2.568-6.091-6.814-11.419-12.362-15.278c-0.812-0.565-1.642-1.11-2.509-1.611l-23.71-13.684   l-22.198-12.811l-17.87-10.313l-68.339-39.44l-26.659-15.386l-9.997-5.77L295.99,216.011L295.99,216.011z"/>
	<path style="fill:#73AF00;" d="M29.564,216.011h186.448V17.613l-9.997,5.773l-26.659,15.398l0,0l-68.33,39.465L81.079,95.547   l-22.191,12.818l-11.697,6.755c-0.841,0.486-1.648,1.015-2.439,1.561c-3.392,2.349-6.296,5.254-8.638,8.538   c-1.572,2.206-2.883,4.585-3.911,7.092c-1.715,4.179-2.652,8.706-2.651,13.371l0.007,42.41l0.005,27.164L29.564,216.011z"/>
	<path style="fill:#73AF00;" d="M482.443,323.909l-0.005-27.164v-0.756H295.99v198.398l9.997-5.775l26.659-15.397l57.588-33.261   l10.742-6.205l27.325-15.782l22.191-12.818l14.319-8.27c0.841-0.486,1.648-1.013,2.439-1.562   c9.465-6.556,15.201-17.365,15.2-29.001L482.443,323.909z"/>
	<path style="fill:#73AF00;" d="M216.012,295.989H29.578v0.744v0.014v0.005l0.005,27.159l0.007,42.478v0.006   c0.003,11.607,5.715,22.389,15.14,28.946c0.812,0.565,1.642,1.11,2.509,1.611l23.377,13.491l22.198,12.812l18.204,10.506   l94.999,54.826l9.997,5.77V295.989H216.012z"/>
</g>
<rect x="295.981" y="216.02" style="fill:#FFE15A;" width="186.44" height="26.659"/>
<rect x="29.576" y="269.33" style="fill:#F5F5F5;" width="186.44" height="26.659"/>
<g>
	<path style="fill:#FFE15A;" d="M238.316,4.73l-12.307,7.108l-9.997,5.775v198.398H29.564l0.004,26.66h186.443h26.659v-26.66V2.604   C241.185,3.209,239.729,3.915,238.316,4.73z"/>
	<path style="fill:#FFE15A;" d="M216.012,269.33v26.659v198.366l9.997,5.77l12.39,7.151c1.386,0.8,2.814,1.496,4.271,2.093v-213.38   V269.33H216.012L216.012,269.33z"/>
</g>
<path style="fill:#F5F5F5;" d="M285.993,11.876l-12.39-7.151c-1.386-0.8-2.814-1.496-4.273-2.093v213.38v26.66h26.659v-26.66V17.645  L285.993,11.876z"/>
<path style="fill:#464655;" d="M482.429,242.671H295.99h-26.659v-26.66V2.631c-8.536-3.495-18.116-3.503-26.659-0.026v213.407v26.66  h-26.659H29.569l0.005,26.659h186.439h26.659v26.659v213.38c8.536,3.495,18.116,3.503,26.659,0.027V295.989V269.33h26.659h186.444  L482.429,242.671z"/>
<path style="fill:#F5F5F5;" d="M482.434,269.33H295.99h-26.659v26.659v213.407c1.487-0.605,2.943-1.311,4.356-2.126l12.307-7.108  l9.997-5.775V295.989h186.448L482.434,269.33z"/>
<circle style="fill:#FF4B55;" cx="256.001" cy="256" r="99.97"/>
<path style="fill:#73AF00;" d="M247.418,273.197c0,0-1.167,8.173,6.772,20.314h15.411l-3.503-14.71L247.418,273.197z"/>
<path style="fill:#A561CD;" d="M246.329,218.482c0,0-25.218,41.251,11.831,65.846l3.891-23.35l2.491-30.199l-3.891-12.92  L246.329,218.482z"/>
<path style="fill:#73AF00;" d="M246.329,218.48c0,0-2.882,4.799-5.27,12.018c3.245,3.393,12.118,7.597,23.03,5.753l0.452-5.475  l-3.893-12.92L246.329,218.48z"/>
<path style="fill:#A561CD;" d="M241.503,212.566c0,0,0.31-8.25,8.406-8.25c10.118,0,18.369,2.334,31.444,29.421  c0,0-11.629,11.416-18.991-4.359c-2.179-4.67-2.958-10.273-2.958-10.273s-9.029,3.113-15.255-0.467L241.503,212.566z"/>
<path style="fill:#FFE15A;" d="M245.55,216.457l-1.868-4.981c0,0-10.43-1.712-6.071,10.897c0,0,0.311-2.491,2.958-2.179  C243.215,220.505,246.018,218.482,245.55,216.457z"/>
<g>
	<path style="fill:#73AF00;" d="M262.984,263.779c0,0-10.973,8.599-4.825,28.797c3.269,10.741,16.344,22.533,16.344,22.533   s9.69-25.334,6.538-35.14C279.186,274.196,262.984,263.779,262.984,263.779z"/>
	<path style="fill:#73AF00;" d="M283.844,296.313c0,0-28.331-27.008-30.198-48.256c-1.868-21.248,10.383-17.874,12.609-16.5   C271.546,234.826,284.933,248.525,283.844,296.313z"/>
</g>
<path style="fill:#B34900;" d="M280.328,302.5h-46.906c-0.975,0-1.765-0.79-1.765-1.764v-3.477c0-0.975,0.79-1.765,1.765-1.765  h46.906c0.975,0,1.765,0.79,1.765,1.765v3.477C282.093,301.71,281.302,302.5,280.328,302.5z"/>
<path style="fill:#FFE15A;" d="M268.9,295.845c-1.633,0.68-4.904,1.517-4.086,4.436c0.626,2.236,4.904,1.984,4.086,4.554  c-0.552,1.736-9.24,1.896-12.609,1.401c-2.063-0.304-6.538-1.518-5.916-6.654c0.622-5.137,2.491-5.927,4.825-6.849  c2.316-0.915,12.447-0.712,13.932,0.545C269.892,293.92,270.136,295.332,268.9,295.845z"/>
<g>
	<path style="fill:#73AF00;" d="M256.921,166.687l2.276,6.823l7.192,0.056c0.931,0.007,1.317,1.196,0.569,1.748l-5.786,4.273   l2.169,6.857c0.281,0.887-0.73,1.622-1.487,1.081l-5.851-4.183l-5.851,4.183c-0.757,0.541-1.768-0.192-1.487-1.081l2.169-6.857   l-5.786-4.273c-0.75-0.554-0.362-1.742,0.569-1.748l7.192-0.056l2.276-6.823C255.376,165.804,256.626,165.804,256.921,166.687z"/>
	<path style="fill:#73AF00;" d="M256.921,326.203l2.276,6.823l7.192,0.056c0.931,0.008,1.317,1.196,0.569,1.748l-5.786,4.273   l2.169,6.857c0.281,0.887-0.73,1.622-1.487,1.081l-5.851-4.183l-5.851,4.183c-0.757,0.541-1.768-0.192-1.487-1.081l2.169-6.857   l-5.786-4.273c-0.75-0.554-0.362-1.742,0.569-1.748l7.192-0.056l2.276-6.823C255.376,325.32,256.626,325.32,256.921,326.203z"/>
	<path style="fill:#73AF00;" d="M256.921,166.687l2.276,6.823l7.192,0.056c0.931,0.007,1.317,1.196,0.569,1.748l-5.786,4.273   l2.169,6.857c0.281,0.887-0.73,1.622-1.487,1.081l-5.851-4.183l-5.851,4.183c-0.757,0.541-1.768-0.192-1.487-1.081l2.169-6.857   l-5.786-4.273c-0.75-0.554-0.362-1.742,0.569-1.748l7.192-0.056l2.276-6.823C255.376,165.804,256.626,165.804,256.921,166.687z"/>
	<path style="fill:#73AF00;" d="M256.921,326.203l2.276,6.823l7.192,0.056c0.931,0.008,1.317,1.196,0.569,1.748l-5.786,4.273   l2.169,6.857c0.281,0.887-0.73,1.622-1.487,1.081l-5.851-4.183l-5.851,4.183c-0.757,0.541-1.768-0.192-1.487-1.081l2.169-6.857   l-5.786-4.273c-0.75-0.554-0.362-1.742,0.569-1.748l7.192-0.056l2.276-6.823C255.376,325.32,256.626,325.32,256.921,326.203z"/>
	<path style="fill:#73AF00;" d="M201.34,183.058l1.993,6.911l-5.893,4.123c-0.762,0.534-0.407,1.732,0.524,1.763l7.188,0.24   l2.101,6.878c0.272,0.891,1.521,0.922,1.838,0.047l2.449-6.762l7.192,0.129c0.931,0.016,1.347-1.161,0.612-1.733l-5.675-4.419   l2.344-6.799c0.304-0.88-0.689-1.641-1.46-1.118l-5.956,4.031l-5.742-4.33C202.111,181.454,201.081,182.163,201.34,183.058z"/>
	<path style="fill:#73AF00;" d="M291.77,314.463l1.993,6.911l-5.893,4.123c-0.764,0.534-0.407,1.732,0.524,1.762l7.188,0.24   l2.101,6.879c0.272,0.891,1.521,0.922,1.838,0.047l2.449-6.762l7.192,0.129c0.931,0.016,1.347-1.161,0.612-1.733l-5.675-4.419   l2.344-6.799c0.304-0.88-0.689-1.641-1.46-1.118l-5.956,4.031l-5.742-4.33C292.541,312.861,291.511,313.568,291.77,314.463z"/>
	<path style="fill:#73AF00;" d="M167.537,228.85l5.743,4.33l-2.238,6.836c-0.29,0.885,0.714,1.63,1.477,1.096l5.892-4.124l5.81,4.24   c0.752,0.549,1.771-0.175,1.498-1.066l-2.101-6.879l5.828-4.214c0.755-0.546,0.38-1.738-0.551-1.755l-7.192-0.127l-2.207-6.846   c-0.286-0.886-1.535-0.898-1.838-0.019l-2.343,6.799l-7.193-0.016C167.19,227.106,166.793,228.29,167.537,228.85z"/>
	<path style="fill:#73AF00;" d="M318.744,279.657l5.742,4.33l-2.238,6.836c-0.29,0.885,0.714,1.63,1.477,1.096l5.892-4.124   l5.81,4.24c0.752,0.549,1.771-0.175,1.498-1.066l-2.101-6.878l5.828-4.214c0.755-0.546,0.38-1.738-0.551-1.755l-7.191-0.127   l-2.207-6.846c-0.286-0.886-1.535-0.898-1.838-0.019l-2.343,6.799l-7.192-0.016C318.399,277.913,318,279.098,318.744,279.657z"/>
	<path style="fill:#73AF00;" d="M306.866,183.058l-1.993,6.911l5.893,4.123c0.764,0.534,0.407,1.732-0.524,1.763l-7.188,0.24   l-2.101,6.878c-0.272,0.891-1.521,0.922-1.838,0.047l-2.449-6.762l-7.192,0.129c-0.931,0.016-1.347-1.161-0.612-1.733l5.675-4.419   l-2.344-6.799c-0.304-0.88,0.689-1.641,1.46-1.118l5.956,4.031l5.742-4.33C306.094,181.454,307.123,182.163,306.866,183.058z"/>
	<path style="fill:#73AF00;" d="M216.436,314.463l-1.993,6.911l5.893,4.123c0.764,0.534,0.407,1.732-0.524,1.762l-7.188,0.24   l-2.101,6.879c-0.272,0.891-1.521,0.922-1.838,0.047l-2.449-6.762l-7.192,0.129c-0.931,0.016-1.347-1.161-0.612-1.733l5.675-4.419   l-2.344-6.799c-0.304-0.88,0.689-1.641,1.46-1.118l5.956,4.031l5.742-4.33C215.665,312.861,216.694,313.568,216.436,314.463z"/>
	<path style="fill:#73AF00;" d="M340.669,228.85l-5.742,4.33l2.238,6.836c0.29,0.885-0.714,1.63-1.477,1.096l-5.893-4.124   l-5.81,4.24c-0.752,0.549-1.771-0.175-1.498-1.066l2.101-6.879l-5.828-4.214c-0.755-0.546-0.38-1.738,0.551-1.755l7.192-0.127   l2.207-6.846c0.286-0.886,1.535-0.898,1.838-0.019l2.343,6.799l7.192-0.016C341.014,227.106,341.413,228.29,340.669,228.85z"/>
	<path style="fill:#73AF00;" d="M189.461,279.657l-5.742,4.33l2.238,6.836c0.29,0.885-0.714,1.63-1.477,1.096l-5.893-4.124   l-5.81,4.24c-0.752,0.549-1.771-0.175-1.498-1.066l2.101-6.878l-5.828-4.214c-0.755-0.546-0.38-1.738,0.551-1.755l7.192-0.127   l2.207-6.846c0.286-0.886,1.536-0.898,1.838-0.019l2.343,6.799l7.192-0.016C189.807,277.913,190.204,279.098,189.461,279.657z"/>
</g>
<g>
</g>
<g>
</g>
<g>
</g>
<g>
</g>
<g>
</g>
<g>
</g>
<g>
</g>
<g>
</g>
<g>
</g>
<g>
</g>
<g>
</g>
<g>
</g>
<g>
</g>
<g>
</g>
<g>
</g>
</svg>
