<?xml version="1.0" encoding="iso-8859-1"?>
<!-- Generator: Adobe Illustrator 19.0.0, SVG Export Plug-In . SVG Version: 6.00 Build 0)  -->
<svg xmlns="http://www.w3.org/2000/svg" xmlns:xlink="http://www.w3.org/1999/xlink" version="1.1" id="Layer_1" x="0px" y="0px" viewBox="0 0 512.001 512.001" style="enable-background:new 0 0 512.001 512.001;" xml:space="preserve">
<path style="fill:#FFE15A;" d="M482.431,256l-0.019-110.395c-0.003-12.607-6.729-24.255-17.649-30.557L273.602,4.725  c-10.918-6.302-24.37-6.3-35.287,0.006L47.19,115.118c-10.917,6.306-17.64,17.955-17.639,30.563L29.57,256l0.019,110.395  c0.001,6.832,1.992,13.375,5.54,18.945c2.999,4.709,7.107,8.725,12.108,11.611l191.161,110.325c10.918,6.302,24.37,6.3,35.287-0.006  L464.81,396.88c4.975-2.873,9.065-6.864,12.059-11.542c3.577-5.587,5.581-12.158,5.58-19.021L482.431,256z"/>
<path style="fill:#FF4B55;" d="M47.238,396.951l191.161,110.325c10.918,6.302,24.37,6.299,35.287-0.006l191.125-110.389  c4.975-2.873,9.065-6.864,12.059-11.542l-219.62-18.126L35.13,385.339C38.128,390.048,42.236,394.065,47.238,396.951z"/>
<path style="fill:#41479B;" d="M35.13,385.339h441.74c3.577-5.587,5.581-12.158,5.58-19.021L482.431,256H29.57l0.019,110.395  C29.59,373.227,31.581,379.768,35.13,385.339z"/>
<path style="fill:#FFE15A;" d="M245.568,261.611l73.024-62.592v90.585c0,15.267-12.377,27.642-27.642,27.642l0,0  c-6.829,0-13.416-2.528-18.492-7.096l-26.889-24.2L245.568,261.611L245.568,261.611z"/>
<path style="fill:#FF4B55;" d="M284.088,297.227l-21.133-19.02v-31.5l38.251-32.786v22.9v52.783c0,5.655-4.601,10.256-10.256,10.256  C288.412,299.86,285.975,298.926,284.088,297.227z"/>
<path style="fill:#41479B;" d="M273.387,237.766v35.806l17.387,15.698v-52.667v-13.739l10.432-8.943v22.9v52.783  c0,5.655-4.601,10.256-10.256,10.256c-2.538,0-4.975-0.935-6.862-2.633l-21.133-19.02v-31.501L273.387,237.766z"/>
<path style="fill:#FFE15A;" d="M266.433,261.611l-73.024-62.592v90.585c0,15.267,12.377,27.642,27.642,27.642l0,0  c6.829,0,13.416-2.528,18.492-7.096l26.889-24.2v-24.339H266.433z"/>
<path style="fill:#FF4B55;" d="M227.913,297.227l21.133-19.02v-31.5l-38.251-32.786v22.9v52.783c0,5.655,4.601,10.256,10.256,10.256  C223.591,299.86,226.027,298.926,227.913,297.227z"/>
<g>
	<path style="fill:#41479B;" d="M238.614,237.766v35.806l-17.386,15.698v-52.667v-13.739l-10.432-8.943v22.9v52.783   c0,5.655,4.601,10.256,10.256,10.256c2.538,0,4.975-0.935,6.862-2.633l21.133-19.02v-31.501L238.614,237.766z"/>
	<rect x="316.06" y="199.32" style="fill:#41479B;" width="4.999" height="29.953"/>
	<rect x="190.89" y="199.32" style="fill:#41479B;" width="4.999" height="29.953"/>
</g>
<g>
	<path style="fill:#5A4646;" d="M245.568,185.109c0,0,6.954-33.035-17.386-28.688s-24.341,11.302-52.159,25.211   c0,0,31.296,6.954,45.205,3.478c0,0,10.432,13.909,20.864,17.386h10.432L245.568,185.109z"/>
	<path style="fill:#5A4646;" d="M266.433,185.109c0,0-6.954-33.035,17.387-28.688c24.341,4.346,24.341,11.302,52.159,25.211   c0,0-31.296,6.954-45.205,3.478c0,0-10.432,13.909-20.864,17.386h-10.432L266.433,185.109z"/>
	<path style="fill:#5A4646;" d="M266.433,202.496h-20.864V184.98c0-5.691,4.612-10.303,10.303-10.303h0.256   c5.691,0,10.303,4.612,10.303,10.303v17.515h0.002V202.496z"/>
</g>
<circle style="fill:#E6E1CD;" cx="256" cy="185.11" r="6.954"/>
<path style="fill:#FFD0AF;" d="M241.077,180.618l13.076,6.983c1.097,0.586,2.448,0.385,3.327-0.495l0,0  c1.103-1.103,1.103-2.89,0-3.994l-8.435-8.435h-2.028C243.736,174.677,241.077,177.338,241.077,180.618L241.077,180.618z"/>
<path style="fill:#FFAF94;" d="M245.612,181.633h-10.475l4.584-5.366c0.861-1.008,2.119-1.588,3.445-1.588h5.88v3.52  C249.046,180.094,247.509,181.633,245.612,181.633z"/>
<g>
	<path style="fill:#8CB400;" d="M285.656,202.504c-2.347-2.784-2.847-6.474-1.703-9.672c3.345-0.585,6.898,0.534,9.244,3.319   c2.004,2.379,2.586,5.405,2.021,8.235c0.695,1.18,1.545,2.698,2.479,4.489c0.046-0.255,0.036-0.507,0.109-0.762   c0.82-2.883,3.107-4.924,5.816-5.615c1.939,2.013,2.812,4.952,1.992,7.834c-0.705,2.481-2.523,4.278-4.734,5.189   c0.874,2.003,1.737,4.164,2.544,6.444c0.046-0.134,0.05-0.27,0.104-0.402c1.132-2.775,3.63-4.551,6.398-4.941   c1.706,2.214,2.249,5.232,1.117,8.007c-0.991,2.428-3.047,4.029-5.395,4.667c1.208,4.771,2.011,9.834,2.011,14.93h-3.478   c0-4.441-0.682-8.89-1.711-13.146c-2.146,0.694-4.544,0.545-6.619-0.726c-2.532-1.551-3.869-4.279-3.806-7.048   c2.439-1.313,5.476-1.362,8.008,0.19c0.091,0.056,0.152,0.137,0.241,0.196c-0.745-2.141-1.538-4.171-2.352-6.076   c-2.087,0.986-4.544,1.138-6.797,0.08c-2.688-1.262-4.316-3.826-4.56-6.586c2.272-1.57,5.274-1.951,7.954-0.702   c-0.958-1.841-1.821-3.38-2.498-4.533C289.644,205.602,287.338,204.499,285.656,202.504z"/>
	<path style="fill:#8CB400;" d="M226.345,202.504c2.347-2.784,2.847-6.474,1.703-9.672c-3.345-0.585-6.898,0.534-9.244,3.319   c-2.004,2.379-2.586,5.405-2.021,8.235c-0.695,1.18-1.545,2.698-2.479,4.489c-0.046-0.255-0.036-0.507-0.109-0.762   c-0.82-2.883-3.107-4.924-5.816-5.615c-1.939,2.013-2.812,4.952-1.992,7.834c0.705,2.481,2.522,4.278,4.734,5.189   c-0.874,2.003-1.737,4.164-2.544,6.444c-0.046-0.134-0.05-0.27-0.104-0.402c-1.132-2.775-3.63-4.551-6.398-4.941   c-1.706,2.214-2.249,5.232-1.117,8.007c0.991,2.428,3.047,4.029,5.395,4.667c-1.208,4.771-2.011,9.834-2.011,14.93h3.478   c0-4.441,0.681-8.89,1.711-13.146c2.146,0.694,4.544,0.545,6.618-0.726c2.533-1.551,3.869-4.279,3.806-7.048   c-2.439-1.313-5.476-1.362-8.008,0.19c-0.091,0.056-0.152,0.137-0.241,0.196c0.745-2.141,1.538-4.171,2.352-6.076   c2.087,0.986,4.544,1.138,6.797,0.08c2.688-1.262,4.316-3.826,4.56-6.586c-2.272-1.57-5.274-1.951-7.954-0.702   c0.957-1.841,1.821-3.38,2.498-4.533C222.358,205.602,224.664,204.499,226.345,202.504z"/>
</g>
<path style="fill:#FFE15A;" d="M256,278.997l-73.024-62.592v90.585c0,15.267,12.377,27.642,27.642,27.642l0,0  c6.829,0,13.416-2.528,18.492-7.096l26.889-24.2L256,278.997L256,278.997z"/>
<path style="fill:#FF4B55;" d="M217.481,314.614l21.133-19.02v-31.5l-38.251-32.786v22.9v52.783c0,5.655,4.601,10.256,10.256,10.256  C213.158,317.247,215.595,316.312,217.481,314.614z"/>
<path style="fill:#41479B;" d="M228.182,255.153v35.806l-17.386,15.698V253.99v-13.74l-10.432-8.943v22.9v52.783  c0,5.655,4.601,10.256,10.256,10.256c2.538,0,4.975-0.935,6.862-2.633l21.133-19.02v-31.5L228.182,255.153z"/>
<path style="fill:#FFE15A;" d="M256,278.997l73.024-62.592v90.585c0,15.267-12.377,27.642-27.642,27.642l0,0  c-6.829,0-13.416-2.528-18.492-7.096L256,303.338V278.997L256,278.997z"/>
<path style="fill:#FF4B55;" d="M294.52,314.614l-21.133-19.02v-31.5l38.251-32.786v22.9v52.783c0,5.655-4.601,10.256-10.256,10.256  C298.844,317.247,296.407,316.312,294.52,314.614z"/>
<path style="fill:#41479B;" d="M283.819,255.153v35.806l17.387,15.698V253.99v-13.74l10.432-8.943v22.9v52.783  c0,5.655-4.601,10.256-10.256,10.256c-2.538,0-4.975-0.935-6.862-2.633l-21.133-19.02v-31.5L283.819,255.153z"/>
<ellipse style="fill:#69C3FF;" cx="256" cy="254.66" rx="34.773" ry="52.16"/>
<path style="fill:#009B64;" d="M224.705,268.565h62.592l3.478-13.909l-15.847,2.641c-3.179,0.53-6.431-0.376-8.878-2.473  l-17.989-15.42c-1.607-1.377-3.655-2.136-5.772-2.136l0,0c-2.352,0-4.609,0.935-6.272,2.598l-11.312,11.312L224.705,268.565  L224.705,268.565z"/>
<path style="fill:#F5F5F5;" d="M252.703,252.32l5.973-3.816l-10.616-9.099c-1.607-1.377-3.655-2.136-5.772-2.136l0,0  c-2.352,0-4.609,0.935-6.272,2.598l-11.312,11.312v3.478l17.386-3.478l3.074,1.537C247.573,253.919,250.434,253.768,252.703,252.32z  "/>
<polygon style="fill:#5AA0E6;" points="224.705,268.565 228.182,289.428 245.568,306.815 256,306.815 269.91,303.338   283.819,289.428 287.297,268.565 "/>
<path style="fill:#FFC88C;" d="M256,310.292c-21.092,0-38.251-24.959-38.251-55.637s17.159-55.637,38.251-55.637  s38.251,24.959,38.251,55.637S277.092,310.292,256,310.292z M256,205.974c-17.255,0-31.296,21.839-31.296,48.683  s14.04,48.682,31.296,48.682s31.296-21.839,31.296-48.683S273.257,205.974,256,205.974z"/>
<g>
	<path style="fill:#E1E1E1;" d="M231.47,306.504c-2.915-4.025-7.254-6.642-12.17-6.642s-9.255,2.617-12.17,6.642   c4.971,1.378,9.04,5.415,10.966,10.735c0.776,2.143,1.205,4.494,1.205,6.964C219.299,315.6,224.497,308.435,231.47,306.504z"/>
	<path style="fill:#E1E1E1;" d="M222.061,317.473c0,0-0.271,4.636-2.649,6.809l-0.1-0.081c-2.377-2.173-2.649-6.809-2.649-6.809   L222.061,317.473z"/>
</g>
<path style="fill:#966446;" d="M299.489,318.986h-86.975c-0.949,0-1.717-0.769-1.717-1.717v-0.043c0-0.948,0.769-1.717,1.717-1.717  h86.975c0.949,0,1.717,0.769,1.717,1.717v0.043C301.206,318.217,300.437,318.986,299.489,318.986z"/>
<path style="fill:#BE915A;" d="M273.473,324.202h-34.944c-3.794,0-6.869-3.075-6.869-6.869v-0.171c0-3.794,3.075-6.869,6.869-6.869  h34.944c3.794,0,6.869,3.075,6.869,6.869v0.171C280.343,321.127,277.267,324.202,273.473,324.202z"/>
<path style="fill:#B9B9B9;" d="M224.705,315.509h-12.17c-0.96,0-1.738,0.779-1.738,1.738s0.779,1.738,1.738,1.738h12.17V315.509z"/>
<polygon style="fill:#FF4B55;" points="256,324.202 256,355.972 242.092,352.02 249.046,324.202 "/>
<polygon style="fill:#41479B;" points="252.524,324.202 245.568,348.543 231.66,345.065 242.092,324.202 "/>
<polygon style="fill:#FFE15A;" points="238.614,324.202 228.182,338.111 238.614,341.589 245.568,324.202 "/>
<polygon style="fill:#FF4B55;" points="256,324.202 256,355.972 269.91,352.02 262.955,324.202 "/>
<polygon style="fill:#41479B;" points="259.478,324.202 266.433,348.543 280.343,345.065 269.91,324.202 "/>
<polygon style="fill:#FFE15A;" points="273.387,324.202 283.819,338.111 273.387,341.589 266.433,324.202 "/>
<g>
	<polygon style="fill:#41479B;" points="185.479,246.354 180.48,241.316 180.48,216.402 185.479,216.402  "/>
	<polygon style="fill:#41479B;" points="331.479,241.316 326.48,246.354 326.48,216.402 331.479,216.402  "/>
</g>
<g>
</g>
<g>
</g>
<g>
</g>
<g>
</g>
<g>
</g>
<g>
</g>
<g>
</g>
<g>
</g>
<g>
</g>
<g>
</g>
<g>
</g>
<g>
</g>
<g>
</g>
<g>
</g>
<g>
</g>
</svg>
