<?xml version="1.0" encoding="iso-8859-1"?>
<!-- Generator: Adobe Illustrator 19.0.0, SVG Export Plug-In . SVG Version: 6.00 Build 0)  -->
<svg xmlns="http://www.w3.org/2000/svg" xmlns:xlink="http://www.w3.org/1999/xlink" version="1.1" id="Layer_1" x="0px" y="0px" viewBox="0 0 512.001 512.001" style="enable-background:new 0 0 512.001 512.001;" xml:space="preserve">
<path style="fill:#F5F5F5;" d="M482.444,340.976l-0.029-172.452l-0.004-22.919c-0.003-12.607-6.729-24.255-17.649-30.557  L273.601,4.725c-10.919-6.302-24.371-6.3-35.287,0.006L47.19,115.118c-10.917,6.306-17.64,17.955-17.639,30.562l0.004,22.842  l0.029,172.452l0.004,25.418c0.002,12.607,6.729,24.255,17.649,30.557l191.161,110.325c10.919,6.302,24.371,6.299,35.286-0.006  L464.809,396.88c10.917-6.305,17.64-17.955,17.639-30.562L482.444,340.976z"/>
<path style="fill:#FF4B55;" d="M482.411,145.606c-0.003-12.607-6.729-24.255-17.649-30.557L273.601,4.725  c-10.919-6.302-24.371-6.3-35.287,0.006L47.19,115.118c-10.917,6.306-17.64,17.955-17.639,30.562l0.004,22.842h452.859  L482.411,145.606z"/>
<path style="fill:#464655;" d="M29.589,366.394c0.003,12.607,6.729,24.255,17.649,30.557l191.161,110.325  c10.919,6.302,24.371,6.299,35.287-0.006L464.81,396.88c10.917-6.305,17.64-17.955,17.639-30.562l-0.004-25.342H29.585  L29.589,366.394z"/>
<path style="fill:#F0C727;" d="M287.921,236.26c0-4.957-4.857-8.459-9.56-6.891l-8.838,2.945l-2.146-12.959  c-1.283-7.73-7.908-13.343-15.748-13.343h-8.266l-8.645,10.641h11.448l-3.204,15.823l-9.324-3.108  c-4.704-1.568-9.56,1.933-9.56,6.891v53.765l12.869-12.869l-6.063,18.189h-6.804v10.641h63.841v-10.641h-6.804l-6.063-18.189  l12.869,12.869V236.26H287.921z M250.68,295.346h-8.578L248,279.594l2.679,3.422v12.33H250.68z M261.321,295.346v-12.33l2.679-3.422  l5.898,15.752L261.321,295.346L261.321,295.346z M256,276.06c0,0-16.459-11.139-15.794-31.921c0,0,10.142-1.662,15.794-10.641  c5.652,8.978,15.794,10.641,15.794,10.641C272.459,264.921,256,276.06,256,276.06z"/>
<g>
</g>
<g>
</g>
<g>
</g>
<g>
</g>
<g>
</g>
<g>
</g>
<g>
</g>
<g>
</g>
<g>
</g>
<g>
</g>
<g>
</g>
<g>
</g>
<g>
</g>
<g>
</g>
<g>
</g>
</svg>
