<?xml version="1.0" encoding="iso-8859-1"?>
<!-- Generator: Adobe Illustrator 19.0.0, SVG Export Plug-In . SVG Version: 6.00 Build 0)  -->
<svg xmlns="http://www.w3.org/2000/svg" xmlns:xlink="http://www.w3.org/1999/xlink" version="1.1" id="Layer_1" x="0px" y="0px" viewBox="0 0 512 512" style="enable-background:new 0 0 512 512;" xml:space="preserve">
<path style="fill:#FF4B55;" d="M482.426,235.2l-192.685-99.174L72.043,100.765l-13.156,7.599L47.19,115.12  c-0.841,0.486-1.648,1.015-2.439,1.562c-9.465,6.556-15.201,17.365-15.2,29.001l0.007,42.41l0.005,27.164l0.014,81.491l0.005,27.164  l0.007,42.486c0.003,11.607,5.715,22.388,15.14,28.946c0.812,0.565,1.642,1.11,2.509,1.611l23.377,13.491l1.395,0.805  l221.481-41.535L482.436,276.8L482.426,235.2z"/>
<path style="fill:#73AF00;" d="M482.426,235.2l-0.004-19.946l-0.005-27.164l-0.008-42.486c0-2.902-0.357-5.752-1.041-8.496  c-0.512-2.059-1.208-4.059-2.073-5.978c-2.597-5.757-6.723-10.782-12.025-14.471c-0.812-0.565-1.642-1.11-2.509-1.611l-11.855-6.842  l-11.855-6.842l-22.198-12.81l-17.87-10.313l-94.999-54.826L285.99,11.876L273.6,4.725c-0.682-0.394-1.375-0.764-2.076-1.107  c-2.804-1.378-5.746-2.363-8.748-2.953C260.527,0.221,258.242,0,255.957,0c-1.523,0-3.047,0.099-4.559,0.296  c-4.539,0.592-8.99,2.069-13.084,4.434l-12.307,7.108l-19.994,11.548L111.025,78.25L81.078,95.546l-9.035,5.219L482.426,235.2z"/>
<path style="fill:#4173CD;" d="M482.441,323.908l-0.005-27.164l-0.004-19.948L72.009,411.247l20.803,12.007l18.204,10.506  l94.999,54.826l19.994,11.539l12.39,7.151c10.919,6.301,24.37,6.298,35.287-0.006l12.307-7.108l19.994-11.548l94.989-54.862  l27.325-15.782l22.191-12.818l14.319-8.27c0.841-0.486,1.648-1.013,2.439-1.562c1.775-1.228,3.418-2.608,4.917-4.114  c1-1.003,1.934-2.064,2.802-3.174c1.301-1.665,2.449-3.442,3.43-5.309c1.308-2.488,2.321-5.135,3.007-7.888  c0.685-2.752,1.043-5.61,1.043-8.519L482.441,323.908z"/>
<path style="fill:#FFE15A;" d="M190.958,306.094c0,0,24.41-8.903,31.301-35.609c0,0-10.626,13.784-18.093,17.805  c0,0,16.369-21.825,12.923-43.076c0,0-2.011,8.615-6.031,12.062c0,0,7.179-30.728-2.011-43.65c0,0,0.287,10.912-3.733,21.825  c0,0,1.532-34.557-14.167-43.363c0,0,6.127,10.912,3.542,20.102c0,0-4.308-19.527-24.313-27.281c0,0-1.245,1.436-0.957,5.743  c0,0-5.456-6.606-18.954-6.318c0,0,0.287,4.882,3.733,9.477c0,0-5.456,2.872-8.903,2.011c0,0,5.456,6.031,24.697,5.456  c0,0-2.584,2.298-7.754,2.872c0,0,7.859,3.61,15.603,4.308c10.626,0.957,14.837,7.179,16.848,14.933c0,0-8.328-4.882-11.487-9.764  c0,0-0.575,8.328,15.22,24.41l-8.04-3.447c0,0,5.169,14.933,11.487,31.876l-6.606-7.179c0,0-1.436,12.062-2.584,34.46l-4.595-10.626  c0,0-8.04,26.42-20.389,30.728c-9.667,3.372-20.358,5.681-24.559,6.528c-0.392-14.781,5.893-18.015,5.893-18.015  c11.199,0.575,13.785-11.774,13.785-11.774c-2.297,2.297-6.606,2.297-6.606,2.297c6.606-6.892,6.606-16.655,6.606-16.655  c-4.02,7.754-10.338,8.903-10.338,8.903l0.575-7.754c-11.681,8.495-10.847,18.444-10.653,19.902  c-0.264-1.859-2.343-16.409-3.418-19.902c-1.148-3.733,1.436-11.199,5.456-10.051c13.013,3.718,16.082-5.743,16.082-5.743  c-6.892,3.159-10.912,0.861-10.912,0.861c8.903-8.615,5.169-16.657,5.169-16.657c-2.872,8.328-10.913,9.764-10.913,9.764  l-0.287-9.19c-3.733,2.011-7.179,10.912-7.179,10.912s-0.861-7.179,1.723-13.497s9.19-3.159,9.19-3.159  c11.774,2.297,15.507-8.903,15.507-8.903l-7.754,1.148c8.615-6.318,6.031-14.071,6.031-14.071c-2.011,4.882-9.19,5.743-9.19,5.743  l3.447-9.19c-7.467,0-11.774,9.764-11.774,9.764l-0.575-9.477c3.447-12.348-4.595-17.805-4.595-17.805  c-1.723,2.297-0.861,7.179-0.861,7.179c-7.179-6.318-12.635,1.148-12.635,1.148c5.456,5.743,10.626,5.169,10.626,5.169  c-1.723,1.148-8.04,1.723-8.04,1.723c7.179,6.031,11.199,4.882,11.199,4.882c3.447,14.646-5.743,21.25-5.743,21.25  c-1.723-10.912-8.328-16.082-8.328-16.082l0.287,7.179c-4.308-2.584-7.754-10.338-7.754-10.338  c-2.872,10.912,4.882,20.389,4.882,20.389l-7.179-0.575c6.318,14.646,16.369,10.051,16.369,10.051  c-0.861,10.338,2.584,27.281,2.584,27.281c-1.436-1.723-16.657-16.082-16.657-16.082c-0.575,5.743,4.882,13.21,4.882,13.21  c-2.872-0.575-11.199-6.892-11.199-6.892c0.861,9.19,12.923,15.22,12.923,15.22c-4.595,0.575-13.498-4.595-13.498-4.595  c5.169,22.113,24.122,12.349,24.122,12.349l1.453,29.909c-4.004-0.961-12.759-3.193-21.843-6.362  c-12.349-4.308-20.389-30.728-20.389-30.728l-4.595,10.626c-1.148-22.4-2.584-34.461-2.584-34.461l-6.604,7.179  c6.318-16.943,11.487-31.876,11.487-31.876l-8.042,3.447c15.794-16.082,15.22-24.41,15.22-24.41  c-3.159,4.882-11.487,9.764-11.487,9.764c2.011-7.754,8.328-15.794,16.082-16.369s16.369-2.872,16.369-2.872  c-5.169-0.575-7.754-2.872-7.754-2.872c22.4-2.011,24.697-8.04,24.697-8.04c-3.447,0.861-14.071-0.287-14.071-0.287  c8.903-4.882,23.549-9.476,23.549-9.476c-18.092-3.159-33.599,7.179-33.599,7.179c2.584-4.882,7.179-10.338,7.179-10.338  c-22.113,9.764-32.451,31.876-32.451,31.876c-2.584-9.19,3.542-20.102,3.542-20.102c-15.699,8.806-14.167,43.363-14.167,43.363  c-4.02-10.912-3.733-21.825-3.733-21.825c-9.19,12.923-2.011,43.65-2.011,43.65c-4.02-3.447-6.031-12.062-6.031-12.062  c-3.447,21.25,12.923,43.076,12.923,43.076c-7.467-4.02-18.093-17.805-18.093-17.805c6.892,26.708,31.303,35.609,31.303,35.609  c-13.498-5.169-19.241-0.861-19.241-0.861c9.476,2.011,18.666,7.754,26.133,13.21s17.518,6.604,26.42,7.754  c3.678,0.475,6.726,1.092,9.085,1.66c-4.865,2.381-8.224,7.365-8.224,13.148h29.292c0-5.563-3.103-10.403-7.673-12.881  c2.942-0.63,6.861-1.375,11.118-1.924c8.903-1.148,18.202-3.513,26.42-7.754c8.903-4.595,16.657-11.199,26.133-13.21  C210.199,305.232,204.455,300.924,190.958,306.094z"/>
<g>
</g>
<g>
</g>
<g>
</g>
<g>
</g>
<g>
</g>
<g>
</g>
<g>
</g>
<g>
</g>
<g>
</g>
<g>
</g>
<g>
</g>
<g>
</g>
<g>
</g>
<g>
</g>
<g>
</g>
</svg>
