<?xml version="1.0" encoding="iso-8859-1"?>
<!-- Generator: Adobe Illustrator 19.0.0, SVG Export Plug-In . SVG Version: 6.00 Build 0)  -->
<svg xmlns="http://www.w3.org/2000/svg" xmlns:xlink="http://www.w3.org/1999/xlink" version="1.1" id="Layer_1" x="0px" y="0px" viewBox="0 0 512.001 512.001" style="enable-background:new 0 0 512.001 512.001;" xml:space="preserve">
<path style="fill:#FFE15A;" d="M29.59,366.394l-0.036-220.713c-0.003-12.607,6.722-24.257,17.639-30.562L238.316,4.73  c10.917-6.305,24.368-6.307,35.287-0.006l191.161,110.325c10.918,6.302,17.646,17.95,17.649,30.557l0.036,220.713  c0.003,12.607-6.722,24.257-17.639,30.563L273.684,507.269c-10.917,6.306-24.368,6.307-35.287,0.006L47.238,396.951  C36.319,390.649,29.592,379.001,29.59,366.394z"/>
<path style="fill:#73AF00;" d="M482.411,145.606c-0.003-12.607-6.729-24.255-17.649-30.557L273.602,4.725  c-10.918-6.302-24.37-6.3-35.287,0.006L47.19,115.118c-10.917,6.305-17.64,17.955-17.639,30.562l0.004,23.676h452.86  L482.411,145.606z"/>
<path style="fill:#FF4B55;" d="M29.59,366.394c0.003,12.607,6.729,24.255,17.649,30.557l191.161,110.325  c10.919,6.302,24.37,6.299,35.286-0.005L464.81,396.882c10.917-6.306,17.64-17.955,17.639-30.562l-0.004-23.676H29.586  L29.59,366.394z"/>
<path style="fill:#4173CD;" d="M375.201,256.134c0,65.736-53.369,119.2-119.2,119.2s-119.2-53.464-119.2-119.2  c0-65.926,53.369-119.295,119.2-119.295S375.201,190.209,375.201,256.134L375.201,256.134z"/>
<g>
	<path style="fill:#F2DD30;" d="M165.34,226.168h69.257l15.672-48.23l4.163,12.936l-22.759,70.112l-6.781-4.946l7.089-21.784h-55.7   L165.34,226.168z M199.943,332.81l21.404-65.831l-41.024-29.872h13.531l59.625,43.287l-6.778,4.946l-18.575-13.509l-17.243,53.084   L199.943,332.81L199.943,332.81z M312.056,332.81l-56.055-40.715L215,321.871l4.186-12.746l59.576-43.382l2.546,7.99   l-18.529,13.414l45.069,32.822L312.056,332.81L312.056,332.81z M346.66,226.168l-56.008,40.813l15.674,48.233l-10.939-7.993   l-22.736-70.112h8.324l7.087,21.881l45.094-32.822H346.66L346.66,226.168z M256,160.337l21.404,65.831h50.729l-10.964,8.088h-73.68   l2.594-8.088h22.972l-17.243-52.989L256,160.337z"/>
	<path style="fill:#F2DD30;" d="M257.997,351.457h-3.971V299.8h3.971V351.457L257.997,351.457z M346.065,287.336l-49.111-15.886   l1.237-3.709l49.136,15.886L346.065,287.336L346.065,287.336z M165.911,287.336l-1.237-3.709l49.158-15.886l1.215,3.709   L165.911,287.336L165.911,287.336z M283.328,221.885l-3.237-2.282l30.372-41.765l3.163,2.284L283.328,221.885L283.328,221.885z    M228.747,221.885l-30.42-41.762l3.212-2.284l30.348,41.765L228.747,221.885L228.747,221.885z"/>
</g>
<g>
</g>
<g>
</g>
<g>
</g>
<g>
</g>
<g>
</g>
<g>
</g>
<g>
</g>
<g>
</g>
<g>
</g>
<g>
</g>
<g>
</g>
<g>
</g>
<g>
</g>
<g>
</g>
<g>
</g>
</svg>
