<?xml version="1.0" encoding="iso-8859-1"?>
<!-- Generator: Adobe Illustrator 19.0.0, SVG Export Plug-In . SVG Version: 6.00 Build 0)  -->
<svg xmlns="http://www.w3.org/2000/svg" xmlns:xlink="http://www.w3.org/1999/xlink" version="1.1" id="Layer_1" x="0px" y="0px" viewBox="0 0 512.001 512.001" style="enable-background:new 0 0 512.001 512.001;" xml:space="preserve">
<path style="fill:#41479B;" d="M29.589,366.395l-0.036-220.713c-0.003-12.607,6.722-24.257,17.639-30.562L238.315,4.731  c10.917-6.306,24.368-6.307,35.287-0.006L464.763,115.05c10.92,6.302,17.646,17.95,17.649,30.557l0.036,220.713  c0.003,12.607-6.722,24.257-17.639,30.563L273.685,507.271c-10.917,6.306-24.368,6.307-35.287,0.006L47.238,396.952  C36.318,390.65,29.591,379.002,29.589,366.395z"/>
<g>
	<path style="fill:#FFE15A;" d="M260.012,114.481l3.874,11.616l12.244,0.095c1.585,0.012,2.242,2.036,0.967,2.977l-9.85,7.274   l3.694,11.674c0.479,1.511-1.242,2.762-2.532,1.84l-9.962-7.121l-9.962,7.121c-1.29,0.922-3.01-0.329-2.533-1.84l3.694-11.674   l-9.85-7.274c-1.276-0.942-0.619-2.964,0.967-2.977l12.244-0.095l3.874-11.616C257.383,112.977,259.51,112.977,260.012,114.481z"/>
	<path style="fill:#FFE15A;" d="M260.012,363.879l3.874,11.616l12.244,0.095c1.585,0.013,2.242,2.036,0.967,2.977l-9.85,7.274   l3.694,11.674c0.479,1.512-1.242,2.762-2.532,1.839l-9.962-7.121l-9.962,7.121c-1.29,0.922-3.01-0.329-2.533-1.839l3.694-11.674   l-9.85-7.274c-1.276-0.942-0.619-2.964,0.967-2.977l12.244-0.095l3.874-11.616C257.383,362.375,259.51,362.375,260.012,363.879z"/>
	<path style="fill:#FFE15A;" d="M384.71,239.18l3.874,11.616l12.244,0.095c1.586,0.012,2.243,2.036,0.967,2.977l-9.85,7.274   l3.694,11.674c0.479,1.512-1.242,2.762-2.533,1.84l-9.962-7.121l-9.962,7.121c-1.29,0.922-3.01-0.329-2.532-1.84l3.694-11.674   l-9.85-7.274c-1.275-0.942-0.617-2.965,0.967-2.977l12.244-0.095l3.874-11.616C382.082,237.676,384.209,237.676,384.71,239.18z"/>
	<path style="fill:#FFE15A;" d="M135.312,239.18l3.874,11.616l12.244,0.095c1.586,0.012,2.243,2.036,0.967,2.977l-9.85,7.274   l3.694,11.674c0.479,1.512-1.243,2.762-2.533,1.84l-9.962-7.121l-9.962,7.121c-1.29,0.922-3.01-0.329-2.533-1.84l3.694-11.674   l-9.85-7.274c-1.276-0.942-0.617-2.965,0.967-2.977l12.244-0.095l3.874-11.616C132.683,237.676,134.811,237.676,135.312,239.18z"/>
	<path style="fill:#FFE15A;" d="M154.032,174.061l3.874,11.616l12.244,0.095c1.585,0.012,2.243,2.036,0.967,2.977l-9.85,7.274   l3.694,11.674c0.479,1.511-1.242,2.762-2.532,1.839l-9.962-7.121l-9.962,7.121c-1.29,0.922-3.01-0.329-2.533-1.839l3.694-11.674   l-9.85-7.274c-1.276-0.942-0.617-2.965,0.967-2.977l12.244-0.095l3.874-11.616C151.403,172.556,153.53,172.556,154.032,174.061z"/>
	<path style="fill:#FFE15A;" d="M370.017,298.76l3.874,11.616l12.244,0.095c1.586,0.013,2.243,2.036,0.967,2.977l-9.85,7.274   l3.694,11.674c0.479,1.512-1.242,2.762-2.532,1.839l-9.962-7.121l-9.962,7.121c-1.29,0.922-3.01-0.329-2.533-1.839l3.694-11.674   l-9.85-7.274c-1.275-0.942-0.617-2.964,0.967-2.977l12.244-0.095l3.874-11.616C367.389,297.256,369.516,297.256,370.017,298.76z"/>
	<path style="fill:#FFE15A;" d="M324.374,128.417l3.874,11.616l12.244,0.095c1.586,0.012,2.243,2.036,0.967,2.977l-9.85,7.274   l3.694,11.674c0.479,1.512-1.243,2.762-2.533,1.839l-9.962-7.121l-9.962,7.121c-1.29,0.922-3.01-0.329-2.532-1.839l3.694-11.674   l-9.85-7.274c-1.276-0.942-0.619-2.964,0.967-2.977l12.244-0.095l3.874-11.616C321.745,126.913,323.873,126.913,324.374,128.417z"/>
	<path style="fill:#FFE15A;" d="M199.675,344.403l3.874,11.616l12.244,0.095c1.586,0.013,2.243,2.036,0.967,2.977l-9.85,7.274   l3.694,11.674c0.479,1.512-1.242,2.762-2.533,1.839l-9.962-7.121l-9.962,7.121c-1.29,0.922-3.01-0.329-2.532-1.839l3.694-11.674   l-9.85-7.274c-1.275-0.942-0.617-2.964,0.967-2.977l12.244-0.095l3.874-11.616C197.047,342.899,199.174,342.899,199.675,344.403z"/>
	<path style="fill:#FFE15A;" d="M366.887,174.061l-3.874,11.616l-12.244,0.095c-1.586,0.012-2.243,2.036-0.967,2.977l9.85,7.274   l-3.693,11.674c-0.479,1.511,1.242,2.762,2.532,1.839l9.962-7.121l9.962,7.121c1.29,0.922,3.01-0.329,2.532-1.839l-3.694-11.674   l9.85-7.274c1.275-0.942,0.617-2.965-0.967-2.977l-12.244-0.095l-3.874-11.616C369.516,172.556,367.389,172.556,366.887,174.061z"/>
	<path style="fill:#FFE15A;" d="M150.902,298.76l-3.874,11.616l-12.244,0.095c-1.586,0.013-2.243,2.036-0.967,2.977l9.85,7.274   l-3.694,11.674c-0.479,1.512,1.242,2.762,2.533,1.839l9.962-7.121l9.962,7.121c1.29,0.922,3.01-0.329,2.532-1.839l-3.694-11.674   l9.85-7.274c1.276-0.942,0.617-2.964-0.967-2.977l-12.244-0.095l-3.874-11.616C153.53,297.256,151.403,297.256,150.902,298.76z"/>
	<path style="fill:#FFE15A;" d="M196.544,128.417l-3.874,11.616l-12.244,0.095c-1.585,0.012-2.242,2.036-0.967,2.977l9.85,7.274   l-3.694,11.674c-0.479,1.512,1.242,2.762,2.533,1.839l9.962-7.121l9.962,7.121c1.29,0.922,3.01-0.329,2.533-1.839l-3.694-11.674   l9.85-7.274c1.276-0.942,0.619-2.964-0.967-2.977l-12.244-0.095l-3.874-11.616C199.174,126.913,197.047,126.913,196.544,128.417z"/>
	<path style="fill:#FFE15A;" d="M321.244,344.403l-3.874,11.616l-12.244,0.095c-1.585,0.013-2.242,2.036-0.967,2.977l9.85,7.274   l-3.694,11.674c-0.479,1.512,1.242,2.762,2.532,1.839l9.962-7.121l9.962,7.121c1.29,0.922,3.01-0.329,2.533-1.839l-3.694-11.674   l9.85-7.274c1.275-0.942,0.617-2.964-0.967-2.977l-12.244-0.095l-3.874-11.616C323.873,342.899,321.745,342.899,321.244,344.403z"/>
</g>
<g>
</g>
<g>
</g>
<g>
</g>
<g>
</g>
<g>
</g>
<g>
</g>
<g>
</g>
<g>
</g>
<g>
</g>
<g>
</g>
<g>
</g>
<g>
</g>
<g>
</g>
<g>
</g>
<g>
</g>
</svg>
