<?xml version="1.0" encoding="iso-8859-1"?>
<!-- Generator: Adobe Illustrator 19.0.0, SVG Export Plug-In . SVG Version: 6.00 Build 0)  -->
<svg xmlns="http://www.w3.org/2000/svg" xmlns:xlink="http://www.w3.org/1999/xlink" version="1.1" id="Layer_1" x="0px" y="0px" viewBox="0 0 512.002 512.002" style="enable-background:new 0 0 512.002 512.002;" xml:space="preserve">
<path style="fill:#F5F5F5;" d="M29.588,366.395l-0.036-220.713c-0.003-12.607,6.722-24.257,17.639-30.562L238.315,4.73  c10.917-6.305,24.368-6.307,35.287-0.006l191.161,110.325c10.918,6.302,17.646,17.95,17.649,30.557l0.036,220.713  c0.003,12.607-6.722,24.257-17.639,30.562L273.684,507.269c-10.917,6.306-24.368,6.307-35.287,0.006L47.237,396.952  C36.317,390.65,29.59,379.001,29.588,366.395z"/>
<g>
	<path style="fill:#FF4B55;" d="M41.36,119.34v136.839l19.693,7.319l22.118-7.319V94.337L47.19,115.119   C45.082,116.336,43.137,117.755,41.36,119.34z"/>
	<polygon style="fill:#FF4B55;" points="96.773,86.48 256,86.48 259.749,53.556 256,19.56 212.639,19.56  "/>
	<path style="fill:#FF4B55;" d="M108.019,108.788l84.04,87.312l56.023,58.205c0.029-0.021,0.057-0.046,0.086-0.067   c0.06-0.054,0.12-0.109,0.182-0.156c0.444-0.337,7.647-6.784,7.648-6.828c0.156-3.67-0.084-10.216-0.049-11.177   c0.002-0.06,0.011-0.116,0.014-0.176L215.18,193.53l-81.565-84.741h-25.597v-0.001H108.019z"/>
</g>
<path style="fill:#82AFFF;" d="M482.412,145.607c-0.003-12.607-6.729-24.255-17.649-30.557L273.601,4.725  C268.155,1.582,262.078,0.008,256,0.001V19.56v66.92v20.003H149.818L256,217.831v16.963c0,0.374-0.022,0.737-0.035,1.106l0,0  c-0.003,0.06-0.011,0.117-0.014,0.176c-0.036,0.961-0.105,1.908-0.216,2.829c-0.018,0.142-0.05,0.276-0.069,0.419  c-0.505,3.745-1.61,7.128-3.164,9.859c-0.021,0.039-0.042,0.076-0.065,0.115c-0.796,1.38-1.706,2.589-2.704,3.595  c-0.03,0.03-0.061,0.059-0.091,0.089c-0.411,0.405-0.846,0.764-1.29,1.1c-0.062,0.047-0.122,0.102-0.182,0.156  c-0.029,0.021-0.057,0.046-0.086,0.067l0,0c-1.662,1.197-3.502,1.873-5.444,1.873h-23.209L95.667,126.396v129.783h-5.872h-6.624  H41.36h-7.799H29.57l0.019,110.216c0.003,12.607,6.729,24.255,17.649,30.557l191.161,110.325c10.918,6.301,24.37,6.3,35.287-0.006  L464.81,396.882c10.917-6.305,17.64-17.955,17.639-30.563L482.412,145.607z"/>
<path style="fill:#F5F5F5;" d="M320.438,219.566v98.733c0,40.04,56.247,60.621,63.1,62.979c6.847-2.358,63.1-22.97,63.1-62.979  v-98.733L320.438,219.566L320.438,219.566z"/>
<polygon style="fill:#FF4B55;" points="448.866,264.85 448.866,217.339 318.21,217.339 318.21,264.85 374.63,264.85 374.63,309.392   318.21,309.392 318.21,327.208 374.63,327.208 374.63,380.659 383.539,383.628 392.446,380.659 392.446,327.208 448.866,327.208   448.866,309.392 392.446,309.392 392.446,264.85 "/>
<circle style="fill:#F5F5F5;" cx="332.87" cy="246.32" r="7.434"/>
<g>
	<path style="fill:#FFE15A;" d="M347.142,236.264c-2.379-1.308-6.661-4.817-8.385-4.223c-1.725,0.595-2.111,1.814-4.524,2.001   c-2.351,0.181-6.062,2.474-4.516,5.017c2.012,3.309,8.306,0.735,8.724-0.811c0,0,1.547,0.247,2.845-0.061   c0,0,2.586,3.609,5.797,3.37c3.212-0.237,4.699-4.223,3.985-4.223C350.355,237.335,347.142,236.264,347.142,236.264z"/>
	<path style="fill:#FFE15A;" d="M357.015,252.025c-0.535,0.981-4.61,4.464-11.419,6.066c-1.517,0.357-1.248,2.141-2.766,1.248   c-1.517-0.892-5.71-1.606-9.456-1.785s-4.119-3.649-3.479-4.906c0.812-1.595,6.794-2.568,7.864-0.605   c1.071,1.962,1.872,1.553,4.536,2.122c1.651,0.352,1.695,1.16,1.695,1.16s3.033-3.033,5.62-3.925s4.817-2.854,5.264-2.854   c0.446,0,2.766,0.625,2.766,0.625L357.015,252.025z"/>
	<path style="fill:#FFE15A;" d="M366.917,241.499c3.925,1.427,15.523,0.981,27.922-3.033c12.4-4.014,15.969-4.729,22.035-2.498   s8.693-4.816,4.709-6.008c-6.258-1.873-25.612,9.372-39.623,3.062c0,0-0.412,1.697,0.034,2.499c0,0-10.17,0.357-7.762-10.17   c0,0,0.692,3.843,5.501,3.402c9.094-0.835,10.393,5.567,29.648-0.369c10.691-3.295,18.996-1.678,19.07,3.524   c0.089,6.262-8.543,7.717-8.543,7.717s3.36,6.869,10.14,3.836c6.781-3.033,7.137,2.201,7.732,3.985   c0.595,1.785,1.725,3.509,3.212,3.688c0,0,1.071,3.212,0.654,3.628c-0.416,0.416-3.212,3.925-6.007,3.925c-2.795,0-8.861,0-8.861,0   s-1.606-3.985,1.487-4.044c3.093-0.06,6.839-0.297,6.363-1.962c-0.476-1.666-2.914-2.438-2.854-4.283c0,0-7.197,5.234-11.657-0.951   l-0.119,2.914c0,0-5.412-1.011-7.374-5.352c0,0,0.535,4.877-4.104,4.163c0,0,0.951,1.427,2.557,2.438   c1.606,1.011-0.06,3.212-3.152,5.055c-3.093,1.843-12.608,7.197-16.95,1.725c-4.341-5.472,0.951-8.624,2.259-8.266   c1.308,0.357,5.055,6.126,7.613,5.352c2.558-0.774,3.806-3.39,1.666-4.996c-2.141-1.606-3.745-3.124-2.394-4.745   c1.856-2.227,8.699-1.56,8.461-3.047c-0.237-1.487-6.602-1.071-10.765,3.093c-4.163,4.163-22.243,13.739-29.439,7.672   C361.178,247.386,366.917,241.499,366.917,241.499z"/>
</g>
<path style="fill:#FFD25A;" d="M364.598,238.822c0,0,5.442,5.352,14.631,7.048c0,0-1.695,2.587-6.602,1.873  c0,0,1.963,1.695,3.3,4.55c0,0-3.123,0.714-5.888-0.804c0,0,0.356,2.319,1.695,4.193c0,0-3.658,0-6.779-2.766l-1.25,3.569  c0,0-2.141-1.427-3.479-4.193c0,0-2.498,1.963-4.996,1.963c0,0,0.892-2.677,0.892-4.193c0,0-3.568,2.141-6.512,1.338  c0,0,0.089-3.746,1.071-4.817c0,0-2.319,0.267-3.836-0.535c0,0,0.892-2.052,1.338-3.39c0,0-2.498,0.089-4.014-1.338  c0,0,4.817-1.873,5.888-3.658L364.598,238.822z"/>
<path style="fill:#FFBE5A;" d="M355.825,223.835c1.071,0.595,2.795,1.903,3.509,4.104c0,0,1.963-2.854,5.352-3.39  c0,0,1.487,1.666,1.071,6.007c0,0,3.746-1.071,5.768,0.892c0,0-3.985,0.892-5.828,4.223c0,0-0.715,3.403,0.534,5.425  c0,0-1.392,0.185-2.794-0.429c0,0-0.714,3.39,0,4.46c0,0-1.963-0.237-3.033-2.319c0,0-1.606,2.438-1.487,3.925  c0,0-2.141-1.248-2.261-3.093c0,0-1.487,2.795-3.093,3.033c0,0-0.179-3.925-0.892-5.412c0,0-1.368,1.487-3.152,1.427  c0,0,0-3.033,1.487-4.46c0,0-2.498,0.774-3.866-1.963c0,0,4.104,1.19,5.115-1.308s1.308-3.27,2.736-4.639  C356.42,228.95,355.825,223.835,355.825,223.835z"/>
<path style="fill:#FFE15A;" d="M364.598,235.343c0,0-5.085,9.724-9.724,6.779c-5.082-3.225,1.248-10.795,2.052-11.597  C356.926,230.526,360.672,231.507,364.598,235.343z"/>
<path style="fill:#5ABEA0;" d="M346.259,285.147c0,0-0.534-6.984-4.319-8.999c-3.56-1.895-5.662-2.842-6.071-5.269  c0,0,3.094,1.421,6.362,2.309c2.954,0.802,5.837,5.802,4.961,11.426L346.259,285.147z"/>
<path style="fill:#B46446;" d="M334.307,290.889l0.481,0.889l0.35,1.909l-0.7,2.264c0,0,2.782,1.106,3.414,4.884  c0.435,2.593,1.576,3.153,2.277,2.619c0.7-0.532,1.125-1.163,0.394-3.996c-0.934-3.617-3.458-7.059-3.458-7.059l-1.969-3.019  L334.307,290.889z"/>
<g>
	<path style="fill:#5ABEA0;" d="M337.065,292.399c-2.539-3.285-9.456-10.123-10.77-0.8c0,0-2.712-7.855,2.364-7.548   C334.526,284.407,337.065,292.399,337.065,292.399z"/>
	<path style="fill:#5ABEA0;" d="M334.788,291.778c-2.189-2.398-2.889-4.174-4.028-8.614c-1.138-4.44-1.488-5.772-2.802-5.683   s-2.101,1.51-2.101,4.351c0,0-3.853-3.463-1.226-6.216c2.627-2.753,8.493-1.243,8.843,3.64c0.35,4.884,0.262,8.17,2.013,12.254   L334.788,291.778z"/>
	<path style="fill:#5ABEA0;" d="M335.402,289.647c0,0-4.64-10.212,8.405-15.718c0,0-11.557-3.108-10.156,13.32L335.402,289.647z"/>
	<path style="fill:#5ABEA0;" d="M336.89,293.287c0,0-9.806-3.73-8.93,5.329c0,0,1.663-4.263,6.479-2.664L336.89,293.287z"/>
</g>
<path style="fill:#B46446;" d="M348.01,289.706c0,2.649,1.042,10.336-0.437,11.308c-0.744,0.489-2.845,0.089-2.671-1.776  c0.175-1.865,1.007-10.922,1.007-13.143C345.908,283.875,348.01,289.706,348.01,289.706z"/>
<g>
	<path style="fill:#5ABEA0;" d="M341.764,295.863c1.692-1.717,2.218-5.623,1.635-10.833c0,0,3.502,2.427,4.611,4.676   c0,0,1.108-5.151-2.511-6.512c-3.619-1.362-5.545-0.592-6.187,1.066c-0.642,1.657,1.106,3.512,1.868,6.216   C341.88,292.961,341.764,295.863,341.764,295.863z"/>
	<path style="fill:#5ABEA0;" d="M347.776,288.344c0,0,0.584-2.723,2.509-3.848c0,0,3.969,2.783,3.678,6.512   c0,0,1.051-5.091-1.108-7.104s-4.611-2.546-5.837-0.77C345.791,284.911,347.776,288.344,347.776,288.344z"/>
	<path style="fill:#5ABEA0;" d="M348.709,283.134c0,0,1.226-7.282,4.32-8.88c3.093-1.598,8.814-3.078,9.164-3.434   c0,0-6.829,0.355-7.938,0.355c-1.108,0-7.238,4.44-7.238,11.012c0,6.571,0.584,2.072,0.759,2.013   C347.951,284.141,348.709,283.134,348.709,283.134z"/>
</g>
<path style="fill:#B46446;" d="M351.555,302.39c0.701,1.466,2.364,1.821,2.714,1.066c0.35-0.755,1.926-6.527,1.926-6.527  l-2.233-1.066L351.555,302.39z"/>
<path style="fill:#5ABEA0;" d="M364.645,278.162c2.743-1.598,4.553,3.138,4.553,3.138c0-5.576-1.751-7.34-6.128-5.21  c-1.318,0.642-2.283,1.987-2.994,3.547c-2.217-6.367-7.104-6.27-7.104-6.27l-1.108,0.77c4.001,0.769,6.295,5.566,7.264,8.183  c-0.524,1.909-0.776,3.76-0.884,4.82c-2.623,2.719-4.279,8.725-4.279,8.725s1.882,1.11,2.233,1.066c0,0,1.226-3.774,2.758-3.685  c1.532,0.089,3.327,2.531,3.37,4.085c0,0,2.277-4.617-0.437-6.393c-1.02-0.667-1.834-0.921-2.493-0.932l2.012-2.264  c3.283,0.621,5.56,3.73,5.56,3.73c0.066-5.55-2.384-6.633-4.969-6.168C362.461,283.065,363.477,278.843,364.645,278.162z"/>
<path style="fill:#B46446;" d="M418.69,285.847c0,4.654,0,14.977,0,15.738c0,0.762-3.333,3.723-3.333,3.723h8.861  c0,0-2.845-3.3-2.845-3.723s0.65-14.555,0.65-14.555L418.69,285.847z"/>
<g>
	<path style="fill:#5ABEA0;" d="M419.259,287.454c-2.113-0.169-7.968,4.654-9.675,12.015c0,0-5.204-8.461,7.804-15.485   c0,0-5.772-1.692-14.552,7.447c-0.474,0.494-0.895-13.792,14.878-9.985c0,0-6.016-8.715-18.374-1.862   c0,0,8.212-14.723,20.326-1.523c0,0,0.081-11.423,0.162-10.238s0.976,6.431,0.976,6.431l2.358-4.146l-1.869,8.461   c0,0,10.813-14.385,20,0.592c0,0-11.87-4.907-17.56,0.592c0,0,12.195-3.3,11.219,10.831c0,0-4.796-8.378-12.602-7.277   c0,0,9.187,4.231,6.26,15.654C428.609,298.962,423.073,287.76,419.259,287.454z"/>
	<path style="fill:#5ABEA0;" d="M341.621,338.308c-0.452-0.614-1.086-0.909-1.708-0.983c0.24-0.825,0.399-1.202,0.335-1.803   c0.19,0.047,0.371,0.132,0.566,0.156l0.082-0.68c-0.722-0.086-1.508-0.41-2.318-0.904c0.499-0.427,0.86-1.083,0.86-1.887   c0-0.874-0.401-1.605-0.971-2.021c-0.57,0.416-0.97,1.147-0.97,2.021c0,0.656,0.269,1.181,0.622,1.603   c-0.301-0.209-0.605-0.449-0.91-0.707c-0.079-0.537-0.285-1.078-0.762-1.513c-0.646-0.589-1.456-0.785-2.147-0.644   c-0.076,0.701,0.194,1.49,0.84,2.078c0.499,0.454,1.085,0.61,1.648,0.622c0.129,0.109,0.264,0.219,0.405,0.329   c-0.387-0.046-0.805-0.006-1.221,0.145c-0.821,0.299-1.371,0.925-1.567,1.603c0.586,0.392,1.41,0.52,2.231,0.221   c0.716-0.261,1.178-0.786,1.427-1.362c0.481,0.307,1.007,0.562,1.552,0.767l-0.086,0.011c-0.018,0.494,0.014,0.695-0.231,1.611   c-0.551-0.357-1.282-0.519-2.053-0.291c-0.839,0.246-1.426,0.837-1.665,1.501c0.56,0.429,1.375,0.607,2.212,0.36   c0.63-0.185,1.057-0.591,1.362-1.05c-0.115,0.347-0.26,0.706-0.422,1.072c-0.492,0.227-0.953,0.577-1.236,1.158   c-0.382,0.786-0.341,1.618-0.011,2.242c0.694-0.125,1.375-0.607,1.757-1.392c0.295-0.606,0.279-1.213,0.131-1.757   c0.069-0.154,0.135-0.314,0.201-0.481c0.065,0.385,0.221,0.774,0.484,1.131c0.519,0.702,1.275,1.053,1.981,1.05   C342.251,339.837,342.14,339.011,341.621,338.308z"/>
</g>
<path style="fill:#FFECDE;" d="M337.605,336.114c2.968,0,6.848-0.114,6.734,2.854c-0.114,2.968-3.424,13.013,4.224,16.094  c7.648,3.082,8.561,2.626,8.561,2.626l3.424,7.877l8.333-2.968l-7.99-6.392c0,0-0.685-4.338-2.626-7.306c0,0,4.909-2.512,6.621-4.68  l-3.424-0.229c0,0,4.451-2.854,6.507-6.05l-2.397,0.229c0,0,2.739-2.739,3.424-5.936c0,0-4.451,4.451-9.018,5.022  c0,0,1.941-5.022,2.397-6.963c0,0-3.424,2.169-5.821,3.082s-6.163,1.027-4.451,8.789c0,0-2.054-1.712-3.31-5.365  c-1.256-3.653-1.712-5.022-3.424-5.022c-2.797,0-3.881,2.511-3.881,2.511L337.605,336.114z"/>
<path style="fill:#B46446;" d="M421.851,337.582c1.027-1.368,3.08-5.647,4.877-4.535c1.797,1.112,4.193,3.85,5.647,2.567  c1.455-1.283,1.54-2.909-0.685-3.679c-2.224-0.77-4.706-2.053-6.246-1.541c-1.541,0.514-6.247,5.391-6.247,5.391L421.851,337.582z"/>
<path style="fill:#FFE15A;" d="M408.587,341.261c-0.086-1.968,1.242-10.513,6.588-9.412c2.909,0.599,4.34,3.683,8.129,5.134  c4.021,1.54,6.588,2.482,5.818,5.134c-0.77,2.653-2.224,5.818-5.562,6.588C420.225,349.476,408.587,341.261,408.587,341.261z"/>
<g>
	<path style="fill:#5ABEA0;" d="M405.079,348.306c-1.141,0.229-5.362,6.39-0.342,12.664c0,0,6.161,2.509,11.067-1.37   s1.255-5.818,1.255-5.818L405.079,348.306z"/>
	<path style="fill:#5ABEA0;" d="M405.506,349.647c-0.514-0.77-0.427-1.341-0.427-1.341s-0.256-8.843,3.423-9.013   c3.679-0.171,16.943,8.556,16.943,10.011s-4.279,5.647-7.872,6.503C413.978,356.663,405.506,349.647,405.506,349.647z"/>
</g>
<path style="fill:#B46446;" d="M396.436,371.039c0,0,11.688-5.251,9.491-9.522c-1.586-3.083-5.149-1.107-5.712,1.246  C399.513,365.699,397.227,369.793,396.436,371.039z"/>
<path style="fill:#464655;" d="M383.539,385.965l-0.676-0.215c-0.679-0.217-16.813-5.414-33.213-16.224  c-22.024-14.514-33.666-32.229-33.666-51.226V215.111h135.109v103.188c0,18.997-11.642,36.711-33.666,51.226  c-16.401,10.811-32.535,16.007-33.213,16.224L383.539,385.965z M320.438,219.566v98.733c0,40.04,56.247,60.621,63.1,62.979  c6.847-2.358,63.1-22.97,63.1-62.979v-98.733L320.438,219.566L320.438,219.566z"/>
<g>
</g>
<g>
</g>
<g>
</g>
<g>
</g>
<g>
</g>
<g>
</g>
<g>
</g>
<g>
</g>
<g>
</g>
<g>
</g>
<g>
</g>
<g>
</g>
<g>
</g>
<g>
</g>
<g>
</g>
</svg>
