<?xml version="1.0" encoding="iso-8859-1"?>
<!-- Generator: Adobe Illustrator 19.0.0, SVG Export Plug-In . SVG Version: 6.00 Build 0)  -->
<svg xmlns="http://www.w3.org/2000/svg" xmlns:xlink="http://www.w3.org/1999/xlink" version="1.1" id="Layer_1" x="0px" y="0px" viewBox="0 0 512.001 512.001" style="enable-background:new 0 0 512.001 512.001;" xml:space="preserve">
<path style="fill:#F5F5F5;" d="M29.589,366.395l-0.036-220.713c-0.003-12.607,6.722-24.257,17.639-30.562L238.315,4.731  c10.917-6.306,24.368-6.307,35.287-0.006L464.763,115.05c10.918,6.302,17.646,17.95,17.649,30.557l0.036,220.713  c0.003,12.607-6.722,24.257-17.639,30.563L273.684,507.271c-10.917,6.306-24.368,6.307-35.287,0.006L47.238,396.952  C36.318,390.65,29.591,379.002,29.589,366.395z"/>
<g>
	<path style="fill:#FF4B55;" d="M41.361,119.34v136.839l19.693,7.319l22.116-7.319V94.337l-35.98,20.782   C45.083,116.336,43.138,117.756,41.361,119.34z"/>
	<polygon style="fill:#FF4B55;" points="96.774,86.481 256.001,86.481 259.75,53.556 256.001,19.56 212.64,19.56  "/>
	<path style="fill:#FF4B55;" d="M108.02,108.788l84.04,87.312l56.023,58.205c0.029-0.021,0.057-0.046,0.086-0.067   c0.06-0.054,0.12-0.109,0.182-0.156c0.444-0.336,7.647-6.784,7.648-6.828c0.156-3.671-0.084-10.216-0.049-11.177   c0.003-0.06,0.011-0.116,0.014-0.176l-40.783-42.371l-81.565-84.741L108.02,108.788L108.02,108.788z"/>
</g>
<path style="fill:#41479B;" d="M482.412,145.607c-0.003-12.607-6.729-24.255-17.649-30.557L273.602,4.726  c-5.447-3.143-11.523-4.717-17.601-4.724V19.56v66.92v20.003H149.818L256,217.831v16.963c0,0.374-0.023,0.737-0.035,1.106l0,0  c-0.001,0.06-0.011,0.117-0.014,0.176c-0.036,0.961-0.104,1.908-0.216,2.829c-0.018,0.142-0.05,0.276-0.069,0.419  c-0.505,3.745-1.61,7.128-3.164,9.859c-0.021,0.039-0.042,0.076-0.065,0.115c-0.796,1.38-1.706,2.589-2.704,3.595  c-0.03,0.03-0.061,0.059-0.091,0.089c-0.412,0.405-0.846,0.764-1.29,1.1c-0.062,0.047-0.122,0.102-0.182,0.156  c-0.029,0.021-0.057,0.046-0.086,0.067l0,0c-1.662,1.198-3.502,1.874-5.444,1.874h-23.207L95.668,126.396v129.783h-5.872h-6.624  H41.361h-7.799H29.57l0.019,110.216c0.003,12.607,6.729,24.255,17.649,30.557l191.161,110.325  c10.918,6.301,24.37,6.299,35.287-0.006l191.125-110.389c10.917-6.305,17.64-17.955,17.638-30.562L482.412,145.607z"/>
<path style="fill:#E67346;" d="M323.626,375.162l-4.205-9.814l2.102,4.906l-2.127-4.895c0.886-0.391,21.698-9.886,21.698-37.807  h10.676C351.769,362.695,324.776,374.668,323.626,375.162z"/>
<path style="fill:#EB7D4B;" d="M327.798,351.288l-7.548-7.548c14.43-14.43,21.929-18.389,22.738-18.794l4.775,9.55l-2.387-4.775  l2.429,4.754C347.737,334.51,340.977,338.109,327.798,351.288z"/>
<path style="fill:#E67346;" d="M433.321,375.162l4.205-9.814l-2.102,4.906l2.127-4.895c-0.886-0.391-21.698-9.886-21.698-37.807  h-10.675C405.177,362.695,432.171,374.668,433.321,375.162z"/>
<path style="fill:#EB7D4B;" d="M429.148,351.288l7.548-7.548c-14.43-14.43-21.929-18.389-22.738-18.794l-4.775,9.55l2.387-4.775  l-2.429,4.754C409.21,334.51,415.969,338.109,429.148,351.288z"/>
<path style="fill:#4173CD;" d="M378.458,188.775h-56.934c0,0,0,67.61,0,85.402c0,17.793,3.558,64.051,56.934,81.844  c53.377-17.793,56.934-64.052,56.934-81.844c0-17.793,0-85.402,0-85.402H378.458L378.458,188.775z"/>
<path style="fill:#C8C8C8;" d="M403.367,210.126h-30.592c-3.232,0-6.368-1.1-8.891-3.119l-11.944-9.555  c-1.262-1.01-2.83-1.56-4.446-1.56h-1.062c-3.93,0-7.117,3.187-7.117,7.117h-5.337c-2.948,0-5.337,2.389-5.337,5.337  s2.389,5.337,5.337,5.337h5.337c1.966,0,3.559,1.593,3.559,3.559v17.793c0,6.624,4.546,12.143,10.676,13.73v11.178h7.117  l2.669-10.676h32.916l3.559,3.559v7.117h3.559v-10.676h3.558v10.676h3.559V248.28c2.118-1.232,3.559-3.503,3.559-6.13V220.8  C414.042,214.906,409.262,210.126,403.367,210.126z"/>
<polygon style="fill:#73AF00;" points="339.315,256.385 346.432,277.736 410.483,277.736 417.6,256.385 "/>
<path style="fill:#F5F5F5;" d="M416.369,270.619c-9.487,0-9.487,7.117-18.974,7.117c-9.485,0-9.485-7.117-18.969-7.117  s-9.484,7.117-18.966,7.117c-9.486,0-9.486-7.117-18.972-7.117c-9.465,0-9.489,7.084-18.915,7.114  c0.114,3.964,0.454,8.813,1.33,14.17c8.112-0.662,8.591-7.051,17.585-7.051c9.486,0,9.486,7.117,18.972,7.117  c9.484,0,9.484-7.117,18.966-7.117c9.485,0,9.485,7.117,18.969,7.117c9.487,0,9.487-7.117,18.974-7.117  c9.02,0,9.494,6.401,17.643,7.052c0.875-5.357,1.216-10.206,1.33-14.17C425.874,277.717,425.86,270.619,416.369,270.619z"/>
<path style="fill:#4173CD;" d="M416.369,284.853c-9.487,0-9.487,7.117-18.974,7.117c-9.485,0-9.485-7.117-18.969-7.117  s-9.484,7.117-18.966,7.117c-9.486,0-9.486-7.117-18.972-7.117c-8.994,0-9.475,6.388-17.585,7.051  c0.696,4.264,1.742,8.851,3.273,13.566c5.19-1.813,6.706-6.383,14.312-6.383c9.486,0,9.486,7.117,18.972,7.117  c9.484,0,9.484-7.117,18.966-7.117c9.485,0,9.485,7.117,18.969,7.117c9.487,0,9.487-7.117,18.974-7.117  c7.634,0,9.144,4.589,14.367,6.395c1.532-4.717,2.579-9.309,3.277-13.576C425.863,291.253,425.389,284.853,416.369,284.853z"/>
<path style="fill:#F5F5F5;" d="M416.369,299.086c-9.487,0-9.487,7.117-18.974,7.117c-9.485,0-9.485-7.117-18.969-7.117  s-9.484,7.117-18.966,7.117c-9.486,0-9.486-7.117-18.972-7.117c-7.607,0-9.122,4.57-14.312,6.383  c1.227,3.78,2.78,7.638,4.724,11.486c2.406-1.805,4.777-3.635,9.589-3.635c9.486,0,9.486,7.117,18.972,7.117  c9.484,0,9.484-7.117,18.966-7.117c9.485,0,9.485,7.117,18.969,7.117c9.487,0,9.487-7.117,18.974-7.117  c4.839,0,7.214,1.846,9.635,3.656c1.947-3.85,3.503-7.713,4.731-11.497C425.513,303.675,424.003,299.086,416.369,299.086z"/>
<path style="fill:#4173CD;" d="M416.369,313.32c-9.487,0-9.487,7.117-18.974,7.117c-9.485,0-9.485-7.117-18.969-7.117  s-9.484,7.117-18.966,7.117c-9.486,0-9.486-7.117-18.972-7.117c-4.811,0-7.182,1.831-9.589,3.635  c1.852,3.665,4.066,7.312,6.712,10.863c0.86-0.162,1.801-0.264,2.877-0.264c9.486,0,9.486,7.117,18.972,7.117  c9.484,0,9.484-7.117,18.966-7.117c9.485,0,9.485,7.117,18.969,7.117c9.487,0,9.487-7.117,18.974-7.117  c1.097,0,2.056,0.104,2.929,0.271c2.642-3.545,4.855-7.188,6.706-10.848C423.584,315.166,421.208,313.32,416.369,313.32z"/>
<path style="fill:#F5F5F5;" d="M419.298,327.825c-0.872-0.167-1.832-0.271-2.929-0.271c-9.487,0-9.487,7.117-18.974,7.117  c-9.485,0-9.485-7.117-18.969-7.117s-9.484,7.117-18.966,7.117c-9.486,0-9.486-7.117-18.972-7.117c-1.076,0-2.017,0.101-2.877,0.264  c5.767,7.742,13.59,15.001,24.177,20.906c7.209-1.065,8.01-6.937,16.638-6.937c8.646,0,9.432,5.898,16.687,6.943  C405.703,342.826,413.529,335.568,419.298,327.825z"/>
<g>
	<rect x="376.69" y="270.61" style="fill:#FF965A;" width="3.558" height="60.5"/>
	<rect x="367.79" y="279.51" style="fill:#FF965A;" width="21.357" height="3.559"/>
	<rect x="367.79" y="300.87" style="fill:#FF965A;" width="21.357" height="3.559"/>
</g>
<rect x="367.79" y="283.06" style="fill:#FFE15A;" width="21.357" height="14.08"/>
<polygon style="fill:#FF4B55;" points="376.679,270.619 376.679,277.736 366.003,274.177 "/>
<g>
	<rect x="400.4" y="270.61" style="fill:#FF965A;" width="3.558" height="41.811"/>
	<rect x="391.51" y="279.51" style="fill:#FF965A;" width="21.357" height="3.559"/>
	<rect x="391.51" y="300.87" style="fill:#FF965A;" width="21.357" height="3.559"/>
</g>
<rect x="391.51" y="283.06" style="fill:#FFE15A;" width="21.357" height="14.08"/>
<polygon style="fill:#FF4B55;" points="400.401,270.619 400.401,277.736 389.727,274.177 "/>
<g>
	<rect x="352.8" y="270.61" style="fill:#FF965A;" width="3.559" height="41.514"/>
	<rect x="343.91" y="279.51" style="fill:#FF965A;" width="21.357" height="3.559"/>
	<rect x="343.91" y="300.87" style="fill:#FF965A;" width="21.357" height="3.559"/>
</g>
<rect x="343.91" y="283.06" style="fill:#FFE15A;" width="21.357" height="14.08"/>
<polygon style="fill:#FF4B55;" points="352.808,270.619 352.808,277.736 342.132,274.177 "/>
<path style="fill:#FF965A;" d="M396.25,309.762c0,9.81-7.982,17.793-17.793,17.793c-9.81,0-17.793-7.982-17.793-17.793h-3.559h-3.53  l-24.1-5.442l-0.785,3.472l10.623,2.399v3.13l7.832,3.133c3.087,14.456,15.948,25.334,31.31,25.334  c15.21,0,27.952-10.67,31.201-24.909h11.501v-10.676L396.25,309.762z"/>
<path style="fill:#F5F5F5;" d="M435.393,188.775c0,0,0,67.61,0,85.402c0,17.793-3.559,64.051-56.934,81.844  c-53.377-17.793-56.934-64.052-56.934-81.844c0-17.793,0-85.402,0-85.402h56.934H435.393 M438.951,185.216h-3.558h-56.934h-56.934  h-3.559v3.559v85.402c0,42.193,21.084,72.459,59.368,85.219l1.125,0.375l1.126-0.375c38.285-12.762,59.367-43.026,59.367-85.219  v-85.402v-3.559H438.951z"/>
<path style="fill:#FF965A;" d="M378.458,373.813c-26.192,0-50.48-8.774-64.972-23.47l10.133-9.995  c11.875,12.04,32.377,19.231,54.839,19.231c22.463,0,42.963-7.189,54.84-19.231l10.133,9.995  C428.938,365.04,404.649,373.813,378.458,373.813z"/>
<g>
</g>
<g>
</g>
<g>
</g>
<g>
</g>
<g>
</g>
<g>
</g>
<g>
</g>
<g>
</g>
<g>
</g>
<g>
</g>
<g>
</g>
<g>
</g>
<g>
</g>
<g>
</g>
<g>
</g>
</svg>
