<?xml version="1.0" encoding="iso-8859-1"?>
<!-- Generator: Adobe Illustrator 19.0.0, SVG Export Plug-In . SVG Version: 6.00 Build 0)  -->
<svg xmlns="http://www.w3.org/2000/svg" xmlns:xlink="http://www.w3.org/1999/xlink" version="1.1" id="Layer_1" x="0px" y="0px" viewBox="0 0 512.004 512.004" style="enable-background:new 0 0 512.004 512.004;" xml:space="preserve">
<path style="fill:#82AFFF;" d="M482.437,296.746l-0.014-81.491l-0.005-27.164l-0.008-42.486  c-0.001-11.607-5.715-22.389-15.14-28.946c-0.812-0.565-1.642-1.11-2.509-1.611l-23.71-13.684l-22.198-12.81l-17.87-10.313  l-94.999-54.826l-19.995-11.539l-12.39-7.151c-10.918-6.302-24.37-6.3-35.287,0.006l-12.307,7.108L206.01,23.387L111.025,78.25  L81.078,95.546l-22.191,12.818L47.19,115.12c-0.841,0.486-1.648,1.015-2.439,1.562c-9.465,6.556-15.202,17.365-15.2,29.001  l0.007,42.41l0.005,27.164l0.014,81.491l0.005,27.164l0.007,42.486c0.003,11.607,5.715,22.388,15.14,28.946  c0.812,0.565,1.642,1.11,2.509,1.611l23.377,13.491l22.198,12.811l18.204,10.506l94.999,54.826l19.995,11.539l12.39,7.151  c10.918,6.302,24.37,6.299,35.287-0.006l12.307-7.108l19.995-11.548l94.989-54.863l27.325-15.782l22.191-12.818l14.319-8.27  c0.841-0.486,1.648-1.015,2.439-1.562c9.465-6.556,15.201-17.365,15.2-29.001l-0.008-42.41L482.437,296.746z"/>
<g>
	<path style="fill:#F5F5F5;" d="M254.707,123.226l-7.56,22.67l-23.897,0.185c-1.31,0.01-1.853,1.682-0.8,2.461l19.225,14.196   l-7.208,22.785c-0.395,1.25,1.027,2.283,2.093,1.521l19.442-13.896l19.442,13.896c1.066,0.762,2.488-0.271,2.093-1.521   l-7.208-22.785l19.223-14.196c1.053-0.779,0.511-2.451-0.8-2.461l-23.897-0.185l-7.56-22.67   C256.88,121.984,255.122,121.984,254.707,123.226z"/>
	<path style="fill:#F5F5F5;" d="M254.707,325.63l-7.56,22.67l-23.897,0.185c-1.31,0.01-1.853,1.682-0.8,2.461l19.225,14.196   l-7.208,22.785c-0.395,1.248,1.027,2.282,2.093,1.521l19.442-13.896l19.442,13.896c1.066,0.762,2.488-0.271,2.093-1.521   l-7.208-22.784l19.223-14.196c1.053-0.779,0.511-2.451-0.8-2.461l-23.897-0.185l-7.56-22.67   C256.88,324.386,255.122,324.386,254.707,325.63z"/>
	<path style="fill:#F5F5F5;" d="M388.774,254.706l-22.67-7.56l-0.185-23.897c-0.01-1.31-1.682-1.853-2.461-0.8l-14.196,19.223   l-22.785-7.208c-1.248-0.395-2.282,1.027-1.521,2.093L338.853,256l-13.896,19.442c-0.762,1.066,0.271,2.488,1.521,2.093   l22.785-7.208l14.196,19.224c0.779,1.053,2.451,0.511,2.461-0.8l0.185-23.897l22.67-7.56   C390.018,256.88,390.018,255.121,388.774,254.706z"/>
	<path style="fill:#F5F5F5;" d="M123.227,254.706l22.67-7.56l0.185-23.897c0.01-1.31,1.682-1.853,2.461-0.8l14.196,19.223   l22.785-7.208c1.25-0.395,2.282,1.027,1.521,2.093L173.148,256l13.896,19.442c0.762,1.066-0.271,2.488-1.521,2.093l-22.784-7.208   l-14.196,19.224c-0.779,1.053-2.451,0.511-2.461-0.8l-0.185-23.897l-22.67-7.56C121.985,256.88,121.985,255.121,123.227,254.706z"/>
</g>
<g>
</g>
<g>
</g>
<g>
</g>
<g>
</g>
<g>
</g>
<g>
</g>
<g>
</g>
<g>
</g>
<g>
</g>
<g>
</g>
<g>
</g>
<g>
</g>
<g>
</g>
<g>
</g>
<g>
</g>
</svg>
