<?xml version="1.0" encoding="iso-8859-1"?>
<!-- Generator: Adobe Illustrator 19.0.0, SVG Export Plug-In . SVG Version: 6.00 Build 0)  -->
<svg xmlns="http://www.w3.org/2000/svg" xmlns:xlink="http://www.w3.org/1999/xlink" version="1.1" id="Layer_1" x="0px" y="0px" viewBox="0 0 512.004 512.004" style="enable-background:new 0 0 512.004 512.004;" xml:space="preserve">
<path style="fill:#FFE15A;" d="M482.436,296.745l-0.014-81.491l-0.005-27.164l-0.008-42.486  c-0.001-11.607-5.715-22.389-15.14-28.946c-0.812-0.565-1.642-1.11-2.509-1.611l-23.71-13.684l-22.198-12.81l-17.87-10.313  l-94.999-54.826L285.99,11.875l-12.39-7.15c-10.918-6.302-24.37-6.3-35.287,0.006l-12.307,7.108l-19.994,11.548L111.025,78.25  L81.078,95.546l-22.191,12.818L47.19,115.12c-0.841,0.486-1.648,1.015-2.439,1.562c-9.465,6.556-15.201,17.365-15.2,29.001  l0.007,42.41l0.005,27.164l0.014,81.491l0.005,27.164l0.007,42.486c0.003,11.607,5.715,22.388,15.14,28.946  c0.812,0.565,1.642,1.11,2.509,1.611l23.377,13.491l22.198,12.811l18.204,10.506l94.999,54.826l19.994,11.539l12.39,7.151  c10.919,6.302,24.37,6.299,35.287-0.006l12.307-7.108l19.995-11.548l94.989-54.862l27.325-15.782l22.191-12.818l14.319-8.27  c0.841-0.486,1.648-1.015,2.439-1.562c9.465-6.556,15.201-17.365,15.2-29.001l-0.008-42.41L482.436,296.745z"/>
<path style="fill:#4173CD;" d="M29.589,366.394c0.003,11.607,5.715,22.388,15.14,28.946c0.812,0.565,1.642,1.11,2.509,1.611  l23.377,13.491l22.198,12.811l18.204,10.506l94.998,54.826l19.994,11.539l12.39,7.151c10.919,6.301,24.37,6.298,35.286-0.006  l12.307-7.108l19.994-11.548l94.989-54.862l27.325-15.782l22.191-12.818l14.319-8.27c0.841-0.486,1.648-1.015,2.439-1.562  c9.465-6.556,15.201-17.365,15.2-29.001l-0.004-24.623H29.585L29.589,366.394z"/>
<path style="fill:#73AF00;" d="M482.411,145.605c-0.003-11.607-5.715-22.389-15.14-28.946c-0.812-0.565-1.642-1.11-2.509-1.611  l-23.71-13.684l-22.198-12.81l-17.87-10.313l-94.999-54.826L285.99,11.876L273.6,4.725c-10.919-6.302-24.37-6.3-35.287,0.006  l-12.307,7.108l-19.994,11.548L111.025,78.25L81.078,95.546l-22.191,12.818L47.19,115.12c-0.841,0.486-1.648,1.015-2.439,1.562  c-9.465,6.556-15.201,17.365-15.2,29.001l0.004,24.623h452.86L482.411,145.605z"/>
<g>
</g>
<g>
</g>
<g>
</g>
<g>
</g>
<g>
</g>
<g>
</g>
<g>
</g>
<g>
</g>
<g>
</g>
<g>
</g>
<g>
</g>
<g>
</g>
<g>
</g>
<g>
</g>
<g>
</g>
</svg>
