<?xml version="1.0" encoding="iso-8859-1"?>
<!-- Generator: Adobe Illustrator 19.0.0, SVG Export Plug-In . SVG Version: 6.00 Build 0)  -->
<svg xmlns="http://www.w3.org/2000/svg" xmlns:xlink="http://www.w3.org/1999/xlink" version="1.1" id="Layer_1" x="0px" y="0px" viewBox="0 0 512.001 512.001" style="enable-background:new 0 0 512.001 512.001;" xml:space="preserve">
<path style="fill:#F5F5F5;" d="M482.439,297.897l-0.014-81.294l-0.011-70.997c-0.003-12.607-6.729-24.255-17.649-30.557  L285.993,11.876l-12.39-7.151c-10.918-6.302-24.37-6.3-35.287,0.006l-12.307,7.108L47.191,115.119  c-10.917,6.305-17.64,17.955-17.639,30.562l0.011,70.922l0.014,81.294l0.011,68.497C29.59,379,36.317,390.648,47.237,396.95  l178.771,103.174l12.39,7.151c10.918,6.301,24.37,6.299,35.287-0.006l12.307-7.108L464.81,396.88  c10.917-6.305,17.64-17.955,17.639-30.563L482.439,297.897z"/>
<path style="fill:#FF4B55;" d="M238.316,4.73l-12.307,7.108v204.765H29.564l0.014,81.294h196.431v202.228l12.39,7.151  c10.918,6.301,24.37,6.3,35.287-0.006l12.307-7.108V297.897h196.445l-0.014-81.294H285.993V11.876l-12.39-7.151  C262.684-1.577,249.233-1.575,238.316,4.73z"/>
<g>
</g>
<g>
</g>
<g>
</g>
<g>
</g>
<g>
</g>
<g>
</g>
<g>
</g>
<g>
</g>
<g>
</g>
<g>
</g>
<g>
</g>
<g>
</g>
<g>
</g>
<g>
</g>
<g>
</g>
</svg>
