<?xml version="1.0" encoding="iso-8859-1"?>
<!-- Generator: Adobe Illustrator 19.0.0, SVG Export Plug-In . SVG Version: 6.00 Build 0)  -->
<svg xmlns="http://www.w3.org/2000/svg" xmlns:xlink="http://www.w3.org/1999/xlink" version="1.1" id="Layer_1" x="0px" y="0px" viewBox="0 0 512.002 512.002" style="enable-background:new 0 0 512.002 512.002;" xml:space="preserve">
<path style="fill:#FF4B55;" d="M482.45,366.319l-0.008-42.41l-0.005-27.164l-0.014-81.491l-0.005-27.164l-0.008-42.485  c-0.001-3.105-0.422-6.147-1.202-9.07c-0.42-1.572-0.948-3.107-1.577-4.597c-2.568-6.091-6.814-11.419-12.362-15.28  c-0.812-0.565-1.642-1.11-2.509-1.611l-23.71-13.684l-22.198-12.81l-17.87-10.313L332.645,38.8l0,0l-26.659-15.386l-19.995-11.539  l-12.39-7.151c-10.918-6.301-24.37-6.298-35.287,0.006l-12.307,7.108l-19.995,11.548l-26.659,15.398l0,0L111.026,78.25  L81.079,95.547l-22.191,12.818l-11.697,6.755c-0.841,0.486-1.648,1.015-2.439,1.561c-3.392,2.349-6.296,5.254-8.638,8.538  c-1.572,2.206-2.883,4.585-3.911,7.092c-1.715,4.179-2.652,8.706-2.651,13.371l0.007,42.41l0.005,27.164l0.014,81.478v0.014v0.005  l0.005,27.159l0.007,42.478v0.006c0.003,11.607,5.715,22.388,15.14,28.946c0.812,0.565,1.642,1.11,2.509,1.611l23.377,13.491  l22.198,12.812l18.204,10.506l94.999,54.826l19.995,11.539l12.39,7.151c10.918,6.301,24.37,6.298,35.287-0.006l12.307-7.108  l19.995-11.548l26.659-15.397l0,0l57.588-33.261l10.742-6.205l27.325-15.782l22.191-12.818l14.319-8.27  c0.841-0.486,1.648-1.015,2.439-1.561C476.716,388.765,482.452,377.956,482.45,366.319L482.45,366.319L482.45,366.319z"/>
<g>
	<path style="fill:#FFE15A;" d="M128.567,381.852l2.969,1.713l13.884,8.013l72.455,41.816l15.25,8.801l9.45,5.454   c8.328,4.806,18.587,4.805,26.914-0.005l9.386-5.421l15.25-8.808l20.333-11.743l43.922-25.368l8.193-4.732l16.849-9.731   L256.001,256L128.567,381.852z"/>
	<path style="fill:#FFE15A;" d="M366.582,120.422L314.46,90.34l-20.333-11.734l-15.25-8.801l-9.45-5.454   c-8.328-4.806-18.587-4.804-26.914,0.005l-9.386,5.421l-15.25,8.808l-20.333,11.744l0,0l-52.117,30.101l-16.849,9.731L256.001,256   l127.434-125.85l-3.224-1.861L366.582,120.422z"/>
</g>
<g>
	<path style="fill:#73AF00;" d="M128.578,130.161l-5.992,3.46l-16.925,9.776l-8.921,5.152c-0.641,0.371-1.257,0.774-1.861,1.191   c-2.587,1.792-4.801,4.006-6.587,6.511c-1.198,1.682-2.198,3.497-2.983,5.409c-1.308,3.188-2.022,6.641-2.022,10.198l0.005,32.346   l0.004,20.718l0.01,62.143v0.01v0.004l0.004,20.714l0.005,32.399v0.005c0.001,8.853,4.359,17.075,11.547,22.078   c0.62,0.431,1.252,0.846,1.913,1.228l17.83,10.29l13.961,8.058L256,256L128.578,130.161z"/>
	<path style="fill:#73AF00;" d="M383.424,381.839l3.991-2.306l16.925-9.776l10.921-6.307c0.642-0.37,1.257-0.774,1.861-1.191   c7.219-5,11.594-13.245,11.593-22.119l-0.005-32.346l-0.004-20.718l-0.01-62.154l-0.004-20.718l-0.005-32.404   c0-2.368-0.322-4.689-0.917-6.917c-0.32-1.2-0.724-2.369-1.202-3.507c-1.958-4.646-5.197-8.71-9.427-11.653   c-0.62-0.431-1.252-0.847-1.913-1.228l-18.084-10.437l-13.706-7.91L256.001,256L383.424,381.839z"/>
</g>
<circle style="fill:#FF4B55;" cx="256.001" cy="256" r="43.738"/>
<g>
	<path style="fill:#FFE15A;" d="M258.765,223.953l6.841,20.511l21.62,0.167c2.799,0.021,3.96,3.594,1.708,5.257l-17.393,12.844   l6.522,20.614c0.845,2.669-2.194,4.876-4.471,3.249l-17.59-12.573l-17.59,12.573c-2.277,1.628-5.316-0.58-4.471-3.249l6.522-20.614   l-17.393-12.844c-2.252-1.663-1.091-5.235,1.708-5.257l21.62-0.167l6.841-20.511C254.124,221.297,257.879,221.297,258.765,223.953z   "/>
	<path style="fill:#FFE15A;" d="M257.308,19.935l3.233,9.695l10.22,0.079c1.323,0.01,1.872,1.698,0.807,2.484l-8.221,6.071   l3.083,9.744c0.399,1.261-1.037,2.306-2.113,1.536l-8.314-5.943l-8.314,5.943c-1.076,0.77-2.513-0.274-2.113-1.536l3.083-9.744   l-8.221-6.071c-1.065-0.786-0.516-2.474,0.807-2.484l10.22-0.079l3.233-9.695C255.114,18.679,256.89,18.679,257.308,19.935z"/>
	<path style="fill:#FFE15A;" d="M372.394,79.918l3.233,9.695l10.22,0.079c1.323,0.01,1.872,1.698,0.807,2.484l-8.221,6.071   l3.083,9.744c0.399,1.261-1.037,2.306-2.113,1.536l-8.314-5.943l-8.314,5.943c-1.076,0.77-2.513-0.274-2.113-1.536l3.083-9.744   l-8.221-6.071c-1.065-0.786-0.516-2.474,0.807-2.484l10.22-0.079l3.233-9.695C370.2,78.662,371.976,78.662,372.394,79.918z"/>
	<path style="fill:#FFE15A;" d="M142.222,79.918l3.234,9.695l10.22,0.079c1.323,0.01,1.872,1.698,0.807,2.484l-8.221,6.071   l3.083,9.744c0.399,1.261-1.037,2.306-2.113,1.536l-8.314-5.943l-8.314,5.943c-1.076,0.77-2.513-0.274-2.113-1.536l3.083-9.744   l-8.221-6.071c-1.065-0.786-0.516-2.474,0.807-2.484l10.22-0.079l3.233-9.695C140.028,78.662,141.804,78.662,142.222,79.918z"/>
	<path style="fill:#FFE15A;" d="M257.308,463.135l3.233,9.695l10.22,0.079c1.323,0.01,1.872,1.698,0.807,2.484l-8.221,6.071   l3.083,9.744c0.399,1.261-1.037,2.306-2.113,1.536l-8.314-5.943l-8.314,5.943c-1.076,0.77-2.513-0.274-2.113-1.536l3.083-9.744   l-8.221-6.071c-1.065-0.786-0.516-2.474,0.807-2.484l10.22-0.079l3.233-9.695C255.114,461.88,256.89,461.88,257.308,463.135z"/>
	<path style="fill:#FFE15A;" d="M372.394,403.151l3.233,9.695l10.22,0.079c1.323,0.01,1.872,1.698,0.807,2.484l-8.221,6.071   l3.083,9.744c0.399,1.261-1.037,2.306-2.113,1.536l-8.314-5.943l-8.314,5.943c-1.076,0.77-2.513-0.274-2.113-1.536l3.083-9.744   l-8.221-6.071c-1.065-0.786-0.516-2.474,0.807-2.484l10.22-0.079l3.233-9.695C370.2,401.897,371.976,401.897,372.394,403.151z"/>
	<path style="fill:#FFE15A;" d="M142.222,401.901l3.234,9.695l10.22,0.079c1.323,0.01,1.872,1.698,0.807,2.484l-8.221,6.071   l3.083,9.744c0.399,1.261-1.037,2.306-2.113,1.536l-8.314-5.943l-8.314,5.943c-1.076,0.77-2.513-0.274-2.113-1.536l3.083-9.744   l-8.221-6.071c-1.065-0.786-0.516-2.474,0.807-2.484l10.22-0.079l3.233-9.695C140.028,400.647,141.804,400.647,142.222,401.901z"/>
	<path style="fill:#FFE15A;" d="M136.659,234.131H114.79V256c0,12.078,9.791,21.869,21.869,21.869s21.869-9.791,21.869-21.869   C158.528,243.922,148.737,234.131,136.659,234.131z"/>
</g>
<polygon style="fill:#FF4B55;" points="158.528,277.869 146.507,275.539 136.659,256 156.197,265.849 "/>
<g>
</g>
<g>
</g>
<g>
</g>
<g>
</g>
<g>
</g>
<g>
</g>
<g>
</g>
<g>
</g>
<g>
</g>
<g>
</g>
<g>
</g>
<g>
</g>
<g>
</g>
<g>
</g>
<g>
</g>
</svg>
