<?xml version="1.0" encoding="iso-8859-1"?>
<!-- Generator: Adobe Illustrator 19.0.0, SVG Export Plug-In . SVG Version: 6.00 Build 0)  -->
<svg xmlns="http://www.w3.org/2000/svg" xmlns:xlink="http://www.w3.org/1999/xlink" version="1.1" id="Layer_1" x="0px" y="0px" viewBox="0 0 512.002 512.002" style="enable-background:new 0 0 512.002 512.002;" xml:space="preserve">
<path style="fill:#FFE15A;" d="M482.446,343.332l-0.029-174.665l-0.004-23.062c-0.003-12.607-6.729-24.255-17.649-30.557  L273.602,4.725c-10.918-6.302-24.37-6.3-35.287,0.006L47.19,115.118c-10.917,6.306-17.64,17.955-17.639,30.562l0.004,22.986  l0.029,174.665l0.004,23.062C29.59,379,36.317,390.648,47.236,396.95l191.161,110.325c10.918,6.302,24.37,6.3,35.287-0.006  L464.81,396.88c10.917-6.306,17.64-17.955,17.639-30.563L482.446,343.332z"/>
<path style="fill:#FF4B55;" d="M482.412,145.605c-0.003-12.607-6.729-24.255-17.649-30.557L273.602,4.725  c-10.918-6.302-24.37-6.3-35.287,0.006L47.19,115.118c-10.917,6.306-17.64,17.955-17.639,30.562l0.004,22.986h452.861  L482.412,145.605z"/>
<path style="fill:#73AF00;" d="M29.589,366.395c0.003,12.607,6.729,24.255,17.649,30.557l191.161,110.325  c10.918,6.302,24.37,6.299,35.287-0.006l191.125-110.389c10.917-6.306,17.64-17.955,17.639-30.563l-0.004-22.986H29.585  L29.589,366.395z"/>
<path style="fill:#464655;" d="M186.719,244.81l36.59,27.02l-13.72,43.367c-1.777,5.615,4.616,10.26,9.407,6.834l37.005-26.449  l37.005,26.449c4.791,3.424,11.183-1.22,9.407-6.834l-13.72-43.367l36.59-27.02c4.737-3.498,2.296-11.013-3.593-11.059  l-45.484-0.352l-14.391-43.149c-1.863-5.586-9.765-5.586-11.628,0l-14.391,43.149l-45.484,0.352  C184.424,233.797,181.982,241.313,186.719,244.81z"/>
<g>
</g>
<g>
</g>
<g>
</g>
<g>
</g>
<g>
</g>
<g>
</g>
<g>
</g>
<g>
</g>
<g>
</g>
<g>
</g>
<g>
</g>
<g>
</g>
<g>
</g>
<g>
</g>
<g>
</g>
</svg>
