<?xml version="1.0" encoding="iso-8859-1"?>
<!-- Generator: Adobe Illustrator 19.0.0, SVG Export Plug-In . SVG Version: 6.00 Build 0)  -->
<svg xmlns="http://www.w3.org/2000/svg" xmlns:xlink="http://www.w3.org/1999/xlink" version="1.1" id="Layer_1" x="0px" y="0px" viewBox="0 0 512.003 512.003" style="enable-background:new 0 0 512.003 512.003;" xml:space="preserve">
<path style="fill:#F5F5F5;" d="M482.45,366.319l-0.008-42.41l-0.005-27.164l-0.014-81.491l-0.005-27.164l-0.008-42.485  c-0.001-3.105-0.422-6.147-1.202-9.07c-0.42-1.572-0.948-3.107-1.577-4.597c-2.568-6.091-6.814-11.419-12.362-15.28  c-0.812-0.565-1.642-1.11-2.509-1.611l-23.71-13.684l-22.198-12.81l-17.87-10.313L332.645,38.8l0,0l-26.659-15.386l-19.995-11.54  l-12.39-7.15c-10.918-6.301-24.37-6.298-35.287,0.006l-12.307,7.108l-19.995,11.548l-26.659,15.398l0,0L111.025,78.25L81.078,95.547  l-22.191,12.818l-11.697,6.756c-0.841,0.486-1.648,1.015-2.439,1.561c-3.392,2.349-6.296,5.254-8.638,8.538  c-1.572,2.206-2.883,4.585-3.911,7.092c-1.715,4.179-2.652,8.706-2.651,13.371l0.007,42.41l0.005,27.164l0.014,81.478v0.014v0.005  l0.005,27.159l0.007,42.478v0.006c0.003,11.607,5.715,22.388,15.14,28.946c0.812,0.565,1.642,1.11,2.509,1.611l23.377,13.491  l22.198,12.812l18.204,10.506l94.999,54.826l19.995,11.539l12.39,7.151c10.918,6.301,24.37,6.298,35.287-0.006l12.307-7.108  l19.995-11.548l26.659-15.397l0,0l57.588-33.261l10.742-6.205l27.325-15.782l22.191-12.818l14.319-8.27  c0.841-0.486,1.648-1.015,2.439-1.561C476.715,388.765,482.451,377.956,482.45,366.319L482.45,366.319L482.45,366.319z"/>
<g>
	<path style="fill:#FF4B55;" d="M482.442,323.909v-0.822H29.581v0.822l0.007,42.478v0.006c0.003,11.607,5.715,22.389,15.14,28.946   c0.812,0.565,1.642,1.11,2.509,1.611l23.377,13.491l22.198,12.812l18.204,10.506l60.096,34.683l34.903,20.143l19.995,11.539   l12.39,7.151c10.92,6.301,24.37,6.298,35.287-0.006l12.307-7.108l19.995-11.548l26.659-15.397l8.265-4.774l49.323-28.487   l10.742-6.205l27.325-15.782l22.191-12.818l14.319-8.27c0.841-0.486,1.648-1.013,2.439-1.562   c9.465-6.556,15.201-17.365,15.2-29.001L482.442,323.909z"/>
	<polygon style="fill:#FF4B55;" points="363.47,217.261 363.47,197.721 343.93,197.721 343.93,148.871 353.7,148.871 353.7,129.331    295.08,129.331 295.08,148.871 304.85,148.871 304.85,197.721 275.54,197.721 275.54,129.331 285.31,129.331 285.31,109.79    226.689,109.79 226.689,129.331 236.46,129.331 236.46,197.721 207.149,197.721 207.149,148.871 216.919,148.871 216.919,129.331    158.298,129.331 158.298,148.871 168.068,148.871 168.068,197.721 148.529,197.721 148.529,217.261 158.298,217.261    158.298,295.422 148.529,295.422 148.529,314.962 363.47,314.962 363.47,295.422 353.7,295.422 353.7,217.261  "/>
</g>
<g>
	<path style="fill:#464655;" d="M275.54,305.192h-39.081v-39.081c0-10.792,8.749-19.54,19.54-19.54l0,0   c10.792,0,19.54,8.749,19.54,19.54L275.54,305.192L275.54,305.192z"/>
	<path style="fill:#464655;" d="M255.999,168.41c-5.396,0-9.77,4.374-9.77,9.77v29.311h19.54V178.18   C265.769,172.784,261.395,168.41,255.999,168.41z"/>
	<path style="fill:#464655;" d="M324.389,178.18c-5.396,0-9.77,4.374-9.77,9.77v19.54h19.54v-19.54   C334.16,182.555,329.785,178.18,324.389,178.18z"/>
	<path style="fill:#464655;" d="M187.609,178.18c-5.396,0-9.77,4.374-9.77,9.77v19.54h19.54v-19.54   C197.379,182.555,193.005,178.18,187.609,178.18z"/>
	<path style="fill:#464655;" d="M334.16,305.192h-39.081v-29.311c0-10.792,8.749-19.54,19.54-19.54l0,0   c10.792,0,19.54,8.749,19.54,19.54L334.16,305.192L334.16,305.192z"/>
	<path style="fill:#464655;" d="M216.919,305.192H177.84v-29.311c0-10.792,8.749-19.54,19.54-19.54l0,0   c10.792,0,19.54,8.749,19.54,19.54v29.311H216.919z"/>
</g>
<path style="fill:#FFE15A;" d="M282.867,339.387c0-1.632-0.816-3.158-2.176-4.065l-19.807-13.205v-4.136l16.84-8.42  c2.414-1.207,3.392-4.141,2.184-6.554c-1.212-2.418-4.136-3.392-6.554-2.184l-17.355,8.678l-17.355-8.678  c-2.404-1.207-5.347-0.234-6.554,2.184c-1.207,2.414-0.229,5.347,2.184,6.554l16.84,8.42v4.136l-19.807,13.205  c-1.36,0.906-2.176,2.433-2.176,4.065s0.816,3.158,2.176,4.065l19.807,13.205v41.351h-19.54v7.48c0,2.701,2.184,4.885,4.885,4.885  c1.871,0,3.497-1.05,4.318-2.596h10.338v9.77h-10.423c-0.845-1.46-2.423-2.442-4.231-2.442c-2.701,0-4.885,2.184-4.885,4.885v7.328  h19.54v4.885c0,2.701,2.184,4.885,4.885,4.885c2.701,0,4.885-2.184,4.885-4.885v-4.885v-29.311v-41.351l19.807-13.205  C282.051,342.545,282.867,341.018,282.867,339.387z M255.999,348.17l-13.176-8.783l13.176-8.783l13.176,8.783L255.999,348.17z"/>
<g>
</g>
<g>
</g>
<g>
</g>
<g>
</g>
<g>
</g>
<g>
</g>
<g>
</g>
<g>
</g>
<g>
</g>
<g>
</g>
<g>
</g>
<g>
</g>
<g>
</g>
<g>
</g>
<g>
</g>
</svg>
