<?xml version="1.0" encoding="iso-8859-1"?>
<!-- Generator: Adobe Illustrator 19.0.0, SVG Export Plug-In . SVG Version: 6.00 Build 0)  -->
<svg xmlns="http://www.w3.org/2000/svg" xmlns:xlink="http://www.w3.org/1999/xlink" version="1.1" id="Layer_1" x="0px" y="0px" viewBox="0 0 512.005 512.005" style="enable-background:new 0 0 512.005 512.005;" xml:space="preserve">
<path style="fill:#F5F5F5;" d="M482.438,296.747l-0.014-81.491l-0.005-27.164l-0.008-42.486  c-0.003-11.607-5.715-22.389-15.14-28.946c-0.812-0.565-1.642-1.11-2.509-1.611l-23.71-13.684l-22.198-12.81l-17.87-10.313  l-94.999-54.826L285.99,11.877l-12.389-7.152c-10.918-6.301-24.37-6.3-35.287,0.006l-12.307,7.108l-19.995,11.548l-94.988,54.862  L81.079,95.547l-22.191,12.818l-11.697,6.756c-0.841,0.486-1.648,1.015-2.439,1.562c-9.465,6.556-15.202,17.365-15.2,29.001  l0.007,42.41l0.005,27.164l0.014,81.491l0.005,27.164l0.007,42.486c0.003,11.607,5.715,22.388,15.14,28.946  c0.812,0.565,1.642,1.11,2.509,1.611l23.377,13.491l22.198,12.812l18.204,10.506l94.999,54.826l19.995,11.539l12.39,7.151  c10.92,6.302,24.37,6.299,35.287-0.006l12.307-7.108l19.995-11.548l94.989-54.863l27.325-15.782l22.191-12.818l14.319-8.27  c0.841-0.486,1.648-1.013,2.439-1.561c9.465-6.556,15.201-17.365,15.2-29.001l-0.008-42.41L482.438,296.747z"/>
<g>
	<path style="fill:#FF4B55;" d="M29.582,323.909l0.007,42.486c0.003,11.607,5.715,22.388,15.14,28.946   c0.812,0.565,1.642,1.11,2.509,1.611l23.377,13.491l22.198,12.812l18.204,10.506l94.999,54.826l19.995,11.539l12.39,7.151   c10.92,6.302,24.371,6.299,35.287-0.006l12.307-7.108l19.995-11.548l94.989-54.862l27.325-15.782l22.191-12.818l14.319-8.27   c0.841-0.486,1.648-1.013,2.439-1.561c9.465-6.556,15.201-17.365,15.2-29.001l-0.008-42.41l-0.005-27.164l-0.006-40.745H29.572   l0.006,40.745L29.582,323.909z"/>
	<path style="fill:#FF4B55;" d="M167.276,148.53c-59.354,0-107.471,48.117-107.471,107.471h214.941   C274.746,196.647,226.631,148.53,167.276,148.53z"/>
</g>
<path style="fill:#F5F5F5;" d="M167.276,363.471c59.354,0,107.471-48.117,107.471-107.471H59.805  C59.805,315.355,107.922,363.471,167.276,363.471z"/>
<g>
</g>
<g>
</g>
<g>
</g>
<g>
</g>
<g>
</g>
<g>
</g>
<g>
</g>
<g>
</g>
<g>
</g>
<g>
</g>
<g>
</g>
<g>
</g>
<g>
</g>
<g>
</g>
<g>
</g>
</svg>
