<?xml version="1.0" encoding="iso-8859-1"?>
<!-- Generator: Adobe Illustrator 19.0.0, SVG Export Plug-In . SVG Version: 6.00 Build 0)  -->
<svg xmlns="http://www.w3.org/2000/svg" xmlns:xlink="http://www.w3.org/1999/xlink" version="1.1" id="Layer_1" x="0px" y="0px" viewBox="0 0 512 512" style="enable-background:new 0 0 512 512;" xml:space="preserve">
<path style="fill:#F5F5F5;" d="M482.442,331.497l-0.001-7.588l-0.001-9.66l-0.003-17.504l-0.014-81.491l-0.004-19.102l-0.001-8.062  l-0.001-5.452l-0.006-37.032c0-2.902-0.357-5.752-1.041-8.498c-0.512-2.059-1.208-4.059-2.073-5.978  c-2.597-5.757-6.723-10.782-12.025-14.471c-0.812-0.565-1.642-1.11-2.509-1.611l-11.856-6.842l-11.855-6.842l-22.198-12.811  l-17.87-10.313l-94.999-54.826l-19.996-11.541l-12.39-7.151c-0.682-0.394-1.375-0.764-2.076-1.107  c-2.804-1.378-5.746-2.363-8.748-2.953C260.526,0.221,258.24,0,255.956,0c-1.523,0-3.047,0.099-4.559,0.296  c-4.54,0.592-8.99,2.069-13.084,4.434l-12.307,7.108l-19.995,11.548L111.023,78.25L81.076,95.546l-22.191,12.818l-11.697,6.756  c-0.841,0.486-1.648,1.015-2.439,1.562c-1.775,1.23-3.418,2.608-4.917,4.114c-1,1.003-1.934,2.064-2.802,3.174  c-2.168,2.775-3.911,5.861-5.167,9.152c-0.502,1.316-0.927,2.667-1.27,4.043c-0.342,1.376-0.604,2.778-0.779,4.2  c-0.087,0.711-0.154,1.427-0.197,2.147c-0.044,0.72-0.066,1.443-0.066,2.171l0.006,34.823l0.001,7.588l0.003,14.993l0.003,12.17  l0.014,81.491l0.004,19.101l0.001,8.063l0.001,5.454l0.006,37.032c0,2.902,0.357,5.752,1.041,8.496  c0.512,2.059,1.208,4.059,2.073,5.978c0.289,0.64,0.596,1.27,0.922,1.891c0.651,1.241,1.377,2.443,2.172,3.599  c2.384,3.468,5.397,6.521,8.931,8.98c0.812,0.565,1.642,1.11,2.509,1.611l23.377,13.491l22.198,12.811l18.204,10.506l94.999,54.826  l19.995,11.539l12.39,7.151c2.047,1.181,4.184,2.142,6.376,2.879c5.845,1.968,12.085,2.362,18.089,1.178  c2.251-0.444,4.469-1.108,6.619-1.996c0.717-0.295,1.426-0.616,2.127-0.961s1.393-0.715,2.076-1.108l12.307-7.108l8.811-5.089  l11.183-6.459l94.989-54.863l27.325-15.782l22.191-12.818l14.319-8.27c0.841-0.486,1.648-1.013,2.439-1.561  c1.775-1.23,3.418-2.608,4.917-4.114c1-1.003,1.934-2.063,2.802-3.174c3.035-3.885,5.237-8.379,6.437-13.195  c0.685-2.752,1.043-5.61,1.043-8.518L482.442,331.497z"/>
<polygon style="fill:#41479B;" points="29.577,306.331 482.438,306.331 482.435,296.746 482.423,215.255 482.42,205.669   29.56,205.669 29.562,215.255 29.575,296.746 "/>
<path style="fill:#73AF00;" d="M476.146,386.428c0.122-0.176,0.235-0.357,0.354-0.535c0.25-0.374,0.497-0.75,0.732-1.132  c0.132-0.216,0.259-0.437,0.387-0.657c0.207-0.355,0.411-0.711,0.606-1.073c0.126-0.235,0.249-0.472,0.37-0.71  c0.182-0.36,0.36-0.722,0.531-1.087c0.112-0.241,0.224-0.482,0.331-0.725c0.166-0.377,0.322-0.76,0.476-1.143  c0.094-0.236,0.191-0.471,0.28-0.71c0.159-0.422,0.302-0.851,0.445-1.28c0.067-0.204,0.14-0.405,0.204-0.61  c0.197-0.636,0.381-1.278,0.542-1.928c0.685-2.752,1.043-5.61,1.043-8.518l-0.006-34.823H29.58l0.006,34.898  c0,2.902,0.357,5.752,1.041,8.496c0.227,0.916,0.505,1.815,0.804,2.704c0.075,0.222,0.151,0.444,0.231,0.665  c0.316,0.882,0.654,1.756,1.038,2.608c0.289,0.64,0.596,1.27,0.922,1.891s0.67,1.232,1.032,1.832s0.742,1.19,1.14,1.768  c0.53,0.77,1.102,1.512,1.692,2.239c0.147,0.182,0.297,0.362,0.449,0.541c0.606,0.716,1.231,1.42,1.894,2.088  c0.664,0.667,1.365,1.301,2.083,1.917c0.18,0.155,0.361,0.307,0.545,0.459c0.732,0.604,1.483,1.19,2.269,1.737  c0.812,0.565,1.642,1.11,2.509,1.611l23.377,13.491l22.198,12.812l18.204,10.506l94.999,54.826l11.241,6.487l8.754,5.052  l12.39,7.151c0.615,0.355,1.24,0.682,1.869,0.997c0.186,0.094,0.375,0.181,0.564,0.271c0.47,0.225,0.944,0.437,1.42,0.641  c0.19,0.08,0.379,0.162,0.569,0.24c0.646,0.261,1.297,0.51,1.954,0.731c1.461,0.492,2.948,0.886,4.449,1.181s3.017,0.492,4.537,0.59  c1.521,0.099,3.047,0.097,4.566-0.001c1.521-0.099,3.037-0.296,4.536-0.592c0.675-0.132,1.346-0.292,2.014-0.465  c0.197-0.051,0.394-0.107,0.591-0.162c0.495-0.137,0.987-0.285,1.476-0.445c0.194-0.062,0.387-0.124,0.581-0.19  c0.657-0.226,1.311-0.466,1.958-0.732c0.717-0.295,1.426-0.616,2.127-0.961c0.701-0.345,1.393-0.715,2.076-1.108l12.307-7.108  l19.995-11.548l94.989-54.862l27.325-15.782l22.191-12.818l14.319-8.27c0.841-0.486,1.648-1.013,2.439-1.561  c0,0,0.001-0.001,0.003-0.001c0.789-0.546,1.541-1.132,2.276-1.735c0.184-0.151,0.367-0.304,0.547-0.459  c0.721-0.616,1.426-1.25,2.092-1.918c0.5-0.502,0.983-1.017,1.451-1.547c0.467-0.53,0.917-1.072,1.351-1.627  C475.376,387.509,475.767,386.973,476.146,386.428z"/>
<path style="fill:#FF4B55;" d="M29.814,141.364c-0.087,0.711-0.154,1.427-0.197,2.147c-0.022,0.36-0.022,0.724-0.034,1.086  c-0.011,0.362-0.034,0.722-0.034,1.086l0.006,34.823h452.861l-0.006-34.898c0-2.177-0.201-4.324-0.59-6.419  c-0.13-0.699-0.28-1.392-0.451-2.078v-0.001c-0.227-0.916-0.505-1.815-0.804-2.704c-0.075-0.222-0.151-0.444-0.231-0.665  c-0.316-0.882-0.654-1.757-1.038-2.609c-0.307-0.682-0.64-1.352-0.991-2.013c-0.115-0.217-0.242-0.429-0.362-0.644  c-0.244-0.439-0.491-0.876-0.754-1.303c-0.152-0.249-0.316-0.491-0.474-0.735c-0.25-0.385-0.502-0.769-0.767-1.143  c-0.176-0.251-0.36-0.496-0.544-0.742c-0.266-0.357-0.539-0.711-0.819-1.058c-0.196-0.244-0.395-0.484-0.599-0.722  c-0.29-0.34-0.587-0.674-0.89-1.003c-0.209-0.227-0.417-0.455-0.632-0.676c-0.321-0.331-0.654-0.654-0.988-0.973  c-0.212-0.204-0.422-0.41-0.641-0.609c-0.376-0.341-0.765-0.669-1.156-0.995c-0.194-0.16-0.38-0.327-0.576-0.484  c-0.595-0.474-1.203-0.932-1.832-1.37c-0.812-0.565-1.642-1.11-2.509-1.611l-11.855-6.842l-11.855-6.842l-22.198-12.811  l-17.87-10.313l-94.999-54.826l-11.241-6.487l-8.754-5.052L273.6,4.727c-0.341-0.197-0.692-0.369-1.038-0.554  s-0.687-0.381-1.038-0.554c-1.402-0.689-2.838-1.28-4.3-1.772c-1.461-0.492-2.948-0.886-4.449-1.181  c-0.675-0.132-1.355-0.239-2.034-0.332c-0.202-0.027-0.405-0.05-0.606-0.074c-0.505-0.06-1.01-0.109-1.516-0.147  c-0.202-0.015-0.405-0.032-0.609-0.044C257.327,0.026,256.641,0,255.956,0c-1.523,0-3.047,0.099-4.559,0.296  c-0.681,0.089-1.36,0.204-2.036,0.332c-0.199,0.037-0.396,0.081-0.594,0.122c-0.501,0.105-1.001,0.22-1.498,0.346  c-0.196,0.05-0.394,0.097-0.59,0.151c-1.335,0.364-2.652,0.807-3.945,1.331c-0.19,0.077-0.379,0.159-0.567,0.24  c-0.477,0.204-0.952,0.417-1.423,0.642c-0.186,0.089-0.372,0.176-0.559,0.269c-0.63,0.315-1.256,0.644-1.871,1l-12.307,7.108  l-8.811,5.09l-11.183,6.459l-94.99,54.862L81.076,95.546l-22.191,12.818l-11.697,6.756c-0.841,0.486-1.648,1.015-2.439,1.562  c0,0-0.001,0.001-0.002,0.001c-0.789,0.546-1.54,1.132-2.276,1.735c-0.185,0.151-0.367,0.305-0.549,0.46  c-0.721,0.616-1.426,1.25-2.091,1.918c-0.75,0.754-1.451,1.547-2.127,2.361c-0.225,0.271-0.459,0.536-0.676,0.814  c-0.003,0.004-0.005,0.007-0.009,0.011c-0.492,0.63-0.956,1.28-1.403,1.941c-0.142,0.21-0.276,0.426-0.414,0.64  c-0.302,0.47-0.597,0.943-0.877,1.427c-0.142,0.245-0.282,0.492-0.419,0.741c-0.269,0.49-0.524,0.987-0.77,1.491  c-0.111,0.227-0.226,0.452-0.334,0.682c-0.337,0.73-0.656,1.467-0.943,2.219c-0.502,1.316-0.927,2.667-1.27,4.043  c-0.171,0.689-0.322,1.382-0.452,2.083C30.012,139.947,29.902,140.653,29.814,141.364z"/>
<g>
</g>
<g>
</g>
<g>
</g>
<g>
</g>
<g>
</g>
<g>
</g>
<g>
</g>
<g>
</g>
<g>
</g>
<g>
</g>
<g>
</g>
<g>
</g>
<g>
</g>
<g>
</g>
<g>
</g>
</svg>
