<?xml version="1.0" encoding="iso-8859-1"?>
<!-- Generator: Adobe Illustrator 19.0.0, SVG Export Plug-In . SVG Version: 6.00 Build 0)  -->
<svg xmlns="http://www.w3.org/2000/svg" xmlns:xlink="http://www.w3.org/1999/xlink" version="1.1" id="Layer_1" x="0px" y="0px" viewBox="0 0 512.004 512.004" style="enable-background:new 0 0 512.004 512.004;" xml:space="preserve">
<path style="fill:#FFE15A;" d="M29.563,296.746l0.014-81.491l0.005-27.164l0.007-42.486c0.001-11.607,5.715-22.389,15.14-28.946  c0.812-0.565,1.642-1.11,2.508-1.611l23.711-13.684l22.198-12.81l17.87-10.313l94.999-54.826l19.995-11.539l12.39-7.151  c10.918-6.301,24.37-6.3,35.287,0.006l12.307,7.108l19.995,11.548l94.989,54.862l29.948,17.297l22.191,12.818l11.697,6.756  c0.841,0.486,1.648,1.015,2.439,1.562c9.465,6.556,15.202,17.365,15.2,29.001l-0.008,42.41l-0.005,27.164l-0.014,81.491  l-0.005,27.164l-0.008,42.486c-0.003,11.607-5.715,22.388-15.14,28.946c-0.812,0.565-1.642,1.11-2.509,1.611l-23.377,13.491  l-22.198,12.812l-18.204,10.506l-94.999,54.826l-19.995,11.539l-12.39,7.151c-10.92,6.302-24.37,6.299-35.287-0.006l-12.307-7.108  l-19.995-11.548l-94.989-54.863L83.7,417.971l-22.191-12.82l-14.319-8.27c-0.841-0.486-1.648-1.013-2.439-1.561  c-9.465-6.556-15.202-17.365-15.2-29.001l0.007-42.41L29.563,296.746z"/>
<path style="fill:#FF4B55;" d="M111.025,433.749L83.7,417.968l-22.191-12.816l-14.319-8.27c-0.841-0.486-1.648-1.015-2.439-1.562  c-9.465-6.556-15.201-17.365-15.2-29.001l0.007-42.41l0.005-27.164l0.014-81.491l0.005-27.164l0.007-42.485  c0.003-11.607,5.715-22.389,15.14-28.946c0.812-0.565,1.642-1.11,2.508-1.611l23.711-13.684l22.198-12.81l17.87-10.313  l68.964-39.802v435.137L111.025,433.749z"/>
<path style="fill:#73AF00;" d="M400.976,78.249l29.947,17.297l22.191,12.818l11.697,6.756c0.841,0.486,1.648,1.015,2.439,1.562  c9.465,6.556,15.201,17.365,15.2,29.001l-0.008,42.41l-0.005,27.164l-0.014,81.491l-0.005,27.164l-0.008,42.486  c-0.003,11.607-5.715,22.388-15.14,28.946c-0.812,0.565-1.642,1.11-2.509,1.611l-23.377,13.491l-22.198,12.812l-18.204,10.506  l-68.964,39.802V38.423L400.976,78.249z"/>
<g>
</g>
<g>
</g>
<g>
</g>
<g>
</g>
<g>
</g>
<g>
</g>
<g>
</g>
<g>
</g>
<g>
</g>
<g>
</g>
<g>
</g>
<g>
</g>
<g>
</g>
<g>
</g>
<g>
</g>
</svg>
