<?xml version="1.0" encoding="iso-8859-1"?>
<!-- Generator: Adobe Illustrator 19.0.0, SVG Export Plug-In . SVG Version: 6.00 Build 0)  -->
<svg xmlns="http://www.w3.org/2000/svg" xmlns:xlink="http://www.w3.org/1999/xlink" version="1.1" id="Layer_1" x="0px" y="0px" viewBox="0 0 512.003 512.003" style="enable-background:new 0 0 512.003 512.003;" xml:space="preserve">
<path style="fill:#F5F5F5;" d="M482.436,296.747l-0.014-81.491l-0.005-27.164l-0.008-42.486  c-0.001-11.607-5.715-22.388-15.14-28.946c-0.812-0.565-1.642-1.11-2.508-1.611l-23.711-13.684l-22.198-12.81l-17.87-10.313  l-94.999-54.826l-19.993-11.54L273.6,4.725c-10.918-6.301-24.37-6.3-35.287,0.006l-12.307,7.108l-19.995,11.548l-94.987,54.864  L81.077,95.547l-22.191,12.818l-11.697,6.756c-0.841,0.486-1.648,1.015-2.439,1.561c-9.465,6.556-15.201,17.365-15.2,29.001  l0.007,42.41l0.005,27.164l0.014,81.491l0.005,27.164l0.007,42.486c0.003,11.607,5.715,22.388,15.14,28.946  c0.812,0.565,1.642,1.11,2.509,1.61l23.377,13.491l22.198,12.812l18.204,10.506l94.999,54.826l19.995,11.539l12.39,7.151  c10.92,6.302,24.37,6.298,35.287-0.006l12.307-7.108l19.995-11.548l94.989-54.863l27.325-15.782l22.191-12.818l14.319-8.27  c0.841-0.486,1.648-1.015,2.439-1.561c9.465-6.556,15.201-17.365,15.2-29.001l-0.008-42.41L482.436,296.747z"/>
<path style="fill:#73AF00;" d="M482.416,170.033l-0.004-24.427c-0.001-11.607-5.715-22.389-15.14-28.946  c-0.812-0.565-1.642-1.11-2.509-1.611l-23.711-13.684l-22.198-12.81l-17.87-10.313l-94.999-54.826L285.99,11.877L273.6,4.726  c-10.918-6.302-24.37-6.3-35.287,0.006l-12.307,7.108l-19.995,11.548l-94.987,54.863L81.077,95.547l-0.396,0.229l10.365,47.756  l30.207,26.502L482.416,170.033L482.416,170.033z"/>
<path style="fill:#FF4B55;" d="M80.669,416.247l12.142,7.008l18.204,10.506l94.999,54.826l19.995,11.539l12.39,7.151  c10.918,6.302,24.37,6.298,35.287-0.006l12.307-7.108l19.995-11.548l94.989-54.862l27.325-15.782l22.191-12.818l14.319-8.27  c0.841-0.486,1.648-1.013,2.439-1.562c9.465-6.556,15.201-17.365,15.2-29.001l-0.004-24.351H121.252l-30.207,30.25L80.669,416.247z"/>
<path style="fill:#4173CD;" d="M163.627,247.591l-42.375-77.558L80.681,95.776l-21.795,12.589l-11.697,6.756  c-0.841,0.486-1.648,1.015-2.439,1.561c-9.465,6.556-15.201,17.365-15.2,29.001l0.004,24.351l0.003,18.059l0.005,27.164  l0.014,81.491l0.005,27.164l0.003,18.059l0.004,24.427c0.003,11.607,5.715,22.389,15.14,28.946c0.812,0.565,1.642,1.11,2.509,1.611  l23.377,13.491l10.056,5.803l40.583-74.278l42.375-77.558C166.321,259.481,166.321,252.522,163.627,247.591z"/>
<path style="fill:#B46446;" d="M253.601,264.943c0,0.245-0.08,23.746-6.091,35.308h16.889c-6.011-11.561-6.091-35.063-6.091-35.308  c0-8.098,8.393-14.532,8.478-14.596l-2.828-3.763c-0.22,0.165-3.017,2.309-5.648,5.792v-6.263h-4.707v6.263  c-2.632-3.484-5.429-5.627-5.648-5.792l-2.828,3.763C245.208,250.411,253.601,256.846,253.601,264.943z"/>
<path style="fill:#73AF00;" d="M279.493,236.697c-0.144,0-0.276,0.037-0.419,0.046c-0.96-2.76-3.557-4.754-6.643-4.754  c-1.113,0-2.152,0.281-3.088,0.74c-0.997-1.833-2.917-3.093-5.15-3.093c-0.642,0-1.248,0.129-1.827,0.319  c-1.252-2.954-4.178-5.026-7.588-5.026c-4.191,0-7.613,3.142-8.133,7.191c-0.421-0.066-0.844-0.13-1.282-0.13  c-4.55,0-8.239,3.689-8.239,8.239c0,0.535,0.06,1.055,0.157,1.561c-2.084,0.686-3.725,2.298-4.446,4.366  c-0.14-0.012-0.276-0.042-0.42-0.042c-2.599,0-4.707,2.108-4.707,4.707c0,2.601,2.108,4.707,4.707,4.707  c1.201,0,2.286-0.464,3.117-1.205c1.126,0.76,2.483,1.205,3.945,1.205c1.293,0,2.488-0.372,3.53-0.98  c1.042,0.606,2.238,0.98,3.53,0.98c3.9,0,7.062-3.162,7.062-7.062c0-0.299-0.051-0.582-0.087-0.871  c1.096,0.54,2.313,0.871,3.619,0.871c1.637,0,3.153-0.491,4.435-1.315c1.203,2.177,3.494,3.668,6.157,3.668  c0.572,0,1.122-0.086,1.655-0.215c1.295,1.557,3.223,2.569,5.406,2.569c2.109,0,3.983-0.943,5.276-2.412  c3.629-0.294,6.493-3.299,6.493-7.004C286.554,239.859,283.393,236.697,279.493,236.697z"/>
<path style="fill:#5FA000;" d="M272.431,242.582c0-0.245,0.051-0.476,0.072-0.715c-1.258,1.165-2.929,1.892-4.78,1.892  c-2.459,0-4.62-1.26-5.885-3.167c-1.265,1.907-3.425,3.167-5.885,3.167c-1.891,0-3.598-0.754-4.866-1.963  c-0.734,3.799-4.068,6.671-8.08,6.671c-0.407,0-0.797-0.062-1.19-0.12c0.001,0.041,0.012,0.079,0.012,0.12  c0,3.078-1.982,5.668-4.729,6.636c0.744,0.266,1.538,0.426,2.374,0.426c1.293,0,2.488-0.372,3.53-0.98  c1.042,0.606,2.238,0.98,3.53,0.98c3.9,0,7.062-3.162,7.062-7.062c0-0.299-0.051-0.582-0.087-0.871  c1.096,0.54,2.313,0.871,3.619,0.871c1.637,0,3.153-0.491,4.435-1.315c1.203,2.177,3.494,3.668,6.157,3.668  c0.572,0,1.122-0.086,1.655-0.215c1.295,1.557,3.223,2.569,5.406,2.569c2.109,0,3.983-0.943,5.276-2.412l0.015-0.003  C275.809,250.451,272.431,246.928,272.431,242.582z"/>
<path style="fill:#464655;" d="M255.954,315.255c-0.379,0-0.714-0.241-0.837-0.597c-0.09-0.265-2.306-6.462-10.932-6.462h-11.769  c-6.977,0-12.652-5.676-12.652-12.652v-77.678c0-0.487,0.395-0.882,0.882-0.882h72.969c0.487,0,0.882,0.395,0.882,0.882v77.676  c0,6.977-5.676,12.652-12.652,12.652h-14.124c-8.679,0-10.911,6.393-10.931,6.457c-0.121,0.361-0.456,0.602-0.836,0.602h-0.001  v0.002H255.954z M221.53,218.75v76.794c0,6.002,4.884,10.887,10.887,10.887h11.769c6.987,0,10.368,3.751,11.769,6.006  c1.401-2.254,4.782-6.006,11.769-6.006h14.124c6.003,0,10.887-4.885,10.887-10.887V218.75H221.53z"/>
<g>
	<polygon style="fill:#FFE15A;" points="246.92,196.878 249.157,200.459 253.376,200.605 251.393,204.332 253.376,208.059    249.157,208.205 246.92,211.785 244.685,208.205 240.466,208.059 242.449,204.332 240.466,200.605 244.685,200.459  "/>
	<polygon style="fill:#FFE15A;" points="227.036,200.125 230.046,203.084 234.182,202.241 233.125,206.328 235.923,209.489    231.856,210.616 230.517,214.62 227.507,211.66 223.37,212.504 224.428,208.418 221.63,205.256 225.697,204.129  "/>
	<polygon style="fill:#FFE15A;" points="207.956,205.772 211.535,208.011 215.391,206.294 215.241,210.513 218.657,212.995    214.928,214.975 214.485,219.173 210.908,216.934 207.05,218.65 207.2,214.431 203.786,211.949 207.515,209.97  "/>
	<polygon style="fill:#FFE15A;" points="265.078,196.878 262.842,200.459 258.622,200.605 260.605,204.332 258.622,208.059    262.842,208.205 265.078,211.785 267.313,208.205 271.533,208.059 269.55,204.332 271.533,200.605 267.313,200.459  "/>
	<polygon style="fill:#FFE15A;" points="284.964,200.125 281.952,203.084 277.816,202.241 278.874,206.328 276.075,209.489    280.142,210.616 281.481,214.62 284.491,211.66 288.628,212.504 287.57,208.418 290.37,205.256 286.301,204.129  "/>
	<polygon style="fill:#FFE15A;" points="304.042,205.772 300.464,208.011 296.607,206.294 296.757,210.513 293.343,212.995    297.072,214.975 297.513,219.173 301.092,216.934 304.948,218.65 304.798,214.431 308.213,211.949 304.484,209.97  "/>
</g>
<g>
</g>
<g>
</g>
<g>
</g>
<g>
</g>
<g>
</g>
<g>
</g>
<g>
</g>
<g>
</g>
<g>
</g>
<g>
</g>
<g>
</g>
<g>
</g>
<g>
</g>
<g>
</g>
<g>
</g>
</svg>
