<?xml version="1.0" encoding="iso-8859-1"?>
<!-- Generator: Adobe Illustrator 19.0.0, SVG Export Plug-In . SVG Version: 6.00 Build 0)  -->
<svg xmlns="http://www.w3.org/2000/svg" xmlns:xlink="http://www.w3.org/1999/xlink" version="1.1" id="Layer_1" x="0px" y="0px" viewBox="0 0 512.001 512.001" style="enable-background:new 0 0 512.001 512.001;" xml:space="preserve">
<path style="fill:#F5F5F5;" d="M29.589,366.395l-0.036-220.713c-0.003-12.607,6.722-24.257,17.639-30.563L238.315,4.731  c10.917-6.306,24.368-6.307,35.287-0.006L464.763,115.05c10.92,6.302,17.646,17.95,17.649,30.557l0.036,220.713  c0.003,12.607-6.722,24.257-17.639,30.563L273.684,507.271c-10.917,6.306-24.368,6.307-35.287,0.006L47.238,396.952  C36.318,390.65,29.591,379.002,29.589,366.395z"/>
<g>
	<path style="fill:#82AFFF;" d="M47.19,115.119c-10.917,6.306-17.64,17.955-17.639,30.563l0.036,220.713   c0.003,12.607,6.729,24.255,17.649,30.557l112.123,64.71V50.333L47.19,115.119z"/>
	<path style="fill:#82AFFF;" d="M464.811,396.882c10.917-6.306,17.64-17.955,17.639-30.563l-0.036-220.713   c-0.003-12.607-6.729-24.255-17.649-30.557L352.642,50.341v411.328L464.811,396.882z"/>
</g>
<polygon style="fill:#FFC855;" points="253.479,206.295 247.747,209.161 253.02,211.34 "/>
<g>
	<path style="fill:#73AF00;" d="M256.001,312.231c-31.863,0-57.783-25.923-57.783-57.784c0-19.793,9.962-37.993,26.649-48.685   l1.483,2.317c-15.893,10.185-25.382,27.519-25.382,46.369c0,30.345,24.688,55.032,55.032,55.032L256.001,312.231L256.001,312.231z"/>
	<path style="fill:#73AF00;" d="M222.931,315.838c2.202,0.449,5.598-0.132,9.086-1.757c3.488-1.625,6.118-3.853,7.191-5.827   c-2.202-0.449-5.598,0.131-9.086,1.757C226.632,311.637,224.003,313.864,222.931,315.838z"/>
	<path style="fill:#73AF00;" d="M239.208,308.254c0.449-2.202-0.132-5.598-1.757-9.086c-1.626-3.489-3.853-6.118-5.827-7.191   c-0.449,2.202,0.131,5.598,1.757,9.086C235.006,304.552,237.234,307.18,239.208,308.254z"/>
	<path style="fill:#73AF00;" d="M211.418,308.771c2.112,0.767,5.557,0.691,9.246-0.404c3.69-1.096,6.617-2.913,7.968-4.707   c-2.112-0.767-5.557-0.691-9.246,0.404S212.77,306.975,211.418,308.771z"/>
	<path style="fill:#73AF00;" d="M228.633,303.659c0.767-2.112,0.691-5.557-0.404-9.246c-1.096-3.689-2.913-6.617-4.707-7.968   c-0.767,2.112-0.691,5.556,0.404,9.246C225.022,299.38,226.839,302.308,228.633,303.659z"/>
	<path style="fill:#73AF00;" d="M200.769,299.136c1.939,1.133,5.342,1.678,9.169,1.263s7.033-1.677,8.684-3.2   c-1.939-1.133-5.342-1.678-9.169-1.263C205.627,296.351,202.422,297.613,200.769,299.136z"/>
	<path style="fill:#73AF00;" d="M218.622,297.199c1.133-1.939,1.678-5.342,1.263-9.169s-1.677-7.033-3.2-8.684   c-1.133,1.939-1.678,5.342-1.263,9.169C215.838,292.341,217.099,295.547,218.622,297.199z"/>
	<path style="fill:#73AF00;" d="M191.967,285.83c1.708,1.46,4.96,2.598,8.8,2.867c3.839,0.269,7.219-0.405,9.114-1.612   c-1.708-1.46-4.96-2.598-8.8-2.867C197.242,283.949,193.863,284.623,191.967,285.83z"/>
	<path style="fill:#73AF00;" d="M209.881,287.085c1.46-1.708,2.598-4.96,2.867-8.8c0.269-3.839-0.405-7.219-1.612-9.114   c-1.46,1.708-2.598,4.96-2.867,8.8C208,281.811,208.674,285.19,209.881,287.085z"/>
	<path style="fill:#73AF00;" d="M186.813,271.173c1.363,1.786,4.303,3.583,8,4.654c3.696,1.071,7.142,1.122,9.249,0.341   c-1.363-1.786-4.303-3.583-8-4.654C192.366,270.443,188.92,270.392,186.813,271.173z"/>
	<path style="fill:#73AF00;" d="M204.062,276.168c1.786-1.363,3.583-4.303,4.654-8c1.071-3.696,1.122-7.142,0.341-9.249   c-1.786,1.363-3.583,4.303-4.654,8C203.334,270.615,203.281,274.061,204.062,276.168z"/>
	<path style="fill:#73AF00;" d="M184.633,254.06c0.859,2.077,3.237,4.569,6.534,6.554c3.298,1.986,6.613,2.922,8.85,2.708   c-0.859-2.077-3.237-4.569-6.534-6.554C190.186,254.782,186.87,253.846,184.633,254.06z"/>
	<path style="fill:#73AF00;" d="M200.017,263.322c2.077-0.859,4.569-3.237,6.554-6.534c1.986-3.298,2.922-6.613,2.708-8.85   c-2.076,0.859-4.569,3.237-6.554,6.534C200.741,257.77,199.805,261.085,200.017,263.322z"/>
	<path style="fill:#73AF00;" d="M186.7,237.902c0.404,2.211,2.207,5.146,5.015,7.779c2.808,2.633,5.855,4.243,8.085,4.504   c-0.404-2.211-2.207-5.146-5.015-7.779C191.978,239.774,188.931,238.163,186.7,237.902z"/>
	<path style="fill:#73AF00;" d="M199.801,250.185c2.211-0.404,5.146-2.207,7.779-5.015c2.633-2.808,4.243-5.855,4.504-8.085   c-2.211,0.404-5.146,2.207-7.779,5.015C201.672,244.906,200.061,247.953,199.801,250.185z"/>
	<path style="fill:#73AF00;" d="M194.817,220.419c-0.462,2.198,0.096,5.598,1.7,9.098c1.603,3.499,3.814,6.142,5.781,7.228   c0.462-2.198-0.096-5.598-1.7-9.098S196.784,221.505,194.817,220.419z"/>
	<path style="fill:#73AF00;" d="M202.298,236.745c2.198,0.462,5.598-0.096,9.098-1.7s6.142-3.814,7.228-5.781   c-2.198-0.462-5.598,0.096-9.098,1.7S203.382,234.778,202.298,236.745z"/>
	<path style="fill:#73AF00;" d="M204.523,207.471c-1.036,1.993-1.412,5.419-0.809,9.22c0.604,3.801,2.022,6.942,3.625,8.515   c1.036-1.993,1.412-5.419,0.809-9.22C207.546,212.186,206.127,209.046,204.523,207.471z"/>
	<path style="fill:#73AF00;" d="M207.341,225.207c1.993,1.036,5.419,1.412,9.22,0.809c3.801-0.604,6.942-2.022,8.515-3.625   c-1.993-1.036-5.419-1.412-9.22-0.809C212.055,222.185,208.916,223.603,207.341,225.207z"/>
	<path style="fill:#73AF00;" d="M214.043,198.46c-1.318,1.82-2.194,5.151-2.158,9c0.037,3.849,0.978,7.163,2.332,8.956   c1.318-1.819,2.194-5.151,2.157-9C216.338,203.567,215.397,200.253,214.043,198.46z"/>
	<path style="fill:#73AF00;" d="M214.217,216.416c1.82,1.318,5.151,2.194,9,2.158c3.849-0.037,7.163-0.979,8.956-2.332   c-1.819-1.318-5.151-2.194-9-2.158C219.324,214.122,216.01,215.063,214.217,216.416z"/>
	<path style="fill:#73AF00;" d="M218.837,211.696c2.239,0.181,5.542-0.801,8.811-2.833c3.269-2.032,5.612-4.558,6.442-6.646   c-2.239-0.181-5.542,0.801-8.811,2.833C222.009,207.081,219.666,209.608,218.837,211.696z"/>
	<path style="fill:#73AF00;" d="M256.001,312.231v-2.752c30.344,0,55.032-24.687,55.032-55.032c0-18.85-9.489-36.185-25.382-46.369   l1.483-2.317c16.687,10.692,26.649,28.892,26.649,48.685C313.785,286.31,287.863,312.231,256.001,312.231z"/>
	<path style="fill:#73AF00;" d="M289.072,315.838c-2.202,0.449-5.598-0.132-9.086-1.757c-3.489-1.626-6.118-3.853-7.191-5.827   c2.202-0.449,5.598,0.131,9.086,1.757S287.998,313.864,289.072,315.838z"/>
	<path style="fill:#73AF00;" d="M272.794,308.254c-0.449-2.202,0.132-5.598,1.757-9.086c1.626-3.489,3.853-6.118,5.827-7.191   c0.449,2.202-0.131,5.598-1.757,9.086C276.995,304.552,274.768,307.18,272.794,308.254z"/>
	<path style="fill:#73AF00;" d="M300.583,308.771c-2.112,0.767-5.557,0.691-9.246-0.404c-3.69-1.096-6.617-2.913-7.968-4.707   c2.112-0.767,5.557-0.691,9.246,0.404C296.305,305.158,299.233,306.975,300.583,308.771z"/>
	<path style="fill:#73AF00;" d="M283.368,303.659c-0.767-2.112-0.691-5.557,0.404-9.246c1.096-3.689,2.913-6.617,4.707-7.968   c0.767,2.112,0.691,5.556-0.404,9.246C286.981,299.38,285.164,302.308,283.368,303.659z"/>
	<path style="fill:#73AF00;" d="M311.232,299.136c-1.939,1.133-5.342,1.678-9.169,1.263c-3.826-0.415-7.033-1.677-8.684-3.2   c1.939-1.133,5.342-1.678,9.169-1.263C306.374,296.351,309.581,297.613,311.232,299.136z"/>
	<path style="fill:#73AF00;" d="M293.379,297.199c-1.133-1.939-1.678-5.342-1.263-9.169s1.677-7.033,3.2-8.684   c1.133,1.939,1.678,5.342,1.263,9.169C296.165,292.341,294.902,295.547,293.379,297.199z"/>
	<path style="fill:#73AF00;" d="M320.034,285.83c-1.708,1.46-4.96,2.598-8.8,2.867s-7.219-0.405-9.114-1.612   c1.708-1.46,4.96-2.598,8.8-2.867C314.761,283.949,318.14,284.623,320.034,285.83z"/>
	<path style="fill:#73AF00;" d="M302.122,287.085c-1.46-1.708-2.598-4.96-2.867-8.8c-0.269-3.839,0.405-7.219,1.612-9.114   c1.46,1.708,2.598,4.96,2.867,8.8C304.001,281.811,303.328,285.19,302.122,287.085z"/>
	<path style="fill:#73AF00;" d="M325.188,271.173c-1.363,1.786-4.303,3.583-8,4.654c-3.697,1.071-7.142,1.122-9.249,0.341   c1.363-1.786,4.303-3.583,8-4.654C319.637,270.443,323.082,270.392,325.188,271.173z"/>
	<path style="fill:#73AF00;" d="M307.939,276.168c-1.786-1.363-3.583-4.303-4.654-8c-1.071-3.696-1.122-7.142-0.341-9.249   c1.786,1.363,3.583,4.303,4.654,8C308.669,270.615,308.72,274.061,307.939,276.168z"/>
	<path style="fill:#73AF00;" d="M327.369,254.06c-0.859,2.077-3.237,4.569-6.534,6.554c-3.298,1.986-6.613,2.922-8.85,2.708   c0.859-2.077,3.237-4.569,6.534-6.554C321.816,254.782,325.132,253.846,327.369,254.06z"/>
	<path style="fill:#73AF00;" d="M311.984,263.322c-2.077-0.859-4.569-3.237-6.554-6.534c-1.986-3.298-2.922-6.613-2.708-8.85   c2.076,0.859,4.569,3.237,6.554,6.534C311.262,257.77,312.198,261.085,311.984,263.322z"/>
	<path style="fill:#73AF00;" d="M325.302,237.902c-0.404,2.211-2.207,5.146-5.015,7.779c-2.808,2.633-5.855,4.243-8.085,4.504   c0.404-2.211,2.207-5.146,5.015-7.779S323.07,238.163,325.302,237.902z"/>
	<path style="fill:#73AF00;" d="M312.201,250.185c-2.211-0.404-5.146-2.207-7.779-5.015s-4.243-5.855-4.504-8.085   c2.211,0.404,5.146,2.207,7.779,5.015C310.331,244.906,311.94,247.953,312.201,250.185z"/>
	<path style="fill:#73AF00;" d="M317.185,220.419c0.462,2.198-0.096,5.598-1.7,9.098c-1.603,3.499-3.814,6.142-5.781,7.228   c-0.462-2.198,0.096-5.598,1.7-9.098C313.008,224.148,315.218,221.505,317.185,220.419z"/>
	<path style="fill:#73AF00;" d="M309.705,236.745c-2.198,0.462-5.598-0.096-9.098-1.7s-6.142-3.814-7.228-5.781   c2.198-0.462,5.598,0.096,9.098,1.7C305.976,232.567,308.619,234.778,309.705,236.745z"/>
	<path style="fill:#73AF00;" d="M307.478,207.471c1.036,1.993,1.412,5.419,0.809,9.22c-0.604,3.801-2.022,6.942-3.625,8.515   c-1.036-1.993-1.412-5.419-0.809-9.22C304.456,212.186,305.874,209.046,307.478,207.471z"/>
	<path style="fill:#73AF00;" d="M304.66,225.207c-1.993,1.036-5.419,1.412-9.22,0.809c-3.801-0.604-6.942-2.022-8.515-3.625   c1.993-1.036,5.419-1.412,9.22-0.809C299.946,222.185,303.086,223.603,304.66,225.207z"/>
	<path style="fill:#73AF00;" d="M297.959,198.46c1.318,1.82,2.194,5.151,2.158,9c-0.038,3.849-0.978,7.163-2.332,8.956   c-1.318-1.819-2.194-5.151-2.157-9C295.665,203.567,296.606,200.253,297.959,198.46z"/>
	<path style="fill:#73AF00;" d="M297.785,216.416c-1.819,1.318-5.151,2.194-9,2.158c-3.849-0.037-7.163-0.979-8.956-2.332   c1.819-1.318,5.151-2.194,9-2.158C292.677,214.122,295.992,215.063,297.785,216.416z"/>
	<path style="fill:#73AF00;" d="M293.165,211.696c-2.239,0.181-5.542-0.801-8.811-2.833s-5.612-4.558-6.442-6.646   c2.239-0.181,5.542,0.801,8.811,2.833C289.993,207.081,292.337,209.608,293.165,211.696z"/>
</g>
<path style="fill:#966446;" d="M224.455,299.435l-10.016,10.016l-4.939-9.879l14.817-14.817l4.939,4.939l-1.427,4.28  C227.145,296.031,225.99,297.9,224.455,299.435z"/>
<path style="fill:#B9B9B9;" d="M278.647,225.486l-54.329,54.329c-1.363,1.363-1.363,3.575,0,4.939l2.469,2.469l9.879-9.879  l39.512-44.452l4.939-4.939L278.647,225.486z"/>
<path style="fill:#966446;" d="M237.688,271.385c-0.655,0.655-1.022,1.543-1.022,2.469v3.493l39.512-44.452L237.688,271.385z"/>
<polygon style="fill:#A0A0A0;" points="281.116,227.957 278.647,225.486 276.178,227.957 278.647,230.426 281.116,232.896   308.281,200.792 "/>
<path style="fill:#966446;" d="M290.297,299.435l10.016,10.016l4.939-9.879l-14.817-14.817l-4.939,4.939l1.427,4.28  C287.608,296.031,288.764,297.9,290.297,299.435z"/>
<path style="fill:#B9B9B9;" d="M236.106,225.486l54.329,54.329c1.363,1.363,1.363,3.575,0,4.939l-2.469,2.469l-9.879-9.879  l-39.512-44.452l-4.939-4.939L236.106,225.486z"/>
<path style="fill:#966446;" d="M277.065,271.385c0.655,0.655,1.023,1.543,1.023,2.469v3.493l-39.512-44.452L277.065,271.385z"/>
<polygon style="fill:#A0A0A0;" points="233.637,227.957 236.106,225.486 238.575,227.957 236.106,230.426 233.637,232.896   206.472,200.792 "/>
<path style="fill:#B9B9B9;" d="M237.106,297.379l2.454,2.238c8.954-9.816,24.622-26.995,49.46-49.297  C289.02,250.321,268.443,263.022,237.106,297.379z"/>
<path style="fill:#FFE15A;" d="M230.163,307.457L230.163,307.457c-0.881-0.804-0.943-2.169-0.14-3.05l5.26-5.767  c0.804-0.881,2.169-0.944,3.05-0.14l0,0c0.881,0.804,0.944,2.169,0.14,3.05l-5.26,5.767  C232.408,308.196,231.044,308.26,230.163,307.457z"/>
<path style="fill:#FFC855;" d="M235.113,295.562l-1.425,0.635c-1.267,0.631-4.601,2.517-5.176,5.204  c-0.274,1.273,0.112,2.513,1.101,3.686c0.094-0.242,0.222-0.477,0.409-0.681l0.662-0.726c-0.449-0.65-0.685-1.288-0.55-1.929  c0.36-1.681,2.603-3.182,4.011-3.925l6.301,5.747l1.567-1.718L235.113,295.562z"/>
<path style="fill:#B9B9B9;" d="M277.623,300.097l-2.454,2.238c-8.954-9.816-24.622-26.995-49.46-49.297  C225.709,253.038,246.286,265.74,277.623,300.097z"/>
<path style="fill:#FFE15A;" d="M284.567,310.173L284.567,310.173c0.881-0.804,0.944-2.169,0.14-3.05l-5.26-5.767  c-0.804-0.881-2.169-0.944-3.05-0.14l0,0c-0.881,0.804-0.943,2.169-0.14,3.05l5.26,5.767  C282.321,310.914,283.686,310.977,284.567,310.173z"/>
<path style="fill:#FFC855;" d="M279.615,298.28l1.425,0.635c1.267,0.631,4.601,2.517,5.176,5.204  c0.274,1.273-0.112,2.513-1.101,3.686c-0.094-0.242-0.222-0.477-0.409-0.681l-0.662-0.726c0.447-0.65,0.685-1.288,0.55-1.929  c-0.36-1.681-2.603-3.182-4.011-3.925l-6.301,5.747l-1.567-1.718L279.615,298.28z"/>
<path style="fill:#69B469;" d="M258.449,209.212c0.192-0.477,0.304-0.996,0.304-1.542c0-2.279-1.848-4.128-4.128-4.128  c-2.279,0-4.128,1.848-4.128,4.128c0,1.358,0.665,2.553,1.678,3.305c-1.492,11.988,10.327,12.904,14.831,14.58  c6.833,2.543,15.406,7.687,14.866,22.065c-0.524,13.977-9.364,27.464-9.364,27.464l7.338-9.975  c-2.683,11.348-8.948,25.803-23.847,42.993c0,0,10.187-9.965,18.689-22.815c-6.255,14.715-13.185,28.319-13.185,28.319  s12.268-15.937,22.185-43.509C295.712,236.668,270.42,216.585,258.449,209.212z"/>
<rect x="236.74" y="258.58" style="fill:#F4E08F;" width="11.01" height="5.504"/>
<g>
	<circle style="fill:#ECD077;" cx="236.74" cy="264.08" r="5.504"/>
	<circle style="fill:#ECD077;" cx="236.74" cy="228.31" r="5.504"/>
</g>
<path style="fill:#FCF0A8;" d="M269.759,233.812c3.039,0,5.504-2.464,5.504-5.504c0-3.039-2.464-5.503-5.504-5.503h-33.02  c3.039,0,5.504,2.464,5.504,5.503s-2.464,5.504-5.504,5.504c-3.039,0-5.503-2.464-5.503-5.504c0,9.237,7.73,20.407,10.223,30.268  c0,0,0.784,2.464,0.784,5.504s-2.464,5.504-5.504,5.504h33.02c3.039,0,5.504-2.464,5.504-5.504c0-9.237-7.73-20.407-10.223-30.268  L269.759,233.812L269.759,233.812z"/>
<g>
	<path style="fill:#F4E08F;" d="M242.243,228.308c0,3.039-2.464,5.504-5.504,5.504h33.02c3.039,0,5.504-2.464,5.504-5.504H242.243z"/>
	<path style="fill:#F4E08F;" d="M242.243,264.078c0,3.039-2.464,5.504-5.504,5.504h33.02c3.039,0,5.504-2.464,5.504-5.504H242.243z"/>
</g>
<g>
</g>
<g>
</g>
<g>
</g>
<g>
</g>
<g>
</g>
<g>
</g>
<g>
</g>
<g>
</g>
<g>
</g>
<g>
</g>
<g>
</g>
<g>
</g>
<g>
</g>
<g>
</g>
<g>
</g>
</svg>
