<?xml version="1.0" encoding="iso-8859-1"?>
<!-- Generator: Adobe Illustrator 19.0.0, SVG Export Plug-In . SVG Version: 6.00 Build 0)  -->
<svg xmlns="http://www.w3.org/2000/svg" xmlns:xlink="http://www.w3.org/1999/xlink" version="1.1" id="Layer_1" x="0px" y="0px" viewBox="0 0 512.002 512.002" style="enable-background:new 0 0 512.002 512.002;" xml:space="preserve">
<path style="fill:#FF4B55;" d="M482.45,366.319l-0.008-42.41l-0.005-27.164l-0.014-81.491l-0.005-27.164l-0.008-42.485  c-0.001-3.105-0.422-6.147-1.202-9.07c-0.42-1.572-0.948-3.107-1.577-4.597c-2.568-6.091-6.814-11.419-12.362-15.28  c-0.812-0.565-1.642-1.11-2.509-1.611l-23.71-13.684l-22.198-12.81l-17.87-10.313L332.645,38.8l0,0l-26.659-15.386l-19.995-11.539  l-12.39-7.151c-10.918-6.301-24.37-6.298-35.287,0.006l-12.307,7.108l-19.995,11.548l-26.659,15.398l0,0L111.026,78.25  L81.079,95.547l-22.191,12.818l-11.697,6.755c-0.841,0.486-1.648,1.015-2.439,1.561c-3.392,2.349-6.296,5.254-8.638,8.538  c-1.572,2.206-2.883,4.585-3.911,7.092c-1.715,4.179-2.652,8.706-2.651,13.371l0.007,42.41l0.005,27.164l0.014,81.478v0.014v0.005  l0.005,27.159l0.007,42.478v0.006c0.003,11.607,5.715,22.388,15.14,28.946c0.812,0.565,1.642,1.11,2.509,1.611l23.377,13.491  l22.198,12.812l18.204,10.506l94.999,54.826l19.995,11.539l12.39,7.151c10.918,6.301,24.37,6.298,35.287-0.006l12.307-7.108  l19.995-11.548l26.659-15.397l0,0l57.588-33.261l10.742-6.205l27.325-15.782l22.191-12.818l14.319-8.27  c0.841-0.486,1.648-1.015,2.439-1.561C476.716,388.765,482.452,377.956,482.45,366.319L482.45,366.319L482.45,366.319z"/>
<path style="fill:#41479B;" d="M459.957,355.36l-0.006-38.197l-0.004-24.466l-0.013-73.396l-0.004-24.466l-0.006-38.265  c0-2.797-0.38-5.537-1.082-8.169c-0.379-1.416-0.854-2.798-1.42-4.14c-2.313-5.486-6.138-10.285-11.133-13.761  c-0.732-0.509-1.48-1-2.259-1.45l-21.355-12.325l-19.993-11.538l-16.096-9.289l-61.551-35.523l0,0l-24.011-13.857l-18.009-10.393  l-11.159-6.441c-9.834-5.676-21.949-5.673-31.781,0.005l-11.084,6.402l-18.01,10.401L186.97,60.361l0,0l-61.542,35.545  l-26.974,15.578l-19.987,11.544l-10.535,6.085c-0.757,0.437-1.485,0.913-2.197,1.406c-3.055,2.117-5.67,4.731-7.779,7.689  c-1.416,1.986-2.597,4.129-3.523,6.388c-1.545,3.764-2.388,7.842-2.387,12.043l0.006,38.197l0.004,24.466l0.012,73.385v0.012v0.005  l0.004,24.461l0.006,38.26v0.006c0.001,10.453,5.147,20.164,13.636,26.07c0.731,0.509,1.48,1,2.259,1.451l21.054,12.15  l19.993,11.539l16.396,9.462l85.562,49.38l18.009,10.393l11.159,6.441c9.834,5.676,21.949,5.673,31.781-0.005l11.084-6.402  l18.009-10.401l24.011-13.867l0,0l51.867-29.957l9.675-5.588l24.611-14.214l19.987-11.544l12.896-7.448  c0.757-0.437,1.485-0.913,2.197-1.406C454.792,375.577,459.958,365.841,459.957,355.36L459.957,355.36L459.957,355.36z"/>
<path style="fill:#3CC8FF;" d="M256.066,156.027c-37.995,19.99-63.619,67.599-63.619,99.973s25.624,79.984,63.619,99.973  c37.995-19.988,63.619-67.599,63.619-99.973C319.686,223.626,294.061,176.017,256.066,156.027z"/>
<path style="fill:#73AF00;" d="M264.27,221.768c6.138-3.235,16.618-6.796,28.527-2.426c0,0-11.469-12.775-27.385-2.367  c4.283-5.192,10.712-11.621,17.676-13.411c0,0-13.859-5.176-22.244,13.306c1.625-9.322,1.328-23.998-13.696-32.519  c0,0,8.401,18.029,9.226,32.988c-0.489-2.654-1.466-5.43-4.045-8.119c-7.944-8.289-14.852-8.98-14.852-8.98  s11.014,12.207,16.427,23.755c-3.118-3.73-8.613-8.508-17.463-8.213c-20.724,0.691-25.214,13.125-25.214,13.125  c8.591-3.618,22.225-5.419,32.795-4.525c-13.645,2.404-18.494,19.405-18.494,19.405c10.957-13.663,22.916-15.882,27.691-16.207  c-8.723,7.216-8.191,20.503-8.191,20.503c2.027-7.48,9.88-16.006,13.706-19.827c10.303,11.147,11.523,23.677,11.523,23.677  s2.254-3.77,1.215-11.443c-0.983-7.243-5.528-11.999-8.998-14.792c18.193,2.507,30.063,15.703,30.063,15.703  C286.588,224.035,271.692,221.773,264.27,221.768z"/>
<polygon style="fill:#FF965A;" points="235.759,280.161 244.924,264.332 320.216,262.666 315.217,283.493 "/>
<path style="fill:#4173CD;" d="M195.194,275.995c7.547,29.618,30.159,63.82,60.872,79.978c30.713-16.158,53.325-50.36,60.872-79.978  H195.194L195.194,275.995z"/>
<g>
	<path style="fill:#FFE15A;" d="M206.08,305.986c0,0,21.807-1.08,34.907,4.3c3.272,1.343,3.696,5.765,0.741,7.709   c-6.382,4.199-15.653,11.427-15.653,17.983L206.08,305.986z"/>
	<path style="fill:#FFE15A;" d="M244.403,345.976c-0.834-8.331,6.538-14.391,16.662-18.329c13.121-5.102,5.936-13.225-0.625-18.536   c-7.824-6.333,2.291-8.123,44.779-8.956l-20.828,32.491l-28.326,23.327L244.403,345.976z"/>
</g>
<path style="fill:#FF4B55;" d="M256.066,361.626l-2.328-1.23c-39.652-20.854-66.291-70.821-66.291-104.395  s26.638-83.542,66.291-104.395l2.328-1.23l2.328,1.23c39.652,20.854,66.291,70.821,66.291,104.395s-26.638,83.542-66.291,104.395  L256.066,361.626z M256.066,161.72C220.894,181.578,197.445,226,197.445,256c0,30.002,23.451,74.423,58.621,94.28  c35.172-19.858,58.621-64.28,58.621-94.28C314.689,225.998,291.238,181.577,256.066,161.72z"/>
<g>
	<path style="fill:#A54B37;" d="M277.31,313.066c-0.459,0-0.917-0.122-1.328-0.381c-13.585-8.538-21.375-22.67-21.375-38.773   v-46.027c0-1.381,1.118-2.499,2.499-2.499c1.381,0,2.499,1.118,2.499,2.499v46.027c0,14.346,6.937,26.936,19.032,34.537   c1.172,0.737,1.523,2.279,0.791,3.447C278.951,312.651,278.141,313.066,277.31,313.066z"/>
	<circle style="fill:#A54B37;" cx="257.111" cy="228.04" r="5.467"/>
</g>
<g>
</g>
<g>
</g>
<g>
</g>
<g>
</g>
<g>
</g>
<g>
</g>
<g>
</g>
<g>
</g>
<g>
</g>
<g>
</g>
<g>
</g>
<g>
</g>
<g>
</g>
<g>
</g>
<g>
</g>
</svg>
