<?xml version="1.0" encoding="iso-8859-1"?>
<!-- Generator: Adobe Illustrator 19.0.0, SVG Export Plug-In . SVG Version: 6.00 Build 0)  -->
<svg xmlns="http://www.w3.org/2000/svg" xmlns:xlink="http://www.w3.org/1999/xlink" version="1.1" id="Layer_1" x="0px" y="0px" viewBox="0 0 511.999 511.999" style="enable-background:new 0 0 511.999 511.999;" xml:space="preserve">
<path style="fill:#FF4B55;" d="M264.746,255.999L204.525,24.243l1.487-0.859l0,0l-94.989,54.864L81.076,95.545l-22.191,12.818  l-11.697,6.756c-0.841,0.486-1.648,1.015-2.439,1.561c-9.465,6.556-15.201,17.365-15.2,29.001l0.007,42.41l0.005,27.164  l0.014,81.491l0.005,27.164l0.007,42.485c0.003,11.607,5.715,22.388,15.14,28.946c0.812,0.565,1.642,1.11,2.509,1.611l23.377,13.491  l22.198,12.812l18.204,10.506l94.068,54.289l-0.556-0.321L264.746,255.999z"/>
<path style="fill:#FFE15A;" d="M482.418,188.09l-0.008-42.486c-0.001-11.607-5.715-22.388-15.14-28.946  c-0.812-0.565-1.642-1.11-2.508-1.61l-23.711-13.684l-22.198-12.81l-17.87-10.313l-94.999-54.826l-19.995-11.539l-12.39-7.151  c-10.918-6.302-24.37-6.3-35.287,0.006l-12.307,7.108L206.01,23.387l-1.487,0.859v231.755l142.698,43.732l135.206-43.732  l-0.006-40.745L482.418,188.09z"/>
<path style="fill:#73AF00;" d="M226.007,500.124l12.39,7.151c10.918,6.301,24.37,6.298,35.287-0.006l12.307-7.108l19.995-11.548  l94.989-54.863l27.325-15.782l22.191-12.818l14.319-8.27c0.841-0.486,1.648-1.013,2.439-1.562  c9.465-6.556,15.201-17.365,15.2-29.001l-0.008-42.41l-0.005-27.164l-0.006-40.745H204.526v231.727l0.556,0.321l0.931,0.537  L226.007,500.124z"/>
<path style="fill:#464655;" d="M112.631,206.123l-11.021,33.046l-34.834,0.27c-1.909,0.015-2.702,2.452-1.165,3.587l28.022,20.693  l-10.507,33.212c-0.576,1.821,1.497,3.327,3.05,2.217l28.34-20.257l28.34,20.257c1.553,1.111,3.627-0.396,3.05-2.217l-10.507-33.212  l28.022-20.693c1.536-1.135,0.745-3.572-1.166-3.587l-34.834-0.27L116.4,206.123C115.799,204.311,113.236,204.311,112.631,206.123z"/>
<g>
</g>
<g>
</g>
<g>
</g>
<g>
</g>
<g>
</g>
<g>
</g>
<g>
</g>
<g>
</g>
<g>
</g>
<g>
</g>
<g>
</g>
<g>
</g>
<g>
</g>
<g>
</g>
<g>
</g>
</svg>
