<?xml version="1.0" encoding="iso-8859-1"?>
<!-- Generator: Adobe Illustrator 19.0.0, SVG Export Plug-In . SVG Version: 6.00 Build 0)  -->
<svg xmlns="http://www.w3.org/2000/svg" xmlns:xlink="http://www.w3.org/1999/xlink" version="1.1" id="Layer_1" x="0px" y="0px" viewBox="0 0 511.999 511.999" style="enable-background:new 0 0 511.999 511.999;" xml:space="preserve">
<g>
	<path style="fill:#F5F5F5;" d="M467.269,116.659c-0.812-0.565-1.642-1.11-2.509-1.611l-23.711-13.684l-22.198-12.81l-17.87-10.313   l-29.782-17.188H140.795L111.022,78.25L81.075,95.546l-22.191,12.818l-11.697,6.756c-0.841,0.486-1.648,1.015-2.439,1.561   c-3.654,2.531-6.743,5.7-9.17,9.3h440.843C474.001,122.374,470.917,119.199,467.269,116.659z"/>
	<polygon style="fill:#F5F5F5;" points="482.427,255.779 482.421,215.255 482.416,190.99 29.556,190.99 29.56,215.255    29.566,255.779 53.546,255.779  "/>
	<path style="fill:#F5F5F5;" d="M44.725,395.34c0.812,0.565,1.642,1.11,2.509,1.611l23.377,13.491l22.198,12.812l18.204,10.506   l29.924,17.27h230.12l29.916-17.279l27.325-15.782l22.191-12.818l14.319-8.27c0.841-0.486,1.648-1.013,2.439-1.562   c3.654-2.531,6.744-5.698,9.17-9.3H35.573C37.993,389.626,41.077,392.802,44.725,395.34z"/>
	<path style="fill:#F5F5F5;" d="M305.983,23.415l-19.995-11.539l-12.39-7.151c-10.918-6.302-24.37-6.3-35.287,0.006l-12.307,7.108   l-19.993,11.548l-65.216,37.667h230.406L305.983,23.415z"/>
	<rect x="29.578" y="320.79" style="fill:#F5F5F5;" width="452.86" height="0.221"/>
</g>
<g>
	<polygon style="fill:#41479B;" points="96.009,256 153.525,264.747 219.507,256 96.009,125.993  "/>
	<path style="fill:#41479B;" d="M482.416,190.99v-2.899l-0.008-42.486c-0.001-7.114-2.156-13.914-5.988-19.625H255.997v-19.936   H150.042l105.955,111.541V190.99H482.416z"/>
	<path style="fill:#41479B;" d="M482.439,323.91v-2.899l-226.442-10.025L29.578,321.011v2.899l0.007,42.485   c0.001,7.114,2.156,13.914,5.988,19.625h440.843c3.86-5.727,6.03-12.557,6.028-19.701L482.439,323.91z"/>
</g>
<g>
	<path style="fill:#FF4B55;" d="M206.011,488.585l19.995,11.539l12.39,7.151c10.918,6.302,24.37,6.298,35.287-0.006l12.307-7.108   l19.995-11.548l65.073-37.585h-230.12L206.011,488.585z"/>
	<polygon style="fill:#FF4B55;" points="206.011,23.387 111.022,78.25 99.988,84.623 255.997,84.623 255.997,20.356 211.258,20.356     "/>
	<path style="fill:#FF4B55;" d="M482.434,296.746l-0.006-40.966H82.678V94.62l-1.603,0.926l-22.191,12.818l-11.697,6.756   c-0.841,0.486-1.648,1.015-2.439,1.561c-0.714,0.494-1.397,1.02-2.067,1.561V255.78H29.566l0.006,40.966l0.004,24.042h452.861   L482.434,296.746z"/>
	<path style="fill:#FF4B55;" d="M248.224,253.915c4.248-3.165,7.161-9.802,7.562-17.655L130.935,106.045h-24.487L248.224,253.915z"/>
</g>
<g>
</g>
<g>
</g>
<g>
</g>
<g>
</g>
<g>
</g>
<g>
</g>
<g>
</g>
<g>
</g>
<g>
</g>
<g>
</g>
<g>
</g>
<g>
</g>
<g>
</g>
<g>
</g>
<g>
</g>
</svg>
