<?xml version="1.0" encoding="iso-8859-1"?>
<!-- Generator: Adobe Illustrator 19.0.0, SVG Export Plug-In . SVG Version: 6.00 Build 0)  -->
<svg xmlns="http://www.w3.org/2000/svg" xmlns:xlink="http://www.w3.org/1999/xlink" version="1.1" id="Layer_1" x="0px" y="0px" viewBox="0 0 512.001 512.001" style="enable-background:new 0 0 512.001 512.001;" xml:space="preserve">
<path style="fill:#F5F5F5;" d="M29.59,366.395l-0.036-220.713c-0.003-12.607,6.722-24.257,17.639-30.563L238.316,4.731  c10.917-6.306,24.368-6.307,35.287-0.006L464.764,115.05c10.918,6.302,17.646,17.95,17.649,30.557l0.036,220.713  c0.003,12.607-6.722,24.257-17.639,30.563L273.685,507.269c-10.917,6.306-24.368,6.307-35.287,0.006L47.239,396.951  C36.319,390.649,29.592,379.001,29.59,366.395z"/>
<g>
	<path style="fill:#4173CD;" d="M482.413,145.605c-0.003-12.607-6.729-24.255-17.649-30.557L273.603,4.726   c-10.918-6.302-24.37-6.3-35.287,0.006L47.191,115.119c-10.917,6.306-17.64,17.955-17.639,30.563l0.004,24.078h452.86   L482.413,145.605z"/>
	<path style="fill:#4173CD;" d="M29.59,366.395c0.003,12.607,6.729,24.255,17.649,30.557L238.4,507.277   c10.918,6.302,24.37,6.299,35.286-0.006l191.125-110.39c10.917-6.306,17.64-17.955,17.639-30.563l-0.004-24.078H29.586   L29.59,366.395z"/>
	<path style="fill:#4173CD;" d="M245.817,260.915l-4.274,13.51c-0.554,1.75,1.438,3.197,2.93,2.129l11.528-8.24l11.528,8.24   c1.492,1.067,3.484-0.38,2.93-2.129l-4.274-13.51l11.399-8.418c1.476-1.09,0.715-3.432-1.12-3.445l-14.17-0.11l-4.483-13.443   c-0.581-1.741-3.042-1.741-3.623,0l-4.483,13.443l-14.17,0.11c-1.834,0.014-2.596,2.356-1.12,3.445L245.817,260.915z"/>
	<path style="fill:#4173CD;" d="M148.506,285.129l-14.17-0.11l-4.484-13.443c-0.581-1.741-3.042-1.741-3.623,0l-4.483,13.443   l-14.17,0.11c-1.834,0.014-2.596,2.356-1.12,3.445l11.399,8.418l-4.274,13.51c-0.554,1.75,1.438,3.197,2.93,2.129l11.528-8.24   l11.528,8.24c1.492,1.067,3.484-0.38,2.93-2.129l-4.274-13.51l11.399-8.418C151.101,287.484,150.34,285.143,148.506,285.129z"/>
	<path style="fill:#4173CD;" d="M117.858,224.837l-4.274,13.51c-0.554,1.748,1.438,3.195,2.93,2.129l11.528-8.24l11.528,8.24   c1.492,1.067,3.484-0.38,2.93-2.129l-4.274-13.51l11.399-8.418c1.476-1.09,0.715-3.432-1.12-3.445l-14.17-0.11l-4.484-13.443   c-0.581-1.741-3.042-1.741-3.623,0l-4.483,13.443l-14.17,0.11c-1.834,0.014-2.596,2.356-1.12,3.445L117.858,224.837z"/>
	<path style="fill:#4173CD;" d="M373.776,296.992l-4.274,13.51c-0.554,1.75,1.438,3.197,2.93,2.129l11.528-8.24l11.528,8.24   c1.492,1.067,3.484-0.38,2.93-2.129l-4.274-13.51l11.399-8.418c1.476-1.09,0.715-3.43-1.12-3.445l-14.17-0.11l-4.483-13.443   c-0.581-1.741-3.042-1.741-3.623,0l-4.483,13.443l-14.17,0.11c-1.835,0.014-2.596,2.356-1.12,3.445L373.776,296.992z"/>
	<path style="fill:#4173CD;" d="M373.776,224.837l-4.274,13.51c-0.554,1.748,1.438,3.195,2.93,2.129l11.528-8.24l11.528,8.24   c1.492,1.067,3.484-0.38,2.93-2.129l-4.274-13.51l11.399-8.418c1.476-1.09,0.715-3.432-1.12-3.445l-14.17-0.11l-4.483-13.443   c-0.581-1.741-3.042-1.741-3.623,0l-4.483,13.443l-14.17,0.11c-1.835,0.014-2.596,2.356-1.12,3.445L373.776,224.837z"/>
</g>
<g>
</g>
<g>
</g>
<g>
</g>
<g>
</g>
<g>
</g>
<g>
</g>
<g>
</g>
<g>
</g>
<g>
</g>
<g>
</g>
<g>
</g>
<g>
</g>
<g>
</g>
<g>
</g>
<g>
</g>
</svg>
