<?xml version="1.0" encoding="iso-8859-1"?>
<!-- Generator: Adobe Illustrator 19.0.0, SVG Export Plug-In . SVG Version: 6.00 Build 0)  -->
<svg xmlns="http://www.w3.org/2000/svg" xmlns:xlink="http://www.w3.org/1999/xlink" version="1.1" id="Layer_1" x="0px" y="0px" viewBox="0 0 512 512" style="enable-background:new 0 0 512 512;" xml:space="preserve">
<path style="fill:#FF4B55;" d="M482.441,323.91l-0.005-27.164l-0.006-40.745l-222.682-26.243l-230.18,26.243l0.006,40.745  l0.005,27.164l0.007,42.485c0.003,11.607,5.715,22.389,15.14,28.946c0.812,0.565,1.642,1.11,2.509,1.611l23.377,13.491  l22.198,12.811l18.204,10.506l94.999,54.826l19.995,11.539l12.39,7.151c10.918,6.302,24.37,6.298,35.287-0.006l12.307-7.108  l19.995-11.548l94.989-54.862l27.325-15.782l22.191-12.818l14.319-8.27c0.841-0.486,1.648-1.013,2.439-1.562  c9.465-6.556,15.201-17.365,15.2-29.001L482.441,323.91z"/>
<path style="fill:#4173CD;" d="M482.43,256l-0.006-40.745l-0.005-27.164l-0.008-42.486c-0.001-11.607-5.715-22.389-15.14-28.946  c-0.812-0.565-1.642-1.11-2.509-1.611l-23.711-13.684l-22.198-12.81l-17.87-10.313l-94.999-54.826l-19.994-11.54l-12.39-7.15  c-10.918-6.302-24.37-6.3-35.287,0.006l-12.307,7.108l-19.995,11.548L111.024,78.25L81.077,95.546l-22.191,12.818l-11.697,6.756  c-0.841,0.486-1.648,1.015-2.439,1.561c-9.465,6.556-15.201,17.365-15.2,29.001l0.007,42.41l0.005,27.164l0.014,81.491  l-0.006-40.745h452.86V256z"/>
<g>
</g>
<g>
</g>
<g>
</g>
<g>
</g>
<g>
</g>
<g>
</g>
<g>
</g>
<g>
</g>
<g>
</g>
<g>
</g>
<g>
</g>
<g>
</g>
<g>
</g>
<g>
</g>
<g>
</g>
</svg>
