<?xml version="1.0" encoding="iso-8859-1"?>
<!-- Generator: Adobe Illustrator 19.0.0, SVG Export Plug-In . SVG Version: 6.00 Build 0)  -->
<svg xmlns="http://www.w3.org/2000/svg" xmlns:xlink="http://www.w3.org/1999/xlink" version="1.1" id="Layer_1" x="0px" y="0px" viewBox="0 0 512.004 512.004" style="enable-background:new 0 0 512.004 512.004;" xml:space="preserve">
<path style="fill:#F5F5F5;" d="M482.451,366.321l-0.008-42.41l-0.005-27.164l-0.014-81.491l-0.005-27.164l-0.008-42.486  c0-3.105-0.422-6.147-1.202-9.07c-0.42-1.572-0.948-3.107-1.577-4.598c-2.568-6.091-6.814-11.419-12.362-15.28  c-0.812-0.565-1.642-1.11-2.509-1.61l-23.71-13.684l-22.198-12.81l-17.87-10.313l-68.337-39.44l-26.659-15.386l-19.995-11.539  l-12.39-7.151c-10.918-6.302-24.37-6.3-35.287,0.006l-12.307,7.108l-19.995,11.548l-26.659,15.398l0,0L111.025,78.25L81.079,95.548  l-22.191,12.818l-11.697,6.756c-0.841,0.486-1.648,1.015-2.439,1.561c-3.392,2.349-6.296,5.254-8.638,8.538  c-1.572,2.206-2.883,4.585-3.911,7.092c-1.715,4.179-2.652,8.706-2.651,13.371l0,0l0,0l0.007,42.41l0.005,27.164l0.014,81.478v0.014  l0,0v0.005l0,0l0.005,27.159l0.007,42.478v0.006l0,0c0.003,11.607,5.715,22.388,15.14,28.946c0.812,0.565,1.642,1.11,2.509,1.611  l23.377,13.491l22.198,12.811l18.204,10.506l39.597,22.853l0,0l55.401,31.974l19.995,11.539l12.39,7.151  c10.918,6.301,24.37,6.298,35.287-0.006l12.307-7.108l19.995-11.548l26.659-15.397l33.541-19.373l24.046-13.889l10.742-6.205  l27.325-15.782l22.191-12.818l14.319-8.27c0.841-0.486,1.648-1.013,2.439-1.562C476.716,388.767,482.452,377.957,482.451,366.321  L482.451,366.321L482.451,366.321z"/>
<path style="fill:#FFE15A;" d="M482.443,323.912l-0.005-27.164l-0.014-81.491l-0.005-27.164l-0.008-42.486  c0-3.105-0.422-6.147-1.202-9.07c-0.42-1.572-0.948-3.107-1.577-4.597c-2.568-6.091-6.814-11.419-12.362-15.28  c-0.812-0.565-1.642-1.11-2.509-1.61l-23.71-13.684l-22.198-12.81l-17.87-10.313L361.39,55.391l-20.412,203.104l20.412,198.122  l28.845-16.66l10.742-6.205l27.325-15.782l22.191-12.818l14.319-8.27c0.841-0.486,1.648-1.013,2.439-1.562  c9.465-6.556,15.201-17.365,15.2-29.001L482.443,323.912z"/>
<path style="fill:#4173CD;" d="M361.39,55.391l-28.742-16.588l-26.659-15.386l-19.995-11.539l-12.39-7.151  c-10.918-6.302-24.37-6.3-35.287,0.006l-12.306,7.108l-19.995,11.548l-26.659,15.398l0,0l-28.742,16.6v401.227l55.401,31.974  l19.995,11.539l12.39,7.151c10.918,6.301,24.37,6.298,35.287-0.006l12.307-7.108l19.995-11.548l26.659-15.397l33.541-19.373  l-4.799,2.772L361.39,55.391L361.39,55.391z"/>
<g>
	<path style="fill:#C17400;" d="M223.096,268.039c-0.125,3.255-5.007,4.632-5.007,4.632c-0.501-5.509,5.134-15.649,6.26-16.525   c1.127-0.876,5.633-5.007,1.127-4.131c-4.508,0.876-8.889,11.017-9.891,12.77c-1.001,1.752-3.38,1.627-3.38,1.627s0-8.138,0-9.89   c0-1.753,7.762-5.508,7.762-5.508s1.252-7.512,0.125-8.263s-3.505,1.377-6.886,1.627c-3.38,0.251-7.512,0.376-11.017,3.63   c-3.505,3.255-3.63,5.508-3.63,11.017c0,5.509,0,0,0,13.271c0,13.27-12.394,22.535-17.027,27.168   c-1.261,1.261-1.745,2.803-1.785,4.421c-0.931,0.872-2.984,2.142-4.7,1.775c-2.637-0.566-3.029-5.202-3.029-7.917   c0-0.831-0.672-1.502-1.502-1.502c-0.831,0-1.502,0.672-1.502,1.502c0,9.179,3.906,10.812,6.236,10.971   c0.127,0.009,0.256,0.011,0.387,0.011c1.543,0,3.2-0.61,4.577-1.457c0.896,3.24,2.781,6.252,3.322,7.469   c1.002,2.253-4.508,5.883-4.508,5.883l4.508,13.896h6.135c0-3.443-4.194-2.754-4.82-3.63c-0.626-0.877-1.377-8.826-1.377-8.826   l8.705-7.282c0.672-0.562,1.061-1.393,1.061-2.269v-3.875c0,0,6.384,1.032,7.982,2.442c1.596,1.408,0.187,5.633,0.187,6.197   s8.075,7.699,8.075,7.699h5.54c0-2.536-2.629-2.442-3.944-2.91c-1.315-0.47-5.259-5.352-5.259-5.352s2.128-6.604,2.128-8.232   c0-1.627-9.139-8.263-9.139-8.263s1.252-2.128,10.516-7.888c9.264-5.758,8.513-12.269,8.513-12.269l8.013-9.014v-6.511   C225.85,264.534,223.222,264.783,223.096,268.039z"/>
	<path style="fill:#C17400;" d="M289.136,268.039c0.125,3.255,5.007,4.632,5.007,4.632c0.501-5.509-5.134-15.649-6.26-16.525   c-1.127-0.876-5.633-5.007-1.127-4.131c4.508,0.876,8.889,11.017,9.89,12.77c1.001,1.752,3.38,1.627,3.38,1.627s0-8.138,0-9.89   c0-1.753-7.762-5.508-7.762-5.508s-1.252-7.512-0.125-8.263s3.505,1.377,6.886,1.627c3.38,0.251,7.512,0.376,11.017,3.63   c3.505,3.255,3.63,5.508,3.63,11.017c0,5.509,0,0,0,13.271c0,13.27,12.394,22.535,17.027,27.168   c1.261,1.261,1.745,2.803,1.785,4.421c0.931,0.872,2.984,2.142,4.7,1.775c2.637-0.566,3.029-5.202,3.029-7.917   c0-0.831,0.672-1.502,1.502-1.502c0.831,0,1.502,0.672,1.502,1.502c0,9.179-3.906,10.812-6.236,10.971   c-0.127,0.009-0.257,0.011-0.387,0.011c-1.543,0-3.2-0.61-4.577-1.457c-0.896,3.24-2.781,6.252-3.322,7.469   c-1.002,2.253,4.508,5.883,4.508,5.883l-4.508,13.896h-6.135c0-3.443,4.194-2.754,4.82-3.63c0.626-0.877,1.377-8.826,1.377-8.826   l-8.705-7.282c-0.672-0.562-1.061-1.393-1.061-2.269v-3.875c0,0-6.384,1.032-7.982,2.442c-1.596,1.408-0.187,5.633-0.187,6.197   s-8.075,7.699-8.075,7.699h-5.54c0-2.536,2.629-2.442,3.944-2.91c1.315-0.47,5.259-5.352,5.259-5.352s-2.128-6.604-2.128-8.232   c0-1.627,9.139-8.263,9.139-8.263s-1.252-2.128-10.516-7.888c-9.264-5.758-8.513-12.269-8.513-12.269l-8.013-9.014v-6.511   C286.382,264.534,289.01,264.783,289.136,268.039z"/>
</g>
<g>
	<polygon style="fill:#C8C8C8;" points="244.066,259.462 235.052,268.477 253.08,268.477  "/>
	<polygon style="fill:#C8C8C8;" points="268.103,259.462 259.09,268.477 277.117,268.477  "/>
	<polygon style="fill:#C8C8C8;" points="244.066,274.486 235.052,283.5 253.08,283.5  "/>
	<polygon style="fill:#C8C8C8;" points="268.103,274.486 259.09,283.5 277.117,283.5  "/>
	<polygon style="fill:#C8C8C8;" points="244.066,289.509 235.052,298.523 253.08,298.523  "/>
	<polygon style="fill:#C8C8C8;" points="268.103,289.509 259.09,298.523 277.117,298.523  "/>
	<polygon style="fill:#C8C8C8;" points="256.084,304.533 247.07,313.546 265.099,313.546  "/>
</g>
<g>
	<rect x="254.581" y="211.391" style="fill:#FFE15A;" width="3" height="18.03"/>
	<path style="fill:#FFE15A;" d="M239.605,229.781c-0.05-0.194-1.157-4.806,1.949-8.169c2.735-2.963,7.714-3.868,14.777-2.691   l-0.492,2.963c-5.926-0.992-10.1-0.379-12.078,1.763c-1.986,2.151-1.25,5.372-1.242,5.405L239.605,229.781z"/>
	<path style="fill:#FFE15A;" d="M231.376,239.774c-3.754-1.878-5.6-7.329-4.03-11.907c0.659-1.919,3.617-8.017,14.011-5.933   l-0.59,2.945c-5.49-1.106-9.339,0.349-10.578,3.961c-1.071,3.119,0.136,7.048,2.531,8.245L231.376,239.774z"/>
	<path style="fill:#FFE15A;" d="M272.565,229.781l-2.914-0.727l1.457,0.364l-1.46-0.357c0.009-0.032,0.755-3.272-1.257-5.429   c-1.986-2.131-6.156-2.734-12.059-1.746l-0.492-2.963c7.072-1.18,12.042-0.272,14.777,2.691   C273.722,224.974,272.615,229.587,272.565,229.781z"/>
	<path style="fill:#FFE15A;" d="M280.794,239.774l-1.343-2.688c2.394-1.197,3.602-5.126,2.531-8.245   c-1.24-3.612-5.094-5.065-10.578-3.961l-0.59-2.945c10.401-2.081,13.353,4.016,14.011,5.933   C286.393,232.445,284.548,237.896,280.794,239.774z"/>
</g>
<path style="fill:#FF4B55;" d="M268.103,229.417c0,0-6.01-3.004-12.019-3.004c-6.01,0-12.018,3.004-12.018,3.004  c-6.01-3.004-15.023,0-15.023,6.01s9.014,15.023,9.014,15.023h18.028h18.028c0,0,9.014-9.014,9.014-15.023  C283.127,229.417,274.113,226.411,268.103,229.417z"/>
<rect x="253.081" y="212.891" style="fill:#FFE15A;" width="6.01" height="3"/>
<g>
	<rect x="226.041" y="196.361" style="fill:#C8C8C8;" width="60.1" height="12.02"/>
	
		<rect x="218.525" y="201.89" transform="matrix(0.3161 0.9487 -0.9487 0.3161 353.0787 -67.0253)" style="fill:#C8C8C8;" width="9.01" height="19"/>
	
		<rect x="279.644" y="206.889" transform="matrix(0.9487 0.3162 -0.3162 0.9487 81.6773 -80.5808)" style="fill:#C8C8C8;" width="19" height="9.01"/>
</g>
<path style="fill:#464655;" d="M256.084,324.063c-17.395,0-31.549-8.761-31.549-19.531v-51.079c0-2.486,2.022-4.508,4.508-4.508  h54.084c2.486,0,4.508,2.022,4.508,4.508v51.079C287.633,315.301,273.481,324.063,256.084,324.063z M229.043,251.951  c-0.829,0-1.502,0.675-1.502,1.502v51.079c0,9.111,12.805,16.525,28.545,16.525s28.545-7.415,28.545-16.525v-51.079  c0-0.827-0.674-1.502-1.502-1.502L229.043,251.951L229.043,251.951z"/>
<g>
</g>
<g>
</g>
<g>
</g>
<g>
</g>
<g>
</g>
<g>
</g>
<g>
</g>
<g>
</g>
<g>
</g>
<g>
</g>
<g>
</g>
<g>
</g>
<g>
</g>
<g>
</g>
<g>
</g>
</svg>
