<?xml version="1.0" encoding="iso-8859-1"?>
<!-- Generator: Adobe Illustrator 19.0.0, SVG Export Plug-In . SVG Version: 6.00 Build 0)  -->
<svg xmlns="http://www.w3.org/2000/svg" xmlns:xlink="http://www.w3.org/1999/xlink" version="1.1" id="Layer_1" x="0px" y="0px" viewBox="0 0 512 512" style="enable-background:new 0 0 512 512;" xml:space="preserve">
<path style="fill:#FF4B55;" d="M482.435,296.744l-0.014-81.491l-0.005-27.164l-0.008-42.485  c-0.001-11.607-5.715-22.388-15.14-28.946c-0.812-0.565-1.642-1.11-2.509-1.611l-23.711-13.684l-22.198-12.81L400.98,78.24  l-94.999-54.826l-19.995-11.539l-12.39-7.151c-10.918-6.301-24.37-6.298-35.287,0.006l-12.307,7.108l-19.995,11.548L111.02,78.247  L81.076,95.544l-22.191,12.818l-11.697,6.756c-0.841,0.486-1.648,1.015-2.439,1.561c-9.465,6.556-15.201,17.365-15.2,29.001  l0.007,42.41l0.005,27.164l0.014,81.491l0.005,27.164l0.007,42.486c0.003,11.607,5.715,22.388,15.14,28.946  c0.812,0.565,1.642,1.11,2.509,1.611l23.377,13.491l22.198,12.811l18.204,10.506l94.999,54.826l19.995,11.539l12.39,7.151  c10.92,6.301,24.37,6.298,35.287-0.006l12.307-7.108l19.995-11.548l94.989-54.863l27.325-15.782l22.191-12.818l14.319-8.27  c0.841-0.486,1.648-1.015,2.439-1.561c9.465-6.556,15.201-17.365,15.2-29.001l-0.008-42.41L482.435,296.744z"/>
<g>
	<path style="fill:#FFE15A;" d="M257.382,256.78l-2.673,1.545c-4.63-6.667-4.376-22.974-4.376-23.159   c0.049-0.484-0.241-0.919-0.677-1.112l-20.031-8.766l0.114-2.057c10.446,1.205,22.52,6.063,22.688,6.147   c0.411,0.26,0.93,0.195,1.297-0.109l16.62-13.857l3.577,3.197c-5.182,6.366-17.791,15.158-17.955,15.248   c-0.446,0.192-0.686,0.657-0.644,1.132L257.382,256.78z"/>
	<path style="fill:#FFE15A;" d="M330.062,158.044c0.407,0.209,0.898,0.169,1.268-0.105l4.343-3.215l-1.38,4.009   c-0.155,0.456-0.021,0.965,0.339,1.295l2.046,1.827c-0.607,1.026-0.847,2.289-0.872,3.605l-3.03,1.538   c-0.256,0.131-0.46,0.35-0.57,0.616l-2.261,5.472l-1.238-4.538c-0.159-0.597-0.729-0.962-1.328-0.88l-5.455,0.746l4.426-5.015   c0.236-0.269,0.341-0.626,0.289-0.978l-0.986-6.622L330.062,158.044z"/>
	<path style="fill:#FFE15A;" d="M280.658,336.743c-0.38,0.255-0.584,0.704-0.524,1.16l0.704,5.357l-2.835-3.152   c-0.324-0.356-0.834-0.486-1.296-0.332l-2.591,0.901c-0.602-1.028-1.59-1.852-2.729-2.512l0.126-3.397   c0.009-0.287-0.082-0.571-0.262-0.799l-3.688-4.632l4.569,1.12c0.6,0.151,1.195-0.17,1.415-0.735l1.994-5.131l2.236,6.305   c0.12,0.337,0.382,0.602,0.716,0.727l6.268,2.352L280.658,336.743z"/>
	<path style="fill:#FFE15A;" d="M148.004,211.115c-0.059-0.454-0.369-0.836-0.802-0.987l-5.107-1.765l4.088-1.128   c0.464-0.13,0.807-0.529,0.877-1.011l0.351-2.721c1.19-0.079,2.367-0.595,3.468-1.32l2.983,1.631   c0.254,0.137,0.549,0.181,0.831,0.122l5.792-1.23l-3.043,3.587c-0.404,0.469-0.381,1.145,0.025,1.593l3.698,4.078l-6.638-0.817   c-0.356-0.044-0.71,0.074-0.97,0.315l-4.905,4.558L148.004,211.115z"/>
</g>
<g>
	<path style="fill:#F5F5F5;" d="M254.249,375.104c-2.949,5.947-9.332,10.88-10.928,11.169c-0.29,0.049-0.532-0.049-0.774-0.29   c-0.726-0.822-1.063-3.047-0.096-5.996c0.096-0.29,0.194-0.677,0.339-1.112L254.249,375.104z"/>
	<path style="fill:#F5F5F5;" d="M256.376,368.963c-0.387,1.161-0.726,2.321-0.967,3.192l-11.798,3.916   c0.339-1.063,0.677-2.224,1.016-3.482L256.376,368.963z"/>
</g>
<path style="fill:#FFE15A;" d="M258.987,362.339c-0.58,1.306-1.112,2.563-1.596,3.771l-11.992,3.675  c0.339-1.306,0.726-2.659,1.063-4.013L258.987,362.339z"/>
<g>
	<path style="fill:#F5F5F5;" d="M261.357,357.551c-0.339,0.629-0.677,1.257-1.016,1.934l-13.2,3.578   c0.58-2.273,1.063-4.497,1.451-6.431L261.357,357.551z"/>
	<path style="fill:#F5F5F5;" d="M265.08,352.522c-0.774,0.726-1.498,1.645-2.224,2.708l-13.877-1.015   c0.194-1.257,0.339-2.369,0.339-3.192c0-0.629-0.047-1.208-0.096-1.837c0.532,0.049,1.112,0.049,1.596,0.049   c3.482,0,5.948-0.629,7.737-1.547C260.535,350.588,263.098,351.894,265.08,352.522z"/>
	<path style="fill:#F5F5F5;" d="M267.885,350.539c-0.871-0.097-4.739-0.484-7.35-4.255c1.306-1.112,1.934-2.321,2.224-3.143   c1.451-4.061-8.655-10.396-14.845-13.781c-2.902-1.596-5.174-4.739-7.204-8.365c0.241,0.049,0.435,0.049,0.677,0.049   c3.094,0,5.561-1.451,6.867-2.563c1.161,1.934,2.224,3.724,3.192,5.271c4.4,7.447,6.431,10.831,11.122,14.12   c0.145,0.097,0.339,0.194,0.532,0.194c2.272,0.29,8.849,1.741,9.236,4.642C272.865,346.672,271.414,349.186,267.885,350.539z"/>
	<path style="fill:#F5F5F5;" d="M260.486,342.319c-0.532,1.547-2.755,5.029-11.557,4.449c-0.774-5.029-2.998-8.606-6.528-10.251   c-4.594-2.176-21.759-14.459-29.593-21.759c1.547-4.932,5.61-8.945,11.363-11.073c0.822-0.339,1.547-0.629,2.176-0.967   c1.547,1.257,2.95,2.659,4.11,4.255c1.79,2.514,3.337,5.706,4.98,9.091c3.047,6.19,6.19,12.62,11.314,15.425   C256.231,336.711,260.922,341.207,260.486,342.319z"/>
	<path style="fill:#F5F5F5;" d="M246.947,316.401c-0.919,0.918-3.965,2.998-7.639,1.934c-0.581-1.112-1.112-2.224-1.692-3.337   c-1.692-3.482-3.288-6.769-5.222-9.429c-1.112-1.596-2.514-2.998-4.013-4.255c2.176-1.886,2.514-3.916,2.611-5.657   c3.82,3.288,7.398,7.398,10.686,12.475C243.755,311.276,245.447,313.983,246.947,316.401z"/>
	<path style="fill:#F5F5F5;" d="M228.717,293.867c-0.049,0.387-0.096,0.822-0.096,1.257c-0.096,1.645-0.241,3.24-2.176,4.69   c-4.061-2.902-8.753-4.884-12.765-6.19c1.837-1.886,3.047-3.771,3.626-5.608c0,0,0,0,0.049,0   C221.319,289.13,225.139,291.112,228.717,293.867z"/>
	<path style="fill:#F5F5F5;" d="M224.076,301.073c-0.241,0.096-0.435,0.241-0.725,0.339c-6.045,2.224-10.492,6.335-12.475,11.412   c-2.369-2.369-4.061-4.498-5.416-6.19c-1.498-1.934-2.757-3.433-4.304-4.498c4.351-2.224,7.833-4.449,10.493-6.624   c0.049,0,0.049,0,0.096,0C215.517,296.673,220.111,298.414,224.076,301.073z"/>
	<path style="fill:#F5F5F5;" d="M209.376,294.206c-2.514,1.983-6.045,4.206-11.024,6.624c-1.161-0.29-2.321-0.532-3.288-0.725   c-2.369-0.435-3.916-0.774-5.126-2.128c-0.725-0.774-2.127-2.949-3.482-5.706c0.194,0.096,0.387,0.194,0.581,0.241   c1.402,0.339,3.384-0.29,5.851-1.161c3.047-1.016,6.769-2.273,10.155-1.837c3.047,0.387,3.868,1.596,4.835,2.949   C208.311,293.046,208.747,293.675,209.376,294.206z"/>
</g>
<path style="fill:#FFE15A;" d="M215.129,286.953c-0.387,1.5-1.451,3.385-3.869,5.657c-0.58-0.387-0.967-0.918-1.402-1.547  c-1.063-1.5-2.418-3.385-6.479-3.916c-3.916-0.532-7.978,0.822-11.267,1.934c-1.837,0.629-3.771,1.306-4.545,1.112  c-0.822-0.194-1.886-1.498-1.934-2.804c-0.049-1.5,1.306-2.176,2.418-2.514c2.514-0.774,5.561-0.194,8.559,0.339  c3.047,0.58,5.947,1.112,8.269,0.194c1.596-0.629,3.433-2.611,5.657-5.464c1.547,0.339,2.853,0.871,3.626,1.982  C215.274,283.52,215.564,285.212,215.129,286.953z"/>
<g>
	<path style="fill:#F5F5F5;" d="M207.731,279.604c-1.498,1.837-2.804,3.192-3.771,3.578c-1.645,0.677-4.208,0.194-6.916-0.339   c-3.094-0.58-6.624-1.208-9.671-0.29c-1.837,0.532-2.853,1.451-3.433,2.321c-0.532-2.659-0.532-5.222,0.677-7.253   c1.208-2.127,2.804-3.916,4.449-5.706c2.176,0.29,3.771,0.726,9.284,5.561c1.886,1.643,4.932,1.837,7.882,1.982   C206.715,279.506,207.248,279.555,207.731,279.604z"/>
	<path style="fill:#F5F5F5;" d="M252.653,259.633c-5.416,3.578-29.544,19.438-34.573,21.518c-0.241,0.096-0.435,0.29-0.58,0.484   c-0.145,0.241-0.241,0.435-0.387,0.677c-0.241-0.629-0.58-1.208-0.967-1.79c-0.967-1.402-2.418-2.176-4.014-2.659   c0.726-0.918,1.451-1.886,2.224-2.949c3.482-4.787,7.494-10.155,12.089-14.941c7.882-8.22,18.422-13.636,21.953-15.28   C248.929,249.817,250.09,255.861,252.653,259.633z"/>
	<path style="fill:#F5F5F5;" d="M248.155,242.129c-2.514,1.112-14.457,6.769-23.452,16.151c-4.739,4.932-8.946,10.59-12.282,15.183   c-1.016,1.353-1.983,2.659-2.902,3.868c-1.063-0.096-2.128-0.194-3.143-0.241c-2.659-0.194-5.174-0.339-6.431-1.451   c-4.642-4.061-6.818-5.271-8.898-5.802c0.194-0.194,0.339-0.387,0.532-0.58c3.047-3.095,6.238-6.335,8.753-10.831   c4.351-7.785,18.906-24.758,28.383-30.899l19.197,8.414C247.914,237.1,247.963,239.372,248.155,242.129z"/>
	<path style="fill:#F5F5F5;" d="M125.488,170.347c-4.003-5.296-5.562-13.21-5.109-14.767c0.086-0.281,0.281-0.454,0.605-0.562   c1.06-0.281,3.2,0.41,5.407,2.593c0.216,0.216,0.519,0.476,0.844,0.8L125.488,170.347z"/>
	<path style="fill:#F5F5F5;" d="M130.03,174.995c-0.865-0.865-1.752-1.686-2.423-2.292l1.768-12.305   c0.8,0.779,1.687,1.6,2.661,2.464L130.03,174.995z"/>
</g>
<path style="fill:#FFE15A;" d="M134.79,180.291c-0.908-1.102-1.796-2.141-2.661-3.113l2.072-12.37  c1.016,0.886,2.054,1.837,3.114,2.746L134.79,180.291z"/>
<g>
	<path style="fill:#F5F5F5;" d="M138.014,184.55c-0.411-0.584-0.822-1.167-1.276-1.773l2.698-13.409   c1.773,1.535,3.548,2.962,5.105,4.171L138.014,184.55z"/>
	<path style="fill:#F5F5F5;" d="M140.848,190.128c-0.304-1.016-0.801-2.076-1.428-3.2l7.109-11.962   c1.038,0.735,1.968,1.361,2.704,1.728c0.562,0.281,1.103,0.497,1.687,0.735c-0.281,0.454-0.54,0.973-0.756,1.406   c-1.556,3.114-2.096,5.602-2.073,7.613C144.61,186.925,142.297,188.635,140.848,190.128z"/>
	<path style="fill:#F5F5F5;" d="M141.37,193.522c0.475-0.735,2.551-4.023,7.091-4.674c0.411,1.665,1.212,2.768,1.818,3.394   c2.985,3.113,13.168-3.098,18.962-7.122c2.724-1.882,6.551-2.511,10.703-2.707c-0.151,0.195-0.237,0.367-0.346,0.584   c-1.383,2.768-1.187,5.622-0.776,7.288c-2.249,0.174-4.325,0.326-6.141,0.5c-8.628,0.609-12.564,0.913-17.601,3.64   c-0.151,0.086-0.324,0.216-0.411,0.39c-1.275,1.903-5.511,7.138-8.28,6.187C142.604,199.707,141.003,197.285,141.37,193.522z"/>
	<path style="fill:#F5F5F5;" d="M152.029,190.578c-1.147-1.167-3.267-4.712,1.185-12.327c4.845,1.555,9.04,1.165,12.088-1.258   c3.999-3.137,22.658-13.005,32.69-16.75c3.72,3.588,5.496,9.015,4.827,15.113c-0.065,0.887-0.129,1.666-0.107,2.378   c-1.816,0.822-3.698,1.451-5.643,1.776c-3.049,0.477-6.596,0.435-10.358,0.392c-6.898-0.041-14.056-0.102-18.856,3.229   C158.949,189.277,152.829,191.464,152.029,190.578z"/>
	<path style="fill:#F5F5F5;" d="M181.265,190.048c-0.411-1.232-0.91-4.887,1.685-7.699c1.255-0.022,2.487-0.001,3.74-0.024   c3.871,0.042,7.525,0.084,10.77-0.459c1.924-0.281,3.805-0.91,5.6-1.688c0.715,2.789,2.381,3.999,3.894,4.864   c-4.649,1.948-9.925,3.313-15.936,3.985C187.277,189.483,184.098,189.787,181.265,190.048z"/>
	<path style="fill:#F5F5F5;" d="M209.57,183.81c-0.325-0.216-0.692-0.454-1.082-0.649c-1.427-0.821-2.79-1.665-3.224-4.043   c4.411-2.337,8.28-5.647,11.242-8.654c0.866,2.487,2.013,4.411,3.397,5.751c0,0,0,0-0.021,0.044   C217.115,179.309,213.635,181.839,209.57,183.81z"/>
	<path style="fill:#F5F5F5;" d="M205.2,176.437c0.021-0.26-0.021-0.497,0.021-0.8c0.711-6.401-0.978-12.218-4.634-16.261   c3.179-1.061,5.838-1.625,7.958-2.079c2.399-0.476,4.303-0.931,5.946-1.841c0.045,4.887,0.479,8.996,1.237,12.348   c-0.021,0.044-0.021,0.044-0.044,0.086C212.96,170.746,209.35,174.078,205.2,176.437z"/>
	<path style="fill:#F5F5F5;" d="M217.911,166.355c-0.65-3.135-1.062-7.287-1-12.823c0.779-0.909,1.513-1.838,2.118-2.618   c1.448-1.924,2.442-3.158,4.194-3.634c1.016-0.304,3.589-0.585,6.661-0.565c-0.172,0.13-0.346,0.26-0.476,0.411   c-0.93,1.103-1.253,3.158-1.577,5.752c-0.452,3.179-0.992,7.072-2.894,9.905c-1.707,2.552-3.157,2.748-4.8,3.008   C219.425,165.922,218.667,166.03,217.911,166.355z"/>
</g>
<path style="fill:#FFE15A;" d="M221.828,174.744c-1.168-1.016-2.379-2.81-3.333-5.99c0.605-0.346,1.253-0.455,2.011-0.562  c1.816-0.281,4.109-0.65,6.399-4.046c2.227-3.265,2.83-7.504,3.304-10.943c0.259-1.924,0.517-3.958,1.036-4.564  c0.541-0.649,2.183-1.017,3.373-0.477c1.362,0.626,1.363,2.141,1.17,3.287c-0.432,2.596-2.312,5.061-4.128,7.505  c-1.881,2.466-3.653,4.824-3.868,7.311c-0.151,1.708,0.801,4.238,2.359,7.503c-0.995,1.233-2.053,2.163-3.394,2.358  C224.834,176.408,223.191,175.911,221.828,174.744z"/>
<g>
	<path style="fill:#F5F5F5;" d="M231.709,171.41c-0.973-2.162-1.602-3.935-1.516-4.974c0.129-1.773,1.707-3.85,3.393-6.035   c1.902-2.509,4.041-5.386,4.581-8.521c0.345-1.882-0.023-3.2-0.542-4.109c2.617,0.712,4.91,1.858,6.186,3.846   c1.363,2.032,2.251,4.259,3.117,6.529c-1.232,1.817-2.334,3.049-9.124,5.821c-2.313,0.952-3.848,3.592-5.296,6.165   C232.25,170.545,231.969,170.998,231.709,171.41z"/>
	<path style="fill:#F5F5F5;" d="M229.501,220.52c-0.781-6.443-4.186-35.117-3.8-40.545c0.021-0.26-0.065-0.519-0.172-0.735   c-0.151-0.237-0.281-0.411-0.432-0.649c0.67,0.065,1.341,0.021,2.033-0.066c1.687-0.239,3.027-1.191,4.173-2.402   c0.497,1.06,1.038,2.141,1.645,3.308c2.727,5.254,5.735,11.243,7.964,17.491c3.831,10.725,3.966,22.575,3.859,26.468   C240.031,222.351,234.545,221.177,229.501,220.52z"/>
	<path style="fill:#F5F5F5;" d="M247.169,224.32c0.129-2.746,0.405-15.959-3.968-28.197c-2.294-6.443-5.476-12.735-8.094-17.773   c-0.757-1.513-1.493-2.962-2.164-4.324c0.562-0.909,1.123-1.817,1.621-2.703c1.361-2.293,2.614-4.478,4.171-5.105   c5.708-2.338,7.762-3.744,9.167-5.366c0.086,0.26,0.195,0.476,0.281,0.735c1.407,4.108,2.879,8.411,5.778,12.67   c5.02,7.372,13.699,27.977,14.957,39.201l-16.106,13.414C251.776,226.351,249.721,225.379,247.169,224.32z"/>
	<path style="fill:#F5F5F5;" d="M376.419,162.518c6.632-0.307,14.042,2.879,15.07,4.134c0.182,0.23,0.216,0.489,0.121,0.817   c-0.367,1.033-2.147,2.408-5.196,2.994c-0.301,0.056-0.686,0.159-1.136,0.244L376.419,162.518z"/>
	<path style="fill:#F5F5F5;" d="M370.017,163.638c1.202-0.225,2.382-0.492,3.259-0.704l9.15,8.415   c-1.095,0.22-2.273,0.487-3.536,0.802L370.017,163.638z"/>
</g>
<path style="fill:#FFE15A;" d="M362.958,164.57c1.423-0.126,2.781-0.271,4.071-0.435l9.034,8.701  c-1.306,0.337-2.677,0.656-4.025,1.017L362.958,164.57z"/>
<g>
	<path style="fill:#F5F5F5;" d="M357.622,164.821c0.714-0.009,1.428-0.019,2.184-0.051l9.535,9.805   c-2.268,0.596-4.449,1.252-6.327,1.853L357.622,164.821z"/>
	<path style="fill:#F5F5F5;" d="M351.418,164.007c1.01,0.325,2.166,0.512,3.447,0.631l5.847,12.627   c-1.193,0.441-2.236,0.855-2.954,1.253c-0.55,0.305-1.033,0.629-1.56,0.976c-0.216-0.489-0.497-0.996-0.732-1.418   c-1.69-3.044-3.437-4.895-5.107-6.013C351.933,168.92,351.831,166.045,351.418,164.007z"/>
	<path style="fill:#F5F5F5;" d="M348.323,162.517c0.337,0.807,1.877,4.378-0.154,8.491c-1.606-0.602-2.968-0.565-3.828-0.42   c-4.255,0.702-4.889,12.613-4.845,19.667c0.013,3.312-1.632,6.823-3.818,10.36c-0.075-0.235-0.169-0.404-0.286-0.615   c-1.502-2.706-3.968-4.158-5.573-4.76c1.128-1.953,2.176-3.751,3.059-5.349c4.375-7.462,6.349-10.88,6.947-16.577   c0.015-0.174,0.005-0.39-0.089-0.559c-0.85-2.128-2.773-8.581-0.424-10.328C342.525,160.039,345.426,160.088,348.323,162.517z"/>
	<path style="fill:#F5F5F5;" d="M344.727,172.975c1.611-0.286,5.735-0.031,9.499,7.945c-4.021,3.117-6.071,6.798-5.795,10.682   c0.327,5.072-2.081,26.042-4.662,36.435c-5.064,1.041-10.543-0.564-15.197-4.561c-0.695-0.555-1.301-1.048-1.902-1.433   c0.349-1.963,0.894-3.87,1.726-5.658c1.331-2.784,3.369-5.686,5.531-8.766c3.933-5.667,8.03-11.537,7.995-17.379   C341.887,179.417,343.543,173.134,344.727,172.975z"/>
	<path style="fill:#F5F5F5;" d="M328.636,197.391c1.25,0.357,4.546,2.012,5.399,5.741c-0.691,1.047-1.405,2.052-2.096,3.099   c-2.223,3.169-4.324,6.161-5.71,9.143c-0.856,1.747-1.401,3.653-1.773,5.573c-2.706-0.987-4.645-0.297-6.213,0.462   c1.021-4.936,2.878-10.058,5.721-15.398C325.704,202.668,327.25,199.875,328.636,197.391z"/>
	<path style="fill:#F5F5F5;" d="M317.781,224.266c0.362-0.145,0.766-0.315,1.146-0.526c1.485-0.714,2.95-1.361,5.157-0.374   c-0.566,4.96-0.023,10.022,0.784,14.165c-2.541-0.691-4.776-0.834-6.664-0.449c0,0,0,0-0.024-0.042   C317.229,233.034,317.109,228.733,317.781,224.266z"/>
	<path style="fill:#F5F5F5;" d="M326.334,224.827c0.201,0.165,0.422,0.264,0.647,0.47c4.879,4.205,10.631,6.1,16.032,5.369   c-0.922,3.222-1.961,5.733-2.783,7.739c-0.964,2.249-1.665,4.076-1.843,5.945c-4.056-2.726-7.692-4.69-10.885-5.96   c-0.024-0.042-0.024-0.042-0.047-0.085C326.64,234.447,325.933,229.585,326.334,224.827z"/>
	<path style="fill:#F5F5F5;" d="M327.465,241.013c2.954,1.236,6.612,3.243,11.143,6.424c0.31,1.156,0.661,2.287,0.962,3.227   c0.77,2.283,1.225,3.8,0.627,5.514c-0.325,1.01-1.546,3.292-3.299,5.813c-0.01-0.216-0.019-0.432-0.07-0.625   c-0.385-1.391-1.897-2.818-3.854-4.553c-2.367-2.171-5.272-4.816-6.534-7.987c-1.14-2.85-0.482-4.156,0.232-5.66   C326.966,242.506,327.305,241.82,327.465,241.013z"/>
</g>
<path style="fill:#FFE15A;" d="M318.33,239.502c1.498-0.389,3.664-0.374,6.824,0.637c-0.056,0.695-0.334,1.291-0.672,1.977  c-0.795,1.657-1.786,3.756-0.28,7.567c1.436,3.683,4.59,6.577,7.159,8.913c1.441,1.301,2.972,2.664,3.178,3.434  c0.23,0.812-0.395,2.377-1.513,3.053c-1.287,0.77-2.537-0.085-3.372-0.893c-1.897-1.823-2.868-4.769-3.858-7.648  c-0.971-2.945-1.914-5.74-3.844-7.323c-1.323-1.09-3.949-1.735-7.523-2.294c-0.455-1.517-0.624-2.917-0.026-4.133  C315.258,241.042,316.598,239.966,318.33,239.502z"/>
<g>
	<path style="fill:#F5F5F5;" d="M315.495,249.537c2.334,0.419,4.151,0.904,4.959,1.561c1.39,1.108,2.211,3.584,3.06,6.211   c0.995,2.987,2.158,6.378,4.44,8.596c1.357,1.348,2.653,1.791,3.695,1.876c-2.067,1.756-4.308,2.999-6.671,2.928   c-2.447-0.025-4.785-0.551-7.148-1.12c-0.802-2.043-1.196-3.649,0.356-10.816c0.522-2.447-0.787-5.205-2.092-7.854   C315.903,250.473,315.687,249.983,315.495,249.537z"/>
	<path style="fill:#F5F5F5;" d="M276.233,219.954c5.757,2.999,31.334,16.398,35.593,19.786c0.201,0.165,0.465,0.24,0.705,0.272   c0.281,0.01,0.497,0,0.78,0.01c-0.432,0.516-0.775,1.093-1.095,1.713c-0.757,1.526-0.73,3.17-0.377,4.8   c-1.155-0.189-2.353-0.354-3.659-0.514c-5.875-0.721-12.515-1.625-18.931-3.318c-11.012-2.902-20.863-9.49-24.015-11.778   C268.711,227.818,273.309,223.788,276.233,219.954z"/>
	<path style="fill:#F5F5F5;" d="M263.111,232.38c2.193,1.658,12.935,9.356,25.503,12.667c6.612,1.75,13.6,2.682,19.236,3.37   c1.677,0.231,3.288,0.442,4.79,0.66c0.431,0.977,0.863,1.954,1.313,2.865c1.122,2.419,2.216,4.689,1.853,6.327   c-1.298,6.03-1.3,8.519-0.755,10.596c-0.264-0.075-0.502-0.109-0.766-0.184c-4.184-1.162-8.566-2.379-13.718-2.396   c-8.919-0.026-30.822-4.515-40.791-9.821l-1.959-20.868C258.831,235.032,260.794,233.887,263.111,232.38z"/>
</g>
<path style="fill:#464655;" d="M393.697,165.647c-0.117-0.211-0.211-0.38-0.347-0.526c-1.873-2.278-12.833-6.481-20.607-4.545  c-8.393,2.116-19.821,2.652-22.651,0.241c-3.628-3.209-7.657-3.335-11.641-0.62l-1.608-1.436l2.386-6.931  c0.112-0.332,0.075-0.687-0.087-0.98c-0.082-0.149-0.197-0.282-0.342-0.389c-0.427-0.314-1.008-0.312-1.435,0.002l-6.872,5.086  l-5.833-2.964c-0.404-0.205-0.887-0.169-1.253,0.096c-0.367,0.264-0.556,0.711-0.489,1.157l1.248,8.383l-6.206,7.031  c-0.335,0.38-0.399,0.926-0.16,1.371c0.24,0.291,0.729,0.695,1.228,0.627l7.624-1.043l1.891,6.933  c0.141,0.512,0.576,0.857,1.09,0.889c0.515,0.032,0.995-0.266,1.193-0.744l3.443-8.333l1.746-0.886  c0.357,2.323,1.082,4.436,1.391,5.265c-0.584,5.025-2.521,8.311-6.567,15.37c-2.359,4.019-5.24,8.993-9,16.167  c-6.26,11.937-8.275,22.954-5.991,32.747c-0.69,0.051-1.728,0.074-2.813,0.012c-5.771-4.318-35.569-19.743-36.832-20.424  c-0.07-0.036-4.916-4.198-4.916-4.198c-1.343-11.751-10.107-32.4-15.29-40.115c-2.748-4.021-4.154-8.129-5.518-12.108  c-1.3-3.676-2.468-7.178-4.61-10.465c-4.76-7.35-19.66-6.307-23.249-5.397c-2.552,0.671-3.935,2.467-5.512,4.544  c-0.627,0.822-1.34,1.708-2.226,2.725c-1.47,1.645-3.524,2.077-6.833,2.749c-2.594,0.541-5.86,1.235-10.12,2.728  c-9.99,3.55-29.881,14.154-34.118,17.443c-4.173,3.267-10.25,1.042-13.494-0.579c-4.585-2.291-18.43-14.936-22.194-18.654  c-2.618-2.551-5.581-3.76-7.764-3.175c-0.93,0.239-1.665,0.844-2.054,1.623c-0.107,0.216-0.194,0.389-0.237,0.584  c-0.821,2.833,1.908,14.25,7.9,19.567c6.489,5.728,13.391,14.851,13.004,18.549c-0.596,4.806,1.577,8.202,6.07,9.954l-0.275,2.138  l-7.066,1.949c-0.337,0.095-0.609,0.326-0.759,0.626c-0.076,0.152-0.121,0.322-0.126,0.502c-0.016,0.53,0.312,1.008,0.814,1.182  l8.079,2.793l0.852,6.488c0.057,0.449,0.362,0.827,0.789,0.98c0.425,0.154,0.901,0.056,1.231-0.251l6.21-5.768l9.307,1.145  c0.502,0.061,0.99-0.195,1.221-0.644c0.105-0.362,0.161-0.993-0.176-1.368l-5.171-5.7l4.65-5.479  c0.344-0.406,0.382-0.96,0.117-1.401c-0.264-0.444-0.782-0.67-1.288-0.565l-8.82,1.871l-1.717-0.94  c1.715-1.607,3.048-3.4,3.557-4.124c4.475-2.359,8.281-2.621,16.391-3.272c4.649-0.326,10.38-0.761,18.424-1.716  c13.385-1.585,23.612-6.151,30.399-13.57c0.432,0.54,1.038,1.383,1.601,2.313c-0.3,7.202,3.821,40.501,3.974,41.929  c0.009,0.075-0.071,3.598-0.071,3.598c-9.91,6.482-24.398,23.45-28.975,31.518c-2.369,4.255-5.416,7.349-8.365,10.347  c-2.708,2.804-5.319,5.416-7.302,8.8c-4.449,7.543,3.143,20.406,5.561,23.21c1.741,1.982,3.965,2.418,6.528,2.902  c1.016,0.194,2.127,0.435,3.433,0.774c2.128,0.58,3.433,2.224,5.512,4.884c1.645,2.079,3.723,4.69,6.963,7.833  c7.639,7.35,26.014,20.406,30.85,22.726c4.787,2.273,5.512,8.704,5.512,12.33c0,5.126-5.126,23.162-6.769,28.191  c-1.112,3.482-0.871,6.673,0.629,8.365c0.629,0.726,1.498,1.112,2.369,1.112c0.241,0,0.435,0,0.629-0.049  c2.902-0.532,11.895-8.075,13.975-15.812c2.224-8.365,7.302-18.616,10.783-19.922c4.566-1.615,6.633-5.076,6.192-9.877l2.036-0.71  l4.901,5.45c0.236,0.26,0.565,0.399,0.9,0.399c0.17,0,0.342-0.035,0.505-0.111c0.481-0.222,0.762-0.73,0.694-1.256l-1.112-8.476  l5.423-3.661c0.375-0.252,0.579-0.694,0.524-1.142c-0.052-0.449-0.351-0.831-0.775-0.99l-7.935-2.978l-3.135-8.838  c-0.17-0.477-0.616-0.799-1.121-0.805c-0.371,0.069-0.961,0.3-1.145,0.77l-2.788,7.173l-6.979-1.712  c-0.517-0.125-1.03,0.087-1.306,0.522c-0.279,0.435-0.25,0.999,0.071,1.405l5.615,7.054l-0.072,1.956  c-2.204-0.815-4.404-1.207-5.279-1.338c-4.11-2.949-6.045-6.237-10.251-13.2c-2.369-4.014-5.32-8.946-9.767-15.716  c-7.398-11.267-16.053-18.375-25.724-21.132c0.29-0.629,0.774-1.547,1.355-2.466c6.576-2.95,34.526-21.518,35.734-22.291  c0.018-0.011,0.015-0.039,0.031-0.05l3.78-2.184c10.481,5.517,32.389,9.941,41.662,10.027c4.87,0.006,9.054,1.168,13.108,2.292  c3.766,1.006,7.317,2.022,11.238,2.113c8.754,0.229,16.317-12.652,17.595-16.127c0.888-2.484,0.19-4.64-0.631-7.116  c-0.324-0.982-0.652-2.072-0.99-3.378c-0.525-2.142,0.279-4.081,1.595-7.191c1.02-2.447,2.294-5.532,3.469-9.89  c2.719-10.247,5.216-32.649,4.899-38.003c-0.336-5.289,4.935-9.044,8.105-10.803c4.481-2.488,22.739-6.759,27.934-7.763  c3.584-0.717,6.257-2.478,7.009-4.61C394.203,167.357,394.119,166.408,393.697,165.647z M335.804,165.462L332.772,167  c-0.256,0.131-0.46,0.35-0.57,0.616l-2.261,5.472l-1.238-4.538c-0.159-0.597-0.729-0.962-1.328-0.88l-5.455,0.746l4.426-5.015  c0.237-0.269,0.341-0.626,0.289-0.978l-0.986-6.622l4.411,2.242c0.407,0.209,0.898,0.169,1.268-0.104l4.343-3.215l-1.38,4.009  c-0.155,0.456-0.02,0.965,0.337,1.295l2.046,1.827C336.068,162.882,335.828,164.145,335.804,165.462z M332.88,189.892  c4.375-7.462,6.349-10.88,6.948-16.577c0.014-0.174,0.005-0.39-0.089-0.559c-0.85-2.128-2.773-8.581-0.424-10.328  c3.209-2.389,6.111-2.341,9.008,0.087c0.337,0.807,1.877,4.378-0.154,8.491c-1.606-0.601-2.968-0.565-3.828-0.42  c-4.255,0.704-4.889,12.613-4.845,19.668c0.013,3.312-1.632,6.823-3.818,10.36c-0.075-0.235-0.169-0.404-0.286-0.616  c-1.502-2.705-3.968-4.158-5.573-4.76C330.949,193.287,331.996,191.489,332.88,189.892z M323.965,206.013  c1.74-3.343,3.285-6.137,4.671-8.621c1.25,0.357,4.546,2.012,5.399,5.741c-0.691,1.047-1.405,2.052-2.096,3.099  c-2.223,3.169-4.324,6.161-5.71,9.143c-0.856,1.747-1.401,3.654-1.773,5.575c-2.706-0.987-4.645-0.297-6.213,0.462  C319.265,216.475,321.122,211.351,323.965,206.013z M317.781,224.265c0.361-0.145,0.766-0.315,1.146-0.525  c1.485-0.714,2.95-1.361,5.157-0.374c-0.566,4.96-0.023,10.022,0.784,14.165c-2.541-0.691-4.776-0.834-6.664-0.449  c0,0,0,0-0.024-0.042C317.229,233.034,317.109,228.733,317.781,224.265z M312.53,240.012c0.282,0.01,0.497,0,0.78,0.01  c-0.432,0.516-0.775,1.093-1.095,1.713c-0.756,1.526-0.73,3.17-0.377,4.8c-1.155-0.189-2.353-0.354-3.659-0.514  c-5.875-0.721-12.515-1.625-18.93-3.318c-11.013-2.902-20.863-9.49-24.015-11.778c3.028-2.885,7.41-6.286,11-10.972  c5.757,2.998,31.334,16.398,35.593,19.786C312.028,239.903,312.29,239.978,312.53,240.012z M257.382,256.78l-2.673,1.545  c-4.63-6.667-4.376-22.974-4.376-23.159c0.049-0.484-0.241-0.919-0.677-1.112l-20.031-8.766l0.114-2.057  c10.446,1.205,22.52,6.063,22.688,6.147c0.411,0.26,0.93,0.195,1.297-0.109l16.62-13.857l3.577,3.197  c-5.182,6.366-17.791,15.158-17.955,15.248c-0.446,0.192-0.686,0.657-0.644,1.132L257.382,256.78z M247.902,160.851  c0.086,0.26,0.195,0.476,0.281,0.735c1.407,4.109,2.879,8.411,5.778,12.67c5.02,7.372,13.699,27.977,14.957,39.201l-16.106,13.414  c-1.038-0.519-3.093-1.491-5.645-2.549c0.129-2.747,0.405-15.959-3.968-28.197c-2.294-6.443-5.476-12.735-8.094-17.773  c-0.757-1.513-1.493-2.962-2.164-4.324c0.562-0.909,1.123-1.817,1.621-2.703c1.361-2.293,2.614-4.478,4.171-5.105  C244.444,163.879,246.497,162.473,247.902,160.851z M243.812,151.619c1.363,2.032,2.251,4.259,3.117,6.529  c-1.232,1.817-2.334,3.05-9.124,5.821c-2.313,0.952-3.848,3.592-5.296,6.165c-0.26,0.411-0.541,0.865-0.8,1.276  c-0.973-2.162-1.602-3.935-1.516-4.974c0.129-1.773,1.707-3.85,3.393-6.035c1.902-2.509,4.041-5.386,4.581-8.521  c0.346-1.882-0.023-3.2-0.542-4.109C240.243,148.485,242.536,149.629,243.812,151.619z M219.03,150.914  c1.448-1.924,2.443-3.158,4.194-3.634c1.016-0.304,3.589-0.585,6.661-0.565c-0.172,0.13-0.346,0.26-0.476,0.411  c-0.93,1.103-1.253,3.158-1.576,5.752c-0.452,3.179-0.992,7.072-2.894,9.906c-1.707,2.552-3.157,2.748-4.8,3.008  c-0.714,0.13-1.471,0.239-2.227,0.564c-0.65-3.135-1.062-7.287-1-12.823C217.689,152.623,218.424,151.694,219.03,150.914z   M208.544,157.297c2.401-0.476,4.303-0.932,5.946-1.841c0.045,4.887,0.479,8.996,1.237,12.347c-0.021,0.044-0.021,0.044-0.044,0.086  c-2.723,2.855-6.333,6.187-10.485,8.546c0.022-0.26-0.021-0.497,0.021-0.8c0.711-6.401-0.977-12.218-4.634-16.261  C203.765,158.316,206.424,157.752,208.544,157.297z M165.302,176.992c3.999-3.137,22.658-13.005,32.691-16.749  c3.72,3.588,5.496,9.015,4.827,15.115c-0.065,0.886-0.129,1.666-0.107,2.378c-1.816,0.822-3.696,1.451-5.643,1.776  c-3.049,0.477-6.596,0.435-10.358,0.394c-6.898-0.041-14.056-0.102-18.856,3.229c-8.908,6.145-15.026,8.331-15.827,7.445  c-1.147-1.167-3.267-4.712,1.185-12.327C158.059,179.806,162.253,179.415,165.302,176.992z M125.488,170.346  c-4.003-5.296-5.562-13.21-5.109-14.768c0.086-0.281,0.281-0.454,0.605-0.562c1.06-0.281,3.2,0.41,5.407,2.593  c0.216,0.216,0.519,0.475,0.844,0.8L125.488,170.346z M130.03,174.995c-0.865-0.865-1.752-1.686-2.423-2.292l1.768-12.305  c0.8,0.779,1.687,1.6,2.661,2.464L130.03,174.995z M132.13,177.178l2.072-12.37c1.016,0.886,2.054,1.837,3.115,2.746l-2.526,12.738  C133.882,179.187,132.994,178.15,132.13,177.178z M138.014,184.55c-0.411-0.584-0.822-1.167-1.276-1.773l2.698-13.409  c1.773,1.535,3.548,2.96,5.105,4.171L138.014,184.55z M139.42,186.928l7.111-11.962c1.038,0.735,1.968,1.362,2.704,1.728  c0.562,0.281,1.103,0.497,1.687,0.735c-0.281,0.454-0.54,0.973-0.756,1.406c-1.556,3.114-2.096,5.602-2.073,7.613  c-3.482,0.477-5.795,2.187-7.243,3.679C140.546,189.111,140.047,188.052,139.42,186.928z M153.859,203.816  c0.254,0.137,0.549,0.181,0.831,0.122l5.792-1.23l-3.043,3.587c-0.404,0.469-0.382,1.145,0.025,1.593l3.698,4.078l-6.638-0.817  c-0.356-0.044-0.71,0.074-0.97,0.315l-4.905,4.558l-0.645-4.906c-0.059-0.454-0.369-0.836-0.804-0.987l-5.107-1.765l4.088-1.128  c0.464-0.13,0.807-0.529,0.877-1.011l0.351-2.721c1.19-0.079,2.367-0.595,3.468-1.32L153.859,203.816z M179.598,182.999  c-1.383,2.768-1.187,5.622-0.776,7.288c-2.249,0.174-4.325,0.326-6.142,0.5c-8.628,0.609-12.563,0.912-17.601,3.64  c-0.151,0.086-0.324,0.216-0.41,0.39c-1.276,1.903-5.511,7.138-8.28,6.187c-3.785-1.296-5.386-3.718-5.02-7.48  c0.475-0.735,2.549-4.023,7.091-4.674c0.411,1.665,1.212,2.768,1.818,3.394c2.985,3.113,13.168-3.097,18.962-7.122  c2.724-1.882,6.551-2.511,10.703-2.707C179.792,182.609,179.705,182.781,179.598,182.999z M191.019,189.027  c-3.741,0.455-6.919,0.76-9.752,1.02c-0.411-1.232-0.91-4.886,1.685-7.699c1.255-0.023,2.487-0.001,3.74-0.024  c3.871,0.041,7.525,0.084,10.77-0.459c1.924-0.281,3.805-0.91,5.6-1.688c0.715,2.789,2.381,3.999,3.894,4.864  C202.305,186.99,197.029,188.355,191.019,189.027z M219.882,176.258c-2.767,3.05-6.247,5.581-10.312,7.55  c-0.324-0.216-0.692-0.454-1.081-0.649c-1.428-0.821-2.79-1.665-3.224-4.043c4.41-2.337,8.28-5.647,11.242-8.654  c0.866,2.487,2.013,4.411,3.398,5.751C219.904,176.214,219.904,176.214,219.882,176.258z M221.828,174.744  c-1.167-1.016-2.379-2.81-3.333-5.99c0.605-0.346,1.253-0.455,2.011-0.562c1.816-0.282,4.109-0.651,6.399-4.046  c2.227-3.267,2.83-7.504,3.304-10.943c0.259-1.924,0.517-3.958,1.036-4.564c0.541-0.649,2.183-1.017,3.373-0.477  c1.362,0.626,1.363,2.141,1.168,3.287c-0.431,2.596-2.312,5.061-4.128,7.505c-1.881,2.466-3.653,4.824-3.868,7.311  c-0.151,1.708,0.801,4.239,2.359,7.503c-0.993,1.233-2.053,2.163-3.394,2.358C224.834,176.407,223.191,175.911,221.828,174.744z   M225.7,179.976c0.021-0.26-0.065-0.519-0.174-0.735c-0.151-0.237-0.281-0.411-0.432-0.649c0.67,0.065,1.341,0.021,2.032-0.065  c1.687-0.239,3.027-1.191,4.173-2.402c0.497,1.06,1.038,2.141,1.645,3.308c2.727,5.254,5.735,11.243,7.964,17.491  c3.831,10.725,3.965,22.575,3.859,26.468c-4.687-1.018-9.447-2.076-15.268-2.87C228.719,214.077,225.314,185.403,225.7,179.976z   M191.581,269.255c3.047-3.095,6.238-6.335,8.753-10.831c4.351-7.785,18.906-24.758,28.383-30.899l19.197,8.414  c0,1.161,0.049,3.433,0.241,6.19c-2.514,1.112-14.457,6.769-23.452,16.151c-4.739,4.932-8.946,10.59-12.282,15.183  c-1.016,1.353-1.983,2.659-2.902,3.868c-1.063-0.096-2.128-0.194-3.143-0.241c-2.659-0.194-5.174-0.339-6.431-1.451  c-4.642-4.061-6.818-5.271-8.898-5.802C191.242,269.643,191.387,269.449,191.581,269.255z M183.942,284.873  c-0.532-2.659-0.532-5.222,0.677-7.253c1.208-2.127,2.804-3.916,4.449-5.706c2.176,0.29,3.771,0.726,9.284,5.561  c1.886,1.643,4.932,1.837,7.882,1.982c0.484,0.049,1.016,0.096,1.498,0.145c-1.498,1.837-2.804,3.192-3.771,3.578  c-1.645,0.677-4.208,0.194-6.916-0.339c-3.094-0.58-6.624-1.208-9.671-0.29C185.536,283.085,184.522,284.004,183.942,284.873z   M188.051,284.873c2.514-0.774,5.561-0.194,8.559,0.339c3.047,0.58,5.947,1.112,8.269,0.194c1.596-0.629,3.433-2.611,5.657-5.464  c1.547,0.339,2.853,0.871,3.626,1.982c1.112,1.596,1.402,3.288,0.967,5.029c-0.387,1.5-1.451,3.385-3.869,5.657  c-0.58-0.387-0.967-0.918-1.402-1.547c-1.063-1.5-2.418-3.385-6.479-3.916c-3.916-0.532-7.978,0.822-11.267,1.934  c-1.837,0.629-3.771,1.306-4.545,1.112c-0.822-0.194-1.886-1.498-1.934-2.804C185.585,285.889,186.938,285.212,188.051,284.873z   M198.35,300.83c-1.161-0.29-2.321-0.532-3.288-0.725c-2.369-0.435-3.916-0.774-5.126-2.128c-0.725-0.774-2.127-2.949-3.482-5.706  c0.194,0.096,0.387,0.194,0.581,0.241c1.402,0.339,3.384-0.29,5.851-1.161c3.047-1.016,6.769-2.273,10.155-1.837  c3.047,0.387,3.868,1.596,4.835,2.949c0.435,0.58,0.87,1.208,1.5,1.741C206.86,296.189,203.331,298.414,198.35,300.83z   M205.458,306.634c-1.498-1.934-2.757-3.433-4.304-4.497c4.351-2.224,7.833-4.449,10.493-6.624c0.049,0,0.049,0,0.096,0  c3.771,1.161,8.365,2.902,12.33,5.561c-0.241,0.096-0.435,0.241-0.725,0.339c-6.045,2.224-10.492,6.335-12.475,11.412  C208.505,310.454,206.813,308.326,205.458,306.634z M242.402,336.517c-4.594-2.176-21.759-14.459-29.593-21.759  c1.547-4.932,5.61-8.945,11.363-11.073c0.822-0.339,1.547-0.629,2.176-0.967c1.547,1.257,2.95,2.659,4.11,4.255  c1.79,2.514,3.337,5.706,4.98,9.091c3.047,6.19,6.19,12.62,11.314,15.425c9.477,5.222,14.167,9.719,13.732,10.831  c-0.532,1.547-2.755,5.029-11.557,4.449C248.155,341.739,245.931,338.161,242.402,336.517z M243.32,386.273  c-0.29,0.049-0.532-0.049-0.774-0.29c-0.726-0.822-1.063-3.047-0.096-5.996c0.096-0.29,0.194-0.677,0.339-1.112l11.461-3.771  C251.298,381.051,244.916,385.983,243.32,386.273z M255.408,372.153l-11.798,3.916c0.339-1.063,0.677-2.224,1.016-3.482  l11.751-3.626C255.99,370.123,255.651,371.284,255.408,372.153z M257.392,366.11l-11.992,3.675c0.339-1.306,0.726-2.659,1.063-4.013  l12.524-3.433C258.406,363.643,257.875,364.9,257.392,366.11z M260.341,359.486l-13.2,3.578c0.58-2.273,1.063-4.497,1.451-6.431  l12.765,0.918C261.018,358.18,260.679,358.808,260.341,359.486z M262.855,355.229l-13.877-1.015  c0.194-1.257,0.339-2.369,0.339-3.192c0-0.629-0.047-1.208-0.096-1.837c0.532,0.049,1.112,0.049,1.596,0.049  c3.482,0,5.948-0.629,7.737-1.547c1.982,2.902,4.545,4.206,6.528,4.835C264.306,353.247,263.581,354.166,262.855,355.229z   M267.561,329.336l4.569,1.12c0.6,0.151,1.195-0.17,1.415-0.735l1.994-5.131l2.236,6.305c0.12,0.337,0.382,0.602,0.716,0.727  l6.268,2.352l-4.101,2.769c-0.38,0.255-0.584,0.704-0.524,1.16l0.704,5.357l-2.835-3.152c-0.324-0.356-0.834-0.486-1.296-0.332  l-2.591,0.901c-0.602-1.028-1.59-1.852-2.729-2.512l0.126-3.397c0.009-0.287-0.082-0.571-0.262-0.799L267.561,329.336z   M251.445,323.752c4.4,7.447,6.431,10.831,11.122,14.12c0.145,0.097,0.339,0.194,0.532,0.194c2.272,0.29,8.849,1.741,9.236,4.642  c0.532,3.965-0.919,6.479-4.449,7.834c-0.871-0.097-4.739-0.484-7.35-4.255c1.306-1.112,1.934-2.321,2.224-3.143  c1.451-4.061-8.655-10.396-14.845-13.781c-2.902-1.596-5.174-4.739-7.204-8.365c0.241,0.049,0.435,0.049,0.677,0.049  c3.094,0,5.561-1.451,6.867-2.563C249.413,320.415,250.477,322.203,251.445,323.752z M241.676,308.132  c2.079,3.143,3.771,5.851,5.27,8.269c-0.919,0.918-3.965,2.998-7.639,1.934c-0.581-1.112-1.112-2.224-1.692-3.337  c-1.692-3.482-3.288-6.769-5.222-9.429c-1.112-1.596-2.514-2.998-4.013-4.255c2.176-1.886,2.514-3.916,2.611-5.657  C234.81,298.946,238.388,303.055,241.676,308.132z M228.717,293.867c-0.049,0.387-0.096,0.822-0.096,1.257  c-0.096,1.645-0.241,3.24-2.176,4.69c-4.061-2.902-8.753-4.884-12.765-6.19c1.837-1.886,3.047-3.771,3.626-5.608c0,0,0,0,0.049,0  C221.319,289.13,225.139,291.112,228.717,293.867z M218.08,281.151c-0.241,0.096-0.435,0.29-0.58,0.484  c-0.145,0.241-0.241,0.435-0.387,0.677c-0.241-0.629-0.58-1.208-0.967-1.79c-0.967-1.402-2.418-2.176-4.014-2.659  c0.726-0.918,1.451-1.886,2.224-2.949c3.482-4.787,7.494-10.155,12.089-14.941c7.882-8.22,18.422-13.636,21.953-15.28  c0.532,5.126,1.693,11.169,4.255,14.942C247.237,263.211,223.109,279.071,218.08,281.151z M315.807,258.268  c-1.298,6.03-1.3,8.519-0.756,10.596c-0.262-0.075-0.502-0.107-0.765-0.184c-4.184-1.162-8.566-2.379-13.719-2.396  c-8.919-0.026-30.822-4.515-40.791-9.821l-1.959-20.868c1.015-0.564,2.978-1.708,5.295-3.215  c2.193,1.658,12.935,9.356,25.503,12.667c6.612,1.75,13.6,2.683,19.236,3.37c1.677,0.231,3.288,0.444,4.791,0.66  c0.431,0.977,0.863,1.954,1.313,2.865C315.076,254.361,316.168,256.63,315.807,258.268z M324.978,270.709  c-2.447-0.024-4.785-0.551-7.148-1.12c-0.802-2.043-1.196-3.65,0.356-10.816c0.522-2.447-0.787-5.205-2.092-7.854  c-0.192-0.446-0.409-0.935-0.601-1.381c2.334,0.419,4.151,0.904,4.959,1.561c1.39,1.108,2.211,3.584,3.06,6.21  c0.995,2.987,2.158,6.378,4.44,8.596c1.357,1.348,2.653,1.791,3.695,1.876C329.582,269.536,327.341,270.78,324.978,270.709z   M333.026,265.08c-1.287,0.77-2.536-0.085-3.372-0.893c-1.897-1.823-2.868-4.769-3.858-7.648c-0.971-2.945-1.914-5.74-3.844-7.323  c-1.325-1.09-3.949-1.735-7.523-2.296c-0.455-1.517-0.624-2.917-0.026-4.133c0.856-1.747,2.194-2.822,3.928-3.287  c1.498-0.39,3.664-0.374,6.824,0.636c-0.056,0.695-0.334,1.291-0.672,1.977c-0.795,1.657-1.786,3.756-0.28,7.567  c1.436,3.683,4.591,6.577,7.159,8.913c1.441,1.301,2.972,2.664,3.178,3.434C334.769,262.841,334.144,264.404,333.026,265.08z   M340.196,256.178c-0.325,1.01-1.546,3.292-3.299,5.813c-0.01-0.216-0.019-0.432-0.07-0.625c-0.385-1.39-1.896-2.818-3.854-4.552  c-2.367-2.171-5.272-4.816-6.534-7.987c-1.14-2.85-0.482-4.156,0.232-5.66c0.296-0.662,0.635-1.348,0.795-2.156  c2.954,1.236,6.612,3.243,11.143,6.424c0.31,1.156,0.661,2.287,0.962,3.227C340.339,252.947,340.794,254.464,340.196,256.178z   M340.231,238.406c-0.963,2.249-1.665,4.076-1.843,5.946c-4.056-2.725-7.692-4.69-10.885-5.96c-0.024-0.042-0.024-0.042-0.046-0.085  c-0.816-3.86-1.523-8.723-1.122-13.48c0.201,0.165,0.422,0.264,0.647,0.47c4.879,4.205,10.631,6.1,16.032,5.369  C342.093,233.889,341.054,236.4,340.231,238.406z M348.43,191.603c0.327,5.072-2.081,26.042-4.662,36.435  c-5.064,1.041-10.543-0.562-15.197-4.561c-0.695-0.555-1.301-1.047-1.902-1.433c0.349-1.963,0.893-3.87,1.726-5.658  c1.33-2.784,3.369-5.686,5.531-8.766c3.933-5.667,8.03-11.537,7.995-17.379c-0.034-10.821,1.622-17.104,2.805-17.264  c1.611-0.286,5.735-0.031,9.499,7.945C350.204,184.037,348.154,187.719,348.43,191.603z M357.758,178.518  c-0.55,0.305-1.033,0.629-1.56,0.976c-0.216-0.489-0.497-0.996-0.732-1.418c-1.69-3.044-3.437-4.895-5.107-6.013  c1.575-3.142,1.472-6.016,1.06-8.054c1.01,0.324,2.166,0.512,3.447,0.631l5.847,12.627  C359.519,177.705,358.476,178.118,357.758,178.518z M363.014,176.428l-5.392-11.607c0.714-0.009,1.428-0.019,2.183-0.051  l9.535,9.805C367.073,175.171,364.892,175.828,363.014,176.428z M372.037,173.854l-9.08-9.284c1.423-0.126,2.781-0.271,4.071-0.436  l9.034,8.701C374.757,173.174,373.385,173.493,372.037,173.854z M378.89,172.152l-8.874-8.514c1.202-0.225,2.382-0.492,3.259-0.704  l9.15,8.415C381.333,171.569,380.153,171.837,378.89,172.152z M386.414,170.464c-0.3,0.056-0.686,0.159-1.137,0.244l-8.859-8.189  c6.632-0.307,14.042,2.879,15.07,4.134c0.184,0.23,0.216,0.489,0.122,0.817C391.244,168.502,389.463,169.877,386.414,170.464z"/>
<g>
</g>
<g>
</g>
<g>
</g>
<g>
</g>
<g>
</g>
<g>
</g>
<g>
</g>
<g>
</g>
<g>
</g>
<g>
</g>
<g>
</g>
<g>
</g>
<g>
</g>
<g>
</g>
<g>
</g>
</svg>
