<?xml version="1.0" encoding="iso-8859-1"?>
<!-- Generator: Adobe Illustrator 19.0.0, SVG Export Plug-In . SVG Version: 6.00 Build 0)  -->
<svg xmlns="http://www.w3.org/2000/svg" xmlns:xlink="http://www.w3.org/1999/xlink" version="1.1" id="Layer_1" x="0px" y="0px" viewBox="0 0 512 512" style="enable-background:new 0 0 512 512;" xml:space="preserve">
<path style="fill:#F5F5F5;" d="M482.435,296.744l-0.014-81.491l-0.005-27.164l-0.008-42.485  c-0.001-11.607-5.715-22.388-15.14-28.946c-0.812-0.565-1.642-1.11-2.509-1.611l-23.711-13.684l-22.198-12.81L400.98,78.24  l-94.999-54.826l-19.995-11.539l-12.39-7.151c-10.918-6.301-24.37-6.298-35.287,0.006l-12.307,7.108l-19.995,11.548L111.02,78.247  L81.076,95.544l-22.191,12.818l-11.697,6.756c-0.841,0.486-1.648,1.015-2.439,1.561c-9.465,6.556-15.201,17.365-15.2,29.001  l0.007,42.41l0.005,27.164l0.014,81.491l0.005,27.164l0.007,42.486c0.003,11.607,5.715,22.388,15.14,28.946  c0.812,0.565,1.642,1.11,2.509,1.611l23.377,13.491l22.198,12.811l18.204,10.506l94.999,54.826l19.995,11.539l12.39,7.151  c10.92,6.301,24.37,6.298,35.287-0.006l12.307-7.108l19.995-11.548l94.989-54.863l27.325-15.782l22.191-12.818l14.319-8.27  c0.841-0.486,1.648-1.015,2.439-1.561c9.465-6.556,15.201-17.365,15.2-29.001l-0.008-42.41L482.435,296.744z"/>
<path style="fill:#FF4B55;" d="M467.271,116.657c-0.812-0.565-1.642-1.11-2.509-1.611l-16.009-9.24L255.998,232.094L63.273,105.826  l-4.389,2.536l-11.697,6.756c-0.841,0.486-1.648,1.015-2.439,1.561c-5.9,4.088-10.35,9.827-12.865,16.389l187.63,122.93  L31.892,378.922c2.503,6.569,6.943,12.318,12.834,16.417c0.812,0.565,1.642,1.11,2.509,1.611l16.011,9.24L256,279.902  L448.724,406.17l1.767-1.021l14.319-8.27c0.841-0.486,1.648-1.013,2.439-1.562c5.9-4.086,10.35-9.827,12.865-16.389l-187.63-122.93  l187.62-122.924C477.603,126.504,473.161,120.756,467.271,116.657z"/>
<path style="fill:#FFE15A;" d="M286.074,109.746c0,0-3.165-4.749-7.914-1.583c0,0,5.491,3.958,1.781,8.113  c-3.926,4.398-9.324,0.096-9.662-3.055c1.44-0.11,2.578-1.3,2.578-2.768c0-1.541-1.248-2.789-2.789-2.789s-2.789,1.248-2.789,2.789  c0,1.202,0.766,2.218,1.832,2.611c-0.681,2.698-7.757,4.762-9.796,0.295c-2.297-5.031,1.336-9.3,6.232-8.706  c0,0-0.94-6.232-7.568-3.612c0,0,2.77-7.123-1.978-11.872c-4.749,4.749-1.978,11.872-1.978,11.872  c-6.628-2.622-7.568,3.612-7.568,3.612c4.897-0.594,8.529,3.675,6.233,8.706c-2.039,4.468-9.115,2.403-9.796-0.295  c1.067-0.391,1.832-1.407,1.832-2.611c0-1.541-1.248-2.789-2.789-2.789s-2.789,1.248-2.789,2.789c0,1.468,1.138,2.658,2.578,2.768  c-0.339,3.152-5.736,7.453-9.662,3.055c-3.71-4.155,1.781-8.113,1.781-8.113c-4.749-3.165-7.914,1.583-7.914,1.583  c-1.583-6.332-7.914-4.749-7.914-4.749c6.332,7.914,10.987,24.24,10.987,24.24h54.005c0,0,4.655-16.326,10.987-24.24  C293.988,104.998,287.656,103.414,286.074,109.746z"/>
<path style="fill:#FF4B55;" d="M283.001,129.237c-8.736-3.079-17.87-4.619-27.003-4.619c-9.132,0-18.266,1.54-27.003,4.619  c-14.165,62.061,27.003,78.648,27.003,78.648S297.165,191.298,283.001,129.237z"/>
<g>
	<path style="fill:#82AFFF;" d="M236.249,151.318c0,0-1.297-0.245-2.427,0.659c0,0-0.395-1.561,1.637-1.937   C237.49,149.663,236.249,151.318,236.249,151.318z"/>
	<path style="fill:#82AFFF;" d="M234.687,149.343c0,0-1.028-0.829-2.449-0.566c0,0,0.39-1.562,2.358-0.934   C236.562,148.471,234.687,149.343,234.687,149.343z"/>
	<path style="fill:#82AFFF;" d="M235.536,150.152c0,0-1.418-0.245-2.652,0.659c0,0-0.432-1.561,1.788-1.937   C236.893,148.496,235.536,150.152,235.536,150.152z"/>
	<path style="fill:#82AFFF;" d="M260.101,154.298c0,0-1.32,0.062-2.208,1.202c0,0-0.745-1.427,1.143-2.263   C260.926,152.401,260.101,154.298,260.101,154.298z"/>
	<path style="fill:#82AFFF;" d="M258.166,152.598c0,0-1.192-0.569-2.514,0.015c0,0,0.018-1.61,2.077-1.455   C259.791,151.315,258.166,152.598,258.166,152.598z"/>
	<path style="fill:#82AFFF;" d="M259.139,153.328c0,0-1.437,0.09-2.428,1.253c0,0-0.781-1.418,1.292-2.298   C260.076,151.405,259.139,153.328,259.139,153.328z"/>
	<path style="fill:#82AFFF;" d="M275.173,155.113c0,0-0.494,0-1.378,0.832c0,0-0.634-1.416,1.231-2.111   C276.891,153.14,275.173,155.113,275.173,155.113z"/>
	<path style="fill:#82AFFF;" d="M274.227,153.17c0,0-1.113-0.616-2.418-0.131c0,0,0.11-1.547,2.082-1.278   C275.862,152.03,274.227,153.17,274.227,153.17z"/>
	<path style="fill:#82AFFF;" d="M275.119,153.928c0,0-1.387,0.004-2.407,1.065c0,0-0.669-1.41,1.376-2.136   C276.132,152.132,275.119,153.928,275.119,153.928z"/>
	<path style="fill:#82AFFF;" d="M234.078,141.523c0,0-1.192-0.792-2.703-0.372c0,0,0.27-1.721,2.458-1.236   C236.021,140.402,234.078,141.523,234.078,141.523z"/>
	<path style="fill:#82AFFF;" d="M233.979,138.554c0,0-0.77-1.212-2.413-1.317c0,0,1.063-1.632,2.93-0.38   C236.365,138.107,233.979,138.554,233.979,138.554z"/>
	<path style="fill:#82AFFF;" d="M233.987,140.131c0,0-1.257-0.928-2.918-0.586c0,0,0.374-1.816,2.728-1.145   C236.15,139.071,233.987,140.131,233.987,140.131z"/>
</g>
<path style="fill:#FFE15A;" d="M271.364,145.562c2.088,0.056,4.571-0.771,4.965-2.934c0.454-2.486-1.673-3.743-4.533-3.63  c-2.086,0.082-7.368,1.281-11.153,1.147c-3.743-0.131-3.845-3.835,1.824-3.442c8.408,0.582,9.742-0.507,9.742-0.507  c-4.514,0.846-6.32-0.734-11.116-0.734s-5.716,3.322-3.78,5.135c2.169,2.032,10.043,0.677,12.132,0.282  c2.088-0.395,4.736-0.416,4.946,1.053c0.187,1.317-3.31,1.246-5.788,1.151c-3.945-0.151-9.684,0.919-14.788,1.182  c-4.254,0.219-4.846-0.98-5.815-2.208c0.226-0.409,0.356-0.865,0.356-1.346c0-0.244-0.039-0.479-0.101-0.707  c0.321-0.354,0.659-0.916,0.814-1.832c0,0-1.088-0.191-1.911,0.224c-0.659-0.52-1.532-0.845-2.498-0.845  c-0.967,0-1.84,0.325-2.498,0.845c-0.822-0.415-1.911-0.224-1.911-0.224c0.155,0.917,0.492,1.48,0.814,1.832  c-0.061,0.229-0.1,0.462-0.1,0.707c0,0.886,0.426,1.686,1.113,2.261c0.331,0.277,0.577,0.642,0.661,1.066l0.119,0.601  c0.053,0.264,0.222,0.47,0.442,0.596c-3.507-0.361-5.166-2.566-6.018-3.79c-0.961-1.382-1.561-4.439-3.028-4.777l-0.865,4.609  c0,0,1.854,4.288,5.304,6.037c3.894,1.974,4.626,2.031,5.906,2.596c0.15,0.677-2.407,1.091-5.004,0.565  c-1.812-0.367-4.254-2.999-5.645-2.81l1.621,3.6c4.401,2.784,8.248,2.843,11.548,2.257c2.332-0.414,3.219-2.313,3.373-3.125  c0.952-0.176,1.989-0.374,5.204-1.163c1.346-0.331,2.895-0.505,4.439-0.577c0.435,0.992,1.43,2.263,4.852,2.383  c0,0,0.827,1.317-1.993,1.053c-2.822-0.264-3.545-1.142-5.201-0.955l1.476,3.513c0,0,3.612-1.241,8.05-0.79  c0,0,0.827,0.226,1.317-0.489c0.489-0.715,0.264-1.128-0.187-1.768c-0.254-0.36-0.4-1.527-0.48-2.481  c1.626,0.409,6.614-0.604,8.418-0.452c1.806,0.15,2.069,2.257,1.656,2.972c-0.414,0.715-4.194,0.104-4.194,0.104l1.27,3.47  c0,0,0.381-0.184,1.345-1.091c0.784-0.737,3.988-0.489,3.988-1.053v-6.428c0-0.305-0.265-0.542-0.569-0.516  C272.811,146.741,271.364,145.562,271.364,145.562z"/>
<path style="fill:#FF4B55;" d="M243.177,143.277c0.106,0.207,0.185,0.432,0.227,0.671l0.106,0.601  c0.037,0.211,0.204,0.364,0.396,0.364h1.64c0.192,0,0.359-0.152,0.396-0.364l0.106-0.601c0.042-0.239,0.121-0.464,0.227-0.671  H243.177z"/>
<g>
	<path style="fill:#82AFFF;" d="M244.726,144.466c-0.379,0-0.674,0.045-0.634,0.572l0.152,2.248c0.026,0.344,0.234,0.605,0.48,0.605   c0.247,0,0.455-0.261,0.481-0.605l0.152-2.248C245.4,144.512,245.105,144.466,244.726,144.466z"/>
	<path style="fill:#82AFFF;" d="M239.844,173.52c0,0-1.058-0.2-1.979,0.537c0,0-0.322-1.273,1.335-1.58   C240.857,172.169,239.844,173.52,239.844,173.52z"/>
	<path style="fill:#82AFFF;" d="M238.571,171.909c0,0-0.839-0.676-1.998-0.462c0,0,0.317-1.275,1.923-0.762   C240.1,171.198,238.571,171.909,238.571,171.909z"/>
	<path style="fill:#82AFFF;" d="M239.264,172.568c0,0-1.157-0.2-2.163,0.537c0,0-0.352-1.273,1.458-1.58   C240.37,171.218,239.264,172.568,239.264,172.568z"/>
	<path style="fill:#82AFFF;" d="M259.301,175.951c0,0-1.076,0.051-1.801,0.98c0,0-0.607-1.165,0.934-1.846   C259.973,174.404,259.301,175.951,259.301,175.951z"/>
	<path style="fill:#82AFFF;" d="M257.723,174.564c0,0-0.972-0.464-2.051,0.012c0,0,0.014-1.313,1.695-1.186   C259.047,173.518,257.723,174.564,257.723,174.564z"/>
	<path style="fill:#82AFFF;" d="M258.516,175.16c0,0-1.172,0.074-1.981,1.022c0,0-0.637-1.157,1.053-1.874   C259.28,173.59,258.516,175.16,258.516,175.16z"/>
	<path style="fill:#82AFFF;" d="M271.595,176.616c0,0-0.402,0-1.125,0.679c0,0-0.517-1.155,1.005-1.721   C272.996,175.006,271.595,176.616,271.595,176.616z"/>
	<path style="fill:#82AFFF;" d="M270.823,175.03c0,0-0.909-0.502-1.973-0.106c0,0,0.09-1.262,1.698-1.042   C272.156,174.101,270.823,175.03,270.823,175.03z"/>
	<path style="fill:#82AFFF;" d="M271.55,175.65c0,0-1.131,0.002-1.963,0.869c0,0-0.546-1.15,1.122-1.742   C272.376,174.184,271.55,175.65,271.55,175.65z"/>
	<path style="fill:#82AFFF;" d="M238.073,165.531c0,0-0.972-0.646-2.204-0.304c0,0,0.22-1.405,2.006-1.008   C239.659,164.615,238.073,165.531,238.073,165.531z"/>
	<path style="fill:#82AFFF;" d="M237.993,163.108c0,0-0.629-0.988-1.968-1.075c0,0,0.867-1.331,2.391-0.31   C239.939,162.744,237.993,163.108,237.993,163.108z"/>
	<path style="fill:#82AFFF;" d="M237.999,164.395c0,0-1.026-0.757-2.381-0.477c0,0,0.304-1.481,2.224-0.933   C239.764,163.53,237.999,164.395,237.999,164.395z"/>
</g>
<path style="fill:#FFE15A;" d="M268.489,168.825c1.703,0.046,3.728-0.629,4.05-2.393c0.37-2.027-1.366-3.053-3.698-2.96  c-1.702,0.067-6.011,1.045-9.098,0.936c-3.053-0.107-3.137-3.128,1.488-2.808c6.858,0.476,7.947-0.415,7.947-0.415  c-3.681,0.691-5.155-0.599-9.068-0.599s-4.662,2.709-3.084,4.189c1.77,1.657,8.193,0.552,9.896,0.23s3.864-0.34,4.035,0.86  c0.154,1.073-2.701,1.016-4.721,0.938c-3.218-0.124-7.898,0.75-12.063,0.963c-3.47,0.179-3.953-0.799-4.742-1.801  c0.185-0.334,0.29-0.705,0.29-1.098c0-0.199-0.033-0.391-0.082-0.576c0.262-0.287,0.537-0.747,0.664-1.495  c0,0-0.889-0.156-1.558,0.182c-0.537-0.424-1.25-0.689-2.038-0.689c-0.789,0-1.501,0.265-2.038,0.689  c-0.67-0.339-1.558-0.182-1.558-0.182c0.126,0.747,0.401,1.207,0.664,1.495c-0.05,0.186-0.082,0.377-0.082,0.576  c0,0.722,0.349,1.376,0.909,1.843c0.27,0.226,0.471,0.524,0.539,0.87l0.097,0.491c0.042,0.215,0.181,0.384,0.361,0.486  c-2.86-0.295-4.214-2.092-4.909-3.092c-0.785-1.127-1.273-3.62-2.471-3.896l-0.706,3.759c0,0,1.513,3.498,4.326,4.925  c3.175,1.611,3.774,1.657,4.817,2.117c0.122,0.552-1.963,0.89-4.081,0.46c-1.478-0.3-3.469-2.446-4.605-2.293l1.322,2.937  c3.59,2.271,6.728,2.318,9.42,1.841c1.902-0.337,2.626-1.886,2.751-2.549c0.776-0.144,1.622-0.305,4.245-0.949  c1.098-0.27,2.362-0.412,3.622-0.471c0.355,0.81,1.167,1.847,3.958,1.943c0,0,0.675,1.073-1.626,0.86  c-2.302-0.215-2.892-0.932-4.243-0.779l1.205,2.865c0,0,2.945-1.012,6.567-0.645c0,0,0.675,0.184,1.073-0.399  c0.399-0.584,0.215-0.921-0.154-1.442c-0.207-0.294-0.326-1.246-0.392-2.024c1.326,0.334,5.396-0.492,6.866-0.37  c1.473,0.122,1.687,1.841,1.35,2.424c-0.337,0.582-3.422,0.085-3.422,0.085l1.036,2.83c0,0,0.311-0.15,1.097-0.89  c0.639-0.601,3.253-0.399,3.253-0.86V169.7c0-0.249-0.216-0.442-0.464-0.421C269.668,169.786,268.489,168.825,268.489,168.825z"/>
<path style="fill:#FF4B55;" d="M245.496,166.961c0.086,0.17,0.151,0.354,0.185,0.547l0.087,0.491  c0.03,0.171,0.166,0.296,0.322,0.296h1.337c0.156,0,0.292-0.125,0.322-0.296l0.087-0.491c0.034-0.195,0.099-0.379,0.185-0.547  H245.496z"/>
<g>
	<path style="fill:#82AFFF;" d="M246.76,167.93c-0.309,0-0.549,0.037-0.516,0.467l0.125,1.833c0.021,0.281,0.19,0.494,0.392,0.494   c0.201,0,0.371-0.212,0.392-0.494l0.125-1.833C247.308,167.968,247.068,167.93,246.76,167.93z"/>
	<path style="fill:#82AFFF;" d="M243.843,191.167c0,0-0.792-0.15-1.482,0.402c0,0-0.241-0.953,1-1.183   C244.601,190.156,243.843,191.167,243.843,191.167z"/>
	<path style="fill:#82AFFF;" d="M242.888,189.961c0,0-0.627-0.506-1.496-0.346c0,0,0.239-0.955,1.44-0.57   C244.034,189.427,242.888,189.961,242.888,189.961z"/>
	<path style="fill:#82AFFF;" d="M243.408,190.454c0,0-0.866-0.15-1.62,0.402c0,0-0.264-0.953,1.092-1.183   C244.236,189.443,243.408,190.454,243.408,190.454z"/>
	<path style="fill:#82AFFF;" d="M258.411,192.986c0,0-0.806,0.039-1.348,0.734c0,0-0.455-0.872,0.699-1.382   C258.915,191.828,258.411,192.986,258.411,192.986z"/>
	<path style="fill:#82AFFF;" d="M257.229,191.948c0,0-0.729-0.347-1.536,0.01c0,0,0.011-0.983,1.268-0.889   C258.221,191.164,257.229,191.948,257.229,191.948z"/>
	<path style="fill:#82AFFF;" d="M257.823,192.394c0,0-0.877,0.055-1.483,0.766c0,0-0.477-0.867,0.789-1.403   C258.395,191.219,257.823,192.394,257.823,192.394z"/>
	<path style="fill:#82AFFF;" d="M267.616,193.483c0,0-0.301,0-0.842,0.509c0,0-0.387-0.865,0.752-1.288   C268.665,192.279,267.616,193.483,267.616,193.483z"/>
	<path style="fill:#82AFFF;" d="M267.038,192.296c0,0-0.68-0.376-1.477-0.08c0,0,0.067-0.945,1.272-0.781   C268.036,191.601,267.038,192.296,267.038,192.296z"/>
	<path style="fill:#82AFFF;" d="M267.583,192.76c0,0-0.847,0.002-1.47,0.651c0,0-0.409-0.861,0.84-1.305   C268.201,191.664,267.583,192.76,267.583,192.76z"/>
	<path style="fill:#82AFFF;" d="M242.517,185.185c0,0-0.729-0.484-1.651-0.227c0,0,0.165-1.051,1.502-0.755   C243.704,184.498,242.517,185.185,242.517,185.185z"/>
	<path style="fill:#82AFFF;" d="M242.457,183.37c0,0-0.47-0.74-1.473-0.805c0,0,0.65-0.996,1.79-0.232   C243.914,183.098,242.457,183.37,242.457,183.37z"/>
	<path style="fill:#82AFFF;" d="M242.461,184.333c0,0-0.769-0.567-1.782-0.357c0,0,0.227-1.108,1.666-0.699   C243.783,183.686,242.461,184.333,242.461,184.333z"/>
</g>
<path style="fill:#FFE15A;" d="M265.289,187.651c1.275,0.035,2.792-0.471,3.033-1.792c0.277-1.518-1.022-2.286-2.768-2.217  c-1.275,0.05-4.5,0.782-6.812,0.701c-2.286-0.08-2.348-2.342,1.115-2.102c5.135,0.356,5.951-0.31,5.951-0.31  c-2.757,0.517-3.86-0.449-6.789-0.449s-3.492,2.028-2.309,3.137c1.325,1.241,6.135,0.414,7.409,0.172s2.893-0.254,3.022,0.644  c0.115,0.804-2.022,0.761-3.535,0.702c-2.409-0.092-5.913,0.561-9.033,0.722c-2.598,0.134-2.96-0.599-3.552-1.348  c0.139-0.25,0.217-0.527,0.217-0.822c0-0.149-0.024-0.292-0.061-0.431c0.196-0.216,0.402-0.56,0.497-1.12  c0,0-0.665-0.116-1.167,0.136c-0.402-0.317-0.936-0.516-1.526-0.516s-1.123,0.199-1.526,0.516c-0.502-0.254-1.167-0.136-1.167-0.136  c0.095,0.56,0.301,0.904,0.497,1.12c-0.037,0.139-0.061,0.282-0.061,0.431c0,0.541,0.261,1.03,0.68,1.381  c0.202,0.169,0.352,0.392,0.404,0.651l0.072,0.367c0.031,0.161,0.136,0.287,0.27,0.364c-2.142-0.221-3.155-1.567-3.675-2.314  c-0.587-0.844-0.953-2.711-1.849-2.918l-0.529,2.814c0,0,1.132,2.619,3.239,3.688c2.378,1.206,2.825,1.241,3.607,1.586  c0.092,0.414-1.471,0.666-3.055,0.345c-1.107-0.225-2.598-1.832-3.448-1.717l0.99,2.199c2.688,1.701,5.037,1.736,7.053,1.378  c1.425-0.252,1.966-1.412,2.059-1.908c0.581-0.107,1.215-0.229,3.178-0.711c0.822-0.201,1.768-0.309,2.712-0.352  c0.266,0.606,0.874,1.382,2.963,1.455c0,0,0.506,0.805-1.217,0.644c-1.723-0.161-2.166-0.697-3.177-0.582l0.902,2.146  c0,0,2.206-0.759,4.916-0.482c0,0,0.505,0.137,0.804-0.299c0.299-0.436,0.161-0.69-0.115-1.08c-0.155-0.22-0.245-0.932-0.294-1.516  c0.993,0.25,4.04-0.369,5.141-0.276c1.103,0.092,1.263,1.378,1.011,1.814c-0.252,0.436-2.562,0.064-2.562,0.064l0.775,2.119  c0,0,0.232-0.112,0.821-0.666c0.479-0.45,2.436-0.299,2.436-0.644v-3.926c0-0.186-0.161-0.331-0.347-0.315  C266.173,188.371,265.289,187.651,265.289,187.651z"/>
<path style="fill:#FF4B55;" d="M248.074,186.255c0.065,0.127,0.112,0.265,0.139,0.41l0.065,0.367  c0.023,0.129,0.125,0.222,0.241,0.222h1.001c0.117,0,0.219-0.094,0.241-0.222l0.065-0.367c0.026-0.145,0.075-0.284,0.139-0.41  H248.074z"/>
<path style="fill:#82AFFF;" d="M249.02,186.982c-0.231,0-0.411,0.027-0.386,0.35l0.094,1.372c0.016,0.21,0.142,0.37,0.294,0.37  c0.151,0,0.277-0.16,0.294-0.37l0.094-1.372C249.431,187.009,249.251,186.982,249.02,186.982z"/>
<g>
</g>
<g>
</g>
<g>
</g>
<g>
</g>
<g>
</g>
<g>
</g>
<g>
</g>
<g>
</g>
<g>
</g>
<g>
</g>
<g>
</g>
<g>
</g>
<g>
</g>
<g>
</g>
<g>
</g>
</svg>
