<?xml version="1.0" encoding="iso-8859-1"?>
<!-- Generator: Adobe Illustrator 19.0.0, SVG Export Plug-In . SVG Version: 6.00 Build 0)  -->
<svg xmlns="http://www.w3.org/2000/svg" xmlns:xlink="http://www.w3.org/1999/xlink" version="1.1" id="Layer_1" x="0px" y="0px" viewBox="0 0 511.999 511.999" style="enable-background:new 0 0 511.999 511.999;" xml:space="preserve">
<path style="fill:#FFE15A;" d="M29.588,366.395l-0.036-220.713c-0.003-12.607,6.722-24.257,17.639-30.563L238.314,4.731  c10.917-6.306,24.368-6.307,35.286-0.006L464.761,115.05c10.918,6.302,17.646,17.95,17.649,30.557l0.036,220.713  c0.003,12.607-6.722,24.257-17.639,30.563L273.683,507.269c-10.917,6.306-24.368,6.307-35.287,0.006L47.237,396.951  C36.317,390.649,29.59,379.001,29.588,366.395z"/>
<g>
	<path style="fill:#73AF00;" d="M381.35,66.91L273.601,4.726c-10.918-6.302-24.37-6.3-35.286,0.006L130.653,66.913l125.346,140.253   L381.35,66.91z"/>
	<path style="fill:#73AF00;" d="M130.65,445.09l107.748,62.185c10.918,6.302,24.37,6.299,35.287-0.006l107.662-62.182   L255.999,304.835L130.65,445.09z"/>
</g>
<g>
	<path style="fill:#464655;" d="M438.918,411.836l25.892-14.955c10.917-6.306,17.64-17.955,17.639-30.563l-0.036-220.713   c-0.003-12.607-6.729-24.255-17.649-30.557l-25.827-14.906L299.643,256L438.918,411.836z"/>
	<path style="fill:#464655;" d="M73.082,100.164l-25.893,14.955c-10.917,6.306-17.64,17.955-17.639,30.563l0.036,220.713   c0.003,12.607,6.729,24.255,17.649,30.557l25.827,14.906l139.292-155.856L73.082,100.164z"/>
</g>
<g>
</g>
<g>
</g>
<g>
</g>
<g>
</g>
<g>
</g>
<g>
</g>
<g>
</g>
<g>
</g>
<g>
</g>
<g>
</g>
<g>
</g>
<g>
</g>
<g>
</g>
<g>
</g>
<g>
</g>
</svg>
