<?xml version="1.0" encoding="iso-8859-1"?>
<!-- Generator: Adobe Illustrator 19.0.0, SVG Export Plug-In . SVG Version: 6.00 Build 0)  -->
<svg xmlns="http://www.w3.org/2000/svg" xmlns:xlink="http://www.w3.org/1999/xlink" version="1.1" id="Layer_1" x="0px" y="0px" viewBox="0 0 512 512" style="enable-background:new 0 0 512 512;" xml:space="preserve">
<path style="fill:#F5F5F5;" d="M482.45,341.804l-0.029-171.625l-0.004-24.585c0-0.71-0.029-1.415-0.07-2.117  c-0.013-0.209-0.031-0.416-0.047-0.624c-0.04-0.519-0.092-1.036-0.155-1.55c-0.025-0.204-0.047-0.409-0.076-0.611  c-0.097-0.691-0.207-1.378-0.345-2.058c-0.152-0.756-0.329-1.505-0.529-2.246c0-0.001,0-0.001-0.001-0.003  c-0.229-0.846-0.497-1.677-0.787-2.501c-0.091-0.259-0.194-0.514-0.291-0.77c-0.215-0.569-0.442-1.133-0.687-1.69  c-0.124-0.281-0.25-0.56-0.381-0.839c-0.259-0.549-0.532-1.088-0.819-1.623c-0.13-0.242-0.254-0.487-0.389-0.726  c-0.426-0.754-0.872-1.495-1.352-2.214c-0.003-0.004-0.004-0.007-0.006-0.011c-0.422-0.634-0.867-1.253-1.33-1.86  c-0.001-0.001-0.001-0.001-0.001-0.001c-0.495-0.646-1.016-1.272-1.555-1.885l0,0c-0.369-0.419-0.755-0.825-1.143-1.226  c-0.386-0.394-0.782-0.779-1.185-1.156c-0.734-0.689-1.492-1.352-2.288-1.98l-0.001-0.001h-0.001  c-0.644-0.507-1.306-0.994-1.987-1.461c-0.023-0.015-0.045-0.032-0.067-0.049c-0.697-0.476-1.416-0.93-2.154-1.356L343.556,45.084  L273.6,4.708c-0.341-0.197-0.692-0.369-1.038-0.554s-0.687-0.381-1.039-0.554c-2.103-1.034-4.284-1.846-6.51-2.437  c-0.742-0.196-1.488-0.369-2.239-0.516c-0.857-0.169-1.721-0.296-2.587-0.4c-0.271-0.032-0.544-0.052-0.816-0.08  c-0.605-0.059-1.212-0.105-1.82-0.132c-0.305-0.014-0.611-0.024-0.916-0.03C256.028-0.006,255.42,0,254.813,0.02  c-0.274,0.009-0.546,0.011-0.819,0.026c-0.866,0.047-1.731,0.12-2.592,0.231c-0.004,0-0.006,0-0.01,0.001  c-0.681,0.089-1.36,0.204-2.036,0.332c-0.199,0.037-0.396,0.081-0.594,0.122c-0.501,0.105-1.001,0.22-1.498,0.346  c-0.196,0.05-0.394,0.097-0.59,0.151c-1.335,0.364-2.653,0.807-3.948,1.332c-0.189,0.076-0.376,0.157-0.564,0.237  c-0.48,0.204-0.956,0.419-1.428,0.645c-0.185,0.089-0.37,0.175-0.554,0.267c-0.631,0.315-1.257,0.645-1.872,1L111.089,78.194  l-63.908,36.911c-4.094,2.364-7.598,5.481-10.379,9.118c-4.635,6.061-7.261,13.567-7.259,21.446l0.036,220.72  c0.001,9.455,3.787,18.372,10.285,24.896c2.166,2.176,4.634,4.085,7.364,5.66l63.852,36.851l127.315,73.477  c0.682,0.394,1.375,0.764,2.076,1.107c2.103,1.034,4.284,1.846,6.51,2.437c0.371,0.099,0.746,0.172,1.12,0.259  c0.374,0.086,0.745,0.184,1.12,0.259c0.002,0,0.006,0.001,0.009,0.001c0.672,0.132,1.348,0.239,2.026,0.331  c0.201,0.027,0.405,0.05,0.606,0.074c0.505,0.06,1.011,0.109,1.517,0.147c0.202,0.015,0.404,0.033,0.606,0.044  c0.685,0.04,1.371,0.066,2.056,0.066c0.761,0,1.523-0.025,2.283-0.074c0.361-0.024,0.72-0.071,1.08-0.105  c0.399-0.039,0.799-0.065,1.196-0.116c0.681-0.089,1.36-0.204,2.036-0.332c0.199-0.038,0.396-0.081,0.595-0.122  c0.5-0.104,1-0.22,1.496-0.346c0.199-0.05,0.396-0.099,0.594-0.152c1.333-0.364,2.649-0.807,3.943-1.331  c0.19-0.077,0.38-0.16,0.569-0.24c0.477-0.204,0.952-0.417,1.423-0.642c0.186-0.089,0.372-0.176,0.559-0.269  c0.63-0.315,1.256-0.644,1.871-0.999l191.129-110.391c1.173-0.677,2.287-1.428,3.36-2.223c1.423-1.056,2.767-2.198,4.003-3.439  c1.082-1.089,2.09-2.242,3.017-3.454c0.53-0.692,1.026-1.41,1.502-2.138c0.149-0.227,0.287-0.462,0.431-0.694  c0.321-0.517,0.631-1.041,0.925-1.573c0.147-0.267,0.291-0.536,0.431-0.807c0.28-0.54,0.544-1.088,0.795-1.643  c0.112-0.249,0.231-0.494,0.339-0.745c0.341-0.8,0.661-1.611,0.944-2.436c0.001-0.004,0.003-0.008,0.004-0.011  c0.281-0.825,0.524-1.663,0.745-2.511c0.07-0.266,0.126-0.536,0.189-0.804c0.141-0.597,0.269-1.198,0.379-1.806  c0.055-0.305,0.106-0.611,0.154-0.917c0.094-0.61,0.169-1.225,0.23-1.842c0.027-0.279,0.061-0.556,0.084-0.836  c0.067-0.886,0.111-1.777,0.111-2.674c0-0.003,0-0.006,0-0.01L482.45,341.804z"/>
<path style="fill:#464655;" d="M259.373,0.167c-0.605-0.059-1.212-0.105-1.82-0.132c-0.305-0.014-0.611-0.024-0.916-0.03  C256.03-0.006,255.422,0,254.815,0.02c-0.274,0.009-0.546,0.011-0.819,0.026c-0.866,0.047-1.731,0.12-2.592,0.231  c-0.004,0-0.006,0-0.01,0.001c-0.681,0.089-1.36,0.204-2.036,0.332c-0.199,0.037-0.396,0.081-0.594,0.122  c-0.501,0.105-1.001,0.22-1.498,0.346c-0.196,0.05-0.394,0.097-0.59,0.151c-1.335,0.364-2.653,0.807-3.948,1.332  c-0.189,0.076-0.376,0.157-0.564,0.237c-0.48,0.204-0.956,0.419-1.428,0.645c-0.185,0.089-0.37,0.175-0.554,0.267  c-0.631,0.315-1.257,0.645-1.872,1L111.089,78.194l38.684,59.069l60.965,32.916H482.42l-0.004-24.585c0-0.71-0.029-1.415-0.07-2.117  c-0.013-0.209-0.031-0.416-0.047-0.624c-0.04-0.519-0.092-1.036-0.155-1.55c-0.025-0.204-0.047-0.409-0.076-0.611  c-0.097-0.691-0.207-1.378-0.345-2.058c-0.152-0.756-0.329-1.505-0.529-2.246c0-0.001,0-0.001-0.001-0.003  c-0.229-0.846-0.497-1.677-0.787-2.501c-0.091-0.259-0.194-0.514-0.291-0.77c-0.215-0.569-0.442-1.133-0.687-1.69  c-0.124-0.281-0.25-0.56-0.381-0.839c-0.259-0.549-0.532-1.088-0.819-1.623c-0.13-0.242-0.254-0.487-0.389-0.726  c-0.426-0.754-0.872-1.495-1.352-2.214c-0.003-0.004-0.004-0.007-0.006-0.011c-0.422-0.634-0.867-1.253-1.33-1.86  c-0.001-0.001-0.001-0.001-0.001-0.001c-0.495-0.646-1.016-1.272-1.555-1.885l0,0c-0.369-0.419-0.755-0.825-1.143-1.226  c-0.386-0.394-0.782-0.779-1.185-1.156c-0.734-0.689-1.492-1.352-2.288-1.98l-0.001-0.001h-0.001  c-0.644-0.507-1.306-0.994-1.987-1.461c-0.023-0.015-0.045-0.032-0.067-0.049c-0.697-0.476-1.416-0.93-2.154-1.356L343.556,45.084  L273.6,4.708c-0.341-0.197-0.692-0.369-1.038-0.554s-0.687-0.381-1.039-0.554c-2.103-1.034-4.284-1.846-6.51-2.437  c-0.742-0.196-1.488-0.369-2.239-0.516c-0.857-0.169-1.721-0.296-2.587-0.4C259.918,0.213,259.646,0.193,259.373,0.167z"/>
<path style="fill:#73AF00;" d="M476.696,385.623c0.149-0.227,0.287-0.462,0.431-0.694c0.321-0.517,0.631-1.041,0.925-1.573  c0.147-0.267,0.291-0.536,0.431-0.807c0.28-0.54,0.544-1.089,0.795-1.643c0.112-0.249,0.231-0.494,0.339-0.745  c0.341-0.8,0.661-1.611,0.944-2.436c0.001-0.004,0.003-0.008,0.004-0.011c0.281-0.825,0.524-1.663,0.745-2.511  c0.07-0.266,0.126-0.536,0.189-0.804c0.141-0.597,0.269-1.198,0.379-1.806c0.055-0.305,0.106-0.611,0.154-0.917  c0.094-0.61,0.169-1.225,0.23-1.842c0.027-0.279,0.061-0.556,0.084-0.836c0.067-0.886,0.111-1.777,0.111-2.674  c0-0.003,0-0.006,0-0.01l-0.004-24.51H210.739l-60.965,35.401l-38.693,56.593l127.315,73.477c0.682,0.394,1.375,0.764,2.076,1.107  c2.103,1.034,4.284,1.846,6.51,2.437c0.371,0.099,0.746,0.172,1.12,0.259c0.374,0.086,0.745,0.184,1.12,0.259  c0.003,0,0.006,0.001,0.009,0.001c0.672,0.132,1.348,0.239,2.026,0.331c0.201,0.027,0.405,0.05,0.606,0.074  c0.505,0.06,1.011,0.109,1.517,0.147c0.202,0.015,0.404,0.032,0.606,0.044c0.685,0.04,1.371,0.066,2.056,0.066  c0.761,0,1.523-0.025,2.283-0.074c0.361-0.024,0.72-0.071,1.08-0.105c0.399-0.039,0.799-0.065,1.196-0.116  c0.681-0.089,1.36-0.204,2.036-0.332c0.199-0.038,0.396-0.081,0.595-0.122c0.5-0.104,1-0.22,1.496-0.346  c0.199-0.05,0.396-0.099,0.594-0.152c1.333-0.364,2.649-0.807,3.943-1.331c0.19-0.077,0.38-0.16,0.569-0.24  c0.477-0.204,0.952-0.417,1.423-0.642c0.186-0.089,0.372-0.176,0.559-0.269c0.63-0.315,1.256-0.644,1.871-0.999l191.128-110.393  c1.173-0.677,2.287-1.428,3.36-2.223c1.423-1.056,2.767-2.198,4.003-3.439c1.082-1.089,2.09-2.242,3.017-3.454  C475.724,387.067,476.22,386.351,476.696,385.623z"/>
<path style="fill:#FF4B55;" d="M210.739,341.804l87.02-80.328c2.556-2.359,2.556-8.61,0-10.97l-87.02-80.328l-99.65-91.984  l-63.908,36.911c-4.094,2.364-7.598,5.481-10.379,9.118c-4.635,6.061-7.261,13.567-7.259,21.446l0.036,220.72  c0.001,9.455,3.787,18.372,10.285,24.896c2.166,2.176,4.634,4.085,7.364,5.66l63.852,36.851L210.739,341.804z"/>
<path style="fill:#F5F5F5;" d="M128.065,224.17l7.311,15.859l16.957-4.171c1.059-0.26,1.936,0.84,1.447,1.815l-7.841,15.604  l13.834,10.657c0.864,0.665,0.551,2.037-0.516,2.262l-17.088,3.599l0.294,17.46c0.019,1.09-1.25,1.701-2.091,1.006l-13.468-11.116  l-13.468,11.116c-0.841,0.694-2.108,0.084-2.091-1.006l0.294-17.461l-17.088-3.599c-1.067-0.225-1.38-1.596-0.516-2.262  l13.834-10.657l-7.841-15.604c-0.49-0.975,0.387-2.074,1.447-1.815l16.957,4.171l7.311-15.859  C126.202,223.181,127.609,223.181,128.065,224.17z"/>
<g>
</g>
<g>
</g>
<g>
</g>
<g>
</g>
<g>
</g>
<g>
</g>
<g>
</g>
<g>
</g>
<g>
</g>
<g>
</g>
<g>
</g>
<g>
</g>
<g>
</g>
<g>
</g>
<g>
</g>
</svg>
