<?xml version="1.0" encoding="iso-8859-1"?>
<!-- Generator: Adobe Illustrator 19.0.0, SVG Export Plug-In . SVG Version: 6.00 Build 0)  -->
<svg xmlns="http://www.w3.org/2000/svg" xmlns:xlink="http://www.w3.org/1999/xlink" version="1.1" id="Layer_1" x="0px" y="0px" viewBox="0 0 512.001 512.001" style="enable-background:new 0 0 512.001 512.001;" xml:space="preserve">
<path style="fill:#F5F5F5;" d="M29.589,366.394l-0.036-220.713c-0.003-12.607,6.722-24.257,17.639-30.562L238.315,4.73  c10.917-6.305,24.368-6.307,35.287-0.006l191.161,110.325c10.919,6.302,17.646,17.95,17.649,30.557l0.036,220.713  c0.003,12.607-6.722,24.257-17.639,30.563L273.684,507.269c-10.917,6.306-24.368,6.307-35.287,0.006L47.238,396.951  C36.318,390.649,29.591,379.001,29.589,366.394z"/>
<path style="fill:#73AF00;" d="M29.589,366.394c0.003,12.607,6.729,24.255,17.649,30.557l191.161,110.325  c10.918,6.302,24.37,6.299,35.287-0.006L464.81,396.881c10.917-6.306,17.64-17.955,17.639-30.562l-0.003-15.302H29.586  L29.589,366.394z"/>
<path style="fill:#464655;" d="M482.411,145.606c-0.003-12.607-6.729-24.255-17.649-30.557L273.601,4.725  c-10.918-6.302-24.37-6.3-35.287,0.006L47.19,115.118c-10.917,6.306-17.64,17.955-17.639,30.562l0.003,15.302h452.86  L482.411,145.606z"/>
<polygon style="fill:#C8414B;" points="29.581,323.87 482.441,323.87 482.419,188.131 29.559,188.131 "/>
<g>
	<path style="fill:#F5F5F5;" d="M309.531,171.762c8.05-16.599,16.449-55.051,16.449-55.051s-24.997,30.402-33.048,47   c-1.687,3.479-0.972,7.48,1.466,10.187L202.705,362.95l6.225,3.019l91.695-189.053   C304.259,177.156,307.844,175.241,309.531,171.762z"/>
	<path style="fill:#F5F5F5;" d="M202.469,171.762c-8.05-16.599-16.449-55.051-16.449-55.051s24.997,30.402,33.047,47   c1.687,3.479,0.972,7.48-1.466,10.187l91.695,189.053l-6.225,3.019l-91.695-189.053   C207.741,177.156,204.157,175.241,202.469,171.762z"/>
</g>
<path style="fill:#C8414B;" d="M305.986,256c0,55.214-40.784,99.972-49.986,99.972c-9.202,0-49.986-44.759-49.986-99.972  s40.784-99.972,49.986-99.972C265.202,156.027,305.986,200.787,305.986,256z"/>
<g>
	<path style="fill:#464655;" d="M295.989,304.234c5.888-14.305,9.997-30.737,9.997-48.234s-4.109-33.928-9.997-48.234   c-5.888,14.305-9.997,30.737-9.997,48.234S290.101,289.929,295.989,304.234z"/>
	<path style="fill:#464655;" d="M216.011,207.767c-5.888,14.305-9.997,30.737-9.997,48.234c0,17.498,4.109,33.928,9.997,48.234   c5.888-14.305,9.997-30.737,9.997-48.234C226.008,238.502,221.901,222.071,216.011,207.767z"/>
</g>
<g>
	<ellipse style="fill:#F5F5F5;" cx="256" cy="256" rx="9.997" ry="14.996"/>
	<path style="fill:#F5F5F5;" d="M257.5,156.027v84.977c2.725-5.673,7.56-22.44,7.56-42.488   C265.06,178.466,260.226,161.702,257.5,156.027z"/>
	<path style="fill:#F5F5F5;" d="M254.5,156.027c-2.725,5.673-7.56,22.439-7.56,42.488c0,20.048,4.835,36.815,7.56,42.488V156.027z"/>
	<path style="fill:#F5F5F5;" d="M257.5,270.995v84.977c2.725-5.673,7.56-22.44,7.56-42.488   C265.06,293.434,260.226,276.67,257.5,270.995z"/>
	<path style="fill:#F5F5F5;" d="M254.5,270.995c-2.725,5.673-7.56,22.439-7.56,42.488c0,20.048,4.835,36.815,7.56,42.488V270.995z"/>
</g>
<g>
</g>
<g>
</g>
<g>
</g>
<g>
</g>
<g>
</g>
<g>
</g>
<g>
</g>
<g>
</g>
<g>
</g>
<g>
</g>
<g>
</g>
<g>
</g>
<g>
</g>
<g>
</g>
<g>
</g>
</svg>
