<?xml version="1.0" encoding="iso-8859-1"?>
<!-- Generator: Adobe Illustrator 19.0.0, SVG Export Plug-In . SVG Version: 6.00 Build 0)  -->
<svg xmlns="http://www.w3.org/2000/svg" xmlns:xlink="http://www.w3.org/1999/xlink" version="1.1" id="Layer_1" x="0px" y="0px" viewBox="0 0 512.005 512.005" style="enable-background:new 0 0 512.005 512.005;" xml:space="preserve">
<path style="fill:#F5F5F5;" d="M472.648,390.696c3.86-4.034,6.711-8.924,8.313-14.267c0.034-0.111,0.062-0.224,0.095-0.336  c0.182-0.634,0.349-1.272,0.496-1.916c0.047-0.209,0.092-0.417,0.136-0.626c0.117-0.561,0.221-1.125,0.311-1.693  c0.039-0.245,0.08-0.491,0.114-0.737c0.077-0.565,0.136-1.132,0.187-1.703c0.021-0.234,0.049-0.465,0.065-0.699  c0.054-0.795,0.087-1.593,0.087-2.398l-0.008-42.41l-0.005-27.164l-0.001-4.38l-0.005-26.5l0,0l-0.009-50.611l-0.005-27.164  l-0.008-42.486c0-3.105-0.422-6.147-1.202-9.07c-0.42-1.572-0.948-3.107-1.577-4.598c-2.568-6.091-6.814-11.419-12.362-15.28  c-0.812-0.565-1.642-1.11-2.509-1.611l-23.71-13.684l-22.198-12.81l-17.87-10.313l-68.334-39.439L305.99,23.415l-19.995-11.539  l-12.39-7.151c-10.918-6.302-24.37-6.3-35.287,0.006l-12.307,7.108l-19.995,11.548l-26.659,15.398l0,0l-68.33,39.466L81.08,95.547  l-22.191,12.818l-11.697,6.756c-0.841,0.486-1.648,1.015-2.439,1.561c-3.392,2.349-6.296,5.254-8.638,8.538  c-1.572,2.206-2.883,4.585-3.911,7.092c-1.715,4.179-2.652,8.706-2.651,13.371l0.007,42.41l0.005,27.164l0.012,76.428v4.168v0.882  v0.014v0.005l0.005,27.159v1.932l0.003,13.088l0.005,27.459v0.006c0,0.801,0.034,1.596,0.087,2.388  c0.016,0.232,0.044,0.462,0.064,0.694c0.05,0.569,0.109,1.136,0.186,1.698c0.034,0.245,0.074,0.489,0.112,0.734  c0.09,0.565,0.192,1.126,0.309,1.685c0.044,0.209,0.087,0.417,0.136,0.625c0.145,0.636,0.309,1.266,0.489,1.891  c0.034,0.117,0.064,0.236,0.1,0.354c0.942,3.153,2.321,6.146,4.083,8.901c0,0,0.001,0.003,0.003,0.004  c0,0.001,0.001,0.001,0.002,0.003c1.213,1.898,2.608,3.68,4.171,5.322c0.052,0.055,0.102,0.111,0.155,0.166  c0.735,0.762,1.506,1.492,2.312,2.189c0.131,0.114,0.265,0.222,0.399,0.335c0.815,0.684,1.652,1.346,2.533,1.958  c0.812,0.565,1.642,1.11,2.509,1.611l23.377,13.491l22.198,12.812l18.204,10.506l94.999,54.826l19.995,11.539l12.39,7.151  c10.918,6.302,24.37,6.298,35.287-0.006l12.307-7.108l19.995-11.548l26.659-15.397l57.587-33.261l10.742-6.205l27.325-15.782  l22.191-12.818l14.319-8.27c0.841-0.486,1.648-1.013,2.439-1.562c0.881-0.61,1.72-1.27,2.534-1.951  c0.134-0.112,0.269-0.222,0.401-0.336c0.807-0.696,1.581-1.425,2.318-2.186C472.555,390.799,472.601,390.746,472.648,390.696z"/>
<path style="fill:#FF4B55;" d="M482.434,265.867l-0.009-50.611l-0.005-27.164l-0.008-42.486c0-3.105-0.422-6.147-1.202-9.07  c-0.42-1.572-0.948-3.107-1.577-4.597c-2.568-6.091-6.814-11.419-12.362-15.28c-0.812-0.565-1.642-1.11-2.509-1.611l-23.71-13.684  l-22.198-12.81l-17.87-10.313l-68.335-39.44L305.99,23.415l-19.995-11.539l-12.39-7.151c-10.918-6.302-24.37-6.3-35.287,0.006  l-12.307,7.108l-19.995,11.548l-26.659,15.398l0,0l-68.33,39.466L81.08,95.547l-22.191,12.818l-11.697,6.756  c-0.841,0.486-1.648,1.015-2.439,1.561c-3.392,2.349-6.296,5.254-8.638,8.538c-1.572,2.206-2.883,4.585-3.911,7.092  c-1.715,4.179-2.652,8.706-2.651,13.371l0.007,42.41l0.005,27.164l0.014,53.242c11.767-0.596,226.424,12.497,226.424,12.497  S470.604,265.285,482.434,265.867z"/>
<g>
	<path style="fill:#FFE15A;" d="M306.381,230.058c9.187-9.357,13.744-21.165,13.744-21.165c-5.596,5.833-8.709,8.018-19.865,9.095   l-10.2,15.3L306.381,230.058z"/>
	<path style="fill:#FFE15A;" d="M212.662,219.168c-12.345-5.171-25.428-4.855-25.428-4.855c7.634,2.978,10.83,5.039,16.224,15.291   l18.617,3.683L212.662,219.168z"/>
	<path style="fill:#FFE15A;" d="M251.31,199.815c-5.059-12.46-14.607-21.557-14.607-21.557c3.247,7.402,4.075,11.114,0.801,21.833   l10.588,15.812L251.31,199.815z"/>
	<path style="fill:#FFE15A;" d="M292.434,212.906c5.056-12.267,4.744-25.162,4.744-25.162c-2.927,7.503-4.967,10.718-14.773,15.949   l-3.623,18.314L292.434,212.906z"/>
	<path style="fill:#FFE15A;" d="M230.127,205.692c-9.441-9.576-21.744-14.326-21.744-14.326c5.87,5.631,8.045,8.743,9.115,20.071   l15.857,10.572L230.127,205.692z"/>
	<path style="fill:#FFE15A;" d="M273.129,202.337c0.052-13.384-5.245-25.349-5.245-25.349c0.167,8.053-0.487,11.804-7.545,20.389   l3.705,18.526L273.129,202.337z"/>
	<path style="fill:#FFE15A;" d="M312.798,251.352c11.88-5.156,20.434-14.137,20.434-14.137c-7.448,3.268-11.156,4.088-22.03,0.741   l-15.037,10.07L312.798,251.352z"/>
	<path style="fill:#FFE15A;" d="M201.539,238.361c-13.268,0.022-25.063,5.246-25.063,5.246c8.258-0.171,11.999,0.529,21.063,8.104   l18.432-3.686L201.539,238.361z"/>
</g>
<g>
	<path style="fill:#FFD25A;" d="M280.057,204.914c0.834-0.421,1.607-0.825,2.347-1.22l4.27-21.583l-13.545,20.226   c-0.011,2.757-0.244,5.572-0.802,8.358C274.505,208.473,277.072,206.422,280.057,204.914z"/>
	<path style="fill:#FFD25A;" d="M308.986,237.248c0.772,0.254,1.508,0.489,2.217,0.707l18.756-12.56l-23.577,4.664   c-2.079,2.118-4.394,4.111-6.948,5.811C302.544,235.839,305.809,236.205,308.986,237.248z"/>
	<path style="fill:#FFD25A;" d="M307.833,256.175c1.904-0.109,3.936-0.174,6.155-0.174c6.462,0,11.478,0.499,15.699,1.272   l6.359-1.272l-23.247-4.65c-2.838,1.231-5.862,2.247-9.009,2.867C305.153,254.766,306.51,255.418,307.833,256.175z"/>
	<path style="fill:#FFD25A;" d="M297.737,218.205c0.887-0.067,1.723-0.14,2.523-0.217l12.36-18.54l-20.187,13.459   c-1.086,2.633-2.413,5.239-4.051,7.68C291.245,219.367,294.402,218.456,297.737,218.205z"/>
	<path style="fill:#FFD25A;" d="M204.403,231.434c-0.325-0.642-0.636-1.242-0.945-1.828l-21.28-4.21l19.361,12.965   c2.848-0.005,5.763,0.225,8.646,0.804C207.962,236.986,205.911,234.419,204.403,231.434z"/>
	<path style="fill:#FFD25A;" d="M217.693,213.754c-0.061-0.81-0.126-1.58-0.196-2.317l-17.983-11.988l13.148,19.72   c2.543,1.066,5.055,2.358,7.414,3.939C218.857,220.244,217.944,217.089,217.693,213.754z"/>
	<path style="fill:#FFD25A;" d="M203.753,256.148c-1.693-0.916-3.342-1.988-4.862-3.295c-0.469-0.404-0.911-0.772-1.352-1.142   l-21.448,4.29l6.282,1.256c4.213-0.764,9.215-1.256,15.647-1.256C200.074,256.001,201.969,256.056,203.753,256.148z"/>
	<path style="fill:#FFD25A;" d="M258.638,199.401c0.609-0.707,1.168-1.377,1.702-2.024l-4.271-21.354l-4.759,23.792   c1.018,2.508,1.858,5.151,2.398,7.885C254.869,204.814,256.457,201.938,258.638,199.401z"/>
	<path style="fill:#FFD25A;" d="M236.738,202.505c0.277-0.845,0.53-1.645,0.765-2.414l-12.042-17.98l4.665,23.581   c1.901,1.927,3.688,4.046,5.232,6.366C235.327,208.947,235.693,205.682,236.738,202.505z"/>
	<path style="fill:#FFD25A;" d="M203.753,256.148c4.931,0.257,8.913,0.841,12.372,1.606c-0.025-0.582-0.045-1.166-0.045-1.753   c0-22.085,17.904-39.989,39.989-39.989s39.989,17.904,39.989,39.989c0,0.581-0.02,1.158-0.044,1.735   c3.327-0.732,7.143-1.295,11.819-1.561c-1.323-0.756-2.681-1.408-4.043-1.956c3.147-0.621,6.171-1.636,9.009-2.867l-16.633-3.327   l15.037-10.07c-0.709-0.219-1.445-0.452-2.217-0.707c-3.177-1.043-6.442-1.41-9.552-1.38c2.554-1.701,4.87-3.694,6.948-5.811   l-16.319,3.228l10.2-15.3c-0.801,0.077-1.636,0.15-2.523,0.217c-3.335,0.251-6.492,1.162-9.355,2.382   c1.637-2.442,2.965-5.047,4.051-7.68l-13.653,9.101l3.623-18.314c-0.741,0.395-1.515,0.799-2.347,1.22   c-2.985,1.508-5.553,3.559-7.73,5.781c0.559-2.785,0.791-5.601,0.802-8.358l-9.085,13.566l-3.705-18.526   c-0.532,0.649-1.093,1.317-1.702,2.024c-2.181,2.536-3.769,5.412-4.93,8.299c-0.54-2.734-1.38-5.376-2.398-7.885l-3.218,16.088   l-10.588-15.812c-0.235,0.77-0.487,1.568-0.765,2.414c-1.045,3.178-1.411,6.442-1.378,9.554c-1.545-2.319-3.332-4.439-5.232-6.366   l3.228,16.316l-15.857-10.572c0.07,0.737,0.135,1.507,0.196,2.317c0.251,3.335,1.162,6.492,2.382,9.354   c-2.359-1.582-4.871-2.874-7.414-3.939l9.412,14.119l-18.617-3.683c0.309,0.586,0.621,1.187,0.945,1.828   c1.508,2.985,3.559,5.552,5.782,7.73c-2.883-0.579-5.797-0.809-8.646-0.804l14.431,9.664l-18.432,3.686   c0.442,0.37,0.884,0.739,1.352,1.142C200.41,254.16,202.059,255.232,203.753,256.148z"/>
</g>
<path style="fill:#FFE15A;" d="M296.014,257.735c0.025-0.575,0.044-1.152,0.044-1.735c0-22.085-17.904-39.989-39.989-39.989  s-39.989,17.905-39.989,39.99c0,0.589,0.019,1.172,0.045,1.753c12.97,2.867,18.652,8.244,39.944,8.244  C277.362,265.998,283.009,260.597,296.014,257.735z"/>
<g>
	<path style="fill:#41479B;" d="M371.936,355.973c-28.975,0-28.975-9.997-57.949-9.997c-28.96,0-28.96,9.997-57.919,9.997   c-29.025,0-29.025-9.997-58.048-9.997s-29.025,9.997-58.048,9.997c-29.005,0-29.005-9.997-58.008-9.997   c-26.983,0-28.853,8.664-52.374,9.857l0.001,10.555v0.006c0.001,6.847,2.002,13.398,5.567,18.972   c18.451-2.151,22.121-9.4,46.805-9.4c29.003,0,29.003,9.997,58.008,9.997c29.025,0,29.025-9.997,58.048-9.997   s29.025,9.997,58.048,9.997c28.96,0,28.96-9.997,57.919-9.997c28.975,0,28.975,9.997,57.949,9.997   c28.987,0,28.987-9.997,57.974-9.997c24.738,0,28.377,7.277,46.926,9.411c3.596-5.595,5.616-12.179,5.615-19.06l-0.001-10.477   c-23.674-1.165-25.491-9.867-52.539-9.867C400.923,345.976,400.923,355.973,371.936,355.973z"/>
	<path style="fill:#41479B;" d="M482.444,323.911l-0.005-27.164v-0.888c-23.664-1.166-25.484-9.866-52.529-9.866   c-28.987,0-28.987,9.997-57.974,9.997c-28.975,0-28.975-9.997-57.949-9.997c-1.556,0-3.013,0.034-4.41,0.089   c-5.465,0.214-9.795,0.819-13.515,1.635c-1.778,0.39-3.423,0.826-4.984,1.291c-0.039,0.011-0.079,0.024-0.117,0.035   c-3.183,0.953-6.047,2.016-9.08,3.02c-0.827,0.274-1.668,0.544-2.532,0.806c-5.741,1.738-12.505,3.123-23.282,3.123   c-10.771,0-17.541-1.378-23.285-3.109c-0.87-0.262-1.715-0.532-2.548-0.807c-4.556-1.505-8.728-3.143-14.174-4.341   c-4.074-0.896-8.868-1.545-15.091-1.701c-0.952-0.024-1.929-0.039-2.952-0.039c-29.025,0-29.025,9.997-58.048,9.997   c-29.005,0-29.005-9.997-58.008-9.997c-26.986,0-28.853,8.666-52.384,9.859v0.882v0.014v0.005l0.005,27.159v1.932   c23.526-1.193,25.396-9.859,52.379-9.859c29.003,0,29.003,9.997,58.008,9.997c29.025,0,29.025-9.997,58.048-9.997   c6.688,0,11.824,0.535,16.141,1.351c0.909,0.172,1.79,0.355,2.632,0.55c3.901,0.905,7.157,2.031,10.421,3.155   c1.123,0.387,2.252,0.774,3.405,1.15c2.75,0.898,5.67,1.74,9.106,2.401c1.362,0.262,2.802,0.497,4.351,0.695   c2.907,0.37,6.191,0.61,9.989,0.674c0.657,0.011,1.315,0.023,2.004,0.023c0.689,0,1.347-0.01,2.004-0.023   c3.415-0.057,6.411-0.26,9.091-0.57c1.533-0.179,2.977-0.387,4.326-0.629c3.845-0.687,7.024-1.605,10.018-2.586   c1.155-0.379,2.286-0.766,3.412-1.155c3.529-1.218,7.058-2.437,11.408-3.372c0.912-0.196,1.863-0.377,2.855-0.546   c4.035-0.684,8.79-1.118,14.805-1.118c28.975,0,28.975,9.997,57.949,9.997c28.987,0,28.987-9.997,57.974-9.997   c27.048,0,28.866,8.701,52.534,9.866v-1.942H482.444z"/>
</g>
<path style="fill:#F5F5F5;" d="M482.434,265.867c-23.658-1.167-25.481-9.866-52.524-9.866c-28.987,0-28.987,9.997-57.974,9.997  c-22.513,0-27.539-6.033-42.248-8.725c-4.223-0.772-9.237-1.272-15.699-1.272c-2.218,0-4.25,0.065-6.155,0.174  c-4.676,0.266-8.493,0.829-11.819,1.561c-13.005,2.862-18.651,8.263-39.945,8.263c-21.293,0-26.974-5.377-39.944-8.244  c-3.459-0.765-7.44-1.348-12.372-1.606c-1.783-0.092-3.678-0.147-5.732-0.147c-6.432,0-11.434,0.492-15.647,1.256  c-14.798,2.684-19.808,8.741-42.401,8.741c-29.005,0-29.005-9.997-58.008-9.997c-26.989,0-28.853,8.668-52.389,9.859l0.005,29.992  c23.531-1.192,25.398-9.859,52.384-9.859c29.003,0,29.003,9.997,58.008,9.997c29.025,0,29.025-9.997,58.048-9.997  c1.022,0,1.999,0.015,2.952,0.039c6.223,0.157,11.017,0.805,15.091,1.701c5.446,1.198,9.616,2.837,14.174,4.341  c0.832,0.275,1.678,0.545,2.548,0.807c5.743,1.731,12.514,3.109,23.285,3.109c10.777,0,17.541-1.385,23.282-3.123  c0.864-0.262,1.703-0.531,2.532-0.806c3.033-1.005,5.897-2.067,9.08-3.02c0.039-0.011,0.079-0.024,0.117-0.035  c1.561-0.465,3.205-0.901,4.984-1.291c3.72-0.815,8.05-1.421,13.515-1.635c1.397-0.055,2.854-0.089,4.41-0.089  c28.975,0,28.975,9.997,57.949,9.997c28.987,0,28.987-9.997,57.974-9.997c27.045,0,28.866,8.7,52.529,9.866L482.434,265.867z"/>
<path style="fill:#41479B;" d="M429.91,405.96c-28.987,0-28.987,9.997-57.974,9.997c-28.975,0-28.975-9.997-57.949-9.997  c-28.96,0-28.96,9.997-57.919,9.997c-29.025,0-29.025-9.997-58.048-9.997s-29.025,9.997-58.048,9.997  c-29.005,0-29.005-9.997-58.008-9.997c-6.934,0-12.198,0.576-16.608,1.447l5.261,3.037l22.198,12.811l18.204,10.506l21.12,12.189  l73.877,42.637l19.995,11.539l12.39,7.151c10.918,6.302,24.37,6.298,35.287-0.006l12.307-7.108l19.995-11.548l26.659-15.397  l47.211-27.268l10.377-5.993l10.742-6.205l27.325-15.782l18.271-10.553C442.153,406.541,436.872,405.96,429.91,405.96z"/>
<path style="fill:#FFE15A;" d="M204.7,116.202c17.172,2.328,26.639,8.218,31.148,12.227l-4.088-0.14c0,0,0,0-6.983-3.493  c-6.983-3.492-13.967,2.417-13.967,2.417h-11.123c-1.393,0-2.188,1.591-1.352,2.706l1.07,1.427c1.092,1.457,2.808,2.316,4.629,2.316  h11.342c4.029,6.983,19.338,14.236,31.962,14.236c12.623,0,51.3-17.19,55.061-17.19l-34.988-1.197l9.471-10.352  c48.615-1.879,73.325-23.099,73.325-23.099c-3.492,1.342-58.015,5.908-73.594,7.252c-9.839,0.847-22.111,12.064-29.842,20.232  c-2.081-5.656-6.151-11.523-14.209-12.712c-16.384-2.418-59.896-5.104-70.639-10.207C161.927,100.622,168.861,111.342,204.7,116.202  z"/>
<g>
</g>
<g>
</g>
<g>
</g>
<g>
</g>
<g>
</g>
<g>
</g>
<g>
</g>
<g>
</g>
<g>
</g>
<g>
</g>
<g>
</g>
<g>
</g>
<g>
</g>
<g>
</g>
<g>
</g>
</svg>
