<?xml version="1.0" encoding="iso-8859-1"?>
<!-- Generator: Adobe Illustrator 19.0.0, SVG Export Plug-In . SVG Version: 6.00 Build 0)  -->
<svg xmlns="http://www.w3.org/2000/svg" xmlns:xlink="http://www.w3.org/1999/xlink" version="1.1" id="Layer_1" x="0px" y="0px" viewBox="0 0 512 512" style="enable-background:new 0 0 512 512;" xml:space="preserve">
<path style="fill:#464655;" d="M482.418,181.254l-0.006-35.648c0-3.105-0.422-6.147-1.202-9.07c-0.42-1.572-0.948-3.107-1.576-4.597  c-2.568-6.091-6.814-11.419-12.362-15.28c-0.812-0.565-1.642-1.11-2.509-1.611l-23.71-13.684l-22.198-12.81l-10.426-6.017  L212.262,198.515L29.582,330.749l0.006,35.64v0.006c0.003,11.607,5.715,22.389,15.14,28.946c0.812,0.565,1.642,1.11,2.509,1.611  l23.377,13.491l22.198,12.811l10.76,6.21l193.667-112.231L482.418,181.254z"/>
<path style="fill:#73AF00;" d="M332.647,38.801l-26.659-15.386l-19.995-11.539l-12.39-7.151c-10.918-6.302-24.37-6.3-35.287,0.006  l-12.307,7.108l-19.995,11.548l-26.659,15.398l0,0l-68.33,39.466L81.078,95.547l-22.191,12.818l-11.697,6.756  c-0.841,0.486-1.648,1.015-2.439,1.561c-3.392,2.349-6.296,5.254-8.638,8.538c-1.572,2.206-2.883,4.585-3.911,7.092  c-1.715,4.179-2.652,8.706-2.651,13.371l0.007,42.41l0.005,27.164l0.014,81.478v0.014v0.005v3.334L221.01,188.521L383.544,68.177  L332.647,38.801z"/>
<path style="fill:#FF4B55;" d="M482.442,323.911l-0.005-27.164l-0.014-81.491l-0.001-3.339L305.985,315.984L128.456,443.826  l77.558,44.76l19.995,11.539l12.39,7.151c10.918,6.302,24.37,6.298,35.287-0.006l12.307-7.108l19.995-11.548l26.659-15.397  l57.587-33.261l10.742-6.205l27.325-15.782l22.191-12.818l14.319-8.27c0.841-0.486,1.648-1.013,2.439-1.562  c9.465-6.556,15.201-17.365,15.2-29.001L482.442,323.911z"/>
<g>
	<polygon style="fill:#FFE15A;" points="482.423,211.917 482.42,188.092 482.418,181.254 103.572,429.465 103.572,429.465    103.572,429.465 103.572,429.465 111.016,433.76 128.456,443.826  "/>
	<polygon style="fill:#FFE15A;" points="400.986,78.242 383.544,68.176 29.577,300.086 29.581,323.911 29.582,330.749    408.43,82.538  "/>
</g>
<g>
	<path style="fill:#F5F5F5;" d="M119.76,330.544l26.981,1.759l7.069,26.098c0.915,3.379,5.605,3.648,6.901,0.396l10.011-25.117   l27.005,1.341c3.497,0.174,5.201-4.203,2.509-6.441l-20.794-17.283l9.621-25.269c1.246-3.272-2.391-6.246-5.35-4.376   l-22.862,14.435l-21.059-16.958c-2.727-2.196-6.678,0.342-5.816,3.735l6.664,26.205l-22.636,14.788   C115.074,325.773,116.266,330.317,119.76,330.544z"/>
	<path style="fill:#F5F5F5;" d="M313.852,203.144l26.981,1.76l7.07,26.097c0.915,3.379,5.605,3.648,6.901,0.396l10.011-25.117   l27.005,1.341c3.497,0.174,5.201-4.203,2.509-6.441l-20.794-17.283l9.621-25.269c1.246-3.272-2.389-6.246-5.35-4.376   l-22.862,14.436l-21.059-16.958c-2.727-2.196-6.678,0.344-5.816,3.735l6.664,26.204l-22.636,14.788   C309.166,198.374,310.358,202.917,313.852,203.144z"/>
</g>
<g>
</g>
<g>
</g>
<g>
</g>
<g>
</g>
<g>
</g>
<g>
</g>
<g>
</g>
<g>
</g>
<g>
</g>
<g>
</g>
<g>
</g>
<g>
</g>
<g>
</g>
<g>
</g>
<g>
</g>
</svg>
