<?xml version="1.0" encoding="iso-8859-1"?>
<!-- Generator: Adobe Illustrator 19.0.0, SVG Export Plug-In . SVG Version: 6.00 Build 0)  -->
<svg xmlns="http://www.w3.org/2000/svg" xmlns:xlink="http://www.w3.org/1999/xlink" version="1.1" id="Layer_1" x="0px" y="0px" viewBox="0 0 512.004 512.004" style="enable-background:new 0 0 512.004 512.004;" xml:space="preserve">
<path style="fill:#41479B;" d="M482.437,296.746l-0.014-81.491l-0.005-27.164l-0.008-42.486  c-0.003-11.607-5.715-22.389-15.14-28.946c-0.812-0.565-1.642-1.11-2.509-1.611l-23.71-13.684l-22.198-12.81l-17.87-10.313  l-94.999-54.826l-19.995-11.539l-12.39-7.151c-10.918-6.302-24.37-6.3-35.287,0.006l-12.307,7.108L206.01,23.387L111.025,78.25  L81.078,95.546l-22.191,12.818L47.19,115.12c-0.841,0.486-1.648,1.015-2.439,1.562c-9.465,6.556-15.202,17.365-15.2,29.001  l0.007,42.41l0.005,27.164l0.014,81.491l0.005,27.164l0.007,42.486c0.003,11.607,5.715,22.388,15.14,28.946  c0.812,0.565,1.642,1.11,2.509,1.611l23.377,13.491l22.198,12.811l18.204,10.506l94.999,54.826l19.995,11.539l12.39,7.151  c10.92,6.302,24.37,6.299,35.287-0.006l12.307-7.108l19.995-11.548l94.989-54.863l27.325-15.782l22.191-12.818l14.319-8.27  c0.841-0.486,1.648-1.015,2.439-1.562c9.465-6.556,15.201-17.365,15.2-29.001l-0.008-42.41L482.437,296.746z"/>
<path style="fill:#FF9B55;" d="M267.932,199.423c-5.381-1.018-11.927-7.854-9.599-11.636c2.327-3.781-2.036-12.217-7.272-9.309  c-5.236,2.909-8.726,6.4-13.671,7.563c-4.945,1.163-9.018,4.945-5.236,8.435s9.599,10.472,4.073,17.744  c-5.527,7.272-3.781,2.327-10.472,5.527c-6.691,3.199-11.344,9.599-9.309,13.38c2.036,3.781,3.781,5.236-2.036,7.854  s-8.435,0.872-13.09,2.036c-4.654,1.163-15.998,6.982-19.49,11.927c-3.49,4.945-11.053,0.291-14.254-0.291  c-3.2-0.581-9.599,1.746-11.053,5.527s1.163,7.272,6.691,9.018c5.527,1.746,7.854,2.036,5.236,6.691  c-2.618,4.654-0.872,13.671,3.49,16.289c4.364,2.618,12.799,10.763,12.799,16.289c0,5.527-1.163,13.671,6.981,14.835  c8.145,1.163,20.653,4.654,25.016,12.217c4.364,7.563,5.527,11.927,6.4,16.58c0.872,4.654,1.746,8.435,4.364,13.671  s4.364,14.254,1.746,16.289c-2.618,2.036-4.654,3.49-2.618,7.418c2.036,3.926,2.473,5.381,6.255,3.2  c3.781-2.182,3.781,0.145,5.817-0.291s11.344-3.781,9.599-8.29c-1.746-4.509-5.527-14.835-0.145-20.217  c5.381-5.381,12.654-6.255,17.308-9.89c4.654-3.637,12.363-4.218,18.325-10.036c5.963-5.817,12.363-2.327,13.38,1.746  c1.018,4.073,2.618,11.927,7.272,11.781c4.654-0.145,5.672-0.145,6.544-5.817s8.145-18.325,11.053-16.725  c2.909,1.6,5.527,0.291,5.672-2.182c0.145-2.472,5.672-4.654,7.999-1.163s7.418,6.253,7.272,1.891  c-0.145-4.364-6.108-3.781-6.255-8.581c-0.145-4.8,4.8-7.854,9.163-9.89s1.746-7.272,3.054-10.181  c1.31-2.909,8.435-6.544,8.726-9.454s-1.746-4.073,1.308-4.8c3.054-0.727,6.836-2.036,4.654-5.381s-1.455-5.817,0.872-7.418  c2.327-1.6,3.419-9.194,0.024-10.18c-3.394-0.986-9.527,1.862-11.061,3.723c-1.533,1.862-7.775-6.132-10.732-8.104  c-2.957-1.971-22.011-0.766-21.573-4.051c0.437-3.285,8.435-15.277,4.945-17.168s-9.018-4.654-13.526-6.108  c-4.509-1.455-3.49,3.49-5.963-0.436s-3.345-17.889-6.108-17.889s-4.8,5.817-5.963,3.637s0.436-17.308-5.963-17.599  c-6.4-0.291-6.544,3.49-10.181,0.727C274.768,199.569,275.289,200.815,267.932,199.423z"/>
<g>
	<path style="fill:#F5F5F5;" d="M228.418,116.682l-4.832,14.489l-15.272,0.119c-0.837,0.006-1.185,1.075-0.511,1.572l12.285,9.073   l-4.606,14.561c-0.252,0.799,0.656,1.458,1.337,0.972l12.425-8.881l12.425,8.881c0.681,0.487,1.59-0.174,1.337-0.972l-4.606-14.561   l12.285-9.073c0.674-0.497,0.326-1.566-0.511-1.572l-15.272-0.119l-4.832-14.489C229.806,115.887,228.683,115.887,228.418,116.682z   "/>
	<path style="fill:#F5F5F5;" d="M282.232,116.682L277.4,131.17l-15.272,0.119c-0.837,0.006-1.185,1.075-0.511,1.572l12.285,9.073   l-4.606,14.561c-0.252,0.799,0.656,1.458,1.337,0.972l12.425-8.881l12.425,8.881c0.681,0.487,1.59-0.174,1.337-0.972l-4.606-14.561   l12.285-9.073c0.674-0.497,0.326-1.566-0.511-1.572l-15.272-0.119l-4.832-14.489C283.62,115.887,282.497,115.887,282.232,116.682z"/>
	<path style="fill:#F5F5F5;" d="M175.333,125.553l-4.832,14.489l-15.272,0.119c-0.837,0.006-1.185,1.075-0.511,1.572l12.285,9.073   l-4.606,14.561c-0.252,0.799,0.656,1.458,1.337,0.972l12.425-8.881l12.425,8.881c0.681,0.487,1.59-0.174,1.337-0.972l-4.606-14.561   l12.285-9.073c0.674-0.497,0.326-1.566-0.511-1.572l-15.272-0.119l-4.832-14.489C176.721,124.758,175.597,124.758,175.333,125.553z   "/>
	<path style="fill:#F5F5F5;" d="M125.105,143.809l-4.832,14.487l-15.272,0.119c-0.837,0.006-1.185,1.075-0.511,1.572l12.285,9.073   l-4.606,14.561c-0.252,0.799,0.656,1.458,1.337,0.972l12.425-8.881l12.425,8.881c0.681,0.487,1.59-0.174,1.337-0.972l-4.606-14.561   l12.285-9.073c0.674-0.497,0.326-1.566-0.511-1.572l-15.272-0.119l-4.832-14.487C126.493,143.014,125.37,143.014,125.105,143.809z"/>
	<path style="fill:#F5F5F5;" d="M336.827,125.553l4.831,14.489l15.272,0.119c0.837,0.006,1.185,1.075,0.511,1.572l-12.285,9.073   l4.606,14.561c0.252,0.799-0.656,1.458-1.337,0.972L336,157.457l-12.425,8.881c-0.681,0.487-1.59-0.174-1.337-0.972l4.606-14.561   l-12.285-9.073c-0.674-0.497-0.326-1.566,0.511-1.572l15.272-0.119l4.832-14.489C335.439,124.758,336.562,124.758,336.827,125.553z   "/>
	<path style="fill:#F5F5F5;" d="M387.053,143.809l4.832,14.487l15.272,0.119c0.837,0.006,1.185,1.075,0.511,1.572l-12.285,9.073   l4.606,14.561c0.252,0.799-0.656,1.458-1.337,0.972l-12.425-8.881l-12.425,8.881c-0.681,0.487-1.59-0.174-1.337-0.972l4.606-14.561   l-12.285-9.073c-0.674-0.497-0.326-1.566,0.511-1.572l15.272-0.119l4.832-14.487C385.665,143.014,386.788,143.014,387.053,143.809z   "/>
</g>
<g>
</g>
<g>
</g>
<g>
</g>
<g>
</g>
<g>
</g>
<g>
</g>
<g>
</g>
<g>
</g>
<g>
</g>
<g>
</g>
<g>
</g>
<g>
</g>
<g>
</g>
<g>
</g>
<g>
</g>
</svg>
