<?xml version="1.0" encoding="iso-8859-1"?>
<!-- Generator: Adobe Illustrator 19.0.0, SVG Export Plug-In . SVG Version: 6.00 Build 0)  -->
<svg xmlns="http://www.w3.org/2000/svg" xmlns:xlink="http://www.w3.org/1999/xlink" version="1.1" id="Layer_1" x="0px" y="0px" viewBox="0 0 512.001 512.001" style="enable-background:new 0 0 512.001 512.001;" xml:space="preserve">
<path style="fill:#F5F5F5;" d="M475.507,387.32c0.112-0.152,0.219-0.307,0.329-0.46c0.431-0.602,0.843-1.218,1.236-1.847  c0.096-0.154,0.192-0.306,0.286-0.461c0.452-0.75,0.882-1.512,1.277-2.294c0.008-0.015,0.016-0.03,0.024-0.045  c0.432-0.859,0.831-1.733,1.192-2.626v-0.001c0.212-0.524,0.412-1.053,0.6-1.587c0.117-0.334,0.221-0.672,0.329-1.01  c0.099-0.311,0.195-0.622,0.286-0.936c0.092-0.322,0.182-0.646,0.266-0.971c0.102-0.396,0.194-0.796,0.281-1.196  c0.055-0.249,0.116-0.495,0.166-0.745c0.125-0.632,0.229-1.27,0.319-1.911c0.033-0.23,0.057-0.461,0.085-0.692  c0.059-0.489,0.107-0.978,0.146-1.471c0.017-0.217,0.035-0.434,0.047-0.652c0.041-0.696,0.07-1.393,0.07-2.097l-0.036-220.713  c0-0.7-0.029-1.396-0.07-2.089c-0.013-0.221-0.031-0.44-0.049-0.66c-0.039-0.487-0.087-0.973-0.146-1.457  c-0.029-0.235-0.054-0.471-0.086-0.705c-0.089-0.629-0.191-1.255-0.314-1.874c-0.057-0.29-0.127-0.576-0.191-0.865  c-0.079-0.352-0.159-0.705-0.249-1.055c-0.09-0.352-0.186-0.704-0.286-1.052c-0.077-0.267-0.16-0.532-0.244-0.797  c-0.28-0.891-0.587-1.771-0.935-2.633l-0.001-0.005l0,0c-0.704-1.745-1.55-3.424-2.519-5.031c-0.076-0.126-0.156-0.251-0.234-0.376  c-0.409-0.659-0.839-1.302-1.291-1.933c-0.099-0.139-0.196-0.279-0.297-0.416c-0.526-0.712-1.073-1.411-1.653-2.083  c-0.013-0.015-0.025-0.031-0.038-0.046c-0.604-0.697-1.237-1.371-1.897-2.022c-0.13-0.129-0.267-0.249-0.4-0.375  c-0.512-0.491-1.04-0.967-1.583-1.428c-0.214-0.181-0.43-0.357-0.649-0.534c-0.507-0.409-1.027-0.804-1.558-1.186  c-0.219-0.157-0.432-0.319-0.655-0.471c-0.747-0.511-1.51-1.005-2.301-1.461L273.601,4.725c-10.92-6.302-24.37-6.3-35.287,0.006  L50.226,113.365l-3.037,1.753c-0.004,0.003-0.006,0.004-0.01,0.006c-0.786,0.454-1.542,0.942-2.283,1.451  c-0.225,0.154-0.441,0.317-0.662,0.476c-0.525,0.377-1.04,0.767-1.54,1.171c-0.224,0.18-0.445,0.361-0.664,0.547  c-0.527,0.447-1.038,0.91-1.536,1.385c-0.147,0.14-0.3,0.275-0.444,0.417c-0.652,0.645-1.281,1.31-1.878,1.999  c-0.01,0.013-0.02,0.025-0.031,0.037c-0.579,0.67-1.123,1.363-1.648,2.072c-0.112,0.151-0.219,0.306-0.329,0.46  c-0.432,0.604-0.845,1.22-1.237,1.848c-0.095,0.154-0.192,0.305-0.286,0.46c-0.452,0.751-0.882,1.513-1.278,2.296  c-0.007,0.014-0.015,0.027-0.022,0.042c-0.432,0.859-0.831,1.735-1.193,2.627v0.001c-0.212,0.524-0.412,1.052-0.6,1.587  c-0.117,0.335-0.222,0.674-0.33,1.012c-0.099,0.31-0.195,0.62-0.285,0.932c-0.092,0.324-0.182,0.649-0.266,0.975  c-0.101,0.394-0.192,0.79-0.28,1.188c-0.055,0.251-0.117,0.5-0.167,0.754c-0.125,0.631-0.229,1.268-0.319,1.908  c-0.032,0.231-0.057,0.462-0.085,0.694c-0.059,0.487-0.107,0.978-0.146,1.47c-0.016,0.217-0.035,0.435-0.047,0.652  c-0.041,0.696-0.07,1.393-0.07,2.096l0.036,220.713c0,0.7,0.029,1.396,0.07,2.089c0.012,0.22,0.031,0.44,0.049,0.66  c0.039,0.487,0.087,0.973,0.146,1.457c0.029,0.235,0.054,0.471,0.086,0.705c0.089,0.629,0.191,1.255,0.314,1.875  c0.057,0.291,0.127,0.577,0.192,0.866c0.079,0.352,0.159,0.705,0.249,1.053c0.09,0.354,0.186,0.704,0.286,1.053  c0.077,0.266,0.16,0.53,0.244,0.795c0.279,0.887,0.585,1.763,0.931,2.623c0.002,0.005,0.004,0.011,0.006,0.017l0,0  c0.704,1.743,1.55,3.423,2.518,5.03c0.077,0.127,0.157,0.254,0.236,0.38c0.407,0.657,0.837,1.3,1.287,1.929  c0.1,0.14,0.197,0.281,0.3,0.419c0.527,0.714,1.075,1.412,1.655,2.084c0.012,0.014,0.022,0.029,0.035,0.042  c0.604,0.699,1.238,1.371,1.898,2.023c0.129,0.127,0.265,0.247,0.396,0.372c0.514,0.491,1.042,0.97,1.587,1.431  c0.214,0.181,0.43,0.357,0.647,0.534c0.507,0.409,1.027,0.802,1.56,1.186c0.219,0.157,0.432,0.319,0.655,0.471  c0.746,0.511,1.51,1.003,2.301,1.461l191.161,110.325c10.918,6.302,24.37,6.299,35.287-0.006l186.164-107.523l4.961-2.865  c0.005-0.003,0.01-0.008,0.016-0.01c0.782-0.452,1.538-0.941,2.277-1.447c0.225-0.155,0.442-0.317,0.664-0.477  c0.525-0.377,1.038-0.767,1.54-1.171c0.224-0.18,0.445-0.361,0.664-0.547c0.527-0.447,1.038-0.91,1.536-1.385  c0.147-0.14,0.3-0.275,0.444-0.417c0.652-0.645,1.281-1.31,1.879-1.999c0.01-0.011,0.019-0.023,0.027-0.034  C474.435,388.725,474.981,388.03,475.507,387.32z"/>
<g>
	<path style="fill:#41479B;" d="M459.16,111.816L273.601,4.725c-10.92-6.302-24.37-6.3-35.287,0.006L52.909,111.816H459.16z"/>
	<path style="fill:#41479B;" d="M238.398,507.276c10.918,6.302,24.37,6.299,35.287-0.006l185.406-107.086H52.84L238.398,507.276z"/>
</g>
<path style="fill:#FF4B55;" d="M482.411,145.605c0-0.7-0.029-1.396-0.07-2.089c-0.013-0.221-0.031-0.44-0.049-0.66  c-0.039-0.487-0.087-0.973-0.146-1.457c-0.029-0.235-0.054-0.471-0.086-0.705c-0.089-0.629-0.191-1.255-0.314-1.874  c-0.057-0.29-0.127-0.576-0.191-0.865c-0.079-0.352-0.159-0.705-0.249-1.055c-0.09-0.352-0.186-0.704-0.286-1.052  c-0.077-0.267-0.16-0.532-0.244-0.797c-0.28-0.891-0.587-1.771-0.935-2.633l-0.001-0.005H32.147c-0.212,0.524-0.412,1.052-0.6,1.587  c-0.117,0.335-0.222,0.674-0.33,1.012c-0.099,0.31-0.195,0.62-0.285,0.932c-0.092,0.324-0.182,0.649-0.266,0.975  c-0.101,0.394-0.192,0.79-0.28,1.188c-0.055,0.251-0.117,0.5-0.167,0.754c-0.125,0.631-0.229,1.268-0.319,1.908  c-0.032,0.231-0.057,0.462-0.085,0.694c-0.059,0.487-0.107,0.978-0.146,1.47c-0.016,0.217-0.035,0.435-0.047,0.652  c-0.041,0.696-0.07,1.393-0.07,2.096l0.036,220.713c0,0.7,0.029,1.396,0.07,2.089c0.012,0.22,0.031,0.44,0.049,0.66  c0.039,0.487,0.087,0.973,0.146,1.457c0.029,0.235,0.054,0.471,0.086,0.705c0.089,0.629,0.191,1.255,0.314,1.875  c0.057,0.291,0.127,0.577,0.192,0.866c0.079,0.352,0.159,0.705,0.249,1.053c0.09,0.354,0.186,0.704,0.286,1.053  c0.077,0.266,0.16,0.53,0.244,0.795c0.279,0.887,0.585,1.763,0.931,2.623c0.002,0.005,0.004,0.011,0.006,0.017h447.693  c0.212-0.524,0.412-1.053,0.6-1.587c0.117-0.334,0.221-0.672,0.329-1.01c0.099-0.311,0.195-0.622,0.286-0.936  c0.092-0.322,0.182-0.646,0.266-0.971c0.102-0.396,0.194-0.796,0.281-1.196c0.055-0.249,0.116-0.495,0.166-0.745  c0.125-0.632,0.229-1.27,0.319-1.911c0.033-0.23,0.057-0.461,0.085-0.692c0.059-0.489,0.107-0.978,0.146-1.471  c0.017-0.217,0.035-0.434,0.047-0.652c0.041-0.696,0.07-1.393,0.07-2.097L482.411,145.605z"/>
<path style="fill:#F5F5F5;" d="M138.532,335.978c44.17,0,79.978-35.808,79.978-79.978c0-44.172-35.808-79.978-79.978-79.978  S58.553,211.828,58.553,256S94.361,335.978,138.532,335.978z M69.648,231.686l50.71-0.394l16.044-48.107  c0.682-2.047,3.578-2.047,4.26,0l16.044,48.107l50.71,0.394c2.157,0.016,3.052,2.769,1.316,4.051l-40.794,30.124l15.296,48.349  c0.651,2.057-1.691,3.758-3.445,2.503l-41.256-29.488l-41.256,29.488c-1.755,1.255-4.096-0.447-3.445-2.503l15.297-48.349  l-40.794-30.124C66.596,234.456,67.491,231.703,69.648,231.686z"/>
<path style="fill:#FF4B55;" d="M68.332,235.737l40.794,30.124L93.829,314.21c-0.651,2.057,1.691,3.758,3.445,2.503l41.256-29.488  l41.256,29.488c1.755,1.255,4.096-0.447,3.445-2.503l-15.296-48.349l40.794-30.124c1.736-1.281,0.841-4.035-1.316-4.051  l-50.71-0.394l-16.044-48.107c-0.682-2.047-3.577-2.047-4.26,0l-16.044,48.107l-50.707,0.395  C67.491,231.703,66.596,234.456,68.332,235.737z"/>
<g>
</g>
<g>
</g>
<g>
</g>
<g>
</g>
<g>
</g>
<g>
</g>
<g>
</g>
<g>
</g>
<g>
</g>
<g>
</g>
<g>
</g>
<g>
</g>
<g>
</g>
<g>
</g>
<g>
</g>
</svg>
