<?xml version="1.0" encoding="iso-8859-1"?>
<!-- Generator: Adobe Illustrator 19.0.0, SVG Export Plug-In . SVG Version: 6.00 Build 0)  -->
<svg xmlns="http://www.w3.org/2000/svg" xmlns:xlink="http://www.w3.org/1999/xlink" version="1.1" id="Layer_1" x="0px" y="0px" viewBox="0 0 512 512" style="enable-background:new 0 0 512 512;" xml:space="preserve">
<polygon style="fill:#F5F5F5;" points="87.295,342.242 198.515,342.242 482.444,342.242 482.449,366.319 482.441,323.91   482.436,296.747 482.424,215.256 482.418,188.092 482.415,169.761 192.267,169.761 87.295,169.761 "/>
<path style="fill:#73AF00;" d="M467.271,116.66c-0.812-0.565-1.642-1.11-2.509-1.611l-23.711-13.684l-22.198-12.81l-17.87-10.313  l-94.999-54.826l-19.994-11.54l-12.39-7.151c-10.918-6.302-24.37-6.3-35.287,0.006l-12.307,7.108L206.01,23.387l-94.987,54.864  l-10.278,5.936l24.04,53.09l51.146,32.246v0.236h306.484l-0.004-24.153C482.41,134,476.696,123.218,467.271,116.66z"/>
<path style="fill:#FF4B55;" d="M175.935,342.475l-49.9,24.739l-25.299,60.613l10.28,5.932l94.999,54.826l19.995,11.539l12.39,7.151  c10.918,6.302,24.37,6.3,35.287-0.006l12.307-7.108l19.995-11.548l94.989-54.862l27.325-15.782l22.191-12.818l14.319-8.27  c0.841-0.486,1.648-1.015,2.439-1.562c9.465-6.556,15.201-17.365,15.2-29.001l-0.004-24.078H175.935V342.475z"/>
<path style="fill:#464655;" d="M175.931,169.761v-0.236l-75.186-85.338l-19.67,11.359l-22.19,12.819l-11.697,6.756  c-0.841,0.486-1.648,1.015-2.439,1.562c-9.465,6.556-15.201,17.365-15.2,29.001l0.004,24.078l0.004,18.331l0.005,27.164  l0.014,81.491l0.005,27.164l0.004,18.331l0.004,24.153c0.002,11.607,5.715,22.388,15.14,28.946c0.812,0.565,1.642,1.11,2.509,1.611  l23.377,13.491l22.198,12.812l7.924,4.574l75.199-85.354v-0.232L175.931,169.761z"/>
<g>
</g>
<g>
</g>
<g>
</g>
<g>
</g>
<g>
</g>
<g>
</g>
<g>
</g>
<g>
</g>
<g>
</g>
<g>
</g>
<g>
</g>
<g>
</g>
<g>
</g>
<g>
</g>
<g>
</g>
</svg>
