<?xml version="1.0" encoding="iso-8859-1"?>
<!-- Generator: Adobe Illustrator 19.0.0, SVG Export Plug-In . SVG Version: 6.00 Build 0)  -->
<svg xmlns="http://www.w3.org/2000/svg" xmlns:xlink="http://www.w3.org/1999/xlink" version="1.1" id="Layer_1" x="0px" y="0px" viewBox="0 0 512.001 512.001" style="enable-background:new 0 0 512.001 512.001;" xml:space="preserve">
<path style="fill:#41479B;" d="M482.412,145.606c-0.003-12.607-6.729-24.255-17.649-30.557l-14.014-8.088L273.602,4.725  c-10.92-6.302-24.37-6.3-35.287,0.006L61.314,106.962l-14.124,8.157c-10.917,6.306-17.64,17.955-17.639,30.562l0.036,220.713  c0.003,12.606,6.73,24.254,17.649,30.556l14.014,8.088l177.149,102.237c10.918,6.302,24.37,6.299,35.287-0.006l177.003-102.232  l14.122-8.157c10.917-6.306,17.64-17.955,17.639-30.562L482.412,145.606z"/>
<g>
	<path style="fill:#FF4B55;" d="M273.602,4.725c-10.92-6.302-24.37-6.3-35.287,0.006L61.314,106.962h389.437L273.602,4.725z"/>
	<path style="fill:#FF4B55;" d="M238.399,507.276c10.918,6.302,24.37,6.299,35.287-0.006l177.003-102.232H61.25L238.399,507.276z"/>
</g>
<circle style="fill:#F5F5F5;" cx="256" cy="256" r="89.97"/>
<g>
</g>
<g>
</g>
<g>
</g>
<g>
</g>
<g>
</g>
<g>
</g>
<g>
</g>
<g>
</g>
<g>
</g>
<g>
</g>
<g>
</g>
<g>
</g>
<g>
</g>
<g>
</g>
<g>
</g>
</svg>
