<?xml version="1.0" encoding="iso-8859-1"?>
<!-- Generator: Adobe Illustrator 19.0.0, SVG Export Plug-In . SVG Version: 6.00 Build 0)  -->
<svg xmlns="http://www.w3.org/2000/svg" xmlns:xlink="http://www.w3.org/1999/xlink" version="1.1" id="Layer_1" x="0px" y="0px" viewBox="0 0 512.001 512.001" style="enable-background:new 0 0 512.001 512.001;" xml:space="preserve">
<path style="fill:#F5F5F5;" d="M482.414,145.605c-0.003-12.607-6.729-24.255-17.649-30.557l-14.489-8.361H61.79l-14.599,8.431  c-10.917,6.305-17.64,17.955-17.639,30.562l0.036,220.713c0.003,12.607,6.729,24.255,17.649,30.557l14.489,8.361h388.488  l14.597-8.431c10.917-6.306,17.64-17.955,17.639-30.563L482.414,145.605z"/>
<path style="fill:#73AF00;" d="M115.774,330.317l113.058,22.611v14.109c0,7.703-3.06,15.091-8.506,20.537l-17.633,17.633  l52.061,20.738l52.498-20.738l-17.633-17.633c-5.447-5.446-8.506-12.834-8.506-20.537v-14.109l113.058-22.611  c8.159-1.632,11.802-11.236,6.778-17.868c-1.764-2.329-4.364-3.883-7.252-4.333l-120.443-18.78c-3.329-0.52-5.687-3.645-5.127-7.102  c0.541-3.345,3.933-5.477,7.293-5.035l83.51,10.988c6.787,0.893,10.951-7.217,6.268-12.212l-6.703-7.151  c-2.509-2.677-5.801-4.494-9.404-5.191l-69.761-13.51l59.481,4.285c4.56,0.329,7.202-5.061,4.148-8.464l-3.05-3.399  c-1.843-2.054-4.294-3.467-6.996-4.031l-59.054-12.342l41.969-1.215c3.71-0.107,5.599-4.508,3.119-7.269l-1.882-2.097  c-1.475-1.642-3.38-2.837-5.502-3.445l-37.431-10.747h29.416c2.91,0,4.867-2.982,3.71-5.651l-0.992-2.289  c-1.19-2.747-3.485-4.862-6.32-5.827l-27.204-9.255l13.379-0.044c3.976-0.012,6.642-4.089,5.061-7.737  c-1.273-2.939-3.522-5.349-6.365-6.822l-29.842-15.472l-29.842,15.472c-2.843,1.475-5.091,3.884-6.365,6.822l0,0  c-1.581,3.648,1.086,7.724,5.061,7.737l13.379,0.044l-27.204,9.255c-2.834,0.963-5.129,3.08-6.32,5.827l-0.992,2.289  c-1.157,2.669,0.8,5.651,3.71,5.651h29.416l-37.431,10.747c-2.121,0.61-4.028,1.803-5.502,3.445l-1.882,2.097  c-2.479,2.762-0.592,7.162,3.118,7.269l41.97,1.215l-59.054,12.342c-2.702,0.565-5.152,1.977-6.996,4.031l-3.05,3.399  c-3.054,3.403-0.412,8.793,4.148,8.464l59.481-4.285l-69.761,13.51c-3.603,0.697-6.893,2.514-9.404,5.191l-6.703,7.151  c-4.682,4.995-0.519,13.105,6.268,12.212l83.51-10.988c3.36-0.442,6.751,1.69,7.293,5.035c0.56,3.458-1.798,6.583-5.127,7.102  l-120.443,18.78c-2.887,0.45-5.487,2.004-7.252,4.333l0,0C103.973,319.083,107.615,328.686,115.774,330.317z"/>
<g>
	<path style="fill:#FF4B55;" d="M238.317,4.73L61.79,106.687h388.487L273.604,4.725C262.685-1.577,249.234-1.575,238.317,4.73z"/>
	<path style="fill:#FF4B55;" d="M238.401,507.276c10.918,6.302,24.37,6.3,35.287-0.005l176.527-101.957H61.728L238.401,507.276z"/>
</g>
<g>
</g>
<g>
</g>
<g>
</g>
<g>
</g>
<g>
</g>
<g>
</g>
<g>
</g>
<g>
</g>
<g>
</g>
<g>
</g>
<g>
</g>
<g>
</g>
<g>
</g>
<g>
</g>
<g>
</g>
</svg>
