<?xml version="1.0" encoding="iso-8859-1"?>
<!-- Generator: Adobe Illustrator 19.0.0, SVG Export Plug-In . SVG Version: 6.00 Build 0)  -->
<svg xmlns="http://www.w3.org/2000/svg" xmlns:xlink="http://www.w3.org/1999/xlink" version="1.1" id="Layer_1" x="0px" y="0px" viewBox="0 0 512 512" style="enable-background:new 0 0 512 512;" xml:space="preserve">
<path style="fill:#FF4B55;" d="M482.441,323.909l-0.005-27.164L482.429,256l-226.431-23.744L29.568,256l0.006,40.745l0.005,27.164  l0.007,42.485c0.003,11.607,5.715,22.389,15.14,28.946c0.812,0.565,1.642,1.11,2.509,1.611l23.377,13.491l22.198,12.812  l18.204,10.506l94.999,54.826l19.995,11.539l12.39,7.151c10.918,6.301,24.37,6.298,35.287-0.006l12.307-7.108l19.995-11.548  l94.989-54.863l27.325-15.782l22.191-12.818l14.319-8.27c0.841-0.486,1.648-1.013,2.439-1.562  c9.465-6.556,15.201-17.365,15.2-29.001L482.441,323.909z"/>
<path style="fill:#41479B;" d="M482.429,255.999l-0.006-40.745l-0.005-27.164l-0.008-42.486  c-0.001-11.607-5.715-22.389-15.14-28.946c-0.812-0.565-1.642-1.11-2.509-1.611l-23.711-13.684l-22.198-12.81l-17.87-10.313  l-94.999-54.826l-19.995-11.539l-12.39-7.151c-10.918-6.301-24.37-6.298-35.287,0.006l-12.307,7.108l-19.995,11.548l-94.988,54.862  L81.077,95.545l-22.191,12.818l-11.697,6.756c-0.841,0.486-1.648,1.015-2.439,1.562c-9.465,6.556-15.201,17.365-15.2,29.001  l0.007,42.41l0.005,27.164L29.57,256h452.86v-0.001H482.429z"/>
<path style="fill:#FFE15A;" d="M234.682,179.767c-0.13-0.384-0.424-0.696-0.802-0.849c-0.039-0.015-0.824-0.314-2.083-0.669  c0.554-0.75,0.945-1.628,0.945-2.629c0-0.859-0.305-1.616-0.722-2.301c1.383-0.774,2.359-2.197,2.359-3.89  c0-1.342-0.616-2.516-1.55-3.343c1.118-0.822,1.893-2.084,1.893-3.577c0-1.663-0.947-3.06-2.291-3.844  c0.706-0.797,1.17-1.817,1.17-2.963c0-1.994-1.322-3.638-3.12-4.234c0.41-0.68,0.71-1.432,0.71-2.283  c0-2.451-1.969-4.431-4.408-4.494c0.101-0.376,0.232-0.742,0.232-1.15c0-2.491-2.026-4.516-4.518-4.516  c-0.42,0-0.799,0.132-1.185,0.24c0.006-0.1,0.057-0.185,0.057-0.287c0-2.491-2.026-4.516-4.516-4.516  c-0.856,0-1.611,0.302-2.294,0.717c-0.527-1.909-2.204-3.345-4.279-3.345c-1.245,0-2.373,0.506-3.19,1.323  c-0.765-1.411-2.208-2.407-3.923-2.407c-1.565,0-2.878,0.847-3.689,2.059c-0.825-0.876-1.974-1.44-3.269-1.44  c-1.672,0-3.075,0.955-3.856,2.307c-0.827-0.926-1.997-1.535-3.334-1.535c-1.653,0-3.039,0.936-3.826,2.263  c-0.769-0.605-1.695-1.023-2.747-1.023c-1.898,0-3.512,1.185-4.179,2.848c-0.814-0.786-1.911-1.282-3.129-1.282  c-1.722,0-3.173,1.003-3.934,2.424c-0.332-0.206-0.672-0.369-1.055-0.484c0.952-1.407,1.508-3.103,1.508-4.926  c0-3.539-2.108-6.577-5.125-7.979l1.266-2.533c0.196-0.391,0.196-0.856,0-1.247l-1.525-3.049c0.111-0.101,0.216-0.206,0.317-0.317  l3.052,1.525c0.196,0.097,0.407,0.145,0.621,0.145s0.426-0.051,0.621-0.149l7.423-3.711c0.472-0.236,0.77-0.717,0.77-1.243  s-0.297-1.007-0.77-1.243l-7.423-3.711c-0.391-0.196-0.852-0.196-1.243,0l-3.049,1.525c-0.102-0.112-0.209-0.219-0.32-0.321  l1.525-3.049c0.196-0.391,0.196-0.855,0-1.247l-3.711-7.423c-0.471-0.942-2.019-0.942-2.491,0l-3.711,7.423  c-0.196,0.391-0.196,0.855,0,1.247l1.525,3.049c-0.111,0.101-0.216,0.206-0.317,0.317l-3.052-1.525  c-0.391-0.196-0.852-0.192-1.243,0.004l-7.423,3.711c-0.474,0.235-0.77,0.717-0.77,1.243c0,0.526,0.297,1.007,0.77,1.243  l7.423,3.711c0.196,0.097,0.407,0.149,0.621,0.149s0.426-0.051,0.621-0.149l3.049-1.525c0.102,0.112,0.209,0.219,0.32,0.321  l-1.525,3.049c-0.196,0.391-0.196,0.856,0,1.247l1.266,2.533c-3.017,1.402-5.125,4.44-5.125,7.979c0,1.786,0.542,3.444,1.458,4.834  c-0.551,0.105-1.051,0.29-1.513,0.577c-0.761-1.421-2.212-2.424-3.934-2.424c-1.217,0-2.316,0.495-3.129,1.282  c-0.666-1.663-2.279-2.848-4.179-2.848c-1.052,0-1.978,0.419-2.745,1.023c-0.787-1.327-2.174-2.263-3.828-2.263  c-1.337,0-2.507,0.61-3.334,1.535c-0.781-1.353-2.184-2.307-3.856-2.307c-1.295,0-2.446,0.564-3.269,1.44  c-0.811-1.211-2.124-2.059-3.689-2.059c-1.715,0-3.158,0.996-3.923,2.407c-0.817-0.817-1.946-1.323-3.19-1.323  c-2.074,0-3.753,1.436-4.279,3.345c-0.682-0.415-1.438-0.717-2.294-0.717c-2.491,0-4.516,2.026-4.516,4.516  c0,0.101,0.051,0.186,0.057,0.287c-0.386-0.107-0.765-0.24-1.185-0.24c-2.492,0-4.518,2.026-4.518,4.516  c0,0.407,0.131,0.774,0.232,1.15c-2.438,0.062-4.408,2.043-4.408,4.494c0,0.851,0.3,1.603,0.71,2.283  c-1.798,0.596-3.12,2.238-3.12,4.234c0,1.146,0.464,2.166,1.171,2.963c-1.343,0.784-2.291,2.179-2.291,3.844  c0,1.492,0.775,2.753,1.893,3.577c-0.933,0.827-1.55,2.001-1.55,3.343c0,1.693,0.976,3.117,2.359,3.89  c-0.417,0.685-0.722,1.442-0.722,2.301c0,1.055,0.42,1.983,1.028,2.753c-1.006,0.297-1.623,0.532-1.657,0.546  c-0.379,0.152-0.672,0.464-0.802,0.849c-0.13,0.387-0.084,0.812,0.125,1.163c0.111,0.181,11.053,18.557,14.676,36.669  c0.09,0.449,0.415,0.737,0.797,0.919c2.783,3.759,26.893,6.697,56.24,6.697s53.457-2.938,56.24-6.697  c0.382-0.182,0.709-0.47,0.797-0.919c3.619-18.098,14.565-36.488,14.676-36.669C234.766,180.58,234.812,180.156,234.682,179.767z"/>
<g>
	<path style="fill:#464655;" d="M234.682,179.767c-0.13-0.384-0.424-0.696-0.802-0.849c-0.039-0.015-0.824-0.314-2.083-0.669   c0.554-0.75,0.945-1.628,0.945-2.629c0-0.859-0.305-1.616-0.722-2.301c1.383-0.774,2.359-2.197,2.359-3.89   c0-1.342-0.616-2.516-1.55-3.343c1.118-0.822,1.893-2.084,1.893-3.577c0-1.663-0.947-3.06-2.291-3.844   c0.706-0.797,1.17-1.817,1.17-2.963c0-1.994-1.322-3.638-3.12-4.234c0.41-0.68,0.71-1.432,0.71-2.283   c0-2.451-1.969-4.431-4.408-4.494c0.101-0.376,0.232-0.742,0.232-1.15c0-2.491-2.026-4.516-4.518-4.516   c-0.42,0-0.799,0.132-1.185,0.24c0.006-0.1,0.057-0.185,0.057-0.287c0-2.491-2.026-4.516-4.516-4.516   c-0.856,0-1.611,0.302-2.294,0.717c-0.527-1.909-2.204-3.345-4.279-3.345c-1.245,0-2.373,0.506-3.19,1.323   c-0.765-1.411-2.208-2.407-3.923-2.407c-1.565,0-2.878,0.847-3.689,2.059c-0.825-0.876-1.974-1.44-3.269-1.44   c-1.672,0-3.075,0.955-3.856,2.307c-0.827-0.926-1.997-1.535-3.334-1.535c-1.653,0-3.039,0.936-3.826,2.263   c-0.769-0.605-1.695-1.023-2.747-1.023c-1.898,0-3.512,1.185-4.179,2.848c-0.814-0.786-1.911-1.282-3.129-1.282   c-1.722,0-3.173,1.003-3.934,2.424c-0.332-0.206-0.672-0.369-1.055-0.484c0.952-1.407,1.508-3.103,1.508-4.926   c0-3.539-2.108-6.577-5.125-7.979l1.266-2.533c0.196-0.391,0.196-0.856,0-1.247l-1.525-3.049c0.111-0.101,0.216-0.206,0.317-0.317   l3.052,1.525c0.196,0.097,0.407,0.145,0.621,0.145s0.426-0.051,0.621-0.149l7.423-3.711c0.472-0.236,0.77-0.717,0.77-1.243   s-0.297-1.007-0.77-1.243l-7.423-3.711c-0.391-0.196-0.852-0.196-1.243,0l-3.049,1.525c-0.102-0.112-0.209-0.219-0.32-0.321   l1.525-3.049c0.196-0.391,0.196-0.855,0-1.247l-3.711-7.423c-0.471-0.942-2.019-0.942-2.491,0l-3.711,7.423   c-0.196,0.391-0.196,0.855,0,1.247l1.525,3.049c-0.111,0.101-0.216,0.206-0.317,0.317l-3.052-1.525   c-0.391-0.196-0.852-0.192-1.243,0.004l-7.423,3.711c-0.474,0.235-0.77,0.717-0.77,1.243c0,0.526,0.297,1.007,0.77,1.243   l7.423,3.711c0.196,0.097,0.407,0.149,0.621,0.149s0.426-0.051,0.621-0.149l3.049-1.525c0.102,0.112,0.209,0.219,0.32,0.321   l-1.525,3.049c-0.196,0.391-0.196,0.856,0,1.247l1.266,2.533c-3.017,1.402-5.125,4.44-5.125,7.979c0,1.786,0.542,3.444,1.458,4.834   c-0.551,0.105-1.051,0.29-1.513,0.577c-0.761-1.421-2.212-2.424-3.934-2.424c-1.217,0-2.316,0.495-3.129,1.282   c-0.666-1.663-2.279-2.848-4.179-2.848c-1.052,0-1.978,0.419-2.745,1.023c-0.787-1.327-2.174-2.263-3.828-2.263   c-1.337,0-2.507,0.61-3.334,1.535c-0.781-1.353-2.184-2.307-3.856-2.307c-1.295,0-2.446,0.564-3.269,1.44   c-0.811-1.211-2.124-2.059-3.689-2.059c-1.715,0-3.158,0.996-3.923,2.407c-0.817-0.817-1.946-1.323-3.19-1.323   c-2.074,0-3.753,1.436-4.279,3.345c-0.682-0.415-1.438-0.717-2.294-0.717c-2.491,0-4.516,2.026-4.516,4.516   c0,0.101,0.051,0.186,0.057,0.287c-0.386-0.107-0.765-0.24-1.185-0.24c-2.492,0-4.518,2.026-4.518,4.516   c0,0.407,0.131,0.774,0.232,1.15c-2.438,0.062-4.408,2.043-4.408,4.494c0,0.851,0.3,1.603,0.71,2.283   c-1.798,0.596-3.12,2.238-3.12,4.234c0,1.146,0.464,2.166,1.171,2.963c-1.343,0.784-2.291,2.179-2.291,3.844   c0,1.492,0.775,2.753,1.893,3.577c-0.933,0.827-1.55,2.001-1.55,3.343c0,1.693,0.976,3.117,2.359,3.89   c-0.417,0.685-0.722,1.442-0.722,2.301c0,1.055,0.42,1.983,1.028,2.753c-1.006,0.297-1.623,0.532-1.657,0.546   c-0.379,0.152-0.672,0.464-0.802,0.849c-0.13,0.387-0.084,0.812,0.125,1.163c0.111,0.181,11.053,18.557,14.676,36.669   c0.09,0.449,0.415,0.737,0.797,0.919c2.783,3.759,26.893,6.697,56.24,6.697s53.457-2.938,56.24-6.697   c0.382-0.182,0.709-0.47,0.797-0.919c3.619-18.098,14.565-36.488,14.676-36.669C234.766,180.58,234.812,180.156,234.682,179.767z    M195.337,170.802V149.02c1.766-0.152,3.483-0.201,5.135-0.144v22.628C198.935,170.762,197.2,170.546,195.337,170.802z    M179.317,141.135c0.039,0.037,0.092,0.054,0.132,0.09c-0.06,0.012-0.117,0.025-0.177,0.039   C179.29,141.222,179.3,141.178,179.317,141.135z M228.225,173.889c0.955,0,1.732,0.776,1.732,1.732   c0,0.957-0.777,1.732-1.732,1.732s-1.732-0.776-1.732-1.732C226.492,174.664,227.271,173.889,228.225,173.889z M229.86,171.163   c-0.955,0-1.732-0.776-1.732-1.732c0-0.957,0.777-1.732,1.732-1.732c0.957,0,1.735,0.776,1.735,1.732   C231.594,170.387,230.817,171.163,229.86,171.163z M228.474,162.511c0-0.957,0.777-1.732,1.732-1.732s1.732,0.776,1.732,1.732   s-0.777,1.732-1.732,1.732S228.474,163.468,228.474,162.511z M176.717,179.767c-1.662-6.321-3.82-15.834-4.73-25.346   c0.957-0.335,2.602-0.885,4.73-1.528V179.767z M153.517,154.534c-0.98,10.121-3.37,20.259-5.055,26.5V152.89   C150.85,153.614,152.641,154.223,153.517,154.534z M164.576,143.099c0,0.957-0.777,1.732-1.732,1.732s-1.732-0.776-1.732-1.732   c0-0.957,0.777-1.732,1.732-1.732C163.799,141.365,164.576,142.141,164.576,143.099z M145.864,141.144l-0.011-0.003   c0,0,0.006-0.004,0.009-0.006C145.863,141.138,145.863,141.142,145.864,141.144z M94.973,160.779c0.955,0,1.732,0.776,1.732,1.732   s-0.777,1.732-1.732,1.732s-1.732-0.776-1.732-1.732C93.241,161.555,94.018,160.779,94.973,160.779z M97.052,169.43   c0,0.957-0.777,1.732-1.732,1.732c-0.957,0-1.735-0.776-1.735-1.732c0-0.957,0.777-1.732,1.735-1.732   C96.275,167.698,97.052,168.474,97.052,169.43z M96.954,173.889c0.955,0,1.732,0.776,1.732,1.732c0,0.957-0.777,1.732-1.732,1.732   s-1.732-0.776-1.732-1.732C95.222,174.664,95.999,173.889,96.954,173.889z M104.102,150.438c2.724-4.408,8.043-9.66,17.916-9.66   c9.64,0,23.241,2.945,31.953,5.111c0.004,1.889-0.082,3.825-0.216,5.773c-5.943-2.069-29.582-9.635-39.637-2.754   c-11.377,7.803-7.783,22.689-5.657,28.852c-1.81-0.49-3.639-0.712-5.392-0.747C98.958,168.766,99.372,158.093,104.102,150.438z    M111.942,179.111c-0.978-2.276-7.236-18.013,2.066-26.523v27.766C113.338,179.876,112.646,179.472,111.942,179.111z    M116.791,150.626c1.47-0.762,3.203-1.256,5.134-1.518v24.768c-2.792,2.83-4.033,6.724-4.58,9.654   c-0.176-0.222-0.371-0.401-0.555-0.609L116.791,150.626L116.791,150.626L116.791,150.626z M124.709,148.874   c1.651-0.057,3.368-0.009,5.134,0.144v21.759c-0.304-0.027-0.621-0.105-0.917-0.105c-1.368,0-2.652,0.286-3.819,0.874   c-0.144,0.071-0.26,0.169-0.399,0.245v-22.916L124.709,148.874L124.709,148.874z M132.626,149.317   c1.725,0.229,3.447,0.529,5.134,0.866v23.825c-1.767-1.218-3.485-2.099-5.134-2.638V149.317z M140.544,150.781   c1.824,0.42,3.547,0.861,5.134,1.303v29.458c-1.535-1.941-3.303-3.779-5.134-5.377V150.781z M156.74,146.593   c2.093,0.542,3.744,0.996,4.712,1.268v23.606c-3.773,0.381-6.654,2.308-8.854,4.676   C154.559,167.982,156.667,156.845,156.74,146.593z M164.236,147.861c0.943-0.265,2.527-0.7,4.54-1.223   c0.077,10.148,2.146,21.152,4.088,29.282c-2.172-2.261-4.979-4.084-8.626-4.453v-23.606L164.236,147.861L164.236,147.861z    M179.501,152.087c1.587-0.442,3.309-0.884,5.134-1.303v25.602c0,0.065,0.029,0.121,0.037,0.185   c-1.874,1.693-3.649,3.635-5.171,5.65V152.087z M187.419,150.185c1.688-0.337,3.409-0.637,5.134-0.866V171.5   c-1.651,0.606-3.374,1.567-5.134,2.838V150.185z M203.255,149.109c1.932,0.262,3.664,0.755,5.134,1.517v32.602   c0,0.072,0.031,0.136,0.041,0.206c-0.027,0.034-0.059,0.06-0.087,0.095c-0.577-3.094-1.952-7.246-5.089-10.101v-24.32   L203.255,149.109L203.255,149.109z M211.171,152.588c9.965,9.124,2.027,26.62,1.941,26.805c-0.009,0.019-0.006,0.039-0.014,0.057   c-0.661,0.376-1.301,0.817-1.927,1.303L211.171,152.588L211.171,152.588z M211.061,148.908c-9.855-6.749-32.814,0.407-39.308,2.641   c-0.127-1.894-0.211-3.776-0.207-5.616c8.703-2.171,22.421-5.155,32.125-5.155c9.874,0,15.192,5.252,17.916,9.66   c4.73,7.655,5.144,18.329,1.033,26.575c-1.936,0.039-3.966,0.311-5.96,0.917C218.777,171.871,222.542,156.782,211.061,148.908z    M229.084,157.437c-0.955,0-1.732-0.776-1.732-1.732s0.777-1.732,1.732-1.732c0.957,0,1.735,0.776,1.735,1.732   S230.041,157.437,229.084,157.437z M228.408,149.187c0,0.957-0.777,1.736-1.735,1.736c-0.955,0-1.732-0.78-1.732-1.736   s0.777-1.732,1.732-1.732C227.63,147.455,228.408,148.231,228.408,149.187z M224.233,143.545c0,0.957-0.777,1.732-1.735,1.732   c-0.955,0-1.732-0.776-1.732-1.732c0-0.957,0.777-1.732,1.732-1.732C223.455,141.811,224.233,142.587,224.233,143.545z    M216.855,137.249c0.955,0,1.732,0.776,1.732,1.732c0,0.957-0.777,1.736-1.732,1.736c-0.957,0-1.735-0.78-1.735-1.736   C215.12,138.024,215.899,137.249,216.855,137.249z M210.281,134.621c0.955,0,1.732,0.776,1.732,1.732   c0,0.957-0.777,1.732-1.732,1.732s-1.732-0.776-1.732-1.732C208.549,135.396,209.327,134.621,210.281,134.621z M203.168,133.537   c0.955,0,1.732,0.776,1.732,1.732c0,0.957-0.777,1.736-1.732,1.736c-0.957,0-1.735-0.78-1.735-1.736   C201.435,134.312,202.212,133.537,203.168,133.537z M196.21,134.156c0.955,0,1.732,0.776,1.732,1.732   c0,0.957-0.777,1.732-1.732,1.732c-0.957,0-1.735-0.776-1.735-1.732S195.253,134.156,196.21,134.156z M189.018,134.928   c0.955,0,1.732,0.776,1.732,1.732s-0.777,1.736-1.732,1.736c-0.957,0-1.735-0.78-1.735-1.736   C187.284,135.704,188.061,134.928,189.018,134.928z M182.445,136.168c0.955,0,1.732,0.776,1.732,1.732s-0.777,1.732-1.732,1.732   s-1.732-0.776-1.732-1.732C180.713,136.944,181.491,136.168,182.445,136.168z M175.139,137.734c0.955,0,1.732,0.776,1.732,1.732   s-0.777,1.732-1.732,1.732s-1.732-0.776-1.732-1.732S174.184,137.734,175.139,137.734z M168.875,142.881   c-0.955,0-1.732-0.776-1.732-1.732s0.777-1.732,1.732-1.732s1.732,0.776,1.732,1.732S169.83,142.881,168.875,142.881z    M160.525,113.407c0-1.28,1.04-2.319,2.319-2.319s2.319,1.04,2.319,2.319s-1.04,2.319-2.319,2.319S160.525,114.686,160.525,113.407   z M170.267,111.25l4.311,2.157l-4.311,2.157l-2.416-1.208c0.059-0.307,0.096-0.624,0.096-0.948s-0.037-0.641-0.096-0.95   L170.267,111.25z M160.69,105.984l2.154-4.31l2.154,4.31l-1.208,2.416c-0.307-0.059-0.622-0.096-0.947-0.096   s-0.64,0.037-0.947,0.096L160.69,105.984z M155.421,115.562l-4.311-2.157l4.311-2.157l2.416,1.208   c-0.057,0.307-0.096,0.624-0.096,0.948c0,0.325,0.037,0.641,0.096,0.95L155.421,115.562z M160.69,120.83l1.208-2.416   c0.307,0.059,0.622,0.096,0.947,0.096s0.64-0.037,0.947-0.096L165,120.83l-1.207,2.416c-0.315-0.034-0.622-0.096-0.947-0.096   s-0.631,0.061-0.947,0.096L160.69,120.83z M162.844,125.932c3.325,0,6.031,2.704,6.031,6.031c0,3.328-2.705,6.031-6.031,6.031   c-3.325,0-6.031-2.704-6.031-6.031C156.814,128.636,159.519,125.932,162.844,125.932z M156.304,139.416   c0.955,0,1.732,0.776,1.732,1.732s-0.777,1.732-1.732,1.732s-1.732-0.776-1.732-1.732S155.349,139.416,156.304,139.416z    M150.04,137.734c0.955,0,1.732,0.776,1.732,1.732s-0.777,1.732-1.732,1.732s-1.732-0.776-1.732-1.732   S149.086,137.734,150.04,137.734z M142.734,136.168c0.955,0,1.732,0.776,1.732,1.732s-0.777,1.732-1.732,1.732   s-1.732-0.776-1.732-1.732S141.779,136.168,142.734,136.168z M136.16,134.928c0.957,0,1.735,0.776,1.735,1.732   s-0.777,1.736-1.735,1.736c-0.955,0-1.732-0.78-1.732-1.736C134.428,135.704,135.206,134.928,136.16,134.928z M128.97,134.156   c0.957,0,1.735,0.776,1.735,1.732c0,0.957-0.777,1.732-1.735,1.732c-0.955,0-1.732-0.776-1.732-1.732   C127.237,134.932,128.014,134.156,128.97,134.156z M122.011,133.537c0.957,0,1.735,0.776,1.735,1.732   c0,0.957-0.777,1.736-1.735,1.736c-0.955,0-1.732-0.78-1.732-1.736C120.279,134.312,121.056,133.537,122.011,133.537z    M114.897,134.621c0.955,0,1.732,0.776,1.732,1.732c0,0.957-0.777,1.732-1.732,1.732s-1.732-0.776-1.732-1.732   C113.164,135.396,113.943,134.621,114.897,134.621z M108.324,137.249c0.957,0,1.735,0.776,1.735,1.732   c0,0.957-0.777,1.736-1.735,1.736c-0.955,0-1.732-0.78-1.732-1.736C106.592,138.024,107.37,137.249,108.324,137.249z    M102.681,141.811c0.955,0,1.732,0.776,1.732,1.732c0,0.957-0.777,1.732-1.732,1.732c-0.957,0-1.735-0.776-1.735-1.732   S101.724,141.811,102.681,141.811z M98.506,147.455c0.955,0,1.732,0.776,1.732,1.732s-0.777,1.736-1.732,1.736   c-0.957,0-1.735-0.78-1.735-1.736C96.771,148.231,97.548,147.455,98.506,147.455z M96.095,153.972c0.955,0,1.732,0.776,1.732,1.732   s-0.777,1.732-1.732,1.732c-0.957,0-1.735-0.776-1.735-1.732C94.361,154.748,95.138,153.972,96.095,153.972z M217.409,215.885   c-6.418-3.174-28.381-5.516-54.565-5.516c-26.185,0-48.147,2.342-54.565,5.516c-3.319-15.367-11.256-30.234-13.901-34.907   c4.408-1.352,17.027-4.034,22.684,7.282c0.29,0.576,0.941,0.881,1.565,0.732c0.629-0.149,1.072-0.71,1.072-1.356   c0-0.101,0.076-10.312,6.653-13.603c6.513-3.24,17.049,7.517,20.402,14.226c0,0,0.004,0.003,0.004,0.005   c0.111,0.219,0.294,0.387,0.506,0.524c0.044,0.027,0.085,0.052,0.132,0.075c0.06,0.03,0.107,0.076,0.174,0.097   c0.142,0.047,0.289,0.069,0.43,0.069c0.026,0,0.046-0.023,0.072-0.024c0.029,0,0.049,0.018,0.077,0.016   c0.131-0.015,0.227-0.104,0.345-0.152c0.125-0.05,0.25-0.074,0.356-0.157c0.129-0.101,0.197-0.247,0.285-0.389   c0.057-0.092,0.154-0.15,0.19-0.259c0.041-0.126,0.214-0.669,0.47-1.511c1.216-3.517,5.07-12.37,13.051-12.37   c6.773,0,10.573,6.38,12.314,10.461c0.569,1.961,0.967,3.217,1.033,3.42c0.192,0.591,0.737,0.965,1.325,0.965   c0.141,0,0.286-0.021,0.43-0.069c0.026-0.009,0.042-0.029,0.067-0.039c0.387-0.099,0.737-0.292,0.922-0.661   c3.354-6.713,13.9-17.445,20.402-14.226c0.437,0.219,0.841,0.472,1.222,0.747c0.377,0.319,0.632,0.554,1.062,0.9   c4.286,4.184,4.369,11.867,4.369,11.955c0.001,0.645,0.446,1.207,1.072,1.356c0.632,0.145,1.276-0.156,1.565-0.732   c5.647-11.291,18.268-8.626,22.683-7.278C228.664,185.658,220.729,200.522,217.409,215.885z"/>
	<path style="fill:#464655;" d="M168.335,185.288c-0.18,0.149-0.356,0.305-0.53,0.469c-1.35,1.271-3.57,0.272-3.57-1.582v-0.25   c0-0.769-0.624-1.392-1.392-1.392c-0.769,0-1.392,0.624-1.392,1.392v0.25c0,1.854-2.219,2.853-3.57,1.582   c-0.172-0.162-0.35-0.319-0.53-0.469c-0.591-0.486-1.47-0.414-1.959,0.185c-0.491,0.591-0.41,1.468,0.182,1.961   c3.803,3.149,5.876,10.598,5.876,13.541v1.508c0,0.769,0.624,1.392,1.392,1.392c0.769,0,1.392-0.624,1.392-1.392v-1.508   c0-2.943,2.073-10.391,5.876-13.541c0.592-0.492,0.674-1.37,0.182-1.961C169.804,184.878,168.926,184.802,168.335,185.288z"/>
	<path style="fill:#464655;" d="M199.892,191.134c-0.164-0.012-0.326-0.018-0.49-0.012c-1.303,0.09-2.577-1.761-1.944-3.197   c0.026-0.06,0.054-0.121,0.08-0.182c0.244-0.555,0.057-1.463-0.406-2.053c-0.464-0.589-1.065-0.559-1.352,0.095   c-0.031,0.07-0.061,0.139-0.092,0.209c-0.657,1.492-2.549,1.046-2.848-1.147c-0.037-0.282-0.076-0.569-0.12-0.854   c-0.146-0.927-0.68-1.571-1.248-1.313c-0.565,0.247-0.947,1.287-0.811,2.229c0.805,6.223-0.117,12.784-1.172,15.17   c-0.185,0.421-0.371,0.842-0.556,1.265c-0.286,0.65,0.079,1.153,0.826,1.098c0.747-0.056,1.56-0.57,1.805-1.125   c0.162-0.367,0.324-0.735,0.486-1.103c0.998-2.277,5.184-7.324,8.611-7.062c0.551-0.004,0.786-0.362,0.566-0.901   C201.006,191.716,200.425,191.179,199.892,191.134z"/>
	<path style="fill:#464655;" d="M220.542,195.465c-0.136,0-0.271,0.007-0.409,0.024c-1.093,0.182-2.021-1.516-1.39-2.952   c0.026-0.06,0.054-0.121,0.08-0.182c0.244-0.555,0.155-1.421-0.189-1.957s-0.847-0.462-1.135,0.191   c-0.031,0.07-0.061,0.14-0.092,0.209c-0.657,1.492-2.203,1.198-2.292-0.902c-0.01-0.271-0.022-0.545-0.037-0.817   c-0.054-0.887-0.452-1.471-0.946-1.18c-0.49,0.281-0.884,1.316-0.839,2.217c0.217,5.965-1.031,12.382-2.084,14.768   c-0.185,0.421-0.371,0.842-0.556,1.263c-0.286,0.651-0.019,1.111,0.61,1.003c0.629-0.109,1.343-0.665,1.587-1.22   c0.162-0.367,0.324-0.736,0.486-1.103c0.998-2.277,4.859-7.467,7.699-7.463c0.46-0.044,0.682-0.407,0.539-0.914   C221.428,195.948,220.982,195.469,220.542,195.465z"/>
	<path style="fill:#464655;" d="M136.178,200.08c-1.055-2.386-1.977-8.948-1.172-15.17c0.136-0.941-0.246-1.981-0.811-2.229   c-0.569-0.257-1.103,0.386-1.248,1.313c-0.044,0.285-0.082,0.57-0.12,0.854c-0.299,2.193-2.191,2.639-2.847,1.147   c-0.031-0.07-0.061-0.14-0.092-0.209c-0.287-0.654-0.887-0.684-1.352-0.095c-0.464,0.59-0.65,1.497-0.406,2.053   c0.026,0.061,0.054,0.122,0.08,0.182c0.632,1.436-0.642,3.287-1.944,3.197c-0.164-0.005-0.326,0-0.49,0.012   c-0.532,0.045-1.113,0.582-1.335,1.118c-0.22,0.539,0.015,0.897,0.566,0.901c3.428-0.262,7.614,4.785,8.611,7.062   c0.161,0.367,0.324,0.735,0.485,1.103c0.244,0.555,1.056,1.067,1.805,1.125c0.747,0.055,1.112-0.447,0.826-1.098   C136.549,200.923,136.364,200.502,136.178,200.08z"/>
	<path style="fill:#464655;" d="M114.458,204.883c-1.053-2.386-2.302-8.804-2.084-14.768c0.045-0.901-0.35-1.936-0.84-2.217   c-0.494-0.291-0.892,0.292-0.946,1.18c-0.016,0.272-0.027,0.546-0.037,0.817c-0.089,2.101-1.635,2.394-2.292,0.902   c-0.031-0.07-0.061-0.14-0.092-0.209c-0.287-0.654-0.791-0.726-1.135-0.191c-0.344,0.536-0.434,1.402-0.189,1.957   c0.026,0.061,0.054,0.122,0.08,0.182c0.632,1.436-0.296,3.134-1.39,2.952c-0.137-0.016-0.272-0.024-0.407-0.024   c-0.441,0.004-0.887,0.482-1.032,0.986c-0.144,0.505,0.079,0.87,0.539,0.913c2.84-0.004,6.701,5.186,7.699,7.463   c0.162,0.367,0.324,0.735,0.486,1.103c0.244,0.555,0.96,1.11,1.587,1.22c0.627,0.107,0.896-0.352,0.61-1.003   C114.828,205.725,114.643,205.304,114.458,204.883z"/>
</g>
<g>
</g>
<g>
</g>
<g>
</g>
<g>
</g>
<g>
</g>
<g>
</g>
<g>
</g>
<g>
</g>
<g>
</g>
<g>
</g>
<g>
</g>
<g>
</g>
<g>
</g>
<g>
</g>
<g>
</g>
</svg>
