<?xml version="1.0" encoding="iso-8859-1"?>
<!-- Generator: Adobe Illustrator 19.0.0, SVG Export Plug-In . SVG Version: 6.00 Build 0)  -->
<svg xmlns="http://www.w3.org/2000/svg" xmlns:xlink="http://www.w3.org/1999/xlink" version="1.1" id="Layer_1" x="0px" y="0px" viewBox="0 0 512.003 512.003" style="enable-background:new 0 0 512.003 512.003;" xml:space="preserve">
<path style="fill:#FFD250;" d="M482.436,296.746l-0.014-81.491l-0.005-27.164l-0.008-42.485  c-0.001-11.607-5.715-22.388-15.14-28.946c-0.812-0.565-1.642-1.11-2.509-1.611l-23.711-13.684l-22.198-12.81l-17.87-10.313  l-94.999-54.826l-19.995-11.539l-12.39-7.151c-10.918-6.301-24.37-6.298-35.287,0.006l-12.307,7.108l-19.995,11.548L111.024,78.25  L81.077,95.546l-22.191,12.818l-11.697,6.756c-0.841,0.486-1.648,1.015-2.439,1.561c-9.465,6.556-15.201,17.365-15.2,29.001  l0.007,42.41l0.005,27.164l0.014,81.491l0.005,27.164l0.007,42.486c0.003,11.607,5.715,22.388,15.14,28.946  c0.812,0.565,1.642,1.11,2.509,1.611l23.377,13.491l22.198,12.811l18.204,10.506l94.999,54.826l19.995,11.539l12.39,7.151  c10.92,6.301,24.37,6.298,35.287-0.006l12.307-7.108l19.995-11.548l94.989-54.863l27.325-15.782l22.191-12.818l14.319-8.27  c0.841-0.486,1.648-1.015,2.439-1.561c9.465-6.556,15.201-17.365,15.2-29.001l-0.008-42.41L482.436,296.746z"/>
<polygon style="fill:#FF7350;" points="109.789,110.711 96.043,253.501 109.789,401.31 124.757,409.948 167.275,434.485   167.275,77.51 124.774,102.057 "/>
<path style="fill:#5AA587;" d="M94.827,119.352l-22.19,12.818l-11.698,6.756c-0.014,0.009-0.161,0.097-0.536,0.356  c-2.103,1.456-3.36,3.848-3.359,6.395l0.007,42.411l0.005,27.164l0.014,81.491l0.005,27.164l0.007,42.485  c0,2.538,1.252,4.925,3.349,6.382c0.39,0.271,0.545,0.364,0.561,0.374l23.365,13.484l22.198,12.813l3.237,1.868V110.711  L94.827,119.352z"/>
<path style="fill:#963C3C;" d="M454.949,323.914l-0.005-27.164l-0.014-81.49l-0.005-27.164l-0.008-42.485  c0-2.538-1.252-4.924-3.349-6.382c-0.39-0.271-0.545-0.364-0.561-0.374l-23.699-13.676l-22.198-12.81l-17.87-10.313L292.242,47.23  l-19.995-11.541l-12.389-7.151c-1.182-0.685-2.529-1.046-3.895-1.046c-1.367,0-2.716,0.362-3.899,1.045l-12.307,7.108  l-19.995,11.548L194.766,61.63v388.721l24.989,14.422l19.995,11.541l12.389,7.151c1.182,0.682,2.531,1.043,3.896,1.043  c1.367,0,2.716-0.362,3.899-1.045l12.307-7.108l19.995-11.548l94.989-54.862l27.325-15.782l22.191-12.818l14.319-8.27  c0.015-0.009,0.162-0.098,0.536-0.356c2.104-1.457,3.36-3.848,3.36-6.395L454.949,323.914z"/>
<g>
	<path style="fill:#FFD250;" d="M482.441,323.909l-0.005-27.164l-0.014-81.491l-0.005-27.164l-0.008-42.485   c0-2.902-0.357-5.752-1.041-8.496c-0.512-2.059-1.208-4.059-2.073-5.978c-2.597-5.756-6.723-10.782-12.025-14.471   c-0.812-0.565-1.642-1.11-2.509-1.611l-23.711-13.684l-22.198-12.811l-17.87-10.313l-94.999-54.826l-19.995-11.539l-12.39-7.151   c-0.272-0.157-0.554-0.292-0.829-0.442c-1.105-0.599-2.226-1.152-3.374-1.625c-0.369-0.152-0.746-0.279-1.118-0.417   c-0.351-0.131-0.699-0.275-1.053-0.394C263.576,0.615,259.77,0,255.964,0c-5.215,0-10.427,1.165-15.245,3.474   c-0.109,0.052-0.22,0.095-0.329,0.147c-0.236,0.116-0.466,0.252-0.701,0.375c-0.46,0.239-0.923,0.472-1.375,0.734l-12.307,7.108   l-19.995,11.548l-11.247,6.496l0,0l-27.492,15.879l0,0l-34.069,19.677l-22.18,12.812L81.077,95.546l-22.191,12.818l-11.697,6.756   c-0.841,0.486-1.648,1.015-2.439,1.561c-9.465,6.556-15.201,17.365-15.2,29.001l0.007,42.41l0.005,27.164l0.014,81.491   l0.005,27.164l0.007,42.485c0.001,6.528,1.81,12.796,5.069,18.199c1.811,3,4.069,5.735,6.714,8.097   c1.058,0.945,2.178,1.831,3.357,2.651c0.812,0.565,1.642,1.11,2.509,1.611l23.377,13.491l22.198,12.811l18.204,10.506l11.274,6.507   l44.984,25.962l0,0l27.492,15.867l0,0l11.247,6.491l19.995,11.539l12.39,7.151c1.365,0.787,2.769,1.477,4.203,2.067   c0.107,0.044,0.216,0.079,0.322,0.121c0.612,0.245,1.226,0.481,1.848,0.691c3.651,1.23,7.458,1.845,11.264,1.845   c6.095,0,12.188-1.577,17.649-4.73l12.307-7.108l19.995-11.548l94.989-54.863l27.325-15.782l22.191-12.818l14.319-8.27   c0.841-0.486,1.648-1.013,2.439-1.562c7.099-4.916,12.1-12.227,14.156-20.483c0.685-2.752,1.043-5.61,1.043-8.518L482.441,323.909z    M167.275,434.485l-42.517-24.538l-18.203-10.505l-22.198-12.813l-23.365-13.484c-0.016-0.01-0.171-0.102-0.561-0.374   c-2.097-1.458-3.348-3.845-3.349-6.382l-0.007-42.485l-0.005-27.164l-0.014-81.491l-0.005-27.164l-0.007-42.411   c0-2.547,1.256-4.937,3.359-6.395c0.374-0.26,0.522-0.347,0.536-0.356l11.698-6.756l22.19-12.818l29.948-17.297l42.5-24.547   V434.485z M451.596,372.718c-0.374,0.259-0.521,0.347-0.536,0.356l-14.319,8.27l-22.191,12.818l-27.325,15.782l-94.989,54.862   l-19.995,11.548l-12.307,7.108c-1.183,0.684-2.532,1.045-3.899,1.045c-1.366,0-2.713-0.361-3.896-1.043l-12.389-7.151   l-19.995-11.541l-24.989-14.422V61.632l24.997-14.437l19.995-11.548l12.307-7.108c1.183-0.684,2.532-1.045,3.899-1.045   c1.366,0,2.713,0.361,3.896,1.043l12.389,7.151l19.995,11.541l94.999,54.826l17.87,10.313l22.198,12.81l23.698,13.676   c0.016,0.01,0.171,0.102,0.561,0.374c2.097,1.458,3.348,3.845,3.349,6.382l0.008,42.485l0.005,27.164l0.014,81.49l0.005,27.164   l0.008,42.41C454.956,368.87,453.701,371.261,451.596,372.718z"/>
	<path style="fill:#FFD250;" d="M374.626,315.22c-0.247-1.652,1.207-3.785,3.453-6.851c0.812-1.107,1.987-2.713,2.304-3.482   c-0.21-0.015-0.497,0.001-0.711,0.014c-1.243,0.06-3.124,0.146-4.767-1.678c-0.644-0.716-0.952-1.61-0.892-2.586   c0.122-1.984,1.743-3.936,2.749-4.969c-2.593-1.821-5.07-3.713-7.354-5.997c-4.365-4.366-9.344-6.468-14.841-6.353   c-0.509,5.469,2.308,9.064,5.316,12.848c0.886,1.113,1.771,2.227,2.573,3.39c3.956,5.727,3.129,16.785,2.627,17.956   c-0.569,1.327-3.697,4.271-7.988,3.698c-1.973-0.26-4.245,0.404-5.676,1.655c-0.615,0.539-1.35,1.433-1.35,2.634   c0,0.06,0.005,0.365,0.099,0.42c0.576,0.349,2.73-0.332,4.271-1.165c0.425-0.231,0.955-0.164,1.313,0.17   c3.033,2.839,6.077,0.386,6.413,0.097c0.416-0.355,1.03-0.367,1.453-0.026c3.104,2.502,6.34-0.232,6.477-0.351   c0.381-0.329,0.94-0.369,1.363-0.091c1.347,0.883,2.578,1.136,3.678,0.759c0.96-0.334,1.47-1.055,1.528-1.228   c0.027-0.459-0.589-2.827-0.997-4.393C375.237,318.046,374.794,316.347,374.626,315.22z"/>
	<path style="fill:#FFD250;" d="M408.242,210.511c-0.935-0.071-1.612,0.131-2.076,0.59c-0.85,0.84-0.78,2.353-0.779,2.368   c0.017,0.336-0.115,0.665-0.361,0.893c-0.247,0.229-0.58,0.345-0.916,0.296c-1.682-0.22-4.168-1.994-8.781-5.375   c-7.329-5.372-18.407-13.491-28.977-14.827c-12.284-1.561-23.217,2.359-25.995,9.304c-3.093,7.733,3.48,14.777,3.547,14.848   c0.335,0.354,0.407,0.882,0.179,1.311c-1.733,3.264-0.42,5.675,0.762,6.994c0.37-1.09,0.925-1.835,1.69-2.292   c1.845-1.102,4.251-0.19,7.58,1.071c1.968,0.744,4.196,1.587,6.797,2.224c6.667,1.635,14.8,0.177,21.974-1.107   c2.536-0.455,4.981-0.891,7.256-1.181c5.722-0.729,11.458,1.807,13.035,5.782c0.764,1.924,1.172,5.79-4.672,10.041   c-10.512,7.647-58.449,4.118-61.273,3.903c-0.064,0.006-0.125,0.011-0.257,0.021c1.048,1.177,2.278,2.326,2.813,2.468   c0.546,0.146,0.901,0.671,0.832,1.233c-0.07,0.561-0.541,0.986-1.106,0.995l-4.911,0.075l0.451,4.726   c0.033,0.349-0.097,0.694-0.352,0.932c-0.255,0.24-0.609,0.341-0.951,0.295c-0.192-0.031-4.431-0.71-7.362-2.338l-5.546,3.499   c-0.182,0.115-0.394,0.174-0.605,0.174c-0.122,0-0.246-0.019-0.365-0.06c-0.325-0.111-0.581-0.36-0.699-0.681l-2.117-5.755   l-2.509,5.02c-0.182,0.367-0.55,0.606-0.958,0.626c-0.407,0.042-0.796-0.181-1.015-0.53l-2.151-3.428   c-0.983,1.228-2.561,3.018-4.174,4.135c-0.295,0.206-0.669,0.256-1.01,0.141c-0.341-0.116-0.606-0.387-0.714-0.73l-1.127-3.558   c-0.997,1.261-2.439,2.933-3.966,4.185c-0.326,0.271-0.779,0.335-1.17,0.164c-0.39-0.17-0.652-0.542-0.679-0.966l-0.362-5.718   c-1.291,0.659-3.049,1.515-4.023,1.819c-0.442,0.139-0.931-0.009-1.221-0.374c-0.292-0.364-0.33-0.869-0.098-1.273   c1.747-3.034,3.35-6.823,3.473-8.706c-1.158,1.388-2.78,2.716-4.594,4.19c-3.855,3.139-8.654,7.043-12.185,13.877   c-2.467,4.776-4.238,13.108-1.113,20.876c2.666,6.627,8.405,11.571,17.002,14.747c-0.287-1.255-0.509-2.487-0.531-3.644   c-0.112-5.885,1.11-11.254,1.162-11.481c0.14-0.611,0.746-0.996,1.357-0.849c0.611,0.14,0.99,0.747,0.85,1.357   c-0.012,0.052-1.21,5.334-1.103,10.927c0.052,2.738,1.23,6.117,2.369,9.384c1.512,4.344,3.077,8.834,2.397,12.614   c-0.926,5.137-7.322,6.439-13.259,5.448c-1.687-0.284-3.223,0.132-4.326,1.162c-1.12,1.045-1.693,2.644-1.536,4.283   c0.075,0.771,0.362,0.926,0.457,0.978c0.714,0.386,2.394-0.139,3.303-0.614c0.457-0.24,1.022-0.141,1.372,0.25   c2.381,2.667,5.587,0.006,5.722-0.111c0.46-0.387,1.146-0.352,1.56,0.089c0.897,0.956,1.847,1.432,2.904,1.456   c1.934,0.117,3.769-1.603,3.788-1.618c0.335-0.326,0.836-0.41,1.26-0.219c3.737,1.71,5.697,0.717,5.778,0.67   c3.242-2.764,1.368-9.324,1.35-9.39c-0.089-0.3-0.049-0.622,0.109-0.891c0.157-0.27,0.42-0.461,0.724-0.532   c4.541-1.041,7.081-3.956,8.308-5.888c-2.243-0.022-4.026-0.809-5.077-2.451c-1.692-2.649-0.88-6.639,2.071-10.165   c5.047-6.032,8.134-18.238,7.67-23.209c-0.057-0.622,0.401-1.175,1.023-1.233c0.606-0.063,1.175,0.401,1.233,1.023   c0.404,4.354-1.558,13.385-5.141,20.196c4.54-1.256,8.683-3.093,13.005-5.066c4.298-1.961,8.741-3.988,14.081-5.66   c9.026-2.827,16.987-0.867,23.671,5.82c3.238,3.238,6.773,5.61,10.867,8.358c1.798,1.206,3.669,2.462,5.61,3.86   c5.261,3.788,5.169,6.951,5.07,10.3c-0.03,1.021-0.062,2.076,0.054,3.219c0.542,5.437-3.78,6.297-5.86,6.711   c-0.285,0.056-0.551,0.109-0.785,0.166c-0.294,0.074-0.645,0.146-1.032,0.224c-2.111,0.427-5.3,1.075-6.083,3.776   c-0.141,0.484-0.087,0.654-0.087,0.654c0.334,0.152,2.061-0.24,3.437-0.866c0.292-0.134,0.624-0.136,0.917-0.01   c0.294,0.125,0.521,0.37,0.626,0.672c0.401,1.176,1.027,1.376,1.232,1.442c1.426,0.446,3.76-0.867,4.464-1.367   c0.439-0.309,1.028-0.276,1.423,0.086c1.17,1.068,2.251,1.538,3.223,1.407c1.301-0.181,2.091-1.406,2.099-1.42   c0.187-0.302,0.506-0.5,0.861-0.532c0.36-0.019,0.705,0.107,0.944,0.37c0.003,0.005,0.995,1.05,3.023,1.692   c1.331,0.416,1.666-0.064,1.776-0.222c0.562-0.82,0.36-2.913-0.736-4.283c-1.437-1.797-2.103-4.529-1.699-6.959   c0.371-2.238,1.578-4.063,3.487-5.277c3.498-2.226,4.298-4.625,4.073-5.081c-0.065-0.031-0.444-0.081-0.749-0.121   c-1.561-0.206-4.173-0.551-6.859-5.512c-2.372-4.378-0.076-11.309,2.579-19.337c1.348-4.066,2.74-8.274,3.599-12.399   c2.378-11.413-5.095-20.474-5.17-20.564c-0.386-0.46-0.346-1.143,0.092-1.555c5.245-4.921,7.5-9.484,6.699-13.559   c-0.833-4.25-4.949-7.221-8.219-8.473c-4.075-1.562-11.512-0.674-18.705,0.181c-6.011,0.714-11.693,1.391-15.36,0.626   c-1.889-0.397-3.273-1.292-4.113-2.661c-0.692-1.128-0.861-2.364-0.854-3.329c-1.822,0.685-3.052,2.372-3.067,2.393   c-0.209,0.291-0.542,0.467-0.9,0.474c-0.447-0.018-0.701-0.156-0.917-0.439c-0.926-1.197-1.3-2.519-1.105-3.93   c0.249-1.823,1.427-3.392,2.391-4.403c-4.218-1.481-7.449,2.053-7.598,2.222c-0.369,0.409-0.975,0.496-1.441,0.214   c-2.034-1.251-3.295-3.705-3.215-6.253c0.076-2.406,1.317-4.423,3.403-5.53c1.43-0.759,2.799-0.898,4.071-0.419   c1.21,0.456,2.058,1.397,2.592,2.194c1.543-1.76,1.673-4.797,1.673-4.832c0.009-0.304,0.137-0.591,0.36-0.799   c0.221-0.206,0.53-0.336,0.82-0.304c2.683,0.111,4.766,1.08,6.19,2.879c1.946,2.462,2.128,5.881,2.013,7.998   c4.285-2.188,3.743-7.237,3.714-7.473c-0.046-0.39,0.112-0.775,0.417-1.02c0.305-0.244,0.712-0.319,1.086-0.182   c4.548,1.605,6.202,5.66,6.592,8.678c1.287-1.228,1.307-2.805,1.307-2.827c0-0.517,0.351-0.968,0.852-1.097   c0.506-0.126,1.027,0.1,1.275,0.555c1.755,3.207,4.43,5.202,6.387,6.32l-1.348-3.268c-0.182-0.442-0.067-0.952,0.287-1.273   c0.357-0.321,0.877-0.384,1.297-0.156c2.243,1.208,4.021,2.576,5.902,4.024c2.268,1.747,4.615,3.552,7.922,5.105   c3.228,1.518,5.405,1.228,6.657,0.721c1.298-0.524,2.039-1.448,2.281-2.081c0.456-1.196,0.589-2.914-0.144-4.054   C410.136,210.991,409.341,210.584,408.242,210.511z"/>
	<path style="fill:#FFD250;" d="M274.494,226.8c0.003,0.001,0.004,0.003,0.004,0.003c0.006,0.001,0.009,0.001,0.012,0.001   c0.084,0.027,8.554,2.701,16.246,3.158c0.421,0.025,0.796,0.285,0.967,0.671c0.171,0.387,0.114,0.84-0.152,1.17l-0.269,0.335   c1.526-0.229,3.444-0.441,5.326-0.449c-0.771-0.917-1.731-2.084-2.715-3.308c-2.057-0.037-9.582-0.365-15.707-3.317   c-1.487-0.721-4.059-1.968-5.282-1.336c-0.211,0.109-0.559,0.62-0.501,1.246C272.497,225.772,273.231,226.421,274.494,226.8z"/>
	<path style="fill:#FFD250;" d="M300.017,210.426c-0.117,0-0.226,0.014-0.32,0.041c-0.494,0.147-0.745,0.706-0.811,1.142   c-0.082,0.557,0.059,1.307,0.706,1.74c0.845,0.562,1.75,0.177,2.264-0.33c0.162-0.157,0.94-0.99,0.366-1.898l-0.001-0.003   C301.336,210.711,300.56,210.426,300.017,210.426z"/>
	<path style="fill:#FFD250;" d="M288.899,237.737c0.549,1.308,1.4,2.322,2.103,3.002c0.267-0.579,0.674-1.178,1.292-1.63   c0.605-0.441,1.652-0.87,3.188-0.55c0.024,0.001,0.045,0.006,0.069,0.009c0.044,0.01,0.079,0.006,0.124,0.016   c0.04,0.01,0.065,0.041,0.104,0.052c0.055,0.02,0.112,0.021,0.165,0.05c0.04,0.021,0.064,0.057,0.099,0.082   c0.577,0.245,1.06,0.641,1.316,1.24c0.858,2.003-0.652,5.89-1.986,8.658c0.942-0.466,1.844-0.938,2.331-1.2   c0.339-0.182,0.75-0.18,1.086,0.009c0.337,0.187,0.556,0.534,0.58,0.917l0.32,5.054c1.772-1.867,3.167-3.895,3.184-3.923   c0.245-0.359,0.669-0.539,1.1-0.481c0.43,0.064,0.784,0.366,0.915,0.779l1.292,4.081c1.808-1.663,3.385-3.891,3.404-3.919   c0.22-0.31,0.579-0.475,0.956-0.481c0.379,0.01,0.729,0.21,0.931,0.531l1.948,3.107l2.78-5.56c0.202-0.406,0.584-0.661,1.077-0.626   c0.451,0.025,0.844,0.316,1,0.741l2.537,6.899l4.951-3.124c0.375-0.239,0.851-0.234,1.226,0.011c1.615,1.057,4.096,1.74,5.66,2.091   l-0.424-4.434c-0.03-0.316,0.074-0.629,0.285-0.864c0.211-0.236,0.51-0.374,0.826-0.377l2.833-0.042   c-0.681-0.69-1.245-1.357-1.521-1.695c-0.185-0.225-0.257-0.5-0.245-0.77c-2.087-0.089-4.996-0.461-7.904-1.716l-1.731,2.668   c-0.165,0.255-0.425,0.432-0.722,0.492c-0.075,0.016-0.151,0.024-0.227,0.024c-0.222,0-0.442-0.066-0.631-0.192l-6.543-4.39   l-1.202,3.273c-0.139,0.376-0.465,0.651-0.859,0.722c-0.394,0.076-0.795-0.067-1.06-0.369c-1.123-1.29-2.889-3.265-3.94-4.35   c-0.946,0.912-2.606,2.382-4.38,3.368c-0.289,0.161-0.634,0.186-0.942,0.072c-0.31-0.114-0.555-0.357-0.67-0.667l-1.793-4.815   c-0.219-0.586,0.08-1.24,0.667-1.457c0.584-0.219,1.24,0.082,1.457,0.667l1.308,3.513c1.898-1.318,3.483-3.017,3.502-3.037   c0.404-0.435,1.077-0.486,1.538-0.115c0.66,0.529,2.451,2.501,3.699,3.901l1.043-2.84c0.12-0.326,0.384-0.58,0.714-0.686   c0.327-0.114,0.692-0.06,0.981,0.136l6.786,4.553l1.641-2.528c0.316-0.487,0.947-0.656,1.456-0.397   c3.012,1.506,6.265,1.871,8.34,1.924c-1.267-2.367-1.378-5.367-1.386-6.072c-1.696-0.749-3.78-1.878-5.877-3.603l-0.816,2.014   c-0.131,0.321-0.402,0.566-0.739,0.662c-0.335,0.092-0.696,0.033-0.976-0.171l-3.273-2.374l-0.319,2.453   c-0.05,0.38-0.287,0.71-0.635,0.875c-0.344,0.165-0.75,0.149-1.078-0.053c-0.114-0.067-2.807-1.715-4.413-3.519   c-0.416-0.467-0.374-1.183,0.095-1.6c0.462-0.416,1.18-0.376,1.6,0.095c0.679,0.762,1.628,1.521,2.421,2.094l0.329-2.527   c0.051-0.397,0.309-0.736,0.676-0.894c0.369-0.16,0.792-0.111,1.113,0.122l3.644,2.643l0.872-2.152   c0.14-0.345,0.442-0.6,0.809-0.68c0.362-0.079,0.746,0.025,1.017,0.281c2.824,2.658,5.881,4.094,7.783,4.797   c-0.649-3.024-0.897-6.816-0.909-7.016c-0.001-0.029,0.011-0.053,0.011-0.08c-1.764-0.973-4.261-2.652-6.418-5.287   c-0.01,1.397-0.124,2.818-0.466,3.715c-0.117,0.31-0.364,0.551-0.676,0.664c-0.312,0.107-0.657,0.08-0.942-0.081   c-0.137-0.079-2.602-1.495-4.438-3.562c-0.317,1.138-0.697,2.339-1.017,2.875c-0.307,0.507-0.947,0.695-1.478,0.431   c-0.107-0.052-1.843-0.932-3.392-2.276c-0.15,1.51-0.384,3.213-0.715,4.044c-0.12,0.301-0.362,0.535-0.669,0.646   c-0.305,0.105-0.642,0.081-0.926-0.072c-0.104-0.056-2.069-1.135-3.906-2.502l-0.497,1.889c-0.085,0.322-0.309,0.592-0.611,0.736   c-0.304,0.14-0.649,0.145-0.955,0.007c-0.137-0.062-3.377-1.552-5.222-3.808c-0.396-0.484-0.326-1.197,0.16-1.593   c0.482-0.397,1.197-0.326,1.593,0.16c0.882,1.077,2.232,1.978,3.205,2.543l0.581-2.208c0.101-0.384,0.394-0.686,0.772-0.799   c0.377-0.117,0.79-0.019,1.082,0.246c1.082,0.98,2.547,1.943,3.589,2.582c0.221-1.398,0.394-3.42,0.467-4.732   c0.03-0.506,0.39-0.932,0.884-1.041c0.499-0.112,1.003,0.121,1.243,0.565c0.622,1.147,2.119,2.264,3.248,2.97   c0.31-0.968,0.692-2.398,0.979-3.632c0.111-0.474,0.509-0.824,0.992-0.87c0.484-0.06,0.945,0.217,1.143,0.661   c0.709,1.568,2.422,3.002,3.646,3.879c0.132-1.652,0.01-3.999-0.141-5.469c-0.056-0.546,0.286-1.053,0.812-1.205   c0.539-0.146,1.088,0.097,1.331,0.587c2.279,4.621,6.308,7.182,8.405,8.259c1.143-12.503-2.522-17.287-2.561-17.335   c-0.205-0.257-0.291-0.596-0.23-0.92c0.062-0.322,0.259-0.607,0.542-0.772c2.034-1.178,3.27-3.329,4.028-5.417   c-4.606,4.466-11.904,6.182-15.46,6.774l1.736,2.116c0.264,0.322,0.33,0.766,0.171,1.152c-0.161,0.386-0.519,0.652-0.935,0.694   c-4.356,0.435-7.534-0.141-9.675-0.864l0.741,1.367c0.195,0.359,0.181,0.795-0.035,1.141c-0.215,0.346-0.611,0.58-1.008,0.531   c-3.549-0.152-6.654-1.613-9.206-2.905c-0.121,0.834-0.532,1.645-1.217,2.313c-0.839,0.817-1.904,1.241-2.96,1.241   c-0.747,0-1.491-0.212-2.143-0.647c-1.281-0.854-1.928-2.372-1.691-3.96c0.22-1.458,1.141-2.599,2.403-2.977   c1.69-0.501,3.617,0.475,6.055,1.717c1.936,0.987,4.244,2.161,6.761,2.688l-1.403-2.591c-0.261-0.482-0.14-1.081,0.287-1.425   c0.429-0.337,1.038-0.329,1.453,0.031c0.025,0.023,2.844,2.338,9.244,2.218l-1.613-1.968c-0.266-0.322-0.33-0.769-0.17-1.155   c0.162-0.386,0.524-0.652,0.941-0.692c0.122-0.011,9.419-0.955,15.14-5.563c-1.862,0.545-3.305,0.46-3.415,0.457   c-0.314-0.025-0.604-0.179-0.8-0.425c-2.622-3.293-5.301-4.31-6.654-4.626c-0.76,2.393-2.598,4.329-2.688,4.423   c-0.244,0.252-0.59,0.376-0.935,0.342c-0.349-0.036-0.66-0.231-0.845-0.53c-2.021-3.257-4.934-4.114-6.627-4.326   c0.207,2.407-1.475,4.385-2.594,5.209c-0.435,0.316-1.03,0.287-1.426-0.067c-4.862-4.345-8.616-3.059-10.135-2.192   c0.48,1.192,0.254,2.166-0.071,2.823c-2.322,4.704-16.683,5.65-19.538,5.791c-0.354,0.025-0.71-0.137-0.936-0.419   c-0.229-0.281-0.306-0.655-0.214-1.005c0.21-0.784,0.069-1.628-0.392-2.384c-0.472-0.771-1.228-1.333-2.022-1.503   c-0.746-0.157-2.172-0.056-3.023,0.877c-0.973,1.071-1.04,3.05-0.191,5.727c1.521,4.805,6.205,9.537,9.12,12.133   c-0.026-0.597-0.009-1.037-0.003-1.147c0.025-0.484,0.354-0.898,0.82-1.031c0.467-0.137,0.963,0.042,1.241,0.441   c0.966,1.388,2.118,2.327,2.984,2.9l0.567-3.624c0.08-0.501,0.482-0.89,0.987-0.95c0.501-0.042,0.987,0.224,1.18,0.695   c1.027,2.493,7.524,10.298,9.942,13.095c0.31,0.357,0.365,0.869,0.137,1.283c-0.227,0.412-0.686,0.636-1.155,0.579   c-4.14-0.59-10.223,0.787-10.285,0.801c-0.469,0.109-0.957-0.092-1.213-0.501c-0.255-0.409-0.226-0.933,0.076-1.311l0.837-1.043   c-5.748-0.597-11.346-2.109-13.609-2.77l-1.901,5.166l5.124-0.512c0.386-0.049,0.784,0.13,1.02,0.45   c0.239,0.319,0.292,0.737,0.141,1.106l-0.966,2.362l4.22-1.116c0.559-0.155,1.132,0.145,1.343,0.679   c0.559,1.416,1.245,2.347,1.792,2.924l1.188-2.629c0.187-0.41,0.596-0.696,1.048-0.665   C288.322,237.049,288.725,237.321,288.899,237.737z"/>
	<path style="fill:#FFD250;" d="M274.228,295.669c4.469,2.984,8.079-0.42,10.01-3.042c-4.116-3.004-7.113-6.698-8.883-11.097   c-0.579-1.438-0.955-2.89-1.248-4.341c-0.42-0.33-6.637-5.254-11.843-11.008c-0.266,0.694-0.615,1.245-0.898,1.617   c0.366,1.487,0.01,2.703-0.449,3.482c0.316,1.061,0.063,2.112-0.305,2.88c0.787,1.188,0.931,2.353,0.426,3.47   c-0.116,0.256-0.271,0.492-0.434,0.724c0.647,0.781,1.667,2.572,1.667,6.173c0,2.422,0.897,3.875,1.566,4.621   c0.391-0.337,0.819-0.529,1.29-0.579c1.43-0.16,2.603,1.063,4.209,2.749C270.592,292.642,272.155,294.287,274.228,295.669z"/>
	<path style="fill:#FFD250;" d="M252.004,264.956c-0.084,0-0.169-0.001-0.252-0.001c-1.63-0.015-3.119-0.177-4.49-0.441   c-0.131,0.379,0.149,1.477,0.442,1.705c0.289,0.221,0.482,0.589,0.472,0.953c-0.01,0.362-0.166,0.72-0.467,0.925   c-0.194,0.136-0.769,0.649-0.776,1.151c-0.007,0.489,0.57,0.995,0.915,1.253c0.252,0.189,0.415,0.475,0.447,0.787   c0.032,0.314-0.066,0.627-0.275,0.865c-0.146,0.172-0.562,0.802-0.49,1.332c0.015,0.112,0.062,0.455,0.652,0.856   c0.255,0.174,0.43,0.446,0.481,0.751c0.05,0.305-0.026,0.619-0.212,0.866c0.001,0-0.317,0.465-0.195,0.926   c0.136,0.512,0.772,0.906,1.282,1.145c0.953,0.449,2.326,0.737,3.756,0.794c0.044-0.008,0.087-0.001,0.132-0.003   c1.206,0.035,2.443-0.082,3.502-0.472c1.037-0.382,1.726-0.936,2.046-1.647c0.1-0.221,0.309-0.684-0.582-1.723   c-0.349-0.407-0.365-1-0.04-1.426c0.001-0.003,0.757-1.041,0.291-1.871c-0.249-0.444-0.174-0.998,0.186-1.357   c0.066-0.074,0.77-0.901,0.212-2.388c-0.161-0.427-0.049-0.91,0.285-1.223c0.041-0.041,1.066-1.107,1.043-2.729   c-0.139-0.17-0.277-0.339-0.414-0.509C257.763,264.403,255.076,264.956,252.004,264.956z"/>
	<path style="fill:#FFD250;" d="M262.366,185.99c-4.581,2.463-14.351,10.188-14.632,31.336l0.252,35.638   c0.031,0.05,0.074,0.101,0.099,0.15c0.591,1.115,0.311,2.561-0.021,3.563c2.83,1.012,6.361,0.596,7.873,0.221   c-0.301-0.884-0.541-2.309,0.484-3.926C256.261,210.471,260.313,192.392,262.366,185.99z"/>
	<path style="fill:#FFD250;" d="M262.839,257.403c0-1.811-1.366-3.222-2.717-3.679c-0.28-0.096-1.233-0.361-1.67,0.212   c-0.819,1.071-0.529,1.828-0.249,2.561c0.156,0.407,0.317,0.827,0.196,1.308c-0.154,0.614-0.712,0.866-0.897,0.95   c-1.537,0.697-7.382,1.612-11.421-0.472c-0.547-0.284-0.769-0.953-0.497-1.507c0.426-0.874,0.736-2.156,0.499-2.601   c-0.019-0.037-0.072-0.139-0.391-0.181c-0.301-0.041-0.602-0.062-0.898-0.062c-1.38,0-2.658,0.434-3.35,1.175   c-0.556,0.596-0.73,1.355-0.531,2.317c0.671,3.242,4.731,5.21,10.86,5.266c4.335-0.015,8.064-1.038,9.926-2.884   C262.454,259.055,262.839,258.247,262.839,257.403z"/>
	<path style="fill:#FFD250;" d="M253.087,284.282c0.262-0.345,0.695-0.512,1.121-0.424c0.787,0.165,2.746,0.58,3.869-0.29   c0.392-0.301,0.481-1.122,0.18-1.658c-0.104-0.185-0.417-0.74-1.597-0.289c-1.116,0.431-2.721,0.897-3.728-0.009   c-0.201-0.181-0.329-0.392-0.425-0.61c-0.302-0.026-0.605-0.042-0.902-0.087c-0.096,0.249-0.23,0.492-0.457,0.697   c-1.003,0.905-2.608,0.44-3.726,0.009c-1.176-0.447-1.496,0.105-1.597,0.289c-0.301,0.535-0.214,1.357,0.177,1.657   c1.126,0.867,3.084,0.457,3.728,0.321c0.417-0.084,0.93,0.06,1.196,0.402c0.265,0.345,0.377,0.796,0.182,1.185   c-0.255,0.51-1.365,2.679-2.448,4.033c1.416,2.071,2.643,5.763-0.23,9.046c-0.235,0.265-0.599,0.399-0.937,0.384   c-0.354-0.026-0.677-0.219-0.869-0.517c-0.164-0.247-0.739-0.935-1.375-1.06c-0.192-0.037-0.496-0.051-0.933,0.247   c-0.296,0.205-0.464,0.884-0.212,1.626c0.447,1.327,1.837,2.066,3.796,1.973c0.446-0.044,0.928,0.262,1.108,0.712   c0.179,0.45,0.051,0.964-0.316,1.278l-1.847,1.585l3.015,0.735c0.4,0.097,0.715,0.404,0.825,0.801   c0.004,0.019,0.456,1.626,1.357,2.982c0.9-1.356,1.351-2.962,1.356-2.982c0.109-0.397,0.425-0.704,0.825-0.801l3.015-0.735   l-1.848-1.585c-0.367-0.314-0.494-0.829-0.316-1.278c0.179-0.45,0.629-0.752,1.108-0.712c1.937,0.085,3.35-0.646,3.798-1.974   c0.251-0.741,0.084-1.42-0.212-1.625c-0.445-0.302-0.752-0.287-0.941-0.246c-0.656,0.132-1.246,0.869-1.368,1.057   c-0.191,0.3-0.515,0.491-0.869,0.517c-0.367,0.019-0.704-0.115-0.937-0.384c-2.872-3.284-1.645-6.976-0.229-9.046   c-1.085-1.355-2.193-3.523-2.449-4.033C252.78,285.088,252.825,284.626,253.087,284.282z"/>
</g>
<path style="fill:#464655;" d="M412.513,210.499c-0.605-0.942-1.811-2.096-4.123-2.247c-1.606-0.115-2.894,0.317-3.83,1.253  c-0.754,0.751-1.116,1.682-1.29,2.468c-1.546-0.812-4.018-2.624-6.601-4.516c-7.518-5.511-18.881-13.837-30.033-15.248  c-9.045-1.148-19.333,0.655-24.991,5.905c0.085-0.694,0.11-1.158,0.114-1.238c0.001-0.015-0.011-0.026-0.011-0.041  c0.001-0.211-0.057-0.409-0.165-0.586c-0.023-0.039-0.049-0.066-0.075-0.101c-0.126-0.164-0.282-0.304-0.49-0.38  c-0.004-0.001-0.006-0.006-0.01-0.007h-0.004c-0.214-0.075-0.429-0.063-0.634-0.014c-0.04,0.01-0.074,0.015-0.112,0.029  c-0.199,0.07-0.371,0.185-0.505,0.352c-0.009,0.011-0.025,0.011-0.033,0.022c-2.349,3.155-5.575,3.569-6.763,3.609  c-4.243-5.037-8.725-5.194-8.919-5.199c-0.649,0.042-1.062,0.402-1.146,0.966c-0.177,1.196-0.874,2.381-1.462,3.203  c-3.738-4.647-9.001-4.181-9.235-4.163c-0.364,0.035-0.687,0.245-0.87,0.562c-0.181,0.316-0.201,0.701-0.049,1.033  c0.674,1.485-0.144,2.775-0.795,3.494c-7.359-5.897-13.021-1.093-13.081-1.04c-0.432,0.379-0.514,1.022-0.186,1.496  c0.549,0.795,0.451,1.235,0.305,1.531c-1.191,2.413-9.829,3.988-16.298,4.449c-0.034-0.91-0.311-1.816-0.819-2.647  c-0.802-1.31-2.071-2.233-3.48-2.536c-1.566-0.341-3.77,0.019-5.175,1.57c-1.57,1.726-1.796,4.396-0.675,7.935  c1.751,5.532,7.009,10.735,10.076,13.414c-0.747-0.276-1.487-0.577-2.204-0.923c-1.806-0.88-4.827-2.349-7.061-1.188  c-1.127,0.582-1.848,2.042-1.717,3.468c0.066,0.715,0.465,2.319,2.556,3.344l-2.514,6.832c-0.134,0.366-0.071,0.776,0.169,1.085  c0.237,0.309,0.619,0.476,1.007,0.434l5.051-0.505l-1.113,2.724c-0.162,0.399-0.085,0.855,0.197,1.177  c0.284,0.321,0.716,0.465,1.142,0.346l5.482-1.451c1.416,2.909,3.305,3.926,3.394,3.973c0.279,0.147,0.6,0.17,0.893,0.067  c0.295-0.101,0.536-0.32,0.664-0.604l0.874-1.933c0.906,1.267,1.884,2.108,2.489,2.572c-0.369,0.305-0.731,0.605-1.131,0.93  c-3.808,3.098-9.02,7.342-12.767,14.596c-1.882,3.643-3.348,9.2-2.91,15.111c-2.729-2.294-7.874-6.844-11.663-11.502  c0.456-0.311,0.942-0.605,1.307-0.967c1.185-1.172,1.81-2.561,1.81-4.01c0-3.012-2.207-5.132-4.255-5.825  c-0.764-0.257-1.496-0.295-2.164-0.182c-0.066-49.378,5.557-64.494,6.699-67.039c0.18-0.402,0.111-0.875-0.18-1.208  c-0.289-0.332-0.75-0.466-1.172-0.342c-0.742,0.219-18.178,5.665-18.562,34.514l0.244,34.419c-2.367-0.25-4.614,0.424-5.922,1.821  c-0.744,0.795-1.536,2.191-1.095,4.325c0.586,2.832,2.872,4.922,6.378,6.071c-0.096,0.371-0.13,0.792-0.082,1.262  c0.055,0.554,0.227,1.237,0.547,1.832c-0.427,0.51-0.849,1.24-0.87,2.137c-0.02,0.866,0.325,1.678,1.027,2.423  c-0.277,0.559-0.519,1.316-0.412,2.153c0.065,0.499,0.274,1.161,0.866,1.801c-0.166,0.494-0.27,1.14-0.091,1.851  c0.181,0.735,0.639,1.365,1.316,1.904c-1.735-0.321-2.954,0.46-3.524,1.48c-0.857,1.528-0.51,3.575,0.772,4.563  c1.046,0.804,2.289,1.061,3.422,1.002c-0.577,0.976-1.186,1.879-1.57,2.178c-0.25,0.194-0.407,0.481-0.434,0.795  c-0.029,0.314,0.076,0.626,0.289,0.86c0.117,0.13,2.589,2.914,1.118,5.807c-0.455-0.374-1.043-0.722-1.743-0.865  c-0.91-0.185-1.831,0.025-2.668,0.6c-1.196,0.82-1.641,2.553-1.08,4.216c0.43,1.273,1.5,2.578,3.328,3.18l-1.59,1.363  c-0.322,0.276-0.464,0.711-0.365,1.123c0.099,0.414,0.42,0.736,0.834,0.836l4.545,1.107c0.349,0.998,1.145,2.927,2.476,4.258  c0.212,0.212,0.616,0.332,0.917,0.332s0.589-0.12,0.801-0.332c1.331-1.331,2.127-3.258,2.476-4.258l4.545-1.107  c0.414-0.1,0.735-0.424,0.834-0.836c0.099-0.415-0.042-0.849-0.365-1.123l-1.59-1.363c1.826-0.604,2.898-1.907,3.328-3.18  c0.561-1.662,0.116-3.397-1.08-4.216c-0.84-0.577-1.766-0.784-2.669-0.6c-0.7,0.141-1.286,0.49-1.742,0.862  c-1.447-2.877,1.003-5.677,1.121-5.808c0.21-0.235,0.312-0.546,0.285-0.858s-0.185-0.602-0.432-0.794  c-0.382-0.297-0.99-1.2-1.567-2.174c1.131,0.01,2.369-0.196,3.418-1.006c0.23-0.176,0.394-0.419,0.561-0.655  c0.08,4.971,3.232,6.939,3.368,7.023c0.537,0.32,1.226,0.15,1.548-0.382c0.267-0.435,0.426-0.519,0.424-0.524  c0.399,0.023,1.516,1.2,2.333,2.058c1.333,1.403,2.994,3.149,5.277,4.671c1.675,1.117,3.255,1.556,4.71,1.556  c4.079,0,7.134-3.442,8.438-5.211c2.541,1.595,5.42,2.977,8.704,4.099c0.112,0.039,0.226,0.054,0.339,0.056  c0.391,1.272,0.82,2.552,1.262,3.82c1.417,4.066,2.882,8.273,2.307,11.466c-0.745,4.139-7.292,4.18-10.657,3.614  c-2.394-0.39-4.615,0.222-6.246,1.742c-1.63,1.522-2.469,3.824-2.242,6.157c0.157,1.63,0.975,2.397,1.633,2.753  c1.512,0.812,3.557,0.205,4.667-0.25c2.551,2.222,5.602,1.29,7.448,0.115c1.136,0.948,2.402,1.446,3.771,1.477  c0.046,0.001,0.09,0.001,0.136,0.001c2.071,0,3.813-1.09,4.685-1.757c4.389,1.776,6.897,0.451,7.335,0.18  c3.563-3.004,2.977-8.406,2.512-10.755c7.32-2.217,9.681-8.579,9.782-8.863c0.141-0.396,0.051-0.84-0.232-1.151  c-0.287-0.309-0.726-0.434-1.128-0.326c-2.257,0.606-4.04,0.194-4.889-1.136c-1.15-1.798-0.405-4.739,1.898-7.49  c0.482-0.577,0.941-1.217,1.387-1.882c5.657-1.265,10.49-3.465,15.606-5.798c4.235-1.931,8.614-3.928,13.82-5.56  c1.46-0.459,2.878-0.727,4.275-0.907c-0.424,6.137,2.725,10.181,5.817,14.071c0.854,1.073,1.708,2.146,2.481,3.265  c3.315,4.801,2.679,14.867,2.411,15.776c-0.236,0.516-2.457,2.779-5.607,2.347c-2.617-0.349-5.546,0.514-7.467,2.194  c-1.371,1.2-2.124,2.741-2.124,4.34c0,1.363,0.655,2.041,1.205,2.368c1.641,0.975,4.356-0.067,5.811-0.764  c1.36,1.05,2.755,1.438,4.046,1.438c1.605,0,3.048-0.597,4.059-1.261c3.037,1.919,6.218,0.795,7.992-0.415  c2.222,1.205,4.008,0.967,5.159,0.514c0.374-0.146,0.716-0.332,1.026-0.541c0.046,0.047,0.087,0.111,0.135,0.151  c1.205,1.037,3.435,0.485,4.864-0.033c0.649,1.076,1.51,1.56,2.188,1.776c2.097,0.669,4.506-0.481,5.718-1.2  c1.471,1.137,2.933,1.615,4.391,1.41c1.288-0.179,2.258-0.87,2.884-1.477c0.667,0.48,1.68,1.071,3.049,1.503  c0.604,0.191,1.135,0.27,1.601,0.27c1.578,0,2.403-0.9,2.725-1.371c1.31-1.913,0.627-5.152-0.835-6.981  c-0.864-1.078-1.58-3.097-1.235-5.171c0.184-1.106,0.761-2.652,2.468-3.738c3.077-1.957,5.096-4.609,5.144-6.749  c0.021-0.885-0.316-1.615-0.948-2.058c-0.557-0.391-1.183-0.474-1.79-0.554c-1.348-0.179-3.027-0.4-5.165-4.345  c-1.904-3.517,0.351-10.33,2.74-17.545c1.366-4.129,2.781-8.398,3.665-12.649c2.192-10.523-3.092-19-5.005-21.64  c5.321-5.234,7.55-10.256,6.632-14.937c-1.012-5.159-5.821-8.693-9.631-10.151c-4.605-1.765-12.323-0.847-19.785,0.047  c-5.82,0.696-11.321,1.357-14.625,0.656c-1.25-0.261-2.137-0.804-2.639-1.613c-0.874-1.408-0.406-3.262-0.401-3.28  c0.091-0.346,0.011-0.72-0.212-0.998c-0.226-0.279-0.597-0.457-0.927-0.424c-2.171,0.087-3.9,1.296-4.97,2.296  c-0.062-0.304-0.072-0.616-0.027-0.94c0.294-2.177,2.8-4.08,2.827-4.099c0.3-0.226,0.47-0.586,0.451-0.962  c-0.017-0.375-0.22-0.717-0.541-0.914c-4.614-2.81-8.923-0.729-11.128,1.226c-0.932-0.913-1.495-2.308-1.45-3.714  c0.027-0.923,0.354-2.619,2.199-3.6c0.835-0.444,1.552-0.541,2.202-0.302c1.088,0.406,1.812,1.743,1.998,2.226  c0.12,0.309,0.37,0.551,0.684,0.661c0.312,0.114,0.661,0.08,0.946-0.089c2.526-1.473,3.334-4.569,3.59-6.286  c1.486,0.242,2.618,0.872,3.442,1.911c2.308,2.912,1.365,8.04,1.356,8.093c-0.074,0.384,0.056,0.777,0.341,1.043  c0.285,0.265,0.687,0.365,1.065,0.265c5.127-1.373,6.768-5.537,7.022-8.614c3.92,2.442,3.654,7.49,3.639,7.728  c-0.025,0.39,0.152,0.766,0.467,0.992c0.317,0.229,0.727,0.277,1.088,0.132c1.876-0.761,2.914-1.998,3.49-3.142  c3.568,4.68,8.53,6.305,8.768,6.381c0.42,0.129,0.877,0.011,1.177-0.312c0.297-0.325,0.382-0.792,0.214-1.2l-1.108-2.684  c0.901,0.636,1.771,1.303,2.663,1.991c2.366,1.821,4.81,3.703,8.339,5.361c3.966,1.863,6.793,1.446,8.471,0.774  c1.675-0.677,3-1.939,3.549-3.378C413.507,214.902,413.749,212.423,412.513,210.499z M410.75,215.776  c-0.24,0.632-0.982,1.558-2.281,2.081c-1.252,0.507-3.429,0.796-6.657-0.721c-3.305-1.553-5.652-3.359-7.922-5.105  c-1.881-1.448-3.658-2.815-5.902-4.024c-0.419-0.227-0.94-0.165-1.297,0.156c-0.355,0.32-0.471,0.831-0.287,1.273l1.348,3.268  c-1.957-1.117-4.634-3.113-6.387-6.32c-0.247-0.455-0.769-0.681-1.275-0.555c-0.501,0.129-0.852,0.58-0.852,1.097  c0,0.02-0.019,1.597-1.307,2.827c-0.39-3.018-2.044-7.073-6.592-8.678c-0.374-0.136-0.78-0.06-1.086,0.182  c-0.305,0.245-0.464,0.63-0.417,1.02c0.027,0.236,0.571,5.285-3.714,7.473c0.115-2.117-0.067-5.536-2.013-7.998  c-1.423-1.8-3.507-2.769-6.19-2.879c-0.291-0.032-0.599,0.097-0.82,0.304c-0.222,0.206-0.351,0.494-0.36,0.799  c0,0.035-0.13,3.073-1.673,4.832c-0.534-0.799-1.382-1.74-2.592-2.194c-1.271-0.48-2.642-0.339-4.071,0.419  c-2.086,1.108-3.327,3.124-3.403,5.53c-0.08,2.548,1.181,5.002,3.215,6.253c0.466,0.281,1.072,0.195,1.441-0.214  c0.149-0.169,3.38-3.703,7.598-2.222c-0.965,1.012-2.142,2.579-2.391,4.403c-0.195,1.41,0.179,2.732,1.105,3.93  c0.217,0.281,0.471,0.42,0.917,0.439c0.357-0.006,0.692-0.182,0.9-0.474c0.015-0.02,1.245-1.708,3.067-2.393  c-0.008,0.965,0.162,2.201,0.854,3.329c0.84,1.368,2.223,2.264,4.113,2.661c3.668,0.766,9.349,0.089,15.36-0.626  c7.194-0.856,14.63-1.743,18.705-0.181c3.27,1.252,7.385,4.223,8.219,8.473c0.801,4.075-1.455,8.638-6.699,13.559  c-0.44,0.411-0.48,1.095-0.092,1.555c0.075,0.09,7.548,9.151,5.17,20.564c-0.859,4.126-2.251,8.333-3.599,12.399  c-2.657,8.028-4.951,14.958-2.579,19.337c2.687,4.961,5.299,5.306,6.859,5.512c0.304,0.04,0.684,0.09,0.749,0.121  c0.224,0.457-0.575,2.855-4.073,5.081c-1.908,1.216-3.115,3.04-3.487,5.277c-0.404,2.431,0.262,5.162,1.699,6.959  c1.096,1.368,1.298,3.462,0.736,4.283c-0.111,0.16-0.446,0.639-1.776,0.222c-2.028-0.642-3.019-1.687-3.023-1.692  c-0.239-0.262-0.584-0.39-0.944-0.37c-0.355,0.032-0.674,0.23-0.861,0.532c-0.009,0.014-0.799,1.237-2.099,1.42  c-0.972,0.131-2.053-0.34-3.223-1.407c-0.395-0.361-0.986-0.394-1.423-0.086c-0.704,0.5-3.037,1.813-4.464,1.367  c-0.205-0.066-0.83-0.267-1.232-1.442c-0.105-0.302-0.332-0.547-0.626-0.672s-0.625-0.124-0.917,0.01  c-1.376,0.626-3.103,1.018-3.437,0.867c0,0-0.055-0.171,0.087-0.655c0.784-2.701,3.973-3.349,6.083-3.776  c0.387-0.079,0.739-0.15,1.032-0.224c0.234-0.057,0.5-0.111,0.785-0.166c2.078-0.414,6.402-1.273,5.86-6.711  c-0.115-1.143-0.082-2.198-0.054-3.219c0.099-3.348,0.191-6.511-5.07-10.3c-1.941-1.398-3.811-2.653-5.61-3.86  c-4.094-2.748-7.629-5.12-10.867-8.358c-6.683-6.687-14.645-8.645-23.671-5.82c-5.34,1.673-9.784,3.699-14.081,5.66  c-4.323,1.972-8.465,3.81-13.005,5.066c3.583-6.811,5.546-15.842,5.141-20.196c-0.059-0.622-0.627-1.086-1.233-1.023  c-0.622,0.059-1.081,0.611-1.023,1.233c0.464,4.971-2.623,17.177-7.67,23.209c-2.95,3.525-3.763,7.515-2.071,10.165  c1.05,1.642,2.834,2.428,5.077,2.451c-1.227,1.932-3.765,4.847-8.308,5.888c-0.304,0.071-0.566,0.262-0.724,0.532  c-0.157,0.269-0.197,0.591-0.109,0.891c0.019,0.066,1.892,6.626-1.35,9.39c-0.081,0.047-2.042,1.04-5.778-0.67  c-0.424-0.191-0.925-0.107-1.26,0.219c-0.019,0.015-1.854,1.736-3.788,1.618c-1.057-0.024-2.008-0.5-2.904-1.456  c-0.414-0.441-1.098-0.476-1.56-0.089c-0.134,0.116-3.342,2.778-5.722,0.111c-0.35-0.391-0.915-0.49-1.372-0.25  c-0.909,0.475-2.588,1-3.303,0.614c-0.095-0.051-0.382-0.206-0.457-0.978c-0.157-1.637,0.416-3.238,1.536-4.283  c1.103-1.03,2.639-1.446,4.326-1.162c5.937,0.991,12.333-0.311,13.259-5.449c0.68-3.779-0.885-8.269-2.397-12.614  c-1.138-3.268-2.316-6.647-2.369-9.384c-0.106-5.593,1.091-10.875,1.103-10.927c0.14-0.61-0.239-1.217-0.85-1.357  c-0.611-0.147-1.217,0.237-1.357,0.849c-0.053,0.226-1.275,5.596-1.162,11.481c0.022,1.157,0.244,2.391,0.531,3.644  c-8.596-3.177-14.336-8.12-17.002-14.747c-3.124-7.768-1.352-16.099,1.113-20.876c3.532-6.834,8.33-10.738,12.185-13.877  c1.812-1.475,3.435-2.802,4.594-4.19c-0.121,1.883-1.725,5.672-3.473,8.706c-0.232,0.404-0.195,0.909,0.097,1.273  c0.291,0.365,0.779,0.512,1.221,0.374c0.974-0.304,2.732-1.161,4.023-1.82l0.362,5.718c0.026,0.424,0.289,0.796,0.679,0.966  c0.391,0.171,0.844,0.107,1.17-0.164c1.527-1.252,2.969-2.923,3.966-4.185l1.127,3.558c0.107,0.342,0.374,0.614,0.714,0.73  c0.342,0.115,0.715,0.065,1.01-0.141c1.613-1.116,3.19-2.905,4.174-4.135l2.151,3.428c0.219,0.349,0.607,0.572,1.015,0.53  c0.409-0.019,0.776-0.259,0.958-0.626l2.509-5.02l2.117,5.755c0.117,0.321,0.375,0.571,0.699,0.681  c0.119,0.041,0.242,0.06,0.365,0.06c0.211,0,0.422-0.059,0.605-0.174l5.546-3.499c2.93,1.628,7.171,2.307,7.362,2.338  c0.342,0.046,0.696-0.055,0.951-0.295c0.255-0.239,0.385-0.584,0.352-0.932l-0.451-4.726l4.911-0.075  c0.565-0.009,1.037-0.434,1.106-0.995c0.069-0.562-0.286-1.087-0.832-1.233c-0.536-0.144-1.764-1.292-2.813-2.468  c0.132-0.01,0.194-0.015,0.257-0.021c2.824,0.215,50.761,3.744,61.273-3.903c5.846-4.251,5.437-8.115,4.673-10.041  c-1.577-3.975-7.313-6.511-13.035-5.782c-2.274,0.29-4.72,0.727-7.256,1.181c-7.174,1.285-15.307,2.742-21.974,1.107  c-2.601-0.637-4.83-1.481-6.797-2.224c-3.329-1.261-5.736-2.173-7.58-1.071c-0.764,0.457-1.318,1.202-1.69,2.292  c-1.183-1.321-2.496-3.73-0.762-6.994c0.229-0.43,0.156-0.957-0.179-1.311c-0.066-0.071-6.639-7.116-3.547-14.848  c2.778-6.944,13.711-10.863,25.995-9.304c10.568,1.337,21.647,9.455,28.977,14.827c4.614,3.382,7.099,5.156,8.781,5.375  c0.336,0.049,0.669-0.067,0.916-0.296c0.246-0.229,0.379-0.557,0.361-0.893c-0.001-0.015-0.071-1.528,0.779-2.368  c0.464-0.459,1.141-0.661,2.076-0.59c1.098,0.072,1.894,0.48,2.364,1.211C411.339,212.862,411.206,214.58,410.75,215.776z   M375.136,325.311c-1.098,0.377-2.331,0.125-3.678-0.759c-0.424-0.277-0.982-0.237-1.363,0.091  c-0.137,0.117-3.374,2.853-6.477,0.351c-0.424-0.341-1.037-0.329-1.453,0.026c-0.336,0.289-3.38,2.742-6.413-0.097  c-0.359-0.334-0.888-0.401-1.313-0.17c-1.541,0.833-3.695,1.513-4.271,1.165c-0.095-0.056-0.099-0.36-0.099-0.42  c0-1.201,0.735-2.096,1.35-2.634c1.431-1.251,3.703-1.914,5.676-1.655c4.291,0.574,7.419-2.371,7.988-3.698  c0.501-1.171,1.328-12.228-2.627-17.956c-0.802-1.162-1.686-2.276-2.573-3.39c-3.008-3.784-5.825-7.379-5.316-12.848  c5.497-0.115,10.476,1.987,14.841,6.353c2.284,2.284,4.761,4.176,7.354,5.997c-1.005,1.032-2.627,2.984-2.749,4.969  c-0.06,0.976,0.249,1.871,0.892,2.586c1.643,1.825,3.524,1.74,4.767,1.678c0.214-0.013,0.501-0.027,0.711-0.014  c-0.317,0.769-1.491,2.373-2.304,3.482c-2.247,3.065-3.701,5.199-3.453,6.851c0.17,1.127,0.612,2.827,1.041,4.47  c0.409,1.567,1.025,3.934,0.997,4.393C376.605,324.256,376.095,324.977,375.136,325.311z M379.906,309.708  c2.177-2.97,3.284-4.58,2.643-5.861c-0.656-1.316-2.001-1.258-2.983-1.208c-1.055,0.05-2.054,0.095-2.978-0.932  c-0.24-0.267-0.337-0.554-0.316-0.927c0.079-1.295,1.54-2.974,2.379-3.798c0.65,0.441,1.297,0.882,1.961,1.327  c1.778,1.193,3.629,2.436,5.547,3.818c4.285,3.085,4.224,5.199,4.13,8.394c-0.031,1.041-0.066,2.222,0.064,3.51  c0.314,3.147-1.48,3.751-4.046,4.261c-0.325,0.065-0.627,0.125-0.894,0.191c-0.265,0.066-0.582,0.13-0.934,0.202  c-1.637,0.332-4.254,0.891-6.072,2.588c-0.15-0.614-0.332-1.325-0.55-2.156c-0.414-1.587-0.841-3.228-0.992-4.235  C376.74,314.03,378.8,311.22,379.906,309.708z M265.128,288.571c-0.471,0.05-0.898,0.24-1.29,0.579  c-0.67-0.746-1.566-2.199-1.566-4.621c0-3.602-1.02-5.392-1.667-6.173c0.162-0.232,0.317-0.467,0.434-0.724  c0.505-1.118,0.361-2.282-0.426-3.47c0.367-0.769,0.621-1.821,0.305-2.88c0.459-0.779,0.815-1.994,0.449-3.482  c0.284-0.372,0.632-0.923,0.898-1.617c5.206,5.755,11.423,10.678,11.843,11.008c0.294,1.451,0.67,2.904,1.248,4.341  c1.77,4.399,4.766,8.093,8.883,11.097c-1.929,2.622-5.541,6.026-10.01,3.042c-2.074-1.382-3.638-3.027-4.892-4.349  C267.731,289.635,266.557,288.412,265.128,288.571z M255.65,298.555c0.232,0.269,0.57,0.402,0.937,0.384  c0.354-0.026,0.677-0.219,0.868-0.517c0.122-0.189,0.712-0.925,1.368-1.057c0.189-0.041,0.496-0.056,0.941,0.246  c0.296,0.205,0.464,0.884,0.212,1.625c-0.449,1.328-1.862,2.061-3.798,1.974c-0.48-0.04-0.93,0.262-1.108,0.712  c-0.179,0.45-0.051,0.965,0.316,1.278l1.848,1.585l-3.015,0.735c-0.4,0.097-0.715,0.404-0.825,0.801  c-0.005,0.019-0.456,1.626-1.356,2.982c-0.901-1.356-1.352-2.962-1.357-2.982c-0.109-0.397-0.425-0.704-0.825-0.801l-3.015-0.735  l1.847-1.585c0.367-0.316,0.494-0.829,0.316-1.278c-0.18-0.45-0.662-0.756-1.108-0.712c-1.961,0.091-3.35-0.646-3.796-1.973  c-0.251-0.742-0.084-1.421,0.212-1.626c0.439-0.3,0.742-0.285,0.933-0.247c0.636,0.124,1.211,0.811,1.375,1.06  c0.192,0.3,0.515,0.491,0.869,0.517c0.337,0.015,0.702-0.119,0.937-0.384c2.873-3.284,1.646-6.976,0.23-9.046  c1.085-1.355,2.193-3.523,2.448-4.033c0.195-0.387,0.082-0.84-0.182-1.185c-0.267-0.342-0.779-0.486-1.196-0.402  c-0.644,0.136-2.602,0.546-3.728-0.321c-0.391-0.3-0.479-1.121-0.177-1.657c0.101-0.185,0.422-0.736,1.597-0.289  c1.118,0.431,2.723,0.896,3.726-0.009c0.229-0.205,0.361-0.449,0.457-0.697c0.297,0.045,0.599,0.061,0.902,0.087  c0.097,0.217,0.224,0.429,0.425,0.61c1.007,0.906,2.611,0.44,3.728,0.009c1.18-0.451,1.495,0.105,1.597,0.289  c0.301,0.535,0.212,1.357-0.18,1.658c-1.123,0.87-3.082,0.456-3.869,0.29c-0.426-0.089-0.859,0.079-1.121,0.424  c-0.262,0.344-0.306,0.807-0.114,1.193c0.255,0.51,1.365,2.679,2.449,4.033C254.006,291.579,252.779,295.271,255.65,298.555z   M259.326,266.711c-0.334,0.312-0.446,0.795-0.285,1.223c0.557,1.487-0.146,2.314-0.212,2.388c-0.36,0.359-0.435,0.913-0.186,1.357  c0.466,0.829-0.289,1.867-0.291,1.871c-0.325,0.426-0.309,1.02,0.04,1.426c0.891,1.04,0.684,1.502,0.582,1.723  c-0.32,0.711-1.008,1.266-2.046,1.647c-1.058,0.39-2.296,0.507-3.502,0.472c-0.045,0.002-0.089-0.005-0.132,0.002  c-1.43-0.057-2.803-0.345-3.756-0.794c-0.509-0.239-1.146-0.632-1.282-1.145c-0.122-0.461,0.196-0.926,0.195-0.926  c0.186-0.247,0.262-0.561,0.212-0.866c-0.051-0.305-0.226-0.576-0.481-0.751c-0.59-0.401-0.637-0.744-0.652-0.856  c-0.072-0.53,0.344-1.16,0.49-1.332c0.209-0.237,0.306-0.55,0.275-0.865c-0.032-0.312-0.195-0.599-0.447-0.787  c-0.345-0.26-0.922-0.766-0.915-1.253c0.007-0.501,0.582-1.015,0.776-1.151c0.301-0.205,0.457-0.562,0.467-0.925  c0.01-0.365-0.182-0.732-0.472-0.953c-0.295-0.226-0.575-1.326-0.442-1.705c1.372,0.264,2.86,0.426,4.49,0.441  c0.084,0,0.169,0.001,0.252,0.001c3.07,0,5.76-0.555,7.95-1.485c0.136,0.17,0.274,0.34,0.414,0.509  C260.391,265.604,259.365,266.67,259.326,266.711z M251.773,262.689c-6.128-0.056-10.188-2.024-10.86-5.266  c-0.199-0.963-0.025-1.722,0.531-2.317c0.692-0.74,1.971-1.175,3.35-1.175c0.296,0,0.597,0.021,0.898,0.062  c0.319,0.042,0.371,0.145,0.391,0.181c0.237,0.445-0.072,1.727-0.499,2.601c-0.271,0.555-0.05,1.225,0.497,1.507  c4.039,2.084,9.884,1.17,11.421,0.472c0.185-0.084,0.744-0.336,0.897-0.95c0.121-0.481-0.04-0.901-0.196-1.308  c-0.279-0.734-0.57-1.49,0.249-2.561c0.436-0.574,1.39-0.309,1.67-0.212c1.351,0.457,2.717,1.867,2.717,3.679  c0,0.844-0.384,1.652-1.14,2.403C259.836,261.651,256.107,262.674,251.773,262.689z M255.937,256.897  c-1.512,0.375-5.042,0.791-7.873-0.221c0.332-1.001,0.612-2.447,0.021-3.563c-0.025-0.047-0.069-0.1-0.099-0.15l-0.252-35.638  c0.282-21.148,10.051-28.873,14.632-31.336c-2.053,6.402-6.106,24.481-5.947,66.98C255.396,254.587,255.635,256.014,255.937,256.897  z M286.822,237.707l-1.188,2.629c-0.547-0.577-1.233-1.507-1.792-2.924c-0.211-0.534-0.785-0.834-1.343-0.679l-4.22,1.116  l0.966-2.362c0.15-0.369,0.097-0.787-0.141-1.106c-0.236-0.32-0.632-0.499-1.02-0.45l-5.124,0.512l1.901-5.166  c2.263,0.661,7.86,2.173,13.609,2.77l-0.837,1.043c-0.302,0.377-0.332,0.902-0.076,1.311c0.256,0.409,0.745,0.611,1.213,0.501  c0.06-0.014,6.143-1.391,10.285-0.801c0.469,0.057,0.927-0.165,1.155-0.579c0.227-0.415,0.172-0.926-0.137-1.283  c-2.418-2.797-8.915-10.603-9.942-13.095c-0.194-0.471-0.679-0.737-1.18-0.695c-0.505,0.06-0.907,0.449-0.987,0.95l-0.567,3.624  c-0.866-0.574-2.018-1.512-2.984-2.9c-0.277-0.399-0.772-0.579-1.241-0.441c-0.466,0.132-0.795,0.547-0.82,1.031  c-0.006,0.111-0.024,0.55,0.003,1.147c-2.917-2.594-7.599-7.328-9.12-12.133c-0.849-2.677-0.782-4.657,0.191-5.727  c0.851-0.933,2.276-1.036,3.023-0.877c0.794,0.17,1.551,0.731,2.022,1.503c0.461,0.755,0.602,1.601,0.392,2.384  c-0.092,0.35-0.015,0.722,0.214,1.005c0.227,0.281,0.582,0.444,0.936,0.419c2.855-0.141,17.217-1.087,19.538-5.791  c0.325-0.657,0.55-1.631,0.071-2.823c1.52-0.867,5.274-2.153,10.135,2.192c0.397,0.356,0.991,0.384,1.426,0.067  c1.12-0.824,2.803-2.802,2.594-5.209c1.693,0.212,4.606,1.07,6.627,4.326c0.186,0.297,0.497,0.492,0.845,0.53  c0.345,0.034,0.692-0.09,0.935-0.342c0.09-0.092,1.928-2.029,2.688-4.423c1.352,0.316,4.033,1.333,6.654,4.626  c0.196,0.246,0.485,0.4,0.8,0.425c0.111,0.001,1.553,0.087,3.415-0.457c-5.72,4.609-15.017,5.551-15.14,5.563  c-0.417,0.04-0.779,0.305-0.941,0.692c-0.161,0.386-0.096,0.832,0.17,1.155l1.613,1.968c-6.401,0.12-9.219-2.197-9.244-2.218  c-0.415-0.36-1.023-0.369-1.453-0.031c-0.427,0.344-0.549,0.942-0.287,1.425l1.403,2.591c-2.517-0.526-4.825-1.701-6.761-2.688  c-2.438-1.242-4.366-2.218-6.055-1.717c-1.262,0.377-2.183,1.518-2.403,2.977c-0.237,1.588,0.41,3.107,1.691,3.96  c0.652,0.435,1.396,0.647,2.143,0.647c1.056,0,2.123-0.424,2.96-1.241c0.685-0.669,1.096-1.48,1.217-2.313  c2.552,1.292,5.657,2.754,9.206,2.905c0.399,0.049,0.794-0.184,1.008-0.531c0.216-0.345,0.23-0.782,0.035-1.141l-0.741-1.367  c2.141,0.721,5.32,1.298,9.675,0.864c0.416-0.041,0.775-0.307,0.935-0.694c0.16-0.386,0.092-0.829-0.171-1.152l-1.736-2.116  c3.555-0.592,10.853-2.308,15.46-6.774c-0.757,2.088-1.993,4.239-4.028,5.417c-0.285,0.165-0.481,0.45-0.542,0.772  c-0.06,0.325,0.025,0.662,0.23,0.92c0.039,0.049,3.704,4.832,2.561,17.335c-2.096-1.077-6.126-3.638-8.405-8.259  c-0.242-0.49-0.792-0.734-1.331-0.587c-0.526,0.152-0.868,0.66-0.812,1.205c0.152,1.47,0.275,3.816,0.141,5.469  c-1.225-0.877-2.938-2.312-3.646-3.879c-0.199-0.444-0.66-0.721-1.143-0.661c-0.484,0.047-0.882,0.397-0.992,0.87  c-0.286,1.233-0.669,2.663-0.978,3.632c-1.128-0.706-2.626-1.823-3.248-2.97c-0.24-0.444-0.745-0.677-1.243-0.565  c-0.495,0.109-0.855,0.535-0.884,1.041c-0.074,1.311-0.246,3.334-0.467,4.732c-1.041-0.639-2.506-1.602-3.589-2.582  c-0.294-0.265-0.705-0.365-1.082-0.246c-0.379,0.112-0.671,0.415-0.772,0.799l-0.581,2.208c-0.973-0.565-2.323-1.466-3.205-2.543  c-0.395-0.485-1.111-0.556-1.593-0.16c-0.485,0.395-0.556,1.11-0.16,1.593c1.846,2.256,5.085,3.745,5.222,3.808  c0.305,0.137,0.651,0.132,0.955-0.008c0.302-0.144,0.525-0.412,0.611-0.736l0.497-1.889c1.837,1.367,3.803,2.446,3.906,2.502  c0.285,0.154,0.621,0.177,0.926,0.072c0.305-0.111,0.549-0.345,0.669-0.646c0.332-0.831,0.565-2.534,0.715-4.044  c1.547,1.343,3.284,2.223,3.392,2.276c0.531,0.264,1.171,0.076,1.478-0.431c0.32-0.535,0.701-1.736,1.017-2.875  c1.835,2.067,4.3,3.483,4.438,3.562c0.285,0.161,0.63,0.189,0.942,0.081c0.311-0.112,0.557-0.354,0.676-0.664  c0.342-0.898,0.456-2.318,0.466-3.715c2.157,2.636,4.654,4.314,6.418,5.287c0,0.027-0.013,0.053-0.011,0.08  c0.011,0.199,0.26,3.991,0.909,7.016c-1.902-0.704-4.957-2.139-7.783-4.797c-0.271-0.256-0.655-0.36-1.017-0.281  c-0.366,0.08-0.669,0.335-0.809,0.68l-0.872,2.152l-3.644-2.643c-0.321-0.232-0.745-0.281-1.113-0.122  c-0.367,0.157-0.624,0.497-0.676,0.893l-0.329,2.527c-0.792-0.574-1.742-1.332-2.421-2.094c-0.419-0.471-1.137-0.51-1.6-0.095  c-0.467,0.416-0.51,1.131-0.095,1.6c1.605,1.806,4.299,3.452,4.413,3.519c0.329,0.202,0.735,0.219,1.078,0.052  c0.346-0.165,0.584-0.494,0.635-0.875l0.319-2.453l3.273,2.374c0.28,0.204,0.641,0.264,0.976,0.171  c0.336-0.096,0.607-0.341,0.739-0.662l0.816-2.014c2.097,1.723,4.181,2.854,5.877,3.603c0.009,0.705,0.119,3.705,1.386,6.072  c-2.076-0.055-5.329-0.419-8.34-1.924c-0.509-0.26-1.14-0.09-1.456,0.397l-1.641,2.528l-6.786-4.553  c-0.289-0.196-0.654-0.249-0.981-0.136c-0.33,0.106-0.595,0.36-0.714,0.686l-1.043,2.84c-1.25-1.401-3.04-3.373-3.699-3.901  c-0.461-0.371-1.135-0.32-1.538,0.115c-0.019,0.02-1.603,1.718-3.502,3.037l-1.308-3.513c-0.219-0.584-0.874-0.885-1.457-0.667  c-0.587,0.219-0.885,0.872-0.667,1.457l1.793,4.815c0.115,0.31,0.36,0.554,0.67,0.667c0.309,0.114,0.654,0.089,0.942-0.072  c1.775-0.985,3.434-2.456,4.38-3.368c1.05,1.085,2.815,3.06,3.94,4.35c0.264,0.301,0.665,0.445,1.06,0.369  c0.394-0.072,0.72-0.346,0.858-0.722l1.202-3.273l6.543,4.39c0.189,0.125,0.409,0.192,0.631,0.192c0.075,0,0.152-0.007,0.227-0.024  c0.297-0.06,0.557-0.237,0.722-0.492l1.731-2.668c2.908,1.256,5.817,1.628,7.904,1.716c-0.013,0.269,0.061,0.545,0.245,0.77  c0.276,0.337,0.84,1.005,1.521,1.695l-2.833,0.042c-0.316,0.004-0.615,0.141-0.826,0.377c-0.211,0.235-0.314,0.547-0.285,0.863  l0.424,4.434c-1.563-0.351-4.045-1.032-5.66-2.091c-0.375-0.245-0.851-0.251-1.226-0.011l-4.951,3.124l-2.537-6.899  c-0.156-0.425-0.549-0.715-1-0.741c-0.492-0.035-0.875,0.22-1.077,0.626l-2.78,5.56l-1.948-3.107  c-0.202-0.321-0.551-0.521-0.931-0.531c-0.377,0.006-0.736,0.171-0.956,0.481c-0.019,0.027-1.596,2.256-3.404,3.919l-1.292-4.081  c-0.131-0.414-0.485-0.715-0.915-0.779c-0.432-0.057-0.856,0.122-1.1,0.481c-0.017,0.026-1.413,2.054-3.184,3.923l-0.32-5.054  c-0.024-0.384-0.242-0.73-0.58-0.917c-0.336-0.189-0.746-0.191-1.086-0.009c-0.486,0.261-1.388,0.734-2.331,1.2  c1.333-2.767,2.844-6.654,1.986-8.658c-0.256-0.597-0.737-0.993-1.316-1.24c-0.036-0.025-0.06-0.061-0.099-0.082  c-0.052-0.029-0.11-0.03-0.165-0.05c-0.039-0.011-0.064-0.042-0.104-0.052c-0.045-0.011-0.08-0.008-0.124-0.016  c-0.024-0.004-0.045-0.007-0.069-0.009c-1.536-0.32-2.583,0.109-3.188,0.55c-0.619,0.451-1.025,1.052-1.292,1.63  c-0.704-0.68-1.555-1.693-2.103-3.002c-0.174-0.416-0.579-0.689-1.028-0.695C287.418,237.011,287.01,237.298,286.822,237.707z   M278.207,225.066c6.125,2.952,13.65,3.279,15.707,3.317c0.985,1.223,1.944,2.391,2.716,3.308c-1.882,0.007-3.801,0.22-5.326,0.449  l0.269-0.335c0.266-0.33,0.322-0.782,0.152-1.17c-0.171-0.386-0.546-0.646-0.967-0.671c-7.692-0.457-16.161-3.13-16.246-3.158  c-0.004-0.001-0.006,0-0.01-0.001c0,0-0.004-0.003-0.006-0.004c-1.262-0.381-1.997-1.03-2.071-1.825  c-0.057-0.627,0.29-1.137,0.501-1.246C274.147,223.099,276.72,224.345,278.207,225.066z M288.91,225.706  c0.245-0.176,0.425-0.427,0.472-0.729l0.332-2.124c0.679,0.987,1.502,2.082,2.351,3.183  C291.19,225.974,290.111,225.871,288.91,225.706z M286.915,225.385c-0.552-0.102-1.12-0.221-1.696-0.354  c0.05-0.244,0.021-0.502-0.095-0.736c-0.032-0.065-0.062-0.132-0.091-0.204C285.75,224.679,286.412,225.1,286.915,225.385z   M301.857,213.018c-0.515,0.507-1.418,0.892-2.264,0.33c-0.647-0.432-0.79-1.181-0.706-1.74c0.066-0.435,0.317-0.995,0.811-1.142  c0.095-0.027,0.202-0.041,0.32-0.041c0.542,0,1.318,0.285,2.204,0.69l0.001,0.003C302.797,212.028,302.02,212.861,301.857,213.018z   M344.93,229.976c0.325,0.206,0.735,0.231,1.087,0.069c0.35-0.164,0.591-0.496,0.641-0.88c0.189-1.425,0.537-2.299,1.037-2.599  c0.902-0.541,3.089,0.287,5.617,1.245c1.927,0.73,4.325,1.637,7.058,2.307c7.132,1.747,15.516,0.246,22.912-1.078  c2.499-0.447,4.906-0.877,7.144-1.163c4.679-0.596,9.449,1.363,10.642,4.37c0.901,2.271-0.484,4.889-3.9,7.373  c-9.471,6.887-54.821,3.829-59.445,3.498c-1.23-1.171-1.711-3.568-1.855-5.149c0.747,0.239,1.25,0.357,1.313,0.372  c0.076,0.016,0.155,0.024,0.234,0.024c0.325,0,0.639-0.14,0.857-0.391c0.269-0.312,0.349-0.745,0.206-1.131  c-0.706-1.928-1.095-5.49-1.257-7.313c0.299,0.082,0.616,0.052,0.882-0.111c0.295-0.181,0.49-0.489,0.531-0.832  c1.34-11.382-0.997-17.314-2.222-19.537c0.297-0.227,0.576-0.472,0.841-0.727c0.082,5.38,3.202,9.705,4.479,11.249  C339.457,224.727,342.763,228.602,344.93,229.976z"/>
<path style="fill:#FFD250;" d="M231.299,171.644c-0.44-9.126-2.607-23.886-9.532-24.223c-3.903-0.18-5.826,2.223-5.906,2.326  c-0.229,0.296-0.604,0.464-0.967,0.444l-2.647-0.159l0.474,1.753c0.114,0.424-0.03,0.877-0.364,1.161  c-0.161,0.136-3.903,3.385-1.626,7.524c1.735,3.154,7.342,4.646,11.434,5.735c1.827,0.486,3.408,0.907,4.433,1.408  C228.426,168.508,230.027,170.015,231.299,171.644z"/>
<path style="fill:#464655;" d="M221.877,145.158c-3.983-0.195-6.461,1.791-7.393,2.738l-3.671-0.22  c-0.349-0.027-0.716,0.134-0.946,0.416c-0.23,0.281-0.311,0.657-0.216,1.011l0.705,2.616c-1.8,1.837-3.916,5.651-1.61,9.845  c2.201,4.004,8.349,5.64,12.838,6.834c1.715,0.456,3.193,0.85,4.021,1.253c2.654,1.298,4.785,4.25,5.895,6.581  c0.19,0.401,0.594,0.646,1.022,0.646c0.081,0,0.162-0.009,0.245-0.026c0.515-0.114,0.882-0.567,0.889-1.095  C233.667,174.529,233.81,145.739,221.877,145.158z M222.167,166.206c-4.094-1.088-9.7-2.582-11.434-5.735  c-2.277-4.139,1.465-7.389,1.626-7.524c0.335-0.284,0.477-0.737,0.364-1.161l-0.474-1.753l2.647,0.159  c0.365,0.019,0.739-0.147,0.967-0.444c0.08-0.104,2.003-2.506,5.906-2.326c6.926,0.337,9.093,15.097,9.532,24.223  c-1.273-1.628-2.873-3.137-4.701-4.03C225.574,167.112,223.993,166.692,222.167,166.206z"/>
<path style="fill:#FFD250;" d="M420.662,171.644c0.44-9.126,2.607-23.886,9.532-24.223c3.903-0.18,5.827,2.223,5.906,2.326  c0.229,0.296,0.604,0.464,0.967,0.444l2.647-0.159l-0.474,1.753c-0.114,0.424,0.03,0.877,0.365,1.161  c0.161,0.136,3.903,3.385,1.626,7.524c-1.735,3.154-7.342,4.646-11.434,5.735c-1.827,0.486-3.408,0.907-4.433,1.408  C423.535,168.508,421.935,170.015,420.662,171.644z"/>
<path style="fill:#464655;" d="M418.309,175.754c0.006,0.526,0.374,0.981,0.888,1.095c0.083,0.018,0.164,0.026,0.245,0.026  c0.43,0,0.832-0.245,1.022-0.646c1.11-2.331,3.24-5.282,5.895-6.581c0.827-0.404,2.307-0.799,4.021-1.253  c4.489-1.195,10.637-2.83,12.838-6.834c2.307-4.194,0.19-8.008-1.61-9.845l0.705-2.616c0.095-0.352,0.014-0.729-0.216-1.011  c-0.23-0.281-0.597-0.444-0.946-0.416l-3.671,0.22c-0.932-0.947-3.41-2.933-7.393-2.738  C418.151,145.739,418.296,174.529,418.309,175.754z M425.363,167.614c-1.827,0.893-3.428,2.402-4.701,4.03  c0.44-9.126,2.607-23.886,9.532-24.223c3.903-0.18,5.827,2.223,5.906,2.326c0.229,0.296,0.604,0.464,0.967,0.444l2.647-0.159  l-0.474,1.753c-0.114,0.424,0.03,0.877,0.365,1.161c0.161,0.136,3.903,3.385,1.626,7.524c-1.735,3.154-7.342,4.646-11.434,5.735  C427.967,166.692,426.388,167.112,425.363,167.614z"/>
<path style="fill:#FFD250;" d="M420.662,340.357c0.44,9.126,2.607,23.886,9.532,24.223c3.903,0.18,5.827-2.223,5.906-2.326  c0.229-0.296,0.604-0.464,0.967-0.444l2.647,0.16l-0.474-1.755c-0.114-0.424,0.03-0.877,0.365-1.161  c0.161-0.136,3.903-3.385,1.626-7.524c-1.735-3.154-7.342-4.646-11.434-5.735c-1.827-0.487-3.408-0.907-4.433-1.408  C423.535,343.492,421.935,341.985,420.662,340.357z"/>
<path style="fill:#464655;" d="M430.085,366.843c3.983,0.195,6.461-1.791,7.393-2.738l3.671,0.22  c0.349,0.029,0.715-0.134,0.946-0.416c0.23-0.281,0.311-0.657,0.216-1.011l-0.705-2.616c1.8-1.837,3.916-5.651,1.61-9.845  c-2.201-4.004-8.349-5.64-12.838-6.834c-1.715-0.456-3.194-0.85-4.021-1.253c-2.654-1.298-4.785-4.25-5.895-6.581  c-0.19-0.401-0.592-0.646-1.022-0.646c-0.081,0-0.162,0.009-0.245,0.026c-0.515,0.114-0.882,0.567-0.889,1.095  C418.296,337.471,418.151,366.262,430.085,366.843z M429.796,345.795c4.094,1.088,9.7,2.582,11.434,5.735  c2.278,4.139-1.465,7.389-1.626,7.524c-0.335,0.284-0.477,0.737-0.365,1.161l0.474,1.755l-2.647-0.16  c-0.365-0.019-0.739,0.147-0.967,0.444c-0.08,0.104-2.003,2.506-5.906,2.326c-6.926-0.337-9.092-15.097-9.532-24.223  c1.273,1.628,2.873,3.135,4.701,4.03C426.388,344.888,427.967,345.308,429.796,345.795z"/>
<path style="fill:#FFD250;" d="M231.299,340.357c-0.44,9.126-2.607,23.886-9.532,24.223c-3.903,0.18-5.826-2.223-5.906-2.326  c-0.229-0.296-0.604-0.464-0.967-0.444l-2.647,0.16l0.474-1.755c0.114-0.424-0.03-0.877-0.364-1.161  c-0.161-0.136-3.903-3.385-1.626-7.524c1.735-3.154,7.342-4.646,11.434-5.735c1.827-0.487,3.408-0.907,4.433-1.408  C228.426,343.492,230.027,341.985,231.299,340.357z"/>
<path style="fill:#464655;" d="M233.654,336.246c-0.006-0.526-0.374-0.981-0.889-1.095c-0.082-0.018-0.164-0.026-0.245-0.026  c-0.43,0-0.832,0.245-1.022,0.646c-1.11,2.331-3.24,5.282-5.895,6.581c-0.827,0.404-2.307,0.799-4.021,1.253  c-4.489,1.195-10.637,2.83-12.838,6.834c-2.307,4.194-0.19,8.008,1.61,9.845l-0.705,2.616c-0.095,0.352-0.014,0.729,0.216,1.011  c0.23,0.281,0.597,0.444,0.946,0.416l3.671-0.22c0.932,0.947,3.41,2.933,7.393,2.738  C233.81,366.262,233.667,337.471,233.654,336.246z M226.6,344.387c1.827-0.893,3.428-2.402,4.701-4.03  c-0.44,9.126-2.607,23.886-9.532,24.223c-3.903,0.18-5.826-2.223-5.906-2.326c-0.229-0.296-0.604-0.464-0.967-0.444l-2.647,0.16  l0.474-1.755c0.114-0.424-0.03-0.877-0.364-1.161c-0.161-0.136-3.903-3.385-1.626-7.524c1.735-3.154,7.342-4.646,11.434-5.735  C223.993,345.308,225.574,344.888,226.6,344.387z"/>
<g>
</g>
<g>
</g>
<g>
</g>
<g>
</g>
<g>
</g>
<g>
</g>
<g>
</g>
<g>
</g>
<g>
</g>
<g>
</g>
<g>
</g>
<g>
</g>
<g>
</g>
<g>
</g>
<g>
</g>
</svg>
