<?xml version="1.0" encoding="iso-8859-1"?>
<!-- Generator: Adobe Illustrator 19.0.0, SVG Export Plug-In . SVG Version: 6.00 Build 0)  -->
<svg xmlns="http://www.w3.org/2000/svg" xmlns:xlink="http://www.w3.org/1999/xlink" version="1.1" id="Layer_1" x="0px" y="0px" viewBox="0 0 512.002 512.002" style="enable-background:new 0 0 512.002 512.002;" xml:space="preserve">
<path style="fill:#F5F5F5;" d="M482.436,296.745l-0.014-81.491l-0.005-27.164l-0.008-42.485  c-0.001-11.607-5.715-22.388-15.14-28.946c-0.812-0.565-1.642-1.11-2.509-1.611l-23.711-13.684l-22.198-12.81l-17.87-10.313  l-94.999-54.826l-19.995-11.539l-12.39-7.151c-10.918-6.301-24.37-6.298-35.287,0.006l-12.307,7.108L206.01,23.387l-94.987,54.861  L81.077,95.545l-22.191,12.818l-11.697,6.756c-0.841,0.486-1.648,1.015-2.439,1.561c-9.465,6.556-15.201,17.365-15.2,29.001  l0.007,42.41l0.005,27.164l0.014,81.491l0.005,27.164l0.007,42.486c0.002,11.607,5.715,22.388,15.14,28.946  c0.812,0.565,1.642,1.11,2.509,1.611l23.377,13.491l22.198,12.812l18.204,10.506l94.999,54.826l19.995,11.539l12.39,7.151  c10.92,6.301,24.37,6.298,35.287-0.006l12.307-7.108l19.995-11.548l94.989-54.863l27.325-15.782l22.191-12.818l14.319-8.27  c0.841-0.486,1.648-1.015,2.439-1.561c9.465-6.556,15.201-17.365,15.2-29.001l-0.008-42.41L482.436,296.745z"/>
<g>
	<path style="fill:#FF4B55;" d="M342.266,44.353l-36.281-20.939L285.99,11.875L273.6,4.724c-5.447-3.143-11.523-4.716-17.601-4.722   l-9.997,23.562l9.997,20.791h86.268v-0.002H342.266z"/>
	<path style="fill:#FF4B55;" d="M255.999,138.417h225.656c-1.831-8.769-6.943-16.583-14.382-21.759   c-0.812-0.565-1.642-1.11-2.509-1.611l-23.711-13.684l-17.292-9.98H255.999l-9.997,23.402L255.999,138.417z"/>
	<polygon style="fill:#FF4B55;" points="231.006,209.761 246.002,232.483 482.426,232.483 482.423,215.254 482.418,188.09    482.418,185.451 255.999,185.451  "/>
	<polygon style="fill:#FF4B55;" points="29.576,296.745 29.579,323.908 29.581,326.548 482.441,326.548 482.441,323.908    482.436,296.745 482.433,279.515 29.573,279.515  "/>
	<path style="fill:#FF4B55;" d="M44.727,395.339c0.812,0.565,1.642,1.11,2.509,1.611l23.377,13.491l17.625,10.172H423.72l4.58-2.646   l22.191-12.818l14.319-8.27c0.841-0.486,1.648-1.013,2.439-1.562c7.455-5.164,12.583-12.971,14.429-21.738H30.344   C32.174,382.349,37.286,390.163,44.727,395.339z"/>
	<path style="fill:#FF4B55;" d="M206.012,488.584l19.995,11.539l12.39,7.151c10.918,6.301,24.37,6.298,35.287-0.006l12.307-7.108   l19.995-11.548l36.301-20.967H169.732L206.012,488.584z"/>
</g>
<path style="fill:#41479B;" d="M238.314,4.729l-12.307,7.108l-19.995,11.548l-36.301,20.967l-58.688,33.897L88.278,91.385  l-7.202,4.16l-22.191,12.818l-11.697,6.756c-0.841,0.486-1.648,1.015-2.439,1.561c-7.455,5.164-12.583,12.971-14.429,21.739  c-0.497,2.363-0.771,4.792-0.77,7.263l0.006,39.77v2.639l0.005,27.164l0.003,17.229h226.112c0.177,0,0.322-0.144,0.322-0.322  v-46.711v-47.032V91.385V44.353V0C249.893-0.006,243.785,1.57,238.314,4.729z"/>
<path style="fill:#F5F5F5;" d="M139.931,103.277l-10.367,31.086l-32.769,0.254c-3.143,0.025-4.445,4.035-1.917,5.901l26.362,19.466  l-9.885,31.244c-0.947,2.997,2.463,5.475,5.02,3.648l26.66-19.056l26.66,19.056c2.557,1.827,5.968-0.651,5.02-3.648l-9.885-31.244  l26.362-19.466c2.528-1.867,1.225-5.877-1.917-5.901l-32.769-0.254l-10.367-31.086C145.142,100.296,140.925,100.296,139.931,103.277  z"/>
<g>
</g>
<g>
</g>
<g>
</g>
<g>
</g>
<g>
</g>
<g>
</g>
<g>
</g>
<g>
</g>
<g>
</g>
<g>
</g>
<g>
</g>
<g>
</g>
<g>
</g>
<g>
</g>
<g>
</g>
</svg>
