<?xml version="1.0" encoding="iso-8859-1"?>
<!-- Generator: Adobe Illustrator 19.0.0, SVG Export Plug-In . SVG Version: 6.00 Build 0)  -->
<svg xmlns="http://www.w3.org/2000/svg" xmlns:xlink="http://www.w3.org/1999/xlink" version="1.1" id="Layer_1" x="0px" y="0px" viewBox="0 0 512.002 512.002" style="enable-background:new 0 0 512.002 512.002;" xml:space="preserve">
<path style="fill:#F5F5F5;" d="M482.436,296.746l-0.014-81.491l-0.005-27.164l-0.008-42.486  c-0.001-11.607-5.715-22.388-15.14-28.946c-0.812-0.565-1.642-1.11-2.508-1.611l-23.711-13.684l-22.198-12.81l-17.87-10.313  l-94.999-54.826l-19.993-11.54l-12.39-7.15c-10.918-6.301-24.37-6.3-35.287,0.006l-12.307,7.108l-19.995,11.548L111.024,78.25  L81.077,95.546l-22.191,12.818l-11.697,6.756c-0.841,0.486-1.648,1.015-2.439,1.561c-9.465,6.556-15.201,17.365-15.2,29.001  l0.007,42.41l0.005,27.164l0.014,81.491l0.005,27.164l0.007,42.486c0.003,11.607,5.715,22.388,15.14,28.946  c0.812,0.565,1.642,1.11,2.509,1.61l23.377,13.491l22.198,12.812l18.204,10.506l94.999,54.826l19.995,11.539l12.39,7.151  c10.92,6.302,24.37,6.298,35.287-0.006l12.307-7.108l19.995-11.548l94.989-54.862l27.325-15.782l22.191-12.818l14.319-8.27  c0.841-0.486,1.648-1.015,2.439-1.561c9.465-6.556,15.201-17.365,15.2-29.001l-0.008-42.41L482.436,296.746z"/>
<path style="fill:#73AF00;" d="M482.444,334.728H29.583l0.005,31.666c0.003,11.607,5.715,22.389,15.14,28.946  c0.812,0.565,1.642,1.11,2.509,1.611l23.377,13.491l22.198,12.811l18.204,10.506l94.999,54.826l6.238,3.6l13.756,7.94l12.39,7.151  c10.92,6.302,24.37,6.298,35.287-0.006l12.307-7.108l13.81-7.977l6.185-3.572l94.989-54.862l27.325-15.782l22.191-12.818  l14.319-8.27c0.841-0.486,1.648-1.013,2.439-1.562c9.465-6.556,15.201-17.365,15.2-29.001L482.444,334.728z"/>
<path style="fill:#41479B;" d="M482.411,145.605c-0.003-11.607-5.715-22.389-15.14-28.946c-0.812-0.565-1.642-1.11-2.509-1.611  l-23.71-13.684l-22.198-12.81l-17.87-10.313l-94.998-54.826l-6.238-3.6l-13.756-7.939l-12.39-7.151  c-10.918-6.302-24.37-6.3-35.287,0.006l-12.307,7.108l-13.81,7.977l-6.185,3.572l-94.99,54.862L81.077,95.546l-22.191,12.818  l-11.697,6.756c-0.841,0.486-1.648,1.015-2.439,1.561c-9.465,6.556-15.201,17.365-15.2,29.001l0.005,31.59h452.862L482.411,145.605z  "/>
<path style="fill:#464655;" d="M298.918,284.041l-2.89,1.472c-0.394,0.2-0.819,0.372-1.218,0.567l-25.527-32.245  c5.247-11.406,8.358-26.971,8.358-34.047c0-11.627-7.63-21.314-17.669-23.365c-0.671-1.517-2.184-2.578-3.95-2.578  c-1.766,0-3.278,1.062-3.95,2.578c-10.038,2.049-17.669,11.737-17.669,23.365c0,7.076,3.11,22.641,8.358,34.047l-25.526,32.244  c-0.399-0.192-0.82-0.365-1.211-0.564l-2.89-1.472l-10.785,21.199l2.89,1.47c14.716,7.487,32.276,11.443,50.782,11.443  c18.507,0,36.073-3.959,50.791-11.444l2.89-1.47L298.918,284.041z M273.315,219.788c0,5.259-1.953,16.316-5.572,26.449  c-0.477,1.335-0.967,2.602-1.466,3.8l-3.77-4.762v-16.84h6.486l-8.648-8.648v-18.816  C267.791,203.141,273.315,210.742,273.315,219.788z M244.298,246.238c-3.619-10.133-5.572-21.19-5.572-26.449  c0-9.046,5.525-16.648,12.971-18.816v18.816l-8.648,8.648h6.486v16.84l-3.77,4.762C245.265,248.839,244.774,247.572,244.298,246.238  z M215.223,294.234l0.882,3.632l-3.17,0.865L215.223,294.234z M211.449,302.498l5.424-1.48l0.996,4.098  C215.681,304.309,213.53,303.451,211.449,302.498z M219.673,294.236c2.468,0.976,5.035,1.837,7.672,2.604l0.78,2.391l-6.828,1.685  L219.673,294.236z M222.72,306.771l-0.656-2.702l7.072-1.745l2.192,6.719C228.392,308.403,225.523,307.642,222.72,306.771z   M232.319,298.142c2.713,0.634,5.476,1.177,8.298,1.59l1.175,2.101l-7.504,2.339L232.319,298.142z M236.179,309.978l-0.889-2.723  l8.115-2.529l3.678,6.578C243.384,311.029,239.744,310.589,236.179,309.978z M245.927,300.37c3.33,0.316,6.702,0.489,10.092,0.489  c0.722,0,1.44-0.04,2.161-0.054l0.904,1.385l-9.976,3.869L245.927,300.37z M256.02,311.668c-1.285,0-2.554-0.055-3.829-0.095  l-1.486-2.658l10.188-3.95l4.13,6.332C262.053,311.52,259.058,311.668,256.02,311.668z M263.2,300.589  c3.428-0.23,6.814-0.62,10.137-1.17l0.972,1.243l-7.897,4.852L263.2,300.589z M269.885,310.839l-1.701-2.609l8.135-4.999  l4.524,5.783C277.273,309.799,273.614,310.402,269.885,310.839z M278.117,298.513c2.828-0.61,5.596-1.326,8.276-2.163l1.006,1.303  l-5.741,5.389L278.117,298.513z M285.467,307.908l-1.802-2.303l5.727-5.375l3.993,5.17  C290.804,306.329,288.175,307.185,285.467,307.908z M290.714,294.868c1.822-0.675,3.61-1.387,5.331-2.169l0.846,1.662l-2.763,4.929  L290.714,294.868z M297.595,303.778l-1.311-1.698l2.377-4.24l2.293,4.506C299.856,302.853,298.722,303.311,297.595,303.778z"/>
<g>
</g>
<g>
</g>
<g>
</g>
<g>
</g>
<g>
</g>
<g>
</g>
<g>
</g>
<g>
</g>
<g>
</g>
<g>
</g>
<g>
</g>
<g>
</g>
<g>
</g>
<g>
</g>
<g>
</g>
</svg>
