<?xml version="1.0" encoding="iso-8859-1"?>
<!-- Generator: Adobe Illustrator 19.0.0, SVG Export Plug-In . SVG Version: 6.00 Build 0)  -->
<svg xmlns="http://www.w3.org/2000/svg" xmlns:xlink="http://www.w3.org/1999/xlink" version="1.1" id="Layer_1" x="0px" y="0px" viewBox="0 0 512.001 512.001" style="enable-background:new 0 0 512.001 512.001;" xml:space="preserve">
<path style="fill:#F5F5F5;" d="M29.59,366.395l-0.036-220.713c-0.003-12.607,6.722-24.257,17.639-30.563L238.316,4.731  c10.917-6.306,24.368-6.307,35.287-0.006L464.764,115.05c10.919,6.302,17.646,17.95,17.649,30.557l0.036,220.713  c0.003,12.607-6.722,24.257-17.639,30.563L273.685,507.269c-10.917,6.306-24.368,6.307-35.287,0.006L47.239,396.951  C36.319,390.649,29.592,379.001,29.59,366.395z"/>
<path style="fill:#FF4B55;" d="M482.413,145.605c-0.003-12.607-6.729-24.255-17.649-30.557L273.603,4.726  c-10.919-6.302-24.371-6.3-35.287,0.006L47.191,115.119c-10.917,6.306-17.64,17.955-17.639,30.563l0.004,24.078h452.86  L482.413,145.605z"/>
<path style="fill:#82AFFF;" d="M29.59,366.395c0.003,12.607,6.729,24.255,17.649,30.557L238.4,507.277  c10.919,6.302,24.371,6.299,35.286-0.006l191.125-110.39c10.917-6.306,17.64-17.955,17.639-30.563l-0.004-24.078H29.586  L29.59,366.395z"/>
<g>
</g>
<g>
</g>
<g>
</g>
<g>
</g>
<g>
</g>
<g>
</g>
<g>
</g>
<g>
</g>
<g>
</g>
<g>
</g>
<g>
</g>
<g>
</g>
<g>
</g>
<g>
</g>
<g>
</g>
</svg>
