<?xml version="1.0" encoding="iso-8859-1"?>
<!-- Generator: Adobe Illustrator 19.0.0, SVG Export Plug-In . SVG Version: 6.00 Build 0)  -->
<svg xmlns="http://www.w3.org/2000/svg" xmlns:xlink="http://www.w3.org/1999/xlink" version="1.1" id="Layer_1" x="0px" y="0px" viewBox="0 0 512 512" style="enable-background:new 0 0 512 512;" xml:space="preserve">
<polygon style="fill:#464655;" points="482.44,323.909 482.435,296.746 482.423,215.255 482.418,188.091 482.412,151.39   258.498,128.535 29.551,151.39 29.557,188.091 29.562,215.255 29.576,296.746 29.579,323.909 29.586,360.611 256,380.966   482.447,360.611 "/>
<path style="fill:#73AF00;" d="M482.447,360.611H29.586l0.001,5.783c0,2.902,0.357,5.752,1.041,8.498  c0.512,2.059,1.208,4.059,2.073,5.978c0.289,0.64,0.596,1.27,0.922,1.891c0.651,1.241,1.377,2.443,2.172,3.599  c2.384,3.468,5.397,6.521,8.931,8.98c0.812,0.565,1.642,1.11,2.509,1.611l23.377,13.491l22.198,12.811l18.204,10.506l74.656,43.086  l20.343,11.741l19.995,11.539l12.39,7.151c0.682,0.394,1.375,0.764,2.076,1.107c1.402,0.689,2.838,1.28,4.3,1.772  c5.845,1.969,12.085,2.362,18.089,1.178c2.251-0.444,4.469-1.108,6.619-1.996c0.717-0.296,1.426-0.616,2.127-0.961  s1.393-0.715,2.076-1.108l12.307-7.108l19.995-11.548l20.376-11.769l49.139-28.381l25.473-14.712l27.325-15.782l22.191-12.818  l14.319-8.27c0.841-0.486,1.648-1.015,2.439-1.562c1.775-1.23,3.418-2.608,4.917-4.114c1-1.004,1.934-2.064,2.802-3.174  c1.301-1.665,2.449-3.442,3.43-5.309c1.308-2.488,2.321-5.135,3.007-7.887c0.685-2.752,1.043-5.61,1.043-8.518L482.447,360.611z"/>
<path style="fill:#FF4B55;" d="M482.41,145.605c0-2.902-0.357-5.752-1.041-8.498c-0.512-2.059-1.208-4.059-2.073-5.978  c-2.597-5.756-6.723-10.782-12.025-14.471c-0.812-0.565-1.642-1.11-2.509-1.611l-11.856-6.842l-11.855-6.842l-22.198-12.811  l-17.87-10.313L342.385,44.42l-36.401-21.008l-19.995-11.539l-12.39-7.151c-0.682-0.394-1.375-0.764-2.076-1.107  c-2.804-1.378-5.746-2.363-8.748-2.953C260.526,0.221,258.24,0,255.956,0c-1.523,0-3.047,0.099-4.559,0.296  c-4.539,0.592-8.99,2.069-13.084,4.434l-12.307,7.108l-19.995,11.548L111.023,78.25L81.076,95.546l-22.191,12.818l-11.697,6.756  c-0.841,0.486-1.648,1.015-2.439,1.562c-1.775,1.23-3.418,2.608-4.917,4.114c-1,1.003-1.934,2.064-2.802,3.174  c-2.168,2.774-3.911,5.861-5.167,9.152c-0.502,1.317-0.927,2.667-1.27,4.043c-0.342,1.376-0.604,2.778-0.779,4.2  c-0.087,0.711-0.154,1.427-0.197,2.147s-0.066,1.443-0.066,2.171l0.001,5.708h452.861L482.41,145.605z"/>
<g>
	<path style="fill:#F5F5F5;" d="M286.954,257.536c-1.307,0.46-1.276,2.318,0.045,2.734l23.629,7.447l0.604,24.767   c0.034,1.385,1.811,1.929,2.616,0.802l14.385-20.171l23.741,7.079c1.327,0.396,2.396-1.126,1.571-2.239l-14.738-19.913   l14.07-20.392c0.786-1.14-0.331-2.626-1.645-2.186l-23.492,7.863l-15.046-19.682c-0.841-1.101-2.599-0.497-2.587,0.889   l0.219,24.773L286.954,257.536z"/>
	<path style="fill:#F5F5F5;" d="M256.682,316.691c17.155,0,32.574-7.172,43.584-18.639c0.974-1.013-0.37-2.532-1.533-1.745   c-7.674,5.202-16.888,8.274-26.879,8.274c-26.809,0-48.557-21.748-48.557-48.582c0-26.784,21.748-48.58,48.557-48.58   c9.975,0,19.174,3.068,26.839,8.26c1.173,0.796,2.513-0.747,1.531-1.77c-11.457-11.912-27.671-19.178-45.65-18.564   c-30.888,1.053-56.457,25.818-58.43,56.661C193.883,287.333,221.855,316.691,256.682,316.691z"/>
</g>
<g>
</g>
<g>
</g>
<g>
</g>
<g>
</g>
<g>
</g>
<g>
</g>
<g>
</g>
<g>
</g>
<g>
</g>
<g>
</g>
<g>
</g>
<g>
</g>
<g>
</g>
<g>
</g>
<g>
</g>
</svg>
