<?xml version="1.0" encoding="iso-8859-1"?>
<!-- Generator: Adobe Illustrator 19.0.0, SVG Export Plug-In . SVG Version: 6.00 Build 0)  -->
<svg xmlns="http://www.w3.org/2000/svg" xmlns:xlink="http://www.w3.org/1999/xlink" version="1.1" id="Layer_1" x="0px" y="0px" viewBox="0 0 512.002 512.002" style="enable-background:new 0 0 512.002 512.002;" xml:space="preserve">
<path style="fill:#F5F5F5;" d="M482.442,323.911l-0.005-27.164l-0.004-20.751l0,0l-0.004-19.995l-0.006-40.745l-0.005-27.164  l-0.008-42.486c0-3.105-0.422-6.147-1.202-9.07c-0.42-1.572-0.948-3.107-1.576-4.598c-2.568-6.091-6.814-11.419-12.362-15.28  c-0.812-0.565-1.642-1.11-2.509-1.611l-23.71-13.684l-22.198-12.81l-17.87-10.313l-68.336-39.439l-26.659-15.386l-19.995-11.539  l-9.997-5.77l0,0l-2.393-1.381c-10.918-6.302-24.37-6.3-35.287,0.006l-2.309,1.333l0,0l-9.997,5.775l-19.995,11.548l-26.659,15.398  l0,0l-68.331,39.466L81.078,95.547l-22.191,12.818l-11.697,6.756c-0.841,0.486-1.648,1.015-2.439,1.561  c-3.392,2.349-6.296,5.254-8.638,8.538c-1.572,2.206-2.883,4.585-3.911,7.092c-1.715,4.179-2.652,8.706-2.651,13.371l0.007,42.41  l0.005,27.164l0.004,20.751l0,0l0.004,20.913l0.006,39.814v0.014v0.005l0.005,27.159l0.007,42.478v0.006  c0.003,11.607,5.715,22.389,15.14,28.946c0.812,0.565,1.642,1.11,2.509,1.611l23.377,13.491l22.198,12.811l18.204,10.506  l94.999,54.826l19.995,11.539l9.997,5.77l0,0l2.393,1.381c10.918,6.302,24.37,6.298,35.287-0.006l2.309-1.333l0,0l9.997-5.775  l19.995-11.548l26.659-15.397l57.587-33.261l10.742-6.205l27.325-15.782l22.191-12.818l14.319-8.27  c0.841-0.486,1.648-1.013,2.439-1.562c9.465-6.556,15.201-17.365,15.2-29.001L482.442,323.911z"/>
<g>
	<path style="fill:#41479B;" d="M236.006,6.065l-9.997,5.775l-19.995,11.548l-26.659,15.398l0,0l-68.33,39.464L81.078,95.547   l-22.191,12.818l-11.697,6.756c-0.841,0.486-1.648,1.015-2.439,1.561c-3.392,2.349-6.296,5.254-8.638,8.538   c-1.572,2.206-2.883,4.585-3.911,7.092c-1.715,4.179-2.652,8.706-2.651,13.371l0.007,42.41l0.005,27.164l0.004,20.751h206.44V6.065   H236.006z"/>
	<path style="fill:#41479B;" d="M29.574,275.995l0.004,20.738v0.014v0.005l0.005,27.159l0.007,42.478v0.006   c0.003,11.607,5.715,22.389,15.14,28.946c0.812,0.565,1.642,1.11,2.509,1.611l23.377,13.491l22.198,12.812l18.204,10.506   l94.999,54.826l19.995,11.539l9.997,5.77V275.995H29.574z"/>
	<path style="fill:#41479B;" d="M482.427,236.006l-0.004-20.751l-0.005-27.164l-0.008-42.486c0-3.105-0.422-6.147-1.202-9.07   c-0.42-1.572-0.948-3.107-1.576-4.597c-2.568-6.091-6.814-11.419-12.362-15.28c-0.812-0.565-1.642-1.11-2.509-1.611l-23.71-13.684   l-22.198-12.81l-17.87-10.313l-68.336-39.439l-26.659-15.386l-19.995-11.539l-9.997-5.77v229.901L482.427,236.006L482.427,236.006z   "/>
	<path style="fill:#41479B;" d="M482.442,323.911l-0.005-27.164l-0.004-20.751H275.996v229.941l9.997-5.775l19.995-11.548   l26.659-15.397l57.587-33.261l10.742-6.205l27.325-15.782l22.191-12.818l14.319-8.27c0.841-0.486,1.648-1.013,2.439-1.562   c9.465-6.556,15.201-17.365,15.2-29.001L482.442,323.911z"/>
</g>
<g>
	<path style="fill:#F5F5F5;" d="M176.171,200.496c-0.241-1.435-0.786-3.133-1.473-4.226c-1.367-1.889-2.948-3.213-4.48-4.035   c-12.07-5.546-22.176-4.458-31.82-4.498c-9.525,0.246-18.435,1.888-25.668,3.472c-1.963,0.395-3.664,0.691-5.483,1.032   c0.9-1.859,4.198-4.184,8.639-5.593c10.826-3.698,23.184-5.182,35.33-7.55c3.068-0.601,6.177-1.305,9.361-2.211   c1.715-0.587,3.158-1.046,5.176-1.983c1.296-0.732,2.571-1.655,3.661-2.639c1.162-1.045,1.073-1.337,1.671-2.042   c2.758-5.25,0.147-8.988-2.042-10.941c-2.109-1.731-3.886-2.408-5.578-3.104c-3.284-1.151-6.326-1.873-9.261-2.486   c-5.656-1.132-11.218-2.244-16.662-3.334c-2.586-0.599-5.087-1.263-7.282-2.069c-1.938-0.516-4.676-2.431-4.269-1.909   c-5.004-0.432,6.852-6.012,15.401-9.129c2.272-1.003,4.53-2.016,6.844-3.444c2.271-1.501,4.61-2.774,7.132-6.976   c0.495-0.871,0.474-1.085,0.734-1.655l0.289-0.725c0.626-2.233,0.281-1.632,0.426-2.601c0.295-2.343-0.625-4.849-2.081-6.936   c-2.97-3.21-5.926-4.13-8.12-4.745c-9.078-2.151-15.607-1.563-21.282-1.541c-10.76,0.506-16.908,0.795-16.908,0.795l-0.415,0.019   c-0.013,0.001-0.025,0.001-0.036,0.002c-3.439,0.201-6.062,3.152-5.861,6.589c0.02,0.336,0.176,0.617,0.247,0.936   c-4.872,1.342-12.583,2.715-20.211,0.917c-1.162-0.269-2.234,0.43-2.502,1.543c-0.269,1.121,0.431,2.242,1.543,2.502   c2.998,0.706,5.97,0.982,8.805,0.982c6.022,0,11.166-1.226,14.677-2.302c1.133,0.841,2.511,1.371,4.029,1.282   c0,0,6.213-0.364,17.088-1c5.091-0.184,11.933-0.452,17.579,0.875c0.467,0.072,0.717,0.219,1.026,0.349   c0.045-0.501-0.912,0.91-2.403,1.635c-1.45,0.935-3.334,1.831-5.296,2.721c-4.01,1.817-8.601,3.38-13.689,6.117   c-2.456,1.45-5.494,2.922-8.017,7.231c-1.178,1.996-1.74,5.222-1.118,7.498l0.184,0.927l0.104,0.464l0.056,0.227   c-0.391-0.81,0.594,1.37,0.517,1.172l0.509,0.847c0.452,0.646,0.381,0.912,1.466,2.039c0.87,0.942,1.853,1.843,2.867,2.631   c0.889,0.611,1.552,0.9,2.351,1.352c1.575,0.928,3.004,1.358,4.498,1.943c2.942,1.036,5.806,1.741,8.666,2.372   c5.521,1.038,11.163,2.101,16.899,3.18c2.407,0.465,4.657,1.052,6.738,1.692c-2.666,0.962-6.396,1.929-9.614,2.549   c-11.704,2.471-24.115,3.964-36.737,8.396c-3.159,1.202-6.396,2.641-9.57,5.07c-2.989,2.264-6.128,6.781-5.727,11.742   c-1.071,0.149-2.301,0.369-3.289,0.479c-10.708,1.417-15.207-0.469-14.918-0.524c-1.398-0.825-3.2-0.362-4.026,1.036   c-0.826,1.397-0.362,3.2,1.035,4.026c0,0,1.836,1.247,5.112,1.964c3.26,0.739,7.848,1.076,13.434,0.636   c1.538-0.106,3.34-0.335,5.034-0.515c1.17,1.687,2.532,3.548,3.803,4.449c2.949,2.474,6.073,4.058,9.187,5.444   c12.533,4.847,25.059,5.866,37.272,5.385c6.132-0.461,12.165-1.176,18.362-3.94c2.889-1.347,6.854-3.469,8.079-9.609   C176.155,201.976,176.291,201.618,176.171,200.496z M167.156,202.43c-0.16-0.907-0.659,1.151-2.999,1.718   c-4.028,1.77-9.525,2.579-14.928,2.864c-10.897,0.359-22.796-0.913-33.001-5.052c-1.605-0.741-2.912-1.675-4.288-2.566   c0.756-0.116,1.412-0.196,2.188-0.317c7.583-1.207,15.485-2.631,24.563-2.78c8.645-0.159,19.656-0.039,26.966,3.598   c0.85,0.457,1.221,0.933,1.502,1.221c0,0-0.242-0.29,0.027-0.476C167.307,200.822,167.157,201.858,167.156,202.43z"/>
	<path style="fill:#F5F5F5;" d="M437.52,200.496c-0.241-1.435-0.786-3.133-1.473-4.226c-1.367-1.889-2.948-3.213-4.48-4.035   c-12.07-5.546-22.176-4.458-31.82-4.498c-9.525,0.246-18.435,1.888-25.668,3.472c-1.963,0.395-3.664,0.691-5.483,1.032   c0.9-1.859,4.198-4.184,8.639-5.593c10.826-3.698,23.184-5.182,35.33-7.55c3.068-0.601,6.177-1.305,9.361-2.211   c1.715-0.587,3.158-1.046,5.176-1.983c1.296-0.732,2.569-1.655,3.661-2.639c1.162-1.045,1.073-1.337,1.671-2.042   c2.758-5.25,0.147-8.988-2.042-10.941c-2.109-1.731-3.886-2.408-5.578-3.104c-3.284-1.151-6.326-1.873-9.261-2.486   c-5.656-1.132-11.218-2.244-16.662-3.334c-2.586-0.599-5.087-1.263-7.282-2.069c-1.938-0.516-4.675-2.431-4.27-1.909   c-5.004-0.432,6.852-6.012,15.401-9.129c2.272-1.003,4.53-2.016,6.844-3.444c2.271-1.501,4.61-2.774,7.132-6.976   c0.495-0.871,0.474-1.085,0.734-1.655l0.289-0.725c0.626-2.233,0.281-1.632,0.426-2.601c0.296-2.343-0.625-4.849-2.081-6.936   c-2.97-3.21-5.926-4.13-8.12-4.745c-9.078-2.151-15.607-1.563-21.282-1.541c-10.76,0.506-16.908,0.795-16.908,0.795l-0.415,0.019   c-0.012,0.001-0.025,0.001-0.036,0.002c-3.439,0.201-6.062,3.152-5.861,6.589c0.019,0.336,0.176,0.617,0.246,0.936   c-4.872,1.342-12.583,2.715-20.211,0.917c-1.162-0.269-2.234,0.43-2.502,1.543c-0.267,1.121,0.431,2.242,1.543,2.502   c2.997,0.706,5.97,0.982,8.805,0.982c6.022,0,11.166-1.226,14.677-2.302c1.133,0.841,2.509,1.371,4.029,1.282   c0,0,6.213-0.364,17.088-1c5.091-0.184,11.933-0.452,17.579,0.875c0.467,0.072,0.719,0.219,1.026,0.349   c0.045-0.501-0.912,0.91-2.403,1.635c-1.448,0.935-3.334,1.831-5.296,2.721c-4.01,1.817-8.601,3.38-13.689,6.117   c-2.456,1.45-5.493,2.922-8.017,7.231c-1.178,1.996-1.74,5.222-1.118,7.498l0.184,0.927l0.105,0.459l0.056,0.227   c-0.391-0.81,0.594,1.37,0.517,1.172l0.509,0.847c0.451,0.646,0.381,0.912,1.466,2.039c0.87,0.942,1.853,1.843,2.867,2.631   c0.888,0.611,1.551,0.9,2.351,1.352c1.575,0.928,3.004,1.358,4.497,1.943c2.942,1.036,5.806,1.741,8.666,2.372   c5.521,1.038,11.162,2.101,16.899,3.18c2.407,0.465,4.657,1.052,6.738,1.692c-2.665,0.962-6.396,1.929-9.614,2.549   c-11.704,2.471-24.116,3.964-36.737,8.396c-3.16,1.202-6.396,2.641-9.57,5.07c-2.989,2.264-6.128,6.781-5.727,11.742   c-1.071,0.149-2.301,0.369-3.29,0.479c-10.707,1.417-15.207-0.469-14.918-0.524c-1.398-0.825-3.2-0.362-4.025,1.036   c-0.826,1.397-0.362,3.2,1.035,4.026c0,0,1.836,1.247,5.112,1.964c3.26,0.739,7.848,1.076,13.434,0.636   c1.538-0.106,3.34-0.335,5.032-0.515c1.17,1.687,2.532,3.548,3.803,4.449c2.949,2.474,6.073,4.058,9.187,5.444   c12.533,4.847,25.059,5.866,37.272,5.385c6.132-0.461,12.165-1.176,18.362-3.94c2.888-1.347,6.854-3.469,8.079-9.609   C437.505,201.976,437.64,201.618,437.52,200.496z M428.506,202.43c-0.159-0.907-0.659,1.151-2.999,1.718   c-4.028,1.77-9.525,2.579-14.928,2.864c-10.897,0.359-22.796-0.913-33-5.052c-1.605-0.741-2.912-1.675-4.288-2.566   c0.756-0.116,1.412-0.196,2.188-0.317c7.583-1.207,15.484-2.631,24.563-2.78c8.645-0.159,19.656-0.039,26.966,3.598   c0.85,0.457,1.221,0.933,1.502,1.221c0,0-0.242-0.29,0.027-0.476C428.657,200.822,428.507,201.858,428.506,202.43z"/>
	<path style="fill:#F5F5F5;" d="M176.171,387.544c-0.241-1.435-0.786-3.133-1.473-4.226c-1.367-1.889-2.948-3.213-4.48-4.035   c-12.07-5.546-22.176-4.457-31.82-4.497c-9.525,0.246-18.435,1.888-25.668,3.472c-1.963,0.395-3.664,0.69-5.483,1.032   c0.9-1.859,4.198-4.184,8.639-5.593c10.826-3.698,23.184-5.182,35.33-7.55c3.068-0.601,6.177-1.305,9.361-2.211   c1.715-0.587,3.158-1.046,5.176-1.983c1.296-0.732,2.571-1.655,3.661-2.639c1.162-1.045,1.073-1.337,1.671-2.042   c2.758-5.25,0.147-8.988-2.042-10.941c-2.109-1.731-3.886-2.408-5.578-3.104c-3.284-1.151-6.326-1.873-9.261-2.486   c-5.656-1.132-11.218-2.244-16.662-3.334c-2.586-0.599-5.087-1.263-7.282-2.069c-1.938-0.517-4.676-2.431-4.269-1.91   c-5.004-0.432,6.852-6.012,15.401-9.129c2.272-1.004,4.53-2.016,6.844-3.444c2.271-1.501,4.61-2.774,7.132-6.976   c0.495-0.871,0.474-1.085,0.734-1.655l0.289-0.725c0.626-2.234,0.281-1.632,0.426-2.601c0.295-2.343-0.625-4.849-2.081-6.936   c-2.97-3.21-5.926-4.13-8.12-4.745c-9.078-2.151-15.607-1.563-21.282-1.541c-10.76,0.506-16.908,0.795-16.908,0.795l-0.415,0.019   c-0.013,0.001-0.025,0.001-0.036,0.003c-3.439,0.201-6.062,3.152-5.861,6.589c0.02,0.336,0.176,0.617,0.247,0.936   c-4.872,1.342-12.583,2.716-20.211,0.917c-1.162-0.267-2.234,0.43-2.502,1.543c-0.269,1.121,0.431,2.242,1.543,2.502   c2.998,0.707,5.97,0.982,8.805,0.982c6.022,0,11.166-1.226,14.677-2.302c1.133,0.841,2.511,1.371,4.029,1.282   c0,0,6.213-0.364,17.088-1c5.091-0.184,11.933-0.452,17.579,0.875c0.467,0.072,0.717,0.219,1.026,0.349   c0.045-0.501-0.912,0.91-2.403,1.635c-1.45,0.935-3.334,1.831-5.296,2.721c-4.01,1.817-8.601,3.38-13.689,6.117   c-2.456,1.45-5.494,2.922-8.017,7.231c-1.178,1.996-1.74,5.224-1.118,7.498l0.184,0.927l0.105,0.459l0.056,0.227   c-0.391-0.81,0.594,1.37,0.517,1.172l0.509,0.847c0.452,0.646,0.381,0.912,1.466,2.039c0.87,0.942,1.853,1.843,2.867,2.631   c0.889,0.611,1.552,0.9,2.351,1.352c1.575,0.929,3.004,1.358,4.498,1.943c2.942,1.036,5.806,1.741,8.666,2.372   c5.521,1.038,11.163,2.101,16.899,3.18c2.407,0.465,4.657,1.052,6.738,1.692c-2.666,0.961-6.396,1.929-9.614,2.549   c-11.704,2.471-24.115,3.964-36.737,8.396c-3.159,1.202-6.396,2.639-9.57,5.07c-2.989,2.264-6.128,6.781-5.727,11.742   c-1.071,0.149-2.301,0.369-3.289,0.479c-10.708,1.417-15.207-0.469-14.918-0.524c-1.398-0.825-3.2-0.362-4.026,1.036   c-0.826,1.397-0.362,3.2,1.035,4.025c0,0,1.836,1.247,5.112,1.964c3.26,0.739,7.848,1.075,13.434,0.636   c1.538-0.106,3.34-0.335,5.034-0.515c1.17,1.687,2.532,3.548,3.803,4.449c2.949,2.474,6.073,4.058,9.187,5.443   c12.533,4.847,25.059,5.866,37.272,5.385c6.132-0.461,12.165-1.176,18.362-3.94c2.889-1.347,6.854-3.469,8.079-9.609   C176.155,389.024,176.291,388.666,176.171,387.544z M167.156,389.478c-0.16-0.907-0.659,1.151-2.999,1.718   c-4.028,1.77-9.525,2.579-14.928,2.864c-10.897,0.359-22.796-0.913-33.001-5.052c-1.605-0.741-2.912-1.675-4.288-2.566   c0.756-0.116,1.412-0.196,2.188-0.317c7.583-1.207,15.485-2.631,24.563-2.78c8.645-0.159,19.656-0.039,26.966,3.598   c0.85,0.457,1.221,0.935,1.502,1.221c0,0-0.242-0.29,0.027-0.476C167.307,387.871,167.157,388.906,167.156,389.478z"/>
	<path style="fill:#F5F5F5;" d="M437.52,387.544c-0.241-1.435-0.786-3.133-1.473-4.226c-1.367-1.889-2.948-3.213-4.48-4.035   c-12.07-5.546-22.176-4.457-31.82-4.497c-9.525,0.246-18.435,1.888-25.668,3.472c-1.963,0.395-3.664,0.69-5.483,1.032   c0.9-1.859,4.198-4.184,8.639-5.593c10.826-3.698,23.184-5.182,35.33-7.55c3.068-0.601,6.177-1.305,9.361-2.211   c1.715-0.587,3.158-1.046,5.176-1.983c1.296-0.732,2.569-1.655,3.661-2.639c1.162-1.045,1.073-1.337,1.671-2.042   c2.758-5.25,0.147-8.988-2.042-10.941c-2.109-1.731-3.886-2.408-5.578-3.104c-3.284-1.151-6.326-1.873-9.261-2.486   c-5.656-1.132-11.218-2.244-16.662-3.334c-2.586-0.599-5.087-1.263-7.282-2.069c-1.938-0.517-4.675-2.431-4.27-1.91   c-5.004-0.432,6.852-6.012,15.401-9.129c2.272-1.004,4.53-2.016,6.844-3.444c2.271-1.501,4.61-2.774,7.132-6.976   c0.495-0.871,0.474-1.085,0.734-1.655l0.289-0.725c0.626-2.234,0.281-1.632,0.426-2.601c0.296-2.343-0.625-4.849-2.081-6.936   c-2.97-3.21-5.926-4.13-8.12-4.745c-9.078-2.151-15.607-1.563-21.282-1.541c-10.76,0.506-16.908,0.795-16.908,0.795l-0.415,0.019   c-0.012,0.001-0.025,0.001-0.036,0.003c-3.439,0.201-6.062,3.152-5.861,6.589c0.019,0.336,0.176,0.617,0.246,0.936   c-4.872,1.342-12.583,2.716-20.211,0.917c-1.162-0.267-2.234,0.43-2.502,1.543c-0.267,1.121,0.431,2.242,1.543,2.502   c2.997,0.707,5.97,0.982,8.805,0.982c6.022,0,11.166-1.226,14.677-2.302c1.133,0.841,2.509,1.371,4.029,1.282   c0,0,6.213-0.364,17.088-1c5.091-0.184,11.933-0.452,17.579,0.875c0.467,0.072,0.719,0.219,1.026,0.349   c0.045-0.501-0.912,0.91-2.403,1.635c-1.448,0.935-3.334,1.831-5.296,2.721c-4.01,1.817-8.601,3.38-13.689,6.117   c-2.456,1.45-5.493,2.922-8.017,7.231c-1.178,1.996-1.74,5.224-1.118,7.498l0.184,0.927l0.105,0.459l0.056,0.227   c-0.391-0.81,0.594,1.37,0.517,1.172L376.59,338c0.451,0.646,0.381,0.912,1.466,2.039c0.87,0.942,1.853,1.843,2.867,2.631   c0.888,0.611,1.551,0.9,2.351,1.352c1.575,0.929,3.004,1.358,4.497,1.943c2.942,1.036,5.806,1.741,8.666,2.372   c5.521,1.038,11.162,2.101,16.899,3.18c2.407,0.465,4.657,1.052,6.738,1.692c-2.665,0.961-6.396,1.929-9.614,2.549   c-11.704,2.471-24.116,3.964-36.737,8.396c-3.16,1.202-6.396,2.639-9.57,5.07c-2.989,2.264-6.128,6.781-5.727,11.742   c-1.071,0.149-2.301,0.369-3.29,0.479c-10.707,1.417-15.207-0.469-14.918-0.524c-1.398-0.825-3.2-0.362-4.025,1.036   c-0.826,1.397-0.362,3.2,1.035,4.025c0,0,1.836,1.247,5.112,1.964c3.26,0.739,7.848,1.075,13.434,0.636   c1.538-0.106,3.34-0.335,5.032-0.515c1.17,1.687,2.532,3.548,3.803,4.449c2.949,2.474,6.073,4.058,9.187,5.443   c12.533,4.847,25.059,5.866,37.272,5.385c6.132-0.461,12.165-1.176,18.362-3.94c2.888-1.347,6.854-3.469,8.079-9.609   C437.505,389.024,437.64,388.666,437.52,387.544z M428.506,389.478c-0.159-0.907-0.659,1.151-2.999,1.718   c-4.028,1.77-9.525,2.579-14.928,2.864c-10.897,0.359-22.796-0.913-33-5.052c-1.605-0.741-2.912-1.675-4.288-2.566   c0.756-0.116,1.412-0.196,2.188-0.317c7.583-1.207,15.484-2.631,24.563-2.78c8.645-0.159,19.656-0.039,26.966,3.598   c0.85,0.457,1.221,0.935,1.502,1.221c0,0-0.242-0.29,0.027-0.476C428.657,387.871,428.507,388.906,428.506,389.478z"/>
</g>
<g>
</g>
<g>
</g>
<g>
</g>
<g>
</g>
<g>
</g>
<g>
</g>
<g>
</g>
<g>
</g>
<g>
</g>
<g>
</g>
<g>
</g>
<g>
</g>
<g>
</g>
<g>
</g>
<g>
</g>
</svg>
