<?xml version="1.0" encoding="iso-8859-1"?>
<!-- Generator: Adobe Illustrator 19.0.0, SVG Export Plug-In . SVG Version: 6.00 Build 0)  -->
<svg xmlns="http://www.w3.org/2000/svg" xmlns:xlink="http://www.w3.org/1999/xlink" version="1.1" id="Layer_1" x="0px" y="0px" viewBox="0 0 512 512" style="enable-background:new 0 0 512 512;" xml:space="preserve">
<path style="fill:#FFE15A;" d="M482.435,296.744l-0.014-81.491l-0.005-27.164l-0.008-42.485  c-0.001-11.607-5.715-22.388-15.14-28.946c-0.812-0.565-1.642-1.11-2.509-1.611l-23.711-13.684l-22.198-12.81L400.98,78.24  l-94.999-54.826l-19.995-11.539l-12.39-7.151c-10.918-6.301-24.37-6.298-35.287,0.006l-12.307,7.108l-19.995,11.548L111.02,78.247  L81.076,95.544l-22.191,12.818l-11.697,6.756c-0.841,0.486-1.648,1.015-2.439,1.561c-9.465,6.556-15.201,17.365-15.2,29.001  l0.007,42.41l0.005,27.164l0.014,81.491l0.005,27.164l0.007,42.486c0.003,11.607,5.715,22.388,15.14,28.946  c0.812,0.565,1.642,1.11,2.509,1.611l23.377,13.491l22.198,12.811l18.204,10.506l94.999,54.826l19.995,11.539l12.39,7.151  c10.92,6.301,24.37,6.298,35.287-0.006l12.307-7.108l19.995-11.548l94.989-54.863l27.325-15.782l22.191-12.818l14.319-8.27  c0.841-0.486,1.648-1.015,2.439-1.561c9.465-6.556,15.201-17.365,15.2-29.001l-0.008-42.41L482.435,296.744z"/>
<path style="fill:#FF4B55;" d="M400.974,433.748l27.325-15.782l22.191-12.818l14.319-8.27c0.841-0.486,1.648-1.013,2.439-1.562  c9.465-6.556,15.201-17.365,15.2-29.001l-0.008-42.41l-0.005-27.164l-0.014-81.491l-0.005-27.164l-0.008-42.485  c-0.003-11.607-5.715-22.389-15.14-28.946c-0.812-0.565-1.642-1.11-2.509-1.611l-23.71-13.684l-22.196-12.81l-17.87-10.313  l-40.846-23.574v402.672L400.974,433.748z"/>
<path style="fill:#41479B;" d="M81.076,95.544l-22.191,12.818l-11.697,6.756c-0.841,0.486-1.648,1.015-2.439,1.561  c-9.465,6.556-15.201,17.365-15.2,29.001l0.007,42.41l0.005,27.164l0.014,81.491l0.005,27.164l0.007,42.485  c0.003,11.607,5.715,22.389,15.14,28.946c0.812,0.565,1.642,1.11,2.509,1.611l23.377,13.491l22.198,12.811l18.204,10.506  l40.846,23.574V54.661l-40.839,23.586L81.076,95.544z"/>
<rect x="281.169" y="293.358" transform="matrix(-0.775 0.6319 -0.6319 -0.775 702.8113 375.1567)" style="fill:#FFCD5A;" width="6.914" height="38.647"/>
<rect x="270.884" y="295.778" transform="matrix(-0.7753 0.6316 -0.6316 -0.7753 685.3531 364.7384)" style="fill:#FFBE5A;" width="13.821" height="17.01"/>
<rect x="226.905" y="293.362" transform="matrix(0.775 0.6319 -0.6319 0.775 249.4178 -75.2266)" style="fill:#FFCD5A;" width="6.914" height="38.647"/>
<rect x="230.278" y="295.795" transform="matrix(0.7753 0.6316 -0.6316 0.7753 245.4925 -81.4305)" style="fill:#FFBE5A;" width="13.821" height="17.01"/>
<polygon style="fill:#FFE15A;" points="248.846,306.749 231.562,341.318 255.761,358.602 255.761,310.205 "/>
<polygon style="fill:#FFCD5A;" points="262.675,306.749 279.959,341.318 255.761,358.602 255.761,310.205 "/>
<path style="fill:#FFBE5A;" d="M207.364,306.749v-89.88h10.371c0,0,0,58.768,0,69.139  C217.735,296.378,207.364,306.749,207.364,306.749z"/>
<path style="fill:#FFCD5A;" d="M200.45,324.033V216.868h10.371c0,0,0,76.052,0,86.423S200.45,324.033,200.45,324.033z"/>
<path style="fill:#FFE15A;" d="M193.537,337.86V216.868h10.371c0,0,0,89.88,0,100.25C203.908,327.488,193.537,337.86,193.537,337.86  z"/>
<path style="fill:#FF4B55;" d="M217.735,220.325c0,0,0,49.262,0,65.682c0,17.284,25.063,14.98,38.026,27.655  c12.964-12.675,38.026-10.371,38.026-27.655c0-16.421,0-65.682,0-65.682L217.735,220.325L217.735,220.325z"/>
<path style="fill:#41479B;" d="M217.735,258.352c0,10.943,0,21.562,0,27.655c0,17.284,25.063,14.98,38.026,27.655  c12.964-12.675,38.026-10.371,38.026-27.655c0-6.095,0-16.712,0-27.655H217.735z"/>
<g>
	<polygon style="fill:#FFE15A;" points="255.761,303.291 245.39,296.378 245.39,292.921 248.846,289.463 248.846,268.722    238.476,261.809 248.846,247.981 252.304,247.981 255.761,251.438 259.217,247.981 262.675,247.981 273.045,261.809    262.675,268.722 262.675,289.463 266.132,292.921 266.132,296.378  "/>
	<path style="fill:#FFE15A;" d="M241.933,223.783c0,0-13.827,3.457-13.827,17.284s13.827,20.742,13.827,20.742l6.914-10.371   C228.106,244.523,241.933,223.783,241.933,223.783z"/>
	<path style="fill:#FFE15A;" d="M269.588,223.783c0,0,13.827,3.457,13.827,17.284s-13.827,20.742-13.827,20.742l-6.914-10.371   C283.416,244.523,269.588,223.783,269.588,223.783z"/>
	<polygon style="fill:#FFE15A;" points="221.192,258.352 228.106,261.809 235.019,258.352 228.106,254.894  "/>
	<polygon style="fill:#FFE15A;" points="276.503,258.352 283.416,261.809 290.33,258.352 283.416,254.894  "/>
	<polygon style="fill:#FFE15A;" points="255.761,225.511 258.274,228.085 261.872,228.042 261.829,231.639 264.403,234.152    261.829,236.667 261.872,240.264 258.274,240.221 255.761,242.795 253.247,240.221 249.65,240.264 249.692,236.667    247.118,234.152 249.692,231.639 249.65,228.042 253.247,228.085  "/>
	<path style="fill:#FFE15A;" d="M232.285,273.448l2.493,2.773l3.467-1.375c1.795-0.711,3.479,1.241,2.513,2.912l-1.867,3.228   l2.378,2.872c1.231,1.487-0.105,3.693-1.993,3.289l-3.646-0.777l-1.997,3.149c-1.033,1.631-3.544,1.041-3.744-0.879l-0.387-3.709   l-3.612-0.926c-1.869-0.479-2.086-3.049-0.321-3.833l3.408-1.515l-0.236-3.721C228.617,273.012,230.995,272.012,232.285,273.448z"/>
	<path style="fill:#FFE15A;" d="M278.328,281.329c0.762-3.933,4.006-6.716,7.789-7.136c-0.775-0.417-1.601-0.762-2.511-0.939   c-4.842-0.939-9.529,2.226-10.467,7.068c-0.939,4.842,2.226,9.529,7.067,10.467c0.91,0.176,1.805,0.165,2.679,0.069   C279.534,289.056,277.566,285.262,278.328,281.329z"/>
	<path style="fill:#FFE15A;" d="M241.933,220.325l6.914-34.569l-13.827-10.371l3.457-3.457h6.914c0,0,3.457-3.457,10.371-3.457   c6.914,0,13.827,3.457,13.827,13.827s3.457,38.026,3.457,38.026h-31.113V220.325z"/>
</g>
<path style="fill:#FFAA5A;" d="M217.735,206.497c-7.637,0-13.827,6.191-13.827,13.827h27.655  C231.562,212.688,225.372,206.497,217.735,206.497z"/>
<g>
	<path style="fill:#FFBE5A;" d="M214.277,220.325h-20.742v-23.594c0-4.153,3.367-7.519,7.519-7.519h5.703   c4.153,0,7.519,3.367,7.519,7.519v23.594H214.277z"/>
	<path style="fill:#FFBE5A;" d="M304.158,306.749v-89.88h-10.371c0,0,0,58.768,0,69.139   C293.787,296.378,304.158,306.749,304.158,306.749z"/>
</g>
<path style="fill:#FFCD5A;" d="M311.072,324.033V216.868h-10.371c0,0,0,76.052,0,86.423S311.072,324.033,311.072,324.033z"/>
<path style="fill:#FFE15A;" d="M317.985,337.86V216.868h-10.371c0,0,0,89.88,0,100.25  C307.614,327.488,317.985,337.86,317.985,337.86z"/>
<path style="fill:#FFAA5A;" d="M293.787,206.497c7.637,0,13.827,6.191,13.827,13.827h-27.655  C279.959,212.688,286.15,206.497,293.787,206.497z"/>
<path style="fill:#FFBE5A;" d="M297.243,220.325h20.742v-23.594c0-4.153-3.367-7.519-7.519-7.519h-5.703  c-4.153,0-7.519,3.367-7.519,7.519L297.243,220.325L297.243,220.325z"/>
<rect x="308.255" y="251.563" transform="matrix(0.8541 0.5201 -0.5201 0.8541 200.3927 -118.1816)" style="fill:#FFAA5A;" width="5.186" height="93.07"/>
<rect x="288.232" y="320.419" transform="matrix(-0.6244 0.7811 -0.7811 -0.6244 733.9308 298.7294)" style="fill:#FFE15A;" width="13.821" height="10.807"/>
<rect x="325.524" y="256.906" transform="matrix(0.8542 0.5199 -0.5199 0.8542 186.8381 -132.5849)" style="fill:#FFCD5A;" width="8.642" height="19.945"/>
<g>
	
		<rect x="158.663" y="297.9" transform="matrix(0.5429 0.8398 -0.8398 0.5429 344.6947 -34.0253)" style="fill:#73AF00;" width="89.88" height="3.457"/>
	<path style="fill:#73AF00;" d="M211.349,296.741c-1.24,1.406-2.062,3.538-2.269,5.995c-1.705-1.721-3.663-2.818-5.486-3.11   c-0.481,1.783-0.285,4.019,0.584,6.28c-2.327-0.82-4.607-0.945-6.398-0.392c0.504,2.548,2.579,5.314,5.761,7.212   s6.601,2.412,9.083,1.646l0.71-0.459c1.717-1.948,2.653-5.277,2.228-8.958C215.134,301.274,213.465,298.246,211.349,296.741z"/>
</g>
<circle style="fill:#FF4B55;" cx="212.98" cy="314.14" r="3.457"/>
<path style="fill:#73AF00;" d="M198.212,276.42c-1.24,1.406-2.062,3.538-2.269,5.995c-1.705-1.721-3.663-2.818-5.486-3.11  c-0.481,1.783-0.285,4.019,0.584,6.28c-2.327-0.82-4.607-0.945-6.398-0.391c0.504,2.548,2.579,5.314,5.761,7.212  s6.601,2.412,9.083,1.646l0.71-0.459c1.717-1.948,2.653-5.277,2.228-8.958C201.998,280.952,200.327,277.924,198.212,276.42z"/>
<circle style="fill:#FF4B55;" cx="199.84" cy="293.82" r="3.457"/>
<path style="fill:#73AF00;" d="M185.075,256.096c-1.24,1.406-2.062,3.538-2.269,5.995c-1.705-1.721-3.663-2.818-5.486-3.11  c-0.481,1.783-0.285,4.019,0.584,6.28c-2.327-0.82-4.607-0.945-6.398-0.391c0.504,2.548,2.579,5.314,5.761,7.212  s6.601,2.412,9.083,1.646l0.71-0.459c1.717-1.948,2.653-5.277,2.228-8.958C188.86,260.63,187.191,257.602,185.075,256.096z"/>
<circle style="fill:#FF4B55;" cx="186.7" cy="273.5" r="3.457"/>
<g>
	
		<rect x="212.914" y="320.45" transform="matrix(0.6244 0.7811 -0.7811 0.6244 337.0906 -49.3154)" style="fill:#FFE15A;" width="13.821" height="10.807"/>
	<rect x="235.02" y="161.55" style="fill:#FFE15A;" width="3.457" height="24.2"/>
	<rect x="231.56" y="165.01" style="fill:#FFE15A;" width="10.371" height="3.457"/>
</g>
<polygon style="fill:#FF875A;" points="235.019,175.385 245.39,183.164 245.39,171.928 238.476,171.928 "/>
<path style="fill:#FFAA5A;" d="M238.476,161.557v3.457h3.457v3.457h-3.457v3.457h6.914c0,0,3.457-3.457,10.371-3.457  c6.914,0,13.827,3.457,13.827,13.827s3.457,38.026,3.457,38.026h6.914c0-7.637,6.191-13.827,13.827-13.827  c1.201,0,2.346,0.201,3.457,0.489v-7.403c0-5.727,4.644-10.371,10.371-10.371s10.371,4.642,10.371,10.371v17.285v3.457v61.05  l4.464-7.334l-1.476-0.898l10.371-17.038l1.476,0.898V257l2.214,1.348l3.691,2.247l-10.371,17.038l-1.477-0.898l-8.894,14.612  v46.511c0,0-8.255-8.278-10.021-17.436c-1.263-1.623-2.718-3.693-3.998-6.043l-3.956,6.501l3.678,2.94l-8.634,10.801l-2.293-1.832  l-3.908,6.421l-4.429-2.697l4.254-6.988l-2.064-1.651l2.94-3.678l-9.07-11.124l-2.681,2.183l-8.065-9.899  c-2.147,0.864-4.269,1.812-6.31,2.894l16.533,33.066l-24.198,17.285l-24.198-17.285l16.533-33.066  c-1.22-0.647-2.461-1.261-3.729-1.819l-7.189,8.824l-2.681-2.183l-9.07,11.124l2.94,3.678l-2.937,2.347l4.013,6.207l-2.903,1.877  l-3.823-5.915l-2.79,2.231l-8.634-10.801l3.88-3.102l-2.057-3.182c-0.049,0.003-0.097,0.003-0.146,0.003  c-1.13,0-2.237-0.504-2.895-1.523c-0.28-0.434-0.432-0.906-0.5-1.386c-0.65-0.039-1.31-0.132-1.994-0.295  c-1.285,2.368-2.749,4.455-4.02,6.087c-1.766,9.159-10.021,17.436-10.021,17.436v-44.094c-1.045-0.329-2.098-0.746-3.134-1.363  c-3.182-1.898-5.256-4.664-5.761-7.212c0.727-0.225,1.535-0.337,2.393-0.337c1.257,0,2.623,0.241,4.005,0.729  c-0.45-1.171-0.712-2.332-0.8-3.429l-3.4-5.26c-0.049,0.001-0.096,0.003-0.145,0.003c-1.13,0-2.237-0.504-2.895-1.522  c-0.28-0.434-0.431-0.906-0.5-1.386c-1.913-0.114-4.01-0.7-6.033-1.907c-3.182-1.898-5.257-4.664-5.761-7.212  c0.727-0.225,1.535-0.337,2.393-0.337c1.257,0,2.623,0.241,4.005,0.729c-0.87-2.261-1.066-4.496-0.584-6.28  c1.823,0.294,3.781,1.39,5.486,3.11c0.207-2.458,1.03-4.589,2.269-5.995c2.116,1.506,3.785,4.534,4.21,8.214  c0.27,2.341-0.056,4.493-0.739,6.285c0.41,0.259,0.777,0.591,1.058,1.025c0.687,1.063,0.662,2.341,0.137,3.397l3.4,5.26  c0.132,0.072,0.261,0.162,0.392,0.242v-60.191v-3.457v-17.285c0-5.727,4.642-10.371,10.371-10.371  c5.728,0,10.371,4.642,10.371,10.371v7.403c1.111-0.287,2.256-0.489,3.457-0.489c7.637,0,13.827,6.191,13.827,13.827h10.371  l6.914-34.569l-3.457-2.593l-6.914-5.185v7.778h-3.457v-17.284h-3.457v-3.457h3.457v-3.457h3.453 M293.969,318.671l1.277-1.598  l0.68,0.544l5.572-9.154c-0.486-1.692-0.797-3.429-0.797-5.171c0-0.17,0-0.404,0-0.607c-3.017-3.968-6.914-10.317-6.914-16.677  c0,7.281-4.469,11.073-10.586,13.986l5.32,6.529l-2.678,2.182L293.969,318.671 M217.885,318.549l1.847-1.477l1.277,1.598  l8.125-9.966l-2.678-2.182l4.399-5.399c-7.384-3.084-13.121-6.862-13.121-15.117c0,4.628-2.067,9.249-4.354,12.955  c1.086,1.595,1.906,3.632,2.178,5.992c0.27,2.341-0.056,4.493-0.739,6.285c0.41,0.26,0.779,0.591,1.058,1.025  c0.687,1.062,0.662,2.339,0.137,3.397L217.885,318.549 M238.476,158.965h-3.457c-1.432,0-2.593,1.161-2.593,2.593v0.864h-0.865  c-1.432,0-2.593,1.161-2.593,2.593v3.457c0,1.432,1.161,2.593,2.593,2.593h0.865v14.692c0,1.432,1.161,2.593,2.593,2.593h3.457  c1.432,0,2.593-1.161,2.593-2.593v-2.593l2.765,2.074l2.149,1.612l-6.177,30.883h-5.857c-1.247-7.827-8.044-13.827-16.216-13.827  c-0.287,0-0.575,0.009-0.865,0.027v-4.349c0-7.148-5.816-12.964-12.964-12.964s-12.964,5.816-12.964,12.964v17.285v3.457v39.757  c-0.936-2.582-2.458-4.741-4.365-6.098c-0.454-0.322-0.98-0.48-1.502-0.48c-0.722,0-1.437,0.3-1.946,0.879  c-0.799,0.906-1.455,2.011-1.944,3.254c-1.135-0.616-2.303-1.031-3.455-1.216c-0.139-0.022-0.277-0.034-0.414-0.034  c-1.153,0-2.192,0.771-2.501,1.917c-0.304,1.126-0.406,2.361-0.31,3.648c-0.204-0.01-0.406-0.014-0.607-0.014  c-1.122,0-2.184,0.152-3.158,0.452c-1.268,0.391-2.037,1.678-1.778,2.98c0.671,3.389,3.278,6.729,6.976,8.935  c1.706,1.018,3.559,1.716,5.439,2.056c0.076,0.142,0.157,0.282,0.245,0.417c0.851,1.317,2.186,2.222,3.713,2.561l1.888,2.922  c-0.062-0.001-0.126-0.001-0.189-0.001c-1.122,0-2.184,0.152-3.158,0.452c-1.268,0.391-2.036,1.678-1.778,2.98  c0.671,3.389,3.278,6.728,6.976,8.935c0.592,0.354,1.206,0.665,1.869,0.947v42.285c0,1.05,0.632,1.996,1.602,2.396  c0.32,0.132,0.656,0.196,0.99,0.196c0.676,0,1.34-0.265,1.836-0.762c0.352-0.354,8.484-8.594,10.603-18.158  c0.871-1.146,1.676-2.302,2.409-3.458c0.835,0.965,1.963,1.63,3.225,1.91l0.111,0.172l-2.048,1.637  c-0.537,0.43-0.881,1.055-0.957,1.738s0.122,1.37,0.551,1.906l8.634,10.801c0.429,0.537,1.055,0.882,1.738,0.958  c0.096,0.01,0.191,0.016,0.287,0.016c0.586,0,1.157-0.199,1.618-0.567l0.551-0.441l2.267,3.507c0.374,0.577,0.961,0.983,1.633,1.127  c0.18,0.039,0.362,0.057,0.545,0.057c0.496,0,0.985-0.142,1.407-0.415l1.677-1.085l-0.38,0.76c-0.57,1.141-0.226,2.528,0.812,3.269  l24.198,17.285c0.451,0.322,0.978,0.482,1.507,0.482s1.056-0.161,1.507-0.482l24.198-17.285c1.038-0.741,1.383-2.128,0.812-3.269  l-15.373-30.747c0.652-0.307,1.332-0.612,2.042-0.918l6.844,8.4c0.512,0.629,1.258,0.955,2.012,0.955  c0.576,0,1.155-0.191,1.636-0.582l0.671-0.547l6.11,7.493l-1.633,2.043c-0.43,0.537-0.627,1.223-0.551,1.906  c0.076,0.684,0.421,1.308,0.958,1.738l0.282,0.226l-3.067,5.039c-0.745,1.223-0.356,2.818,0.866,3.563l4.429,2.697  c0.41,0.25,0.877,0.379,1.348,0.379c0.205,0,0.41-0.024,0.612-0.074c0.669-0.162,1.245-0.584,1.602-1.171l2.376-3.904  c0.476,0.377,1.045,0.56,1.608,0.56c0.761,0,1.515-0.334,2.027-0.973l8.634-10.801c0.317-0.397,0.5-0.86,0.552-1.331  c2.818,8.424,9.565,15.262,9.885,15.583c0.496,0.497,1.161,0.762,1.836,0.762c0.334,0,0.67-0.065,0.99-0.196  c0.97-0.401,1.602-1.347,1.602-2.396v-45.785l7.244-11.902c0.176,0.037,0.354,0.055,0.531,0.055c0.875,0,1.728-0.442,2.217-1.245  l10.371-17.038c0.357-0.587,0.467-1.293,0.305-1.961c-0.162-0.669-0.584-1.245-1.171-1.602l-3.691-2.247l-2.214-1.348l-1.478-0.898  c-0.421-0.256-0.886-0.377-1.345-0.377c-0.875,0-1.728,0.442-2.217,1.245l-8.551,14.049v-48.479v-3.457v-17.285  c0-7.148-5.816-12.964-12.964-12.964s-12.964,5.816-12.964,12.964v4.349c-0.29-0.018-0.577-0.027-0.863-0.027  c-8.173,0-14.97,6.001-16.216,13.827h-2.229c-0.817-6.806-3.16-27.059-3.16-35.434c0-12.107-8.483-16.421-16.421-16.421  c-5.877,0-9.671,2.241-11.298,3.457h-0.085c0.095-0.27,0.147-0.561,0.147-0.865v-3.457c0-1.432-1.161-2.593-2.593-2.593h-0.863  v-0.864C241.069,160.125,239.908,158.965,238.476,158.965L238.476,158.965z M216.397,298.957c0.664-1.167,1.243-2.321,1.74-3.455  c2.161,2.9,5.271,4.964,8.58,6.596l-2.271,2.785c-0.435,0.534-0.64,1.217-0.57,1.901c0.07,0.684,0.409,1.312,0.942,1.747  l0.667,0.544l-4.62,5.666c-0.264-0.129-0.55-0.212-0.847-0.246c-0.096-0.011-0.192-0.016-0.287-0.016  c-0.257,0-0.514,0.039-0.757,0.114c0.119-1.303-0.19-2.611-0.917-3.736c-0.087-0.136-0.181-0.267-0.28-0.395  c0.462-1.853,0.586-3.829,0.359-5.803C217.901,302.63,217.306,300.689,216.397,298.957L216.397,298.957z M287.215,300.815  c2.283-1.332,4.501-3.018,6.183-5.284c1.323,3.023,3.064,5.772,4.712,8.017c0.021,1.445,0.217,2.93,0.599,4.509l-3.936,6.467  c-0.229,0.042-0.451,0.115-0.662,0.217l-4.619-5.665l0.667-0.544c0.534-0.435,0.872-1.062,0.942-1.747  c0.07-0.685-0.135-1.368-0.57-1.901L287.215,300.815L287.215,300.815z M237.175,317.848c0.752,0,1.5-0.326,2.012-0.955l4.371-5.366  l-11.834,23.669c-0.032-0.06-0.067-0.119-0.105-0.176l-2.739-4.238l1.105-0.884c0.537-0.429,0.882-1.055,0.958-1.738  s-0.122-1.368-0.551-1.906l-1.633-2.043l6.11-7.493l0.671,0.547C236.02,317.657,236.6,317.848,237.175,317.848L237.175,317.848z   M303.41,320.28l0.565-0.927c0.496,0.73,1.02,1.457,1.571,2.182c0.049,0.219,0.1,0.435,0.154,0.652  c-0.115-0.141-0.246-0.272-0.395-0.39L303.41,320.28L303.41,320.28z"/>
<g>
</g>
<g>
</g>
<g>
</g>
<g>
</g>
<g>
</g>
<g>
</g>
<g>
</g>
<g>
</g>
<g>
</g>
<g>
</g>
<g>
</g>
<g>
</g>
<g>
</g>
<g>
</g>
<g>
</g>
</svg>
