<?xml version="1.0" encoding="iso-8859-1"?>
<!-- Generator: Adobe Illustrator 19.0.0, SVG Export Plug-In . SVG Version: 6.00 Build 0)  -->
<svg xmlns="http://www.w3.org/2000/svg" xmlns:xlink="http://www.w3.org/1999/xlink" version="1.1" id="Layer_1" x="0px" y="0px" viewBox="0 0 512.005 512.005" style="enable-background:new 0 0 512.005 512.005;" xml:space="preserve">
<path style="fill:#E6B432;" d="M482.438,296.746l-0.014-81.491l-0.005-27.164l-0.008-42.485  c-0.003-11.607-5.715-22.389-15.14-28.946c-0.812-0.565-1.642-1.11-2.509-1.611l-23.71-13.684l-22.198-12.81l-17.87-10.313  l-94.999-54.826L285.99,11.877l-12.39-7.151c-10.918-6.301-24.37-6.298-35.287,0.006l-12.307,7.108L206.01,23.388L111.025,78.25  L81.078,95.546l-22.191,12.818L47.19,115.12c-0.841,0.486-1.648,1.015-2.439,1.562c-9.465,6.556-15.202,17.365-15.2,29.001  l0.007,42.41l0.005,27.164l0.014,81.491l0.005,27.164l0.007,42.486c0.003,11.607,5.715,22.388,15.14,28.946  c0.812,0.565,1.642,1.11,2.509,1.611l23.377,13.491l22.198,12.812l18.204,10.506l94.999,54.826l19.995,11.539l12.39,7.151  c10.918,6.302,24.37,6.3,35.287-0.006l12.307-7.108l19.995-11.548l94.989-54.862l27.325-15.782l22.191-12.818l14.319-8.27  c0.841-0.486,1.648-1.015,2.439-1.562c9.465-6.556,15.201-17.365,15.2-29.001l-0.008-42.41L482.438,296.746z"/>
<path style="fill:#C8414B;" d="M471.192,294.722l-0.013-77.444l-0.004-25.814l-0.006-40.375  c-0.001-11.029-5.431-21.277-14.387-27.509c-0.772-0.537-1.561-1.055-2.384-1.531l-22.535-13.004l-21.095-12.174l-16.983-9.801  l-90.279-52.103L284.504,24l-11.774-6.796c-10.376-5.988-23.16-5.986-33.535,0.006L227.5,23.966L208.499,34.94l-90.273,52.138  l-28.46,16.437l-21.089,12.18l-11.116,6.419c-0.8,0.461-1.567,0.963-2.318,1.483c-8.995,6.231-14.446,16.503-14.445,27.561  l0.006,40.303l0.004,25.814l0.012,77.444l0.006,25.817l0.006,40.375c0.001,11.029,5.431,21.277,14.387,27.509  c0.772,0.537,1.561,1.055,2.384,1.531l22.216,12.822l21.095,12.175l17.3,9.984l90.28,52.103l19.001,10.967l11.774,6.796  c10.376,5.988,23.16,5.986,33.535-0.006l11.696-6.754l19.001-10.975l90.272-52.138l25.968-14.998l21.089-12.18l13.608-7.859  c0.8-0.461,1.567-0.963,2.318-1.485c8.995-6.23,14.446-16.503,14.445-27.56l-0.006-40.303L471.192,294.722z"/>
<path style="fill:#E6B432;" d="M255.964,21.244c2.461,0,4.887,0.65,7.019,1.879l12.39,7.151l19.995,11.541l94.999,54.826  l17.87,10.313l22.198,12.811l23.705,13.68c0.244,0.141,0.581,0.361,1.001,0.652c3.774,2.626,6.028,6.929,6.028,11.511l0.008,42.485  l0.005,27.164l0.014,81.491l0.005,27.164l0.008,42.41c0.001,4.597-2.261,8.909-6.048,11.531c-0.409,0.284-0.734,0.495-0.971,0.631  l-14.319,8.27l-22.191,12.818l-27.325,15.782l-94.989,54.863l-19.995,11.548l-12.307,7.108c-2.132,1.232-4.561,1.883-7.024,1.883  c-2.461,0-4.887-0.65-7.019-1.879l-12.39-7.151l-19.995-11.541l-94.999-54.826l-18.203-10.505l-22.2-12.811l-23.371-13.488  c-0.245-0.141-0.582-0.361-1.001-0.652c-3.774-2.626-6.027-6.929-6.028-11.511l-0.007-42.486l-0.005-27.164l-0.014-81.491  l-0.005-27.164l-0.007-42.41c-0.001-4.596,2.262-8.909,6.048-11.532c0.409-0.284,0.734-0.495,0.971-0.631l11.697-6.756l22.19-12.816  l29.948-17.297l94.989-54.862l19.995-11.548l12.307-7.108C251.073,21.895,253.501,21.244,255.964,21.244 M255.964,0  c-6.095,0-12.188,1.577-17.649,4.73l-12.307,7.108l-19.995,11.548L111.025,78.25L81.078,95.546l-22.191,12.818L47.19,115.12  c-0.841,0.486-1.648,1.015-2.439,1.562c-9.465,6.556-15.201,17.365-15.2,29.001l0.007,42.41l0.005,27.164l0.014,81.491l0.005,27.164  l0.007,42.486c0.003,11.607,5.715,22.389,15.14,28.946c0.812,0.565,1.642,1.11,2.509,1.611l23.377,13.491l22.198,12.812  l18.204,10.506l94.999,54.826l19.995,11.539l12.39,7.151c5.457,3.149,11.548,4.725,17.638,4.725c6.095,0,12.188-1.577,17.649-4.73  l12.307-7.108l19.995-11.548l94.989-54.863l27.325-15.782l22.191-12.818l14.319-8.27c0.841-0.486,1.648-1.015,2.439-1.562  c9.465-6.556,15.201-17.365,15.2-29.001l-0.008-42.41l-0.005-27.164l-0.014-81.491l-0.005-27.164l-0.008-42.485  c-0.001-11.607-5.715-22.389-15.14-28.946c-0.812-0.565-1.642-1.11-2.508-1.611l-23.711-13.684l-22.198-12.812l-17.87-10.313  l-94.999-54.826l-19.995-11.539l-12.39-7.151C268.145,1.575,262.055,0,255.964,0L255.964,0z"/>
<circle style="fill:#41479B;" cx="338.03" cy="318.7" r="15.213"/>
<g>
	<path style="fill:#E6B432;" d="M364.725,231.359c-11.197,9.412-18.726,9.809-18.726,9.809   c19.916-8.125,17.835-23.581,17.835-23.581c-9.412,12.385-19.024,15.853-19.024,15.853c20.014-13.574,16.844-31.805,16.844-31.805   c-6.539,14.466-14.812,20.113-14.812,20.113c16.645-22.145,8.471-36.413,8.471-36.413c-6.539,20.509-12.038,26.455-12.038,26.455   c12.781-34.183,1.833-44.042,1.833-44.042c0,18.33-6.837,28.833-6.837,28.833c7.134-24.176-4.063-38.047-4.063-38.047   s-0.105,19.71-3.901,30.034c-0.911-1.383-1.45-1.201-1.45-1.201c-1.93,12.66-8.734,21.573-11.671,24.927   c-0.652-3.155-2.614-4.121-2.614-4.121s-0.354,3.098-3.133,7.665c-1.821,2.993-10.423,9.972-11.811,16.116   c-1.112,4.925,3.765,9.016,5.35,10.007s3.27,2.774,2.576,5.647s-5.846,2.576-9.511,2.477c-3.667-0.099-4.161,5.945-8.224,5.747   l-0.689,4.508l-1.591,0.347c0,0-16.645,33.17-18.063,44.457l-12.257,1.616l-12.257-1.616   c-1.417-11.287-18.063-44.457-18.063-44.457l-1.591-0.347l-0.689-4.508c-4.063,0.199-4.558-5.846-8.224-5.747   c-3.667,0.099-8.819,0.396-9.512-2.477c-0.694-2.873,0.991-4.657,2.576-5.647c1.586-0.991,6.463-5.082,5.35-10.007   c-1.387-6.143-9.99-13.123-11.811-16.116c-2.779-4.568-3.133-7.665-3.133-7.665s-1.962,0.966-2.614,4.121   c-2.937-3.355-9.741-12.267-11.671-24.927c0,0-0.539-0.182-1.45,1.201c-3.796-10.325-3.901-30.034-3.901-30.034   s-11.196,13.871-4.063,38.047c0,0-6.837-10.502-6.837-28.833c0,0-10.948,9.859,1.833,44.042c0,0-5.498-5.945-12.038-26.455   c0,0-8.174,14.267,8.471,36.413c0,0-8.273-5.647-14.812-20.113c0,0-3.17,18.231,16.844,31.805c0,0-9.611-3.468-19.024-15.853   c0,0-2.081,15.457,17.835,23.581c0,0-7.53-0.396-18.726-9.809c0,0-1.982,13.674,23.978,20.708c0,0-10.602-0.199-21.402-7.43   c0,0-0.297,13.475,21.896,16.151c0,0-7.332,1.09-15.556-1.882c0,0,0.297,10.898,19.618,12.285c0,0-7.629,0.595-12.583-0.595   c0,0,0.496,11.197,15.754,9.314c0,0-5.152,1.685-6.837,2.181c0,0,0.297,9.14,16.199,5.871c0,0-2.824,1.758-6.688,2.353   c0,0,3.269,7.629,16.547,4.261l-2.724,2.973c0,0,10.255,5.945,18.131-2.229l-2.824,5.054c0,0,6.688,2.527,10.85-4.013   c0,0-1.14,9.809-15.011,11.593c0,0,0.495,2.081,1.09,2.873c0,0-0.892,1.685-8.918,3.072c0,0,1.685,2.576,3.468,3.369   c0,0-3.468,2.973-5.351,3.566c0,0,2.973,1.486,4.855,1.783c0,0-4.161,4.063-9.314,4.161c-5.152,0.099-14.367-0.495-14.367-0.495   s-0.099-4.954-2.477-9.215c-2.378-4.26-3.17-4.582-3.17-4.582s0.52-3.418-0.966-4.83c-1.486-1.412-2.304-2.081-2.304-2.081   s0.792-6.837-1.387-11.097s-9.909-13.574-10.305-20.509c-0.396-6.936-0.099-9.511-0.099-9.511l-2.378,0.595l-1.586-3.27   l2.676-0.297l-1.09-4.954l-3.667,1.387l-0.495-4.26l-4.359,1.783l2.179,3.864l-3.864,1.09l2.279,4.557l2.973-1.882l0.792,3.963   c0,0-1.783,0.396-2.774,1.982c0,0,4.902,3.254,6.341,7.134c2.279,6.143,1.586,20.015,4.855,24.176   c3.269,4.161,5.846,7.036,5.846,7.036s-0.916,2.824,0.124,4.384c1.041,1.561,2.527,2.007,2.527,2.007s-0.892,6.316,1.412,10.478   c2.304,4.161,3.642,5.202,3.642,5.202s-8.396,5.127-2.452,11.072c0,0-0.792,5.4,4.855,6.688c0,0,0.297,4.26,5.152,3.765   c0,0,2.378-0.694,2.973,0.496c0.595,1.188,0,8.025,0,8.025s2.179-0.199,3.567-1.19l4.36,2.179l0.099-4.855l5.45-2.179   c0,0-2.378,0.396-7.233-4.161c0,0,0.792-0.496,1.387-4.36c0,0,3.864-3.072,4.657-5.548c0.792-2.477,6.242-7.927,12.583-9.71   l0.867,3.864c0,0,9.066-8.025,12.855-8.471l3.12,4.111c0,0,11.692-17.339,16.844-20.411c-0.396,1.387,2.477,1.586-3.914,8.719   c-6.391,7.134-2.428,12.782-2.428,12.782c-3.963,3.269-3.17,6.242-3.665,9.611s-13.674,12.088-13.674,12.088   c4.161,5.251,8.819,4.063,8.819,4.063c-2.576,1.685-1.783,7.332-1.783,7.332c3.765,0.991,7.53-0.694,7.53-0.694   c-1.288,3.567,0.694,6.043,0.694,6.043c2.378-1.486,7.828-2.378,7.828-2.378c-0.694,6.143,3.27,9.412,3.27,9.412l3.468-3.765   c0.595,6.936,6.738,10.9,6.738,10.9s6.143-3.964,6.738-10.899l3.468,3.765c0,0,3.964-3.269,3.27-9.412c0,0,5.45,0.892,7.828,2.378   c0,0,1.981-2.477,0.694-6.043c0,0,3.765,1.685,7.53,0.694c0,0,0.792-5.647-1.783-7.332c0,0,4.657,1.188,8.819-4.063   c0,0-13.178-8.719-13.673-12.088c-0.495-3.369,0.297-6.341-3.667-9.611c0,0,3.963-5.647-2.428-12.781   c-6.391-7.134-3.518-7.333-3.914-8.719c5.152,3.072,16.844,20.411,16.844,20.411l3.122-4.111c3.79,0.446,12.855,8.471,12.855,8.471   l0.867-3.864l0.164-0.179c4.727,2.546,12.534,5.988,15.689,8.401c3.369,2.576,6.143,2.774,14.267,0   c8.125-2.774,23.241-7.041,21.005-12.088c-0.122-0.275-0.26-0.46-0.394-0.675c0.355-1.303,0.501-3.579-1.886-5.567   c0,0,0.027,0.554,0.009,1.265l-7.745-2.887c-0.256-0.685-0.639-1.357-1.378-1.944c0,0,0.011,0.595-0.095,1.396l-1.987-0.741   l3.965-11.154c-0.3-0.167-0.637-0.261-0.949-0.409c0.08-1.01,0.271-2.407,0.566-3.866c0.968,0.339,1.853,0.756,2.494,1.281   l1.118-4.084c0,0-1.203-0.079-2.79-0.376c0.401-1.232,0.876-2.338,1.442-3.053l-5.251-1.586c0,0,0.136,1.591,0.042,3.578   c-1.002-0.407-1.958-0.923-2.73-1.585l-1.231,4.533c0.424,0.025,1.857,0.149,3.518,0.445c-0.3,1.33-0.829,2.511-1.587,3.397   c-0.187-0.025-0.36-0.092-0.55-0.111l-3.85,10.832l-10.442-3.891c-0.447,0.705-0.792,1.472-1.116,2.249   c0.055-0.114,0.105-0.29,0.164-0.361c0,0-4.04,2.113-3.984,5.217c-0.744,0.282-1.396,0.841-1.764,1.808   c-1.188,3.12,6.093,10.106,4.31,10.998c-1.751,0.875-10.898-6.659-12.364-7.924c1.886-0.366,4.636-1.736,4.636-1.736   c-1.883-0.595-5.35-3.567-5.35-3.567c1.783-0.792,3.468-3.369,3.468-3.369c-8.025-1.387-8.918-3.072-8.918-3.072   c0.595-0.792,1.09-2.873,1.09-2.873c-13.871-1.783-15.011-11.593-15.011-11.593c4.161,6.539,10.85,4.013,10.85,4.013l-2.824-5.054   c7.877,8.174,18.131,2.229,18.131,2.229l-2.724-2.973c13.276,3.369,16.547-4.261,16.547-4.261   c-3.864-0.595-6.688-2.353-6.688-2.353c15.902,3.27,16.199-5.871,16.199-5.871c-1.685-0.496-6.837-2.181-6.837-2.181   c15.258,1.883,15.754-9.314,15.754-9.314c-4.954,1.188-12.583,0.595-12.583,0.595c19.321-1.387,19.618-12.285,19.618-12.285   c-8.224,2.973-15.556,1.882-15.556,1.882c22.194-2.676,21.897-16.151,21.897-16.151c-10.8,7.233-21.402,7.43-21.402,7.43   C366.707,245.032,364.725,231.359,364.725,231.359z M342.21,329.375c-1.058-1.72,1.465-3.255,2.601-4.894l4.391,1.636   C347.71,327.895,343.301,331.148,342.21,329.375z M339.275,322.419c-1.425,2.207-2.416,4.682-6.801,4.801   c-5.499,0.149-6.391-4.756-7.579-7.432c-0.346-0.78-0.945-1.37-1.631-1.773c-0.003-0.479,0.023-1.007,0.065-1.54L339.275,322.419z"/>
	<path style="fill:#E6B432;" d="M255.587,217.735c0,0-7.059-6.02-9.14-9.289c0,0,2.378-0.966,3.567-2.452   c0,0-6.391-3.418-9.809-6.911c0,0,2.229-0.371,3.939-1.783c0,0-5.74-1.037-8.65-5.737c6.636-2.266,4.415-8.456,4.415-8.456   c-1.337,1.783-6.837,4.013-12.782,1.486c-5.945-2.527-12.484-0.744-12.484,2.527c0,0-13.376-3.864-10.032,9.066   c0,0,2.156-4.83,6.911-3.047c4.756,1.783,9.586,7.877,9.586,7.877s-2.973,1.635-8.471-0.149c0,0,2.229,8.546,12.262,4.235   c0,0,3.963,2.129,4.161,8.373c0,0,1.685-0.892,2.774-2.873c0,0,1.586,6.043-0.495,10.998c0,0,2.774-0.495,3.665-1.387   c0,0,0.792,5.251-2.676,9.512c0,0,15.233,7.258,24.894-0.694c0,0-3.642-4.161-4.83-8.025   C252.392,221.005,254.399,220.187,255.587,217.735z"/>
	<path style="fill:#E6B432;" d="M299.802,187.119c0-3.27-6.539-5.054-12.484-2.527c-5.945,2.527-11.444,0.297-12.781-1.486   c0,0-2.222,6.191,4.415,8.456c-2.91,4.7-8.65,5.737-8.65,5.737c1.71,1.412,3.939,1.783,3.939,1.783   c-3.418,3.493-9.809,6.911-9.809,6.911c1.188,1.486,3.567,2.452,3.567,2.452c-2.081,3.27-9.14,9.289-9.14,9.289   c1.188,2.452,3.195,3.269,3.195,3.269c-1.19,3.864-4.83,8.025-4.83,8.025c9.66,7.952,24.894,0.694,24.894,0.694   c-3.468-4.26-2.676-9.512-2.676-9.512c0.892,0.892,3.667,1.387,3.667,1.387c-2.081-4.954-0.495-10.998-0.495-10.998   c1.09,1.982,2.774,2.873,2.774,2.873c0.199-6.242,4.161-8.373,4.161-8.373c10.032,4.31,12.262-4.235,12.262-4.235   c-5.499,1.783-8.471,0.149-8.471,0.149s4.83-6.093,9.586-7.877c4.756-1.783,6.911,3.047,6.911,3.047   C313.179,183.255,299.802,187.119,299.802,187.119z"/>
	<path style="fill:#E6B432;" d="M293.745,266.062c-1.305-7.594-2.429-14.154,0.847-21.669l0.611-1.403l-12.975-14.9l-1.533,0.511   c-0.132,0.045-13.694,4.479-22.389,0.13l-1.085-0.542l-1.085,0.542c-8.654,4.336-22.251-0.085-22.391-0.132l-1.535-0.506   l-12.973,14.897l0.611,1.403c3.277,7.515,2.152,14.075,0.847,21.669c-1.228,7.171-2.623,15.3-0.17,25.213   c2.663,10.761,11.628,14.587,19.537,17.965c6.096,2.602,11.853,5.059,15.107,10.217l2.049,3.25l2.049-3.25   c3.255-5.159,9.013-7.615,15.107-10.217c7.909-3.378,16.873-7.203,19.536-17.965C296.368,281.361,294.974,273.232,293.745,266.062z    M224.882,243.891l8.905-10.223c4.034,1.107,14.937,3.508,23.435-0.099c8.496,3.608,19.4,1.207,23.435,0.099l8.905,10.223   c-3.127,8.235-1.896,15.415-0.596,22.99c0.972,5.676,1.941,11.523,1.128,18.258h-65.745c-0.812-6.734,0.156-12.582,1.128-18.258   C226.777,259.305,228.008,252.126,224.882,243.891z M272.477,304.779c-5.511,2.353-11.181,4.772-15.255,9.365   c-4.074-4.592-9.744-7.012-15.255-9.365c-7.733-3.302-14.405-6.187-16.604-14.29h63.716   C286.882,298.592,280.21,301.478,272.477,304.779z"/>
</g>
<path style="fill:#41479B;" d="M224.882,243.891l8.905-10.223c4.034,1.107,14.937,3.508,23.435-0.099  c8.496,3.608,19.4,1.207,23.435,0.099l8.905,10.223c-3.127,8.235-1.896,15.415-0.596,22.99c0.972,5.676,1.941,11.523,1.128,18.258  h-65.745c-0.812-6.734,0.156-12.582,1.128-18.258C226.777,259.305,228.008,252.126,224.882,243.891z"/>
<path style="fill:#73AF00;" d="M225.022,289.076c0.076,0.347,0.125,0.682,0.212,1.035c2.083,8.415,8.873,11.313,16.734,14.67  c5.511,2.353,11.181,4.772,15.255,9.365c4.074-4.592,9.744-7.012,15.255-9.365c7.862-3.357,14.651-6.255,16.734-14.67  c0.087-0.352,0.136-0.687,0.212-1.035H225.022z"/>
<g>
	<path style="fill:#E6B432;" d="M286.31,260.972c0-4.384-4.166-5.075-7.954-5c-3.788,0.076-9.329-0.616-9.469-3.56   c-0.087-1.836,2.993-2.007,5-1.363c1.165,0.374,8.409,1.667,10.681-3.182c0,0-2.649,0.085-5.445-0.542   c-2.154-0.484-10.993,0.617-12.584,4.026c-1.591,3.409,3.539,6.811,9.447,6.811s6.719,1.182,6.673,2.623   c-0.061,1.893-4.746,2.429-7.439,2.404c-4.239-1.54-14.13-0.334-14.177-0.521c-0.057-0.229-2.282-4.049-2.282-4.049   s4.049-0.285,4.563-1.027c0.514-0.741-3.073-3.589-3.073-3.589s3.015-1.202,3.13-2.058c0.125-0.941-2.448-3.169-2.448-3.169   s0.995-0.98,1.742-2.652c0.535-1.195-3.711-1.515-3.711-1.515c0.227-0.909,0.14-1.791-0.985-2.197   c-0.87-0.314-4.09,0.909-6.287,0.909s-3.03,1.591-3.03,1.591s-3.863,0.455-4.394,0.909c-0.53,0.455,0.151,3.409,0.151,3.409   c-1.969-0.302-2.878-2.046-2.878-2.046c-0.985,4.469,3.637,4.924,3.637,4.924l0.757,2.424c0,0,0,0,1.893,0.227   s0.985,2.046-1.969,2.046s-4.208,3.524-4.208,3.524c-2.053,0.057-3.194-1.597-3.65-3.708c-0.502-2.323-0.206-5.892,0.171-8.157   c0.456-2.738-0.912-3.537-0.912-3.537l-0.912,2.282c-0.057-2.338-2.111-2.567-2.111-2.567l-0.342,2.852   c-1.027-1.882-2.794-1.027-2.794-1.027s1.711,6.16,1.655,6.502c-0.057,0.342-0.627,0.627-1.426-0.229s-1.368-0.285-1.368-0.285   c0.856,6.16,4.159,5.256,4.159,5.256s0.147,1.93,1.145,5.847c1.065,4.183,5.445,3.395,5.445,3.395c0,1.363,1.061,3.333,1.363,7.878   c0.302,4.545-3.863,7.727-3.863,7.727c-3.788-0.076-3.409,3.637-3.409,3.637h10.453c0-9.666,4.155-11.323,4.155-11.323   c6.16,0.285,12.092-2.282,12.092-2.282c-0.912,3.708,0.685,5.247,0.685,5.247c2.509-0.342,1.255,4.62,0.514,4.62s-2.282,0-3.194,0   s-3.537,2.852-3.537,2.852h10.837c0,0,1.655-2.396,2.224-3.593c0.57-1.198-1.255-2.852-1.368-4.106   c-0.114-1.255,1.882-2.053,1.882-2.053c2.111,2.965,6.958,3.137,6.958,3.137l-0.114-2.224c0,0,2.509,0.856,3.08,1.597   c0.57,0.741,0.456,4.164-2.567,4.563c-3.023,0.399-3.252,2.567-3.252,2.567s6.902,0,8.27,0s2.452-2.567,2.452-3.537s0-7.301,0-8.67   c0-1.368-1.141-1.197-3.821-1.483c-2.436-0.259-2.202-2.923-3.205-6.016C280.866,265.374,286.31,264.604,286.31,260.972z"/>
	<path style="fill:#E6B432;" d="M285.669,157.328c-0.679-5.981-5.446-13.596-23.606-17.167c-0.06-1.929-1.247-3.565-2.944-4.254   v-3.333h2.973v-3.567h-2.973v-2.973h-3.567v2.973h-2.973v3.567h2.973v3.333c-1.696,0.689-2.884,2.324-2.944,4.254   c-18.16,3.57-22.927,11.186-23.606,17.167c-0.846,7.458,4.495,14.529,9.31,17.239v3.784h38.047v-3.784   C281.174,171.857,286.514,164.785,285.669,157.328z M265.753,168.839h-5.325v-21.935c4.39,1.983,7.106,5.024,7.895,9.2   C269.306,161.305,267.227,166.607,265.753,168.839z M246.348,156.101c0.79-4.176,3.505-7.217,7.895-9.199v21.935h-5.326   C247.44,166.607,245.362,161.302,246.348,156.101z M241.946,150.078c-0.875,1.752-1.432,3.504-1.717,5.114   c-0.861,4.872,0.126,9.824,1.757,13.648h-1.25c-2.668-1.837-6.096-6.356-5.59-10.815   C235.5,154.906,237.864,152.228,241.946,150.078z M273.934,168.839h-1.252c1.631-3.823,2.618-8.774,1.758-13.645   c-0.285-1.61-0.842-3.364-1.718-5.116c4.083,2.151,6.448,4.829,6.801,7.948C280.029,162.483,276.602,167.002,273.934,168.839z"/>
</g>
<g>
</g>
<g>
</g>
<g>
</g>
<g>
</g>
<g>
</g>
<g>
</g>
<g>
</g>
<g>
</g>
<g>
</g>
<g>
</g>
<g>
</g>
<g>
</g>
<g>
</g>
<g>
</g>
<g>
</g>
</svg>
