<?xml version="1.0" encoding="iso-8859-1"?>
<!-- Generator: Adobe Illustrator 19.0.0, SVG Export Plug-In . SVG Version: 6.00 Build 0)  -->
<svg xmlns="http://www.w3.org/2000/svg" xmlns:xlink="http://www.w3.org/1999/xlink" version="1.1" id="Layer_1" x="0px" y="0px" viewBox="0 0 512.002 512.002" style="enable-background:new 0 0 512.002 512.002;" xml:space="preserve">
<path style="fill:#4173CD;" d="M482.45,366.319l-0.008-42.41l-0.005-27.164l-0.014-81.491l-0.005-27.164l-0.008-42.485  c-0.001-3.105-0.422-6.147-1.202-9.07c-0.42-1.572-0.948-3.107-1.577-4.597c-2.568-6.091-6.814-11.419-12.362-15.28  c-0.812-0.565-1.642-1.11-2.509-1.611l-23.71-13.684l-22.198-12.81l-17.87-10.313L332.645,38.8l0,0l-26.659-15.386l-19.995-11.539  l-12.39-7.151c-10.918-6.301-24.37-6.298-35.287,0.006l-12.307,7.108l-19.995,11.548l-26.659,15.398l0,0L111.026,78.25  L81.079,95.547l-22.191,12.818l-11.697,6.755c-0.841,0.486-1.648,1.015-2.439,1.561c-3.392,2.349-6.296,5.254-8.638,8.538  c-1.572,2.206-2.883,4.585-3.911,7.092c-1.715,4.179-2.652,8.706-2.651,13.371l0.007,42.41l0.005,27.164l0.014,81.478v0.014v0.005  l0.005,27.159l0.007,42.478v0.006c0.003,11.607,5.715,22.388,15.14,28.946c0.812,0.565,1.642,1.11,2.509,1.611l23.377,13.491  l22.198,12.812l18.204,10.506l94.999,54.826l19.995,11.539l12.39,7.151c10.918,6.301,24.37,6.298,35.287-0.006l12.307-7.108  l19.995-11.548l26.659-15.397l0,0l57.588-33.261l10.742-6.205l27.325-15.782l22.191-12.818l14.319-8.27  c0.841-0.486,1.648-1.015,2.439-1.561C476.716,388.765,482.452,377.956,482.45,366.319L482.45,366.319L482.45,366.319z"/>
<path style="fill:#73AF00;" d="M211.287,355.972c-0.84,14.936,9.046,16.775,14.402,16.857c5.356,0.081,13.473,2.434,21.019,3.976  c7.548,1.542,9.982-4.707,9.982-4.707c4.464,5.843,8.819,4.059,8.819,4.059c3.57-3.572,13.094-5.357,16.827-5.601  c3.733-0.244,2.84-5.356,2.84-5.356c3.911-2.176,6.558-4.67,8.45-7.188c0.081,0.036,0.151,0.092,0.234,0.127  c6.411,2.759,11.362-3.084,12.417-5.275c0.652-1.356,1.847-1.954,2.701-2.247L309.28,354c2.759-3.976,8.765-2.516,8.765-2.516  c-6.168-9.495-12.417-5.112-12.417-5.112l2.422,2.301c-3.674,1.852-5.855,9.182-11.267,7.033c-0.462-0.184-0.854-0.447-1.266-0.69  c2.184-4.331,2.256-8.418,1.672-10.753c-1.055-4.22-7.548-5.194-10.712-0.892c-2.212,3.007-0.812,7.652,2.394,11.134  c-1.693,1.181-3.855,2.279-6.696,3.068c-8.765,2.434-21.912-9.089-31.002-9.576s-17.043,7.142-21.588,12.01  c-4.545,4.87-10.643,0.556-10.551-2.597 M290.858,345.073c1.705-0.731,2.434,0.569,2.678,2.678c0.102,0.885-0.384,2.332-1.575,3.886  C290.083,348.75,289.776,345.537,290.858,345.073z"/>
<g>
	<polygon style="fill:#F5F5F5;" points="237.029,373.985 232.183,376.48 233.537,373.131  "/>
	<polygon style="fill:#F5F5F5;" points="232.508,372.829 228.028,375.136 229.278,372.04  "/>
	<polygon style="fill:#F5F5F5;" points="228.329,371.987 225.018,373.855 225.872,371.485  "/>
	<polygon style="fill:#F5F5F5;" points="265.511,376.156 260.235,377.529 262.291,374.556  "/>
	<polygon style="fill:#F5F5F5;" points="261.847,374.204 256.933,375.319 258.919,372.633  "/>
	<polygon style="fill:#F5F5F5;" points="258.42,372.406 255.048,374.159 255.982,371.82  "/>
	
		<ellipse transform="matrix(-0.8179 0.5754 -0.5754 -0.8179 457.9966 244.7568)" style="fill:#F5F5F5;" cx="190.264" cy="194.86" rx="2.287" ry="2.987"/>
	
		<ellipse transform="matrix(0.8179 0.5754 -0.5754 0.8179 170.7095 -149.6378)" style="fill:#F5F5F5;" cx="321.738" cy="194.852" rx="2.287" ry="2.987"/>
	<path style="fill:#F5F5F5;" d="M287.364,244.33v58.248c0,17.294-14.07,31.364-31.364,31.364s-31.364-14.07-31.364-31.364V244.33   H287.364 M305.286,221.927h-98.573c-2.474,0-4.48,2.006-4.48,4.48v76.17c0,29.694,24.072,53.767,53.767,53.767   s53.768-24.072,53.768-53.767v-76.17C309.768,223.933,307.761,221.927,305.286,221.927L305.286,221.927z"/>
</g>
<g>
	<path style="fill:#FF4B55;" d="M224.636,244.33h-22.403v-12.405c0-5.521,4.476-9.997,9.997-9.997h12.405v22.402H224.636z"/>
	<rect x="244.801" y="221.93" style="fill:#FF4B55;" width="22.403" height="22.403"/>
	<rect x="202.231" y="266.73" style="fill:#FF4B55;" width="22.403" height="22.403"/>
	<rect x="287.361" y="266.73" style="fill:#FF4B55;" width="22.403" height="22.403"/>
	<path style="fill:#FF4B55;" d="M309.768,244.33h-22.403v-22.403h12.405c5.521,0,9.997,4.476,9.997,9.997L309.768,244.33   L309.768,244.33z"/>
	<path style="fill:#FF4B55;" d="M275.061,352.804l-8.619-20.687c-3.272,1.16-6.777,1.824-10.441,1.824   c-3.665,0-7.169-0.665-10.441-1.824l-8.619,20.687c5.932,2.253,12.339,3.542,19.06,3.542   C262.722,356.345,269.129,355.057,275.061,352.804z"/>
	<path style="fill:#FF4B55;" d="M216.337,338.789l17.523-14.017c-4.434-4.424-7.529-10.171-8.694-16.583l-21.598,6.171   C205.647,323.647,210.137,332.002,216.337,338.789z"/>
	<path style="fill:#FF4B55;" d="M308.432,314.358l-21.598-6.171c-1.165,6.412-4.26,12.159-8.694,16.583l17.523,14.017   C301.862,332.002,306.354,323.647,308.432,314.358z"/>
</g>
<g>
	<rect x="208.961" y="226.41" style="fill:#FFE15A;" width="8.961" height="13.441"/>
	<rect x="208.961" y="271.21" style="fill:#FFE15A;" width="8.961" height="13.441"/>
	<rect x="213.431" y="316.01" style="fill:#FFE15A;" width="8.961" height="13.441"/>
	<rect x="289.611" y="316.01" style="fill:#FFE15A;" width="8.961" height="13.441"/>
	<rect x="294.081" y="226.41" style="fill:#FFE15A;" width="8.961" height="13.441"/>
</g>
<g>
	<rect x="208.961" y="248.67" style="fill:#FF4B55;" width="8.961" height="13.441"/>
	<rect x="294.081" y="248.67" style="fill:#FF4B55;" width="8.961" height="13.441"/>
	<rect x="208.961" y="293.11" style="fill:#FF4B55;" width="8.961" height="13.441"/>
	<rect x="228.281" y="332.72" style="fill:#FF4B55;" width="8.961" height="13.441"/>
	<rect x="274.761" y="332.72" style="fill:#FF4B55;" width="8.961" height="13.441"/>
	<rect x="294.081" y="293.11" style="fill:#FF4B55;" width="8.961" height="13.441"/>
</g>
<rect x="251.521" y="226.41" style="fill:#FFE15A;" width="8.961" height="13.441"/>
<g>
	<rect x="230.241" y="226.41" style="fill:#FF4B55;" width="8.961" height="13.441"/>
	<rect x="272.431" y="226.41" style="fill:#FF4B55;" width="8.961" height="13.441"/>
</g>
<g>
	<rect x="294.081" y="271.21" style="fill:#FFE15A;" width="8.961" height="13.441"/>
	<rect x="251.521" y="338.42" style="fill:#FFE15A;" width="8.961" height="13.441"/>
	<path style="fill:#FFE15A;" d="M256,252.871c8.648,0,15.682,7.034,15.682,15.682s-7.036,15.682-15.682,15.682   c-8.648,0-15.682-7.034-15.682-15.682C240.318,259.905,247.354,252.871,256,252.871 M256,250.63   c-9.899,0-17.923,8.024-17.923,17.923c0,9.899,8.024,17.923,17.923,17.923c9.899,0,17.923-8.024,17.923-17.923   S265.898,250.63,256,250.63L256,250.63z"/>
</g>
<g>
	<path style="fill:#73AF00;" d="M253.293,267.293c-4.444,0-7.218,1.251-8.955,2.805c0.714-3.519,2.198-7.287,5.315-7.287   c0.619,0,1.12-0.504,1.12-1.12s-0.501-1.12-1.12-1.12c-3.089,0-5.011,2.152-6.215,4.851c-0.739-14.693-3.02-14.748-3.866-14.748   c-0.619,0-1.12,0.504-1.12,1.12c0,0.539,0.376,0.985,0.882,1.093c0.467,0.56,0.869,2.444,1.192,5.056   c-1.45-3.078-3.555-5.31-6.649-5.31c-0.62,0-1.12,0.504-1.12,1.12s0.501,1.12,1.12,1.12c3.059,0,4.937,3.731,6.057,8.215   c-2.149-3.065-5.394-5.319-10.165-5.319c-0.619,0-1.12,0.504-1.12,1.12s0.501,1.12,1.12,1.12c4.956,0,7.799,2.858,9.44,6.162   c-1.922-1.627-4.662-2.802-8.6-2.802c-0.62,0-1.12,0.504-1.12,1.12s0.501,1.12,1.12,1.12c10.658,0,10.825,10.029,10.827,10.457   c0,0.162,0.111,0.277,0.174,0.417c0.056,0.122,0.059,0.274,0.152,0.367l0.003,0.004c0.202,0.202,0.482,0.329,0.791,0.329h0.003   c0.115-0.001,0.19-0.09,0.295-0.124c0.344-0.106,0.577-0.339,0.691-0.677c0.037-0.11,0.131-0.19,0.132-0.311   c0.005-0.267,0.192-6.542,9.615-6.542c0.619,0,1.12-0.504,1.12-1.12C254.414,267.796,253.913,267.293,253.293,267.293z"/>
	<path style="fill:#73AF00;" d="M258.802,267.293c4.444,0,7.218,1.251,8.955,2.805c-0.714-3.519-2.198-7.287-5.314-7.287   c-0.619,0-1.12-0.504-1.12-1.12s0.501-1.12,1.12-1.12c3.088,0,5.011,2.152,6.215,4.851c0.739-14.693,3.02-14.748,3.866-14.748   c0.619,0,1.12,0.504,1.12,1.12c0,0.539-0.376,0.985-0.881,1.093c-0.469,0.56-0.869,2.444-1.193,5.056   c1.45-3.078,3.557-5.31,6.649-5.31c0.619,0,1.12,0.504,1.12,1.12s-0.501,1.12-1.12,1.12c-3.059,0-4.937,3.731-6.058,8.215   c2.149-3.065,5.394-5.319,10.165-5.319c0.619,0,1.12,0.504,1.12,1.12s-0.501,1.12-1.12,1.12c-4.956,0-7.799,2.858-9.44,6.162   c1.922-1.627,4.662-2.802,8.6-2.802c0.619,0,1.12,0.504,1.12,1.12s-0.501,1.12-1.12,1.12c-10.66,0-10.826,10.029-10.827,10.457   c-0.001,0.162-0.111,0.277-0.174,0.417c-0.056,0.122-0.059,0.274-0.152,0.367l-0.003,0.004c-0.202,0.202-0.482,0.329-0.791,0.329   h-0.003c-0.115-0.001-0.19-0.09-0.295-0.124c-0.342-0.106-0.577-0.339-0.691-0.677c-0.037-0.11-0.131-0.19-0.132-0.311   c-0.005-0.267-0.192-6.542-9.615-6.542c-0.619,0-1.12-0.504-1.12-1.12C257.681,267.796,258.182,267.293,258.802,267.293z"/>
</g>
<path style="fill:#FF4B55;" d="M238.711,273.034c1.999,7.717,8.948,13.441,17.289,13.441c8.341,0,15.29-5.725,17.289-13.441H238.711  z"/>
<g>
	<path style="fill:#FFE15A;" d="M256,286.476c8.341,0,15.29-5.725,17.289-13.441H256V286.476z"/>
	<path style="fill:#FFE15A;" d="M256,293.476c8.648,0,15.682,7.034,15.682,15.682S264.646,324.84,256,324.84   c-8.648,0-15.682-7.034-15.682-15.682C240.318,300.512,247.354,293.476,256,293.476 M256,291.237   c-9.899,0-17.923,8.024-17.923,17.923s8.024,17.923,17.923,17.923c9.899,0,17.923-8.024,17.923-17.923S265.898,291.237,256,291.237   L256,291.237z"/>
</g>
<g>
	<path style="fill:#73AF00;" d="M253.293,307.898c-4.444,0-7.218,1.251-8.955,2.805c0.714-3.519,2.198-7.287,5.315-7.287   c0.619,0,1.12-0.504,1.12-1.12s-0.501-1.12-1.12-1.12c-3.089,0-5.011,2.152-6.215,4.851c-0.739-14.693-3.02-14.748-3.866-14.748   c-0.619,0-1.12,0.504-1.12,1.12c0,0.539,0.376,0.985,0.882,1.093c0.467,0.56,0.869,2.444,1.192,5.056   c-1.45-3.078-3.555-5.31-6.649-5.31c-0.62,0-1.12,0.504-1.12,1.12c0,0.617,0.501,1.12,1.12,1.12c3.059,0,4.937,3.731,6.057,8.215   c-2.149-3.065-5.394-5.319-10.165-5.319c-0.619,0-1.12,0.504-1.12,1.12c0,0.617,0.501,1.12,1.12,1.12   c4.956,0,7.799,2.858,9.44,6.162c-1.922-1.627-4.662-2.802-8.6-2.802c-0.62,0-1.12,0.504-1.12,1.12s0.501,1.12,1.12,1.12   c10.658,0,10.825,10.029,10.827,10.457c0,0.162,0.111,0.277,0.174,0.416c0.056,0.122,0.059,0.274,0.152,0.367l0.003,0.004   c0.202,0.202,0.482,0.329,0.791,0.329h0.003c0.115-0.001,0.19-0.09,0.295-0.122c0.344-0.106,0.577-0.339,0.691-0.677   c0.037-0.11,0.131-0.189,0.132-0.311c0.005-0.267,0.192-6.542,9.615-6.542c0.619,0,1.12-0.504,1.12-1.12   C254.412,308.4,253.913,307.898,253.293,307.898z"/>
	<path style="fill:#73AF00;" d="M258.802,307.898c4.444,0,7.218,1.251,8.955,2.805c-0.714-3.519-2.198-7.287-5.314-7.287   c-0.619,0-1.12-0.504-1.12-1.12s0.501-1.12,1.12-1.12c3.088,0,5.011,2.152,6.215,4.851c0.739-14.693,3.02-14.748,3.866-14.748   c0.619,0,1.12,0.504,1.12,1.12c0,0.539-0.376,0.985-0.881,1.093c-0.469,0.56-0.869,2.444-1.193,5.056   c1.45-3.078,3.557-5.31,6.649-5.31c0.619,0,1.12,0.504,1.12,1.12c0,0.617-0.501,1.12-1.12,1.12c-3.059,0-4.937,3.731-6.058,8.215   c2.149-3.065,5.394-5.319,10.165-5.319c0.619,0,1.12,0.504,1.12,1.12c0,0.617-0.501,1.12-1.12,1.12   c-4.956,0-7.799,2.858-9.44,6.162c1.922-1.627,4.662-2.802,8.6-2.802c0.619,0,1.12,0.504,1.12,1.12s-0.501,1.12-1.12,1.12   c-10.66,0-10.826,10.029-10.827,10.457c-0.001,0.162-0.111,0.277-0.174,0.416c-0.056,0.122-0.059,0.274-0.152,0.367l-0.003,0.004   c-0.202,0.202-0.482,0.329-0.791,0.329h-0.003c-0.115-0.001-0.19-0.09-0.295-0.122c-0.342-0.106-0.577-0.339-0.691-0.677   c-0.037-0.11-0.131-0.189-0.132-0.311c-0.005-0.267-0.192-6.542-9.615-6.542c-0.619,0-1.12-0.504-1.12-1.12   C257.683,308.4,258.182,307.898,258.802,307.898z"/>
</g>
<path style="fill:#FF4B55;" d="M238.711,313.639c1.999,7.717,8.948,13.441,17.289,13.441c8.341,0,15.29-5.725,17.289-13.441H238.711  z"/>
<path style="fill:#FFE15A;" d="M256,327.081c8.341,0,15.29-5.725,17.289-13.441H256V327.081z"/>
<g>
	<polygon style="fill:#F5F5F5;" points="193.272,235.368 193.272,226.407 170.868,226.407 170.868,235.368 175.349,235.368    175.349,333.941 170.868,333.941 170.868,342.903 175.349,342.903 188.791,342.903 193.272,342.903 193.272,333.941    188.791,333.941 188.791,235.368  "/>
	<polygon style="fill:#F5F5F5;" points="341.132,235.368 341.132,226.407 318.728,226.407 318.728,235.368 323.209,235.368    323.209,333.941 318.728,333.941 318.728,342.903 323.209,342.903 336.65,342.903 341.132,342.903 341.132,333.941 336.65,333.941    336.65,235.368  "/>
</g>
<path style="fill:#FFE15A;" d="M305.286,221.927h-98.573c-4.949,0-8.961-4.013-8.961-8.961l0,0c0-4.949,4.013-8.961,8.961-8.961  h98.573c4.949,0,8.961,4.013,8.961,8.961l0,0C314.248,217.914,310.235,221.927,305.286,221.927z"/>
<path style="fill:#FF4B55;" d="M259.36,216.326h-6.721c-1.856,0-3.36-1.505-3.36-3.36l0,0c0-1.856,1.505-3.36,3.36-3.36h6.721  c1.856,0,3.36,1.505,3.36,3.36l0,0C262.721,214.821,261.216,216.326,259.36,216.326z"/>
<g>
	<path style="fill:#73AF00;" d="M292.965,216.326h-6.721c-1.856,0-3.36-1.505-3.36-3.36l0,0c0-1.856,1.505-3.36,3.36-3.36h6.721   c1.856,0,3.36,1.505,3.36,3.36l0,0C296.325,214.821,294.821,216.326,292.965,216.326z"/>
	<path style="fill:#73AF00;" d="M225.756,216.326h-6.721c-1.856,0-3.36-1.505-3.36-3.36l0,0c0-1.856,1.505-3.36,3.36-3.36h6.721   c1.856,0,3.36,1.505,3.36,3.36l0,0C229.116,214.821,227.611,216.326,225.756,216.326z"/>
</g>
<path style="fill:#FFE15A;" d="M318.916,185.428l-6.534,2.241l0.63,6.233c-7.217,8.2-10.838,8.729-12.329,8.21  c-1.845-0.637-2.696-3.268-3.039-5.285l2.697,2.697c13.441-13.441,5.741-33.185,5.741-33.185c-3.78,0.7-5.461,4.2-5.461,4.2  c-3.5-0.28-7.141,0-7.141,0c-0.28,3.08,0.84,7.42,0.84,7.42c-7.684,1.585-10.847,5.75-10.847,5.75  c1.318,3.69,5.527,6.853,5.527,6.853c-1.26,3.08,0.28,6.721,0.28,6.721c1.923,0,3.587-0.58,4.762-1.148  c-5.019,6.256-7.38,6.406-8.182,6.105c-2.424-0.9-3.039-8.06-2.699-12.858c0.035-0.49-0.256-0.947-0.715-1.125  c-0.455-0.171-0.978-0.031-1.285,0.355l-3.864,4.926c-16.124-21.483-3.375-34.338-3.375-34.338v-8.961h-4.48v4.48h-3.84v-4.48h-3.84  v4.48h-3.84v-4.48h-3.84v4.48h-3.84v-4.48h-3.84v4.48h-3.84v-4.48h-4.48v8.961c0,0,12.749,12.855-3.375,34.338l-3.864-4.926  c-0.306-0.39-0.829-0.534-1.285-0.355c-0.46,0.177-0.75,0.635-0.715,1.125c0.341,4.797-0.271,11.957-2.699,12.858  c-0.804,0.291-3.17,0.147-8.198-6.126c1.178,0.576,2.857,1.171,4.805,1.171c0,0,1.54-3.64,0.28-6.721c0,0,4.209-3.163,5.527-6.853  c0,0-3.163-4.165-10.847-5.75c0,0,1.12-4.34,0.84-7.42c0,0-3.64-0.28-7.141,0c0,0-1.681-3.5-5.461-4.2  c0,0-7.702,19.742,5.741,33.185l2.666-2.666c-0.346,2.013-1.197,4.62-3.034,5.254c-1.5,0.52-5.109-0.009-12.307-8.184l0.632-6.26  l-6.534-2.241c-3.36-10.175-11.388-8.961-11.388-8.961c5.321,4.574,6.441,16.242,6.441,16.242l13.815,13.441l0.747-2.147  c-0.309-1.795-0.79-3.198-1.307-4.336c4.334,4.004,7.853,5.536,10.637,4.56c2.734-0.947,3.894-4.036,4.384-6.368  c3.675,4.541,6.627,6.727,9.093,6.727c0.481,0,0.943-0.084,1.387-0.25c3.523-1.303,4.203-7.519,4.253-11.672l2.426,3.094v8.245  h17.923c0-2.474,2.006-4.48,4.48-4.48c2.474,0,4.48,2.006,4.48,4.48h17.923v-8.245l2.426-3.094  c0.05,4.153,0.731,10.368,4.253,11.672c0.444,0.166,0.906,0.25,1.387,0.25c2.466,0,5.417-2.188,9.093-6.727  c0.49,2.332,1.65,5.421,4.384,6.368c2.798,0.976,6.328-0.565,10.678-4.595c-0.524,1.143-1.011,2.558-1.323,4.373l0.747,2.147  l13.815-13.441c0,0,1.12-11.668,6.441-16.242C330.305,176.467,322.277,175.253,318.916,185.428z"/>
<g>
	<path style="fill:#F5F5F5;" d="M239.198,216.326L239.198,216.326c-1.856,0-3.36-1.505-3.36-3.36l0,0c0-1.856,1.505-3.36,3.36-3.36   l0,0c1.856,0,3.36,1.505,3.36,3.36l0,0C242.559,214.821,241.054,216.326,239.198,216.326z"/>
	<path style="fill:#F5F5F5;" d="M272.803,216.326L272.803,216.326c-1.856,0-3.36-1.505-3.36-3.36l0,0c0-1.856,1.505-3.36,3.36-3.36   l0,0c1.856,0,3.36,1.505,3.36,3.36l0,0C276.163,214.821,274.659,216.326,272.803,216.326z"/>
</g>
<g>
	<path style="fill:#FF4B55;" d="M306.406,216.326L306.406,216.326c-1.856,0-3.36-1.505-3.36-3.36l0,0c0-1.856,1.505-3.36,3.36-3.36   l0,0c1.856,0,3.36,1.505,3.36,3.36l0,0C309.768,214.821,308.263,216.326,306.406,216.326z"/>
	<path style="fill:#FF4B55;" d="M205.594,216.326L205.594,216.326c-1.856,0-3.36-1.505-3.36-3.36l0,0c0-1.856,1.505-3.36,3.36-3.36   l0,0c1.856,0,3.36,1.505,3.36,3.36l0,0C208.954,214.821,207.449,216.326,205.594,216.326z"/>
</g>
<g>
	<circle style="fill:#F5F5F5;" cx="255.991" cy="177.13" r="4.48"/>
	
		<ellipse transform="matrix(-0.9696 0.2447 -0.2447 -0.9696 460.7983 311.7522)" style="fill:#F5F5F5;" cx="211.033" cy="184.5" rx="2.894" ry="3.36"/>
	
		<ellipse transform="matrix(0.9696 0.2447 -0.2447 0.9696 54.2942 -68.0472)" style="fill:#F5F5F5;" cx="301.005" cy="184.485" rx="2.894" ry="3.36"/>
	<path style="fill:#F5F5F5;" d="M202.233,265.273c-4.233-0.801-9.871-1.385-16.061-0.731c-6.062,0.639-13.143,2.523-19.785,7.036   v28.382c9.275-22.415,29.956-18.083,35.845-16.304v-18.383H202.233z"/>
	<path style="fill:#F5F5F5;" d="M309.768,265.273c4.233-0.801,9.871-1.385,16.061-0.731c6.062,0.639,13.143,2.523,19.785,7.036   v28.382c-9.275-22.415-29.956-18.083-35.845-16.304v-18.383H309.768z"/>
</g>
<path style="fill:#FF4B55;" d="M231.553,341.104c0,0-4.827,7.577-7.272,8.31c0,0-3.314,2.413-3.985,2.169l11.624-13.474  L231.553,341.104z"/>
<path style="fill:#73AF00;" d="M231.128,345.478c-2.272-0.244-4.058,1.055-5.194,2.597s-4.196,2.049-4.512,0.046  c-0.285-1.802,6.062-7.433,6.062-7.433s-1.055-1.898-3.954-1.16c-2.757,0.702-5.467,5.137-5.467,5.137s-2.756-1.078-4.97,0.766  l-9.476,10.84c0,0,11.639,9.944,26.457-4.707l-2.516-0.812C228.369,347.67,231.128,345.478,231.128,345.478z"/>
<g>
	<circle style="fill:#F5F5F5;" cx="217.151" cy="348.28" r="1.1"/>
	<path style="fill:#F5F5F5;" d="M170.868,156.55c13.764-0.048,27.42,2.358,40.325,7.129v-14.04   c-12.951-4.465-26.599-6.586-40.325-6.251V156.55z"/>
	<path style="fill:#F5F5F5;" d="M282.884,141.277c-17.671-4.243-36.096-4.243-53.767,0c0-4.48,0-8.961,0-13.441   c17.671-4.243,36.096-4.243,53.767,0C282.884,132.315,282.884,136.795,282.884,141.277z"/>
	<path style="fill:#F5F5F5;" d="M233.597,131.036c-10.962,1.018-21.759,3.585-32.051,7.695c0.645,4.434,1.288,8.869,1.933,13.303   c9.685-3.868,19.822-6.34,30.118-7.473V131.036z"/>
	<path style="fill:#F5F5F5;" d="M166.388,171.894c6.105-1.705,12.319-2.96,18.61-3.652v-13.525   c-6.283,0.584-12.498,1.737-18.61,3.337V171.894z"/>
	<path style="fill:#F5F5F5;" d="M341.132,156.55c-13.764-0.048-27.421,2.358-40.325,7.129v-14.04   c12.95-4.465,26.599-6.586,40.325-6.251V156.55z"/>
	<path style="fill:#F5F5F5;" d="M278.403,131.036c10.962,1.018,21.759,3.585,32.051,7.695c-0.645,4.434-1.288,8.869-1.933,13.303   c-9.685-3.868-19.822-6.34-30.118-7.473L278.403,131.036L278.403,131.036z"/>
	<path style="fill:#F5F5F5;" d="M345.612,171.894c-6.105-1.705-12.319-2.96-18.61-3.652v-13.525   c6.283,0.584,12.498,1.737,18.61,3.337L345.612,171.894L345.612,171.894z"/>
</g>
<g>
</g>
<g>
</g>
<g>
</g>
<g>
</g>
<g>
</g>
<g>
</g>
<g>
</g>
<g>
</g>
<g>
</g>
<g>
</g>
<g>
</g>
<g>
</g>
<g>
</g>
<g>
</g>
<g>
</g>
</svg>
