<?xml version="1.0" encoding="iso-8859-1"?>
<!-- Generator: Adobe Illustrator 19.0.0, SVG Export Plug-In . SVG Version: 6.00 Build 0)  -->
<svg xmlns="http://www.w3.org/2000/svg" xmlns:xlink="http://www.w3.org/1999/xlink" version="1.1" id="Layer_1" x="0px" y="0px" viewBox="0 0 512.004 512.004" style="enable-background:new 0 0 512.004 512.004;" xml:space="preserve">
<path style="fill:#F5F5F5;" d="M482.441,323.91l-0.005-27.164l-0.011-69.24l0,0l-0.003-12.252l-0.005-27.164l-0.008-42.486  c-0.001-11.607-5.715-22.389-15.14-28.946c-0.812-0.565-1.642-1.11-2.509-1.611l-23.711-13.684l-22.198-12.81l-17.87-10.313  l-94.999-54.826l-19.994-11.539l-12.39-7.15c-10.918-6.302-24.37-6.3-35.287,0.006l-12.307,7.108l-19.995,11.548l-94.987,54.864  L81.077,95.547l-22.191,12.818l-11.697,6.756c-0.841,0.486-1.648,1.015-2.439,1.562c-9.465,6.556-15.201,17.365-15.2,29.001  l0.007,42.41l0.005,27.164l0.014,81.491l0.005,27.164l0.007,42.486c0.001,6.381,1.737,12.508,4.859,17.826l0,0l0,0  c0.536,0.912,1.115,1.798,1.731,2.66c0.05,0.069,0.101,0.137,0.151,0.206c1.203,1.658,2.552,3.214,4.036,4.649  c0.131,0.127,0.265,0.252,0.399,0.377c0.735,0.689,1.492,1.357,2.289,1.984l0,0c0.545,0.429,1.102,0.845,1.676,1.243  c0.812,0.565,1.642,1.11,2.509,1.611l10.731,6.193l0,0l12.647,7.298l22.198,12.811l18.204,10.506l94.999,54.826l19.995,11.539  l12.39,7.151c10.918,6.302,24.37,6.299,35.287-0.006l12.307-7.108l19.995-11.548l94.989-54.863l27.325-15.782l22.191-12.818  l14.319-8.27c0.841-0.486,1.648-1.015,2.439-1.562c9.465-6.556,15.201-17.365,15.2-29.001L482.441,323.91z"/>
<g>
	<path style="fill:#41479B;" d="M466.409,116.107c0.284,0.189,0.584,0.359,0.862,0.554c-0.812-0.565-1.642-1.11-2.509-1.611   l-23.711-13.684l-22.198-12.81l-17.87-10.313l-94.999-54.826l-19.995-11.539l-12.39-7.151c-10.918-6.302-24.37-6.3-35.287,0.006   l-12.307,7.108L206.01,23.389l-94.988,54.862L81.077,95.547l-22.191,12.818l-11.697,6.756c-0.841,0.486-1.648,1.015-2.439,1.562   c-9.465,6.556-15.201,17.365-15.2,29.001l0.007,42.41l0.005,27.164l0.014,81.491l0.005,27.164l0.007,42.486   c0,0.766,0.029,1.527,0.077,2.286c0.015,0.224,0.042,0.445,0.061,0.667c0.045,0.536,0.094,1.072,0.164,1.605   c0.032,0.245,0.075,0.486,0.112,0.729c0.079,0.511,0.16,1.022,0.26,1.528c0.046,0.232,0.1,0.461,0.15,0.692   c0.114,0.519,0.234,1.033,0.371,1.545c0.055,0.206,0.115,0.411,0.174,0.617c0.154,0.537,0.319,1.071,0.497,1.598   c0.057,0.172,0.117,0.344,0.179,0.515c0.201,0.565,0.416,1.125,0.646,1.677c0.054,0.13,0.107,0.261,0.162,0.391   c0.259,0.602,0.534,1.198,0.825,1.785c0.037,0.077,0.074,0.155,0.112,0.231c0.335,0.664,0.69,1.318,1.066,1.959l0,0   L466.409,116.107z"/>
	<path style="fill:#41479B;" d="M482.441,323.91l-0.005-27.164l-0.011-69.24L57.967,403.145l12.647,7.298l22.198,12.811   l18.204,10.506l94.999,54.826l19.995,11.539l12.39,7.151c10.918,6.302,24.37,6.3,35.287-0.006l12.307-7.108l19.995-11.548   l94.989-54.863l27.325-15.782l22.191-12.818l14.319-8.27c0.841-0.486,1.648-1.015,2.439-1.562   c9.465-6.556,15.201-17.365,15.2-29.001L482.441,323.91z"/>
</g>
<path style="fill:#FF9B55;" d="M34.446,384.222L34.446,384.222c0.536,0.912,1.115,1.798,1.731,2.661  c0.05,0.069,0.101,0.137,0.151,0.206l0,0c1.202,1.656,2.549,3.209,4.031,4.642c0.001,0.001,0.004,0.004,0.005,0.005  c0.061,0.06,0.125,0.119,0.186,0.177c0.07,0.066,0.14,0.134,0.211,0.2c0.735,0.689,1.492,1.357,2.289,1.984l0,0l0,0L482.414,166.84  l-0.004-21.235c-0.001-11.607-5.715-22.389-15.14-28.946c-0.279-0.194-0.579-0.365-0.862-0.554L34.446,384.222z"/>
<polygon style="fill:#F5F5F5;" points="171.991,201.681 232.256,194.155 171.99,186.63 202.534,167.896 164.53,177.188   187.659,145.634 156.105,168.762 165.396,130.759 146.663,161.303 139.137,101.037 131.611,161.303 112.878,130.759   122.169,168.762 90.616,145.634 113.743,177.188 75.741,167.896 106.284,186.63 46.019,194.155 106.284,201.681 75.741,220.416   113.744,211.123 90.616,242.677 122.169,219.55 112.878,257.552 131.611,227.009 139.137,287.274 146.663,227.009 165.396,257.552   156.105,219.55 187.659,242.677 164.53,211.123 202.534,220.416 "/>
<g>
</g>
<g>
</g>
<g>
</g>
<g>
</g>
<g>
</g>
<g>
</g>
<g>
</g>
<g>
</g>
<g>
</g>
<g>
</g>
<g>
</g>
<g>
</g>
<g>
</g>
<g>
</g>
<g>
</g>
</svg>
