<?xml version="1.0" encoding="iso-8859-1"?>
<!-- Generator: Adobe Illustrator 19.0.0, SVG Export Plug-In . SVG Version: 6.00 Build 0)  -->
<svg xmlns="http://www.w3.org/2000/svg" xmlns:xlink="http://www.w3.org/1999/xlink" version="1.1" id="Layer_1" x="0px" y="0px" viewBox="0 0 512.001 512.001" style="enable-background:new 0 0 512.001 512.001;" xml:space="preserve">
<path style="fill:#FFE15A;" d="M29.589,366.395l-0.036-220.713c-0.003-12.607,6.722-24.257,17.639-30.563L238.315,4.731  c10.917-6.306,24.368-6.307,35.286-0.006L464.762,115.05c10.919,6.302,17.646,17.95,17.649,30.557l0.036,220.713  c0.003,12.607-6.722,24.257-17.639,30.563L273.684,507.269c-10.917,6.306-24.368,6.307-35.287,0.006L47.238,396.951  C36.318,390.649,29.591,379.001,29.589,366.395z"/>
<path style="fill:#FF4B55;" d="M482.445,342.514l-226.444-19.038L29.585,342.514l0.004,23.79v0.091  c0.001,9.455,3.786,18.371,10.285,24.896c2.166,2.176,4.634,4.085,7.364,5.66l191.161,110.325c10.919,6.302,24.371,6.3,35.287-0.006  L464.81,396.88c2.729-1.576,5.196-3.487,7.362-5.662c1.082-1.088,2.089-2.242,3.017-3.454c4.635-6.061,7.26-13.566,7.259-21.445  L482.445,342.514z"/>
<polygon style="fill:#73AF00;" points="482.445,342.514 482.416,169.486 29.556,169.486 29.585,342.514 "/>
<path style="fill:#F5F5F5;" d="M262.632,109.674l34.835,104.45l110.102,0.854c6.717,0.053,9.501,8.624,4.099,12.614l-88.573,65.407  l33.212,104.977c2.026,6.403-5.265,11.702-10.73,7.795L256,341.745l-89.577,64.026c-5.465,3.905-12.755-1.392-10.73-7.795  l33.212-104.977l-88.573-65.407c-5.404-3.99-2.618-12.562,4.099-12.614l110.102-0.854l34.835-104.45  C251.494,103.302,260.506,103.302,262.632,109.674z"/>
<g>
</g>
<g>
</g>
<g>
</g>
<g>
</g>
<g>
</g>
<g>
</g>
<g>
</g>
<g>
</g>
<g>
</g>
<g>
</g>
<g>
</g>
<g>
</g>
<g>
</g>
<g>
</g>
<g>
</g>
</svg>
