<?xml version="1.0" encoding="iso-8859-1"?>
<!-- Generator: Adobe Illustrator 19.0.0, SVG Export Plug-In . SVG Version: 6.00 Build 0)  -->
<svg xmlns="http://www.w3.org/2000/svg" xmlns:xlink="http://www.w3.org/1999/xlink" version="1.1" id="Layer_1" x="0px" y="0px" viewBox="0 0 512.003 512.003" style="enable-background:new 0 0 512.003 512.003;" xml:space="preserve">
<path style="fill:#FF4B55;" d="M482.436,296.747l-0.014-81.491l-0.005-27.164l-0.008-42.486  c-0.001-11.607-5.715-22.388-15.14-28.946c-0.812-0.565-1.642-1.11-2.508-1.611l-23.711-13.684l-22.198-12.81l-17.87-10.313  l-94.999-54.826l-19.993-11.54L273.6,4.725c-10.918-6.301-24.37-6.3-35.287,0.006l-12.307,7.108l-19.995,11.548l-94.987,54.864  L81.077,95.547l-22.191,12.818l-11.697,6.756c-0.841,0.486-1.648,1.015-2.439,1.561c-9.465,6.556-15.201,17.365-15.2,29.001  l0.007,42.41l0.005,27.164l0.014,81.491l0.005,27.164l0.007,42.486c0.003,11.607,5.715,22.388,15.14,28.946  c0.812,0.565,1.642,1.11,2.509,1.61l23.377,13.491l22.198,12.812l18.204,10.506l94.999,54.826l19.995,11.539l12.39,7.151  c10.92,6.302,24.37,6.298,35.287-0.006l12.307-7.108l19.995-11.548l94.989-54.862l27.325-15.782l22.191-12.818l14.319-8.27  c0.841-0.486,1.648-1.015,2.439-1.561c9.465-6.556,15.201-17.365,15.2-29.001l-0.008-42.41L482.436,296.747z"/>
<path style="fill:#41479B;" d="M332.622,38.788l-26.636-15.372l-19.995-11.539L273.6,4.726c-10.918-6.302-24.37-6.3-35.287,0.006  l-12.307,7.108l-19.995,11.548l-26.638,15.386v434.44l26.639,15.373l19.995,11.539l12.39,7.151  c10.92,6.302,24.37,6.298,35.287-0.006l12.307-7.108l19.995-11.548l26.636-15.385L332.622,38.788L332.622,38.788z"/>
<g>
	<path style="fill:#F9CF02;" d="M105.878,229.837c-11.479,0-21.319-6.917-25.655-16.797c-0.003,0.151-0.044,0.29-0.044,0.441   c0,14.194,11.507,25.7,25.699,25.7c14.194,0,25.699-11.507,25.699-25.7c0-0.151-0.042-0.29-0.044-0.44   C127.197,222.92,117.357,229.837,105.878,229.837z"/>
	<circle style="fill:#F9CF02;" cx="105.88" cy="206.471" r="18.691"/>
	<path style="fill:#F9CF02;" d="M94.196,171.428c0,6.452,5.23,11.682,11.682,11.682s11.682-5.23,11.682-11.682   c0-4.672-2.92-5.257-2.92-7.009s1.752-4.089-1.752-7.009c1.752,2.92-1.168,3.504-1.168,6.424s1.168,2.92,1.168,5.257   c0,1.291-1.046,2.337-2.337,2.337s-2.336-1.046-2.336-2.337c0-2.337,2.336-4.672,2.336-8.178c0-3.504-0.584-4.672-2.336-7.593   s-4.672-5.256-2.337-7.593c-3.504,1.168-1.752,5.841-1.752,8.761s-2.337,4.672-2.337,8.178c0,3.504,1.752,4.089,1.752,6.424   c0,1.291-1.046,2.337-2.337,2.337s-2.336-1.046-2.336-2.337c0-2.337,1.168-2.337,1.168-5.257s-2.92-3.504-1.168-6.424   c-3.504,2.92-1.752,5.256-1.752,7.009C97.116,166.172,94.196,166.755,94.196,171.428z"/>
	<path style="fill:#F9CF02;" d="M54.478,245.784v108.287c0,1.066,0.864,1.929,1.928,1.929h19.506c1.066,0,1.929-0.864,1.929-1.929   V245.784c0-1.065-0.864-1.929-1.929-1.929H56.406C55.341,243.854,54.478,244.718,54.478,245.784z"/>
	<path style="fill:#F9CF02;" d="M133.912,245.784v108.287c0,1.066,0.864,1.929,1.929,1.929h19.506c1.066,0,1.929-0.864,1.929-1.929   V245.784c0-1.065-0.864-1.929-1.929-1.929h-19.506C134.777,243.854,133.912,244.718,133.912,245.784z"/>
	<path style="fill:#F9CF02;" d="M82.514,264.474v5.487c0,1.065,0.864,1.929,1.929,1.929h42.868c1.065,0,1.929-0.863,1.929-1.929   v-5.487c0-1.065-0.864-1.929-1.929-1.929h-42.87C83.377,262.545,82.514,263.409,82.514,264.474z"/>
	<path style="fill:#F9CF02;" d="M82.514,329.891v5.487c0,1.066,0.864,1.93,1.929,1.93h42.868c1.065,0,1.929-0.864,1.929-1.93v-5.487   c0-1.065-0.864-1.928-1.929-1.928h-42.87C83.377,327.962,82.514,328.826,82.514,329.891z"/>
	<path style="fill:#F9CF02;" d="M85.995,243.854h39.763c0.978,0,1.335,1.288,0.496,1.792l-18.889,11.333   c-0.916,0.55-2.061,0.55-2.977,0l-18.889-11.333C84.661,245.143,85.017,243.854,85.995,243.854z"/>
	<path style="fill:#F9CF02;" d="M85.995,341.98h39.763c0.978,0,1.335,1.288,0.496,1.792l-18.889,11.333   c-0.916,0.55-2.061,0.55-2.977,0l-18.889-11.333C84.661,343.268,85.017,341.98,85.995,341.98z"/>
	<path style="fill:#F9CF02;" d="M108.159,276.745c-0.737-0.07-1.45-0.222-2.204-0.222c-12.848,0-23.3,10.452-23.3,23.3   c0,7.625,3.725,14.337,9.416,18.572c0.655,0.487,1.52-0.217,1.202-0.97c-0.684-1.617-1.066-3.389-1.066-5.255   c0-7.594,6.191-13.77,13.791-13.747c3.995,0.012,7.825-1.961,9.594-5.543C119.249,285.472,114.785,278.105,108.159,276.745z    M105.954,292.133c-2.573,0-4.66-2.086-4.66-4.66c0-2.573,2.087-4.66,4.66-4.66c2.573,0,4.66,2.087,4.66,4.66   C110.614,290.048,108.528,292.133,105.954,292.133z"/>
	<path style="fill:#F9CF02;" d="M119.837,281.25c-0.655-0.487-1.52,0.217-1.202,0.97c0.684,1.617,1.066,3.389,1.066,5.254   c0,7.595-6.191,13.771-13.791,13.747c-3.996-0.012-7.827,1.961-9.594,5.545c-3.657,7.41,0.807,14.776,7.433,16.136   c0.737,0.07,1.45,0.222,2.204,0.222c12.848,0,23.3-10.452,23.3-23.301C129.255,292.197,125.528,285.485,119.837,281.25z    M105.954,316.833c-2.573,0-4.66-2.087-4.66-4.66s2.087-4.66,4.66-4.66c2.573,0,4.66,2.086,4.66,4.66   C110.614,314.746,108.528,316.833,105.954,316.833z"/>
</g>
<g>
</g>
<g>
</g>
<g>
</g>
<g>
</g>
<g>
</g>
<g>
</g>
<g>
</g>
<g>
</g>
<g>
</g>
<g>
</g>
<g>
</g>
<g>
</g>
<g>
</g>
<g>
</g>
<g>
</g>
</svg>
