<?xml version="1.0" encoding="iso-8859-1"?>
<!-- Generator: Adobe Illustrator 19.0.0, SVG Export Plug-In . SVG Version: 6.00 Build 0)  -->
<svg xmlns="http://www.w3.org/2000/svg" xmlns:xlink="http://www.w3.org/1999/xlink" version="1.1" id="Layer_1" x="0px" y="0px" viewBox="0 0 512.002 512.002" style="enable-background:new 0 0 512.002 512.002;" xml:space="preserve">
<path style="fill:#4173CD;" d="M482.45,366.319l-0.008-42.41l-0.005-27.164l-0.014-81.491l-0.005-27.164l-0.008-42.485  c-0.001-3.105-0.422-6.147-1.202-9.07c-0.42-1.572-0.948-3.107-1.577-4.597c-2.568-6.091-6.814-11.419-12.362-15.28  c-0.812-0.565-1.642-1.11-2.509-1.611l-23.71-13.684l-22.198-12.81l-17.87-10.313L332.645,38.8l0,0l-26.659-15.386l-19.995-11.539  l-12.39-7.151c-10.918-6.301-24.37-6.298-35.287,0.006l-12.307,7.108l-19.995,11.548l-26.659,15.398l0,0L111.026,78.25  L81.079,95.547l-22.191,12.818l-11.697,6.755c-0.841,0.486-1.648,1.015-2.439,1.561c-3.392,2.349-6.296,5.254-8.638,8.538  c-1.572,2.206-2.883,4.585-3.911,7.092c-1.715,4.179-2.652,8.706-2.651,13.371l0.007,42.41l0.005,27.164l0.014,81.478v0.014v0.005  l0.005,27.159l0.007,42.478v0.006c0.003,11.607,5.715,22.388,15.14,28.946c0.812,0.565,1.642,1.11,2.509,1.611l23.377,13.491  l22.198,12.812l18.204,10.506l94.999,54.826l19.995,11.539l12.39,7.151c10.918,6.301,24.37,6.298,35.287-0.006l12.307-7.108  l19.995-11.548l26.659-15.397l0,0l57.588-33.261l10.742-6.205l27.325-15.782l22.191-12.818l14.319-8.27  c0.841-0.486,1.648-1.015,2.439-1.561C476.716,388.765,482.452,377.956,482.45,366.319L482.45,366.319L482.45,366.319z"/>
<path style="fill:#F5F5F5;" d="M256,396.048c-77.173,0-139.962-62.789-139.962-139.962S178.827,116.124,256,116.124  s139.962,62.789,139.962,139.962S333.174,396.048,256,396.048z M256,145.082c-61.21,0-111.005,49.794-111.005,111.005  S194.79,367.092,256,367.092s111.005-49.794,111.005-111.005S317.209,145.082,256,145.082z"/>
<g>
	<path style="fill:#FFDC00;" d="M256,386.396c-71.852,0-130.309-58.458-130.309-130.309S184.149,125.778,256,125.778   s130.309,58.458,130.309,130.309S327.853,386.396,256,386.396z M256,135.429c-66.531,0-120.657,54.126-120.657,120.657   S189.469,376.743,256,376.743s120.657-54.126,120.657-120.657S322.53,135.429,256,135.429z"/>
	<circle style="fill:#FFDC00;" cx="130.511" cy="256.09" r="9.652"/>
	<circle style="fill:#FFDC00;" cx="381.481" cy="256.09" r="9.652"/>
	<circle style="fill:#FFDC00;" cx="255.991" cy="130.6" r="9.652"/>
	<circle style="fill:#FFDC00;" cx="167.271" cy="167.35" r="9.652"/>
	<circle style="fill:#FFDC00;" cx="344.731" cy="167.35" r="9.652"/>
	<circle style="fill:#FFDC00;" cx="371.921" cy="208.07" r="9.652"/>
	<circle style="fill:#FFDC00;" cx="207.981" cy="140.16" r="9.652"/>
	<circle style="fill:#FFDC00;" cx="140.061" cy="208.07" r="9.652"/>
	<circle style="fill:#FFDC00;" cx="304.021" cy="140.16" r="9.652"/>
	<circle style="fill:#FFDC00;" cx="379.071" cy="231.61" r="9.652"/>
	<circle style="fill:#FFDC00;" cx="231.511" cy="133.01" r="9.652"/>
	<circle style="fill:#FFDC00;" cx="151.661" cy="186.37" r="9.652"/>
	<circle style="fill:#FFDC00;" cx="325.711" cy="151.75" r="9.652"/>
	<circle style="fill:#FFDC00;" cx="360.341" cy="186.37" r="9.652"/>
	<circle style="fill:#FFDC00;" cx="186.291" cy="151.75" r="9.652"/>
	<circle style="fill:#FFDC00;" cx="132.931" cy="231.61" r="9.652"/>
	<circle style="fill:#FFDC00;" cx="280.471" cy="133.01" r="9.652"/>
</g>
<path style="fill:#FFA000;" d="M381.483,260.913c-2.668,0-4.826-2.158-4.826-4.826c0-66.531-54.126-120.657-120.657-120.657  s-120.657,54.126-120.657,120.657c0,2.668-2.158,4.826-4.826,4.826c-2.668,0-4.826-2.158-4.826-4.826  c0-71.852,58.458-130.309,130.309-130.309s130.309,58.458,130.309,130.309C386.309,258.754,384.151,260.913,381.483,260.913z"/>
<path style="fill:#B4B4B4;" d="M282.819,400.874h-53.638c-11.462,0-20.399-9.927-19.199-21.327l17.06-162.072h57.915l17.06,162.072  C303.218,390.947,294.281,400.874,282.819,400.874z"/>
<path style="fill:#AAAAAA;" d="M284.683,217.477H227.09c-2.538,0-4.667-1.912-4.942-4.435l-3.598-33.133  c-0.62-5.71,3.853-10.695,9.596-10.695h55.706c5.743,0,10.216,4.985,9.596,10.695l-3.573,32.91  C289.588,215.469,287.35,217.477,284.683,217.477z"/>
<path style="fill:#F5F5F5;" d="M258.236,180.456l17.894,51.477l54.488,1.111c2.243,0.046,3.169,2.897,1.381,4.251l-43.429,32.926  l15.782,52.164c0.65,2.148-1.775,3.909-3.617,2.628l-44.734-31.129l-44.734,31.129c-1.842,1.282-4.266-0.48-3.617-2.628  l15.782-52.164l-43.428-32.926c-1.788-1.356-0.862-4.206,1.381-4.251l54.488-1.111l17.894-51.477  C254.502,178.336,257.498,178.336,258.236,180.456z"/>
<g>
</g>
<g>
</g>
<g>
</g>
<g>
</g>
<g>
</g>
<g>
</g>
<g>
</g>
<g>
</g>
<g>
</g>
<g>
</g>
<g>
</g>
<g>
</g>
<g>
</g>
<g>
</g>
<g>
</g>
</svg>
