<?xml version="1.0" encoding="iso-8859-1"?>
<!-- Generator: Adobe Illustrator 19.0.0, SVG Export Plug-In . SVG Version: 6.00 Build 0)  -->
<svg xmlns="http://www.w3.org/2000/svg" xmlns:xlink="http://www.w3.org/1999/xlink" version="1.1" id="Layer_1" x="0px" y="0px" viewBox="0 0 512.001 512.001" style="enable-background:new 0 0 512.001 512.001;" xml:space="preserve">
<path style="fill:#F5F5F5;" d="M29.588,366.395l-0.036-220.713c-0.003-12.607,6.722-24.257,17.639-30.562L238.314,4.731  c10.917-6.306,24.368-6.307,35.287-0.006L464.762,115.05c10.918,6.302,17.646,17.95,17.649,30.557l0.036,220.713  c0.003,12.607-6.722,24.257-17.639,30.563L273.683,507.269c-10.917,6.306-24.368,6.307-35.287,0.006L47.237,396.951  C36.318,390.649,29.591,379.001,29.588,366.395z"/>
<g>
	<path style="fill:#FF4B55;" d="M41.36,119.34v136.838l19.693,7.319l22.116-7.319V94.337l-35.98,20.782   C45.083,116.336,43.137,117.756,41.36,119.34z"/>
	<polygon style="fill:#FF4B55;" points="96.774,86.481 256,86.481 259.749,53.556 256,19.56 212.639,19.56  "/>
	<path style="fill:#FF4B55;" d="M108.019,108.788l84.039,87.312l56.023,58.205c0.029-0.021,0.057-0.046,0.086-0.067   c0.06-0.054,0.12-0.109,0.182-0.156c0.444-0.337,7.647-6.784,7.648-6.828c0.156-3.671-0.084-10.216-0.049-11.177   c0.003-0.06,0.011-0.116,0.014-0.176L215.18,193.53l-81.565-84.74h-25.597L108.019,108.788L108.019,108.788z"/>
</g>
<path style="fill:#41479B;" d="M482.411,145.607c-0.003-12.607-6.729-24.255-17.649-30.557L273.601,4.726  C268.154,1.583,262.078,0.008,256,0.002V19.56v66.92v20.003H149.818L256,217.832v16.963c0,0.374-0.023,0.737-0.035,1.106l0,0  c-0.001,0.06-0.011,0.117-0.014,0.176c-0.036,0.961-0.104,1.908-0.216,2.829c-0.018,0.142-0.05,0.276-0.069,0.419  c-0.505,3.745-1.61,7.128-3.164,9.859c-0.021,0.039-0.042,0.077-0.065,0.115c-0.796,1.38-1.706,2.589-2.704,3.595  c-0.03,0.03-0.061,0.059-0.091,0.089c-0.411,0.405-0.846,0.764-1.29,1.1c-0.062,0.047-0.122,0.102-0.182,0.156  c-0.029,0.021-0.057,0.046-0.086,0.067l0,0c-1.662,1.198-3.502,1.874-5.444,1.874h-23.207L95.668,126.396v129.783h-5.872h-6.624  H41.36h-7.799H29.57l0.019,110.216c0.003,12.607,6.729,24.255,17.649,30.557l191.161,110.325c10.918,6.302,24.37,6.299,35.286-0.006  l191.125-110.39c10.917-6.305,17.64-17.955,17.639-30.562L482.411,145.607z"/>
<rect x="314.28" y="201.56" style="fill:#82AFFF;" width="132.81" height="102.63"/>
<path style="fill:#C86464;" d="M314.274,304.183c0,35.009,39.24,63.389,66.408,63.389l0,0c24.148,0,66.408-28.381,66.408-63.389  H314.274z"/>
<path style="fill:#73AF00;" d="M398.415,239.033c2.138,0.377,5.786,0.88,6.163,6.037c0.377,5.156-1.51,23.52-3.395,25.783  c0,0,6.163,13.961,6.414,22.261c0.251,8.301-0.88,33.141-0.126,37.102c0.755,3.961,3.584,12.074,3.584,12.074  s-8.679-5.094-12.074-1.887c-3.395,3.207-15.847,7.547-20.753,2.453c0,0,5.848-16.602,5.848-35.468s0-65.464,0-65.464  s2.453-1.949,5.66-2.012C392.944,239.851,398.415,239.033,398.415,239.033z"/>
<g>
	<path style="fill:#FFF5E1;" d="M399.674,338.771c0.377,2.389,1.383,4.15,0.88,5.031c-0.504,0.88-3.773,8.93-1.887,8.93   s5.156-1.006,6.037-2.767c0.881-1.761,1.257-4.403,1.761-5.156c0.504-0.755-0.88-4.527-2.012-5.156   C403.32,339.022,399.674,338.771,399.674,338.771z"/>
	<path style="fill:#FFF5E1;" d="M377.915,244.316l-6.917,0.881c0,0,0.88-4.528,1.006-7.673c0.126-3.144,0.377-8.93,0.377-8.93   s4.905-3.019,5.031-3.522c0.062-0.251,0.645-1.823,0.189-2.641c-0.456-0.817-1.949-0.88-1.949-0.88s-5.786,3.018-5.786,3.522   s0,3.522-0.629,4.654s-4.15,10.565-4.403,13.08c-0.251,2.516-0.629,7.798,0.377,8.05c1.006,0.251,11.446,1.383,12.578,0.88   C378.921,251.233,377.915,244.316,377.915,244.316z"/>
</g>
<polygon style="fill:#464655;" points="409.254,219.475 384.078,219.475 384.078,207.59 375.399,207.59 375.399,219.475   350.224,219.475 350.224,228.154 375.399,228.154 375.399,342.292 384.078,342.292 384.078,228.154 409.254,228.154 "/>
<path style="fill:#963C3C;" d="M394.39,234.882c0,0,8.426,2.427,9.559-0.377c1.321-3.27-3.082-3.71-3.899-7.169  c-0.091-0.387-0.881-5.031-4.276-5.911s-6.539,0-6.666,2.264C388.983,225.953,394.39,234.882,394.39,234.882z"/>
<path style="fill:#FFF5E1;" d="M389.863,245.573c-0.247,0.041-0.629-2.516-0.126-5.66c0.502-3.144,0-4.15,0-4.15  s-3.522,0.377-3.522-1.006s0.755-7.798,2.893-11.068c0,0,1.51,1.887,4.276,1.887c0,0-0.126,2.264,1.383,3.773  c0,0-1.887,1.635-1.006,2.767c0.88,1.132,2.516,2.516,2.516,2.516s0.126,2.641,2.138,4.403  C398.415,239.033,395.9,244.567,389.863,245.573z"/>
<g>
	<rect x="355.4" y="300.15" style="fill:#464655;" width="0.755" height="14.966"/>
	<rect x="358.44" y="297.26" style="fill:#464655;" width="0.755" height="20.762"/>
	<rect x="361.48" y="294.62" style="fill:#464655;" width="0.755" height="26.05"/>
	<rect x="364.51" y="290.83" style="fill:#464655;" width="0.755" height="33.622"/>
	<rect x="367.55" y="285.88" style="fill:#464655;" width="0.755" height="43.516"/>
	<rect x="370.58" y="285.88" style="fill:#464655;" width="0.755" height="45.552"/>
</g>
<path style="fill:#FFE15A;" d="M384.203,309.716c-3.335-17.344-12.578-27.419-15.847-27.921c-3.27-0.502-5.66,2.138-5.911,4.025  s-2.012,7.547-5.66,10.187c-3.648,2.641-10.44,4.15-11.948,9.055c-1.51,4.905,2.516,7.043,4.905,6.539  c0.179-0.038,0.355-0.107,0.534-0.166l25.712,31.628c0.934,1.148,2.752,0.96,3.403-0.37  C382.031,337.293,387.047,324.505,384.203,309.716z M352.433,310.068c1.008-1.082,1.433-2.574,0.327-4.124  c-1.887-2.642-4.025,1.132-4.025,1.132s-0.629-3.27,4.276-4.905s10.44-4.401,12.955-10.313c2.516-5.911,2.389-4.78,2.389-4.78  s10.062,5.66,11.446,23.394s-3.522,24.903-3.522,24.903L352.433,310.068z"/>
<g>
	<path style="fill:#FFF5E1;" d="M375.399,271.772c-1.155,0.739-2.196,1.375-2.924,1.753c-2.358,1.226-5.189,2.453-5.471,3.584   c-0.284,1.132-1.887,2.076-1.792,3.395c0.095,1.321,0,5.282,0,5.282c1.415-0.282,4.245-0.755,5.189-2.453s1.792-5,4.811-6.414   c0.054-0.025,0.132-0.051,0.189-0.076v-5.071H375.399z"/>
	<path style="fill:#FFF5E1;" d="M400.396,247.68c-1.415,0.66-5.66,5.755-6.32,8.113c-0.66,2.358-2.735,7.924-2.735,7.924   s-4.286,0.56-7.263,2.226v8.238c1.65-0.477,3.109-0.948,3.961-1.407c2.452-1.321,5.942-3.773,7.735-4.245   c1.792-0.471,3.302-3.49,3.961-5.282c0.66-1.792,2.735-7.074,3.018-10.66C403.038,249.001,401.812,247.02,400.396,247.68z"/>
</g>
<path style="fill:#F5F5F5;" d="M380.681,369.712l-0.33-0.052c-67.416-10.645-68.191-69.035-68.191-71.513V199.44h137.042v98.707  c0,2.479-0.775,60.868-68.191,71.513L380.681,369.712z M316.388,203.667v94.479c0,2.329,0.73,57.063,64.294,67.286  c63.565-10.223,64.294-64.957,64.294-67.286v-94.479L316.388,203.667L316.388,203.667z"/>
<g>
</g>
<g>
</g>
<g>
</g>
<g>
</g>
<g>
</g>
<g>
</g>
<g>
</g>
<g>
</g>
<g>
</g>
<g>
</g>
<g>
</g>
<g>
</g>
<g>
</g>
<g>
</g>
<g>
</g>
</svg>
