<?xml version="1.0" encoding="iso-8859-1"?>
<!-- Generator: Adobe Illustrator 19.0.0, SVG Export Plug-In . SVG Version: 6.00 Build 0)  -->
<svg xmlns="http://www.w3.org/2000/svg" xmlns:xlink="http://www.w3.org/1999/xlink" version="1.1" id="Layer_1" x="0px" y="0px" viewBox="0 0 512.001 512.001" style="enable-background:new 0 0 512.001 512.001;" xml:space="preserve">
<path style="fill:#F5F5F5;" d="M482.435,296.745l-0.014-81.491l-0.005-27.164l-0.008-42.485  c-0.003-11.607-5.715-22.388-15.14-28.946c-0.812-0.565-1.642-1.11-2.509-1.611l-23.711-13.684l-22.198-12.81l-17.87-10.313  l-94.999-54.826l-19.995-11.539l-12.39-7.151c-10.918-6.301-24.37-6.298-35.287,0.006l-12.307,7.108l-19.993,11.548l-94.987,54.861  L81.076,95.545l-22.191,12.818l-11.697,6.756c-0.841,0.486-1.648,1.015-2.439,1.561c-9.465,6.556-15.202,17.365-15.2,29.001  l0.007,42.41l0.005,27.164l0.014,81.491l0.005,27.164l0.007,42.486c0.003,11.607,5.715,22.388,15.14,28.946  c0.812,0.565,1.642,1.11,2.509,1.611l23.377,13.491l22.198,12.811l18.204,10.506l94.999,54.826l19.995,11.539l12.39,7.151  c10.92,6.301,24.37,6.298,35.287-0.006l12.307-7.108l19.995-11.548l94.989-54.863l27.325-15.782l22.191-12.818l14.319-8.27  c0.841-0.486,1.648-1.015,2.439-1.561c9.465-6.556,15.201-17.365,15.2-29.001l-0.008-42.41L482.435,296.745z"/>
<g>
	<path style="fill:#FF4B55;" d="M273.683,507.269l12.307-7.108l19.995-11.548l94.989-54.863l27.325-15.782l22.191-12.818   l14.319-8.27c0.841-0.486,1.648-1.013,2.439-1.562c9.465-6.556,15.201-17.365,15.2-29.001l-0.008-42.41l-0.005-27.164   l-0.014-81.491l-0.005-27.164l-0.008-42.485c-0.001-11.607-5.715-22.389-15.14-28.946c-0.812-0.565-1.642-1.11-2.509-1.611   l-23.711-13.684L418.85,88.551l-17.87-10.313l-94.999-54.826l-19.995-11.539l-12.39-7.151C268.15,1.58,262.074,0.006,255.995,0   v511.997C262.105,512.005,268.212,510.429,273.683,507.269z"/>
	<path style="fill:#FF4B55;" d="M139.861,115.621v26.75c1.473,0.057,3.117,0.726,4.483,2.092s2.036,3.009,2.092,4.483h26.75v26.659   h-26.75c-0.057,1.473-0.726,3.117-2.092,4.483s-3.009,2.034-4.483,2.092v26.75h-26.659v-26.75   c-1.473-0.057-3.117-0.726-4.483-2.092c-1.366-1.366-2.034-3.009-2.092-4.483h-26.75v-26.659h26.75   c0.057-1.473,0.726-3.117,2.092-4.483c1.366-1.366,3.009-2.034,4.483-2.092v-26.75H139.861 M143.194,112.288h-3.333h-26.659h-3.333   v3.333v24.126c-1.272,0.522-2.466,1.32-3.505,2.359c-1.041,1.041-1.838,2.234-2.361,3.507H79.877h-3.333v3.333v26.659v3.333h3.333   h24.126c0.522,1.273,1.32,2.467,2.361,3.507c1.04,1.04,2.233,1.838,3.505,2.359v24.126v3.333h3.333h26.659h3.333v-3.333v-24.126   c1.272-0.521,2.466-1.32,3.507-2.361c1.04-1.04,1.838-2.233,2.359-3.505h24.126h3.333v-3.333v-26.659v-3.333h-3.333H149.06   c-0.522-1.272-1.32-2.466-2.361-3.507c-1.04-1.04-2.233-1.838-3.507-2.359v-24.126v-3.333   C143.192,112.288,143.194,112.288,143.194,112.288z"/>
</g>
<polygon style="fill:#CDCDCD;" points="173.185,148.944 139.861,148.944 139.861,115.621 113.202,115.621 113.202,148.944   79.877,148.944 79.877,175.604 113.202,175.604 113.202,208.928 139.861,208.928 139.861,175.604 173.185,175.604 "/>
<g>
	<circle style="fill:#B4A08C;" cx="126.529" cy="162.28" r="13.33"/>
	
		<ellipse transform="matrix(-0.7071 -0.7071 0.7071 -0.7071 65.3478 381.3639)" style="fill:#B4A08C;" cx="111.657" cy="177.148" rx="5.927" ry="4.149"/>
	
		<ellipse transform="matrix(0.7071 -0.7071 0.7071 0.7071 -83.8493 151.8857)" style="fill:#B4A08C;" cx="141.418" cy="177.158" rx="5.927" ry="4.149"/>
	
		<ellipse transform="matrix(0.7071 0.7071 -0.7071 0.7071 145.6464 -56.8125)" style="fill:#B4A08C;" cx="141.402" cy="147.404" rx="5.927" ry="4.149"/>
	
		<ellipse transform="matrix(-0.7071 0.7071 -0.7071 -0.7071 294.8271 172.676)" style="fill:#B4A08C;" cx="111.651" cy="147.399" rx="5.927" ry="4.149"/>
	<path style="fill:#B4A08C;" d="M126.532,180.522c-10.062,0-18.248-8.184-18.248-18.248c0-10.062,8.184-18.248,18.248-18.248   c10.062,0,18.248,8.184,18.248,18.248C144.778,172.337,136.594,180.522,126.532,180.522z M126.532,145.694   c-9.141,0-16.58,7.439-16.58,16.58s7.439,16.58,16.58,16.58s16.58-7.439,16.58-16.58S135.673,145.694,126.532,145.694z"/>
</g>
<g>
</g>
<g>
</g>
<g>
</g>
<g>
</g>
<g>
</g>
<g>
</g>
<g>
</g>
<g>
</g>
<g>
</g>
<g>
</g>
<g>
</g>
<g>
</g>
<g>
</g>
<g>
</g>
<g>
</g>
</svg>
