<?xml version="1.0" encoding="iso-8859-1"?>
<!-- Generator: Adobe Illustrator 19.0.0, SVG Export Plug-In . SVG Version: 6.00 Build 0)  -->
<svg xmlns="http://www.w3.org/2000/svg" xmlns:xlink="http://www.w3.org/1999/xlink" version="1.1" id="Layer_1" x="0px" y="0px" viewBox="0 0 512.004 512.004" style="enable-background:new 0 0 512.004 512.004;" xml:space="preserve">
<path style="fill:#FFE15A;" d="M29.59,366.395l-0.036-220.713c-0.002-12.607,6.722-24.257,17.639-30.562L238.316,4.73  c10.917-6.305,24.368-6.307,35.287-0.006l191.161,110.325c10.918,6.302,17.646,17.95,17.649,30.557l0.036,220.713  c0.003,12.607-6.722,24.257-17.639,30.563L273.686,507.27c-10.917,6.306-24.368,6.307-35.287,0.006L47.239,396.952  C36.319,390.65,29.592,379.001,29.59,366.395z"/>
<path style="fill:#FF4B55;" d="M464.766,115.05L273.603,4.725c-10.918-6.302-24.37-6.3-35.287,0.006L47.191,115.119  c-5.111,2.952-9.286,7.084-12.299,11.929L261,149.773l216.115-22.725C474.097,122.173,469.903,118.014,464.766,115.05z"/>
<path style="fill:#41479B;" d="M29.571,256h452.861l-0.019-110.395v-0.001c0-0.815-0.031-1.626-0.086-2.432  c-0.014-0.2-0.042-0.397-0.06-0.597c-0.052-0.611-0.11-1.221-0.195-1.824c-0.026-0.192-0.066-0.381-0.096-0.572  c-0.096-0.614-0.199-1.226-0.326-1.832c-0.033-0.154-0.074-0.306-0.109-0.46c-0.145-0.644-0.301-1.285-0.481-1.917  c-0.031-0.109-0.067-0.215-0.099-0.324c-0.2-0.677-0.416-1.348-0.656-2.011c-0.024-0.065-0.05-0.13-0.074-0.196  c-0.26-0.704-0.539-1.398-0.841-2.081c-0.014-0.03-0.027-0.06-0.04-0.09c-0.32-0.715-0.661-1.42-1.026-2.112  c-0.004-0.007-0.009-0.015-0.013-0.022c-0.374-0.707-0.772-1.402-1.193-2.083l-0.003-0.004H34.892c0,0.001,0,0.001,0,0.001  c-0.425,0.682-0.825,1.378-1.201,2.087c-0.006,0.011-0.012,0.022-0.017,0.032c-0.365,0.689-0.706,1.391-1.026,2.103  c-0.017,0.037-0.035,0.075-0.051,0.112c-0.301,0.679-0.579,1.367-0.837,2.063c-0.027,0.075-0.057,0.15-0.085,0.226  c-0.237,0.654-0.451,1.318-0.651,1.987c-0.035,0.12-0.075,0.237-0.109,0.357c-0.179,0.624-0.334,1.257-0.477,1.893  c-0.037,0.165-0.081,0.327-0.116,0.492c-0.126,0.599-0.229,1.203-0.324,1.81c-0.031,0.201-0.072,0.399-0.1,0.601  c-0.084,0.599-0.14,1.202-0.194,1.807c-0.017,0.209-0.047,0.414-0.062,0.621c-0.055,0.796-0.085,1.597-0.085,2.402  c0,0.012-0.001,0.025-0.001,0.036L29.571,256z"/>
<path style="fill:#73AF00;" d="M474.573,388.521c0.033-0.04,0.066-0.08,0.097-0.12c0.43-0.536,0.844-1.085,1.241-1.643  c0.01-0.014,0.019-0.027,0.029-0.04c0.407-0.576,0.799-1.165,1.171-1.763c0,0,0-0.001,0.001-0.001H34.89  c0.376,0.607,0.77,1.202,1.181,1.786c0.004,0.006,0.009,0.013,0.014,0.019c0.404,0.571,0.825,1.131,1.262,1.68  c0.025,0.03,0.05,0.06,0.075,0.091c0.419,0.521,0.852,1.031,1.301,1.528c0.061,0.067,0.125,0.132,0.186,0.2  c0.42,0.459,0.85,0.909,1.295,1.345c0.115,0.114,0.236,0.221,0.354,0.334c0.404,0.386,0.812,0.767,1.236,1.135  c0.194,0.167,0.396,0.325,0.594,0.489c0.365,0.304,0.729,0.607,1.107,0.897c0.316,0.24,0.644,0.465,0.968,0.696  c0.281,0.2,0.556,0.409,0.846,0.601c0.629,0.419,1.272,0.821,1.932,1.202l119.051,68.707l72.112,41.617  c2.047,1.182,4.184,2.142,6.376,2.88c1.461,0.492,2.947,0.886,4.449,1.181c1.525,0.3,3.065,0.495,4.61,0.592  c2.257,0.141,4.524,0.067,6.769-0.225c4.539-0.592,8.99-2.069,13.084-4.434l191.125-110.389c0.659-0.38,1.298-0.781,1.926-1.2  c0.285-0.19,0.556-0.396,0.835-0.594c0.326-0.232,0.657-0.459,0.973-0.701c0.369-0.281,0.722-0.577,1.077-0.872  c0.206-0.17,0.416-0.335,0.619-0.51c0.41-0.356,0.806-0.725,1.197-1.097c0.129-0.122,0.26-0.24,0.386-0.364  c0.431-0.424,0.85-0.86,1.257-1.303c0.072-0.079,0.146-0.154,0.217-0.232C473.74,389.524,474.163,389.028,474.573,388.521z"/>
<g>
</g>
<g>
</g>
<g>
</g>
<g>
</g>
<g>
</g>
<g>
</g>
<g>
</g>
<g>
</g>
<g>
</g>
<g>
</g>
<g>
</g>
<g>
</g>
<g>
</g>
<g>
</g>
<g>
</g>
</svg>
