<?xml version="1.0" encoding="iso-8859-1"?>
<!-- Generator: Adobe Illustrator 19.0.0, SVG Export Plug-In . SVG Version: 6.00 Build 0)  -->
<svg xmlns="http://www.w3.org/2000/svg" xmlns:xlink="http://www.w3.org/1999/xlink" version="1.1" id="Layer_1" x="0px" y="0px" viewBox="0 0 512 512" style="enable-background:new 0 0 512 512;" xml:space="preserve">
<polygon style="fill:#FF4B55;" points="482.441,321.026 482.436,296.746 482.424,215.255 482.419,190.975 253.5,171.023   29.559,190.975 29.563,215.255 29.577,296.746 29.58,321.026 258.499,340.977 "/>
<path style="fill:#73AF00;" d="M482.441,323.91v-2.884H29.58v2.884l0.007,42.485c0.003,11.607,5.715,22.389,15.14,28.946  c0.812,0.565,1.642,1.11,2.509,1.611l23.377,13.491l22.198,12.811l18.204,10.506l94.999,54.826l19.995,11.539l12.39,7.151  c10.918,6.302,24.37,6.298,35.287-0.006l12.307-7.108l19.995-11.548l94.989-54.862l27.325-15.782l22.191-12.818l14.319-8.27  c0.841-0.486,1.648-1.013,2.439-1.562c9.465-6.556,15.201-17.365,15.2-29.001L482.441,323.91z"/>
<path style="fill:#464655;" d="M482.424,215.255l-0.005-27.164l-0.008-42.486c-0.001-11.607-5.715-22.389-15.14-28.946  c-0.812-0.565-1.642-1.11-2.509-1.611l-23.711-13.684l-22.198-12.81l-17.87-10.313l-94.999-54.826l-19.994-11.54l-12.39-7.15  c-10.918-6.302-24.37-6.3-35.287,0.006l-12.307,7.108l-19.995,11.548L111.024,78.25L81.077,95.546l-22.191,12.818l-11.697,6.756  c-0.841,0.486-1.648,1.015-2.439,1.561c-9.465,6.556-15.201,17.365-15.2,29.001l0.007,42.41v2.884h452.861L482.424,215.255z"/>
<g>
	<path style="fill:#FF4B55;" d="M256,132.795c-34.064,0-63.744,18.484-79.768,45.917h159.536   C319.743,151.278,290.064,132.795,256,132.795z"/>
	<path style="fill:#FF4B55;" d="M261.304,89.159c0-4.607-2.374-8.343-5.305-8.343c-2.929,0-5.305,3.735-5.305,8.343   c0,4.607,5.305,33.368,5.305,33.368S261.304,93.765,261.304,89.159z"/>
	<path style="fill:#FF4B55;" d="M328.372,152.504c0,0,24.088-16.585,27.346-19.843s4.219-7.578,2.148-9.65   c-2.072-2.072-6.392-1.11-9.65,2.148C344.959,128.417,328.372,152.504,328.372,152.504z"/>
	<path style="fill:#FF4B55;" d="M183.627,152.504c0,0-16.587-24.088-19.845-27.346s-7.578-4.22-9.65-2.148s-1.11,6.392,2.148,9.65   C159.538,135.919,183.627,152.504,183.627,152.504z"/>
	<path style="fill:#FF4B55;" d="M216.832,130.318c0,0-6.106-28.601-7.869-32.859c-1.763-4.256-5.386-6.798-8.093-5.677   c-2.707,1.121-3.472,5.481-1.708,9.737S216.832,130.318,216.832,130.318z"/>
	<path style="fill:#FF4B55;" d="M312.838,101.52c1.763-4.256,0.998-8.616-1.708-9.737c-2.707-1.121-6.331,1.421-8.093,5.677   c-1.763,4.256-7.869,32.859-7.869,32.859S311.075,105.776,312.838,101.52z"/>
	<path style="fill:#FF4B55;" d="M235.655,124.57c0,0-0.519-29.241-1.435-33.757c-0.916-4.515-3.985-7.704-6.857-7.122   s-4.456,4.715-3.54,9.23C224.739,97.437,235.655,124.57,235.655,124.57z"/>
	<path style="fill:#FF4B55;" d="M335.398,114.68c2.546-3.84,2.629-8.265,0.186-9.884c-2.442-1.618-6.484,0.182-9.03,4.023   c-2.546,3.84-14.012,30.745-14.012,30.745S332.852,118.52,335.398,114.68z"/>
	<path style="fill:#FF4B55;" d="M139.94,154.323c3.84,2.546,30.745,14.012,30.745,14.012s-21.043-20.311-24.883-22.856   c-3.84-2.546-8.265-2.629-9.884-0.186C134.299,147.734,136.1,151.778,139.94,154.323z"/>
	<path style="fill:#FF4B55;" d="M198.818,139.99c0,0-11.669-26.818-14.244-30.638c-2.574-3.821-6.631-5.592-9.06-3.955   s-2.313,6.061,0.261,9.882C178.35,119.101,198.818,139.99,198.818,139.99z"/>
	<path style="fill:#FF4B55;" d="M340.886,167.695c0,0,26.818-11.669,30.638-14.242c3.821-2.574,5.592-6.631,3.955-9.06   c-1.637-2.431-6.061-2.313-9.882,0.261C361.777,147.227,340.886,167.695,340.886,167.695z"/>
	<path style="fill:#FF4B55;" d="M283.573,83.481c-2.875-0.561-5.921,2.651-6.803,7.173c-0.882,4.521-1.18,33.767-1.18,33.767   s10.712-27.214,11.593-31.736C288.065,88.162,286.449,84.041,283.573,83.481z"/>
	<path style="fill:#FF4B55;" d="M300.496,96.551c1.338-4.409,0.15-8.673-2.653-9.524c-2.803-0.851-6.161,2.033-7.499,6.442   c-1.338,4.409-4.616,33.471-4.616,33.471S299.158,100.96,300.496,96.551z"/>
	<path style="fill:#FF4B55;" d="M207.769,134.604c0,0-8.875-27.867-11.046-31.931c-2.171-4.064-6.026-6.238-8.61-4.857   s-2.919,5.793-0.747,9.857C189.537,111.736,207.769,134.604,207.769,134.604z"/>
	<path style="fill:#FF4B55;" d="M346.274,176.647c0,0,27.867-8.875,31.931-11.046s6.238-6.026,4.859-8.61   c-1.381-2.584-5.795-2.919-9.857-0.747C369.141,158.414,346.274,176.647,346.274,176.647z"/>
	<path style="fill:#FF4B55;" d="M346.217,123.347c2.923-3.56,3.458-7.954,1.193-9.814s-6.469-0.479-9.394,3.082   c-2.923,3.56-17.073,29.156-17.073,29.156S343.294,126.908,346.217,123.347z"/>
	<path style="fill:#FF4B55;" d="M147.737,142.86c3.562,2.923,29.156,17.073,29.156,17.073s-18.864-22.35-22.424-25.273   c-3.562-2.923-7.954-3.458-9.814-1.193C142.797,135.73,144.176,139.937,147.737,142.86z"/>
	<path style="fill:#FF4B55;" d="M245.986,123.019c0,0,2.466-29.142,2.014-33.727c-0.451-4.585-3.179-8.07-6.096-7.783   c-2.915,0.286-4.914,4.236-4.463,8.821C237.893,94.914,245.986,123.019,245.986,123.019z"/>
	<path style="fill:#FF4B55;" d="M274.769,90.358c0.459-4.584-1.535-8.536-4.449-8.828c-2.915-0.291-5.65,3.189-6.107,7.773   c-0.459,4.584,1.962,33.731,1.962,33.731S274.311,94.943,274.769,90.358z"/>
	<path style="fill:#FF4B55;" d="M191.18,145.67c0,0-14.11-25.618-17.028-29.183s-7.122-4.951-9.389-3.097   c-2.267,1.856-1.74,6.25,1.177,9.815C168.86,126.771,191.18,145.67,191.18,145.67z"/>
	<path style="fill:#FF4B55;" d="M335.208,160.057c0,0,25.618-14.11,29.183-17.028s4.951-7.122,3.097-9.389   c-1.856-2.267-6.25-1.74-9.816,1.177C354.107,137.737,335.208,160.057,335.208,160.057z"/>
	<path style="fill:#FF4B55;" d="M324.818,107.78c2.177-4.06,1.85-8.474-0.732-9.859s-6.441,0.784-8.618,4.844   c-2.177,4.06-11.096,31.914-11.096,31.914S322.641,111.84,324.818,107.78z"/>
	<path style="fill:#FF4B55;" d="M133.888,165.408c4.06,2.177,31.914,11.096,31.914,11.096s-22.839-18.268-26.899-20.446   s-8.474-1.85-9.859,0.732C127.66,159.372,129.828,163.231,133.888,165.408z"/>
	<path style="fill:#FF4B55;" d="M226.425,126.893c0,0-3.233-29.067-4.564-33.477c-1.331-4.411-4.684-7.299-7.489-6.453   c-2.804,0.846-3.999,5.109-2.668,9.52C213.036,100.892,226.425,126.893,226.425,126.893z"/>
</g>
<g>
</g>
<g>
</g>
<g>
</g>
<g>
</g>
<g>
</g>
<g>
</g>
<g>
</g>
<g>
</g>
<g>
</g>
<g>
</g>
<g>
</g>
<g>
</g>
<g>
</g>
<g>
</g>
<g>
</g>
</svg>
