<?xml version="1.0" encoding="iso-8859-1"?>
<!-- Generator: Adobe Illustrator 19.0.0, SVG Export Plug-In . SVG Version: 6.00 Build 0)  -->
<svg xmlns="http://www.w3.org/2000/svg" xmlns:xlink="http://www.w3.org/1999/xlink" version="1.1" id="Layer_1" x="0px" y="0px" viewBox="0 0 512 512" style="enable-background:new 0 0 512 512;" xml:space="preserve">
<path style="fill:#73AF00;" d="M47.19,115.119c-10.917,6.305-17.64,17.955-17.639,30.562l0.036,220.713  c0.003,12.606,6.73,24.254,17.649,30.556l112.123,64.71V50.332L47.19,115.119z"/>
<path style="fill:#F5F5F5;" d="M238.315,4.73L159.36,50.332V461.66l79.038,45.616c10.918,6.302,24.37,6.298,35.287-0.006  l78.955-45.603V50.34L273.602,4.725C262.683-1.577,249.232-1.575,238.315,4.73z"/>
<path style="fill:#FF4B55;" d="M464.811,396.881c10.917-6.305,17.64-17.955,17.639-30.563l-0.036-220.713  c-0.003-12.607-6.729-24.255-17.649-30.557L352.641,50.34v411.327L464.811,396.881z"/>
<polygon style="fill:#FFD250;" points="273.243,264.943 256,273.564 256,282.187 264.622,282.187 "/>
<g>
	<path style="fill:#00C3A0;" d="M256,303.739c-2.383,0-4.311-1.928-4.311-4.31v-17.243c0-2.383,1.928-4.311,4.311-4.311   c2.383,0,4.31,1.928,4.31,4.311v17.243C260.312,301.811,258.383,303.739,256,303.739z"/>
	<path style="fill:#00C3A0;" d="M256,286.497c-16.932,0-33.282-6.533-46.041-18.396c-1.743-1.621-1.843-4.349-0.222-6.091   c1.633-1.738,4.358-1.831,6.092-0.224c11.159,10.377,25.427,16.089,40.173,16.089c14.746,0,29.013-5.712,40.173-16.089   c1.738-1.612,4.463-1.523,6.091,0.224c1.621,1.743,1.52,4.47-0.222,6.091C289.282,279.963,272.932,286.497,256,286.497z"/>
</g>
<path style="fill:#00AADC;" d="M256,303.739c-11.051,0-21.755-3.229-30.958-9.341l4.774-7.182c15.559,10.338,36.81,10.338,52.368,0  l4.774,7.182C277.757,300.51,267.051,303.739,256,303.739z"/>
<polygon style="fill:#732D37;" points="249.175,245.544 239.656,260.273 238.039,265.122 262.826,259.375 "/>
<path style="fill:#AAD264;" d="M229.619,269.86c-11.396,0-25.073-9.59-28.702-30.958l8.504-1.44  c3.014,17.769,13.947,23.788,20.509,23.772c2.012-0.055,4.113-0.75,4.278-2.172c0.194-1.701,0.24-2.104-4.269-3.629  c-2.451-0.83-5.229-1.768-7.178-3.999c-7.885-9.005,2.79-18.535,7.919-23.115c0.905-0.809,1.28-1.495,1.183-1.756  c-0.282-0.737-1.974-1.852-3.881-1.852c-5.477,0-9.632-3.094-10.84-8.07c-1.255-5.152,1.116-10.583,5.628-12.915l3.958,7.662  c-1.057,0.547-1.477,2.104-1.208,3.217c0.105,0.446,0.362,1.486,2.463,1.486c5.279,0,10.301,3.115,11.934,7.4  c0.699,1.827,1.751,6.576-3.494,11.261c-5.662,5.056-9.051,8.861-7.173,11.004c0.425,0.484,2.248,1.103,3.452,1.507  c3.881,1.313,11.106,3.755,10.07,12.785c-0.649,5.678-5.717,9.619-12.604,9.805C229.985,269.856,229.8,269.86,229.619,269.86z"/>
<path style="fill:#874150;" d="M264.622,221.836c0,0,8.621-17.243-8.621-25.864c0,0,60.35-8.621,51.728,68.972l-0.004-0.004  c-5.658-4.526-14.059-12.799-17.059-19.395l-26.044-15.088V221.836L264.622,221.836z"/>
<path style="fill:#732D37;" d="M256,239.078l43.107,25.864c0,0,0,0-17.243,8.621L256,247.7V239.078L256,239.078z"/>
<path style="fill:#783C46;" d="M238.758,213.214L238.758,213.214c4.761,0,8.621,3.86,8.621,8.621l-0.009,0.009  c-5.144,5.144-6.418,13-3.165,19.506l1.948,3.896c0.812,1.625,1.881,3.108,3.165,4.391l23.925,23.926v-11.915  c0-14.843-3.457-29.483-10.094-42.76l0,0c-4.381-8.763-13.338-14.297-23.134-14.297h-1.258L238.758,213.214L238.758,213.214z"/>
<path style="fill:#FFD250;" d="M238.758,204.593l-8.621,8.621v8.621c0,0,10.256-5.2,13.712-6.856  c2.416-1.157,1.976-3.895,0.59-5.214C243.359,208.74,238.758,204.593,238.758,204.593z"/>
<path style="fill:#AAD264;" d="M256,320.982c-40.409,0-73.282-32.874-73.282-73.282h8.621c0,35.656,29.005,64.661,64.661,64.661  s64.661-29.005,64.661-64.661h8.621C329.283,288.109,296.409,320.982,256,320.982z"/>
<g>
	<circle style="fill:#FFE15A;" cx="191.8" cy="273.29" r="5.851"/>
	<circle style="fill:#FFE15A;" cx="204.73" cy="293.93" r="5.851"/>
	<circle style="fill:#FFE15A;" cx="225.75" cy="309.56" r="5.851"/>
	<circle style="fill:#FFE15A;" cx="320.81" cy="273.29" r="5.851"/>
	<circle style="fill:#FFE15A;" cx="307.88" cy="293.93" r="5.851"/>
	<circle style="fill:#FFE15A;" cx="286.86" cy="309.56" r="5.851"/>
</g>
<path style="fill:#FFB478;" d="M260.312,308.051h-8.621c-4.761,0-8.621-3.86-8.621-8.621l0,0c0-4.761,3.86-8.621,8.621-8.621h8.621  c4.761,0,8.621,3.86,8.621,8.621l0,0C268.933,304.191,265.073,308.051,260.312,308.051z"/>
<path style="fill:#9B4B5A;" d="M290.666,245.544c2.874,8.441,8.98,16.166,17.059,19.395l0.004,0.004  C316.35,187.349,256,195.97,256,195.97C299.109,195.971,290.666,245.544,290.666,245.544z"/>
<g>
</g>
<g>
</g>
<g>
</g>
<g>
</g>
<g>
</g>
<g>
</g>
<g>
</g>
<g>
</g>
<g>
</g>
<g>
</g>
<g>
</g>
<g>
</g>
<g>
</g>
<g>
</g>
<g>
</g>
</svg>
