<?xml version="1.0" encoding="iso-8859-1"?>
<!-- Generator: Adobe Illustrator 19.0.0, SVG Export Plug-In . SVG Version: 6.00 Build 0)  -->
<svg xmlns="http://www.w3.org/2000/svg" xmlns:xlink="http://www.w3.org/1999/xlink" version="1.1" id="Layer_1" x="0px" y="0px" viewBox="0 0 511.997 511.997" style="enable-background:new 0 0 511.997 511.997;" xml:space="preserve">
<path style="fill:#F5F5F5;" d="M481.76,330.457l-0.006-36.842l-0.006-36.844l-0.006-36.842l-0.006-36.842l-0.006-36.376  c0-0.157-0.014-0.31-0.016-0.467c-0.167-12.388-6.829-23.793-17.58-29.997l-11.861-6.845L388.435,72.56L325.77,36.394l-1.172-0.677  L273.547,6.252c-10.885-6.283-24.296-6.281-35.18,0.006l-50.999,29.455l-63.79,36.842l-63.79,36.842l-11.972,6.915  c-10.727,6.196-17.379,17.57-17.567,29.929c-0.002,0.181-0.017,0.36-0.017,0.542l0.006,36.302l0.006,36.842l0.006,36.842  l0.006,36.844l0.006,36.842l0.006,36.376c0,0.157,0.014,0.31,0.015,0.467c0.167,12.388,6.829,23.793,17.58,29.997l11.861,6.845  l63.838,36.842l63.838,36.842l51.049,29.462c10.885,6.283,24.296,6.281,35.18-0.006l50.999-29.455l63.79-36.842l63.79-36.842  l11.972-6.915c10.727-6.196,17.379-17.57,17.567-29.929c0.003-0.181,0.017-0.36,0.017-0.542L481.76,330.457z"/>
<g>
	<polygon style="fill:#FF4B55;" points="325.769,109.399 452.272,109.399 388.434,72.557 325.769,72.557 317.048,93.553  "/>
	<path style="fill:#FF4B55;" d="M325.769,183.085h155.966l-0.006-36.376c0-0.157-0.014-0.31-0.016-0.467H325.769l-9.967,18.326   L325.769,183.085z"/>
	<polygon style="fill:#FF4B55;" points="325.769,256.771 481.747,256.771 481.741,219.927 325.769,219.927 317.048,240.568  "/>
	<polygon style="fill:#FF4B55;" points="30.257,293.613 30.263,330.457 481.76,330.457 481.754,293.613 325.769,293.613    172.524,284.174  "/>
	<path style="fill:#FF4B55;" d="M47.865,397.296l11.861,6.845h392.483l11.972-6.915c10.727-6.196,17.379-17.57,17.567-29.929H30.284   C30.451,379.687,37.114,391.092,47.865,397.296z"/>
	<polygon style="fill:#FF4B55;" points="187.401,477.827 324.63,477.827 388.419,440.985 123.564,440.985  "/>
</g>
<path style="fill:#41479B;" d="M324.597,35.713L268.564,3.376c-7.802-4.503-17.413-4.501-25.213,0.004l-55.983,32.333l-63.79,36.842  l-63.79,36.842l-11.972,6.915c-10.727,6.196-17.379,17.57-17.567,29.929c-0.002,0.181-0.017,0.36-0.017,0.542l0.006,36.302  l0.006,36.842l0.006,36.842l0.006,36.844h295.512V256.77v-36.842v-36.842v-36.842V109.4V72.557V36.391L324.597,35.713z"/>
<g>
	<path style="fill:#FFE15A;" d="M112.02,175.501c0-35.036,28.438-63.456,63.44-63.456c8.807,0,17.181,1.804,24.808,5.052   c0.99,0.422,1.736-0.957,0.846-1.562c-12.62-8.59-28.051-13.296-44.604-12.437c-36.391,1.891-66.148,31.203-68.5,67.569   c-2.736,42.298,30.735,77.338,72.363,77.338c15.043,0,29.028-4.636,40.641-12.494c0.895-0.605,0.153-1.986-0.841-1.565   c-7.601,3.223-15.942,5.011-24.712,5.011C140.457,238.958,112.02,210.538,112.02,175.501"/>
	<path style="fill:#FFE15A;" d="M257.043,175.501l26.82-10.378c1.327-0.513,0.875-2.493-0.543-2.38l-28.656,2.295l19.693-21.051   c0.971-1.038-0.294-2.624-1.522-1.907l-24.888,14.52l8.59-27.468c0.424-1.357-1.404-2.236-2.199-1.058l-16.112,23.869   l-4.134-28.489c-0.204-1.408-2.235-1.409-2.441-0.001l-2.64,18.026l-1.095,7.629l-0.422,2.836l-16.112-23.848   c-0.796-1.179-2.625-0.297-2.198,1.06l8.623,27.446l-24.887-14.52c-1.227-0.716-2.493,0.87-1.522,1.907l19.691,21.051   l-28.663-2.295c-1.418-0.113-1.87,1.866-0.543,2.38l26.844,10.377l-26.845,10.38c-1.327,0.513-0.875,2.493,0.543,2.38l28.664-2.295   l-19.693,21.104c-0.969,1.039,0.298,2.624,1.525,1.905l24.885-14.571l-8.623,27.446c-0.426,1.357,1.403,2.239,2.198,1.06   l16.112-23.848l0.422,2.903l1.095,7.561l2.64,18.074c0.206,1.408,2.236,1.407,2.441-0.001l4.134-28.536l16.112,23.869   c0.795,1.177,2.624,0.298,2.199-1.058l-8.59-27.468l24.887,14.571c1.227,0.718,2.494-0.866,1.525-1.906l-19.694-21.104   l28.657,2.295c1.418,0.113,1.87-1.866,0.543-2.38L257.043,175.501z"/>
</g>
<g>
</g>
<g>
</g>
<g>
</g>
<g>
</g>
<g>
</g>
<g>
</g>
<g>
</g>
<g>
</g>
<g>
</g>
<g>
</g>
<g>
</g>
<g>
</g>
<g>
</g>
<g>
</g>
<g>
</g>
</svg>
