<?xml version="1.0" encoding="iso-8859-1"?>
<!-- Generator: Adobe Illustrator 19.0.0, SVG Export Plug-In . SVG Version: 6.00 Build 0)  -->
<svg xmlns="http://www.w3.org/2000/svg" xmlns:xlink="http://www.w3.org/1999/xlink" version="1.1" id="Layer_1" x="0px" y="0px" viewBox="0 0 512.003 512.003" style="enable-background:new 0 0 512.003 512.003;" xml:space="preserve">
<path style="fill:#F5F5F5;" d="M482.447,357.546l-0.001-9.023l-0.001-8.143v-4.338l0,0l-0.003-12.133l-0.005-27.164l-0.014-81.491  l-0.005-27.164l-0.003-17.212v-1.106v-3.147l-0.004-21.022c-0.001-11.607-5.715-22.389-15.14-28.946  c-0.812-0.565-1.642-1.11-2.509-1.611l-23.711-13.684l-22.198-12.81l-17.87-10.313l-94.999-54.826l-19.993-11.538l-12.39-7.15  c-10.918-6.302-24.37-6.3-35.287,0.006l-12.307,7.108l-19.995,11.548L111.025,78.25L81.078,95.546l-22.191,12.818L47.19,115.12  c-0.841,0.486-1.648,1.015-2.439,1.561c-9.465,6.556-15.201,17.365-15.2,29.001l0.001,8.774l0.003,15.318v2.797l0.002,15.52  l0.005,27.164l0.014,81.491l0.005,27.164l0.003,17.212v1.106v3.147l0.004,21.022c0.003,11.607,5.715,22.389,15.14,28.946  c0.812,0.565,1.642,1.11,2.509,1.611l23.377,13.491l22.198,12.812l18.204,10.506l94.999,54.826l19.995,11.539l12.39,7.151  c10.918,6.302,24.37,6.298,35.287-0.006l12.307-7.108l19.995-11.548l94.989-54.862l27.325-15.782l22.191-12.818l14.319-8.27  c0.841-0.486,1.648-1.013,2.439-1.562c9.465-6.556,15.201-17.365,15.2-29.001L482.447,357.546z"/>
<path style="fill:#5AA587;" d="M142.167,154.455h340.247l-0.001-8.85c-0.001-11.607-5.715-22.389-15.14-28.946  c-0.812-0.565-1.642-1.11-2.509-1.611l-23.711-13.684l-22.198-12.81l-17.87-10.313l-94.999-54.826l-19.995-11.54l-12.39-7.15  c-10.918-6.302-24.37-6.3-35.287,0.006l-12.307,7.108l-19.995,11.548L111.025,78.25l-17.303,9.994l17.318,40.291L142.167,154.455z"/>
<path style="fill:#FFE15A;" d="M482.447,357.546h-340.28l-31.126,24.671l-17.33,41.556l17.305,9.987l94.999,54.826l19.995,11.539  l12.39,7.151c10.918,6.302,24.37,6.298,35.287-0.006l12.307-7.108l19.995-11.548l94.989-54.862l27.325-15.782l22.191-12.818  l14.319-8.27c0.841-0.486,1.648-1.013,2.439-1.562c9.465-6.556,15.201-17.365,15.2-29.001L482.447,357.546z"/>
<polygon style="fill:#464655;" points="157.9,175.958 157.9,336.043 482.445,336.043 482.442,323.91 482.437,296.746   482.425,215.255 482.42,188.091 482.417,175.958 "/>
<path style="fill:#FF4B55;" d="M142.167,357.546l11.208-15.318l4.525-6.185l53.402-72.986c2.639-3.607,2.639-10.506,0-14.112  L157.9,175.959l-4.525-6.185l-11.208-15.318L93.723,88.243l-12.644,7.303l-22.191,12.818l-11.697,6.756  c-0.841,0.486-1.648,1.015-2.439,1.561c-9.465,6.556-15.201,17.365-15.2,29.001l0.001,8.774l0.003,15.318l0.001,6.185l0.003,12.133  l0.005,27.164l0.014,81.491l0.005,27.164l0.003,12.133v2.011v3.068v1.106v3.147v0.506l0.003,11.666l0.001,8.85  c0.003,11.607,5.715,22.389,15.14,28.946c0.812,0.565,1.642,1.11,2.509,1.611l23.377,13.491l22.198,12.812l0.899,0.519  L142.167,357.546z"/>
<path style="fill:#FFE15A;" d="M105.411,202.531l11.849,35.529l37.451,0.29c2.094,0.016,2.963,2.689,1.278,3.933l-30.128,22.247  l11.297,35.708c0.632,1.997-1.642,3.649-3.345,2.431l-30.469-21.779l-30.469,21.779c-1.703,1.218-3.978-0.434-3.345-2.431  l11.297-35.708l-30.128-22.248c-1.685-1.245-0.816-3.916,1.278-3.933l37.451-0.29l11.849-35.529  C101.938,200.544,104.747,200.544,105.411,202.531z"/>
<g>
	<path style="fill:#F5F5F5;" d="M101.17,268.52l-2.929,2.948H73.747l6.686-24.531l2.732-1.366l-4.385,21.872   c-0.036,0.27,0.017,0.54,0.197,0.755c0.161,0.216,0.414,0.324,0.682,0.324h21.512L101.17,268.52L101.17,268.52z"/>
	<path style="fill:#F5F5F5;" d="M107.048,272.599c-1.061,0.791-2.354,1.24-3.703,1.24c-1.348,0-2.642-0.449-3.703-1.24l3.703-3.701   L107.048,272.599z"/>
	<path style="fill:#F5F5F5;" d="M132.944,271.467h-24.496l-2.929-2.948h21.512c0.27,0,0.521-0.107,0.682-0.324   c0.18-0.216,0.234-0.485,0.197-0.755l-4.385-21.872l2.732,1.366L132.944,271.467z"/>
	<path style="fill:#F5F5F5;" d="M125.935,266.723h-21.692v-22.374c3.63-3.073,13.209-0.971,17.27,0.287L125.935,266.723z"/>
	<path style="fill:#F5F5F5;" d="M102.446,244.348v22.374H80.755l4.421-22.086C89.237,243.378,98.816,241.275,102.446,244.348z"/>
</g>
<g>
	<path style="fill:#464655;" d="M134.992,272.132l-7.098-26.059c-0.072-0.234-0.234-0.449-0.467-0.557l-4.745-2.372   c-0.017-0.018-0.036-0.018-0.072-0.018c-0.017,0-0.017-0.018-0.036-0.036c-0.575-0.197-13.713-4.475-19.23-0.287   c-5.517-4.188-18.655,0.09-19.23,0.287c-0.017,0.018-0.017,0.018-0.036,0.036c-0.036,0-0.054,0-0.072,0.018l-4.745,2.372   c-0.234,0.107-0.395,0.324-0.467,0.557l-7.099,26.059c-0.071,0.27-0.017,0.557,0.144,0.772c0.18,0.216,0.45,0.36,0.719,0.36h25.159   c1.492,1.491,3.504,2.372,5.625,2.372s4.134-0.881,5.625-2.372h25.159c0.27,0,0.539-0.144,0.719-0.36   C135.011,272.689,135.065,272.402,134.992,272.132z M104.243,244.348c3.63-3.073,13.209-0.971,17.27,0.287l4.421,22.086h-21.692   v-22.373H104.243z M85.176,244.635c4.061-1.258,13.64-3.36,17.27-0.287v22.374H80.755L85.176,244.635z M73.747,271.467   l6.686-24.531l2.732-1.366l-4.385,21.872c-0.036,0.27,0.017,0.54,0.197,0.755c0.161,0.216,0.414,0.324,0.682,0.324h21.512   l-2.929,2.948H73.747V271.467z M103.345,273.84c-1.348,0-2.642-0.449-3.703-1.24l3.703-3.702l3.703,3.702   C105.987,273.39,104.693,273.84,103.345,273.84z M108.448,271.467l-2.929-2.948h21.512c0.27,0,0.521-0.107,0.682-0.324   c0.18-0.216,0.234-0.485,0.197-0.755l-4.385-21.872l2.732,1.366l6.686,24.531h-24.495V271.467z"/>
	<path style="fill:#464655;" d="M125.812,220.877c-0.916,0.639-2.158,0.529-2.948-0.261l-1.196-1.196v2.925l-7.314,7.316h-2.925   l-11.704,11.703H96.8l-22.504,22.504c-0.554,0.554-0.747,1.373-0.5,2.117l1.058,3.175l-4.389,4.389H67.54l-8.946,8.946   c-0.715,0.715-0.715,1.873,0,2.588l5.903,5.903c0.852,0.852,2.249,0.799,3.034-0.116l13.175-15.859l1.463-4.389l2.925-2.925   l5.852,8.778l4.389-4.389l-4.681-7.022l1.166-1.166c1.133-1.133,1.133-2.972,0-4.105l-0.874-0.874l0.822-0.822   c6.243,5.351,13.742,6.734,20.882,3.674l-2.444-5.705c-5.898,2.528-10.715,0.414-14.066-2.341l12.363-12.363l-0.487-2.438   l3.414-3.414h2.925l21.944-21.944L125.812,220.877z"/>
	<path style="fill:#464655;" d="M82.169,217.956l-2.925,2.925c-0.809,0.807-0.809,2.118,0,2.925l0.487,0.487l-4.876,0.976   l-13.166,13.166l7.316,7.316l13.166-13.166l0.975-4.877l1.951,1.951l1.463-1.463l48.663,48.663l2.925-2.925l-48.663-48.663   l1.463-1.463l-5.852-5.852C84.286,217.149,82.977,217.149,82.169,217.956z"/>
</g>
<g>
</g>
<g>
</g>
<g>
</g>
<g>
</g>
<g>
</g>
<g>
</g>
<g>
</g>
<g>
</g>
<g>
</g>
<g>
</g>
<g>
</g>
<g>
</g>
<g>
</g>
<g>
</g>
<g>
</g>
</svg>
