<?xml version="1.0" encoding="iso-8859-1"?>
<!-- Generator: Adobe Illustrator 19.0.0, SVG Export Plug-In . SVG Version: 6.00 Build 0)  -->
<svg xmlns="http://www.w3.org/2000/svg" xmlns:xlink="http://www.w3.org/1999/xlink" version="1.1" id="Layer_1" x="0px" y="0px" viewBox="0 0 512.003 512.003" style="enable-background:new 0 0 512.003 512.003;" xml:space="preserve">
<path style="fill:#F5F5F5;" d="M482.436,296.747l-0.014-81.491l-0.005-27.164l-0.008-42.486  c-0.001-11.607-5.715-22.388-15.14-28.946c-0.812-0.565-1.642-1.11-2.509-1.611l-23.71-13.684l-22.198-12.81l-17.87-10.313  l-94.999-54.826l-19.993-11.54L273.6,4.725c-10.918-6.301-24.37-6.3-35.287,0.006l-12.307,7.108l-19.995,11.548l-94.987,54.864  L81.077,95.547l-22.191,12.818l-11.697,6.756c-0.841,0.486-1.648,1.015-2.439,1.561c-9.465,6.556-15.201,17.365-15.2,29.001  l0.007,42.41l0.005,27.164l0.014,81.491l0.005,27.164l0.007,42.486c0.003,11.607,5.715,22.388,15.14,28.946  c0.812,0.565,1.642,1.11,2.509,1.61l23.377,13.491l22.198,12.812l18.204,10.506l94.999,54.826l19.995,11.539l12.39,7.151  c10.92,6.302,24.37,6.298,35.287-0.006l12.307-7.108l19.995-11.548l94.989-54.862l27.325-15.782l22.191-12.818l14.319-8.27  c0.841-0.486,1.648-1.015,2.439-1.561c9.465-6.556,15.201-17.365,15.2-29.001l-0.008-42.41L482.436,296.747z"/>
<path style="fill:#41479B;" d="M305.985,23.416L285.99,11.877L273.6,4.726c-10.918-6.302-24.37-6.3-35.287,0.006l-12.307,7.108  l-19.995,11.548l-94.987,54.863L81.077,95.547l-22.191,12.818l-11.697,6.756c-0.841,0.486-1.648,1.015-2.439,1.561  c-9.465,6.556-15.201,17.365-15.2,29.001l0.007,42.41l0.005,27.164l0.01,58.886L362.487,56.024L305.985,23.416z"/>
<path style="fill:#73AF00;" d="M206.013,488.586l19.995,11.539l12.39,7.151c10.918,6.302,24.37,6.298,35.287-0.006l12.307-7.108  l19.995-11.548l94.989-54.863l27.325-15.782l22.191-12.818l14.319-8.27c0.841-0.486,1.648-1.013,2.439-1.562  c9.465-6.556,15.201-17.365,15.2-29.001l-0.008-42.41l-0.005-27.164l-0.01-58.886l-332.914,218.12L206.013,488.586z"/>
<path style="fill:#FF4B55;" d="M29.58,323.911l0.007,42.485c0.002,11.607,5.715,22.389,15.14,28.946  c0.812,0.565,1.642,1.11,2.509,1.611l23.377,13.491l22.198,12.812l17.083,9.859l372.524-244.067v-0.955l-0.008-42.486  c-0.001-11.607-5.715-22.389-15.14-28.946c-0.812-0.565-1.642-1.11-2.509-1.611l-23.711-13.684l-22.198-12.81l-16.749-9.666  L29.58,322.956V323.911z"/>
<g>
	<path style="fill:#FFE15A;" d="M106.04,124.848c7.917,0,15.083,3.207,20.272,8.393l2.847-19.755L113.46,125.84l-7.419-18.549   l-7.419,18.549l-15.699-12.354l2.847,19.755C90.958,128.055,98.125,124.848,106.04,124.848z"/>
	<path style="fill:#FFE15A;" d="M85.752,173.802c-5.186-5.19-8.393-12.357-8.393-20.272c0-7.917,3.207-15.083,8.393-20.272   l-19.755-2.847l12.354,15.699l-18.549,7.419l18.549,7.419l-12.354,15.699L85.752,173.802z"/>
	<path style="fill:#FFE15A;" d="M152.277,153.529l-18.549-7.419l12.354-15.699l-19.755,2.847c5.186,5.19,8.393,12.357,8.393,20.272   c0,7.917-3.207,15.082-8.393,20.272l19.755,2.847l-12.354-15.699L152.277,153.529z"/>
	<path style="fill:#FFE15A;" d="M106.04,182.211c-7.917,0-15.083-3.207-20.272-8.393l-2.847,19.755L98.62,181.22l7.419,18.549   l7.419-18.549l15.699,12.353l-2.847-19.755C121.123,179.003,113.957,182.211,106.04,182.211z"/>
	<circle style="fill:#FFE15A;" cx="106.05" cy="153.531" r="23.42"/>
</g>
<g>
</g>
<g>
</g>
<g>
</g>
<g>
</g>
<g>
</g>
<g>
</g>
<g>
</g>
<g>
</g>
<g>
</g>
<g>
</g>
<g>
</g>
<g>
</g>
<g>
</g>
<g>
</g>
<g>
</g>
</svg>
