<?xml version="1.0" encoding="iso-8859-1"?>
<!-- Generator: Adobe Illustrator 19.0.0, SVG Export Plug-In . SVG Version: 6.00 Build 0)  -->
<svg xmlns="http://www.w3.org/2000/svg" xmlns:xlink="http://www.w3.org/1999/xlink" version="1.1" id="Layer_1" x="0px" y="0px" viewBox="0 0 512 512" style="enable-background:new 0 0 512 512;" xml:space="preserve">
<path style="fill:#41479B;" d="M482.435,296.744l-0.014-81.491l-0.005-27.164l-0.008-42.485  c-0.001-11.607-5.715-22.388-15.14-28.946c-0.812-0.565-1.642-1.11-2.509-1.611l-23.711-13.684l-22.198-12.81L400.98,78.24  l-94.999-54.826l-19.995-11.539l-12.39-7.151c-10.918-6.301-24.37-6.298-35.287,0.006l-12.307,7.108l-19.995,11.548L111.02,78.247  L81.076,95.544l-22.191,12.818l-11.697,6.756c-0.841,0.486-1.648,1.015-2.439,1.561c-9.465,6.556-15.201,17.365-15.2,29.001  l0.007,42.41l0.005,27.164l0.014,81.491l0.005,27.164l0.007,42.486c0.003,11.607,5.715,22.388,15.14,28.946  c0.812,0.565,1.642,1.11,2.509,1.611l23.377,13.491l22.198,12.811l18.204,10.506l94.999,54.826l19.995,11.539l12.39,7.151  c10.92,6.301,24.37,6.298,35.287-0.006l12.307-7.108l19.995-11.548l94.989-54.863l27.325-15.782l22.191-12.818l14.319-8.27  c0.841-0.486,1.648-1.015,2.439-1.561c9.465-6.556,15.201-17.365,15.2-29.001l-0.008-42.41L482.435,296.744z"/>
<g>
	<path style="fill:#F5F5F5;" d="M362.655,253.628l-27.84-6.187c-3.999-37.296-33.612-66.897-70.908-70.897l-6.19-27.855   c-0.494-2.218-4.248-2.218-4.74,0l-6.175,27.789c-37.312,3.99-66.92,33.655-70.922,70.963l-27.842,6.187   c-1.11,0.246-1.901,1.232-1.901,2.369c0,1.137,0.791,2.123,1.901,2.369l27.842,6.187c4,37.302,33.61,66.932,70.913,70.928   l6.183,27.824c0.246,1.11,1.232,1.901,2.371,1.901c1.137,0,2.123-0.791,2.369-1.901l6.192-27.866   c37.294-4.001,66.907-33.592,70.906-70.886l27.841-6.187c1.108-0.246,1.901-1.232,1.901-2.369   C364.556,254.86,363.764,253.874,362.655,253.628z M329.902,246.349l-53.105-11.801l-11.794-53.075   C298.765,185.828,325.552,212.585,329.902,246.349z M245.694,181.463l-11.797,53.084l-53.088,11.797   C185.163,212.585,211.933,185.818,245.694,181.463z M235.159,239.242l16.755,16.755H159.75L235.159,239.242z M180.81,265.65   l53.087,11.797l11.799,53.098C211.932,326.195,185.163,299.413,180.81,265.65z M255.346,351.594l-16.755-75.408l16.755-16.755   V351.594z M255.346,252.566v-92.165l16.755,75.408L255.346,252.566z M265.011,330.482l11.786-53.035l53.104-11.801   C325.549,299.403,298.765,326.121,265.011,330.482z M275.534,272.754l-16.755-16.755h92.165L275.534,272.754z"/>
	<path style="fill:#F5F5F5;" d="M467.488,258.424h-86.82c-0.857,0-1.551-1.086-1.551-2.427s0.694-2.427,1.551-2.427h86.82   c0.857,0,1.551,1.086,1.551,2.427C469.039,257.34,468.345,258.424,467.488,258.424z"/>
	<path style="fill:#F5F5F5;" d="M131.33,258.424H44.51c-0.857,0-1.551-1.086-1.551-2.427s0.694-2.427,1.551-2.427h86.82   c0.857,0,1.551,1.086,1.551,2.427C132.879,257.34,132.187,258.424,131.33,258.424z"/>
	<path style="fill:#F5F5F5;" d="M255.346,132.228c-1.341,0-2.427-1.086-2.427-2.427V90.97c0-1.342,1.086-2.427,2.427-2.427   c1.341,0,2.427,1.086,2.427,2.427v38.83C257.773,131.142,256.688,132.228,255.346,132.228z"/>
	<path style="fill:#F5F5F5;" d="M255.346,423.452c-1.341,0-2.427-1.086-2.427-2.427v-38.831c0-1.341,1.086-2.427,2.427-2.427   c1.341,0,2.427,1.086,2.427,2.427v38.831C257.773,422.367,256.688,423.452,255.346,423.452z"/>
</g>
<g>
</g>
<g>
</g>
<g>
</g>
<g>
</g>
<g>
</g>
<g>
</g>
<g>
</g>
<g>
</g>
<g>
</g>
<g>
</g>
<g>
</g>
<g>
</g>
<g>
</g>
<g>
</g>
<g>
</g>
</svg>
