<?xml version="1.0" encoding="iso-8859-1"?>
<!-- Generator: Adobe Illustrator 19.0.0, SVG Export Plug-In . SVG Version: 6.00 Build 0)  -->
<svg xmlns="http://www.w3.org/2000/svg" xmlns:xlink="http://www.w3.org/1999/xlink" version="1.1" id="Layer_1" x="0px" y="0px" viewBox="0 0 512.002 512.002" style="enable-background:new 0 0 512.002 512.002;" xml:space="preserve">
<path style="fill:#F5F5F5;" d="M482.45,366.319l-0.008-42.41l-0.005-27.164l-0.014-81.491l-0.005-27.164l-0.008-42.485  c0-3.105-0.422-6.147-1.202-9.07c-0.42-1.572-0.948-3.107-1.577-4.597c-2.568-6.091-6.814-11.419-12.362-15.28  c-0.812-0.565-1.642-1.11-2.509-1.611l-23.71-13.684l-22.198-12.81l-17.87-10.313L332.645,38.8l0,0l-26.659-15.386l-19.995-11.539  l-12.39-7.151c-10.918-6.301-24.37-6.298-35.287,0.006l-12.307,7.108l-19.995,11.548l-26.659,15.398l0,0L111.026,78.25  L81.079,95.547l-22.191,12.818l-11.697,6.755c-0.841,0.486-1.648,1.015-2.439,1.561c-3.392,2.349-6.296,5.254-8.638,8.538  c-1.572,2.206-2.883,4.585-3.911,7.092c-1.715,4.179-2.652,8.706-2.651,13.371l0.007,42.41l0.005,27.164l0.014,81.478v0.014v0.005  l0.005,27.159l0.007,42.478v0.006c0.003,11.607,5.715,22.388,15.14,28.946c0.812,0.565,1.642,1.11,2.509,1.611l23.377,13.491  l22.198,12.812l18.204,10.506l94.999,54.826l19.995,11.539l12.39,7.151c10.918,6.301,24.37,6.298,35.287-0.006l12.307-7.108  l19.995-11.548l26.659-15.397l0,0l57.588-33.261l10.742-6.205l27.325-15.782l22.191-12.818l14.319-8.27  c0.841-0.486,1.648-1.015,2.439-1.561C476.716,388.765,482.452,377.956,482.45,366.319L482.45,366.319L482.45,366.319z"/>
<g>
	<path style="fill:#73AF00;" d="M81.079,95.547l-22.191,12.818l-11.697,6.755c-0.841,0.486-1.648,1.015-2.439,1.561   c-3.392,2.349-6.296,5.254-8.638,8.538c-1.572,2.206-2.883,4.585-3.911,7.092c-1.715,4.179-2.652,8.706-2.651,13.371l0.007,42.41   l0.005,27.164l0.014,81.478v0.014v0.005l0.005,27.159l0.007,42.478v0.006c0.003,11.607,5.715,22.389,15.14,28.946   c0.812,0.565,1.642,1.11,2.509,1.611l23.377,13.491l22.198,12.812l18.204,10.506l38.347,22.131V56.107l-38.34,22.143L81.079,95.547   z"/>
	<path style="fill:#73AF00;" d="M390.234,439.955l10.742-6.205l27.325-15.782l22.191-12.818l14.319-8.27   c0.841-0.486,1.648-1.013,2.439-1.562c9.465-6.556,15.201-17.365,15.2-29.001l-0.008-42.41l-0.005-27.164l-0.014-81.491   l-0.005-27.164l-0.008-42.485c0-3.105-0.422-6.147-1.202-9.07c-0.42-1.572-0.948-3.107-1.577-4.598   c-2.568-6.091-6.814-11.419-12.362-15.278c-0.812-0.565-1.642-1.11-2.509-1.611l-23.71-13.684l-22.198-12.811l-17.87-10.313   L362.639,56.11v399.783L390.234,439.955z"/>
	<path style="fill:#73AF00;" d="M329.681,364.219l-34.236-199.71c-1.307-7.625-4.02-14.942-8-21.577l-31.443-52.404l-31.443,52.404   c-3.98,6.634-6.693,13.951-8,21.577l-34.237,199.71c-0.654,3.814,2.284,7.299,6.155,7.299h55.036v49.954h24.977v-49.954h55.036   C327.397,371.519,330.335,368.034,329.681,364.219z"/>
</g>
<g>
</g>
<g>
</g>
<g>
</g>
<g>
</g>
<g>
</g>
<g>
</g>
<g>
</g>
<g>
</g>
<g>
</g>
<g>
</g>
<g>
</g>
<g>
</g>
<g>
</g>
<g>
</g>
<g>
</g>
</svg>
