<?xml version="1.0" encoding="iso-8859-1"?>
<!-- Generator: Adobe Illustrator 19.0.0, SVG Export Plug-In . SVG Version: 6.00 Build 0)  -->
<svg xmlns="http://www.w3.org/2000/svg" xmlns:xlink="http://www.w3.org/1999/xlink" version="1.1" id="Layer_1" x="0px" y="0px" viewBox="0 0 512.001 512.001" style="enable-background:new 0 0 512.001 512.001;" xml:space="preserve">
<path style="fill:#F5F5F5;" d="M29.588,366.395l-0.036-220.713c-0.003-12.607,6.722-24.257,17.639-30.563L238.315,4.731  c10.917-6.306,24.368-6.307,35.287-0.006L464.763,115.05c10.92,6.302,17.646,17.95,17.649,30.557l0.036,220.713  c0.003,12.607-6.722,24.257-17.639,30.563L273.684,507.271c-10.917,6.306-24.368,6.307-35.287,0.006L47.237,396.952  C36.318,390.65,29.591,379.002,29.588,366.395z"/>
<g>
	<path style="fill:#73AF00;" d="M47.19,115.119c-10.917,6.306-17.64,17.955-17.638,30.563l0.036,220.713   c0.003,12.607,6.729,24.255,17.649,30.557l131.909,76.129V38.905L47.19,115.119z"/>
	<path style="fill:#73AF00;" d="M464.81,396.882c10.917-6.306,17.64-17.955,17.639-30.562l-0.036-220.713   c-0.003-12.607-6.729-24.255-17.649-30.557L332.855,38.921v434.175L464.81,396.882z"/>
</g>
<g>
</g>
<g>
</g>
<g>
</g>
<g>
</g>
<g>
</g>
<g>
</g>
<g>
</g>
<g>
</g>
<g>
</g>
<g>
</g>
<g>
</g>
<g>
</g>
<g>
</g>
<g>
</g>
<g>
</g>
</svg>
