<?xml version="1.0" encoding="iso-8859-1"?>
<!-- Generator: Adobe Illustrator 19.0.0, SVG Export Plug-In . SVG Version: 6.00 Build 0)  -->
<svg xmlns="http://www.w3.org/2000/svg" xmlns:xlink="http://www.w3.org/1999/xlink" version="1.1" id="Layer_1" x="0px" y="0px" viewBox="0 0 512.001 512.001" style="enable-background:new 0 0 512.001 512.001;" xml:space="preserve">
<path style="fill:#F5F5F5;" d="M29.588,366.394l-0.036-220.713c-0.003-12.607,6.722-24.257,17.639-30.562L238.314,4.73  c10.917-6.305,24.368-6.307,35.286-0.006l191.161,110.325c10.918,6.302,17.646,17.95,17.649,30.557l0.036,220.713  c0.003,12.607-6.722,24.257-17.639,30.563L273.683,507.269c-10.917,6.306-24.368,6.307-35.287,0.006L47.237,396.951  C36.318,390.649,29.591,379.001,29.588,366.394z"/>
<g>
	<path style="fill:#41479B;" d="M482.411,145.606c-0.003-12.607-6.729-24.255-17.649-30.557L273.601,4.725   c-10.918-6.302-24.37-6.3-35.286,0.006L47.19,115.118c-10.917,6.305-17.64,17.955-17.638,30.562l0.004,22.987h452.86   L482.411,145.606z"/>
	<path style="fill:#41479B;" d="M29.588,366.394c0.003,12.607,6.729,24.255,17.649,30.557l191.161,110.325   c10.918,6.302,24.37,6.299,35.287-0.005L464.81,396.883c10.917-6.306,17.64-17.955,17.639-30.562l-0.004-22.987H29.584   L29.588,366.394z"/>
</g>
<polygon style="fill:#AFEBFF;" points="255.999,205.508 213.937,267.365 298.063,267.365 "/>
<polygon style="fill:#557DE6;" points="213.937,267.365 186.72,306.954 325.279,306.954 298.063,267.365 "/>
<g>
	<path style="fill:#73AF00;" d="M266.764,263.909c0.167-0.346,0.344-0.685,0.495-1.037   C267.109,263.223,266.931,263.564,266.764,263.909z"/>
	<path style="fill:#73AF00;" d="M267.921,261.057c0.102-0.31,0.227-0.612,0.316-0.928   C268.15,260.445,268.025,260.746,267.921,261.057z"/>
	<path style="fill:#73AF00;" d="M265.333,266.504c0.212-0.339,0.422-0.676,0.621-1.023   C265.757,265.828,265.544,266.167,265.333,266.504z"/>
	<path style="fill:#73AF00;" d="M271.763,254.98c-0.376,0-0.737,0.061-1.07,0.174C271.025,255.041,271.386,254.98,271.763,254.98   L271.763,254.98z"/>
	<path style="fill:#73AF00;" d="M269.793,255.633c-0.525,0.407-0.882,0.978-0.964,1.628l-0.001,0.004l0.001-0.004   C268.912,256.612,269.268,256.041,269.793,255.633z"/>
	<path style="fill:#73AF00;" d="M268.517,274.095c0.59,0.559,1.173,1.092,1.76,1.6c3.14-2.718,6.417-6.173,8.716-10.212   c-0.165,0.29-0.344,0.57-0.519,0.855c-2.147-3.95-3.282-7.365-3.831-9.391c-0.314-1.157-1.511-1.962-2.877-1.963   C272.292,259.596,273.422,268.075,268.517,274.095z"/>
	<path style="fill:#73AF00;" d="M280.961,261.057c0.102-0.31,0.227-0.612,0.316-0.928   C281.19,260.445,281.065,260.746,280.961,261.057z"/>
	<path style="fill:#73AF00;" d="M282.833,255.633c-0.525,0.407-0.882,0.978-0.963,1.628l-0.001,0.004l0.001-0.004   C281.951,256.612,282.308,256.041,282.833,255.633z"/>
	<path style="fill:#73AF00;" d="M279.804,263.909c0.167-0.346,0.344-0.685,0.495-1.037   C280.149,263.223,279.972,263.564,279.804,263.909z"/>
	<path style="fill:#73AF00;" d="M306.516,277.262c-4.77,0-9.282-2.288-12.038-6.182c-4.15-5.865-6.032-11.331-6.793-14.136   c-0.315-1.158-1.513-1.964-2.882-1.964l0.005,0.001c0.626,5.507,2.122,16.52-6.828,22.281h-5.827   c-0.24-0.19-0.472-0.371-0.717-0.571c0.005,0.005,0.011,0.009,0.016,0.014c-1.631,2.128-4.892,2.725-7.422,1.422   c-10.588-5.456-8.944-17.353-8.285-23.146c-1.366,0.003-2.563,0.806-2.877,1.963c-0.55,2.026-1.683,5.441-3.831,9.391   c-0.175-0.284-0.354-0.565-0.517-0.855c2.587,4.545,6.424,8.383,9.892,11.224c-1.631,2.128-4.892,2.725-7.422,1.422   c-10.59-5.456-8.944-17.353-8.285-23.146c-1.366,0.002-2.563,0.806-2.877,1.963c-0.55,2.026-1.683,5.441-3.831,9.391   c-0.175-0.284-0.354-0.565-0.519-0.855c2.588,4.545,6.424,8.383,9.892,11.224c-1.631,2.128-4.892,2.725-7.422,1.422   c-10.59-5.456-8.944-17.353-8.285-23.146l0.005-0.001c-1.368,0-2.568,0.806-2.882,1.964c-0.761,2.805-2.643,8.271-6.793,14.136   c-2.755,3.894-7.268,6.182-12.037,6.182h-3.919v4.949h101.446h2.474v-4.949L306.516,277.262L306.516,277.262z"/>
	<path style="fill:#73AF00;" d="M260.255,262.87c0.151,0.352,0.327,0.692,0.495,1.037   C260.582,263.564,260.406,263.223,260.255,262.87z"/>
	<path style="fill:#73AF00;" d="M259.276,260.128c0.089,0.316,0.214,0.617,0.316,0.928   C259.49,260.746,259.365,260.445,259.276,260.128z"/>
	<path style="fill:#73AF00;" d="M258.685,257.265l-0.001-0.004c-0.081-0.65-0.439-1.221-0.963-1.628   c0.525,0.407,0.882,0.978,0.963,1.63L258.685,257.265z"/>
	<path style="fill:#73AF00;" d="M261.56,265.481c0.197,0.347,0.409,0.685,0.621,1.023   C261.969,266.167,261.758,265.828,261.56,265.481z"/>
	<path style="fill:#73AF00;" d="M263.835,268.911c-0.025-0.034-0.049-0.067-0.074-0.101c0.212-0.282,0.416-0.567,0.62-0.857   c-0.202,0.289-0.412,0.571-0.624,0.854c-0.211-0.281-0.42-0.565-0.624-0.854C263.362,268.277,263.595,268.595,263.835,268.911z"/>
	<path style="fill:#73AF00;" d="M264.921,270.281c0.241,0.29,0.48,0.576,0.727,0.857   C265.402,270.858,265.162,270.569,264.921,270.281z"/>
	<path style="fill:#73AF00;" d="M267.564,273.184c-0.23-0.231-0.456-0.474-0.685-0.711   C267.108,272.711,267.333,272.952,267.564,273.184z"/>
</g>
<path style="fill:#FFE15A;" d="M284.808,254.981l-0.005-0.001c-0.752,0-1.445,0.245-1.969,0.654  c-0.525,0.407-0.882,0.978-0.963,1.63l-0.001,0.004c-0.122,0.975-0.329,1.928-0.591,2.862c-0.089,0.316-0.214,0.617-0.316,0.928  c-0.202,0.612-0.409,1.222-0.662,1.815c-0.151,0.352-0.327,0.692-0.495,1.037c-0.257,0.531-0.519,1.06-0.811,1.573  c-2.299,4.04-5.576,7.494-8.716,10.212c-0.586-0.507-1.17-1.04-1.76-1.6c4.905-6.02,3.775-14.499,3.25-19.113l-0.005-0.001  c-0.376,0-0.737,0.061-1.07,0.174c-0.332,0.112-0.637,0.276-0.9,0.48c-0.525,0.407-0.882,0.978-0.963,1.63l-0.001,0.004  c-0.122,0.975-0.329,1.928-0.591,2.862c-0.089,0.316-0.214,0.617-0.316,0.928c-0.202,0.612-0.409,1.222-0.662,1.815  c-0.151,0.352-0.327,0.692-0.495,1.037c-0.257,0.531-0.519,1.06-0.811,1.573c-0.197,0.347-0.409,0.685-0.621,1.023  c-0.306,0.491-0.62,0.976-0.952,1.448c-0.204,0.29-0.407,0.575-0.62,0.857c-0.212-0.282-0.421-0.566-0.626-0.857  c-0.332-0.472-0.646-0.957-0.952-1.448c-0.211-0.339-0.422-0.676-0.621-1.023c-0.292-0.512-0.554-1.042-0.811-1.573  c-0.167-0.346-0.344-0.685-0.495-1.037c-0.254-0.591-0.46-1.202-0.662-1.815c-0.102-0.31-0.227-0.612-0.316-0.928  c-0.262-0.935-0.469-1.887-0.591-2.862l-0.001-0.004c-0.081-0.651-0.439-1.221-0.963-1.63c-0.525-0.407-1.217-0.654-1.969-0.654  l-0.005,0.001c-0.659,5.793-2.304,17.691,8.285,23.146c1.786,0.92,3.928,0.885,5.608,0.038c1.073-0.541,2.226-0.902,3.427-0.902  h4.914C286.93,271.5,285.434,260.488,284.808,254.981z"/>
<g>
	<path style="fill:#73AF00;" d="M246.236,260.128c0.089,0.316,0.214,0.617,0.316,0.928   C246.45,260.746,246.325,260.445,246.236,260.128z"/>
	<path style="fill:#73AF00;" d="M245.645,257.265l-0.001-0.004c-0.081-0.65-0.439-1.221-0.963-1.628   c0.525,0.407,0.882,0.978,0.963,1.63L245.645,257.265z"/>
	<path style="fill:#73AF00;" d="M247.214,262.87c0.151,0.352,0.327,0.692,0.495,1.037   C247.542,263.564,247.366,263.223,247.214,262.87z"/>
	<path style="fill:#73AF00;" d="M242.712,254.98L242.712,254.98c0.376,0,0.737,0.061,1.07,0.174   C243.448,255.041,243.088,254.98,242.712,254.98z"/>
</g>
<path style="fill:#FFE15A;" d="M250.991,278.127c2.529,1.303,5.791,0.706,7.422-1.422c-3.468-2.842-7.305-6.678-9.892-11.224  c-0.292-0.512-0.554-1.042-0.811-1.573c-0.167-0.346-0.344-0.685-0.495-1.037c-0.254-0.591-0.46-1.202-0.662-1.815  c-0.102-0.31-0.227-0.612-0.316-0.928c-0.262-0.935-0.469-1.887-0.591-2.862l-0.001-0.004c-0.081-0.651-0.439-1.221-0.963-1.63  c-0.262-0.204-0.567-0.367-0.9-0.48c-0.332-0.112-0.694-0.174-1.07-0.174l0,0l-0.005,0.001l0,0  C242.047,260.774,240.401,272.671,250.991,278.127z"/>
<g>
	<path style="fill:#73AF00;" d="M233.196,260.128c0.089,0.316,0.214,0.617,0.316,0.928   C233.409,260.746,233.284,260.445,233.196,260.128z"/>
	<path style="fill:#73AF00;" d="M234.174,262.87c0.151,0.352,0.327,0.692,0.495,1.037   C234.502,263.564,234.325,263.223,234.174,262.87z"/>
	<path style="fill:#73AF00;" d="M232.605,257.265l-0.001-0.004c-0.081-0.65-0.439-1.221-0.963-1.628   c0.525,0.407,0.882,0.978,0.963,1.63L232.605,257.265z"/>
</g>
<path style="fill:#FFE15A;" d="M237.951,278.127c2.529,1.303,5.791,0.706,7.422-1.422c-3.468-2.842-7.305-6.678-9.892-11.224  c-0.292-0.512-0.554-1.042-0.811-1.573c-0.167-0.346-0.344-0.685-0.495-1.037c-0.254-0.591-0.46-1.202-0.662-1.815  c-0.102-0.31-0.229-0.612-0.316-0.928c-0.262-0.935-0.469-1.887-0.591-2.862l-0.001-0.004c-0.081-0.651-0.439-1.221-0.963-1.63  c-0.525-0.407-1.217-0.654-1.969-0.654l-0.005,0.001C229.007,260.774,227.361,272.671,237.951,278.127z"/>
<path style="fill:#41479B;" d="M235.154,235.305c-0.206,0.79-0.411,1.578-0.617,2.368c6.754-2.026,14.207-3.242,22.298-3.242  c8.089,0.004,15.543,1.212,22.298,3.242c-0.206-0.79-0.411-1.58-0.617-2.368c-6.719-1.733-13.95-2.73-21.68-2.727  C249.105,232.576,241.873,233.571,235.154,235.305z"/>
<path style="fill:#5AA0E6;" d="M235.423,234.277c-0.205,0.79-0.411,1.578-0.617,2.368c6.681-2.031,14.042-3.249,22.029-3.252  c7.987,0.004,15.35,1.221,22.029,3.252c-0.206-0.79-0.411-1.58-0.617-2.368c-6.643-1.746-13.782-2.735-21.412-2.737  C249.203,231.541,242.066,232.534,235.423,234.277z"/>
<path style="fill:#9BC800;" d="M235.67,233.325c-0.205,0.79-0.411,1.578-0.617,2.368c6.614-2.037,13.89-3.264,21.78-3.262  c7.893,0,15.168,1.225,21.781,3.262c-0.205-0.79-0.412-1.578-0.617-2.368c-6.572-1.746-13.625-2.747-21.164-2.748  C249.296,230.577,242.244,231.58,235.67,233.325z"/>
<path style="fill:#FFE14E;" d="M235.954,232.237c-0.206,0.79-0.411,1.58-0.617,2.368c6.536-2.044,13.715-3.273,21.498-3.273  c7.783,0.004,14.962,1.227,21.498,3.273c-0.206-0.79-0.411-1.578-0.617-2.368c-6.494-1.753-13.448-2.757-20.88-2.758  C249.401,229.481,242.447,230.484,235.954,232.237z"/>
<path style="fill:#FFB14E;" d="M236.232,231.169c-0.205,0.79-0.411,1.578-0.617,2.368c6.461-2.049,13.54-3.282,21.219-3.283  c7.678,0.005,14.758,1.23,21.219,3.283c-0.205-0.79-0.412-1.578-0.617-2.368c-6.414-1.757-13.273-2.768-20.602-2.769  C249.506,228.403,242.648,229.409,236.232,231.169z"/>
<path style="fill:#FF4B55;" d="M236.351,230.714c-0.144,0.552-0.287,1.106-0.432,1.658c6.376-2.052,13.355-3.297,20.915-3.295  c7.562-0.002,14.54,1.24,20.915,3.295c-0.144-0.552-0.287-1.106-0.432-1.658c-6.381-1.76-13.2-2.772-20.483-2.773  C249.55,227.936,242.732,228.951,236.351,230.714z"/>
<path style="fill:#FFE15A;" d="M325.28,309.356H186.72c-0.913,0-1.752-0.502-2.182-1.305c-0.43-0.807-0.381-1.783,0.124-2.542  l69.28-103.92c0.919-1.372,3.199-1.372,4.118,0l69.28,103.92c0.505,0.759,0.554,1.735,0.124,2.542  C327.032,308.854,326.194,309.356,325.28,309.356z M191.342,304.407h129.316L256,207.421L191.342,304.407z"/>
<path style="fill:#FF4B55;" d="M260.732,244.96c0-2.176-2.207-5.487-5.737-5.487c-2.064,0-3.736,1.261-3.736,2.817  c0,0.776,0.417,1.48,1.091,1.989c-0.004,0.029-0.005,0.057-0.007,0.086c-0.844,0.516-1.393,1.295-1.393,2.177  c0,1.485,1.528,2.688,3.462,2.795l1.59,3.18l1.436-2.872C259.321,249.166,260.732,247.254,260.732,244.96z"/>
<g>
</g>
<g>
</g>
<g>
</g>
<g>
</g>
<g>
</g>
<g>
</g>
<g>
</g>
<g>
</g>
<g>
</g>
<g>
</g>
<g>
</g>
<g>
</g>
<g>
</g>
<g>
</g>
<g>
</g>
</svg>
