<?xml version="1.0" encoding="iso-8859-1"?>
<!-- Generator: Adobe Illustrator 19.0.0, SVG Export Plug-In . SVG Version: 6.00 Build 0)  -->
<svg xmlns="http://www.w3.org/2000/svg" xmlns:xlink="http://www.w3.org/1999/xlink" version="1.1" id="Layer_1" x="0px" y="0px" viewBox="0 0 512.004 512.004" style="enable-background:new 0 0 512.004 512.004;" xml:space="preserve">
<path style="fill:#F5F5F5;" d="M482.437,296.746l-0.014-81.491l-0.005-27.164l-0.008-42.486  c-0.003-11.607-5.715-22.389-15.14-28.946c-0.812-0.565-1.642-1.11-2.509-1.611l-23.71-13.684l-22.198-12.81l-17.87-10.313  l-94.999-54.826l-19.995-11.539l-12.39-7.151c-10.918-6.302-24.37-6.3-35.287,0.006l-12.307,7.108L206.01,23.387L111.025,78.25  L81.078,95.546l-22.191,12.818L47.19,115.12c-0.841,0.486-1.648,1.015-2.439,1.562c-9.465,6.556-15.202,17.365-15.2,29.001  l0.007,42.41l0.005,27.164l0.014,81.491l0.005,27.164l0.007,42.486c0.003,11.607,5.715,22.388,15.14,28.946  c0.812,0.565,1.642,1.11,2.509,1.611l23.377,13.491l22.198,12.811l18.204,10.506l94.999,54.826l19.995,11.539l12.39,7.151  c10.92,6.302,24.37,6.299,35.287-0.006l12.307-7.108l19.995-11.548l94.989-54.863l27.325-15.782l22.191-12.818l14.319-8.27  c0.841-0.486,1.648-1.015,2.439-1.562c9.465-6.556,15.201-17.365,15.2-29.001l-0.008-42.41L482.437,296.746z"/>
<g>
	<path style="fill:#FF4B55;" d="M474.053,122.846H37.964c-5.341,6.282-8.413,14.334-8.411,22.834l0.003,12.673h452.861   l-0.003-12.749C482.411,137.137,479.359,129.117,474.053,122.846z"/>
	<path style="fill:#FF4B55;" d="M29.589,366.395c0.001,8.468,3.054,16.489,8.359,22.759h436.091   c5.34-6.282,8.413-14.334,8.41-22.834l-0.003-12.673H29.586L29.589,366.395z"/>
	<path style="fill:#FF4B55;" d="M227.125,259.099l19.625,6.185l0.501,20.569c0.029,1.15,1.505,1.603,2.172,0.666l11.947-16.753   l19.718,5.88c1.102,0.329,1.989-0.935,1.305-1.859l-12.242-16.538l11.686-16.935c0.654-0.947-0.275-2.181-1.366-1.816   l-19.512,6.531l-12.497-16.347c-0.699-0.913-2.159-0.412-2.148,0.737l0.182,20.576l-19.408,6.833   C226.002,257.21,226.027,258.753,227.125,259.099z"/>
	<path style="fill:#FF4B55;" d="M164.118,335.892c22.584,0,42.878-9.441,57.373-24.537c1.281-1.333-0.487-3.333-2.018-2.296   c-10.101,6.848-22.23,10.891-35.383,10.891c-35.292,0-63.92-28.628-63.92-63.951c0-35.258,28.628-63.95,63.92-63.95   c13.13,0,25.239,4.039,35.329,10.873c1.546,1.047,3.309-0.985,2.014-2.329c-15.081-15.679-36.426-25.244-60.092-24.437   c-40.659,1.387-74.318,33.987-76.916,74.586C81.449,297.246,118.272,335.892,164.118,335.892z"/>
</g>
<g>
</g>
<g>
</g>
<g>
</g>
<g>
</g>
<g>
</g>
<g>
</g>
<g>
</g>
<g>
</g>
<g>
</g>
<g>
</g>
<g>
</g>
<g>
</g>
<g>
</g>
<g>
</g>
<g>
</g>
</svg>
