<?xml version="1.0" encoding="iso-8859-1"?>
<!-- Generator: Adobe Illustrator 19.0.0, SVG Export Plug-In . SVG Version: 6.00 Build 0)  -->
<svg xmlns="http://www.w3.org/2000/svg" xmlns:xlink="http://www.w3.org/1999/xlink" version="1.1" id="Layer_1" x="0px" y="0px" viewBox="0 0 512.001 512.001" style="enable-background:new 0 0 512.001 512.001;" xml:space="preserve">
<path style="fill:#F5F5F5;" d="M29.589,366.395l-0.036-220.713c-0.003-12.607,6.722-24.257,17.639-30.563L238.316,4.731  c10.917-6.306,24.368-6.307,35.287-0.006L464.764,115.05c10.919,6.302,17.646,17.95,17.649,30.557l0.036,220.713  c0.003,12.607-6.722,24.257-17.639,30.563L273.685,507.271c-10.917,6.306-24.368,6.307-35.287,0.006L47.238,396.952  C36.319,390.65,29.592,379.002,29.589,366.395z"/>
<path style="fill:#41479B;" d="M150.556,256.001h234.16L144.58,80.517l-16.545-12.09l-16.917,9.771L47.19,115.119  c-0.686,0.396-1.355,0.814-2.007,1.251c-9.727,6.522-15.633,17.496-15.631,29.312l0.036,220.713  c0.003,11.796,5.893,22.75,15.594,29.273c0.667,0.449,1.351,0.879,2.053,1.283l177.356,102.357l13.806,7.968  c5.459,3.15,11.548,4.725,17.639,4.725c6.093,0,12.189-1.577,17.648-4.73l13.785-7.963l37.7-21.774l15.812-9.133l-12.786-14.262  L150.556,256.001z"/>
<path style="fill:#FF4B55;" d="M137.251,267.93l-26.716-29.799h40.022h179.418l-97.761-71.44l-104.55-76.402l-71.097,41.064  c-5.101,2.945-8.27,8.436-8.269,14.327l0.036,220.713c0.001,5.891,3.172,11.379,8.274,14.325l191.161,110.324  c2.511,1.45,5.37,2.214,8.269,2.214c2.9,0,5.761-0.766,8.273-2.217l48.074-27.766L137.251,267.93z"/>
<g>
	<path style="fill:#F5F5F5;" d="M130.619,309.152l7.202,14.862l13.668-9.27c0.604-0.409,1.412,0.057,1.36,0.785l-1.193,16.472   l16.472-1.193c0.727-0.052,1.193,0.756,0.785,1.36l-9.27,13.668l14.862,7.202c0.656,0.317,0.656,1.252,0,1.57l-14.862,7.202   l9.27,13.668c0.409,0.604-0.057,1.412-0.785,1.36l-16.472-1.193l1.193,16.472c0.052,0.727-0.756,1.193-1.36,0.785l-13.668-9.27   l-7.202,14.862c-0.317,0.656-1.252,0.656-1.57,0l-7.202-14.862l-13.668,9.27c-0.604,0.409-1.412-0.059-1.36-0.785l1.193-16.472   l-16.472,1.193c-0.727,0.052-1.193-0.756-0.785-1.36l9.27-13.668l-14.861-7.202c-0.656-0.317-0.656-1.252,0-1.57l14.861-7.202   l-9.27-13.668c-0.409-0.604,0.059-1.412,0.785-1.36l16.472,1.193l-1.193-16.472c-0.052-0.727,0.756-1.193,1.36-0.785l13.668,9.27   l7.202-14.862C129.367,308.497,130.302,308.497,130.619,309.152z"/>
	<path style="fill:#F5F5F5;" d="M149.319,180.345l-6.253-4.271l5.505-5.768l-7.844-1.431l2.683-7.508l-7.748,1.883l-0.604-7.949   l-6.312,4.871l-3.785-7.018l-3.785,7.018l-6.312-4.871l-0.604,7.949l-7.748-1.883l2.683,7.508l-7.844,1.431l5.505,5.768   l-6.253,4.271c-7.889-3.684-14.825-9.065-20.284-15.722c3.666,21.362,22.231,37.636,44.642,37.636s40.975-16.273,44.642-37.636   C164.144,171.281,157.207,176.662,149.319,180.345z"/>
</g>
<g>
</g>
<g>
</g>
<g>
</g>
<g>
</g>
<g>
</g>
<g>
</g>
<g>
</g>
<g>
</g>
<g>
</g>
<g>
</g>
<g>
</g>
<g>
</g>
<g>
</g>
<g>
</g>
<g>
</g>
</svg>
