<?xml version="1.0" encoding="iso-8859-1"?>
<!-- Generator: Adobe Illustrator 19.0.0, SVG Export Plug-In . SVG Version: 6.00 Build 0)  -->
<svg xmlns="http://www.w3.org/2000/svg" xmlns:xlink="http://www.w3.org/1999/xlink" version="1.1" id="Layer_1" x="0px" y="0px" viewBox="0 0 512.002 512.002" style="enable-background:new 0 0 512.002 512.002;" xml:space="preserve">
<path style="fill:#FFE15A;" d="M482.442,323.911l-0.005-27.164l-0.004-20.751l0,0l-0.004-19.995l-0.006-40.745l-0.005-27.164  l-0.008-42.486c0-3.105-0.422-6.147-1.202-9.07c-0.42-1.572-0.949-3.107-1.576-4.598c-2.568-6.091-6.814-11.419-12.362-15.28  c-0.812-0.565-1.642-1.11-2.509-1.611l-23.71-13.684l-22.198-12.81l-17.87-10.313l-68.336-39.439l-26.659-15.386l-19.995-11.539  l-12.39-7.151c-10.918-6.302-24.37-6.3-35.287,0.006l-12.307,7.108l-19.995,11.548l-26.659,15.398l0,0l-68.33,39.466L81.078,95.547  l-22.191,12.818l-11.697,6.756c-0.841,0.486-1.648,1.015-2.439,1.561c-3.392,2.349-6.296,5.254-8.638,8.538  c-1.572,2.206-2.883,4.585-3.911,7.092c-1.715,4.179-2.652,8.706-2.651,13.371l0.007,42.41l0.005,27.164l0.004,20.751l0,0  l0.004,20.913l0.006,39.813v0.014v0.005l0.005,27.159l0.007,42.478v0.006c0.003,11.607,5.715,22.389,15.14,28.946  c0.812,0.565,1.642,1.11,2.509,1.611l23.377,13.491l22.198,12.812l18.204,10.506l94.999,54.826l19.995,11.539l12.39,7.151  c10.918,6.302,24.37,6.298,35.287-0.006l12.307-7.108l19.995-11.548l26.659-15.397l57.587-33.261l10.742-6.205l27.325-15.782  l22.191-12.818l14.319-8.27c0.841-0.486,1.648-1.013,2.439-1.562c9.465-6.556,15.201-17.365,15.2-29.001L482.442,323.911z"/>
<g>
	<path style="fill:#41479B;" d="M482.425,215.256l-0.005-27.164l-0.008-42.486c0-3.105-0.422-6.147-1.202-9.07   c-0.42-1.572-0.948-3.107-1.576-4.597c-2.568-6.091-6.814-11.419-12.362-15.28c-0.812-0.565-1.642-1.11-2.509-1.611l-23.71-13.684   l-22.198-12.81l-17.87-10.313l-68.338-39.44l-26.659-15.386l-19.995-11.539l-12.39-7.151c-10.918-6.302-24.37-6.3-35.287,0.006   l-12.307,7.108l-19.995,11.548l-26.659,15.398l0,0l-68.33,39.466L81.078,95.547l-22.191,12.818l-11.697,6.756   c-0.841,0.486-1.648,1.015-2.439,1.561c-3.392,2.349-6.296,5.254-8.638,8.538c-1.572,2.206-2.883,4.585-3.911,7.092   c-1.715,4.179-2.652,8.706-2.651,13.371l0.007,42.41l0.005,27.164l0.004,20.751h452.861L482.425,215.256z"/>
	<path style="fill:#41479B;" d="M482.442,323.911l-0.005-27.164l-0.004-20.751H29.573l0.004,20.738v0.014v0.005l0.005,27.159   l0.007,42.478v0.006c0.003,11.607,5.715,22.389,15.14,28.946c0.812,0.565,1.642,1.11,2.509,1.611l23.377,13.491l22.198,12.812   l18.204,10.506l94.999,54.826l19.995,11.539l12.39,7.151c10.918,6.302,24.37,6.298,35.287-0.006l12.307-7.108l19.995-11.548   l26.659-15.397l57.587-33.261l10.742-6.205l27.325-15.782l22.191-12.818l14.319-8.27c0.841-0.486,1.648-1.013,2.439-1.562   c9.465-6.556,15.201-17.365,15.2-29.001L482.442,323.911z"/>
</g>
<polygon style="fill:#F5F5F5;" points="121.037,315.984 126.859,339.246 143.531,322.011 136.943,345.066 159.998,338.478   142.765,355.151 166.025,360.972 142.765,366.794 159.998,383.466 136.943,376.878 143.531,399.933 126.859,382.7 121.037,405.96   115.216,382.7 98.543,399.933 105.132,376.878 82.077,383.466 99.311,366.794 76.049,360.972 99.311,355.151 82.077,338.478   105.132,345.066 98.543,322.011 115.216,339.246 "/>
<g>
</g>
<g>
</g>
<g>
</g>
<g>
</g>
<g>
</g>
<g>
</g>
<g>
</g>
<g>
</g>
<g>
</g>
<g>
</g>
<g>
</g>
<g>
</g>
<g>
</g>
<g>
</g>
<g>
</g>
</svg>
