<?xml version="1.0" encoding="iso-8859-1"?>
<!-- Generator: Adobe Illustrator 19.0.0, SVG Export Plug-In . SVG Version: 6.00 Build 0)  -->
<svg xmlns="http://www.w3.org/2000/svg" xmlns:xlink="http://www.w3.org/1999/xlink" version="1.1" id="Layer_1" x="0px" y="0px" viewBox="0 0 512.001 512.001" style="enable-background:new 0 0 512.001 512.001;" xml:space="preserve">
<path style="fill:#FFE15A;" d="M482.44,323.908v-2.899l-0.004-24.265l-0.006-40.745l0,0l-0.006-40.745l-0.004-24.265l0,0v-2.899  l-0.008-42.485c0-0.004,0-0.008,0-0.008c0-0.82-0.036-1.631-0.092-2.437c-0.018-0.247-0.046-0.492-0.069-0.739  c-0.052-0.574-0.115-1.145-0.195-1.712c-0.038-0.264-0.079-0.526-0.121-0.787c-0.095-0.576-0.204-1.15-0.326-1.718  c-0.047-0.217-0.091-0.437-0.142-0.654c-0.175-0.74-0.369-1.475-0.59-2.198c-0.01-0.034-0.019-0.067-0.029-0.101  c-0.252-0.816-0.534-1.622-0.842-2.416c-0.008-0.019-0.015-0.036-0.022-0.054c-0.291-0.742-0.61-1.473-0.951-2.194  c-0.052-0.111-0.107-0.22-0.161-0.331c-0.314-0.647-0.647-1.285-1-1.912c-0.056-0.099-0.111-0.199-0.167-0.297  c-0.404-0.701-0.827-1.39-1.277-2.062c0,0-0.001-0.002-0.003-0.004l-0.001-0.001c-0.584-0.87-1.21-1.711-1.868-2.527  c-0.06-0.075-0.124-0.147-0.185-0.222c-0.647-0.789-1.325-1.553-2.039-2.286c-0.01-0.01-0.02-0.021-0.03-0.031  c-0.696-0.71-1.432-1.385-2.189-2.037c-0.156-0.135-0.315-0.266-0.475-0.399c-0.761-0.632-1.543-1.245-2.362-1.816  c-0.001,0-0.001-0.001-0.003-0.001c-0.812-0.565-1.642-1.11-2.508-1.611l-23.711-13.684l-22.198-12.81l-17.87-10.313L371.059,60.97  l0,0l-65.075-37.556l-19.995-11.539l-12.39-7.151c-10.92-6.301-24.37-6.298-35.287,0.006l-12.307,7.108L206.01,23.386  l-94.989,54.862L81.076,95.545l-22.191,12.818l-11.697,6.756c-0.841,0.486-1.648,1.015-2.439,1.561  c-0.821,0.569-1.603,1.18-2.367,1.811c-0.161,0.134-0.322,0.267-0.481,0.402c-0.759,0.65-1.495,1.322-2.192,2.029  c-0.007,0.009-0.015,0.017-0.024,0.025c-0.716,0.729-1.392,1.491-2.039,2.276c-0.067,0.081-0.136,0.161-0.202,0.244  c-0.612,0.755-1.188,1.537-1.736,2.337c-0.041,0.06-0.09,0.115-0.13,0.175c-0.455,0.675-0.881,1.367-1.288,2.071  c-0.06,0.104-0.117,0.209-0.176,0.312c-0.351,0.621-0.682,1.253-0.995,1.896c-0.057,0.119-0.117,0.237-0.174,0.357  c-0.334,0.705-0.647,1.421-0.935,2.148c-0.014,0.036-0.03,0.071-0.044,0.106c-0.311,0.795-0.594,1.601-0.846,2.418  c-0.007,0.022-0.012,0.046-0.02,0.069c-0.226,0.737-0.424,1.486-0.602,2.239c-0.051,0.216-0.095,0.434-0.141,0.651  c-0.124,0.572-0.234,1.15-0.33,1.73c-0.042,0.261-0.084,0.524-0.121,0.787c-0.081,0.572-0.144,1.148-0.196,1.726  c-0.022,0.245-0.051,0.489-0.067,0.734c-0.056,0.814-0.092,1.632-0.092,2.456l0.007,42.41v2.899l0.004,24.265l0.014,81.491  l0.005,27.164l0.007,42.486c0,0.82,0.036,1.635,0.092,2.446c0.017,0.246,0.045,0.489,0.067,0.734c0.052,0.576,0.115,1.15,0.195,1.72  c0.036,0.261,0.077,0.52,0.12,0.78c0.095,0.58,0.205,1.156,0.329,1.728c0.046,0.215,0.09,0.431,0.14,0.645  c0.176,0.745,0.37,1.485,0.594,2.213c0.009,0.029,0.015,0.057,0.024,0.086c0.252,0.819,0.534,1.625,0.845,2.419  c0.006,0.015,0.012,0.029,0.017,0.044c0.292,0.747,0.614,1.481,0.956,2.206c0.051,0.109,0.105,0.216,0.157,0.324  c0.315,0.65,0.65,1.291,1.005,1.921c0.054,0.096,0.107,0.194,0.164,0.29c0.405,0.704,0.83,1.395,1.282,2.069v0.001  c2.419,3.607,5.503,6.783,9.151,9.321c0.812,0.565,1.642,1.11,2.509,1.611l23.377,13.491l22.198,12.812l18.204,10.506l94.999,54.826  l19.995,11.539l12.39,7.151c0.682,0.394,1.375,0.764,2.076,1.107c4.907,2.412,10.237,3.618,15.568,3.617  c5.331-0.001,10.661-1.208,15.567-3.622c0.701-0.345,1.393-0.715,2.076-1.108l12.307-7.108l19.995-11.548l65.073-37.585l0,0  l29.916-17.279l27.325-15.782l22.191-12.818l14.319-8.27c0.841-0.486,1.648-1.015,2.439-1.561c3.654-2.531,6.744-5.7,9.17-9.3l0,0  l0.001-0.003c0.454-0.672,0.879-1.363,1.285-2.064c0.061-0.106,0.12-0.214,0.181-0.32c0.349-0.619,0.679-1.247,0.99-1.886  c0.059-0.122,0.12-0.244,0.179-0.366c0.332-0.701,0.644-1.413,0.93-2.137c0.015-0.039,0.034-0.077,0.049-0.116  c0.31-0.794,0.592-1.598,0.845-2.414c0.009-0.026,0.015-0.054,0.023-0.08c0.225-0.734,0.421-1.477,0.599-2.226  c0.051-0.219,0.096-0.44,0.144-0.66c0.124-0.57,0.232-1.145,0.327-1.722c0.044-0.264,0.085-0.527,0.122-0.791  c0.08-0.569,0.142-1.142,0.195-1.717c0.022-0.247,0.051-0.495,0.069-0.744c0.056-0.81,0.092-1.623,0.092-2.442c0,0,0-0.008,0-0.011  L482.44,323.908z"/>
<g>
	<polygon style="fill:#41479B;" points="95.537,254.749 217.826,254.749 91.043,141.03  "/>
	<path style="fill:#41479B;" d="M238.313,4.729l-12.307,7.108l-19.995,11.548l-53.904,31.134l-3.067,2.507l54.471,5.275   l50.447-5.275V0.064C248.54,0.371,243.175,1.921,238.313,4.729z"/>
	<polygon style="fill:#41479B;" points="253.96,225.202 253.96,139.411 138.53,134.782  "/>
</g>
<path style="fill:#F5F5F5;" d="M149.041,57.027l3.067-2.507l-32.869,18.984l-8.215,4.745l-0.091,0.052  c4.14,7.677,5.307,38.762,3.142,44.633c-5.437,14.737-17.072,26.464-31.739,32.042c-6.011,2.286-33.342,2.157-39.605-0.364  c-4.762-1.916-9.192-4.483-13.179-7.593v-1.341l0.007,42.41v2.899l0.004,24.263l0.006,39.495H42.73h39.605h13.201V154.75  l122.289,99.995h22.931c7.292,0,13.201-7.378,13.201-16.477V225.2l-104.919-85.792h104.919v-16.474v-49.43V57.027H149.041z"/>
<g>
	<path style="fill:#FF4B55;" d="M42.729,154.614v100.135h39.605v-99.773C76.323,157.263,48.992,157.133,42.729,154.614z"/>
	<path style="fill:#FF4B55;" d="M111.022,78.249l-0.091,0.052c4.14,7.677,5.307,38.762,3.142,44.633H253.96v-49.43H119.239   L111.022,78.249z"/>
	<path style="fill:#FF4B55;" d="M105.871,139.411l140.39,113.735c4.206-2.434,7.091-7.539,7.488-13.58l-123.63-100.155   C130.12,139.411,105.871,139.411,105.871,139.411z"/>
</g>
<path style="fill:#41479B;" d="M110.931,78.301L98.207,85.65l-3.003,1.735l9.299,0.072c3.721,0.029,5.264,4.777,2.271,6.988  l-23.121,17.073l3.612,11.416l5.057,15.987c1.122,3.548-2.917,6.483-5.945,4.319l-4.044-2.89l-19.337-13.822l-20.267,14.485  l-3.117,2.227c-3.028,2.164-7.067-0.771-5.945-4.319l5.057-15.987l0.447-1.413c-0.43,0.465-0.86,0.93-1.267,1.413  c-0.084,0.099-0.177,0.19-0.259,0.289c-0.067,0.081-0.136,0.161-0.202,0.244c-0.612,0.755-1.188,1.537-1.736,2.338  c-0.041,0.06-0.09,0.115-0.13,0.175c-0.455,0.675-0.881,1.367-1.288,2.071c-0.06,0.104-0.117,0.209-0.176,0.312  c-0.351,0.621-0.682,1.253-0.995,1.896c-0.057,0.119-0.117,0.237-0.174,0.357c-0.334,0.705-0.647,1.421-0.935,2.148  c-0.014,0.036-0.03,0.07-0.044,0.106c-0.311,0.795-0.594,1.601-0.846,2.418c-0.007,0.022-0.012,0.046-0.02,0.069  c-0.226,0.737-0.424,1.486-0.602,2.239c-0.051,0.216-0.095,0.434-0.141,0.651c-0.124,0.574-0.234,1.15-0.33,1.731  c-0.042,0.261-0.085,0.524-0.121,0.786c-0.081,0.572-0.144,1.148-0.196,1.727c-0.022,0.245-0.051,0.489-0.067,0.734  c-0.056,0.814-0.092,1.632-0.092,2.456v1.341c3.986,3.11,8.416,5.677,13.179,7.593c6.263,2.521,13.101,3.911,20.267,3.911  c6.813,0,13.329-1.263,19.34-3.549c14.667-5.578,26.302-17.307,31.739-32.042c2.166-5.871,3.352-12.215,3.352-18.837  C117.424,94.762,115.071,85.979,110.931,78.301z"/>
<g>
	<path style="fill:#FFE15A;" d="M64.198,194.507l3.403,10.202l10.755,0.084c1.392,0.011,1.969,1.788,0.85,2.614l-8.651,6.39   l3.244,10.255c0.42,1.327-1.092,2.426-2.224,1.616l-8.75-6.255l-8.75,6.255c-1.133,0.81-2.644-0.289-2.224-1.616l3.244-10.255   l-8.651-6.39c-1.12-0.827-0.542-2.604,0.85-2.614l10.755-0.084l3.403-10.202C61.888,193.186,63.758,193.186,64.198,194.507z"/>
	<path style="fill:#FFE15A;" d="M192.913,82.038l3.403,10.202l10.755,0.084c1.392,0.011,1.969,1.788,0.85,2.614l-8.651,6.39   l3.244,10.255c0.42,1.327-1.092,2.426-2.224,1.616l-8.75-6.255l-8.75,6.255c-1.133,0.81-2.644-0.289-2.224-1.616l3.244-10.255   l-8.651-6.39c-1.12-0.827-0.542-2.604,0.85-2.614l10.755-0.084l3.403-10.202C190.603,80.717,192.473,80.717,192.913,82.038z"/>
</g>
<g>
</g>
<g>
</g>
<g>
</g>
<g>
</g>
<g>
</g>
<g>
</g>
<g>
</g>
<g>
</g>
<g>
</g>
<g>
</g>
<g>
</g>
<g>
</g>
<g>
</g>
<g>
</g>
<g>
</g>
</svg>
