<?xml version="1.0" encoding="iso-8859-1"?>
<!-- Generator: Adobe Illustrator 19.0.0, SVG Export Plug-In . SVG Version: 6.00 Build 0)  -->
<svg xmlns="http://www.w3.org/2000/svg" xmlns:xlink="http://www.w3.org/1999/xlink" version="1.1" id="Layer_1" x="0px" y="0px" viewBox="0 0 512.001 512.001" style="enable-background:new 0 0 512.001 512.001;" xml:space="preserve">
<path style="fill:#F5F5F5;" d="M29.588,366.395l-0.036-220.713c-0.003-12.607,6.722-24.257,17.639-30.562L238.314,4.731  c10.917-6.306,24.368-6.307,35.287-0.006L464.762,115.05c10.92,6.302,17.646,17.95,17.649,30.557l0.036,220.713  c0.003,12.607-6.722,24.257-17.639,30.563L273.683,507.269c-10.917,6.306-24.368,6.307-35.286,0.006L47.237,396.951  C36.317,390.649,29.591,379.001,29.588,366.395z"/>
<g>
	<path style="fill:#FF4B55;" d="M41.36,119.34v136.838l19.693,7.319l22.116-7.319V94.338l-35.98,20.781   C45.083,116.336,43.137,117.756,41.36,119.34z"/>
	<polygon style="fill:#FF4B55;" points="96.773,86.481 255.999,86.481 259.748,53.556 255.999,19.56 212.639,19.56  "/>
	<path style="fill:#FF4B55;" d="M108.019,108.788l84.039,87.312l56.023,58.205c0.029-0.021,0.057-0.046,0.086-0.067   c0.06-0.054,0.12-0.109,0.182-0.156c0.444-0.337,7.647-6.784,7.648-6.828c0.156-3.671-0.084-10.216-0.049-11.177   c0.003-0.06,0.011-0.116,0.014-0.176L215.18,193.53l-81.565-84.74h-25.597L108.019,108.788L108.019,108.788z"/>
</g>
<path style="fill:#41479B;" d="M482.411,145.607c-0.003-12.607-6.729-24.255-17.649-30.557L273.601,4.726  C268.155,1.583,262.078,0.009,256,0.002V19.56v66.92v20.003H149.817l106.182,111.348v16.963c0,0.374-0.023,0.737-0.035,1.106l0,0  c-0.003,0.06-0.011,0.117-0.014,0.176c-0.036,0.961-0.104,1.908-0.216,2.829c-0.018,0.142-0.05,0.276-0.069,0.419  c-0.505,3.745-1.61,7.128-3.164,9.859c-0.021,0.039-0.042,0.077-0.065,0.115c-0.796,1.38-1.706,2.589-2.704,3.595  c-0.03,0.03-0.061,0.059-0.091,0.089c-0.411,0.405-0.846,0.764-1.29,1.1c-0.062,0.047-0.122,0.102-0.182,0.156  c-0.029,0.021-0.057,0.046-0.086,0.067l0,0c-1.662,1.198-3.502,1.874-5.443,1.874h-23.209L95.667,126.396v129.783h-5.872h-6.624  H41.36h-7.799H29.57l0.019,110.216c0.003,12.607,6.729,24.255,17.649,30.557l191.161,110.325c10.918,6.301,24.37,6.299,35.286-0.006  L464.81,396.883c10.917-6.305,17.64-17.955,17.639-30.563L482.411,145.607z"/>
<path style="fill:#FF4B55;" d="M377.626,402.916c-0.362,0-0.73-0.114-1.04-0.332l-10.587-7.565l-10.587,7.565  c-0.31,0.219-0.677,0.332-1.04,0.332c-0.371,0-0.739-0.114-1.052-0.341c-0.62-0.454-0.887-1.258-0.655-1.992l3.926-12.404  l-10.466-7.723c-0.62-0.464-0.877-1.258-0.642-1.992c0.24-0.734,0.917-1.232,1.691-1.241l13.011-0.105l4.114-12.343  c0.245-0.725,0.931-1.223,1.7-1.223s1.455,0.497,1.7,1.223l4.114,12.343l13.011,0.105c0.774,0.009,1.45,0.506,1.691,1.241  c0.236,0.734-0.021,1.528-0.642,1.992l-10.465,7.723l3.926,12.404c0.231,0.734-0.035,1.537-0.655,1.992  C378.364,402.802,377.993,402.916,377.626,402.916z"/>
<path style="fill:#F5F5F5;" d="M365.999,365.344l4.521,13.556l14.29,0.111l-11.496,8.489l4.31,13.625l-11.626-8.31l-11.626,8.31  l4.31-13.625l-11.496-8.489l14.29-0.111L365.999,365.344 M365.999,361.766c-1.54,0-2.907,0.986-3.394,2.447l-3.711,11.131  l-11.733,0.091c-1.54,0.011-2.899,1.007-3.375,2.472s0.039,3.069,1.277,3.984l9.439,6.969l-3.539,11.187  c-0.465,1.468,0.062,3.069,1.308,3.974c0.627,0.455,1.365,0.684,2.103,0.684c0.729,0,1.458-0.222,2.081-0.667l9.545-6.823  l9.545,6.823c0.622,0.445,1.352,0.667,2.081,0.667c0.739,0,1.476-0.229,2.103-0.684c1.246-0.905,1.773-2.506,1.308-3.974  l-3.539-11.187l9.439-6.969c1.238-0.915,1.753-2.519,1.277-3.984c-0.476-1.465-1.836-2.461-3.375-2.472l-11.733-0.091l-3.711-11.131  C368.906,362.751,367.539,361.766,365.999,361.766L365.999,361.766z"/>
<path style="fill:#FF4B55;" d="M377.626,258.699c-0.367,0-0.73-0.114-1.04-0.332l-10.587-7.574l-10.587,7.574  c-0.31,0.219-0.677,0.332-1.04,0.332c-0.367,0-0.739-0.114-1.052-0.341c-0.62-0.454-0.887-1.258-0.655-1.992l3.926-12.404  l-10.466-7.73c-0.62-0.462-0.877-1.267-0.642-1.992c0.24-0.734,0.922-1.232,1.691-1.241l13.011-0.096l4.114-12.343  c0.245-0.725,0.931-1.223,1.7-1.223s1.455,0.497,1.7,1.223l4.114,12.343l13.011,0.096c0.769,0.009,1.45,0.506,1.691,1.241  c0.236,0.725-0.021,1.528-0.642,1.992l-10.465,7.73l3.926,12.404c0.231,0.734-0.035,1.537-0.655,1.992  C378.364,258.586,377.993,258.699,377.626,258.699z"/>
<path style="fill:#F5F5F5;" d="M365.999,221.126l4.521,13.556l14.29,0.111l-11.496,8.489l4.31,13.625l-11.626-8.31l-11.626,8.31  l4.31-13.625l-11.496-8.489l14.29-0.111L365.999,221.126 M365.999,217.547c-1.54,0-2.907,0.986-3.394,2.447l-3.711,11.131  l-11.733,0.091c-1.54,0.011-2.899,1.007-3.375,2.472s0.039,3.069,1.277,3.984l9.439,6.969l-3.539,11.187  c-0.465,1.468,0.062,3.069,1.308,3.974c0.627,0.455,1.365,0.684,2.103,0.684c0.729,0,1.458-0.222,2.081-0.667l9.545-6.823  l9.545,6.823c0.622,0.445,1.352,0.667,2.081,0.667c0.739,0,1.476-0.229,2.103-0.684c1.246-0.905,1.773-2.506,1.308-3.974  l-3.539-11.187l9.439-6.969c1.238-0.915,1.753-2.519,1.277-3.984c-0.476-1.465-1.836-2.461-3.375-2.472l-11.733-0.091l-3.711-11.131  C368.906,218.533,367.539,217.547,365.999,217.547L365.999,217.547z"/>
<path style="fill:#FF4B55;" d="M440.242,303.426c-0.367,0-0.73-0.114-1.04-0.332l-10.587-7.574l-10.587,7.574  c-0.31,0.219-0.677,0.332-1.04,0.332c-0.367,0-0.739-0.114-1.052-0.341c-0.62-0.454-0.887-1.258-0.655-1.992l3.926-12.404  l-10.465-7.73c-0.62-0.462-0.879-1.267-0.642-1.992c0.24-0.734,0.921-1.232,1.691-1.241l13.011-0.096l4.114-12.343  c0.245-0.725,0.931-1.223,1.7-1.223s1.455,0.499,1.699,1.223l4.115,12.343l13.011,0.096c0.769,0.009,1.45,0.506,1.691,1.241  c0.236,0.725-0.022,1.528-0.642,1.992l-10.466,7.73l3.926,12.404c0.231,0.734-0.035,1.537-0.655,1.992  C440.981,303.312,440.61,303.426,440.242,303.426z"/>
<path style="fill:#F5F5F5;" d="M428.616,265.851l4.521,13.556l14.29,0.111l-11.496,8.489l4.31,13.625l-11.626-8.31l-11.626,8.31  l4.31-13.625l-11.496-8.489l14.29-0.111L428.616,265.851 M428.616,262.273c-1.54,0-2.907,0.986-3.394,2.447l-3.711,11.131  l-11.733,0.091c-1.54,0.011-2.899,1.007-3.375,2.472s0.039,3.069,1.277,3.984l9.439,6.969l-3.539,11.187  c-0.465,1.468,0.062,3.069,1.308,3.974c0.627,0.455,1.365,0.684,2.103,0.684c0.729,0,1.458-0.222,2.081-0.667l9.545-6.823  l9.545,6.823c0.622,0.445,1.352,0.667,2.081,0.667c0.739,0,1.476-0.229,2.103-0.684c1.246-0.905,1.773-2.506,1.308-3.974  l-3.539-11.187l9.439-6.969c1.238-0.915,1.753-2.519,1.277-3.984c-0.476-1.465-1.836-2.461-3.375-2.472l-11.733-0.091l-3.711-11.131  C431.522,263.258,430.155,262.273,428.616,262.273L428.616,262.273z"/>
<path style="fill:#FF4B55;" d="M315.009,321.316c-0.367,0-0.73-0.114-1.04-0.332l-10.587-7.574l-10.587,7.574  c-0.31,0.219-0.677,0.332-1.04,0.332c-0.367,0-0.739-0.114-1.052-0.341c-0.62-0.454-0.886-1.258-0.655-1.992l3.926-12.404  l-10.465-7.73c-0.62-0.462-0.879-1.267-0.642-1.992c0.24-0.734,0.921-1.232,1.691-1.241l13.011-0.096l4.114-12.343  c0.245-0.725,0.93-1.223,1.7-1.223c0.769,0,1.455,0.497,1.7,1.223l4.114,12.343l13.011,0.096c0.769,0.009,1.45,0.506,1.691,1.241  c0.236,0.725-0.023,1.528-0.642,1.992l-10.466,7.73l3.926,12.404c0.231,0.734-0.035,1.537-0.655,1.992  C315.748,321.203,315.377,321.316,315.009,321.316z"/>
<path style="fill:#F5F5F5;" d="M303.383,283.742l4.521,13.556l14.29,0.111l-11.496,8.489l4.31,13.625l-11.626-8.31l-11.626,8.31  l4.31-13.625l-11.496-8.489l14.29-0.111L303.383,283.742 M303.383,280.163c-1.54,0-2.907,0.986-3.394,2.447l-3.711,11.131  l-11.733,0.091c-1.54,0.011-2.899,1.007-3.375,2.472s0.039,3.069,1.277,3.984l9.439,6.969l-3.539,11.187  c-0.465,1.468,0.063,3.069,1.308,3.974c0.627,0.455,1.365,0.684,2.103,0.684c0.729,0,1.458-0.222,2.081-0.667l9.545-6.823  l9.545,6.823c0.622,0.445,1.352,0.667,2.081,0.667c0.739,0,1.476-0.229,2.103-0.684c1.246-0.905,1.773-2.506,1.308-3.974  l-3.539-11.187l9.439-6.969c1.238-0.915,1.753-2.519,1.277-3.984s-1.836-2.461-3.375-2.472l-11.733-0.091l-3.711-11.131  C306.289,281.149,304.922,280.163,303.383,280.163L303.383,280.163z"/>
<g>
</g>
<g>
</g>
<g>
</g>
<g>
</g>
<g>
</g>
<g>
</g>
<g>
</g>
<g>
</g>
<g>
</g>
<g>
</g>
<g>
</g>
<g>
</g>
<g>
</g>
<g>
</g>
<g>
</g>
</svg>
