<?xml version="1.0" encoding="iso-8859-1"?>
<!-- Generator: Adobe Illustrator 19.0.0, SVG Export Plug-In . SVG Version: 6.00 Build 0)  -->
<svg xmlns="http://www.w3.org/2000/svg" xmlns:xlink="http://www.w3.org/1999/xlink" version="1.1" id="Layer_1" x="0px" y="0px" viewBox="0 0 512.001 512.001" style="enable-background:new 0 0 512.001 512.001;" xml:space="preserve">
<path style="fill:#F5F5F5;" d="M29.589,366.395l-0.036-220.713c-0.003-12.607,6.722-24.257,17.639-30.563L238.315,4.731  c10.917-6.306,24.368-6.307,35.287-0.006L464.763,115.05c10.918,6.302,17.646,17.95,17.649,30.557l0.036,220.713  c0.003,12.607-6.722,24.257-17.639,30.563L273.684,507.271c-10.917,6.306-24.368,6.307-35.287,0.006L47.238,396.952  C36.318,390.65,29.591,379.002,29.589,366.395z"/>
<path style="fill:#73AF00;" d="M184.77,476.325l53.629,30.95c10.918,6.302,24.37,6.299,35.287-0.005l191.125-110.389  c10.917-6.306,17.64-17.955,17.639-30.563l-0.004-24.092l-310.171-16.252L184.77,476.325z"/>
<path style="fill:#FF4B55;" d="M482.417,169.774H184.77V35.657L47.19,115.119c-10.917,6.305-17.64,17.955-17.639,30.562  l0.004,24.093l0.029,172.453l0.004,24.167c0.003,12.607,6.729,24.255,17.649,30.557l137.532,79.375V342.227h297.675L482.417,169.774  z"/>
<g>
	<path style="fill:#F5F5F5;" d="M68.547,189.021c-0.614,0.07-1.207,0.144-1.783,0.221v7.813c0.581,0.149,1.173,0.295,1.783,0.439   C68.547,197.494,68.547,189.021,68.547,189.021z"/>
	<path style="fill:#F5F5F5;" d="M95.572,203.911c-1.628-0.13-4.131-0.381-7.119-0.746L69.716,219.83   c2.427,0.371,5.336,0.862,6.551,1.25C81.078,216.869,87.534,211.129,95.572,203.911z"/>
	<polygon style="fill:#F5F5F5;" points="123.768,177.405 123.768,176.585 123.768,175.8 90.521,175.8 90.521,176.585    90.521,177.405 90.521,178.189 123.768,178.189  "/>
	<path style="fill:#F5F5F5;" d="M99.154,129.859c0,2.341,3.528,4.319,7.705,4.319c4.178,0,7.705-1.977,7.705-4.319   c0-2.341-3.528-4.319-7.705-4.319C102.681,125.54,99.154,127.518,99.154,129.859z"/>
	<path style="fill:#F5F5F5;" d="M91.948,187.963c-7.505-0.036-14.995,0.239-21.118,0.817v9.222   c7.194,1.545,15.574,2.727,21.118,3.315V187.963z"/>
	<path style="fill:#F5F5F5;" d="M53.286,233.482c2.967-0.062,9.482-1.235,13.894-4.682c1.368-1.068,3.703-3.034,6.984-5.886   c-2.226-0.457-5.96-1.01-7.95-1.285L53.286,233.482z"/>
	<path style="fill:#F5F5F5;" d="M96.229,173.517v-4.193c-0.562-0.839-1.143-1.701-1.735-2.579l-5.105,3.711   c1.016,1.746,1.667,2.855,1.787,3.06L96.229,173.517L96.229,173.517z"/>
	<path style="fill:#F5F5F5;" d="M56.955,192.449c-0.016,0.069-0.056,0.227,0.201,0.557c0.947,1.213,3.688,2.373,7.325,3.429v-6.856   C60.113,190.305,57.252,191.262,56.955,192.449z"/>
	<path style="fill:#F5F5F5;" d="M115.349,189.176v-8.704H98.511v21.26h4.28C109.716,201.733,115.349,196.099,115.349,189.176z"/>
	<path style="fill:#F5F5F5;" d="M88.288,157.56c-9.014-13.288-18.642-27.253-20.991-30.019c0.336,1.237,1.15,3.56,3.048,7.91   c2.449,5.613,8.395,16.376,13.316,25.039L88.288,157.56z"/>
	<path style="fill:#F5F5F5;" d="M84.792,162.477c1.281,2.244,2.457,4.286,3.447,5.995l4.98-3.622   c-1.185-1.758-2.403-3.56-3.648-5.399L84.792,162.477z"/>
	<path style="fill:#F5F5F5;" d="M96.229,201.693v-13.675c-0.665-0.014-1.33-0.027-1.998-0.036v13.561   C95.001,201.61,95.672,201.66,96.229,201.693z"/>
	<rect x="98.51" y="161.78" style="fill:#F5F5F5;" width="16.837" height="2.391"/>
	<path style="fill:#F5F5F5;" d="M138.75,173.374v0.142h0.856c0.631,0,1.141,0.511,1.141,1.141v4.672   c0,0.631-0.511,1.141-1.141,1.141h-0.856v0.142c0,0.629,0.511,1.141,1.141,1.141h19.263c0.63,0,1.141-0.512,1.141-1.141v-7.242   c0-0.629-0.511-1.141-1.141-1.141h-19.263C139.261,172.232,138.75,172.746,138.75,173.374z"/>
	<path style="fill:#F5F5F5;" d="M160.302,233.417l-12.855-11.787c-1.991,0.274-5.725,0.827-7.95,1.285   c3.342,2.898,5.675,4.865,6.984,5.888C150.822,232.192,157.204,233.381,160.302,233.417z"/>
	<polygon style="fill:#F5F5F5;" points="133.898,176.585 133.898,177.405 133.898,178.189 138.464,178.189 138.464,175.8    133.898,175.8  "/>
	<path style="fill:#F5F5F5;" d="M137.391,221.083c1.213-0.389,4.128-0.881,6.558-1.252l-27.605-24.635   c-0.749,1.68-1.792,3.2-3.078,4.481l0.726,0.649C123.994,209.28,131.811,216.212,137.391,221.083z"/>
	<path style="fill:#F5F5F5;" d="M75.539,180.615v-0.142h-0.856c-0.631,0-1.141-0.51-1.141-1.141v-4.672   c0-0.631,0.511-1.141,1.141-1.141h0.856v-0.142c0-0.629-0.511-1.141-1.141-1.141H55.134c-0.63,0-1.141,0.512-1.141,1.141v7.242   c0,0.629,0.511,1.141,1.141,1.141h19.263C75.028,181.757,75.539,181.245,75.539,180.615z"/>
	<polygon style="fill:#F5F5F5;" points="80.39,177.405 80.39,176.585 80.39,175.8 75.825,175.8 75.825,178.189 80.39,178.189  "/>
	<path style="fill:#F5F5F5;" d="M124.269,170.456l-5.104-3.711c-0.522,0.777-1.032,1.536-1.533,2.281v4.491h4.849   C122.601,173.312,123.253,172.202,124.269,170.456z"/>
	<polygon style="fill:#F5F5F5;" points="100.04,154.79 113.828,154.79 110.793,151.423 103.075,151.423  "/>
	<rect x="98.51" y="157.18" style="fill:#F5F5F5;" width="16.837" height="2.318"/>
	<path style="fill:#F5F5F5;" d="M106.859,136.461c-1.108,0-2.149-0.142-3.139-0.354v12.903h6.35v-12.918   C109.06,136.313,107.995,136.461,106.859,136.461z"/>
	<path style="fill:#F5F5F5;" d="M98.511,168.844h16.764c-0.004-0.144,0.021-0.282,0.074-0.42v-1.969H98.511V168.844z"/>
	<path style="fill:#F5F5F5;" d="M120.441,164.851l4.98,3.622c0.99-1.71,2.166-3.75,3.447-5.995l-4.779-3.025   C122.845,161.29,121.626,163.092,120.441,164.851z"/>
	<rect x="98.51" y="171.13" style="fill:#F5F5F5;" width="16.837" height="2.391"/>
	<path style="fill:#F5F5F5;" d="M129.999,160.489c4.921-8.663,10.867-19.426,13.316-25.039c1.903-4.361,2.715-6.687,3.05-7.919   c-2.307,2.708-11.959,16.707-20.996,30.028L129.999,160.489z"/>
</g>
<path style="fill:#D23741;" d="M163.481,233.236l-14.886-13.651c-0.25-0.23-0.586-0.341-0.925-0.29  c-0.126,0.016-0.414,0.056-0.796,0.109c-0.02-0.021-0.029-0.049-0.051-0.069l-29.672-26.479c0.302-1.18,0.481-2.408,0.481-3.679  v-8.704h7.198c0.927,1.206,2.368,1.998,4.004,1.998s3.077-0.791,4.003-1.998h3.63v0.142c0,1.888,1.536,3.424,3.424,3.424h19.263  c1.888,0,3.424-1.536,3.424-3.424v-7.242c0-1.888-1.536-3.424-3.424-3.424h-19.263c-1.888,0-3.424,1.536-3.424,3.424v0.142h-3.63  c-0.926-1.206-2.368-1.997-4.003-1.997c-1.24,0-2.361,0.465-3.242,1.206c3.848-6.587,15.936-27.464,19.818-36.36  c4.165-9.546,3.829-10.78,2.844-11.571c-1.038-0.831-2.353,0.125-2.849,0.489c-1.909,1.387-20.431,28.75-27.771,39.654v-9.005  c0-0.025-0.012-0.046-0.015-0.071l-0.001-0.003c-0.026-0.386-0.242-0.709-0.559-0.895l-4.706-5.22v-14.35  c2.722-1.168,4.495-3.187,4.495-5.535c0-3.7-4.388-6.602-9.989-6.602s-9.989,2.9-9.989,6.602c0,2.368,1.806,4.396,4.566,5.56v14.411  l-4.617,5.121c-0.346,0.196-0.591,0.554-0.591,0.981v9.302c-7.199-10.696-26.047-38.552-27.971-39.952  c-0.499-0.361-1.813-1.317-2.85-0.489c-0.986,0.791-1.321,2.024,2.844,11.571c3.759,8.614,15.208,28.457,19.426,35.689  c-0.674-0.331-1.421-0.535-2.221-0.535c-1.636,0-3.077,0.791-4.003,1.997h-3.63v-0.142c0-1.888-1.536-3.424-3.424-3.424H55.134  c-1.888,0-3.424,1.536-3.424,3.424v7.242c0,1.888,1.536,3.424,3.424,3.424h19.263c1.888,0,3.424-1.536,3.424-3.424v-0.142h3.63  c0.927,1.206,2.368,1.998,4.003,1.998s3.077-0.791,4.003-1.998h6.769v5.256c-10.583-0.227-39.882-0.261-41.487,6.168  c-0.149,0.595-0.164,1.518,0.615,2.514c3.088,3.955,18.739,6.842,30.092,8.369l-18.611,16.553c-0.022,0.021-0.032,0.049-0.052,0.071  c-0.382-0.054-0.669-0.092-0.795-0.109c-0.344-0.049-0.676,0.06-0.924,0.29l-14.887,13.651c-0.45,0.41-0.496,1.103-0.105,1.572  c0.494,0.594,1.747,0.882,3.424,0.882c4.126,0,10.821-1.76,15.088-5.092c3.517-2.747,13.26-11.288,28.96-25.389  c0.68-0.61,1.13-1.015,1.33-1.192h3.919c3.257,0,6.261-1.067,8.711-2.852l0.967,0.864c18.076,16.179,29.045,25.79,32.605,28.571  c4.268,3.335,10.96,5.092,15.086,5.092c1.677,0,2.93-0.29,3.425-0.882C163.977,234.339,163.931,233.647,163.481,233.236z   M98.511,201.733v-21.26h16.837v8.704c0,6.923-5.632,12.557-12.557,12.557h-4.28V201.733z M64.48,196.436  c-3.637-1.055-6.377-2.214-7.325-3.429c-0.257-0.33-0.217-0.489-0.201-0.557c0.297-1.187,3.158-2.144,7.525-2.869L64.48,196.436  L64.48,196.436L64.48,196.436z M67.297,127.541c2.348,2.768,11.977,16.732,20.991,30.019l-4.627,2.93  c-4.921-8.664-10.866-19.426-13.316-25.039C68.446,131.101,67.633,128.778,67.297,127.541z M94.495,166.745  c0.591,0.877,1.171,1.741,1.735,2.579v4.193h-5.051c-0.12-0.204-0.772-1.315-1.787-3.06L94.495,166.745z M88.239,168.472  c-0.99-1.71-2.166-3.75-3.447-5.995l4.779-3.025c1.245,1.838,2.463,3.641,3.648,5.399L88.239,168.472z M96.229,188.018v13.675  c-0.557-0.031-1.228-0.081-1.998-0.15v-13.561C94.898,187.99,95.564,188.003,96.229,188.018z M70.83,188.78  c6.123-0.579,13.613-0.855,21.118-0.817v13.356c-5.543-0.589-13.924-1.771-21.118-3.315V188.78z M66.764,189.243  c0.577-0.077,1.17-0.15,1.783-0.221v8.473c-0.61-0.144-1.202-0.29-1.783-0.439C66.764,197.055,66.764,189.243,66.764,189.243z   M88.453,203.165c2.988,0.365,5.49,0.616,7.119,0.746c-8.038,7.217-14.494,12.958-19.306,17.169  c-1.215-0.387-4.124-0.879-6.551-1.25L88.453,203.165z M74.163,222.913c-3.282,2.852-5.616,4.817-6.984,5.886  c-4.411,3.447-10.927,4.62-13.894,4.682l12.926-11.852C68.204,221.904,71.937,222.456,74.163,222.913z M90.521,178.189v-0.785v-0.82  V175.8h33.246v0.785v0.82v0.785H90.521V178.189z M114.564,129.859c0,2.341-3.528,4.319-7.705,4.319  c-4.178,0-7.705-1.977-7.705-4.319c0-2.341,3.528-4.319,7.705-4.319C111.037,125.54,114.564,127.518,114.564,129.859z   M98.511,164.171v-2.389h16.837v2.389L98.511,164.171L98.511,164.171z M115.349,166.454v1.969c-0.052,0.139-0.077,0.277-0.074,0.42  H98.511v-2.391h16.838V166.454z M98.511,159.498v-2.318h16.837v2.318H98.511z M110.793,151.423l3.035,3.367H100.04l3.035-3.367  H110.793z M103.72,149.01v-12.903c0.99,0.211,2.031,0.354,3.139,0.354c1.136,0,2.201-0.146,3.21-0.367v12.918h-6.35L103.72,149.01  L103.72,149.01z M98.511,171.126h16.837v2.389H98.511V171.126z M143.315,135.451c-2.449,5.613-8.395,16.376-13.316,25.039  l-4.627-2.93c9.036-13.321,18.687-27.32,20.996-30.028C146.031,128.764,145.218,131.09,143.315,135.451z M131.615,176.585v0.82  c0,1.533-1.248,2.783-2.783,2.783s-2.783-1.248-2.783-2.783v-0.82c0-1.535,1.248-2.783,2.783-2.783  C130.366,173.802,131.615,175.05,131.615,176.585z M125.42,168.472l-4.98-3.622c1.185-1.758,2.403-3.56,3.648-5.399l4.779,3.025  C127.586,164.722,126.41,166.763,125.42,168.472z M117.632,169.026c0.501-0.745,1.01-1.503,1.533-2.281l5.104,3.711  c-1.016,1.746-1.668,2.857-1.788,3.06h-4.849C117.632,173.516,117.632,169.026,117.632,169.026z M116.344,195.196l27.605,24.635  c-2.431,0.371-5.346,0.864-6.558,1.252c-5.58-4.871-13.396-11.803-23.399-20.757l-0.726-0.649  C114.552,198.396,115.595,196.876,116.344,195.196z M147.447,221.629l12.855,11.787c-3.098-0.036-9.48-1.225-13.821-4.615  c-1.308-1.023-3.641-2.989-6.984-5.888C141.723,222.456,145.456,221.904,147.447,221.629z M160.296,173.374v7.242  c0,0.629-0.511,1.141-1.141,1.141h-19.263c-0.63,0-1.141-0.512-1.141-1.141v-0.142h0.856c0.631,0,1.141-0.51,1.141-1.141v-4.672  c0-0.631-0.511-1.141-1.141-1.141h-0.856v-0.142c0-0.629,0.511-1.141,1.141-1.141h19.263  C159.783,172.232,160.296,172.746,160.296,173.374z M138.464,178.189h-4.566v-0.785v-0.82V175.8h4.566V178.189z M53.993,180.615  v-7.242c0-0.629,0.511-1.141,1.141-1.141h19.263c0.63,0,1.141,0.512,1.141,1.141v0.142h-0.856c-0.631,0-1.141,0.511-1.141,1.141  v4.672c0,0.631,0.511,1.141,1.141,1.141h0.856v0.142c0,0.629-0.511,1.141-1.141,1.141H55.134  C54.504,181.757,53.993,181.245,53.993,180.615z M75.825,175.8h4.566v0.785v0.82v0.785h-4.566  C75.825,178.189,75.825,175.8,75.825,175.8z M88.238,177.405c0,1.533-1.248,2.783-2.783,2.783c-1.533,0-2.783-1.248-2.783-2.783  v-0.82c0-1.535,1.248-2.783,2.783-2.783s2.783,1.248,2.783,2.783V177.405z"/>
<g>
</g>
<g>
</g>
<g>
</g>
<g>
</g>
<g>
</g>
<g>
</g>
<g>
</g>
<g>
</g>
<g>
</g>
<g>
</g>
<g>
</g>
<g>
</g>
<g>
</g>
<g>
</g>
<g>
</g>
</svg>
