<?xml version="1.0" encoding="iso-8859-1"?>
<!-- Generator: Adobe Illustrator 19.0.0, SVG Export Plug-In . SVG Version: 6.00 Build 0)  -->
<svg xmlns="http://www.w3.org/2000/svg" xmlns:xlink="http://www.w3.org/1999/xlink" version="1.1" id="Layer_1" x="0px" y="0px" viewBox="0 0 511.999 511.999" style="enable-background:new 0 0 511.999 511.999;" xml:space="preserve">
<path style="fill:#F5F5F5;" d="M482.441,341.809L482.441,341.809l-0.003-17.901l-0.005-27.164l-0.014-81.491l-0.005-27.164  l-0.008-42.485c0-0.776-0.026-1.548-0.079-2.317c-0.155-2.303-0.539-4.561-1.123-6.753c-0.42-1.572-0.948-3.107-1.577-4.597  c-2.568-6.092-6.814-11.419-12.362-15.28c-0.812-0.565-1.642-1.11-2.509-1.611l-23.71-13.684l-22.198-12.811l-17.87-10.313  L332.641,38.8l-26.659-15.386l-19.994-11.539l-12.39-7.151c-0.682-0.394-1.375-0.764-2.076-1.107  c-2.804-1.378-5.746-2.363-8.748-2.953C260.524,0.221,258.238,0,255.954,0c-1.523,0-3.047,0.099-4.559,0.296  c-4.54,0.592-8.99,2.069-13.084,4.434l-12.307,7.108L206.01,23.386l-26.659,15.398l0,0l-68.33,39.465L81.075,95.546l-22.191,12.818  l-11.697,6.756c-0.841,0.486-1.648,1.015-2.439,1.562c-3.392,2.349-6.296,5.254-8.638,8.536c-0.982,1.378-1.849,2.832-2.623,4.335  c-0.464,0.902-0.902,1.817-1.288,2.757c-0.429,1.045-0.809,2.111-1.138,3.197c-0.987,3.255-1.513,6.677-1.512,10.176l0.004,24.509  l0,0l0.003,17.9l0.005,27.164l0.014,81.478v0.014v0.005l0.005,27.159l0.007,42.478v0.006c0,2.902,0.357,5.752,1.041,8.496  c0.512,2.059,1.208,4.06,2.073,5.978c0.289,0.64,0.596,1.27,0.922,1.891c0.651,1.241,1.377,2.443,2.172,3.599  c2.384,3.468,5.397,6.521,8.931,8.98c0.812,0.565,1.642,1.11,2.509,1.611l23.377,13.491l22.198,12.811l18.204,10.506l94.999,54.826  l19.994,11.539l12.39,7.151c2.047,1.181,4.184,2.141,6.376,2.879c5.846,1.969,12.085,2.362,18.089,1.178  c2.251-0.444,4.469-1.108,6.619-1.996c0.717-0.296,1.426-0.616,2.127-0.961s1.393-0.714,2.076-1.108l12.307-7.108l19.994-11.548  l26.659-15.397l57.587-33.261l10.742-6.205l27.325-15.782l22.191-12.818l14.319-8.27c0.841-0.486,1.648-1.013,2.439-1.561  c1.775-1.228,3.418-2.608,4.917-4.114c1-1.003,1.934-2.064,2.802-3.174c3.035-3.885,5.237-8.379,6.437-13.195  c0.685-2.752,1.043-5.61,1.043-8.518L482.441,341.809z"/>
<polygon style="fill:#FF4B55;" points="482.441,341.809 482.438,323.909 482.434,296.746 482.42,215.254 482.415,188.091   482.413,170.191 29.553,170.191 29.555,188.091 29.56,215.254 29.574,296.732 29.574,296.746 29.574,296.751 29.579,323.909   29.581,341.809 259.747,364.719 "/>
<path style="fill:#FFE15A;" d="M467.246,395.32c0,0,0.001-0.001,0.003-0.001c0.787-0.546,1.54-1.131,2.276-1.735  c0.185-0.152,0.367-0.305,0.55-0.46c0.719-0.614,1.42-1.245,2.082-1.909c0.003-0.003,0.005-0.005,0.009-0.008  c1-1.003,1.934-2.064,2.802-3.174c0.409-0.522,0.8-1.058,1.177-1.603c0.124-0.179,0.239-0.362,0.359-0.544  c0.247-0.371,0.494-0.744,0.727-1.125c0.134-0.219,0.261-0.442,0.391-0.664c0.206-0.352,0.409-0.706,0.602-1.066  c0.127-0.236,0.251-0.476,0.374-0.716c0.182-0.357,0.357-0.717,0.527-1.081c0.114-0.242,0.226-0.486,0.334-0.731  c0.165-0.375,0.321-0.755,0.474-1.137c0.095-0.237,0.192-0.475,0.282-0.716c0.157-0.42,0.301-0.846,0.442-1.273  c0.067-0.206,0.142-0.409,0.206-0.616c0.196-0.632,0.379-1.272,0.54-1.917c0.001-0.004,0.001-0.006,0.003-0.01  c0.685-2.752,1.043-5.61,1.043-8.518l-0.004-24.508H29.581l0.004,24.577v0.006c0,2.902,0.357,5.752,1.041,8.496  c0.227,0.916,0.505,1.815,0.804,2.704c0.075,0.222,0.151,0.444,0.231,0.665c0.316,0.881,0.654,1.753,1.037,2.605  c0,0.001,0.001,0.003,0.001,0.004c0.281,0.624,0.582,1.238,0.899,1.843c0.009,0.016,0.015,0.031,0.024,0.047  c0.032,0.062,0.071,0.122,0.105,0.185c0.516,0.968,1.083,1.908,1.687,2.824c0.129,0.195,0.247,0.396,0.38,0.59  c0,0,0.001,0.001,0.001,0.003c0.529,0.77,1.101,1.51,1.691,2.237c0.147,0.182,0.297,0.362,0.449,0.542  c0.606,0.716,1.231,1.418,1.894,2.087s1.365,1.301,2.083,1.917c0.18,0.155,0.361,0.307,0.545,0.459  c0.734,0.604,1.483,1.19,2.269,1.737c0.812,0.565,1.642,1.11,2.509,1.611l23.377,13.491l22.198,12.811l18.204,10.506l94.999,54.826  l19.994,11.539l12.39,7.151c0.614,0.354,1.237,0.681,1.866,0.996c0.19,0.095,0.381,0.184,0.572,0.276  c0.465,0.221,0.932,0.432,1.405,0.634c0.195,0.082,0.389,0.167,0.584,0.246c0.637,0.257,1.278,0.501,1.927,0.721  c0.007,0.003,0.014,0.005,0.021,0.008c2.089,0.705,4.23,1.197,6.392,1.498c3.129,0.436,6.303,0.459,9.436,0.05  c0.756-0.099,1.511-0.222,2.261-0.37c0.675-0.132,1.346-0.292,2.013-0.465c0.197-0.051,0.394-0.107,0.591-0.162  c0.495-0.137,0.986-0.285,1.476-0.444c0.194-0.062,0.387-0.125,0.581-0.191c0.657-0.226,1.311-0.466,1.958-0.732  c0.322-0.134,0.637-0.29,0.957-0.432c0.391-0.175,0.785-0.34,1.171-0.529c0.595-0.292,1.18-0.612,1.762-0.941  c0.104-0.057,0.211-0.107,0.314-0.167l12.307-7.108l19.994-11.548l26.659-15.397l57.587-33.261l10.742-6.205l27.325-15.782  l22.191-12.818l14.319-8.27C465.648,396.396,466.455,395.867,467.246,395.32z"/>
<g>
</g>
<g>
</g>
<g>
</g>
<g>
</g>
<g>
</g>
<g>
</g>
<g>
</g>
<g>
</g>
<g>
</g>
<g>
</g>
<g>
</g>
<g>
</g>
<g>
</g>
<g>
</g>
<g>
</g>
</svg>
