<?xml version="1.0" encoding="iso-8859-1"?>
<!-- Generator: Adobe Illustrator 19.0.0, SVG Export Plug-In . SVG Version: 6.00 Build 0)  -->
<svg xmlns="http://www.w3.org/2000/svg" xmlns:xlink="http://www.w3.org/1999/xlink" version="1.1" id="Layer_1" x="0px" y="0px" viewBox="0 0 512.001 512.001" style="enable-background:new 0 0 512.001 512.001;" xml:space="preserve">
<path style="fill:#F5F5F5;" d="M482.432,256l-0.019-110.395c-0.003-12.607-6.729-24.255-17.649-30.557L273.602,4.724  C268.155,1.58,262.079,0.008,256.001,0c-6.107-0.006-12.214,1.57-17.685,4.729L47.189,115.118  c-10.917,6.306-17.64,17.955-17.639,30.562l0.019,110.319l0.019,110.395c0.003,12.607,6.729,24.255,17.649,30.557l191.162,110.325  c5.446,3.144,11.523,4.717,17.602,4.724c6.106,0.006,12.214-1.57,17.685-4.729l191.126-110.389  c10.917-6.306,17.64-17.955,17.639-30.562L482.432,256z"/>
<path style="fill:#FF4B55;" d="M482.432,256l-0.019-110.395c-0.003-12.607-6.729-24.255-17.649-30.557L273.602,4.724  C268.155,1.58,262.079,0.008,256.001,0v256H482.432z"/>
<g>
	<path style="fill:#4173CD;" d="M29.569,256l0.019,110.395c0.003,12.607,6.729,24.255,17.649,30.557l191.162,110.325   c5.446,3.144,11.523,4.717,17.602,4.724V256H29.569z"/>
	<path style="fill:#4173CD;" d="M135.959,138.933l8.108,24.311l25.627,0.199c3.318,0.026,4.694,4.26,2.024,6.231l-20.616,15.223   l7.73,24.433c1.001,3.163-2.601,5.78-5.3,3.85l-20.849-14.902l-20.849,14.902c-2.699,1.929-6.301-0.687-5.3-3.85l7.73-24.433   l-20.616-15.223c-2.669-1.971-1.293-6.205,2.024-6.231l25.627-0.199l8.108-24.311C130.458,135.786,134.909,135.786,135.959,138.933   z"/>
</g>
<path style="fill:#FF4B55;" d="M382.594,300.521l8.108,24.311l25.627,0.199c3.318,0.026,4.694,4.26,2.024,6.231l-20.616,15.223  l7.73,24.433c1.001,3.163-2.601,5.78-5.3,3.851l-20.849-14.902l-20.849,14.902c-2.699,1.929-6.301-0.687-5.3-3.851l7.73-24.433  l-20.616-15.223c-2.669-1.971-1.293-6.205,2.024-6.231l25.627-0.199l8.108-24.311C377.092,297.374,381.544,297.374,382.594,300.521z  "/>
<g>
</g>
<g>
</g>
<g>
</g>
<g>
</g>
<g>
</g>
<g>
</g>
<g>
</g>
<g>
</g>
<g>
</g>
<g>
</g>
<g>
</g>
<g>
</g>
<g>
</g>
<g>
</g>
<g>
</g>
</svg>
