<?xml version="1.0" encoding="iso-8859-1"?>
<!-- Generator: Adobe Illustrator 19.0.0, SVG Export Plug-In . SVG Version: 6.00 Build 0)  -->
<svg xmlns="http://www.w3.org/2000/svg" xmlns:xlink="http://www.w3.org/1999/xlink" version="1.1" id="Layer_1" x="0px" y="0px" viewBox="0 0 512.003 512.003" style="enable-background:new 0 0 512.003 512.003;" xml:space="preserve">
<path style="fill:#F5F5F5;" d="M482.437,296.747l-0.014-81.491l-0.005-27.164l-0.008-42.486  c-0.001-11.607-5.715-22.388-15.14-28.946c-0.812-0.565-1.642-1.11-2.508-1.611l-23.711-13.684l-22.198-12.81l-17.87-10.313  l-94.999-54.826l-19.995-11.539L273.6,4.726c-10.918-6.301-24.37-6.3-35.287,0.006l-12.307,7.108l-19.995,11.548L111.023,78.25  L81.078,95.547l-22.191,12.818l-11.697,6.756c-0.841,0.486-1.648,1.015-2.439,1.561c-9.465,6.556-15.201,17.365-15.2,29.001  l0.007,42.41l0.005,27.164l0.014,81.491l0.005,27.164l0.007,42.486c0.003,11.607,5.715,22.388,15.14,28.946  c0.812,0.565,1.642,1.11,2.509,1.61l23.377,13.491l22.198,12.812l18.204,10.506l94.999,54.826l19.995,11.539l12.39,7.151  c10.92,6.302,24.37,6.298,35.287-0.006l12.307-7.108l19.995-11.548l94.989-54.862l27.325-15.782l22.191-12.818l14.319-8.27  c0.841-0.486,1.648-1.015,2.439-1.561c9.465-6.556,15.201-17.365,15.2-29.001l-0.008-42.41L482.437,296.747z"/>
<g>
	<path style="fill:#FF4B55;" d="M29.641,368.083c0.526,10.957,6.121,21.021,15.087,27.259c0.812,0.565,1.642,1.11,2.509,1.611   l23.377,13.491l22.198,12.811l18.204,10.506l94.999,54.826l6.984,4.031l13.01,7.509l12.39,7.151   c10.92,6.302,24.37,6.298,35.287-0.006l12.307-7.108l13.064-7.545l6.931-4.003l94.989-54.862l27.325-15.782l22.191-12.818   l14.319-8.27c0.841-0.486,1.648-1.013,2.439-1.562c8.985-6.222,14.6-16.281,15.146-27.239L29.641,368.083L29.641,368.083z"/>
	<path style="fill:#FF4B55;" d="M467.272,116.66c-0.812-0.565-1.642-1.11-2.509-1.611l-23.71-13.684l-22.198-12.81l-17.87-10.313   l-94.998-54.826l-6.984-4.031l-13.01-7.509l-12.39-7.151c-10.918-6.302-24.37-6.3-35.287,0.006l-12.307,7.108l-13.064,7.545   l-6.931,4.003l-94.99,54.864L81.078,95.547l-22.191,12.818l-11.697,6.756c-0.841,0.486-1.648,1.015-2.439,1.561   c-8.985,6.223-14.6,16.282-15.146,27.239H482.36C481.835,132.962,476.239,122.9,467.272,116.66z"/>
</g>
<path style="fill:#FFB955;" d="M333.27,226.071l-74.402,30.37c-0.029-0.076-0.065-0.144-0.1-0.216l71.855-35.986  c-2.84-5.671-6.292-10.983-10.297-15.826l-61.949,51.232c-0.063-0.077-0.097-0.176-0.166-0.247l56.788-56.844  c-4.051-4.053-8.53-7.673-13.341-10.826l-43.968,67.299c-0.1-0.067-0.19-0.145-0.297-0.2l35.923-71.899  c-5.77-2.89-11.919-5.126-18.356-6.623l-18.256,78.294c-0.232-0.056-0.454-0.141-0.702-0.141c-0.249,0-0.47,0.086-0.702,0.141  l-18.256-78.294c-6.437,1.497-12.587,3.731-18.356,6.623l35.923,71.899c-0.107,0.055-0.197,0.134-0.297,0.2l-43.968-67.299  c-4.812,3.153-9.29,6.774-13.341,10.826l56.787,56.844c-0.069,0.071-0.104,0.169-0.166,0.247l-61.949-51.232  c-4.005,4.842-7.455,10.155-10.297,15.826l71.855,35.986c-0.035,0.072-0.07,0.14-0.1,0.216l-74.402-30.37  c-2.243,5.5-3.91,11.293-4.94,17.307L253,257.091c-0.01,0.069-0.035,0.132-0.041,0.202l-79.956-8.329  c-0.289,2.822-0.437,5.683-0.437,8.581c0,5.01,0.466,9.909,1.313,14.675l82.119-8.495l82.119,8.495  c0.846-4.767,1.313-9.665,1.313-14.675c0-2.897-0.149-5.76-0.437-8.581l-79.956,8.329c-0.006-0.07-0.03-0.134-0.041-0.202  l79.211-13.714C337.181,237.365,335.514,231.572,333.27,226.071z"/>
<g>
	<path style="fill:#4173CD;" d="M175.365,278.992c0.572,2.158,1.233,4.279,1.971,6.365h157.331c0.737-2.086,1.398-4.208,1.971-6.365   c-7.709-0.996-8.665-5.995-18.054-5.995c-10.425,0-10.425,6.181-20.849,6.181s-10.425-6.181-20.849-6.181   c-10.427,0-10.427,6.181-20.856,6.181c-10.422,0-10.422-6.181-20.844-6.181c-10.431,0-10.431,6.181-20.862,6.181   c-10.438,0-10.438-6.181-20.877-6.181C184.042,272.996,183.086,277.998,175.365,278.992z"/>
	<path style="fill:#4173CD;" d="M316.124,294.627c-10.035-0.001-10.036-6.18-20.073-6.18c-10.039,0-10.039,6.18-20.077,6.18   s-10.039-6.18-20.077-6.18c-10.041,0-10.041,6.18-20.083,6.18c-10.036,0-10.036-6.18-20.072-6.18c-10.045,0-10.045,6.18-20.09,6.18   c-8.913,0-9.937-4.849-17.057-5.951c1.7,4.223,3.714,8.284,6.052,12.132h131.474h0.008h11.227   c2.343-3.856,4.361-7.928,6.063-12.162C326.086,289.676,325.129,294.626,316.124,294.627z"/>
	<path style="fill:#4173CD;" d="M324.104,305.712c-1.942-1.017-4.243-1.815-7.839-1.815c-10.039,0-10.039,6.18-20.077,6.18   c-10.039,0-10.039-6.18-20.078-6.18c-10.041,0-10.041,6.18-20.083,6.18c-10.036,0-10.036-6.18-20.072-6.18   c-10.045,0-10.045,6.18-20.09,6.18c-10.052,0-10.052-6.18-20.103-6.18c-3.608,0-5.913,0.8-7.86,1.821   c2.658,3.751,5.606,7.282,8.833,10.54h118.531C318.496,312.998,321.444,309.466,324.104,305.712z"/>
	<path style="fill:#4173CD;" d="M307.412,323.23c-3.033-1.758-5.472-3.883-11.362-3.883c-10.039,0-10.039,6.18-20.077,6.18   s-10.039-6.18-20.077-6.18c-10.041,0-10.041,6.18-20.083,6.18c-10.036,0-10.036-6.18-20.072-6.18c-5.812,0-8.265,2.067-11.243,3.81   c4.135,3.25,8.584,6.117,13.295,8.55h76.415C298.886,329.294,303.302,326.452,307.412,323.23z"/>
	<path style="fill:#4173CD;" d="M235.954,334.798c-3.29,0-5.496,0.667-7.337,1.558c8.58,2.98,17.786,4.621,27.381,4.621h0.016   C245.992,340.973,245.987,334.798,235.954,334.798z"/>
	<path style="fill:#4173CD;" d="M256.075,340.977c9.581-0.009,18.775-1.651,27.343-4.631c-1.835-0.886-4.034-1.547-7.308-1.547   C266.085,334.798,266.065,340.955,256.075,340.977z"/>
</g>
<g>
	<path style="fill:#FF4B55;" d="M266.976,246.982l-26.439-7.642c-1.483-0.429-2.511-1.767-2.529-3.31   c-0.122-9.79-0.547-44.263-0.547-49.556c0-6.18,6.181-15.451,18.54-15.451h9.745c0.922,0,1.201,1.256,0.352,1.62   c-4.464,1.914-10.098,5.901-10.098,13.831c0,9.416,8.968,13.453,13.239,14.841c1.321,0.429,2.212,1.642,2.212,3.03v39.272   C271.451,245.949,269.215,247.63,266.976,246.982z"/>
	<path style="fill:#FF4B55;" d="M243.656,281.567c0.97-0.587,2.118,0.394,1.682,1.44c-2.588,6.212-8.93,17.801-20.239,17.801   c-15.451,0-18.54-12.36-18.54-21.63v-65.545c0-1.346,1.091-2.437,2.437-2.437h4.396c1.346,0,2.437,1.091,2.437,2.437v62.454   C215.83,284.442,233.4,287.776,243.656,281.567z"/>
	<path style="fill:#FF4B55;" d="M267.048,281.567c-0.97-0.587-2.118,0.394-1.682,1.44c2.588,6.212,8.93,17.801,20.238,17.801   c15.451,0,18.54-12.36,18.54-21.63v-65.545c0-1.346-1.091-2.437-2.437-2.437h-4.396c-1.346,0-2.437,1.091-2.437,2.437v62.454   C294.875,284.442,277.304,287.776,267.048,281.567z"/>
</g>
<g>
	<path style="fill:#AA4650;" d="M288.719,271.452h-65.437c-0.702,0-1.272-0.57-1.272-1.272v-0.545c0-0.702,0.57-1.272,1.272-1.272   h65.437c0.702,0,1.272,0.57,1.272,1.272v0.545C289.991,270.882,289.421,271.452,288.719,271.452z"/>
	<path style="fill:#AA4650;" d="M228.575,259.788l3.345-4.461c0.514-0.682,0.374-1.651-0.309-2.163   c-0.682-0.51-1.651-0.369-2.162,0.311l-1.302,1.736v-1.2c0-0.854-0.691-1.545-1.545-1.545s-1.545,0.691-1.545,1.545v1.086   l-1.217-1.623c-0.511-0.682-1.481-0.824-2.162-0.311c-0.684,0.514-0.822,1.482-0.309,2.163l3.345,4.461l-3.345,4.461   c-0.514,0.682-0.374,1.651,0.309,2.163c0.277,0.209,0.602,0.307,0.925,0.307c0.471,0,0.933-0.214,1.237-0.619l2.804-3.74   l2.805,3.74c0.304,0.405,0.766,0.619,1.237,0.619c0.322,0,0.647-0.1,0.925-0.307c0.684-0.512,0.822-1.482,0.309-2.163   L228.575,259.788z"/>
	<path style="fill:#AA4650;" d="M257.416,259.788l3.345-4.461c0.514-0.682,0.374-1.651-0.309-2.163   c-0.682-0.51-1.651-0.369-2.162,0.311l-1.302,1.736v-1.2c0-0.854-0.691-1.545-1.545-1.545c-0.854,0-1.545,0.691-1.545,1.545v1.086   l-1.217-1.623c-0.511-0.682-1.48-0.824-2.162-0.311c-0.684,0.514-0.822,1.482-0.31,2.163l3.345,4.461l-3.345,4.461   c-0.514,0.682-0.374,1.651,0.31,2.163c0.277,0.209,0.602,0.307,0.925,0.307c0.471,0,0.933-0.214,1.237-0.619l2.805-3.74l2.805,3.74   c0.304,0.405,0.766,0.619,1.237,0.619c0.322,0,0.647-0.1,0.925-0.307c0.684-0.512,0.822-1.482,0.309-2.163L257.416,259.788z"/>
	<path style="fill:#AA4650;" d="M242.996,259.788l3.345-4.461c0.514-0.682,0.374-1.651-0.309-2.163   c-0.682-0.51-1.651-0.369-2.162,0.311l-1.302,1.736v-1.2c0-0.854-0.691-1.545-1.545-1.545s-1.545,0.691-1.545,1.545v1.086   l-1.217-1.623c-0.511-0.682-1.481-0.824-2.162-0.311c-0.684,0.514-0.822,1.482-0.309,2.163l3.345,4.461l-3.345,4.461   c-0.514,0.682-0.374,1.651,0.309,2.163c0.277,0.209,0.602,0.307,0.925,0.307c0.471,0,0.933-0.214,1.237-0.619l2.804-3.74   l2.805,3.74c0.304,0.405,0.766,0.619,1.237,0.619c0.322,0,0.647-0.1,0.925-0.307c0.684-0.512,0.822-1.482,0.309-2.163   L242.996,259.788z"/>
	<path style="fill:#AA4650;" d="M271.836,259.788l3.345-4.461c0.512-0.682,0.374-1.651-0.31-2.163   c-0.682-0.51-1.651-0.369-2.162,0.311l-1.302,1.736v-1.2c0-0.854-0.691-1.545-1.545-1.545s-1.545,0.691-1.545,1.545v1.086   l-1.217-1.623c-0.511-0.682-1.48-0.824-2.162-0.311c-0.684,0.514-0.822,1.482-0.31,2.163l3.345,4.461l-3.345,4.461   c-0.514,0.682-0.374,1.651,0.31,2.163c0.277,0.209,0.602,0.307,0.925,0.307c0.471,0,0.934-0.214,1.237-0.619l2.805-3.74l2.804,3.74   c0.304,0.405,0.766,0.619,1.237,0.619c0.322,0,0.647-0.1,0.925-0.307c0.684-0.512,0.822-1.482,0.31-2.163L271.836,259.788z"/>
	<path style="fill:#AA4650;" d="M286.257,259.788l3.345-4.461c0.512-0.682,0.374-1.651-0.309-2.163   c-0.682-0.51-1.651-0.369-2.162,0.311l-1.302,1.736v-1.2c0-0.854-0.691-1.545-1.545-1.545s-1.545,0.691-1.545,1.545v1.086   l-1.217-1.623c-0.511-0.682-1.48-0.824-2.162-0.311c-0.684,0.514-0.822,1.482-0.31,2.163l3.345,4.461l-3.345,4.461   c-0.514,0.682-0.374,1.651,0.31,2.163c0.277,0.209,0.602,0.307,0.925,0.307c0.471,0,0.934-0.214,1.237-0.619l2.805-3.74l2.804,3.74   c0.304,0.405,0.766,0.619,1.237,0.619c0.322,0,0.647-0.1,0.925-0.307c0.684-0.512,0.822-1.482,0.309-2.163L286.257,259.788z"/>
	<path style="fill:#AA4650;" d="M225.724,280.994c2.286,1,15.711,1.142,19.137-2.428c3.428-3.57,2.713-5.141,2.713-5.141   l-16.282,0.142L225.724,280.994z"/>
	<path style="fill:#AA4650;" d="M285.626,280.994c-2.286,1-15.711,1.142-19.137-2.428c-3.428-3.57-2.713-5.141-2.713-5.141   l16.281,0.142L285.626,280.994z"/>
</g>
<g>
</g>
<g>
</g>
<g>
</g>
<g>
</g>
<g>
</g>
<g>
</g>
<g>
</g>
<g>
</g>
<g>
</g>
<g>
</g>
<g>
</g>
<g>
</g>
<g>
</g>
<g>
</g>
<g>
</g>
</svg>
