<?xml version="1.0" encoding="iso-8859-1"?>
<!-- Generator: Adobe Illustrator 19.0.0, SVG Export Plug-In . SVG Version: 6.00 Build 0)  -->
<svg xmlns="http://www.w3.org/2000/svg" xmlns:xlink="http://www.w3.org/1999/xlink" version="1.1" id="Layer_1" x="0px" y="0px" viewBox="0 0 512.004 512.004" style="enable-background:new 0 0 512.004 512.004;" xml:space="preserve">
<path style="fill:#464655;" d="M44.096,117.167c-2.83,2.059-5.311,4.505-7.385,7.242c-0.007,0.01-0.015,0.02-0.022,0.03  c-0.404,0.535-0.792,1.08-1.166,1.636c-0.02,0.03-0.039,0.06-0.059,0.09c-0.359,0.537-0.702,1.083-1.03,1.64  c-0.032,0.055-0.062,0.111-0.094,0.166c-0.311,0.534-0.61,1.075-0.892,1.625c-0.044,0.086-0.084,0.175-0.127,0.262  c-0.264,0.524-0.519,1.051-0.755,1.587c-0.055,0.124-0.102,0.25-0.155,0.374c-0.216,0.505-0.427,1.013-0.621,1.528  c-0.062,0.169-0.116,0.34-0.176,0.509c-0.171,0.479-0.34,0.958-0.49,1.445c-0.066,0.215-0.121,0.435-0.184,0.652  c-0.129,0.447-0.26,0.895-0.371,1.348c-0.066,0.271-0.117,0.547-0.179,0.821c-0.09,0.406-0.184,0.811-0.259,1.221  c-0.061,0.339-0.105,0.681-0.157,1.021c-0.054,0.354-0.116,0.705-0.16,1.061c-0.052,0.431-0.084,0.867-0.12,1.301  c-0.022,0.271-0.056,0.541-0.074,0.814c-0.044,0.711-0.066,1.426-0.066,2.144l0.007,42.41l0.005,27.164l0.014,81.491l0.005,27.164  l0.007,42.485c0,2.902,0.357,5.752,1.041,8.498c0.512,2.059,1.208,4.059,2.073,5.978c0.289,0.64,0.596,1.27,0.922,1.891  c0.651,1.241,1.377,2.443,2.172,3.6c2.384,3.468,5.397,6.521,8.931,8.98c0.812,0.565,1.642,1.11,2.509,1.611l23.377,13.491  l22.198,12.812l18.204,10.506l10.036,5.792l84.962,49.034l19.995,11.539l12.39,7.151c0.682,0.394,1.375,0.764,2.076,1.107  c1.402,0.689,2.838,1.28,4.3,1.772c5.846,1.968,12.087,2.362,18.089,1.178c2.251-0.444,4.469-1.108,6.619-1.996  c0.717-0.296,1.426-0.616,2.127-0.961c0.701-0.345,1.393-0.715,2.076-1.108l12.307-7.108l19.995-11.548l94.989-54.863l27.325-15.782  l22.191-12.818l14.319-8.27c0.841-0.486,1.648-1.013,2.439-1.562c0.073-0.05,0.141-0.106,0.214-0.157  c0.147-0.109,0.294-0.219,0.442-0.327L267.249,243.505L44.096,117.167z"/>
<path style="fill:#FF4B55;" d="M482.451,366.32l-0.008-42.41l-0.005-27.164l-0.014-81.491l-0.005-27.164l-0.008-42.486  c-0.003-11.607-5.715-22.389-15.14-28.946c-0.812-0.565-1.642-1.11-2.509-1.611l-23.71-13.684l-22.198-12.81l-17.87-10.313  l-94.999-54.826L285.99,11.876L273.6,4.725c-10.92-6.302-24.37-6.3-35.287,0.006l-12.307,7.108l-19.995,11.548l-94.988,54.864  L81.079,95.547l-22.191,12.818l-11.697,6.756c-0.841,0.486-1.647,1.016-2.439,1.561c-0.736,0.507-0.656,0.485-0.656,0.485  l423.812,277.669c-0.149,0.107-0.295,0.217-0.442,0.327C476.8,388.594,482.452,377.866,482.451,366.32z"/>
<g>
	<path style="fill:#F5F5F5;" d="M72.024,270.658l-4.965,14.887l-15.693,0.121c-1.505,0.011-2.129,1.932-0.919,2.827l12.625,9.322   l-4.734,14.963c-0.454,1.435,1.18,2.622,2.404,1.747l12.768-9.126l12.768,9.126c1.225,0.875,2.858-0.312,2.404-1.747l-4.734-14.963   l12.625-9.322c1.211-0.893,0.586-2.814-0.918-2.827l-15.693-0.121l-4.965-14.887C74.52,269.23,72.501,269.23,72.024,270.658z"/>
	<path style="fill:#F5F5F5;" d="M178.94,270.658l-4.965,14.887l-15.693,0.121c-1.505,0.011-2.129,1.932-0.919,2.827l12.625,9.322   l-4.734,14.963c-0.454,1.435,1.18,2.622,2.404,1.747l12.768-9.126l12.768,9.126c1.225,0.875,2.858-0.312,2.404-1.747l-4.734-14.963   l12.625-9.322c1.211-0.893,0.586-2.814-0.919-2.827l-15.693-0.121l-4.965-14.887C181.436,269.23,179.416,269.23,178.94,270.658z"/>
	<path style="fill:#F5F5F5;" d="M125.482,205.852l-4.965,14.887l-15.693,0.121c-1.505,0.011-2.129,1.932-0.918,2.827l12.625,9.322   l-4.734,14.963c-0.454,1.435,1.18,2.622,2.404,1.747l12.768-9.126l12.768,9.126c1.225,0.875,2.858-0.311,2.404-1.747l-4.734-14.963   l12.625-9.322c1.211-0.893,0.586-2.814-0.919-2.827l-15.693-0.121l-4.965-14.887C127.978,204.425,125.958,204.425,125.482,205.852z   "/>
	<path style="fill:#F5F5F5;" d="M125.482,365.219l-4.965,14.888l-15.693,0.121c-1.505,0.011-2.129,1.932-0.918,2.827l12.625,9.322   l-4.735,14.962c-0.454,1.435,1.18,2.622,2.404,1.747l12.768-9.126l12.768,9.126c1.225,0.875,2.858-0.312,2.404-1.747l-4.734-14.963   l12.625-9.322c1.211-0.893,0.586-2.814-0.918-2.827l-15.693-0.121l-4.965-14.888C127.978,363.79,125.958,363.79,125.482,365.219z"/>
	<path style="fill:#F5F5F5;" d="M150.385,326.388l-2.641,7.917l-8.345,0.065c-0.8,0.006-1.132,1.027-0.489,1.503l6.713,4.957   l-2.517,7.957c-0.241,0.764,0.627,1.395,1.278,0.929l6.789-4.852l6.789,4.852c0.651,0.465,1.52-0.166,1.278-0.929l-2.517-7.957   l6.713-4.957c0.644-0.475,0.312-1.497-0.489-1.503l-8.345-0.065l-2.641-7.917C151.713,325.63,150.638,325.63,150.385,326.388z"/>
</g>
<path style="fill:#FFE15A;" d="M448.821,246.805c-1.443-11.176-6.217-22.219-9.687-29.041c1.712,0.856,4.375,2.399,4.375,2.399  l-2.351-8.521c5.877,2.351,10.285,6.906,10.285,6.906c-2.938-14.692-7.493-21.598-7.493-21.598l3.673,1.322  c-6.906-17.043-17.19-21.892-17.19-21.892l5.877-1.47c-8.669-10.872-20.863-14.546-20.863-14.546l7.934-3.82  c-21.01-11.901-41.286,0.587-41.286,0.587s7.052-7.347,9.697-10.432c2.646-3.085-3.673-4.114-3.673-4.114s6.171-4.261,5.877-6.758  c-0.294-2.498-5.877-1.176-5.877-1.176s4.849-4.995,4.849-7.787s-4.995-1.028-4.995-1.028s1.616-3.379,2.057-6.025  c0.441-2.644-4.408-0.441-4.408-0.441s5.436-9.697,5.142-11.754s-14.251,6.612-24.242,16.162s-8.791,24.897-7.907,28.548  c0.885,3.65,1.438,12.169-2.987,15.156c-4.425,2.988-12.32-4.328-16.239-8.834c-3.918-4.506-8.815-2.938-13.909-1.176  c-5.094,1.763-14.692-0.587-17.631-0.98c-2.938-0.391,3.33,2.938,8.619,4.897c5.29,1.959,7.64,6.661,15.085,9.404  c6.521,2.403,11.742,8.503,6.612,11.313c-3.998,2.191-3.966-1.322-21.598-5.877c-17.63-4.555-38.788,40.258-38.788,40.258  c11.327-1.4,17.115-8.184,17.115-8.184l-3.06,8.776c8.37-1.586,12.463-6.674,12.463-6.674l-2.212,8.85  c6.417-1.992,10.841-8.85,10.841-8.85l-1.881,8.74c6.306-2.987,9.625-8.74,9.625-8.74c0.664,3.208,1.186,9.756,1.186,9.756  c9.766-5.221,12.048-12.635,12.048-12.635c11.166,33.792,27.328,39.375,27.328,39.375l0.881-8.815  c4.995,7.052,12.048,10.578,12.048,10.578l-1.176-7.64c17.336,21.157,37.319,26.447,37.319,26.447l-5.116-11.709l6.292,1.277  c-6.758-5.73-9.256-15.721-9.256-15.721l5.289,0.881c-8.521-7.787-12.783-16.749-12.783-16.749l5.142,0.881  c-1.616-2.498-2.938-11.313-2.938-11.313c9.404,2.938,14.251,6.612,14.251,6.612l0.556-3.199  c8.067,5.812,21.314,16.633,30.494,30.237c0.012,4.438-0.705,8.919-2.548,13.415c-8.421,20.539-30.56,19.199-40.355,14.888  c0,0,30.364,23.705,47.016-9.991c1.055-2.134,1.716-4.42,2.188-6.763c2.078,4.954,3.512,10.12,3.786,15.481  c1.763,34.381-34.087,31.148-34.087,31.148s39.669,15.868,41.432-29.972C460.063,266.684,455.748,256.493,448.821,246.805z   M412.777,212.488l0.172-0.992c6.023,1.763,12.342,6.023,12.342,6.023l1.396-4.188c5.961,7.163,10.721,14.868,13.37,22.849  C432.013,227.536,422.371,219.507,412.777,212.488z"/>
<g>
</g>
<g>
</g>
<g>
</g>
<g>
</g>
<g>
</g>
<g>
</g>
<g>
</g>
<g>
</g>
<g>
</g>
<g>
</g>
<g>
</g>
<g>
</g>
<g>
</g>
<g>
</g>
<g>
</g>
</svg>
