<?xml version="1.0" encoding="iso-8859-1"?>
<!-- Generator: Adobe Illustrator 19.0.0, SVG Export Plug-In . SVG Version: 6.00 Build 0)  -->
<svg xmlns="http://www.w3.org/2000/svg" xmlns:xlink="http://www.w3.org/1999/xlink" version="1.1" id="Layer_1" x="0px" y="0px" viewBox="0 0 512.001 512.001" style="enable-background:new 0 0 512.001 512.001;" xml:space="preserve">
<path style="fill:#F5F5F5;" d="M29.588,366.395l-0.036-220.713c-0.003-12.607,6.722-24.257,17.639-30.562L238.315,4.731  c10.917-6.306,24.368-6.307,35.287-0.006L464.763,115.05c10.918,6.302,17.646,17.95,17.649,30.557l0.036,220.713  c0.003,12.607-6.722,24.257-17.639,30.563L273.684,507.271c-10.917,6.306-24.368,6.307-35.287,0.006L47.237,396.952  C36.318,390.65,29.591,379.002,29.588,366.395z"/>
<g>
	<path style="fill:#FF4B55;" d="M41.36,119.34v136.839l19.693,7.319l22.118-7.319V94.337L47.19,115.119   C45.083,116.336,43.137,117.756,41.36,119.34z"/>
	<polygon style="fill:#FF4B55;" points="96.774,86.481 256,86.481 259.749,53.556 256,19.56 212.639,19.56  "/>
	<path style="fill:#FF4B55;" d="M108.019,108.788l84.04,87.312l56.023,58.205c0.029-0.021,0.057-0.046,0.086-0.067   c0.06-0.054,0.12-0.109,0.182-0.156c0.444-0.336,7.647-6.784,7.648-6.828c0.156-3.671-0.084-10.216-0.049-11.177   c0.003-0.06,0.011-0.116,0.014-0.176L215.18,193.53l-81.565-84.741h-25.597v-0.001H108.019z"/>
</g>
<path style="fill:#41479B;" d="M482.412,145.607c-0.003-12.607-6.729-24.255-17.649-30.557L273.601,4.726  C268.154,1.583,262.078,0.008,256,0.002V19.56v66.92v20.003H149.818L256,217.832v16.963c0,0.374-0.023,0.737-0.035,1.106l0,0  c-0.001,0.06-0.011,0.117-0.014,0.176c-0.036,0.961-0.104,1.908-0.216,2.829c-0.018,0.142-0.05,0.276-0.069,0.419  c-0.505,3.745-1.61,7.128-3.164,9.859c-0.021,0.039-0.042,0.076-0.065,0.115c-0.796,1.38-1.706,2.589-2.704,3.595  c-0.03,0.03-0.061,0.059-0.091,0.089c-0.411,0.405-0.846,0.764-1.29,1.1c-0.062,0.047-0.122,0.102-0.182,0.156  c-0.029,0.021-0.057,0.046-0.086,0.067l0,0c-1.662,1.198-3.502,1.874-5.444,1.874h-23.207L95.668,126.396v129.783h-5.872h-6.624  H41.36h-7.799H29.57l0.019,110.216c0.003,12.607,6.729,24.255,17.649,30.557l191.161,110.325c10.918,6.301,24.37,6.299,35.287-0.006  L464.81,396.882c10.917-6.305,17.64-17.955,17.639-30.562L482.412,145.607z"/>
<g>
	<path style="fill:#73AF00;" d="M383.511,208.08c-0.181,0-0.366-0.057-0.524-0.176c-0.125-0.096-12.61-9.826-5.257-26.317   c0.195-0.437,0.709-0.631,1.147-0.439c0.437,0.196,0.634,0.709,0.439,1.147c-6.782,15.207,4.249,23.866,4.721,24.227   c0.381,0.29,0.454,0.834,0.165,1.215C384.031,207.961,383.774,208.08,383.511,208.08z"/>
	<path style="fill:#73AF00;" d="M376.321,193.835c-0.034,0-0.067-0.001-0.101-0.005c-0.476-0.056-0.817-0.486-0.762-0.962   c0.361-3.118,1.533-5.294,3.488-6.467c3.144-1.889,7.072-0.38,7.237-0.314c0.446,0.175,0.665,0.676,0.49,1.122   c-0.175,0.446-0.68,0.667-1.122,0.494c-0.034-0.014-3.315-1.26-5.72,0.19c-1.462,0.882-2.354,2.623-2.647,5.176   C377.131,193.51,376.754,193.835,376.321,193.835z"/>
	<path style="fill:#73AF00;" d="M378.679,182.651c-0.075-0.191-1.951-4.645-10.431-2.751c-9.604,2.152-9.716,14.82-9.716,14.947   c0,0.435,0.324,0.805,0.757,0.861c0.037,0.005,0.075,0.006,0.11,0.006c0.39,0,0.739-0.262,0.839-0.647   c3.579-13.634,16.909-11.344,17.475-11.244c0.32,0.057,0.629-0.061,0.827-0.301C378.743,183.278,378.795,182.944,378.679,182.651z"/>
	<path style="fill:#73AF00;" d="M376.681,189.714c0,0-5.785-3.688-8.17,1.012s-0.579,9.761,0.361,11.786   c0,0,3.448-3.811,6.724-4.339c4.049-0.651,5.061-5.712,2.242-8.243C374.468,186.907,376.681,189.714,376.681,189.714z"/>
	<path style="fill:#73AF00;" d="M382.999,181.075c-0.082,5.06,2.738,5.725,2.738,5.725   C387.561,182.153,382.999,181.075,382.999,181.075z"/>
	<path style="fill:#73AF00;" d="M382.117,191.706c0.039-4.802,3.295-5.342,3.295-5.342   C387.387,190.828,382.117,191.706,382.117,191.706z"/>
</g>
<path style="fill:#FF4B55;" d="M400.903,187.833c0,0-4.605-0.681-6.372-1.515c-1.47-0.694-3.389-2.368-5.872-2.042  c-1.898,0-3.437,1.538-3.437,3.437c0,1.898,1.303,4.173,8.125,3.668c3.308-0.245,6.125,1.266,6.125,1.266  C399.038,190.84,400.903,187.833,400.903,187.833z"/>
<path style="fill:#FFE15A;" d="M396.124,189.34c0,0-7.064,0.49-8.615-0.654c-1.432-1.055-1.058-2.737,0.409-2.899  C390.122,185.542,396.124,189.34,396.124,189.34z"/>
<path style="fill:#B49B91;" d="M409.869,197.342l-15.618,9.761l-1.79-1.736l8.568-8.298l2.007,0.814l1.952-2.603l-4.664-2.441  c0,0-12.364,11.659-22.885,12.635c-3.539,0.329-7.146,0.097-9.959-1.061l-6.311,9.088l13.233,11.279l19.415-0.76l16.052-21.8  l2.82,1.302l2.386-2.82L409.869,197.342z"/>
<path style="fill:#9B8278;" d="M366.342,223.624c-4.345,0-7.88-3.535-7.88-7.879c0-4.345,3.535-7.88,7.88-7.88  c4.344,0,7.879,3.535,7.879,7.88C374.221,220.089,370.686,223.624,366.342,223.624z M366.342,210.469  c-2.909,0-5.277,2.368-5.277,5.277s2.368,5.276,5.277,5.276s5.276-2.366,5.276-5.276  C371.618,212.836,369.253,210.469,366.342,210.469z"/>
<g>
	<path style="fill:#73AF00;" d="M399.167,230.929c0,0,1.446-0.94,2.892-5.351l-2.964,0.434c0,0,0.579-2.458-0.073-4.266   l-3.327,2.603c0,0-1.518-3.182-2.169-3.615c0,0-2.314,3.254-3.615,3.688c0,0-1.302-4.7-2.603-5.64l-2.242,3.182l-3.327-2.603   c0,0,0,2.242-0.073,2.748c-0.072,0.506-4.339-4.483-4.339-4.483s-1.879,0.796-4.411,4.845l-3.182-3.254l-1.302,4.266l-4.41-1.157   l0.724,2.531l-3.833-0.289c0,0,0.651,3.76,2.531,5.061L399.167,230.929z"/>
	<path style="fill:#73AF00;" d="M360.845,247.017c0,0-11.93,15.185-34.491,13.449l24.512,3.363l12.582-11.93L360.845,247.017z"/>
</g>
<g>
	<path style="fill:#FFE15A;" d="M321.908,258.188c2.386,1.736,17.137,5.965,27.766,0.867c0,0,0.217,2.494-0.976,3.904   c0,0,7.809-3.145,12.039-9.003c4.23-5.858-8.785,12.582-8.785,12.582l-19.957,3.688l-8.134-6.724L321.908,258.188z"/>
	<path style="fill:#FFE15A;" d="M320.34,203.509c-2.649,0.222-5.516,1.818-6.982,3.756c-0.799-0.339-2.573-0.49-4.043,0.49   c-1.957,1.305-5.575,6.018-8.611,4.771c0,0-0.271,4.448,4.446,4.284c0,0-1.193,1.843-0.976,4.772   c0.217,2.928-1.898,4.881-1.898,4.881s9.545,1.356,9.924-6.073c0.046-0.909,0.092-1.707,0.136-2.422   c4.981,2.691,6.941-1.107,6.941-1.107s-2.993-2.827,0.054-6.853s11.421,5.465,11.421,5.465   C330.916,211.675,330.575,202.649,320.34,203.509z"/>
</g>
<g>
	<path style="fill:#73AF00;" d="M357.23,228.542c0,0-2.748,1.879-11.279,0.145c0,0,1.879-4.194,1.012-6.652   c0,0-2.314,2.169-7.954,4.339c-5.64,2.169-12.582,9.11-14.606,13.594c0,0,12.684-29.24,2.494-32.212   c-3.495-1.02-6.501,0.634-7.565,2.254c0.514,0.607,1.007,1.472,1.057,2.627c0.109,2.494-2.386,19.306-6.073,30.912   c0,0-1.085-4.013-2.82-5.965s-3.037-5.097-3.037-5.097s-2.928,1.952-2.494,5.531c0,0-1.627-1.301-4.772-0.434   s-4.339-1.193-4.339-1.193s-2.603,6.942,5.097,10.521c0,0-2.061,0.976-3.037,1.736c-0.976,0.76-2.494,0.76-2.494,0.76   s2.712,4.989,8.46,5.531s8.39,2.181,10.196,5.134c5.857,9.581,17.064,16.848,35.358,5.64c0,0-26.03,8.099-27.188-8.531   c-1.012-14.549,14.895-17.499,16.485-14.317c1.591,3.182-0.145,5.93-0.145,5.93s8.676-2.024,4.483-9.979   C344.07,238.809,352.602,240.111,357.23,228.542z"/>
	<path style="fill:#73AF00;" d="M440.779,258.188c-2.386,1.736-17.461,8.243-27.874-2.169   c-10.412-10.412-14.472-26.045-13.882-24.295h-10.412l3.47,31.236l38.612,7.267l8.134-6.724L440.779,258.188z"/>
	<path style="fill:#73AF00;" d="M442.348,203.509c2.649,0.222,5.516,1.818,6.982,3.756c0.799-0.339,2.573-0.49,4.043,0.49   c1.957,1.305,5.575,6.018,8.611,4.771c0,0,0.271,4.448-4.446,4.284c0,0,1.193,1.843,0.976,4.772   c-0.217,2.928,1.898,4.881,1.898,4.881s-9.545,1.356-9.924-6.073c-0.046-0.909-0.092-1.707-0.136-2.422   c-4.981,2.691-6.941-1.107-6.941-1.107s2.993-2.827-0.054-6.853s-11.421,5.465-11.421,5.465   C431.773,211.675,432.113,202.649,442.348,203.509z"/>
</g>
<path style="fill:#FFE15A;" d="M405.458,228.542c0,0,2.748,1.879,11.279,0.145c0,0-1.879-4.194-1.012-6.652  c0,0,2.314,2.169,7.954,4.339c5.64,2.169,12.582,9.11,14.606,13.594c0,0-12.684-29.24-2.494-32.212  c3.495-1.02,6.501,0.634,7.565,2.254c-0.514,0.607-1.007,1.472-1.058,2.627c-0.109,2.494,2.386,19.306,6.073,30.912  c0,0,1.085-4.013,2.82-5.965c1.736-1.952,3.037-5.097,3.037-5.097s2.928,1.952,2.494,5.531c0,0,1.627-1.301,4.772-0.434  s4.339-1.193,4.339-1.193s2.603,6.942-5.097,10.521c0,0,2.061,0.976,3.037,1.736s2.494,0.76,2.494,0.76s-2.712,4.989-8.46,5.531  s-8.39,2.181-10.195,5.134c-5.857,9.581-17.064,16.848-35.358,5.64c0,0,26.03,8.099,27.188-8.531  c1.012-14.549-14.895-17.499-16.485-14.317c-1.591,3.182,0.145,5.93,0.145,5.93s-8.676-2.024-4.483-9.979  C418.618,238.809,410.085,240.111,405.458,228.542z"/>
<g>
	<path style="fill:#73AF00;" d="M398.084,252.838c4.266,6.218,10.195,11.858,27.404,17.209c17.209,5.351,21.808,6.146,30.828,13.44   c0,0,1.713,1.81,2.369,4.709c0.771,3.407-4.483,13.233-4.483,13.233s0.506-2.314-2.676-6.797s-21.982-12.582-31.815-15.04   c-9.834-2.458-26.826-13.865-22.126-22.415L398.084,252.838z"/>
	<path style="fill:#73AF00;" d="M456.298,283.459c0.006,0.01,0.01,0.017,0.016,0.027c-0.011-0.011-0.02-0.024-0.031-0.035   L456.298,283.459z"/>
</g>
<g>
	<path style="fill:#FFE15A;" d="M455.864,304.609c0,0,0.434,3.145-2.169,5.857s-4.448,4.664-4.339,6.942c0,0-3.904-2.82-3.254-9.11   c0,0-5.097,4.23-12.798,0.109c0,0,0.76-7.7,10.737-8.676c0,0-3.905-3.037,1.193-7.7c0,0,0.592,2.086,5.206,3.145   c4.013,0.922,11.153-4.111,5.873-11.687C465.408,293.763,460.744,300.812,455.864,304.609z"/>
	<path style="fill:#FFE15A;" d="M394.36,247.126c0,0,2.199,3.595,7.918,7.086c6.869,4.194,7.484,6.146,7.484,6.146l-4.664-0.109   c0,0,5.965,3.254,7.592,7.375c0,0-2.494,0.434-5.315-0.325c0,0,2.278,2.061,1.193,8.676h-11.606L394.36,247.126z"/>
</g>
<path style="fill:#73AF00;" d="M371.257,276.844v-27.766c0,0-9.424,16.123-17.565,27.766H371.257z"/>
<path style="fill:#FFE15A;" d="M363.151,248.499c-2.314,4.194-9.545,18.004-26.754,23.355c-17.209,5.351-20.354,4.339-29.373,11.632  c0,0-1.713,1.809-2.369,4.709c-0.771,3.407,4.483,13.233,4.483,13.233s-0.506-2.314,2.676-6.797s21.875-13.053,31.815-15.04  c13.746-2.748,26.183-17.498,24.158-27.043C365.762,243.004,363.151,248.499,363.151,248.499z"/>
<g>
	<path style="fill:#73AF00;" d="M307.041,283.459c-0.006,0.01-0.01,0.017-0.016,0.027c0.011-0.011,0.02-0.024,0.031-0.035   L307.041,283.459z"/>
	<path style="fill:#73AF00;" d="M307.475,304.609c0,0-0.434,3.145,2.169,5.857s4.446,4.664,4.339,6.942c0,0,3.904-2.82,3.254-9.11   c0,0,5.097,4.23,12.798,0.109c0,0-0.759-7.7-10.737-8.676c0,0,3.904-3.037-1.193-7.7c0,0-0.592,2.086-5.206,3.145   c-4.013,0.922-11.153-4.111-5.873-11.687C297.931,293.763,302.595,300.812,307.475,304.609z"/>
</g>
<path style="fill:#FFE15A;" d="M331.489,350.885c0,0,2.458,11.063,2.603,22.488c0,0,10.773,0.361,15.979-7.737  c0,0-10.412-5.423-15.979-15.907L331.489,350.885z"/>
<path style="fill:#73AF00;" d="M329.175,326.445c-0.434-5.206,1.879-18.366,12.437-27.91l0.259-11.688c0,0-3.144,0.326-5.933,2.768  l-5.966,9.245l-5.531,20.933L329.175,326.445z"/>
<path style="fill:#FFE15A;" d="M329.464,330.205c0,0,0,11.136,4.627,19.522l-2.603,1.157c0,0-9.327-7.339-11.279-22.415  c0,0-8.351,5.531-11.424-5.785c0,0,8.966,3.615,11.858-4.627c2.609-7.438,5.246-20.978,15.293-28.442  c-4.776,7.34-11.968,26.129-6.4,32.781c1.475,1.761,5.712,3.254,10.351,1.273C339.585,327.37,337.819,333.023,329.464,330.205z"/>
<path style="fill:#FFCE5A;" d="M330.815,352.86l-1.523-2.799c-0.266-0.49-0.085-1.103,0.405-1.37l2.781-1.512  c0.49-0.266,1.102-0.085,1.368,0.405l1.523,2.799c0.266,0.49,0.085,1.103-0.405,1.37l-2.781,1.512  C331.694,353.53,331.082,353.349,330.815,352.86z"/>
<g>
	<path style="fill:#FFE15A;" d="M424.909,350.885c0,0-2.458,11.063-2.603,22.488c0,0-10.773,0.361-15.979-7.737   c0,0,10.412-5.423,15.979-15.907L424.909,350.885z"/>
	<path style="fill:#FFE15A;" d="M427.222,326.445c0.434-5.206-1.879-18.366-12.437-27.91l-0.259-11.688c0,0,3.144,0.326,5.933,2.768   l5.966,9.245l5.531,20.933L427.222,326.445z"/>
</g>
<path style="fill:#73AF00;" d="M416.511,323.67c4.639,1.981,8.876,0.489,10.351-1.273c5.567-6.652-1.623-25.441-6.4-32.781  c10.047,7.465,12.684,21.004,15.293,28.442c2.892,8.243,11.858,4.627,11.858,4.627c-3.073,11.316-11.424,5.785-11.424,5.785  c-1.952,15.076-11.279,22.415-11.279,22.415l-2.603-1.157c4.628-8.388,4.628-19.522,4.628-19.522  C418.578,333.023,416.813,327.37,416.511,323.67z"/>
<path style="fill:#FFCE5A;" d="M425.582,352.86l1.523-2.799c0.266-0.49,0.085-1.103-0.405-1.37l-2.78-1.512  c-0.49-0.266-1.102-0.085-1.368,0.405l-1.523,2.799c-0.266,0.49-0.085,1.103,0.405,1.37l2.78,1.512  C424.704,353.53,425.316,353.349,425.582,352.86z"/>
<path style="fill:#4173CD;" d="M343.491,273.372c-1.917,0-3.47,1.553-3.47,3.47v38.178c0,10.412,3.47,48.59,38.178,62.473  c34.707-13.882,38.178-52.061,38.178-62.473v-38.178c0-1.917-1.553-3.47-3.47-3.47H343.491z"/>
<path style="fill:#FFE15A;" d="M376.095,273.372l-32.916,63.086c0.824,2.918,1.852,5.937,3.14,8.989l31.879-61.103l31.879,61.103  c1.29-3.052,2.317-6.071,3.14-8.989l-32.916-63.086H376.095L376.095,273.372z"/>
<path style="fill:#73AF00;" d="M410.078,345.449l-31.879-61.103l-31.879,61.103l0,0c5.25,12.428,14.751,25.194,31.879,32.046  C395.327,370.643,404.827,357.875,410.078,345.449L410.078,345.449z"/>
<path style="fill:#FFE15A;" d="M391.106,349.403l2.099,1.007c-0.88,1.301-2.713,3.407-6.217,5.312  c-2.647,1.441-5.206,3.145-7.053,4.453v-28.643l8.676-0.892v-3.47l-8.676-0.892v-4.314c0-0.958-0.777-1.736-1.736-1.736  c-0.817,0-1.471,0.577-1.655,1.338c-0.577-0.412-1.246-0.707-2.007-0.707c-1.942,0-3.523,1.581-3.523,3.523  c0,0.915,0.371,1.732,0.945,2.359l-4.171,0.429v3.47l8.676,0.892v28.643c-1.847-1.307-4.406-3.012-7.053-4.453  c-3.505-1.907-5.337-4.013-6.217-5.312l2.099-1.007l-7.918-10.087v13.882l2.669-1.28c1.056,1.701,3.288,4.448,7.709,6.852  c3.698,2.013,7.288,4.629,8.71,5.7l1.736,1.346l1.736-1.346c1.423-1.071,5.012-3.686,8.71-5.7c4.421-2.404,6.653-5.151,7.709-6.852  l2.669,1.28v-13.882L391.106,349.403z M374.536,326.169c-0.986,0-1.788-0.802-1.788-1.788s0.801-1.788,1.788-1.788  s1.788,0.802,1.788,1.788S375.522,326.169,374.536,326.169z"/>
<path style="fill:#F5F5F5;" d="M380.267,318.491h-4.138c-1.733,0-3.138-1.405-3.138-3.138v-7.608c0-1.733,1.405-3.138,3.138-3.138  h4.138c1.733,0,3.138,1.405,3.138,3.138v7.608C383.405,317.086,382.001,318.491,380.267,318.491z"/>
<path style="fill:#B49B91;" d="M402.494,273.372c-6.942-10.412-6.942-31.236-6.942-31.236s0-13.882-17.354-13.882  c-8.791,0-13.12,3.563-15.26,7.078c-8.329,3.347-12.505,10.276-12.505,10.276c3.55,1.776,6.688,2.622,9.534,2.838  c5.657,6.733,7.54,13.235,8.042,17.911c-3.259,3.328-5.066,11.354-0.221,17.428c0,0,10.267-2.386,18.935-10.412h15.771V273.372z"/>
<g>
	<path style="fill:#9B8278;" d="M386.72,273.372h12.953C399.023,266.973,392.733,268.004,386.72,273.372z"/>
	<path style="fill:#9B8278;" d="M399.351,266.82c-3.794-10.768-3.799-24.685-3.799-24.685s-0.001-0.226-0.036-0.616   c-4.519-0.614-9.144-0.281-18.185,3.219c-9.626,3.726-14.337,3.833-17.364,3.705c5.657,6.733,7.54,13.235,8.042,17.911l0.14,7.378   c0,0,5.423,0.795,17.354-6.073C391.452,264.233,396.498,263.941,399.351,266.82z"/>
	<path style="fill:#9B8278;" d="M380.875,240.617c7.041-1.76,11.532-1.58,14.425-0.551c-0.775-3.866-3.963-11.814-17.1-11.814   c-8.791,0-13.12,3.563-15.26,7.078l-5.275,7.383C357.663,242.714,364.263,244.77,380.875,240.617z"/>
</g>
<path style="fill:#FFE15A;" d="M366.73,226.735c0.684,0.681,2.723,5.598,2.302,6.33c-0.27,0.47-5.701,1.82-6.582,1.131  c-0.785-0.615-1.705-5.911-1.178-6.521C361.747,227.121,366.159,226.165,366.73,226.735z"/>
<path style="fill:#73AF00;" d="M373.713,226.472c0.63,0.722,2.059,5.53,1.493,6.142c-0.364,0.394-6.417,0.872-7.258,0.115  c-0.75-0.675-0.915-5.673-0.254-6.161C368.293,226.128,373.187,225.869,373.713,226.472z"/>
<path style="fill:#FFE15A;" d="M380.322,226.29c0.654,0.68,2.144,5.2,1.56,5.775c-0.376,0.37-6.637,0.804-7.509,0.09  c-0.777-0.636-0.961-5.332-0.277-5.788C374.714,225.953,379.776,225.721,380.322,226.29z"/>
<g>
	<path style="fill:#73AF00;" d="M387.039,226.604c0.579,0.744,1.668,5.486,1.061,6.035c-0.391,0.354-6.461,0.369-7.246-0.424   c-0.7-0.706-0.517-5.54,0.175-5.962C381.657,225.873,386.556,225.984,387.039,226.604z"/>
	<path style="fill:#73AF00;" d="M400.902,229.478c0.447,0.829,0.404,5.234-0.286,5.676c-0.444,0.284-5.91-0.691-6.553-1.602   c-0.574-0.812,0.405-5.55,1.158-5.851C395.902,227.428,400.528,228.786,400.902,229.478z"/>
</g>
<path style="fill:#FFE15A;" d="M394.532,227.6c0.549,0.754,0.965,5.176,0.305,5.643c-0.425,0.3-6.679-0.214-7.438-1.031  c-0.676-0.73-0.181-5.289,0.56-5.627C388.629,226.279,394.073,226.97,394.532,227.6z"/>
<circle style="fill:#9B8278;" cx="366.34" cy="215.74" r="2.361"/>
<g>
</g>
<g>
</g>
<g>
</g>
<g>
</g>
<g>
</g>
<g>
</g>
<g>
</g>
<g>
</g>
<g>
</g>
<g>
</g>
<g>
</g>
<g>
</g>
<g>
</g>
<g>
</g>
<g>
</g>
</svg>
