<?xml version="1.0" encoding="iso-8859-1"?>
<!-- Generator: Adobe Illustrator 19.0.0, SVG Export Plug-In . SVG Version: 6.00 Build 0)  -->
<svg xmlns="http://www.w3.org/2000/svg" xmlns:xlink="http://www.w3.org/1999/xlink" version="1.1" id="Layer_1" x="0px" y="0px" viewBox="0 0 511.999 511.999" style="enable-background:new 0 0 511.999 511.999;" xml:space="preserve">
<path style="fill:#F5F5F5;" d="M29.589,366.395l-0.036-220.713c-0.003-12.607,6.722-24.257,17.639-30.563L238.315,4.731  c10.917-6.306,24.368-6.307,35.287-0.006L464.763,115.05c10.919,6.302,17.646,17.95,17.649,30.557l0.036,220.713  c0.003,12.607-6.722,24.257-17.639,30.563L273.684,507.269c-10.917,6.306-24.368,6.307-35.287,0.006L47.237,396.951  C36.318,390.649,29.591,379.001,29.589,366.395z"/>
<g>
	<path style="fill:#FF4B55;" d="M439.164,100.275L273.601,4.726c-10.918-6.302-24.37-6.3-35.287,0.006L106.281,80.99l-0.239,19.286   L439.164,100.275L439.164,100.275z"/>
	<polygon style="fill:#FF4B55;" points="259.499,307.908 482.439,307.908 482.421,204.092 259.499,204.092  "/>
	<path style="fill:#FF4B55;" d="M106.269,431.019l132.13,76.256c10.918,6.302,24.37,6.299,35.287-0.006l165.426-95.545H106.041   L106.269,431.019z"/>
</g>
<path style="fill:#41479B;" d="M313.504,247.482l-54.005-43.389L130.285,100.277L106.281,80.99L72.89,100.276l-25.7,14.843  c-10.917,6.306-17.64,17.955-17.639,30.563l0.01,58.41l0.017,103.816l0.01,58.486c0.003,12.607,6.729,24.255,17.649,30.557  l25.599,14.775l33.433,19.295l24.016-19.295L259.499,307.91l54.005-43.389C318.509,260.497,318.509,251.503,313.504,247.482z"/>
<path style="fill:#F5F5F5;" d="M139.804,209.597l10.433,31.283l32.976,0.255c4.269,0.032,6.04,5.481,2.606,8.018l-26.528,19.59  l9.947,31.441c1.287,4.07-3.347,7.438-6.821,4.955l-26.829-19.176l-26.828,19.176c-3.474,2.483-8.108-0.885-6.821-4.955  l9.947-31.441l-26.528-19.59c-3.434-2.537-1.665-7.985,2.606-8.018l32.976-0.255l10.433-31.283  C132.725,205.546,138.454,205.546,139.804,209.597z"/>
<g>
</g>
<g>
</g>
<g>
</g>
<g>
</g>
<g>
</g>
<g>
</g>
<g>
</g>
<g>
</g>
<g>
</g>
<g>
</g>
<g>
</g>
<g>
</g>
<g>
</g>
<g>
</g>
<g>
</g>
</svg>
