<?xml version="1.0" encoding="iso-8859-1"?>
<!-- Generator: Adobe Illustrator 19.0.0, SVG Export Plug-In . SVG Version: 6.00 Build 0)  -->
<svg xmlns="http://www.w3.org/2000/svg" xmlns:xlink="http://www.w3.org/1999/xlink" version="1.1" id="Layer_1" x="0px" y="0px" viewBox="0 0 512.003 512.003" style="enable-background:new 0 0 512.003 512.003;" xml:space="preserve">
<path style="fill:#F5F5F5;" d="M482.436,296.747l-0.014-81.491l-0.005-27.164l-0.008-42.486  c-0.001-11.607-5.715-22.388-15.14-28.946c-0.812-0.565-1.642-1.11-2.508-1.611l-23.711-13.684l-22.198-12.81l-17.87-10.313  l-94.999-54.826l-19.993-11.54L273.6,4.725c-10.918-6.301-24.37-6.3-35.287,0.006l-12.307,7.108l-19.995,11.548l-94.987,54.864  L81.077,95.547l-22.191,12.818l-11.697,6.756c-0.841,0.486-1.648,1.015-2.439,1.561c-9.465,6.556-15.201,17.365-15.2,29.001  l0.007,42.41l0.005,27.164l0.014,81.491l0.005,27.164l0.007,42.486c0.003,11.607,5.715,22.388,15.14,28.946  c0.812,0.565,1.642,1.11,2.509,1.61l23.377,13.491l22.198,12.812l18.204,10.506l94.999,54.826l19.995,11.539l12.39,7.151  c10.92,6.302,24.37,6.298,35.287-0.006l12.307-7.108l19.995-11.548l94.989-54.863l27.325-15.782l22.191-12.818l14.319-8.27  c0.841-0.486,1.648-1.015,2.439-1.561c9.465-6.556,15.201-17.365,15.2-29.001l-0.008-42.41L482.436,296.747z"/>
<path style="fill:#464655;" d="M482.416,170.033l-0.004-24.427c-0.003-11.607-5.715-22.389-15.14-28.946  c-0.812-0.565-1.642-1.11-2.509-1.611l-23.71-13.684l-22.198-12.81l-17.87-10.313l-94.998-54.826l-19.995-11.539l-12.39-7.151  c-10.918-6.302-24.37-6.3-35.287,0.006l-12.307,7.108l-19.995,11.548l-94.989,54.863l-8.683,5.015l27.442,51.518l48.379,35.249  L482.416,170.033L482.416,170.033z"/>
<path style="fill:#73AF00;" d="M102.331,428.749l8.684,5.011l94.999,54.826l19.995,11.539l12.39,7.151  c10.92,6.302,24.37,6.298,35.287-0.006l12.307-7.108l19.995-11.548l94.989-54.863l27.325-15.782l22.191-12.818l14.319-8.27  c0.841-0.486,1.648-1.013,2.439-1.562c9.465-6.556,15.201-17.365,15.2-29.001l-0.004-24.351H178.163l-47.13,30.25L102.331,428.749z"/>
<path style="fill:#FF4B55;" d="M247.136,248.966l-68.975-78.932L102.34,83.265L81.077,95.547l-22.191,12.818l-11.697,6.756  c-0.841,0.486-1.648,1.015-2.439,1.561c-9.465,6.556-15.201,17.365-15.2,29.001l0.004,24.351l0.003,18.059l0.005,27.164  l0.014,81.491l0.005,27.164l0.003,18.059l0.004,24.427c0.003,11.607,5.715,22.389,15.14,28.946c0.812,0.565,1.642,1.11,2.509,1.611  l23.377,13.491l22.198,12.812l9.52,5.493l75.832-86.78l68.975-78.933C250.279,259.44,250.279,252.562,247.136,248.966z"/>
<g>
</g>
<g>
</g>
<g>
</g>
<g>
</g>
<g>
</g>
<g>
</g>
<g>
</g>
<g>
</g>
<g>
</g>
<g>
</g>
<g>
</g>
<g>
</g>
<g>
</g>
<g>
</g>
<g>
</g>
</svg>
