<?xml version="1.0" encoding="iso-8859-1"?>
<!-- Generator: Adobe Illustrator 19.0.0, SVG Export Plug-In . SVG Version: 6.00 Build 0)  -->
<svg xmlns="http://www.w3.org/2000/svg" xmlns:xlink="http://www.w3.org/1999/xlink" version="1.1" id="Layer_1" x="0px" y="0px" viewBox="0 0 512.001 512.001" style="enable-background:new 0 0 512.001 512.001;" xml:space="preserve">
<path style="fill:#F5F5F5;" d="M29.59,366.395l-0.036-220.713c-0.003-12.607,6.722-24.257,17.639-30.563L238.316,4.731  c10.917-6.306,24.368-6.307,35.287-0.006L464.764,115.05c10.919,6.302,17.646,17.95,17.649,30.557l0.036,220.713  c0.003,12.607-6.722,24.257-17.639,30.563L273.685,507.269c-10.917,6.306-24.368,6.307-35.287,0.006L47.239,396.951  C36.319,390.649,29.592,379.001,29.59,366.395z"/>
<path style="fill:#FF4B55;" d="M482.413,145.605c-0.003-12.607-6.729-24.255-17.649-30.557L273.603,4.726  c-10.918-6.302-24.37-6.3-35.287,0.006L47.191,115.119c-10.917,6.306-17.64,17.955-17.639,30.563l0.004,23.806h452.86  L482.413,145.605z"/>
<path style="fill:#41479B;" d="M29.59,366.395c0.003,12.607,6.729,24.255,17.649,30.557L238.4,507.277  c10.918,6.302,24.37,6.299,35.286-0.006l191.125-110.39c10.917-6.306,17.64-17.955,17.639-30.563l-0.004-23.806H29.586  L29.59,366.395z"/>
<path style="fill:#FF4B55;" d="M256.001,324.3c37.721,0,68.3-30.578,68.3-68.3s-30.579-68.3-68.3-68.3s-68.3,30.578-68.3,68.3  C187.701,293.722,218.28,324.3,256.001,324.3z M256.001,204.49c28.447,0,51.51,23.062,51.51,51.51s-23.062,51.51-51.51,51.51  s-51.51-23.062-51.51-51.51C204.492,227.553,227.554,204.49,256.001,204.49z"/>
<path style="fill:#41479B;" d="M232.31,256c0,13.085,10.607,23.691,23.691,23.691c13.084,0,23.692-10.607,23.692-23.691  c0-13.084-10.607-23.692-23.692-23.692C242.916,232.308,232.31,242.916,232.31,256z M254.459,238.054  c0.495-1.482,2.592-1.482,3.085,0l3.819,11.449l12.069,0.094c1.563,0.012,2.211,2.006,0.953,2.934l-9.71,7.169l3.64,11.508  c0.471,1.49-1.225,2.722-2.497,1.813l-9.82-7.018l-9.82,7.018c-1.271,0.908-2.968-0.324-2.497-1.813l3.64-11.508l-9.71-7.169  c-1.257-0.928-0.61-2.922,0.953-2.934l12.069-0.094L254.459,238.054z"/>
<path style="fill:#FFE15A;" d="M237.618,252.532l9.71,7.169l-3.64,11.508c-0.471,1.49,1.225,2.722,2.497,1.813l9.82-7.018  l9.82,7.018c1.271,0.909,2.968-0.324,2.497-1.813l-3.64-11.508l9.71-7.169c1.257-0.928,0.61-2.922-0.953-2.934l-12.069-0.094  l-3.819-11.449c-0.495-1.482-2.592-1.482-3.085,0l-3.819,11.449l-12.069,0.094C237.008,249.611,236.36,251.604,237.618,252.532z"/>
<path style="fill:#64C86E;" d="M211.014,257.018l5.833,12.593c0,0-4.243-1.856-4.772-1.856s10.141,10.837,10.141,10.837  l-5.567-0.596l10.758,7.564l-3.998,0.987l8.949,3.479l-2.188,1.692l18.526,1.325c0,0,1.787,1.487,4.215,3.209  c-1.282,0.724-2.411,1.353-3.109,1.736c-0.705,0.384-1.531,0.421-2.271,0.114c-1.758-0.737-4.304-1.777-5.531-2.268  c0,0,0.119,5.266,5.602,5.397c2.252,0.051,5.322-1.381,8.178-3.078c2.923,1.823,6.148,3.43,8.479,3.375  c5.364-0.131,5.481-5.397,5.481-5.397c-1.201,0.492-3.691,1.532-5.411,2.268c-0.725,0.309-1.533,0.271-2.222-0.112  c-0.76-0.425-2.009-1.14-3.443-1.967c1.463-0.992,2.69-1.892,3.553-2.557c1.348,1.061,5.211,2.923,13.844-0.317  c0,0,5.725-2.875-4.304-3.347c0,0,1.861-1.366,3.117-2.663c1.645,0.846,5.711,1.848,13.438-2.394c0,0,5.257-3.661-4.736-2.699  c0,0,1.335-1.298,2.384-2.622c1.725,0.194,5.981-0.267,11.627-7.487c0,0,3.389-5.437-5.417-0.615c0,0,1.138-2.714,1.407-4.531  c1.944-0.936,4.911-3.492,7.238-10.535c0,0,1.353-6.261-5.306,1.251c0,0,0.096-2.138-0.09-3.901  c1.465-1.587,3.282-5.055,2.855-12.46c0,0-1.045-6.32-4.474,3.115c0,0-0.936-2.783-1.932-4.325  c0.827-1.713,1.465-4.836-0.517-10.751c0,0-2.317-5.059-3.038,3.633c0,0-1.902-2.844-3.138-3.544  c0.239-1.402,0.05-3.809-2.747-7.708c0,0-2.792-3.125-1.381,3.29c0,0-2.556-2.071-3.373-1.826c-0.424-1.225-1.651-3.297-5.771-6.023  c0,0-3.572-1.956,0.526,3.147c0,0-3.621-1.436-3.578-0.614s1.793,2.341,3.23,3.019c0,0-5.31,0.551-3.13,1.735  c0,0,5.387,1.857,8.624,0.07c0.26,0.942,0.786,1.999,1.571,2.759c0,0-6.32-1.227-4.609,0.67c0,0,4.74,3.484,9.424,2.949  c-0.023,1.291,0.369,2.958,1.053,4.205c0,0-7.534-4.029-6.107-0.952c0,0,4.506,6.027,10.501,7.335  c-0.246,1.34-0.241,2.962,0.082,4.301c0,0-7.153-6.756-6.497-2.907c0,0,2.989,7.925,9.05,11.293  c-0.494,1.006-0.898,2.132-1.047,3.18c0,0-4.166-8.914-4.972-5.092c0,0-0.137,8.904,4.615,14.227  c-1.012,0.841-2.004,2.021-2.612,3.175c0,0-0.912-9.795-2.962-6.472c0,0-2.832,7.422-0.915,13.817  c-1.266,0.374-2.648,1.066-3.669,1.893c0,0,3.022-9.364-0.171-7.117c0,0-5.686,6.15-6.12,13.071  c-1.508-0.031-3.548,0.512-5.027,1.395c0,0,4.325-8.835,0.844-7.067c0,0-6.202,5.065-7.803,11.642  c-1.466,0.837-3.959,2.258-6.447,3.672c-1.447-0.84-2.855-1.66-4.058-2.359l0.04-0.065l-14.1-11.819l0.28,3.866l-7.079-12.66  l-0.875,4.309l-2.318-13.997l-2.056,2.066l0.796-13.058l-2.681,1.445l4.867-9.712l-2.287,0.646l6.015-5.766l-3.179,0.271  l7.603-3.453l-2.78-0.427l7.423-3.758l-3.198-0.156l9.624-3.329l-1.762-1.542l8.329-2.457l-9.981-0.761l2.844-3.499l-7.615,3.896  l1.093-5.267l-6.661,6.859l1.158-4.804l-6.235,6.203l0.404-4.681l-6.165,10.44l-0.795-4.671l-5.122,11.721l-1.411-5.106  l-2.287,14.535l-1.908-2.162l2.509,14.02L211.014,257.018z"/>
<g>
</g>
<g>
</g>
<g>
</g>
<g>
</g>
<g>
</g>
<g>
</g>
<g>
</g>
<g>
</g>
<g>
</g>
<g>
</g>
<g>
</g>
<g>
</g>
<g>
</g>
<g>
</g>
<g>
</g>
</svg>
