<?xml version="1.0" encoding="iso-8859-1"?>
<!-- Generator: Adobe Illustrator 19.0.0, SVG Export Plug-In . SVG Version: 6.00 Build 0)  -->
<svg xmlns="http://www.w3.org/2000/svg" xmlns:xlink="http://www.w3.org/1999/xlink" version="1.1" id="Layer_1" x="0px" y="0px" viewBox="0 0 512.003 512.003" style="enable-background:new 0 0 512.003 512.003;" xml:space="preserve">
<path style="fill:#F5F5F5;" d="M29.589,366.395l-0.036-220.713c-0.002-12.607,6.722-24.257,17.639-30.563L238.315,4.731  c10.917-6.306,24.368-6.307,35.286-0.006L464.762,115.05c10.918,6.302,17.646,17.95,17.649,30.557l0.036,220.713  c0.003,12.607-6.722,24.257-17.639,30.563L273.684,507.269c-10.917,6.306-24.368,6.307-35.287,0.006L47.237,396.951  C36.318,390.649,29.591,379.001,29.589,366.395z"/>
<path style="fill:#873250;" d="M482.411,145.605c-0.003-12.607-6.729-24.255-17.649-30.557L273.601,4.726  c-10.918-6.302-24.37-6.3-35.286,0.006l-15.608,9.015l31.398,9.594c3.419,1.043,3.417,5.886-0.004,6.928l-71.248,21.693  c-3.42,1.042-3.423,5.882-0.004,6.928l71.255,21.775c3.419,1.043,3.417,5.886-0.004,6.926l-71.249,21.694  c-3.42,1.042-3.423,5.882-0.004,6.928l71.255,21.775c3.419,1.045,3.417,5.886-0.004,6.927l-71.227,21.687  c-3.423,1.043-3.423,5.887,0,6.929l71.227,21.687c3.42,1.042,3.423,5.882,0.004,6.928l-71.255,21.776  c-3.419,1.046-3.417,5.887,0.004,6.928l71.249,21.693c3.42,1.041,3.423,5.882,0.004,6.928l-71.255,21.776  c-3.419,1.046-3.417,5.886,0.004,6.928l71.249,21.693c3.42,1.041,3.423,5.882,0.004,6.926l-71.255,21.776  c-3.419,1.046-3.417,5.887,0.004,6.928l71.248,21.695c3.42,1.04,3.423,5.882,0.004,6.926l-71.254,21.774  c-3.419,1.046-3.417,5.886,0.004,6.928l71.228,21.69c3.422,1.04,3.422,5.886,0,6.926l-71.228,21.69  c-3.42,1.04-3.423,5.882-0.004,6.926l71.255,21.775c3.419,1.043,3.417,5.886-0.004,6.926l-31.293,9.529l15.588,8.996  c10.918,6.302,24.37,6.299,35.287-0.006l191.125-110.388c10.917-6.306,17.64-17.955,17.639-30.563L482.411,145.605z"/>
<g>
</g>
<g>
</g>
<g>
</g>
<g>
</g>
<g>
</g>
<g>
</g>
<g>
</g>
<g>
</g>
<g>
</g>
<g>
</g>
<g>
</g>
<g>
</g>
<g>
</g>
<g>
</g>
<g>
</g>
</svg>
