<?xml version="1.0" encoding="iso-8859-1"?>
<!-- Generator: Adobe Illustrator 19.0.0, SVG Export Plug-In . SVG Version: 6.00 Build 0)  -->
<svg xmlns="http://www.w3.org/2000/svg" xmlns:xlink="http://www.w3.org/1999/xlink" version="1.1" id="Layer_1" x="0px" y="0px" viewBox="0 0 512.002 512.002" style="enable-background:new 0 0 512.002 512.002;" xml:space="preserve">
<path style="fill:#F5F5F5;" d="M482.45,366.319l-0.008-42.41l-0.005-27.164l-0.014-81.491l-0.005-27.164l-0.008-42.485  c-0.001-3.105-0.422-6.147-1.202-9.07c-0.42-1.572-0.948-3.107-1.577-4.597c-2.568-6.091-6.814-11.419-12.362-15.28  c-0.812-0.565-1.642-1.11-2.509-1.611l-23.71-13.684l-22.198-12.81l-17.87-10.313L332.645,38.8l0,0l-26.659-15.386l-19.995-11.539  l-12.39-7.151c-10.918-6.301-24.37-6.298-35.287,0.006l-12.307,7.108l-19.995,11.548l-26.659,15.398l0,0L111.026,78.25  L81.079,95.547l-22.191,12.818l-11.697,6.755c-0.841,0.486-1.648,1.015-2.439,1.561c-3.392,2.349-6.296,5.254-8.638,8.538  c-1.572,2.206-2.883,4.585-3.911,7.092c-1.715,4.179-2.652,8.706-2.651,13.371l0.007,42.41l0.005,27.164l0.014,81.478v0.014v0.005  l0.005,27.159l0.007,42.478v0.006c0.003,11.607,5.715,22.388,15.14,28.946c0.812,0.565,1.642,1.11,2.509,1.611l23.377,13.491  l22.198,12.812l18.204,10.506l94.999,54.826l19.995,11.539l12.39,7.151c10.918,6.301,24.37,6.298,35.287-0.006l12.307-7.108  l19.995-11.548l26.659-15.397l0,0l57.588-33.261l10.742-6.205l27.325-15.782l22.191-12.818l14.319-8.27  c0.841-0.486,1.648-1.015,2.439-1.561C476.716,388.765,482.452,377.956,482.45,366.319L482.45,366.319L482.45,366.319z"/>
<path style="fill:#FF4B55;" d="M443.381,162.008c-1.415-0.499-2.99,0.235-3.494,1.668c-1.807,5.101-3.765,9.674-5.792,13.994  c-5.16,5.105-11.586,8.913-17.786,10.04c-10.039,1.825-14.905,6.692-14.905,6.692c-17.643-5.171-20.989,4.563-24.943,8.821  c-2.214,2.384-5.086,3.212-7.674,3.239c-9.449-5.154-15.813-11.436-15.932-11.552c-1.062-1.076-2.802-1.083-3.871-0.021  c-1.076,1.062-1.083,2.794-0.021,3.871c0.801,0.811,16.191,16.064,35.931,19.235c-5.731,1.687-9.955,2.87-9.955,2.87  s-6.388,0-25.552,15.513s-32.549,17.035-41.065,16.73c-8.518-0.304-14.906-3.347-24.031,3.65c-9.126,6.997-20.989,5.78-28.29,5.78  c-7.3,0-19.164,1.216-28.29-5.78s-15.513-3.954-24.031-3.65c-8.518,0.305-21.902-1.217-41.065-16.73s-25.552-15.513-25.552-15.513  s-4.224-1.183-9.955-2.87c19.742-3.172,35.13-18.424,35.933-19.235c1.062-1.076,1.055-2.809-0.021-3.871  c-1.07-1.062-2.809-1.055-3.871,0.021c-0.119,0.116-6.482,6.398-15.932,11.552c-2.588-0.026-5.46-0.855-7.674-3.239  c-3.954-4.259-7.301-13.992-24.943-8.821c0,0-4.867-4.867-14.905-6.692c-6.201-1.127-12.627-4.935-17.786-10.04  c-2.027-4.32-3.984-8.891-5.792-13.994c-0.502-1.433-2.078-2.167-3.494-1.668c-1.426,0.506-2.174,2.067-1.668,3.494  c0.055,0.155,0.117,0.286,0.172,0.44c0.267,1.4,5.821,29.417,26.134,48.842c14.306,13.679,28.181,34.553,34.069,46.236  c19.164,38.025,55.667,89.128,128.672,89.128s109.509-51.104,128.672-89.128c5.888-11.683,19.763-32.557,34.069-46.236  c20.313-19.425,25.867-47.442,26.134-48.842c0.055-0.154,0.117-0.285,0.172-0.44C445.557,164.077,444.808,162.514,443.381,162.008z"/>
<g>
</g>
<g>
</g>
<g>
</g>
<g>
</g>
<g>
</g>
<g>
</g>
<g>
</g>
<g>
</g>
<g>
</g>
<g>
</g>
<g>
</g>
<g>
</g>
<g>
</g>
<g>
</g>
<g>
</g>
</svg>
