<?xml version="1.0" encoding="iso-8859-1"?>
<!-- Generator: Adobe Illustrator 19.0.0, SVG Export Plug-In . SVG Version: 6.00 Build 0)  -->
<svg xmlns="http://www.w3.org/2000/svg" xmlns:xlink="http://www.w3.org/1999/xlink" version="1.1" id="Layer_1" x="0px" y="0px" viewBox="0 0 512.002 512.002" style="enable-background:new 0 0 512.002 512.002;" xml:space="preserve">
<path style="fill:#FFE15A;" d="M481.209,375.537L481.209,375.537c0.2-0.737,0.376-1.482,0.53-2.234  c0.001-0.006,0.003-0.014,0.005-0.02c0.144-0.707,0.262-1.423,0.364-2.142c0.009-0.061,0.02-0.122,0.029-0.185  c0.089-0.654,0.151-1.313,0.202-1.976c0.009-0.12,0.025-0.239,0.034-0.36c0.051-0.764,0.079-1.531,0.079-2.302l-0.008-42.41  l-0.005-27.164l-0.004-24.371l-225.183-30.122L29.573,272.375l0.004,24.371l0.005,27.164l0.007,42.485  c0,0.767,0.027,1.53,0.079,2.288c0.007,0.115,0.022,0.227,0.031,0.342c0.051,0.661,0.112,1.321,0.2,1.974  c0.007,0.056,0.019,0.112,0.026,0.167c0.1,0.717,0.217,1.431,0.36,2.137c0,0.003,0.001,0.005,0.001,0.008  c0.151,0.749,0.326,1.49,0.524,2.224l0,0l226.439,30.423L481.209,375.537z"/>
<path style="fill:#73AF00;" d="M475.953,386.693c0.023-0.031,0.046-0.062,0.069-0.095c0.572-0.815,1.108-1.653,1.608-2.513  c0.026-0.045,0.05-0.09,0.076-0.135c1.518-2.632,2.701-5.457,3.502-8.413v-0.001H30.81v0.001c0.794,2.95,1.968,5.771,3.477,8.399  c0.031,0.055,0.061,0.111,0.094,0.166c0.497,0.857,1.03,1.695,1.598,2.507c0.02,0.027,0.041,0.055,0.061,0.082  c0.52,0.739,1.075,1.452,1.65,2.151c0.107,0.13,0.212,0.26,0.321,0.389c0.611,0.719,1.245,1.418,1.914,2.088  c0.044,0.044,0.091,0.085,0.136,0.129c0.611,0.606,1.252,1.185,1.909,1.746c0.177,0.151,0.356,0.302,0.537,0.451  c0.719,0.589,1.452,1.162,2.221,1.697c0.812,0.565,1.642,1.11,2.509,1.611l23.377,13.491l22.198,12.812l18.204,10.506l94.999,54.826  l19.995,11.539l12.39,7.151c10.918,6.302,24.37,6.298,35.287-0.006l12.307-7.108l19.995-11.548l94.989-54.863l27.325-15.782  l22.191-12.818l14.319-8.27c0.841-0.486,1.648-1.013,2.439-1.562c0.771-0.534,1.507-1.105,2.227-1.693  c0.181-0.149,0.36-0.3,0.539-0.451c0.654-0.556,1.291-1.131,1.899-1.73c0.05-0.049,0.102-0.095,0.152-0.144  c0.671-0.67,1.308-1.37,1.922-2.088c0.106-0.125,0.209-0.251,0.312-0.377C474.877,388.141,475.432,387.429,475.953,386.693z"/>
<path style="fill:#4173CD;" d="M482.424,215.255l-0.005-27.164l-0.008-42.486c-0.001-11.607-5.715-22.389-15.14-28.946  c-0.812-0.565-1.642-1.11-2.509-1.611l-23.711-13.684l-22.198-12.81l-17.87-10.313l-94.999-54.826l-19.994-11.54l-12.39-7.15  c-10.918-6.302-24.37-6.3-35.287,0.006l-12.307,7.108l-19.995,11.548L111.024,78.25L81.077,95.546l-22.191,12.818l-11.697,6.756  c-0.841,0.486-1.648,1.015-2.439,1.561c-9.465,6.556-15.201,17.365-15.2,29.001l0.007,42.41l0.005,27.164l0.01,57.121h452.861  L482.424,215.255z"/>
<g>
	<path style="fill:#FFE15A;" d="M403.777,182.796l40.921-6.774l-40.921-6.774l35.214-21.919l-40.399,9.401l24.146-33.726   l-33.726,24.146l9.401-40.399l-21.919,35.214l-6.774-40.921l-6.774,40.921l-21.919-35.214l9.401,40.399l-33.727-24.146   l24.146,33.726l-40.399-9.401l35.214,21.919l-40.921,6.774l40.921,6.774l-35.214,21.919l40.399-9.401l-24.145,33.726l33.726-24.146   l-9.401,40.399l21.919-35.214L369.72,251l6.774-40.921l21.919,35.214l-9.401-40.399l33.726,24.146l-24.146-33.726l40.399,9.401   L403.777,182.796z M369.719,201.015c-13.804,0-24.993-11.189-24.993-24.993s11.189-24.993,24.993-24.993   s24.993,11.189,24.993,24.993S383.522,201.015,369.719,201.015z"/>
	<circle style="fill:#FFE15A;" cx="369.72" cy="176.03" r="18.745"/>
</g>
<g>
</g>
<g>
</g>
<g>
</g>
<g>
</g>
<g>
</g>
<g>
</g>
<g>
</g>
<g>
</g>
<g>
</g>
<g>
</g>
<g>
</g>
<g>
</g>
<g>
</g>
<g>
</g>
<g>
</g>
</svg>
