<?xml version="1.0" encoding="iso-8859-1"?>
<!-- Generator: Adobe Illustrator 19.0.0, SVG Export Plug-In . SVG Version: 6.00 Build 0)  -->
<svg xmlns="http://www.w3.org/2000/svg" xmlns:xlink="http://www.w3.org/1999/xlink" version="1.1" id="Layer_1" x="0px" y="0px" viewBox="0 0 512 512" style="enable-background:new 0 0 512 512;" xml:space="preserve">
<path style="fill:#73AF00;" d="M29.588,366.395l-0.036-220.713c-0.003-12.607,6.722-24.257,17.639-30.562L238.315,4.73  c10.917-6.305,24.368-6.307,35.287-0.006l191.161,110.325c10.918,6.302,17.646,17.95,17.649,30.557l0.036,220.713  c0.003,12.607-6.722,24.257-17.639,30.562L273.684,507.269c-10.917,6.306-24.368,6.307-35.287,0.006L47.237,396.952  C36.317,390.65,29.59,379.001,29.588,366.395z"/>
<g>
	<path style="fill:#F5F5F5;" d="M101.4,200.722c0.896,5.745,4.369,7.548,7.389,7.314c3.56-0.276,6.683-3.533,6.683-6.971v-19.718   c0-0.987,0.804-1.792,1.792-1.792s1.793,0.805,1.793,1.792v19.802c0,2.381,1.176,4.6,3.149,5.935   c1.205,0.816,2.607,1.236,4.019,1.236c0.9,0,1.803-0.171,2.664-0.515l1.792-0.717c0.165,16.55-0.842,31.098-0.861,31.365   c-0.14,1.974,1.346,3.69,3.32,3.83c0.087,0.007,0.174,0.01,0.259,0.01c1.864,0,3.438-1.442,3.573-3.329   c0.084-1.166,1.188-17.095,0.857-34.736l1.083-0.432c0.951-0.379,2.017-0.332,2.93,0.122c3.949,1.967,8.7,1.201,11.822-1.918   l0.646-0.644c2.897-2.903,3.893-7.118,2.596-11.007l-3.053-9.159c1.651,0.497,3.464-0.235,4.261-1.825   c0.886-1.772,0.167-3.925-1.603-4.81l-7.171-3.585c-1.297-0.651-2.853-0.451-3.953,0.497c-1.096,0.952-1.511,2.468-1.052,3.844   l5.768,17.305c0.432,1.296,0.1,2.703-0.865,3.669l-0.644,0.644c-0.935,0.935-2.358,1.162-3.548,0.574   c-2.324-1.161-4.969-1.378-7.45-0.745c-0.504-11.507-1.743-22.966-4.383-30.887c-0.625-1.877-2.652-2.895-4.535-2.266   c-1.878,0.624-2.894,2.654-2.267,4.534c2.583,7.747,3.709,19.552,4.108,31.291l-4.291,1.717v-19.802   c0-4.944-4.021-8.963-8.963-8.963c-4.941,0-8.963,4.019-8.963,8.963v17.354l-3.657-18.065c-0.39-1.943-2.279-3.21-4.224-2.804   c-1.941,0.396-3.197,2.286-2.803,4.226L101.4,200.722z"/>
	<path style="fill:#F5F5F5;" d="M108.301,170.591c1.979,0,3.585-1.603,3.585-3.585v-3.585c0-1.982-1.605-3.585-3.585-3.585   c-1.979,0-3.585,1.603-3.585,3.585v3.585C104.716,168.988,106.322,170.591,108.301,170.591z"/>
	<path style="fill:#F5F5F5;" d="M144.152,167.006h3.585c1.979,0,3.585-1.603,3.585-3.585c0-1.982-1.606-3.585-3.585-3.585h-3.585   c-1.979,0-3.585,1.603-3.585,3.585C140.566,165.402,142.172,167.006,144.152,167.006z"/>
	<path style="fill:#F5F5F5;" d="M120.797,214.123l-17.925,10.756c-1.698,1.018-2.248,3.22-1.228,4.919   c0.672,1.121,1.859,1.74,3.078,1.74c0.629,0,1.263-0.165,1.842-0.511l17.925-10.755c1.698-1.018,2.248-3.222,1.228-4.919   S122.496,213.104,120.797,214.123z"/>
	<path style="fill:#F5F5F5;" d="M169.13,220.465l0.084-0.057c0.301,1.211,0.817,2.384,1.655,3.368   c1.456,1.716,3.642,2.577,6.11,2.373c3.502-0.255,5.882-1.856,7.457-3.921c0.24,0.165,0.492,0.315,0.756,0.449   c1.938,0.977,4.179,0.904,6.312-0.204c5.417-2.79,6.586-9.246,6.421-12.622c-0.096-1.968-1.77-3.358-3.731-3.397   c-1.969,0.084-3.502,1.755-3.43,3.721c0.001,0.045,0.082,4.299-2.519,5.878c-0.424-0.591-0.927-1.922-1.117-3.022   c-0.302-1.844-1.997-3.13-3.821-2.983c-1.859,0.147-3.294,1.708-3.302,3.574c-0.001,0.521-0.117,5.122-3.669,5.507   c-0.414-0.564-0.42-2.937-0.014-4.691c0.344-1.44-0.235-2.94-1.451-3.781c-1.22-0.844-2.829-0.844-4.053-0.014l-2.001,1.361   c-0.95-20.791-3.139-45.018-3.167-45.328c-0.179-1.968-1.912-3.434-3.895-3.245c-1.973,0.179-3.425,1.922-3.247,3.896   c0.031,0.331,2.563,28.362,3.344,49.768c-0.182,0.174-0.372,0.365-0.552,0.532c-1.418-3.575-4.228-5.826-7.848-6.17   c-5.109-0.451-10.643,3.025-12.627,7.989c-1.711,4.271-0.634,8.469,2.742,10.692c2.427,1.6,6.088,2.104,10.692,0.49   c-1.123,3.949-3.17,7.954-5.831,11.053c-2.382,2.777-6.361,5.98-11.453,5.836c-2.964-0.115-5.241-1.085-6.962-2.969   c-4.15-4.534-3.794-12.74-3.79-12.828c0.104-1.974-1.41-3.659-3.382-3.766c-1.987-0.21-3.669,1.403-3.778,3.382   c-0.025,0.455-0.545,11.238,5.63,18.02c3.039,3.344,7.077,5.132,12.002,5.325c0.24,0.01,0.48,0.014,0.721,0.014   c5.997,0,11.816-2.94,16.452-8.343c4.36-5.077,7.32-11.973,8.209-18.375c-0.011,12.264-7.402,26.097-17.202,32.191   c-4.161,2.584-10.648,4.916-17.956,1.313c-9.009-4.446-7.935-14.743-7.888-15.163c0.246-1.964-1.148-3.756-3.113-4.001   c-1.956-0.239-3.758,1.145-4.001,3.113c-0.08,0.641-1.803,15.754,11.831,22.48c3.502,1.73,7.163,2.587,10.853,2.587   c4.74,0,9.525-1.418,14.06-4.24c11.93-7.415,20.589-23.527,20.589-38.308C169.247,225.645,169.203,223.119,169.13,220.465z    M147.513,224.161c-0.641-0.424-0.14-1.778-0.031-2.048c0.755-1.891,3.115-3.525,5.002-3.525c0.096,0,0.194,0.004,0.289,0.014   c0.459,0.042,1.676,0.157,2.198,2.864c0.056,0.287,0.104,0.581,0.14,0.882C151.116,224.692,148.437,224.766,147.513,224.161z"/>
	<path style="fill:#F5F5F5;" d="M110.111,257.134c-1.698-0.997-3.893-0.427-4.901,1.271c-0.165,0.276-0.384,0.577-0.606,0.851   c-0.039-0.091-0.077-0.189-0.115-0.294c-1.495-3.988-0.431-10.132,0.107-12.163c0.506-1.912-0.632-3.873-2.543-4.384   c-1.908-0.49-3.87,0.624-4.384,2.534c-0.261,0.97-2.464,9.674,0.105,16.528c1.646,4.384,4.171,5.49,6.002,5.64   c0.162,0.014,0.324,0.021,0.484,0.021c3.86,0,6.428-3.89,7.142-5.122C112.393,260.309,111.813,258.135,110.111,257.134z"/>
	<path style="fill:#F5F5F5;" d="M176.27,192.101c0.776,0,1.556-0.249,2.213-0.767l18.074-14.19c0.249-0.195,0.409-0.452,0.591-0.694   c2.603-1.57,4.365-4.398,4.365-7.653c0-4.944-4.021-8.963-8.963-8.963c-4.941,0-8.963,4.019-8.963,8.963   c0,2.765,1.286,5.211,3.259,6.856l-12.793,10.044c-1.556,1.222-1.827,3.477-0.606,5.031   C174.156,191.633,175.208,192.101,176.27,192.101z M192.551,167.006c0.988,0,1.792,0.805,1.792,1.792   c0,0.987-0.804,1.792-1.792,1.792c-0.99,0-1.792-0.805-1.792-1.792C190.758,167.812,191.561,167.006,192.551,167.006z"/>
	<path style="fill:#F5F5F5;" d="M188.307,188.702c-1.888-0.63-3.91,0.389-4.535,2.266c-0.384,1.148-2.117,7.062,1.397,10.573   c1.363,1.366,3.157,2.048,5.356,2.044c1.471,0,3.123-0.301,4.952-0.913c1.878-0.624,2.894-2.654,2.267-4.534   c-0.626-1.877-2.654-2.899-4.536-2.266c-2.003,0.665-2.85,0.556-2.927,0.626c-0.211-0.532-0.071-2.132,0.296-3.277   C191.195,191.349,190.18,189.326,188.307,188.702z"/>
	<path style="fill:#F5F5F5;" d="M229.337,173.883c0.336,0.099,0.674,0.144,1.006,0.144c1.552,0,2.983-1.016,3.44-2.581l2.092-7.171   c0.555-1.901-0.537-3.893-2.437-4.446c-1.906-0.55-3.891,0.536-4.446,2.437l-2.092,7.171   C226.345,171.337,227.439,173.329,229.337,173.883z"/>
	<path style="fill:#F5F5F5;" d="M208.442,173.463c0.569,0.332,1.192,0.49,1.807,0.49c1.232,0,2.432-0.634,3.098-1.775   c1-1.708,0.424-3.908-1.285-4.905c-0.721-0.42-0.624-1.607-0.597-1.842c0.106-0.942,0.669-2.091,1.646-2.394   c1.891-0.589,2.945-2.598,2.358-4.489c-0.591-1.894-2.598-2.94-4.49-2.359c-3.574,1.113-6.18,4.421-6.638,8.426   C203.915,168.344,205.487,171.733,208.442,173.463z"/>
	<path style="fill:#F5F5F5;" d="M180.003,231.538c-1.979,0-3.585,1.603-3.585,3.585c0,1.751,1.253,3.207,2.913,3.522   c0.189,0.276,0.672,1.225,0.672,3.648c0,1.982,1.606,3.585,3.585,3.585s3.585-1.603,3.585-3.585   C187.172,231.661,180.295,231.538,180.003,231.538z"/>
	<path style="fill:#F5F5F5;" d="M240.825,216.693c0.45,0.074,0.898,0.109,1.348,0.109c2.817,0,5.663-1.422,8.481-4.24   c1.401-1.401,1.401-3.669,0-5.07s-3.669-1.401-5.07,0c-2.144,2.146-3.298,2.192-3.594,2.126c-0.685-0.097-1.305-0.991-1.442-1.236   c-0.9-1.743-3.032-2.441-4.787-1.561c-1.772,0.886-2.489,3.039-1.603,4.81C234.379,212.075,236.45,215.982,240.825,216.693z"/>
	<path style="fill:#F5F5F5;" d="M301.764,191.499c-0.023-0.056-0.044-0.109-0.061-0.157c-0.635-1.862-2.665-2.874-4.525-2.241   c-1.879,0.624-2.895,2.654-2.268,4.534c0.28,0.84,1.877,5.056,5.832,5.587c0.265,0.035,0.527,0.052,0.787,0.052   c2.484,0,4.814-1.607,6.934-4.786c1.097-1.646,0.652-3.873-0.995-4.971c-1.65-1.096-3.875-0.655-4.971,0.995   C302.213,190.935,301.968,191.258,301.764,191.499z"/>
	<path style="fill:#F5F5F5;" d="M294.725,256.632c0-15.288-0.672-29.631-1.605-42.197c5.091,8.829,9.67,17.75,12.588,25.532   c0.541,1.438,1.906,2.324,3.358,2.324c0.419,0,0.844-0.074,1.258-0.227c1.854-0.697,2.794-2.762,2.099-4.617   c-4.538-12.097-12.694-26.505-20.733-39.294c-1.961-19.312-4.154-31.57-4.193-31.788c-0.354-1.951-2.216-3.267-4.168-2.885   c-1.948,0.354-3.24,2.219-2.887,4.166c0.029,0.156,1.158,6.471,2.508,17.098c-2.754-4.088-5.314-7.775-7.46-10.81l0.175,0.056   c1.889,0.63,3.909-0.389,4.536-2.266c0.627-1.881-0.389-3.91-2.267-4.534l-10.755-3.585c-1.491-0.504-3.128,0.029-4.041,1.302   c-0.245,0.34-0.412,0.712-0.524,1.098c-2.147-1.587-4.899-2.877-7.483-1.796c-1.563,0.647-3.425,2.279-3.425,6.38   c0,3.148,1.201,6.551,2.473,10.157c2.111,5.98,3.433,10.377,1.197,12.474c-1.236,1.158-2.471,1.596-3.674,1.292   c-2.211-0.56-4.399-3.504-5.857-7.878c-0.064-0.19-0.196-0.327-0.286-0.499c0.754-5.553,0.425-12.244-1.093-19.836   c-0.387-1.943-2.271-3.207-4.219-2.812c-1.941,0.389-3.2,2.276-2.812,4.219c2.341,11.708,1.638,21.258-1.878,25.547   c-1.36,1.66-3.063,2.429-5.362,2.429c-0.726,0-1.222-0.231-1.716-0.799c-2.829-3.259-2.817-13.776-1.904-20.208   c0.145-1.026-0.162-2.069-0.844-2.853c-0.681-0.785-1.668-1.236-2.707-1.236c-6.168,0-8.508,7.016-10.571,13.206   c-0.905,2.721-2.593,7.779-3.769,8.304c-2.171,0-3.573-6.372-3.585-10.758c-0.005-1.978-1.608-3.578-3.585-3.578   c0,0-0.004,0-0.005,0c-1.978,0-3.58,1.603-3.58,3.582c0,8.269,2.817,17.925,10.756,17.925c5.911,0,8.306-6.442,10.311-12.429   c0.349,4.761,1.423,9.695,4.066,12.74c1.857,2.143,4.324,3.273,7.133,3.273c4.425,0,8.197-1.747,10.906-5.052   c0.491-0.599,0.915-1.285,1.331-1.978c2.082,2.959,4.635,4.911,7.513,5.637c0.844,0.214,1.693,0.322,2.533,0.322   c2.768,0,5.472-1.141,7.808-3.337c0.486-0.456,0.827-0.956,1.197-1.446c0.876,0.251,1.766,0.4,2.648,0.4   c2.904,0,5.7-1.17,7.434-2.283c1.66-1.065,2.139-3.263,1.085-4.93c-1.056-1.663-3.265-2.161-4.936-1.117   c-0.03,0.014-2.424,1.39-4.059,1.068c0.005-3.93-1.418-8.104-2.716-11.782c-0.739-2.093-1.497-4.24-1.853-5.993   c0.296,0.249,0.585,0.507,0.842,0.76c1.397,1.401,3.668,1.401,5.067,0c0.231-0.231,0.366-0.514,0.521-0.785   c3.716,5.12,11.359,15.877,19.221,28.279c1.501,15.242,2.819,34.688,2.819,56.013c0,1.982,1.606,3.585,3.585,3.585   C293.123,260.215,294.725,258.614,294.725,256.632z"/>
	<path style="fill:#F5F5F5;" d="M298.309,177.762c0,1.982,1.606,3.585,3.585,3.585s3.585-1.603,3.585-3.585   c0-4.219-3.302-11.036-3.963-12.359c-0.886-1.768-3.037-2.482-4.81-1.603c-1.772,0.886-2.489,3.039-1.603,4.81   C296.396,171.197,298.309,175.892,298.309,177.762z"/>
	<path style="fill:#F5F5F5;" d="M281.996,257.025c-1.757-0.896-3.918-0.185-4.812,1.58c-0.385,0.752-0.982,1.59-1.486,2.128   c-0.16-1.425,0.22-4.271,0.944-6.631c0.481-1.576-0.171-3.277-1.582-4.124c-1.406-0.851-3.218-0.63-4.38,0.536l-7.171,7.171   c-1.401,1.401-1.401,3.669,0,5.07s3.669,1.401,5.07,0l0.182-0.182c0.31,1.44,0.904,2.752,1.918,3.766   c1.345,1.345,2.969,2.056,4.659,2.056c0.327,0,0.656-0.027,0.986-0.08c4.061-0.659,6.589-5.136,7.268-6.491   C284.473,260.054,283.76,257.915,281.996,257.025z"/>
	<path style="fill:#F5F5F5;" d="M280.609,228.177h-25.267c0.224-0.892,0.455-1.743,0.69-2.552   c10.076-2.093,16.064-5.346,17.825-9.687c0.609-1.506,1.245-4.548-1.348-8.045c-2.337-3.15-5.636-4.565-9.063-3.865   c-5.094,1.033-9.634,6.522-12.891,15.31c-10.121,1.733-16.599,5.366-20.699,8.951c-1.455-14.691-7.158-23.419-7.434-23.833   c-1.1-1.65-3.325-2.093-4.971-0.995c-1.647,1.1-2.092,3.323-0.995,4.971c0.065,0.099,6.568,10.045,6.568,26.693   c0,16.364-13.049,28.681-21.51,28.681c-4.026,0-5.787-4.785-6.562-8.83c8.285-5.807,15.596-12.525,17.21-18.982   c2.184-8.735-0.565-15.173-2.384-19.435c-0.086-0.196-0.175-0.406-0.266-0.624c0.077,0.07,0.15,0.144,0.224,0.214   c1.397,1.401,3.668,1.401,5.067,0c1.401-1.401,1.401-3.669,0-5.07c-2.096-2.097-6.166-5.391-9.865-3.844   c-1.563,0.647-3.425,2.279-3.425,6.38c0,1.852,0.774,3.661,1.67,5.762c1.615,3.778,3.622,8.479,2.022,14.88   c-0.947,3.786-5.598,8.381-11.734,12.943c-0.657-0.786-1.608-1.316-2.712-1.316h-0.005c-1.978,0.004-3.58,1.603-3.58,3.582   c0,0.645,0.027,1.335,0.07,2.042c-7.672,4.969-16.354,9.567-23.065,12.62c-1.801,0.82-2.598,2.944-1.778,4.747   c0.6,1.32,1.903,2.101,3.264,2.101c0.497,0,1.001-0.101,1.481-0.322c2.016-0.916,11.583-5.374,21.412-11.466   c1.81,6.146,5.646,11.787,12.956,11.787c8.6,0,18.357-7.033,23.988-17.533c0.68,1.201,1.461,2.351,2.392,3.424   c9.024,10.405,26.65,10.525,27.396,10.525c1.931,0,3.513-1.526,3.583-3.455c0.069-1.929-1.402-3.568-3.325-3.704   c-0.027-0.004-2.885-0.319-4.475-2.174c-0.96-1.12-1.342-2.661-1.172-4.709c0.367-4.419,14.618-7.72,27.179-7.915   c1.497-0.025,2.822-0.973,3.324-2.384l3.585-10.083c0.39-1.096,0.222-2.318-0.45-3.267   C282.867,228.744,281.773,228.177,280.609,228.177z M264.871,211.056c0.069-0.014,0.159-0.035,0.274-0.035   c0.344,0,0.883,0.169,1.606,1.141c0.136,0.182,0.572,0.805,0.462,1.078c-0.411,1.016-2.887,2.692-8.044,4.211   C261.437,213.027,263.655,211.301,264.871,211.056z M243.221,258.185c-3.643-1.183-7.354-3.06-9.924-6.032   c-2.824-3.267-3.866-7.398-3.183-12.624c0.104-0.275,0.337-0.817,0.747-1.521c5.049-0.462,18.535,1.527,19.47,5.39   c-4.16,2.123-7.224,5.11-7.578,9.354C242.577,254.879,242.793,256.682,243.221,258.185z"/>
	<path style="fill:#F5F5F5;" d="M319.636,176.627l-3.585-10.756c-0.577-1.73-2.372-2.762-4.15-2.371   c-1.787,0.381-3,2.044-2.818,3.861c2.473,24.738,7.153,72.983,7.153,78.515c0,4.967-8.836,14.75-23.114,21.889   c-1.772,0.886-2.489,3.039-1.603,4.81c0.629,1.257,1.894,1.982,3.21,1.982c0.537,0,1.085-0.122,1.6-0.379   c13.041-6.522,27.078-18.16,27.078-28.302c0-5.297-3.664-43.409-5.762-64.819C319.344,180.335,320.232,178.413,319.636,176.627z"/>
	<path style="fill:#F5F5F5;" d="M349.552,208.977c0.69,0.69,1.607,1.05,2.537,1.05c0.606,0,1.217-0.154,1.772-0.469   c1.402-0.799,2.098-2.437,1.701-4.001c-0.642-2.521-0.856-5.672-0.516-6.961c1.796,0.056,3.463-1.222,3.726-3.074   c0.28-1.961-1.082-3.778-3.04-4.058c-2.371-0.322-4.451,0.375-5.906,1.992c-0.942,1.05-1.502,2.398-1.807,3.848l-4.153-4.153   c-1.401-1.401-3.669-1.401-5.07,0s-1.401,3.669,0,5.07L349.552,208.977z"/>
	<path style="fill:#F5F5F5;" d="M357.616,212.716l-13.444,9.635c-1.608,1.152-1.979,3.393-0.826,5.004   c0.7,0.977,1.801,1.495,2.918,1.495c0.724,0,1.453-0.217,2.084-0.672l13.444-9.635c1.608-1.152,1.979-3.393,0.826-5.004   C361.463,211.928,359.219,211.554,357.616,212.716z"/>
	<path style="fill:#F5F5F5;" d="M356.426,226.198c-1.127,1.453-0.966,3.498,0.314,4.755c0.154,0.259,0.852,1.632,0.726,5.161   c-0.07,1.982,1.477,3.642,3.455,3.711c0.044,0.004,0.087,0.004,0.13,0.004c1.922,0,3.512-1.523,3.582-3.455   c0.261-7.317-2.134-9.992-3.175-10.801C359.896,224.35,357.641,224.637,356.426,226.198z"/>
	<path style="fill:#F5F5F5;" d="M387.712,252.6c1.979,0,3.585-1.603,3.585-3.585c0-5.29-0.271-11.194-0.717-17.339   c3.555,5.825,6.508,11.196,8.401,15.612c0.581,1.362,1.904,2.174,3.297,2.174c0.471,0,0.951-0.091,1.411-0.29   c1.819-0.781,2.663-2.888,1.882-4.705c-3.282-7.659-9.416-17.806-16.402-28.281c-1.407-13.159-3.244-26.052-4.671-35.302   c0.76,0.077,1.547-0.109,2.239-0.556c1.132-0.726,1.663-1.984,1.587-3.239c0.092,0.352,0.19,0.706,0.396,1.03   c0.025,0.035,2.328,3.84,1.306,8.778c-0.401,1.936,0.846,3.834,2.785,4.236c0.245,0.049,0.49,0.074,0.73,0.074   c1.665,0,3.157-1.166,3.508-2.86c1.62-7.832-2.119-13.826-2.279-14.077c-1.065-1.666-3.28-2.157-4.951-1.1   c-1.137,0.725-1.675,1.986-1.601,3.242c-0.092-0.355-0.195-0.711-0.404-1.036l-6.05-9.411c-0.925-1.436-2.733-2.017-4.32-1.401   c-1.591,0.624-2.523,2.279-2.227,3.96c0.05,0.281,2.789,16.014,5.217,34.975c-2.749-3.881-5.497-7.677-8.162-11.298   c-0.434-5.424-0.867-10.438-1.243-14.586c0.197-0.06,0.392-0.136,0.582-0.231c1.772-0.886,2.489-3.039,1.603-4.81l-3.585-7.171   c-0.774-1.547-2.541-2.318-4.203-1.842c-1.661,0.484-2.743,2.079-2.572,3.803c0.427,4.279,0.872,9.015,1.31,13.99   c-2.267-2.989-4.366-5.725-6.161-8.042c0.35-0.301,0.65-0.676,0.87-1.117c0.886-1.772,0.167-3.925-1.603-4.81l-7.171-3.585   c-1.503-0.75-3.329-0.357-4.393,0.952c-1.057,1.31-1.062,3.179-0.01,4.495c0.194,0.241,9.02,11.306,19.58,25.588   c1.832,23.687,3.05,48.328,1.328,53.493c-0.315,0.945-0.865,2.058-1.381,2.097c-2.167,0.301-7.338-4.544-9.936-9.736   c-1.497-2.99-3.65-3.302-4.801-3.249c-3.853,0.237-5.356,4.478-8.089,12.173c-1.959,5.513-4.393,12.369-7.124,15.173   c-1.48-1.808-3.394-7.878-4.458-14.115c0.5,1.38,1.79,2.377,3.342,2.377c1.979,0,3.585-1.603,3.585-3.585   c0-5.346-3.739-46.064-5.827-68.379c1.743-0.7,2.66-2.651,2.058-4.456l-3.585-10.756c-0.576-1.73-2.346-2.748-4.144-2.373   c-1.783,0.379-3,2.034-2.827,3.848c2.437,25.576,7.006,74.975,7.148,81.793c-0.009-0.061-0.021-0.122-0.03-0.182   c-0.279-1.961-2.108-3.305-4.056-3.043c-1.961,0.284-3.32,2.097-3.04,4.058c1.047,7.328,3.721,19.928,9.884,21.98   c0.486,0.165,1.141,0.311,1.91,0.311c1.413,0,3.209-0.501,5.045-2.338c3.905-3.904,6.547-11.347,8.879-17.911   c0.527-1.485,1.15-3.242,1.738-4.747c3.289,4.804,9.028,10.783,14.841,10.313c2.044-0.147,5.762-1.246,7.674-6.981   c1.907-5.72,1.153-25.664-0.132-44.759c3.02,4.234,6.043,8.568,8.929,12.85c1.118,10.736,1.918,21.492,1.918,30.327   C384.127,250.997,385.733,252.6,387.712,252.6z"/>
	<path style="fill:#F5F5F5;" d="M414.919,233.744c-2.541-18.92-6.078-40.836-8.319-54.288c1.012,0.249,2.114,0.045,3.004-0.637   c1.576-1.201,1.877-3.452,0.676-5.024l-6.498-8.515c-1.004-1.31-2.771-1.772-4.285-1.11c-1.515,0.662-2.379,2.272-2.097,3.9   c0.065,0.367,6.458,37.171,10.412,66.624c1.511,11.256-0.695,21.314-5.903,26.901c-3.347,3.589-7.783,5.214-13.15,4.901   c-1.971-0.105-3.679,1.38-3.804,3.354s1.376,3.676,3.352,3.803c0.606,0.039,1.202,0.056,1.794,0.056   c6.761,0,12.628-2.479,17.052-7.227C413.909,259.238,416.74,247.303,414.919,233.744z"/>
	<path style="fill:#F5F5F5;" d="M375.48,257.375c-1.318,1.432-1.217,3.686,0.176,5.039c0.195,0.189,0.427,0.56,0.429,0.742   c0.001,0.101-0.144,0.402-0.542,0.802c-1.401,1.401-1.401,3.669,0,5.07c0.7,0.7,1.617,1.05,2.534,1.05s1.834-0.35,2.534-1.05   c2.274-2.272,2.691-4.579,2.639-6.116c-0.11-3.309-2.363-5.445-2.813-5.84C378.976,255.796,376.797,255.95,375.48,257.375z"/>
	<path style="fill:#F5F5F5;" d="M362.842,335.997h-3.585h-21.51v-3.585c0-1.982-1.606-3.585-3.585-3.585s-3.585,1.603-3.585,3.585   v3.585H140.566c7.171,7.171,21.51,10.755,32.266,10.755c7.713,0,103.932,0,157.743,0v7.171c0,1.982,1.605,3.585,3.585,3.585h28.681   c5.931,0,10.755-4.825,10.755-10.756C373.596,340.822,368.771,335.997,362.842,335.997z M362.842,350.338h-25.096v-3.585   c17.278,0,28.681,0,28.681,0l-0.644-1.929c0.372,0.565,0.644,1.202,0.644,1.929C366.426,348.731,364.818,350.338,362.842,350.338z"/>
</g>
<g>
</g>
<g>
</g>
<g>
</g>
<g>
</g>
<g>
</g>
<g>
</g>
<g>
</g>
<g>
</g>
<g>
</g>
<g>
</g>
<g>
</g>
<g>
</g>
<g>
</g>
<g>
</g>
<g>
</g>
</svg>
