<?xml version="1.0" encoding="iso-8859-1"?>
<!-- Generator: Adobe Illustrator 19.0.0, SVG Export Plug-In . SVG Version: 6.00 Build 0)  -->
<svg xmlns="http://www.w3.org/2000/svg" xmlns:xlink="http://www.w3.org/1999/xlink" version="1.1" id="Layer_1" x="0px" y="0px" viewBox="0 0 512.001 512.001" style="enable-background:new 0 0 512.001 512.001;" xml:space="preserve">
<path style="fill:#F5F5F5;" d="M482.435,296.746l-0.014-81.491l-0.005-27.164l-0.008-42.486  c-0.001-11.607-5.715-22.388-15.14-28.946c-0.812-0.565-1.642-1.11-2.509-1.611l-23.71-13.684l-22.198-12.81l-17.87-10.313  l-94.999-54.826l-19.995-11.539l-12.39-7.151c-10.918-6.301-24.37-6.3-35.287,0.006l-12.307,7.108l-19.995,11.548L111.02,78.249  L81.076,95.546l-22.191,12.818l-11.697,6.756c-0.841,0.486-1.648,1.015-2.439,1.561c-9.465,6.556-15.201,17.365-15.2,29.001  l0.007,42.41l0.005,27.164l0.014,81.491l0.005,27.164l0.007,42.486c0.003,11.607,5.715,22.388,15.14,28.946  c0.812,0.565,1.642,1.11,2.509,1.61l23.377,13.491l22.198,12.811l18.204,10.506l94.999,54.826l19.995,11.539l12.39,7.151  c10.92,6.302,24.37,6.298,35.287-0.006l12.307-7.108l19.995-11.548l94.989-54.863l27.325-15.782l22.191-12.818l14.319-8.27  c0.841-0.486,1.648-1.015,2.439-1.561c9.465-6.556,15.201-17.365,15.2-29.001l-0.008-42.41L482.435,296.746z"/>
<path style="fill:#464655;" d="M482.415,169.759l-0.004-24.153c-0.001-11.607-5.715-22.389-15.14-28.946  c-0.812-0.565-1.642-1.11-2.509-1.611l-23.711-13.684l-22.198-12.81l-17.87-10.313l-94.999-54.826l-19.995-11.539l-12.39-7.151  c-10.918-6.302-24.37-6.3-35.287,0.006l-12.307,7.108L206.01,23.388l-94.989,54.861l-8.966,5.179l27.726,52.606L177.6,169.76  L482.415,169.759L482.415,169.759z"/>
<path style="fill:#73AF00;" d="M102.046,428.583l8.966,5.175l94.999,54.826l19.995,11.539l12.39,7.151  c10.918,6.302,24.37,6.298,35.287-0.006l12.307-7.108l19.995-11.548l94.989-54.863l27.325-15.782l22.191-12.818l14.319-8.27  c0.841-0.486,1.648-1.013,2.439-1.562c9.465-6.556,15.201-17.365,15.2-29.001l-0.004-24.078H177.602l-46.57,31.226L102.046,428.583z  "/>
<g>
	<path style="fill:#FF4B55;" d="M246.893,248.943l-69.29-79.183l-75.546-86.331L81.076,95.546l-22.191,12.818l-11.697,6.756   c-0.841,0.486-1.648,1.015-2.439,1.561c-9.465,6.556-15.201,17.365-15.2,29.001l0.004,24.078l0.003,18.331l0.005,27.164   l0.014,81.491l0.005,27.164l0.003,18.331l0.004,24.153c0.002,11.607,5.715,22.389,15.14,28.946c0.812,0.565,1.642,1.11,2.509,1.611   l23.377,13.491l22.198,12.812l9.237,5.331l75.556-86.344l69.29-79.183C250.049,259.45,250.049,252.55,246.893,248.943z"/>
	<path style="fill:#FF4B55;" d="M289.886,255.999c0-22.804,14.893-42.121,35.483-48.774c1.182-0.382,1.028-2.114-0.209-2.236   c-3.953-0.389-8.037-0.327-12.208,0.257c-24.183,3.394-42.841,23.845-44.007,48.237c-1.407,29.451,22.054,53.772,51.196,53.772   c1.686,0,3.352-0.082,4.995-0.244c1.242-0.121,1.405-1.858,0.216-2.242C304.772,298.113,289.886,278.798,289.886,255.999z"/>
	<path style="fill:#FF4B55;" d="M333.404,222.325l-6.734,20.192l-21.285,0.165c-2.755,0.021-3.899,3.538-1.682,5.175l17.123,12.644   l-6.421,20.294c-0.831,2.628,2.161,4.801,4.403,3.199l17.317-12.378l17.316,12.378c2.242,1.602,5.234-0.571,4.403-3.199   l-6.421-20.294l17.123-12.644c2.217-1.637,1.075-5.154-1.682-5.175l-21.285-0.165l-6.734-20.192   C337.974,219.711,334.276,219.711,333.404,222.325z"/>
</g>
<g>
</g>
<g>
</g>
<g>
</g>
<g>
</g>
<g>
</g>
<g>
</g>
<g>
</g>
<g>
</g>
<g>
</g>
<g>
</g>
<g>
</g>
<g>
</g>
<g>
</g>
<g>
</g>
<g>
</g>
</svg>
