<?xml version="1.0" encoding="iso-8859-1"?>
<!-- Generator: Adobe Illustrator 19.0.0, SVG Export Plug-In . SVG Version: 6.00 Build 0)  -->
<svg xmlns="http://www.w3.org/2000/svg" xmlns:xlink="http://www.w3.org/1999/xlink" version="1.1" id="Layer_1" x="0px" y="0px" viewBox="0 0 512.002 512.002" style="enable-background:new 0 0 512.002 512.002;" xml:space="preserve">
<path style="fill:#F5F5F5;" d="M482.45,366.319l-0.008-42.41l-0.005-27.164l-0.014-81.491l-0.005-27.164l-0.008-42.486  c0-3.105-0.422-6.147-1.202-9.07c-0.42-1.572-0.948-3.107-1.577-4.598c-2.568-6.091-6.814-11.419-12.362-15.28  c-0.812-0.565-1.642-1.11-2.509-1.611l-23.71-13.684l-22.198-12.81l-17.87-10.313l-68.335-39.437l0,0l-26.659-15.386l-19.995-11.539  l-12.39-7.151c-10.918-6.301-24.37-6.3-35.287,0.006l-12.307,7.108l-19.995,11.548l-26.659,15.398l0,0l-68.33,39.466L81.078,95.547  l-22.191,12.818l-11.697,6.756c-0.841,0.486-1.648,1.015-2.439,1.561c-3.392,2.349-6.296,5.254-8.638,8.538  c-1.572,2.206-2.883,4.585-3.911,7.092c-1.715,4.179-2.652,8.706-2.651,13.371l0.007,42.41l0.005,27.164l0.014,81.478v0.014v0.005  l0.005,27.159l0.007,42.478v0.006c0.003,11.607,5.715,22.388,15.14,28.946c0.812,0.565,1.642,1.11,2.509,1.61l23.377,13.491  l22.198,12.812l18.204,10.506l94.999,54.826l19.995,11.539l12.39,7.151c10.918,6.302,24.37,6.298,35.287-0.006l12.307-7.108  l19.995-11.548l26.659-15.397l0,0l57.587-33.261l10.742-6.205l27.325-15.782l22.191-12.818l14.319-8.27  c0.841-0.486,1.648-1.015,2.439-1.561C476.715,388.766,482.451,377.956,482.45,366.319L482.45,366.319L482.45,366.319z"/>
<path style="fill:#FF4B55;" d="M275.995,236.006V6.107l-2.393-1.381c-10.918-6.302-24.37-6.3-35.287,0.006l-2.309,1.333v229.941  H29.567l0.006,39.989h206.432v229.901l2.393,1.381c10.92,6.302,24.37,6.298,35.287-0.006l2.309-1.333V275.995h206.439l-0.006-39.989  L275.995,236.006L275.995,236.006z"/>
<g>
	<path style="fill:#464655;" d="M164.269,166.507c1.497-2.993-6.778-12.689-6.34-14.886c0.44-2.197,1.42-5.562-2.096-18.302   c-3.514-12.74-14.074-15.819-26.814-17.137s-29.584,7.819-33.388,17.793c-2.296,6.02-0.744,12.743,1.666,19.142   c-1.081,0.116-3.152,0.177-4.679-0.951c-1.215-0.906-1.881-2.443-1.998-4.565c-0.426-8.079,3.981-21.314,4.029-21.444l0.33-0.988   l-13.839-4.88l0.814,6.493l-10.677-2.279l0.652,1.792c0.94,2.581,9.212,25.274,10.323,27.279c1.826,3.274,4.304,5.369,7.365,6.22   c1.098,0.309,2.183,0.426,3.213,0.426c0.132,0,0.242-0.035,0.374-0.037c-0.627,1.155-1.894,2.609-5.124,4.109   c-3.788,1.746-7.622,3.627-8.042,10.697l-0.114,0.059c0.034,0.065,0.074,0.101,0.109,0.165c-0.091,1.868-0.006,4.003,0.441,6.686   c1.112,6.631,3.37,13.139,3.467,13.413l0.22,0.625l0.659,0.075c0.047,0,4.393,0.521,5.725,5.086   c0.769,2.643,3.192,4.647,5.573,4.647c0.061,0,0.124-0.006,0.185-0.006c1.03-0.047,3.522-0.584,4.331-4.62l0.116-0.584   l-6.546-6.022l2.193-7.233l-1.043-0.281c-0.061-0.015-4.396-1.32-8.881-6.213c-0.415-2.014-0.366-3.47,0.171-4.296   c0.611-0.927,1.908-1.187,3.412-1.49c1.401-0.281,2.849-0.57,4.023-1.482c3.773-2.949,5.885-8.019,6.953-11.492   c0.58,1.312,1.135,2.588,1.627,3.804c3.734,9.226-6.589,19.77-6.589,19.77c6.589,2.636,7.249,4.174,16.474,15.596   c9.226,11.422,17.573,6.589,17.573,6.589s-1.187-7.313,4.876-10.401c6.065-3.087,6.202-7.057,6.202-7.057   c15.133,3.555,16.043-2.647,15.382-4.796s0.165-5.541,0.165-5.541s1.523,0.096,2.647-0.661c1.778-1.198,0.58-4.051,0.58-4.051   c1.737-0.827,2.398-2.647,1.075-4.053s-1.241-2.977-1.241-2.977S163.278,168.491,164.269,166.507z M90.189,157.759   c-2.498-0.694-4.551-2.451-6.096-5.217c-0.735-1.318-5.876-15.163-9.535-25.186l7.673,1.636l1.442,11.517l2.087-0.261   l-2.107-16.832l8.676,3.054c-1.043,3.302-4.201,13.99-3.81,21.238c0.144,2.78,1.098,4.846,2.835,6.143   c1.572,1.173,3.459,1.448,4.901,1.448c0.85,0,1.428-0.082,1.82-0.152c0.215,0.53,0.437,1.05,0.659,1.572   C97.516,157.319,93.941,158.822,90.189,157.759z M98.433,201.266c-0.295,1.036-0.92,2.307-2.224,2.362c-0.027,0-0.061,0-0.096,0   c-1.435,0-3.048-1.407-3.549-3.123c-0.026-0.089-0.079-0.134-0.105-0.22l1.071-3.534L98.433,201.266z M93.778,188.677l-2.682,8.826   c-1.74-2.361-4.176-3.195-5.357-3.472c-0.577-1.737-2.293-7.146-3.185-12.479c-0.187-1.126-0.279-2.086-0.364-3.032   C86.634,185.022,91.641,187.827,93.778,188.677z M92.784,171.851c-0.776,0.604-1.922,0.831-3.137,1.077   c-1.723,0.344-3.665,0.735-4.764,2.403c-0.401,0.61-0.6,1.376-0.702,2.228c-0.7-0.99-1.418-1.828-2.074-3.033   c0.465-5.369,3.387-6.728,6.861-8.331c5.009-2.318,6.171-4.787,6.666-6.263c1.785-0.349,3.123-0.901,3.915-1.277   c0.04,0.092,0.079,0.176,0.119,0.267C99.116,161.355,97.216,168.39,92.784,171.851z M104.564,162.371l-4.3-9.261l50.61-23.486   c3.309,6.286,3.639,13.727,3.639,13.727L104.564,162.371z"/>
	<path style="fill:#464655;" d="M440.544,166.507c1.497-2.993-6.778-12.689-6.34-14.886c0.44-2.197,1.42-5.562-2.096-18.302   c-3.515-12.74-14.074-15.819-26.814-17.137s-29.584,7.819-33.388,17.793c-2.296,6.02-0.744,12.743,1.666,19.142   c-1.081,0.116-3.152,0.177-4.679-0.951c-1.215-0.906-1.881-2.443-1.997-4.565c-0.426-8.079,3.981-21.314,4.029-21.444l0.33-0.988   l-13.839-4.88l0.814,6.493l-10.677-2.279l0.652,1.792c0.941,2.581,9.212,25.274,10.325,27.279c1.826,3.274,4.304,5.369,7.366,6.22   c1.098,0.309,2.183,0.426,3.213,0.426c0.132,0,0.242-0.035,0.374-0.037c-0.627,1.155-1.894,2.609-5.124,4.109   c-3.788,1.746-7.622,3.627-8.042,10.697l-0.114,0.059c0.034,0.065,0.074,0.101,0.107,0.165c-0.091,1.868-0.006,4.003,0.441,6.686   c1.112,6.631,3.37,13.139,3.467,13.413l0.22,0.625l0.659,0.075c0.047,0,4.394,0.521,5.725,5.086   c0.769,2.643,3.192,4.647,5.573,4.647c0.061,0,0.124-0.006,0.185-0.006c1.03-0.047,3.522-0.584,4.331-4.62l0.116-0.584   l-6.546-6.022l2.193-7.233l-1.043-0.281c-0.061-0.015-4.396-1.32-8.881-6.213c-0.415-2.014-0.366-3.47,0.171-4.296   c0.611-0.927,1.908-1.187,3.412-1.49c1.401-0.281,2.849-0.57,4.023-1.482c3.773-2.949,5.885-8.019,6.954-11.492   c0.58,1.312,1.135,2.588,1.627,3.804c3.734,9.226-6.589,19.77-6.589,19.77c6.589,2.636,7.249,4.174,16.474,15.596   c9.226,11.422,17.573,6.589,17.573,6.589s-1.187-7.313,4.876-10.401c6.065-3.087,6.202-7.057,6.202-7.057   c15.133,3.555,16.043-2.647,15.382-4.796s0.166-5.541,0.166-5.541s1.525,0.096,2.647-0.661c1.778-1.198,0.579-4.051,0.579-4.051   c1.737-0.827,2.398-2.647,1.075-4.053c-1.323-1.406-1.241-2.977-1.241-2.977S439.551,168.491,440.544,166.507z M366.463,157.759   c-2.498-0.694-4.551-2.451-6.096-5.217c-0.735-1.318-5.876-15.163-9.535-25.186l7.674,1.636l1.442,11.517l2.087-0.261   l-2.107-16.832l8.676,3.054c-1.043,3.302-4.201,13.99-3.81,21.238c0.144,2.78,1.098,4.846,2.835,6.143   c1.572,1.173,3.459,1.448,4.901,1.448c0.851,0,1.428-0.082,1.819-0.152c0.215,0.53,0.437,1.05,0.659,1.572   C373.789,157.319,370.215,158.822,366.463,157.759z M374.706,201.266c-0.295,1.036-0.92,2.307-2.224,2.362   c-0.027,0-0.061,0-0.096,0c-1.435,0-3.048-1.407-3.549-3.123c-0.026-0.089-0.079-0.134-0.106-0.22l1.071-3.534L374.706,201.266z    M370.053,188.677l-2.682,8.826c-1.74-2.361-4.176-3.195-5.357-3.472c-0.576-1.737-2.293-7.146-3.185-12.479   c-0.187-1.126-0.279-2.086-0.364-3.032C362.907,185.022,367.915,187.827,370.053,188.677z M369.057,171.851   c-0.776,0.604-1.922,0.831-3.137,1.077c-1.723,0.344-3.665,0.735-4.764,2.403c-0.401,0.61-0.6,1.376-0.702,2.228   c-0.7-0.99-1.418-1.828-2.073-3.033c0.465-5.369,3.387-6.728,6.861-8.331c5.009-2.318,6.171-4.787,6.666-6.263   c1.785-0.349,3.123-0.901,3.915-1.277c0.04,0.092,0.079,0.176,0.119,0.267C375.39,161.355,373.489,168.39,369.057,171.851z    M380.837,162.371l-4.3-9.261l50.61-23.486c3.309,6.286,3.639,13.727,3.639,13.727L380.837,162.371z"/>
	<path style="fill:#464655;" d="M164.269,353.66c1.497-2.993-6.778-12.689-6.34-14.886c0.44-2.197,1.42-5.562-2.096-18.304   c-3.514-12.74-14.074-15.819-26.814-17.137s-29.584,7.819-33.388,17.793c-2.296,6.02-0.744,12.743,1.666,19.142   c-1.081,0.116-3.152,0.176-4.679-0.952c-1.215-0.906-1.881-2.444-1.998-4.565c-0.426-8.079,3.981-21.314,4.029-21.444l0.33-0.988   l-13.839-4.881l0.814,6.493l-10.677-2.279l0.652,1.792c0.94,2.581,9.212,25.274,10.323,27.279c1.826,3.274,4.304,5.369,7.365,6.22   c1.098,0.309,2.183,0.426,3.213,0.426c0.132,0,0.242-0.034,0.374-0.038c-0.627,1.155-1.894,2.609-5.124,4.109   c-3.788,1.746-7.622,3.627-8.042,10.697l-0.114,0.059c0.034,0.065,0.074,0.101,0.109,0.166c-0.091,1.868-0.006,4.003,0.441,6.684   c1.112,6.631,3.37,13.139,3.467,13.413l0.22,0.625l0.659,0.075c0.047,0,4.393,0.521,5.725,5.086   c0.769,2.643,3.192,4.647,5.573,4.647c0.061,0,0.124-0.008,0.185-0.008c1.03-0.047,3.522-0.584,4.331-4.62l0.116-0.584   l-6.546-6.022l2.193-7.233l-1.043-0.281c-0.061-0.015-4.396-1.32-8.881-6.213c-0.415-2.014-0.366-3.47,0.171-4.296   c0.611-0.927,1.908-1.187,3.412-1.49c1.401-0.281,2.849-0.57,4.023-1.483c3.773-2.949,5.885-8.019,6.953-11.492   c0.58,1.312,1.135,2.588,1.627,3.804c3.734,9.226-6.589,19.77-6.589,19.77c6.589,2.636,7.249,4.174,16.474,15.596   c9.226,11.422,17.573,6.589,17.573,6.589s-1.187-7.313,4.876-10.401c6.065-3.087,6.202-7.057,6.202-7.057   c15.133,3.555,16.043-2.647,15.382-4.796s0.165-5.541,0.165-5.541s1.523,0.096,2.647-0.661c1.778-1.198,0.58-4.051,0.58-4.051   c1.737-0.827,2.398-2.647,1.075-4.053s-1.241-2.977-1.241-2.977S163.278,355.645,164.269,353.66z M90.189,344.912   c-2.498-0.694-4.551-2.451-6.096-5.217c-0.735-1.318-5.876-15.163-9.535-25.186l7.673,1.636l1.442,11.517l2.087-0.261   l-2.107-16.832l8.676,3.054c-1.043,3.302-4.201,13.99-3.81,21.238c0.144,2.781,1.098,4.846,2.835,6.143   c1.572,1.173,3.459,1.448,4.901,1.448c0.85,0,1.428-0.082,1.82-0.151c0.215,0.53,0.437,1.05,0.659,1.572   C97.516,344.473,93.941,345.976,90.189,344.912z M98.433,388.418c-0.295,1.036-0.92,2.307-2.224,2.362c-0.027,0-0.061,0-0.096,0   c-1.435,0-3.048-1.407-3.549-3.123c-0.026-0.089-0.079-0.134-0.105-0.22l1.071-3.534L98.433,388.418z M93.778,375.829l-2.682,8.826   c-1.74-2.361-4.176-3.195-5.357-3.472c-0.577-1.737-2.293-7.146-3.185-12.479c-0.187-1.126-0.279-2.084-0.364-3.033   C86.634,372.174,91.641,374.98,93.778,375.829z M92.784,359.005c-0.776,0.604-1.922,0.831-3.137,1.077   c-1.723,0.344-3.665,0.735-4.764,2.403c-0.401,0.61-0.6,1.376-0.702,2.228c-0.7-0.99-1.418-1.827-2.074-3.033   c0.465-5.369,3.387-6.728,6.861-8.331c5.009-2.318,6.171-4.787,6.666-6.263c1.785-0.349,3.123-0.901,3.915-1.277   c0.04,0.091,0.079,0.176,0.119,0.267C99.116,348.508,97.216,355.544,92.784,359.005z M104.564,349.525l-4.3-9.261l50.61-23.486   c3.309,6.285,3.639,13.727,3.639,13.727L104.564,349.525z"/>
	<path style="fill:#464655;" d="M440.544,353.66c1.497-2.993-6.778-12.689-6.34-14.886c0.44-2.197,1.42-5.562-2.096-18.304   c-3.515-12.74-14.074-15.819-26.814-17.137s-29.584,7.819-33.388,17.793c-2.296,6.02-0.744,12.743,1.666,19.142   c-1.081,0.116-3.152,0.176-4.679-0.952c-1.215-0.906-1.881-2.444-1.997-4.565c-0.426-8.079,3.981-21.314,4.029-21.444l0.33-0.988   l-13.839-4.881l0.814,6.493l-10.677-2.279l0.652,1.792c0.941,2.581,9.212,25.274,10.325,27.279c1.826,3.274,4.304,5.369,7.366,6.22   c1.098,0.309,2.183,0.426,3.213,0.426c0.132,0,0.242-0.034,0.374-0.038c-0.627,1.155-1.894,2.609-5.124,4.109   c-3.788,1.746-7.622,3.627-8.042,10.697l-0.114,0.059c0.034,0.065,0.074,0.101,0.107,0.166c-0.091,1.868-0.006,4.003,0.441,6.684   c1.112,6.631,3.37,13.139,3.467,13.413l0.22,0.625l0.659,0.075c0.047,0,4.394,0.521,5.725,5.086   c0.769,2.643,3.192,4.647,5.573,4.647c0.061,0,0.124-0.008,0.185-0.008c1.03-0.047,3.522-0.584,4.331-4.62l0.116-0.584   l-6.546-6.022l2.193-7.233l-1.043-0.281c-0.061-0.015-4.396-1.32-8.881-6.213c-0.415-2.014-0.366-3.47,0.171-4.296   c0.611-0.927,1.908-1.187,3.412-1.49c1.401-0.281,2.849-0.57,4.023-1.483c3.773-2.949,5.885-8.019,6.954-11.492   c0.58,1.312,1.135,2.588,1.627,3.804c3.734,9.226-6.589,19.77-6.589,19.77c6.589,2.636,7.249,4.174,16.474,15.596   c9.226,11.422,17.573,6.589,17.573,6.589s-1.187-7.313,4.876-10.401c6.065-3.087,6.202-7.057,6.202-7.057   c15.133,3.555,16.043-2.647,15.382-4.796s0.166-5.541,0.166-5.541s1.525,0.096,2.647-0.661c1.778-1.198,0.579-4.051,0.579-4.051   c1.737-0.827,2.398-2.647,1.075-4.053s-1.241-2.977-1.241-2.977S439.551,355.645,440.544,353.66z M366.463,344.912   c-2.498-0.694-4.551-2.451-6.096-5.217c-0.735-1.318-5.876-15.163-9.535-25.186l7.674,1.636l1.442,11.517l2.087-0.261   l-2.107-16.832l8.676,3.054c-1.043,3.302-4.201,13.99-3.81,21.238c0.144,2.781,1.098,4.846,2.835,6.143   c1.572,1.173,3.459,1.448,4.901,1.448c0.851,0,1.428-0.082,1.819-0.151c0.215,0.53,0.437,1.05,0.659,1.572   C373.789,344.473,370.215,345.976,366.463,344.912z M374.706,388.418c-0.295,1.036-0.92,2.307-2.224,2.362   c-0.027,0-0.061,0-0.096,0c-1.435,0-3.048-1.407-3.549-3.123c-0.026-0.089-0.079-0.134-0.106-0.22l1.071-3.534L374.706,388.418z    M370.053,375.829l-2.682,8.826c-1.74-2.361-4.176-3.195-5.357-3.472c-0.576-1.737-2.293-7.146-3.185-12.479   c-0.187-1.126-0.279-2.084-0.364-3.033C362.907,372.174,367.915,374.98,370.053,375.829z M369.057,359.005   c-0.776,0.604-1.922,0.831-3.137,1.077c-1.723,0.344-3.665,0.735-4.764,2.403c-0.401,0.61-0.6,1.376-0.702,2.228   c-0.7-0.99-1.418-1.827-2.073-3.033c0.465-5.369,3.387-6.728,6.861-8.331c5.009-2.318,6.171-4.787,6.666-6.263   c1.785-0.349,3.123-0.901,3.915-1.277c0.04,0.091,0.079,0.176,0.119,0.267C375.39,348.508,373.489,355.544,369.057,359.005z    M380.837,349.525l-4.3-9.261l50.61-23.486c3.309,6.285,3.639,13.727,3.639,13.727L380.837,349.525z"/>
</g>
<g>
</g>
<g>
</g>
<g>
</g>
<g>
</g>
<g>
</g>
<g>
</g>
<g>
</g>
<g>
</g>
<g>
</g>
<g>
</g>
<g>
</g>
<g>
</g>
<g>
</g>
<g>
</g>
<g>
</g>
</svg>
