<?xml version="1.0" encoding="iso-8859-1"?>
<!-- Generator: Adobe Illustrator 19.0.0, SVG Export Plug-In . SVG Version: 6.00 Build 0)  -->
<svg xmlns="http://www.w3.org/2000/svg" xmlns:xlink="http://www.w3.org/1999/xlink" version="1.1" id="Layer_1" x="0px" y="0px" viewBox="0 0 512 512" style="enable-background:new 0 0 512 512;" xml:space="preserve">
<path style="fill:#FFE15A;" d="M477.961,128.506c0,0,0-0.001-0.001-0.001c-2.457-4.421-5.858-8.306-10.029-11.354  c-0.222-0.162-0.436-0.334-0.662-0.491c-0.812-0.565-1.642-1.11-2.509-1.611l-11.163-6.442L228.504,221.003L34.035,383.493l0,0  c2.457,4.421,5.86,8.308,10.029,11.356c0.222,0.162,0.436,0.334,0.662,0.491c0.812,0.565,1.642,1.11,2.509,1.611l11.163,6.442  l235.09-118.658L477.961,128.506z"/>
<path style="fill:#41479B;" d="M441.051,101.364l-22.198-12.81l-17.87-10.313l-94.999-54.826l-19.995-11.539l-12.39-7.151  c-10.918-6.302-24.37-6.3-35.287,0.006l-12.307,7.108L206.01,23.387l-94.988,54.862L81.076,95.545l-22.191,12.818l-11.697,6.756  c-0.841,0.486-1.648,1.015-2.439,1.562c-9.465,6.556-15.201,17.365-15.2,29.001l0.007,42.41l0.005,27.164l0.014,81.491l0.005,27.164  l0.007,42.486c0.001,6.093,1.59,11.952,4.449,17.099l419.563-274.89L441.051,101.364z"/>
<path style="fill:#73AF00;" d="M482.44,323.908l-0.005-27.164l-0.014-81.491l-0.005-27.164l-0.008-42.486  c0-0.747-0.025-1.491-0.073-2.229c-0.011-0.177-0.035-0.354-0.049-0.531c-0.045-0.566-0.094-1.131-0.165-1.692  c-0.021-0.165-0.052-0.327-0.076-0.491c-0.082-0.576-0.17-1.15-0.28-1.718c-0.024-0.125-0.055-0.249-0.081-0.372  c-0.125-0.607-0.259-1.213-0.415-1.811c-0.021-0.084-0.047-0.166-0.07-0.25c-0.172-0.64-0.357-1.273-0.565-1.901  c-0.015-0.044-0.031-0.087-0.045-0.131c-0.222-0.665-0.462-1.322-0.722-1.971c-0.006-0.015-0.013-0.03-0.019-0.045  c-0.549-1.357-1.178-2.678-1.888-3.955v-0.001L58.398,403.392l12.214,7.049l22.198,12.812l18.204,10.506l94.999,54.826  l19.995,11.539l12.39,7.151c10.918,6.302,24.37,6.299,35.287-0.006l12.307-7.108l19.995-11.548l94.989-54.863l27.325-15.782  l22.191-12.818l14.319-8.27c0.841-0.486,1.648-1.015,2.439-1.562c9.465-6.556,15.201-17.365,15.2-29.001L482.44,323.908z"/>
<g>
	<path style="fill:#F5F5F5;" d="M89.421,115.386l-4.385,13.15l-13.861,0.107c-1.33,0.01-1.881,1.707-0.811,2.496l11.151,8.234   l-4.181,13.216c-0.401,1.267,1.042,2.316,2.123,1.542l11.277-8.06l11.277,8.06c1.081,0.774,2.524-0.275,2.123-1.542l-4.181-13.216   l11.151-8.234c1.07-0.79,0.519-2.486-0.811-2.497l-13.861-0.107l-4.385-13.15C91.625,114.125,89.842,114.125,89.421,115.386z"/>
	<path style="fill:#F5F5F5;" d="M195.012,115.386l-4.385,13.15l-13.861,0.107c-1.33,0.01-1.881,1.707-0.811,2.496l11.151,8.234   l-4.181,13.216c-0.401,1.267,1.042,2.316,2.123,1.542l11.277-8.06l11.277,8.06c1.081,0.774,2.524-0.275,2.123-1.542l-4.181-13.216   l11.151-8.234c1.07-0.79,0.519-2.486-0.811-2.497l-13.861-0.107l-4.385-13.15C197.216,114.125,195.432,114.125,195.012,115.386z"/>
	<path style="fill:#F5F5F5;" d="M142.216,162.434l-4.385,13.15l-13.861,0.107c-1.33,0.01-1.881,1.707-0.811,2.497l11.151,8.234   l-4.181,13.216c-0.401,1.267,1.042,2.316,2.123,1.543l11.277-8.06l11.277,8.06c1.081,0.772,2.524-0.275,2.123-1.543l-4.181-13.216   l11.151-8.234c1.07-0.79,0.519-2.486-0.811-2.497l-13.861-0.107l-4.385-13.15C144.421,161.174,142.638,161.174,142.216,162.434z"/>
	<path style="fill:#F5F5F5;" d="M89.421,209.484l-4.385,13.15l-13.861,0.107c-1.33,0.01-1.881,1.707-0.811,2.496l11.151,8.234   l-4.181,13.216c-0.401,1.267,1.042,2.316,2.123,1.542l11.277-8.06l11.277,8.06c1.081,0.774,2.524-0.275,2.123-1.542l-4.181-13.216   l11.151-8.234c1.07-0.79,0.519-2.486-0.811-2.497l-13.861-0.107l-4.385-13.15C91.625,208.223,89.842,208.223,89.421,209.484z"/>
	<path style="fill:#F5F5F5;" d="M195.012,209.484l-4.385,13.15l-13.861,0.107c-1.33,0.01-1.881,1.707-0.811,2.496l11.151,8.234   l-4.181,13.216c-0.401,1.267,1.042,2.316,2.123,1.542l11.277-8.06l11.277,8.06c1.081,0.774,2.524-0.275,2.123-1.542l-4.181-13.216   l11.151-8.234c1.07-0.79,0.519-2.486-0.811-2.497l-13.861-0.107l-4.385-13.15C197.216,208.223,195.432,208.223,195.012,209.484z"/>
</g>
<g>
</g>
<g>
</g>
<g>
</g>
<g>
</g>
<g>
</g>
<g>
</g>
<g>
</g>
<g>
</g>
<g>
</g>
<g>
</g>
<g>
</g>
<g>
</g>
<g>
</g>
<g>
</g>
<g>
</g>
</svg>
