<?xml version="1.0" encoding="iso-8859-1"?>
<!-- Generator: Adobe Illustrator 19.0.0, SVG Export Plug-In . SVG Version: 6.00 Build 0)  -->
<svg xmlns="http://www.w3.org/2000/svg" xmlns:xlink="http://www.w3.org/1999/xlink" version="1.1" id="Layer_1" x="0px" y="0px" viewBox="0 0 512 512" style="enable-background:new 0 0 512 512;" xml:space="preserve">
<path style="fill:#F5F5F5;" d="M482.442,323.911l-0.005-27.164l-0.014-81.491l-0.005-27.164l-0.008-42.486  c0-3.105-0.422-6.147-1.202-9.07c-0.42-1.572-0.949-3.107-1.577-4.597c-2.568-6.091-6.814-11.419-12.362-15.28  c-0.812-0.565-1.642-1.11-2.509-1.611l-23.71-13.684l-22.198-12.81l-17.87-10.313l-68.336-39.44l-26.659-15.386l-19.995-11.539  l-12.39-7.151c-10.918-6.302-24.37-6.3-35.287,0.006l-12.307,7.108l-19.995,11.548l-26.659,15.398l0,0l-68.329,39.466L81.078,95.547  l-22.191,12.818l-11.698,6.756c-0.841,0.486-1.648,1.015-2.439,1.561c-3.392,2.349-6.296,5.254-8.638,8.538  c-1.572,2.206-2.883,4.585-3.911,7.092c-1.715,4.179-2.652,8.706-2.651,13.371l0.007,42.41l0.005,27.164l0.014,81.478v0.014v0.005  l0.004,24.818l0,0v0.041l0,0v2.299l0.007,42.478v0.006c0,0.679,0.024,1.352,0.062,2.024c0.014,0.235,0.037,0.469,0.056,0.702  c0.034,0.432,0.07,0.864,0.119,1.292c0.032,0.286,0.074,0.57,0.114,0.854c0.051,0.37,0.106,0.737,0.17,1.105  c0.054,0.312,0.112,0.621,0.175,0.932c0.066,0.329,0.137,0.656,0.212,0.982c0.076,0.33,0.152,0.66,0.239,0.987  c0.076,0.291,0.161,0.58,0.245,0.869c0.101,0.35,0.2,0.701,0.311,1.046c0.072,0.226,0.156,0.447,0.232,0.671  c0.325,0.943,0.681,1.874,1.083,2.784c0.004,0.008,0.006,0.015,0.009,0.022l0,0c0.01,0.022,0.019,0.045,0.029,0.067l0,0v0.001  c0.631,1.415,1.357,2.784,2.168,4.103c0.095,0.156,0.199,0.306,0.296,0.46c0.306,0.481,0.619,0.956,0.948,1.422  c0.141,0.2,0.289,0.395,0.434,0.592c0.302,0.41,0.611,0.815,0.932,1.211c0.171,0.212,0.346,0.422,0.522,0.631  c0.314,0.37,0.635,0.734,0.963,1.091c0.192,0.211,0.386,0.42,0.585,0.626c0.336,0.349,0.684,0.687,1.035,1.022  c0.204,0.194,0.404,0.391,0.611,0.58c0.384,0.35,0.782,0.685,1.182,1.018c0.189,0.157,0.371,0.32,0.564,0.472  c0.597,0.476,1.21,0.938,1.842,1.377c0.812,0.565,1.642,1.11,2.509,1.611l13.391,7.729l9.985,5.762l22.198,12.811l18.204,10.506  l94.999,54.826l19.995,11.539l12.39,7.151c10.918,6.302,24.37,6.298,35.287-0.006l12.307-7.108l19.995-11.548l26.659-15.397  l57.587-33.261l10.742-6.205l27.325-15.782l22.191-12.818l14.319-8.27c0.841-0.486,1.648-1.013,2.439-1.562  c9.465-6.556,15.201-17.365,15.2-29.001L482.442,323.911z"/>
<path style="fill:#73AF00;" d="M482.443,333.195L86.566,419.65l6.245,3.604l18.204,10.506l94.999,54.826l19.995,11.539l12.39,7.151  c10.918,6.302,24.37,6.298,35.287-0.006l12.307-7.108l19.995-11.548l26.659-15.397l57.587-33.261l10.742-6.205l27.325-15.782  l22.191-12.818l14.319-8.27c0.841-0.486,1.648-1.013,2.439-1.562c9.465-6.556,15.201-17.365,15.2-29.001L482.443,333.195z"/>
<path style="fill:#41479B;" d="M171.508,43.318l-60.483,34.933L81.078,95.547l-22.191,12.818l-11.698,6.756  c-0.841,0.486-1.648,1.015-2.439,1.561c-3.392,2.349-6.296,5.254-8.638,8.538c-1.572,2.206-2.883,4.585-3.911,7.092  c-1.715,4.179-2.652,8.706-2.651,13.371l0.007,42.41l0.005,27.164l0.014,81.478v0.014v0.005l0.004,24.818L171.508,43.318z"/>
<path style="fill:#FFE15A;" d="M29.666,368.601c0.011,0.175,0.029,0.347,0.041,0.521c0.034,0.432,0.07,0.864,0.119,1.292  c0.005,0.042,0.011,0.084,0.016,0.125c0.03,0.244,0.062,0.486,0.097,0.729c0.032,0.236,0.071,0.471,0.109,0.705  c0.021,0.134,0.039,0.266,0.061,0.399c0.044,0.25,0.091,0.5,0.14,0.749c0.012,0.061,0.022,0.122,0.034,0.182  c0.066,0.329,0.137,0.656,0.212,0.982c0.035,0.15,0.072,0.299,0.109,0.449c0.044,0.179,0.084,0.36,0.13,0.539  c0.034,0.13,0.074,0.257,0.109,0.387c0.045,0.16,0.089,0.321,0.135,0.481c0.101,0.35,0.2,0.701,0.311,1.046  c0.024,0.073,0.05,0.144,0.075,0.215c0.05,0.152,0.106,0.304,0.159,0.456l0,0c0.325,0.942,0.681,1.873,1.083,2.782  c0,0.001,0,0.001,0,0.001c0.004,0.008,0.006,0.016,0.01,0.024l330.31-324.388l-30.28-17.476l-26.659-15.386l-19.995-11.539  l-12.39-7.151c-10.918-6.302-24.37-6.3-35.287,0.006l-12.307,7.108l-19.995,11.548l-26.659,15.398l0,0l-7.748,4.475L29.581,321.61  v2.299l0.007,42.478v0.006c0,0.679,0.024,1.352,0.062,2.024C29.654,368.48,29.661,368.54,29.666,368.601z"/>
<path style="fill:#FF4B55;" d="M482.424,220.448l-0.001-5.192l-0.005-27.164l-0.008-42.486c0-3.105-0.422-6.147-1.202-9.07  c-0.42-1.572-0.949-3.107-1.577-4.597c-2.568-6.091-6.814-11.419-12.362-15.28c-0.812-0.565-1.642-1.11-2.509-1.611l-23.71-13.684  l-22.198-12.81l-17.87-10.313l-37.68-21.745L32.646,380.734l0,0l0,0l0,0c0,0.001,0,0.001,0,0.001  c0.112,0.251,0.242,0.494,0.361,0.741c0.214,0.451,0.424,0.906,0.656,1.348c0.361,0.684,0.745,1.356,1.15,2.013  c0.095,0.156,0.199,0.306,0.296,0.46c0.306,0.481,0.619,0.956,0.948,1.422c0.109,0.155,0.224,0.307,0.336,0.46  c0.032,0.044,0.065,0.089,0.097,0.132c0.057,0.079,0.119,0.152,0.177,0.231c0.247,0.33,0.495,0.66,0.755,0.981  c0.171,0.212,0.346,0.422,0.522,0.631c0.314,0.37,0.635,0.734,0.963,1.091c0.192,0.211,0.386,0.42,0.585,0.626  c0.177,0.184,0.365,0.361,0.547,0.541c0.162,0.161,0.322,0.324,0.487,0.482c0.091,0.086,0.182,0.174,0.275,0.26  c0.111,0.106,0.222,0.215,0.337,0.319c0.186,0.17,0.382,0.331,0.575,0.495c0.201,0.176,0.402,0.352,0.607,0.524  c0.132,0.11,0.262,0.225,0.397,0.334c0.055,0.047,0.11,0.095,0.166,0.14c0.597,0.476,1.21,0.939,1.842,1.377  c0.812,0.565,1.642,1.11,2.509,1.611l13.391,7.729L482.424,220.448z"/>
<g>
</g>
<g>
</g>
<g>
</g>
<g>
</g>
<g>
</g>
<g>
</g>
<g>
</g>
<g>
</g>
<g>
</g>
<g>
</g>
<g>
</g>
<g>
</g>
<g>
</g>
<g>
</g>
<g>
</g>
</svg>
