<?xml version="1.0" encoding="iso-8859-1"?>
<!-- Generator: Adobe Illustrator 19.0.0, SVG Export Plug-In . SVG Version: 6.00 Build 0)  -->
<svg xmlns="http://www.w3.org/2000/svg" xmlns:xlink="http://www.w3.org/1999/xlink" version="1.1" id="Layer_1" x="0px" y="0px" viewBox="0 0 512.001 512.001" style="enable-background:new 0 0 512.001 512.001;" xml:space="preserve">
<path style="fill:#F5F5F5;" d="M482.435,296.746l-0.014-81.491l-0.005-27.164l-0.008-42.486  c-0.001-11.607-5.715-22.388-15.14-28.946c-0.812-0.565-1.642-1.11-2.509-1.611l-23.71-13.684l-22.198-12.81l-17.87-10.313  l-94.999-54.826l-19.995-11.539l-12.39-7.151c-10.918-6.301-24.37-6.3-35.287,0.006l-12.307,7.108l-19.995,11.548L111.02,78.249  L81.076,95.546l-22.191,12.818l-11.697,6.756c-0.841,0.486-1.648,1.015-2.439,1.561c-9.465,6.556-15.201,17.365-15.2,29.001  l0.007,42.41l0.005,27.164l0.014,81.491l0.005,27.164l0.007,42.486c0.003,11.607,5.715,22.388,15.14,28.946  c0.812,0.565,1.642,1.11,2.509,1.61l23.377,13.491l22.198,12.811l18.204,10.506l94.999,54.826l19.995,11.539l12.39,7.151  c10.92,6.302,24.37,6.298,35.287-0.006l12.307-7.108l19.995-11.548l94.989-54.863l27.325-15.782l22.191-12.818l14.319-8.27  c0.841-0.486,1.648-1.015,2.439-1.561c9.465-6.556,15.201-17.365,15.2-29.001l-0.008-42.41L482.435,296.746z"/>
<path style="fill:#FF4B55;" d="M482.415,169.759l-0.004-24.153c-0.001-11.607-5.715-22.389-15.14-28.946  c-0.812-0.565-1.642-1.11-2.509-1.611l-23.711-13.684l-22.198-12.81l-17.87-10.313l-94.999-54.826l-19.995-11.539l-12.39-7.151  c-10.918-6.302-24.37-6.3-35.287,0.006l-12.307,7.108L206.01,23.388l-94.989,54.861l-8.365,4.831l28.375,51.702l47.128,34.975  h304.254v0.002H482.415z"/>
<path style="fill:#464655;" d="M102.647,428.931l8.365,4.827l94.999,54.826l19.995,11.539l12.39,7.151  c10.918,6.302,24.37,6.298,35.287-0.006l12.307-7.108l19.995-11.548l94.989-54.862l27.325-15.782l22.191-12.818l14.319-8.27  c0.841-0.486,1.648-1.013,2.439-1.562c9.465-6.556,15.201-17.365,15.2-29.001l-0.004-24.078H178.162l-47.128,33.726L102.647,428.931  z"/>
<path style="fill:#73AF00;" d="M247.135,248.943L178.16,169.76l-75.502-86.68L81.076,95.546l-22.191,12.818l-11.697,6.756  c-0.841,0.486-1.648,1.015-2.439,1.561c-9.465,6.556-15.201,17.365-15.2,29.001l0.004,24.078l0.004,18.331l0.005,27.164  l0.014,81.491l0.005,27.164l0.004,18.331l0.004,24.153c0.003,11.607,5.715,22.389,15.14,28.946c0.812,0.565,1.642,1.11,2.509,1.611  l23.377,13.491l22.198,12.812l9.839,5.677l75.513-86.69l68.975-79.183C250.278,259.45,250.278,252.55,247.135,248.943z"/>
<g>
</g>
<g>
</g>
<g>
</g>
<g>
</g>
<g>
</g>
<g>
</g>
<g>
</g>
<g>
</g>
<g>
</g>
<g>
</g>
<g>
</g>
<g>
</g>
<g>
</g>
<g>
</g>
<g>
</g>
</svg>
