<?xml version="1.0" encoding="iso-8859-1"?>
<!-- Generator: Adobe Illustrator 19.0.0, SVG Export Plug-In . SVG Version: 6.00 Build 0)  -->
<svg xmlns="http://www.w3.org/2000/svg" xmlns:xlink="http://www.w3.org/1999/xlink" version="1.1" id="Layer_1" x="0px" y="0px" viewBox="0 0 511.999 511.999" style="enable-background:new 0 0 511.999 511.999;" xml:space="preserve">
<path style="fill:#F5F5F5;" d="M482.43,256.625l-0.019-111.02c-0.003-12.607-6.729-24.255-17.649-30.557L273.6,4.725  c-10.92-6.302-24.37-6.3-35.287,0.006L47.189,115.118c-10.917,6.305-17.64,17.955-17.638,30.562l0.019,110.943l0.017,109.77  c0.003,12.607,6.73,24.255,17.649,30.557l191.161,110.325c10.918,6.301,24.37,6.299,35.287-0.006L464.809,396.88  c10.917-6.305,17.64-17.955,17.639-30.563L482.43,256.625z"/>
<path style="fill:#FF4B55;" d="M482.411,145.606c-0.003-12.607-6.729-24.255-17.649-30.557L273.6,4.725  c-10.92-6.302-24.37-6.3-35.287,0.006L47.189,115.118c-10.917,6.305-17.64,17.955-17.638,30.562l0.019,110.943h452.86  L482.411,145.606z"/>
<g>
	<path style="fill:#F5F5F5;" d="M114.805,164.862c0-30.469,22.358-55.726,51.551-60.398c1.585-0.254,1.657-2.434,0.092-2.794   c-7.228-1.662-14.905-2.134-22.875-1.05c-31.488,4.289-55.826,31.538-56.271,63.313c-0.507,36.281,28.742,65.824,64.852,65.824   c4.915,0,9.689-0.575,14.281-1.631c1.562-0.359,1.483-2.544-0.099-2.798C137.153,220.658,114.805,195.449,114.805,164.862z"/>
	<path style="fill:#F5F5F5;" d="M166.836,181.167l-2.743,8.224l-8.669,0.067c-1.122,0.009-1.588,1.441-0.685,2.108l6.974,5.15   l-2.616,8.266c-0.339,1.07,0.88,1.956,1.793,1.302l7.053-5.041l7.053,5.041c0.914,0.652,2.132-0.232,1.793-1.302l-2.616-8.266   l6.974-5.15c0.904-0.667,0.437-2.099-0.685-2.108l-8.669-0.067l-2.743-8.224C168.697,180.102,167.191,180.102,166.836,181.167z"/>
	<path style="fill:#F5F5F5;" d="M209.689,181.167l-2.743,8.224l-8.669,0.067c-1.122,0.009-1.588,1.441-0.685,2.108l6.974,5.15   l-2.616,8.266c-0.339,1.07,0.88,1.956,1.793,1.302l7.053-5.041l7.053,5.041c0.914,0.652,2.132-0.232,1.793-1.302l-2.616-8.266   l6.974-5.15c0.904-0.667,0.437-2.099-0.685-2.108l-8.669-0.067l-2.743-8.224C211.551,180.102,210.045,180.102,209.689,181.167z"/>
	<path style="fill:#F5F5F5;" d="M188.455,115.033l-2.743,8.224l-8.669,0.067c-1.122,0.009-1.588,1.441-0.685,2.108l6.974,5.15   l-2.616,8.266c-0.339,1.07,0.88,1.956,1.793,1.302l7.053-5.041l7.053,5.041c0.913,0.652,2.132-0.232,1.793-1.302l-2.616-8.266   l6.974-5.15c0.904-0.667,0.437-2.099-0.685-2.108l-8.669-0.067l-2.743-8.224C190.317,113.969,188.811,113.969,188.455,115.033z"/>
	<path style="fill:#F5F5F5;" d="M154.288,140.37l-2.743,8.224l-8.669,0.067c-1.122,0.009-1.588,1.441-0.685,2.108l6.974,5.15   l-2.616,8.265c-0.339,1.07,0.88,1.956,1.793,1.302l7.053-5.041l7.053,5.041c0.913,0.652,2.132-0.232,1.793-1.302l-2.616-8.265   l6.974-5.15c0.904-0.667,0.437-2.099-0.685-2.108l-8.669-0.067l-2.743-8.224C156.149,139.305,154.643,139.305,154.288,140.37z"/>
	<path style="fill:#F5F5F5;" d="M222.333,140.37l-2.743,8.224l-8.669,0.067c-1.122,0.009-1.588,1.441-0.685,2.108l6.974,5.15   l-2.616,8.265c-0.339,1.07,0.88,1.956,1.793,1.302l7.053-5.041l7.053,5.041c0.913,0.652,2.132-0.232,1.793-1.302l-2.616-8.265   l6.974-5.15c0.902-0.667,0.437-2.099-0.685-2.108l-8.669-0.067l-2.743-8.224C224.195,139.305,222.688,139.305,222.333,140.37z"/>
</g>
<g>
</g>
<g>
</g>
<g>
</g>
<g>
</g>
<g>
</g>
<g>
</g>
<g>
</g>
<g>
</g>
<g>
</g>
<g>
</g>
<g>
</g>
<g>
</g>
<g>
</g>
<g>
</g>
<g>
</g>
</svg>
