<?xml version="1.0" encoding="iso-8859-1"?>
<!-- Generator: Adobe Illustrator 19.0.0, SVG Export Plug-In . SVG Version: 6.00 Build 0)  -->
<svg xmlns="http://www.w3.org/2000/svg" xmlns:xlink="http://www.w3.org/1999/xlink" version="1.1" id="Layer_1" x="0px" y="0px" viewBox="0 0 512.001 512.001" style="enable-background:new 0 0 512.001 512.001;" xml:space="preserve">
<path style="fill:#FFE15A;" d="M467.909,394.835l-196.91-161.328L44.097,117.165c-9.066,6.596-14.545,17.157-14.544,28.516  l0.007,42.41l0.005,27.164l0.014,81.491l0.005,27.164l0.007,42.485c0.003,11.607,5.715,22.389,15.14,28.946  c0.812,0.565,1.642,1.11,2.509,1.611l23.377,13.491l22.198,12.812l18.204,10.506l94.999,54.826l19.995,11.539l12.39,7.151  c10.92,6.302,24.371,6.298,35.287-0.006l12.307-7.108l19.995-11.548l94.989-54.863l27.325-15.782l22.191-12.818l14.319-8.27  c0.841-0.486,1.648-1.013,2.439-1.561C470.363,393.166,470.741,392.776,467.909,394.835z"/>
<path style="fill:#FF4B55;" d="M475.294,387.594c0.008-0.01,0.015-0.02,0.022-0.03c0.404-0.534,0.792-1.078,1.165-1.635  c0.021-0.031,0.04-0.062,0.06-0.094c0.357-0.537,0.701-1.082,1.028-1.637c0.033-0.055,0.062-0.111,0.094-0.167  c0.311-0.534,0.61-1.073,0.892-1.623c0.045-0.087,0.085-0.177,0.13-0.265c0.262-0.522,0.517-1.05,0.754-1.585  c0.054-0.122,0.101-0.247,0.154-0.371c0.217-0.506,0.429-1.016,0.622-1.532c0.061-0.165,0.114-0.334,0.174-0.499  c0.172-0.481,0.342-0.965,0.494-1.455c0.066-0.214,0.12-0.432,0.182-0.647c0.129-0.449,0.26-0.897,0.371-1.352  c0.066-0.27,0.117-0.545,0.177-0.817c0.09-0.409,0.185-0.815,0.26-1.227c0.061-0.334,0.104-0.672,0.155-1.008  c0.055-0.357,0.117-0.712,0.161-1.073c0.052-0.43,0.084-0.865,0.12-1.298c0.022-0.272,0.057-0.542,0.074-0.817  c0.044-0.711,0.066-1.426,0.065-2.144l-0.008-42.41l-0.005-27.164l-0.014-81.491l-0.005-27.164l-0.008-42.486  c0-2.902-0.357-5.752-1.041-8.496c-0.512-2.059-1.208-4.059-2.073-5.978c-2.597-5.757-6.723-10.782-12.025-14.471  c-0.812-0.565-1.642-1.11-2.509-1.611l-11.856-6.842l-11.855-6.842l-22.198-12.811l-17.87-10.313l-10.036-5.792L305.984,23.41  L285.99,11.87L273.6,4.719c-0.682-0.394-1.375-0.764-2.076-1.107c-2.804-1.378-5.746-2.363-8.748-2.953  C260.531,0.221,258.245,0,255.961,0c-1.523,0-3.047,0.099-4.559,0.296c-4.539,0.592-8.99,2.069-13.084,4.434l-12.307,7.108  l-19.995,11.548L111.028,78.25L81.081,95.546L58.89,108.364l-11.697,6.756c-0.841,0.486-1.648,1.015-2.439,1.561  c-0.225,0.155-0.436,0.325-0.656,0.485L467.91,394.835C470.741,392.776,473.221,390.329,475.294,387.594z"/>
<g>
	<path style="fill:#FFBE55;" d="M275.053,229.219c1.118-0.9,2.044-2.012,1.693-2.949c-0.292-0.777-1.736-1.498-3.265-2.262   c-2.838-1.418-6.628-3.364-7.887-8.023c-0.15-0.015-0.289-0.001-0.444-0.03c-1.246-0.231-2.023,0.197-2.924,3.124   c-0.165,0.535-0.516,1.391-0.982,2.372c0.934,0.619,3.265,2.056,5.535,2.571C271.279,225.043,274.047,226.783,275.053,229.219z"/>
	<path style="fill:#FFBE55;" d="M257.598,227.237c1.343,1.226,2.576,2.616,3.789,4.169c0.07,0.09,0.145,0.179,0.216,0.267   c3.014-2.311,6.843-2.324,9.51-1.888c-0.774-0.802-2.279-1.588-5.134-2.238c-2.647-0.6-5.211-2.098-6.478-2.913   C258.912,225.573,258.274,226.464,257.598,227.237z"/>
	<path style="fill:#FFBE55;" d="M272.869,240.498c1.411,0.816,4.248,2.653,6.704,5.304c0.362-2.038,0.255-4.745-1.661-7.127   C276.275,239.579,274.524,240.154,272.869,240.498z"/>
	<path style="fill:#FFBE55;" d="M249.38,216.681l-0.474,0.575c-2.357,2.882-5.031,6.023-7.585,8.585   c1.555-0.735,3.388-1.271,5.287-1.557c0.68-1.088,2.749-3.975,5.294-7.453C251.288,216.441,250.071,215.843,249.38,216.681z"/>
	<path style="fill:#FFBE55;" d="M240.141,231.287c0.011,0.019,0.172,0.217,0.622,0.386c0.782,0.301,2.233,0.405,3.745-0.292   c4.405-2.049,8.854-0.928,13.226,3.303c0.012,0.012,0.007,0.033,0.02,0.045c0.012,0.012,0.033,0.009,0.044,0.021   c0.026,0.026,1.497,1.502,4.15,2.854c-1.275-1.34-2.421-2.705-3.41-3.971c-1.586-2.026-2.957-3.774-4.589-4.815   c-4.141-2.629-11.356-0.325-13.395,1.828C240.221,230.999,240.141,231.231,240.141,231.287z"/>
	<path style="fill:#FFBE55;" d="M274.393,233.902c0,0-0.01,0.001-0.014,0.004c-0.227,0.106-0.475,0.159-0.73,0.164   c-0.011,0-0.022,0.007-0.034,0.007c-0.026,0-0.049-0.024-0.076-0.025c-0.185-0.007-0.372-0.02-0.556-0.087   c-0.06-0.023-5.656-1.993-9.071,0.48c0.957,1.075,2.038,2.067,3.247,2.972c1.68,0.039,7.49-0.061,10.801-3.154   c1.672-1.561,1.813-3.267,1.532-4.607C278.257,231.59,276.07,233.105,274.393,233.902z"/>
	<path style="fill:#FFBE55;" d="M223.376,232.063c-0.281-0.409-0.591-0.764-0.834-1.247c-0.399-0.796-0.609-1.641-0.82-2.483   c-1.286,2.057-2.639,5.257-1.816,8.8C220.875,234.841,222.337,233.099,223.376,232.063z"/>
	<path style="fill:#FFBE55;" d="M254.62,225.166c1.628-1.701,3.633-5.477,4.149-7.152c0.495-1.616,2.002-6.531,7.028-5.621   c1.118,0.207,1.948-0.504,2.454-1.131c-1.223-1.395-2.82-2.299-4.208-2.332c-1.036-0.099-2.226,0.561-3.148,1.8   c-4.521,6.093-7.962,10.798-9.825,13.423C252.323,224.297,253.505,224.664,254.62,225.166z"/>
	<path style="fill:#FFBE55;" d="M242.947,214.201c-2.803,3.741-5.748,5.852-7.897,7.393c-2.832,2.031-3.532,2.718-3.362,4.293   c0.035,0.32,0.172,0.556,0.457,0.782c0.376,0.299,0.917,0.512,1.533,0.67c0.037-0.019,0.061-0.051,0.101-0.067   c3.38-1.376,10.113-9.602,12.329-12.307l0.479-0.584c2.346-2.838,5.648-1.702,7.455-0.47c0.624-0.846,1.252-1.698,1.881-2.548   C252.659,207.425,247.262,208.452,242.947,214.201z"/>
	<path style="fill:#FFBE55;" d="M271.453,212.993c-0.534,0.77-1.298,1.571-2.276,2.171c0.9,2.985,3.41,4.355,5.92,5.606   c1.49,0.742,2.892,1.483,3.903,2.532c0.847-3.033,0.737-5.446-0.435-7.122C276.845,213.723,273.187,213.123,271.453,212.993z"/>
	<path style="fill:#FFBE55;" d="M258.239,321.438l0.394,0.447c4.976,5.663,9.676,11.134,12.806,15.742   c-0.094-2.488-0.264-5.065-0.564-6.856c-0.01-0.056-0.016-0.117-0.019-0.174c-1.597-2.063-3.317-3.986-5.131-5.612   c-5.304-4.74-8.293-9.495-9.966-13.16C255.476,314.979,255.833,318.705,258.239,321.438z"/>
	<path style="fill:#FFBE55;" d="M255.693,303.156c-0.424-0.745-0.809-1.547-1.122-2.441c-0.003-0.008,0-0.015-0.004-0.023   c-0.026-0.009-0.053-0.019-0.079-0.029c-1.083,1.879-3.069,3.172-5.191,3.177c0,0-0.007,0-0.01,0c-0.164,0-0.31-0.064-0.47-0.077   c-0.276,1.221-0.366,2.601,0.406,3.338c0.87,0.839,2.637,0.827,3.56,0.591c0.449-1.912,0.945-3.267,1.008-3.424   C254.099,303.507,254.87,303.062,255.693,303.156z"/>
	<path style="fill:#FFBE55;" d="M252.155,311.42c-0.191,0.012-0.367,0.044-0.567,0.044c-0.54,0-1.102-0.072-1.666-0.184   c-0.332,1.248-0.449,2.657,0.381,3.505c0.519,0.53,1.277,0.735,1.899,0.774C252.067,314.132,252.033,312.724,252.155,311.42z"/>
	<path style="fill:#FFBE55;" d="M184.886,230.863l-0.009,0.005c-3.633,1.216-7.947,0.919-11.721,0.179   c2.201,3.393,3.042,7.482,3.14,11.284c4.74-6.182,9.986-9.014,13.742-10.356C188.108,231.803,186.366,231.445,184.886,230.863z"/>
	<path style="fill:#FFBE55;" d="M270.534,320.796c-0.82-0.064-2.669-0.297-4.865-0.965c0.774,0.817,1.547,1.636,2.468,2.459   c6.05,5.41,10.969,13.645,14.182,19.997c1.145-4.099,3.838-7.614,6.733-10.281C280.968,331.472,274.644,325.842,270.534,320.796z"/>
	<path style="fill:#FFBE55;" d="M229.624,254.602c-1.325-0.292-2.814-0.841-4.264-1.732c-0.968,3.082-1.646,5.936-2.018,8.541   c2.004-0.185,3.52-0.167,4.551-0.084C228.387,258.562,229.071,256.195,229.624,254.602z"/>
	<path style="fill:#FFBE55;" d="M172.532,245.785c0.434-4.275,0.201-11.101-4.541-15.202c-0.015-0.003-0.029,0.004-0.045,0.001   c-0.146-0.019-13.706-1.974-22.758,7.271c-3.404,3.478-5.618,6.201-7.395,8.388c-2.411,2.968-4.141,5.099-6.949,6.747   C139.338,256.016,159.928,261.116,172.532,245.785z"/>
	<path style="fill:#FFBE55;" d="M298.519,190.989c3.788,2.034,10.185,4.429,15.781,1.62c0.008-0.014,0.008-0.029,0.015-0.042   c0.071-0.117,7.061-11.907,1.983-23.808c-1.911-4.476-3.582-7.563-4.924-10.041c-1.818-3.359-3.127-5.777-3.579-9.004   C301.757,156.412,289.167,173.481,298.519,190.989z"/>
	<path style="fill:#FFBE55;" d="M293.344,333.153c-3.409,2.616-8.221,7.455-7.96,13.716c0.011,0.016,0.03,0.024,0.043,0.041   c0.077,0.112,7.954,11.327,20.889,11.587c4.879,0.099,8.37-0.155,11.183-0.362c3.814-0.282,6.549-0.476,9.671,0.429   C323.543,350.309,313.143,331.841,293.344,333.153z"/>
	<path style="fill:#FFBE55;" d="M265.169,312.693c-0.034-0.071-0.005-0.149-0.029-0.222l-2.472,2.109   c1.618,1.007,3.328,1.623,4.789,2.008C266,314.355,265.199,312.754,265.169,312.693z"/>
	<path style="fill:#FFBE55;" d="M254.972,288.567c-0.686-0.047-1.367-0.12-2.038-0.239c-0.519,0.839-1.656,3.224,0.024,6.233   c0.625,1.121,1.677,2.526,3.143,2.869c0.875,0.199,1.878-0.095,2.942-0.664C256.874,293.261,255.568,290.169,254.972,288.567z"/>
	<path style="fill:#FFBE55;" d="M291.96,224.923c1.879-1.407,5.309-4.05,9.374-7.525c1.22-7.737,5.732-14.941,9.772-20.068   c-4.109,0.57-8.321-0.439-11.872-1.956c4.751,12.718-5.536,26.809-7.465,29.293C291.83,224.755,291.9,224.831,291.96,224.923z"/>
	<path style="fill:#FFBE55;" d="M259.995,312.106l3.275-2.797c-2.129-0.734-4.17-1.933-5.838-3.756   C257.68,306.705,258.37,309.075,259.995,312.106z"/>
	<path style="fill:#FFBE55;" d="M219.591,261.936c0.414-3.494,1.332-7.385,2.76-11.632c-0.916-1.042-1.72-2.312-2.358-3.828   c-1.691,3.911-4.134,10.312-5.075,16.513C216.636,262.536,218.192,262.19,219.591,261.936z"/>
	<path style="fill:#FFBE55;" d="M282.947,217.853c0.412,2.349,0.144,5.052-0.986,8.18c0.68,1.208,1.253,2.89,1.255,4.717   c1.432-0.305,1.538-1.172,1.982-5.905l0.189-1.956c0.179-1.795-0.144-3.167-0.961-4.066   C284.002,218.357,283.477,218.073,282.947,217.853z"/>
	<path style="fill:#FFBE55;" d="M282.555,248.774c1.176-0.244,2.666-0.755,3.856-1.853c1.802-1.663,3.798-5.187,3.47-6.771   c-0.04-0.197-0.09-0.325-0.434-0.447c-1.307-0.466-1.701-0.297-1.698-0.292c-0.08,0.061-0.229,0.391-0.316,0.584   c-0.226,0.5-0.532,1.178-1.216,1.626c-1.043,0.68-2.028,0.861-2.937,0.865C283.543,245.01,283.045,247.305,282.555,248.774z"/>
	<path style="fill:#FFBE55;" d="M216.249,232.914c0.249-1.66,0.734-3.208,1.388-4.597c-3.292-1.231-10.73-3.633-16.805-2.797   c-8.583,1.155-15.108,0.194-19.25-0.918c1.983,2.044,5.39,4.17,10.722,3.949C205.531,228.286,213.114,231.277,216.249,232.914z"/>
	<path style="fill:#FFBE55;" d="M199.645,232.396c-3.13,2.452-5.439,5.399-7.017,7.914c4.862-2.521,11.106-5.036,15.235-6.616   C205.639,233.131,202.904,232.665,199.645,232.396z"/>
	<path style="fill:#FFBE55;" d="M288.71,235.839c0.56,0.066,1.167,0.187,1.871,0.431c-0.029-0.14-0.052-0.264-0.087-0.432   c-0.221-1.02-0.506-2.428-0.434-4.476c-0.001-0.014-0.009-0.024-0.009-0.037c0-0.012,0.006-0.024,0.006-0.037   c0.001-0.042-0.006-0.066-0.004-0.109c0.087-1.901-0.554-3.439-1.393-4.579c-0.247,2.446-0.567,4.293-1.437,5.591   C287.741,233.008,288.348,234.275,288.71,235.839z"/>
	<path style="fill:#FFBE55;" d="M293.382,228.379c0.06,0.265,0.115,0.532,0.156,0.807c10.6-1.438,18.126-12.099,22.468-20.638   C306.781,218.314,296.416,226.152,293.382,228.379z"/>
	<path style="fill:#FFBE55;" d="M249.289,300.22h0.003c0.905-0.005,1.829-0.685,2.222-1.586c-0.624-0.661-1.212-1.403-1.718-2.311   c-0.339-0.606-0.561-1.188-0.762-1.763c-0.715,0.434-1.506,1.052-1.861,1.848c-0.266,0.589-0.255,1.206,0.032,1.941   C247.54,299.203,248.172,300.22,249.289,300.22z"/>
	<path style="fill:#FFBE55;" d="M211.148,264.092c0.721-6.513,3.095-13.255,4.971-17.76c-1.173,0.894-2.639,1.81-4.448,2.677   c-0.202,0.45-3.856,8.635-5.245,16.74C208.098,265.116,209.672,264.564,211.148,264.092z"/>
	<path style="fill:#FFBE55;" d="M275.239,320.741c2.111,0.221,4.066,0.122,5.767-0.117c-3.22-1.098-6.432-2.554-9.061-3.864   C272.874,318.032,273.976,319.403,275.239,320.741z"/>
	<path style="fill:#FFBE55;" d="M249.375,287.339c-8.704-3.305-15.571-12.673-18.031-24.586c-0.724,4.624-0.771,10.35,1.692,15.487   c2.668,5.57,7.953,9.485,15.533,11.789C248.731,288.955,249.039,288.046,249.375,287.339z"/>
	<path style="fill:#FFBE55;" d="M295.687,232.599c-0.192,0.041-0.401,0.039-0.595,0.075c2.418,2.646,12.137,14.41,14.768,34.94   c1.808,0.692,3.494,1.402,4.922,2.122C313.839,261.382,310.058,240.253,295.687,232.599z"/>
	<path style="fill:#FFBE55;" d="M202.557,267.304c0.755-6.248,2.952-12.672,4.446-16.478c-1.513,0.471-3.197,0.89-5.049,1.242   c-3.262,5.466-5.239,13.662-6.148,18.29C198.206,269.19,200.435,268.198,202.557,267.304z"/>
	<path style="fill:#FFBE55;" d="M261.116,299.813c-0.906,0.529-1.751,0.872-2.528,1.062c2.018,3.994,5.767,5.357,8.949,5.711   C264.964,304.549,262.868,302.181,261.116,299.813z"/>
	<path style="fill:#FFBE55;" d="M235.083,232.13c0.447-0.206,1.003-0.366,1.512-0.549c-0.009-0.094-0.032-0.181-0.034-0.276   c-2.118-0.042-4.889-0.386-6.669-1.805c-1.038-0.83-1.661-1.941-1.8-3.218c-0.421-3.849,2.139-5.687,4.849-7.628   c1.105-0.794,2.358-1.712,3.66-2.878c-3.965-0.271-7.52,1.057-9.729,3.928c-2.184,2.837-2.603,6.474-1.093,9.49   C227.836,233.322,232.277,232.908,235.083,232.13z"/>
	<path style="fill:#FFBE55;" d="M230.194,236.154c-1.056-0.121-2.078-0.45-3.065-0.892c-0.154,2.068-0.026,4.875,1.318,6.524   c0.034-0.925,0.147-1.864,0.419-2.79C229.124,238.11,229.539,237.13,230.194,236.154z"/>
	<path style="fill:#FFBE55;" d="M243.748,237.399c4.306,0.339,7.61-0.756,9.579-1.683c-3.304-2.357-5.706-1.795-7.296-1.053   c-2.554,1.188-5.412,1.113-7.344,0c-0.714,0.324-1.486,0.646-2.388,0.905c-2.019,1.013-3.332,2.454-3.913,4.301   c-0.184,0.581-0.214,1.155-0.257,1.726c0.037-0.031,0.039-0.09,0.079-0.119C236.35,238.506,240.23,237.173,243.748,237.399z"/>
	<path style="fill:#FFBE55;" d="M263.414,287.255c-1.478,0.582-3.004,1.012-4.577,1.225c1.042,2.486,3.1,6.716,6.36,10.686   C266.894,296.305,264.893,290.149,263.414,287.255z"/>
	<path style="fill:#FFBE55;" d="M229.047,246.346c-3.843-1.132-5.327-4.657-5.6-8.299c-0.827,1.73-1.27,3.891-0.441,6.295   c1.667,4.82,5.309,6.226,7.448,6.672c0.024-0.561,0.049-1.12,0.09-1.677c-0.011-0.012-0.029-0.016-0.04-0.029   C230.008,248.757,229.459,247.689,229.047,246.346z"/>
	<path style="fill:#FFBE55;" d="M216.184,236.961c-0.131-0.056-0.277-0.044-0.396-0.132c-0.02-0.014-0.851-0.566-2.396-1.268   c-5.44,2.935-8.495,8.924-9.89,12.492c9.856-2.388,12.98-6.872,13.591-7.919C216.645,239.066,216.34,238.005,216.184,236.961z"/>
	<path style="fill:#FFBE55;" d="M279.868,276.732c1.828-3.96,2.222-8.496,1.255-13.519c-2.186,10.067-7.533,18.27-14.46,22.444   c0.316,0.635,0.666,1.421,1.031,2.353C270.413,286.82,276.765,283.449,279.868,276.732z"/>
	<path style="fill:#FFBE55;" d="M284.234,238.595c0.22-0.59,0.547-1.202,1.026-1.711c-0.212-1.127-0.661-2.073-1.038-2.682   c-0.539,0.142-1.143,0.247-1.832,0.316c-0.047,0.004-0.094,0.006-0.141,0.007c-0.362,0.675-0.844,1.338-1.465,1.982   c0.551,0.696,1.027,1.395,1.376,2.113c0.095,0.053,0.211,0.02,0.299,0.09C282.603,238.816,283.279,239.217,284.234,238.595z"/>
	<path style="fill:#FFBE55;" d="M289.378,249.052c1.869,4.909,3.035,9.377,3.498,13.32c1.472,0.384,3.042,0.806,4.671,1.265   c-0.935-6.949-3.856-14.257-5.585-18.128C291.196,246.887,290.266,248.127,289.378,249.052z"/>
	<path style="fill:#FFBE55;" d="M289.082,261.411c-0.481-3.048-1.398-6.434-2.746-10.118c-1.532,0.749-3.038,1.068-4.146,1.211   c0.003,0.191,0.02,0.379,0.02,0.571c0,0.46-0.038,0.907-0.05,1.363c0.044,0.074,0.106,0.13,0.14,0.211   c0.787,1.917,1.386,3.778,1.862,5.601C284.732,260.376,286.534,260.785,289.082,261.411z"/>
	<path style="fill:#FFBE55;" d="M301.323,264.735c1.545,0.466,3.093,0.956,4.601,1.463c-2.286-14.646-8.281-24.38-11.628-28.767   c-0.031,0.706-0.18,1.467-0.605,2.352c-0.05,0.105-0.152,0.154-0.219,0.245c0.016,0.199,0.049,0.394,0.044,0.599   c0.134,0.131,0.264,0.267,0.354,0.444C294.13,241.576,300.286,253.667,301.323,264.735z"/>
</g>
<g>
	<path style="fill:#FFD7AA;" d="M256.277,285.04c12.305,0,22.315-14.339,22.315-31.965c0-0.966-0.031-1.918-0.09-2.865   c-2.391-3.595-6.573-6.102-7.812-6.789c-7.377-0.131-12.3-3.417-14.4-5.155c-2.087,1.211-6.616,3.19-12.814,2.743   c-2.512-0.16-5.39,0.825-8.599,3.01c-0.607,2.935-0.916,5.975-0.916,9.056C233.96,270.701,243.971,285.04,256.277,285.04z"/>
	<path style="fill:#FFD7AA;" d="M168.943,307.623c0.33-0.09,3.649-0.99,8.51-1.39c22.506-5.072,48.933-21.217,53.697-24.203   c-0.467-0.744-1.003-1.442-1.386-2.243c-2.368-4.954-2.748-10.242-2.351-14.853c-3.39-0.216-13.731,0.267-33.183,10.26   c-0.261,0.132-0.545,0.197-0.827,0.197c-0.37,0-0.737-0.112-1.048-0.335c-0.551-0.391-0.839-1.06-0.742-1.73   c0.056-0.401,0.977-6.694,3.079-13.384c-11.177,2.343-34.773,26.158-47.763,39.281c-2.454,2.483-4.665,4.716-6.536,6.558   c-0.259,0.255-0.532,0.495-0.809,0.74c-1.642,1.451-3.338,2.949-2.137,11.591c1.107,7.977,11.483,8.793,19.203,8.844h0.565   c2.429,0,8.279,2.022,18.411,5.597c9.839,3.473,20.989,7.407,28.21,8.759c3.454,0.641,6.696,1.221,9.685,1.753   c9.126,1.631,15.721,2.803,19.172,4.231c4.189,1.733,8.809,10.295,12.811,18.182l0.769,1.503   c2.358,4.551,2.802,10.248,1.152,14.861c-0.801,2.247-0.229,3.425,0.056,3.83c0.28,0.396,0.607,0.537,0.804,0.537   c0.931,0,1.602,0,2.347-2.356c0.94-2.973,1.176-3.26,5.129-8.043l1.081-1.305c4.076-4.942-0.008-15.082-1.969-19.96l-0.276-0.684   c-1.395-3.487-0.16-7.148,1.035-10.686c0.812-2.408,1.652-4.896,1.652-7.276c0-0.519-0.139-0.867-0.466-1.178   c-1.899-1.8-8.338-1.456-13.043-1.216c-1.733,0.094-3.378,0.179-4.787,0.179c-7.284,0-18.972-7.279-35.97-18.39   c-8.426-5.498-18.419-5.975-25.199-5.432c-2.808,0.612-5.565,1.06-8.224,1.301c-0.916,0.08-1.775-0.551-1.943-1.475   C167.48,308.773,168.041,307.873,168.943,307.623z"/>
	<path style="fill:#FFD7AA;" d="M376.851,188.796c-3.058,0.646-3.425,0.575-9.576-0.546l-1.621-0.292   c-6.321-1.163-13.146,7.393-16.436,11.487l-0.464,0.575c-2.358,2.922-6.151,3.633-9.817,4.325   c-2.499,0.471-5.084,0.956-7.159,2.126c-0.45,0.25-0.689,0.546-0.799,0.985c-0.641,2.531,2.808,7.982,5.326,11.963   c0.928,1.466,1.807,2.86,2.497,4.085c3.564,6.347,2.935,20.106,1.568,40.37c-0.711,10.578,4.295,19.936,8.197,25.514   c1.573,1.776,3.093,3.651,4.527,5.616c0.559,0.764,0.434,1.828-0.285,2.441c-0.719,0.622-1.791,0.57-2.457-0.099   c-0.224-0.226-2.294-2.337-4.759-5.842c-9.892-11.018-22.039-18.302-27.09-21.065c0.131,1.438,0.182,2.417,0.19,2.623   c0.029,0.707-0.36,1.362-0.99,1.682c-0.259,0.127-0.54,0.194-0.817,0.194c-0.4,0-0.799-0.132-1.126-0.391   c-4.796-3.819-22.421-8.461-30.787-10.401c0.737,5.164,0.129,9.897-1.841,14.141c-2.022,4.355-5.132,7.42-8.059,9.576   c15.346,18.96,51.685,27.061,73.565,31.916c5.633,1.248,10.501,2.328,14.079,3.364c0.351,0.104,0.695,0.221,1.041,0.344   c2.071,0.721,4.203,1.47,11.157-3.811c6.416-4.872,2.108-14.361-1.692-21.076l-0.276-0.49c-1.187-2.116-2.288-8.208-4.128-18.791   c-1.788-10.281-3.814-21.934-6.172-28.893c-1.133-3.34-2.219-6.464-3.223-9.344c-3.039-8.736-5.237-15.05-5.68-18.749   c-0.537-4.5,4.66-12.713,9.575-20.058l0.945-1.423c2.82-4.288,7.569-7.459,12.397-8.279c2.349-0.4,3.098-1.48,3.31-1.922   c0.207-0.439,0.172-0.791,0.077-0.961C379.598,188.881,379.271,188.282,376.851,188.796z"/>
	<path style="fill:#FFD7AA;" d="M141.197,187.571c2.108,2.304,2.238,2.653,4.41,8.476l0.589,1.573   c2.248,6.007,13.08,7.534,18.284,8.264l0.721,0.104c3.715,0.532,6.267,3.425,8.735,6.23c1.682,1.908,3.42,3.878,5.482,5.065   c0.452,0.259,0.827,0.316,1.256,0.184c2.507-0.74,5.429-6.488,7.56-10.686c0.79-1.551,1.536-3.02,2.241-4.241   c3.63-6.3,15.777-12.793,33.894-21.975c9.985-5.065,15.544-14.913,18.193-21.094c0.61-2.026,1.293-3.953,2.064-5.753   c0.375-0.872,1.347-1.282,2.246-1.003c0.895,0.306,1.407,1.248,1.171,2.167c-0.071,0.279-0.702,2.653-2.127,6.012   c-4.847,16.492-4.63,39.853-4.306,49.259c3.654-4,7.127-4.906,9.52-4.906c2.642,0,5.06,1.157,6.992,3.187   c2.024-2.626,4.333-3.134,6.015-3.12c3.053,0.075,5.585,2.034,7.194,4.07c1.766,0.09,5.751,0.56,8.655,3.047   c4.001-19.64-5.196-47.544-11.406-66.339c-1.943-5.885-3.624-10.969-4.679-15.021c-0.091-0.354-0.167-0.711-0.24-1.075   c-0.439-2.143-0.891-4.363-8.974-7.638c-7.473-3.048-13.421,5.522-17.254,12.213l-0.282,0.495   c-1.213,2.106-5.892,6.168-14.057,13.165c-7.915,6.786-16.889,14.48-21.663,20.058c-2.283,2.667-4.403,5.184-6.356,7.505   c-5.967,7.096-10.281,12.223-13.243,14.499c-3.6,2.77-13.33,2.497-22.176,2.021l-1.663-0.085c-2.788-0.124-5.555-0.955-8.037-2.248   l-0.206-0.051l-0.121-0.147c-1.939-1.06-3.718-2.368-5.084-3.975c-0.896-1.055-1.692-1.497-2.317-1.701l-1.988,0.441   C139.837,185.266,139.656,185.89,141.197,187.571z"/>
</g>
<path style="fill:#464655;" d="M383.207,187.92c-1.44-2.568-3.633-3.388-7.096-2.667c-2.368,0.5-2.368,0.495-8.189-0.561  l-1.626-0.297c-8.444-1.536-16.178,8.142-19.901,12.783l-0.46,0.57c-1.52,1.884-4.37,2.417-7.67,3.039  c-2.784,0.527-5.666,1.07-8.26,2.526c-1.305,0.735-2.184,1.857-2.537,3.252c-1.02,4.043,2.436,9.504,5.778,14.786  c0.891,1.408,1.736,2.747,2.398,3.925c3.303,5.885,2.191,22.39,1.117,38.355c-0.421,6.262,0.918,12.067,2.903,17.033  c-10.261-8.83-20.1-13.814-21.694-14.595c-1.416-9.586-5.616-26.498-17.844-34.95c15.901-7.047,23.457-31.017,23.817-32.196  c0.259-0.844-0.127-1.748-0.916-2.144c-0.782-0.4-1.746-0.17-2.268,0.542c-4.154,5.638-9.495,11.112-14.537,15.747  c3.087-8.72,9.941-16.334,12.914-19.332c0.524-0.447,1.035-0.947,1.531-1.488c0.65-0.711,0.629-1.81-0.052-2.497  c-0.242-0.245-0.569-0.305-0.882-0.381c1.848-5.105,3.564-13.42-0.11-22.033c-1.974-4.627-3.689-7.798-5.067-10.342  c-2.472-4.566-3.6-6.648-3.26-11.468c0.053-0.735-0.346-1.427-1.006-1.748c-0.66-0.33-1.448-0.221-2.001,0.269  c-0.251,0.222-23.576,21.353-14.718,44.748c-0.267,0.094-0.554,0.149-0.76,0.369c-0.629,0.679-0.646,1.725-0.035,2.422  c9.939,11.339-1.075,27.194-3.597,30.518c-0.057-0.037-0.11-0.086-0.167-0.122c0-2.263-0.612-4.153-1.906-5.583  c-1.137-1.256-2.551-1.919-3.8-2.274c4.72-20.602-4.478-48.545-11.289-69.166c-1.924-5.828-3.588-10.856-4.615-14.8  c-0.075-0.292-0.135-0.584-0.196-0.881c-0.7-3.43-2.021-6.568-11.159-10.272c-11.247-4.551-19.158,9.24-21.754,13.772l-0.276,0.481  c-0.963,1.673-7.226,7.039-13.28,12.227c-8.015,6.869-17.102,14.658-22.058,20.449c-2.288,2.677-4.413,5.206-6.373,7.534  c-5.605,6.662-10.029,11.92-12.679,13.961c-2.839,2.187-15.148,1.522-19.776,1.272l-1.696-0.09  c-4.151-0.184-8.309-2.153-10.853-5.15c-1.859-2.191-4.2-3.308-6.427-3.124c-1.581,0.146-2.957,0.975-3.678,2.224  c-1.47,2.549-1.058,4.854,1.336,7.459c1.632,1.786,1.632,1.786,3.686,7.294l0.591,1.583c3.002,8.019,15.271,9.744,21.168,10.578  l0.711,0.099c2.396,0.344,4.314,2.521,6.536,5.041c1.572,1.781,3.27,3.527,5.27,4.946c-0.122,0.061-0.265,0.066-0.374,0.156  c-0.567,0.471-0.796,1.235-0.577,1.937c0.02,0.061,1.271,3.443,4.622,6.361c-5.286,0.259-11.328-1.765-13.751-2.696  c-0.384-0.17-0.782-0.33-1.192-0.48c-0.918-0.339-1.932,0.127-2.297,1.027c-0.125,0.31-0.127,0.63-0.08,0.939  c-5.425,0.254-13.717,1.864-20.239,8.518c-3.522,3.6-5.796,6.395-7.619,8.641c-3.274,4.029-4.771,5.866-9.352,7.398  c-0.697,0.231-1.185,0.862-1.232,1.597c-0.05,0.735,0.351,1.423,1.013,1.743c0.186,0.09,10.948,5.202,23.449,5.202  c7.898,0,16.487-2.053,23.545-8.69c0.187,0.202,0.341,0.441,0.616,0.544c0.207,0.075,0.42,0.114,0.629,0.114  c0.671,0,1.31-0.377,1.623-1.008c5.224-10.572,12.424-14.374,16.615-15.736c-3.736,4.756-5.38,9.25-5.471,9.516  c-0.269,0.769,0.011,1.626,0.686,2.087c0.674,0.461,1.576,0.415,2.196-0.117c2.728-2.323,9.372-5.315,15.005-7.614  c-3.407,4.666-4.885,9.616-5.196,10.757c-1.185,1.903-2.208,4.099-3.087,6.374c-11.004,0.397-31.539,20.218-51.663,40.55  c-2.443,2.469-4.644,4.689-6.504,6.521c-0.215,0.212-0.439,0.41-0.667,0.612c-2.619,2.318-4.681,5.027-3.324,14.8  c1.673,12.024,17.58,11.997,22.8,11.963h0.554c1.927,0,9.695,2.742,17.205,5.391c9.964,3.519,21.255,7.502,28.751,8.9  c3.463,0.65,6.717,1.23,9.716,1.762c8.566,1.527,15.332,2.738,18.421,4.014c3.305,1.367,8.873,12.34,10.97,16.473l0.782,1.536  c1.913,3.684,2.281,8.279,0.958,11.978c-0.966,2.704-0.782,5.301,0.504,7.129c0.916,1.296,2.323,2.073,3.763,2.073  c2.943,0,4.731-1.508,5.796-4.881c0.729-2.304,0.729-2.304,4.466-6.827l1.083-1.315c5.447-6.601,0.822-18.089-1.402-23.611  l-0.274-0.679c-0.897-2.248,0.029-5,1.102-8.18c0.907-2.686,1.842-5.461,1.842-8.434c0-1.498-0.551-2.813-1.595-3.808  c-3.025-2.869-9.485-2.521-15.723-2.201c-1.666,0.09-3.244,0.174-4.596,0.174c-6.752,0-20.601-9.046-33.991-17.796  c-5.025-3.284-10.472-4.957-15.574-5.711c20.281-6.942,40.072-19.192,43.877-21.609c2.969,3.382,6.933,6.067,12.029,7.908  c-0.567,0.565-1.083,1.243-1.447,2.044c-0.669,1.48-0.684,3.124-0.042,4.764c0.397,1.016,0.983,1.815,1.65,2.482  c-1.16,4.058-0.023,6.298,1.171,7.482c-1.302,4.04-0.176,6.416,1.057,7.682c1.293,1.323,3.089,1.889,4.671,1.889  c0.209,0,0.379-0.065,0.577-0.084c0.54,1.652,1.291,3.27,2.556,4.71l0.394,0.442c5.464,6.215,14.605,16.614,15.683,21.467  c0.202,0.905,1.053,1.488,1.956,1.408c0.915-0.094,1.612-0.862,1.621-1.781c0.003-0.269,0.04-4.448-0.151-8.708  c4.014,6.512,6.786,12.971,7.713,15.243c0.112,0.306,0.237,0.617,0.372,0.928c0.295,0.684,0.961,1.093,1.661,1.093  c0.226,0,0.457-0.042,0.681-0.132c0.302-0.124,0.531-0.335,0.719-0.576c3.905,3.776,10.762,8.71,20.077,8.896  c5.03,0.08,8.63-0.165,11.518-0.372c5.176-0.381,7.537-0.551,11.789,1.733c0.269,0.146,0.564,0.217,0.857,0.217  c0.412,0,0.82-0.141,1.152-0.415c0.567-0.466,0.794-1.235,0.575-1.932c-0.102-0.32-9.796-30.229-34.75-31.794  c0.025-0.285,0.091-0.57-0.027-0.85c-0.36-0.857-1.305-1.31-2.193-1.027c-6.175,1.889-11.544-0.085-15.811-3.247  c5.52-0.344,9.35-2.243,9.551-2.342c0.716-0.362,1.11-1.155,0.963-1.941c-0.144-0.792-0.791-1.39-1.59-1.475  c-8.088-0.852-20.423-8.241-20.546-8.316c-0.049-0.029-0.109-0.011-0.159-0.035c0.024-0.027,0.045-0.057,0.067-0.086  c0.692,0.065,1.373,0.097,2.028,0.097c1.533,0,2.935-0.16,4.069-0.4c0.756-0.16,1.326-0.782,1.421-1.546  c0.096-0.769-0.304-1.507-0.997-1.852c-2.467-1.213-4.602-2.853-6.463-4.661c2.228-2.704,2.019-6.787,1.093-10.395  c0.811-0.335,1.912-0.86,3.239-1.613c15.999,20.136,51.931,28.141,75.827,33.448c5.573,1.235,10.387,2.304,13.86,3.308  c0.287,0.085,0.567,0.184,0.855,0.282c1.137,0.396,2.283,0.711,3.617,0.711c2.539,0,5.765-1.145,10.92-5.056  c9.674-7.35,1.845-21.194-0.73-25.74l-0.269-0.481c-0.942-1.677-2.353-9.791-3.718-17.636c-1.812-10.413-3.864-22.211-6.313-29.434  c-1.136-3.355-2.227-6.488-3.23-9.371c-2.855-8.203-5.11-14.677-5.503-17.995c-0.426-3.543,6.413-13.767,8.988-17.613l0.961-1.447  c2.286-3.478,6.107-6.041,9.977-6.696c2.832-0.485,5.009-1.918,5.97-3.939C383.924,190.775,383.912,189.173,383.207,187.92z   M379.976,190.653c-0.212,0.442-0.961,1.522-3.31,1.922c-4.827,0.82-9.577,3.991-12.397,8.279l-0.945,1.423  c-4.915,7.346-10.112,15.558-9.575,20.058c0.442,3.699,2.641,10.012,5.68,18.749c1.004,2.879,2.089,6.003,3.223,9.344  c2.358,6.959,4.384,18.612,6.172,28.893c1.839,10.583,2.94,16.675,4.128,18.791l0.276,0.49c3.8,6.714,8.107,16.204,1.692,21.076  c-6.954,5.282-9.086,4.533-11.157,3.811c-0.346-0.122-0.69-0.24-1.041-0.344c-3.579-1.036-8.446-2.116-14.079-3.364  c-21.879-4.855-58.219-12.956-73.565-31.916c2.927-2.156,6.036-5.221,8.059-9.576c1.969-4.244,2.577-8.978,1.841-14.141  c8.366,1.939,25.99,6.581,30.787,10.401c0.327,0.259,0.726,0.391,1.126,0.391c0.277,0,0.559-0.066,0.817-0.194  c0.629-0.32,1.017-0.976,0.99-1.682c-0.007-0.206-0.059-1.185-0.19-2.623c5.051,2.763,17.198,10.047,27.09,21.065  c2.464,3.505,4.535,5.616,4.759,5.842c0.667,0.669,1.738,0.721,2.457,0.099c0.719-0.612,0.844-1.677,0.285-2.441  c-1.435-1.964-2.954-3.84-4.527-5.616c-3.901-5.578-8.908-14.936-8.197-25.514c1.367-20.266,1.996-34.024-1.568-40.37  c-0.69-1.225-1.57-2.619-2.497-4.085c-2.518-3.981-5.967-9.434-5.326-11.963c0.111-0.439,0.349-0.735,0.799-0.985  c2.076-1.168,4.66-1.653,7.159-2.126c3.667-0.692,7.459-1.405,9.817-4.325l0.464-0.575c3.289-4.094,10.113-12.652,16.436-11.487  l1.621,0.292c6.151,1.121,6.518,1.192,9.576,0.546c2.419-0.514,2.747,0.085,3.202,0.895  C380.148,189.861,380.183,190.214,379.976,190.653z M317.499,358.133c-2.813,0.207-6.305,0.462-11.183,0.362  c-12.936-0.259-20.812-11.473-20.889-11.587c-0.011-0.016-0.03-0.025-0.042-0.041c-0.261-6.261,4.551-11.101,7.96-13.716  c19.798-1.312,30.198,17.155,33.826,25.409C324.048,357.658,321.313,357.851,317.499,358.133z M282.321,342.288  c-3.214-6.352-8.133-14.587-14.182-19.997c-0.921-0.824-1.695-1.642-2.468-2.459c2.196,0.667,4.045,0.901,4.865,0.965  c4.11,5.046,10.433,10.676,18.519,11.211C286.159,334.673,283.466,338.189,282.321,342.288z M249.922,311.28  c0.562,0.111,1.126,0.184,1.666,0.184c0.2,0,0.375-0.031,0.567-0.044c-0.121,1.306-0.089,2.712,0.049,4.14  c-0.621-0.039-1.381-0.245-1.899-0.774C249.475,313.937,249.59,312.528,249.922,311.28z M252.785,307.692  c-0.923,0.236-2.691,0.246-3.56-0.591c-0.771-0.737-0.682-2.118-0.406-3.338c0.16,0.015,0.306,0.077,0.47,0.077  c0.002,0,0.005,0,0.005,0c2.126-0.004,4.113-1.297,5.196-3.177c0.026,0.01,0.052,0.02,0.079,0.029c0.003,0.008,0,0.015,0.004,0.022  c0.314,0.894,0.699,1.696,1.122,2.441c-0.824-0.094-1.595,0.351-1.899,1.112C253.73,304.425,253.234,305.78,252.785,307.692z   M169.593,311.166c2.659-0.24,5.416-0.687,8.224-1.301c6.781-0.542,16.772-0.066,25.199,5.432  c16.998,11.111,28.686,18.39,35.97,18.39c1.408,0,3.053-0.085,4.787-0.179c4.705-0.24,11.143-0.585,13.043,1.216  c0.327,0.311,0.466,0.66,0.466,1.178c0,2.379-0.839,4.867-1.652,7.276c-1.195,3.539-2.429,7.199-1.035,10.686l0.276,0.684  c1.962,4.876,6.046,15.017,1.969,19.96l-1.081,1.305c-3.953,4.782-4.189,5.07-5.129,8.043c-0.745,2.356-1.416,2.356-2.347,2.356  c-0.195,0-0.524-0.141-0.804-0.537c-0.285-0.405-0.857-1.583-0.056-3.83c1.65-4.612,1.206-10.31-1.152-14.861l-0.769-1.503  c-4.003-7.888-8.623-16.449-12.811-18.183c-3.452-1.428-10.046-2.601-19.172-4.231c-2.989-0.532-6.231-1.112-9.685-1.753  c-7.221-1.352-18.371-5.286-28.21-8.759c-10.132-3.577-15.982-5.597-18.411-5.597h-0.565c-7.72-0.052-18.095-0.867-19.203-8.844  c-1.202-8.641,0.495-10.14,2.137-11.591c0.276-0.245,0.549-0.485,0.809-0.74c1.871-1.842,4.08-4.075,6.536-6.558  c12.991-13.123,36.586-36.937,47.763-39.281c-2.102,6.691-3.023,12.983-3.079,13.384c-0.096,0.669,0.191,1.338,0.742,1.73  c0.311,0.221,0.679,0.335,1.048,0.335c0.282,0,0.565-0.066,0.827-0.197c19.452-9.992,29.793-10.476,33.183-10.26  c-0.397,4.612-0.018,9.901,2.351,14.853c0.384,0.802,0.919,1.5,1.386,2.243c-4.764,2.987-31.19,19.131-53.697,24.203  c-4.86,0.4-8.18,1.301-8.51,1.39c-0.902,0.25-1.463,1.15-1.293,2.068C167.819,310.615,168.677,311.246,169.593,311.166z   M176.297,242.331c-0.099-3.803-0.94-7.893-3.14-11.284c3.774,0.74,8.088,1.036,11.721-0.179l0.009-0.005  c1.48,0.582,3.222,0.94,5.154,1.112C186.283,233.319,181.037,236.149,176.297,242.331z M137.793,246.243  c1.777-2.186,3.991-4.91,7.395-8.388c9.051-9.245,22.611-7.289,22.758-7.271c0.015,0.003,0.029-0.004,0.045-0.001  c4.744,4.101,4.975,10.926,4.541,15.202c-12.604,15.331-33.195,10.231-41.69,7.204C133.652,251.34,135.382,249.211,137.793,246.243z   M316.298,168.756c5.077,11.902-1.913,23.691-1.983,23.808c-0.009,0.014-0.008,0.029-0.015,0.042  c-5.596,2.809-11.992,0.416-15.781-1.62c-9.352-17.508,3.238-34.577,9.276-41.277c0.452,3.228,1.76,5.645,3.579,9.004  C312.716,161.195,314.387,164.28,316.298,168.756z M299.234,195.374c3.55,1.517,7.763,2.526,11.872,1.956  c-4.04,5.129-8.553,12.332-9.772,20.068c-4.065,3.475-7.494,6.117-9.374,7.525c-0.059-0.091-0.13-0.167-0.191-0.256  C293.698,222.183,303.985,208.092,299.234,195.374z M259.995,312.106c-1.625-3.03-2.314-5.401-2.563-6.553  c1.668,1.823,3.709,3.023,5.838,3.756L259.995,312.106z M265.141,312.471c0.025,0.074-0.005,0.151,0.029,0.222  c0.029,0.061,0.831,1.662,2.288,3.895c-1.461-0.385-3.17-1.001-4.789-2.008L265.141,312.471z M265.726,324.986  c1.814,1.626,3.534,3.548,5.131,5.612c0.002,0.056,0.01,0.117,0.019,0.174c0.299,1.791,0.469,4.368,0.564,6.856  c-3.13-4.609-7.832-10.078-12.806-15.742l-0.394-0.447c-2.406-2.733-2.763-6.46-2.478-9.612  C257.433,315.491,260.423,320.246,265.726,324.986z M256.099,297.431c-1.466-0.344-2.518-1.748-3.143-2.869  c-1.68-3.009-0.542-5.396-0.024-6.233c0.671,0.119,1.352,0.192,2.038,0.239c0.596,1.602,1.902,4.694,4.069,8.2  C257.978,297.336,256.974,297.631,256.099,297.431z M264.043,208.929c1.387,0.032,2.985,0.937,4.208,2.332  c-0.506,0.626-1.336,1.338-2.454,1.131c-5.025-0.91-6.533,4.005-7.028,5.621c-0.516,1.675-2.521,5.451-4.149,7.152  c-1.116-0.502-2.297-0.869-3.549-1.013c1.863-2.626,5.302-7.33,9.825-13.423C261.818,209.49,263.008,208.83,264.043,208.929z   M253.949,228.817c1.632,1.041,3.004,2.789,4.589,4.815c0.99,1.266,2.136,2.632,3.41,3.971c-2.653-1.353-4.124-2.829-4.15-2.854  c-0.013-0.012-0.031-0.009-0.044-0.021c-0.012-0.012-0.006-0.032-0.02-0.045c-4.373-4.231-8.82-5.352-13.226-3.303  c-1.512,0.697-2.964,0.594-3.745,0.292c-0.45-0.17-0.61-0.367-0.622-0.386c0-0.056,0.08-0.287,0.412-0.641  C242.593,228.493,249.807,226.189,253.949,228.817z M241.321,225.839c2.556-2.561,5.229-5.703,7.585-8.585l0.474-0.575  c0.691-0.837,1.908-0.239,2.521,0.149c-2.544,3.479-4.614,6.365-5.294,7.453C244.709,224.569,242.875,225.106,241.321,225.839z   M265.978,227.547c2.854,0.65,4.36,1.436,5.134,2.238c-2.667-0.436-6.497-0.422-9.51,1.888c-0.07-0.09-0.145-0.179-0.216-0.267  c-1.213-1.553-2.446-2.943-3.789-4.169c0.676-0.772,1.316-1.662,1.902-2.603C260.766,225.448,263.331,226.945,265.978,227.547z   M261.244,221.451c0.466-0.981,0.819-1.837,0.982-2.372c0.9-2.925,1.677-3.355,2.924-3.124c0.155,0.027,0.294,0.014,0.444,0.03  c1.258,4.659,5.049,6.604,7.887,8.023c1.528,0.764,2.973,1.485,3.265,2.262c0.351,0.937-0.575,2.049-1.693,2.949  c-1.006-2.436-3.774-4.175-8.274-5.197C264.51,223.505,262.178,222.069,261.244,221.451z M234.878,244.018  c3.209-2.186,6.087-3.172,8.599-3.01c6.198,0.447,10.726-1.531,12.814-2.743c2.099,1.738,7.023,5.022,14.4,5.155  c1.24,0.689,5.421,3.194,7.812,6.789c0.059,0.947,0.09,1.899,0.09,2.865c0,17.626-10.01,31.965-22.315,31.965  c-12.305,0-22.315-14.339-22.315-31.965C233.96,249.993,234.269,246.954,234.878,244.018z M279.573,245.803  c-2.457-2.651-5.294-4.489-6.704-5.304c1.656-0.345,3.408-0.919,5.044-1.822C279.827,241.058,279.935,243.765,279.573,245.803z   M277.96,234.26c-3.31,3.093-9.122,3.193-10.801,3.154c-1.208-0.904-2.289-1.897-3.247-2.972c3.415-2.473,9.011-0.502,9.071-0.48  c0.184,0.069,0.37,0.08,0.556,0.087c0.026,0.001,0.049,0.025,0.076,0.025c0.011,0,0.023-0.007,0.034-0.007  c0.255-0.005,0.502-0.057,0.73-0.164c0.005-0.003,0.01-0.001,0.01-0.001c1.682-0.8,3.869-2.314,5.104-4.251  C279.773,230.993,279.632,232.699,277.96,234.26z M279.001,223.303c-1.012-1.048-2.413-1.79-3.903-2.532  c-2.511-1.252-5.02-2.621-5.92-5.606c0.976-0.6,1.741-1.402,2.276-2.171c1.735,0.13,5.392,0.73,7.113,3.188  C279.738,217.857,279.848,220.269,279.001,223.303z M254.041,213.911c-1.807-1.232-5.109-2.368-7.455,0.47l-0.479,0.584  c-2.214,2.704-8.948,10.931-12.329,12.307c-0.039,0.016-0.064,0.049-0.101,0.067c-0.616-0.157-1.158-0.371-1.533-0.67  c-0.285-0.226-0.422-0.461-0.457-0.782c-0.17-1.573,0.53-2.262,3.362-4.293c2.148-1.541,5.094-3.652,7.897-7.393  c4.315-5.751,9.712-6.778,12.975-2.839C255.293,212.213,254.665,213.064,254.041,213.911z M238.061,212.224  c-5.655-0.774-10.853,1.115-14.056,5.271c-1.328,1.728-2.094,3.69-2.456,5.693c-0.217,0.09-0.464,0.094-0.64,0.271  c-0.454,0.462-0.933,1.046-1.411,1.692c-3.174-1.246-11.766-4.225-19.151-3.223c-8.54,1.156-14.847,0.027-18.524-1.042  c3.934-1.266,6.836-6.953,9.639-12.467c0.756-1.488,1.472-2.898,2.147-4.071c3.367-5.838,18.124-13.32,32.396-20.558  c6.005-3.044,10.522-7.563,13.85-12.123C237.26,188.027,237.766,205.887,238.061,212.224z M221.721,228.333  c0.212,0.841,0.422,1.687,0.82,2.483c0.242,0.484,0.552,0.839,0.834,1.247c-1.037,1.036-2.499,2.777-3.469,5.07  C219.082,233.591,220.435,230.389,221.721,228.333z M219.993,246.478c0.639,1.515,1.442,2.785,2.358,3.828  c-1.428,4.246-2.347,8.139-2.76,11.632c-1.398,0.252-2.955,0.599-4.674,1.053C215.859,256.789,218.302,250.388,219.993,246.478z   M223.342,261.411c0.372-2.604,1.048-5.458,2.018-8.541c1.45,0.891,2.939,1.44,4.264,1.732c-0.552,1.593-1.237,3.961-1.73,6.726  C226.862,261.244,225.348,261.226,223.342,261.411z M216.119,246.333c-1.876,4.505-4.25,11.247-4.971,17.76  c-1.476,0.472-3.05,1.023-4.722,1.657c1.39-8.105,5.042-16.292,5.245-16.74C213.481,248.142,214.947,247.226,216.119,246.333z   M203.501,248.052c1.396-3.568,4.45-9.556,9.89-12.492c1.545,0.702,2.377,1.255,2.396,1.268c0.119,0.09,0.265,0.076,0.396,0.132  c0.156,1.045,0.461,2.104,0.91,3.172C216.483,241.179,213.357,245.664,203.501,248.052z M230.454,251.016  c-2.139-0.447-5.781-1.852-7.448-6.672c-0.83-2.403-0.386-4.566,0.441-6.295c0.274,3.642,1.758,7.166,5.6,8.299  c0.412,1.341,0.961,2.411,1.458,2.963c0.011,0.012,0.027,0.016,0.04,0.029C230.503,249.895,230.478,250.455,230.454,251.016z   M227.129,235.263c0.987,0.442,2.009,0.77,3.065,0.892c-0.655,0.975-1.07,1.956-1.328,2.842c-0.27,0.926-0.385,1.866-0.419,2.79  C227.102,240.137,226.975,237.331,227.129,235.263z M225.779,229.195c-1.51-3.015-1.091-6.653,1.093-9.49  c2.208-2.872,5.763-4.199,9.729-3.928c-1.302,1.166-2.556,2.084-3.66,2.878c-2.709,1.941-5.27,3.779-4.849,7.628  c0.139,1.277,0.761,2.389,1.799,3.218c1.78,1.418,4.55,1.762,6.669,1.805c0.001,0.096,0.025,0.182,0.034,0.276  c-0.509,0.181-1.065,0.342-1.512,0.549C232.277,232.908,227.836,233.322,225.779,229.195z M232.385,239.867  c0.582-1.847,1.894-3.289,3.913-4.301c0.902-0.259,1.675-0.581,2.388-0.905c1.931,1.113,4.789,1.188,7.344,0  c1.59-0.741,3.993-1.303,7.296,1.053c-1.968,0.927-5.274,2.022-9.579,1.683c-3.518-0.226-7.398,1.107-11.542,4.075  c-0.04,0.029-0.041,0.087-0.079,0.119C232.172,241.022,232.201,240.448,232.385,239.867z M258.836,288.48  c1.573-0.212,3.098-0.642,4.577-1.225c1.48,2.894,3.48,9.049,1.783,11.909C261.937,295.197,259.878,290.967,258.836,288.48z   M281.123,263.213c0.967,5.024,0.574,9.559-1.255,13.519c-3.103,6.717-9.455,10.089-12.175,11.278  c-0.365-0.932-0.714-1.72-1.031-2.353C273.59,281.483,278.937,273.28,281.123,263.213z M282.16,254.438  c0.013-0.456,0.05-0.904,0.05-1.363c0-0.192-0.019-0.379-0.02-0.571c1.108-0.142,2.614-0.462,4.146-1.211  c1.347,3.684,2.264,7.071,2.745,10.118c-2.547-0.626-4.349-1.033-4.92-1.161c-0.476-1.823-1.075-3.684-1.862-5.601  C282.266,254.567,282.204,254.512,282.16,254.438z M282.16,238.622c-0.349-0.719-0.825-1.417-1.376-2.113  c0.621-0.645,1.102-1.308,1.465-1.982c0.047-0.001,0.094-0.004,0.141-0.007c0.689-0.069,1.293-0.175,1.832-0.316  c0.377,0.609,0.825,1.555,1.038,2.682c-0.479,0.51-0.806,1.121-1.026,1.711c-0.953,0.622-1.631,0.221-1.776,0.117  C282.371,238.642,282.255,238.675,282.16,238.622z M297.547,263.637c-1.631-0.459-3.2-0.881-4.671-1.265  c-0.462-3.943-1.627-8.411-3.498-13.32c0.888-0.926,1.818-2.166,2.584-3.543C293.69,249.379,296.612,256.689,297.547,263.637z   M293.472,240.027c0.066-0.09,0.169-0.14,0.219-0.245c0.425-0.883,0.574-1.646,0.605-2.352c3.347,4.388,9.342,14.121,11.628,28.767  c-1.508-0.507-3.055-0.997-4.601-1.463c-1.036-11.068-7.193-23.157-7.454-23.666c-0.09-0.176-0.22-0.312-0.354-0.444  C293.52,240.421,293.488,240.226,293.472,240.027z M309.861,267.614c-2.632-20.531-12.35-32.295-14.768-34.94  c0.194-0.036,0.404-0.034,0.595-0.075c14.37,7.654,18.151,28.783,19.095,37.136C313.355,269.016,311.669,268.307,309.861,267.614z   M293.538,229.186c-0.041-0.275-0.096-0.542-0.156-0.807c3.034-2.227,13.399-10.065,22.624-19.831  C311.664,217.087,304.138,227.748,293.538,229.186z M290.053,231.178c-0.003,0.042,0.006,0.066,0.004,0.109  c0,0.012-0.006,0.024-0.006,0.037c0.001,0.014,0.008,0.025,0.009,0.037c-0.071,2.048,0.214,3.457,0.434,4.476  c0.036,0.169,0.06,0.292,0.087,0.432c-0.704-0.244-1.311-0.365-1.871-0.431c-0.364-1.566-0.97-2.832-1.488-3.649  c0.87-1.298,1.19-3.147,1.437-5.591C289.499,227.74,290.141,229.279,290.053,231.178z M287.433,239.994  c0.087-0.194,0.235-0.524,0.316-0.584c-0.003-0.005,0.391-0.174,1.698,0.292c0.344,0.122,0.394,0.25,0.434,0.447  c0.327,1.583-1.668,5.107-3.47,6.771c-1.191,1.098-2.681,1.61-3.856,1.853c0.49-1.47,0.988-3.764,0.727-6.29  c0.909-0.004,1.893-0.184,2.937-0.865C286.901,241.173,287.207,240.494,287.433,239.994z M285.198,224.846  c-0.444,4.732-0.549,5.6-1.982,5.905c-0.003-1.827-0.576-3.509-1.255-4.717c1.131-3.128,1.398-5.831,0.986-8.18  c0.53,0.22,1.055,0.504,1.477,0.971c0.817,0.9,1.14,2.271,0.961,4.066L285.198,224.846z M200.832,225.52  c6.077-0.836,13.514,1.566,16.805,2.797c-0.655,1.39-1.14,2.938-1.388,4.597c-3.135-1.637-10.718-4.627-23.946-4.364  c-5.331,0.221-8.738-1.903-10.722-3.949C185.724,225.713,192.249,226.674,200.832,225.52z M199.645,232.396  c3.258,0.269,5.995,0.735,8.219,1.298c-4.13,1.58-10.372,4.095-15.235,6.616C194.206,237.794,196.514,234.847,199.645,232.396z   M207.002,250.825c-1.495,3.806-3.691,10.231-4.446,16.478c-2.121,0.894-4.349,1.886-6.751,3.053  c0.911-4.627,2.887-12.824,6.148-18.29C203.805,251.715,205.488,251.298,207.002,250.825z M233.036,278.24  c-2.463-5.137-2.417-10.863-1.692-15.487c2.461,11.913,9.327,21.28,18.031,24.586c-0.336,0.707-0.644,1.616-0.806,2.689  C240.987,287.725,235.702,283.81,233.036,278.24z M247.173,296.409c0.355-0.796,1.146-1.413,1.861-1.848  c0.201,0.575,0.424,1.157,0.762,1.763c0.506,0.907,1.095,1.65,1.718,2.311c-0.394,0.901-1.317,1.582-2.222,1.586h-0.002  c-1.117,0-1.748-1.017-2.083-1.871C246.918,297.615,246.907,296.998,247.173,296.409z M275.239,320.741  c-1.262-1.338-2.366-2.709-3.294-3.981c2.629,1.31,5.84,2.765,9.061,3.864C279.306,320.863,277.35,320.962,275.239,320.741z   M258.587,300.876c0.777-0.19,1.622-0.534,2.528-1.062c1.752,2.367,3.849,4.736,6.422,6.773  C264.356,306.234,260.606,304.87,258.587,300.876z M141.2,183.938c0.201-0.018,0.575,0.019,1.027,0.165  c0.625,0.204,1.42,0.646,2.317,1.701c1.366,1.607,3.144,2.915,5.084,3.975c0.112,0.061,0.214,0.139,0.327,0.199  c2.482,1.293,5.247,2.126,8.037,2.248l1.663,0.085c8.846,0.476,18.576,0.75,22.176-2.021c2.962-2.276,7.276-7.402,13.243-14.499  c1.953-2.323,4.074-4.839,6.356-7.505c4.774-5.578,13.746-13.273,21.663-20.058c8.165-6.997,12.844-11.058,14.057-13.165  l0.282-0.495c3.833-6.691,9.782-15.262,17.254-12.213c8.083,3.274,8.535,5.493,8.974,7.638c0.074,0.362,0.149,0.721,0.24,1.075  c1.056,4.053,2.736,9.136,4.679,15.021c6.21,18.794,15.407,46.7,11.406,66.339c-2.904-2.486-6.889-2.957-8.655-3.047  c-1.61-2.036-4.141-3.995-7.194-4.07c-1.682-0.014-3.99,0.495-6.015,3.12c-1.933-2.029-4.351-3.187-6.992-3.187  c-2.393,0-5.866,0.906-9.52,4.906c-0.324-9.407-0.542-32.767,4.306-49.259c1.426-3.359,2.057-5.735,2.127-6.012  c0.236-0.919-0.276-1.861-1.171-2.167c-0.897-0.279-1.871,0.132-2.246,1.003c-0.771,1.8-1.453,3.726-2.064,5.753  c-2.648,6.182-8.208,16.029-18.193,21.094c-18.116,9.184-30.264,15.676-33.894,21.975c-0.705,1.221-1.451,2.691-2.241,4.241  c-2.132,4.198-5.054,9.946-7.56,10.686c-0.429,0.132-0.804,0.075-1.256-0.184c-2.062-1.187-3.8-3.157-5.482-5.065  c-2.469-2.803-5.02-5.696-8.735-6.23l-0.721-0.104c-5.205-0.73-16.037-2.257-18.284-8.264l-0.589-1.573  c-2.172-5.823-2.302-6.172-4.41-8.476c-1.541-1.68-1.36-2.306-0.958-3.025c0.033-0.06,0.055-0.117,0.09-0.179  C140.427,184.197,140.715,183.985,141.2,183.938z"/>
<g>
</g>
<g>
</g>
<g>
</g>
<g>
</g>
<g>
</g>
<g>
</g>
<g>
</g>
<g>
</g>
<g>
</g>
<g>
</g>
<g>
</g>
<g>
</g>
<g>
</g>
<g>
</g>
<g>
</g>
</svg>
