<?xml version="1.0" encoding="iso-8859-1"?>
<!-- Generator: Adobe Illustrator 19.0.0, SVG Export Plug-In . SVG Version: 6.00 Build 0)  -->
<svg xmlns="http://www.w3.org/2000/svg" xmlns:xlink="http://www.w3.org/1999/xlink" version="1.1" id="Layer_1" x="0px" y="0px" viewBox="0 0 512 512" style="enable-background:new 0 0 512 512;" xml:space="preserve">
<path style="fill:#41479B;" d="M478.266,364.281l-0.006-41.626l-0.005-26.661l-0.014-79.987l-0.005-26.661l-0.008-41.701  c0-3.048-0.414-6.035-1.18-8.903c-0.412-1.543-0.931-3.049-1.547-4.512c-2.521-5.98-6.689-11.208-12.133-14.997  c-0.797-0.555-1.612-1.09-2.462-1.581l-23.272-13.43l-21.788-12.574l-17.54-10.123L331.23,42.813l0,0L305.064,27.71l-19.625-11.327  l-12.162-7.019c-10.717-6.185-23.92-6.182-34.635,0.006l-12.079,6.977l-19.626,11.336L180.77,42.796l0,0l-67.069,38.737  L84.307,98.509l-21.781,12.58l-11.481,6.631c-0.826,0.477-1.618,0.996-2.394,1.533c-3.329,2.307-6.18,5.156-8.478,8.379  c-1.543,2.164-2.829,4.5-3.839,6.962c-1.683,4.101-2.603,8.545-2.602,13.125l0.008,41.626l0.005,26.661l0.014,79.973v0.014v0.005  l0.004,26.658l0.007,41.695v0.006c0.001,11.392,5.608,21.975,14.86,28.411c0.797,0.555,1.612,1.09,2.462,1.581l22.945,13.241  l21.788,12.575l17.868,10.311l93.244,53.814l19.626,11.327l12.162,7.019c10.717,6.185,23.92,6.183,34.635-0.006l12.079-6.977  l19.625-11.336l26.167-15.113l0,0l56.524-32.647l10.543-6.09l26.82-15.491l21.781-12.58l14.055-8.116  c0.826-0.477,1.618-0.996,2.394-1.532C472.636,386.312,478.267,375.703,478.266,364.281L478.266,364.281L478.266,364.281z"/>
<path style="fill:#FFE15A;" d="M274.863,223.17c1.308-0.966,0.634-3.042-0.992-3.053l-7.875-0.061l-4.685-0.036l-3.974-11.914  c-0.515-1.542-2.697-1.542-3.21,0l-3.974,11.914L246,220.052l-8.406,0.065c-1.626,0.012-2.301,2.087-0.992,3.053l9.399,6.941  l0.705,0.52l-0.705,2.227l-3.084,9.749c-0.491,1.55,1.275,2.833,2.598,1.887l0.486-0.347l9.731-6.956l10.217,7.303  c0.015,0.011,0.031,0.012,0.045,0.024c1.317,0.886,3.037-0.377,2.552-1.909l-2.552-8.067l-1.236-3.909l1.236-0.912L274.863,223.17z"/>
<path style="fill:#FF4B55;" d="M482.44,323.909l-0.005-27.164l-0.005-30.748l0,0L482.429,256l-0.006-40.745l-0.005-27.164  l-0.008-42.485c-0.001-3.105-0.422-6.148-1.202-9.07c-0.42-1.572-0.948-3.107-1.577-4.597c-2.568-6.092-6.814-11.419-12.362-15.28  c-0.812-0.565-1.642-1.11-2.509-1.611l-23.71-13.684l-22.198-12.811l-17.87-10.313L332.645,38.8l-26.659-15.386l-19.994-11.539  l-12.39-7.151C268.143,1.575,262.053,0,255.962,0c-6.095,0-12.188,1.577-17.649,4.731l-12.307,7.108l-19.994,11.548l-26.659,15.398  l0,0l-68.33,39.464L81.077,95.546l-22.191,12.818l-11.697,6.756c-0.841,0.486-1.648,1.015-2.439,1.562  c-3.393,2.349-6.296,5.254-8.638,8.536c-1.572,2.206-2.883,4.585-3.911,7.092c-1.716,4.179-2.652,8.706-2.651,13.371l0.007,42.41  l0.005,27.164l0.005,30.748l0,0l0.004,19.994l0,0l0.005,30.735v0.014v0.005l0.005,27.159l0.007,42.478v0.006  c0.003,11.607,5.715,22.389,15.14,28.946c0.812,0.565,1.642,1.11,2.509,1.611l23.377,13.491l22.198,12.811l18.204,10.506  l94.999,54.826l19.994,11.539l12.39,7.151c5.457,3.15,11.548,4.725,17.638,4.725c6.095,0,12.188-1.577,17.649-4.731l12.307-7.108  l19.995-11.548l26.659-15.397l57.587-33.261l10.742-6.205l27.325-15.782l22.191-12.818l14.319-8.27  c0.841-0.486,1.648-1.013,2.439-1.561c9.465-6.556,15.201-17.365,15.2-29.001L482.44,323.909z M265.996,66.052V23.421l10,5.771  l19.994,11.541l26.659,15.386l68.339,39.44l17.87,10.313l22.198,12.811l23.705,13.68c0.279,0.161,0.636,0.394,1.088,0.709  c2.371,1.65,4.223,3.944,5.356,6.632c0.276,0.655,0.506,1.325,0.684,1.988c0.349,1.306,0.526,2.624,0.526,3.918l0.008,42.485  l0.005,27.164l0.005,30.745h-33.998l-162.439-85.995v-0.33l0,0L265.996,66.052L265.996,66.052z M49.557,215.251l-0.005-27.163  l-0.007-42.411c0-1.967,0.387-3.91,1.153-5.776c0.449-1.095,1.02-2.129,1.693-3.075c1.045-1.463,2.304-2.712,3.739-3.706  c0.437-0.304,0.792-0.534,1.058-0.687l11.697-6.756l22.19-12.818l29.948-17.296l68.33-39.464L216.012,40.7l19.994-11.548  l9.995-5.772v42.672v19.994l0,0v73.961l0,0L83.563,246.002H49.562L49.557,215.251z M246.002,425.952L246.002,425.952v19.994v42.631  l-10-5.771l-19.994-11.541l-94.999-54.825l-18.204-10.505l-22.199-12.811l-23.371-13.488c-0.279-0.161-0.636-0.394-1.09-0.709  c-4.109-2.859-6.563-7.545-6.564-12.544l-0.007-42.478l-0.005-27.176l-0.005-30.732h33.999l162.438,85.995l0,0v73.96  L246.002,425.952L246.002,425.952z M256,334.665l-9.997-5.292l-39.99-21.172l-43.783-23.18l0,0l-35.934-19.025l-18.884-9.997  l18.884-9.997l119.706-63.375l9.997-5.292l9.997,5.292l119.707,63.375l18.884,9.997l-18.884,9.997l-10.112,5.354l0,0l-69.605,36.85  l0,0l-39.99,21.172L256,334.665z M455.864,378.882c-0.436,0.302-0.79,0.531-1.056,0.685l-14.319,8.27l-22.19,12.817l-27.325,15.782  l-10.742,6.205l-57.587,33.261l-26.659,15.397l-19.994,11.548l-9.995,5.772v-42.672v-93.614l0,0v-0.34l162.439-85.995h34.001  l0.005,30.751l0.005,27.163l0.008,42.41C462.453,371.329,459.99,376.024,455.864,378.882z"/>
<polygon style="fill:#73AF00;" points="370.237,265.997 350.242,246.002 344.279,240.039 333.347,240.039 327.384,246.002   325.278,248.108 323.172,246.002 319.522,242.352 308.009,242.352 304.359,246.002 284.364,265.997 265.996,284.365 263.85,286.511   246.001,286.511 208.413,286.511 195.824,267.871 179.847,267.871 173.552,276.692 166.479,276.692 162.229,285.021 206.012,308.2   246.001,308.2 265.996,308.2 305.987,308.2 375.59,271.351 "/>
<g>
	<polygon style="fill:#F5F5F5;" points="246.001,308.2 206.012,308.2 246.001,329.372 256,334.665 265.996,329.372 305.987,308.2    265.996,308.2  "/>
	<path style="fill:#F5F5F5;" d="M385.703,246.002l-119.707-63.375l-9.997-5.292l-9.997,5.292l-119.706,63.375l-18.884,9.997   l18.884,9.997l35.934,19.025l4.25-8.329h7.073l6.295-8.821h15.977l12.589,18.641h37.588h17.849l2.146-2.146l18.369-18.369   l19.994-19.994l3.65-3.65h11.512l3.651,3.65l2.106,2.106l2.106-2.106l5.963-5.965h10.932l5.963,5.965l19.995,19.994l5.354,5.354   l10.112-5.354L404.588,256L385.703,246.002z M274.863,223.17l-8.866,6.548l-1.236,0.912l1.236,3.909l2.552,8.067   c0.485,1.533-1.235,2.795-2.552,1.909c-0.015-0.01-0.031-0.012-0.045-0.024l-10.217-7.303l-9.731,6.956l-0.486,0.347   c-1.323,0.946-3.088-0.337-2.598-1.887l3.084-9.749l0.705-2.227l-0.705-0.52l-9.399-6.941c-1.308-0.966-0.634-3.042,0.992-3.053   l8.406-0.065l4.153-0.032l3.974-11.914c0.515-1.542,2.697-1.542,3.21,0l3.974,11.914l4.685,0.036l7.875,0.061   C275.497,220.128,276.172,222.204,274.863,223.17z"/>
</g>
<g>
</g>
<g>
</g>
<g>
</g>
<g>
</g>
<g>
</g>
<g>
</g>
<g>
</g>
<g>
</g>
<g>
</g>
<g>
</g>
<g>
</g>
<g>
</g>
<g>
</g>
<g>
</g>
<g>
</g>
</svg>
