<?xml version="1.0" encoding="iso-8859-1"?>
<!-- Generator: Adobe Illustrator 19.0.0, SVG Export Plug-In . SVG Version: 6.00 Build 0)  -->
<svg xmlns="http://www.w3.org/2000/svg" xmlns:xlink="http://www.w3.org/1999/xlink" version="1.1" id="Layer_1" x="0px" y="0px" viewBox="0 0 512.004 512.004" style="enable-background:new 0 0 512.004 512.004;" xml:space="preserve">
<path style="fill:#F5F5F5;" d="M482.437,296.746l-0.014-81.491l-0.005-27.164l-0.008-42.486  c-0.001-11.607-5.715-22.389-15.14-28.946c-0.812-0.565-1.642-1.11-2.509-1.611l-23.71-13.684l-22.198-12.81l-17.87-10.313  l-94.999-54.826l-19.995-11.539l-12.39-7.151c-10.918-6.302-24.37-6.3-35.287,0.006l-12.307,7.108L206.01,23.387L111.025,78.25  L81.078,95.546l-22.191,12.818L47.19,115.12c-0.841,0.486-1.648,1.015-2.439,1.562c-9.465,6.556-15.202,17.365-15.2,29.001  l0.007,42.41l0.005,27.164l0.014,81.491l0.005,27.164l0.007,42.486c0.003,11.607,5.715,22.388,15.14,28.946  c0.812,0.565,1.642,1.11,2.509,1.611l23.377,13.491l22.198,12.811l18.204,10.506l94.999,54.826l19.995,11.539l12.39,7.151  c10.918,6.302,24.37,6.299,35.287-0.006l12.307-7.108l19.995-11.548l94.989-54.863l27.325-15.782l22.191-12.818l14.319-8.27  c0.841-0.486,1.648-1.015,2.439-1.562c9.465-6.556,15.201-17.365,15.2-29.001l-0.008-42.41L482.437,296.746z"/>
<path style="fill:#82AFFF;" d="M29.581,323.909l0.007,42.486c0.003,11.607,5.715,22.388,15.14,28.946  c0.812,0.565,1.642,1.11,2.509,1.611l23.377,13.491l22.198,12.812l18.204,10.506l94.998,54.826l19.995,11.539l12.39,7.151  c10.918,6.302,24.37,6.299,35.287-0.006l12.307-7.108l19.995-11.548l94.989-54.862l27.325-15.782l22.191-12.818l14.319-8.27  c0.841-0.486,1.648-1.015,2.439-1.562c9.465-6.556,15.201-17.365,15.2-29.001l-0.008-42.41l-0.005-27.164L482.432,256H29.571  l0.006,40.746L29.581,323.909z"/>
<path style="fill:#B46446;" d="M256.929,337.519c-1.693-0.074-41.666-2.118-61.727-29.603  c-11.692-16.016-14.025-37.319-6.934-63.315l2.864,0.781c-6.838,25.077-4.666,45.521,6.459,60.772  c19.205,26.329,59.065,28.381,59.467,28.397L256.929,337.519z"/>
<g>
	<path style="fill:#41AA5A;" d="M188.239,233.074c-1.971,5.134-1.521,10.51,0.761,14.585c4.424-1.502,8.354-5.195,10.326-10.328   c1.971-5.134,1.521-10.51-0.761-14.585C194.141,224.246,190.21,227.939,188.239,233.074z"/>
	<path style="fill:#41AA5A;" d="M213.278,304.045c-2.188,3.609-2.762,8.449-1.141,13.146c1.513,4.39,4.636,7.628,8.256,9.261   c-3.517-1.843-7.989-2.304-12.378-0.791c-4.697,1.62-8.154,5.055-9.649,9.001c3.609,2.187,8.448,2.762,13.146,1.141   c4.697-1.62,8.154-5.055,9.649-9.001l-0.005-0.003c2.169-3.605,2.738-8.425,1.123-13.106   C220.66,308.997,217.225,305.539,213.278,304.045z"/>
	<path style="fill:#41AA5A;" d="M204.717,290.944c-3.375,2.533-5.712,6.809-5.961,11.772c-0.232,4.637,1.458,8.806,4.208,11.672   c-2.577-3.022-6.554-5.117-11.189-5.35c-4.962-0.249-9.451,1.65-12.309,4.755c2.533,3.375,6.809,5.712,11.772,5.961   s9.451-1.65,12.309-4.755c-0.001-0.001-0.003-0.003-0.003-0.003c3.355-2.538,5.681-6.798,5.928-11.744   C209.721,298.29,207.822,293.802,204.717,290.944z"/>
	<path style="fill:#41AA5A;" d="M201.016,276.174c-4.081,1.072-7.86,4.15-9.962,8.651c-1.966,4.208-1.973,8.705-0.509,12.397   c-1.246-3.77-4.138-7.213-8.343-9.177c-4.503-2.103-9.375-2.039-13.193-0.242c1.072,4.081,4.15,7.859,8.653,9.964   c4.503,2.103,9.375,2.039,13.193,0.242c0,0-0.001-0.004-0.002-0.005c4.066-1.082,7.827-4.15,9.922-8.636   C202.877,284.866,202.814,279.992,201.016,276.174z"/>
	<path style="fill:#41AA5A;" d="M203.115,261.517c-4.2-0.417-8.814,1.152-12.353,4.639c-3.308,3.259-4.884,7.473-4.795,11.443   c0.146-3.968-1.366-8.203-4.624-11.509c-3.487-3.54-8.077-5.177-12.282-4.824c-0.417,4.2,1.151,8.813,4.639,12.353   c3.487,3.54,8.077,5.177,12.282,4.824c0,0,0-0.004,0-0.006c4.189,0.402,8.783-1.162,12.31-4.637   C201.832,270.312,203.47,265.722,203.115,261.517z"/>
	<path style="fill:#41AA5A;" d="M206.085,247.567c-4.073-1.107-8.883-0.322-12.95,2.531c-3.801,2.667-6.052,6.562-6.623,10.492   c0.801-3.889,0.01-8.315-2.654-12.115c-2.853-4.069-7.108-6.443-11.314-6.789c-1.107,4.073-0.322,8.883,2.531,12.95   c2.853,4.069,7.108,6.443,11.314,6.789c0-0.001,0-0.004,0-0.004c4.064,1.088,8.854,0.305,12.908-2.539   C203.364,256.029,205.738,251.773,206.085,247.567z"/>
</g>
<g>
	<circle style="fill:#FFE15A;" cx="207.27" cy="324.52" r="3.093"/>
	<circle style="fill:#FFE15A;" cx="221.49" cy="326.26" r="3.093"/>
	<circle style="fill:#FFE15A;" cx="199.1" cy="301.15" r="3.093"/>
	<circle style="fill:#FFE15A;" cx="179.44" cy="277.9" r="3.093"/>
	<circle style="fill:#FFE15A;" cx="193.16" cy="262.14" r="3.093"/>
	<circle style="fill:#FFE15A;" cx="187.96" cy="246.01" r="3.093"/>
</g>
<path style="fill:#B46446;" d="M257.056,337.519l-0.13-2.969c0.402-0.015,40.263-2.068,59.467-28.397  c11.126-15.25,13.298-35.695,6.459-60.772l2.864-0.781c7.089,25.997,4.756,47.3-6.934,63.315  C298.723,335.399,258.75,337.445,257.056,337.519z"/>
<g>
	<path style="fill:#41AA5A;" d="M325.746,233.074c1.971,5.134,1.521,10.51-0.761,14.585c-4.423-1.502-8.354-5.195-10.326-10.328   c-1.971-5.134-1.521-10.51,0.761-14.585C319.844,224.246,323.776,227.939,325.746,233.074z"/>
	<path style="fill:#41AA5A;" d="M300.708,304.045c2.188,3.609,2.762,8.449,1.142,13.146c-1.513,4.39-4.636,7.628-8.256,9.261   c3.517-1.843,7.989-2.304,12.378-0.791c4.697,1.62,8.154,5.055,9.649,9.001c-3.609,2.187-8.448,2.762-13.146,1.141   c-4.697-1.62-8.154-5.055-9.649-9.001c0.001-0.001,0.004-0.001,0.004-0.001c-2.167-3.606-2.736-8.426-1.121-13.108   C293.327,308.997,296.761,305.539,300.708,304.045z"/>
	<path style="fill:#41AA5A;" d="M309.268,290.944c3.375,2.533,5.712,6.809,5.961,11.772c0.232,4.637-1.458,8.806-4.208,11.672   c2.577-3.022,6.554-5.117,11.189-5.35c4.962-0.249,9.451,1.65,12.309,4.755c-2.533,3.375-6.809,5.712-11.772,5.961   s-9.451-1.65-12.309-4.755c0.001-0.001,0.003-0.003,0.003-0.003c-3.355-2.538-5.68-6.798-5.928-11.744   C304.265,298.29,306.163,293.802,309.268,290.944z"/>
	<path style="fill:#41AA5A;" d="M312.97,276.174c4.081,1.072,7.859,4.15,9.962,8.651c1.966,4.208,1.973,8.705,0.509,12.397   c1.246-3.77,4.138-7.213,8.344-9.177c4.503-2.103,9.375-2.039,13.193-0.242c-1.072,4.081-4.15,7.859-8.653,9.964   c-4.503,2.103-9.375,2.039-13.193,0.242c0,0,0.001-0.004,0.003-0.005c-4.066-1.082-7.827-4.15-9.922-8.636   C311.109,284.866,311.173,279.992,312.97,276.174z"/>
	<path style="fill:#41AA5A;" d="M310.87,261.517c4.2-0.417,8.814,1.152,12.353,4.639c3.308,3.259,4.884,7.473,4.795,11.443   c-0.146-3.968,1.366-8.203,4.624-11.509c3.487-3.54,8.077-5.177,12.282-4.824c0.417,4.2-1.151,8.813-4.639,12.353   c-3.487,3.54-8.077,5.177-12.282,4.824c0,0,0-0.004,0-0.006c-4.189,0.402-8.783-1.162-12.31-4.637   C312.154,270.312,310.516,265.722,310.87,261.517z"/>
	<path style="fill:#41AA5A;" d="M307.901,247.567c4.073-1.107,8.883-0.322,12.95,2.531c3.801,2.667,6.052,6.562,6.623,10.492   c-0.801-3.889-0.01-8.315,2.654-12.115c2.853-4.069,7.108-6.443,11.314-6.789c1.107,4.073,0.322,8.883-2.531,12.95   c-2.853,4.069-7.108,6.443-11.314,6.789c0-0.001,0-0.004,0-0.004c-4.064,1.088-8.854,0.305-12.908-2.539   C310.623,256.029,308.247,251.773,307.901,247.567z"/>
</g>
<g>
	<circle style="fill:#FFE15A;" cx="306.72" cy="324.52" r="3.093"/>
	<circle style="fill:#FFE15A;" cx="292.5" cy="326.26" r="3.093"/>
	<circle style="fill:#FFE15A;" cx="314.89" cy="301.15" r="3.093"/>
	<circle style="fill:#FFE15A;" cx="334.55" cy="277.9" r="3.093"/>
	<circle style="fill:#FFE15A;" cx="320.82" cy="262.14" r="3.093"/>
	<circle style="fill:#FFE15A;" cx="326.02" cy="246.01" r="3.093"/>
</g>
<path style="fill:#8CD7FF;" d="M274.4,233.626h-35.475c-11.043,0-19.995,8.951-19.995,19.995v31.251  c0,11.044,8.951,19.995,19.995,19.995H274.4c11.042,0,19.995-8.95,19.995-19.995V253.62  C294.395,242.577,285.444,233.626,274.4,233.626z"/>
<g>
	<polygon style="fill:#F5F5F5;" points="262.516,260.824 262.516,264.782 258.559,264.782 258.559,260.824 255.511,260.824    255.511,264.782 251.552,264.782 251.552,260.824 249.076,260.824 249.076,268.741 251.056,271.248 251.056,300.408    262.931,300.408 262.931,271.248 264.909,268.741 264.909,260.824  "/>
	<path style="fill:#F5F5F5;" d="M257.57,248.288c1.958-0.948,2.474,3.052,2.474,3.052c4.124-2.062,3.048-5.409,2.062-7.009   c-1.32-2.144-6.597-2.969-8.824,1.485s3.793,13.278,3.793,13.278C257.405,256.371,255.014,249.527,257.57,248.288z"/>
	<polygon style="fill:#F5F5F5;" points="282.866,268.205 282.866,272.163 278.907,272.163 278.907,268.205 275.859,268.205    275.859,272.163 271.901,272.163 271.901,268.205 269.424,268.205 269.424,276.122 271.404,278.629 271.404,307.789    283.279,307.789 283.279,278.629 285.259,276.122 285.259,268.205  "/>
	<path style="fill:#F5F5F5;" d="M277.918,255.67c1.958-0.949,2.474,3.052,2.474,3.052c4.124-2.062,3.048-5.409,2.062-7.009   c-1.32-2.144-6.597-2.969-8.824,1.485c-2.227,4.453,3.793,13.278,3.793,13.278C277.755,263.751,275.363,256.907,277.918,255.67z"/>
	<polygon style="fill:#F5F5F5;" points="242.168,268.205 242.168,272.163 238.209,272.163 238.209,268.205 235.161,268.205    235.161,272.163 231.204,272.163 231.204,268.205 228.728,268.205 228.728,276.122 230.706,278.629 230.706,307.789    242.582,307.789 242.582,278.629 244.561,276.122 244.561,268.205  "/>
	<path style="fill:#F5F5F5;" d="M237.222,255.67c1.958-0.949,2.474,3.052,2.474,3.052c4.124-2.062,3.048-5.409,2.062-7.009   c-1.32-2.144-6.597-2.969-8.824,1.485c-2.227,4.453,3.793,13.278,3.793,13.278C237.057,263.751,234.665,256.907,237.222,255.67z"/>
</g>
<path style="fill:#6EC86E;" d="M289.471,302.518c-2.643-1.307-5.578-2.111-8.728-2.111c-3.374,0-6.502,0.922-9.282,2.412  c-3.614-3.895-8.735-6.371-14.469-6.371s-10.853,2.476-14.469,6.371c-2.78-1.49-5.908-2.412-9.282-2.412  c-3.149,0-6.085,0.804-8.728,2.111c5.651,10.365,16.473,27.114,32.477,33.515C272.997,329.632,283.819,312.883,289.471,302.518z"/>
<g>
	<path style="fill:#FFE15A;" d="M256.814,169.87l0.179-0.089C256.993,169.781,256.934,169.796,256.814,169.87z"/>
	<path style="fill:#FFE15A;" d="M256.993,169.781l0.179,0.089C257.053,169.796,256.993,169.781,256.993,169.781z"/>
	<path style="fill:#FFE15A;" d="M294.969,186.728c-1.113-6.432-9.401-7.545-18.926-8.164s-13.608-6.061-13.608-6.061h-10.886   c0,0-4.083,5.442-13.608,6.061c-9.525,0.619-17.813,1.732-18.926,8.164s7.051,16.575,7.051,16.575l7.174-5.813   c0,0-8.783-8.411-4.453-11.504c4.275-3.054,16.74-0.938,22.293-8.27c-0.235,1.532-0.152,3.424,0.797,5.755   c1.814,4.454,1.155,10.061,1.155,10.061h3.959h3.959c0,0-0.66-5.608,1.155-10.061c0.95-2.331,1.032-4.223,0.797-5.755   c5.552,7.332,18.018,5.216,22.293,8.27c4.33,3.093-4.454,11.504-4.454,11.504l7.174,5.813   C287.918,203.303,296.082,193.16,294.969,186.728z"/>
	<path style="fill:#FFE15A;" d="M261.034,150.236h-2.062v-2.227c0-1.093-0.886-1.979-1.979-1.979s-1.979,0.886-1.979,1.979v2.227   h-2.144c-1.093,0-1.979,0.886-1.979,1.979s0.886,1.979,1.979,1.979h2.144v5.69c0,1.093,0.886,1.979,1.979,1.979   c1.093,0,1.979-0.886,1.979-1.979v-5.69h2.062c1.093,0,1.979-0.886,1.979-1.979C263.012,151.122,262.126,150.236,261.034,150.236z"/>
</g>
<circle style="fill:#FFF0E1;" cx="256.99" cy="161.87" r="3.959"/>
<g>
	<path style="fill:#FFC75A;" d="M228.624,241.526c1.595,0.796,3.457,1.485,5.361,1.485c6.558,0,9.772-3.709,9.772-10.267   s-3.956-11.504-10.515-11.504c0,0-0.74,0.012-1.924,0.195c-0.254,0.041-0.507,0.079-0.756,0.136   c-6.305,1.202-21.885,7.012-25.028,35.295c-4.393,39.538,27.709,75.209,51.46,83.126v-3.959   C256.993,336.034,200.916,293.151,228.624,241.526z"/>
	<polygon style="fill:#FFC75A;" points="233.243,225.198 256.993,233.115 233.243,241.031  "/>
</g>
<g>
	<polygon style="fill:#FFE15A;" points="280.744,241.031 256.993,233.115 280.744,225.198  "/>
	<path style="fill:#FFE15A;" d="M209.468,257.303c2.835-25.524,16.214-30.773,21.978-31.874c0.126-0.029,0.255-0.046,0.472-0.082   c0.725-0.111,1.225-0.141,1.381-0.149c4.34,0.03,7.202,3.299,7.202,7.257c0,4.365-2.557,6.02-5.114,6.102   c0,0,2.062-4.289-2.144-5.442c-2.838-0.779-6.432,1.485-6.102,5.607c0.232,2.898,2.983,5.69,6.102,5.69   c6.558,0,11.876-4.739,11.876-11.298c0-6.558-5.317-11.876-11.876-11.876c0,0-0.74,0.012-1.924,0.195   c-0.254,0.041-0.507,0.079-0.756,0.136c-6.305,1.202-21.885,7.012-25.028,35.295c-4.393,39.538,27.709,75.209,51.46,83.126v-3.959   c0,0-8.411-4.206-14.162-8.292C225.063,315.12,206.26,286.17,209.468,257.303z"/>
</g>
<g>
	<path style="fill:#FFC75A;" d="M285.361,241.526c-1.595,0.796-3.457,1.485-5.361,1.485c-6.558,0-9.772-3.709-9.772-10.267   s3.956-11.504,10.515-11.504c0,0,0.74,0.012,1.924,0.195c0.255,0.041,0.507,0.079,0.756,0.136   c6.305,1.202,21.885,7.012,25.028,35.295c4.393,39.538-27.709,75.209-51.46,83.126v-3.959   C256.993,336.034,313.07,293.151,285.361,241.526z"/>
	<polygon style="fill:#FFC75A;" points="280.744,225.198 256.993,233.115 280.744,241.031  "/>
</g>
<g>
	<path style="fill:#FFE15A;" d="M304.518,257.303c-2.835-25.524-16.214-30.773-21.978-31.874c-0.126-0.029-0.255-0.046-0.472-0.082   c-0.725-0.111-1.225-0.141-1.38-0.149c-4.34,0.03-7.202,3.299-7.202,7.257c0,4.365,2.557,6.02,5.114,6.102   c0,0-2.062-4.289,2.144-5.442c2.838-0.779,6.432,1.485,6.102,5.607c-0.232,2.898-2.982,5.69-6.102,5.69   c-6.558,0-11.876-4.739-11.876-11.298c0-6.558,5.317-11.876,11.876-11.876c0,0,0.74,0.012,1.924,0.195   c0.255,0.041,0.507,0.079,0.756,0.136c6.305,1.202,21.885,7.012,25.028,35.295c4.393,39.538-27.709,75.209-51.46,83.126v-3.959   c0,0,8.411-4.206,14.162-8.292C288.923,315.12,307.725,286.17,304.518,257.303z"/>
	<circle style="fill:#FFE15A;" cx="256.99" cy="233.11" r="3.959"/>
</g>
<path style="fill:#FFC75A;" d="M285.259,201.325c1.051-2.722-0.371-6.371-0.371-6.371c-3.649-0.124-6.185,2.536-6.185,2.536  c0.309-3.278-1.113-6.247-1.113-6.247c-4.7,0.556-6.247,3.34-6.247,3.34c-0.247-5.134-3.34-7.237-3.34-7.237  c-4.083,1.237-5.32,5.69-5.32,5.69c-0.619-5.072-5.69-7.422-5.69-7.422s-5.071,2.351-5.69,7.422c0,0-1.237-4.453-5.32-5.69  c0,0-3.093,2.103-3.34,7.237c0,0-1.546-2.783-6.247-3.34c0,0-1.422,2.969-1.113,6.247c0,0-2.536-2.659-6.185-2.536  c0,0-1.422,3.649-0.371,6.371c0,0-4.144-1.298-7.545,0.68c0,0,6.236,2.412,8.314,5.381h54.995c2.077-2.969,8.314-5.381,8.314-5.381  C289.403,200.025,285.259,201.325,285.259,201.325z"/>
<path style="fill:#FFE15A;" d="M284.49,207.386c0,1.781-4.161,7.287-4.161,7.287s-13.493,1.879-23.336,1.879  c-9.907,0-23.43-1.929-23.43-1.929s-4.068-5.476-4.068-7.237c0-5.062,12.312-9.166,27.497-9.166  C272.18,198.219,284.49,202.323,284.49,207.386z"/>
<g>
	<ellipse style="fill:#FFC75A;" cx="256.99" cy="213.33" rx="23.756" ry="7.917"/>
	<path style="fill:#FFC75A;" d="M262.807,169.41c0-2.598-1.938-5.896-5.813-3.588c-3.876-2.309-5.813,0.99-5.813,3.588   c0,2.598-2.969,2.969-3.34,2.722c0,0,2.474,3.217,5.32,1.113c0,0,1.526,2.227,3.835,2.227c2.309,0,3.835-2.227,3.835-2.227   c2.845,2.103,5.32-1.113,5.32-1.113C265.775,172.378,262.807,172.008,262.807,169.41z"/>
</g>
<g>
	<path style="fill:#B46446;" d="M249.074,361.269c-0.222,0-0.449-0.05-0.661-0.159c-0.735-0.364-1.032-1.256-0.665-1.991   l7.917-15.833c0.367-0.727,1.258-1.032,1.991-0.661c0.735,0.364,1.032,1.256,0.665,1.991l-7.917,15.833   C250.143,360.967,249.62,361.269,249.074,361.269z"/>
	<path style="fill:#B46446;" d="M264.912,361.269c-0.545,0-1.068-0.301-1.33-0.82l-7.917-15.833   c-0.367-0.735-0.07-1.627,0.665-1.991c0.731-0.375,1.623-0.07,1.991,0.661l7.917,15.833c0.367,0.735,0.07,1.627-0.665,1.991   C265.36,361.219,265.134,361.269,264.912,361.269z"/>
</g>
<g>
	<path style="fill:#F5F5F5;" d="M292.618,347.414c-23.461,5.245-47.791,5.245-71.252,0c0-3.959,0-11.368,0-15.326   c23.461,5.245,47.791,5.245,71.252,0C292.618,336.047,292.618,343.456,292.618,347.414z"/>
	<path style="fill:#F5F5F5;" d="M240.995,341.644c-15.15,2.923-30.675,3.725-46.124,2.282c0.26,2.041,12.477,8.107,12.477,8.107   s-10.78,5.21-10.54,7.097c14.788,1.382,29.652,0.722,44.185-1.899v-15.586h0.002V341.644z"/>
	<path style="fill:#F5F5F5;" d="M273.05,341.644c15.15,2.923,30.675,3.725,46.124,2.282c-0.26,2.041-12.477,8.107-12.477,8.107   s10.78,5.21,10.54,7.097c-14.788,1.382-29.652,0.722-44.185-1.899v-15.586h-0.002V341.644z"/>
</g>
<g>
</g>
<g>
</g>
<g>
</g>
<g>
</g>
<g>
</g>
<g>
</g>
<g>
</g>
<g>
</g>
<g>
</g>
<g>
</g>
<g>
</g>
<g>
</g>
<g>
</g>
<g>
</g>
<g>
</g>
</svg>
