<?xml version="1.0" encoding="iso-8859-1"?>
<!-- Generator: Adobe Illustrator 19.0.0, SVG Export Plug-In . SVG Version: 6.00 Build 0)  -->
<svg xmlns="http://www.w3.org/2000/svg" xmlns:xlink="http://www.w3.org/1999/xlink" version="1.1" id="Layer_1" x="0px" y="0px" viewBox="0 0 512.002 512.002" style="enable-background:new 0 0 512.002 512.002;" xml:space="preserve">
<path style="fill:#F5F5F5;" d="M482.45,366.319l-0.008-42.41l-0.005-27.164l-0.014-81.491l-0.005-27.164l-0.008-42.486  c0-3.105-0.422-6.147-1.202-9.07c-0.42-1.572-0.948-3.107-1.576-4.598c-2.568-6.091-6.814-11.419-12.362-15.28  c-0.812-0.565-1.642-1.11-2.509-1.611l-23.71-13.684l-22.198-12.81l-17.87-10.313l-68.336-39.437l0,0l-26.659-15.386l-19.995-11.539  l-12.39-7.151c-10.918-6.301-24.37-6.3-35.287,0.006l-12.307,7.108l-19.995,11.548l-26.659,15.398l0,0l-68.33,39.466L81.078,95.547  l-22.191,12.818l-11.697,6.756c-0.841,0.486-1.648,1.015-2.439,1.561c-3.392,2.349-6.296,5.254-8.638,8.538  c-1.572,2.206-2.883,4.585-3.911,7.092c-1.715,4.179-2.652,8.706-2.651,13.371l0.007,42.41l0.005,27.164l0.014,81.478v0.014v0.005  l0.005,27.159l0.007,42.478v0.006c0.003,11.607,5.715,22.388,15.14,28.946c0.812,0.565,1.642,1.11,2.509,1.61l23.377,13.491  l22.198,12.812l18.204,10.506l94.999,54.826l19.995,11.539l12.39,7.151c10.918,6.302,24.37,6.298,35.287-0.006l12.307-7.108  l19.995-11.548l26.659-15.397l0,0l57.587-33.261l10.742-6.205l27.325-15.782l22.191-12.818l14.319-8.27  c0.841-0.486,1.648-1.015,2.439-1.561C476.715,388.766,482.451,377.956,482.45,366.319L482.45,366.319L482.45,366.319z"/>
<path style="fill:#73AF00;" d="M482.412,145.606c0-3.105-0.422-6.147-1.202-9.07c-0.42-1.572-0.948-3.107-1.576-4.598  c-2.568-6.091-6.814-11.419-12.362-15.28c-0.812-0.565-1.642-1.11-2.509-1.611l-23.71-13.684l-22.198-12.81l-17.87-10.313  l-68.338-39.439l-17.441-10.066l-9.217-5.32l-19.995-11.539l-12.39-7.151c-10.918-6.302-24.37-6.3-35.287,0.006l-12.307,7.108  l-19.995,11.548l-9.259,5.347l-17.4,10.05l0,0l-68.331,39.467L81.078,95.547l-22.191,12.818l-11.697,6.756  c-0.841,0.486-1.648,1.015-2.439,1.561c-3.392,2.349-6.296,5.254-8.638,8.538c-1.572,2.206-2.883,4.585-3.911,7.092  c-1.715,4.179-2.652,8.706-2.651,13.371l0.006,34.564h452.861L482.412,145.606z"/>
<path style="fill:#FF4B55;" d="M482.443,331.756H29.582l0.006,34.633v0.006c0.003,11.607,5.715,22.389,15.14,28.946  c0.812,0.565,1.642,1.11,2.509,1.611l23.377,13.491l22.198,12.811l18.204,10.506l85.782,49.506l9.217,5.32l19.995,11.539  l12.39,7.151c10.918,6.302,24.37,6.298,35.287-0.006l12.307-7.108l19.995-11.548l9.259-5.347l17.4-10.05l57.587-33.261l10.742-6.205  l27.325-15.782l22.191-12.818l14.319-8.27c0.841-0.486,1.648-1.013,2.439-1.562c9.465-6.556,15.201-17.365,15.2-29.001  L482.443,331.756z"/>
<path style="fill:#464655;" d="M260.109,209.591l10.168,30.488l32.137,0.249c4.161,0.033,5.886,5.342,2.539,7.814L279.1,267.233  l9.695,30.642c1.255,3.968-3.262,7.249-6.647,4.83l-26.147-18.689l-26.147,18.689c-3.385,2.419-7.902-0.862-6.647-4.83l9.694-30.642  l-25.854-19.091c-3.347-2.472-1.622-7.782,2.539-7.814l32.137-0.249l10.168-30.488C253.21,205.645,258.792,205.645,260.109,209.591z  "/>
<g>
	<path style="fill:#F5F5F5;" d="M137.089,110.427c0.69,4.419,3.36,5.806,5.683,5.625c2.739-0.212,5.141-2.717,5.141-5.361V95.525   c0-0.76,0.619-1.378,1.378-1.378c0.761,0,1.378,0.62,1.378,1.378v15.231c0,1.831,0.905,3.538,2.422,4.564   c0.926,0.627,2.004,0.951,3.092,0.951c0.692,0,1.387-0.132,2.049-0.396l1.378-0.551c0.127,12.73-0.647,23.918-0.662,24.125   c-0.107,1.518,1.035,2.838,2.554,2.945c0.067,0.005,0.134,0.009,0.2,0.009c1.433,0,2.644-1.11,2.748-2.561   c0.064-0.896,0.914-13.149,0.659-26.716l0.832-0.334c0.731-0.291,1.551-0.256,2.254,0.094c3.038,1.513,6.692,0.924,9.093-1.476   l0.497-0.495c2.228-2.232,2.994-5.475,1.997-8.466l-2.348-7.044c1.27,0.382,2.664-0.18,3.277-1.403   c0.681-1.362,0.129-3.019-1.233-3.7l-5.515-2.758c-0.997-0.501-2.194-0.347-3.04,0.382c-0.842,0.732-1.162,1.898-0.81,2.957   l4.436,13.31c0.332,0.996,0.076,2.078-0.665,2.822l-0.495,0.495c-0.719,0.719-1.813,0.894-2.729,0.441   c-1.788-0.892-3.821-1.061-5.731-0.574c-0.387-8.85-1.341-17.664-3.372-23.756c-0.481-1.443-2.039-2.227-3.489-1.742   c-1.445,0.479-2.226,2.041-1.743,3.488c1.987,5.958,2.853,15.04,3.159,24.067l-3.3,1.321v-15.23c0-3.803-3.093-6.894-6.894-6.894   s-6.893,3.092-6.893,6.894v13.349l-2.813-13.895c-0.3-1.495-1.753-2.469-3.249-2.157c-1.493,0.304-2.458,1.758-2.156,3.25   L137.089,110.427z"/>
	<path style="fill:#F5F5F5;" d="M142.398,87.252c1.523,0,2.758-1.233,2.758-2.758v-2.757c0-1.525-1.235-2.758-2.758-2.758   s-2.758,1.233-2.758,2.758v2.757C139.64,86.019,140.874,87.252,142.398,87.252z"/>
	<path style="fill:#F5F5F5;" d="M169.973,84.494h2.758c1.523,0,2.758-1.233,2.758-2.757c0-1.525-1.235-2.758-2.758-2.758h-2.758   c-1.523,0-2.758,1.233-2.758,2.758C167.215,83.262,168.449,84.494,169.973,84.494z"/>
	<path style="fill:#F5F5F5;" d="M152.009,120.735l-13.787,8.273c-1.306,0.784-1.728,2.477-0.945,3.784   c0.517,0.862,1.43,1.338,2.367,1.338c0.484,0,0.972-0.126,1.416-0.394l13.787-8.273c1.306-0.784,1.728-2.477,0.945-3.784   C155.008,120.374,153.316,119.952,152.009,120.735z"/>
	<path style="fill:#F5F5F5;" d="M189.185,125.613l0.065-0.044c0.231,0.932,0.629,1.833,1.272,2.591c1.12,1.32,2.8,1.982,4.699,1.826   c2.693-0.196,4.524-1.427,5.736-3.015c0.185,0.126,0.379,0.242,0.581,0.345c1.491,0.751,3.214,0.695,4.855-0.156   c4.168-2.146,5.065-7.112,4.939-9.707c-0.074-1.513-1.361-2.582-2.87-2.612c-1.515,0.065-2.693,1.35-2.639,2.863   c0.001,0.035,0.064,3.307-1.937,4.521c-0.326-0.455-0.714-1.478-0.859-2.324c-0.232-1.42-1.536-2.407-2.939-2.294   c-1.43,0.112-2.534,1.315-2.539,2.749c-0.001,0.401-0.09,3.94-2.822,4.236c-0.317-0.434-0.324-2.259-0.011-3.608   c0.264-1.107-0.18-2.262-1.116-2.908c-0.938-0.649-2.176-0.649-3.117-0.011l-1.54,1.047c-0.731-15.991-2.414-34.626-2.436-34.864   c-0.137-1.513-1.471-2.642-2.995-2.496c-1.517,0.137-2.636,1.478-2.498,2.997c0.024,0.255,1.971,21.814,2.572,38.28   c-0.14,0.134-0.286,0.281-0.425,0.409c-1.091-2.749-3.252-4.481-6.036-4.745c-3.929-0.347-8.187,2.327-9.711,6.145   c-1.316,3.285-0.487,6.514,2.108,8.224c1.866,1.231,4.682,1.618,8.224,0.377c-0.865,3.038-2.438,6.118-4.485,8.501   c-1.832,2.136-4.892,4.6-8.81,4.489c-2.279-0.089-4.031-0.835-5.355-2.283c-3.193-3.487-2.918-9.799-2.915-9.866   c0.08-1.518-1.083-2.814-2.602-2.898c-1.528-0.161-2.822,1.08-2.905,2.602c-0.019,0.35-0.419,8.644,4.33,13.86   c2.337,2.572,5.444,3.948,9.231,4.096c0.185,0.009,0.369,0.011,0.555,0.011c4.612,0,9.089-2.262,12.654-6.417   c3.354-3.905,5.631-9.209,6.315-14.134c-0.009,9.434-5.693,20.072-13.231,24.759c-3.2,1.987-8.19,3.78-13.811,1.01   c-6.929-3.42-6.103-11.339-6.067-11.663c0.19-1.511-0.884-2.889-2.394-3.078c-1.505-0.182-2.89,0.881-3.078,2.394   c-0.062,0.492-1.387,12.118,9.099,17.29c2.693,1.33,5.51,1.989,8.348,1.989c3.647,0,7.326-1.091,10.815-3.26   c9.176-5.703,15.837-18.096,15.837-29.466C189.275,129.597,189.241,127.655,189.185,125.613z M172.558,128.456   c-0.492-0.326-0.107-1.368-0.024-1.576c0.58-1.455,2.397-2.712,3.848-2.712c0.074,0,0.15,0.002,0.222,0.011   c0.352,0.032,1.288,0.121,1.691,2.203c0.044,0.221,0.08,0.447,0.107,0.679C175.329,128.864,173.268,128.921,172.558,128.456z"/>
	<path style="fill:#F5F5F5;" d="M143.79,153.816c-1.306-0.767-2.994-0.329-3.77,0.977c-0.126,0.212-0.295,0.444-0.466,0.655   c-0.03-0.07-0.059-0.145-0.089-0.226c-1.15-3.067-0.331-7.793,0.082-9.355c0.389-1.471-0.486-2.978-1.956-3.372   c-1.467-0.377-2.977,0.48-3.372,1.949c-0.2,0.746-1.896,7.44,0.081,12.713c1.266,3.372,3.208,4.223,4.617,4.338   c0.125,0.011,0.249,0.016,0.371,0.016c2.969,0,4.944-2.992,5.493-3.94C145.544,156.259,145.098,154.586,143.79,153.816z"/>
	<path style="fill:#F5F5F5;" d="M194.677,103.797c0.596,0,1.197-0.191,1.702-0.59l13.901-10.915c0.191-0.15,0.315-0.347,0.455-0.534   c2.002-1.207,3.357-3.382,3.357-5.886c0-3.803-3.093-6.893-6.893-6.893s-6.893,3.092-6.893,6.893c0,2.127,0.988,4.008,2.507,5.274   l-9.84,7.725c-1.197,0.94-1.406,2.674-0.466,3.869C193.05,103.436,193.86,103.797,194.677,103.797z M207.199,84.494   c0.761,0,1.378,0.62,1.378,1.378c0,0.76-0.619,1.378-1.378,1.378c-0.761,0-1.378-0.62-1.378-1.378   C205.819,85.114,206.438,84.494,207.199,84.494z"/>
	<path style="fill:#F5F5F5;" d="M203.934,101.182c-1.453-0.485-3.008,0.299-3.489,1.742c-0.295,0.884-1.628,5.431,1.075,8.133   c1.048,1.05,2.428,1.576,4.12,1.572c1.131,0,2.402-0.231,3.809-0.702c1.445-0.48,2.226-2.041,1.743-3.488   c-0.482-1.443-2.041-2.229-3.489-1.742c-1.541,0.511-2.192,0.429-2.251,0.482c-0.162-0.409-0.055-1.64,0.227-2.521   C206.156,103.218,205.375,101.662,203.934,101.182z"/>
	<path style="fill:#F5F5F5;" d="M235.493,89.784c0.259,0.075,0.519,0.11,0.775,0.11c1.195,0,2.294-0.781,2.646-1.984l1.608-5.515   c0.427-1.462-0.414-2.994-1.874-3.42c-1.466-0.422-2.993,0.412-3.42,1.874l-1.61,5.515   C233.193,87.826,234.032,89.358,235.493,89.784z"/>
	<path style="fill:#F5F5F5;" d="M219.421,89.46c0.437,0.256,0.917,0.377,1.39,0.377c0.947,0,1.871-0.487,2.383-1.365   c0.769-1.315,0.326-3.005-0.988-3.773c-0.555-0.324-0.479-1.236-0.459-1.416c0.082-0.725,0.515-1.607,1.266-1.842   c1.455-0.452,2.266-1.998,1.813-3.453c-0.455-1.457-1.998-2.262-3.454-1.814c-2.749,0.856-4.752,3.402-5.106,6.482   C215.939,85.524,217.148,88.13,219.421,89.46z"/>
	<path style="fill:#F5F5F5;" d="M197.547,134.129c-1.522,0-2.758,1.233-2.758,2.758c0,1.346,0.963,2.467,2.241,2.709   c0.145,0.212,0.517,0.942,0.517,2.805c0,1.525,1.235,2.758,2.758,2.758s2.758-1.233,2.758-2.758   C203.062,134.223,197.772,134.129,197.547,134.129z"/>
	<path style="fill:#F5F5F5;" d="M244.328,122.711c0.346,0.056,0.691,0.084,1.037,0.084c2.167,0,4.356-1.093,6.523-3.262   c1.077-1.077,1.077-2.822,0-3.899s-2.822-1.077-3.899,0c-1.65,1.651-2.537,1.686-2.764,1.635c-0.526-0.075-1.003-0.762-1.11-0.951   c-0.692-1.341-2.332-1.877-3.683-1.201c-1.362,0.681-1.914,2.337-1.233,3.7C239.371,119.16,240.964,122.165,244.328,122.711z"/>
	<path style="fill:#F5F5F5;" d="M291.201,103.334c-0.017-0.044-0.034-0.084-0.047-0.121c-0.489-1.432-2.051-2.211-3.48-1.723   c-1.446,0.48-2.227,2.041-1.745,3.487c0.215,0.646,1.443,3.889,4.486,4.298c0.204,0.027,0.405,0.04,0.606,0.04   c1.911,0,3.703-1.236,5.334-3.681c0.844-1.266,0.502-2.978-0.765-3.824c-1.268-0.842-2.98-0.504-3.824,0.765   C291.547,102.9,291.358,103.148,291.201,103.334z"/>
	<path style="fill:#F5F5F5;" d="M285.786,153.431c0-11.759-0.517-22.791-1.235-32.456c3.915,6.791,7.438,13.653,9.682,19.638   c0.416,1.107,1.466,1.788,2.582,1.788c0.322,0,0.649-0.056,0.969-0.175c1.426-0.536,2.149-2.124,1.615-3.552   c-3.49-9.305-9.764-20.386-15.947-30.223c-1.507-14.853-3.195-24.282-3.225-24.45c-0.272-1.5-1.705-2.513-3.205-2.219   c-1.498,0.272-2.492,1.707-2.221,3.204c0.022,0.12,0.891,4.976,1.929,13.15c-2.118-3.144-4.086-5.98-5.738-8.314l0.135,0.044   c1.452,0.485,3.007-0.299,3.489-1.742c0.482-1.446-0.299-3.008-1.743-3.488l-8.273-2.758c-1.147-0.387-2.406,0.021-3.109,1.002   c-0.189,0.261-0.317,0.549-0.404,0.845c-1.651-1.221-3.768-2.213-5.756-1.381c-1.202,0.499-2.636,1.753-2.636,4.906   c0,2.421,0.923,5.039,1.902,7.812c1.623,4.6,2.641,7.982,0.921,9.595c-0.951,0.891-1.899,1.228-2.827,0.993   c-1.701-0.431-3.384-2.696-4.505-6.058c-0.049-0.146-0.15-0.251-0.22-0.384c0.58-4.271,0.327-9.417-0.841-15.257   c-0.297-1.495-1.746-2.467-3.245-2.162c-1.493,0.299-2.461,1.751-2.162,3.245c1.801,9.005,1.26,16.351-1.445,19.65   c-1.046,1.276-2.356,1.868-4.124,1.868c-0.559,0-0.94-0.177-1.32-0.614c-2.176-2.507-2.167-10.596-1.465-15.543   c0.111-0.789-0.125-1.591-0.649-2.194c-0.524-0.604-1.283-0.951-2.082-0.951c-4.745,0-6.543,5.396-8.132,10.157   c-0.696,2.092-1.994,5.983-2.899,6.387c-1.67,0-2.748-4.901-2.758-8.275c-0.004-1.521-1.237-2.752-2.758-2.752h-0.004   c-1.521,0-2.753,1.233-2.753,2.754c0,6.361,2.167,13.787,8.273,13.787c4.548,0,6.388-4.955,7.93-9.56   c0.267,3.663,1.095,7.457,3.128,9.8c1.428,1.648,3.325,2.518,5.487,2.518c3.404,0,6.305-1.343,8.388-3.885   c0.377-0.46,0.704-0.988,1.023-1.522c1.602,2.277,3.565,3.776,5.778,4.336c0.649,0.165,1.302,0.247,1.948,0.247   c2.129,0,4.209-0.877,6.005-2.567c0.374-0.351,0.636-0.735,0.921-1.112c0.675,0.192,1.358,0.307,2.037,0.307   c2.234,0,4.384-0.9,5.718-1.756c1.276-0.819,1.646-2.509,0.835-3.791c-0.812-1.28-2.511-1.662-3.796-0.859   c-0.024,0.011-1.866,1.068-3.122,0.821c0.004-3.023-1.091-6.233-2.089-9.061c-0.569-1.611-1.151-3.262-1.426-4.61   c0.227,0.191,0.45,0.391,0.647,0.585c1.075,1.077,2.82,1.077,3.898,0c0.177-0.179,0.281-0.395,0.4-0.604   c2.858,3.938,8.738,12.212,14.785,21.75c1.155,11.724,2.168,26.68,2.168,43.082c0,1.525,1.235,2.758,2.758,2.758   C284.549,156.189,285.786,154.956,285.786,153.431z"/>
	<path style="fill:#F5F5F5;" d="M288.544,92.767c0,1.525,1.235,2.758,2.757,2.758c1.523,0,2.758-1.233,2.758-2.758   c0-3.245-2.539-8.488-3.048-9.506c-0.681-1.36-2.336-1.909-3.7-1.233c-1.362,0.681-1.914,2.337-1.233,3.7   C287.072,87.718,288.544,91.33,288.544,92.767z"/>
	<path style="fill:#F5F5F5;" d="M275.996,153.733c-1.352-0.69-3.013-0.142-3.702,1.215c-0.296,0.579-0.755,1.222-1.143,1.637   c-0.122-1.096,0.17-3.285,0.726-5.1c0.37-1.212-0.132-2.521-1.217-3.172c-1.081-0.655-2.474-0.485-3.369,0.412l-5.515,5.515   c-1.077,1.077-1.077,2.822,0,3.899s2.822,1.077,3.899,0l0.14-0.14c0.239,1.107,0.695,2.117,1.476,2.898   c1.033,1.033,2.283,1.581,3.583,1.581c0.252,0,0.505-0.021,0.759-0.062c3.124-0.506,5.067-3.95,5.59-4.992   C277.902,156.062,277.352,154.417,275.996,153.733z"/>
	<path style="fill:#F5F5F5;" d="M274.929,131.544h-19.435c0.172-0.686,0.35-1.341,0.53-1.963c7.75-1.611,12.357-4.111,13.711-7.452   c0.469-1.158,0.957-3.498-1.037-6.188c-1.797-2.423-4.335-3.512-6.971-2.973c-3.918,0.795-7.409,5.017-9.915,11.776   c-7.784,1.333-12.768,4.126-15.922,6.884c-1.118-11.299-5.506-18.013-5.718-18.332c-0.846-1.268-2.558-1.611-3.824-0.765   c-1.267,0.846-1.61,2.556-0.765,3.824c0.05,0.075,5.051,7.725,5.051,20.531c0,12.587-10.036,22.06-16.545,22.06   c-3.097,0-4.451-3.68-5.047-6.792c6.372-4.466,11.995-9.635,13.238-14.6c1.681-6.718-0.435-11.671-1.833-14.948   c-0.066-0.151-0.135-0.312-0.205-0.48c0.059,0.054,0.116,0.11,0.172,0.164c1.075,1.077,2.82,1.077,3.898,0   c1.077-1.077,1.077-2.822,0-3.899c-1.612-1.613-4.742-4.148-7.587-2.957c-1.202,0.499-2.636,1.753-2.636,4.906   c0,1.425,0.595,2.817,1.285,4.433c1.241,2.905,2.785,6.522,1.555,11.444c-0.729,2.913-4.305,6.447-9.025,9.955   c-0.506-0.605-1.237-1.012-2.087-1.012h-0.004c-1.521,0.003-2.753,1.233-2.753,2.754c0,0.496,0.021,1.027,0.054,1.571   c-5.901,3.821-12.579,7.359-17.74,9.707c-1.386,0.63-1.998,2.264-1.368,3.652c0.461,1.015,1.463,1.616,2.511,1.616   c0.382,0,0.77-0.079,1.138-0.247c1.551-0.705,8.91-4.134,16.469-8.819c1.392,4.727,4.343,9.066,9.965,9.066   c6.616,0,14.12-5.409,18.45-13.485c0.522,0.924,1.123,1.808,1.839,2.633c6.941,8.003,20.498,8.095,21.072,8.095   c1.485,0,2.702-1.175,2.757-2.658c0.053-1.483-1.078-2.744-2.558-2.849c-0.021-0.002-2.219-0.245-3.442-1.672   c-0.737-0.862-1.032-2.047-0.902-3.622c0.282-3.399,11.244-5.938,20.904-6.088c1.151-0.019,2.171-0.749,2.557-1.833l2.758-7.755   c0.3-0.842,0.171-1.783-0.346-2.513C276.666,131.98,275.824,131.544,274.929,131.544z M262.825,118.376   c0.052-0.011,0.122-0.027,0.21-0.027c0.264,0,0.68,0.129,1.235,0.877c0.105,0.14,0.44,0.62,0.356,0.83   c-0.316,0.781-2.221,2.071-6.187,3.239C260.183,119.892,261.889,118.565,262.825,118.376z M246.172,154.625   c-2.802-0.91-5.656-2.353-7.633-4.64c-2.172-2.512-2.974-5.69-2.448-9.711c0.08-0.211,0.26-0.629,0.575-1.17   c3.884-0.356,14.256,1.175,14.975,4.145c-3.2,1.633-5.557,3.93-5.828,7.194C245.677,152.082,245.843,153.469,246.172,154.625z"/>
	<path style="fill:#F5F5F5;" d="M304.947,91.894l-2.758-8.273c-0.444-1.33-1.824-2.124-3.193-1.823   c-1.375,0.294-2.308,1.572-2.168,2.97c1.902,19.027,5.501,56.135,5.501,60.39c0,3.821-6.797,11.344-17.779,16.835   c-1.362,0.681-1.914,2.337-1.233,3.7c0.484,0.967,1.457,1.525,2.469,1.525c0.414,0,0.835-0.094,1.231-0.291   c10.031-5.017,20.827-13.967,20.827-21.769c0-4.074-2.818-33.388-4.433-49.855C304.722,94.746,305.405,93.268,304.947,91.894z"/>
	<path style="fill:#F5F5F5;" d="M327.957,116.776c0.53,0.53,1.236,0.807,1.951,0.807c0.466,0,0.936-0.119,1.362-0.361   c1.078-0.614,1.615-1.874,1.308-3.078c-0.494-1.938-0.659-4.363-0.397-5.354c1.381,0.044,2.663-0.94,2.867-2.364   c0.215-1.508-0.832-2.905-2.338-3.12c-1.823-0.247-3.424,0.289-4.543,1.532c-0.725,0.807-1.155,1.844-1.39,2.959l-3.194-3.194   c-1.077-1.077-2.822-1.077-3.899,0s-1.077,2.822,0,3.899L327.957,116.776z"/>
	<path style="fill:#F5F5F5;" d="M334.159,119.652l-10.341,7.41c-1.237,0.886-1.523,2.609-0.636,3.848   c0.539,0.751,1.386,1.15,2.244,1.15c0.556,0,1.117-0.167,1.603-0.517l10.341-7.41c1.237-0.886,1.523-2.609,0.636-3.848   C337.118,119.047,335.392,118.758,334.159,119.652z"/>
	<path style="fill:#F5F5F5;" d="M333.244,130.023c-0.867,1.117-0.744,2.691,0.241,3.656c0.119,0.199,0.656,1.255,0.559,3.969   c-0.054,1.525,1.136,2.8,2.658,2.854c0.034,0.003,0.067,0.003,0.1,0.003c1.478,0,2.701-1.171,2.754-2.658   c0.201-5.628-1.641-7.685-2.442-8.308C335.913,128.601,334.178,128.822,333.244,130.023z"/>
	<path style="fill:#F5F5F5;" d="M357.308,150.33c1.523,0,2.758-1.233,2.758-2.758c0-4.069-0.209-8.61-0.551-13.336   c2.734,4.48,5.006,8.611,6.462,12.008c0.447,1.047,1.465,1.672,2.536,1.672c0.362,0,0.731-0.07,1.085-0.224   c1.398-0.601,2.048-2.222,1.447-3.619c-2.524-5.891-7.243-13.695-12.615-21.753c-1.082-10.121-2.494-20.038-3.593-27.153   c0.585,0.059,1.19-0.084,1.722-0.429c0.871-0.559,1.28-1.527,1.221-2.492c0.07,0.271,0.146,0.544,0.305,0.792   c0.019,0.026,1.791,2.954,1.005,6.751c-0.309,1.49,0.65,2.949,2.142,3.258c0.189,0.037,0.377,0.056,0.561,0.056   c1.281,0,2.428-0.897,2.698-2.201c1.246-6.023-1.631-10.633-1.753-10.828c-0.819-1.282-2.523-1.658-3.808-0.846   c-0.875,0.557-1.288,1.527-1.231,2.493c-0.071-0.272-0.15-0.547-0.311-0.797l-4.654-7.238c-0.711-1.103-2.102-1.551-3.323-1.077   c-1.223,0.48-1.941,1.753-1.712,3.045c0.039,0.217,2.146,12.318,4.013,26.901c-2.114-2.985-4.228-5.905-6.277-8.69   c-0.334-4.171-0.667-8.029-0.956-11.218c0.152-0.046,0.301-0.105,0.449-0.177c1.362-0.681,1.914-2.337,1.233-3.7l-2.758-5.515   c-0.595-1.19-1.953-1.782-3.233-1.416c-1.277,0.371-2.109,1.6-1.978,2.924c0.33,3.29,0.671,6.934,1.007,10.761   c-1.745-2.299-3.358-4.404-4.739-6.186c0.269-0.231,0.5-0.52,0.669-0.859c0.681-1.362,0.13-3.019-1.233-3.7l-5.515-2.758   c-1.157-0.576-2.561-0.275-3.378,0.732c-0.814,1.007-0.817,2.446-0.008,3.458c0.149,0.185,6.938,8.696,15.06,19.682   c1.408,18.219,2.347,37.171,1.022,41.145c-0.242,0.727-0.665,1.583-1.062,1.613c-1.667,0.231-5.645-3.495-7.642-7.489   c-1.151-2.299-2.808-2.539-3.693-2.499c-2.963,0.184-4.12,3.444-6.222,9.364c-1.507,4.241-3.378,9.514-5.48,11.671   c-1.138-1.391-2.611-6.06-3.429-10.857c0.384,1.061,1.377,1.828,2.569,1.828c1.523,0,2.758-1.233,2.758-2.758   c0-4.111-2.875-35.43-4.483-52.594c1.341-0.539,2.047-2.038,1.583-3.428l-2.758-8.273c-0.444-1.33-1.805-2.114-3.187-1.826   c-1.372,0.291-2.308,1.565-2.174,2.959c1.874,19.671,5.389,57.667,5.497,62.912c-0.008-0.047-0.016-0.094-0.023-0.141   c-0.214-1.508-1.621-2.542-3.119-2.341c-1.508,0.219-2.554,1.613-2.339,3.122c0.805,5.636,2.863,15.327,7.602,16.905   c0.374,0.126,0.877,0.24,1.468,0.24c1.086,0,2.468-0.385,3.88-1.798c3.004-3.003,5.036-8.728,6.829-13.776   c0.405-1.142,0.885-2.493,1.337-3.652c2.531,3.694,6.943,8.294,11.414,7.933c1.572-0.112,4.433-0.958,5.903-5.37   c1.466-4.399,0.887-19.74-0.101-34.427c2.323,3.257,4.649,6.589,6.867,9.884c0.86,8.258,1.476,16.53,1.476,23.326   C354.551,149.096,355.785,150.33,357.308,150.33z"/>
	<path style="fill:#F5F5F5;" d="M378.234,135.826c-1.953-14.552-4.675-31.409-6.398-41.755c0.779,0.191,1.627,0.035,2.311-0.49   c1.212-0.923,1.443-2.656,0.52-3.864l-4.997-6.549c-0.771-1.007-2.132-1.362-3.297-0.854c-1.165,0.509-1.829,1.747-1.613,3   c0.05,0.282,4.967,28.59,8.009,51.245c1.162,8.658-0.535,16.394-4.54,20.692c-2.574,2.76-5.986,4.01-10.115,3.77   c-1.516-0.081-2.831,1.061-2.925,2.579c-0.095,1.518,1.058,2.828,2.578,2.924c0.466,0.03,0.925,0.042,1.38,0.042   c5.2,0,9.714-1.907,13.115-5.558C377.457,155.435,379.634,146.255,378.234,135.826z"/>
	<path style="fill:#F5F5F5;" d="M347.899,154.002c-1.013,1.101-0.936,2.835,0.136,3.875c0.15,0.145,0.329,0.431,0.33,0.571   c0.001,0.079-0.11,0.31-0.417,0.616c-1.077,1.077-1.077,2.822,0,3.899c0.539,0.539,1.245,0.807,1.949,0.807   c0.706,0,1.411-0.269,1.949-0.807c1.75-1.748,2.069-3.523,2.031-4.705c-0.085-2.544-1.818-4.188-2.163-4.491   C350.588,152.788,348.912,152.907,347.899,154.002z"/>
</g>
<g>
</g>
<g>
</g>
<g>
</g>
<g>
</g>
<g>
</g>
<g>
</g>
<g>
</g>
<g>
</g>
<g>
</g>
<g>
</g>
<g>
</g>
<g>
</g>
<g>
</g>
<g>
</g>
<g>
</g>
</svg>
