<?xml version="1.0" encoding="iso-8859-1"?>
<!-- Generator: Adobe Illustrator 19.0.0, SVG Export Plug-In . SVG Version: 6.00 Build 0)  -->
<svg xmlns="http://www.w3.org/2000/svg" xmlns:xlink="http://www.w3.org/1999/xlink" version="1.1" id="Layer_1" x="0px" y="0px" viewBox="0 0 512.001 512.001" style="enable-background:new 0 0 512.001 512.001;" xml:space="preserve">
<path style="fill:#F5F5F5;" d="M481.684,373.554c0.146-0.696,0.271-1.396,0.375-2.103c0.018-0.115,0.036-0.229,0.052-0.344  c0.087-0.645,0.156-1.293,0.209-1.944c0.013-0.159,0.032-0.315,0.044-0.474c0.052-0.786,0.085-1.575,0.085-2.369l-0.006-37.515  l-0.001-4.895l-0.005-27.164l-0.014-81.491l-0.005-27.164l-0.001-7.632l-0.006-34.853c0-0.79-0.033-1.575-0.085-2.356  c-0.01-0.152-0.03-0.304-0.042-0.456c-0.052-0.654-0.12-1.303-0.209-1.949c-0.015-0.106-0.034-0.211-0.049-0.319  c-0.102-0.709-0.227-1.411-0.374-2.107c-0.009-0.042-0.019-0.084-0.027-0.126c-0.161-0.761-0.349-1.513-0.559-2.258v-0.001l0,0  c-2.204-7.792-7.038-14.671-13.796-19.373c-0.812-0.565-1.642-1.11-2.509-1.611l-23.71-13.684l-22.198-12.81l-17.87-10.313  l-94.999-54.826l-19.996-11.54l-12.39-7.151c-10.92-6.302-24.37-6.3-35.287,0.006l-12.307,7.108l-19.995,11.548L111.024,78.25  L81.077,95.546l-22.191,12.818l-11.697,6.756c-0.841,0.486-1.648,1.015-2.439,1.562c-6.772,4.69-11.619,11.563-13.839,19.352l0,0  c0,0.001,0,0.002-0.001,0.002c-0.212,0.749-0.401,1.505-0.565,2.269c-0.01,0.046-0.021,0.092-0.03,0.14  c-0.146,0.699-0.271,1.401-0.376,2.111c-0.016,0.112-0.036,0.222-0.051,0.335c-0.089,0.649-0.157,1.302-0.21,1.958  c-0.012,0.154-0.032,0.307-0.042,0.461c-0.052,0.782-0.084,1.567-0.084,2.357c0,0.005,0,0.01,0,0.015l0.003,13.91l0.004,22.966  l0.001,5.533l0.005,27.164l0.014,81.491l0.005,27.164l0.001,7.632l0.006,34.854c0,0.79,0.032,1.575,0.084,2.356  c0.011,0.152,0.03,0.304,0.042,0.456c0.052,0.654,0.12,1.305,0.209,1.949c0.015,0.106,0.034,0.211,0.049,0.317  c0.104,0.709,0.227,1.411,0.374,2.108c0.009,0.042,0.019,0.084,0.027,0.126c0.161,0.761,0.349,1.513,0.559,2.258v0.001l0,0  c2.204,7.793,7.038,14.671,13.796,19.373c0.812,0.565,1.642,1.11,2.509,1.611l23.377,13.491l22.198,12.812l18.204,10.506  l94.998,54.826l19.995,11.539l12.39,7.151c10.918,6.302,24.37,6.299,35.287-0.006l12.307-7.108l19.995-11.548l94.989-54.862  l27.325-15.782l22.191-12.818l14.319-8.27c0.841-0.486,1.648-1.015,2.439-1.562c7.423-5.141,12.537-12.903,14.404-21.624  C481.662,373.649,481.674,373.601,481.684,373.554z"/>
<g>
	<path style="fill:#73AF00;" d="M467.271,116.659c-0.812-0.565-1.642-1.11-2.509-1.611l-23.71-13.684l-22.198-12.81l-17.87-10.313   l-94.999-54.826L285.99,11.876L273.6,4.725c-10.92-6.302-24.37-6.3-35.287,0.006l-12.307,7.108l-19.995,11.548L111.024,78.25   L81.077,95.546l-22.191,12.818l-11.697,6.756c-0.841,0.486-1.648,1.015-2.439,1.562c-6.772,4.69-11.619,11.563-13.839,19.352   h450.157C478.864,128.241,474.029,121.362,467.271,116.659z"/>
	<path style="fill:#73AF00;" d="M44.727,395.34c0.812,0.565,1.642,1.11,2.509,1.611l23.377,13.491l22.198,12.812l18.204,10.506   l94.998,54.826l19.995,11.539l12.39,7.151c10.918,6.302,24.37,6.299,35.287-0.006l12.307-7.108l19.995-11.548l94.989-54.863   l27.325-15.782l22.191-12.818l14.319-8.27c0.841-0.486,1.648-1.015,2.439-1.562c6.771-4.69,11.612-11.563,13.829-19.352H30.931   C33.135,383.76,37.969,390.639,44.727,395.34z"/>
</g>
<polygon style="fill:#C8414B;" points="482.443,335.978 482.441,323.909 482.436,296.746 482.423,215.255 482.418,188.091   482.417,180.459 482.417,178.35 482.416,176.022 29.556,176.022 29.557,188.091 29.562,215.255 29.576,296.746 29.58,323.909   29.582,331.542 29.582,333.651 29.582,335.978 "/>
<path style="fill:#FFE15A;" d="M191.402,243.15l37.014,27.333l-13.879,43.868c-0.761,2.404,1.977,4.395,4.03,2.928l37.432-26.755  l37.432,26.755c2.052,1.467,4.79-0.522,4.03-2.928l-13.879-43.868l37.014-27.333c2.029-1.498,0.983-4.717-1.54-4.737l-46.01-0.356  l-14.557-43.648c-0.799-2.393-4.183-2.393-4.981,0l-14.557,43.648l-46.01,0.356C190.418,238.432,189.374,241.651,191.402,243.15z"/>
<g>
</g>
<g>
</g>
<g>
</g>
<g>
</g>
<g>
</g>
<g>
</g>
<g>
</g>
<g>
</g>
<g>
</g>
<g>
</g>
<g>
</g>
<g>
</g>
<g>
</g>
<g>
</g>
<g>
</g>
</svg>
