<?xml version="1.0" encoding="iso-8859-1"?>
<!-- Generator: Adobe Illustrator 19.0.0, SVG Export Plug-In . SVG Version: 6.00 Build 0)  -->
<svg xmlns="http://www.w3.org/2000/svg" xmlns:xlink="http://www.w3.org/1999/xlink" version="1.1" id="Layer_1" x="0px" y="0px" viewBox="0 0 512.002 512.002" style="enable-background:new 0 0 512.002 512.002;" xml:space="preserve">
<path style="fill:#FF4B55;" d="M482.45,366.319l-0.008-42.41l-0.005-27.164l-0.014-81.491l-0.005-27.164l-0.008-42.486  c0-3.105-0.422-6.147-1.202-9.07c-0.42-1.572-0.948-3.107-1.577-4.598c-2.568-6.091-6.814-11.419-12.362-15.28  c-0.812-0.565-1.642-1.11-2.509-1.611l-23.71-13.684l-22.198-12.81l-17.87-10.313l-68.335-39.437l0,0l-26.659-15.386l-19.995-11.539  l-12.39-7.151c-10.918-6.301-24.37-6.3-35.287,0.006l-12.307,7.108l-19.995,11.548l-26.659,15.398l0,0l-68.33,39.466L81.078,95.547  l-22.191,12.818l-11.697,6.756c-0.841,0.486-1.648,1.015-2.439,1.561c-3.392,2.349-6.296,5.254-8.638,8.538  c-1.572,2.206-2.883,4.585-3.911,7.092c-1.715,4.179-2.652,8.706-2.651,13.371l0.007,42.41l0.005,27.164l0.014,81.478v0.014v0.005  l0.005,27.159l0.007,42.478v0.006c0.003,11.607,5.715,22.388,15.14,28.946c0.812,0.565,1.642,1.11,2.509,1.61l23.377,13.491  l22.198,12.812l18.204,10.506l94.999,54.826l19.995,11.539l12.39,7.151c10.918,6.302,24.37,6.298,35.287-0.006l12.307-7.108  l19.995-11.548l26.659-15.397l0,0l57.587-33.261l10.742-6.205l27.325-15.782l22.191-12.818l14.319-8.27  c0.841-0.486,1.648-1.015,2.439-1.561C476.715,388.766,482.451,377.956,482.45,366.319L482.45,366.319L482.45,366.319z"/>
<path style="fill:#464655;" d="M482.415,160.682l-0.003-15.076c0-3.105-0.422-6.147-1.202-9.07c-0.42-1.572-0.948-3.107-1.577-4.598  c-2.568-6.091-6.814-11.419-12.362-15.28c-0.812-0.565-1.642-1.11-2.509-1.611l-23.71-13.684l-22.198-12.81l-17.87-10.313  l-68.337-39.439l-26.659-15.386l-19.995-11.539l-12.39-7.151c-10.918-6.302-24.37-6.3-35.287,0.006l-12.307,7.108l-19.995,11.548  l-26.659,15.398l0,0l-68.33,39.466l-2.864,1.653l19.125,57.379l61.697,23.399H482.415z"/>
<path style="fill:#73AF00;" d="M108.152,432.108l2.864,1.652l94.999,54.826l19.995,11.539l12.39,7.151  c10.92,6.302,24.37,6.298,35.287-0.006l12.307-7.108l19.995-11.548l26.659-15.397l57.587-33.261l10.742-6.205l27.325-15.782  l22.191-12.818l14.319-8.27c0.841-0.486,1.648-1.013,2.439-1.562c9.465-6.556,15.201-17.365,15.2-29.001l-0.003-15H188.984  l-56.698,24.648L108.152,432.108z"/>
<g>
	<polygon style="fill:#F5F5F5;" points="482.417,169.761 482.415,160.682 188.984,160.682 198.066,169.761 212.145,183.831    482.42,183.831  "/>
	<polygon style="fill:#F5F5F5;" points="482.446,342.242 482.444,328.171 212.145,328.171 198.066,342.242 188.984,351.32    482.447,351.32  "/>
</g>
<path style="fill:#41479B;" d="M278.779,250.429l-66.634-66.598l-14.079-14.071l-9.083-9.077l-80.822-80.778L81.078,95.547  l-22.191,12.818l-11.697,6.756c-0.841,0.486-1.648,1.015-2.439,1.561c-3.392,2.349-6.296,5.254-8.638,8.538  c-1.572,2.206-2.883,4.585-3.911,7.092c-1.716,4.179-2.652,8.706-2.651,13.371l0.003,15l0.001,9.077l0.003,14.071v4.261  l0.005,27.164l0.014,81.478v0.014v0.005l0.005,27.159v4.261l0.002,14.071l0.001,9.078l0.003,15.07v0.006  c0.003,11.607,5.715,22.389,15.14,28.946c0.812,0.565,1.642,1.11,2.509,1.611l23.377,13.491l22.198,12.812l15.34,8.853  l80.832-80.788l9.083-9.078l14.079-14.071l66.634-66.598C281.491,258.861,281.491,253.14,278.779,250.429z"/>
<path style="fill:#FFE15A;" d="M104.241,209.395l22.459,22.986l29.02-13.807c3.758-1.787,7.628,2.236,5.696,5.921l-14.921,28.462  l22.099,23.332c2.862,3.02,0.231,7.945-3.871,7.247l-31.68-5.396l-15.362,28.227c-1.988,3.654-7.485,2.674-8.088-1.442  l-4.659-31.798l-31.593-5.886c-4.09-0.762-4.856-6.292-1.127-8.138l28.802-14.256l-4.165-31.866  C96.311,208.856,101.333,206.419,104.241,209.395z"/>
<g>
</g>
<g>
</g>
<g>
</g>
<g>
</g>
<g>
</g>
<g>
</g>
<g>
</g>
<g>
</g>
<g>
</g>
<g>
</g>
<g>
</g>
<g>
</g>
<g>
</g>
<g>
</g>
<g>
</g>
</svg>
