<?xml version="1.0" encoding="iso-8859-1"?>
<!-- Generator: Adobe Illustrator 19.0.0, SVG Export Plug-In . SVG Version: 6.00 Build 0)  -->
<svg xmlns="http://www.w3.org/2000/svg" xmlns:xlink="http://www.w3.org/1999/xlink" version="1.1" id="Layer_1" x="0px" y="0px" viewBox="0 0 512.004 512.004" style="enable-background:new 0 0 512.004 512.004;" xml:space="preserve">
<path style="fill:#F5F5F5;" d="M482.437,296.746l-0.014-81.491l-0.005-27.164l-0.008-42.486  c-0.001-11.607-5.715-22.389-15.14-28.946c-0.812-0.565-1.642-1.11-2.509-1.611l-23.71-13.684l-22.198-12.81l-17.87-10.313  l-94.999-54.826l-19.995-11.539l-12.39-7.151c-10.918-6.302-24.37-6.3-35.287,0.006l-12.307,7.108L206.01,23.387L111.025,78.25  L81.078,95.546l-22.191,12.818L47.19,115.12c-0.841,0.486-1.648,1.015-2.439,1.562c-9.465,6.556-15.202,17.365-15.2,29.001  l0.007,42.41l0.005,27.164l0.014,81.491l0.005,27.164l0.007,42.486c0.003,11.607,5.715,22.388,15.14,28.946  c0.812,0.565,1.642,1.11,2.509,1.611l23.377,13.491l22.198,12.811l18.204,10.506l94.999,54.826l19.995,11.539l12.39,7.151  c10.918,6.302,24.37,6.299,35.287-0.006l12.307-7.108l19.995-11.548l94.989-54.863l27.325-15.782l22.191-12.818l14.319-8.27  c0.841-0.486,1.648-1.015,2.439-1.562c9.465-6.556,15.201-17.365,15.2-29.001l-0.008-42.41L482.437,296.746z"/>
<g>
	<path style="fill:#FFECD7;" d="M206.581,325.722c-21.368-4.877-40.418-15.909-55.156-31.154v32.605   c16.082,11.729,34.847,19.95,55.156,23.708V325.722z"/>
	<path style="fill:#FFECD7;" d="M305.368,325.722c21.368-4.877,40.418-15.909,55.156-31.154v32.605   c-16.082,11.729-34.847,19.95-55.156,23.708V325.722z"/>
</g>
<g>
	<path style="fill:#FFE15A;" d="M197.114,255.053c-1.028,0.206-2.469,2.882-2.882,7.409c-0.411,4.527-3.293,23.669-9.467,21.61   c-6.175-2.058-10.29-11.113-10.29-11.113l-8.644,12.554c0,0,5.762-2.264,11.731,0.411c5.968,2.676,7.409,4.116,9.055,2.469   c1.647-1.647,5.557-6.586,8.644-6.175l3.499-24.902L197.114,255.053z"/>
	<path style="fill:#FFE15A;" d="M162.95,296.008c0,0-1.441,11.937-0.617,13.378s23.462,6.792,23.462,6.792s-6.586,5.351-6.792,8.233   c0,0-8.027,1.441-10.908,3.91l-10.702-17.699l-0.411-14.612h5.968V296.008z"/>
</g>
<path style="fill:#FFECD7;" d="M155.798,187.445l0.154-6.175c0,0-7.254-0.772-8.18,15.589l-2.624-7.254  c0,0-5.402,7.254-2.161,18.986l-1.39,1.081c0,0-7.101-9.416-11.422-21.61c0,0-7.254,5.711,1.235,21.919l-10.496-13.274  c0,0-5.249,11.113,10.496,24.388L116.591,210.6c0,0-0.926,12.039,13.429,19.757l-14.355-7.718c0,0,0.464,11.577,17.133,17.288  l-15.744-2.933c0,0,3.986,9.465,15.629,12.018c-2.444,2.729-4.704,6.397-5.287,11.134l11.731-6.483c0,0-5.557,5.711-4.013,13.584  l18.06-18.06l-2.468-1.103c13.663-2.563,10.803-3.528,10.803-3.528s-10.085-25.932-3.293-43.837s12.76-20.374,12.76-21.198  C170.976,178.698,163.671,177.72,155.798,187.445z"/>
<path style="fill:#FFE15A;" d="M169.742,197.838c0,0,23.462,24.697,23.873,26.96c0.411,2.264-2.469,1.852-2.469,1.852  s-5.762-7.409-13.584-10.291c-7.82-2.882-12.965-11.937-16.053-13.995C158.422,200.308,169.742,197.838,169.742,197.838z"/>
<path style="fill:#FFF5E1;" d="M161.921,203.807c3.087,1.028,10.085-0.411,9.879-6.792c-0.206-6.38-6.586-8.85-11.319-7.409  c-4.734,1.441-13.584,8.027-8.027,20.787s13.789,17.494,15.436,28.401c0,0-7.409,1.132-11.319,0.206  c-3.36-0.796-9.055-3.499-7.82-10.908c1.235-7.409,4.116-11.731,1.646-15.847c-2.469-4.116-10.29-11.319-10.29-11.319  s-16.877,43.219,13.583,54.539c0,0-14.406,13.789-21.61,27.166l4.323,1.235c0,0-7.614,8.233-11.937,11.319  c0,0,14.201,4.939,28.196-11.113c0,0,3.499,5.762,4.323,11.937h5.968c0,0,2.058-9.879,11.526-18.111  c9.467-8.233,19.075-19.971,18.111-30.665c-1.132-12.554-10.586-18.203-20.427-25.983  C158.886,210.752,161.921,203.807,161.921,203.807z"/>
<g>
	<path style="fill:#FFE15A;" d="M314.887,255.053c1.03,0.206,2.469,2.882,2.882,7.409c0.411,4.527,3.293,23.669,9.467,21.61   c6.175-2.058,10.29-11.113,10.29-11.113l8.644,12.554c0,0-5.762-2.264-11.731,0.411c-5.968,2.676-7.409,4.116-9.055,2.469   c-1.647-1.647-5.557-6.586-8.644-6.175l-3.499-24.902L314.887,255.053z"/>
	<path style="fill:#FFE15A;" d="M349.051,296.008c0,0,1.441,11.937,0.617,13.378c-0.824,1.441-23.462,6.792-23.462,6.792   s6.586,5.351,6.792,8.233c0,0,8.027,1.441,10.908,3.91l10.702-17.699l0.411-14.612h-5.968V296.008z"/>
</g>
<path style="fill:#FFECD7;" d="M356.203,187.445l-0.155-6.175c0,0,7.254-0.772,8.18,15.589l2.624-7.254  c0,0,5.402,7.254,2.161,18.986l1.39,1.081c0,0,7.101-9.416,11.422-21.61c0,0,7.254,5.711-1.235,21.919l10.496-13.274  c0,0,5.249,11.113-10.496,24.388l14.818-10.496c0,0,0.926,12.039-13.429,19.757l14.355-7.718c0,0-0.464,11.577-17.133,17.288  l15.744-2.933c0,0-3.986,9.465-15.629,12.018c2.444,2.729,4.702,6.397,5.287,11.134l-11.731-6.483c0,0,5.557,5.711,4.013,13.584  l-18.06-18.06l2.468-1.103c-13.663-2.563-10.803-3.528-10.803-3.528s10.085-25.932,3.293-43.837s-12.76-20.374-12.76-21.198  C341.025,178.698,348.331,177.72,356.203,187.445z"/>
<path style="fill:#FFE15A;" d="M342.259,197.838c0,0-23.462,24.697-23.873,26.96c-0.411,2.264,2.469,1.852,2.469,1.852  s5.762-7.409,13.584-10.291c7.82-2.882,12.966-11.937,16.053-13.995C353.579,200.308,342.259,197.838,342.259,197.838z"/>
<path style="fill:#FFF5E1;" d="M350.08,203.807c-3.087,1.028-10.085-0.411-9.879-6.792c0.206-6.38,6.586-8.85,11.319-7.409  c4.734,1.441,13.584,8.027,8.027,20.787s-13.789,17.494-15.436,28.401c0,0,7.409,1.132,11.319,0.206  c3.36-0.796,9.055-3.499,7.82-10.908c-1.235-7.409-4.116-11.731-1.647-15.847s10.29-11.319,10.29-11.319  s16.877,43.219-13.583,54.539c0,0,14.406,13.789,21.609,27.166l-4.321,1.235c0,0,7.615,8.233,11.937,11.319  c0,0-14.201,4.939-28.196-11.113c0,0-3.499,5.762-4.321,11.937h-5.968c0,0-2.058-9.879-11.526-18.111  c-9.467-8.233-19.075-19.971-18.111-30.665c1.132-12.554,10.586-18.203,20.427-25.983  C353.116,210.752,350.08,203.807,350.08,203.807z"/>
<rect x="196.71" y="162.03" style="fill:#464655;" width="118.54" height="23.868"/>
<path style="fill:#41479B;" d="M255.975,180.962h-59.273c0,0,0,64.211,0,79.03c0,14.819,9.879,54.333,59.273,69.151  c49.394-14.818,59.273-54.333,59.273-69.151c0-14.818,0-79.03,0-79.03H255.975L255.975,180.962z"/>
<path style="fill:#FF4B55;" d="M196.703,259.992c0,3.672,0.614,8.865,2.277,14.818h113.991c1.663-5.953,2.277-11.146,2.277-14.818  v-29.636H196.703V259.992L196.703,259.992z"/>
<g>
	<polygon style="fill:#F5F5F5;" points="255.975,252.583 249.06,269.871 255.975,266.413 262.89,269.871  "/>
	<polygon style="fill:#F5F5F5;" points="255.975,252.583 262.89,235.295 255.975,238.753 249.06,235.295  "/>
	<polygon style="fill:#F5F5F5;" points="255.975,252.583 238.688,245.668 242.144,252.583 238.688,259.498  "/>
	<polygon style="fill:#F5F5F5;" points="255.975,252.583 273.263,259.498 269.805,252.583 273.263,245.668  "/>
</g>
<g>
	<path style="fill:#FFE15A;" d="M263.741,198.427c-1.153,0.185-2.167,0.332-3.083,0.814c1.041-2.601,1.773-5.039,1.127-6.747   c-1.578-4.178-4.612-3.43-5.781-6.476v-0.116c-0.009,0.022-0.02,0.035-0.029,0.057c-0.009-0.022-0.021-0.035-0.029-0.057v0.116   c-1.168,3.047-4.203,2.298-5.781,6.476c-0.646,1.708,0.087,4.146,1.128,6.747c-0.916-0.481-1.931-0.629-3.084-0.814   c-2.354-0.376-5.933,2.072-5.18,6.781c0.754,4.709,6.216,5.086,6.216,5.086c-0.754-0.754-1.412-1.978-1.036-3.297   c0.376-1.318,3.108-2.448,4.52,1.978s-3.39,10.736-3.39,10.736c1.645-0.087,2.844-0.599,3.711-1.118   c-1.14,3.716,2.589,6.593,2.895,6.819v0.044l0.029-0.022c0.004,0.002,0.029,0.022,0.029,0.022v-0.044   c0.305-0.225,4.034-3.102,2.894-6.818c0.867,0.52,2.068,1.031,3.711,1.117c0,0-4.802-6.31-3.39-10.736s4.144-3.297,4.52-1.978   c0.376,1.318-0.282,2.543-1.036,3.297c0,0,5.462-0.376,6.216-5.086C269.673,200.499,266.095,198.049,263.741,198.427z"/>
	<path style="fill:#FFE15A;" d="M300.087,198.427c-1.153,0.185-2.167,0.332-3.083,0.814c1.04-2.601,1.773-5.039,1.128-6.747   c-1.578-4.178-4.612-3.43-5.781-6.476v-0.116c-0.008,0.022-0.02,0.035-0.029,0.057c-0.009-0.022-0.021-0.035-0.029-0.057v0.116   c-1.168,3.047-4.203,2.298-5.781,6.476c-0.646,1.708,0.087,4.146,1.128,6.747c-0.916-0.481-1.931-0.629-3.084-0.814   c-2.354-0.376-5.933,2.072-5.18,6.781c0.754,4.709,6.216,5.086,6.216,5.086c-0.754-0.754-1.412-1.978-1.036-3.297   c0.376-1.318,3.108-2.448,4.52,1.978s-3.39,10.736-3.39,10.736c1.645-0.087,2.844-0.599,3.711-1.118   c-1.14,3.716,2.589,6.593,2.894,6.819v0.044l0.029-0.022c0.004,0.002,0.029,0.022,0.029,0.022v-0.044   c0.305-0.225,4.035-3.102,2.894-6.818c0.867,0.52,2.068,1.031,3.711,1.117c0,0-4.802-6.31-3.39-10.736   c1.412-4.426,4.144-3.297,4.52-1.978c0.376,1.318-0.282,2.543-1.036,3.297c0,0,5.462-0.376,6.216-5.086   C306.019,200.499,302.442,198.049,300.087,198.427z"/>
	<path style="fill:#FFE15A;" d="M227.395,198.427c-1.153,0.185-2.167,0.332-3.083,0.814c1.041-2.601,1.773-5.039,1.127-6.747   c-1.578-4.178-4.612-3.43-5.781-6.476v-0.116c-0.009,0.022-0.02,0.035-0.029,0.057c-0.007-0.022-0.021-0.035-0.029-0.057v0.116   c-1.168,3.047-4.203,2.298-5.781,6.476c-0.646,1.708,0.087,4.146,1.128,6.747c-0.916-0.481-1.931-0.629-3.084-0.814   c-2.354-0.376-5.933,2.072-5.18,6.781c0.754,4.709,6.216,5.086,6.216,5.086c-0.754-0.754-1.412-1.978-1.036-3.297   c0.376-1.318,3.108-2.448,4.52,1.978s-3.39,10.736-3.39,10.736c1.645-0.087,2.844-0.599,3.711-1.118   c-1.14,3.716,2.589,6.593,2.894,6.819v0.044l0.029-0.022c0.004,0.002,0.029,0.022,0.029,0.022v-0.044   c0.305-0.225,4.034-3.102,2.894-6.818c0.867,0.52,2.068,1.031,3.711,1.117c0,0-4.802-6.31-3.39-10.736   c1.412-4.426,4.144-3.297,4.52-1.978c0.376,1.318-0.282,2.543-1.036,3.297c0,0,5.462-0.376,6.216-5.086   C233.327,200.499,229.749,198.049,227.395,198.427z"/>
	<path style="fill:#FFE15A;" d="M267.569,300.198c0,0-2.641-0.415-2.852,2.247c0,0,0,0.305-0.013,0.727   c-0.326-0.155-0.682-0.255-1.067-0.255c-1.396,0-2.527,1.131-2.527,2.527s1.131,2.527,2.527,2.527c0.111,0,0.205-0.05,0.312-0.064   c-0.376,1.203-0.975,2.302-1.813,3.094h-3.374c-0.887-0.982-1.157-2.905-1.215-4.298c0.055,0.004,0.096,0.041,0.151,0.041   c1.145,0,2.073-0.928,2.073-2.073c0-1.131-0.909-2.043-2.033-2.066c0.179-0.306,0.31-0.644,0.31-1.025   c0-1.145-0.928-2.073-2.073-2.073s-2.073,0.928-2.073,2.073c0,0.381,0.13,0.717,0.31,1.025c-1.126,0.022-2.033,0.935-2.033,2.066   c0,1.145,0.928,2.073,2.073,2.073c0.056,0,0.097-0.037,0.151-0.041c-0.057,1.393-0.327,3.315-1.215,4.298h-3.374   c-0.84-0.792-1.438-1.889-1.813-3.094c0.107,0.014,0.201,0.064,0.312,0.064c1.396,0,2.527-1.132,2.527-2.527   c0-1.396-1.132-2.527-2.527-2.527c-0.385,0-0.74,0.101-1.067,0.255c-0.014-0.422-0.014-0.727-0.014-0.727   c-0.21-2.66-2.852-2.247-2.852-2.247c1.642,5.011,1.21,10.803,1.21,10.803v5.095h20.737v-5.084l0.03-0.011   C266.359,311.001,265.926,305.21,267.569,300.198z"/>
	<path style="fill:#FFE15A;" d="M243.334,280.441c0,0-2.641-0.415-2.852,2.247c0,0,0,0.305-0.014,0.727   c-0.326-0.155-0.682-0.255-1.067-0.255c-1.396,0-2.527,1.132-2.527,2.527c0,1.395,1.132,2.527,2.527,2.527   c0.111,0,0.205-0.05,0.312-0.064c-0.376,1.203-0.973,2.302-1.813,3.094h-3.374c-0.887-0.982-1.157-2.905-1.215-4.298   c0.055,0.004,0.096,0.041,0.151,0.041c1.145,0,2.073-0.928,2.073-2.073c0-1.131-0.909-2.043-2.033-2.066   c0.179-0.306,0.31-0.644,0.31-1.025c0-1.145-0.928-2.073-2.073-2.073s-2.073,0.928-2.073,2.073c0,0.381,0.13,0.717,0.31,1.025   c-1.126,0.022-2.033,0.935-2.033,2.066c0,1.145,0.928,2.073,2.073,2.073c0.056,0,0.097-0.038,0.151-0.041   c-0.057,1.393-0.327,3.315-1.215,4.298h-3.374c-0.84-0.792-1.438-1.889-1.813-3.094c0.107,0.014,0.201,0.064,0.312,0.064   c1.396,0,2.527-1.132,2.527-2.527c0-1.395-1.132-2.527-2.527-2.527c-0.385,0-0.74,0.101-1.067,0.255   c-0.012-0.422-0.012-0.727-0.012-0.727c-0.21-2.661-2.852-2.247-2.852-2.247c1.642,5.011,1.21,10.803,1.21,10.803v5.095h20.737   v-5.084l0.03-0.011C242.124,291.244,241.693,285.452,243.334,280.441z"/>
	<path style="fill:#FFE15A;" d="M291.802,280.441c0,0-2.641-0.415-2.852,2.247c0,0,0,0.305-0.014,0.727   c-0.326-0.155-0.682-0.255-1.067-0.255c-1.396,0-2.527,1.132-2.527,2.527c0,1.395,1.131,2.527,2.527,2.527   c0.111,0,0.206-0.05,0.312-0.064c-0.376,1.203-0.973,2.302-1.813,3.094h-3.374c-0.887-0.982-1.157-2.905-1.215-4.298   c0.054,0.004,0.095,0.041,0.151,0.041c1.145,0,2.073-0.928,2.073-2.073c0-1.131-0.909-2.043-2.033-2.066   c0.179-0.306,0.31-0.644,0.31-1.025c0-1.145-0.928-2.073-2.074-2.073c-1.145,0-2.073,0.928-2.073,2.073   c0,0.381,0.13,0.717,0.31,1.025c-1.126,0.022-2.033,0.935-2.033,2.066c0,1.145,0.928,2.073,2.073,2.073   c0.055,0,0.097-0.038,0.151-0.041c-0.057,1.393-0.327,3.315-1.215,4.298h-3.374c-0.84-0.792-1.438-1.889-1.813-3.094   c0.107,0.014,0.201,0.064,0.312,0.064c1.396,0,2.527-1.132,2.527-2.527c0-1.395-1.131-2.527-2.527-2.527   c-0.385,0-0.74,0.101-1.067,0.255c-0.012-0.422-0.012-0.727-0.012-0.727c-0.21-2.661-2.852-2.247-2.852-2.247   c1.642,5.011,1.21,10.803,1.21,10.803v5.095h20.737v-5.084l0.03-0.011C290.592,291.244,290.16,285.452,291.802,280.441z"/>
	<path style="fill:#FFE15A;" d="M332.683,150.674c-2.843-1.128-5.705-2.192-8.583-3.19c-0.805,2.334-1.61,4.667-2.416,7.002   c-1.388-0.481-2.779-0.948-4.175-1.398c0.754-2.352,1.508-4.702,2.262-7.053c-2.894-0.934-5.803-1.802-8.725-2.604   c-0.651,2.382-1.301,4.764-1.952,7.146c-1.41-0.387-2.822-0.759-4.238-1.115c0.599-2.396,1.197-4.791,1.797-7.187   c-2.935-0.739-5.883-1.411-8.84-2.019c-0.988,4.837-1.977,9.677-2.967,14.516c1.832,0.377,3.659,0.78,5.482,1.21   c-0.376,1.602-0.752,3.205-1.128,4.809c-10.66-2.517-21.484-4.089-32.35-4.719c0.095-1.643,0.189-3.288,0.284-4.931   c1.858,0.107,3.715,0.242,5.571,0.404c0.425-4.92,0.851-9.841,1.277-14.762c-2.995-0.26-5.996-0.456-8.998-0.586   c-0.106,2.467-0.212,4.935-0.32,7.402c-1.447-0.062-2.895-0.11-4.345-0.141c0.054-2.469,0.106-4.939,0.16-7.407   c-3.004-0.065-6.008-0.065-9.011,0c0.054,2.468,0.106,4.939,0.16,7.407c-1.448,0.031-2.897,0.079-4.345,0.141   c-0.106-2.467-0.212-4.935-0.319-7.402c-3.002,0.13-6.002,0.325-8.998,0.586c0.425,4.921,0.851,9.842,1.277,14.762   c1.856-0.161,3.713-0.296,5.571-0.404c0.095,1.645,0.19,3.288,0.284,4.931c-10.867,0.629-21.692,2.201-32.351,4.719   c-0.376-1.603-0.752-3.205-1.128-4.809c1.823-0.431,3.65-0.834,5.482-1.21c-0.988-4.839-1.978-9.677-2.967-14.516   c-2.958,0.607-5.905,1.281-8.84,2.019c0.599,2.396,1.197,4.791,1.797,7.187c-1.416,0.356-2.828,0.727-4.238,1.115   c-0.651-2.382-1.301-4.764-1.952-7.146c-2.923,0.804-5.832,1.672-8.725,2.604c0.754,2.352,1.507,4.702,2.262,7.053   c-1.396,0.45-2.788,0.917-4.175,1.398c-0.805-2.334-1.61-4.667-2.416-7.002c-2.878,0.998-5.74,2.063-8.583,3.19   c1.813,4.592,3.625,9.185,5.439,13.777c1.761-0.699,3.529-1.372,5.305-2.017c2.237,6.192,4.475,12.382,6.712,18.575   c4.785-1.741,9.627-3.262,14.512-4.565c1.628-0.434,3.262-0.847,4.899-1.232c9.825-2.319,19.802-3.77,29.818-4.349   c6.677-0.386,13.371-0.385,20.048,0c10.016,0.579,19.993,2.029,29.818,4.349c1.637,0.387,3.27,0.797,4.899,1.232   c4.885,1.305,9.727,2.827,14.512,4.565c2.237-6.193,4.475-12.383,6.712-18.575c1.776,0.645,3.544,1.318,5.305,2.017   C329.058,159.86,330.87,155.266,332.683,150.674z"/>
</g>
<path style="fill:#FFE1CD;" d="M255.975,385.946c29.466,0,56.747-9.461,79.03-25.463v-32.327  c-20.162,20.414-48.138,33.093-79.03,33.093c-31.319,0-59.632-13.043-79.853-33.957v32.605  C198.554,376.258,226.147,385.946,255.975,385.946z"/>
<g>
</g>
<g>
</g>
<g>
</g>
<g>
</g>
<g>
</g>
<g>
</g>
<g>
</g>
<g>
</g>
<g>
</g>
<g>
</g>
<g>
</g>
<g>
</g>
<g>
</g>
<g>
</g>
<g>
</g>
</svg>
