<?xml version="1.0" encoding="iso-8859-1"?>
<!-- Generator: Adobe Illustrator 19.0.0, SVG Export Plug-In . SVG Version: 6.00 Build 0)  -->
<svg xmlns="http://www.w3.org/2000/svg" xmlns:xlink="http://www.w3.org/1999/xlink" version="1.1" id="Layer_1" x="0px" y="0px" viewBox="0 0 512.002 512.002" style="enable-background:new 0 0 512.002 512.002;" xml:space="preserve">
<path style="fill:#FFE15A;" d="M482.451,366.319l-0.008-42.41l-0.005-27.164l-0.014-81.491l-0.005-27.164l-0.008-42.486  c0-3.105-0.422-6.147-1.202-9.07c-0.42-1.572-0.948-3.107-1.577-4.598c-2.568-6.091-6.814-11.419-12.362-15.28  c-0.812-0.565-1.642-1.11-2.509-1.611l-23.71-13.684l-22.198-12.81l-17.87-10.313l-68.335-39.437l0,0l-26.659-15.386l-19.995-11.539  l-12.39-7.151c-10.918-6.301-24.37-6.3-35.287,0.006l-12.307,7.108l-19.995,11.548l-26.659,15.398l0,0l-68.33,39.466L81.079,95.547  l-22.191,12.818l-11.697,6.756c-0.841,0.486-1.648,1.015-2.439,1.561c-3.392,2.349-6.296,5.254-8.638,8.538  c-1.572,2.206-2.883,4.585-3.911,7.092c-1.715,4.179-2.652,8.706-2.651,13.371l0.007,42.41l0.005,27.164l0.014,81.478v0.014v0.005  l0.005,27.159l0.007,42.478v0.006c0.003,11.607,5.715,22.388,15.14,28.946c0.812,0.565,1.642,1.11,2.509,1.61l23.377,13.491  l22.198,12.812l18.204,10.506l94.999,54.826l19.995,11.539l12.39,7.151c10.918,6.302,24.37,6.298,35.287-0.006l12.307-7.108  l19.995-11.548l26.659-15.397l0,0l57.587-33.261l10.742-6.205l27.325-15.782l22.191-12.818l14.319-8.27  c0.841-0.486,1.648-1.015,2.439-1.561C476.716,388.766,482.452,377.956,482.451,366.319L482.451,366.319L482.451,366.319z"/>
<g>
	<path style="fill:#73AF00;" d="M481.213,136.537c-0.42-1.572-0.949-3.107-1.577-4.597c-2.568-6.091-6.814-11.419-12.362-15.28   c-0.812-0.565-1.642-1.11-2.509-1.611l-23.71-13.684l-22.198-12.81l-17.87-10.313l-68.339-39.441l-15.574-8.989l-11.084-6.397   l-19.995-11.539l-12.39-7.151c-10.918-6.302-24.37-6.3-35.287,0.006l-12.307,7.108l-19.995,11.548l-11.124,6.426l-15.536,8.973l0,0   l-68.33,39.464L81.718,95.179l3.08,34.607l31.901,7.169h364.61C481.274,136.816,481.249,136.675,481.213,136.537z"/>
	<path style="fill:#73AF00;" d="M116.7,375.047l-29.402,9.669l-5.595,32.126l11.111,6.412l18.204,10.506l83.915,48.429l11.084,6.397   l19.995,11.539l12.39,7.151c10.92,6.302,24.37,6.298,35.287-0.006l12.307-7.108l19.995-11.548l11.124-6.426l15.534-8.973   l57.587-33.261l10.742-6.205l27.325-15.782l22.191-12.818l14.319-8.27c0.841-0.486,1.648-1.013,2.439-1.562   c7.038-4.874,12.009-12.103,14.097-20.273H116.7V375.047z"/>
</g>
<path style="fill:#FF4B55;" d="M116.7,136.955L81.718,95.179l-0.639,0.369l-22.191,12.818l-11.697,6.756  c-0.841,0.486-1.648,1.015-2.439,1.561c-3.392,2.349-6.296,5.254-8.638,8.538c-1.572,2.206-2.883,4.585-3.911,7.092  c-0.619,1.506-1.131,3.058-1.54,4.644c-0.725,2.815-1.112,5.743-1.111,8.728l0.007,42.41l0.005,27.164l0.014,81.478v0.014v0.005  l0.005,27.159l0.007,42.478v0.006c0,2.957,0.376,5.858,1.085,8.651c2.073,8.172,7.032,15.407,14.055,20.294  c0.812,0.565,1.642,1.11,2.509,1.611l23.377,13.491l11.087,6.4l34.997-41.795l99.684-119.046L116.7,136.955z"/>
<g>
	<path style="fill:#464655;" d="M284.869,212.784l9.721,29.147l30.725,0.239c3.978,0.031,5.627,5.107,2.427,7.47l-24.717,18.253   l9.267,29.294c1.2,3.793-3.118,6.931-6.355,4.617l-24.997-17.868l-24.997,17.868c-3.237,2.313-7.554-0.825-6.355-4.617   l9.267-29.294l-24.717-18.253c-3.2-2.363-1.551-7.439,2.427-7.47l30.725-0.239l9.721-29.147   C278.272,209.01,283.609,209.01,284.869,212.784z"/>
	<path style="fill:#464655;" d="M426.706,212.784l9.721,29.147l30.725,0.239c3.978,0.031,5.627,5.107,2.427,7.47l-24.717,18.253   l9.267,29.294c1.2,3.793-3.118,6.931-6.354,4.617l-24.997-17.868l-24.997,17.868c-3.237,2.313-7.554-0.825-6.355-4.617   l9.267-29.294l-24.717-18.253c-3.2-2.363-1.551-7.439,2.427-7.47l30.725-0.239l9.721-29.147   C420.109,209.01,425.448,209.01,426.706,212.784z"/>
</g>
<g>
</g>
<g>
</g>
<g>
</g>
<g>
</g>
<g>
</g>
<g>
</g>
<g>
</g>
<g>
</g>
<g>
</g>
<g>
</g>
<g>
</g>
<g>
</g>
<g>
</g>
<g>
</g>
<g>
</g>
</svg>
