<?xml version="1.0" encoding="iso-8859-1"?>
<!-- Generator: Adobe Illustrator 19.0.0, SVG Export Plug-In . SVG Version: 6.00 Build 0)  -->
<svg xmlns="http://www.w3.org/2000/svg" xmlns:xlink="http://www.w3.org/1999/xlink" version="1.1" id="Layer_1" x="0px" y="0px" viewBox="0 0 512.002 512.002" style="enable-background:new 0 0 512.002 512.002;" xml:space="preserve">
<path style="fill:#F5F5F5;" d="M29.589,366.395l-0.036-220.713c-0.003-12.607,6.722-24.257,17.639-30.563L238.316,4.731  c10.917-6.306,24.368-6.307,35.287-0.006L464.764,115.05c10.918,6.302,17.646,17.95,17.649,30.557l0.036,220.713  c0.003,12.607-6.722,24.257-17.639,30.563L273.685,507.271c-10.917,6.306-24.368,6.307-35.287,0.006L47.238,396.952  C36.319,390.65,29.592,379.002,29.589,366.395z"/>
<g>
	<path style="fill:#41479B;" d="M482.413,145.606c-0.003-12.607-6.729-24.255-17.649-30.557L273.602,4.726   c-10.918-6.302-24.37-6.3-35.287,0.006L47.191,115.119c-10.917,6.305-17.64,17.955-17.639,30.562l0.004,24.078h452.861   L482.413,145.606z"/>
	<path style="fill:#41479B;" d="M29.589,366.395c0.003,12.607,6.729,24.255,17.649,30.557l191.161,110.325   c10.918,6.302,24.37,6.3,35.287-0.005l191.125-110.389c10.917-6.306,17.64-17.955,17.639-30.563l-0.004-24.078H29.585   L29.589,366.395z"/>
</g>
<g>
	<path style="fill:#50AF69;" d="M201.66,239.014c0.326-1.148,0.686-2.286,1.085-3.41c-1.102,0.556-1.857,0.784-1.857,0.784   c-0.572-0.559-1.025-1.168-1.391-1.806c-0.512,1.456-0.976,2.929-1.375,4.421c0.386,0.519,0.547,0.898,0.547,0.898   C199.566,239.403,200.709,239.148,201.66,239.014z"/>
	<path style="fill:#50AF69;" d="M196.588,256.183c0.799-0.835,1.938-1.492,2.919-1.957c0.004-1.328,0.064-2.653,0.16-3.971   c-0.579,0.444-1.19,0.88-1.868,1.29c0.01,0.003,0.037,0.011,0.037,0.011l-0.09,0.023c0.019-0.011,0.034-0.024,0.053-0.034   c-0.1-0.03-0.735-0.227-1.582-0.68c-0.069,1.165-0.116,2.332-0.116,3.504c0,0.46,0.025,0.915,0.035,1.372   C196.43,255.997,196.588,256.183,196.588,256.183z"/>
	<path style="fill:#50AF69;" d="M212.325,290.046c-1.318-1.598-2.539-3.279-3.678-5.019c-0.374,1.066-0.842,2.152-1.433,3.245   c0.012-0.003,0.049-0.006,0.049-0.006l-0.081,0.075c0.012-0.023,0.021-0.045,0.034-0.068c-0.05,0.008-0.207,0.029-0.449,0.049   c1.017,1.461,2.094,2.878,3.235,4.24c0.913,0.057,1.483,0.212,1.483,0.212C211.586,291.85,211.92,290.904,212.325,290.046z"/>
	<path style="fill:#50AF69;" d="M202.386,272.086c-0.522-1.567-0.976-3.164-1.361-4.789c-0.447,0.617-0.925,1.236-1.472,1.849   c0.011-0.001,0.045,0,0.045,0l-0.091,0.054c0.016-0.019,0.029-0.036,0.045-0.054c-0.107,0.001-0.727-0.001-1.628-0.15   c0.396,1.565,0.866,3.099,1.385,4.612c0.671,0.365,1.048,0.675,1.048,0.675C200.855,273.443,201.623,272.692,202.386,272.086z"/>
	<path style="fill:#50AF69;" d="M207.117,226.139c0.625-1.075,1.295-2.124,1.992-3.159c-1.471,0.404-2.464,0.467-2.464,0.467   c-0.352-0.552-0.605-1.122-0.807-1.696c-0.577,0.884-1.138,1.776-1.668,2.687l2.073-0.922L207.117,226.139z"/>
	<path style="fill:#50AF69;" d="M229.848,304.222c-1.721-0.895-3.392-1.873-5.002-2.935c0.024,0.814,0.02,1.645-0.042,2.508   c0.011-0.008,0.046-0.029,0.046-0.029l-0.049,0.112c0.003-0.029,0.001-0.055,0.003-0.084c-0.09,0.057-0.542,0.341-1.287,0.682   c1.621,1.043,3.295,2.011,5.019,2.897c0.993-0.37,1.66-0.456,1.66-0.456C229.934,306.072,229.846,305.133,229.848,304.222z"/>
	<path style="fill:#50AF69;" d="M252.045,312.903c-1.448-0.432-2.99-0.976-4.113-1.588c0.11,0.282,0.231,0.547,0.334,0.839   c0.007-0.012,0.034-0.049,0.034-0.049v0.134c-0.01-0.029-0.023-0.055-0.034-0.085c-0.062,0.095-0.38,0.555-0.95,1.193   c1.27,0.179,2.552,0.312,3.845,0.41C251.457,313.447,251.752,313.164,252.045,312.903z"/>
	<path style="fill:#50AF69;" d="M224.24,310.162c0,0,0.982,0.696,2.669,1.418c-2.83,2.209-3.704,4.393-3.704,4.393   c13.686,6.843,21.53,0.261,24.111-2.629c-6.679-0.942-13.001-2.998-18.781-5.971C227.376,307.805,225.774,308.624,224.24,310.162z"/>
	<path style="fill:#50AF69;" d="M245.255,306.124c-4.734-7.103-11.372-9.772-11.372-9.772c-0.744,1.27-1.111,3.013-1.273,4.782   c-0.672-0.485-1.385-0.934-2.161-1.311c0,0-0.596,2.111-0.601,4.4c5.029,2.616,10.497,4.491,16.267,5.485   C245.39,308.637,245.115,307.363,245.255,306.124z"/>
	<path style="fill:#50AF69;" d="M247.932,311.313c-0.476-0.26-0.881-0.53-1.165-0.811c-0.249-0.247-0.464-0.515-0.652-0.795   c-5.77-0.993-11.238-2.869-16.267-5.485c-0.003,0.911,0.086,1.849,0.347,2.696c0,0-0.666,0.086-1.66,0.456   c5.781,2.973,12.103,5.029,18.781,5.971c0.57-0.637,0.886-1.098,0.95-1.193C248.163,311.86,248.042,311.595,247.932,311.313z"/>
	<path style="fill:#50AF69;" d="M248.299,312.103c0,0-0.025,0.036-0.034,0.049c0.01,0.029,0.024,0.055,0.034,0.085V312.103z"/>
	<path style="fill:#50AF69;" d="M210,292.562c-1.135-0.071-2.813,0.013-4.722,0.77c0,0,0.574,0.945,1.732,2.172   c-3.194,0.827-4.729,2.348-4.729,2.348c8.986,10.716,17.959,8.122,21.237,6.624C218.431,301.202,213.871,297.183,210,292.562z"/>
	<path style="fill:#50AF69;" d="M215.634,288.783c-0.39-0.654-0.826-1.293-1.342-1.896c0,0-1.132,1.387-1.968,3.16   c3.582,4.344,7.807,8.133,12.52,11.241c-0.284-9.885-6.388-16.069-6.388-16.069C217.365,286.015,216.419,287.35,215.634,288.783z"/>
	<path style="fill:#50AF69;" d="M224.846,301.287c-4.714-3.108-8.939-6.897-12.52-11.241c-0.404,0.857-0.739,1.802-0.841,2.728   c0,0-0.57-0.155-1.483-0.212c3.87,4.621,8.431,8.64,13.516,11.915c0.745-0.341,1.197-0.624,1.287-0.682   C224.866,302.932,224.868,302.1,224.846,301.287z"/>
	<path style="fill:#50AF69;" d="M224.849,303.765c0,0-0.035,0.022-0.046,0.029c-0.003,0.027,0,0.055-0.003,0.084L224.849,303.765z"/>
	<path style="fill:#50AF69;" d="M195.053,272.445c0,0,0.121,0.99,0.617,2.426c-2.93-0.504-4.754,0.177-4.754,0.177   c3.779,13.443,13.599,13.456,15.849,13.275c-3.129-4.494-5.651-9.436-7.457-14.711   C198.408,273.121,196.966,272.532,195.053,272.445z"/>
	<path style="fill:#50AF69;" d="M208.341,279.83c-0.629,0-1.205-0.346-1.501-0.897c-0.296-0.555-0.262-1.227,0.085-1.748   l2.612-3.919c-0.295-1.622-0.654-2.603-0.654-2.603c-1.192,0.251-2.464,0.997-3.639,1.883c-0.077-0.682-0.2-1.368-0.4-2.054   c0,0-1.221,0.607-2.461,1.596c1.536,4.607,3.65,8.949,6.262,12.941c0.637-1.819,0.983-3.572,1.146-5.197h-1.451v-0.002H208.341z"/>
	<path style="fill:#50AF69;" d="M208.648,285.028c-2.612-3.993-4.726-8.335-6.262-12.941c-0.761,0.606-1.531,1.357-2.028,2.199   c0,0-0.377-0.311-1.048-0.675c1.806,5.275,4.328,10.217,7.457,14.711c0.242-0.02,0.399-0.041,0.449-0.049   C207.805,287.181,208.274,286.094,208.648,285.028z"/>
	<path style="fill:#50AF69;" d="M207.263,288.267c0,0-0.036,0.005-0.049,0.006c-0.012,0.022-0.021,0.045-0.034,0.067   L207.263,288.267z"/>
	<path style="fill:#50AF69;" d="M204.847,254.107c-1.073,0.122-2.287,0.575-3.459,1.157c0.086-0.601,0.135-1.212,0.111-1.831   c0,0-0.897,0.276-1.992,0.794c0,0.047-0.003,0.095-0.003,0.142c0,4.45,0.536,8.775,1.518,12.929   c3.168-4.375,3.94-8.714,4.085-11.173C205.012,255.467,204.926,254.792,204.847,254.107z"/>
	<path style="fill:#50AF69;" d="M187.916,255.701c0.274,10.436,6.862,12.774,10.007,13.296c-1.078-4.255-1.685-8.695-1.788-13.256   c-0.617-0.542-1.884-1.432-3.899-1.797c0,0-0.117,0.872-0.001,2.179C189.714,255.331,187.916,255.701,187.916,255.701z"/>
	<path style="fill:#50AF69;" d="M199.551,269.147c0.549-0.614,1.026-1.232,1.472-1.849c-0.982-4.154-1.518-8.479-1.518-12.929   c0-0.047,0.003-0.095,0.003-0.142c-0.982,0.465-2.122,1.122-2.919,1.957c0,0-0.16-0.185-0.452-0.442   c0.104,4.561,0.71,9.001,1.788,13.256C198.824,269.147,199.445,269.148,199.551,269.147z"/>
	<path style="fill:#50AF69;" d="M199.598,269.147c0,0-0.034-0.001-0.045,0c-0.016,0.017-0.029,0.036-0.045,0.054L199.598,269.147z"/>
	<path style="fill:#50AF69;" d="M204.356,245.069c0-1.565,0.034-3.179,0.114-4.86c-0.502,0.025-1.02,0.08-1.538,0.165   c0.229-0.482,0.426-0.981,0.567-1.507c0,0-0.807,0.001-1.841,0.147c-1.04,3.655-1.71,7.42-1.991,11.241   C201.846,248.584,203.348,246.726,204.356,245.069z"/>
	<path style="fill:#50AF69;" d="M195.597,236.898c0,0-0.325,0.701-0.565,1.828c-1.911-1.317-3.514-1.471-3.514-1.471   c-2.388,8.531,2.133,12.242,4.699,13.61c0.237-4.024,0.874-7.999,1.904-11.861C197.662,238.384,196.877,237.562,195.597,236.898z"/>
	<path style="fill:#50AF69;" d="M199.669,250.255c0.281-3.82,0.951-7.585,1.991-11.241c-0.951,0.134-2.093,0.389-2.99,0.889   c0,0-0.161-0.379-0.547-0.898c-1.031,3.861-1.667,7.837-1.904,11.861c0.847,0.452,1.482,0.65,1.582,0.68   C198.479,251.134,199.09,250.7,199.669,250.255z"/>
	<path style="fill:#50AF69;" d="M197.838,251.556c0,0-0.029-0.009-0.037-0.011c-0.019,0.011-0.034,0.022-0.053,0.034   L197.838,251.556z"/>
	<path style="fill:#50AF69;" d="M210.213,228.056l-2.624-0.497l-0.474-1.42c-0.839,1.443-1.613,2.92-2.318,4.43l2.574,1.608   C208.421,231.076,209.422,229.722,210.213,228.056z"/>
	<path style="fill:#50AF69;" d="M200.09,229.634c0.381-0.614,1.083-0.891,1.752-0.766c0.714-1.507,1.487-2.987,2.326-4.431   l-2.394,1.065l-2.588-1.879c0,0-2.386,6.267,0.311,10.961c0.321-0.911,0.66-1.814,1.025-2.709   C199.829,231.347,199.62,230.385,200.09,229.634z"/>
	<path style="fill:#50AF69;" d="M203.447,233.738c-0.244,0.619-0.481,1.24-0.702,1.866c0.559-0.282,1.205-0.651,1.897-1.12   L203.447,233.738z"/>
	<path style="fill:#50AF69;" d="M202.744,235.605c0.222-0.627,0.459-1.248,0.702-1.866l-2.817-1.76   c-0.045-0.027-0.069-0.074-0.11-0.105c-0.365,0.894-0.704,1.798-1.025,2.709c0.366,0.637,0.819,1.247,1.391,1.806   C200.887,236.388,201.642,236.16,202.744,235.605z"/>
	<path style="fill:#50AF69;" d="M202.436,229.093l2.362,1.477c0.705-1.51,1.48-2.987,2.318-4.43l-0.875-2.623l-2.073,0.922   c-0.839,1.445-1.612,2.923-2.326,4.431C202.047,228.907,202.249,228.975,202.436,229.093z"/>
	<path style="fill:#50AF69;" d="M212.71,218.188c-1.293,1.535-2.488,3.139-3.602,4.791c1.819-0.5,4.37-1.527,6.709-3.632   c0.17-0.809,0.357-1.623,0.571-2.447l-1.218-0.537l-0.397-4.243l-4.801,0.922l-2.096-2.417c0,0-3.914,5.837-2.041,11.123   c1.305-1.994,2.723-3.921,4.271-5.756L212.71,218.188z"/>
	<path style="fill:#50AF69;" d="M209.109,222.98c1.113-1.653,2.308-3.258,3.602-4.791l-2.603-2.194   c-1.547,1.836-2.967,3.763-4.271,5.756c0.204,0.574,0.455,1.143,0.807,1.696C206.644,223.447,207.638,223.385,209.109,222.98z"/>
	<path style="fill:#50AF69;" d="M304.821,288.341l-0.082-0.075c0,0,0.036,0.005,0.049,0.006c-0.591-1.092-1.06-2.179-1.433-3.245   c-1.138,1.74-2.359,3.42-3.678,5.019c0.404,0.857,0.739,1.802,0.841,2.728c0,0,0.57-0.155,1.483-0.212   c1.141-1.362,2.217-2.779,3.235-4.24c-0.242-0.02-0.399-0.041-0.449-0.049C304.8,288.296,304.809,288.318,304.821,288.341z"/>
	<path style="fill:#50AF69;" d="M302.894,222.98c0.697,1.035,1.367,2.083,1.992,3.159l0.875-2.623l2.073,0.922   c-0.529-0.911-1.09-1.803-1.667-2.687c-0.204,0.574-0.455,1.143-0.807,1.696C305.359,223.447,304.364,223.385,302.894,222.98z"/>
	<path style="fill:#50AF69;" d="M312.497,269.202l-0.091-0.054c0,0,0.034-0.001,0.045,0c-0.549-0.614-1.026-1.232-1.472-1.849   c-0.385,1.625-0.839,3.222-1.361,4.789c0.761,0.606,1.531,1.357,2.028,2.199c0,0,0.377-0.311,1.048-0.675   c0.517-1.513,0.987-3.048,1.385-4.612c-0.901,0.15-1.521,0.151-1.627,0.15C312.467,269.166,312.479,269.183,312.497,269.202z"/>
	<path style="fill:#50AF69;" d="M309.258,235.605c0.399,1.123,0.759,2.262,1.085,3.41c0.951,0.134,2.093,0.389,2.99,0.889   c0,0,0.161-0.379,0.547-0.898c-0.399-1.492-0.862-2.965-1.375-4.421c-0.366,0.637-0.819,1.247-1.391,1.806   C311.115,236.388,310.361,236.16,309.258,235.605z"/>
	<path style="fill:#50AF69;" d="M314.255,251.578l-0.09-0.023c0,0,0.029-0.009,0.037-0.011c-0.68-0.41-1.29-0.845-1.868-1.29   c0.097,1.318,0.157,2.643,0.16,3.971c0.982,0.465,2.122,1.122,2.919,1.957c0,0,0.16-0.185,0.452-0.442   c0.01-0.457,0.035-0.912,0.035-1.372c0-1.172-0.047-2.339-0.116-3.504c-0.847,0.452-1.482,0.65-1.582,0.68   C314.221,251.556,314.236,251.567,314.255,251.578z"/>
	<path style="fill:#50AF69;" d="M287.202,303.879l-0.049-0.112c0,0,0.035,0.023,0.046,0.029c-0.062-0.863-0.065-1.693-0.042-2.508   c-1.611,1.062-3.282,2.041-5.002,2.935c0.003,0.911-0.086,1.849-0.347,2.696c0,0,0.666,0.086,1.661,0.456   c1.723-0.886,3.397-1.852,5.019-2.897c-0.745-0.341-1.197-0.624-1.287-0.682C287.201,303.823,287.2,303.85,287.202,303.879z"/>
	<path style="fill:#50AF69;" d="M263.704,312.236v-0.134c0,0,0.026,0.036,0.034,0.049c0.102-0.291,0.225-0.557,0.334-0.84   c-1.123,0.614-2.665,1.158-4.114,1.59c0.292,0.261,0.587,0.546,0.883,0.854c1.293-0.097,2.577-0.231,3.845-0.41   c-0.57-0.637-0.886-1.098-0.95-1.193C263.726,312.18,263.714,312.206,263.704,312.236z"/>
	<path style="fill:#50AF69;" d="M288.797,315.974c0,0-0.874-2.184-3.704-4.393c1.687-0.724,2.669-1.418,2.669-1.418   c-1.533-1.54-3.137-2.357-4.295-2.789c-5.781,2.973-12.103,5.029-18.781,5.971C267.267,316.235,275.111,322.817,288.797,315.974z"/>
	<path style="fill:#50AF69;" d="M281.553,299.824c-0.776,0.377-1.488,0.827-2.161,1.311c-0.162-1.77-0.53-3.513-1.273-4.782   c0,0-6.638,2.669-11.372,9.772c0.14,1.24-0.135,2.514-0.861,3.583c5.77-0.993,11.239-2.869,16.268-5.485   C282.149,301.934,281.553,299.824,281.553,299.824z"/>
	<path style="fill:#50AF69;" d="M282.155,304.222c-5.029,2.616-10.498,4.491-16.268,5.485c-0.189,0.279-0.402,0.545-0.65,0.791   c-0.284,0.281-0.689,0.552-1.165,0.812c-0.11,0.282-0.232,0.549-0.334,0.84c0.062,0.095,0.38,0.555,0.95,1.193   c6.679-0.942,13-2.998,18.781-5.971c-0.993-0.37-1.661-0.456-1.661-0.456C282.069,306.072,282.156,305.133,282.155,304.222z"/>
	<path style="fill:#50AF69;" d="M263.704,312.236c0.01-0.029,0.024-0.055,0.034-0.085c-0.007-0.013-0.034-0.049-0.034-0.049V312.236   z"/>
	<path style="fill:#50AF69;" d="M296.367,288.783c-0.785-1.432-1.731-2.768-2.822-3.565c0,0-6.105,6.186-6.388,16.069   c4.714-3.108,8.94-6.897,12.52-11.241c-0.835-1.772-1.968-3.16-1.968-3.16C297.193,287.49,296.757,288.128,296.367,288.783z"/>
	<path style="fill:#50AF69;" d="M288.486,304.477c3.278,1.497,12.25,4.091,21.237-6.624c0,0-1.535-1.522-4.729-2.348   c1.157-1.227,1.732-2.172,1.732-2.172c-1.911-0.757-3.588-0.841-4.722-0.77C298.132,297.183,293.572,301.202,288.486,304.477z"/>
	<path style="fill:#50AF69;" d="M299.678,290.046c-3.582,4.344-7.807,8.133-12.52,11.241c-0.024,0.814-0.02,1.645,0.042,2.508   c0.09,0.057,0.542,0.341,1.287,0.682c5.085-3.275,9.646-7.294,13.516-11.915c-0.913,0.057-1.483,0.212-1.483,0.212   C300.416,291.85,300.081,290.904,299.678,290.046z"/>
	<path style="fill:#50AF69;" d="M287.202,303.879c-0.003-0.029-0.001-0.055-0.003-0.084c-0.011-0.008-0.046-0.029-0.046-0.029   L287.202,303.879z"/>
	<path style="fill:#50AF69;" d="M321.087,275.047c0,0-1.824-0.681-4.755-0.177c0.496-1.436,0.617-2.426,0.617-2.426   c-1.913,0.089-3.357,0.677-4.256,1.166c-1.806,5.275-4.328,10.217-7.457,14.711C307.488,288.503,317.308,288.489,321.087,275.047z"/>
	<path style="fill:#50AF69;" d="M306.757,272.545c-1.175-0.886-2.447-1.632-3.639-1.883c0,0-0.359,0.981-0.654,2.603l2.612,3.919   c0.347,0.521,0.381,1.193,0.085,1.748c-0.296,0.551-0.872,0.897-1.501,0.897h-1.451c0.162,1.626,0.509,3.379,1.146,5.197   c2.612-3.993,4.726-8.335,6.262-12.941c-1.24-0.988-2.461-1.596-2.461-1.596C306.957,271.176,306.835,271.863,306.757,272.545z"/>
	<path style="fill:#50AF69;" d="M309.618,272.086c-1.536,4.607-3.65,8.949-6.262,12.941c0.374,1.066,0.842,2.152,1.433,3.245   c0.05,0.007,0.207,0.029,0.449,0.049c3.129-4.494,5.651-9.436,7.457-14.711c-0.671,0.365-1.048,0.675-1.048,0.675   C311.147,273.443,310.379,272.692,309.618,272.086z"/>
	<path style="fill:#50AF69;" d="M304.821,288.341c-0.012-0.022-0.021-0.045-0.034-0.067c-0.011-0.003-0.049-0.006-0.049-0.006   L304.821,288.341z"/>
	<path style="fill:#50AF69;" d="M310.615,255.263c-1.175-0.584-2.391-1.037-3.467-1.158c-0.077,0.669-0.161,1.326-0.256,1.968   c0.137,2.449,0.897,6.818,4.088,11.224c0.983-4.154,1.52-8.479,1.52-12.929c0-0.047-0.002-0.095-0.004-0.142   c-1.093-0.516-1.991-0.794-1.991-0.794C310.48,254.052,310.527,254.663,310.615,255.263z"/>
	<path style="fill:#50AF69;" d="M324.086,255.701c0,0-1.798-0.37-4.32,0.421c0.117-1.306-0.001-2.179-0.001-2.179   c-2.014,0.365-3.282,1.255-3.899,1.797c-0.104,4.561-0.71,9.001-1.788,13.256C317.224,268.475,323.812,266.137,324.086,255.701z"/>
	<path style="fill:#50AF69;" d="M315.413,256.183c-0.799-0.835-1.938-1.492-2.919-1.957c0,0.047,0.004,0.095,0.004,0.142   c0,4.45-0.536,8.775-1.52,12.929c0.447,0.617,0.925,1.236,1.472,1.849c0.107,0.001,0.727-0.001,1.627-0.15   c1.078-4.255,1.685-8.695,1.788-13.256C315.573,255.997,315.413,256.183,315.413,256.183z"/>
	<path style="fill:#50AF69;" d="M312.497,269.202c-0.016-0.019-0.029-0.036-0.045-0.054c-0.011-0.001-0.045,0-0.045,0   L312.497,269.202z"/>
	<path style="fill:#50AF69;" d="M320.483,237.254c0,0-1.605,0.154-3.514,1.471c-0.24-1.126-0.565-1.828-0.565-1.828   c-1.28,0.664-2.064,1.486-2.524,2.107c1.031,3.861,1.667,7.837,1.904,11.861C318.35,249.497,322.873,245.786,320.483,237.254z"/>
	<path style="fill:#50AF69;" d="M309.07,240.374c-0.517-0.085-1.035-0.139-1.536-0.165c0.08,1.681,0.114,3.297,0.112,4.861   c1.008,1.657,2.512,3.514,4.687,5.185c-0.281-3.82-0.951-7.585-1.991-11.241c-1.033-0.145-1.841-0.147-1.841-0.147   C308.644,239.393,308.841,239.891,309.07,240.374z"/>
	<path style="fill:#50AF69;" d="M310.344,239.014c1.04,3.655,1.71,7.42,1.991,11.241c0.579,0.444,1.19,0.88,1.868,1.29   c0.1-0.03,0.735-0.227,1.582-0.68c-0.237-4.024-0.874-7.999-1.904-11.861c-0.386,0.519-0.547,0.898-0.547,0.898   C312.437,239.403,311.295,239.148,310.344,239.014z"/>
	<path style="fill:#50AF69;" d="M314.255,251.578c-0.019-0.011-0.034-0.024-0.053-0.034c-0.009,0.003-0.037,0.011-0.037,0.011   L314.255,251.578z"/>
	<path style="fill:#50AF69;" d="M301.788,228.056c0.781,1.645,1.766,2.988,2.801,4.081l2.591-1.618   c-0.699-1.491-1.465-2.952-2.293-4.379l-0.474,1.42L301.788,228.056z"/>
	<path style="fill:#50AF69;" d="M309.258,235.605c-0.229-0.645-0.472-1.283-0.724-1.919l-1.223,0.765   C308.022,234.935,308.685,235.315,309.258,235.605z"/>
	<path style="fill:#50AF69;" d="M311.912,229.568c0.476,0.757,0.26,1.735-0.45,2.258c0.372,0.91,0.716,1.83,1.043,2.757   c2.697-4.694,0.311-10.961,0.311-10.961l-2.588,1.879l-2.394-1.065c0.828,1.427,1.592,2.888,2.298,4.375   C310.808,228.673,311.526,228.945,311.912,229.568z"/>
	<path style="fill:#50AF69;" d="M311.372,231.911l-2.837,1.773c0.251,0.636,0.495,1.275,0.724,1.919   c1.102,0.556,1.857,0.784,1.857,0.784c0.571-0.559,1.025-1.168,1.391-1.806c-0.326-0.927-0.671-1.847-1.043-2.757   C311.428,231.851,311.408,231.888,311.372,231.911z"/>
	<path style="fill:#50AF69;" d="M304.886,226.139c0.828,1.427,1.595,2.888,2.293,4.379l2.387-1.492   c0.179-0.111,0.371-0.174,0.565-0.214c-0.706-1.487-1.47-2.948-2.298-4.375l-2.073-0.922L304.886,226.139z"/>
	<path style="fill:#50AF69;" d="M302.894,222.98c-1.113-1.653-2.308-3.258-3.602-4.791l2.603-2.194   c1.547,1.836,2.967,3.763,4.271,5.756c1.873-5.286-2.041-11.123-2.041-11.123l-2.096,2.417l-4.801-0.922l-0.397,4.243l-1.203,0.531   c0.215,0.83,0.402,1.651,0.572,2.466C298.536,221.456,301.079,222.481,302.894,222.98z"/>
	<path style="fill:#50AF69;" d="M299.293,218.188c1.293,1.535,2.488,3.139,3.602,4.791c1.471,0.404,2.464,0.467,2.464,0.467   c0.352-0.552,0.605-1.122,0.807-1.696c-1.305-1.994-2.723-3.921-4.271-5.756L299.293,218.188z"/>
</g>
<g>
	<path style="fill:#41479B;" d="M258.244,286.022c0.384,1.348,0.307,3.144-0.181,4.29l-2.062,4.839l4.837-4.839   c1.146-1.146,1.323-2.942,0.425-4.29l-4.128-6.192h-0.651L258.244,286.022z"/>
	<path style="fill:#41479B;" d="M253.759,286.022l1.76-6.192h-0.651l-4.128,6.192c-0.898,1.348-0.721,3.144,0.425,4.29l4.837,4.839   l-2.062-4.839C253.452,289.165,253.375,287.371,253.759,286.022z"/>
</g>
<path style="fill:#F5F5F5;" d="M258.244,286.022l-1.76-6.192h-0.967l-1.76,6.192c-0.382,1.348-0.307,3.144,0.181,4.29l2.062,4.839  l2.062-4.839C258.551,289.165,258.626,287.371,258.244,286.022z"/>
<g>
	<path style="fill:#41479B;" d="M256.001,204.987v-13.666h-2.722c-2.141,4.805-4.657,12.723-4.13,22.529l5.436-8.154   C254.901,205.223,255.451,204.987,256.001,204.987z"/>
	<path style="fill:#41479B;" d="M215.818,219.349c-1.361,6.479-1.342,12.472-0.622,17.718l8.127,5.079   c-2.508-7.259-2.649-16.252,1.216-27.264l-5.117-6.579c-1.303,2.935-2.306,5.81-3.032,8.6l1.225,0.541   C217.044,218.161,216.438,218.791,215.818,219.349z"/>
	<path style="fill:#41479B;" d="M231.734,224.132c-1.485,6.052-1.445,11.481-0.292,16.278l5.978-8.968L231.734,224.132z"/>
	<path style="fill:#41479B;" d="M217.615,217.442l-1.225-0.541c-0.214,0.824-0.401,1.638-0.571,2.447   C216.438,218.791,217.044,218.161,217.615,217.442z"/>
</g>
<path style="fill:#F5F5F5;" d="M231.441,240.41c-1.152-4.797-1.192-10.226,0.292-16.278l-7.194-9.25  c-3.865,11.011-3.724,20.005-1.216,27.264l4.915,3.072L231.441,240.41z"/>
<g>
	<path style="fill:#FFE15A;" d="M224.922,213.771L224.922,213.771l0.161,0.192l13.334,15.983l0.992-1.488l-20.431-26.268   c-0.577-0.741-1.642-0.877-2.388-0.299c-0.741,0.575-0.876,1.646-0.297,2.387l3.129,4.024c0.11-0.246,0.207-0.491,0.321-0.739   L224.922,213.771z"/>
	<path style="fill:#FFE15A;" d="M224.922,213.771l-5.179-6.207c-0.114,0.247-0.211,0.492-0.321,0.739l5.117,6.579   C224.669,214.509,224.782,214.147,224.922,213.771z"/>
	<path style="fill:#FFE15A;" d="M231.734,224.132l5.686,7.311l0.997-1.496l-13.334-15.983l7.076,8.483   C231.995,223.017,231.871,223.572,231.734,224.132z"/>
	<polygon style="fill:#FFE15A;" points="224.922,213.771 224.922,213.771 225.083,213.963  "/>
	<path style="fill:#FFE15A;" d="M232.159,222.446l-7.076-8.483l-0.161-0.192c-0.14,0.376-0.252,0.739-0.382,1.111l7.194,9.25   C231.871,223.572,231.995,223.017,232.159,222.446z"/>
</g>
<g>
	<path style="fill:#41479B;" d="M247.316,281.27c-4.976,0.627-10.506,0.401-15.692-1.438h-14.179   c12.864,9.492,31.353,4.271,37.009,0h-13.179C243.256,280.531,245.285,280.998,247.316,281.27z"/>
	<path style="fill:#41479B;" d="M214.092,272.57l-1.616,2.424c0.069,0.087,0.137,0.172,0.206,0.257L214.092,272.57z"/>
	<path style="fill:#41479B;" d="M211.808,238.963l-6.931-4.331c-0.182,1.924-0.32,3.788-0.406,5.577   c0.677-0.034,1.325-0.01,1.881,0.122c0,0-0.395,2.109-1.994,4.737c0,3.254,0.171,6.261,0.491,9.038   c0.081-0.009,0.169-0.031,0.249-0.036c0,0,0.09,0.772,0.014,2.054c0.971,6.583,2.825,11.793,5.28,15.863l5.252-7.879   C213.018,257.908,211.533,249.702,211.808,238.963z"/>
	<path style="fill:#41479B;" d="M205.096,254.07c-0.08,0.005-0.166,0.027-0.249,0.036c0.079,0.685,0.165,1.36,0.262,2.018   C205.185,254.843,205.096,254.07,205.096,254.07z"/>
	<path style="fill:#41479B;" d="M204.47,240.209c-0.08,1.681-0.114,3.295-0.114,4.86c1.6-2.628,1.994-4.737,1.994-4.737   C205.796,240.199,205.149,240.175,204.47,240.209z"/>
	<path style="fill:#41479B;" d="M226.195,248.279c-0.101-0.166-0.194-0.339-0.292-0.507l-4.43-2.768   c0.131,3.258,0.442,6.25,0.915,8.986L226.195,248.279z"/>
	<path style="fill:#41479B;" d="M226.349,248.05l-0.445-0.277c0.099,0.169,0.191,0.341,0.292,0.507L226.349,248.05z"/>
</g>
<g>
	<path style="fill:#F5F5F5;" d="M247.316,281.27c-2.031-0.272-4.06-0.739-6.041-1.438h-9.651   C236.81,281.67,242.34,281.896,247.316,281.27z"/>
	<path style="fill:#F5F5F5;" d="M216.022,241.596l-4.214-2.633c-0.275,10.74,1.21,18.945,3.834,25.147l5.655-8.483   C219.731,252.786,217.449,247.91,216.022,241.596z"/>
	<path style="fill:#F5F5F5;" d="M222.389,253.99c-0.472-2.737-0.784-5.728-0.915-8.986l-5.452-3.408   c1.427,6.313,3.709,11.189,5.275,14.03L222.389,253.99z"/>
</g>
<g>
	<path style="fill:#FFE15A;" d="M205.201,234.092l6.644,3.796c0.021-0.602,0.031-1.188,0.064-1.807l3.452,2.071   c-0.057-0.36-0.115-0.719-0.165-1.086l-7.824-4.89C206.654,232.931,205.915,233.565,205.201,234.092z"/>
	<path style="fill:#FFE15A;" d="M230.208,248.454c0.026-0.042,0.027-0.09,0.05-0.132l-0.256,0.385   C230.076,248.628,230.149,248.549,230.208,248.454z"/>
	<path style="fill:#FFE15A;" d="M204.641,234.484l0.236,0.147c0.01-0.111,0.019-0.219,0.029-0.331   C204.817,234.364,204.729,234.425,204.641,234.484z"/>
	<path style="fill:#FFE15A;" d="M204.906,234.302c0.012-0.122,0.02-0.237,0.031-0.36l0.264,0.151   c0.712-0.526,1.452-1.16,2.171-1.913l-2.574-1.608c-0.486,1.041-0.93,2.101-1.351,3.169l1.193,0.746   C204.729,234.425,204.817,234.364,204.906,234.302z"/>
	<path style="fill:#FFE15A;" d="M200.09,229.634c-0.471,0.75-0.262,1.713,0.431,2.239c0.414-1.013,0.854-2.016,1.322-3.005   C201.175,228.743,200.471,229.02,200.09,229.634z"/>
	<path style="fill:#FFE15A;" d="M202.436,229.093c-0.187-0.117-0.389-0.186-0.594-0.224c-0.469,0.99-0.909,1.992-1.322,3.005   c0.041,0.031,0.065,0.076,0.11,0.105l2.817,1.76c0.421-1.068,0.865-2.128,1.351-3.169L202.436,229.093z"/>
	<path style="fill:#FFE15A;" d="M221.398,241.775c0.001,0.541,0.018,1.062,0.027,1.588l3.085,1.763   c-0.444-0.957-0.835-1.954-1.188-2.98l-8.127-5.079c0.05,0.367,0.107,0.726,0.165,1.086L221.398,241.775z"/>
	<path style="fill:#FFE15A;" d="M227.254,246.693l0.983-1.476l-4.915-3.072c0.354,1.025,0.745,2.023,1.188,2.98L227.254,246.693z"/>
	<path style="fill:#FFE15A;" d="M211.846,237.888l-6.644-3.796c-0.1,0.074-0.197,0.14-0.296,0.21   c-0.011,0.112-0.019,0.219-0.029,0.331l6.931,4.331C211.817,238.61,211.833,238.247,211.846,237.888z"/>
	<path style="fill:#FFE15A;" d="M204.937,233.94c-0.012,0.122-0.02,0.239-0.031,0.36c0.099-0.07,0.196-0.136,0.296-0.21   L204.937,233.94z"/>
	<path style="fill:#FFE15A;" d="M225.904,247.772c-0.497-0.855-0.968-1.731-1.392-2.647l-3.085-1.763   c0.011,0.554,0.026,1.102,0.047,1.642L225.904,247.772z"/>
	<path style="fill:#FFE15A;" d="M226.349,248.05l0.905-1.357l-2.742-1.567c0.424,0.915,0.895,1.792,1.392,2.647L226.349,248.05z"/>
	<path style="fill:#FFE15A;" d="M215.362,238.153l-3.452-2.071c-0.033,0.619-0.042,1.203-0.064,1.807l3.859,2.204   C215.579,239.46,215.466,238.812,215.362,238.153z"/>
	<path style="fill:#FFE15A;" d="M221.425,243.363c-0.011-0.526-0.026-1.047-0.027-1.588l-6.036-3.622   c0.105,0.66,0.219,1.307,0.342,1.941L221.425,243.363z"/>
	<path style="fill:#FFE15A;" d="M216.022,241.596c-0.111-0.492-0.217-0.993-0.317-1.503l-3.859-2.204   c-0.012,0.359-0.029,0.722-0.039,1.075L216.022,241.596z"/>
	<path style="fill:#FFE15A;" d="M216.022,241.596l5.452,3.408c-0.021-0.539-0.036-1.088-0.047-1.642l-5.721-3.269   C215.804,240.604,215.911,241.103,216.022,241.596z"/>
</g>
<g>
	<path style="fill:#41479B;" d="M288.679,242.079l8.127-5.079c0.717-5.225,0.737-11.189-0.606-17.639   c-0.625-0.561-1.236-1.195-1.812-1.919l1.24-0.547c-0.727-2.81-1.733-5.705-3.047-8.66l-5.117,6.579   C291.329,225.826,291.188,234.82,288.679,242.079z"/>
	<path style="fill:#41479B;" d="M280.269,224.066l-5.71,7.342l5.988,8.983C281.711,235.581,281.758,230.138,280.269,224.066z"/>
	<path style="fill:#41479B;" d="M296.2,219.362c-0.17-0.815-0.357-1.636-0.572-2.466l-1.24,0.547   C294.964,218.167,295.574,218.801,296.2,219.362z"/>
</g>
<path style="fill:#F5F5F5;" d="M280.548,240.39l3.187,4.78l4.945-3.09c2.508-7.259,2.649-16.252-1.215-27.264l-7.196,9.25  C281.758,230.138,281.711,235.581,280.548,240.39z"/>
<g>
	<path style="fill:#FFE15A;" d="M286.92,213.896l0.161-0.192l0,0l5.179-6.207c0.114,0.247,0.211,0.492,0.321,0.74l3.129-4.023   c0.579-0.742,0.444-1.812-0.297-2.387c-0.742-0.575-1.811-0.442-2.388,0.299l-20.454,26.299l0.991,1.486L286.92,213.896z"/>
	<path style="fill:#FFE15A;" d="M280.269,224.066c-0.137-0.561-0.261-1.116-0.425-1.687l7.077-8.483l-13.359,16.013l0.998,1.498   L280.269,224.066z"/>
	<path style="fill:#FFE15A;" d="M287.081,213.703c0.14,0.376,0.252,0.74,0.382,1.112l5.117-6.579   c-0.11-0.247-0.207-0.491-0.321-0.74L287.081,213.703z"/>
	<path style="fill:#FFE15A;" d="M287.081,213.703l-0.161,0.192L287.081,213.703z"/>
	<path style="fill:#FFE15A;" d="M280.269,224.066l7.196-9.25c-0.131-0.372-0.244-0.735-0.382-1.112l-0.161,0.192l-7.077,8.483   C280.008,222.951,280.132,223.505,280.269,224.066z"/>
</g>
<g>
	<path style="fill:#41479B;" d="M264.686,281.202c1.962-0.264,3.924-0.71,5.841-1.372h-12.891c5.746,4.248,24.036,9.349,36.827,0   h-14.292C275.044,281.604,269.597,281.821,264.686,281.202z"/>
	<path style="fill:#41479B;" d="M296.344,264.083l5.247,7.872c2.463-4.071,4.325-9.287,5.3-15.881   c-0.07-1.251,0.016-2.003,0.016-2.003c0.077,0.005,0.161,0.026,0.241,0.035c0.322-2.777,0.497-5.781,0.5-9.036   c-1.6-2.628-1.996-4.739-1.996-4.739c0.556-0.132,1.205-0.157,1.883-0.122c-0.085-1.81-0.224-3.695-0.409-5.643l-6.931,4.331   C300.47,249.66,298.979,257.876,296.344,264.083z"/>
	<path style="fill:#41479B;" d="M306.891,256.073c0.095-0.642,0.179-1.3,0.256-1.968c-0.079-0.009-0.164-0.03-0.241-0.035   C306.907,254.07,306.821,254.823,306.891,256.073z"/>
	<path style="fill:#41479B;" d="M305.651,240.331c0,0,0.395,2.111,1.996,4.739c0.001-1.565-0.032-3.18-0.112-4.861   C306.856,240.175,306.207,240.199,305.651,240.331z"/>
	<path style="fill:#41479B;" d="M286.098,247.705c-0.105,0.18-0.204,0.365-0.312,0.542l3.818,5.727   c0.479-2.752,0.792-5.76,0.925-9.038L286.098,247.705z"/>
	<path style="fill:#41479B;" d="M285.623,248.003l0.164,0.245c0.107-0.177,0.207-0.362,0.312-0.542L285.623,248.003z"/>
</g>
<g>
	<path style="fill:#F5F5F5;" d="M264.686,281.202c4.91,0.619,10.357,0.401,15.485-1.372h-9.644   C268.61,280.491,266.649,280.939,264.686,281.202z"/>
	<path style="fill:#F5F5F5;" d="M300.195,238.897l-4.214,2.634c-1.435,6.341-3.729,11.231-5.296,14.065l5.658,8.488   C298.979,257.876,300.47,249.66,300.195,238.897z"/>
	<path style="fill:#F5F5F5;" d="M295.98,241.531l-5.452,3.407c-0.132,3.279-0.446,6.287-0.925,9.038l1.081,1.621   C292.251,252.762,294.547,247.872,295.98,241.531z"/>
</g>
<g>
	<path style="fill:#FFE15A;" d="M307.311,234.449c-0.069-0.047-0.139-0.095-0.209-0.144c0.009,0.087,0.015,0.172,0.022,0.26   L307.311,234.449z"/>
	<path style="fill:#FFE15A;" d="M300.093,236.015c0.033,0.619,0.042,1.203,0.064,1.807l6.594-3.769   c-0.711-0.529-1.448-1.161-2.162-1.916l-7.783,4.864c-0.05,0.366-0.107,0.725-0.165,1.085L300.093,236.015z"/>
	<path style="fill:#FFE15A;" d="M311.912,229.568c-0.386-0.622-1.103-0.895-1.78-0.756c0.471,0.992,0.915,1.997,1.331,3.014   C312.173,231.304,312.388,230.325,311.912,229.568z"/>
	<path style="fill:#FFE15A;" d="M306.751,234.053l0.314-0.18c0.015,0.147,0.024,0.286,0.038,0.432   c0.07,0.05,0.139,0.097,0.209,0.144l1.223-0.765c-0.422-1.068-0.868-2.127-1.356-3.167l-2.591,1.618   C305.304,232.892,306.04,233.524,306.751,234.053z"/>
	<path style="fill:#FFE15A;" d="M311.372,231.911c0.038-0.023,0.056-0.06,0.091-0.085c-0.415-1.016-0.86-2.021-1.331-3.014   c-0.194,0.04-0.387,0.102-0.565,0.214l-2.387,1.492c0.487,1.04,0.932,2.099,1.356,3.167L311.372,231.911z"/>
	<path style="fill:#FFE15A;" d="M290.576,243.295c0.011-0.527,0.026-1.047,0.027-1.588l6.036-3.622   c0.057-0.36,0.115-0.717,0.165-1.085l-8.127,5.079c-0.354,1.025-0.745,2.023-1.188,2.979L290.576,243.295z"/>
	<path style="fill:#FFE15A;" d="M284.717,246.644l2.774-1.586c0.444-0.957,0.834-1.954,1.188-2.979l-4.945,3.09L284.717,246.644z"/>
	<path style="fill:#FFE15A;" d="M307.126,234.565c-0.009-0.087-0.014-0.172-0.023-0.26c-0.117-0.082-0.232-0.164-0.351-0.252   l-6.594,3.769c0.012,0.359,0.029,0.722,0.037,1.075L307.126,234.565z"/>
	<path style="fill:#FFE15A;" d="M307.064,233.873l-0.314,0.18c0.119,0.089,0.235,0.17,0.351,0.252   C307.088,234.159,307.079,234.02,307.064,233.873z"/>
	<path style="fill:#FFE15A;" d="M290.529,244.937c0.021-0.54,0.036-1.088,0.049-1.642l-3.085,1.763   c-0.425,0.915-0.895,1.793-1.393,2.647L290.529,244.937z"/>
	<path style="fill:#FFE15A;" d="M286.098,247.705c0.497-0.855,0.968-1.732,1.393-2.647l-2.774,1.586l0.906,1.358L286.098,247.705z"/>
	<path style="fill:#FFE15A;" d="M300.156,237.821c-0.021-0.602-0.031-1.188-0.064-1.807l-3.452,2.071   c-0.105,0.66-0.219,1.307-0.344,1.941L300.156,237.821z"/>
	<path style="fill:#FFE15A;" d="M296.641,238.084l-6.036,3.622c-0.001,0.541-0.017,1.061-0.027,1.588l5.721-3.269   C296.422,239.391,296.536,238.744,296.641,238.084z"/>
	<path style="fill:#FFE15A;" d="M295.98,241.531l4.214-2.634c-0.009-0.354-0.025-0.716-0.038-1.075l-3.859,2.204   C296.197,240.536,296.091,241.037,295.98,241.531z"/>
	<path style="fill:#FFE15A;" d="M295.98,241.531c0.111-0.494,0.217-0.995,0.317-1.505l-5.721,3.269   c-0.011,0.554-0.026,1.102-0.049,1.642L295.98,241.531z"/>
</g>
<path style="fill:#FFE6E6;" d="M249.193,237.277c0-3.76,3.048-6.808,6.808-6.808c3.76,0,6.808,3.048,6.808,6.808  c0,3.172-2.172,5.828-5.106,6.586v6.914c6.716-0.839,11.914-6.557,11.914-13.499c0-7.52-6.096-13.616-13.616-13.616  c-7.52,0-13.618,6.096-13.618,13.616c0,6.943,5.2,12.66,11.914,13.499v-6.914C251.365,243.105,249.193,240.449,249.193,237.277z"/>
<path style="fill:#F5F5F5;" d="M262.81,237.277c0-3.76-3.048-6.808-6.808-6.808c-3.76,0-6.808,3.048-6.808,6.808  c0,3.172,2.172,5.828,5.106,6.586v-2.391h-1.916c-0.397,0-0.719-0.321-0.719-0.719v-0.847c0-0.397,0.322-0.719,0.719-0.719h0.204  l0.745-3.122l-0.1-0.025c-0.497-0.126-0.714-0.712-0.417-1.132l1.196-1.686h2.558c0.829,0,1.548,0.569,1.741,1.375l1.095,4.59h0.109  c0.397,0,0.719,0.321,0.719,0.719v0.847c0,0.396-0.322,0.719-0.719,0.719h-1.808v2.391  C260.638,243.105,262.81,240.449,262.81,237.277z"/>
<g>
	<path style="fill:#FFE15A;" d="M257.703,250.906v-0.13c-0.559,0.07-1.125,0.117-1.702,0.117c-0.577,0-1.143-0.047-1.702-0.117   v0.569l0.757,0.252C255.855,251.093,256.777,250.862,257.703,250.906z"/>
	<path style="fill:#FFE15A;" d="M257.703,250.777v-6.914c-0.545,0.141-1.113,0.224-1.702,0.224c-0.589,0-1.157-0.082-1.702-0.224   v6.914c0.559,0.07,1.125,0.117,1.702,0.117C256.58,250.895,257.144,250.847,257.703,250.777z"/>
	<path style="fill:#FFE15A;" d="M254.299,241.472v2.391c0.545,0.141,1.113,0.224,1.702,0.224c0.589,0,1.157-0.082,1.702-0.224   v-2.391H254.299z"/>
</g>
<g>
	<path style="fill:#5AA0E6;" d="M299.502,274.958c-0.405,0.512-0.821,1.002-1.248,1.468h2.227L299.502,274.958z"/>
	<path style="fill:#5AA0E6;" d="M212.683,275.253l-0.617,1.173h1.622C213.346,276.05,213.011,275.658,212.683,275.253z"/>
	<path style="fill:#5AA0E6;" d="M282.49,261.39h-4.751l1.276,1.276h-5.39l1.418,1.418h-6.063l1.276,1.277h-6.596l2.553,2.553H235.44   l17.022,8.51h6.943l27.959-13.98c0.451-1.213,0.86-2.499,1.225-3.858l-0.659-0.987h-9.23L282.49,261.39z"/>
	<path style="fill:#5AA0E6;" d="M213.689,276.426h11.423c-2.865-2.061-5.456-4.844-7.58-8.51h-0.336l-3.103,4.655l-1.41,2.682   C213.011,275.658,213.346,276.05,213.689,276.426z"/>
	<path style="fill:#5AA0E6;" d="M234.738,276.426h17.725l-17.022-8.51h-8.285C229.278,271.584,231.871,274.366,234.738,276.426z"/>
	<path style="fill:#5AA0E6;" d="M225.112,276.426h9.626c-2.865-2.061-5.458-4.842-7.582-8.51h-9.624   C219.656,271.583,222.246,274.366,225.112,276.426z"/>
	<path style="fill:#5AA0E6;" d="M299.502,274.958l-4.896-7.344c-2.171,3.823-4.842,6.702-7.807,8.813h11.454   C298.681,275.96,299.097,275.469,299.502,274.958z"/>
	<path style="fill:#5AA0E6;" d="M287.365,262.446l-27.959,13.98h17.763C281.341,273.455,284.943,268.967,287.365,262.446z"/>
	<path style="fill:#5AA0E6;" d="M289.372,259.763l-0.782-1.173c-0.365,1.358-0.774,2.644-1.225,3.858l2.679-1.34L289.372,259.763z"/>
	<path style="fill:#5AA0E6;" d="M277.169,276.426h9.631c2.963-2.111,5.636-4.99,7.807-8.813l-5.234-7.85l0.672,1.345l-2.679,1.34   C284.943,268.967,281.341,273.455,277.169,276.426z"/>
</g>
<g>
	<path style="fill:#FFB750;" d="M270.208,253.861l3.74,3.74h4.752l-3.589-3.589c-0.347-0.347-0.771-0.609-1.236-0.764l-2.568-0.856   c-0.926-0.309-1.942-0.172-2.754,0.369l-0.127,0.085l0.307,0.102C269.289,253.134,269.795,253.446,270.208,253.861z"/>
	<polygon style="fill:#FFB750;" points="277.739,261.39 282.49,261.39 278.701,257.601 273.95,257.601  "/>
</g>
<g>
	<path style="fill:#FFC455;" d="M264.409,253.451l1.243,1.243l2.773-1.848l-2.758-0.918c-1.062-0.355-2.221-0.206-3.169,0.38   l0.129,0.044C263.299,252.574,263.909,252.95,264.409,253.451z"/>
	<polygon style="fill:#FFC455;" points="273.625,262.668 279.016,262.668 277.739,261.39 272.349,261.39  "/>
	<path style="fill:#FFC455;" d="M268.559,257.601h5.39l-3.74-3.74c-0.415-0.415-0.92-0.727-1.476-0.912l-0.307-0.102l-2.773,1.848   L268.559,257.601z"/>
	<polygon style="fill:#FFC455;" points="268.559,257.601 272.349,261.39 277.739,261.39 273.95,257.601  "/>
</g>
<g>
	<path style="fill:#FFCD55;" d="M258.079,253.185l1.23,1.23l3.072-2.048c0.038-0.025,0.08-0.036,0.117-0.06l-3.573-1.191   c-0.4-0.134-0.811-0.19-1.222-0.211v1.982C257.827,252.99,257.965,253.071,258.079,253.185z"/>
	<path style="fill:#FFCD55;" d="M256.04,251.925c0.616,0.205,1.166,0.55,1.663,0.963v-1.982c-0.926-0.044-1.849,0.186-2.648,0.691   L256.04,251.925z"/>
	<polygon style="fill:#FFCD55;" points="268.98,264.086 275.043,264.086 273.625,262.668 267.561,262.668  "/>
	<path style="fill:#FFCD55;" d="M259.309,254.415l2.706,2.706l3.638-2.426l-1.243-1.243c-0.5-0.5-1.111-0.877-1.782-1.101   l-0.129-0.044c-0.037,0.024-0.081,0.036-0.117,0.06L259.309,254.415z"/>
	<polygon style="fill:#FFCD55;" points="266.284,261.39 267.561,262.668 273.625,262.668 272.349,261.39  "/>
	<polygon style="fill:#FFCD55;" points="268.559,257.601 265.652,254.695 262.014,257.12 262.495,257.601  "/>
	<polygon style="fill:#FFCD55;" points="266.284,261.39 272.349,261.39 268.559,257.601 262.495,257.601  "/>
</g>
<g>
	<path style="fill:#FFD25A;" d="M251.95,253.651l2.349-1.566v-0.741l-2.498-0.834c-1.173-0.391-2.431-0.341-3.559,0.104   c0.776,0.339,1.486,0.814,2.087,1.416L251.95,253.651z"/>
	<path style="fill:#FFD25A;" d="M254.956,251.648c0.031-0.021,0.067-0.031,0.1-0.051l-0.757-0.252v0.741L254.956,251.648z"/>
	<polygon style="fill:#FFD25A;" points="263.661,265.363 270.257,265.363 268.98,264.086 262.384,264.086  "/>
	<polygon style="fill:#FFD25A;" points="254.299,252.087 251.95,253.651 254.299,256.001  "/>
	<path style="fill:#FFD25A;" d="M259.309,254.415l-1.23-1.23c-0.114-0.114-0.252-0.195-0.376-0.297v2.598L259.309,254.415z"/>
	<path style="fill:#FFD25A;" d="M255.351,257.054l2.352-1.568v-2.598c-0.497-0.414-1.048-0.759-1.663-0.963l-0.983-0.329   c-0.031,0.02-0.069,0.03-0.1,0.051l-0.657,0.439v3.915L255.351,257.054z"/>
	<polygon style="fill:#FFD25A;" points="260.966,262.668 262.384,264.086 268.98,264.086 267.561,262.668  "/>
	<polygon style="fill:#FFD25A;" points="257.703,257.601 261.292,257.601 262.014,257.12 259.309,254.415 257.703,255.486  "/>
	<polygon style="fill:#FFD25A;" points="257.703,257.601 257.703,255.486 255.351,257.054 255.9,257.601  "/>
	<path style="fill:#FFD25A;" d="M257.206,258.907l1.872,1.872l1.275-2.551l0.94-0.626h-3.589v0.101   C257.703,258.174,257.513,258.599,257.206,258.907z"/>
	<polygon style="fill:#FFD25A;" points="260.966,262.668 267.561,262.668 266.284,261.39 259.689,261.39  "/>
	<path style="fill:#FFD25A;" d="M257.206,258.907c0.307-0.307,0.499-0.734,0.499-1.203v-0.101h-1.803L257.206,258.907z"/>
	<polygon style="fill:#FFD25A;" points="262.495,257.601 262.014,257.12 261.292,257.601  "/>
	<polygon style="fill:#FFD25A;" points="261.292,257.601 260.352,258.229 259.078,260.779 259.689,261.39 266.284,261.39    262.495,257.601  "/>
</g>
<g>
	<path style="fill:#FFE15A;" d="M237.535,257.601l9.721-6.481c0.311-0.207,0.645-0.371,0.986-0.505   c-0.189-0.082-0.377-0.164-0.574-0.23l-5.528-1.843c-1.993-0.665-4.181-0.371-5.93,0.794l-11.93,7.954l-0.207,0.31h13.463   L237.535,257.601L237.535,257.601z"/>
	<path style="fill:#FFE15A;" d="M233.722,260.143l3.813-2.542h-13.463l-0.671,1.007c0.369,1.376,0.781,2.678,1.237,3.905   l10.803,5.401h30.773l-2.553-2.553h-32.549L233.722,260.143z"/>
	<path style="fill:#FFE15A;" d="M217.195,267.916h0.336c-0.052-0.09-0.104-0.18-0.155-0.271L217.195,267.916z"/>
	<path style="fill:#FFE15A;" d="M227.156,267.916h8.285l-10.803-5.401C225.374,264.497,226.218,266.295,227.156,267.916z"/>
	<path style="fill:#FFE15A;" d="M221.959,261.174l2.679,1.34c-0.456-1.228-0.869-2.529-1.237-3.905l-0.635,0.952L221.959,261.174z"/>
	<path style="fill:#FFE15A;" d="M222.765,259.561l-5.389,8.084c0.051,0.091,0.104,0.181,0.155,0.271h9.624   c-0.939-1.621-1.782-3.419-2.518-5.401l-2.679-1.34L222.765,259.561z"/>
	<path style="fill:#FFE15A;" d="M237.535,257.601h8.491l5.925-3.95l-1.621-1.621c-0.601-0.601-1.312-1.076-2.087-1.416   c-0.342,0.134-0.675,0.297-0.986,0.505L237.535,257.601z"/>
	<polygon style="fill:#FFE15A;" points="240.858,264.086 243.137,259.528 246.026,257.601 237.535,257.601 233.722,260.143    231.113,265.363 263.661,265.363 262.384,264.086  "/>
	<polygon style="fill:#FFE15A;" points="254.299,256.001 251.95,253.651 246.026,257.601 254.299,257.601  "/>
	<polygon style="fill:#FFE15A;" points="255.351,257.054 254.299,256.001 254.299,257.601 254.529,257.601  "/>
	<path style="fill:#FFE15A;" d="M240.858,264.086h21.527l-1.418-1.418h-10.261l1.887-3.774l1.712-1.141   c0-0.016-0.005-0.031-0.005-0.049v-0.101h-8.273l-2.889,1.927L240.858,264.086z"/>
	<path style="fill:#FFE15A;" d="M254.299,257.601v0.101c0,0.017,0.005,0.032,0.005,0.049l0.225-0.15L254.299,257.601   L254.299,257.601z"/>
	<polygon style="fill:#FFE15A;" points="255.9,257.601 255.351,257.054 254.529,257.601  "/>
	<path style="fill:#FFE15A;" d="M258.771,261.39l0.306-0.612l-1.872-1.872c-0.307,0.307-0.734,0.499-1.203,0.499   c-0.925,0-1.671-0.736-1.697-1.653l-1.712,1.141l-1.887,3.774h10.261l-1.276-1.276L258.771,261.39L258.771,261.39z"/>
	<path style="fill:#FFE15A;" d="M256.001,259.405c0.47,0,0.896-0.19,1.203-0.499l-1.306-1.306h-1.371l-0.225,0.15   C254.33,258.67,255.077,259.405,256.001,259.405z"/>
	<polygon style="fill:#FFE15A;" points="259.689,261.39 259.078,260.779 258.771,261.39  "/>
</g>
<g>
	<path style="fill:#FF4B55;" d="M254.299,237.277c0-0.331,0.099-0.637,0.261-0.898l-1.228-0.311l-0.745,3.122h1.711L254.299,237.277   L254.299,237.277L254.299,237.277z"/>
	<path style="fill:#FF4B55;" d="M256.001,235.575c0.941,0,1.702,0.761,1.702,1.702v1.911h1.7l-1.095-4.59   c-0.192-0.806-0.912-1.375-1.741-1.375h-2.558l0.775,2.865C255.094,235.772,255.524,235.575,256.001,235.575z"/>
	<path style="fill:#FF4B55;" d="M257.703,237.277c0-0.941-0.761-1.702-1.702-1.702c-0.477,0-0.907,0.197-1.217,0.515l0.1,0.371   l-0.324-0.082c-0.164,0.261-0.261,0.567-0.261,0.898v1.911h3.404V237.277z"/>
	<path style="fill:#FF4B55;" d="M252.316,240.331l0.272-1.142h-0.204c-0.397,0-0.719,0.321-0.719,0.719v0.847   c0,0.396,0.322,0.719,0.719,0.719h1.916v-1.142L252.316,240.331L252.316,240.331z"/>
	<path style="fill:#FF4B55;" d="M257.703,240.331v1.142h1.808c0.397,0,0.719-0.321,0.719-0.719v-0.847   c0-0.397-0.322-0.719-0.719-0.719h-0.109l0.272,1.142L257.703,240.331L257.703,240.331z"/>
	<rect x="254.29" y="240.34" style="fill:#FF4B55;" width="3.404" height="1.142"/>
	<polygon style="fill:#FF4B55;" points="257.703,240.331 259.676,240.331 259.404,239.189 257.703,239.189  "/>
	<polygon style="fill:#FF4B55;" points="254.299,240.331 254.299,239.189 252.588,239.189 252.316,240.331  "/>
	<rect x="254.29" y="239.19" style="fill:#FF4B55;" width="3.404" height="1.142"/>
	<path style="fill:#FF4B55;" d="M252.814,234.91c-0.297,0.42-0.081,1.006,0.417,1.132l0.1,0.025l0.679-2.843L252.814,234.91z"/>
	<path style="fill:#FF4B55;" d="M254.785,236.09l-0.775-2.865l-0.679,2.843l1.228,0.311   C254.626,236.275,254.699,236.177,254.785,236.09z"/>
	<path style="fill:#FF4B55;" d="M254.785,236.09c-0.085,0.087-0.159,0.185-0.224,0.289l0.324,0.082L254.785,236.09z"/>
</g>
<path style="fill:#41479B;" d="M263.526,220.995l-0.771-1.156c-2.101-0.99-4.355-1.562-6.754-1.565  c-2.399,0.002-4.654,0.575-6.756,1.565l-0.771,1.156c2.319-1.196,4.831-1.898,7.525-1.898  C258.695,219.102,261.207,219.799,263.526,220.995z"/>
<g>
	<path style="fill:#5AA0E6;" d="M251.333,218.275c1.501-0.416,3.055-0.646,4.667-0.645c1.607-0.002,3.158,0.226,4.655,0.641   c-1.485-0.486-3.035-0.759-4.655-0.759C254.378,217.512,252.822,217.786,251.333,218.275z"/>
	<path style="fill:#5AA0E6;" d="M260.656,218.271c-1.497-0.415-3.048-0.642-4.655-0.641c-1.612-0.001-3.167,0.229-4.667,0.645   c-0.475,0.155-0.941,0.337-1.401,0.536l-0.686,1.03c2.102-0.991,4.355-1.562,6.756-1.565c2.399,0.003,4.654,0.575,6.754,1.565   l-0.686-1.028C261.606,218.61,261.135,218.427,260.656,218.271z"/>
</g>
<g>
	<path style="fill:#9BC800;" d="M261.302,217.66l-0.003-0.003c-1.677-0.647-3.443-1.011-5.299-1.013   c-1.856,0-3.621,0.365-5.299,1.012l-0.004,0.005c1.695-0.551,3.462-0.852,5.302-0.854   C257.842,216.809,259.609,217.107,261.302,217.66z"/>
	<path style="fill:#9BC800;" d="M256.001,217.514c1.62,0,3.17,0.272,4.655,0.759c0.452,0.125,0.898,0.269,1.34,0.429l-0.694-1.041   c-1.695-0.551-3.462-0.851-5.301-0.852c-1.841,0.001-3.608,0.302-5.302,0.854l-0.692,1.04c0.437-0.159,0.88-0.301,1.327-0.425   C252.822,217.786,254.378,217.512,256.001,217.514z"/>
	<path style="fill:#9BC800;" d="M250.006,218.7l-0.074,0.111c0.46-0.199,0.926-0.38,1.401-0.536   C250.886,218.398,250.444,218.542,250.006,218.7z"/>
	<path style="fill:#9BC800;" d="M262.07,218.811l-0.074-0.111c-0.442-0.16-0.887-0.304-1.34-0.429   C261.135,218.427,261.606,218.61,262.07,218.811z"/>
</g>
<g>
	<path style="fill:#FFE14E;" d="M256.001,216.045c1.62,0,3.18,0.246,4.685,0.69l-0.112-0.169c-1.458-0.497-2.982-0.777-4.573-0.779   c-1.591,0-3.114,0.281-4.572,0.779l-0.112,0.167C252.822,216.291,254.381,216.045,256.001,216.045z"/>
	<path style="fill:#FFE14E;" d="M256.001,216.045c-1.62-0.001-3.179,0.246-4.685,0.69l-0.614,0.921   c1.677-0.647,3.443-1.012,5.299-1.012c1.856,0.001,3.623,0.366,5.299,1.013l-0.614-0.921   C259.181,216.291,257.62,216.045,256.001,216.045z"/>
</g>
<g>
	<path style="fill:#FFB14E;" d="M259.99,215.69l-0.182-0.275c-1.223-0.357-2.491-0.561-3.805-0.56   c-1.315-0.001-2.583,0.204-3.806,0.561l-0.181,0.272c1.288-0.332,2.617-0.515,3.989-0.515   C257.373,215.176,258.7,215.358,259.99,215.69z"/>
	<path style="fill:#FFB14E;" d="M260.575,216.568l-0.585-0.877c-1.288-0.332-2.617-0.515-3.988-0.515   c-1.371,0-2.699,0.182-3.989,0.515l-0.585,0.877c1.458-0.497,2.982-0.779,4.572-0.779   C257.592,215.79,259.115,216.07,260.575,216.568z"/>
</g>
<g>
	<path style="fill:#FF4B55;" d="M256.001,214.321c1.136,0,2.242,0.13,3.32,0.369l-0.281-0.421c-0.99-0.202-2.003-0.311-3.04-0.311   c-1.037-0.003-2.049,0.106-3.038,0.307l-0.282,0.425C253.759,214.452,254.865,214.321,256.001,214.321z"/>
	<path style="fill:#FF4B55;" d="M259.806,215.415l-0.485-0.726c-1.078-0.239-2.184-0.369-3.32-0.369s-2.242,0.131-3.32,0.369   l-0.486,0.729c1.225-0.359,2.492-0.562,3.806-0.561C257.316,214.856,258.583,215.058,259.806,215.415z"/>
</g>
<g>
	<path style="fill:#FFE15A;" d="M296.863,277.845c-0.774,0.726-1.577,1.383-2.402,1.986h7.747c-0.069-0.689-0.105-1.351-0.114-1.986   H296.863z"/>
	<path style="fill:#FFE15A;" d="M302.092,277.124c0.024-1.506,0.182-2.814,0.372-3.858l-0.874-1.311   c-0.439,0.725-0.9,1.405-1.373,2.058L302.092,277.124z"/>
	<path style="fill:#FFE15A;" d="M256.328,278.619l0.807,1.211h0.5C257.071,279.413,256.635,279.006,256.328,278.619z"/>
	<path style="fill:#FFE15A;" d="M209.794,279.83h7.653c-0.817-0.602-1.615-1.26-2.381-1.986h-3.744l0.746-1.418h-0.545l0.955-1.432   c-0.732-0.927-1.432-1.922-2.087-3.007l-0.852,1.277C209.835,274.897,210.058,277.184,209.794,279.83z"/>
	<path style="fill:#FFE15A;" d="M254.454,279.83h0.412l0.596-0.893C255.196,279.227,254.857,279.525,254.454,279.83z"/>
	<path style="fill:#FFE15A;" d="M240.025,232.021c-0.311,0.242-0.68,0.36-1.043,0.36c-0.182,0-0.361-0.04-0.535-0.097   c-1.587,2.566-5.239,8.466-8.646,13.952c0.635,0.501,0.829,1.365,0.459,2.086l18.216-27.325c-0.407,0.21-0.811,0.431-1.207,0.671   c0.062-0.49,0.126-0.979,0.189-1.467c0.005-0.034,0.009-0.069,0.012-0.101l0,0c0.014-0.106,0.027-0.212,0.041-0.319   c0.035-0.267,0.069-0.536,0.104-0.804l0,0c0.06-0.467,0.12-0.933,0.18-1.401c0.029-0.225,0.057-0.449,0.087-0.674   c0.033-0.25,0.064-0.499,0.096-0.749c1.591-0.89,3.252-1.536,4.985-1.888l3.038-4.556l3.04,4.56   c1.732,0.354,3.393,0.997,4.982,1.884c0.033,0.25,0.064,0.499,0.096,0.749c0.029,0.225,0.057,0.449,0.087,0.674   c0.06,0.467,0.12,0.933,0.18,1.401l0,0c0.035,0.267,0.069,0.536,0.104,0.804c0.014,0.106,0.027,0.212,0.041,0.319l0,0   c0.004,0.034,0.009,0.067,0.012,0.101c0.063,0.489,0.126,0.978,0.189,1.467c-0.396-0.24-0.8-0.461-1.207-0.672l24.405,36.606h0.36   l-4.186-8.373c-0.045-0.072-0.092-0.149-0.139-0.222c-0.235,0.112-0.481,0.182-0.727,0.182c-0.567,0-1.122-0.282-1.445-0.801   c-0.465-0.741-0.264-1.688,0.409-2.218c-3.408-5.486-7.059-11.387-8.646-13.952c-0.174,0.057-0.352,0.097-0.536,0.097   c-0.364,0-0.734-0.116-1.043-0.36c-0.741-0.575-0.876-1.646-0.297-2.387l0.89-1.145l-15.151-22.729   c-0.316-0.471-0.866-0.707-1.416-0.707v2.503l-6.808,7.375c-0.026-0.346-0.025-0.675-0.044-1.017l-9.74,14.61l0.915,1.176   C240.901,230.375,240.766,231.446,240.025,232.021z"/>
	<polygon style="fill:#FFE15A;" points="256.001,278.128 256.003,278.131 256.001,278.128 256.568,277.845 255.299,277.845    255.967,278.178  "/>
	<path style="fill:#FFE15A;" d="M223.745,257.601h0.067l0.465-0.31l5.723-8.585c-0.327,0.351-0.775,0.549-1.238,0.549   c-0.247,0-0.494-0.07-0.727-0.182c-0.046,0.074-0.092,0.149-0.139,0.222L223.745,257.601z"/>
	<path style="fill:#FFE15A;" d="M206.841,278.933c0.296,0.551,0.872,0.897,1.501,0.897h1.451c0.265-2.647,0.041-4.934-0.255-6.564   l-2.612,3.919C206.578,277.706,206.544,278.378,206.841,278.933z"/>
	<path style="fill:#FFE15A;" d="M302.526,277.845h-0.431c0.01,0.635,0.045,1.297,0.114,1.986h1.451c0.629,0,1.205-0.346,1.501-0.897   c0.296-0.555,0.262-1.227-0.085-1.748l-2.612-3.919c-0.19,1.045-0.35,2.352-0.372,3.858L302.526,277.845z"/>
	<polygon style="fill:#FFE15A;" points="255.985,278.187 256.001,278.128 255.967,278.178  "/>
	<path style="fill:#FFE15A;" d="M256.003,278.131l-0.001-0.002l0.484,1.702h0.651l-0.807-1.211   C256.197,278.453,256.082,278.288,256.003,278.131z"/>
	<path style="fill:#FFE15A;" d="M255.965,278.255c-0.117,0.219-0.286,0.446-0.502,0.681l-0.596,0.894h0.651L255.965,278.255z"/>
	<path style="fill:#FFE15A;" d="M256.001,278.196c-0.01,0.019-0.025,0.04-0.036,0.059l-0.447,1.576h0.967l-0.484-1.702l-0.016,0.059   L256.001,278.196z"/>
	<path style="fill:#FFE15A;" d="M256.001,207.49v-2.503c-0.55,0-1.101,0.236-1.416,0.707l-5.436,8.154   c0.019,0.342,0.018,0.671,0.044,1.017L256.001,207.49z"/>
	<path style="fill:#FFE15A;" d="M227.897,249.296c0.045-0.074,0.092-0.149,0.139-0.222l0,0c-0.046,0.074-0.091,0.146-0.136,0.219   L227.897,249.296z"/>
	<path style="fill:#FFE15A;" d="M237.637,231.722l-0.217-0.28l-5.978,8.968c0.179,0.745,0.384,1.476,0.614,2.191   c-0.75,1.21-1.508,2.432-2.256,3.634l0,0c3.408-5.486,7.059-11.387,8.646-13.952C238.137,232.181,237.852,231.998,237.637,231.722z   "/>
	<path style="fill:#FFE15A;" d="M229.801,246.236c0.747-1.202,1.505-2.424,2.256-3.634c-0.23-0.715-0.435-1.446-0.614-2.191   l-3.204,4.806l1.431,0.893C229.722,246.145,229.752,246.197,229.801,246.236z"/>
	<path style="fill:#FFE15A;" d="M227.9,249.292c0.045-0.072,0.09-0.146,0.136-0.219c-0.007-0.003-0.015-0.006-0.023-0.01   L227.9,249.292z"/>
	<path style="fill:#FFE15A;" d="M239.263,230.962c0,0-0.304,0.49-0.817,1.321c0.174,0.057,0.352,0.097,0.535,0.097   c0.364,0,0.734-0.116,1.043-0.36c0.741-0.575,0.876-1.646,0.297-2.387l-0.915-1.176l-0.992,1.488L239.263,230.962z"/>
	<path style="fill:#FFE15A;" d="M237.637,231.722c0.215,0.276,0.5,0.459,0.809,0.561c0.514-0.831,0.817-1.321,0.817-1.321   l-0.846-1.015l-0.997,1.496L237.637,231.722z"/>
	<path style="fill:#FFE15A;" d="M223.135,257.601h0.61l4.153-8.305c-2.188,3.517-4.054,6.501-4.88,7.788   C223.057,257.255,223.094,257.433,223.135,257.601z"/>
	<path style="fill:#FFE15A;" d="M255.462,278.937l0.505-0.757l-0.669-0.334h-18.357c1.403,0.802,2.853,1.462,4.333,1.986h13.179   C254.857,279.525,255.196,279.227,255.462,278.937z"/>
	<path style="fill:#FFE15A;" d="M214.092,272.57l2.446-4.655h-1.388l1.16-2.319c-0.23-0.482-0.452-0.978-0.667-1.487l-5.252,7.879   c0.654,1.085,1.353,2.079,2.087,3.007L214.092,272.57z"/>
	<path style="fill:#FFE15A;" d="M227.304,277.845h-12.239c0.767,0.725,1.563,1.382,2.381,1.986h14.179   C230.148,279.308,228.703,278.647,227.304,277.845z"/>
	<path style="fill:#FFE15A;" d="M255.967,278.178l-0.505,0.757c0.216-0.235,0.385-0.464,0.502-0.681l0.019-0.067L255.967,278.178z"/>
	<path style="fill:#FFE15A;" d="M255.985,278.187l-0.019,0.067c0.01-0.02,0.026-0.04,0.036-0.059L255.985,278.187z"/>
	<path style="fill:#FFE15A;" d="M226.195,248.279l-3.808,5.711c0.185,1.071,0.397,2.099,0.63,3.094   c0.826-1.287,2.692-4.273,4.88-7.788l0.002-0.004c-0.171,0.274-0.346,0.555-0.512,0.824   C226.971,249.521,226.576,248.906,226.195,248.279z"/>
	<path style="fill:#FFE15A;" d="M227.387,250.115c0.166-0.267,0.341-0.549,0.512-0.824l0.114-0.229   c-0.05-0.024-0.102-0.036-0.151-0.067l-1.515-0.946l-0.152,0.23C226.576,248.906,226.971,249.521,227.387,250.115z"/>
	<path style="fill:#FFE15A;" d="M220.959,259.505l1-1.903h0.5c-0.296-0.47-0.695-1.128-1.161-1.974l-5.655,8.483   c0.215,0.509,0.437,1.005,0.667,1.487l2.244-4.489L220.959,259.505z"/>
	<path style="fill:#FFE15A;" d="M223.135,257.601c-0.041-0.169-0.077-0.346-0.116-0.517c-0.151,0.236-0.261,0.404-0.337,0.517   H223.135z"/>
	<path style="fill:#FFE15A;" d="M231.624,279.83h9.651c-1.48-0.524-2.93-1.182-4.333-1.986h-9.637   C228.703,278.647,230.148,279.308,231.624,279.83z"/>
	<path style="fill:#FFE15A;" d="M223.019,257.084c-0.232-0.995-0.445-2.023-0.63-3.094l-1.091,1.637   c0.466,0.846,0.865,1.506,1.161,1.974h0.222C222.758,257.488,222.866,257.32,223.019,257.084z"/>
	<path style="fill:#FFE15A;" d="M228.763,249.255c0.464,0,0.911-0.197,1.238-0.549l0.256-0.385c0.371-0.721,0.176-1.585-0.459-2.086   c-0.6,0.966-1.192,1.918-1.763,2.838C228.271,249.186,228.517,249.255,228.763,249.255z"/>
	<path style="fill:#FFE15A;" d="M228.036,249.072L228.036,249.072c0.572-0.918,1.163-1.871,1.765-2.838l0,0   C229.198,247.204,228.611,248.15,228.036,249.072z"/>
	<path style="fill:#FFE15A;" d="M228.014,249.064c0.007,0.004,0.015,0.006,0.023,0.01c0.574-0.922,1.162-1.869,1.763-2.838   c-0.049-0.039-0.079-0.091-0.131-0.125l-1.431-0.893l-0.983,1.476l1.513,0.865L228.014,249.064z"/>
	<path style="fill:#FFE15A;" d="M227.864,248.996c0.049,0.03,0.101,0.042,0.151,0.067l0.754-1.506l-1.513-0.865l-0.905,1.357   L227.864,248.996z"/>
	<path style="fill:#FFE15A;" d="M283.967,249.006L283.967,249.006c0.045,0.074,0.092,0.15,0.137,0.222l-0.003-0.004   C284.057,249.152,284.012,249.08,283.967,249.006z"/>
	<path style="fill:#FFE15A;" d="M279.947,242.534c0.225-0.7,0.424-1.416,0.6-2.144l-5.988-8.983l-0.194,0.249   c-0.215,0.276-0.5,0.459-0.809,0.561c1.587,2.566,5.239,8.466,8.646,13.952l0,0C281.456,244.966,280.698,243.744,279.947,242.534z"/>
	<path style="fill:#FFE15A;" d="M283.967,249.006c0.045,0.074,0.091,0.146,0.136,0.219l-0.114-0.229   C283.982,249,283.975,249.003,283.967,249.006z"/>
	<path style="fill:#FFE15A;" d="M283.733,245.17l-3.187-4.78c-0.176,0.729-0.376,1.445-0.6,2.144c0.75,1.21,1.508,2.432,2.256,3.635   c0.049-0.039,0.079-0.091,0.131-0.125L283.733,245.17z"/>
	<path style="fill:#FFE15A;" d="M271.977,231.955c0.311,0.242,0.68,0.36,1.043,0.36c0.182,0,0.362-0.04,0.536-0.097   c-0.514-0.831-0.817-1.322-0.817-1.322l0.822-0.985l-0.991-1.486l-0.89,1.145C271.101,230.309,271.236,231.38,271.977,231.955z"/>
	<path style="fill:#FFE15A;" d="M274.366,231.656l0.194-0.249l-0.998-1.498l-0.822,0.985c0,0,0.304,0.491,0.817,1.322   C273.865,232.115,274.151,231.932,274.366,231.656z"/>
	<path style="fill:#FFE15A;" d="M274.939,277.845h-18.37l-0.567,0.282l0.001,0.003l0.326,0.49c0.305,0.386,0.742,0.794,1.307,1.211   h12.891C272.034,279.31,273.511,278.652,274.939,277.845z"/>
	<path style="fill:#FFE15A;" d="M295.429,266.068l4.789,7.945c0.475-0.654,0.936-1.333,1.373-2.058l-5.247-7.872   C296.052,264.769,295.748,265.431,295.429,266.068z"/>
	<path style="fill:#FFE15A;" d="M284.574,277.845c-1.427,0.806-2.9,1.466-4.404,1.986h14.292c0.825-0.602,1.627-1.26,2.402-1.986   H284.574z"/>
	<path style="fill:#FFE15A;" d="M288.984,257.017c-0.826-1.287-2.692-4.273-4.88-7.788l4.186,8.373h0.561   C288.899,257.411,288.939,257.21,288.984,257.017z"/>
	<path style="fill:#FFE15A;" d="M256.003,278.131c0.079,0.157,0.194,0.322,0.326,0.49L256.003,278.131z"/>
	<path style="fill:#FFE15A;" d="M289.604,253.975l-3.818-5.727c-0.374,0.615-0.762,1.217-1.171,1.8   c-0.166-0.267-0.341-0.549-0.512-0.824l0.003,0.004c2.188,3.515,4.054,6.501,4.88,7.788   C289.213,256.038,289.422,255.027,289.604,253.975z"/>
	<path style="fill:#FFE15A;" d="M284.139,248.93c-0.047,0.03-0.101,0.042-0.151,0.067l0.114,0.229   c0.171,0.274,0.346,0.555,0.512,0.824c0.409-0.582,0.797-1.186,1.171-1.8l-0.164-0.245L284.139,248.93z"/>
	<path style="fill:#FFE15A;" d="M280.171,279.83c1.503-0.52,2.978-1.178,4.404-1.986h-9.636c-1.428,0.807-2.905,1.466-4.411,1.986   H280.171z"/>
	<path style="fill:#FFE15A;" d="M290.685,255.596c-0.479,0.867-0.887,1.54-1.183,2.006h0.826l5.101,8.466   c0.319-0.637,0.624-1.298,0.915-1.984L290.685,255.596z"/>
	<path style="fill:#FFE15A;" d="M288.984,257.017c-0.045,0.194-0.085,0.394-0.132,0.585h0.515   C289.293,257.495,289.164,257.298,288.984,257.017z"/>
	<path style="fill:#FFE15A;" d="M289.502,257.601c0.296-0.465,0.704-1.138,1.183-2.006l-1.081-1.621   c-0.182,1.052-0.391,2.063-0.62,3.042c0.18,0.281,0.309,0.477,0.382,0.585H289.502L289.502,257.601z"/>
	<path style="fill:#FFE15A;" d="M281.794,248.388c0.322,0.519,0.877,0.801,1.445,0.801c0.247,0,0.494-0.07,0.727-0.182   c-0.572-0.919-1.163-1.871-1.763-2.837C281.53,246.699,281.329,247.647,281.794,248.388z"/>
	<path style="fill:#FFE15A;" d="M282.203,246.17L282.203,246.17c0.6,0.966,1.192,1.918,1.763,2.837l0,0   C283.392,248.083,282.805,247.138,282.203,246.17z"/>
	<path style="fill:#FFE15A;" d="M283.235,247.49l1.481-0.846l-0.982-1.475l-1.4,0.875c-0.054,0.034-0.082,0.086-0.131,0.125   c0.602,0.968,1.19,1.914,1.765,2.837c0.008-0.004,0.015-0.006,0.022-0.01L283.235,247.49z"/>
	<path style="fill:#FFE15A;" d="M283.988,248.996c0.05-0.025,0.102-0.036,0.151-0.067l1.483-0.927l-0.906-1.358l-1.481,0.846   L283.988,248.996z"/>
	<polygon style="fill:#FFE15A;" points="223.813,257.601 223.745,257.601 223.711,257.669  "/>
	<path style="fill:#FFE15A;" d="M213.689,276.426h-1.622l-0.746,1.418h3.744C214.593,277.398,214.137,276.921,213.689,276.426z"/>
	<path style="fill:#FFE15A;" d="M288.657,258.335l-0.366-0.734h-0.36l0.659,0.987C288.612,258.504,288.636,258.42,288.657,258.335z"/>
	<path style="fill:#FFE15A;" d="M300.481,276.426h-2.227c-0.454,0.496-0.915,0.972-1.39,1.418h5.231   c-0.004-0.244-0.008-0.486-0.004-0.721l-1.874-3.11c-0.235,0.324-0.472,0.639-0.715,0.945L300.481,276.426z"/>
	<polygon style="fill:#FFE15A;" points="256.568,277.845 259.406,276.426 252.462,276.426 255.299,277.845  "/>
	<path style="fill:#FFE15A;" d="M302.096,277.845h0.431l-0.435-0.721C302.088,277.359,302.092,277.601,302.096,277.845z"/>
	<polygon style="fill:#FFE15A;" points="216.538,267.916 214.092,272.57 217.195,267.916  "/>
	<path style="fill:#FFE15A;" d="M225.112,276.426h-11.423c0.449,0.495,0.906,0.972,1.376,1.418h12.239   C226.558,277.417,225.828,276.941,225.112,276.426z"/>
	<path style="fill:#FFE15A;" d="M223.234,257.988l0.477-0.319l0.034-0.067h-0.61C223.167,257.733,223.201,257.859,223.234,257.988z"/>
	<path style="fill:#FFE15A;" d="M236.942,277.845H255.3l-2.837-1.418h-17.725C235.457,276.944,236.193,277.416,236.942,277.845z"/>
	<path style="fill:#FFE15A;" d="M227.304,277.845h9.637c-0.75-0.43-1.486-0.902-2.204-1.418h-9.626   C225.828,276.941,226.558,277.417,227.304,277.845z"/>
	<path style="fill:#FFE15A;" d="M223.135,257.601h-0.454c-0.067,0.101-0.115,0.169-0.119,0.164c-0.031-0.049-0.07-0.11-0.104-0.164   h-0.5l-1,1.903l2.274-1.516C223.201,257.859,223.167,257.733,223.135,257.601z"/>
	<path style="fill:#FFE15A;" d="M222.681,257.601h-0.222c0.034,0.054,0.072,0.116,0.104,0.164   C222.565,257.77,222.613,257.703,222.681,257.601z"/>
	<path style="fill:#FFE15A;" d="M296.863,277.845c0.475-0.447,0.937-0.923,1.39-1.418h-11.454c-0.726,0.517-1.467,0.991-2.224,1.418   H296.863z"/>
	<path style="fill:#FFE15A;" d="M300.218,274.013l-4.789-7.945c-0.265,0.531-0.54,1.046-0.824,1.546l4.896,7.344   C299.744,274.652,299.983,274.337,300.218,274.013z"/>
	<path style="fill:#FFE15A;" d="M288.852,257.601h-0.561l0.366,0.734C288.722,258.09,288.791,257.851,288.852,257.601z"/>
	<path style="fill:#FFE15A;" d="M274.939,277.845c0.759-0.429,1.502-0.901,2.229-1.418h-17.763l-2.837,1.418H274.939z"/>
	<path style="fill:#FFE15A;" d="M288.657,258.335c-0.023,0.085-0.045,0.169-0.069,0.254l0.782,1.173L288.657,258.335z"/>
	<path style="fill:#FFE15A;" d="M294.605,267.614c0.284-0.5,0.559-1.015,0.824-1.546l-5.101-8.466h-0.826   c-0.019,0.03-0.042,0.069-0.061,0.097c-0.002,0.004-0.031-0.035-0.074-0.097h-0.515c-0.061,0.25-0.13,0.489-0.195,0.734   l0.714,1.428L294.605,267.614z"/>
	<path style="fill:#FFE15A;" d="M286.799,276.426h-9.631c-0.727,0.519-1.471,0.99-2.229,1.418h9.636   C285.332,277.417,286.074,276.944,286.799,276.426z"/>
	<path style="fill:#FFE15A;" d="M289.441,257.699c0.019-0.029,0.043-0.066,0.061-0.097h-0.135   C289.409,257.664,289.438,257.703,289.441,257.699z"/>
	<polygon style="fill:#FFE15A;" points="224.072,257.601 224.278,257.292 223.813,257.601  "/>
	<path style="fill:#FFE15A;" d="M216.311,265.597l-1.16,2.319h1.388l0.476-0.905C216.77,266.556,216.539,266.077,216.311,265.597z"/>
	<path style="fill:#FFE15A;" d="M220.959,259.505l-2.404,1.603l-2.244,4.489c0.23,0.481,0.46,0.96,0.704,1.415L220.959,259.505z"/>
	<path style="fill:#FFE15A;" d="M223.345,258.402c0.019,0.069,0.037,0.137,0.055,0.206l0.671-1.007h-0.259l-0.102,0.067   L223.345,258.402z"/>
	<path style="fill:#FFE15A;" d="M223.711,257.669l-0.477,0.319c0.036,0.14,0.075,0.275,0.111,0.415L223.711,257.669z"/>
	<path style="fill:#FFE15A;" d="M217.376,267.645c-0.12-0.212-0.245-0.416-0.362-0.634l-0.476,0.905h0.657L217.376,267.645z"/>
	<path style="fill:#FFE15A;" d="M222.765,259.561l0.635-0.952c-0.019-0.069-0.037-0.137-0.055-0.206L222.765,259.561z"/>
	<path style="fill:#FFE15A;" d="M223.345,258.402c-0.036-0.139-0.076-0.274-0.111-0.415l-2.274,1.516l-3.945,7.507   c0.117,0.219,0.242,0.421,0.362,0.634l5.389-8.084L223.345,258.402z"/>
	<path style="fill:#FFE15A;" d="M247.373,220.851c0.027-0.217,0.056-0.435,0.084-0.651c-0.062,0.489-0.126,0.978-0.189,1.467   c0.396-0.24,0.8-0.461,1.207-0.671l0.771-1.156C248.608,220.142,247.983,220.477,247.373,220.851z"/>
	<path style="fill:#FFE15A;" d="M262.757,219.839l0.771,1.156c0.407,0.21,0.812,0.431,1.207,0.672   c-0.064-0.49-0.126-0.979-0.189-1.467c0.027,0.217,0.056,0.435,0.084,0.651C264.02,220.477,263.394,220.142,262.757,219.839z"/>
	<path style="fill:#FFE15A;" d="M247.582,219.236c0.011-0.086,0.022-0.174,0.034-0.26l0,0c-0.034,0.267-0.069,0.536-0.104,0.804   C247.534,219.598,247.558,219.417,247.582,219.236L247.582,219.236z"/>
	<path style="fill:#FFE15A;" d="M264.545,220.199c-0.004-0.034-0.009-0.069-0.012-0.101l0,0   C264.536,220.132,264.541,220.165,264.545,220.199z"/>
	<path style="fill:#FFE15A;" d="M247.471,220.098c-0.004,0.034-0.009,0.067-0.012,0.101   C247.462,220.165,247.466,220.132,247.471,220.098L247.471,220.098z"/>
	<path style="fill:#FFE15A;" d="M264.421,219.236c0.024,0.181,0.046,0.362,0.07,0.544c-0.035-0.267-0.069-0.536-0.104-0.804l0,0   C264.399,219.062,264.41,219.149,264.421,219.236L264.421,219.236z"/>
	<path style="fill:#FFE15A;" d="M262.07,218.811l0.686,1.028c0.639,0.301,1.263,0.637,1.873,1.011   c-0.027-0.217-0.056-0.435-0.084-0.651c-0.004-0.034-0.009-0.069-0.012-0.101C263.736,219.602,262.914,219.176,262.07,218.811z"/>
	<path style="fill:#FFE15A;" d="M249.247,219.84l0.686-1.03c-0.844,0.365-1.667,0.791-2.462,1.287   c-0.004,0.034-0.009,0.067-0.012,0.101c-0.027,0.217-0.056,0.435-0.084,0.651C247.983,220.477,248.608,220.142,249.247,219.84z"/>
	<path style="fill:#FFE15A;" d="M247.471,220.098L247.471,220.098c0.014-0.106,0.027-0.212,0.041-0.319   C247.498,219.885,247.484,219.992,247.471,220.098z"/>
	<path style="fill:#FFE15A;" d="M250.634,217.68c0.021-0.006,0.044-0.012,0.066-0.02l0.004-0.005   C250.68,217.665,250.656,217.671,250.634,217.68z"/>
	<path style="fill:#FFE15A;" d="M264.532,220.098c-0.014-0.106-0.027-0.212-0.041-0.319   C264.505,219.885,264.519,219.992,264.532,220.098L264.532,220.098z"/>
	<path style="fill:#FFE15A;" d="M261.302,217.66c0.014,0.005,0.029,0.007,0.042,0.012c-0.015-0.006-0.03-0.01-0.044-0.016   L261.302,217.66z"/>
	<path style="fill:#FFE15A;" d="M261.344,217.672c-0.014-0.005-0.027-0.007-0.042-0.012l0.694,1.041   c0.85,0.306,1.685,0.667,2.497,1.091c0.014,0.102,0.026,0.205,0.04,0.307l0,0c-0.014-0.106-0.027-0.212-0.041-0.319   c-0.024-0.181-0.046-0.362-0.07-0.544C263.433,218.611,262.407,218.086,261.344,217.672z"/>
	<path style="fill:#FFE15A;" d="M247.511,219.791c0.812-0.424,1.646-0.785,2.497-1.091l0.692-1.04   c-0.021,0.007-0.044,0.012-0.066,0.02c-1.053,0.412-2.072,0.936-3.052,1.556c-0.024,0.181-0.046,0.362-0.07,0.544   c-0.014,0.106-0.027,0.212-0.041,0.319l0,0C247.483,219.995,247.497,219.893,247.511,219.791z"/>
	<path style="fill:#FFE15A;" d="M247.511,219.791c-0.014,0.102-0.026,0.205-0.04,0.307c0.796-0.496,1.618-0.922,2.462-1.287   l0.074-0.111C249.157,219.006,248.323,219.367,247.511,219.791z"/>
	<path style="fill:#FFE15A;" d="M264.532,220.098c-0.013-0.102-0.026-0.205-0.04-0.307c-0.812-0.424-1.646-0.785-2.497-1.091   l0.074,0.111C262.914,219.176,263.736,219.602,264.532,220.098z"/>
	<path style="fill:#FFE15A;" d="M247.712,218.222L247.712,218.222c0.027-0.216,0.055-0.431,0.084-0.647   c-0.06,0.467-0.12,0.933-0.18,1.401l0,0C247.648,218.725,247.679,218.473,247.712,218.222z"/>
	<path style="fill:#FFE15A;" d="M251.428,216.568c-0.689,0.235-1.363,0.52-2.022,0.85c0.626-0.264,1.263-0.491,1.911-0.682   L251.428,216.568z"/>
	<path style="fill:#FFE15A;" d="M262.604,217.421c-0.661-0.332-1.338-0.619-2.031-0.854l0.112,0.169   C261.336,216.928,261.976,217.155,262.604,217.421z"/>
	<path style="fill:#FFE15A;" d="M264.29,218.222c0.032,0.251,0.065,0.502,0.097,0.754l0,0c-0.06-0.467-0.12-0.933-0.18-1.401   C264.235,217.791,264.262,218.006,264.29,218.222L264.29,218.222z"/>
	<path style="fill:#FFE15A;" d="M264.421,219.236L264.421,219.236c-0.011-0.086-0.022-0.174-0.034-0.26l0,0   C264.399,219.062,264.41,219.149,264.421,219.236z"/>
	<path style="fill:#FFE15A;" d="M247.582,219.236c0.011-0.086,0.022-0.174,0.034-0.26l0,0   C247.604,219.062,247.593,219.149,247.582,219.236L247.582,219.236z"/>
	<path style="fill:#FFE15A;" d="M251.316,216.735c-0.647,0.191-1.285,0.419-1.911,0.682c-0.582,0.292-1.156,0.614-1.715,0.972   c0.007-0.056,0.014-0.112,0.021-0.167l0,0c-0.032,0.251-0.065,0.502-0.097,0.754c0.978-0.52,1.984-0.955,3.018-1.296   c0.022-0.009,0.046-0.016,0.069-0.025L251.316,216.735z"/>
	<path style="fill:#FFE15A;" d="M261.301,217.656c0.015,0.005,0.03,0.01,0.044,0.016c1.042,0.341,2.057,0.78,3.043,1.303   c-0.033-0.251-0.065-0.502-0.097-0.754l0,0c0.007,0.055,0.015,0.111,0.021,0.167c-0.557-0.359-1.127-0.677-1.707-0.968   c-0.629-0.265-1.268-0.494-1.918-0.685L261.301,217.656z"/>
	<path style="fill:#FFE15A;" d="M247.582,219.236c0.981-0.62,1.998-1.143,3.052-1.556c-1.033,0.341-2.039,0.776-3.018,1.296   C247.604,219.062,247.593,219.149,247.582,219.236z"/>
	<path style="fill:#FFE15A;" d="M264.421,219.236c-0.011-0.086-0.022-0.174-0.034-0.26c-0.986-0.524-2.001-0.962-3.043-1.303   C262.407,218.086,263.433,218.611,264.421,219.236z"/>
	<path style="fill:#FFE15A;" d="M247.823,217.36c0.02-0.152,0.039-0.306,0.059-0.459c-0.029,0.225-0.057,0.449-0.087,0.674   C247.804,217.504,247.814,217.432,247.823,217.36L247.823,217.36z"/>
	<path style="fill:#FFE15A;" d="M264.179,217.36c0.009,0.072,0.019,0.144,0.027,0.215c-0.029-0.225-0.057-0.449-0.087-0.674   C264.14,217.054,264.16,217.207,264.179,217.36L264.179,217.36z"/>
	<path style="fill:#FFE15A;" d="M263.169,216.846c-1.078-0.61-2.201-1.091-3.363-1.431l0.182,0.275   C261.078,215.97,262.138,216.358,263.169,216.846z"/>
	<path style="fill:#FFE15A;" d="M248.844,216.841c1.027-0.486,2.083-0.871,3.168-1.151l0.181-0.272   C251.037,215.757,249.919,216.235,248.844,216.841z"/>
	<path style="fill:#FFE15A;" d="M249.405,217.417c0.66-0.33,1.333-0.615,2.022-0.85l0.585-0.877   c-1.085,0.28-2.141,0.665-3.168,1.151c-0.349,0.197-0.695,0.404-1.035,0.626c0.005-0.035,0.009-0.071,0.014-0.106l0,0   c-0.009,0.072-0.019,0.144-0.027,0.215c-0.027,0.215-0.055,0.431-0.084,0.647C248.268,217.924,248.833,217.659,249.405,217.417z"/>
	<path style="fill:#FFE15A;" d="M264.179,217.36c0.005,0.036,0.009,0.071,0.014,0.106c-0.337-0.22-0.679-0.425-1.023-0.62   c-1.031-0.489-2.091-0.876-3.179-1.156l0.585,0.877c0.692,0.235,1.368,0.521,2.031,0.854c0.57,0.24,1.133,0.504,1.686,0.801   c-0.027-0.216-0.055-0.431-0.084-0.647C264.197,217.504,264.189,217.432,264.179,217.36L264.179,217.36z"/>
	<path style="fill:#FFE15A;" d="M249.405,217.417c-0.572,0.241-1.138,0.506-1.693,0.805c-0.007,0.055-0.015,0.111-0.021,0.167   C248.251,218.031,248.823,217.71,249.405,217.417z"/>
	<path style="fill:#FFE15A;" d="M264.29,218.222c-0.552-0.297-1.116-0.561-1.686-0.801c0.58,0.291,1.151,0.611,1.707,0.968   C264.305,218.333,264.297,218.277,264.29,218.222z"/>
	<path style="fill:#FFE15A;" d="M252.681,214.689l0.282-0.425c-1.732,0.354-3.394,1-4.985,1.888   c-0.032,0.25-0.064,0.499-0.096,0.749c0.016-0.13,0.034-0.259,0.05-0.387C249.45,215.672,251.034,215.052,252.681,214.689z"/>
	<path style="fill:#FFE15A;" d="M264.07,216.514c0.016,0.129,0.034,0.259,0.05,0.387c-0.032-0.25-0.064-0.499-0.096-0.749   c-1.59-0.887-3.25-1.532-4.982-1.884l0.281,0.421C260.97,215.053,262.552,215.673,264.07,216.514z"/>
	<path style="fill:#FFE15A;" d="M259.323,214.689l0.485,0.726c1.161,0.34,2.283,0.82,3.363,1.431c0.34,0.161,0.677,0.332,1.01,0.514   c-0.02-0.152-0.039-0.306-0.059-0.459c-0.016-0.13-0.034-0.259-0.05-0.387C262.552,215.673,260.97,215.053,259.323,214.689z"/>
	<path style="fill:#FFE15A;" d="M248.844,216.841c1.075-0.606,2.193-1.085,3.35-1.423l0.486-0.729   c-1.647,0.362-3.23,0.982-4.747,1.825c-0.016,0.129-0.034,0.259-0.05,0.387c-0.02,0.152-0.039,0.306-0.059,0.459   C248.161,217.176,248.5,217.004,248.844,216.841z"/>
	<path style="fill:#FFE15A;" d="M264.179,217.36c-0.334-0.181-0.671-0.352-1.01-0.514c0.345,0.195,0.687,0.401,1.023,0.62   C264.189,217.431,264.184,217.396,264.179,217.36z"/>
	<path style="fill:#FFE15A;" d="M247.809,217.466c0.34-0.221,0.686-0.429,1.035-0.626c-0.344,0.162-0.684,0.335-1.021,0.519   C247.819,217.396,247.814,217.431,247.809,217.466z"/>
	<path style="fill:#FFE15A;" d="M256.001,186.213v1.702h1.702v-5.106c0-0.941-0.761-1.702-1.702-1.702s-1.702,0.761-1.702,1.702   v5.106h0.674C255.585,186.823,256.001,186.213,256.001,186.213z"/>
	<path style="fill:#FFE15A;" d="M256.001,186.213c0,0-0.416,0.61-1.028,1.702h1.028V186.213z"/>
	<path style="fill:#FFE15A;" d="M254.299,187.915h-1.702c-0.941,0-1.702,0.761-1.702,1.702c0,0.94,0.761,1.702,1.702,1.702h0.682   c0.357-0.804,0.701-1.522,1.02-2.146L254.299,187.915L254.299,187.915z"/>
	<path style="fill:#FFE15A;" d="M256.001,191.321h3.404c0.941,0,1.702-0.761,1.702-1.702s-0.761-1.702-1.702-1.702h-1.702v1.702   C257.703,190.559,256.942,191.321,256.001,191.321z"/>
	<path style="fill:#FFE15A;" d="M254.299,189.619v-0.444c-0.319,0.624-0.662,1.343-1.02,2.146h2.722   C255.06,191.321,254.299,190.559,254.299,189.619z"/>
	<path style="fill:#FFE15A;" d="M256.001,191.321c0.941,0,1.702-0.761,1.702-1.702v-1.702h-1.702V191.321z"/>
	<path style="fill:#FFE15A;" d="M254.972,187.915h-0.674v1.258C254.544,188.697,254.768,188.282,254.972,187.915z"/>
	<path style="fill:#FFE15A;" d="M254.972,187.915c-0.205,0.366-0.429,0.78-0.674,1.258v0.444c0,0.94,0.761,1.702,1.702,1.702v-3.404   L254.972,187.915L254.972,187.915z"/>
</g>
<g>
	<path style="fill:#41479B;" d="M254.653,310.512c0.311-1.213,0.78-2.872,1.348-4.368c-0.512-1.348-1.106-2.563-1.738-3.193   c-1.003-0.997-2.333-1.546-3.748-1.546h-0.019c-1.421,0.004-2.754,0.562-3.756,1.57c-0.876,0.884-1.355,2.001-1.485,3.149   c0.765,1.148,1.481,2.407,2.109,3.795C249.749,310.275,252.183,310.468,254.653,310.512z M249.154,305.376   c0.362-0.362,0.907-0.415,1.36-0.565c0.509,0,0.987,0.196,1.348,0.555l1.2-1.207l-1.198,1.207c0.407,0.412,1.116,2.247,1.761,4.445   c-2.206-0.627-4.046-1.323-4.458-1.725C248.417,307.34,248.412,306.123,249.154,305.376z"/>
	<path style="fill:#41479B;" d="M254.653,310.512c-2.471-0.045-4.905-0.237-7.288-0.592c0.202,0.446,0.384,0.921,0.567,1.393   c1.122,0.612,2.664,1.156,4.113,1.588c0.968-0.867,1.871-1.477,2.472-1.843C254.558,310.889,254.603,310.708,254.653,310.512z"/>
	<path style="fill:#41479B;" d="M245.255,306.124c-0.14,1.238,0.135,2.513,0.86,3.583c0.416,0.072,0.831,0.15,1.251,0.212   C246.736,308.531,246.02,307.273,245.255,306.124z"/>
	<path style="fill:#41479B;" d="M246.115,309.707c0.19,0.28,0.405,0.547,0.652,0.795c0.282,0.281,0.689,0.551,1.165,0.811   c-0.184-0.472-0.365-0.947-0.567-1.393C246.946,309.857,246.531,309.78,246.115,309.707z"/>
	<path style="fill:#41479B;" d="M264.637,309.92c0.63-1.387,1.345-2.647,2.109-3.795c-0.13-1.148-0.61-2.266-1.486-3.149   c-1.001-1.007-2.333-1.566-3.755-1.57c-1.556,0.09-2.758,0.546-3.766,1.546c-0.634,0.629-1.226,1.843-1.738,3.193   c0.569,1.496,1.037,3.154,1.348,4.368C259.82,310.468,262.254,310.275,264.637,309.92z M258.94,304.159h0.034H258.94l1.2,1.207   c0.361-0.359,0.84-0.555,1.348-0.555h0.006c0.512,0,0.992,0.204,1.351,0.565c0.745,0.749,0.74,1.964-0.009,2.707   c-0.414,0.406-2.254,1.101-4.46,1.728c0.645-2.197,1.353-4.033,1.761-4.445L258.94,304.159z"/>
	<path style="fill:#41479B;" d="M257.349,310.512c0.05,0.196,0.095,0.376,0.137,0.547c0.601,0.366,1.502,0.976,2.472,1.842   c1.448-0.432,2.99-0.977,4.114-1.59c0.184-0.471,0.364-0.946,0.566-1.391C262.254,310.275,259.82,310.468,257.349,310.512z"/>
	<path style="fill:#41479B;" d="M266.747,306.124c-0.765,1.148-1.481,2.408-2.109,3.795c0.42-0.062,0.834-0.14,1.25-0.212   C266.613,308.639,266.887,307.364,266.747,306.124z"/>
	<path style="fill:#41479B;" d="M264.071,311.312c0.476-0.26,0.882-0.531,1.165-0.812c0.247-0.245,0.461-0.512,0.65-0.791   c-0.416,0.072-0.83,0.15-1.25,0.212C264.435,310.366,264.255,310.841,264.071,311.312z"/>
	<path style="fill:#41479B;" d="M255.539,310.534c0.047-0.014,0.095-0.02,0.142-0.029c0.051-0.01,0.102-0.02,0.155-0.025   c0.055-0.005,0.111-0.006,0.166-0.005c0.055-0.001,0.11,0,0.166,0.005c0.054,0.005,0.105,0.015,0.157,0.026   c0.046,0.009,0.092,0.015,0.139,0.029c0.296,0,0.589-0.017,0.885-0.022c-0.311-1.213-0.78-2.872-1.348-4.368   c-0.569,1.496-1.037,3.154-1.348,4.368C254.949,310.518,255.241,310.534,255.539,310.534z"/>
	<path style="fill:#41479B;" d="M255.367,310.599c0.047-0.02,0.092-0.039,0.141-0.054c0.01-0.003,0.019-0.009,0.029-0.011   c-0.296,0-0.59-0.018-0.885-0.023c-0.05,0.196-0.095,0.376-0.137,0.547c0.397-0.241,0.67-0.384,0.724-0.411   C255.282,310.627,255.325,310.617,255.367,310.599z"/>
	<path style="fill:#41479B;" d="M256.491,310.544c0.054,0.016,0.105,0.039,0.157,0.06c0.037,0.016,0.076,0.025,0.114,0.044   c0.054,0.026,0.326,0.169,0.724,0.411c-0.041-0.17-0.086-0.351-0.137-0.547c-0.295,0.005-0.587,0.022-0.885,0.022   C256.475,310.537,256.482,310.542,256.491,310.544z"/>
	<path style="fill:#41479B;" d="M251.162,313.755c-1.868,1.941-3.671,4.801-3.671,8.629c0,0.941,0.761,1.702,1.702,1.702   s1.702-0.761,1.702-1.702c0-4.399,3.519-7.193,5.106-8.232c-0.122-0.08-0.232-0.15-0.329-0.209   C254.153,313.942,252.653,313.866,251.162,313.755z"/>
	<path style="fill:#41479B;" d="M255.396,313.78c-0.749-0.171-2.003-0.475-3.352-0.877c-0.292,0.261-0.587,0.545-0.882,0.852   c1.491,0.112,2.992,0.187,4.51,0.189C255.559,313.874,255.467,313.819,255.396,313.78z"/>
	<path style="fill:#41479B;" d="M254.841,313.404c-0.015-0.014-0.035-0.019-0.049-0.033c-0.018-0.017-0.027-0.039-0.044-0.057   c-0.056-0.063-0.105-0.129-0.151-0.197c-0.025-0.038-0.055-0.072-0.077-0.111c-0.057-0.104-0.104-0.214-0.139-0.326   c-0.016-0.05-0.024-0.102-0.035-0.154c-0.016-0.074-0.029-0.146-0.034-0.221c-0.005-0.056-0.006-0.11-0.005-0.167   c0.001-0.077,0.011-0.154,0.022-0.231c0.006-0.039,0.003-0.077,0.011-0.116c0.045-0.192,0.104-0.444,0.174-0.729   c-0.601,0.366-1.502,0.976-2.472,1.843c1.35,0.402,2.603,0.706,3.352,0.877c-0.09-0.051-0.156-0.086-0.161-0.089   C255.085,313.614,254.957,313.514,254.841,313.404z"/>
	<path style="fill:#41479B;" d="M255.836,310.481c0.055-0.005,0.11-0.005,0.166-0.005   C255.947,310.474,255.892,310.476,255.836,310.481z"/>
	<path style="fill:#41479B;" d="M255.555,310.536c0.041-0.011,0.084-0.021,0.126-0.03c-0.047,0.01-0.095,0.016-0.142,0.029   C255.544,310.534,255.549,310.536,255.555,310.536z"/>
	<path style="fill:#41479B;" d="M256.326,310.507c-0.052-0.01-0.105-0.02-0.157-0.026   C256.221,310.486,256.273,310.496,256.326,310.507z"/>
	<path style="fill:#41479B;" d="M255.367,310.599c-0.042,0.018-0.086,0.027-0.127,0.049c-0.054,0.026-0.327,0.169-0.724,0.411   c-0.07,0.286-0.129,0.536-0.174,0.729c-0.009,0.039-0.005,0.077-0.011,0.116c0.026-0.169,0.071-0.337,0.152-0.497   C254.678,311.023,254.999,310.749,255.367,310.599z"/>
	<path style="fill:#41479B;" d="M255.51,310.546c0.015-0.005,0.03-0.006,0.045-0.01c-0.006,0-0.011-0.001-0.016-0.001   C255.529,310.537,255.52,310.543,255.51,310.546z"/>
	<path style="fill:#41479B;" d="M254.313,312.303c-0.005-0.056-0.006-0.111-0.005-0.167   C254.306,312.193,254.309,312.248,254.313,312.303z"/>
	<path style="fill:#41479B;" d="M254.793,313.371c0.014,0.014,0.034,0.019,0.049,0.033c-0.031-0.029-0.064-0.057-0.092-0.09   C254.765,313.332,254.776,313.354,254.793,313.371z"/>
	<path style="fill:#41479B;" d="M254.381,312.678c-0.016-0.05-0.024-0.102-0.035-0.154   C254.358,312.576,254.366,312.628,254.381,312.678z"/>
	<path style="fill:#41479B;" d="M254.598,313.116c-0.025-0.037-0.055-0.072-0.077-0.111   C254.543,313.044,254.573,313.079,254.598,313.116z"/>
	<path style="fill:#41479B;" d="M256.491,310.544c0.054,0.016,0.105,0.039,0.157,0.06   C256.597,310.583,256.546,310.561,256.491,310.544z"/>
	<path style="fill:#41479B;" d="M256.001,314.152c1.587,1.038,5.106,3.834,5.106,8.232c0,0.941,0.761,1.702,1.702,1.702   s1.702-0.761,1.702-1.702c0-3.828-1.803-6.688-3.672-8.629c-1.491,0.112-2.992,0.187-4.51,0.189   C256.233,314.001,256.123,314.072,256.001,314.152z"/>
	<path style="fill:#41479B;" d="M259.957,312.901c-1.35,0.404-2.603,0.707-3.352,0.879c-0.071,0.04-0.162,0.095-0.276,0.164   c1.52-0.001,3.02-0.076,4.51-0.189C260.545,313.447,260.25,313.162,259.957,312.901z"/>
	<path style="fill:#41479B;" d="M257.66,311.788c0.009,0.039,0.005,0.077,0.011,0.116c0.012,0.077,0.021,0.155,0.022,0.231   c0.001,0.056-0.001,0.111-0.005,0.167c-0.006,0.075-0.019,0.149-0.034,0.221c-0.011,0.053-0.019,0.104-0.035,0.154   c-0.035,0.112-0.081,0.222-0.139,0.326c-0.022,0.04-0.051,0.074-0.077,0.111c-0.046,0.069-0.095,0.135-0.151,0.197   c-0.016,0.019-0.026,0.04-0.044,0.057c-0.014,0.014-0.034,0.019-0.049,0.033c-0.116,0.11-0.244,0.21-0.394,0.286   c-0.005,0.002-0.071,0.037-0.161,0.089c0.749-0.171,2.002-0.475,3.352-0.879c-0.968-0.866-1.871-1.476-2.472-1.842   C257.557,311.345,257.615,311.595,257.66,311.788z"/>
	<path style="fill:#41479B;" d="M255.836,310.481c-0.052,0.005-0.104,0.015-0.155,0.025   C255.732,310.496,255.785,310.486,255.836,310.481z"/>
	<path style="fill:#41479B;" d="M256.002,310.476c0.055,0,0.111,0,0.166,0.005C256.112,310.476,256.057,310.474,256.002,310.476z"/>
	<path style="fill:#41479B;" d="M256.326,310.507c0.041,0.009,0.084,0.018,0.124,0.029c0.005,0,0.01,0,0.015,0   C256.42,310.522,256.372,310.516,256.326,310.507z"/>
	<path style="fill:#41479B;" d="M255.51,310.546c-0.049,0.015-0.095,0.034-0.141,0.054   C255.415,310.581,255.462,310.561,255.51,310.546z"/>
	<path style="fill:#41479B;" d="M257.655,312.524c-0.011,0.053-0.019,0.104-0.035,0.154   C257.637,312.628,257.644,312.576,257.655,312.524z"/>
	<path style="fill:#41479B;" d="M256.466,310.534c-0.005,0-0.01,0-0.015,0c0.014,0.004,0.027,0.005,0.041,0.01   C256.482,310.542,256.475,310.537,256.466,310.534z"/>
	<path style="fill:#41479B;" d="M256.648,310.604c0.364,0.151,0.68,0.422,0.87,0.802c0.081,0.161,0.126,0.329,0.152,0.497   c-0.006-0.039-0.003-0.077-0.011-0.116c-0.045-0.192-0.104-0.444-0.174-0.729c-0.397-0.241-0.67-0.384-0.724-0.411   C256.726,310.629,256.687,310.621,256.648,310.604z"/>
	<path style="fill:#41479B;" d="M257.694,312.135c0.001,0.056-0.001,0.111-0.005,0.167   C257.694,312.248,257.695,312.193,257.694,312.135z"/>
	<path style="fill:#41479B;" d="M257.209,313.371c0.017-0.017,0.027-0.039,0.044-0.057c-0.029,0.031-0.061,0.06-0.092,0.09   C257.176,313.39,257.196,313.385,257.209,313.371z"/>
	<path style="fill:#41479B;" d="M257.482,313.005c-0.023,0.04-0.053,0.074-0.077,0.111   C257.431,313.079,257.459,313.044,257.482,313.005z"/>
	<path style="fill:#41479B;" d="M256.327,313.944v-0.106c-0.107,0.021-0.217,0.035-0.326,0.035c-0.109,0-0.217-0.015-0.326-0.035   v0.106c-0.001,0-0.002,0-0.004,0c0.097,0.059,0.206,0.129,0.329,0.209c0.122-0.08,0.232-0.15,0.329-0.209   C256.33,313.944,256.328,313.944,256.327,313.944z"/>
	<path style="fill:#41479B;" d="M255.396,313.78c0.071,0.04,0.162,0.095,0.276,0.164c0.001,0,0.003,0,0.004,0v-0.106   c-0.015-0.003-0.029-0.001-0.044-0.004C255.564,313.817,255.479,313.799,255.396,313.78z"/>
	<path style="fill:#41479B;" d="M256.327,313.837v0.106c0.001,0,0.003,0,0.004,0c0.114-0.069,0.205-0.124,0.276-0.164   c-0.081,0.019-0.166,0.039-0.236,0.054C256.356,313.836,256.341,313.835,256.327,313.837z"/>
	<path style="fill:#41479B;" d="M255.676,313.837c0.107,0.021,0.217,0.035,0.326,0.035c-0.112,0-0.216-0.042-0.326-0.064   L255.676,313.837L255.676,313.837z"/>
	<path style="fill:#41479B;" d="M254.52,313.005c-0.059-0.104-0.104-0.214-0.139-0.326   C254.418,312.791,254.463,312.901,254.52,313.005z"/>
	<path style="fill:#41479B;" d="M254.841,313.404c0.116,0.11,0.244,0.21,0.394,0.286c0.005,0.002,0.071,0.037,0.161,0.089   c0.081,0.019,0.166,0.039,0.235,0.054c0.014,0.003,0.029,0.001,0.044,0.004v-0.029   C255.367,313.747,255.077,313.625,254.841,313.404z"/>
	<path style="fill:#41479B;" d="M254.308,312.135c0.001-0.077,0.011-0.154,0.022-0.231   C254.319,311.982,254.309,312.059,254.308,312.135z"/>
	<path style="fill:#41479B;" d="M254.749,313.314c-0.056-0.063-0.105-0.13-0.151-0.197   C254.644,313.185,254.693,313.251,254.749,313.314z"/>
	<path style="fill:#41479B;" d="M254.348,312.524c-0.016-0.074-0.029-0.146-0.034-0.221   C254.319,312.378,254.331,312.451,254.348,312.524z"/>
	<path style="fill:#41479B;" d="M256.001,313.872c0.109,0,0.217-0.015,0.326-0.035v-0.029   C256.218,313.83,256.113,313.872,256.001,313.872z"/>
	<path style="fill:#41479B;" d="M257.161,313.404c-0.235,0.221-0.526,0.344-0.834,0.405v0.029c0.015-0.002,0.029-0.001,0.044-0.004   c0.069-0.015,0.154-0.035,0.236-0.054c0.09-0.051,0.156-0.086,0.161-0.089C256.917,313.614,257.044,313.514,257.161,313.404z"/>
	<path style="fill:#41479B;" d="M257.672,311.904c0.013,0.077,0.021,0.155,0.023,0.231   C257.693,312.059,257.684,311.982,257.672,311.904z"/>
	<path style="fill:#41479B;" d="M257.62,312.678c-0.035,0.112-0.08,0.222-0.139,0.326   C257.54,312.901,257.585,312.791,257.62,312.678z"/>
	<path style="fill:#41479B;" d="M257.689,312.303c-0.006,0.075-0.019,0.149-0.034,0.221   C257.672,312.451,257.684,312.378,257.689,312.303z"/>
	<path style="fill:#41479B;" d="M257.404,313.116c-0.046,0.069-0.095,0.135-0.151,0.197   C257.309,313.251,257.358,313.185,257.404,313.116z"/>
	<path style="fill:#41479B;" d="M256.327,310.538c0.041,0,0.082-0.004,0.124-0.004c-0.041-0.011-0.082-0.02-0.124-0.029   c-0.052-0.01-0.105-0.021-0.157-0.026c-0.055-0.005-0.11-0.005-0.166-0.005c-0.056,0-0.111,0-0.166,0.005   c-0.051,0.005-0.104,0.015-0.155,0.025c-0.042,0.009-0.085,0.019-0.126,0.03c0.04,0,0.08,0.004,0.121,0.004v3.27   c0.109,0.021,0.214,0.064,0.326,0.064c0.112,0,0.216-0.042,0.326-0.064v-3.27H256.327z"/>
	<path style="fill:#41479B;" d="M255.367,310.599c-0.369,0.15-0.69,0.424-0.885,0.807c-0.081,0.161-0.126,0.329-0.152,0.497   c-0.012,0.077-0.021,0.155-0.022,0.231c-0.001,0.056,0.001,0.111,0.005,0.167c0.006,0.075,0.019,0.149,0.034,0.221   c0.011,0.052,0.019,0.104,0.035,0.154c0.035,0.112,0.08,0.222,0.139,0.326c0.023,0.04,0.052,0.074,0.077,0.111   c0.046,0.069,0.095,0.135,0.151,0.197c0.029,0.031,0.061,0.06,0.092,0.09c0.236,0.221,0.526,0.344,0.834,0.405v-3.27   c-0.04,0-0.08-0.004-0.121-0.004c-0.015,0.004-0.03,0.005-0.045,0.01C255.462,310.561,255.415,310.581,255.367,310.599z"/>
	<path style="fill:#41479B;" d="M256.648,310.604c-0.052-0.021-0.104-0.044-0.157-0.06c-0.014-0.004-0.027-0.005-0.041-0.01   c-0.041,0.001-0.082,0.004-0.124,0.004v3.27c0.307-0.061,0.599-0.185,0.834-0.405c0.031-0.029,0.064-0.057,0.092-0.09   c0.056-0.063,0.105-0.13,0.151-0.197c0.025-0.038,0.055-0.072,0.077-0.111c0.059-0.104,0.104-0.214,0.139-0.326   c0.016-0.05,0.024-0.102,0.035-0.154c0.016-0.074,0.029-0.146,0.034-0.221c0.005-0.056,0.006-0.111,0.005-0.167   c-0.001-0.077-0.011-0.154-0.022-0.231c-0.026-0.169-0.071-0.337-0.152-0.497C257.328,311.028,257.013,310.756,256.648,310.604z"/>
</g>
<g>
</g>
<g>
</g>
<g>
</g>
<g>
</g>
<g>
</g>
<g>
</g>
<g>
</g>
<g>
</g>
<g>
</g>
<g>
</g>
<g>
</g>
<g>
</g>
<g>
</g>
<g>
</g>
<g>
</g>
</svg>
