<?xml version="1.0" encoding="iso-8859-1"?>
<!-- Generator: Adobe Illustrator 19.0.0, SVG Export Plug-In . SVG Version: 6.00 Build 0)  -->
<svg xmlns="http://www.w3.org/2000/svg" xmlns:xlink="http://www.w3.org/1999/xlink" version="1.1" id="Layer_1" x="0px" y="0px" viewBox="0 0 512 512" style="enable-background:new 0 0 512 512;" xml:space="preserve">
<path style="fill:#F5F5F5;" d="M480.743,298.234l-0.014-80.928l-0.005-26.976l-0.007-42.191  c-0.001-11.527-5.675-22.234-15.035-28.746c-0.807-0.561-1.631-1.102-2.491-1.6l-23.547-13.589L417.6,91.482L399.853,81.24  l-94.342-54.447l-19.856-11.46l-12.306-7.101c-10.843-6.257-24.201-6.255-35.043,0.006l-12.222,7.059l-19.855,11.468l-94.331,54.482  L82.156,98.424l-22.038,12.729l-11.616,6.709c-0.835,0.483-1.637,1.008-2.422,1.55c-9.4,6.51-15.096,17.245-15.095,28.8  l0.007,42.117l0.005,26.976l0.014,80.928l0.005,26.976l0.007,42.191c0.002,11.527,5.675,22.234,15.035,28.746  c0.807,0.561,1.631,1.102,2.492,1.6l23.216,13.398l22.044,12.723l18.078,10.433l94.343,54.447l19.856,11.46l12.305,7.101  c10.843,6.258,24.201,6.255,35.043-0.006l12.222-7.059l19.856-11.468l94.333-54.483l27.136-15.673l22.038-12.729l14.22-8.213  c0.835-0.483,1.637-1.007,2.422-1.55c9.4-6.51,15.096-17.245,15.095-28.8l-0.007-42.117L480.743,298.234z"/>
<path style="fill:#41479B;" d="M290.045,262.61l-178.33,167.903l0.431,0.249l94.343,54.447l19.856,11.46l12.305,7.101  c10.843,6.257,24.201,6.256,35.043-0.006l12.222-7.059l19.856-11.468l94.333-54.483l27.136-15.673l22.038-12.729l14.22-8.213  c0.835-0.483,1.637-1.006,2.422-1.551c9.4-6.51,15.096-17.245,15.095-28.8l-0.007-42.117l-0.005-26.976l-0.006-40.464  l-92.076-26.068l-95.723,26.068C293.195,257.433,292.145,260.633,290.045,262.61z"/>
<path style="fill:#FF4B55;" d="M293.195,254.231h187.8l-0.006-40.464l-0.005-26.976l-0.007-42.192  c-0.001-11.527-5.675-22.234-15.035-28.746c-0.807-0.561-1.631-1.102-2.492-1.6l-23.547-13.589l-22.044-12.722L400.111,77.7  l-94.342-54.447l-19.856-11.46l-12.305-7.101c-10.844-6.258-24.202-6.256-35.043,0.006l-12.222,7.059l-19.856,11.468l-94.331,54.483  l-0.432,0.249l178.32,167.893C292.145,247.83,293.195,251.03,293.195,254.231z"/>
<circle style="fill:#FFE15A;" cx="136.399" cy="215.91" r="31.17"/>
<path style="fill:#8CD7FF;" d="M174.504,244.79c0.124,3.783,0.535,7.684,0.932,11.457c1.557,14.804,2.904,27.592-11.314,32.552  c-3.361,1.173-7.94,1.829-12.367,2.463c-6.355,0.911-12.047,1.725-15.356,4.032c-3.31-2.306-9.001-3.121-15.356-4.032  c-4.427-0.634-9.007-1.292-12.367-2.463c-14.218-4.96-12.872-17.748-11.314-32.552c0.397-3.773,0.808-7.674,0.932-11.457  c0.442-13.404-2.384-26.538-4.37-33.962c3.307,1.358,7.893,2.583,13.515,2.485c2.422-0.048,5.143-0.393,8.022-0.758  c6.572-0.838,14.021-1.781,19.983,0.576l0.956,0.426l0.956-0.426c5.961-2.357,13.41-1.414,19.983-0.576  c2.879,0.365,5.599,0.71,8.022,0.758c5.622,0.099,10.209-1.127,13.516-2.485C176.888,218.252,174.063,231.387,174.504,244.79z"/>
<path style="fill:#FF4B55;" d="M179.698,244.618c-0.627-19,5.856-38.062,5.922-38.252l-4.087-2.869  c-0.053,0.043-6.198,4.81-16.072,4.62c-2.146-0.041-4.732-0.371-7.47-0.719c-6.875-0.87-14.63-1.858-21.593,0.546  c-6.962-2.403-14.717-1.416-21.593-0.546c-2.738,0.347-5.324,0.678-7.47,0.719c-9.875,0.19-16.019-4.577-16.072-4.62l-4.085,2.869  c0.065,0.19,6.549,19.252,5.922,38.252c-0.118,3.598-0.519,7.404-0.907,11.085c-1.562,14.853-3.333,31.69,14.771,38.004  c3.836,1.337,8.683,1.927,13.341,2.699c13.983,2.317,16.094,5.889,16.094,5.889s2.111-3.573,16.092-5.889  c4.658-0.772,9.505-1.363,13.341-2.699c18.105-6.316,16.334-23.151,14.771-38.004C180.217,252.022,179.816,248.216,179.698,244.618z   M174.504,244.79c0.124,3.783,0.535,7.684,0.932,11.457c1.557,14.804,2.904,27.592-11.314,32.552  c-3.361,1.173-7.94,1.829-12.367,2.463c-6.355,0.911-12.047,1.725-15.356,4.032c-3.31-2.306-9.001-3.121-15.356-4.032  c-4.427-0.634-9.007-1.292-12.367-2.463c-14.218-4.96-12.872-17.748-11.314-32.552c0.397-3.773,0.808-7.674,0.932-11.457  c0.442-13.404-2.384-26.538-4.37-33.962c3.307,1.358,7.893,2.583,13.515,2.485c2.422-0.048,5.143-0.393,8.022-0.758  c6.572-0.838,14.021-1.781,19.983,0.576l0.956,0.426l0.956-0.426c5.961-2.357,13.41-1.414,19.983-0.576  c2.879,0.365,5.599,0.71,8.022,0.758c5.622,0.099,10.209-1.127,13.516-2.485C176.888,218.252,174.063,231.387,174.504,244.79z"/>
<polygon style="fill:#F5F5F5;" points="163.191,276.729 163.191,265.277 165.153,265.277 165.153,261.899 160.353,261.899   160.353,250.138 165.153,250.138 143.202,234.588 143.202,228.738 146.255,228.738 136.399,221.756 126.544,228.738   129.596,228.738 129.596,234.588 107.644,250.138 112.445,250.138 112.445,261.899 107.644,261.899 107.644,265.277   109.608,265.277 109.608,276.729 106.74,276.729 106.74,281.672 166.059,281.672 166.059,276.729 "/>
<g>
	<path style="fill:#41AA5A;" d="M107.927,229.861c-0.7,1.658-0.581,3.414,0.163,4.707c1.446-0.369,2.787-1.508,3.489-3.165   c0.7-1.658,0.581-3.414-0.163-4.707C109.97,227.064,108.628,228.203,107.927,229.861z"/>
	<path style="fill:#41AA5A;" d="M111.328,230.381c0.458,1.74,1.626,3.058,3.005,3.628c0.92-1.174,1.286-2.897,0.828-4.636   c-0.458-1.74-1.626-3.058-3.005-3.628C111.236,226.92,110.87,228.641,111.328,230.381z"/>
	<path style="fill:#41AA5A;" d="M116.611,227.488c1.687,0.627,3.436,0.432,4.696-0.369c-0.431-1.428-1.628-2.719-3.315-3.346   c-1.687-0.627-3.436-0.432-4.696,0.369C113.727,225.569,114.924,226.861,116.611,227.488z"/>
	<path style="fill:#41AA5A;" d="M118.193,224.519c1.647-0.725,2.767-2.082,3.114-3.533c-1.303-0.725-3.062-0.818-4.708-0.094   c-1.647,0.725-2.766,2.082-3.114,3.533C114.788,225.15,116.546,225.244,118.193,224.519z"/>
	<path style="fill:#41AA5A;" d="M107.124,226.021c1.468-1.041,2.292-2.596,2.341-4.088c-1.422-0.448-3.163-0.186-4.632,0.855   c-1.468,1.04-2.292,2.596-2.341,4.088C103.916,227.323,105.656,227.061,107.124,226.021z"/>
	<path style="fill:#41AA5A;" d="M105.898,223.846c2.259,1.293,4.677,1.644,6.477,1.124c-0.463-1.816-1.989-3.724-4.248-5.017   s-4.677-1.644-6.477-1.124C102.113,220.644,103.641,222.552,105.898,223.846z"/>
</g>
<path style="fill:#FFE15A;" d="M115.426,226.498c0-0.877-0.699-1.584-1.569-1.616c-0.032-0.87-0.737-1.569-1.616-1.569  c-0.877,0-1.584,0.699-1.616,1.569c-0.87,0.032-1.569,0.737-1.569,1.616c0,0.877,0.699,1.582,1.569,1.616  c0.032,0.87,0.737,1.569,1.616,1.569s1.584-0.699,1.616-1.569C114.727,228.08,115.426,227.375,115.426,226.498z"/>
<circle style="fill:#F5F5F5;" cx="112.239" cy="226.5" r="0.956"/>
<path style="fill:#FFE15A;" d="M110.342,224.888c0-0.722-0.575-1.302-1.289-1.328c-0.027-0.715-0.607-1.289-1.329-1.289  s-1.302,0.575-1.328,1.289c-0.715,0.027-1.289,0.607-1.289,1.328c0,0.722,0.575,1.302,1.289,1.328  c0.027,0.715,0.607,1.289,1.328,1.289c0.722,0,1.302-0.575,1.329-1.289C109.768,226.189,110.342,225.609,110.342,224.888z"/>
<circle style="fill:#F5F5F5;" cx="107.719" cy="224.89" r="0.786"/>
<path style="fill:#FFE15A;" d="M115.218,222.636c0-0.52-0.415-0.938-0.93-0.957c-0.02-0.515-0.437-0.93-0.957-0.93  c-0.52,0-0.938,0.415-0.957,0.93c-0.516,0.02-0.93,0.437-0.93,0.957s0.415,0.938,0.93,0.957c0.019,0.515,0.437,0.93,0.957,0.93  c0.52,0,0.938-0.415,0.957-0.93C114.804,223.573,115.218,223.156,115.218,222.636z"/>
<circle style="fill:#F5F5F5;" cx="113.329" cy="222.64" r="0.566"/>
<path style="fill:#FFE15A;" d="M111.64,221.007c0-0.52-0.414-0.938-0.93-0.957c-0.02-0.515-0.437-0.93-0.957-0.93  c-0.52,0-0.938,0.414-0.957,0.93c-0.515,0.02-0.93,0.437-0.93,0.957s0.415,0.938,0.93,0.957c0.02,0.515,0.437,0.93,0.957,0.93  c0.52,0,0.938-0.415,0.957-0.93C111.226,221.946,111.64,221.527,111.64,221.007z"/>
<g>
	<circle style="fill:#F5F5F5;" cx="109.759" cy="221.01" r="0.566"/>
	<path style="fill:#F5F5F5;" d="M153.154,235.287h18.018c-1.154-2.642-3.418-4.686-6.225-5.519c0.205-1.312,0.33-2.767,0.33-4.33   c0-5.442-1.395-9.854-3.114-9.854s-3.114,4.412-3.114,9.854c0,1.561,0.125,3.018,0.33,4.33   C156.572,230.6,154.307,232.644,153.154,235.287z"/>
</g>
<path style="fill:#FFE15A;" d="M136.399,323.728c-37.963,0-68.848-30.884-68.848-68.848h12.991  c0,30.801,25.057,55.857,55.857,55.857s55.857-25.057,55.857-55.857h12.99C205.247,292.844,174.363,323.728,136.399,323.728z"/>
<path style="fill:#C87878;" d="M161.915,193.364h-11.228c1.128,0,2.041-0.915,2.041-2.041c0-1.127-0.913-2.041-2.041-2.041h-14.288  c-1.128,0-2.041,0.913-2.041,2.041c0,1.127,0.913,2.041,2.041,2.041h-25.515c-1.692,0-3.062,1.371-3.062,3.062  c0,1.692,1.371,3.062,3.062,3.062h9.185c-1.127,0-2.04,0.915-2.04,2.041s0.913,2.041,2.041,2.041h18.372  c1.128,0,2.041-0.913,2.041-2.041c0-1.127-0.913-2.041-2.04-2.041h23.474c1.692,0,3.062-1.371,3.062-3.062  C164.977,194.734,163.607,193.364,161.915,193.364z"/>
<g>
</g>
<g>
</g>
<g>
</g>
<g>
</g>
<g>
</g>
<g>
</g>
<g>
</g>
<g>
</g>
<g>
</g>
<g>
</g>
<g>
</g>
<g>
</g>
<g>
</g>
<g>
</g>
<g>
</g>
</svg>
