<?xml version="1.0" encoding="iso-8859-1"?>
<!-- Generator: Adobe Illustrator 19.0.0, SVG Export Plug-In . SVG Version: 6.00 Build 0)  -->
<svg xmlns="http://www.w3.org/2000/svg" xmlns:xlink="http://www.w3.org/1999/xlink" version="1.1" id="Layer_1" x="0px" y="0px" viewBox="0 0 512.002 512.002" style="enable-background:new 0 0 512.002 512.002;" xml:space="preserve">
<path style="fill:#FFE15A;" d="M482.436,296.746l-0.014-81.491l-0.005-27.164l-0.008-42.486  c-0.003-11.607-5.715-22.388-15.14-28.946c-0.812-0.565-1.642-1.11-2.509-1.611l-23.71-13.684l-22.198-12.81l-17.87-10.313  l-94.999-54.826l-19.993-11.54l-12.39-7.15c-10.918-6.301-24.37-6.3-35.287,0.006l-12.307,7.108l-19.995,11.548L111.024,78.25  L81.076,95.546l-22.191,12.818l-11.697,6.756c-0.841,0.486-1.648,1.015-2.439,1.561c-9.465,6.556-15.202,17.365-15.2,29.001  l0.007,42.41l0.005,27.164l0.014,81.491l0.005,27.164l0.007,42.486c0.003,11.607,5.715,22.388,15.14,28.946  c0.812,0.565,1.642,1.11,2.509,1.611l23.377,13.491l22.198,12.811l18.204,10.506l94.999,54.826l19.995,11.539l12.39,7.151  c10.92,6.301,24.37,6.298,35.287-0.006l12.307-7.108l19.995-11.548l94.989-54.863l27.325-15.782l22.191-12.818l14.319-8.27  c0.841-0.486,1.648-1.015,2.439-1.562c9.465-6.556,15.201-17.365,15.2-29.001l-0.008-42.41L482.436,296.746z"/>
<path style="fill:#FF4B55;" d="M482.448,366.32l-0.008-42.41l-0.005-27.164l-0.014-81.491l-0.005-27.164l-0.008-42.486  c-0.001-3.269-0.47-6.467-1.331-9.53H30.899c-0.875,3.085-1.35,6.31-1.348,9.605l0.007,42.41l0.005,27.164l0.014,81.491  l0.005,27.164l0.007,42.485c0,3.269,0.469,6.467,1.331,9.53h450.181C480.545,377.879,482.558,371.516,482.448,366.32z"/>
<g>
	<path style="fill:#4173CD;" d="M48.583,397.729l22.029,12.714l22.198,12.812l18.204,10.506l50.912,29.383l44.087,25.443   l19.995,11.539l12.39,7.151c10.918,6.301,24.37,6.298,35.287-0.006l12.307-7.108l19.995-11.548l44.102-25.472l50.887-29.391   l27.325-15.782l22.191-12.818l12.851-7.423H48.583L48.583,397.729z"/>
	<path style="fill:#4173CD;" d="M463.415,114.271l-22.363-12.906l-22.198-12.81l-17.87-10.313L350.073,48.86l-44.087-25.444   l-19.995-11.539l-12.39-7.151c-10.918-6.302-24.37-6.3-35.287,0.006l-12.307,7.108l-19.995,11.548L161.91,48.86l-50.886,29.39   L81.076,95.546l-22.191,12.818l-10.23,5.908L463.415,114.271L463.415,114.271z"/>
</g>
<path style="fill:#FFE15A;" d="M456.461,264.897H55.121c-2.968,0-5.374-2.406-5.374-5.374v-0.7c0-2.968,2.406-5.374,5.374-5.374  h401.34c2.968,0,5.374,2.406,5.374,5.374v0.7C461.835,262.492,459.429,264.897,456.461,264.897z"/>
<polygon style="fill:#F5F5F5;" points="378.845,242.004 398.877,233.419 418.909,242.004 398.877,250.589 "/>
<path style="fill:#FFE15A;" d="M383.773,238.347H89.811c-2.019,0-3.657,1.637-3.657,3.656s1.637,3.656,3.657,3.656h293.962  c2.019,0,3.656-1.637,3.656-3.656C387.43,239.984,385.793,238.347,383.773,238.347z"/>
<polygon style="fill:#F5F5F5;" points="399.672,221.972 419.704,213.386 439.736,221.972 419.704,230.557 "/>
<path style="fill:#FFE15A;" d="M404.6,218.315H110.638c-2.019,0-3.657,1.637-3.657,3.656c0,2.019,1.637,3.656,3.657,3.656H404.6  c2.019,0,3.656-1.637,3.656-3.656C408.257,219.952,406.62,218.315,404.6,218.315z"/>
<path style="fill:#F5F5F5;" d="M255.791,184.769c-50.835,0-95.186,28.787-118.94,71.543c23.754,42.756,68.105,71.543,118.94,71.543  s95.186-28.787,118.94-71.543C350.977,213.556,306.626,184.769,255.791,184.769z"/>
<path style="fill:#464655;" d="M136.851,256.312c23.754,42.756,68.105,71.543,118.94,71.543c8.489,0,16.774-0.871,24.836-2.408  c-6.155-13.51-27.8-13.486-29.128-18.579c-1.431-5.485,17.648-4.293,20.987-8.824c3.338-4.531-18.124-6.438-19.079-10.969  c-0.953-4.531,8.585-7.632,10.255-14.786c1.67-7.154,5.485-9.301,8.346-13.594c2.862-4.293-4.77-5.723-6.677-20.032  c-1.908-14.309-13.116-16.217-18.601-27.901c-5.485-11.686,3.338-20.271,9.061-25.994  C204.956,184.769,160.605,213.556,136.851,256.312z"/>
<g>
	<rect x="181.39" y="230.56" style="fill:#F5F5F5;" width="5.723" height="22.894"/>
	<rect x="192.84" y="230.56" style="fill:#F5F5F5;" width="5.723" height="22.894"/>
	<rect x="204.28" y="230.56" style="fill:#F5F5F5;" width="5.723" height="22.894"/>
	<rect x="215.73" y="230.56" style="fill:#F5F5F5;" width="5.723" height="22.894"/>
	<rect x="227.18" y="230.56" style="fill:#F5F5F5;" width="5.723" height="22.894"/>
	<rect x="238.62" y="230.56" style="fill:#F5F5F5;" width="5.723" height="22.894"/>
	<rect x="181.39" y="264.9" style="fill:#F5F5F5;" width="5.723" height="22.894"/>
	<rect x="192.84" y="264.9" style="fill:#F5F5F5;" width="5.723" height="22.894"/>
	<rect x="204.28" y="264.9" style="fill:#F5F5F5;" width="5.723" height="22.894"/>
	<rect x="215.73" y="264.9" style="fill:#F5F5F5;" width="5.723" height="22.894"/>
	<rect x="227.18" y="264.9" style="fill:#F5F5F5;" width="5.723" height="22.894"/>
	<rect x="238.62" y="264.9" style="fill:#F5F5F5;" width="5.723" height="22.894"/>
</g>
<g>
	<rect x="267.24" y="230.56" style="fill:#464655;" width="5.723" height="22.894"/>
	<rect x="278.69" y="230.56" style="fill:#464655;" width="5.723" height="22.894"/>
	<rect x="290.13" y="230.56" style="fill:#464655;" width="5.723" height="22.894"/>
	<rect x="301.58" y="230.56" style="fill:#464655;" width="5.723" height="22.894"/>
	<rect x="313.03" y="230.56" style="fill:#464655;" width="5.723" height="22.894"/>
	<rect x="324.48" y="230.56" style="fill:#464655;" width="5.723" height="22.894"/>
	<rect x="267.24" y="264.9" style="fill:#464655;" width="5.723" height="22.894"/>
	<rect x="278.69" y="264.9" style="fill:#464655;" width="5.723" height="22.894"/>
	<rect x="290.13" y="264.9" style="fill:#464655;" width="5.723" height="22.894"/>
	<rect x="301.58" y="264.9" style="fill:#464655;" width="5.723" height="22.894"/>
	<rect x="313.03" y="264.9" style="fill:#464655;" width="5.723" height="22.894"/>
	<rect x="324.48" y="264.9" style="fill:#464655;" width="5.723" height="22.894"/>
</g>
<path style="fill:#245DBD;" d="M432.404,252.557c-4.582,10.648-17.628,11.9-10.4,39.043l3.701-3.758c0,0,3.878,10.231,13.22,17.12  c0,0,11.458-9.604,12.339-24.846l4.76,2.088C456.025,282.204,453.733,254.435,432.404,252.557z"/>
<g>
	<path style="fill:#FF4B55;" d="M449.327,274.375c-0.366,0-0.73-0.17-1.006-0.502c-4.489-5.415-10.207-7.151-10.262-7.171   c-0.755-0.222-1.217-1.128-1.03-2.022c0.187-0.887,0.953-1.442,1.705-1.22c0.265,0.079,6.531,1.964,11.598,8.078   c0.545,0.652,0.537,1.716-0.016,2.362C450.039,274.219,449.684,274.375,449.327,274.375z"/>
	<path style="fill:#FF4B55;" d="M446.095,287.006c-0.421,0-0.84-0.221-1.118-0.652c-3.33-5.129-7.106-7.92-7.144-7.947   c-0.664-0.482-0.867-1.513-0.46-2.303c0.41-0.782,1.278-1.025,1.942-0.541c0.174,0.124,4.258,3.152,7.899,8.756   c0.474,0.731,0.357,1.781-0.259,2.342C446.699,286.895,446.396,287.006,446.095,287.006z"/>
	<path style="fill:#FF4B55;" d="M438.695,301.066c-0.08,0-0.16-0.006-0.242-0.026c-0.766-0.156-1.283-1.017-1.151-1.924   c0.556-3.824,0.091-10.094-0.672-13.33c-0.21-0.887,0.229-1.807,0.977-2.062c0.757-0.241,1.528,0.274,1.738,1.161   c0.862,3.654,1.366,10.472,0.739,14.791C439.964,300.493,439.367,301.066,438.695,301.066z"/>
	<path style="fill:#FF4B55;" d="M428.776,285.643c-0.402,0-0.801-0.202-1.08-0.594c-0.501-0.705-0.427-1.762,0.167-2.356   c0.036-0.033,3.635-3.686,4.575-8.743c0.167-0.901,0.915-1.468,1.68-1.272c0.76,0.196,1.242,1.09,1.075,1.989   c-1.151,6.186-5.335,10.407-5.513,10.583C429.416,285.512,429.096,285.643,428.776,285.643z"/>
	<path style="fill:#FF4B55;" d="M424.86,274.956c-0.474,0-0.936-0.281-1.203-0.796c-0.407-0.784-0.201-1.813,0.462-2.297   c0.052-0.039,5.167-3.804,6.753-7.914c0.322-0.849,1.165-1.22,1.87-0.829c0.707,0.385,1.018,1.377,0.697,2.212   c-1.947,5.044-7.604,9.2-7.844,9.376C425.365,274.877,425.111,274.956,424.86,274.956z"/>
</g>
<path style="fill:#245DBD;" d="M75.052,256.141c-3.833,8.904-14.74,9.951-8.696,32.647l3.095-3.143c0,0,3.243,8.554,11.054,14.316  c0,0,9.581-8.03,10.317-20.776l3.98,1.746C94.803,280.932,92.886,257.712,75.052,256.141z"/>
<g>
	<path style="fill:#FF4B55;" d="M89.202,274.385c-0.306,0-0.61-0.142-0.841-0.42c-3.754-4.529-8.535-5.98-8.581-5.996   c-0.631-0.185-1.018-0.944-0.861-1.691c0.156-0.742,0.797-1.206,1.426-1.02c0.221,0.065,5.461,1.642,9.699,6.754   c0.456,0.546,0.449,1.435-0.014,1.974C89.798,274.254,89.5,274.385,89.202,274.385z"/>
	<path style="fill:#FF4B55;" d="M86.5,284.947c-0.352,0-0.702-0.185-0.935-0.546c-2.784-4.288-5.942-6.623-5.975-6.644   c-0.555-0.404-0.726-1.266-0.385-1.926c0.344-0.655,1.068-0.857,1.623-0.452c0.145,0.104,3.56,2.636,6.606,7.322   c0.396,0.611,0.3,1.49-0.216,1.958C87.003,284.854,86.751,284.947,86.5,284.947z"/>
	<path style="fill:#FF4B55;" d="M80.311,296.704c-0.066,0-0.134-0.005-0.202-0.023c-0.64-0.131-1.073-0.851-0.962-1.61   c0.465-3.197,0.076-8.44-0.562-11.146c-0.175-0.742,0.191-1.511,0.817-1.725c0.634-0.201,1.278,0.229,1.453,0.971   c0.721,3.055,1.142,8.756,0.617,12.368C81.372,296.224,80.874,296.704,80.311,296.704z"/>
	<path style="fill:#FF4B55;" d="M72.018,283.806c-0.336,0-0.67-0.169-0.902-0.496c-0.419-0.59-0.357-1.473,0.14-1.969   c0.03-0.027,3.04-3.083,3.825-7.311c0.14-0.754,0.765-1.227,1.405-1.063c0.636,0.164,1.038,0.911,0.899,1.665   c-0.962,5.172-4.461,8.701-4.61,8.849C72.552,283.697,72.285,283.806,72.018,283.806z"/>
	<path style="fill:#FF4B55;" d="M68.743,274.87c-0.396,0-0.784-0.235-1.006-0.666c-0.341-0.655-0.169-1.517,0.387-1.921   c0.044-0.033,4.32-3.18,5.647-6.618c0.27-0.71,0.973-1.02,1.563-0.694c0.592,0.322,0.852,1.151,0.582,1.849   c-1.628,4.218-6.358,7.693-6.559,7.84C69.165,274.805,68.952,274.87,68.743,274.87z"/>
</g>
<g>
</g>
<g>
</g>
<g>
</g>
<g>
</g>
<g>
</g>
<g>
</g>
<g>
</g>
<g>
</g>
<g>
</g>
<g>
</g>
<g>
</g>
<g>
</g>
<g>
</g>
<g>
</g>
<g>
</g>
</svg>
