<?xml version="1.0" encoding="iso-8859-1"?>
<!-- Generator: Adobe Illustrator 19.0.0, SVG Export Plug-In . SVG Version: 6.00 Build 0)  -->
<svg xmlns="http://www.w3.org/2000/svg" xmlns:xlink="http://www.w3.org/1999/xlink" version="1.1" id="Layer_1" x="0px" y="0px" viewBox="0 0 512.001 512.001" style="enable-background:new 0 0 512.001 512.001;" xml:space="preserve">
<path style="fill:#F5F5F5;" d="M29.588,366.395l-0.036-220.713c-0.003-12.607,6.722-24.257,17.639-30.562L238.315,4.731  c10.917-6.306,24.368-6.307,35.287-0.006L464.763,115.05c10.918,6.302,17.646,17.95,17.649,30.557l0.036,220.713  c0.003,12.607-6.722,24.257-17.639,30.563L273.684,507.271c-10.917,6.306-24.368,6.307-35.287,0.006L47.237,396.952  C36.318,390.65,29.591,379.002,29.588,366.395z"/>
<g>
	<path style="fill:#FF4B55;" d="M41.36,119.34v136.839l19.693,7.319l22.118-7.319V94.337L47.19,115.119   C45.083,116.336,43.137,117.756,41.36,119.34z"/>
	<polygon style="fill:#FF4B55;" points="96.774,86.481 256,86.481 259.749,53.556 256,19.56 212.639,19.56  "/>
	<path style="fill:#FF4B55;" d="M108.019,108.788l84.04,87.312l56.023,58.205c0.029-0.021,0.057-0.046,0.086-0.067   c0.06-0.054,0.12-0.109,0.182-0.156c0.444-0.336,7.647-6.784,7.648-6.828c0.156-3.671-0.084-10.216-0.049-11.177   c0.003-0.06,0.011-0.116,0.014-0.176L215.18,193.53l-81.565-84.741h-25.597v-0.001H108.019z"/>
</g>
<path style="fill:#41479B;" d="M482.412,145.607c-0.003-12.607-6.729-24.255-17.649-30.557L273.601,4.726  C268.154,1.583,262.078,0.008,256,0.002V19.56v66.92v20.003H149.818L256,217.832v16.963c0,0.374-0.023,0.737-0.035,1.106l0,0  c-0.001,0.06-0.011,0.117-0.014,0.176c-0.036,0.961-0.104,1.908-0.216,2.829c-0.018,0.142-0.05,0.276-0.069,0.419  c-0.505,3.745-1.61,7.128-3.164,9.859c-0.021,0.039-0.042,0.076-0.065,0.115c-0.796,1.38-1.706,2.589-2.704,3.595  c-0.03,0.03-0.061,0.059-0.091,0.089c-0.411,0.405-0.846,0.764-1.29,1.1c-0.062,0.047-0.122,0.102-0.182,0.156  c-0.029,0.021-0.057,0.046-0.086,0.067l0,0c-1.662,1.198-3.502,1.874-5.444,1.874h-23.207L95.668,126.396v129.783h-5.872h-6.624  H41.36h-7.799H29.57l0.019,110.216c0.003,12.607,6.729,24.255,17.649,30.557l191.161,110.325c10.918,6.301,24.37,6.299,35.287-0.006  L464.81,396.882c10.917-6.305,17.64-17.955,17.639-30.562L482.412,145.607z"/>
<path style="fill:#FFE15A;" d="M324.66,208.514c-1.293,0-2.342,1.048-2.342,2.342v39.803c0,79.604,56.191,93.653,56.191,93.653  s56.192-14.047,56.192-93.653v-39.803c0-1.293-1.048-2.342-2.342-2.342L324.66,208.514L324.66,208.514z"/>
<path style="fill:#F5F5F5;" d="M428.848,214.367v36.29c0,67.708-41.852,84.786-50.336,87.55c-8.533-2.783-50.34-19.878-50.34-87.55  v-36.29L428.848,214.367 M432.361,208.514H324.66c-1.293,0-2.342,1.048-2.342,2.342v39.803c0,79.604,56.191,93.653,56.191,93.653  s56.192-14.047,56.192-93.653v-39.803C434.701,209.562,433.653,208.514,432.361,208.514L432.361,208.514z"/>
<path style="fill:#73AF00;" d="M384.794,282.672h-11.978c0,0-9.66,9.66-11.874,30.879c-0.07,0.677,0.202,1.362,0.739,1.782  c2.031,1.592,7.739,5.269,17.125,5.269c9.385,0,15.093-3.676,17.125-5.269c0.536-0.42,0.809-1.105,0.739-1.782  C394.453,292.332,384.794,282.672,384.794,282.672z"/>
<g>
	<path style="fill:#FF4B55;" d="M384.794,280.675h-11.978v-10.386c0-3.072,2.513-5.585,5.585-5.585h0.809   c3.072,0,5.585,2.513,5.585,5.585L384.794,280.675L384.794,280.675z"/>
	<path style="fill:#FF4B55;" d="M384.928,284.668h-12.247c-1.028,0-1.862-0.834-1.862-1.862v-0.27c0-1.028,0.834-1.862,1.862-1.862   h12.247c1.028,0,1.862,0.834,1.862,1.862v0.27C386.79,283.834,385.957,284.668,384.928,284.668z"/>
</g>
<path style="fill:#D35A10;" d="M424.719,240.529c-0.354,0-5.561,0.024-10.979,0.956v-3.122c4.572-2.087,9.052-3.165,9.129-3.184  c0.536-0.126,0.87-0.662,0.744-1.2c-0.126-0.536-0.662-0.871-1.198-0.744c-0.301,0.07-4.325,1.037-8.709,2.945  c-0.071-1.197-0.486-2.294-1.161-3.2c3.578-2.769,6.624-4.528,6.682-4.56c0.479-0.272,0.646-0.882,0.374-1.362  c-0.275-0.48-0.884-0.646-1.362-0.374c-0.242,0.137-3.438,1.982-7.149,4.881c-0.955-0.642-2.102-1.018-3.337-1.018  c-1.283,0-2.468,0.415-3.444,1.105c1.023-5.137,3.128-7.362,3.155-7.39c0.386-0.39,0.385-1.02-0.004-1.407  c-0.39-0.39-1.021-0.39-1.411,0c-0.12,0.119-2.058,2.121-3.287,6.622c-1.228-4.501-3.168-6.503-3.287-6.622  c-0.387-0.389-1.015-0.389-1.406-0.003c-0.39,0.386-0.394,1.017-0.01,1.41c0.027,0.029,2.132,2.253,3.155,7.39  c-0.976-0.691-2.159-1.105-3.444-1.105c-1.235,0-2.382,0.376-3.337,1.018c-3.71-2.899-6.907-4.742-7.149-4.881  c-0.48-0.272-1.09-0.106-1.362,0.374s-0.105,1.088,0.374,1.362c0.056,0.033,3.104,1.79,6.683,4.559  c-0.675,0.907-1.09,2.004-1.162,3.202c-4.384-1.909-8.408-2.875-8.709-2.945c-0.539-0.129-1.073,0.207-1.198,0.744  c-0.126,0.537,0.207,1.075,0.744,1.2c0.076,0.018,4.556,1.097,9.129,3.184v3.122c-5.419-0.932-10.626-0.956-10.979-0.956  c-0.551,0-0.999,0.446-0.999,0.998c0,0.551,0.446,0.998,0.999,0.998c0.086,0,5.542,0.021,10.979,0.986v3.229  c-2.995-0.089-6.336,0.33-9.43,1.878c-0.494,0.246-0.694,0.846-0.446,1.34c0.175,0.35,0.527,0.551,0.893,0.551  c0.15,0,0.302-0.034,0.445-0.105c2.754-1.377,5.792-1.736,8.536-1.643v12.352c0,1.508-0.15,3.023-0.445,4.503l-1.531,7.655  c-0.109,0.541,0.242,1.066,0.782,1.175c0.066,0.014,0.131,0.02,0.197,0.02c0.466,0,0.884-0.327,0.977-0.802l1.531-7.655  c0.321-1.61,0.485-3.255,0.485-4.894v-12.203c1.497,0.167,2.843,0.436,3.924,0.707l0.761,9.886c0.095,1.232,0.712,2.297,1.612,3.019  l-3.238,4.856c-1.735,2.602,0.131,6.087,3.258,6.087h5.332c3.127,0,4.992-3.485,3.258-6.087l-3.237-4.856  c0.9-0.722,1.517-1.787,1.612-3.019l0.76-9.886c1.081-0.271,2.427-0.54,3.924-0.707v12.202c0,1.638,0.162,3.285,0.485,4.894  l1.531,7.655c0.095,0.475,0.512,0.802,0.977,0.802c0.064,0,0.131-0.006,0.197-0.02c0.54-0.109,0.891-0.634,0.782-1.175l-1.531-7.655  c-0.295-1.48-0.446-2.994-0.446-4.503V248.76c2.745-0.092,5.782,0.266,8.536,1.643c0.144,0.071,0.295,0.105,0.446,0.105  c0.366,0,0.719-0.201,0.894-0.551c0.246-0.494,0.047-1.092-0.446-1.34c-3.093-1.547-6.434-1.967-9.43-1.877v-3.23  c5.437-0.965,10.893-0.986,10.979-0.986c0.551,0,0.999-0.447,0.999-0.998C425.717,240.975,425.27,240.529,424.719,240.529z   M411.744,241.868c-1.192,0.259-2.366,0.566-3.474,0.935c-0.02-0.394-0.077-0.775-0.176-1.143c1.107-0.855,2.351-1.631,3.65-2.318  V241.868z M411.744,236.536v0.552c-1.582,0.785-3.138,1.696-4.531,2.729c-0.29-0.395-0.624-0.751-1.007-1.057  c1.493-1.655,3.153-3.187,4.786-4.539C411.46,234.875,411.744,235.671,411.744,236.536z M407.751,232.543  c0.596,0,1.156,0.14,1.663,0.375c-1.725,1.448-3.474,3.097-5.039,4.885c-0.204-0.062-0.405-0.124-0.617-0.162v-0.106  c0-0.455,0.015-0.885,0.032-1.315C403.955,234.168,405.658,232.543,407.751,232.543z M397.77,232.543  c2.093,0,3.796,1.625,3.96,3.676c0.016,0.429,0.031,0.86,0.031,1.315v0.106c-0.212,0.039-0.414,0.1-0.617,0.162  c-1.565-1.788-3.314-3.437-5.039-4.885C396.614,232.683,397.174,232.543,397.77,232.543z M393.777,236.536  c0-0.865,0.284-1.661,0.752-2.316c1.633,1.352,3.293,2.884,4.786,4.54c-0.384,0.306-0.717,0.664-1.007,1.058  c-1.393-1.033-2.95-1.944-4.531-2.729L393.777,236.536L393.777,236.536z M393.777,239.34c1.3,0.687,2.543,1.463,3.65,2.318  c-0.099,0.37-0.156,0.75-0.176,1.143c-1.107-0.369-2.282-0.676-3.474-0.935V239.34z M393.777,246.881v-2.964  c1.251,0.284,2.458,0.626,3.565,1.037l0.196,2.557C396.453,247.258,395.178,247.027,393.777,246.881z M411.744,246.882  c-1.401,0.145-2.676,0.377-3.761,0.629l0.196-2.557c1.107-0.411,2.314-0.754,3.565-1.037L411.744,246.882L411.744,246.882z"/>
<path style="fill:#FFA033;" d="M361.654,267.477h-4.484l-17.134-15.231c-1.872-1.663-2.664-4.229-2.057-6.659l4.777-19.112  c0.422-1.691,2.528-2.274,3.76-1.042l7.754,7.754c0.42,0.421,0.991,0.656,1.586,0.656h5.797v33.634H361.654z"/>
<path style="fill:#FF9480;" d="M358.439,229.249l-2.752,12.383c-0.499,2.246-0.414,4.581,0.247,6.784l5.718,19.062h4.485  l5.718-19.062c0.661-2.203,0.746-4.539,0.247-6.784l-2.752-12.383c-0.567-2.554-2.833-4.371-5.45-4.371h-0.011  C361.274,224.877,359.008,226.695,358.439,229.249z"/>
<path style="fill:#FFA0E4;" d="M364.047,229.362h-0.302c-1.155,0-2.091,0.936-2.091,2.091v36.026h4.485v-36.026  C366.139,230.298,365.201,229.362,364.047,229.362z"/>
<g>
</g>
<g>
</g>
<g>
</g>
<g>
</g>
<g>
</g>
<g>
</g>
<g>
</g>
<g>
</g>
<g>
</g>
<g>
</g>
<g>
</g>
<g>
</g>
<g>
</g>
<g>
</g>
<g>
</g>
</svg>
