<?xml version="1.0" encoding="iso-8859-1"?>
<!-- Generator: Adobe Illustrator 19.0.0, SVG Export Plug-In . SVG Version: 6.00 Build 0)  -->
<svg xmlns="http://www.w3.org/2000/svg" xmlns:xlink="http://www.w3.org/1999/xlink" version="1.1" id="Layer_1" x="0px" y="0px" viewBox="0 0 512 512" style="enable-background:new 0 0 512 512;" xml:space="preserve">
<path style="fill:#FFE15A;" d="M482.441,323.908l-0.005-27.164l-0.014-81.491l-0.001-11.162l0,0l-0.003-16.001l-0.008-42.486  c-0.001-11.607-5.715-22.389-15.14-28.946c-0.812-0.565-1.642-1.11-2.509-1.611l-23.711-13.684l-1.888-1.09l0,0l-20.309-11.721  l-17.87-10.313l-94.999-54.826l-19.995-11.539L273.6,4.725c-10.918-6.302-24.37-6.3-35.286,0.006l-12.307,7.108l-19.994,11.548  L111.025,78.25L81.078,95.546l-8.188,4.73l0,0l-14.002,8.088l-11.697,6.756c-0.841,0.486-1.648,1.015-2.439,1.562  c-9.465,6.556-15.201,17.365-15.2,29.001l0.007,42.41l0.003,16.001l0,0l0.001,11.162l0.014,81.491l0.001,11.162l0.003,16.001  l0.007,42.486c0.003,11.607,5.715,22.388,15.14,28.946c0.812,0.565,1.642,1.11,2.509,1.611l23.377,13.491l2.222,1.282l0,0  l19.974,11.529l18.204,10.506l94.999,54.826l19.994,11.539l12.39,7.15c10.918,6.301,24.37,6.298,35.286-0.006l12.307-7.108  l19.995-11.548l94.989-54.862l27.325-15.782l10.81-6.245l0,0l11.381-6.573l14.319-8.27c0.841-0.486,1.648-1.015,2.439-1.562  c9.465-6.556,15.201-17.365,15.2-29.001L482.441,323.908z"/>
<g>
	<path style="fill:#73AF00;" d="M418.855,88.554l-17.87-10.313l-94.999-54.826l-19.994-11.539l-12.39-7.151   c-10.918-6.302-24.37-6.3-35.287,0.006l-12.307,7.108l-19.994,11.548L111.025,78.25L81.078,95.546l-8.188,4.73h366.274   L418.855,88.554z"/>
	<path style="fill:#73AF00;" d="M92.813,423.253l18.204,10.506l94.999,54.826l19.994,11.539l12.39,7.15   c10.918,6.301,24.37,6.298,35.287-0.006l12.307-7.108l19.994-11.548l94.989-54.862l27.325-15.782l10.81-6.245H72.837   L92.813,423.253z"/>
	<polygon style="fill:#73AF00;" points="482.436,296.745 482.424,215.254 482.421,204.091 29.563,204.091 29.564,215.254    29.577,296.745 29.579,307.907 482.439,307.907  "/>
</g>
<path style="fill:#FF4B55;" d="M232.748,307.68V8.34c0-0.175-0.19-0.285-0.341-0.197l-6.398,3.695l-19.994,11.548l-94.99,54.864  L81.078,95.546l-22.191,12.818L47.19,115.12c-0.841,0.486-1.648,1.015-2.439,1.562c-9.465,6.556-15.201,17.365-15.2,29.001  l0.007,42.41l0.005,27.164l0.014,81.491l0.001,10.934c0,0.126,0.101,0.227,0.227,0.227H232.52  C232.646,307.907,232.748,307.806,232.748,307.68z"/>
<path style="fill:#F5F5F5;" d="M125.871,134.058l-14.449,43.321l-45.665,0.354c-2.503,0.02-3.542,3.214-1.527,4.701l36.736,27.128  L87.192,253.1c-0.755,2.387,1.962,4.361,3.999,2.905l37.152-26.555l37.152,26.555c2.037,1.456,4.755-0.519,3.999-2.905  l-13.775-43.539l36.736-27.128c2.014-1.487,0.976-4.682-1.528-4.701l-45.665-0.354l-14.449-43.321  C130.022,131.684,126.663,131.684,125.871,134.058z"/>
<g>
</g>
<g>
</g>
<g>
</g>
<g>
</g>
<g>
</g>
<g>
</g>
<g>
</g>
<g>
</g>
<g>
</g>
<g>
</g>
<g>
</g>
<g>
</g>
<g>
</g>
<g>
</g>
<g>
</g>
</svg>
