<?xml version="1.0" encoding="iso-8859-1"?>
<!-- Generator: Adobe Illustrator 19.0.0, SVG Export Plug-In . SVG Version: 6.00 Build 0)  -->
<svg xmlns="http://www.w3.org/2000/svg" xmlns:xlink="http://www.w3.org/1999/xlink" version="1.1" id="Layer_1" x="0px" y="0px" viewBox="0 0 512.35 512.35" style="enable-background:new 0 0 512.35 512.35;" xml:space="preserve">
<path style="fill:#F5F5F5;" d="M482.575,350.925v-189.7v-15.6c0-12.6-6.7-24.3-17.6-30.6l-61-35.2l-130.2-75.1  c-10.9-6.3-24.4-6.3-35.3,0l-130.1,75.3l-61,35.3c-10.9,6.3-17.6,18-17.6,30.6v15.5v189.7v15.6c0,12.6,6.7,24.3,17.6,30.6l61,35.2  l130.2,75.1c10.9,6.3,24.4,6.3,35.3,0l130.1-75.1l61-35.3c10.9-6.3,17.6-18,17.6-30.6V350.925z"/>
<g>
	<path style="fill:#FF4B55;" d="M238.575,507.425c10.9,6.3,24.4,6.3,35.3,0l130.1-75.1h-295.6L238.575,507.425z"/>
	<path style="fill:#FF4B55;" d="M273.775,4.825c-10.9-6.3-24.4-6.3-35.3,0l-130.1,75.2h295.6L273.775,4.825z"/>
</g>
<polygon style="fill:#41479B;" points="29.775,350.925 482.575,350.925 482.575,161.325 29.775,161.325 "/>
<g>
</g>
<g>
</g>
<g>
</g>
<g>
</g>
<g>
</g>
<g>
</g>
<g>
</g>
<g>
</g>
<g>
</g>
<g>
</g>
<g>
</g>
<g>
</g>
<g>
</g>
<g>
</g>
<g>
</g>
</svg>
