<?xml version="1.0" encoding="iso-8859-1"?>
<!-- Generator: Adobe Illustrator 19.0.0, SVG Export Plug-In . SVG Version: 6.00 Build 0)  -->
<svg xmlns="http://www.w3.org/2000/svg" xmlns:xlink="http://www.w3.org/1999/xlink" version="1.1" id="Layer_1" x="0px" y="0px" viewBox="0 0 512.004 512.004" style="enable-background:new 0 0 512.004 512.004;" xml:space="preserve">
<path style="fill:#FFE15A;" d="M482.437,296.746l-0.014-81.491l-0.005-27.164l-0.008-42.485  c-0.001-11.607-5.715-22.389-15.14-28.946c-0.812-0.565-1.642-1.11-2.508-1.611l-23.711-13.684l-22.198-12.81l-17.87-10.313  l-94.999-54.826l-19.995-11.539l-12.39-7.151c-10.918-6.301-24.37-6.298-35.287,0.006l-12.307,7.108L206.01,23.388L111.025,78.25  L81.078,95.546l-22.191,12.818L47.19,115.12c-0.841,0.486-1.648,1.015-2.439,1.562c-9.465,6.556-15.201,17.365-15.2,29.001  l0.007,42.41l0.005,27.164l0.014,81.491l0.005,27.164l0.007,42.486c0.003,11.607,5.715,22.388,15.14,28.946  c0.812,0.565,1.642,1.11,2.509,1.611l23.377,13.491l22.198,12.812l18.204,10.506l94.999,54.826l19.995,11.539l12.39,7.151  c10.92,6.302,24.37,6.298,35.287-0.006l12.307-7.108l19.995-11.548l94.989-54.862l27.325-15.782l22.191-12.818l14.319-8.27  c0.841-0.486,1.648-1.015,2.439-1.562c9.465-6.556,15.201-17.365,15.2-29.001l-0.008-42.41L482.437,296.746z"/>
<path style="fill:#41479B;" d="M482.437,296.376l-0.014-80.753l-0.005-26.918l-0.008-42.1c-0.001-11.501-5.696-22.185-15.09-28.683  c-0.81-0.56-1.637-1.1-2.501-1.596l-23.632-13.56l-22.125-12.695l-17.811-10.22l-94.685-54.329l-19.928-11.436L274.289,7  c-10.883-6.245-24.29-6.242-35.17,0.006l-12.265,7.044l-19.928,11.444l-94.677,54.364L82.4,97l-22.118,12.702l-11.658,6.694  c-0.839,0.481-1.643,1.005-2.431,1.547c-9.434,6.497-15.151,17.209-15.15,28.738l0.007,42.026l0.005,26.918l0.014,80.753  l0.005,26.918l0.007,42.101c0.003,11.501,5.696,22.185,15.09,28.683c0.81,0.56,1.637,1.1,2.501,1.596l23.3,13.369l22.125,12.695  l18.144,10.411l94.685,54.329l19.928,11.436l12.349,7.086c10.883,6.245,24.29,6.242,35.17-0.006l12.267-7.043l19.928-11.444  l94.677-54.365l27.235-15.639l22.118-12.702l14.271-8.195c0.839-0.481,1.643-1.005,2.431-1.547  c9.434-6.496,15.151-17.208,15.15-28.738l-0.008-42.026L482.437,296.376z"/>
<g>
	<path style="fill:#FF4B55;" d="M197.921,212.129l-59.285-54.664l65.006,47.783c1.797-1.911,3.698-3.721,5.685-5.436L111.041,83.547   c0,0-67.498,42.385-69.981,46.237l152.528,88.964C194.921,216.466,196.358,214.253,197.921,212.129z"/>
	<path style="fill:#FF4B55;" d="M257.612,181.843c6.951,0,13.656,1.006,20.035,2.797l34.517-79.606l-2.604,8.475l0.995-2.294   l-23.57,76.7c6.929,2.993,13.285,7.033,18.917,11.895L403.46,86.048c0,0-140.312-80.969-145.848-81.228V181.843L257.612,181.843z"/>
	<path style="fill:#FF4B55;" d="M482.412,145.605c0-1.328-0.235-3.773-0.382-5.074c-0.554-4.875-5.73-9.497-9.839-9.497   l-150.555,87.715c0.78,1.336,1.533,2.689,2.231,4.078l74.872-29.103l-71.368,37.311c0.504,1.405,0.971,2.827,1.406,4.261   l153.644-44.697v-2.511L482.412,145.605z"/>
	<path style="fill:#FF4B55;" d="M331.436,262.616l79.267,16.023l-80.579-7.147c-0.376,1.767-0.837,3.499-1.351,5.21l153.67,44.704   l-0.004-24.66L482.433,256H331.77C331.77,258.234,331.628,260.433,331.436,262.616z"/>
	<path style="fill:#FF4B55;" d="M183.55,256c0-2.137,0.137-4.24,0.309-6.331l-76.288-16.595l77.494,7.754   c0.377-1.878,0.852-3.716,1.383-5.528l-151.89-45.641l0.004,25.597l0.006,40.746L183.55,256L183.55,256z"/>
	<path style="fill:#FF4B55;" d="M42.309,380.966l151.267-87.709c-0.857-1.471-1.665-2.973-2.422-4.505l-74.661,28.222l71.219-36.393   c-0.451-1.28-0.87-2.574-1.262-3.88l-150.39,46.78C36.06,323.482,38.726,375.381,42.309,380.966z"/>
</g>
<path style="fill:#FFE15A;" d="M328.772,276.702c0.514-1.711,0.975-3.443,1.351-5.21l80.579,7.147l-79.267-16.023  c0.194-2.183,0.334-4.381,0.334-6.614c0-2.151-0.142-4.265-0.322-6.368l78.62-16.558l-79.868,7.737  c-0.39-1.872-0.879-3.705-1.425-5.513c-0.434-1.436-0.902-2.857-1.406-4.261l71.368-37.311l-74.872,29.103  c-0.697-1.388-1.451-2.742-2.231-4.078c-1.353-2.319-2.817-4.566-4.406-6.719l59.178-54.565l-64.898,47.703  c-1.776-1.882-3.649-3.668-5.607-5.359c-5.632-4.862-11.988-8.901-18.917-11.895l23.57-76.7l-0.995,2.294l2.604-8.475  l-34.517,79.606c-6.378-1.792-13.084-2.797-20.035-2.797c-7.355,0-14.446,1.107-21.154,3.103l-31.97-73.731l23.594,76.776  c-6.866,2.985-13.166,6.998-18.755,11.822c-1.986,1.713-3.886,3.524-5.685,5.436l-65.006-47.783l59.285,54.664  c-1.563,2.123-3,4.338-4.334,6.621c-0.791,1.355-1.553,2.727-2.259,4.136L116.3,193.726l71.52,37.391  c-0.491,1.38-0.95,2.774-1.376,4.183c-0.549,1.813-1.038,3.652-1.43,5.528l-80.044-7.754l78.798,16.595  c-0.177,2.091-0.319,4.194-0.319,6.331l0,0c0,2.221,0.141,4.408,0.331,6.578l-79.445,16.059l80.755-7.162  c0.376,1.772,0.84,3.51,1.355,5.226c0.392,1.306,0.811,2.599,1.262,3.88l-71.219,36.393l74.661-28.222  c0.757,1.532,1.565,3.035,2.422,4.505l55.56-32.326l0.001-0.001c5.239-3.048,11.711-3.047,16.95,0.001l55.56,32.326  c0.846-1.452,1.645-2.934,2.393-4.448l74.507,28.165l-71.067-36.316C327.942,279.354,328.372,278.034,328.772,276.702z"/>
<path style="fill:#F5F5F5;" d="M321.647,293.257l-55.56-32.326c-5.239-3.048-11.711-3.048-16.95-0.001c-0.001,0-0.001,0-0.001,0  l-55.56,32.326l-158.39,92.156v0.001c2.476,3.858,5.692,7.249,9.542,9.927c0.812,0.565,1.642,1.11,2.509,1.611l23.377,13.491  l22.198,12.812l18.204,10.506l94.999,54.826l19.995,11.539l12.39,7.151c10.92,6.302,24.371,6.298,35.287-0.006l12.307-7.108  l19.995-11.548l94.989-54.863l27.325-15.782l22.191-12.818l14.319-8.27c0.841-0.486,1.648-1.013,2.439-1.561  c4.311-2.987,7.839-6.862,10.413-11.291L321.647,293.257z"/>
<g>
	<circle style="fill:#FF4B55;" cx="256.06" cy="348.14" r="2.024"/>
	<path style="fill:#FF4B55;" d="M252.962,280.323c6.073,7.508-3.754,11.262-2.539,18.44c0,0-1.987-2.982-1.215-7.177   c0.772-4.196-1.877-5.521-1.877-5.521s1.215,4.747-1.767,7.398c-2.982,2.649-2.098,8.723-2.098,8.723s-3.754-2.539-2.982-6.404   c0,0-5.079,4.416-0.552,11.814c0,0-2.982-0.221-4.085-2.098c0,0-2.643,7.784,8.008,13.719c10.652,5.935,12.198-8.198,12.198-8.198   l7.619,9.496c0,0,9.128-0.257,13.471-10.047l-5.226,0.957c0.331-2.76,7.324-3.497,4.564-11.778c0,0-0.221,1.767-2.208,2.982   c0,0,0.074-5.705-4.049-9.459c0,0-0.147,3.054-1.472,4.159c0,0,0.442-3.938-1.987-7.029c-2.322-2.954-2.539-5.668-2.539-5.668   s-2.76,5.079-1.767,7.619c0,0-2.302-0.559-2.539-3.644C259.403,281.905,252.962,280.323,252.962,280.323z"/>
</g>
<ellipse style="fill:#FFE15A;" cx="256.06" cy="340.58" rx="17.233" ry="7.385"/>
<ellipse style="fill:#FF4B55;" cx="256.06" cy="338.97" rx="14.901" ry="6.677"/>
<g>
	<path style="fill:#FF82AA;" d="M259.173,339.837h-6.247c-0.11,1.948,0.771,4.775,3.119,5.8v0.006   c0.001-0.001,0.003-0.003,0.003-0.003s0.005,0.003,0.006,0.003v-0.006C258.401,344.612,259.283,341.785,259.173,339.837z"/>
	<path style="fill:#FF82AA;" d="M264.141,338.635l-5.668,1.33c0.345,1.921,1.791,4.484,4.155,4.982l0.001,0.006l0.004-0.004   c0.001,0,0.004,0.003,0.004,0.003v-0.006C264.53,343.447,264.685,340.508,264.141,338.635z"/>
	<path style="fill:#FF82AA;" d="M267.074,336.6l-3.946,2.586c0.998,1.676,3.104,3.674,5.149,3.56l0.004,0.005l0.001-0.005   c0,0,0.004,0.001,0.005,0.001l-0.004-0.005C269.203,340.913,268.211,338.184,267.074,336.6z"/>
	<path style="fill:#FF82AA;" d="M266.957,332.605l-1.552,3.919c2.104,2.678,5.555,2.402,5.555,2.402   C271.097,336.745,268.378,333.941,266.957,332.605z"/>
	<path style="fill:#FF82AA;" d="M247.906,338.635l5.668,1.33c-0.345,1.921-1.791,4.484-4.155,4.982l-0.001,0.006l-0.004-0.004   l-0.005,0.003l0.001-0.006C247.515,343.447,247.361,340.508,247.906,338.635z"/>
	<path style="fill:#FF82AA;" d="M244.973,336.6l3.946,2.586c-0.998,1.676-3.104,3.674-5.149,3.56l-0.004,0.005l-0.001-0.005   l-0.005,0.001l0.004-0.005C242.844,340.913,243.836,338.184,244.973,336.6z"/>
	<path style="fill:#FF82AA;" d="M245.09,332.605l1.552,3.919c-2.104,2.678-5.555,2.402-5.555,2.402   C240.948,336.745,243.669,333.941,245.09,332.605z"/>
</g>
<ellipse style="fill:#FFE15A;" cx="256.06" cy="334.92" rx="12.09" ry="5.42"/>
<ellipse style="fill:#FF4B55;" cx="256.06" cy="334.92" rx="8.999" ry="3.522"/>
<path style="fill:#41479B;" d="M256.961,395.814c-5.882,0.5-11.049-3.873-11.551-9.746c-0.257-2.935,1.931-5.527,4.871-5.777  c2.939-0.251,5.523,1.931,5.773,4.871c0.25,2.942,2.839,5.116,5.775,4.872c2.943-0.249,5.126-2.844,4.87-5.778  C267.2,390.14,262.841,395.313,256.961,395.814"/>
<path style="fill:#FF9B55;" d="M245.411,386.068c-0.257-2.935,1.931-5.527,4.871-5.777c2.939-0.251,5.523,1.931,5.773,4.871  c0.25,2.942,2.839,5.116,5.775,4.872c2.943-0.249,5.126-2.844,4.87-5.778c-0.492-5.887-5.665-10.245-11.547-9.745  C249.273,375.014,244.911,380.186,245.411,386.068"/>
<path style="fill:#FFE15A;" d="M256.054,367.672c-9.659,0-17.489,7.83-17.489,17.489s7.83,17.489,17.489,17.489  c9.66,0,17.489-7.83,17.489-17.489C273.543,375.501,265.713,367.672,256.054,367.672z M256.054,399.007  c-7.647,0-13.846-6.2-13.846-13.846s6.2-13.846,13.846-13.846c7.647,0,13.846,6.2,13.846,13.846S263.701,399.007,256.054,399.007z"/>
<path style="fill:#FF4B55;" d="M256.054,371.315c-7.647,0-13.846,6.2-13.846,13.846s6.2,13.846,13.846,13.846  c7.647,0,13.846-6.2,13.846-13.846S263.701,371.315,256.054,371.315z M256.054,395.767c-5.857,0-10.606-4.749-10.606-10.606  s4.749-10.606,10.606-10.606s10.606,4.749,10.606,10.606C266.66,391.018,261.911,395.767,256.054,395.767z"/>
<circle style="fill:#FF9B55;" cx="250.67" cy="385.16" r="1.336"/>
<circle style="fill:#41479B;" cx="261.37" cy="385.16" r="1.336"/>
<g>
	<circle style="fill:#FF4B55;" cx="256.06" cy="363.38" r="1.618"/>
	<circle style="fill:#FF4B55;" cx="257.67" cy="366.2" r="1.618"/>
	<circle style="fill:#FF4B55;" cx="254.43" cy="366.2" r="1.618"/>
	<circle style="fill:#FF4B55;" cx="256.06" cy="406.99" r="1.618"/>
	<circle style="fill:#FF4B55;" cx="254.43" cy="404.18" r="1.618"/>
	<circle style="fill:#FF4B55;" cx="257.67" cy="404.18" r="1.618"/>
</g>
<path style="fill:#FF9B55;" d="M253.094,317.562c-1.112-6.203-4.081-10.86-6.632-10.403c-2.551,0.457-3.718,5.856-2.607,12.059  c0.802,4.476,2.578,8.074,4.46,9.6c-0.777,1.332-1.25,3.364-1.26,5.882c1.397,0.119,2.838,0.112,4.315-0.152  c1.478-0.265,2.83-0.759,4.1-1.356c-0.884-2.357-2.033-4.098-3.224-5.079C253.48,326.028,253.896,322.037,253.094,317.562z"/>
<path style="fill:#41479B;" d="M258.978,317.562c1.112-6.203,4.081-10.86,6.632-10.403c2.551,0.457,3.718,5.856,2.607,12.059  c-0.802,4.476-2.578,8.074-4.46,9.6c0.776,1.332,1.25,3.364,1.26,5.882c-1.397,0.119-2.838,0.112-4.315-0.152  c-1.478-0.265-2.83-0.759-4.1-1.356c0.884-2.357,2.033-4.098,3.224-5.079C258.592,326.028,258.176,322.037,258.978,317.562z"/>
<path style="fill:#F5F5F5;" d="M260.798,317.417c0-6.833-2.101-12.372-4.692-12.372c-2.592,0-4.692,5.538-4.692,12.372  c0,4.93,1.113,9.11,2.697,11.098c-1,1.275-1.823,3.352-2.278,6.037c1.355,0.395,2.773,0.662,4.275,0.662  c1.501,0,2.92-0.269,4.275-0.662c-0.455-2.684-1.278-4.762-2.278-6.037C259.684,326.528,260.798,322.348,260.798,317.417z"/>
<g>
	<path style="fill:#FFE15A;" d="M256.054,330.34c-3.057,0-5.861-0.284-7.685-0.789c-0.627-0.165-0.995-0.806-0.825-1.438   c0.174-0.624,0.834-1.036,1.438-0.816c3.227,0.861,10.916,0.861,14.142,0c0.627-0.229,1.27,0.192,1.438,0.816   c0.17,0.632-0.197,1.273-0.825,1.438C261.915,330.056,259.111,330.34,256.054,330.34z"/>
	<path style="fill:#FFE15A;" d="M246.006,348.892c1.27-0.166,2.87-0.552,2.982-2.484c0,0-2.87-0.276-2.87-0.055   C246.116,346.573,246.006,348.892,246.006,348.892z"/>
</g>
<g>
	<path style="fill:#FF4B55;" d="M217.187,341.714c1.436,0.405,2.834,0.7,3.275,2.466c0,0,1.472-2.944-0.589-4.711   C219.499,339.148,217.187,341.714,217.187,341.714z"/>
	<path style="fill:#FF4B55;" d="M223.297,336.783c1.436,0.405,2.834,0.7,3.275,2.466c0,0,1.472-2.944-0.589-4.711   C225.609,334.216,223.297,336.783,223.297,336.783z"/>
</g>
<path style="fill:#FFE15A;" d="M217.628,347.015c-0.884-0.221-2.429-2.208-0.442-5.3c1.987-3.092-6.736,1.546-7.067,4.085  c-0.331,2.539-0.662,7.067,1.325,5.852C213.433,350.438,217.628,347.015,217.628,347.015z"/>
<path style="fill:#FF4B55;" d="M227.088,347.346c0.295-1.62,0-2.724,2.061-4.196c2.061-1.472,2.356-2.282,2.356-3.239  c0,0-1.122,1.196-3.11,1.693c-1.216,0.304-2.263,1.178-2.263,1.178s-0.515-1.841,1.325-2.87c0,0-3.239,0-3.754,2.944  s1.178,3.387-1.251,3.68c-2.429,0.295-8.098-0.884-10.085,3.607c-1.987,4.49,4.049,1.251,5.668,0.662  c1.62-0.589,6.772,0.662,7.582-0.441C226.425,349.259,227.088,347.346,227.088,347.346z"/>
<path style="fill:#FFF5E6;" d="M205.869,355.407l8.723-14.355c0,0,8.668-3.349,8.741-3.791c0.074-0.442,2.87-4.049,2.87-4.564  c0-0.515-0.295-3.018-1.398-3.459c-1.105-0.442-4.62,1.042-6.147,1.432c-1.527,0.39-3.938-2.462-3.938-2.462  s-14.06,2.651-15.091,4.343c-1.031,1.693-5.888,13.839-6.11,15.091c-0.221,1.251,0,9.864,0.295,9.716  C194.11,357.21,205.869,355.407,205.869,355.407z"/>
<path style="fill:#FF4B55;" d="M226.72,330.562c-1.325-1.913-3.754-1.913-4.785-0.367s-3.239,1.546-3.754,3.459  c-0.407,1.511,2.061,4.269,3.533,3.754c1.472-0.516,4.195-2.208,4.195-2.208S228.044,332.477,226.72,330.562z M222.688,334.459  c-0.605,0.772-2.121-0.187-2.131-1.045c-0.01-0.857,1.256-0.905,1.886-0.46C222.854,333.244,223.182,333.83,222.688,334.459z   M224.958,332.552c-0.884,0.425-1.821-1.106-1.451-1.878c0.37-0.774,1.526-0.259,1.894,0.419  C225.642,331.534,225.677,332.205,224.958,332.552z"/>
<path style="fill:#FFF5E6;" d="M229.51,386.249c1.467,0.146,3.409-0.054,3.813-3.373c0.462-3.804,1.613-5.132,3.519-4.253  c1.907,0.88,1.433,2.399,1.433,2.399s2.098,5.521,0.993,7.729c-1.105,2.208-3.644,4.859-5.521,5.3  c-1.877,0.442-5.742-2.098-5.742-2.098L229.51,386.249z"/>
<path style="fill:#FFE6D7;" d="M218.917,373.404c1.251-0.589,16.709-11.336,18.55-15.385s0.81-6.993,3.239-7.141  c2.429-0.147,6.552-0.295,6.183-3.313c-0.367-3.018-4.416-1.105-5.521-1.693s-4.564-2.208-5.226,0.147  c-0.662,2.356,0,4.49-0.957,5.668c-0.957,1.177-5.226,3.239-5.962,3.092c-0.736-0.147-2.308-0.34-3.51,0.419  c-1.201,0.759-1.865,1.79-1.865,1.79s-4.528,0.184-5.171,0.791c-0.644,0.607-3.073,3.846-3.073,3.846L218.917,373.404z"/>
<path style="fill:#5AA587;" d="M220.536,370.975c0,0,2.944-1.103,5.042-5.19c2.098-4.085,4.196-2.429,7.288-4.637  s1.105-5.521,0.221-6.846c-0.883-1.325-0.276-4.747,2.76-4.637c1.998,0.072,8.391,6.293,5.521,12.477c0,0-0.441-1.105-1.546-2.429  c0,0,1.656,4.085-2.208,8.613c0,0,0.11-2.318-1.105-3.864c0,0-0.11,5.741-4.528,9.385c0,0,0.552-3.754-0.11-5.3  c0,0-0.662,4.969-7.177,9.496c0,0,0.993-1.767,0.772-4.637l-5.521,2.87L220.536,370.975z"/>
<path style="fill:#F5DCD2;" d="M178.542,389.856c0,0-1.987,6.073,3.423,7.839c5.411,1.767,8.391-0.552,10.38,0  c1.987,0.552,1.546,4.085-1.215,7.067s-5.521,3.313-8.613,1.105c-3.092-2.208-3.313-4.196-6.514-3.423  c-3.202,0.772-7.619-2.318-7.619-2.318s2.87-12.477,3.202-12.367C171.916,387.869,178.542,389.856,178.542,389.856z"/>
<path style="fill:#FFF5E6;" d="M150.468,374.664c0,0,3.813-3.666,18.624-8.213c14.811-4.546,22.73-6.452,22.73-6.452l11.586-3.667  c0,0,5.452-0.021,9.033-1.037c3.58-1.016,3.58-1.016,3.58-1.016s9.532,13.491,2.347,27.13l2.493,2.347c0,0,2.621,0.8,4.61,1.5  s0.522,4.513,0.522,4.513l-7.625,3.519l-22.29-1.026c0,0-0.44-1.027-7.772,1.32c-7.332,2.347-10.558-2.933-24.637-3.373  C149.588,389.768,150.468,374.664,150.468,374.664z"/>
<g>
	<path style="fill:#5AA587;" d="M213.838,322.023c0,0,2.246,2.246,1.031,4.637c0,0-2.503-2.576-4.564-3.165   c-3.173-0.906-3.828,0.829-10.84,1.16c-4.413,0.209-6.193,4.435-10.508,3.404c-4.619-1.105-8.428,1.012-8.428,1.012   s2.649-0.331,4.804,1.712c2.153,2.042,5.962,1.601,5.962,1.601s-3.478,2.429-6.403,1.27c-2.927-1.16-7.122,0.993-7.122,0.993   c0.772-0.055,2.484,0.22,4.416,2.263s6.238,1.546,6.238,1.546c-0.772,0.939-2.925,1.987-4.96,1.597   c-4.611-0.884-9.532,1.173-9.532,1.173s2.933-1.026,6.893,1.907c3.959,2.933,8.505,1.173,8.505,1.173c0,1.907-3.968,9.25-11.008,9   c-8.766-0.311-10.988,4.784-10.988,4.784s3.519-1.173,8.065-0.44c8.806,1.42,14.811-3.666,14.811-3.666s-1.467,6.893-7.479,6.599   c-6.012-0.294-13.638,5.866-13.638,5.866s6.776-1.221,15.522-1.328c2.878-0.035,5.217-1.17,7.217-2.519   c5.26-3.553,10.118-3.553,10.118-3.553c-5.741,1.325-8.723,7.619-8.723,7.619s4.416-3.864,10.821-3.864s8.393-7.508,8.393-7.508   c-5.962,0.11-6.846-4.749-6.846-4.749s-1.767,0.552-3.423,2.541c-1.047,1.257-2.819,1.685-4.031,1.853   c-0.441-3.873,2.482-7.408,2.482-7.408s-3.96-6.012,1.173-12.465c5.132-6.452,16.864-4.4,16.864-4.4   C219.874,325.262,215.31,321.877,213.838,322.023z"/>
	<path style="fill:#5AA587;" d="M201.913,343.371c1.913-0.295,10.821-3.239,10.673-7.214s-5.447-2.577-5.152-0.441   c0.295,2.134,2.208,1.693,2.208,1.693s-0.185,0.961-4.123,1.767C202.281,339.837,201.913,343.371,201.913,343.371z"/>
	<path style="fill:#5AA587;" d="M225.469,385.256c0,0,5.521-0.884,5.3,3.092s-3.387,8.17-9.937,10.011c0,0,2.429-2.098,1.877-3.313   s-3.313-1.546-4.747,0.552c-1.436,2.098-3.864,2.982-5.962,2.651c0,0,3.754-2.76,1.105-3.754c-2.387-0.895-1.472,2.982-7.177,3.644   c0,0,4.196-3.313,1.767-4.196s-3.754,4.859-8.06,4.416c0,0,3.607-3.606,1.656-4.196c-3.073-0.927-3.864,4.416-9.385,2.098   c0,0,2.76-1.215,0.552-4.196c-2.208-2.982,0.884-6.736,2.429-8.281c1.546-1.546,2.651-2.539,2.208-4.085   c0,0,3.938,2.466,1.951,6.809c-1.866,4.078,5.688,1.826,11.557,1.325c6.036-0.515,9.617,2.947,13.471,1.767   C227.677,388.495,225.469,385.256,225.469,385.256z"/>
	<path style="fill:#5AA587;" d="M118.645,387.129c0,0,7.243,3.34,11.349-0.033s5.221,0.62,10.061-2.313   c4.84-2.933,4.546-1.32,8.359-1.32c3.813,0,6.599-6.16,4.253-10.412c0,0,7.964-3.088,6.33-9.474   c-1.215-4.747-7.211-3.285-7.211-3.285s-6.326-3.976-10.705,1.173c-3.579,4.21-1.613,7.039-7.625,7.772   c-6.012,0.734-6.892,6.892-13.345,6.16c0,0,4.4,5.72,11.146,2.053C131.257,377.451,131.098,382.974,118.645,387.129z"/>
	<path style="fill:#5AA587;" d="M182.737,397.916c0,0,6.183,5.521-5.962,8.834c0,0,0.772-0.993,1.656-2.761   c0,0-3.754,2.761-8.613,2.539c0,0,1.436-1.105,1.767-2.429c0,0-4.416,1.215-7.619-0.884c0,0,3.864-0.221,6.293-3.864   c0,0,1.103,2.208,3.423,1.105c2.318-1.105,3.648,0.485,5.742,0.552C181.136,401.064,182.627,400.181,182.737,397.916z"/>
	<path style="fill:#5AA587;" d="M179.682,363.834c0,0-4.416,2.061-2.356,5.962c1.375,2.601,5.678,3.225,7.362,0.81   c1.436-2.061,0.296-4.061-1.215-4.343c-1.582-0.295-2.539,0.369-3.275,1.693C180.197,367.957,177.474,366.926,179.682,363.834z"/>
	<path style="fill:#5AA587;" d="M199.521,370.699c0,0,9.591,0.365,9.109,7.012c-0.212,2.924-4.166,4.966-6.663,3.433   c-2.129-1.308-1.785-3.488-0.674-4.454c1.223-1.065,2.434-0.68,3.635,0.236C204.928,376.924,205.538,373.294,199.521,370.699z"/>
	<path style="fill:#5AA587;" d="M218.678,357.78c0,0,5.177-3.473,7.192,0.661c0.887,1.819-0.767,4.409-2.788,4.358   c-1.725-0.044-2.273-1.463-1.946-2.426c0.361-1.06,1.217-1.25,2.252-1.118C223.388,359.255,223.702,356.566,218.678,357.78z"/>
	<path style="fill:#5AA587;" d="M225.712,355.2c0,0,4.775-3.204,6.634,0.61c0.817,1.678-0.707,4.066-2.572,4.019   c-1.591-0.04-2.097-1.35-1.795-2.237c0.334-0.977,1.122-1.152,2.077-1.032C230.057,356.56,230.347,354.079,225.712,355.2z"/>
	<path style="fill:#5AA587;" d="M207.826,376.38c0,0,8.253,0.314,7.839,6.033c-0.182,2.516-3.585,4.274-5.733,2.953   c-1.832-1.126-1.931-3.192-1.136-4.178c1.38-1.711,3.037-0.939,3.037-0.939S213.005,378.613,207.826,376.38z"/>
	<path style="fill:#5AA587;" d="M213.874,380.912c0,0,9.11-0.883,8.433,5.265c-0.176,1.605-2.293,2.734-3.668,1.889   c-1.172-0.72-1.235-2.042-0.726-2.673c0.882-1.095,1.942-0.601,1.942-0.601S219.285,382.072,213.874,380.912z"/>
</g>
<path style="fill:#FFE6D7;" d="M155.454,410.152c0,0,1.247,2.531,2.053,4.986c0.69,2.102,4.253,3.519,6.16,2.199  c1.906-1.32,5.126-5.264,3.805-6.143c-1.32-0.88-7.032-0.162-7.912-3.242c-0.88-3.079-0.586-5.132-0.586-5.132  s7.643,2.274,11.287-3.468c3.644-5.742,3.123-11.348,4.551-14.13c1.117-2.174,3.079-3.227,3.079-3.227  c-2.246-8.889-29.623-15.251-26.445,7.822l-4.301,9.776L155.454,410.152z"/>
<g>
	<path style="fill:#5AA587;" d="M145.748,409.768c1.877,1.215,8.76,4.711,13.029,2.061c3.492-2.167,3.533-4.637,1.325-5.19   c-2.208-0.552-3.423,0.993-4.637,0s-8.06-6.626-5.521-8.391c2.539-1.767,3.914-3.197,3.864-6.293   c-0.036-2.282-2.024-4.49-4.38-4.711c-2.937-0.275-5.226,0.957-8.318,0.957l3.607,1.841c-2.319,1.105-2.503,4.233-5.264,4.785   c0,0,1.877,2.134,4.233,1.472c0,0-0.81,2.208-3.018,2.503c0,0,2.061,2.356,3.975,3.018c0,0-1.251,0.884-3.202,0.515   c0,0,3.054,4.49,7.619,5.631L145.748,409.768z"/>
	<path style="fill:#5AA587;" d="M159.048,401.36c0,0,1.227-0.212,1.332-1.706c0.061-0.861-0.8-1.977-2.262-1.893   c-1.713,0.099-2.877,2.373-2.054,3.883c2.102,3.859,9.926,2.309,10.883,0.911C166.947,402.554,160.69,402.849,159.048,401.36z"/>
</g>
<g>
	<path style="fill:#FFE15A;" d="M162.715,419.705c0.34-0.479,0.616-1.776-0.046-2.577c0,0,0.359-1.85,1.767-1.187   c0,0,0.599,1.481,0.12,2.512C164.077,419.484,162.715,419.705,162.715,419.705z"/>
	<path style="fill:#FFE15A;" d="M165.588,418.668c-0.024-1.335-0.324-2.063-1.4-2.174c0,0-0.276-1.932,1.325-1.932   c0,0,1.187,1.048,1.198,2.184C166.721,417.883,165.588,418.668,165.588,418.668z"/>
	<path style="fill:#FFE15A;" d="M167.362,417.375c-0.262-1.308-0.51-2.218-1.708-2.307c0,0-0.637-1.582,1.128-1.803   c0,0,1.126,0.904,1.341,2.019C168.337,416.4,167.362,417.375,167.362,417.375z"/>
	<path style="fill:#FFE15A;" d="M169.138,415.346c-0.544-1.218-1.085-1.707-2.273-1.53c0,0-1.021-1.436,0.386-2.208   c0,0,1.715,0.489,2.169,1.531C169.875,414.182,169.138,415.346,169.138,415.346z"/>
	<path style="fill:#FFE15A;" d="M190.098,407.878c0.25-0.531,0.291-1.857-0.502-2.527c0,0,0.025-1.883,1.528-1.482   c0,0,0.852,1.352,0.564,2.451C191.399,407.42,190.098,407.878,190.098,407.878z"/>
	<path style="fill:#FFE15A;" d="M192.74,406.348c-0.26-1.308-0.685-1.973-1.763-1.891c0,0-0.615-1.852,0.961-2.137   c0,0,1.355,0.821,1.567,1.937C193.717,405.374,192.74,406.348,192.74,406.348z"/>
	<path style="fill:#FFE15A;" d="M194.257,404.761c-0.491-1.241-0.896-2.092-2.091-1.967c0,0-0.909-1.445,0.791-1.974   c0,0,1.268,0.689,1.678,1.75C195.046,403.63,194.257,404.761,194.257,404.761z"/>
	<path style="fill:#FFE15A;" d="M195.644,402.449c-0.751-1.102-1.37-1.487-2.508-1.102c0,0-1.26-1.231-0.011-2.242   c0,0,1.773,0.177,2.406,1.121C196.163,401.169,195.644,402.449,195.644,402.449z"/>
</g>
<path style="fill:#FFE6D7;" d="M226.793,334.464c0.239,1.195-0.367,2.503-3.239,3.754c-2.87,1.251-2.797,0.736-4.711,3.165  c-1.913,2.429-2.134,2.503-4.49,2.944s-3.459,7.729-0.662,6.624s3.165-3.387,6.257-2.651s4.711,1.767,7.141-0.957  c0,0,2.356,3.165-2.061,4.49c-4.416,1.325-6.826,1.427-9.008,2.443c-2.181,1.016-9.919,3.5-10.426-3.731  c-0.147-2.098,1.398-2.908,2.282-4.454c0.884-1.546,1.767-2.577,3.901-4.27s0.81-3.092,4.27-3.607  c3.46-0.515,6.331-0.442,7.362-2.944C224.438,332.772,226.498,332.991,226.793,334.464z"/>
<g>
	<path style="fill:#5AA587;" d="M168.824,369.558c0,0-0.664-2.638,2.413-3.755c-0.724,0.22-1.386,0.416-2.146,0.649   c-0.647,0.199-1.16,0.384-1.766,0.58c-0.236,0.319-0.554,0.487-0.712,0.935c-0.936,2.621,1.38,6.021,4.139,5.65   c2.354-0.317,3.022-2.389,2.252-3.623C172.198,368.702,170.425,368.398,168.824,369.558z"/>
	<path style="fill:#5AA587;" d="M169.778,397.559c-3.338,0.746-4.84-0.542-4.84-0.542s1.226-0.212,1.332-1.707   c0.061-0.861-0.799-1.977-2.262-1.893c-1.713,0.099-2.877,2.373-2.054,3.883c1.808,3.318,6.944,2.534,9.209,0.182   c0.119-0.242,0.242-0.482,0.35-0.724C171.016,397.07,170.382,397.424,169.778,397.559z"/>
	<path style="fill:#5AA587;" d="M173.15,391.979c0.085-0.377,0.206-0.759,0.276-1.121c-3.923,1.587-5.067-0.411-5.067-0.411   s1.226-0.212,1.332-1.707c0.061-0.861-0.799-1.977-2.262-1.893c-1.713,0.097-2.877,2.373-2.054,3.883   C167.293,394.25,170.71,393.27,173.15,391.979z"/>
	<path style="fill:#5AA587;" d="M181.976,393.846c-2.279,2.043-4.023,1.931-4.023,1.931s0.911-0.847,0.184-2.156   c-0.42-0.755-1.75-1.22-2.928-0.352c-1.382,1.018-1.115,3.559,0.399,4.375c3.723,2.006,6.138-1.096,7.43-3.595   C182.685,394.001,182.329,393.919,181.976,393.846z"/>
</g>
<g>
	<path style="fill:#FFE15A;" d="M240.739,391.87c-0.165-0.814-1.017-2.362-2.064-2.468c0,0-1.237-2.171,0.17-2.959   c0,0,1.546,0.836,2.061,2.331C241.419,390.266,240.739,391.87,240.739,391.87z"/>
	<path style="fill:#FFE15A;" d="M241.72,387.93c-1.07-1.277-1.833-1.685-2.596-0.695c0,0-1.701-1.605-0.696-3.237   c0,0,1.572-0.186,2.478,0.911C241.812,386.007,241.72,387.93,241.72,387.93z"/>
	<path style="fill:#FFE15A;" d="M241.812,384.858c-1.198-1.01-2.073-1.645-2.894-0.51c0,0-1.651-0.895-0.717-2.912   c0,0,1.42-0.266,2.437,0.605C241.652,382.912,241.812,384.858,241.812,384.858z"/>
	<path style="fill:#FFE15A;" d="M241.322,381.068c-1.303-0.635-2.028-0.56-2.634,0.824c0,0-1.775-0.36-1.503-2.549   c0,0,1.461-1.27,2.569-0.717C240.862,379.179,241.322,381.068,241.322,381.068z"/>
</g>
<circle style="fill:#F5F5F5;" cx="212.88" cy="338.58" r="2.061"/>
<circle style="fill:#41479B;" cx="212.88" cy="338.58" r="0.747"/>
<circle style="fill:#F5F5F5;" cx="217.13" cy="331.06" r="1.675"/>
<circle style="fill:#41479B;" cx="217.13" cy="331.06" r="0.607"/>
<path style="fill:#FFF5E6;" d="M157.672,371.527c-1.907,1.466-8.503-1.767-13.14-0.221c-5.993,1.998-5.943,5.851-5.943,5.851  s3.735-4.636,9.955-2.354c3.442,1.262,5.442,1.327,5.442,1.327L157.672,371.527z"/>
<path style="fill:#FFE15A;" d="M265.995,348.892c-1.27-0.166-2.87-0.552-2.982-2.484c0,0,2.87-0.276,2.87-0.055  C265.885,346.573,265.995,348.892,265.995,348.892z"/>
<g>
	<path style="fill:#FF4B55;" d="M294.815,341.714c-1.436,0.405-2.834,0.7-3.275,2.466c0,0-1.472-2.944,0.589-4.711   C292.503,339.148,294.815,341.714,294.815,341.714z"/>
	<path style="fill:#FF4B55;" d="M288.705,336.783c-1.436,0.405-2.834,0.7-3.275,2.466c0,0-1.472-2.944,0.589-4.711   C286.393,334.216,288.705,336.783,288.705,336.783z"/>
</g>
<path style="fill:#FFE15A;" d="M294.372,347.015c0.884-0.221,2.429-2.208,0.442-5.3c-1.987-3.092,6.736,1.546,7.067,4.085  s0.662,7.067-1.325,5.852C298.569,350.438,294.372,347.015,294.372,347.015z"/>
<path style="fill:#FF4B55;" d="M284.914,347.346c-0.295-1.62,0-2.724-2.061-4.196s-2.356-2.282-2.356-3.239  c0,0,1.122,1.196,3.11,1.693c1.216,0.304,2.263,1.178,2.263,1.178s0.515-1.841-1.325-2.87c0,0,3.239,0,3.754,2.944  c0.515,2.944-1.178,3.387,1.251,3.68c2.429,0.295,8.098-0.884,10.085,3.607c1.987,4.49-4.049,1.251-5.668,0.662  c-1.62-0.589-6.772,0.662-7.582-0.441C285.576,349.259,284.914,347.346,284.914,347.346z"/>
<path style="fill:#FFF5E6;" d="M306.132,355.407l-8.723-14.355c0,0-8.668-3.349-8.741-3.791c-0.074-0.442-2.87-4.049-2.87-4.564  c0-0.515,0.295-3.018,1.398-3.459c1.105-0.442,4.62,1.042,6.147,1.432s3.938-2.462,3.938-2.462s14.06,2.651,15.091,4.343  c1.031,1.693,5.888,13.839,6.11,15.091c0.221,1.251,0,9.864-0.295,9.716C317.891,357.21,306.132,355.407,306.132,355.407z"/>
<path style="fill:#FF4B55;" d="M286.092,335.2c0,0,2.723,1.693,4.195,2.208c1.472,0.515,3.94-2.243,3.533-3.754  c-0.515-1.913-2.723-1.913-3.754-3.459c-1.031-1.546-3.46-1.546-4.785,0.367C283.956,332.477,286.092,335.2,286.092,335.2z   M289.557,332.954c0.63-0.445,1.896-0.397,1.886,0.46s-1.526,1.817-2.131,1.045C288.82,333.83,289.147,333.244,289.557,332.954z   M286.599,331.092c0.369-0.677,1.526-1.193,1.894-0.419c0.37,0.774-0.567,2.304-1.451,1.878  C286.323,332.205,286.358,331.534,286.599,331.092z"/>
<path style="fill:#FFF5E6;" d="M282.491,386.249c-1.467,0.146-3.409-0.054-3.813-3.373c-0.462-3.804-1.613-5.132-3.519-4.253  c-1.907,0.88-1.433,2.399-1.433,2.399s-2.098,5.521-0.993,7.729c1.105,2.208,3.644,4.859,5.521,5.3  c1.877,0.442,5.742-2.098,5.742-2.098L282.491,386.249z"/>
<path style="fill:#FFE6D7;" d="M293.084,373.404c-1.251-0.589-16.709-11.336-18.55-15.385c-1.841-4.049-0.81-6.993-3.239-7.141  c-2.429-0.147-6.552-0.295-6.183-3.313c0.367-3.018,4.416-1.105,5.521-1.693s4.564-2.208,5.226,0.147  c0.662,2.356,0,4.49,0.957,5.668c0.957,1.177,5.226,3.239,5.962,3.092s2.308-0.34,3.51,0.419c1.201,0.759,1.865,1.79,1.865,1.79  s4.527,0.184,5.171,0.791c0.645,0.607,3.073,3.846,3.073,3.846L293.084,373.404z"/>
<path style="fill:#5AA587;" d="M291.466,370.975c0,0-2.944-1.103-5.042-5.19c-2.098-4.085-4.196-2.429-7.288-4.637  c-3.092-2.208-1.105-5.521-0.221-6.846s0.276-4.747-2.76-4.637c-1.998,0.072-8.391,6.293-5.521,12.477c0,0,0.441-1.105,1.546-2.429  c0,0-1.656,4.085,2.208,8.613c0,0-0.11-2.318,1.105-3.864c0,0,0.11,5.741,4.528,9.385c0,0-0.552-3.754,0.11-5.3  c0,0,0.662,4.969,7.177,9.496c0,0-0.993-1.767-0.772-4.637l5.521,2.87L291.466,370.975z"/>
<path style="fill:#F5DCD2;" d="M333.46,389.856c0,0,1.987,6.073-3.423,7.839c-5.411,1.767-8.391-0.552-10.38,0  c-1.987,0.552-1.546,4.085,1.215,7.067s5.521,3.313,8.613,1.105c3.092-2.208,3.313-4.196,6.514-3.423  c3.202,0.772,7.619-2.318,7.619-2.318s-2.87-12.477-3.202-12.367C340.085,387.869,333.46,389.856,333.46,389.856z"/>
<path style="fill:#FFF5E6;" d="M361.534,374.664c0,0-3.813-3.666-18.624-8.213c-14.811-4.546-22.73-6.452-22.73-6.452l-11.586-3.667  c0,0-5.452-0.021-9.033-1.037c-3.58-1.016-3.58-1.016-3.58-1.016s-9.532,13.491-2.347,27.13l-2.493,2.347c0,0-2.621,0.8-4.61,1.5  c-1.989,0.7-0.522,4.513-0.522,4.513l7.625,3.519l22.29-1.026c0,0,0.44-1.027,7.772,1.32c7.332,2.347,10.558-2.933,24.637-3.373  C362.414,389.768,361.534,374.664,361.534,374.664z"/>
<g>
	<path style="fill:#5AA587;" d="M298.164,322.023c0,0-2.246,2.246-1.031,4.637c0,0,2.503-2.576,4.564-3.165   c3.173-0.906,3.828,0.829,10.84,1.16c4.413,0.209,6.193,4.435,10.508,3.404c4.619-1.105,8.428,1.012,8.428,1.012   s-2.649-0.331-4.804,1.712c-2.153,2.042-5.962,1.601-5.962,1.601s3.478,2.429,6.403,1.27c2.927-1.16,7.122,0.993,7.122,0.993   c-0.772-0.055-2.484,0.22-4.416,2.263c-1.932,2.043-6.238,1.546-6.238,1.546c0.772,0.939,2.927,1.987,4.96,1.597   c4.611-0.884,9.532,1.173,9.532,1.173s-2.933-1.026-6.893,1.907c-3.959,2.933-8.505,1.173-8.505,1.173c0,1.907,3.968,9.25,11.009,9   c8.766-0.311,10.988,4.784,10.988,4.784s-3.519-1.173-8.065-0.44c-8.806,1.42-14.811-3.666-14.811-3.666s1.466,6.893,7.479,6.599   c6.012-0.294,13.639,5.866,13.639,5.866s-6.776-1.221-15.522-1.328c-2.877-0.035-5.217-1.17-7.217-2.519   c-5.26-3.553-10.118-3.553-10.118-3.553c5.742,1.325,8.723,7.619,8.723,7.619s-4.416-3.864-10.821-3.864   c-6.405,0-8.393-7.508-8.393-7.508c5.962,0.11,6.846-4.749,6.846-4.749s1.767,0.552,3.423,2.541   c1.047,1.257,2.819,1.685,4.031,1.853c0.441-3.873-2.482-7.408-2.482-7.408s3.96-6.012-1.173-12.465   c-5.132-6.452-16.864-4.4-16.864-4.4C292.128,325.262,296.692,321.877,298.164,322.023z"/>
	<path style="fill:#5AA587;" d="M310.088,343.371c-1.913-0.295-10.821-3.239-10.673-7.214s5.447-2.577,5.152-0.441   c-0.295,2.134-2.208,1.693-2.208,1.693s0.185,0.961,4.123,1.767C309.721,339.837,310.088,343.371,310.088,343.371z"/>
	<path style="fill:#5AA587;" d="M286.533,385.256c0,0-5.521-0.884-5.3,3.092s3.387,8.17,9.937,10.011c0,0-2.429-2.098-1.877-3.313   c0.552-1.215,3.313-1.546,4.747,0.552c1.436,2.098,3.864,2.982,5.962,2.651c0,0-3.754-2.76-1.105-3.754   c2.387-0.895,1.472,2.982,7.177,3.644c0,0-4.196-3.313-1.767-4.196c2.429-0.884,3.754,4.859,8.06,4.416   c0,0-3.607-3.606-1.656-4.196c3.073-0.927,3.864,4.416,9.385,2.098c0,0-2.76-1.215-0.552-4.196   c2.208-2.982-0.884-6.736-2.429-8.281c-1.546-1.546-2.649-2.539-2.208-4.085c0,0-3.938,2.466-1.951,6.809   c1.866,4.078-5.688,1.826-11.557,1.325c-6.036-0.515-9.617,2.947-13.471,1.767C284.325,388.495,286.533,385.256,286.533,385.256z"/>
	<path style="fill:#5AA587;" d="M393.357,387.129c0,0-7.243,3.34-11.349-0.033s-5.221,0.62-10.061-2.313   c-4.839-2.933-4.546-1.32-8.359-1.32c-3.813,0-6.599-6.16-4.253-10.412c0,0-7.963-3.088-6.329-9.474   c1.215-4.747,7.211-3.285,7.211-3.285s6.326-3.976,10.705,1.173c3.579,4.21,1.613,7.039,7.625,7.772   c6.012,0.734,6.892,6.892,13.345,6.16c0,0-4.4,5.72-11.146,2.053C380.744,377.451,380.902,382.974,393.357,387.129z"/>
	<path style="fill:#5AA587;" d="M329.264,397.916c0,0-6.183,5.521,5.962,8.834c0,0-0.772-0.993-1.656-2.761   c0,0,3.754,2.761,8.613,2.539c0,0-1.436-1.105-1.767-2.429c0,0,4.416,1.215,7.619-0.884c0,0-3.864-0.221-6.293-3.864   c0,0-1.105,2.208-3.423,1.105c-2.318-1.105-3.648,0.485-5.742,0.552C330.865,401.064,329.375,400.181,329.264,397.916z"/>
	<path style="fill:#5AA587;" d="M332.319,363.834c0,0,4.416,2.061,2.356,5.962c-1.375,2.601-5.678,3.225-7.362,0.81   c-1.436-2.061-0.296-4.061,1.215-4.343c1.583-0.295,2.539,0.369,3.275,1.693C331.803,367.957,334.528,366.926,332.319,363.834z"/>
	<path style="fill:#5AA587;" d="M312.481,370.699c0,0-9.591,0.365-9.109,7.012c0.212,2.924,4.166,4.966,6.663,3.433   c2.129-1.308,1.785-3.488,0.674-4.454c-1.223-1.065-2.434-0.68-3.635,0.236C307.074,376.924,306.463,373.294,312.481,370.699z"/>
	<path style="fill:#5AA587;" d="M293.324,357.78c0,0-5.177-3.473-7.192,0.661c-0.887,1.819,0.767,4.409,2.788,4.358   c1.725-0.044,2.273-1.463,1.946-2.426c-0.361-1.06-1.217-1.25-2.252-1.118C288.614,359.255,288.3,356.566,293.324,357.78z"/>
	<path style="fill:#5AA587;" d="M286.288,355.2c0,0-4.775-3.204-6.634,0.61c-0.817,1.678,0.707,4.066,2.572,4.019   c1.591-0.04,2.097-1.35,1.795-2.237c-0.334-0.977-1.122-1.152-2.077-1.032C281.944,356.56,281.655,354.079,286.288,355.2z"/>
	<path style="fill:#5AA587;" d="M304.176,376.38c0,0-8.253,0.314-7.839,6.033c0.182,2.516,3.585,4.274,5.733,2.953   c1.832-1.126,1.931-3.192,1.136-4.178c-1.38-1.711-3.037-0.939-3.037-0.939S298.997,378.613,304.176,376.38z"/>
	<path style="fill:#5AA587;" d="M298.126,380.912c0,0-9.11-0.883-8.433,5.265c0.176,1.605,2.293,2.734,3.668,1.889   c1.172-0.72,1.235-2.042,0.726-2.673c-0.882-1.095-1.942-0.601-1.942-0.601S292.717,382.072,298.126,380.912z"/>
</g>
<path style="fill:#FFE6D7;" d="M356.548,410.152c0,0-1.247,2.531-2.053,4.986c-0.69,2.102-4.253,3.519-6.16,2.199  c-1.906-1.32-5.126-5.264-3.806-6.143c1.32-0.88,7.032-0.162,7.912-3.242c0.88-3.079,0.586-5.132,0.586-5.132  s-7.643,2.274-11.287-3.468c-3.644-5.742-3.123-11.348-4.551-14.13c-1.117-2.174-3.079-3.227-3.079-3.227  c2.246-8.889,29.623-15.251,26.445,7.822l4.301,9.776L356.548,410.152z"/>
<g>
	<path style="fill:#5AA587;" d="M366.254,409.768c-1.877,1.215-8.76,4.711-13.029,2.061c-3.492-2.167-3.533-4.637-1.325-5.19   c2.208-0.552,3.423,0.993,4.637,0s8.06-6.626,5.521-8.391c-2.539-1.766-3.915-3.197-3.864-6.293c0.036-2.282,2.024-4.49,4.38-4.711   c2.938-0.275,5.226,0.957,8.318,0.957l-3.607,1.841c2.319,1.105,2.503,4.233,5.264,4.785c0,0-1.877,2.134-4.233,1.472   c0,0,0.81,2.208,3.018,2.503c0,0-2.061,2.356-3.975,3.018c0,0,1.251,0.884,3.202,0.515c0,0-3.054,4.49-7.619,5.631L366.254,409.768   z"/>
	<path style="fill:#5AA587;" d="M352.953,401.36c0,0-1.227-0.212-1.332-1.706c-0.061-0.861,0.799-1.977,2.262-1.893   c1.713,0.099,2.877,2.373,2.054,3.883c-2.102,3.859-9.926,2.309-10.883,0.911C345.053,402.554,351.311,402.849,352.953,401.36z"/>
</g>
<g>
	<path style="fill:#FFE15A;" d="M349.286,419.705c-0.34-0.479-0.616-1.776,0.046-2.577c0,0-0.359-1.85-1.767-1.187   c0,0-0.599,1.481-0.12,2.512C347.924,419.484,349.286,419.705,349.286,419.705z"/>
	<path style="fill:#FFE15A;" d="M346.414,418.668c0.024-1.335,0.324-2.063,1.4-2.174c0,0,0.276-1.932-1.325-1.932   c0,0-1.187,1.048-1.198,2.184C345.28,417.883,346.414,418.668,346.414,418.668z"/>
	<path style="fill:#FFE15A;" d="M344.64,417.375c0.262-1.308,0.511-2.218,1.708-2.307c0,0,0.637-1.582-1.128-1.803   c0,0-1.126,0.904-1.341,2.019C343.664,416.4,344.64,417.375,344.64,417.375z"/>
	<path style="fill:#FFE15A;" d="M342.864,415.346c0.544-1.218,1.085-1.707,2.273-1.53c0,0,1.021-1.436-0.386-2.208   c0,0-1.715,0.489-2.169,1.531C342.127,414.18,342.864,415.346,342.864,415.346z"/>
	<path style="fill:#FFE15A;" d="M321.904,407.878c-0.25-0.531-0.291-1.857,0.502-2.527c0,0-0.025-1.883-1.528-1.482   c0,0-0.852,1.352-0.564,2.451C320.603,407.42,321.904,407.878,321.904,407.878z"/>
	<path style="fill:#FFE15A;" d="M319.261,406.348c0.26-1.308,0.685-1.973,1.763-1.891c0,0,0.615-1.852-0.961-2.137   c0,0-1.353,0.821-1.567,1.937C318.285,405.374,319.261,406.348,319.261,406.348z"/>
	<path style="fill:#FFE15A;" d="M317.743,404.761c0.491-1.241,0.896-2.092,2.091-1.967c0,0,0.908-1.445-0.791-1.974   c0,0-1.268,0.689-1.678,1.75C316.955,403.63,317.743,404.761,317.743,404.761z"/>
	<path style="fill:#FFE15A;" d="M316.356,402.449c0.751-1.102,1.37-1.487,2.508-1.102c0,0,1.26-1.231,0.011-2.242   c0,0-1.773,0.177-2.406,1.121C315.838,401.169,316.356,402.449,316.356,402.449z"/>
</g>
<path style="fill:#FFE6D7;" d="M285.209,334.464c-0.239,1.195,0.367,2.503,3.239,3.754c2.87,1.251,2.797,0.736,4.711,3.165  c1.913,2.429,2.134,2.503,4.49,2.944s3.459,7.729,0.662,6.624c-2.797-1.105-3.165-3.387-6.257-2.651  c-3.092,0.736-4.711,1.767-7.141-0.957c0,0-2.356,3.165,2.061,4.49c4.416,1.325,6.826,1.427,9.008,2.443  c2.181,1.016,9.919,3.5,10.426-3.731c0.147-2.098-1.398-2.908-2.282-4.454c-0.884-1.546-1.767-2.577-3.901-4.27  s-0.81-3.092-4.269-3.607c-3.46-0.515-6.331-0.442-7.362-2.944C287.564,332.772,285.502,332.991,285.209,334.464z"/>
<g>
	<path style="fill:#5AA587;" d="M343.176,369.558c0,0,0.664-2.638-2.413-3.755c0.722,0.22,1.386,0.416,2.146,0.649   c0.647,0.199,1.16,0.384,1.766,0.58c0.236,0.319,0.554,0.487,0.712,0.935c0.936,2.621-1.38,6.021-4.139,5.65   c-2.354-0.317-3.022-2.389-2.252-3.623C339.802,368.702,341.576,368.398,343.176,369.558z"/>
	<path style="fill:#5AA587;" d="M342.224,397.559c3.338,0.746,4.84-0.542,4.84-0.542s-1.226-0.212-1.332-1.707   c-0.061-0.861,0.799-1.977,2.262-1.893c1.713,0.099,2.877,2.373,2.054,3.883c-1.808,3.318-6.944,2.534-9.209,0.182   c-0.119-0.242-0.242-0.482-0.35-0.724C340.985,397.07,341.618,397.424,342.224,397.559z"/>
	<path style="fill:#5AA587;" d="M338.851,391.979c-0.085-0.377-0.206-0.759-0.276-1.121c3.923,1.587,5.067-0.411,5.067-0.411   s-1.227-0.212-1.332-1.707c-0.061-0.861,0.799-1.977,2.262-1.893c1.713,0.097,2.877,2.373,2.054,3.883   C344.707,394.25,341.291,393.27,338.851,391.979z"/>
	<path style="fill:#5AA587;" d="M330.025,393.846c2.279,2.043,4.023,1.931,4.023,1.931s-0.911-0.847-0.184-2.156   c0.42-0.755,1.75-1.22,2.928-0.352c1.382,1.018,1.115,3.559-0.399,4.375c-3.723,2.006-6.138-1.096-7.43-3.595   C329.315,394.001,329.673,393.919,330.025,393.846z"/>
</g>
<g>
	<path style="fill:#FFE15A;" d="M271.261,391.87c0.165-0.814,1.017-2.362,2.064-2.468c0,0,1.237-2.171-0.17-2.959   c0,0-1.546,0.836-2.061,2.331C270.583,390.266,271.261,391.87,271.261,391.87z"/>
	<path style="fill:#FFE15A;" d="M270.28,387.93c1.07-1.277,1.833-1.685,2.596-0.695c0,0,1.701-1.605,0.696-3.237   c0,0-1.572-0.186-2.478,0.911C270.19,386.007,270.28,387.93,270.28,387.93z"/>
	<path style="fill:#FFE15A;" d="M270.19,384.858c1.198-1.01,2.073-1.645,2.894-0.51c0,0,1.651-0.895,0.717-2.912   c0,0-1.42-0.266-2.437,0.605C270.349,382.912,270.19,384.858,270.19,384.858z"/>
	<path style="fill:#FFE15A;" d="M270.68,381.068c1.303-0.635,2.028-0.56,2.634,0.824c0,0,1.775-0.36,1.503-2.549   c0,0-1.461-1.27-2.569-0.717C271.14,379.179,270.68,381.068,270.68,381.068z"/>
</g>
<circle style="fill:#F5F5F5;" cx="299.12" cy="338.58" r="2.061"/>
<circle style="fill:#41479B;" cx="299.12" cy="338.58" r="0.747"/>
<circle style="fill:#F5F5F5;" cx="294.87" cy="331.06" r="1.675"/>
<circle style="fill:#41479B;" cx="294.87" cy="331.06" r="0.607"/>
<path style="fill:#FFF5E6;" d="M354.328,371.527c1.907,1.466,8.501-1.767,13.139-0.221c5.993,1.998,5.943,5.851,5.943,5.851  s-3.735-4.636-9.955-2.354c-3.442,1.262-5.442,1.327-5.442,1.327L354.328,371.527z"/>
<path style="fill:#FFE15A;" d="M453.019,374.774c-0.452,0.312-0.651,0.432-0.709,0.465l-14.319,8.27L415.8,396.327l-27.325,15.782  l-94.989,54.863l-19.995,11.548l-12.307,7.108c-1.563,0.902-3.343,1.38-5.149,1.38c-1.803,0-3.583-0.476-5.145-1.378l-12.39-7.151  l-19.995-11.541l-94.999-54.826l-18.203-10.505l-22.199-12.812l-23.371-13.488c-0.069-0.04-0.28-0.167-0.734-0.482  c-1.195-0.831-2.166-1.899-2.902-3.107c-0.968-1.588-1.518-3.42-1.518-5.329l-0.007-42.485l-0.005-27.164l-0.014-81.491  l-0.005-27.164l-0.007-42.41c0-1.835,0.507-3.6,1.405-5.145c0.75-1.29,1.767-2.429,3.03-3.304c0.452-0.314,0.654-0.434,0.71-0.466  l11.697-6.756l22.19-12.818l29.947-17.297l94.989-54.862l19.995-11.548l12.305-7.108c1.563-0.902,3.344-1.38,5.149-1.38  c1.803,0,3.583,0.476,5.145,1.378l12.39,7.151l19.995,11.541l94.999,54.826l17.87,10.313l22.198,12.81l23.705,13.681  c0.069,0.04,0.28,0.167,0.732,0.482c1.277,0.889,2.303,2.046,3.053,3.357h25.979c-1.402-9.621-6.723-18.284-14.757-23.872  c-0.812-0.565-1.642-1.11-2.509-1.611l-23.711-13.684L418.85,88.555l-17.87-10.313l-94.998-54.826l-19.995-11.539l-12.39-7.151  C268.145,1.575,262.054,0,255.964,0c-6.095,0-12.189,1.577-17.649,4.73l-12.307,7.108l-19.995,11.548L111.025,78.25L81.078,95.546  l-22.191,12.818L47.19,115.12c-0.841,0.486-1.648,1.015-2.439,1.562c-8.049,5.575-13.388,14.231-14.807,23.851  c-0.25,1.692-0.392,3.409-0.392,5.15l0.007,42.41l0.005,27.164l0.014,81.491l0.005,27.164l0.007,42.485  c0,1.8,0.154,3.577,0.421,5.324c1.457,9.521,6.754,18.081,14.718,23.622c0.812,0.565,1.642,1.11,2.509,1.611l23.377,13.491  l22.198,12.812l18.204,10.506l94.999,54.826l19.995,11.539l12.39,7.151c5.457,3.149,11.548,4.725,17.638,4.725  c6.095,0,12.188-1.577,17.649-4.73l12.307-7.108l19.995-11.548l94.989-54.863l27.325-15.782l22.191-12.818l14.319-8.27  c0.841-0.486,1.648-1.013,2.439-1.561c7.98-5.526,13.294-14.081,14.768-23.601h-26.118  C455.165,372.904,454.201,373.955,453.019,374.774z"/>
<g>
</g>
<g>
</g>
<g>
</g>
<g>
</g>
<g>
</g>
<g>
</g>
<g>
</g>
<g>
</g>
<g>
</g>
<g>
</g>
<g>
</g>
<g>
</g>
<g>
</g>
<g>
</g>
<g>
</g>
</svg>
