<?xml version="1.0" encoding="iso-8859-1"?>
<!-- Generator: Adobe Illustrator 19.0.0, SVG Export Plug-In . SVG Version: 6.00 Build 0)  -->
<svg xmlns="http://www.w3.org/2000/svg" xmlns:xlink="http://www.w3.org/1999/xlink" version="1.1" id="Layer_1" x="0px" y="0px" viewBox="0 0 512.003 512.003" style="enable-background:new 0 0 512.003 512.003;" xml:space="preserve">
<path style="fill:#F5F5F5;" d="M482.436,296.747l-0.014-81.491l-0.005-27.164l-0.008-42.486  c-0.001-11.607-5.715-22.388-15.14-28.946c-0.812-0.565-1.642-1.11-2.508-1.611l-23.711-13.684l-22.198-12.81l-17.87-10.313  l-94.999-54.826l-19.993-11.54L273.6,4.725c-10.918-6.301-24.37-6.3-35.287,0.006l-12.307,7.108l-19.995,11.548l-94.987,54.864  L81.077,95.547l-22.191,12.818l-11.697,6.756c-0.841,0.486-1.648,1.015-2.439,1.561c-9.465,6.556-15.201,17.365-15.2,29.001  l0.007,42.41l0.005,27.164l0.014,81.491l0.005,27.164l0.007,42.486c0.003,11.607,5.715,22.388,15.14,28.946  c0.812,0.565,1.642,1.11,2.509,1.61l23.377,13.491l22.198,12.812l18.204,10.506l94.999,54.826l19.995,11.539l12.39,7.151  c10.92,6.302,24.37,6.298,35.287-0.006l12.307-7.108l19.995-11.548l94.989-54.862l27.325-15.782l22.191-12.818l14.319-8.27  c0.841-0.486,1.648-1.015,2.439-1.561c9.465-6.556,15.201-17.365,15.2-29.001l-0.008-42.41L482.436,296.747z"/>
<path style="fill:#73AF00;" d="M29.587,366.396c0.002,11.607,5.715,22.389,15.14,28.946c0.812,0.565,1.642,1.11,2.509,1.611  l23.377,13.491l22.198,12.812l18.204,10.506l94.999,54.826l19.995,11.539l12.39,7.151c10.92,6.302,24.37,6.298,35.287-0.006  l12.307-7.108l19.995-11.548l94.989-54.863l27.325-15.782l22.191-12.818l14.319-8.27c0.841-0.486,1.648-1.013,2.439-1.562  c9.465-6.556,15.201-17.365,15.2-29.001l-0.004-24.078H29.583L29.587,366.396z"/>
<path style="fill:#FF4B55;" d="M482.411,145.606c-0.003-11.607-5.715-22.389-15.14-28.946c-0.812-0.565-1.642-1.11-2.509-1.611  l-23.71-13.684l-22.198-12.81l-17.87-10.313l-94.998-54.826l-19.995-11.539l-12.39-7.151c-10.918-6.302-24.37-6.3-35.287,0.006  l-12.307,7.108l-19.995,11.548l-94.99,54.862L81.077,95.547l-22.191,12.818l-11.697,6.756c-0.841,0.486-1.648,1.015-2.439,1.561  c-9.465,6.556-15.201,17.365-15.2,29.001l0.004,24.078h452.861L482.411,145.606z"/>
<g>
	<path style="fill:#FFCD5A;" d="M223.234,291.715c4.156-2.094,6.588-5.546,7.889-8.038c7.447,4.864,13.826,3.212,17.152,1.657   c3.244-1.52,5.916-3.999,7.699-6.526c1.783,2.527,4.455,5.006,7.699,6.526c3.324,1.556,9.705,3.205,17.152-1.657   c1.3,2.492,3.731,5.942,7.889,8.038c2.397,1.207,5.037,1.813,7.904,1.813c2.944,0,6.126-0.639,9.522-1.912l-1.65-4.401   c-5.404,2.026-9.987,2.137-13.619,0.324c-5.082-2.533-6.779-8.12-6.793-8.167l-0.991-3.469l-2.772,2.308   c-4.89,4.073-9.954,5.071-14.65,2.865c-4.769-2.232-7.343-6.753-7.343-8.109v-20.279c1.017-2.237,3.26-3.803,5.873-3.803   c0.898,0,1.786,0.195,2.638,0.579l2.908,1.312l-0.44-3.162c-0.922-6.643-6.653-11.652-13.33-11.652   c-6.677,0-12.408,5.009-13.33,11.652l-0.44,3.162l2.908-1.312c0.851-0.384,1.74-0.579,2.638-0.579c2.613,0,4.857,1.566,5.873,3.803   v20.279c0,1.356-2.573,5.876-7.343,8.109c-4.694,2.204-9.76,1.21-14.65-2.865l-2.751-2.278l-1.011,3.43   c-0.016,0.055-1.713,5.642-6.796,8.175c-3.634,1.813-8.216,1.705-13.619-0.324l-1.65,4.401c3.397,1.273,6.578,1.912,9.522,1.912   C218.196,293.528,220.839,292.922,223.234,291.715z M247.75,245.361c-0.281,0-0.561,0.011-0.84,0.036   c1.573-3.507,5.091-5.911,9.064-5.911c3.971,0,7.49,2.404,9.064,5.911c-3.654-0.321-7.109,1.463-9.064,4.291   C254.171,247.076,251.157,245.361,247.75,245.361z"/>
	<path style="fill:#FFCD5A;" d="M215.286,306.654l1.49,4.456c9.99-3.334,24.278-5.247,39.198-5.247s29.208,1.913,39.198,5.247   l1.49-4.456c-10.451-3.49-25.282-5.491-40.688-5.491C240.568,301.163,225.739,303.164,215.286,306.654z"/>
	<path style="fill:#FFCD5A;" d="M255.974,296.465c2.449,0.008,4.607-1.448,6.07-3.409c-0.972-0.6-2.269-0.951-3.739-1.133   c0.001-0.054,0.019-0.102,0.019-0.156c0-2.014-0.951-3.754-2.349-4.699c-1.398,0.945-2.349,2.684-2.349,4.699   c0,0.054,0.018,0.102,0.019,0.156c-1.468,0.182-2.767,0.532-3.739,1.133C251.367,295.016,253.523,296.471,255.974,296.465z"/>
	<path style="fill:#FFCD5A;" d="M234.407,298.685c2.401-0.482,4.225-2.341,5.265-4.554c-1.072-0.394-2.414-0.477-3.889-0.362   c-0.01-0.052-0.003-0.104-0.014-0.157c-0.402-1.973-1.682-3.488-3.242-4.134c-1.181,1.206-1.766,3.1-1.362,5.074   c0.011,0.054,0.037,0.097,0.049,0.15c-1.402,0.472-2.604,1.076-3.437,1.858C229.604,298.189,232.009,299.183,234.407,298.685z"/>
	<path style="fill:#FFCD5A;" d="M279.419,289.477c-1.56,0.646-2.839,2.161-3.242,4.134c-0.011,0.054-0.004,0.104-0.014,0.157   c-1.475-0.115-2.817-0.031-3.889,0.362c1.04,2.214,2.864,4.071,5.265,4.554c2.399,0.497,4.804-0.496,6.629-2.127   c-0.832-0.782-2.034-1.386-3.437-1.858c0.012-0.052,0.039-0.096,0.049-0.15C281.185,292.577,280.601,290.683,279.419,289.477z"/>
	<path style="fill:#FFCD5A;" d="M255.347,202.943l-1.583,4.746l-5.002,0.039c-0.647,0.005-0.916,0.831-0.395,1.216l4.024,2.972   l-1.508,4.77c-0.195,0.617,0.507,1.128,1.035,0.752l4.07-2.909l4.07,2.909c0.527,0.376,1.23-0.134,1.035-0.752l-1.508-4.77   l4.024-2.972c0.521-0.385,0.252-1.211-0.395-1.216l-5.002-0.039l-1.583-4.746C256.42,202.328,255.552,202.328,255.347,202.943z"/>
	<path style="fill:#FFCD5A;" d="M226.711,210.774l-1.583,4.746l-5.002,0.039c-0.647,0.005-0.916,0.831-0.395,1.216l4.024,2.972   l-1.51,4.77c-0.195,0.617,0.507,1.128,1.035,0.752l4.07-2.909l4.07,2.909c0.527,0.376,1.23-0.134,1.035-0.752l-1.51-4.77   l4.024-2.972c0.521-0.385,0.252-1.211-0.395-1.216l-5.002-0.039l-1.583-4.746C227.785,210.16,226.916,210.16,226.711,210.774z"/>
	<path style="fill:#FFCD5A;" d="M205.663,231.921l-1.582,4.746l-5.002,0.039c-0.647,0.005-0.916,0.831-0.395,1.216l4.024,2.972   l-1.51,4.77c-0.195,0.617,0.507,1.128,1.035,0.752l4.07-2.909l4.07,2.909c0.527,0.376,1.23-0.134,1.035-0.752l-1.51-4.77   l4.024-2.972c0.521-0.385,0.252-1.211-0.395-1.216l-5.002-0.039l-1.582-4.746C206.737,231.306,205.868,231.306,205.663,231.921z"/>
	<path style="fill:#FFCD5A;" d="M197.929,260.507l-1.582,4.746l-5.002,0.039c-0.647,0.005-0.916,0.831-0.395,1.216l4.024,2.972   l-1.51,4.77c-0.195,0.617,0.507,1.128,1.035,0.752l4.07-2.909l4.07,2.909c0.527,0.376,1.23-0.134,1.035-0.752l-1.51-4.77   l4.024-2.972c0.521-0.385,0.252-1.211-0.395-1.216l-5.002-0.039l-1.582-4.746C199.003,259.892,198.134,259.892,197.929,260.507z"/>
	<path style="fill:#FFCD5A;" d="M285.287,210.774l1.582,4.746l5.002,0.039c0.647,0.005,0.916,0.831,0.395,1.216l-4.024,2.972   l1.51,4.77c0.195,0.617-0.507,1.128-1.035,0.752l-4.07-2.909l-4.07,2.909c-0.527,0.376-1.23-0.134-1.035-0.752l1.51-4.77   l-4.024-2.972c-0.521-0.385-0.252-1.211,0.395-1.216l5.002-0.039l1.583-4.746C284.214,210.16,285.082,210.16,285.287,210.774z"/>
	<path style="fill:#FFCD5A;" d="M306.335,231.921l1.583,4.746l5.002,0.039c0.647,0.005,0.916,0.831,0.395,1.216l-4.024,2.972   l1.51,4.77c0.195,0.617-0.507,1.128-1.035,0.752l-4.07-2.909l-4.07,2.909c-0.527,0.376-1.23-0.134-1.035-0.752l1.508-4.77   l-4.024-2.972c-0.521-0.385-0.252-1.211,0.395-1.216l5.002-0.039l1.582-4.746C305.262,231.306,306.13,231.306,306.335,231.921z"/>
	<path style="fill:#FFCD5A;" d="M314.069,260.507l1.583,4.746l5.002,0.039c0.647,0.005,0.916,0.831,0.395,1.216l-4.024,2.972   l1.508,4.77c0.195,0.617-0.507,1.128-1.035,0.752l-4.07-2.909l-4.07,2.909c-0.527,0.376-1.23-0.134-1.035-0.752l1.51-4.77   l-4.024-2.972c-0.521-0.385-0.252-1.211,0.395-1.216l5.002-0.039l1.583-4.746C312.996,259.892,313.864,259.892,314.069,260.507z"/>
</g>
<g>
</g>
<g>
</g>
<g>
</g>
<g>
</g>
<g>
</g>
<g>
</g>
<g>
</g>
<g>
</g>
<g>
</g>
<g>
</g>
<g>
</g>
<g>
</g>
<g>
</g>
<g>
</g>
<g>
</g>
</svg>
