<?xml version="1.0" encoding="iso-8859-1"?>
<!-- Generator: Adobe Illustrator 19.0.0, SVG Export Plug-In . SVG Version: 6.00 Build 0)  -->
<svg xmlns="http://www.w3.org/2000/svg" xmlns:xlink="http://www.w3.org/1999/xlink" version="1.1" id="Layer_1" x="0px" y="0px" viewBox="0 0 512.002 512.002" style="enable-background:new 0 0 512.002 512.002;" xml:space="preserve">
<path style="fill:#41479B;" d="M482.45,366.319l-0.008-42.41l-0.005-27.164l-0.014-81.491l-0.005-27.164l-0.008-42.485  c0-3.105-0.422-6.147-1.202-9.07c-0.42-1.572-0.948-3.107-1.577-4.597c-2.568-6.091-6.814-11.419-12.362-15.28  c-0.812-0.565-1.642-1.11-2.509-1.611l-23.71-13.684l-22.198-12.81l-17.87-10.313L332.645,38.8l0,0l-26.659-15.386l-19.995-11.539  l-12.39-7.151c-10.918-6.301-24.37-6.298-35.287,0.006l-12.307,7.108l-19.995,11.548l-26.659,15.398l0,0L111.026,78.25  L81.079,95.547l-22.191,12.818l-11.697,6.755c-0.841,0.486-1.648,1.015-2.439,1.561c-3.392,2.349-6.296,5.254-8.638,8.538  c-1.572,2.206-2.883,4.585-3.911,7.092c-1.715,4.179-2.652,8.706-2.651,13.371l0.007,42.41l0.005,27.164l0.014,81.478v0.014v0.005  l0.005,27.159l0.007,42.478v0.006c0.003,11.607,5.715,22.388,15.14,28.946c0.812,0.565,1.642,1.11,2.509,1.611l23.377,13.491  l22.198,12.812l18.204,10.506l94.999,54.826l19.995,11.539l12.39,7.151c10.918,6.301,24.37,6.298,35.287-0.006l12.307-7.108  l19.995-11.548l26.659-15.397l0,0l57.588-33.261l10.742-6.205l27.325-15.782l22.191-12.818l14.319-8.27  c0.841-0.486,1.648-1.015,2.439-1.561C476.716,388.765,482.452,377.956,482.45,366.319L482.45,366.319L482.45,366.319z"/>
<g>
	<path style="fill:#FFE15A;" d="M455.935,360.971H136.023c-4.418,0-7.998-3.58-7.998-7.998l0,0c0-4.418,3.58-7.998,7.998-7.998   h319.913l7.998,7.998L455.935,360.971z"/>
	<path style="fill:#FFE15A;" d="M459.934,336.978H136.023c0,0,127.965-143.961,247.932-175.952c0,0-39.989,103.972,55.985,167.954   h19.995c2.208,0,3.999,1.791,3.999,3.999l0,0C463.933,335.188,462.142,336.978,459.934,336.978z"/>
</g>
<g>
	<path style="fill:#F5F5F5;" d="M122.048,290.679l3.103,9.305l9.809,0.076c1.27,0.01,1.797,1.631,0.775,2.384l-7.89,5.827   l2.959,9.352c0.384,1.211-0.996,2.212-2.028,1.473l-7.98-5.703l-7.98,5.703c-1.033,0.739-2.412-0.262-2.028-1.473l2.959-9.352   l-7.89-5.827c-1.021-0.755-0.495-2.374,0.775-2.384l9.809-0.076l3.103-9.305C119.942,289.475,121.645,289.475,122.048,290.679z"/>
	<path style="fill:#F5F5F5;" d="M121.812,162.749l2.518,7.549l7.958,0.061c1.03,0.007,1.457,1.322,0.629,1.934l-6.402,4.727   l2.401,7.587c0.311,0.982-0.807,1.795-1.646,1.196l-6.474-4.627l-6.474,4.627c-0.839,0.6-1.957-0.214-1.646-1.196l2.401-7.587   l-6.402-4.727c-0.829-0.612-0.401-1.927,0.629-1.934l7.958-0.061l2.518-7.549C120.102,161.772,121.485,161.772,121.812,162.749z"/>
	<path style="fill:#F5F5F5;" d="M61.524,209.462l2.518,7.549L72,217.072c1.03,0.007,1.457,1.323,0.629,1.934l-6.402,4.727   l2.401,7.587c0.311,0.982-0.807,1.795-1.646,1.196l-6.474-4.627l-6.474,4.627c-0.839,0.599-1.957-0.214-1.646-1.196l2.401-7.587   l-6.402-4.727c-0.829-0.612-0.401-1.927,0.629-1.934l7.958-0.061l2.518-7.549C59.816,208.484,61.198,208.484,61.524,209.462z"/>
	<path style="fill:#F5F5F5;" d="M164.926,206.277l1.937,5.81l6.123,0.047c0.792,0.006,1.122,1.017,0.484,1.488l-4.926,3.638   l1.847,5.838c0.239,0.756-0.621,1.381-1.266,0.92l-4.982-3.562l-4.982,3.562c-0.645,0.461-1.506-0.165-1.267-0.92l1.847-5.838   l-4.926-3.638c-0.637-0.471-0.309-1.482,0.484-1.488l6.123-0.047l1.937-5.81C163.611,205.525,164.675,205.525,164.926,206.277z"/>
</g>
<g>
</g>
<g>
</g>
<g>
</g>
<g>
</g>
<g>
</g>
<g>
</g>
<g>
</g>
<g>
</g>
<g>
</g>
<g>
</g>
<g>
</g>
<g>
</g>
<g>
</g>
<g>
</g>
<g>
</g>
</svg>
