<?xml version="1.0" encoding="iso-8859-1"?>
<!-- Generator: Adobe Illustrator 19.0.0, SVG Export Plug-In . SVG Version: 6.00 Build 0)  -->
<svg xmlns="http://www.w3.org/2000/svg" xmlns:xlink="http://www.w3.org/1999/xlink" version="1.1" id="Layer_1" x="0px" y="0px" viewBox="0 0 512 512" style="enable-background:new 0 0 512 512;" xml:space="preserve">
<path style="fill:#FF4B55;" d="M482.435,296.744l-0.014-81.491l-0.005-27.164l-0.008-42.485  c-0.001-11.607-5.715-22.388-15.14-28.946c-0.812-0.565-1.642-1.11-2.508-1.611l-23.711-13.684l-22.198-12.81l-17.87-10.313  l-94.999-54.826l-19.995-11.539l-12.39-7.151c-10.918-6.301-24.37-6.298-35.287,0.006l-12.307,7.108l-19.995,11.548L111.02,78.247  L81.076,95.544l-22.191,12.818l-11.697,6.756c-0.841,0.486-1.648,1.013-2.439,1.561c-9.465,6.556-15.201,17.365-15.2,29.001  l0.007,42.41l0.005,27.164l0.014,81.491l0.005,27.164l0.007,42.486c0.003,11.607,5.715,22.388,15.14,28.946  c0.812,0.565,1.642,1.11,2.509,1.611l23.377,13.491l22.198,12.811l18.204,10.506l94.999,54.826l19.995,11.539l12.39,7.151  c10.918,6.302,24.37,6.298,35.287-0.006l12.307-7.108l19.995-11.548l94.989-54.863l27.325-15.782l22.191-12.818l14.319-8.27  c0.841-0.486,1.648-1.015,2.439-1.562c9.465-6.556,15.201-17.365,15.2-29.001l-0.008-42.41L482.435,296.744z"/>
<path style="fill:#FFE15A;" d="M290.698,248.797L82.832,94.529l-1.756,1.013l-14.743,8.515l-7.448,4.301l-11.697,6.756  c-0.841,0.486-1.648,1.013-2.439,1.561c-9.465,6.556-15.201,17.365-15.2,29.001l0.007,42.41l0.005,27.164l0.014,81.491l0.005,27.164  l0.007,42.485c0.003,11.607,5.715,22.389,15.14,28.946c0.812,0.565,1.642,1.11,2.509,1.611l19.077,11.009l4.3,2.482l12.199,7.041  l207.886-154.282C294.963,260.034,294.963,251.961,290.698,248.797z"/>
<path style="fill:#464655;" d="M47.188,115.116c-0.841,0.486-1.648,1.013-2.439,1.561c-9.465,6.556-15.201,17.365-15.2,29.001  l0.007,42.41l0.005,27.164l0.014,81.491l0.005,27.164l0.007,42.485c0.003,11.607,5.715,22.389,15.14,28.946  c0.812,0.565,1.642,1.11,2.509,1.611l19.077,11.009L199.08,263.975c3.814-4.135,3.814-11.817,0-15.952L66.333,104.059l-7.448,4.301  L47.188,115.116z"/>
<path style="fill:#F5F5F5;" d="M78.235,214.456l0.839,31.685l-29.708,11.051c-2.849,1.06-2.709,5.136,0.205,5.998l30.394,8.994  l1.33,31.669c0.127,3.037,4.048,4.164,5.768,1.658l17.945-26.127l30.529,8.521c2.928,0.817,5.211-2.563,3.359-4.974l-19.303-25.141  l17.539-26.403c1.682-2.532-0.827-5.747-3.691-4.732l-29.876,10.59l-19.688-24.838C81.989,210.026,78.155,211.419,78.235,214.456z"/>
<g>
</g>
<g>
</g>
<g>
</g>
<g>
</g>
<g>
</g>
<g>
</g>
<g>
</g>
<g>
</g>
<g>
</g>
<g>
</g>
<g>
</g>
<g>
</g>
<g>
</g>
<g>
</g>
<g>
</g>
</svg>
