<?xml version="1.0" encoding="iso-8859-1"?>
<!-- Generator: Adobe Illustrator 19.0.0, SVG Export Plug-In . SVG Version: 6.00 Build 0)  -->
<svg xmlns="http://www.w3.org/2000/svg" xmlns:xlink="http://www.w3.org/1999/xlink" version="1.1" id="Layer_1" x="0px" y="0px" viewBox="0 0 512.001 512.001" style="enable-background:new 0 0 512.001 512.001;" xml:space="preserve">
<path style="fill:#FF4B55;" d="M29.589,366.395l-0.036-220.713c-0.003-12.607,6.722-24.257,17.639-30.563L238.315,4.731  c10.917-6.306,24.368-6.307,35.287-0.006L464.763,115.05c10.92,6.302,17.646,17.95,17.649,30.557l0.036,220.713  c0.003,12.607-6.722,24.257-17.639,30.563L273.685,507.271c-10.917,6.306-24.368,6.307-35.287,0.006L47.238,396.952  C36.318,390.65,29.591,379.002,29.589,366.395z"/>
<path style="fill:#F5F5F5;" d="M257.132,161.027c52.414,0,94.898,42.598,94.898,94.974c0,52.527-42.483,94.974-94.898,94.974  c-52.527,0-95.05-42.447-95.05-94.974C162.081,203.625,204.605,161.027,257.132,161.027"/>
<g>
	<path style="fill:#FF4B55;" d="M274.389,309.221c-29.401,0-53.248-23.847-53.248-53.214c0-29.296,23.847-53.143,53.248-53.143   c10.001,0,19.345,2.802,27.333,7.64c1.197,0.725,2.454-0.842,1.458-1.825c-11.983-11.807-28.391-19.12-46.516-19.12   c-36.796,0-66.588,29.793-66.588,66.447c0,36.725,29.792,66.517,66.588,66.517c18.115,0,34.517-7.307,46.497-19.111   c0.997-0.982-0.261-2.549-1.458-1.824C293.72,306.423,284.382,309.221,274.389,309.221z"/>
	<path style="fill:#FF4B55;" d="M269.524,218.761l14.678,19.931l23.61-7.437c3.057-0.962,5.58,2.519,3.713,5.124l-14.42,20.12   l14.369,20.157c1.861,2.609-0.672,6.086-3.726,5.115l-23.591-7.497l-14.73,19.893c-1.907,2.576-5.995,1.241-6.016-1.963   l-0.16-24.753l-23.472-7.862c-3.039-1.017-3.033-5.319,0.009-6.328l23.492-7.802l0.224-24.752   C263.532,217.505,267.624,216.182,269.524,218.761z"/>
</g>
<g>
</g>
<g>
</g>
<g>
</g>
<g>
</g>
<g>
</g>
<g>
</g>
<g>
</g>
<g>
</g>
<g>
</g>
<g>
</g>
<g>
</g>
<g>
</g>
<g>
</g>
<g>
</g>
<g>
</g>
</svg>
