<?xml version="1.0" encoding="iso-8859-1"?>
<!-- Generator: Adobe Illustrator 19.0.0, SVG Export Plug-In . SVG Version: 6.00 Build 0)  -->
<svg xmlns="http://www.w3.org/2000/svg" xmlns:xlink="http://www.w3.org/1999/xlink" version="1.1" id="Layer_1" x="0px" y="0px" viewBox="0 0 512.005 512.005" style="enable-background:new 0 0 512.005 512.005;" xml:space="preserve">
<path style="fill:#F5F5F5;" d="M482.443,323.91l-0.005-27.164l-0.014-81.491l-0.005-27.164l-0.008-42.486  c0-3.105-0.422-6.147-1.202-9.07c-0.42-1.572-0.948-3.107-1.577-4.597c-2.568-6.091-6.814-11.419-12.362-15.28  c-0.812-0.565-1.642-1.11-2.509-1.611l-23.71-13.684l-22.198-12.81l-17.87-10.313L332.648,38.8l-26.659-15.385l-19.995-11.539  l-12.39-7.151c-10.918-6.302-24.37-6.3-35.287,0.006l-32.301,18.656l-26.659,15.398l0,0L111.026,78.25L81.079,95.546l-22.191,12.818  l-11.697,6.756c-0.841,0.486-1.648,1.015-2.439,1.561c-3.392,2.349-6.296,5.254-8.638,8.538c-0.982,1.378-1.849,2.832-2.623,4.335  c-0.464,0.902-0.902,1.817-1.288,2.758c-0.429,1.045-0.809,2.111-1.138,3.197c-0.987,3.255-1.513,6.677-1.513,10.176l0.007,42.41  l0.005,27.164l0.014,81.478v0.014v0.005l0.005,27.159l0.007,42.478v0.006c0.003,11.607,5.715,22.389,15.14,28.946  c0.812,0.565,1.642,1.11,2.509,1.611l23.377,13.491l22.198,12.812l18.204,10.506l94.999,54.826l19.995,11.539l12.39,7.151  c10.92,6.302,24.37,6.298,35.287-0.006l12.307-7.108l19.995-11.548l26.659-15.397l57.587-33.261l10.742-6.205l27.325-15.782  l22.191-12.818l14.319-8.27c0.841-0.486,1.648-1.013,2.439-1.562c9.465-6.556,15.201-17.365,15.2-29.001L482.443,323.91z"/>
<g>
	<path style="fill:#FF4B55;" d="M482.443,323.91l-0.005-27.164l-0.014-81.491l-0.005-27.164l-0.008-42.486   c0-3.105-0.422-6.147-1.202-9.07c-0.42-1.572-0.948-3.107-1.577-4.597c-2.568-6.091-6.814-11.419-12.362-15.28   c-0.812-0.565-1.642-1.11-2.509-1.611l-23.71-13.684l-22.198-12.81l-17.87-10.313L332.648,38.8l-26.659-15.385l-19.995-11.539   l-12.39-7.151c-10.918-6.302-24.37-6.3-35.287,0.006l-8.558,4.942V259.94c0,5.521-4.476,9.997-9.997,9.997H29.573l0.004,26.796   v0.014v0.005l0.005,27.159l0.007,42.478v0.006c0.003,11.607,5.715,22.389,15.14,28.946c0.812,0.565,1.642,1.11,2.509,1.611   l23.377,13.491l22.198,12.812l18.204,10.506l94.999,54.826l19.995,11.539l12.39,7.151c10.92,6.302,24.37,6.298,35.287-0.006   l12.307-7.108l19.995-11.548l26.659-15.397l57.587-33.261l10.742-6.205l27.325-15.782l22.191-12.818l14.319-8.27   c0.841-0.486,1.648-1.013,2.439-1.562c9.465-6.556,15.201-17.365,15.2-29.001L482.443,323.91z"/>
	<polygon style="fill:#FF4B55;" points="193.518,153.112 150.198,153.112 150.198,109.79 106.876,109.79 106.876,153.112    63.554,153.112 63.554,196.434 106.876,196.434 106.876,239.754 150.198,239.754 150.198,196.434 193.518,196.434  "/>
</g>
<g>
</g>
<g>
</g>
<g>
</g>
<g>
</g>
<g>
</g>
<g>
</g>
<g>
</g>
<g>
</g>
<g>
</g>
<g>
</g>
<g>
</g>
<g>
</g>
<g>
</g>
<g>
</g>
<g>
</g>
</svg>
