<?xml version="1.0" encoding="iso-8859-1"?>
<!-- Generator: Adobe Illustrator 19.0.0, SVG Export Plug-In . SVG Version: 6.00 Build 0)  -->
<svg xmlns="http://www.w3.org/2000/svg" xmlns:xlink="http://www.w3.org/1999/xlink" version="1.1" id="Layer_1" x="0px" y="0px" viewBox="0 0 512.001 512.001" style="enable-background:new 0 0 512.001 512.001;" xml:space="preserve">
<path style="fill:#F5F5F5;" d="M29.588,366.395l-0.036-220.713c-0.003-12.607,6.722-24.257,17.639-30.562L238.314,4.731  c10.917-6.306,24.368-6.307,35.287-0.006L464.762,115.05c10.918,6.302,17.646,17.95,17.649,30.557l0.036,220.713  c0.003,12.607-6.722,24.257-17.639,30.563L273.683,507.269c-10.917,6.306-24.368,6.307-35.287,0.006L47.237,396.951  C36.318,390.649,29.591,379.001,29.588,366.395z"/>
<g>
	<path style="fill:#FF4B55;" d="M41.36,119.34v136.838l19.693,7.319l22.118-7.319V94.337L47.19,115.119   C45.083,116.336,43.137,117.756,41.36,119.34z"/>
	<polygon style="fill:#FF4B55;" points="96.774,86.481 256,86.481 259.749,53.556 256,19.56 212.639,19.56  "/>
	<path style="fill:#FF4B55;" d="M108.019,108.788l84.039,87.312l56.023,58.205c0.029-0.021,0.057-0.046,0.086-0.067   c0.06-0.054,0.12-0.109,0.182-0.156c0.444-0.337,7.647-6.784,7.648-6.828c0.156-3.671-0.084-10.216-0.049-11.177   c0.003-0.06,0.011-0.116,0.014-0.176L215.18,193.53l-81.565-84.74h-25.597L108.019,108.788L108.019,108.788z"/>
</g>
<path style="fill:#82AFFF;" d="M482.411,145.607c-0.003-12.607-6.729-24.255-17.649-30.557L273.601,4.726  C268.154,1.583,262.078,0.008,256,0.002V19.56v66.92v20.003H149.818L256,217.832v16.963c0,0.374-0.023,0.737-0.035,1.106l0,0  c-0.001,0.06-0.011,0.117-0.014,0.176c-0.036,0.961-0.104,1.908-0.216,2.829c-0.018,0.142-0.05,0.276-0.069,0.419  c-0.505,3.745-1.61,7.128-3.164,9.859c-0.021,0.039-0.042,0.077-0.065,0.115c-0.796,1.38-1.706,2.589-2.704,3.595  c-0.03,0.03-0.061,0.059-0.091,0.089c-0.411,0.405-0.846,0.764-1.29,1.1c-0.062,0.047-0.122,0.102-0.182,0.156  c-0.03,0.021-0.057,0.046-0.086,0.067l0,0c-1.662,1.198-3.502,1.874-5.444,1.874h-23.209L95.668,126.396v129.783h-5.872h-6.624  H41.36h-7.799H29.57l0.019,110.216c0.003,12.607,6.729,24.255,17.649,30.557l191.161,110.325c10.918,6.302,24.37,6.299,35.286-0.006  l191.125-110.39c10.917-6.305,17.64-17.955,17.639-30.562L482.411,145.607z"/>
<g>
	<path style="fill:#FFE15A;" d="M210.356,372.95l-4.6,13.794l-14.54,0.112c-1.395,0.011-1.972,1.789-0.851,2.618l11.697,8.638   l-4.386,13.862c-0.421,1.33,1.093,2.429,2.227,1.618l11.829-8.455l11.829,8.455c1.135,0.811,2.648-0.289,2.227-1.618l-4.386-13.862   l11.697-8.638c1.121-0.829,0.544-2.608-0.851-2.618l-14.54-0.112l-4.6-13.794C212.668,371.627,210.797,371.627,210.356,372.95z"/>
	<path style="fill:#FFE15A;" d="M434.312,265.537l-4.6,13.794l-14.54,0.112c-1.395,0.011-1.972,1.789-0.851,2.618l11.697,8.638   l-4.386,13.862c-0.421,1.33,1.093,2.429,2.227,1.618l11.829-8.455l11.829,8.455c1.135,0.811,2.648-0.289,2.227-1.618l-4.386-13.862   l11.697-8.638c1.122-0.829,0.544-2.608-0.851-2.618l-14.54-0.112l-4.6-13.794C436.624,264.214,434.753,264.214,434.312,265.537z"/>
	<path style="fill:#FFE15A;" d="M434.312,149.531l-4.6,13.794l-14.54,0.112c-1.395,0.011-1.972,1.79-0.851,2.618l11.697,8.638   l-4.386,13.862c-0.421,1.33,1.093,2.429,2.227,1.618l11.829-8.455l11.829,8.455c1.135,0.811,2.648-0.289,2.227-1.618l-4.386-13.862   l11.697-8.638c1.122-0.829,0.544-2.608-0.851-2.618l-14.54-0.112l-4.6-13.794C436.624,148.208,434.753,148.208,434.312,149.531z"/>
	<path style="fill:#FFE15A;" d="M267.93,300.384l4.541,13.812l-11.598,8.769c-1.112,0.841-0.514,2.613,0.88,2.608l14.54-0.051   l4.755,13.74c0.456,1.317,2.327,1.296,2.753-0.031l4.445-13.844l14.537-0.276c1.395-0.026,1.952-1.812,0.821-2.628l-11.793-8.505   l4.229-13.911c0.406-1.333-1.12-2.417-2.246-1.593l-11.733,8.588l-11.923-8.321C268.996,297.942,267.494,299.059,267.93,300.384z"/>
	<path style="fill:#FFE15A;" d="M266.855,359.998l4.541,13.812l-11.598,8.769c-1.112,0.841-0.514,2.613,0.88,2.608l14.54-0.051   l4.755,13.74c0.456,1.317,2.327,1.296,2.753-0.031l4.445-13.844l14.537-0.276c1.393-0.026,1.952-1.812,0.821-2.628l-11.793-8.505   l4.23-13.911c0.406-1.335-1.12-2.417-2.246-1.593l-11.733,8.588l-11.923-8.321C267.921,357.557,266.42,358.673,266.855,359.998z"/>
	<path style="fill:#FFE15A;" d="M329.692,344.96l4.541,13.812l-11.598,8.769c-1.112,0.841-0.514,2.613,0.88,2.608l14.54-0.051   l4.755,13.74c0.456,1.317,2.327,1.297,2.753-0.031l4.445-13.844l14.537-0.276c1.395-0.026,1.952-1.812,0.821-2.628l-11.793-8.505   l4.23-13.911c0.405-1.335-1.12-2.417-2.246-1.593l-11.733,8.588l-11.923-8.321C330.758,342.519,329.257,343.636,329.692,344.96z"/>
	<path style="fill:#FFE15A;" d="M328.618,214.99l4.541,13.812l-11.598,8.769c-1.112,0.841-0.514,2.613,0.88,2.608l14.54-0.051   l4.755,13.74c0.456,1.317,2.327,1.297,2.753-0.031l4.445-13.844l14.537-0.276c1.395-0.026,1.952-1.812,0.821-2.628l-11.793-8.505   l4.229-13.911c0.406-1.335-1.12-2.417-2.246-1.593l-11.733,8.588l-11.923-8.321C329.684,212.549,328.182,213.667,328.618,214.99z"/>
	<path style="fill:#FFE15A;" d="M381.787,197.267l4.541,13.812l-11.598,8.769c-1.112,0.841-0.514,2.613,0.88,2.608l14.54-0.051   l4.755,13.74c0.456,1.317,2.327,1.297,2.753-0.031l4.445-13.844l14.537-0.276c1.393-0.026,1.952-1.812,0.821-2.628l-11.793-8.505   l4.23-13.911c0.405-1.335-1.121-2.417-2.246-1.593l-11.733,8.588l-11.923-8.321C382.853,194.827,381.352,195.943,381.787,197.267z"/>
</g>
<g>
</g>
<g>
</g>
<g>
</g>
<g>
</g>
<g>
</g>
<g>
</g>
<g>
</g>
<g>
</g>
<g>
</g>
<g>
</g>
<g>
</g>
<g>
</g>
<g>
</g>
<g>
</g>
<g>
</g>
</svg>
