<?xml version="1.0" encoding="iso-8859-1"?>
<!-- Generator: Adobe Illustrator 19.0.0, SVG Export Plug-In . SVG Version: 6.00 Build 0)  -->
<svg xmlns="http://www.w3.org/2000/svg" xmlns:xlink="http://www.w3.org/1999/xlink" version="1.1" id="Layer_1" x="0px" y="0px" viewBox="0 0 512.001 512.001" style="enable-background:new 0 0 512.001 512.001;" xml:space="preserve">
<path style="fill:#F5F5F5;" d="M29.588,366.395l-0.036-220.713c-0.003-12.607,6.722-24.257,17.639-30.562L238.315,4.731  c10.917-6.306,24.368-6.307,35.287-0.006L464.763,115.05c10.918,6.302,17.646,17.95,17.649,30.557l0.036,220.713  c0.003,12.607-6.722,24.257-17.639,30.563L273.684,507.271c-10.917,6.306-24.368,6.307-35.287,0.006L47.237,396.952  C36.318,390.65,29.591,379.002,29.588,366.395z"/>
<g>
	<path style="fill:#FF4B55;" d="M41.36,119.34v136.839l19.693,7.319l22.118-7.319V94.337L47.19,115.119   C45.083,116.336,43.137,117.756,41.36,119.34z"/>
	<polygon style="fill:#FF4B55;" points="96.774,86.481 256,86.481 259.749,53.556 256,19.56 212.639,19.56  "/>
	<path style="fill:#FF4B55;" d="M108.019,108.788l84.04,87.312l56.023,58.205c0.029-0.021,0.057-0.046,0.086-0.067   c0.06-0.054,0.12-0.109,0.182-0.156c0.444-0.336,7.647-6.784,7.648-6.828c0.156-3.671-0.084-10.216-0.049-11.177   c0.003-0.06,0.011-0.116,0.014-0.176L215.18,193.53l-81.565-84.741h-25.597v-0.001H108.019z"/>
</g>
<path style="fill:#3CC8FF;" d="M482.412,145.607c-0.003-12.607-6.729-24.255-17.649-30.557L273.601,4.726  C268.154,1.583,262.078,0.008,256,0.002V19.56v66.92v20.003H149.818L256,217.832v16.963c0,0.374-0.023,0.737-0.035,1.106l0,0  c-0.001,0.06-0.011,0.117-0.014,0.176c-0.036,0.961-0.104,1.908-0.216,2.829c-0.018,0.142-0.05,0.276-0.069,0.419  c-0.505,3.745-1.61,7.128-3.164,9.859c-0.021,0.039-0.042,0.076-0.065,0.115c-0.796,1.38-1.706,2.589-2.704,3.595  c-0.03,0.03-0.061,0.059-0.091,0.089c-0.411,0.405-0.846,0.764-1.29,1.1c-0.062,0.047-0.122,0.102-0.182,0.156  c-0.029,0.021-0.057,0.046-0.086,0.067l0,0c-1.662,1.198-3.502,1.874-5.444,1.874h-23.207L95.668,126.396v129.783h-5.872h-6.624  H41.36h-7.799H29.57l0.019,110.216c0.003,12.607,6.729,24.255,17.649,30.557l191.161,110.325c10.918,6.301,24.37,6.299,35.287-0.006  L464.81,396.882c10.917-6.305,17.64-17.955,17.639-30.562L482.412,145.607z"/>
<g>
	<path style="fill:#FFE15A;" d="M281.998,387.473l3.725,11.169l11.774,0.091c1.525,0.013,2.157,1.957,0.93,2.863l-9.471,6.994   l3.552,11.226c0.46,1.453-1.195,2.656-2.436,1.77l-9.579-6.847l-9.579,6.847c-1.24,0.886-2.895-0.316-2.436-1.77l3.552-11.226   l-9.471-6.994c-1.226-0.906-0.595-2.85,0.93-2.863l11.774-0.091l3.725-11.169C279.471,386.028,281.516,386.028,281.998,387.473z"/>
	<path style="fill:#FFE15A;" d="M390.366,303.198l3.725,11.169l11.774,0.091c1.525,0.012,2.157,1.957,0.93,2.863l-9.471,6.994   l3.552,11.226c0.46,1.453-1.195,2.656-2.436,1.77l-9.579-6.847l-9.579,6.847c-1.24,0.886-2.895-0.316-2.436-1.77l3.552-11.226   l-9.471-6.994c-1.226-0.906-0.594-2.85,0.93-2.863l11.774-0.091l3.725-11.169C387.838,301.752,389.883,301.752,390.366,303.198z"/>
	<path style="fill:#FFE15A;" d="M441.463,271.879l3.725,11.169l11.774,0.091c1.525,0.012,2.157,1.957,0.93,2.863l-9.471,6.994   l3.552,11.226c0.46,1.453-1.195,2.656-2.436,1.77l-9.579-6.847l-9.579,6.847c-1.24,0.886-2.895-0.316-2.436-1.77l3.552-11.226   l-9.471-6.994c-1.226-0.906-0.595-2.85,0.93-2.863l11.774-0.091l3.725-11.169C438.935,270.433,440.981,270.433,441.463,271.879z"/>
	<path style="fill:#FFE15A;" d="M429.273,164.423l3.725,11.169l11.774,0.091c1.525,0.011,2.157,1.957,0.93,2.863l-9.471,6.994   l3.552,11.226c0.46,1.453-1.195,2.656-2.436,1.77l-9.579-6.847l-9.579,6.847c-1.24,0.886-2.895-0.316-2.436-1.77l3.552-11.226   l-9.471-6.994c-1.226-0.906-0.594-2.85,0.93-2.863l11.774-0.091l3.725-11.169C426.745,162.977,428.79,162.977,429.273,164.423z"/>
	<path style="fill:#FFE15A;" d="M327.298,415.387l-3.725-11.169l-11.774-0.091c-1.525-0.011-2.157-1.957-0.93-2.863l9.471-6.994   l-3.552-11.226c-0.46-1.453,1.195-2.656,2.436-1.769l9.579,6.847l9.579-6.847c1.24-0.886,2.895,0.316,2.436,1.769l-3.552,11.226   l9.471,6.994c1.226,0.906,0.595,2.85-0.93,2.863l-11.774,0.091l-3.725,11.169C329.826,416.833,327.78,416.833,327.298,415.387z"/>
	<path style="fill:#FFE15A;" d="M362.515,383.782l-3.725-11.169l-11.774-0.091c-1.525-0.011-2.157-1.957-0.93-2.863l9.471-6.994   l-3.552-11.226c-0.46-1.453,1.195-2.656,2.436-1.77l9.579,6.847l9.579-6.847c1.24-0.886,2.895,0.316,2.436,1.77l-3.552,11.226   l9.471,6.994c1.226,0.906,0.595,2.85-0.93,2.863l-11.774,0.091l-3.725,11.169C365.043,385.228,362.997,385.228,362.515,383.782z"/>
	<path style="fill:#FFE15A;" d="M394.207,245.938l-3.725-11.169l-11.774-0.091c-1.525-0.012-2.157-1.957-0.93-2.863l9.471-6.994   l-3.552-11.226c-0.46-1.453,1.195-2.656,2.436-1.77l9.579,6.847l9.579-6.847c1.24-0.886,2.895,0.316,2.436,1.77l-3.552,11.226   l9.471,6.994c1.226,0.906,0.594,2.85-0.93,2.863l-11.774,0.091l-3.725,11.169C396.734,247.384,394.688,247.384,394.207,245.938z"/>
	<path style="fill:#FFE15A;" d="M357.636,257.678l-3.725-11.169l-11.774-0.091c-1.525-0.011-2.157-1.957-0.93-2.863l9.471-6.994   l-3.552-11.226c-0.46-1.453,1.195-2.656,2.436-1.77l9.579,6.847l9.579-6.847c1.24-0.886,2.895,0.316,2.436,1.77l-3.552,11.226   l9.471,6.994c1.226,0.906,0.594,2.85-0.93,2.863l-11.774,0.091l-3.725,11.169C360.163,259.124,358.118,259.124,357.636,257.678z"/>
	<path style="fill:#FFE15A;" d="M334.221,348.866l-3.725-11.169l-11.774-0.091c-1.525-0.011-2.157-1.957-0.93-2.863l9.471-6.994   l-3.552-11.226c-0.46-1.453,1.195-2.656,2.436-1.77l9.579,6.847l9.579-6.847c1.24-0.886,2.895,0.316,2.436,1.77l-3.552,11.226   l9.471,6.994c1.226,0.906,0.594,2.85-0.93,2.863l-11.774,0.091l-3.725,11.169C336.749,350.312,334.703,350.312,334.221,348.866z"/>
</g>
<g>
</g>
<g>
</g>
<g>
</g>
<g>
</g>
<g>
</g>
<g>
</g>
<g>
</g>
<g>
</g>
<g>
</g>
<g>
</g>
<g>
</g>
<g>
</g>
<g>
</g>
<g>
</g>
<g>
</g>
</svg>
