<?xml version="1.0" encoding="iso-8859-1"?>
<!-- Generator: Adobe Illustrator 19.0.0, SVG Export Plug-In . SVG Version: 6.00 Build 0)  -->
<svg xmlns="http://www.w3.org/2000/svg" xmlns:xlink="http://www.w3.org/1999/xlink" version="1.1" id="Layer_1" x="0px" y="0px" viewBox="0 0 512.002 512.002" style="enable-background:new 0 0 512.002 512.002;" xml:space="preserve">
<path style="fill:#41479B;" d="M29.592,366.398l-0.036-220.71c-0.003-12.606,6.722-24.257,17.639-30.561L238.316,4.741  c10.917-6.304,24.368-6.307,35.286-0.006L464.76,115.057c10.918,6.302,17.646,17.95,17.649,30.556l0.036,220.71  c0.003,12.606-6.722,24.257-17.639,30.562L273.684,507.272c-10.917,6.306-24.368,6.307-35.286,0.006L47.24,396.954  C36.322,390.653,29.594,379.006,29.592,366.398z"/>
<path style="fill:#FF4B55;" d="M482.409,145.613c-0.003-12.606-6.729-24.254-17.649-30.556L273.602,4.734  c-8.926-5.17-17.445-4.724-17.601-4.724v245.997c0,5.522-4.476,9.997-9.997,9.997H29.574l0.019,110.393  c0.003,12.606,6.729,24.254,17.649,30.556L238.4,507.277c10.918,6.301,24.369,6.299,35.286-0.006l191.122-110.387  c10.917-6.304,17.64-17.955,17.639-30.562L482.409,145.613z"/>
<g>
	<path style="fill:#F5F5F5;" d="M108.417,161.034c0-10.063,4.079-19.174,10.671-25.773l-30.549-8.739   c-1.773-0.507-3.045,1.695-1.719,2.977l22.86,22.102l-30.849,7.712c-1.789,0.447-1.789,2.99,0,3.438l30.849,7.713l-22.86,22.102   c-1.326,1.282-0.055,3.484,1.719,2.977l30.549-8.739C112.496,180.208,108.417,171.097,108.417,161.034z"/>
	<path style="fill:#F5F5F5;" d="M119.104,135.245c6.597-6.593,15.708-10.671,25.773-10.671c10.063,0,19.174,4.078,25.773,10.671   l8.739-30.549c0.507-1.773-1.695-3.044-2.977-1.718l-22.102,22.86l-7.713-30.849c-0.447-1.789-2.99-1.789-3.438,0l-7.712,30.849   l-22.104-22.86c-1.282-1.326-3.484-0.055-2.977,1.718L119.104,135.245z"/>
	<path style="fill:#F5F5F5;" d="M170.649,186.821c-6.597,6.593-15.708,10.671-25.773,10.671c-10.063,0-19.174-4.079-25.773-10.671   l-8.739,30.549c-0.507,1.773,1.695,3.044,2.977,1.718l22.102-22.86l7.712,30.849c0.447,1.789,2.99,1.789,3.438,0l7.713-30.849   l22.102,22.86c1.282,1.326,3.484,0.055,2.977-1.718L170.649,186.821z"/>
	<path style="fill:#F5F5F5;" d="M210.921,159.314l-30.847-7.712l22.86-22.102c1.326-1.282,0.055-3.484-1.718-2.977l-30.549,8.739   c6.593,6.597,10.671,15.708,10.671,25.773c0,10.063-4.079,19.174-10.671,25.773l30.549,8.739c1.773,0.507,3.044-1.695,1.718-2.977   l-22.861-22.105l30.847-7.713C212.711,162.305,212.711,159.762,210.921,159.314z"/>
	<circle style="fill:#F5F5F5;" cx="144.88" cy="161.031" r="29.03"/>
</g>
<g>
</g>
<g>
</g>
<g>
</g>
<g>
</g>
<g>
</g>
<g>
</g>
<g>
</g>
<g>
</g>
<g>
</g>
<g>
</g>
<g>
</g>
<g>
</g>
<g>
</g>
<g>
</g>
<g>
</g>
</svg>
