<?xml version="1.0" encoding="iso-8859-1"?>
<!-- Generator: Adobe Illustrator 19.0.0, SVG Export Plug-In . SVG Version: 6.00 Build 0)  -->
<svg xmlns="http://www.w3.org/2000/svg" xmlns:xlink="http://www.w3.org/1999/xlink" version="1.1" id="Layer_1" x="0px" y="0px" viewBox="0 0 511.999 511.999" style="enable-background:new 0 0 511.999 511.999;" xml:space="preserve">
<path style="fill:#FFE15A;" d="M29.588,366.394l-0.036-220.713c-0.003-12.607,6.722-24.257,17.639-30.563L238.314,4.731  c10.917-6.305,24.368-6.307,35.287-0.006l191.16,110.325c10.919,6.302,17.646,17.95,17.649,30.557l0.036,220.713  c0.003,12.607-6.722,24.257-17.639,30.562L273.683,507.269c-10.917,6.305-24.368,6.307-35.287,0.006L47.236,396.951  C36.317,390.648,29.59,379,29.588,366.394z"/>
<path style="fill:#464655;" d="M482.418,189.059l-0.008-43.453c-0.003-12.607-6.729-24.255-17.649-30.557l-62.669-36.168  L29.58,322.941l0.007,43.453c0.003,12.607,6.729,24.255,17.649,30.557l62.669,36.168L482.418,189.059z"/>
<path style="fill:#73AF00;" d="M29.573,274.118L362.469,56.013L273.6,4.725c-0.682-0.394-1.375-0.762-2.076-1.107  c-1.402-0.69-2.838-1.281-4.3-1.773c-0.731-0.246-1.467-0.467-2.209-0.664C262.048,0.394,259.003,0,255.956,0  c-1.523,0-3.047,0.099-4.559,0.296c-1.741,0.227-3.465,0.6-5.165,1.087c-2.732,0.785-5.395,1.889-7.918,3.347L47.189,115.119  c-4.094,2.364-7.598,5.481-10.378,9.116c-4.635,6.061-7.26,13.566-7.259,21.445L29.573,274.118z"/>
<path style="fill:#4173CD;" d="M482.426,237.882L149.529,455.987l88.868,51.288c2.047,1.182,4.184,2.142,6.376,2.88  c1.461,0.492,2.948,0.886,4.449,1.181c1.525,0.3,3.065,0.495,4.61,0.592c2.257,0.141,4.524,0.067,6.769-0.225  c4.539-0.592,8.99-2.069,13.084-4.434L464.81,396.882c2.729-1.577,5.196-3.487,7.362-5.662c1.082-1.088,2.089-2.242,3.017-3.454  c4.635-6.061,7.26-13.566,7.259-21.445L482.426,237.882z"/>
<g>
</g>
<g>
</g>
<g>
</g>
<g>
</g>
<g>
</g>
<g>
</g>
<g>
</g>
<g>
</g>
<g>
</g>
<g>
</g>
<g>
</g>
<g>
</g>
<g>
</g>
<g>
</g>
<g>
</g>
</svg>
