<?xml version="1.0" encoding="iso-8859-1"?>
<!-- Generator: Adobe Illustrator 19.0.0, SVG Export Plug-In . SVG Version: 6.00 Build 0)  -->
<svg xmlns="http://www.w3.org/2000/svg" xmlns:xlink="http://www.w3.org/1999/xlink" version="1.1" id="Layer_1" x="0px" y="0px" viewBox="0 0 512.002 512.002" style="enable-background:new 0 0 512.002 512.002;" xml:space="preserve">
<path style="fill:#FFE15A;" d="M29.589,366.396l-0.036-220.713c-0.003-12.607,6.722-24.257,17.639-30.562L238.316,4.731  c10.917-6.305,24.368-6.307,35.287-0.006L464.764,115.05c10.918,6.302,17.646,17.95,17.649,30.557l0.036,220.713  c0.003,12.607-6.722,24.257-17.639,30.563L273.685,507.271c-10.917,6.306-24.368,6.307-35.287,0.006L47.238,396.953  C36.318,390.651,29.592,379.002,29.589,366.396z"/>
<g>
	<polygon style="fill:#FF4B55;" points="482.418,169.602 29.557,169.602 29.57,256.001 268.497,267.242 482.431,256.001  "/>
	<path style="fill:#FF4B55;" d="M409.551,428.799H102.419l66.603,38.438l69.377,40.039c2.047,1.182,4.184,2.142,6.376,2.88   c1.461,0.492,2.948,0.886,4.449,1.181s3.017,0.491,4.538,0.59c2.281,0.147,4.572,0.074,6.843-0.222   c4.54-0.592,8.99-2.069,13.083-4.434L409.551,428.799z"/>
</g>
<g>
	<path style="fill:#464655;" d="M102.45,83.203h307.133L273.604,4.725c-10.918-6.302-24.37-6.3-35.287,0.006L102.45,83.203z"/>
	<polygon style="fill:#464655;" points="29.585,342.4 482.446,342.4 482.431,256.001 29.57,256.001  "/>
</g>
<circle style="fill:#F5F5F5;" cx="256.01" cy="256.01" r="81.85"/>
<path style="fill:#FF4B55;" d="M260.938,206.167l8.063-3.225c1.168-0.467,1.733-1.807,1.216-2.954  c-1.808-4.01-6.653-12.305-15.861-12.554c-5.831-0.157-10.19,1.156-12.65,2.171c-1.257,0.519-1.762,2.014-1.076,3.187l4.866,8.313  L260.938,206.167z"/>
<path style="fill:#FFE15A;" d="M254.356,187.434c-0.67-0.019-1.276,0.021-1.907,0.039l-0.877,12.871l4.684,2.594l10.128-9.164  C263.715,190.548,259.805,187.581,254.356,187.434z"/>
<path style="fill:#464655;" d="M289.037,281.859l-36.454-42.53c0-8.803,3.182-15.991,4.939-19.295  c5.017-2.241,8.253-7.758,6.907-13.85c-0.978-4.43-4.554-8.045-8.976-9.056c-7.958-1.819-15.02,4.176-15.02,11.823  c0,0.287,0.065,0.557,0.085,0.84c-7.863,2.073-9.325,4.602-9.325,4.602s5.154-1.371,9.626-2.543c0.09,0.365,0.21,0.716,0.331,1.068  l-8.819,2.994l9.631-1.172c1.07,1.957,2.656,3.583,4.57,4.706c-7.197,5.798-18.25,16.695-18.25,28.995  c0,11.248,8.331,18.742,18.824,23.726c3.668,1.742,7.039,4.041,9.812,7.008l0.104,0.11l0.914,13.962c-7.525,0-16.497,0-20.538,0  c-7.594,0-9.682,4.936-9.682,13.1l3.608-5.126l3.038,5.696l0.38-6.456l3.228,4.176c0,0-0.034-5.455,4.081-6.171  c2.183-0.38,9.747-0.855,16.172-0.855l1.361,20.808c-8.714-0.041-18.576,4.064-18.576,4.064c3.038-0.57,10.442,0.57,10.442,0.57  l-1.235,3.608c8.544-4.651,24.207-4.746,24.207-4.746s-3.417-2.331-11.392-3.243l0.185-21.059h12.537l1.898-4.936  c0,0-6.468-8.58-6.468-13.126C281.205,281.459,289.037,281.859,289.037,281.859z M263.25,293.25l0.064-7.224  c3.764,4.033,6.738,7.224,6.738,7.224S267.242,293.25,263.25,293.25z"/>
<path style="fill:#696E7D;" d="M289.037,287.934c-3.038-12.152-16.351-15.886-30.378-24.302c-15.19-9.114-6.076-24.302-6.076-24.302  s50.882,14.936,54.68,36.454c2.958,16.758-9.114,27.34-15.188,30.378l2.183-6.076h-11.297c0,0,11.962-9.304,12.152-18.226  L289.037,287.934z"/>
<path style="fill:#FFFCFF;" d="M307.264,275.783c-2.538-14.385-26.105-25.819-41.461-31.825l0,0  c-4.914-0.547-9.232,7.713,4.248,16.637c18.135,12.004,18.986,27.34,18.986,27.34l6.076-6.076  c-0.19,8.924-12.152,18.226-12.152,18.226h11.297l-2.183,6.076C298.151,303.123,310.221,292.541,307.264,275.783z"/>
<path style="fill:#FF4B55;" d="M307.264,275.783c-1.682-9.534-12.608-17.76-24.252-23.98c-5.608-1.677-10.492-1.462-10.492-1.462  c3.418,2.088,4.936,7.404,4.936,7.404c-2.468-1.518-7.974-0.76-7.974-0.76c1.531,1.312,2.983,3.99,3.953,6.043  c14.85,11.543,15.603,24.904,15.603,24.904l6.076-6.076c-0.19,8.924-12.152,18.226-12.152,18.226h11.297l-2.183,6.076  C298.151,303.123,310.221,292.541,307.264,275.783z"/>
<circle style="fill:#F5F5F5;" cx="247.65" cy="207.81" r="2.026"/>
<path style="fill:#FF4B55;" d="M242.331,215.533c0,0-4.43,5.19-1.518,6.708c2.912,1.518,5.72-2.794,5.72-2.794L242.331,215.533z"/>
<g>
</g>
<g>
</g>
<g>
</g>
<g>
</g>
<g>
</g>
<g>
</g>
<g>
</g>
<g>
</g>
<g>
</g>
<g>
</g>
<g>
</g>
<g>
</g>
<g>
</g>
<g>
</g>
<g>
</g>
</svg>
