<?xml version="1.0" encoding="iso-8859-1"?>
<!-- Generator: Adobe Illustrator 19.0.0, SVG Export Plug-In . SVG Version: 6.00 Build 0)  -->
<svg xmlns="http://www.w3.org/2000/svg" xmlns:xlink="http://www.w3.org/1999/xlink" version="1.1" id="Layer_1" x="0px" y="0px" viewBox="0 0 512.001 512.001" style="enable-background:new 0 0 512.001 512.001;" xml:space="preserve">
<path style="fill:#F5F5F5;" d="M29.589,366.395l-0.036-220.713c-0.003-12.607,6.722-24.257,17.639-30.563L238.315,4.731  c10.917-6.306,24.368-6.307,35.287-0.006L464.763,115.05c10.92,6.302,17.646,17.95,17.649,30.557l0.036,220.713  c0.003,12.607-6.722,24.257-17.639,30.563L273.685,507.271c-10.917,6.306-24.368,6.307-35.287,0.006L47.238,396.952  C36.318,390.65,29.591,379.002,29.589,366.395z"/>
<g>
	<polygon style="fill:#4173CD;" points="256.001,58 256.001,114.928 464.554,114.928 365.912,58  "/>
	<polygon style="fill:#4173CD;" points="256.001,171.857 256.001,228.786 482.426,228.786 482.421,199.356 482.417,171.857  "/>
	<polygon style="fill:#4173CD;" points="29.575,285.715 29.585,342.644 482.446,342.644 482.437,290.55 482.436,285.715  "/>
	<polygon style="fill:#4173CD;" points="361.587,456.502 460.152,399.573 51.779,399.573 146.229,454.083 150.421,456.502  "/>
</g>
<polygon style="fill:#FFE15A;" points="122.63,108.184 137.878,178.742 161.739,168.858 "/>
<polygon style="fill:#FFCD5A;" points="122.63,108.184 149.808,173.801 137.878,178.742 "/>
<polygon style="fill:#FFE15A;" points="181.93,251.346 166.68,180.789 142.82,190.672 "/>
<polygon style="fill:#FFCD5A;" points="181.93,251.346 154.75,185.73 166.68,180.789 "/>
<polygon style="fill:#FFE15A;" points="223.861,150.116 153.302,165.364 163.186,189.225 "/>
<polygon style="fill:#FFCD5A;" points="223.861,150.116 158.245,177.295 153.302,165.364 "/>
<polygon style="fill:#FFE15A;" points="80.699,209.415 151.256,194.166 141.372,170.305 "/>
<polygon style="fill:#FFCD5A;" points="80.699,209.415 146.314,182.236 151.256,194.166 "/>
<polygon style="fill:#FFE15A;" points="181.93,108.184 142.82,168.858 166.68,178.742 "/>
<polygon style="fill:#FFCD5A;" points="181.93,108.184 154.75,173.801 142.82,168.858 "/>
<polygon style="fill:#FFE15A;" points="122.63,251.346 161.739,190.672 137.878,180.789 "/>
<polygon style="fill:#FFCD5A;" points="122.63,251.346 149.808,185.73 161.739,190.672 "/>
<polygon style="fill:#FFE15A;" points="223.861,209.415 163.186,170.305 153.302,194.166 "/>
<polygon style="fill:#FFCD5A;" points="223.861,209.415 158.245,182.236 163.186,170.305 "/>
<polygon style="fill:#FFE15A;" points="80.699,150.116 141.372,189.225 151.256,165.364 "/>
<polygon style="fill:#FFCD5A;" points="80.699,150.116 146.314,177.295 141.372,189.225 "/>
<polygon style="fill:#FFE15A;" points="152.279,102.286 139.366,173.308 165.193,173.308 "/>
<polygon style="fill:#FFCD5A;" points="152.279,102.286 152.279,173.308 139.366,173.308 "/>
<polygon style="fill:#FFE15A;" points="152.279,257.244 165.193,186.222 139.366,186.222 "/>
<polygon style="fill:#FFCD5A;" points="152.279,257.244 152.279,186.222 165.193,186.222 "/>
<polygon style="fill:#FFE15A;" points="229.758,179.765 158.736,166.852 158.736,192.678 "/>
<polygon style="fill:#FFCD5A;" points="229.758,179.765 158.736,179.765 158.736,166.852 "/>
<polygon style="fill:#FFE15A;" points="74.8,179.765 145.823,192.678 145.823,166.852 "/>
<polygon style="fill:#FFCD5A;" points="74.8,179.765 145.823,179.765 145.823,192.678 "/>
<polygon style="fill:#FFE15A;" points="207.065,124.979 147.714,166.069 165.975,184.33 "/>
<polygon style="fill:#FFCD5A;" points="207.065,124.979 156.845,175.2 147.714,166.069 "/>
<polygon style="fill:#FFE15A;" points="97.494,234.551 156.845,193.461 138.583,175.2 "/>
<polygon style="fill:#FFCD5A;" points="97.494,234.551 147.714,184.33 156.845,193.461 "/>
<polygon style="fill:#FFE15A;" points="207.065,234.551 165.975,175.2 147.714,193.461 "/>
<polygon style="fill:#FFCD5A;" points="207.065,234.551 156.845,184.33 165.975,175.2 "/>
<polygon style="fill:#FFE15A;" points="97.494,124.979 138.583,184.33 156.845,166.069 "/>
<polygon style="fill:#FFCD5A;" points="97.494,124.979 147.714,175.2 138.583,184.33 "/>
<circle style="fill:#FFE15A;" cx="152.28" cy="179.76" r="25.827"/>
<g>
</g>
<g>
</g>
<g>
</g>
<g>
</g>
<g>
</g>
<g>
</g>
<g>
</g>
<g>
</g>
<g>
</g>
<g>
</g>
<g>
</g>
<g>
</g>
<g>
</g>
<g>
</g>
<g>
</g>
</svg>
