<?xml version="1.0" encoding="iso-8859-1"?>
<!-- Generator: Adobe Illustrator 19.0.0, SVG Export Plug-In . SVG Version: 6.00 Build 0)  -->
<svg xmlns="http://www.w3.org/2000/svg" xmlns:xlink="http://www.w3.org/1999/xlink" version="1.1" id="Layer_1" x="0px" y="0px" viewBox="0 0 512.002 512.002" style="enable-background:new 0 0 512.002 512.002;" xml:space="preserve">
<path style="fill:#F5F5F5;" d="M482.436,296.745l-0.014-81.491l-0.005-27.164l-0.008-42.485  c-0.001-11.607-5.715-22.388-15.14-28.946c-0.812-0.565-1.642-1.11-2.508-1.611l-23.711-13.684l-22.198-12.81l-17.87-10.313  l-94.999-54.826L285.99,11.876L273.6,4.725c-10.918-6.301-24.37-6.298-35.287,0.006l-12.307,7.108l-19.995,11.548l-94.988,54.861  L81.077,95.545l-22.191,12.818l-11.697,6.756c-0.841,0.486-1.648,1.013-2.439,1.561c-9.465,6.556-15.201,17.365-15.2,29.001  l0.007,42.41l0.005,27.164l0.014,81.491l0.005,27.164l0.007,42.486c0.003,11.607,5.715,22.388,15.14,28.946  c0.812,0.565,1.642,1.11,2.509,1.611l23.377,13.491l22.198,12.812l18.204,10.506l94.999,54.826l19.995,11.539l12.39,7.151  c10.918,6.302,24.37,6.298,35.287-0.006l12.307-7.108l19.995-11.548l94.989-54.863l27.325-15.782l22.191-12.818l14.319-8.27  c0.841-0.486,1.648-1.015,2.439-1.562c9.465-6.556,15.201-17.365,15.2-29.001l-0.008-42.41L482.436,296.745z"/>
<path style="fill:#FFE15A;" d="M238.314,4.729l-12.307,7.108l-19.995,11.548l-94.989,54.864L81.077,95.545l-22.191,12.818  l-11.697,6.756c-0.841,0.486-1.648,1.013-2.439,1.561c-9.465,6.556-15.201,17.365-15.2,29.001l0.007,42.41l0.005,27.164  l0.014,81.491l0.005,27.164l0.007,42.485c0.003,11.607,5.715,22.389,15.14,28.946c0.812,0.565,1.642,1.11,2.509,1.611l23.377,13.491  l22.198,12.812l18.204,10.506l94.998,54.826l19.995,11.539l12.39,7.151c5.447,3.143,11.523,4.716,17.601,4.722V0  C249.893-0.006,243.785,1.57,238.314,4.729z"/>
<g>
	<path style="fill:#EBEBEB;" d="M394.406,176.55l-0.569,1.137c1.837,0.94,2.885,2.011,2.885,3.148l-0.285-5.65   C396.053,175.944,395.305,176.489,394.406,176.55z"/>
	<path style="fill:#EBEBEB;" d="M349.998,177.688l-0.569-1.137c-0.9-0.061-1.648-0.606-2.032-1.365l-0.285,5.65   C347.112,179.697,348.161,178.627,349.998,177.688z"/>
	<path style="fill:#EBEBEB;" d="M349.592,171.622c1.37,0,2.481,1.111,2.481,2.481c0,0.496-0.182,0.932-0.434,1.32l0.652,1.306   c1.872-0.657,4.179-1.217,6.809-1.65l-0.279-1.116c-1.026-0.305-1.788-1.216-1.788-2.341c0-1.37,1.111-2.481,2.481-2.481   s2.481,1.111,2.481,2.481c0,0.699-0.294,1.325-0.759,1.776l0.331,1.325c1.382-0.172,2.83-0.31,4.336-0.412   c-0.112-0.466-0.187-0.947-0.187-1.448c0-3.425,2.777-6.202,6.201-6.202c3.425,0,6.201,2.777,6.201,6.202   c0,0.501-0.075,0.981-0.187,1.448c1.505,0.102,2.954,0.24,4.336,0.412l0.331-1.325c-0.465-0.451-0.759-1.077-0.759-1.776   c0-1.37,1.111-2.481,2.481-2.481s2.481,1.111,2.481,2.481c0,1.125-0.762,2.036-1.788,2.341l-0.279,1.116   c2.631,0.432,4.937,0.992,6.809,1.65l0.652-1.306c-0.251-0.387-0.434-0.824-0.434-1.32c0-1.37,1.111-2.481,2.481-2.481   c0.892,0,1.64,0.497,2.077,1.205l-0.191-3.783c-2.449-2.782-12.35-4.864-24.211-4.864s-21.762,2.082-24.211,4.864l-0.191,3.783   C347.953,172.119,348.7,171.622,349.592,171.622z"/>
</g>
<path style="fill:#E6B432;" d="M375.79,142.441c0.671-0.846,1.088-1.902,1.088-3.067c0-2.309-1.585-4.233-3.72-4.786v-3.037  c0.729-0.432,1.24-1.192,1.24-2.101c0-1.37-1.111-2.481-2.481-2.481s-2.481,1.111-2.481,2.481c0,0.908,0.512,1.668,1.24,2.101v3.037  c-2.136,0.554-3.721,2.477-3.721,4.786c0,1.165,0.417,2.221,1.088,3.067c1.262-0.345,2.547-0.586,3.873-0.586  S374.528,142.096,375.79,142.441z"/>
<path style="fill:#EBEBEB;" d="M361.523,154.999l-0.22-0.881c-1.026-0.305-1.788-1.216-1.788-2.341c0-1.37,1.111-2.481,2.481-2.481  s2.481,1.111,2.481,2.481c0,0.699-0.294,1.325-0.759,1.776l0.28,1.118c2.428-0.265,5.104-0.414,7.922-0.414  c-2.054,0-3.72-1.666-3.72-3.72s1.666-3.721,3.72-3.721c2.054,0,3.721,1.666,3.721,3.721c0,2.054-1.666,3.72-3.721,3.72  c2.818,0,5.493,0.149,7.922,0.414l0.28-1.118c-0.465-0.451-0.759-1.077-0.759-1.776c0-1.37,1.111-2.481,2.481-2.481  s2.481,1.111,2.481,2.481c0,1.125-0.762,2.036-1.788,2.341l-0.22,0.881c1.26,0.195,2.433,0.42,3.487,0.677l1.828-3.657  c-3.164-4.902-7.251-8.323-11.837-9.579c-1.262-0.345-2.547-0.586-3.873-0.586s-2.611,0.241-3.873,0.586  c-4.586,1.256-8.674,4.676-11.837,9.579l1.828,3.657C359.09,155.419,360.263,155.194,361.523,154.999z"/>
<g>
	<path style="fill:#E6B432;" d="M369.437,358.121v-5.417c0-0.58,0.081-1.138,0.207-1.68c-0.066-0.042-0.14-0.073-0.207-0.112   c-0.732-0.426-1.572-0.689-2.481-0.689c-0.908,0-1.748,0.262-2.481,0.689c-1.477,0.86-2.481,2.441-2.481,4.273   c0,1.335,0.534,2.541,1.39,3.432c1.065-0.587,2.269-0.951,3.572-0.951C367.831,357.665,368.657,357.843,369.437,358.121z"/>
	<path style="fill:#E6B432;" d="M374.398,338.509c-1.477,0.86-2.481,2.441-2.481,4.273c0,1.335,0.534,2.541,1.39,3.432   c1.065-0.587,2.269-0.951,3.572-0.951c1.302,0,2.507,0.364,3.572,0.951c0.857-0.891,1.39-2.097,1.39-3.432   c0-1.832-1.004-3.414-2.481-4.273c-0.732-0.426-1.572-0.689-2.481-0.689S375.13,338.083,374.398,338.509z"/>
</g>
<path style="fill:#FF4B57;" d="M373.307,346.213c-1.822,1.005-3.18,2.729-3.663,4.811c-0.125,0.542-0.207,1.1-0.207,1.68v5.417  c-0.78-0.277-1.606-0.456-2.481-0.456c-1.302,0-2.507,0.364-3.572,0.951c-2.297,1.267-3.87,3.683-3.87,6.491v9.922h14.883v-9.922  c0-0.875-0.179-1.701-0.456-2.481h10.378v-9.922c0-2.808-1.575-5.224-3.87-6.491c-1.065-0.587-2.269-0.951-3.572-0.951  S374.372,345.625,373.307,346.213z"/>
<g>
	<path style="fill:#E6B432;" d="M374.398,246.456l4.239,4.24l1.45-1.45c0.345-0.345,0.772-0.522,1.215-0.621l20.979-20.984   l13.438,13.438l8.77-8.77l-3.508-3.508l-1.755,1.755l-3.508-3.508l1.754-1.755l-1.754-1.755l3.508-3.508l1.755,1.755l1.755-1.755   l3.508,3.508l-1.754,1.755l3.508,3.508l8.77-8.77l-13.44-13.44l9.197-9.2c-0.444-0.181-0.86-0.45-1.221-0.811l-4.961-4.961   c-0.37-0.37-0.641-0.8-0.822-1.256l-51.678,51.692c0.33,0.421,0.559,0.928,0.559,1.506v2.895L374.398,246.456L374.398,246.456z"/>
	<path style="fill:#E6B432;" d="M368.708,261.221l-7.017-7.017l-21.809,21.815c-1.937,1.938-1.937,5.08,0.001,7.016   c0.968,0.968,2.238,1.453,3.508,1.453s2.541-0.485,3.509-1.453l17.047-17.052L368.708,261.221z"/>
</g>
<g>
	<path style="fill:#D2D2D2;" d="M300.994,286.968c0.139-0.39,0.227-0.802,0.227-1.24c0-2.054-1.666-3.72-3.72-3.72   s-3.721,1.666-3.721,3.72c0,2.056,1.666,3.721,3.721,3.721c0.437,0,0.85-0.089,1.24-0.227   C299.442,288.422,300.194,287.67,300.994,286.968z"/>
	<path style="fill:#D2D2D2;" d="M298.74,321.924c-0.39-0.139-0.802-0.227-1.24-0.227c-2.054,0-3.721,1.666-3.721,3.72   c0,2.054,1.666,3.721,3.721,3.721c2.054,0,3.72-1.666,3.72-3.721c0-0.436-0.089-0.85-0.227-1.238   C300.194,323.475,299.442,322.723,298.74,321.924z"/>
	<path style="fill:#D2D2D2;" d="M335.951,289.222c0.39,0.139,0.802,0.227,1.24,0.227c2.054,0,3.72-1.666,3.72-3.721   c0-2.054-1.666-3.72-3.72-3.72s-3.721,1.666-3.721,3.72c0,0.437,0.089,0.85,0.227,1.24   C334.495,287.67,335.247,288.422,335.951,289.222z"/>
	<path style="fill:#D2D2D2;" d="M333.469,325.417c0,2.054,1.666,3.721,3.721,3.721c1.146,0,2.158-0.529,2.841-1.343   c-2.332-0.844-4.511-1.783-6.518-2.813C333.495,325.126,333.469,325.269,333.469,325.417z"/>
</g>
<path style="fill:#E6B432;" d="M328.288,321.825c-0.522-0.379-0.835-0.927-0.956-1.512c-0.421,0.091-0.857,0.144-1.306,0.144  c-2.945,0-5.409-2.069-6.036-4.829c-0.675,0.682-1.61,1.107-2.646,1.107s-1.971-0.425-2.646-1.107  c-0.629,2.759-3.09,4.829-6.036,4.829c-3.419,0-6.201-2.781-6.201-6.201c0-2.947,2.069-5.409,4.829-6.036  c-0.682-0.675-1.107-1.61-1.107-2.646s0.425-1.971,1.107-2.646c-2.758-0.629-4.829-3.089-4.829-6.036  c0-3.42,2.782-6.202,6.201-6.202c2.945,0,5.409,2.069,6.036,4.829c0.675-0.684,1.61-1.107,2.646-1.107s1.971,0.425,2.646,1.107  c0.629-2.759,3.09-4.829,6.036-4.829c3.419,0,6.202,2.781,6.202,6.202c0,2.947-2.069,5.409-4.829,6.036  c0.682,0.675,1.107,1.61,1.107,2.646s-0.425,1.972-1.107,2.646c2.758,0.629,4.829,3.089,4.829,6.036c0,1.308-0.411,2.518-1.106,3.52  c0.024,0.016,0.051,0.018,0.075,0.034c1.605,1.162,3.455,2.242,5.508,3.229c0.619-0.772,1.18-1.588,1.703-2.431  c1.635-2.632,2.789-5.585,3.344-8.748c0.245-1.396,0.396-2.822,0.396-4.286c0-6.266-2.354-11.98-6.201-16.351  c-0.704-0.799-1.455-1.551-2.254-2.254c-4.371-3.846-10.085-6.201-16.352-6.201c-6.266,0-11.98,2.354-16.351,6.201  c-0.799,0.704-1.551,1.455-2.254,2.254c-3.846,4.371-6.201,10.085-6.201,16.351c0,6.266,2.354,11.98,6.201,16.352  c0.704,0.799,1.455,1.551,2.254,2.254c4.371,3.846,10.085,6.2,16.351,6.2c5.961,0,11.434-2.116,15.717-5.632  C331.335,323.836,329.726,322.867,328.288,321.825z M336.522,300.555c0.421,1.606,0.667,3.282,0.667,5.019  c0,1.736-0.247,3.412-0.667,5.019c-0.7-1.998-1.943-3.72-3.565-5.019C334.579,304.276,335.821,302.554,336.522,300.555z   M322.363,286.397c-1.998,0.701-3.72,1.943-5.019,3.565c-1.298-1.622-3.02-2.864-5.019-3.565c1.606-0.421,3.282-0.667,5.019-0.667  C319.082,285.728,320.756,285.976,322.363,286.397z M298.169,300.555c0.701,1.998,1.943,3.72,3.565,5.019  c-1.622,1.298-2.864,3.02-3.565,5.019c-0.421-1.606-0.667-3.282-0.667-5.019C297.5,303.837,297.748,302.161,298.169,300.555z   M312.326,324.75c1.998-0.7,3.72-1.943,5.019-3.565c1.298,1.622,3.02,2.865,5.019,3.565c-1.606,0.421-3.282,0.667-5.019,0.667  C315.609,325.417,313.933,325.17,312.326,324.75z"/>
<g>
	<path style="fill:#F0C814;" d="M313.625,305.573c0-2.054-1.666-3.72-3.72-3.72c-1.02,0-1.942,0.411-2.613,1.075   c-0.682,0.675-1.107,1.61-1.107,2.646s0.425,1.972,1.107,2.646c0.672,0.664,1.595,1.075,2.613,1.075   C311.959,309.294,313.625,307.627,313.625,305.573z"/>
	<path style="fill:#F0C814;" d="M321.066,305.573c0,2.054,1.666,3.721,3.721,3.721c1.02,0,1.942-0.411,2.613-1.075   c0.682-0.675,1.107-1.61,1.107-2.646s-0.425-1.971-1.107-2.646c-0.672-0.664-1.595-1.075-2.613-1.075   C322.732,301.852,321.066,303.518,321.066,305.573z"/>
	<path style="fill:#F0C814;" d="M317.345,301.852c2.054,0,3.72-1.666,3.72-3.721c0-1.02-0.411-1.941-1.075-2.613   c-0.675-0.684-1.61-1.107-2.646-1.107s-1.971,0.425-2.646,1.107c-0.664,0.672-1.075,1.595-1.075,2.613   C313.625,300.187,315.29,301.852,317.345,301.852z"/>
	<path style="fill:#F0C814;" d="M317.345,309.294c-2.054,0-3.72,1.666-3.72,3.72c0,1.02,0.411,1.942,1.075,2.613   c0.675,0.682,1.61,1.107,2.646,1.107s1.971-0.425,2.646-1.107c0.664-0.672,1.075-1.595,1.075-2.613   C321.066,310.96,319.4,309.294,317.345,309.294z"/>
</g>
<g>
	<path style="fill:#D2D2D2;" d="M431.301,196.577c0.361,0.36,0.777,0.63,1.221,0.811c0.451,0.185,0.93,0.279,1.41,0.279   c0.952,0,1.904-0.364,2.631-1.09c1.29-1.29,1.367-3.257,0.369-4.706l1.371-5.485c0.194,0.049,0.381,0.119,0.59,0.119   c1.37,0,2.481-1.111,2.481-2.481s-1.111-2.481-2.481-2.481s-2.481,1.111-2.481,2.481c0,0.21,0.07,0.396,0.119,0.59l-5.485,1.371   c-1.45-0.998-3.417-0.921-4.706,0.369c-1.083,1.083-1.355,2.667-0.822,4.005c0.181,0.457,0.452,0.886,0.822,1.256L431.301,196.577z   "/>
	<path style="fill:#D2D2D2;" d="M369.437,254.934v-1.453v-9.922c0-0.577,0.229-1.085,0.559-1.506l-51.678-51.692   c-0.181,0.457-0.452,0.886-0.822,1.256l-4.961,4.961c-0.36,0.36-0.777,0.63-1.221,0.811l9.197,9.2l-13.44,13.44l8.77,8.77   l3.508-3.508l-1.755-1.755l3.508-3.508l1.755,1.755l1.755-1.755l3.508,3.508l-1.755,1.755l1.755,1.755l-3.508,3.508l-1.755-1.755   l-3.508,3.508l8.77,8.77l13.438-13.438l20.979,20.984c0.442,0.1,0.87,0.277,1.215,0.621L369.437,254.934z"/>
	<path style="fill:#D2D2D2;" d="M375.128,261.221l4.761,4.762l17.047,17.052c0.968,0.968,2.238,1.453,3.509,1.453   c1.27,0,2.538-0.485,3.508-1.453c1.938-1.936,1.938-5.077,0.001-7.016l-21.809-21.815L375.128,261.221z"/>
	<polygon style="fill:#D2D2D2;" points="374.398,253.481 374.398,254.934 378.637,250.696 374.398,246.456  "/>
	<path style="fill:#D2D2D2;" d="M445.095,289.222c0.39,0.139,0.802,0.227,1.24,0.227c2.054,0,3.72-1.666,3.72-3.721   c0-2.054-1.666-3.72-3.72-3.72c-2.054,0-3.721,1.666-3.721,3.72c0,0.437,0.089,0.85,0.227,1.24   C443.64,287.67,444.393,288.422,445.095,289.222z"/>
	<path style="fill:#D2D2D2;" d="M446.334,321.697c-0.437,0-0.85,0.089-1.24,0.227c-0.704,0.799-1.455,1.551-2.254,2.254   c-0.139,0.39-0.227,0.802-0.227,1.238c0,2.054,1.666,3.721,3.721,3.721c2.054,0,3.72-1.666,3.72-3.721   C450.056,323.363,448.39,321.697,446.334,321.697z"/>
	<path style="fill:#D2D2D2;" d="M410.139,286.968c0.139-0.39,0.227-0.802,0.227-1.24c0-2.054-1.666-3.72-3.721-3.72   c-2.056,0-3.721,1.666-3.721,3.72c0,2.056,1.666,3.721,3.721,3.721c0.436,0,0.85-0.089,1.24-0.227   C408.587,288.422,409.34,287.67,410.139,286.968z"/>
	<path style="fill:#D2D2D2;" d="M406.645,329.139c2.054,0,3.721-1.666,3.721-3.721c0-0.149-0.026-0.291-0.044-0.436   c-2.006,1.03-4.186,1.969-6.517,2.813C404.487,328.61,405.499,329.139,406.645,329.139z"/>
</g>
<path style="fill:#E6B432;" d="M445.095,321.924c3.846-4.371,6.201-10.085,6.201-16.352c0-6.266-2.354-11.98-6.201-16.351  c-0.704-0.799-1.455-1.551-2.254-2.254c-4.371-3.846-10.085-6.201-16.352-6.201s-11.98,2.354-16.352,6.201  c-0.799,0.704-1.551,1.455-2.254,2.254c-3.846,4.371-6.201,10.085-6.201,16.351c0,1.472,0.152,2.907,0.4,4.31  c0.556,3.155,1.71,6.098,3.34,8.725c0.524,0.844,1.086,1.658,1.703,2.431c2.052-0.987,3.901-2.066,5.505-3.227  c0.025-0.018,0.055-0.02,0.08-0.036c-0.694-1.001-1.106-2.212-1.106-3.52c0-2.947,2.069-5.409,4.829-6.036  c-0.682-0.675-1.107-1.61-1.107-2.646s0.425-1.971,1.107-2.646c-2.758-0.629-4.829-3.089-4.829-6.036  c0-3.42,2.782-6.202,6.201-6.202c2.945,0,5.409,2.069,6.036,4.829c0.675-0.684,1.61-1.107,2.646-1.107s1.971,0.425,2.646,1.107  c0.629-2.759,3.09-4.829,6.036-4.829c3.419,0,6.201,2.78,6.201,6.202c0,2.947-2.069,5.409-4.829,6.036  c0.682,0.675,1.107,1.61,1.107,2.646s-0.425,1.972-1.107,2.646c2.758,0.629,4.829,3.089,4.829,6.036c0,3.42-2.782,6.201-6.201,6.201  c-2.945,0-5.409-2.069-6.036-4.829c-0.675,0.682-1.61,1.107-2.646,1.107s-1.971-0.425-2.646-1.107  c-0.629,2.759-3.09,4.829-6.036,4.829c-0.45,0-0.886-0.054-1.308-0.145c-0.12,0.587-0.435,1.137-0.957,1.516  c-1.436,1.041-3.043,2.009-4.769,2.919c4.283,3.517,9.756,5.632,15.717,5.632c6.266,0,11.98-2.354,16.352-6.2  C443.64,323.475,444.393,322.723,445.095,321.924z M407.314,310.591c-0.421-1.606-0.667-3.282-0.667-5.019  c0-1.736,0.247-3.412,0.667-5.019c0.701,1.998,1.943,3.72,3.565,5.019C409.256,306.871,408.014,308.593,407.314,310.591z   M426.49,289.962c-1.298-1.622-3.02-2.864-5.019-3.565c1.606-0.421,3.282-0.667,5.019-0.667s3.412,0.247,5.019,0.667  C429.51,287.096,427.788,288.339,426.49,289.962z M445.667,300.555c0.421,1.606,0.667,3.282,0.667,5.019  c0,1.736-0.247,3.412-0.667,5.019c-0.7-1.998-1.943-3.72-3.565-5.019C443.724,304.276,444.966,302.554,445.667,300.555z   M421.471,324.75c1.998-0.7,3.72-1.943,5.019-3.565c1.298,1.622,3.02,2.865,5.019,3.565c-1.606,0.421-3.282,0.667-5.019,0.667  S423.078,325.17,421.471,324.75z"/>
<g>
	<path style="fill:#F0C814;" d="M430.211,305.573c0,2.054,1.666,3.721,3.72,3.721c1.02,0,1.942-0.411,2.613-1.075   c0.682-0.675,1.107-1.61,1.107-2.646s-0.425-1.971-1.107-2.646c-0.672-0.664-1.595-1.075-2.613-1.075   C431.877,301.852,430.211,303.518,430.211,305.573z"/>
	<path style="fill:#F0C814;" d="M422.77,305.573c0-2.054-1.666-3.72-3.721-3.72c-1.02,0-1.942,0.411-2.613,1.075   c-0.682,0.675-1.107,1.61-1.107,2.646s0.425,1.972,1.107,2.646c0.672,0.664,1.595,1.075,2.613,1.075   C421.104,309.294,422.77,307.627,422.77,305.573z"/>
	<path style="fill:#F0C814;" d="M426.49,301.852c2.054,0,3.721-1.666,3.721-3.721c0-1.02-0.411-1.941-1.075-2.613   c-0.675-0.684-1.61-1.107-2.646-1.107s-1.971,0.425-2.646,1.107c-0.664,0.672-1.075,1.595-1.075,2.613   C422.77,300.187,424.435,301.852,426.49,301.852z"/>
	<path style="fill:#F0C814;" d="M426.49,309.294c-2.054,0-3.721,1.666-3.721,3.72c0,1.02,0.411,1.942,1.075,2.613   c0.675,0.682,1.61,1.107,2.646,1.107s1.971-0.425,2.646-1.107c0.664-0.672,1.075-1.595,1.075-2.613   C430.211,310.96,428.546,309.294,426.49,309.294z"/>
</g>
<path style="fill:#F7B518;" d="M317.495,191.616c0.37-0.37,0.641-0.8,0.822-1.256c0.531-1.338,0.261-2.922-0.822-4.005  c-1.29-1.29-3.257-1.367-4.706-0.369l-5.485-1.371c0.049-0.194,0.119-0.381,0.119-0.59c0-1.37-1.111-2.481-2.481-2.481  s-2.481,1.111-2.481,2.481c0,1.37,1.111,2.481,2.481,2.481c0.21,0,0.396-0.07,0.59-0.119l1.371,5.485  c-0.998,1.45-0.921,3.417,0.369,4.706c0.727,0.727,1.678,1.09,2.631,1.09c0.48,0,0.958-0.095,1.41-0.279  c0.444-0.181,0.861-0.45,1.221-0.811L317.495,191.616z"/>
<path style="fill:#FF4B55;" d="M415.542,321.827c0.524-0.379,0.837-0.929,0.957-1.516c0.135-0.657,0.021-1.362-0.404-1.948  c-0.786-1.082-2.279-1.332-3.384-0.589c-0.025,0.018-0.055,0.019-0.08,0.036c-1.603,1.161-3.452,2.239-5.505,3.227  c-7.272,3.498-17.119,5.833-27.769,6.587v-34.843c10.826,14.785,21.369,22.729,26.065,25.824c-1.631-2.627-2.784-5.57-3.34-8.725  c-6.003-4.966-14.494-13.309-22.725-25.889v-16.853c0.176-0.387,0.355-0.764,0.53-1.155l-4.761-4.762l7.017-7.017l1.45-1.45  c0.968-0.968,0.968-2.539,0-3.508c-0.625-0.625-1.492-0.802-2.293-0.621c-0.442,0.1-0.87,0.277-1.215,0.621l-1.45,1.45l-4.239,4.239  v-1.453v-7.024v-2.898c0-0.577-0.229-1.085-0.559-1.506c-0.455-0.579-1.128-0.975-1.922-0.975c-0.792,0-1.467,0.396-1.922,0.975  c-0.33,0.421-0.559,0.928-0.559,1.506v9.922v1.453l-5.688-5.687c-0.345-0.345-0.772-0.522-1.215-0.621  c-0.802-0.18-1.67-0.002-2.293,0.621c-0.968,0.968-0.968,2.538,0,3.508l1.45,1.45l7.017,7.017l-4.761,4.762  c0.174,0.392,0.354,0.769,0.53,1.155v16.834c-8.223,12.554-16.715,20.906-22.721,25.887c-0.555,3.163-1.708,6.116-3.344,8.748  c4.696-3.095,15.24-11.041,26.065-25.824v34.843c-10.65-0.754-20.497-3.088-27.769-6.587c-2.054-0.987-3.904-2.067-5.508-3.229  c-0.024-0.017-0.051-0.019-0.075-0.034c-1.103-0.747-2.601-0.495-3.389,0.586c-0.425,0.587-0.537,1.293-0.401,1.952  c0.121,0.585,0.434,1.135,0.956,1.512c1.437,1.041,3.045,2.011,4.774,2.922c0.15,0.079,0.3,0.157,0.451,0.235  c2.006,1.03,4.186,1.969,6.518,2.813c7.043,2.549,15.437,4.216,24.446,4.811v18.305c0.732-0.426,1.572-0.689,2.481-0.689  c0.908,0,1.748,0.262,2.481,0.689v-18.088c0.825,0.018,1.65,0.036,2.481,0.036s1.656-0.017,2.481-0.036v5.685  c0.732-0.426,1.572-0.689,2.481-0.689c0.908,0,1.748,0.262,2.481,0.689v-5.902c9.009-0.595,17.403-2.262,24.446-4.811  c2.332-0.844,4.511-1.783,6.517-2.813c0.151-0.078,0.301-0.156,0.451-0.235C412.499,323.836,414.106,322.868,415.542,321.827z   M371.917,327.898c-0.83,0-1.656-0.018-2.481-0.036v-42.336c0.831-1.306,1.658-2.664,2.481-4.055  c0.822,1.392,1.65,2.749,2.481,4.055v42.336C373.573,327.882,372.747,327.898,371.917,327.898z"/>
<g>
	<path style="fill:#E6B432;" d="M371.917,185.954c13.7,0,24.806,2.344,24.806,5.237c0-4.866,0-9.614,0-10.356   c0-1.138-1.05-2.208-2.885-3.148l0.569-1.137c0.9-0.061,1.647-0.606,2.032-1.365c0.167-0.329,0.285-0.686,0.285-1.083   c0-0.477-0.17-0.897-0.404-1.276c-0.437-0.707-1.183-1.205-2.077-1.205c-1.37,0-2.481,1.111-2.481,2.481   c0,0.496,0.182,0.932,0.434,1.32l-0.652,1.306c-1.872-0.657-4.179-1.217-6.809-1.65l0.279-1.116   c1.026-0.305,1.788-1.216,1.788-2.341c0-1.37-1.111-2.481-2.481-2.481s-2.481,1.111-2.481,2.481c0,0.699,0.294,1.325,0.759,1.776   l-0.331,1.325c-1.382-0.172-2.83-0.31-4.336-0.412c0.112-0.466,0.187-0.947,0.187-1.448c0-3.425-2.777-6.202-6.201-6.202   c-3.425,0-6.201,2.777-6.201,6.202c0,0.501,0.075,0.981,0.187,1.448c-1.505,0.102-2.954,0.24-4.336,0.412l-0.331-1.325   c0.465-0.451,0.759-1.077,0.759-1.776c0-1.37-1.111-2.481-2.481-2.481s-2.481,1.111-2.481,2.481c0,1.125,0.762,2.036,1.788,2.341   l0.279,1.116c-2.631,0.432-4.937,0.992-6.809,1.65l-0.652-1.306c0.251-0.387,0.434-0.824,0.434-1.32   c0-1.37-1.111-2.481-2.481-2.481c-0.892,0-1.64,0.497-2.077,1.205c-0.234,0.379-0.404,0.799-0.404,1.276   c0,0.397,0.117,0.755,0.285,1.083c0.385,0.759,1.133,1.302,2.032,1.365l0.569,1.137c-1.837,0.94-2.885,2.011-2.885,3.148   c0,0.741,0,5.49,0,10.356C347.112,188.299,358.217,185.954,371.917,185.954z"/>
	<path style="fill:#E6B432;" d="M347.112,191.466l0.031-0.012c-0.008-0.082-0.031-0.195-0.031-0.264   C347.112,191.283,347.112,191.374,347.112,191.466z"/>
	<path style="fill:#E6B432;" d="M396.723,191.466c0-0.092,0-0.184,0-0.276c0,0.067-0.024,0.18-0.031,0.264L396.723,191.466z"/>
</g>
<path style="fill:#EBEBEB;" d="M352.073,196.428c0,0.496-0.182,0.932-0.434,1.32l0.941,1.881c1.641-0.814,3.884-1.513,6.566-2.049  l-0.322-1.291c-1.026-0.305-1.788-1.216-1.788-2.341c0-1.37,1.111-2.481,2.481-2.481s2.481,1.111,2.481,2.481  c0,0.699-0.294,1.325-0.759,1.776l0.357,1.431c2.393-0.357,5.037-0.596,7.843-0.685v-2.247c-0.756-0.681-1.24-1.657-1.24-2.755  c0-2.054,1.666-3.72,3.72-3.72c2.054,0,3.721,1.666,3.721,3.72c0,1.097-0.485,2.074-1.24,2.755v2.247  c2.805,0.089,5.45,0.327,7.843,0.685l0.357-1.431c-0.465-0.451-0.759-1.077-0.759-1.776c0-1.37,1.111-2.481,2.481-2.481  s2.481,1.111,2.481,2.481c0,1.125-0.762,2.036-1.788,2.341l-0.322,1.291c2.682,0.536,4.925,1.236,6.566,2.049l0.941-1.881  c-0.251-0.387-0.434-0.824-0.434-1.32c0-1.37,1.111-2.481,2.481-2.481c0.594,0,1.116,0.237,1.543,0.585  c0.552-1.356,0.846-2.432,0.906-3.078c0.008-0.082,0.031-0.195,0.031-0.264c0-2.892-11.106-5.237-24.806-5.237  s-24.806,2.344-24.806,5.237c0,0.067,0.024,0.18,0.031,0.264c0.06,0.645,0.354,1.722,0.906,3.078  c0.427-0.347,0.95-0.585,1.543-0.585C350.963,193.947,352.073,195.058,352.073,196.428z"/>
<path style="fill:#E6B432;" d="M347.112,196.428c0,1.312,1.027,2.359,2.318,2.448l1.071,2.141c-0.581,0.569-0.907,1.168-0.907,1.79  c0,0.716,0.431,1.402,1.192,2.044l3.769,6.461c0-2.74,7.774-4.961,17.364-4.961s17.364,2.221,17.364,4.961l3.769-6.461  c0.761-0.642,1.192-1.328,1.192-2.044c0-0.622-0.326-1.221-0.907-1.79l1.071-2.141c1.29-0.089,2.317-1.136,2.317-2.448  c0-0.776-0.379-1.441-0.937-1.896c-0.427-0.347-0.95-0.585-1.543-0.585c-1.37,0-2.481,1.111-2.481,2.481  c0,0.496,0.182,0.932,0.434,1.32l-0.941,1.881c-1.641-0.814-3.884-1.513-6.566-2.049l0.322-1.291  c1.026-0.305,1.788-1.216,1.788-2.341c0-1.37-1.111-2.481-2.481-2.481s-2.481,1.111-2.481,2.481c0,0.699,0.294,1.325,0.759,1.776  l-0.357,1.431c-2.393-0.357-5.037-0.596-7.843-0.685v-2.247c0.756-0.681,1.24-1.657,1.24-2.755c0-2.054-1.666-3.72-3.721-3.72  c-2.054,0-3.72,1.666-3.72,3.72c0,1.097,0.484,2.074,1.24,2.755v2.247c-2.805,0.089-5.45,0.327-7.843,0.685l-0.357-1.431  c0.465-0.451,0.759-1.077,0.759-1.776c0-1.37-1.111-2.481-2.481-2.481s-2.481,1.111-2.481,2.481c0,1.125,0.762,2.036,1.788,2.341  l0.322,1.291c-2.682,0.536-4.925,1.236-6.566,2.049l-0.941-1.881c0.251-0.387,0.434-0.824,0.434-1.32  c0-1.37-1.111-2.481-2.481-2.481c-0.594,0-1.116,0.237-1.543,0.585C347.49,194.987,347.112,195.652,347.112,196.428z"/>
<ellipse style="fill:#EBEBEB;" cx="371.92" cy="211.32" rx="17.364" ry="4.961"/>
<g>
	<path style="fill:#E6B432;" d="M396.128,169.044l-4.366-9.825c0-0.62-0.476-1.212-1.308-1.76l3.527-7.053   c0.614-1.226,0.116-2.715-1.11-3.328c-1.228-0.609-2.716-0.114-3.328,1.11l-1.916,3.833l-1.828,3.656   c-1.052-0.257-2.226-0.484-3.487-0.677l0.22-0.881c1.026-0.305,1.788-1.216,1.788-2.341c0-1.37-1.111-2.481-2.481-2.481   s-2.481,1.111-2.481,2.481c0,0.699,0.294,1.325,0.759,1.776l-0.28,1.118c-2.428-0.265-5.104-0.414-7.922-0.414   s-5.493,0.149-7.922,0.414l-0.28-1.118c0.465-0.451,0.759-1.077,0.759-1.776c0-1.37-1.111-2.481-2.481-2.481   s-2.481,1.111-2.481,2.481c0,1.125,0.762,2.036,1.788,2.341l0.22,0.881c-1.261,0.195-2.434,0.42-3.487,0.677l-1.828-3.656   l-1.916-3.833c-0.614-1.223-2.099-1.717-3.328-1.11c-1.226,0.612-1.722,2.103-1.11,3.328l3.527,7.053   c-0.832,0.547-1.308,1.138-1.308,1.76l-4.366,9.825c2.449-2.782,12.35-4.864,24.211-4.864S393.679,166.262,396.128,169.044z"/>
	<circle style="fill:#E6B432;" cx="371.92" cy="150.53" r="3.72"/>
</g>
<g>
</g>
<g>
</g>
<g>
</g>
<g>
</g>
<g>
</g>
<g>
</g>
<g>
</g>
<g>
</g>
<g>
</g>
<g>
</g>
<g>
</g>
<g>
</g>
<g>
</g>
<g>
</g>
<g>
</g>
</svg>
