<?xml version="1.0" encoding="iso-8859-1"?>
<!-- Generator: Adobe Illustrator 19.0.0, SVG Export Plug-In . SVG Version: 6.00 Build 0)  -->
<svg xmlns="http://www.w3.org/2000/svg" xmlns:xlink="http://www.w3.org/1999/xlink" version="1.1" id="Layer_1" x="0px" y="0px" viewBox="0 0 512.001 512.001" style="enable-background:new 0 0 512.001 512.001;" xml:space="preserve">
<path style="fill:#FFE15A;" d="M482.445,342.226l-0.029-172.453l-0.004-24.168c-0.003-12.607-6.729-24.255-17.649-30.557  L273.602,4.725c-10.918-6.302-24.37-6.3-35.287,0.006L47.19,115.118c-10.917,6.306-17.64,17.955-17.639,30.562l0.004,24.092  l0.029,172.453l0.004,24.168C29.59,379,36.317,390.648,47.236,396.95l191.161,110.325c10.918,6.302,24.37,6.299,35.287-0.006  L464.81,396.88c10.917-6.306,17.64-17.955,17.639-30.562L482.445,342.226z"/>
<path style="fill:#FF4B55;" d="M482.445,342.226L258.5,327.23L29.585,342.226l0.004,24.168c0.002,12.607,6.729,24.255,17.649,30.557  l191.161,110.325c10.918,6.302,24.37,6.299,35.287-0.006l191.125-110.389c10.917-6.306,17.64-17.955,17.639-30.562L482.445,342.226z  "/>
<polygon style="fill:#41479B;" points="482.416,169.773 29.556,169.773 29.585,342.226 482.445,342.226 "/>
<g>
	<path style="fill:#F5F5F5;" d="M172.306,279.022l2.378,7.131l7.515,0.059c0.973,0.007,1.377,1.25,0.594,1.827l-6.046,4.465   l2.267,7.166c0.294,0.927-0.762,1.696-1.555,1.13l-6.115-4.37l-6.115,4.37c-0.791,0.566-1.848-0.201-1.555-1.13l2.267-7.166   l-6.046-4.465c-0.782-0.579-0.38-1.819,0.594-1.827l7.515-0.059l2.378-7.131C170.693,278.1,171.997,278.1,172.306,279.022z"/>
	<path style="fill:#F5F5F5;" d="M186.907,256.326l-1.275,7.408l6.596,3.604c0.854,0.466,0.622,1.752-0.34,1.891l-7.438,1.077   l-1.39,7.387c-0.18,0.956-1.473,1.133-1.903,0.261l-3.323-6.742l-7.454,0.962c-0.965,0.125-1.533-1.051-0.836-1.73l5.385-5.244   l-3.218-6.792c-0.416-0.88,0.526-1.783,1.387-1.33l6.651,3.5l5.466-5.16C185.921,254.749,187.072,255.366,186.907,256.326z"/>
	<path style="fill:#F5F5F5;" d="M205.384,236.46l-3.528,6.637l5.137,5.486c0.665,0.71,0.044,1.858-0.915,1.69l-7.402-1.303   l-3.63,6.582c-0.47,0.852-1.755,0.616-1.889-0.347l-1.047-7.443l-7.382-1.418c-0.956-0.184-1.127-1.478-0.252-1.904l6.754-3.297   l-0.932-7.458c-0.12-0.966,1.057-1.53,1.733-0.829l5.222,5.406l6.806-3.19C204.941,234.654,205.84,235.6,205.384,236.46z"/>
	<path style="fill:#F5F5F5;" d="M227.619,224.135l-5.186,5.441l3.469,6.668c0.449,0.864-0.459,1.802-1.336,1.381l-6.777-3.25   l-5.27,5.36c-0.682,0.694-1.854,0.12-1.726-0.845l0.997-7.449l-6.726-3.355c-0.871-0.435-0.687-1.727,0.27-1.902l7.393-1.353   l1.113-7.433c0.144-0.962,1.431-1.187,1.892-0.331l3.572,6.613l7.413-1.238C227.679,222.277,228.292,223.43,227.619,224.135z"/>
	<path style="fill:#F5F5F5;" d="M253.177,218.424l-6.453,3.853l1.556,7.353c0.201,0.952-0.925,1.612-1.657,0.972l-5.658-4.947   l-6.513,3.753c-0.844,0.486-1.819-0.381-1.437-1.276l2.957-6.911l-5.581-5.035c-0.722-0.652-0.2-1.848,0.77-1.761l7.485,0.676   l3.063-6.863c0.396-0.889,1.696-0.761,1.912,0.187l1.67,7.328l7.474,0.792C253.734,216.649,254.013,217.925,253.177,218.424z"/>
	<path style="fill:#F5F5F5;" d="M339.696,279.022l-2.378,7.131l-7.515,0.059c-0.973,0.007-1.377,1.25-0.594,1.827l6.046,4.465   l-2.267,7.166c-0.294,0.927,0.762,1.696,1.555,1.13l6.115-4.37l6.115,4.37c0.791,0.566,1.848-0.201,1.555-1.13l-2.267-7.166   l6.046-4.465c0.782-0.579,0.38-1.819-0.594-1.827l-7.515-0.059l-2.378-7.131C341.31,278.1,340.004,278.1,339.696,279.022z"/>
	<path style="fill:#F5F5F5;" d="M325.095,256.326l1.275,7.408l-6.596,3.604c-0.854,0.466-0.622,1.752,0.34,1.891l7.438,1.077   l1.39,7.387c0.18,0.956,1.473,1.133,1.903,0.261l3.323-6.742l7.454,0.962c0.965,0.125,1.533-1.051,0.836-1.73l-5.385-5.244   l3.218-6.792c0.416-0.88-0.526-1.783-1.387-1.33l-6.651,3.5l-5.466-5.16C326.08,254.749,324.93,255.366,325.095,256.326z"/>
	<path style="fill:#F5F5F5;" d="M306.618,236.46l3.528,6.637l-5.137,5.486c-0.665,0.71-0.044,1.858,0.915,1.69l7.402-1.303   l3.63,6.582c0.47,0.852,1.755,0.616,1.889-0.347l1.047-7.443l7.382-1.418c0.956-0.184,1.127-1.478,0.252-1.904l-6.754-3.297   l0.932-7.458c0.12-0.966-1.057-1.53-1.733-0.829l-5.222,5.406l-6.806-3.19C307.06,234.654,306.16,235.6,306.618,236.46z"/>
	<path style="fill:#F5F5F5;" d="M284.381,224.135l5.186,5.441l-3.469,6.668c-0.449,0.864,0.459,1.802,1.336,1.381l6.777-3.25   l5.27,5.36c0.682,0.694,1.854,0.12,1.726-0.845l-0.997-7.449l6.726-3.355c0.871-0.435,0.687-1.727-0.27-1.902l-7.393-1.353   l-1.113-7.433c-0.144-0.962-1.431-1.187-1.892-0.331l-3.572,6.613l-7.413-1.238C284.321,222.277,283.71,223.43,284.381,224.135z"/>
	<path style="fill:#F5F5F5;" d="M258.823,218.424l6.453,3.853l-1.556,7.353c-0.201,0.952,0.925,1.612,1.657,0.972l5.658-4.947   l6.513,3.753c0.844,0.486,1.819-0.381,1.437-1.276l-2.957-6.911l5.581-5.035c0.722-0.652,0.2-1.848-0.77-1.761l-7.485,0.676   l-3.063-6.863c-0.396-0.889-1.696-0.761-1.912,0.187l-1.67,7.328l-7.474,0.792C258.269,216.649,257.987,217.925,258.823,218.424z"/>
</g>
<g>
</g>
<g>
</g>
<g>
</g>
<g>
</g>
<g>
</g>
<g>
</g>
<g>
</g>
<g>
</g>
<g>
</g>
<g>
</g>
<g>
</g>
<g>
</g>
<g>
</g>
<g>
</g>
<g>
</g>
</svg>
