<?xml version="1.0" encoding="iso-8859-1"?>
<!-- Generator: Adobe Illustrator 19.0.0, SVG Export Plug-In . SVG Version: 6.00 Build 0)  -->
<svg xmlns="http://www.w3.org/2000/svg" xmlns:xlink="http://www.w3.org/1999/xlink" version="1.1" id="Layer_1" x="0px" y="0px" viewBox="0 0 512.002 512.002" style="enable-background:new 0 0 512.002 512.002;" xml:space="preserve">
<path style="fill:#F5F5F5;" d="M482.45,366.319l-0.008-42.41l-0.005-27.164l-0.014-81.491l-0.005-27.164l-0.008-42.485  c0-3.105-0.422-6.147-1.202-9.07c-0.42-1.572-0.948-3.107-1.577-4.597c-2.568-6.091-6.814-11.419-12.362-15.28  c-0.812-0.565-1.642-1.11-2.509-1.611l-23.71-13.684l-22.198-12.81l-17.87-10.313L332.645,38.8l0,0l-26.659-15.386l-19.995-11.539  l-12.39-7.151c-10.918-6.301-24.37-6.298-35.287,0.006l-12.307,7.108l-19.995,11.548l-26.659,15.398l0,0L111.026,78.25  L81.079,95.547l-22.191,12.818l-11.697,6.755c-0.841,0.486-1.648,1.015-2.439,1.561c-3.392,2.349-6.296,5.254-8.638,8.538  c-1.572,2.206-2.883,4.585-3.911,7.092c-1.715,4.179-2.652,8.706-2.651,13.371l0.007,42.41l0.005,27.164l0.014,81.478v0.014v0.005  l0.005,27.159l0.007,42.478v0.006c0.003,11.607,5.715,22.388,15.14,28.946c0.812,0.565,1.642,1.11,2.509,1.611l23.377,13.491  l22.198,12.812l18.204,10.506l94.999,54.826l19.995,11.539l12.39,7.151c10.918,6.301,24.37,6.298,35.287-0.006l12.307-7.108  l19.995-11.548l26.659-15.397l0,0l57.588-33.261l10.742-6.205l27.325-15.782l22.191-12.818l14.319-8.27  c0.841-0.486,1.648-1.015,2.439-1.561C476.716,388.765,482.452,377.956,482.45,366.319L482.45,366.319L482.45,366.319z"/>
<polygon style="fill:#4173CD;" points="383.695,286.623 386.475,296.374 396.135,267.666 369.341,281.792 379.411,282.977   347.254,320.762 346.975,319.963 372.659,266.781 377.81,275.515 379.911,245.298 357.551,265.73 367.594,264.334 341.91,317.516   341.109,317.796 350.71,269.115 357.9,276.267 352.305,246.498 335.826,271.913 345.192,268.027 334.84,320.516 331.459,327.514   327.818,329.956 326.321,337.552 313.585,352.515 323.526,351.714 321.723,360.859 325.24,358.501 325.58,362.722 331.62,355.623   337.174,363.907 340.977,344.63 345.993,338.735 345.642,334.364 349.022,327.366 "/>
<path style="fill:#73AF00;" d="M152.362,258.086c1.092-4.91,0.415-9.511-1.456-12.345c-2.895,1.773-5.459,5.653-6.551,10.563  c-0.506,2.274-0.596,4.461-0.4,6.458l-6.013-8.964c2.448-1.997,4.556-5.415,5.512-9.716c1.092-4.911,0.415-9.511-1.456-12.344  c-2.895,1.773-5.459,5.653-6.551,10.563c-0.582,2.616-0.631,5.119-0.296,7.338l-4.065-6.06c0.204-3.078-0.741-6.822-3.01-10.388  c-2.699-4.244-6.432-7.018-9.759-7.699c-0.794,3.302,0.137,7.858,2.838,12.102c2.294,3.607,5.325,6.062,8.228,7.163l3.725,6.185  c-1.868-1.245-4.156-2.261-6.773-2.843c-4.91-1.092-9.511-0.415-12.344,1.456c1.773,2.895,5.653,5.459,10.565,6.551  c4.301,0.956,8.29,0.496,11.137-0.875l5.571,9.246c-1.726-1.025-3.745-1.87-6.021-2.376c-4.91-1.092-9.511-0.415-12.344,1.456  c1.773,2.895,5.653,5.458,10.565,6.551c4.116,0.916,7.949,0.532,10.772-0.7l5.13,8.514c-1.586-0.856-3.352-1.59-5.351-2.034  c-4.91-1.092-9.511-0.415-12.344,1.456c1.773,2.895,5.653,5.458,10.565,6.551c3.935,0.875,7.624,0.575,10.412-0.526l4.946,8.21  c-1.421-0.695-2.95-1.306-4.671-1.688c-4.91-1.092-9.511-0.415-12.344,1.456c1.773,2.895,5.653,5.458,10.565,6.551  c3.75,0.835,7.307,0.624,10.047-0.351l4.505,7.478c-1.24-0.547-2.557-1.026-4.001-1.347c-4.91-1.092-9.511-0.415-12.344,1.456  c1.773,2.895,5.653,5.458,10.565,6.551c3.578,0.796,6.972,0.632,9.657-0.229l14.311,23.754l6.078-3.866l-15.448-23.03  c1.917-2.067,3.504-5.072,4.3-8.65c1.092-4.91,0.415-9.511-1.456-12.344c-2.895,1.773-5.459,5.653-6.551,10.563  c-0.321,1.445-0.447,2.84-0.476,4.194l-4.862-7.249c2.043-2.069,3.741-5.2,4.576-8.95c1.092-4.91,0.415-9.511-1.456-12.345  c-2.895,1.773-5.458,5.653-6.551,10.563c-0.382,1.72-0.479,3.364-0.451,4.945l-5.339-7.959c2.179-2.058,4.015-5.272,4.89-9.207  c1.092-4.911,0.415-9.511-1.456-12.345c-2.895,1.773-5.459,5.653-6.551,10.563c-0.445,1.999-0.529,3.909-0.425,5.707l-5.536-8.254  C149.475,265.51,151.446,262.201,152.362,258.086z"/>
<g>
	<path style="fill:#FFE15A;" d="M214.579,257.285l-7.615-45.695h-1.178c-6.914,0-11.796-6.773-9.61-13.333l0.025-0.074   c1.747-5.241-1.028-10.916-6.238-12.755L85.39,148.522c-5.927-2.092-11.509,3.869-9.034,9.646l11.339,26.459   c3.263,7.612,8.918,13.954,16.108,18.063l29.008,16.575c8.665,4.951,18.472,7.555,28.452,7.555h0.002l2.602,5.204   c7.74,15.481,23.564,25.259,40.871,25.259h9.839v0.002H214.579z"/>
	<path style="fill:#FFE15A;" d="M305.97,257.285l7.615-45.695h1.178c6.914,0,11.796-6.773,9.61-13.333l-0.025-0.074   c-1.747-5.241,1.028-10.916,6.238-12.755l104.528-36.892c5.943-2.098,11.541,3.879,9.059,9.672l-11.322,26.418   c-3.263,7.612-8.918,13.954-16.108,18.063l-29.008,16.575c-8.665,4.951-18.472,7.555-28.452,7.555h-0.003l-2.602,5.204   c-7.74,15.481-23.564,25.259-40.871,25.259h-9.837V257.285z"/>
	<path style="fill:#FFE15A;" d="M290.738,203.973l-18.891-44.079c-2.401-5.601-7.907-9.231-14-9.231h-5.189l-7.615,7.615h-7.615   l-7.615,7.615h10.628c2.694,0,4.511,2.756,3.45,5.232l-14.077,32.847L290.738,203.973L290.738,203.973z"/>
	<path style="fill:#FFE15A;" d="M237.426,280.132l-15.232-22.848l-13.949,13.949c-5.852,5.852-10.262,12.986-12.879,20.838   l-3.637,10.908l-7.615,7.615h-9.899c-3.268,0-6.256,1.847-7.718,4.77l-2.148,4.295c-1.417,2.833,0.644,6.167,3.811,6.167h15.953   l5.077-10.155l24.281-12.14c0.732-0.366,1.401-0.847,1.979-1.426L237.426,280.132z"/>
	<path style="fill:#FFE15A;" d="M283.121,280.132l15.232-22.848l13.949,13.949c5.852,5.852,10.262,12.986,12.879,20.838   l3.637,10.908l7.615,7.615h9.899c3.268,0,6.256,1.847,7.718,4.77l2.148,4.295c1.417,2.833-0.644,6.167-3.811,6.167h-15.953   l-5.077-10.155l-24.281-12.14c-0.732-0.366-1.401-0.847-1.979-1.426L283.121,280.132z"/>
	<path style="fill:#FFE15A;" d="M237.426,287.748l-18.509,30.849c-2.497,4.161-1.588,9.522,2.139,12.629l28.107,23.422   c6.436,5.364,15.784,5.364,22.22,0l28.107-23.422c3.729-3.107,4.636-8.468,2.139-12.629l-18.509-30.849H237.426z"/>
</g>
<path style="fill:#F5F5F5;" d="M260.274,196.358c0,0-22.847,7.615-53.312,0c0,0,0,15.232,0,30.464  c0,15.232,7.615,60.927,53.312,76.159c45.695-15.232,53.312-60.927,53.312-76.159s0-30.464,0-30.464  C283.121,203.973,260.274,196.358,260.274,196.358z"/>
<path style="fill:#41479B;" d="M260.274,196.358c0,0-22.847,7.615-53.312,0c0,0,0,15.232,0,30.464h106.622  c0-15.232,0-30.464,0-30.464C283.121,203.973,260.274,196.358,260.274,196.358z"/>
<g>
	<path style="fill:#FF4B55;" d="M222.886,275.542V226.82h-8.308v33.901C216.737,265.68,219.449,270.701,222.886,275.542z"/>
	<path style="fill:#FF4B55;" d="M239.503,226.821h-8.308v58.458c2.516,2.493,5.266,4.865,8.308,7.073V226.821z"/>
	<path style="fill:#FF4B55;" d="M297.661,275.542c3.438-4.841,6.151-9.862,8.308-14.821V226.82h-8.308V275.542z"/>
	<path style="fill:#FF4B55;" d="M256.12,226.821h-8.308v70.686c2.602,1.403,5.375,2.679,8.308,3.839V226.821z"/>
	<path style="fill:#FF4B55;" d="M289.353,226.821h-8.308v65.531c3.042-2.208,5.792-4.581,8.308-7.073V226.821z"/>
	<path style="fill:#FF4B55;" d="M272.737,297.506V226.82h-8.308v74.525C267.362,300.186,270.134,298.91,272.737,297.506z"/>
</g>
<polygon style="fill:#73AF00;" points="180.198,316.795 174.79,320.124 183.877,335.207 189.955,331.341 "/>
<g>
	<polygon style="fill:#4173CD;" points="348.827,327.768 344.05,318.212 335.294,318.212 334.84,320.516 331.459,327.514    327.818,329.956 326.319,337.552 313.585,352.515 323.526,351.714 321.723,360.859 325.24,358.501 325.58,362.722 331.62,355.623    337.174,363.907 340.977,344.63 345.994,338.734 345.642,334.364  "/>
	<polygon style="fill:#4173CD;" points="112.308,226.821 92.725,226.821 94.482,232.093 82.932,272.516 71.383,232.093    73.14,226.821 53.557,226.821 58.829,233.851 74.898,290.092 73.14,295.364 92.725,295.364 90.966,290.092 107.036,233.851  "/>
	<polygon style="fill:#4173CD;" points="444.143,231.717 447.408,226.821 444.143,226.821 431.088,226.821 427.824,226.821    431.088,231.717 431.088,290.468 427.824,295.364 431.088,295.364 444.143,295.364 447.408,295.364 444.143,290.468  "/>
</g>
<g>
</g>
<g>
</g>
<g>
</g>
<g>
</g>
<g>
</g>
<g>
</g>
<g>
</g>
<g>
</g>
<g>
</g>
<g>
</g>
<g>
</g>
<g>
</g>
<g>
</g>
<g>
</g>
<g>
</g>
</svg>
