<?xml version="1.0" encoding="iso-8859-1"?>
<!-- Generator: Adobe Illustrator 19.0.0, SVG Export Plug-In . SVG Version: 6.00 Build 0)  -->
<svg xmlns="http://www.w3.org/2000/svg" xmlns:xlink="http://www.w3.org/1999/xlink" version="1.1" id="Layer_1" x="0px" y="0px" viewBox="0 0 512 512" style="enable-background:new 0 0 512 512;" xml:space="preserve">
<path style="fill:#73AF00;" d="M482.442,323.911l-0.005-27.025L256,285.993l-145.068,147.72l0.082,0.047l94.999,54.826  l19.995,11.539l12.39,7.151c10.918,6.302,24.37,6.298,35.287-0.006l12.307-7.108l19.995-11.548l26.659-15.397l57.587-33.261  l10.742-6.205l27.325-15.782l22.191-12.818l14.319-8.27c0.841-0.486,1.648-1.013,2.439-1.562c9.465-6.556,15.201-17.365,15.2-29.001  L482.442,323.911z"/>
<path style="fill:#FF4B55;" d="M256,229.758l226.423-14.642l-0.005-27.025l-0.008-42.486c0-3.105-0.422-6.147-1.202-9.07  c-0.42-1.572-0.948-3.107-1.577-4.598c-2.568-6.091-6.814-11.419-12.362-15.28c-0.812-0.565-1.642-1.11-2.509-1.611l-23.71-13.684  l-22.198-12.81l-17.87-10.313l-68.335-39.438l-26.659-15.386l-19.995-11.539l-12.39-7.151c-10.918-6.302-24.37-6.3-35.287,0.006  l-12.307,7.108l-19.995,11.548l-26.659,15.398l0,0l-68.33,39.466l-0.084,0.049L256,229.758z"/>
<g>
	<polygon style="fill:#464655;" points="250.081,257.25 482.428,242.373 482.431,256.021 482.425,215.256 482.425,215.116    256,215.116 110.942,78.299 111.025,78.251 81.078,95.547 89.35,90.77  "/>
	<path style="fill:#464655;" d="M250.081,256.001L68.875,102.595l-9.989,5.77l-11.696,6.756c-0.841,0.486-1.648,1.015-2.439,1.561   c-3.392,2.349-6.296,5.254-8.638,8.538c-1.572,2.206-2.883,4.585-3.911,7.092c-1.715,4.179-2.652,8.706-2.651,13.371l0.007,42.41   l0.005,27.164l0.014,81.478v0.014v0.005l0.005,27.159l0.007,42.478v0.006c0.003,11.607,5.715,22.389,15.14,28.946   c0.812,0.565,1.642,1.11,2.509,1.611l23.377,13.491l-1.76-1.016L250.081,256.001z"/>
	<polygon style="fill:#464655;" points="256,296.886 482.437,296.886 482.442,323.911 482.437,296.747 482.433,269.63    250.081,257.25 89.335,421.248 92.812,423.255 111.016,433.76 110.932,433.712  "/>
</g>
<g>
	<polygon style="fill:#FFE15A;" points="482.433,269.63 482.431,256.021 482.428,242.373 250.081,242.373 89.35,90.77    81.078,95.547 68.875,102.595 231.524,256.001 68.854,409.428 70.615,410.444 89.335,421.248 250.081,269.63  "/>
	<path style="fill:#FFE15A;" d="M110.895,199.927c-28.545-8.98-50.095,11.762-55.02,22.438   c-4.171,9.045-11.919,50.019,26.705,56.553c38.623,6.534,38.188-29.912,38.188-29.912c-1.742,5.808-4.865,22.361-32.745,22.361   c-10.457,0-25.483-15.537-22.651-32.671c2.664-16.123,17.067-24.37,27.952-24.829c10.308-0.435,34.339,6.679,34.339,35.939   c0,32.889-33.896,36.591-33.896,36.591v19.858c29.506-2.893,46.202-19.236,50.622-45.416   C148.793,234.777,139.918,209.059,110.895,199.927z"/>
	<path style="fill:#FFE15A;" d="M79.289,248.695c-0.674,0.856-1.032,1.918-1.05,3.007l-0.084,5.341l-1.04,1.813   c-0.375,0.655-0.152,1.491,0.5,1.871c0.66,0.386,1.507,0.16,1.887-0.505l1.066-1.865l4.265-1.545   c1.292-0.467,2.331-1.44,2.893-2.693c1.115-2.488,3.508-7.057,7.385-11.823c3.878,4.766,6.272,9.335,7.385,11.823   c0.561,1.253,1.6,2.224,2.892,2.693l4.266,1.545l1.066,1.865c0.379,0.665,1.227,0.891,1.887,0.505   c0.652-0.381,0.875-1.216,0.5-1.871l-1.04-1.813l-0.084-5.341c-0.017-1.088-0.376-2.152-1.05-3.007   c-3.573-4.538-7.374-8.107-11.119-11.263c2.993-2.813,6.377-5.498,10.638-7.572c0.986-0.48,1.502-1.587,1.247-2.653   c-0.347-1.456-1.939-2.221-3.297-1.587c-2.857,1.331-7.768,3.953-13.293,7.98c-5.526-4.028-10.436-6.648-13.293-7.98   c-1.357-0.632-2.949,0.132-3.297,1.587c-0.254,1.067,0.261,2.173,1.246,2.653c4.263,2.073,7.647,4.76,10.64,7.572   C86.663,240.59,82.861,244.158,79.289,248.695z"/>
</g>
<g>
</g>
<g>
</g>
<g>
</g>
<g>
</g>
<g>
</g>
<g>
</g>
<g>
</g>
<g>
</g>
<g>
</g>
<g>
</g>
<g>
</g>
<g>
</g>
<g>
</g>
<g>
</g>
<g>
</g>
</svg>
