<?xml version="1.0" encoding="iso-8859-1"?>
<!-- Generator: Adobe Illustrator 19.0.0, SVG Export Plug-In . SVG Version: 6.00 Build 0)  -->
<svg xmlns="http://www.w3.org/2000/svg" xmlns:xlink="http://www.w3.org/1999/xlink" version="1.1" id="Layer_1" x="0px" y="0px" viewBox="0 0 512.002 512.002" style="enable-background:new 0 0 512.002 512.002;" xml:space="preserve">
<path style="fill:#FF4B55;" d="M482.436,296.745l-0.014-81.491l-0.005-27.164l-0.008-42.485  c-0.001-11.607-5.715-22.388-15.14-28.946c-0.812-0.565-1.642-1.11-2.509-1.611l-23.711-13.684l-22.198-12.81l-17.87-10.313  l-94.999-54.826l-19.995-11.539l-12.39-7.151c-10.918-6.301-24.37-6.298-35.287,0.006l-12.307,7.108L206.01,23.387l-94.987,54.861  L81.077,95.545l-22.191,12.818l-11.697,6.756c-0.841,0.486-1.648,1.015-2.439,1.561c-9.465,6.556-15.201,17.365-15.2,29.001  l0.007,42.41l0.005,27.164l0.014,81.491l0.005,27.164l0.007,42.486c0.002,11.607,5.715,22.388,15.14,28.946  c0.812,0.565,1.642,1.11,2.509,1.611l23.377,13.491l22.198,12.812l18.204,10.506l94.999,54.826l19.995,11.539l12.39,7.151  c10.92,6.301,24.37,6.298,35.287-0.006l12.307-7.108l19.995-11.548l94.989-54.863l27.325-15.782l22.191-12.818l14.319-8.27  c0.841-0.486,1.648-1.015,2.439-1.561c9.465-6.556,15.201-17.365,15.2-29.001l-0.008-42.41L482.436,296.745z"/>
<path style="fill:#41479B;" d="M255.999,254.749V0c-6.107-0.006-12.214,1.568-17.685,4.729l-12.307,7.108l-19.995,11.548  l-94.989,54.864L81.077,95.545l-22.191,12.818l-11.697,6.756c-0.841,0.486-1.648,1.015-2.439,1.561  c-9.465,6.556-15.201,17.365-15.2,29.001l0.007,42.41l0.005,27.164L29.569,256H254.75  C255.439,255.999,255.999,255.439,255.999,254.749z"/>
<g>
	<path style="fill:#F5F5F5;" d="M148.856,188.788l-4.441,13.315l-14.036,0.109c-1.817,0.014-2.571,2.333-1.108,3.413l11.292,8.338   l-4.234,13.383c-0.549,1.732,1.425,3.165,2.903,2.109l11.419-8.163l11.419,8.162c1.478,1.057,3.452-0.376,2.903-2.109   l-4.234-13.383l11.292-8.339c1.462-1.08,0.709-3.399-1.108-3.413l-14.036-0.109l-4.441-13.315   C151.869,187.064,149.43,187.064,148.856,188.788z"/>
	<path style="fill:#F5F5F5;" d="M149.198,84.963l-3.593,10.772l-11.354,0.087c-1.47,0.011-2.079,1.887-0.897,2.76l9.134,6.746   l-3.425,10.826c-0.444,1.402,1.152,2.561,2.348,1.706l9.237-6.603l9.237,6.603c1.196,0.855,2.792-0.305,2.348-1.706l-3.425-10.826   l9.134-6.746c1.182-0.874,0.574-2.749-0.897-2.76l-11.354-0.087l-3.593-10.772C151.636,83.568,149.663,83.568,149.198,84.963z"/>
	<path style="fill:#F5F5F5;" d="M206.636,117.007l-3.593,10.771l-11.354,0.087c-1.47,0.011-2.079,1.887-0.897,2.76l9.134,6.746   l-3.425,10.826c-0.444,1.402,1.152,2.561,2.348,1.706l9.237-6.603l9.237,6.603c1.196,0.855,2.792-0.305,2.348-1.706l-3.425-10.826   l9.134-6.746c1.182-0.874,0.572-2.749-0.897-2.76l-11.354-0.087l-3.593-10.771C209.074,115.612,207.102,115.612,206.636,117.007z"/>
	<path style="fill:#F5F5F5;" d="M92.97,129.705l-3.593,10.771l-11.354,0.087c-1.47,0.011-2.079,1.887-0.897,2.76l9.134,6.746   l-3.425,10.826c-0.444,1.401,1.152,2.561,2.348,1.706l9.237-6.603l9.237,6.603c1.196,0.855,2.792-0.305,2.348-1.706l-3.425-10.826   l9.134-6.746c1.182-0.874,0.574-2.749-0.897-2.76l-11.354-0.087l-3.593-10.771C95.406,128.31,93.435,128.31,92.97,129.705z"/>
	<path style="fill:#F5F5F5;" d="M181.879,164.869l-2.017,6.047l-6.373,0.05c-0.825,0.006-1.167,1.06-0.504,1.55l5.127,3.786   l-1.922,6.077c-0.249,0.787,0.647,1.438,1.318,0.958l5.186-3.706l5.186,3.706c0.671,0.48,1.567-0.171,1.318-0.958l-1.923-6.077   l5.127-3.786c0.664-0.49,0.321-1.543-0.504-1.55l-6.375-0.05l-2.017-6.047C183.247,164.085,182.14,164.085,181.879,164.869z"/>
</g>
<g>
</g>
<g>
</g>
<g>
</g>
<g>
</g>
<g>
</g>
<g>
</g>
<g>
</g>
<g>
</g>
<g>
</g>
<g>
</g>
<g>
</g>
<g>
</g>
<g>
</g>
<g>
</g>
<g>
</g>
</svg>
