<?xml version="1.0" encoding="iso-8859-1"?>
<!-- Generator: Adobe Illustrator 19.0.0, SVG Export Plug-In . SVG Version: 6.00 Build 0)  -->
<svg xmlns="http://www.w3.org/2000/svg" xmlns:xlink="http://www.w3.org/1999/xlink" version="1.1" id="Layer_1" x="0px" y="0px" viewBox="0 0 512 512" style="enable-background:new 0 0 512 512;" xml:space="preserve">
<path style="fill:#73AF00;" d="M482.435,296.744l-0.014-81.491l-0.005-27.164l-0.008-42.485  c-0.003-11.607-5.715-22.388-15.14-28.946c-0.812-0.565-1.642-1.11-2.509-1.611l-23.711-13.684l-22.198-12.81L400.98,78.24  l-94.999-54.826l-19.995-11.539l-12.39-7.151c-10.918-6.301-24.37-6.298-35.287,0.006l-12.307,7.108l-19.995,11.548L111.02,78.247  L81.076,95.544l-22.191,12.818l-11.697,6.756c-0.841,0.486-1.648,1.015-2.439,1.561c-9.465,6.556-15.202,17.365-15.2,29.001  l0.007,42.41l0.005,27.164l0.014,81.491l0.005,27.164l0.007,42.486c0.003,11.607,5.715,22.388,15.14,28.946  c0.812,0.565,1.642,1.11,2.509,1.611l23.377,13.491l22.198,12.811l18.204,10.506l94.999,54.826l19.995,11.539l12.39,7.151  c10.92,6.301,24.37,6.298,35.287-0.006l12.307-7.108l19.995-11.548l94.989-54.863l27.325-15.782l22.191-12.818l14.319-8.27  c0.841-0.486,1.648-1.015,2.439-1.561c9.465-6.556,15.201-17.365,15.2-29.001l-0.008-42.41L482.435,296.744z"/>
<path style="fill:#FF9B55;" d="M482.435,306.535l-0.014-77.409l-0.005-25.803l-0.001-10.277h-59.38l-12.08,107.94l12.08,120.021  l5.262-3.039l22.191-12.818l14.319-8.27c0.841-0.486,1.648-1.013,2.439-1.562c9.455-6.548,15.188-17.343,15.198-28.965  l-0.006-34.014L482.435,306.535z"/>
<polygon style="fill:#464655;" points="361.386,193.045 347.223,318.481 361.386,456.613 400.974,433.748 423.036,421.006   423.036,193.045 "/>
<polygon style="fill:#FF4B55;" points="361.386,456.613 361.386,193.045 299.736,193.045 299.736,492.219 299.744,492.216   305.985,488.612 "/>
<path style="fill:#FF9B55;" d="M461.035,133.275c0.194-0.391,0.101-0.864-0.226-1.152c-0.329-0.29-0.81-0.32-1.172-0.08  c-1.803,1.197-3.623,2.284-5.425,3.272c5.805-4.797,6.618-8.964,6.671-9.267c0.065-0.381-0.104-0.765-0.429-0.975  c-0.326-0.21-0.745-0.205-1.065,0.013c-6.271,4.253-12.547,7.289-17.958,9.425c7.268-4.592,10.146-9.275,10.322-9.572  c0.227-0.38,0.166-0.866-0.147-1.178c-0.314-0.314-0.8-0.371-1.18-0.144c-5.802,3.498-12.674,6.256-19.241,8.379  c0.872-1.345,1.493-2.858,0.936-3.706c-0.519-0.787-1.463-0.787-2.814,0.004c-2.733,1.602-23.449,6.882-31.475,8.85  c-8.181-1.478-14.961,0.619-17.073,1.393c-0.562-0.67-0.82-1.318-0.928-1.826c-0.176-0.825-0.049-1.665,0.341-2.246  c0.636-0.947,1.952-1.037,3.112-1.117c0.505-0.035,0.955-0.065,1.351-0.165c0.252,0.074,0.562,0.22,0.556,0.334  c-0.024,0.44,0.255,0.839,0.675,0.971c0.421,0.131,0.875-0.037,1.108-0.411c0.059-0.094,1.423-2.329,0.366-4.231  c-0.769-1.383-2.533-2.111-5.247-2.163c-1.113-0.777-5.321-3.307-10.506-1.352c-5.251,1.981-7.582,7.374-8.353,9.654  c-4.086-0.567-22.849-3.432-33.048-9.419c-0.496-0.226-2.188-0.889-3.133,0.01c-0.581,0.551-0.649,1.406-0.204,2.542  c0.236,0.602,0.599,1.191,1.08,1.768c-5.46-2.506-12.82-6.007-18.385-9.119c-0.87-0.404-2.451-0.951-3.264-0.096  c-0.511,0.537-0.504,1.318,0.024,2.322c0.111,0.211,0.221,0.449,0.341,0.709c0.541,1.167,1.28,2.758,3.084,4.595  c-1.348-0.736-2.564-1.495-3.539-2.252c-4.884-3.799-5.545-4.171-6.419-3.582c-0.754,0.507-0.51,1.365-0.252,2.272l0.067,0.24  c0.212,0.755,0.559,1.971,1.507,3.438c-0.757-0.515-1.407-0.62-1.919-0.264c-0.306,0.21-0.765,0.737-0.411,1.894  c0.849,2.769,6.719,10.059,17.883,12.207c-1.122,0.164-2.303,0.285-3.443,0.307c-0.432,0.009-0.807,0.305-0.916,0.725  c-0.107,0.42,0.077,0.86,0.454,1.076c0.204,0.116,4.15,2.326,11.386,2.139c-1.082,0.272-2.311,0.484-3.668,0.564  c-0.422,0.025-0.779,0.321-0.88,0.732c-0.101,0.41,0.076,0.839,0.439,1.057c0.215,0.13,4.414,2.599,10.915,2.236l-0.566,0.349  c-0.326,0.2-0.502,0.575-0.451,0.953c0.052,0.379,0.324,0.691,0.691,0.796c0.202,0.057,3.866,1.077,8.431,0.596l-0.802,0.571  c-0.322,0.23-0.472,0.632-0.379,1.016c0.094,0.384,0.412,0.672,0.804,0.726c0.082,0.012,0.674,0.089,1.62,0.089  c0.622,0,1.402-0.035,2.288-0.142c-0.02,0.23,0.006,0.46,0.082,0.687c0.457,1.375,2.482,1.708,3.155,1.717  c0.041,0.001,0.081,0.001,0.122,0.001c0.815,0,1.676-0.115,2.556-0.29c1.407,1.315,3.976,1.195,6.468,0.615  c-0.147,0.224-0.26,0.449-0.33,0.67c-0.144,0.456-0.035,0.921,0.291,1.246c0.317,0.315,1.082,1.075,8.049-0.885  c-0.029,0.023-0.057,0.045-0.086,0.067c-0.926,0.717-0.867,1.458-0.749,1.836c0.426,1.371,3.5,2.247,9.078,2.622  c0.124,3.102-0.739,6.471-0.747,6.507c-0.096,0.371,0.036,0.765,0.337,1.002c0.301,0.236,0.715,0.272,1.053,0.091  c0.322-0.174,0.644-0.399,0.946-0.64l-0.026,1.025c-0.01,0.372,0.195,0.716,0.526,0.885c0.139,0.07,0.289,0.105,0.437,0.105  c0.038,0,0.074-0.014,0.111-0.019c-0.104,0.874-0.459,1.917-1.58,2.163c-0.509,0.111-1.047,0.166-1.568,0.22  c-2.374,0.244-5.065,0.519-5.49,5.96c-0.032,0.409,0.197,0.792,0.572,0.958c0.374,0.164,0.811,0.076,1.093-0.221l1.033-1.098  c0.609,0.15,1.578,0.302,2.614,0.135c-0.261,1.258-0.184,2.808,1.076,4.123c0.274,0.284,0.691,0.374,1.057,0.227  c0.366-0.147,0.605-0.501,0.605-0.895v-0.697c0.599-0.14,1.395-0.43,2.146-1.03c0.44,0.951,1.281,2.066,2.882,3.008  c0.152,0.089,0.321,0.134,0.49,0.134c0.221,0,0.44-0.075,0.617-0.222c0.312-0.26,0.429-0.69,0.29-1.072l-0.504-1.386  c0.351-0.347,0.809-0.842,1.207-1.372c0.197,0.287,0.529,0.451,0.882,0.417c0.367-0.035,0.682-0.276,0.812-0.622l0.355-0.945  c0.21-0.057,0.41-0.127,0.6-0.205c0.237,2.091,1.846,3.83,1.942,3.933c0.185,0.196,0.44,0.304,0.704,0.304  c0.079,0,0.157-0.01,0.235-0.029c0.34-0.085,0.606-0.347,0.697-0.686l0.537-2.006c1.425-0.722,1.563-2.029,1.651-2.843  c0.017-0.16,0.041-0.381,0.046-0.494c0.556,0.274,1.737,1.6,2.627,2.974c0.177,0.274,0.48,0.44,0.806,0.441  c0.331-0.024,0.63-0.161,0.81-0.432c0,0,0.754-1.141,1.121-1.807c1.556-2.824-0.802-4.515-1.934-5.327  c-0.277-0.199-0.659-0.472-0.72-0.549c-0.212-0.516-0.137-0.998,0.001-1.373c0.945,0.651,2.018,1.2,3.207,1.48  c0.074,0.018,0.147,0.026,0.221,0.026c0.31,0,0.607-0.15,0.791-0.412c0.226-0.322,0.232-0.752,0.016-1.082  c-0.021-0.034-1.796-2.763-2.939-6.121c1.847,1.083,4.348,2.393,5.643,2.393c0.89,0,1.23-0.554,1.335-0.791  c0.061-0.14,0.172-0.392,0.085-0.865c1.717,0.928,3.653,1.646,5.125,1.266c0.435-0.112,1.453-0.375,1.608-1.288  c0.079-0.464-0.077-0.837-0.419-1.206c1.595,0.387,3.313,0.58,4.999,0.356c1.406-0.185,1.821-0.867,1.919-1.407  c0.064-0.345,0.177-1.008-1.077-2.264c2.422-0.132,4.585-0.662,4.761-2.123c0.016-0.131-0.009-0.25-0.02-0.374  c7.783-0.849,13.705-5.716,13.967-5.936c0.076-0.064,0.126-0.142,0.177-0.221c4.712-0.589,10.065-1.653,14.396-3.6  c8.177-3.676,12.318-8.639,11.577-10.44c-0.215-0.524-0.833-0.904-1.596-0.619c-0.214,0.08-0.647,0.255-1.215,0.486  C458.959,137.285,460.855,133.639,461.035,133.275z"/>
<path style="fill:#464655;" d="M461.035,133.275c0.195-0.391,0.101-0.864-0.226-1.152c-0.329-0.29-0.81-0.32-1.172-0.08  c-1.803,1.198-3.623,2.286-5.426,3.272c5.805-4.797,6.619-8.964,6.671-9.267c0.066-0.381-0.104-0.765-0.429-0.975  c-0.326-0.211-0.745-0.206-1.065,0.013c-6.271,4.253-12.547,7.289-17.958,9.425c7.268-4.591,10.146-9.275,10.323-9.572  c0.227-0.381,0.166-0.866-0.147-1.18c-0.314-0.314-0.8-0.371-1.18-0.142c-5.802,3.498-12.674,6.256-19.241,8.379  c0.871-1.346,1.493-2.858,0.935-3.706c-0.519-0.787-1.463-0.787-2.814,0.004c-2.733,1.602-23.449,6.882-31.475,8.85  c-8.182-1.478-14.961,0.619-17.073,1.393c-0.562-0.67-0.82-1.318-0.929-1.824c-0.176-0.825-0.047-1.665,0.341-2.246  c0.637-0.947,1.952-1.037,3.113-1.117c0.504-0.034,0.955-0.065,1.35-0.165c0.252,0.074,0.562,0.22,0.557,0.332  c-0.024,0.44,0.254,0.839,0.675,0.971c0.421,0.131,0.875-0.037,1.108-0.411c0.059-0.094,1.423-2.329,0.366-4.231  c-0.77-1.383-2.533-2.111-5.247-2.162c-1.115-0.777-5.321-3.307-10.506-1.352c-5.251,1.981-7.582,7.374-8.353,9.652  c-4.086-0.567-22.849-3.43-33.05-9.419c-0.495-0.225-2.188-0.889-3.133,0.011c-0.581,0.551-0.649,1.406-0.204,2.542  c0.236,0.602,0.599,1.191,1.08,1.768c-5.46-2.506-12.82-6.007-18.385-9.119c-0.87-0.404-2.449-0.951-3.264-0.097  c-0.511,0.537-0.504,1.318,0.024,2.322c0.111,0.211,0.22,0.449,0.34,0.709c0.541,1.167,1.28,2.758,3.084,4.595  c-1.348-0.736-2.564-1.495-3.539-2.252c-4.884-3.799-5.546-4.171-6.419-3.583c-0.754,0.507-0.51,1.365-0.252,2.273l0.067,0.24  c0.211,0.755,0.559,1.971,1.507,3.438c-0.756-0.515-1.407-0.62-1.919-0.262c-0.306,0.21-0.765,0.737-0.41,1.894  c0.849,2.769,6.719,10.058,17.883,12.207c-1.123,0.165-2.302,0.285-3.443,0.309c-0.434,0.009-0.807,0.305-0.916,0.725  c-0.107,0.42,0.077,0.86,0.454,1.076c0.204,0.117,4.15,2.326,11.386,2.138c-1.082,0.272-2.311,0.484-3.668,0.565  c-0.422,0.025-0.779,0.321-0.88,0.732c-0.101,0.41,0.076,0.839,0.439,1.056c0.215,0.13,4.414,2.601,10.915,2.236l-0.566,0.349  c-0.326,0.2-0.502,0.575-0.451,0.953c0.052,0.379,0.324,0.692,0.691,0.797c0.202,0.057,3.868,1.077,8.431,0.596l-0.804,0.571  c-0.322,0.23-0.472,0.632-0.377,1.016c0.094,0.384,0.412,0.672,0.804,0.726c0.082,0.012,0.674,0.089,1.62,0.089  c0.622,0,1.402-0.035,2.288-0.142c-0.02,0.23,0.008,0.46,0.082,0.687c0.456,1.375,2.481,1.707,3.155,1.716c0.041,0,0.081,0,0.122,0  c0.815,0,1.676-0.114,2.556-0.29c1.407,1.315,3.976,1.195,6.468,0.615c-0.147,0.224-0.26,0.447-0.331,0.671  c-0.144,0.456-0.034,0.921,0.291,1.246c0.317,0.315,1.082,1.073,8.049-0.886c-0.029,0.023-0.059,0.045-0.087,0.067  c-0.926,0.717-0.867,1.458-0.749,1.836c0.427,1.37,3.5,2.247,9.078,2.622c0.124,3.1-0.739,6.469-0.747,6.507  c-0.097,0.372,0.036,0.765,0.337,1.002c0.301,0.236,0.715,0.272,1.053,0.091c0.322-0.174,0.644-0.399,0.947-0.64l-0.026,1.025  c-0.01,0.372,0.195,0.716,0.527,0.886c0.139,0.07,0.287,0.105,0.437,0.105c0.037,0,0.074-0.014,0.111-0.019  c-0.104,0.874-0.459,1.917-1.58,2.162c-0.509,0.111-1.047,0.166-1.568,0.22c-2.374,0.244-5.065,0.519-5.491,5.961  c-0.031,0.409,0.197,0.792,0.572,0.958c0.372,0.164,0.811,0.076,1.093-0.221l1.033-1.098c0.609,0.15,1.578,0.302,2.614,0.135  c-0.261,1.258-0.184,2.808,1.076,4.123c0.274,0.284,0.691,0.374,1.057,0.227c0.366-0.147,0.605-0.501,0.605-0.895v-0.697  c0.599-0.139,1.395-0.43,2.146-1.03c0.44,0.951,1.281,2.066,2.882,3.008c0.151,0.089,0.321,0.134,0.49,0.134  c0.22,0,0.44-0.076,0.617-0.224c0.314-0.26,0.429-0.689,0.29-1.072l-0.504-1.386c0.351-0.346,0.809-0.842,1.208-1.372  c0.197,0.287,0.529,0.451,0.882,0.417c0.367-0.035,0.682-0.276,0.812-0.622l0.355-0.945c0.21-0.057,0.41-0.127,0.6-0.205  c0.237,2.091,1.846,3.83,1.942,3.933c0.185,0.197,0.44,0.304,0.702,0.304c0.079,0,0.157-0.009,0.235-0.029  c0.34-0.085,0.606-0.347,0.697-0.686l0.537-2.006c1.425-0.722,1.563-2.029,1.651-2.843c0.017-0.16,0.041-0.381,0.046-0.494  c0.556,0.274,1.736,1.6,2.627,2.974c0.177,0.274,0.48,0.44,0.806,0.441c0.331-0.024,0.63-0.161,0.81-0.434  c0,0,0.754-1.141,1.121-1.807c1.556-2.824-0.802-4.515-1.934-5.327c-0.277-0.199-0.659-0.472-0.72-0.549  c-0.212-0.517-0.137-0.998,0.001-1.373c0.945,0.651,2.018,1.2,3.207,1.48c0.074,0.018,0.147,0.026,0.221,0.026  c0.31,0,0.607-0.15,0.79-0.412c0.227-0.324,0.234-0.752,0.016-1.082c-0.021-0.034-1.796-2.763-2.939-6.121  c1.848,1.082,4.348,2.393,5.645,2.393c0.89,0,1.23-0.554,1.335-0.792c0.062-0.139,0.172-0.392,0.085-0.865  c1.717,0.928,3.653,1.646,5.125,1.266c0.435-0.112,1.453-0.376,1.608-1.288c0.079-0.464-0.079-0.836-0.419-1.206  c1.593,0.387,3.313,0.58,4.997,0.356c1.406-0.185,1.821-0.867,1.921-1.407c0.064-0.345,0.177-1.008-1.077-2.264  c2.421-0.132,4.584-0.662,4.761-2.123c0.016-0.131-0.009-0.25-0.02-0.374c7.783-0.849,13.705-5.716,13.966-5.935  c0.076-0.064,0.127-0.144,0.177-0.222c4.712-0.587,10.065-1.652,14.396-3.6c8.177-3.676,12.318-8.639,11.577-10.441  c-0.216-0.524-0.833-0.904-1.596-0.619c-0.214,0.081-0.647,0.255-1.215,0.486C458.959,137.284,460.855,133.639,461.035,133.275z   M446.821,127.796c-3.554,3.477-10.251,8.478-21.293,11.379c-0.096,0.026-0.179,0.075-0.259,0.125  c-2.323-0.181-5.257-0.605-7.832-1.566C425.599,135.884,437.065,132.696,446.821,127.796z M397.683,139.077  c0.136,0.025,0.274,0.021,0.407-0.011c1.148-0.281,27.731-6.799,31.998-9.001c-0.496,0.978-1.45,2.348-2.228,2.919  c-0.023,0.016-0.033,0.04-0.052,0.057c-11.446,3.398-21.159,4.83-21.319,4.852c-0.527,0.076-0.894,0.565-0.819,1.092  c0.076,0.527,0.564,0.893,1.092,0.819c0.089-0.012,3.037-0.447,7.567-1.392c2.344,1.343,5.227,2.086,7.852,2.487  c-3.92,0.331-7.549,0.142-7.609,0.137c-0.457-0.016-0.901,0.301-0.997,0.77c-0.096,0.469,0.165,0.937,0.614,1.101l3.65,1.337  c-5.132,1.093-10.081,0.067-10.138,0.055c-0.396-0.087-0.8,0.084-1.015,0.424c-0.216,0.339-0.201,0.776,0.04,1.098  c0.697,0.93,2.663,1.907,4.379,2.627c-7.054,1.336-11.912-2.989-12.139-3.197c-0.392-0.359-1-0.332-1.36,0.057  c-0.36,0.39-0.339,0.997,0.047,1.358c5.573,5.216,15.962,7.438,20.623,8.203c-0.69,0.409-1.523,0.792-2.396,0.948  c-3.579,0.636-11.839-3.294-17.653-6.473l-4.655-2.687c-0.456-0.264-1.041-0.111-1.311,0.341c-0.27,0.454-0.126,1.04,0.322,1.317  c0.224,0.136,2.048,1.255,4.642,2.679l11.331,6.538c-3.475,0.43-7.143-0.349-7.189-0.359c-0.027-0.006-0.055,0.002-0.082-0.001  c-2.652-1.864-6.932-5.005-13.358-10.332c-1.035-3.691-2.972-5.314-5.399-6.853C385.272,139.148,391.055,137.834,397.683,139.077z   M404.686,159.54c-0.006,0.002-0.01,0.006-0.016,0.009c0,0-0.009-0.007-0.012-0.01C404.668,159.539,404.678,159.54,404.686,159.54z   M341.827,155.163l2.208-1.571c0.392-0.279,0.52-0.805,0.296-1.232s-0.727-0.622-1.181-0.464c-3.647,1.302-7.338,1.17-9.65,0.874  l2.556-1.573c0.407-0.25,0.57-0.761,0.381-1.201c-0.187-0.439-0.667-0.675-1.132-0.554c-4.652,1.221-8.526,0.714-11.063,0.015  c4.031-0.942,6.373-2.725,6.496-2.82c0.352-0.274,0.472-0.752,0.289-1.158c-0.184-0.406-0.62-0.63-1.06-0.552  c-5.315,1.001-9.419,0.671-12.174,0.101c2.848-0.479,5.11-1.158,5.251-1.201c0.016-0.005,0.027-0.017,0.044-0.024  c0.065-0.024,0.12-0.06,0.179-0.096c0.049-0.031,0.1-0.056,0.142-0.095c0.046-0.042,0.08-0.092,0.117-0.144  c0.036-0.049,0.075-0.094,0.101-0.149c0.025-0.052,0.035-0.11,0.051-0.166c0.018-0.065,0.038-0.127,0.041-0.196  c0-0.016,0.009-0.029,0.009-0.045c0-0.051-0.02-0.095-0.027-0.144c-0.006-0.049,0.001-0.096-0.014-0.145  c-0.005-0.015-0.016-0.026-0.021-0.04c-0.024-0.065-0.059-0.119-0.095-0.176c-0.031-0.051-0.057-0.102-0.096-0.146  c-0.041-0.046-0.091-0.077-0.14-0.114c-0.05-0.037-0.096-0.077-0.152-0.105c-0.051-0.025-0.109-0.035-0.165-0.05  c-0.065-0.019-0.129-0.039-0.197-0.042c-0.016-0.001-0.029-0.01-0.046-0.01c-12.397-0.116-19.238-6.637-21.428-9.965  c3.863,2.691,8.936,4.975,12.633,6.287h0.004c4.915,1.898,11.041,3.108,11.299,3.158c0.522,0.101,1.03-0.237,1.132-0.761  s-0.239-1.031-0.761-1.132c-0.062-0.012-6.241-1.231-11.003-3.074c-10.271-3.975-12.352-8.28-13.044-10.453  c1.11,0.79,2.602,1.949,3.4,2.571c6.011,4.676,20.001,9.098,20.593,9.284c0.507,0.16,1.041-0.119,1.206-0.62  c0.164-0.502-0.106-1.043-0.606-1.213c-14.464-4.927-16.635-9.611-17.803-12.128c-0.101-0.219-0.196-0.422-0.29-0.612  c0.195,0.06,0.397,0.135,0.562,0.209c8.019,4.488,19.802,9.8,24.257,11.772c-0.801,0.385-1.642,0.709-2.198,0.74  c-0.371,0.021-0.699,0.254-0.84,0.599c-0.141,0.344-0.071,0.739,0.179,1.015c0.059,0.065,1.005,1.078,2.84,1.475l-1.303,0.85  c-0.306,0.2-0.474,0.555-0.431,0.919s0.285,0.671,0.63,0.797c0.09,0.032,1.578,0.556,3.547,0.764l-1.085,0.791  c-0.275,0.201-0.424,0.532-0.391,0.872c0.033,0.339,0.242,0.636,0.55,0.781c0.126,0.059,1.61,0.732,3.99,0.62l-0.081,0.057  c-0.314,0.22-0.467,0.606-0.392,0.981s0.367,0.671,0.742,0.752c0.147,0.031,1.969,0.406,4.585,0.109l-0.594,0.396  c-0.316,0.21-0.48,0.587-0.416,0.962c0.062,0.375,0.339,0.677,0.706,0.775c0.281,0.072,4.504,1.123,10.046-0.635  c-1.162,0.764-2.246,1.32-3.14,1.521c-0.409,0.092-0.711,0.437-0.75,0.855c-0.037,0.417,0.199,0.811,0.584,0.975  c0.025,0.011,0.121,0.047,0.246,0.092C346.985,154.278,343.958,154.96,341.827,155.163z M337.159,137.656  c-0.187-0.431-0.656-0.669-1.115-0.554c-1.117,0.272-2.022,0.245-2.719,0.097c1.145-0.509,2.121-1.116,2.294-1.226  c0.07-0.044,0.13-0.097,0.185-0.156c1.717,0.691,3.666,1.355,5.853,1.988l-3.704,2.703c-1.241,0.131-2.471,0.014-3.452-0.162  l2.299-1.5C337.194,138.59,337.345,138.087,337.159,137.656z M345.829,157.513c-0.366-0.004-1.043-0.191-1.295-0.372  c0.062-0.101,0.224-0.3,0.581-0.584c2.278-0.584,4.895-1.691,7.402-3.736c2.631,0.191,6.768-0.435,10.983-4.671  c0.155,0.282,0.319,0.567,0.509,0.859C363.551,149.356,352.658,157.575,345.829,157.513z M353.357,150.924  c3.12-1.878,6.612-5.145,8.79-7.327c0.034,0.799,0.189,1.715,0.534,2.721c-0.075,0.045-0.152,0.085-0.216,0.151  C359.006,150.115,355.642,150.92,353.357,150.924z M371.485,163.415c-3.177-0.217-6.136-0.711-7.216-1.188  c2.628-2.052,3.382-2.958,3.462-3.057c0.266-0.332,0.282-0.8,0.04-1.151c-0.244-0.351-0.689-0.502-1.091-0.37  c-3.464,1.12-7.509,2.212-9.507,2.492c0.917-0.825,2.549-1.864,4.024-2.602c0.472-0.236,0.667-0.81,0.436-1.283  c-0.231-0.476-0.801-0.676-1.28-0.452c-2.627,1.235-6.386,2.481-8.74,2.462c6.404-2.306,12.935-7.239,13.556-7.715  c0.492,0.589,1.036,1.183,1.691,1.792C372.625,157.701,371.994,161.905,371.485,163.415z M373.075,169.3  c-0.052,0.064-0.124,0.147-0.211,0.245c0.21-1.428,0.36-3.22,0.221-4.925c0.531-1.167,1.606-4.626-1.177-9.214  c1.834,0.266,6.046,1.15,7.869,3.8c0.241,0.351,0.481,0.741,0.719,1.146l-0.003,0.004c-0.09,0.214-1.915,4.632-1.332,10.158  c-0.426-0.502-0.835-1.12-1.108-1.842c-0.129-0.339-0.436-0.577-0.797-0.616c-0.357-0.039-0.712,0.126-0.911,0.429  c-0.406,0.617-0.996,1.463-1.581,2.236l0.02-0.78c0.011-0.411-0.24-0.784-0.626-0.928  C373.775,168.866,373.339,168.981,373.075,169.3z M379.297,181.314c-0.192,0.575-1.221,1.686-1.891,2.289  c-0.024,0.021-0.046,0.044-0.067,0.067c-0.504-0.834-0.486-1.493-0.485-1.53c0.034-0.452-0.251-0.865-0.684-0.996  c-0.435-0.131-0.9,0.059-1.12,0.452c-0.882,1.576-2.433,1.738-2.716,1.756c0.049-1.163,0.721-2.219,0.764-2.284  c0.267-0.406,0.19-0.947-0.179-1.262c-0.367-0.316-0.913-0.309-1.275,0.018c-1.417,1.282-3.667,0.452-3.687,0.446  c-0.092-0.036-0.189-0.056-0.284-0.062c0.624-1.356,1.713-1.467,3.219-1.621c0.575-0.06,1.17-0.12,1.785-0.255  c2.969-0.65,3.32-3.933,3.09-5.578c-0.006-0.046-0.031-0.082-0.044-0.125c0.465-0.572,0.928-1.198,1.313-1.738  c0.189,0.287,0.39,0.547,0.594,0.794c0.006,0.705,0.045,2.874,0.29,4.018c0.194,0.907,0.857,1.518,1.493,1.911  c-0.105,0.205-0.194,0.421-0.251,0.656c-0.227,0.933-0.035,1.962,0.254,2.843C379.372,181.174,379.323,181.236,379.297,181.314z   M379.806,175.295c-0.092-0.43-0.151-1.107-0.189-1.788c0.27,0.186,0.46,0.297,0.486,0.312c0.336,0.185,0.751,0.156,1.057-0.077  c0.305-0.234,0.442-0.627,0.349-1c-1.018-4.076-0.336-7.89,0.229-9.98c1.662,3.651,2.854,8.159,2.441,11.131  c-0.064,0.455,0.204,0.891,0.636,1.043c0.09,0.031,0.182,0.041,0.275,0.045c-0.01,0.101-0.02,0.207-0.033,0.302  c-0.976-0.03-2.586,0.12-4.144,0.931C380.467,176.027,379.889,175.686,379.806,175.295z M392.515,180.283  c-0.076,0.139-0.171,0.3-0.272,0.466c-1.151-1.526-2.733-3.094-4.088-2.583c-1.091,0.415-1.203,1.466-1.277,2.162  c-0.089,0.84-0.152,1.19-0.854,1.43c-0.304,0.104-0.536,0.352-0.62,0.662l-0.107,0.401c-0.367-0.81-0.564-1.788-0.015-2.622  c0.281-0.427,0.177-0.997-0.231-1.303c-0.411-0.305-0.99-0.236-1.318,0.157c-0.009,0.01-0.884,1.038-2.154,1.22  c-0.131,0.019-0.256,0.064-0.366,0.131c-0.185-0.59-0.291-1.207-0.175-1.685c0.07-0.285,0.21-0.479,0.456-0.627  c1.933-1.17,4.188-0.837,4.208-0.834c0.509,0.085,0.978-0.237,1.093-0.731c0.052-0.22,0.466-2.102,0.164-3.679l1.248-2.097  c0.449,0.575,1.056,1.277,1.8,1.971c-0.41,0.751-0.811,1.966-0.24,3.35c0.229,0.557,0.762,0.94,1.38,1.381  C392.72,178.585,393.138,179.151,392.515,180.283z M388.962,168.483c-0.177-0.29-0.527-0.447-0.83-0.464  c-0.339,0.001-0.651,0.18-0.825,0.471l-1.255,2.107c-0.53-4.268-2.539-9.366-4.685-12.485c-2.788-4.056-9.682-4.825-10.983-4.82  c-0.632-0.769-1.338-1.552-2.211-2.363c-5.723-5.32-3.841-9.572-3.75-9.77c0.009-0.018,0.006-0.035,0.012-0.051  c0.026-0.062,0.036-0.125,0.049-0.189c0.011-0.06,0.026-0.116,0.026-0.176c0-0.061-0.014-0.119-0.025-0.177  c-0.013-0.061-0.021-0.122-0.044-0.18c-0.021-0.054-0.055-0.099-0.086-0.149c-0.036-0.057-0.071-0.114-0.119-0.162  c-0.013-0.014-0.018-0.031-0.033-0.044c-0.034-0.031-0.077-0.044-0.115-0.069c-0.039-0.026-0.067-0.062-0.111-0.085  c-0.017-0.009-0.037-0.007-0.054-0.015c-0.062-0.026-0.125-0.037-0.19-0.05c-0.06-0.011-0.117-0.026-0.176-0.026  c-0.061,0-0.119,0.012-0.177,0.025c-0.062,0.011-0.122,0.02-0.181,0.044c-0.054,0.021-0.101,0.055-0.15,0.086  c-0.057,0.036-0.114,0.071-0.164,0.119c-0.013,0.012-0.031,0.019-0.044,0.032l-0.001,0.001l0,0  c-6.548,7.153-13.403,8.004-16.953,7.855l4.119-2.747c0.809-0.452,1.626-0.991,2.438-1.63c0.409-0.321,0.49-0.905,0.185-1.325  c-0.304-0.421-0.886-0.524-1.317-0.236l-2.262,1.507c-2.789,1.547-5.485,1.964-7.368,2.022l2.146-1.503  c1.648-0.797,3.448-1.994,5.344-3.758c0.371-0.345,0.412-0.92,0.092-1.313c-0.317-0.394-0.886-0.474-1.305-0.184l-5.115,3.585  c-2.429,1.146-4.421,1.285-5.758,1.163l7.314-5.34c0.301-0.219,0.447-0.592,0.38-0.957c-0.069-0.366-0.341-0.659-0.701-0.755  c-11.924-3.173-14.791-6.414-15.437-8.064c-0.057-0.145-0.094-0.261-0.116-0.351c0.241,0.036,0.562,0.127,0.77,0.215  c11.684,6.866,33.572,9.616,34.497,9.73c0.477,0.047,0.92-0.24,1.047-0.7c0.33-1.188,2.238-7.214,7.424-9.17  c4.89-1.841,8.743,1.137,8.901,1.262c0.171,0.137,0.384,0.211,0.604,0.211c2.078,0,3.455,0.415,3.879,1.168  c0.135,0.241,0.175,0.519,0.16,0.795c-0.337-0.172-0.71-0.286-1.076-0.341c-0.166-0.026-0.335-0.006-0.491,0.055  c-0.19,0.074-0.67,0.106-1.092,0.135c-1.361,0.094-3.418,0.235-4.582,1.967c-0.686,1.021-0.915,2.379-0.627,3.724  c0.179,0.84,0.63,1.937,1.655,3.008c0.101,0.2,0.262,0.346,0.452,0.435c0.351,0.311,0.744,0.62,1.212,0.912  c2.277,1.423,3.949,2.738,4.836,5.96c0.006,0.114,0.038,0.221,0.082,0.326c0.362,1.455,0.581,3.274,0.63,5.642  c0.011,0.526,0.441,0.945,0.965,0.945c0,0,0.014,0,0.021,0c0.532-0.011,0.956-0.452,0.945-0.985  c-0.027-1.327-0.115-2.492-0.245-3.548c7.188,5.872,11.432,8.789,13.56,10.25c0.3,0.206,0.585,0.401,0.834,0.576  c-2.166,0.197-5.596-1.78-8.279-3.825c-0.882-0.796-1.715-1.453-2.167-1.8c-0.41-0.315-0.995-0.25-1.326,0.147  c-0.331,0.396-0.292,0.983,0.089,1.331c0.244,0.224,1.022,0.92,2.117,1.766c1.263,1.148,2.239,2.233,2.547,2.857  c-1.502-0.316-5.623-2.767-8.974-5.16c-0.414-0.296-0.982-0.22-1.306,0.171c-0.322,0.391-0.287,0.965,0.08,1.315  c2.313,2.196,3.738,4.203,4.644,8.503l0,0c0.516,2.453,1.516,4.78,2.371,6.467C390.434,170.868,388.981,168.514,388.962,168.483z   M410.972,165.806c-5.107,0.671-10.888-3.223-10.946-3.262c-0.412-0.281-0.971-0.202-1.287,0.182  c-0.319,0.384-0.292,0.946,0.06,1.297c1.673,1.673,3.379,2.809,4.624,3.638c0.18,0.121,0.375,0.25,0.561,0.377  c-1.857-0.092-5.082-2.186-6.863-3.643c-0.39-0.32-0.963-0.285-1.312,0.084c-0.347,0.367-0.352,0.941-0.013,1.313  c0.72,0.789,1.403,1.671,1.817,2.316c-1.41-0.516-3.789-1.869-5.508-2.969c-0.397-1.761-0.887-3.193-1.488-4.408  c5.606,3.339,6.549,2.213,6.904,1.787c0.206-0.247,0.436-0.672,0.367-1.298c0-0.004,0-0.006,0-0.006  c2.289,1.158,4.741,1.841,6.623,0.961c0.197-0.092,0.481-0.24,0.709-0.472c3.474,1.941,5.29,3.393,5.843,4.09  C411.035,165.797,411.005,165.801,410.972,165.806z M409.66,162.14c-1.065-0.724-2.429-1.556-4.225-2.529  c-0.037-0.02-0.077-0.02-0.116-0.035c0.316,0.012,0.64,0.021,0.971,0.021c0.927,0,1.904-0.062,2.873-0.205  c0.074,0.049,0.145,0.101,0.234,0.129c2.989,0.94,4.789,1.655,5.363,2.131C413.994,161.983,411.787,162.201,409.66,162.14z   M415.347,159.735c0,0-0.011,0.004-0.016,0.004c-0.776-0.452-1.879-0.896-3.283-1.38c0.05-0.101,0.089-0.21,0.1-0.327  c0.024-0.239-0.042-0.472-0.177-0.659c1.64,0.392,3.105,0.546,4.249,0.344c1.44-0.257,2.744-0.966,3.688-1.603h0.001  c0.968,0,3.72-0.034,7.244-0.325C424.607,157.362,420.268,159.52,415.347,159.735z M454.269,143.245  c-1.313,1.652-4.295,4.355-9.711,6.791c-7.397,3.325-18.319,3.989-22.871,4.118c-0.008-0.072-0.016-0.145-0.04-0.216  c-0.121-0.355-0.435-0.609-0.807-0.65c-0.085-0.009-4.974-0.577-10.407-2.216c3.259,0.309,6.332,0.46,9.21,0.46  c8.125,0,14.763-1.132,20.161-2.829c0.029-0.005,0.055,0.002,0.084-0.005c2.974-0.779,10.061-3.683,13.869-5.241  C453.935,143.382,454.107,143.312,454.269,143.245z M449.122,142.324c-6.278,3.886-17.227,8.039-34.548,7.111  c0.336-0.164,0.557-0.501,0.55-0.88c-0.009-0.406-0.27-0.765-0.655-0.895c-0.775-0.262-1.696-0.609-2.591-0.983  c2.652,0.077,6.102-0.17,9.382-1.433c0.375-0.145,0.62-0.506,0.617-0.909c-0.004-0.402-0.255-0.76-0.634-0.898l-1.261-0.461  c3.199-0.134,7.122-0.552,9.857-1.705c0.431-0.181,0.669-0.645,0.566-1.101c-0.005-0.024-0.02-0.042-0.027-0.065  c5.78-1.448,16.422-4.789,27.408-11.672c-2.366,3.931-9.239,11.244-28.693,15.841c-0.504,0.119-0.825,0.615-0.726,1.123  c0.099,0.509,0.582,0.844,1.092,0.771c0.145-0.022,13.37-2.099,27.025-9.915C454.869,138.049,452.48,140.246,449.122,142.324z"/>
<g>
</g>
<g>
</g>
<g>
</g>
<g>
</g>
<g>
</g>
<g>
</g>
<g>
</g>
<g>
</g>
<g>
</g>
<g>
</g>
<g>
</g>
<g>
</g>
<g>
</g>
<g>
</g>
<g>
</g>
</svg>
