<?xml version="1.0" encoding="iso-8859-1"?>
<!-- Generator: Adobe Illustrator 19.0.0, SVG Export Plug-In . SVG Version: 6.00 Build 0)  -->
<svg xmlns="http://www.w3.org/2000/svg" xmlns:xlink="http://www.w3.org/1999/xlink" version="1.1" id="Layer_1" x="0px" y="0px" viewBox="0 0 512.001 512.001" style="enable-background:new 0 0 512.001 512.001;" xml:space="preserve">
<path style="fill:#F5F5F5;" d="M474.513,388.583c0.122-0.151,0.252-0.295,0.372-0.447c0.341-0.434,0.665-0.88,0.986-1.328  c0.081-0.112,0.167-0.222,0.247-0.337c0.339-0.486,0.66-0.985,0.973-1.487c0.051-0.082,0.107-0.161,0.157-0.245  c0.329-0.536,0.64-1.085,0.94-1.638c0.027-0.052,0.059-0.101,0.087-0.154c0.312-0.584,0.606-1.178,0.886-1.78  c0.011-0.023,0.022-0.046,0.034-0.069c2.029-4.393,3.158-9.219,3.238-14.21c0-0.003,0-0.005,0-0.008  c0.003-0.187,0.018-0.374,0.018-0.562l-0.008-42.41l-0.005-27.164l-0.001-3.785l0,0l-0.013-77.706l-0.005-27.164l-0.008-42.485  c-0.001-5.169-1.141-10.171-3.229-14.711c-0.006-0.014-0.014-0.026-0.02-0.041c-0.282-0.611-0.58-1.215-0.896-1.808  c-0.024-0.045-0.051-0.089-0.075-0.134c-0.302-0.561-0.616-1.116-0.947-1.66c-0.047-0.079-0.1-0.151-0.147-0.229  c-0.316-0.509-0.639-1.012-0.98-1.503c-0.077-0.111-0.162-0.219-0.241-0.329c-0.321-0.452-0.646-0.902-0.99-1.338  c-0.116-0.149-0.242-0.289-0.361-0.436c-0.317-0.391-0.635-0.784-0.968-1.162c-0.166-0.187-0.344-0.365-0.514-0.549  c-0.302-0.327-0.6-0.657-0.915-0.973c-0.227-0.229-0.469-0.444-0.701-0.666c-0.274-0.26-0.541-0.526-0.824-0.779  c-0.312-0.279-0.64-0.541-0.962-0.809c-0.22-0.182-0.432-0.372-0.657-0.55c-0.556-0.439-1.126-0.861-1.71-1.268  c-0.812-0.565-1.642-1.11-2.509-1.611l-11.855-6.842l-11.855-6.842l-22.198-12.811l-17.87-10.313l-2.909-1.678l-9.294-5.364  l-82.796-47.783l-19.994-11.539l-12.39-7.151c-0.682-0.394-1.375-0.764-2.076-1.107c-2.804-1.378-5.746-2.363-8.748-2.953  C260.529,0.221,258.243,0,255.959,0c-1.523,0-3.047,0.099-4.559,0.296c-4.54,0.592-8.99,2.069-13.084,4.434l-12.307,7.108  l-19.994,11.548l-82.781,47.812l-12.208,7.051l-0.519,0.3l0,0l-10.145,5.86l0,0L81.079,95.546l-22.191,12.818l-11.697,6.756  c-0.841,0.486-1.648,1.015-2.439,1.562c-0.586,0.406-1.158,0.829-1.716,1.267c-0.216,0.17-0.421,0.354-0.634,0.529  c-0.332,0.275-0.67,0.545-0.991,0.83c-0.28,0.247-0.544,0.51-0.814,0.766c-0.239,0.226-0.484,0.444-0.715,0.676  c-0.315,0.315-0.614,0.645-0.917,0.972c-0.17,0.184-0.349,0.362-0.516,0.55c-0.332,0.375-0.647,0.762-0.963,1.15  c-0.122,0.15-0.251,0.294-0.37,0.446c-0.34,0.432-0.662,0.876-0.981,1.322c-0.082,0.116-0.171,0.227-0.252,0.344  c-0.339,0.486-0.659,0.985-0.972,1.486c-0.051,0.082-0.107,0.161-0.159,0.245c-0.329,0.537-0.64,1.085-0.94,1.638  c-0.029,0.051-0.059,0.101-0.087,0.154c-0.312,0.584-0.606,1.177-0.886,1.78c-0.011,0.024-0.022,0.045-0.034,0.069  c-2.031,4.395-3.159,9.222-3.238,14.216l0,0c-0.003,0.189-0.017,0.375-0.017,0.562l0.007,42.41l0.005,27.164v3.785l0.01,62.544  l0.003,15.162l0.005,27.164l0.007,42.485c0.001,5.169,1.141,10.172,3.23,14.712c0.004,0.009,0.009,0.018,0.012,0.026  c0.284,0.617,0.585,1.225,0.903,1.824c0.02,0.039,0.044,0.075,0.064,0.114c0.306,0.569,0.624,1.13,0.96,1.681  c0.041,0.067,0.086,0.13,0.127,0.197c0.321,0.519,0.651,1.032,1,1.533c0.072,0.105,0.154,0.205,0.227,0.311  c0.325,0.459,0.655,0.913,1.002,1.357c0.111,0.141,0.231,0.276,0.344,0.415c0.322,0.399,0.645,0.797,0.986,1.182  c0.161,0.182,0.335,0.355,0.5,0.535c0.306,0.332,0.61,0.667,0.928,0.988c0.22,0.221,0.454,0.43,0.68,0.645  c0.281,0.267,0.555,0.54,0.845,0.799c0.306,0.274,0.629,0.531,0.945,0.794c0.225,0.187,0.442,0.382,0.674,0.565  c0.556,0.439,1.126,0.861,1.71,1.268c0.812,0.565,1.642,1.11,2.509,1.611l23.377,13.491l22.198,12.811l7.539,4.351l0,0l10.665,6.155  l2.909,1.678l9.294,5.363l82.796,47.783l19.994,11.539l12.39,7.151c2.047,1.181,4.184,2.141,6.376,2.879  c5.846,1.969,12.085,2.362,18.089,1.178c2.251-0.444,4.469-1.108,6.619-1.996c0.717-0.296,1.426-0.616,2.127-0.961  c0.701-0.345,1.393-0.714,2.076-1.108l12.307-7.108l19.995-11.548l82.781-47.812l12.208-7.051l27.325-15.782l22.191-12.818  l14.319-8.27c0.841-0.486,1.648-1.013,2.439-1.561c0.586-0.406,1.158-0.83,1.716-1.267c0.221-0.174,0.43-0.361,0.646-0.539  c0.329-0.271,0.661-0.537,0.978-0.819c0.282-0.25,0.55-0.515,0.822-0.775c0.235-0.222,0.477-0.439,0.706-0.667  c0.315-0.315,0.614-0.645,0.916-0.971c0.171-0.184,0.35-0.362,0.516-0.55C473.882,389.356,474.197,388.969,474.513,388.583z"/>
<g>
	<path style="fill:#73AF00;" d="M305.987,23.415l-19.995-11.539l-12.39-7.151c-0.682-0.394-1.375-0.764-2.076-1.107   c-2.804-1.378-5.746-2.363-8.748-2.953c-0.676-0.132-1.356-0.239-2.037-0.332c-0.2-0.027-0.401-0.05-0.601-0.074   c-0.507-0.06-1.015-0.11-1.523-0.147c-0.2-0.015-0.4-0.032-0.601-0.044c-1.446-0.084-2.895-0.086-4.341,0.007   c-0.76,0.05-1.52,0.124-2.276,0.222c-0.681,0.089-1.358,0.204-2.033,0.332c-0.2,0.039-0.4,0.081-0.6,0.124   c-0.499,0.105-0.996,0.219-1.491,0.345c-0.199,0.05-0.397,0.099-0.595,0.152c-0.667,0.182-1.331,0.377-1.988,0.599   s-1.307,0.47-1.954,0.731c-0.191,0.077-0.38,0.159-0.57,0.24c-0.477,0.204-0.951,0.417-1.421,0.642   c-0.187,0.089-0.375,0.177-0.56,0.27c-0.63,0.315-1.256,0.644-1.871,0.998l-12.307,7.108l-19.994,11.548l-82.781,47.812   l135.266,7.35l130.283-7.35L305.987,23.415z"/>
	<path style="fill:#73AF00;" d="M206.015,488.584l19.994,11.539l12.39,7.151c0.614,0.354,1.237,0.681,1.866,0.996   c0.19,0.095,0.381,0.184,0.572,0.276c0.465,0.221,0.932,0.432,1.403,0.632c0.195,0.082,0.389,0.167,0.585,0.247   c0.637,0.257,1.278,0.501,1.927,0.72c0.007,0.003,0.014,0.005,0.021,0.008c2.089,0.705,4.23,1.197,6.392,1.498   c3.129,0.436,6.303,0.459,9.436,0.05c0.756-0.099,1.511-0.222,2.261-0.37c0.675-0.132,1.346-0.292,2.013-0.465   c0.199-0.05,0.395-0.107,0.592-0.162c0.494-0.137,0.986-0.285,1.475-0.444c0.195-0.062,0.389-0.125,0.582-0.191   c0.985-0.34,1.954-0.735,2.914-1.165c0.391-0.175,0.785-0.34,1.171-0.529c0.701-0.345,1.393-0.714,2.076-1.108l12.307-7.108   l19.994-11.548l82.781-47.812L256.001,432.2l-132.782,8.6L206.015,488.584z"/>
</g>
<g>
	<path style="fill:#FF4B55;" d="M482.442,323.909l-0.005-27.164l-0.001-3.785l-136.461-9.469l-111.639,9.469l-34.57,31.77   l-30.584,42.15l160.548,9.086l152.702-9.086c0.003-0.187,0.018-0.374,0.018-0.562L482.442,323.909z"/>
	<path style="fill:#FF4B55;" d="M169.183,145.119l29.334,42.15l35.82,31.771l109.14,10.717l138.948-10.717v-3.785l-0.005-27.164   l-0.008-42.485c0-0.162-0.013-0.324-0.015-0.486l-150.167-9.086L169.183,145.119z"/>
</g>
<g>
	<path style="fill:#FFE15A;" d="M482.397,145.119c-0.01-0.706-0.041-1.408-0.092-2.107c-0.001-0.022-0.004-0.044-0.005-0.066   c-0.05-0.661-0.12-1.318-0.206-1.972c-0.009-0.067-0.019-0.134-0.027-0.201c-0.084-0.604-0.184-1.205-0.299-1.799   c-0.02-0.101-0.039-0.204-0.059-0.304c-0.112-0.559-0.24-1.112-0.379-1.663c-0.031-0.125-0.061-0.251-0.094-0.376   c-0.139-0.525-0.292-1.045-0.455-1.562c-0.044-0.137-0.082-0.277-0.127-0.415c-0.167-0.514-0.352-1.02-0.544-1.523   c-0.049-0.13-0.092-0.262-0.144-0.392c-0.244-0.624-0.505-1.238-0.784-1.846c-0.005-0.01-0.01-0.02-0.015-0.03   c-0.111-0.242-0.239-0.477-0.356-0.719c-0.18-0.367-0.354-0.739-0.546-1.1c-0.023-0.041-0.046-0.082-0.07-0.124   c-0.126-0.235-0.266-0.464-0.397-0.696c-0.184-0.326-0.361-0.654-0.556-0.973c-0.047-0.079-0.1-0.151-0.147-0.229   c-0.316-0.509-0.639-1.012-0.98-1.503c-0.078-0.111-0.162-0.219-0.241-0.329c-0.26-0.365-0.527-0.725-0.799-1.082   c-0.065-0.084-0.125-0.174-0.19-0.257c-0.116-0.149-0.242-0.289-0.361-0.435c-0.069-0.085-0.141-0.167-0.21-0.252   c-0.252-0.306-0.497-0.615-0.761-0.912c-0.166-0.186-0.342-0.364-0.512-0.547c-0.256-0.277-0.514-0.555-0.777-0.827   c-0.047-0.049-0.091-0.1-0.139-0.147c-0.207-0.209-0.426-0.405-0.64-0.607c-0.294-0.28-0.581-0.566-0.885-0.836   c-0.299-0.267-0.614-0.52-0.924-0.776c-0.109-0.091-0.216-0.185-0.326-0.274c-0.122-0.104-0.242-0.21-0.37-0.31   c-0.556-0.439-1.126-0.861-1.71-1.268c-0.812-0.565-1.642-1.11-2.509-1.611l-11.855-6.842l-11.855-6.842l-22.198-12.811   l-17.87-10.313l-2.909-1.678l-9.294-5.364H123.235l-12.208,7.051l-0.519,0.3l0,0l0,0l58.675,66.57h313.214V145.119z"/>
	<path style="fill:#FFE15A;" d="M110.5,433.459l0.517,0.299l2.909,1.678l9.294,5.364h265.548l12.208-7.051l27.325-15.782   l22.191-12.818l14.319-8.27c0.841-0.486,1.648-1.013,2.439-1.561c0.586-0.406,1.158-0.83,1.716-1.267   c0.147-0.116,0.287-0.239,0.43-0.359c0.087-0.073,0.174-0.145,0.26-0.217c0.314-0.259,0.631-0.512,0.934-0.782   c0.282-0.25,0.55-0.515,0.822-0.775c0.235-0.222,0.477-0.439,0.706-0.667c0.315-0.315,0.614-0.645,0.916-0.971   c0.17-0.184,0.349-0.361,0.514-0.549c0.336-0.379,0.656-0.771,0.975-1.163c0.12-0.146,0.245-0.287,0.362-0.436   c0.341-0.434,0.665-0.88,0.986-1.328c0.081-0.112,0.167-0.222,0.247-0.337c0.226-0.324,0.436-0.659,0.649-0.991   c0.11-0.17,0.225-0.336,0.331-0.506c0.05-0.079,0.102-0.155,0.151-0.235c0.329-0.536,0.64-1.085,0.94-1.638   c0.027-0.051,0.059-0.101,0.086-0.152c0.186-0.349,0.355-0.709,0.53-1.063c0.117-0.24,0.244-0.475,0.356-0.717   c0.01-0.022,0.022-0.045,0.033-0.066c0.275-0.595,0.531-1.2,0.772-1.809c0.065-0.166,0.124-0.336,0.186-0.502   c0.17-0.45,0.335-0.901,0.486-1.357c0.07-0.209,0.131-0.419,0.197-0.629c0.131-0.42,0.256-0.842,0.371-1.268   c0.062-0.23,0.12-0.461,0.177-0.694c0.102-0.414,0.199-0.829,0.286-1.246c0.05-0.24,0.1-0.479,0.145-0.72   c0.079-0.42,0.147-0.842,0.212-1.266c0.036-0.24,0.075-0.479,0.106-0.72c0.059-0.452,0.104-0.908,0.145-1.363   c0.019-0.211,0.045-0.421,0.06-0.634c0.049-0.667,0.081-1.337,0.092-2.011H169.183l-31.899,29.081L110.5,433.459z"/>
</g>
<polygon style="fill:#464655;" points="169.183,366.88 234.337,292.96 482.437,292.96 482.425,215.254 482.425,219.04   234.337,219.04 169.183,145.119 110.508,78.55 100.364,84.408 153.874,145.119 219.029,219.04 251.606,255.999 219.029,292.96   153.874,366.88 100.353,427.605 100.353,427.605 111.017,433.759 110.5,433.459 "/>
<polygon style="fill:#FF4B55;" points="115.346,187.649 134.87,227.206 178.523,233.549 146.935,264.341 154.392,307.818   115.346,287.291 76.301,307.818 83.759,264.341 52.17,233.549 95.824,227.206 "/>
<path style="fill:#FFE15A;" d="M165.997,260.436l-51.881-40.163c-6.07-14.225-14.698-23.399-22.023-23.399  c-6.222,0-9.264,5.767-10.136,9.231c-4.481,2.076-5.533,6.205-5.577,6.384c-0.072,0.296-0.004,0.61,0.184,0.851  c0.189,0.24,0.476,0.379,0.782,0.379l0.928-0.016c4.169-0.096,11.113-0.28,12.89,12.964c1.108,8.268-0.537,23.079-5.77,34.243  c-3.655,7.799-2.448,14.106-2.394,14.371c0.1,0.499,0.564,0.825,1.08,0.794c0.08-0.007,0.274-0.016,0.519-0.024l4.198,23.732  c0.084,0.475,0.496,0.821,0.978,0.821h62.635c0.459,0,0.857-0.314,0.966-0.759l6.997-28.738c0.003-0.009,0.012-0.013,0.014-0.021  c0.004-0.016-0.001-0.031,0.003-0.047l2.223-9.129c1.643,0.195,2.623,0.296,2.677,0.302c0.475,0.061,0.861-0.209,1.023-0.62  C166.476,261.178,166.348,260.707,165.997,260.436z"/>
<g>
	<path style="fill:#464655;" d="M165.997,260.436l-51.881-40.163c-6.07-14.225-14.698-23.399-22.023-23.399   c-6.222,0-9.264,5.767-10.136,9.231c-4.481,2.076-5.533,6.205-5.577,6.384c-0.072,0.296-0.004,0.61,0.184,0.851   c0.189,0.24,0.476,0.379,0.782,0.379l0.928-0.016c4.169-0.096,11.113-0.28,12.89,12.964c1.108,8.268-0.537,23.079-5.77,34.243   c-3.655,7.799-2.448,14.106-2.394,14.371c0.1,0.499,0.564,0.825,1.08,0.794c0.08-0.007,0.274-0.016,0.519-0.024l4.198,23.732   c0.084,0.475,0.496,0.821,0.978,0.821h62.635c0.459,0,0.857-0.314,0.966-0.759l6.997-28.738c0.003-0.009,0.012-0.013,0.014-0.021   c0.004-0.016-0.001-0.031,0.003-0.047l2.223-9.129c1.643,0.195,2.623,0.296,2.677,0.302c0.475,0.061,0.861-0.209,1.023-0.62   C166.476,261.178,166.348,260.707,165.997,260.436z M87.193,261.753c4.735-10.1,7.288-25.298,5.941-35.352   c-1.922-14.337-9.97-14.787-14.315-14.701c0.616-1.197,1.897-2.957,4.37-3.965c0.306-0.124,0.531-0.396,0.599-0.721   c0.07-0.332,1.762-8.153,8.305-8.153c6.463,0,14.62,9.013,20.294,22.425c0.066,0.157,0.172,0.295,0.306,0.399l49.271,38.143   c-8.684-1.053-31.378-4.18-44.819-9.476c-7.026-2.768-8.626-6.979-10.041-10.696c-0.194-0.514-0.771-0.767-1.283-0.576   c-0.512,0.195-0.771,0.77-0.576,1.283c1.405,3.691,3.328,8.75,11.171,11.84c1.598,0.63,3.324,1.228,5.139,1.797   c-0.316,0.957-2.327,5.841-11.242,9.044c-7.226,2.597-12.365,6.973-13.069,10.926c-2.641-0.01-4.996-0.006-6.977,0.006v-2.87   c0-2.179,2.101-5.339,4.325-8.683c3.099-4.66,6.611-9.942,6.611-15.345c0-0.549-0.445-0.995-0.995-0.995   c-0.549,0-0.995,0.445-0.995,0.995c0,4.801-3.337,9.817-6.278,14.242c-2.499,3.758-4.657,7.003-4.657,9.784v2.887   c-1.501,0.016-2.677,0.036-3.444,0.057C84.66,272.181,84.557,267.376,87.193,261.753z M126.623,255.456   c-1.151,3.197-4.555,4.279-7.079,4.625c2.737-2.432,3.659-4.68,3.919-5.502C124.494,254.88,125.551,255.171,126.623,255.456z    M128.539,255.949c1.093,0.274,2.199,0.539,3.314,0.795c-1.015,2.064-3.726,3.077-6.689,3.5   C126.633,259.313,127.877,257.94,128.539,255.949z M156.647,277.998c-10.078-3.107-39.165-3.9-57.395-4.016   c0.617-2.258,3.478-5.224,8.323-7.602c0.05,0.008,0.095,0.03,0.146,0.03c27.214,0.096,46.155,4.134,50.494,5.15L156.647,277.998z    M155.364,283.267l-3.976-4.435c1.896,0.33,3.509,0.697,4.787,1.105L155.364,283.267z M103.936,283.969l1.933,1.819   c-0.596-0.005-1.181-0.01-1.791-0.014C104.026,285.191,103.982,284.573,103.936,283.969z M154.175,288.151l-5.051-5.535   c-0.332-0.365-0.883-0.432-1.287-0.155l-5.932,3.97l-4.464-4.892c-0.346-0.38-0.931-0.431-1.338-0.117l-5.362,4.111l-4.865-4.804   c-0.365-0.361-0.948-0.385-1.338-0.052l-5.237,4.405l-4.907-4.552c-0.371-0.345-0.947-0.352-1.332-0.018l-5.12,4.499l-4.209-3.96   c-0.074-1.182-0.139-2.399-0.196-3.651l3.768,3.699c0.367,0.362,0.951,0.379,1.345,0.044l5.271-4.539l4.816,4.742   c0.364,0.357,0.941,0.381,1.335,0.055l5.289-4.406l5.075,4.781c0.357,0.335,0.903,0.364,1.287,0.065l5.307-4.07l4.44,5.095   c0.335,0.386,0.91,0.451,1.327,0.155l5.903-4.206l5.87,6.547c0.07,0.079,0.159,0.126,0.244,0.176L154.175,288.151z M151.19,287.831   c-1.583-0.2-3.793-0.437-6.787-0.679l3.828-2.563L151.19,287.831z M139.556,286.806c-1.996-0.126-4.234-0.249-6.733-0.362   l3.766-2.889L139.556,286.806z M128.658,286.27c-2.276-0.085-4.749-0.162-7.405-0.231l3.873-3.258L128.658,286.27z    M117.309,285.946c-2.292-0.047-4.729-0.086-7.29-0.117l3.68-3.233L117.309,285.946z M104.989,276.036   c2.063,0.027,4.213,0.064,6.412,0.11l-3.357,2.889L104.989,276.036z M116.416,276.268c2.136,0.06,4.295,0.13,6.449,0.212   l-3.377,2.813L116.416,276.268z M127.948,276.7c2.281,0.11,4.534,0.232,6.717,0.375l-3.484,2.672L127.948,276.7z M139.362,277.418   c2.454,0.2,4.775,0.425,6.912,0.68l-3.899,2.778L139.362,277.418z M86.608,276.008c2.988-0.044,8.343-0.069,14.876-0.009   c0.374,9.45,1.198,17.042,2.453,22.616h-13.33L86.608,276.008z M151.627,298.614h-45.655c-0.699-2.989-1.263-6.621-1.697-10.85   c33.257,0.219,45.891,1.87,49.049,2.386c0.094,0.091,0.197,0.166,0.312,0.212L151.627,298.614z M158.684,269.629   c-4.204-0.983-21.558-4.666-46.591-5.146c1.765-0.702,3.268-1.465,4.535-2.251c0.592,0.074,2.334,0.266,4.519,0.266   c4.537,0,10.909-0.857,12.67-5.314c10.332,2.261,20.924,3.746,26.805,4.481L158.684,269.629z"/>
	<path style="fill:#464655;" d="M94.911,205.656c0-1.828-1.486-3.314-3.314-3.314s-3.314,1.486-3.314,3.314s1.486,3.314,3.314,3.314   S94.911,207.483,94.911,205.656z M91.597,206.98c-0.731,0-1.326-0.594-1.326-1.326c0-0.731,0.594-1.326,1.326-1.326   c0.731,0,1.326,0.594,1.326,1.326C92.921,206.387,92.328,206.98,91.597,206.98z"/>
	<path style="fill:#464655;" d="M119.378,267.275c-1.797,0-3.258,1.462-3.258,3.258c0,1.797,1.462,3.258,3.258,3.258   c1.797,0,3.259-1.462,3.259-3.258C122.638,268.737,121.175,267.275,119.378,267.275z M119.378,271.804c-0.7,0-1.27-0.57-1.27-1.27   c0-0.701,0.57-1.27,1.27-1.27s1.271,0.57,1.271,1.27C120.65,271.234,120.079,271.804,119.378,271.804z"/>
	<path style="fill:#464655;" d="M129.121,267.831c-1.797,0-3.259,1.463-3.259,3.259c0,1.797,1.463,3.258,3.259,3.258   s3.258-1.461,3.258-3.258S130.918,267.831,129.121,267.831z M129.121,272.361c-0.7,0-1.271-0.57-1.271-1.27   c0-0.7,0.571-1.271,1.271-1.271s1.27,0.571,1.27,1.271S129.821,272.361,129.121,272.361z"/>
</g>
<g>
</g>
<g>
</g>
<g>
</g>
<g>
</g>
<g>
</g>
<g>
</g>
<g>
</g>
<g>
</g>
<g>
</g>
<g>
</g>
<g>
</g>
<g>
</g>
<g>
</g>
<g>
</g>
<g>
</g>
</svg>
