<?xml version="1.0" encoding="iso-8859-1"?>
<!-- Generator: Adobe Illustrator 19.0.0, SVG Export Plug-In . SVG Version: 6.00 Build 0)  -->
<svg xmlns="http://www.w3.org/2000/svg" xmlns:xlink="http://www.w3.org/1999/xlink" version="1.1" id="Layer_1" x="0px" y="0px" viewBox="0 0 512.004 512.004" style="enable-background:new 0 0 512.004 512.004;" xml:space="preserve">
<path style="fill:#73AF00;" d="M20.394,98.536h491.607V60.999c0-4.681-3.795-8.476-8.476-8.476H28.87  c-4.681,0-8.476,3.795-8.476,8.476C20.394,60.999,20.394,98.536,20.394,98.536z"/>
<rect x="20.394" y="98.531" style="fill:#F5F5F5;" width="491.61" height="46.01"/>
<rect x="20.394" y="144.551" style="fill:#73AF00;" width="491.61" height="46.01"/>
<rect x="20.394" y="190.561" style="fill:#F5F5F5;" width="491.61" height="46.01"/>
<rect x="20.394" y="236.572" style="fill:#73AF00;" width="491.61" height="46.01"/>
<rect x="20.394" y="282.591" style="fill:#F5F5F5;" width="491.61" height="46.01"/>
<path style="fill:#73AF00;" d="M28.87,374.611h474.655c4.681,0,8.476-3.795,8.476-8.476v-37.537H20.394v37.537  C20.394,370.816,24.188,374.611,28.87,374.611z"/>
<path style="fill:#FF4B55;" d="M28.87,190.561h228.851c4.681,0,8.476-3.795,8.476-8.476V60.999c0-4.681-3.795-8.476-8.476-8.476  H28.87c-4.681,0-8.476,3.795-8.476,8.476v121.085C20.394,186.766,24.188,190.561,28.87,190.561z"/>
<g>
	<path style="fill:#F5F5F5;" d="M150.737,179.663H137.07c-1.243,0-2.355-0.773-2.786-1.94l-4.4-11.879   c-1.717-4.637-2.489-9.573-2.268-14.513l1.532-34.312c0.039-0.871,0.599-1.633,1.418-1.93l0,0c1.406-0.512,2.893,0.53,2.893,2.027   v15.624c0,0.437,0.354,0.791,0.791,0.791l0,0c0.422,0,0.769-0.331,0.79-0.752l1.228-24.914c0.05-1.012,0.811-1.846,1.813-1.989l0,0   c1.243-0.178,2.366,0.761,2.412,2.016l0.848,23.227c0.017,0.466,0.43,0.818,0.893,0.76l0,0c0.392-0.049,0.689-0.378,0.696-0.773   l0.51-25.81c0.028-1.409,1.414-2.388,2.752-1.942l0,0c0.819,0.273,1.386,1.02,1.427,1.883l1.26,26.088   c0.014,0.29,0.183,0.55,0.443,0.68l0,0c0.524,0.263,1.144-0.107,1.162-0.694l0.631-20.213c0.048-1.527,1.646-2.501,3.026-1.845l0,0   c0.696,0.332,1.157,1.016,1.203,1.786l1.471,24.809l3.936,11.481c0.221,0.644,1.127,0.657,1.361,0.017   c1.115-3.043,3.645-8.725,7.705-11.227c0.719-0.443,1.641-0.386,2.317,0.121l0,0c0.994,0.746,1.11,2.184,0.261,3.088   c-1.979,2.106-4.864,6.534-4.655,14.318c0.026,0.991-0.261,1.964-0.845,2.764l-11.09,15.15c-1.11,1.517-1.822,3.289-2.071,5.152   l-0.05,0.372C153.485,178.561,152.226,179.663,150.737,179.663z"/>
	<path style="fill:#F5F5F5;" d="M143.939,64.131l2.227,6.677l7.038,0.054c0.546,0.004,0.771,0.7,0.333,1.025l-5.662,4.181   l2.123,6.711c0.164,0.52-0.427,0.95-0.871,0.633l-5.727-4.093l-5.727,4.093c-0.444,0.317-1.035-0.113-0.871-0.633l2.123-6.711   l-5.662-4.181c-0.439-0.324-0.213-1.02,0.333-1.025l7.038-0.054l2.227-6.677C143.035,63.614,143.766,63.614,143.939,64.131z"/>
	<path style="fill:#F5F5F5;" d="M110.831,73.739l2.227,6.677l7.038,0.054c0.546,0.004,0.771,0.7,0.333,1.025l-5.662,4.181   l2.123,6.711c0.164,0.52-0.427,0.95-0.871,0.633l-5.727-4.093l-5.727,4.093c-0.444,0.317-1.035-0.113-0.871-0.633l2.123-6.711   l-5.662-4.181c-0.439-0.324-0.213-1.02,0.333-1.025l7.038-0.054l2.227-6.677C109.926,73.221,110.658,73.221,110.831,73.739z"/>
	<path style="fill:#F5F5F5;" d="M177.854,73.739l2.227,6.677l7.038,0.054c0.546,0.004,0.771,0.7,0.333,1.025l-5.662,4.181   l2.123,6.711c0.164,0.52-0.427,0.95-0.871,0.633l-5.727-4.093l-5.727,4.093c-0.444,0.317-1.035-0.113-0.871-0.633l2.123-6.711   l-5.662-4.181c-0.439-0.324-0.213-1.02,0.333-1.025l7.038-0.054l2.227-6.677C176.949,73.221,177.682,73.221,177.854,73.739z"/>
	<path style="fill:#F5F5F5;" d="M200.059,98.985l2.227,6.677l7.038,0.055c0.546,0.004,0.771,0.7,0.333,1.025l-5.662,4.181   l2.123,6.711c0.164,0.52-0.427,0.95-0.871,0.633l-5.727-4.093l-5.727,4.093c-0.444,0.317-1.035-0.113-0.871-0.633l2.123-6.711   l-5.662-4.181c-0.439-0.324-0.213-1.02,0.333-1.025l7.038-0.055l2.227-6.677C199.154,98.468,199.886,98.468,200.059,98.985z"/>
	<path style="fill:#F5F5F5;" d="M86.778,98.985l2.227,6.677l7.038,0.055c0.546,0.004,0.771,0.7,0.333,1.025l-5.662,4.181   l2.123,6.711c0.164,0.52-0.427,0.95-0.871,0.633l-5.727-4.093l-5.727,4.093c-0.444,0.317-1.035-0.113-0.871-0.633l2.123-6.711   l-5.662-4.181c-0.439-0.324-0.213-1.02,0.333-1.025l7.038-0.055l2.227-6.677C85.874,98.468,86.605,98.468,86.778,98.985z"/>
	<path style="fill:#F5F5F5;" d="M206.445,132.104l2.227,6.677l7.038,0.054c0.546,0.004,0.771,0.7,0.333,1.025l-5.662,4.181   l2.123,6.711c0.164,0.52-0.427,0.95-0.871,0.633l-5.727-4.093l-5.727,4.093c-0.444,0.317-1.035-0.113-0.871-0.633l2.123-6.711   l-5.662-4.181c-0.439-0.324-0.213-1.02,0.333-1.025l7.038-0.054l2.227-6.677C205.541,131.585,206.273,131.585,206.445,132.104z"/>
	<path style="fill:#F5F5F5;" d="M78.149,132.104l2.227,6.677l7.038,0.054c0.546,0.004,0.771,0.7,0.333,1.025l-5.662,4.181   l2.123,6.711c0.164,0.52-0.427,0.95-0.871,0.633l-5.727-4.093l-5.727,4.093c-0.444,0.317-1.035-0.113-0.871-0.633l2.123-6.711   l-5.662-4.181c-0.439-0.324-0.213-1.02,0.333-1.025l7.038-0.054l2.227-6.677C77.246,131.585,77.978,131.585,78.149,132.104z"/>
</g>
<path style="fill:#2E3033;" d="M19.203,489.09L19.203,489.09C8.598,489.09,0,480.493,0,469.887V41.958  c0-10.519,8.527-19.045,19.045-19.045h0.158c10.606,0,19.203,8.598,19.203,19.203v427.771  C38.407,480.493,29.809,489.09,19.203,489.09z"/>
<g>
</g>
<g>
</g>
<g>
</g>
<g>
</g>
<g>
</g>
<g>
</g>
<g>
</g>
<g>
</g>
<g>
</g>
<g>
</g>
<g>
</g>
<g>
</g>
<g>
</g>
<g>
</g>
<g>
</g>
</svg>
