<?xml version="1.0" encoding="iso-8859-1"?>
<!-- Generator: Adobe Illustrator 19.0.0, SVG Export Plug-In . SVG Version: 6.00 Build 0)  -->
<svg xmlns="http://www.w3.org/2000/svg" xmlns:xlink="http://www.w3.org/1999/xlink" version="1.1" id="Layer_1" x="0px" y="0px" viewBox="0 0 512 512" style="enable-background:new 0 0 512 512;" xml:space="preserve">
<path style="fill:#73AF00;" d="M512,162.503H177.814V56.677H503.56c4.661,0,8.44,3.779,8.44,8.44V162.503z"/>
<path style="fill:#464655;" d="M503.56,374.155H177.814V268.329H512v97.385C512,370.376,508.222,374.155,503.56,374.155z"/>
<rect x="177.81" y="162.5" style="fill:#F5F5F5;" width="334.18" height="105.83"/>
<path style="fill:#FF4B55;" d="M177.814,374.155H35.87c-4.661,0-8.44-3.779-8.44-8.44V65.118c0-4.661,3.779-8.44,8.44-8.44h141.943  v317.477H177.814z"/>
<path style="fill:#2E3033;" d="M19.122,488.1L19.122,488.1C8.561,488.1,0,479.539,0,468.979V42.864C0,32.39,8.491,23.9,18.965,23.9  h0.157c10.561,0,19.122,8.561,19.122,19.122V468.98C38.244,479.539,29.683,488.1,19.122,488.1z"/>
<g>
</g>
<g>
</g>
<g>
</g>
<g>
</g>
<g>
</g>
<g>
</g>
<g>
</g>
<g>
</g>
<g>
</g>
<g>
</g>
<g>
</g>
<g>
</g>
<g>
</g>
<g>
</g>
<g>
</g>
</svg>
