<?xml version="1.0" encoding="iso-8859-1"?>
<!-- Generator: Adobe Illustrator 19.0.0, SVG Export Plug-In . SVG Version: 6.00 Build 0)  -->
<svg xmlns="http://www.w3.org/2000/svg" xmlns:xlink="http://www.w3.org/1999/xlink" version="1.1" id="Layer_1" x="0px" y="0px" viewBox="0 0 512 512" style="enable-background:new 0 0 512 512;" xml:space="preserve">
<path style="fill:#41479B;" d="M219.3,373.85h-184c-4.6,0-8.4-3.7-8.4-8.4v-301c0-4.6,3.7-8.4,8.4-8.4h184V373.85z"/>
<path style="fill:#F5F5F5;" d="M503.6,372.75H219.3V56.05h284.3c4.6,0,8.4,3.7,8.4,8.4v300C512,369.05,508.3,372.75,503.6,372.75z"/>
<g>
	<path style="fill:#FFE15A;" d="M275.7,213.15c-3.5,0-6.9,1.2-9.7,3.4l-16.7,13.3c-2.7,2.2-6.2,3.4-9.7,3.4H235v-2.7   c0-4.1,3.3-7.4,7.4-7.4h7.7v-3.6c0-3.6-2.9-6.5-6.5-6.5H240l0,0c0-2.8-2.3-5-5-5l0,0c-13.9,0-25.2,11.3-25.2,25.2h-9.7   c-3.5,0-6.9-1.2-9.7-3.4l-16.7-13.3c-2.7-2.2-6.2-3.4-9.7-3.4H90.8c-2.5,0-3.7,3-2,4.7l25.4,25.4c3.3,3.3,7.7,5.1,12.3,5.1h18   l14.8,11.1c3.5,2.6,7.7,4,12.1,4h18.5c3.2,0,6.2-1.5,8.1-4l2-2.7v11.7l-12.4,24.8c-1.2,2.5,0.6,5.4,3.3,5.4h40.6   c2,0,3.7-1.7,3.7-3.7v-45l7,9.4c1.9,2.5,4.9,4,8.1,4h18.5c4.4,0,8.6-1.4,12.1-4l14.8-11.1h18c4.6,0,9-1.8,12.3-5.1l25.4-25.4   c1.7-1.7,0.5-4.7-2-4.7L275.7,213.15L275.7,213.15z"/>
	<path style="fill:#FFE15A;" d="M220.9,131.55l2.4,7.2l7.6,0.1c1,0,1.4,1.3,0.6,1.8l-6.1,4.5l2.3,7.3c0.3,0.9-0.8,1.7-1.6,1.1   l-6.2-4.4l-6.2,4.4c-0.8,0.6-1.9-0.2-1.6-1.1l2.3-7.3l-6.1-4.5c-0.8-0.6-0.4-1.8,0.6-1.8l7.6-0.1l2.4-7.2   C219.3,130.65,220.6,130.65,220.9,131.55z"/>
	<path style="fill:#FFE15A;" d="M109.2,177.05l6.8,3.4l5.4-5.3c0.7-0.7,1.9-0.1,1.7,0.9l-1.1,7.5l6.8,3.5c0.9,0.5,0.7,1.8-0.3,1.9   l-7.5,1.2l-1.2,7.5c-0.2,1-1.5,1.2-1.9,0.3l-3.5-6.8l-7.5,1.1c-1,0.1-1.6-1-0.9-1.7l5.3-5.4l-3.4-6.8   C107.4,177.55,108.3,176.65,109.2,177.05z"/>
	<path style="fill:#FFE15A;" d="M332.1,178.45l-3.4,6.8l5.3,5.4c0.7,0.7,0.1,1.9-0.9,1.7l-7.5-1.1l-3.5,6.8   c-0.5,0.9-1.8,0.7-1.9-0.3l-1.2-7.5l-7.5-1.2c-1-0.2-1.2-1.5-0.3-1.9l6.8-3.5l-1.1-7.5c-0.1-1,1-1.6,1.7-0.9l5.4,5.3l6.8-3.4   C331.6,176.65,332.5,177.55,332.1,178.45z"/>
	<path style="fill:#FFE15A;" d="M160.6,143.15l5,5.7l7-2.9c0.9-0.4,1.8,0.6,1.3,1.5l-3.9,6.5l4.9,5.8c0.6,0.8-0.1,1.9-1,1.7   l-7.4-1.7l-4,6.5c-0.5,0.8-1.8,0.5-1.9-0.5l-0.7-7.6l-7.4-1.8c-1-0.2-1.1-1.6-0.2-1.9l7-3l-0.5-7.6   C158.7,142.95,159.9,142.45,160.6,143.15z"/>
	<path style="fill:#FFE15A;" d="M281.2,143.95l-0.5,7.6l7,3c0.9,0.4,0.8,1.7-0.2,1.9l-7.4,1.8l-0.7,7.6c-0.1,1-1.4,1.3-1.9,0.5   l-4-6.5l-7.4,1.7c-1,0.2-1.6-0.9-1-1.7l4.9-5.8l-3.9-6.5c-0.5-0.8,0.4-1.8,1.3-1.5l7,2.9l5-5.7   C280,142.45,281.2,142.95,281.2,143.95z"/>
	<path style="fill:#FFE15A;" d="M190.2,134.45l3.8,6.6l7.5-1.4c1-0.2,1.6,1,1,1.7l-5.1,5.6l3.7,6.7c0.5,0.9-0.4,1.8-1.3,1.4   l-6.9-3.1l-5.2,5.5c-0.7,0.7-1.9,0.2-1.8-0.8l0.8-7.6l-6.9-3.2c-0.9-0.4-0.7-1.7,0.2-1.9l7.4-1.5l1-7.5   C188.4,133.85,189.7,133.55,190.2,134.45z"/>
	<path style="fill:#FFE15A;" d="M308.3,158.65l-2,7.3l6.3,4.3c0.8,0.6,0.5,1.8-0.5,1.9l-7.6,0.4l-2.1,7.3c-0.3,0.9-1.6,1-1.9,0.1   l-2.7-7.1l-7.6,0.2c-1,0-1.4-1.2-0.7-1.8l5.9-4.8l-2.6-7.2c-0.3-0.9,0.7-1.7,1.5-1.2l6.4,4.2l6-4.7   C307.5,156.95,308.6,157.75,308.3,158.65z"/>
	<path style="fill:#FFE15A;" d="M133.2,157.55l6,4.7l6.4-4.2c0.8-0.5,1.9,0.3,1.5,1.2l-2.6,7.2l5.9,4.8c0.8,0.6,0.3,1.9-0.7,1.8   l-7.6-0.2l-2.7,7.1c-0.3,0.9-1.7,0.9-1.9-0.1l-2.1-7.3l-7.6-0.4c-1,0-1.3-1.3-0.5-1.9l6.3-4.3l-2-7.3   C131.3,157.75,132.4,156.95,133.2,157.55z"/>
	<path style="fill:#FFE15A;" d="M251.7,134.75l1,7.5l7.4,1.5c1,0.2,1.1,1.5,0.2,1.9l-6.9,3.2l0.8,7.6c0.1,1-1.1,1.5-1.8,0.8   l-5.2-5.5l-6.9,3.1c-0.9,0.4-1.8-0.6-1.3-1.4l3.7-6.7l-5.1-5.6c-0.7-0.7,0-1.9,1-1.7l7.5,1.4l3.8-6.6   C250.2,133.55,251.5,133.85,251.7,134.75z"/>
</g>
<path style="fill:#FF4B55;" d="M95.4,91.95v21.6c0,9-7.3,16.2-16.2,16.2s-16.2-7.3-16.2-16.2v-21.6L95.4,91.95 M100.8,81.15H57.5  c-3,0-5.4,2.4-5.4,5.4v27.1c0,14.9,12.1,27.1,27.1,27.1s27.1-12.1,27.1-27.1v-27.1C106.2,83.55,103.8,81.15,100.8,81.15L100.8,81.15  z"/>
<path style="fill:#F5F5F5;" d="M95.4,91.95v21.6c0,9-7.3,16.2-16.2,16.2s-16.2-7.3-16.2-16.2v-21.6L95.4,91.95"/>
<g>
	<circle style="fill:#FFE15A;" cx="57.5" cy="86.55" r="2.7"/>
	<circle style="fill:#FFE15A;" cx="100.7" cy="86.55" r="2.7"/>
	<circle style="fill:#FFE15A;" cx="57.5" cy="108.25" r="2.7"/>
	<circle style="fill:#FFE15A;" cx="100.7" cy="108.25" r="2.7"/>
	<circle style="fill:#FFE15A;" cx="79.1" cy="86.55" r="2.7"/>
	<circle style="fill:#FFE15A;" cx="95.3" cy="128.15" r="2.7"/>
	<circle style="fill:#FFE15A;" cx="63.2" cy="128.15" r="2.7"/>
</g>
<g>
	<path style="fill:#41479B;" d="M82.6,106.85v4.7c0,1.9-1.6,3.5-3.5,3.5s-3.5-1.6-3.5-3.5v-4.7H82.6"/>
	<path style="fill:#41479B;" d="M82.6,95.75v4.7c0,1.9-1.6,3.5-3.5,3.5s-3.5-1.6-3.5-3.5v-4.7H82.6"/>
	<path style="fill:#41479B;" d="M82.6,118.05v4.7c0,1.9-1.6,3.5-3.5,3.5s-3.5-1.6-3.5-3.5v-4.7H82.6"/>
	<path style="fill:#41479B;" d="M92,106.85v4.7c0,1.9-1.6,3.5-3.5,3.5s-3.5-1.6-3.5-3.5v-4.7H92"/>
	<path style="fill:#41479B;" d="M73.2,106.85v4.7c0,1.9-1.6,3.5-3.5,3.5s-3.5-1.6-3.5-3.5v-4.7H73.2"/>
</g>
<path style="fill:#2E3033;" d="M19.2,489.05L19.2,489.05c-10.6,0-19.2-8.6-19.2-19.2V41.95c0-10.5,8.5-19,19-19h0.2  c10.6,0,19.2,8.6,19.2,19.2v427.7C38.4,480.45,29.8,489.05,19.2,489.05z"/>
<g>
</g>
<g>
</g>
<g>
</g>
<g>
</g>
<g>
</g>
<g>
</g>
<g>
</g>
<g>
</g>
<g>
</g>
<g>
</g>
<g>
</g>
<g>
</g>
<g>
</g>
<g>
</g>
<g>
</g>
</svg>
