<?xml version="1.0" encoding="iso-8859-1"?>
<!-- Generator: Adobe Illustrator 19.0.0, SVG Export Plug-In . SVG Version: 6.00 Build 0)  -->
<svg xmlns="http://www.w3.org/2000/svg" xmlns:xlink="http://www.w3.org/1999/xlink" version="1.1" id="Layer_1" x="0px" y="0px" viewBox="0 0 512.1 512.1" style="enable-background:new 0 0 512.1 512.1;" xml:space="preserve">
<path style="fill:#FFE15A;" d="M27,91.4h485V64.5c0-4.6-3.7-8.4-8.4-8.4H35.4c-4.6,0-8.4,3.7-8.4,8.4C27,64.5,27,91.4,27,91.4z"/>
<rect x="27" y="91.4" style="fill:#FF4B55;" width="485" height="35.3"/>
<rect x="27" y="126.7" style="fill:#FFE15A;" width="485" height="35.3"/>
<rect x="27" y="162" style="fill:#FF4B55;" width="485" height="35.3"/>
<g>
	<rect x="27" y="197.3" style="fill:#FFE15A;" width="485" height="35.3"/>
	<path style="fill:#FFE15A;" d="M35.4,373.9h468.3c4.6,0,8.4-3.7,8.4-8.4v-26.9H27v26.9C27,370.1,30.7,373.9,35.4,373.9z"/>
</g>
<rect x="27" y="232.7" style="fill:#FF4B55;" width="485" height="35.3"/>
<rect x="27" y="268" style="fill:#FFE15A;" width="485" height="35.3"/>
<rect x="27" y="303.3" style="fill:#FF4B55;" width="485" height="35.3"/>
<path style="fill:#64466E;" d="M264.7,217.2H35.9c-4.7,0-8.5-3.8-8.5-8.5V64.6c0-4.7,3.8-8.5,8.5-8.5h228.9c4.7,0,8.5,3.8,8.5,8.5  v144.1C273.2,213.4,269.4,217.2,264.7,217.2z"/>
<path style="fill:#F5F5F5;" d="M254.1,124.3h-18.9v-21.6h2.7v-5.4h-2.7h-21.6h-2.7v5.4h2.7v21.6h-10.8v-21.6h2.7v-5.4h-2.7h-21.6  h-2.7v5.4h2.7v21.6H165v-27h2.7v-5.4h-27v5.4h2.7v27h-16.2v-21.6h2.7v-5.4h-2.7h-21.6H103v5.4h2.7v21.6H95v-21.6h2.7v-5.4H95H73.4  h-2.7v5.4h2.7v21.6H54.5h-2.7v5.4h2.7v48.6h18.9h18.9v-16.2c0-3,2.4-5.4,5.4-5.4s5.4,2.4,5.4,5.4v16.2h2.7h21.6h2.7v-16.2  c0-3,2.4-5.4,5.4-5.4s5.4,2.4,5.4,5.4v16.2h2.7h2.7v-18.9c0-4.5,3.6-8.1,8.1-8.1s8.1,3.6,8.1,8.1v18.9h2.7h2.7v-16.2  c0-3,2.4-5.4,5.4-5.4s5.4,2.4,5.4,5.4v16.2h2.7H203h2.7v-16.2c0-3,2.4-5.4,5.4-5.4s5.4,2.4,5.4,5.4v16.2h18.9h18.9v-48.6h2.7v-5.4  L254.1,124.3L254.1,124.3z M89.6,145.9H78.8v-16.2c0-3,2.4-5.4,5.4-5.4s5.4,2.4,5.4,5.4C89.6,129.7,89.6,145.9,89.6,145.9z   M121.9,145.9h-10.8v-16.2c0-3,2.4-5.4,5.4-5.4s5.4,2.4,5.4,5.4V145.9z M159.7,129.7h-10.8v-10.8c0-3,2.4-5.4,5.4-5.4  s5.4,2.4,5.4,5.4L159.7,129.7L159.7,129.7z M197.5,145.9h-10.8v-16.2c0-3,2.4-5.4,5.4-5.4s5.4,2.4,5.4,5.4L197.5,145.9L197.5,145.9z   M229.8,145.9H219v-16.2c0-3,2.4-5.4,5.4-5.4s5.4,2.4,5.4,5.4L229.8,145.9L229.8,145.9z"/>
<path style="fill:#2E3033;" d="M19.2,489.1L19.2,489.1C8.6,489.1,0,480.5,0,469.9V42c0-10.5,8.5-19,19-19h0.2  c10.6,0,19.2,8.6,19.2,19.2V470C38.4,480.5,29.8,489.1,19.2,489.1z"/>
<g>
</g>
<g>
</g>
<g>
</g>
<g>
</g>
<g>
</g>
<g>
</g>
<g>
</g>
<g>
</g>
<g>
</g>
<g>
</g>
<g>
</g>
<g>
</g>
<g>
</g>
<g>
</g>
<g>
</g>
</svg>
