<?xml version="1.0" encoding="iso-8859-1"?>
<!-- Generator: Adobe Illustrator 19.0.0, SVG Export Plug-In . SVG Version: 6.00 Build 0)  -->
<svg xmlns="http://www.w3.org/2000/svg" xmlns:xlink="http://www.w3.org/1999/xlink" version="1.1" id="Layer_1" x="0px" y="0px" viewBox="0 0 512 512" style="enable-background:new 0 0 512 512;" xml:space="preserve">
<path style="fill:#41479B;" d="M503.524,52.572H28.871c-4.681,0-8.476,3.795-8.476,8.476v305.133c0,4.681,3.795,8.476,8.476,8.476  h474.653c4.681,0,8.476-3.795,8.476-8.476V61.048C512,56.366,508.205,52.572,503.524,52.572z"/>
<path style="fill:#F5F5F5;" d="M23.522,372.608L508.872,54.62c-1.47-1.223-3.289-2.049-5.349-2.049H28.871  c-4.681,0-8.476,3.795-8.476,8.476V366.18C20.395,368.801,21.654,371.055,23.522,372.608z"/>
<path style="fill:#FFE15A;" d="M236.22,52.572H28.871c-4.681,0-8.476,3.795-8.476,8.476v132.927L236.22,52.572z"/>
<path style="fill:#464655;" d="M214.612,187.822c-3.846-25.671-24.09-45.915-49.761-49.761l-8.84-17.682l-8.84,17.682  c-25.671,3.846-45.914,24.089-49.761,49.761l-17.682,8.84l17.682,8.84c3.846,25.671,24.09,45.915,49.761,49.761l8.84,17.682  l8.84-17.682c25.671-3.846,45.914-24.089,49.761-49.761l17.682-8.84L214.612,187.822z M156.01,247.518  c-28.087,0-50.856-22.768-50.856-50.856s22.768-50.856,50.856-50.856s50.856,22.768,50.856,50.856S184.097,247.518,156.01,247.518z"/>
<polygon style="fill:#FF4B55;" points="156.01,164.07 165.136,180.856 184.236,180.367 174.262,196.663 184.236,212.959   165.136,212.469 156.01,229.255 146.885,212.469 127.784,212.959 137.758,196.663 127.784,180.367 146.885,180.856 "/>
<path style="fill:#2E3033;" d="M19.203,489.087L19.203,489.087C8.598,489.087,0,480.49,0,469.884V41.958  c0-10.519,8.527-19.045,19.045-19.045h0.158c10.606,0,19.203,8.598,19.203,19.203v427.768  C38.407,480.49,29.809,489.087,19.203,489.087z"/>
<g>
</g>
<g>
</g>
<g>
</g>
<g>
</g>
<g>
</g>
<g>
</g>
<g>
</g>
<g>
</g>
<g>
</g>
<g>
</g>
<g>
</g>
<g>
</g>
<g>
</g>
<g>
</g>
<g>
</g>
</svg>
