<?xml version="1.0" encoding="iso-8859-1"?>
<!-- Generator: Adobe Illustrator 19.0.0, SVG Export Plug-In . SVG Version: 6.00 Build 0)  -->
<svg xmlns="http://www.w3.org/2000/svg" xmlns:xlink="http://www.w3.org/1999/xlink" version="1.1" id="Layer_1" x="0px" y="0px" viewBox="0 0 512 512" style="enable-background:new 0 0 512 512;" xml:space="preserve">
<path style="fill:#41479B;" d="M503.524,374.657H28.871c-4.681,0-8.476-3.795-8.476-8.476V213.615H512v152.567  C512,370.862,508.205,374.657,503.524,374.657z"/>
<path style="fill:#FF4B55;" d="M28.871,52.572h474.653c4.681,0,8.476,3.795,8.476,8.476v152.567H20.395V61.048  C20.395,56.366,24.19,52.572,28.871,52.572z"/>
<polygon style="fill:#F5F5F5;" points="266.197,52.572 20.395,213.615 266.197,374.657 512,213.615 "/>
<path style="fill:#FFE15A;" d="M268.739,120.193l20.346,58.534l61.956,1.263c2.55,0.052,3.603,3.293,1.571,4.834l-49.382,37.438  l17.945,59.315c0.738,2.442-2.018,4.446-4.113,2.988l-50.866-35.395l-50.866,35.395c-2.095,1.457-4.851-0.546-4.113-2.988  l17.945-59.315l-49.382-37.438c-2.033-1.542-0.98-4.783,1.571-4.834l61.956-1.263l20.346-58.534  C264.493,117.784,267.902,117.784,268.739,120.193z"/>
<path style="fill:#2E3033;" d="M19.203,489.087L19.203,489.087C8.598,489.087,0,480.49,0,469.884V41.958  c0-10.519,8.527-19.045,19.045-19.045h0.158c10.606,0,19.203,8.598,19.203,19.203v427.768  C38.407,480.49,29.809,489.087,19.203,489.087z"/>
<g>
</g>
<g>
</g>
<g>
</g>
<g>
</g>
<g>
</g>
<g>
</g>
<g>
</g>
<g>
</g>
<g>
</g>
<g>
</g>
<g>
</g>
<g>
</g>
<g>
</g>
<g>
</g>
<g>
</g>
</svg>
