<?xml version="1.0" encoding="iso-8859-1"?>
<!-- Generator: Adobe Illustrator 19.0.0, SVG Export Plug-In . SVG Version: 6.00 Build 0)  -->
<svg xmlns="http://www.w3.org/2000/svg" xmlns:xlink="http://www.w3.org/1999/xlink" version="1.1" id="Layer_1" x="0px" y="0px" viewBox="0 0 512.1 512.1" style="enable-background:new 0 0 512.1 512.1;" xml:space="preserve">
<path style="fill:#41479B;" d="M512,215H27.1V64.5c0-4.6,3.7-8.4,8.4-8.4h468.2c4.6,0,8.4,3.7,8.4,8.4L512,215L512,215z"/>
<g>
	<path style="fill:#F5F5F5;" d="M27.1,215H512v150.5c0,4.6-3.7,8.4-8.4,8.4H35.4c-4.6,0-8.4-3.7-8.4-8.4L27.1,215L27.1,215z"/>
	<path style="fill:#F5F5F5;" d="M503.6,56.1h-50.2l-154.9,50.7V56.1h-58.1v50.7L85.6,56.1H35.4c-4.6,0-8.4,3.7-8.4,8.4v6.6l133,43.6   H27.1v41.8H160L27.1,200v15h58.5l154.9-50.7V215h58.1v-50.7L453.5,215H512v-15l-132.9-43.5H512v-41.8H379.1L512,71.1v-6.6   C512,59.9,508.3,56.1,503.6,56.1z"/>
</g>
<g>
	<rect x="27.1" y="123" style="fill:#FF4B55;" width="484.9" height="25.1"/>
	<rect x="257" y="56.1" style="fill:#FF4B55;" width="25.1" height="158.9"/>
</g>
<path style="fill:#FFE15A;" d="M312.4,121l-12.3,6.4l-4.9-11.3c-0.5-1.2-2.5-1.4-3.4-0.4l-10,11.7l-10.5-16.3  c-0.7-1.1-2.7-1.1-3.4,0l-10.5,16.3l-10-11.7c-0.9-1-2.9-0.8-3.4,0.4l-4.9,11.3l-12.3-6.4c-1.6-0.8-3.6,0.5-2.8,1.9l12,18.7h-0.5  c-1.4,0-2.5,0.9-2.5,2v5.5c0,1.1,1.1,2,2.5,2h68.2c1.4,0,2.5-0.9,2.5-2v-5.5c0-1.1-1.1-2-2.5-2h-0.5l12-18.7  C316,121.5,314,120.2,312.4,121z"/>
<g>
	<polygon style="fill:#FF4B55;" points="196.5,156.5 27.1,211.5 27.1,215 46.9,215 227.3,156.5  "/>
	<polygon style="fill:#FF4B55;" points="512,215 512,207.4 355.1,156.5 324.4,156.5 504.7,215  "/>
</g>
<g>
	<path style="fill:#41479B;" d="M511.9,261c-24.3,0-24.3-7.3-48.6-7.3c-24.3,0-24.3,7.3-48.5,7.3s-24.2-7.3-48.5-7.3   c-24.2,0-24.2,7.3-48.5,7.3c-24.2,0-24.2-7.3-48.5-7.3c-24.2,0-24.2,7.3-48.5,7.3s-24.2-7.3-48.5-7.3c-24.2,0-24.2,7.3-48.5,7.3   c-24.2,0-24.2-7.3-48.4-7.3S51.2,261,26.9,261v-22c24.2,0,24.2-7.3,48.5-7.3c24.2,0,24.2,7.3,48.4,7.3s24.2-7.3,48.5-7.3   c24.2,0,24.2,7.3,48.5,7.3s24.2-7.3,48.5-7.3s24.2,7.3,48.5,7.3c24.2,0,24.2-7.3,48.5-7.3c24.2,0,24.2,7.3,48.5,7.3   s24.3-7.3,48.5-7.3c24.3,0,24.3,7.3,48.6,7.3V261z"/>
	<path style="fill:#41479B;" d="M511.9,304.9c-24.3,0-24.3-7.3-48.6-7.3c-24.3,0-24.3,7.3-48.5,7.3s-24.2-7.3-48.5-7.3   c-24.2,0-24.2,7.3-48.5,7.3c-24.2,0-24.2-7.3-48.5-7.3c-24.2,0-24.2,7.3-48.5,7.3s-24.2-7.3-48.5-7.3c-24.2,0-24.2,7.3-48.5,7.3   c-24.2,0-24.2-7.3-48.4-7.3s-24.2,7.3-48.5,7.3V283c24.2,0,24.2-7.3,48.5-7.3c24.2,0,24.2,7.3,48.4,7.3s24.2-7.3,48.5-7.3   c24.2,0,24.2,7.3,48.5,7.3s24.2-7.3,48.5-7.3s24.2,7.3,48.5,7.3c24.2,0,24.2-7.3,48.5-7.3c24.2,0,24.2,7.3,48.5,7.3   s24.3-7.3,48.5-7.3c24.3,0,24.3,7.3,48.6,7.3V304.9z"/>
	<path style="fill:#41479B;" d="M511.9,348.8c-24.3,0-24.3-7.3-48.6-7.3c-24.3,0-24.3,7.3-48.5,7.3s-24.2-7.3-48.5-7.3   c-24.2,0-24.2,7.3-48.5,7.3c-24.2,0-24.2-7.3-48.5-7.3c-24.2,0-24.2,7.3-48.5,7.3s-24.2-7.3-48.5-7.3c-24.2,0-24.2,7.3-48.5,7.3   c-24.2,0-24.2-7.3-48.4-7.3s-24.2,7.3-48.5,7.3v-21.9c24.2,0,24.2-7.3,48.5-7.3c24.2,0,24.2,7.3,48.4,7.3s24.2-7.3,48.5-7.3   c24.2,0,24.2,7.3,48.5,7.3s24.2-7.3,48.5-7.3s24.2,7.3,48.5,7.3c24.2,0,24.2-7.3,48.5-7.3c24.2,0,24.2,7.3,48.5,7.3   s24.3-7.3,48.5-7.3c24.3,0,24.3,7.3,48.6,7.3V348.8z"/>
</g>
<g>
	<path style="fill:#FF4B55;" d="M211,114.7l-178.6-58c-3.1,1.2-5.4,4.2-5.4,7.8v0.4l153.2,49.7C180.3,114.7,211,114.7,211,114.7z"/>
	<path style="fill:#FF4B55;" d="M342,114.7L510.5,60c-1.5-2.3-3.9-3.9-6.9-3.9h-12l-180.3,58.5H342V114.7z"/>
</g>
<g>
	<path style="fill:#FFE15A;" d="M407.5,362.6c17.6-9,23.9-22.6,26.2-27.6c3.5-7.6,19.7-13.8,19.7-13.8s-20,0.1-30.7,14   c-9.9,12.8-27.6,13.9-44.7,23.7c-1.6-2.1-3.3-4.1-5.1-6l53.3-64.5l-64.5,53.3c-2.5-2.3-5.1-4.4-7.8-6.5c1.7-4.4,5.1-11.2,11.6-19   c12.8-15.1,13.4-30,13.6-35.6c0.3-8.4,12.9-20.3,12.9-20.3s-18.4,7.7-23,24.6c-4.2,15.6-20.2,23.4-32.2,39c-2.3-1.3-4.6-2.5-7-3.6   l24.5-80l-39.2,73.9c-3.2-1.1-6.4-2.1-9.7-3c-0.1-4.7,0.4-12.3,3.5-22c6-18.8,0.9-32.9-1-38.1c-2.9-7.9,4.1-23.6,4.1-23.6   s-14.1,14.2-11.8,31.6c2.1,16-9.7,29.3-14.9,48.3c-2.6-0.3-5.2-0.5-7.8-0.7l-7.9-83.3l-7.9,83.3c-3.4,0.2-6.8,0.5-10.1,1   c-1.9-4.3-4.4-11.5-5.2-21.7c-1.6-19.7-11.8-30.7-15.5-34.8c-5.7-6.1-5.2-23.4-5.2-23.4s-7.6,18.5,1.2,33.7c8,14,2.3,30.8,4.8,50.3   c-2.5,0.7-5,1.5-7.5,2.4L185,240.3l24.5,80c-3.1,1.5-6,3.1-9,4.8c-3.4-3.3-8.5-9-13.1-18c-9-17.6-22.6-23.9-27.6-26.2   c-7.6-3.5-13.8-19.7-13.8-19.7s0.1,20,14,30.7c12.8,9.9,13.9,27.6,23.7,44.7c-2.1,1.6-4.1,3.3-6,5.1l-64.5-53.3l53.3,64.5   c-2.3,2.5-4.4,5.1-6.5,7.8c-4.4-1.7-11.2-5.1-19-11.6c-15.1-12.8-30-13.4-35.6-13.6c-8.4-0.3-20.3-12.9-20.3-12.9s7.7,18.4,24.6,23   c14,3.8,21.7,17,34.4,28.4h247.4C394.8,370.6,399.9,366.5,407.5,362.6z"/>
	<polygon style="fill:#FFE15A;" points="448.4,373.9 474.2,360.1 429.5,373.9  "/>
	<polygon style="fill:#FFE15A;" points="64.8,360.1 90.7,373.9 109.5,373.9  "/>
</g>
<path style="fill:#2E3033;" d="M19.2,489.1L19.2,489.1C8.6,489.1,0,480.5,0,469.9V42c0-10.5,8.5-19,19-19h0.2  c10.6,0,19.2,8.6,19.2,19.2v427.7C38.4,480.5,29.8,489.1,19.2,489.1z"/>
<g>
</g>
<g>
</g>
<g>
</g>
<g>
</g>
<g>
</g>
<g>
</g>
<g>
</g>
<g>
</g>
<g>
</g>
<g>
</g>
<g>
</g>
<g>
</g>
<g>
</g>
<g>
</g>
<g>
</g>
</svg>
