<?xml version="1.0" encoding="iso-8859-1"?>
<!-- Generator: Adobe Illustrator 19.0.0, SVG Export Plug-In . SVG Version: 6.00 Build 0)  -->
<svg xmlns="http://www.w3.org/2000/svg" xmlns:xlink="http://www.w3.org/1999/xlink" version="1.1" id="Layer_1" x="0px" y="0px" viewBox="0 0 512 512" style="enable-background:new 0 0 512 512;" xml:space="preserve">
<path style="fill:#F5F5F5;" d="M503.525,374.645H28.924c-4.68,0-8.475-3.795-8.475-8.475V61.069c0-4.68,3.795-8.475,8.475-8.475  h474.601c4.68,0,8.475,3.795,8.475,8.475V366.17C512,370.85,508.205,374.645,503.525,374.645z"/>
<g>
	<path style="fill:#464655;" d="M266.224,213.62V52.594h-237.3c-2.06,0-3.879,0.825-5.349,2.049L266.224,213.62z"/>
	<path style="fill:#464655;" d="M508.873,54.642L266.224,213.62h245.775V61.069C512,58.45,510.741,56.196,508.873,54.642z"/>
	<path style="fill:#464655;" d="M23.574,372.596l242.649-158.978H20.448v152.55C20.448,368.79,21.707,371.043,23.574,372.596z"/>
	<path style="fill:#464655;" d="M266.224,213.62v161.025h237.3c2.06,0,3.879-0.825,5.349-2.049L266.224,213.62z"/>
</g>
<path style="fill:#FF4B55;" d="M286.564,201.755v27.12c0,11.216-9.124,20.34-20.34,20.34s-20.34-9.124-20.34-20.34v-27.12H286.564   M293.344,188.195h-54.24c-3.745,0-6.78,3.035-6.78,6.78v33.9c0,18.722,15.178,33.9,33.9,33.9s33.9-15.178,33.9-33.9v-33.9  C300.124,191.23,297.088,188.195,293.344,188.195L293.344,188.195z"/>
<path style="fill:#F5F5F5;" d="M286.564,201.755v27.12c0,11.216-9.124,20.34-20.34,20.34s-20.34-9.124-20.34-20.34v-27.12H286.564"/>
<g>
	<circle style="fill:#FFE15A;" cx="239.05" cy="194.98" r="3.39"/>
	<circle style="fill:#FFE15A;" cx="293.29" cy="194.98" r="3.39"/>
	<circle style="fill:#FFE15A;" cx="239.05" cy="222.1" r="3.39"/>
	<circle style="fill:#FFE15A;" cx="293.29" cy="222.1" r="3.39"/>
	<circle style="fill:#FFE15A;" cx="266.17" cy="194.98" r="3.39"/>
	<circle style="fill:#FFE15A;" cx="266.17" cy="256.26" r="3.39"/>
	<circle style="fill:#FFE15A;" cx="286.52" cy="247.1" r="3.39"/>
	<circle style="fill:#FFE15A;" cx="246.22" cy="247.1" r="3.39"/>
</g>
<g>
	<path style="fill:#41479B;" d="M270.603,220.376v5.838c0,2.414-1.964,4.378-4.378,4.378s-4.378-1.964-4.378-4.378v-5.838H270.603"/>
	<path style="fill:#41479B;" d="M270.603,206.533v5.838c0,2.414-1.964,4.378-4.378,4.378s-4.378-1.964-4.378-4.378v-5.838H270.603"/>
	<path style="fill:#41479B;" d="M270.603,234.36v5.838c0,2.414-1.964,4.378-4.378,4.378s-4.378-1.964-4.378-4.378v-5.838H270.603"/>
	<path style="fill:#41479B;" d="M282.397,220.376v5.838c0,2.414-1.964,4.378-4.378,4.378s-4.378-1.964-4.378-4.378v-5.838H282.397"/>
	<path style="fill:#41479B;" d="M258.808,220.376v5.838c0,2.414-1.964,4.378-4.378,4.378c-2.414,0-4.378-1.964-4.378-4.378v-5.838   H258.808"/>
</g>
<path style="fill:#FFE15A;" d="M299.045,188.195h-65.307c-2.202,0-3.989-1.786-3.989-3.989v-2.493c0-2.202,1.786-3.989,3.989-3.989  h65.307c2.202,0,3.989,1.786,3.989,3.989v2.493C303.034,186.408,301.248,188.195,299.045,188.195z"/>
<polygon style="fill:#FF4B55;" points="266.392,180.342 261.157,182.96 266.392,185.577 271.626,182.96 "/>
<g>
	<ellipse style="fill:#4173CD;" cx="283.4" cy="182.97" rx="3.926" ry="2.618"/>
	<ellipse style="fill:#4173CD;" cx="249.38" cy="182.97" rx="3.926" ry="2.618"/>
</g>
<g>
	<circle style="fill:#F5F5F5;" cx="275.56" cy="182.97" r="1.308"/>
	<circle style="fill:#F5F5F5;" cx="291.25" cy="182.97" r="1.308"/>
	<circle style="fill:#F5F5F5;" cx="257.23" cy="182.97" r="1.308"/>
	<circle style="fill:#F5F5F5;" cx="241.53" cy="182.97" r="1.308"/>
</g>
<g>
	<polygon style="fill:#FF4B55;" points="229.749,181.651 229.749,184.269 232.367,185.577 237.601,182.96 232.367,180.342  "/>
	<polygon style="fill:#FF4B55;" points="303.034,184.269 303.034,181.651 300.416,180.342 295.182,182.96 300.416,185.577  "/>
</g>
<g>
	<path style="fill:#F5F5F5;" d="M248.974,160.701c-0.835-0.411-1.827-0.158-2.663,0.488c0.429-0.635,0.675-1.481,0.628-2.402   c-0.095-1.872-1.343-3.331-2.786-3.257c-1.443,0.074-2.536,1.651-2.442,3.522c0.051,0.995,0.439,1.851,0.997,2.444   c-1.127-0.55-2.36-0.497-3.114,0.257c-1.022,1.021-0.777,2.925,0.55,4.25c1.325,1.326,3.229,1.572,4.251,0.55   c0.285-0.285,0.449-0.646,0.54-1.038c0.209,0.548,0.53,1.022,1.039,1.273c1.297,0.639,3.019-0.207,3.848-1.888   C250.651,163.22,250.27,161.339,248.974,160.701z M245.126,162.588c-0.192,0.39-0.304,0.789-0.371,1.182   c-0.195-0.516-0.469-1.024-0.911-1.467c-0.076-0.076-0.168-0.112-0.249-0.182c0.287,0.119,0.586,0.203,0.902,0.188   c0.424-0.022,0.8-0.202,1.142-0.451C245.458,162.088,245.265,162.308,245.126,162.588z"/>
	<path style="fill:#F5F5F5;" d="M282.626,164.902c0.828,1.681,2.551,2.527,3.848,1.888c0.51-0.251,0.831-0.727,1.039-1.273   c0.092,0.391,0.255,0.752,0.54,1.038c1.022,1.022,2.925,0.777,4.251-0.55c1.325-1.325,1.572-3.229,0.55-4.25   c-0.754-0.754-1.986-0.807-3.113-0.257c0.558-0.593,0.946-1.449,0.997-2.444c0.095-1.872-0.998-3.449-2.442-3.522   s-2.691,1.385-2.786,3.257c-0.047,0.922,0.199,1.767,0.628,2.402c-0.836-0.646-1.828-0.899-2.663-0.488   C282.177,161.339,281.797,163.22,282.626,164.902z M286.808,161.857c0.342,0.25,0.718,0.43,1.142,0.451   c0.316,0.016,0.614-0.069,0.902-0.188c-0.079,0.069-0.173,0.106-0.249,0.182c-0.442,0.442-0.716,0.951-0.911,1.467   c-0.066-0.393-0.178-0.793-0.371-1.182C287.183,162.308,286.99,162.088,286.808,161.857z"/>
</g>
<path style="fill:#FFE15A;" d="M313.991,153.012c-3.77-1.342-11.701-2.061-14.72,4.793c-0.583,1.324,0.017,2.868,1.339,3.45  c1.279,0.565,2.748,0.005,3.373-1.23l0.986,1.169c-0.825,2.32-1.157,4.395-1.25,5.109c-1.346,5.582-6.529,6.188-8.707,6.188  c-3.513,0-5.499-3.765-5.518-3.803c-0.358-0.693-1.012-1.196-1.776-1.362c-0.766-0.166-1.565,0.011-2.178,0.49  c-1.434,1.127-5.895,4.172-9.261,4.708c-1.623,0.261-2.947-0.011-3.841-0.777c-0.725-0.619-0.981-1.395-0.981-1.873  c0-1.173,1.443-2.618,2.618-2.618c0.89,0,1.231,0.57,1.231,0.57c0.621,1.314,2.182,1.869,3.487,1.252  c1.307-0.621,1.865-2.18,1.246-3.486c-0.507-1.073-1.907-2.729-4.205-3.329c1.396-2.215,2.679-4.909,3.476-8.094l-7.852-2.618  c0,0,2.618-7.852-5.234-7.852s-5.234,7.852-5.234,7.852l-7.852,2.618c0.797,3.184,2.079,5.878,3.475,8.094  c-2.298,0.6-3.697,2.255-4.205,3.329c-0.619,1.306-0.061,2.866,1.246,3.486c1.305,0.615,2.867,0.061,3.485-1.247  c0,0,0.344-0.575,1.233-0.575c1.175,0,2.618,1.444,2.618,2.618c0,0.478-0.256,1.255-0.981,1.873  c-0.894,0.767-2.218,1.038-3.841,0.777c-3.367-0.537-7.828-3.581-9.261-4.708c-0.613-0.481-1.412-0.657-2.178-0.49  c-0.763,0.166-1.417,0.67-1.776,1.362c-0.019,0.038-2.005,3.803-5.518,3.803c-2.178,0-7.359-0.606-8.707-6.188  c-0.092-0.714-0.424-2.789-1.249-5.109l0.986-1.169c0.625,1.236,2.094,1.795,3.373,1.23c1.323-0.583,1.922-2.126,1.339-3.45  c-3.018-6.852-10.95-6.134-14.72-4.793c-1.079,0.383-1.785,1.424-1.741,2.569c0.043,1.145,0.828,2.126,1.934,2.426  c3.207,0.861,4.645,6.991,4.896,9.068c0.012,0.089,0.029,0.184,0.048,0.273c1.463,6.4,6.767,10.378,13.839,10.378  c4.054,0,6.856-2.296,8.483-4.197c2.292,1.511,5.982,3.617,9.426,4.163c0.661,0.105,1.307,0.159,1.939,0.159  c2.365,0,4.492-0.729,6.124-2.122c1.765-1.505,2.818-3.696,2.818-5.855c0,2.16,1.053,4.35,2.818,5.855  c1.631,1.393,3.76,2.122,6.124,2.122c0.631,0,1.278-0.054,1.939-0.159c3.444-0.547,7.134-2.653,9.426-4.163  c1.627,1.902,4.429,4.197,8.483,4.197c7.072,0,12.376-3.977,13.839-10.378c0.019-0.089,0.036-0.184,0.048-0.273  c0.25-2.079,1.69-8.207,4.895-9.068c1.107-0.299,1.891-1.281,1.934-2.426C315.776,154.435,315.07,153.395,313.991,153.012z"/>
<g>
	
		<ellipse transform="matrix(-0.9237 0.3831 -0.3831 -0.9237 489.6569 226.525)" style="fill:#4173CD;" cx="222.272" cy="162.02" rx="2.618" ry="3.926"/>
	
		<ellipse transform="matrix(0.9237 0.3831 -0.3831 0.9237 85.7365 -106.4701)" style="fill:#4173CD;" cx="310.182" cy="162.023" rx="2.618" ry="3.926"/>
	<ellipse style="fill:#4173CD;" cx="266.22" cy="159.41" rx="3.926" ry="5.234"/>
</g>
<path style="fill:#2E3033;" d="M19.201,489.063L19.201,489.063C8.597,489.063,0,480.466,0,469.862V41.982  c0-10.517,8.526-19.044,19.043-19.044h0.158c10.604,0,19.201,8.597,19.201,19.201v427.723  C38.402,480.466,29.806,489.063,19.201,489.063z"/>
<g>
</g>
<g>
</g>
<g>
</g>
<g>
</g>
<g>
</g>
<g>
</g>
<g>
</g>
<g>
</g>
<g>
</g>
<g>
</g>
<g>
</g>
<g>
</g>
<g>
</g>
<g>
</g>
<g>
</g>
</svg>
