<?xml version="1.0" encoding="iso-8859-1"?>
<!-- Generator: Adobe Illustrator 19.0.0, SVG Export Plug-In . SVG Version: 6.00 Build 0)  -->
<svg xmlns="http://www.w3.org/2000/svg" xmlns:xlink="http://www.w3.org/1999/xlink" version="1.1" id="Layer_1" x="0px" y="0px" viewBox="0 0 512.002 512.002" style="enable-background:new 0 0 512.002 512.002;" xml:space="preserve">
<path style="fill:#FF4B55;" d="M503.7,373.901h-468c-4.7,0-8.4-3.8-8.4-8.4v-300.8c0-4.7,3.8-8.4,8.4-8.4h467.9  c4.7,0,8.4,3.8,8.4,8.4v300.8C512.1,370.101,508.3,373.901,503.7,373.901z"/>
<path style="fill:#F5F5F5;" d="M361.6,181.601h-58.5v-58.6c0-4.6-3.7-8.4-8.4-8.4h-50.2c-4.6,0-8.4,3.7-8.4,8.4v58.5h-58.5  c-4.6,0-8.4,3.7-8.4,8.4v50.2c0,4.6,3.7,8.4,8.4,8.4h58.5v58.5c0,4.6,3.7,8.4,8.4,8.4h50.2c4.6,0,8.4-3.7,8.4-8.4v-58.5h58.5  c4.6,0,8.4-3.7,8.4-8.4v-50.2C370,185.301,366.2,181.601,361.6,181.601z"/>
<path style="fill:#2E3033;" d="M19.1,488.001L19.1,488.001c-10.5,0-19.1-8.6-19.1-19.1v-425.9c0-10.5,8.5-19,19-19h0.2  c10.6,0,19.1,8.6,19.1,19.1v425.8C38.2,479.401,29.7,488.001,19.1,488.001z"/>
<g>
</g>
<g>
</g>
<g>
</g>
<g>
</g>
<g>
</g>
<g>
</g>
<g>
</g>
<g>
</g>
<g>
</g>
<g>
</g>
<g>
</g>
<g>
</g>
<g>
</g>
<g>
</g>
<g>
</g>
</svg>
