<?xml version="1.0" encoding="iso-8859-1"?>
<!-- Generator: Adobe Illustrator 19.0.0, SVG Export Plug-In . SVG Version: 6.00 Build 0)  -->
<svg xmlns="http://www.w3.org/2000/svg" xmlns:xlink="http://www.w3.org/1999/xlink" version="1.1" id="Layer_1" x="0px" y="0px" viewBox="0 0 512 512" style="enable-background:new 0 0 512 512;" xml:space="preserve">
<path style="fill:#F5F5F5;" d="M503.524,374.657H28.871c-4.681,0-8.476-3.795-8.476-8.476V61.048c0-4.681,3.795-8.476,8.476-8.476  h474.653c4.681,0,8.476,3.795,8.476,8.476v305.133C512,370.862,508.205,374.657,503.524,374.657z"/>
<path style="fill:#464655;" d="M156.975,230.264c0,0,0.235,4.495-3.55,8.517c-3.786,4.024-1.893,9.229,3.077,11.596  c0,0-3.43,8.163,1.657,11.594c3.211,2.168,7.572,1.893,7.572,1.893s2.367,9.703,0.474,15.853  c-1.893,6.152,0.71,23.899,44.012,13.725c0,0,0.393,11.358,17.746,20.192c17.351,8.834,13.953,29.76,13.953,29.76  s23.885,13.828,50.283-18.857c26.399-32.684,28.284-37.084,47.141-44.627c0,0-29.542-30.17-18.856-56.569  c1.407-3.479,2.997-7.13,4.655-10.884c3.059,9.936,9.102,24.445,19.897,32.883c3.359,2.613,7.503,3.437,11.51,4.242  c4.302,0.865,8.014,1.61,9.762,4.262c1.537,2.362,1.677,6.529,0.488,12.293c-12.836,14.002-25.24,17.734-25.414,17.778l-2.986,0.805  l6.275,20.698l-18.729,17.23l0.334,1.67c2.318,11.55,9.447,13.082,12.394,13.219c0.177,0,0.354,0.02,0.531,0.02  c6.816,0,13.749-5.735,15.95-13.298c3.811-13.061,16.244-14.554,16.382-14.554l1.886-0.216l0.628-1.787  c0.275-0.786,6.737-19.407,9.919-38.38c1.279-7.675,1.522-13.784,1.262-19.129c0.099-0.184,0.211-0.287,0.309-0.474l-0.324-0.17  c-1.2-20.231-12.174-25.615-23.011-30.61c-9.239-4.289-12.865-8.454-14.66-11.756c0.373,0.01,0.69,0.108,1.068,0.108  c2.946,0,6.05-0.334,9.192-1.217c8.76-2.436,15.851-8.426,21.075-17.795c3.182-5.735,26.851-70.672,29.542-78.057l1.866-5.127  l-30.554,6.521l2.328-18.581L342.461,107l0.943,2.829c0.138,0.373,12.748,38.243,11.529,61.361  c-0.334,6.07-2.239,10.469-5.716,13.061c-4.37,3.228-10.295,3.057-13.389,2.723c6.892-18.311,11.336-37.55,4.766-54.775  c-10.884-28.537-59.084-54.683-95.539-50.912c-36.455,3.772-66.67,12.58-76.726,49.036c-10.057,36.456-7.253,46.088-5.996,52.373  s-22.421,34.03-18.14,42.594C147.036,230.974,156.975,230.264,156.975,230.264z M331.722,197.295  c0.634-1.495,1.267-2.984,1.883-4.498c1.117,0.199,2.772,0.434,5.205,0.434c4.125,0,9.526-0.786,14.024-4.145  c4.969-3.712,7.699-9.624,8.113-17.579c1.12-20.742-7.915-51.325-10.901-60.772l24.827-8.741l-6.03,48.162l5.971,0.746l4.128-32.954  l21.957-4.68c-10.469,28.677-25.181,68.295-27.283,72.067c-4.419,7.915-10.292,12.944-17.442,14.928  C345.437,203.309,335.209,199.007,331.722,197.295z M346.617,311.836l3.064,10.111c-0.078,0.246-0.229,0.376-0.302,0.628  c-1.433,4.911-6.05,8.937-10.155,8.937c-0.099,0-0.196,0-0.275,0c-3.732-0.157-5.52-3.791-6.364-6.756L346.617,311.836z   M379.057,259.666c-0.243,2.71-0.505,5.455-1.042,8.677c-2.553,15.262-7.464,30.74-9.114,35.709  c-3.379,0.79-10.351,3.18-15.328,9.934l-7.673-25.255C352.018,286.301,366.346,278.272,379.057,259.666z M329.051,203.593  c0.116-0.263,0.229-0.503,0.341-0.766c2.268,1.075,6.096,2.656,11.203,3.653c1.419,4.223,4.743,11.289,19.075,17.923  c9.939,4.589,18.298,8.48,19.629,23.841c-1.876,3.45-3.931,5.846-5.934,8.679c-0.292-2.44-0.859-4.631-2.009-6.376  c-3.142-4.773-8.702-5.893-13.631-6.875c-3.476-0.707-6.756-1.355-8.976-3.084C336.066,230.685,330.63,210.554,329.051,203.593z   M172.12,159.038c0,0,0.945-21.295,10.413-39.28l144.815,67.202l-12.306,26.502L172.12,159.038z"/>
<path style="fill:#2E3033;" d="M19.203,489.087L19.203,489.087C8.598,489.087,0,480.49,0,469.884V41.958  c0-10.519,8.527-19.045,19.045-19.045h0.158c10.606,0,19.203,8.598,19.203,19.203v427.768  C38.407,480.49,29.809,489.087,19.203,489.087z"/>
<g>
</g>
<g>
</g>
<g>
</g>
<g>
</g>
<g>
</g>
<g>
</g>
<g>
</g>
<g>
</g>
<g>
</g>
<g>
</g>
<g>
</g>
<g>
</g>
<g>
</g>
<g>
</g>
<g>
</g>
</svg>
