<?xml version="1.0" encoding="iso-8859-1"?>
<!-- Generator: Adobe Illustrator 19.0.0, SVG Export Plug-In . SVG Version: 6.00 Build 0)  -->
<svg xmlns="http://www.w3.org/2000/svg" xmlns:xlink="http://www.w3.org/1999/xlink" version="1.1" id="Layer_1" x="0px" y="0px" viewBox="0 0 512.001 512.001" style="enable-background:new 0 0 512.001 512.001;" xml:space="preserve">
<path style="fill:#41479B;" d="M503.602,373.59H36.488c-4.638,0-8.398-3.76-8.398-8.398V64.942c0-4.638,3.76-8.398,8.398-8.398  h467.115c4.638,0,8.398,3.76,8.398,8.398v300.249C512,369.83,508.241,373.59,503.602,373.59z"/>
<rect x="28.09" y="273.47" style="fill:#FFE15A;" width="483.91" height="41.717"/>
<g>
	<path style="fill:#F5F5F5;" d="M140.509,134.605l-8.206,24.606l-25.937,0.2c-2.487,0.019-3.519,3.193-1.518,4.671l20.866,15.408   l-7.824,24.73c-0.751,2.371,1.949,4.333,3.973,2.887l21.102-15.083l21.102,15.083c2.024,1.447,4.724-0.515,3.973-2.887   l-7.824-24.73l20.866-15.408c2.001-1.478,0.97-4.651-1.518-4.671l-25.937-0.202l-8.207-24.606   C144.634,132.245,141.296,132.245,140.509,134.605z"/>
	<path style="fill:#F5F5F5;" d="M81.389,89.198l-4.75,14.242l-15.013,0.117c-1.439,0.012-2.036,1.849-0.879,2.704l12.077,8.919   l-4.529,14.314c-0.435,1.373,1.128,2.508,2.3,1.671l12.214-8.731l12.214,8.731c1.172,0.838,2.735-0.298,2.3-1.671l-4.529-14.314   l12.077-8.919c1.158-0.856,0.562-2.693-0.879-2.704L88.98,103.44l-4.75-14.242C83.776,87.833,81.844,87.833,81.389,89.198z"/>
</g>
<path style="fill:#2E3033;" d="M19.026,486.943L19.026,486.943C8.519,486.943,0,478.424,0,467.916V43.928  c0-10.422,8.448-18.87,18.87-18.87h0.156c10.508,0,19.026,8.519,19.026,19.026v423.831  C38.053,478.424,29.534,486.943,19.026,486.943z"/>
<g>
</g>
<g>
</g>
<g>
</g>
<g>
</g>
<g>
</g>
<g>
</g>
<g>
</g>
<g>
</g>
<g>
</g>
<g>
</g>
<g>
</g>
<g>
</g>
<g>
</g>
<g>
</g>
<g>
</g>
</svg>
