<?xml version="1.0" encoding="iso-8859-1"?>
<!-- Generator: Adobe Illustrator 19.0.0, SVG Export Plug-In . SVG Version: 6.00 Build 0)  -->
<svg xmlns="http://www.w3.org/2000/svg" xmlns:xlink="http://www.w3.org/1999/xlink" version="1.1" id="Layer_1" x="0px" y="0px" viewBox="0 0 512 512" style="enable-background:new 0 0 512 512;" xml:space="preserve">
<path style="fill:#464655;" d="M512,161.95H27v-97.4c0-4.7,3.8-8.4,8.4-8.4h468.1c4.7,0,8.4,3.8,8.4,8.4v97.4H512z"/>
<path style="fill:#FFE15A;" d="M503.6,373.85H35.4c-4.7,0-8.4-3.8-8.4-8.4v-97.5h485v97.5C512,370.05,508.2,373.85,503.6,373.85z"/>
<rect x="27" y="161.95" style="fill:#FF4B55;" width="485" height="105.9"/>
<path style="fill:#2E3033;" d="M19.7,494.85L19.7,494.85c-10.9,0-19.7-8.8-19.7-19.7V36.65c0-10.8,8.7-19.5,19.5-19.5h0.2  c10.9,0,19.7,8.8,19.7,19.7v438.4C39.4,486.05,30.5,494.85,19.7,494.85z"/>
<g>
</g>
<g>
</g>
<g>
</g>
<g>
</g>
<g>
</g>
<g>
</g>
<g>
</g>
<g>
</g>
<g>
</g>
<g>
</g>
<g>
</g>
<g>
</g>
<g>
</g>
<g>
</g>
<g>
</g>
</svg>
