<?xml version="1.0" encoding="iso-8859-1"?>
<!-- Generator: Adobe Illustrator 19.0.0, SVG Export Plug-In . SVG Version: 6.00 Build 0)  -->
<svg xmlns="http://www.w3.org/2000/svg" xmlns:xlink="http://www.w3.org/1999/xlink" version="1.1" id="Layer_1" x="0px" y="0px" viewBox="0 0 512.001 512.001" style="enable-background:new 0 0 512.001 512.001;" xml:space="preserve">
<path style="fill:#F5F5F5;" d="M31.168,377.847l238.877-156.505L31.168,64.835c-1.839,1.531-3.078,3.748-3.078,6.327V371.52  C28.09,374.101,29.329,376.318,31.168,377.847z"/>
<path style="fill:#73AF00;" d="M31.168,377.847c1.447,1.204,3.236,2.017,5.265,2.017h467.225c4.608,0,8.343-3.736,8.343-8.343  V221.342H270.045L31.168,377.847z"/>
<path style="fill:#82AFFF;" d="M31.168,64.835c1.447-1.204,3.236-2.017,5.265-2.017h467.225c4.608,0,8.343,3.736,8.343,8.343v150.18  H270.045L31.168,64.835z"/>
<path style="fill:#FF4B55;" d="M114.82,183.663l-8.449,25.335l-26.706,0.207c-1.464,0.012-2.071,1.88-0.893,2.749l21.485,15.866  l-8.056,25.463c-0.442,1.396,1.148,2.551,2.339,1.7l21.727-15.531l21.727,15.531c1.191,0.851,2.781-0.303,2.339-1.7l-8.056-25.463  l21.485-15.866c1.178-0.87,0.571-2.739-0.893-2.749l-26.706-0.207l-8.449-25.335C117.248,182.274,115.284,182.274,114.82,183.663z"/>
<path style="fill:#2E3033;" d="M19.026,486.943L19.026,486.943C8.519,486.943,0,478.425,0,467.917V43.929  c0-10.422,8.448-18.871,18.87-18.871h0.156c10.508,0,19.026,8.519,19.026,19.026v423.831  C38.053,478.425,29.534,486.943,19.026,486.943z"/>
<g>
</g>
<g>
</g>
<g>
</g>
<g>
</g>
<g>
</g>
<g>
</g>
<g>
</g>
<g>
</g>
<g>
</g>
<g>
</g>
<g>
</g>
<g>
</g>
<g>
</g>
<g>
</g>
<g>
</g>
</svg>
