<?xml version="1.0" encoding="iso-8859-1"?>
<!-- Generator: Adobe Illustrator 19.0.0, SVG Export Plug-In . SVG Version: 6.00 Build 0)  -->
<svg xmlns="http://www.w3.org/2000/svg" xmlns:xlink="http://www.w3.org/1999/xlink" version="1.1" id="Layer_1" x="0px" y="0px" viewBox="0 0 512.1 512.1" style="enable-background:new 0 0 512.1 512.1;" xml:space="preserve">
<path style="fill:#73AF00;" d="M503.6,373.9H35.4c-4.6,0-8.4-3.7-8.4-8.4v-301c0-4.6,3.7-8.4,8.4-8.4h468.3c4.6,0,8.4,3.7,8.4,8.4  v301C512,370.1,508.3,373.9,503.6,373.9z"/>
<rect x="27" y="181.6" style="fill:#FFE15A;" width="485" height="22.3"/>
<rect x="27" y="203.9" style="fill:#464655;" width="485" height="22.3"/>
<rect x="27" y="226.1" style="fill:#F5F5F5;" width="485" height="22.3"/>
<rect x="236.1" y="56.1" style="fill:#FFE15A;" width="22.3" height="317.8"/>
<rect x="258.3" y="56.1" style="fill:#464655;" width="22.3" height="317.8"/>
<rect x="280.6" y="56.1" style="fill:#F5F5F5;" width="22.3" height="317.8"/>
<circle style="fill:#FF4B55;" cx="269.5" cy="215" r="83.6"/>
<path style="fill:#73AF00;" d="M262.3,229.4c0,0-1,6.8,5.7,17h12.9l-2.9-12.3L262.3,229.4z"/>
<path style="fill:#A561CD;" d="M261.4,183.6c0,0-21.1,34.5,9.9,55.1l3.3-19.5l2.1-25.3l-3.3-10.8L261.4,183.6z"/>
<path style="fill:#73AF00;" d="M261.4,183.6c0,0-2.4,4-4.4,10.1c2.7,2.8,10.1,6.4,19.3,4.8l0.4-4.6l-3.3-10.8L261.4,183.6z"/>
<path style="fill:#A561CD;" d="M257.4,178.7c0,0,0.3-6.9,7-6.9c8.5,0,15.4,2,26.3,24.6c0,0-9.7,9.5-15.9-3.6  c-1.8-3.9-2.5-8.6-2.5-8.6s-7.6,2.6-12.8-0.4L257.4,178.7z"/>
<path style="fill:#FFE15A;" d="M260.8,181.9l-1.6-4.2c0,0-8.7-1.4-5.1,9.1c0,0,0.3-2.1,2.5-1.8C258.8,185.3,261.1,183.6,260.8,181.9  z"/>
<g>
	<path style="fill:#73AF00;" d="M275.3,221.5c0,0-9.2,7.2-4,24.1c2.7,9,13.7,18.8,13.7,18.8s8.1-21.2,5.5-29.4   C288.9,230.2,275.3,221.5,275.3,221.5z"/>
	<path style="fill:#73AF00;" d="M292.8,248.7c0,0-23.7-22.6-25.3-40.4s8.7-15,10.5-13.8C282.5,197.3,293.7,208.7,292.8,248.7z"/>
</g>
<path style="fill:#B34900;" d="M289.8,253.9h-39.2c-0.8,0-1.5-0.7-1.5-1.5v-2.9c0-0.8,0.7-1.5,1.5-1.5h39.2c0.8,0,1.5,0.7,1.5,1.5  v2.9C291.3,253.2,290.7,253.9,289.8,253.9z"/>
<path style="fill:#FFE15A;" d="M280.3,248.3c-1.4,0.6-4.1,1.3-3.4,3.7c0.5,1.9,4.1,1.7,3.4,3.8c-0.5,1.5-7.7,1.6-10.5,1.2  c-1.7-0.3-5.5-1.3-4.9-5.6c0.5-4.3,2.1-5,4-5.7c1.9-0.8,10.4-0.6,11.7,0.5C281.1,246.7,281.3,247.9,280.3,248.3z"/>
<g>
	<path style="fill:#73AF00;" d="M270.3,140.3l1.9,5.7h6c0.8,0,1.1,1,0.5,1.5l-4.8,3.6l1.8,5.7c0.2,0.7-0.6,1.4-1.2,0.9l-4.9-3.5   l-4.9,3.5c-0.6,0.5-1.5-0.2-1.2-0.9l1.8-5.7l-4.8-3.6c-0.6-0.5-0.3-1.5,0.5-1.5h6l1.9-5.7C269,139.6,270,139.6,270.3,140.3z"/>
	<path style="fill:#73AF00;" d="M270.3,273.7l1.9,5.7h6c0.8,0,1.1,1,0.5,1.5l-4.8,3.6l1.8,5.7c0.2,0.7-0.6,1.4-1.2,0.9l-4.9-3.5   l-4.9,3.5c-0.6,0.5-1.5-0.2-1.2-0.9l1.8-5.7l-4.8-3.6c-0.6-0.5-0.3-1.5,0.5-1.5h6l1.9-5.7C269,273,270,273,270.3,273.7z"/>
	<path style="fill:#73AF00;" d="M270.3,140.3l1.9,5.7h6c0.8,0,1.1,1,0.5,1.5l-4.8,3.6l1.8,5.7c0.2,0.7-0.6,1.4-1.2,0.9l-4.9-3.5   l-4.9,3.5c-0.6,0.5-1.5-0.2-1.2-0.9l1.8-5.7l-4.8-3.6c-0.6-0.5-0.3-1.5,0.5-1.5h6l1.9-5.7C269,139.6,270,139.6,270.3,140.3z"/>
	<path style="fill:#73AF00;" d="M270.3,273.7l1.9,5.7h6c0.8,0,1.1,1,0.5,1.5l-4.8,3.6l1.8,5.7c0.2,0.7-0.6,1.4-1.2,0.9l-4.9-3.5   l-4.9,3.5c-0.6,0.5-1.5-0.2-1.2-0.9l1.8-5.7l-4.8-3.6c-0.6-0.5-0.3-1.5,0.5-1.5h6l1.9-5.7C269,273,270,273,270.3,273.7z"/>
	<path style="fill:#73AF00;" d="M223.8,154l1.7,5.8l-4.9,3.4c-0.6,0.4-0.3,1.4,0.4,1.5l6,0.2l1.8,5.8c0.2,0.7,1.3,0.8,1.5,0l2-5.7   l6,0.1c0.8,0,1.1-1,0.5-1.4l-4.7-3.7l2-5.7c0.3-0.7-0.6-1.4-1.2-0.9l-5,3.4l-4.8-3.6C224.4,152.6,223.6,153.2,223.8,154z"/>
	<path style="fill:#73AF00;" d="M299.4,263.9l1.7,5.8l-4.9,3.4c-0.6,0.4-0.3,1.4,0.4,1.5l6,0.2l1.8,5.8c0.2,0.7,1.3,0.8,1.5,0l2-5.7   l6,0.1c0.8,0,1.1-1,0.5-1.4l-4.7-3.7l2-5.7c0.3-0.7-0.6-1.4-1.2-0.9l-5,3.4l-4.8-3.6C300.1,262.6,299.2,263.2,299.4,263.9z"/>
	<path style="fill:#73AF00;" d="M195.5,192.3l4.8,3.6l-1.9,5.7c-0.2,0.7,0.6,1.4,1.2,0.9l4.9-3.4l4.9,3.5c0.6,0.5,1.5-0.1,1.3-0.9   L209,196l4.9-3.5c0.6-0.5,0.3-1.5-0.5-1.5l-6-0.1l-1.8-5.7c-0.2-0.7-1.3-0.8-1.5,0l-2,5.7h-6C195.2,190.8,194.9,191.8,195.5,192.3z   "/>
	<path style="fill:#73AF00;" d="M322,234.8l4.8,3.6l-1.9,5.7c-0.2,0.7,0.6,1.4,1.2,0.9l4.9-3.4l4.9,3.5c0.6,0.5,1.5-0.1,1.3-0.9   l-1.8-5.8l4.9-3.5c0.6-0.5,0.3-1.5-0.5-1.5l-6-0.1l-1.8-5.7c-0.2-0.7-1.3-0.8-1.5,0l-2,5.7h-6C321.7,233.3,321.4,234.3,322,234.8z"/>
	<path style="fill:#73AF00;" d="M312,154l-1.7,5.8l4.9,3.4c0.6,0.4,0.3,1.4-0.4,1.5l-6,0.2l-1.8,5.8c-0.2,0.7-1.3,0.8-1.5,0l-2-5.7   l-6,0.1c-0.8,0-1.1-1-0.5-1.4l4.7-3.7l-2-5.7c-0.3-0.7,0.6-1.4,1.2-0.9l5,3.4l4.8-3.6C311.4,152.6,312.3,153.2,312,154z"/>
	<path style="fill:#73AF00;" d="M236.4,263.9l-1.7,5.8l4.9,3.4c0.6,0.4,0.3,1.4-0.4,1.5l-6,0.2l-1.8,5.8c-0.2,0.7-1.3,0.8-1.5,0   l-2-5.7l-6,0.1c-0.8,0-1.1-1-0.5-1.4l4.7-3.7l-2-5.7c-0.3-0.7,0.6-1.4,1.2-0.9l5,3.4l4.8-3.6C235.8,262.6,236.6,263.2,236.4,263.9z   "/>
	<path style="fill:#73AF00;" d="M340.3,192.3l-4.8,3.6l1.9,5.7c0.2,0.7-0.6,1.4-1.2,0.9l-4.9-3.4l-4.9,3.5c-0.6,0.5-1.5-0.1-1.3-0.9   l1.8-5.8l-4.9-3.5c-0.6-0.5-0.3-1.5,0.5-1.5l6-0.1l1.8-5.7c0.2-0.7,1.3-0.8,1.5,0l2,5.7h6C340.6,190.8,340.9,191.8,340.3,192.3z"/>
	<path style="fill:#73AF00;" d="M213.8,234.8l-4.8,3.6l1.9,5.7c0.2,0.7-0.6,1.4-1.2,0.9l-4.9-3.4l-4.9,3.5c-0.6,0.5-1.5-0.1-1.3-0.9   l1.8-5.8l-4.9-3.5c-0.6-0.5-0.3-1.5,0.5-1.5l6-0.1l1.8-5.7c0.2-0.7,1.3-0.8,1.5,0l2,5.7h6C214.1,233.3,214.5,234.3,213.8,234.8z"/>
</g>
<path style="fill:#2E3033;" d="M19.2,489.1L19.2,489.1C8.6,489.1,0,480.5,0,469.9V42c0-10.5,8.5-19,19-19h0.2  c10.6,0,19.2,8.6,19.2,19.2V470C38.4,480.5,29.8,489.1,19.2,489.1z"/>
<g>
</g>
<g>
</g>
<g>
</g>
<g>
</g>
<g>
</g>
<g>
</g>
<g>
</g>
<g>
</g>
<g>
</g>
<g>
</g>
<g>
</g>
<g>
</g>
<g>
</g>
<g>
</g>
<g>
</g>
</svg>
