<?xml version="1.0" encoding="iso-8859-1"?>
<!-- Generator: Adobe Illustrator 19.0.0, SVG Export Plug-In . SVG Version: 6.00 Build 0)  -->
<svg xmlns="http://www.w3.org/2000/svg" xmlns:xlink="http://www.w3.org/1999/xlink" version="1.1" id="Layer_1" x="0px" y="0px" viewBox="0 0 512 512" style="enable-background:new 0 0 512 512;" xml:space="preserve">
<path style="fill:#F5F5F5;" d="M503.547,374.338H35.133c-4.668,0-8.453-3.785-8.453-8.453V64.822c0-4.668,3.785-8.453,8.453-8.453  h468.414c4.668,0,8.453,3.785,8.453,8.453v301.062C512,370.553,508.216,374.338,503.547,374.338z"/>
<g>
	<path style="fill:#41479B;" d="M227.417,181.883H35.133c-4.668,0-8.453-3.785-8.453-8.453V64.822c0-4.668,3.785-8.453,8.453-8.453   h192.284c4.668,0,8.453,3.785,8.453,8.453V173.43C235.87,178.099,232.085,181.883,227.417,181.883z"/>
	<path style="fill:#41479B;" d="M503.547,374.338H311.263c-4.668,0-8.453-3.785-8.453-8.453V257.277   c0-4.668,3.785-8.453,8.453-8.453h192.284c4.668,0,8.453,3.785,8.453,8.453v108.608C512,370.553,508.216,374.338,503.547,374.338z"/>
</g>
<g>
	<path style="fill:#FF4B55;" d="M503.547,181.883H311.263c-4.668,0-8.453-3.785-8.453-8.453V64.822c0-4.668,3.785-8.453,8.453-8.453   h192.284c4.668,0,8.453,3.785,8.453,8.453V173.43C512,178.099,508.216,181.883,503.547,181.883z"/>
	<path style="fill:#FF4B55;" d="M227.417,374.338H35.133c-4.668,0-8.453-3.785-8.453-8.453V257.277c0-4.668,3.785-8.453,8.453-8.453   h192.284c4.668,0,8.453,3.785,8.453,8.453v108.608C235.87,370.553,232.085,374.338,227.417,374.338z"/>
</g>
<g>
	<path style="fill:#64B496;" d="M264.537,239.213c0,0,4.999,1.83,4.347,8.107l2.021-0.037c0,0-1.275-7.253-2.329-8.121   C267.522,238.29,264.537,239.213,264.537,239.213z"/>
	<path style="fill:#64B496;" d="M269.547,238.244c-2.12,0-5.827-0.003-9.724-1.056c0.87-0.904,2.07-2.726,2.07-5.902   c0-4.975-3.428-1.801-3.428-1.801s-2.254,1.897-0.892,6.967c-1.33-0.507-2.647-1.161-3.904-1.998   c0.783-0.982,2.343-3.271,3.249-6.899c0,0-5.712-1.128-7.274,3.172c-0.957-1.214-1.776-2.58-2.46-4.092   c1.468,0.018,3.516-0.951,3.516-6.542c0,0-3.73,0.005-4.727,3.242c-0.392-1.352-0.691-2.802-0.911-4.333   c1.49,0.432,5.339,0.743,5.339-7.613c0,0-4.623,0.007-5.693,4.103c-0.058-1.047-0.081-2.13-0.071-3.247   c2.244-1.173,5.343-3.758,5.02-9.062c0,0-2.132,0.483-4.086,2.122c0.386-2.01,0.226-4.954-2.857-7.409c0,0-2.834,5.015,1.305,9.085   c-0.359,0.507-0.673,1.082-0.933,1.723c-0.93-1.416-2.422-2.732-4.822-3.533c0,0-1.106,6.716,5.165,9.526   c0.148,3.922,0.763,7.387,1.816,10.4c-1.795-1.583-3.25-3.761-3.25-3.761c0-7.462-6.117-7.65-6.117-7.65   c-1.142,8.516,5.155,8.861,5.155,8.861l3.449,3.763c-7.462-1.244-7.462,4.975-7.462,4.975c4.975,1.244,7.462-1.244,7.462-1.244   l2.69,1.383c-4.772,0.139-6.421,4.835-6.421,4.835c5.997,1,10.383-0.41,11.874-1.002c6.04,4.222,13.484,4.229,16.922,4.229V238.244   L269.547,238.244L269.547,238.244z"/>
	<path style="fill:#64B496;" d="M269.124,238.244c2.12,0,5.827-0.003,9.724-1.056c-0.869-0.904-2.07-2.726-2.07-5.902   c0-4.975,3.428-1.801,3.428-1.801s2.254,1.897,0.892,6.967c1.33-0.507,2.647-1.161,3.904-1.998   c-0.783-0.982-2.343-3.271-3.249-6.899c0,0,5.712-1.128,7.274,3.172c0.956-1.214,1.776-2.58,2.46-4.092   c-1.468,0.018-3.517-0.951-3.517-6.542c0,0,3.73,0.005,4.727,3.242c0.392-1.352,0.691-2.802,0.911-4.333   c-1.489,0.432-5.339,0.743-5.339-7.613c0,0,4.623,0.007,5.693,4.103c0.058-1.047,0.081-2.13,0.071-3.247   c-2.244-1.173-5.343-3.758-5.02-9.062c0,0,2.132,0.483,4.086,2.122c-0.386-2.01-0.226-4.954,2.857-7.409   c0,0,2.834,5.015-1.305,9.085c0.36,0.507,0.673,1.082,0.933,1.723c0.93-1.416,2.422-2.732,4.822-3.533c0,0,1.106,6.716-5.165,9.526   c-0.148,3.922-0.763,7.387-1.816,10.4c1.795-1.583,3.25-3.761,3.25-3.761c0-7.462,6.117-7.65,6.117-7.65   c1.142,8.516-5.155,8.861-5.155,8.861l-3.449,3.763c7.462-1.244,7.462,4.975,7.462,4.975c-4.975,1.244-7.462-1.244-7.462-1.244   l-2.69,1.383c4.772,0.139,6.421,4.835,6.421,4.835c-5.997,1-10.383-0.41-11.874-1.002c-6.04,4.222-13.484,4.229-16.922,4.229   v-1.243L269.124,238.244L269.124,238.244z"/>
</g>
<path style="fill:#41479B;" d="M248.356,184.03c-4.373,2.802-8.229,6.372-11.336,10.584c1.335,0.984,2.669,1.969,4.004,2.952  c2.741-3.718,6.143-6.868,10.001-9.343L248.356,184.03z"/>
<path style="fill:#FF6B71;" d="M269.355,216.363h17.41v9.949c0,2.747-2.227,4.975-4.975,4.975h-7.462c-2.044,0-3.841,1-4.975,2.521  v-17.445H269.355z"/>
<polygon style="fill:#5F64B9;" points="273.085,205.171 273.085,191.492 291.739,191.492 286.765,196.466 286.765,210.146   273.085,210.146 "/>
<rect x="280.55" y="210.14" style="fill:#F5F5F5;" width="6.218" height="6.218"/>
<path style="fill:#FF6B71;" d="M269.355,216.363h-17.41v9.949c0,2.747,2.227,4.975,4.975,4.975h7.462c2.044,0,3.841,1,4.975,2.521  v-17.445H269.355z"/>
<path style="fill:#F5F5F5;" d="M266.245,231.587c1.24,0.397,2.311,1.169,3.08,2.187h0.057c0.769-1.019,1.841-1.79,3.08-2.187  v-10.249h-6.218v10.249H266.245z"/>
<polygon style="fill:#5F64B9;" points="265.624,205.171 265.624,191.492 246.97,191.492 251.944,196.466 251.944,210.146   265.624,210.146 "/>
<rect x="251.94" y="210.14" style="fill:#F5F5F5;" width="6.218" height="6.218"/>
<polygon style="fill:#41479B;" points="258.162,197.71 258.162,201.44 261.893,203.927 261.893,201.44 "/>
<polygon style="fill:#F5F5F5;" points="261.893,201.44 261.893,205.171 266.868,207.658 266.868,206.415 "/>
<polygon style="fill:#41479B;" points="280.547,197.71 280.547,201.44 276.816,203.927 276.816,201.44 "/>
<polygon style="fill:#F5F5F5;" points="276.816,201.44 276.816,205.171 271.841,207.658 271.841,206.415 "/>
<path style="fill:#FF4B55;" d="M276.859,225.069h-15.003c-3.411,0-6.175-2.784-6.175-6.218v-19.234l13.768,9.285l13.585-9.285  v19.234C283.034,222.284,280.269,225.069,276.859,225.069z"/>
<g>
	<polygon style="fill:#41479B;" points="260.649,202.684 255.675,198.953 255.675,212.633 260.649,215.12  "/>
	<polygon style="fill:#41479B;" points="278.059,202.684 283.034,198.953 283.034,212.633 278.059,215.12  "/>
	<rect x="261.89" y="215.12" style="fill:#41479B;" width="14.92" height="6.218"/>
</g>
<polygon style="fill:#FF4B55;" points="261.893,203.927 269.355,207.658 276.816,203.927 276.816,215.12 261.893,215.12 "/>
<g>
	<path style="fill:#F5F5F5;" d="M274.951,205.103v12.504c0,1.028-0.837,1.865-1.865,1.865h-7.462c-1.028,0-1.865-0.837-1.865-1.865   v-12.452l-3.731-2.499v14.951c0,3.086,2.511,5.596,5.596,5.596h7.462c3.086,0,5.596-2.511,5.596-5.596v-15.036L274.951,205.103z"/>
	<path style="fill:#F5F5F5;" d="M276.253,213.79c-2.095,0.188-4.453,0.399-6.899,1.251c-2.446-0.852-4.803-1.063-6.899-1.251   c-3.505-0.315-5.585-0.621-6.775-2.736v3.589c1.828,1.189,4.143,1.407,6.552,1.624c2.162,0.194,4.398,0.394,6.681,1.26l0.441,0.166   l0.441-0.166c2.283-0.864,4.519-1.065,6.681-1.26c2.41-0.217,4.73-0.431,6.557-1.622v-3.6   C281.844,213.169,279.763,213.474,276.253,213.79z"/>
</g>
<polygon style="fill:#FFE15A;" points="271.841,202.062 269.976,202.062 269.976,200.196 268.732,200.196 268.732,202.062   266.868,202.062 266.868,203.306 268.732,203.306 268.732,208.902 269.976,208.902 269.976,203.306 271.841,203.306 "/>
<rect x="262.414" y="194.497" transform="matrix(0.7071 -0.7071 0.7071 0.7071 -65.9934 245.126)" style="fill:#464655;" width="0.966" height="15.454"/>
<polygon style="fill:#FFE15A;" points="255.385,194.708 256.751,197.44 258.117,196.074 "/>
<rect x="263.958" y="193.437" transform="matrix(0.8083 -0.5888 0.5888 0.8083 -67.7465 194.2663)" style="fill:#464655;" width="0.966" height="15.455"/>
<polygon style="fill:#FFE15A;" points="258.181,192.587 259.107,195.499 260.668,194.362 "/>
<rect x="261.171" y="195.797" transform="matrix(0.5725 -0.8199 0.8199 0.5725 -55.0133 301.5373)" style="fill:#464655;" width="0.966" height="15.454"/>
<polygon style="fill:#FFE15A;" points="252.952,197.446 254.774,199.896 255.881,198.312 "/>
<rect x="275.323" y="194.498" transform="matrix(-0.7071 -0.7071 0.7071 -0.7071 327.8349 540.2437)" style="fill:#464655;" width="0.966" height="15.454"/>
<polygon style="fill:#FFE15A;" points="283.317,194.708 281.951,197.44 280.585,196.074 "/>
<rect x="273.794" y="193.438" transform="matrix(-0.8083 -0.5888 0.5888 -0.8083 377.5278 525.2568)" style="fill:#464655;" width="0.966" height="15.455"/>
<polygon style="fill:#FFE15A;" points="280.521,192.587 279.596,195.499 278.035,194.362 "/>
<rect x="276.576" y="195.812" transform="matrix(-0.5725 -0.8199 0.8199 -0.5725 268.7931 547.2266)" style="fill:#464655;" width="0.966" height="15.454"/>
<polygon style="fill:#FFE15A;" points="285.751,197.446 283.928,199.896 282.823,198.312 "/>
<path style="fill:#F5F5F5;" d="M268.723,230.933c0,0-4.81-5.165-3.877-9.906c0.75-3.813,3.026-8.017,4.808-9.04  c0,0,2.519-0.155,1.887,2.033s-1.4,2.753-1.176,4.908C270.754,222.659,271.356,227.082,268.723,230.933z"/>
<path style="fill:#41479B;" d="M270.182,212.014c-0.3-0.039-0.529-0.026-0.529-0.026c-1.781,1.023-4.057,5.227-4.808,9.04  c-0.425,2.157,0.342,4.397,1.301,6.202C265.54,219.411,267.823,216.638,270.182,212.014z"/>
<path style="fill:#FF4B55;" d="M270.365,218.928c-0.225-2.157,0.544-2.72,1.176-4.908c0.443-1.531-0.657-1.914-1.358-2.007  c0,0-1.606,3.69-1.709,6.163c-0.091,2.178,0.466,11.037,0.249,12.756C271.356,227.082,270.754,222.659,270.365,218.928z"/>
<path style="fill:#F5F0F0;" d="M267.102,213.859c1.002-0.976,2.411-1.414,3.79-1.177c-0.654-2.106-1.308-4.211-1.962-6.317  c-1.379-0.237-2.787,0.201-3.79,1.177C265.794,209.648,266.448,211.753,267.102,213.859z"/>
<path style="fill:#F5F5F5;" d="M270.892,212.682c1.002-0.976,2.411-1.414,3.79-1.177c-0.654-2.106-1.308-4.212-1.962-6.317  c-1.379-0.237-2.788,0.201-3.79,1.177C269.584,208.47,270.238,210.576,270.892,212.682z"/>
<path style="fill:#5F64B9;" d="M263.673,185.357c-6.751-0.156-13.418,1.504-19.308,4.807c-0.81-1.447-1.622-2.893-2.432-4.339  c6.666-3.738,14.215-5.617,21.855-5.441C263.749,182.041,263.711,183.699,263.673,185.357z"/>
<path style="fill:#41479B;" d="M290.352,184.03c4.373,2.802,8.229,6.372,11.336,10.584c-1.335,0.984-2.669,1.969-4.004,2.952  c-2.741-3.718-6.143-6.868-10.001-9.343L290.352,184.03z"/>
<path style="fill:#5F64B9;" d="M275.035,185.357c6.751-0.156,13.418,1.504,19.308,4.807c0.81-1.447,1.622-2.893,2.432-4.339  c-6.666-3.738-14.215-5.617-21.855-5.441C274.959,182.041,274.997,183.699,275.035,185.357z"/>
<path style="fill:#41479B;" d="M279.303,184.03c-6.513-1.781-13.384-1.781-19.898,0c-0.437-1.6-0.875-3.198-1.312-4.798  c7.372-2.017,15.15-2.017,22.522,0C280.178,180.831,279.741,182.43,279.303,184.03z"/>
<g>
	<path style="fill:#FF6B71;" d="M252.687,239.767c-5.368,1.401-10.615,3.292-15.667,5.673c0.707,1.5,1.414,3,2.121,4.5   c4.875-2.297,9.943-4.111,15.129-5.443L252.687,239.767z"/>
	<path style="fill:#FF6B71;" d="M286.021,239.767c5.368,1.401,10.615,3.292,15.667,5.673c-0.707,1.5-1.414,3-2.121,4.5   c-4.875-2.297-9.943-4.111-15.129-5.443L286.021,239.767z"/>
</g>
<g>
	<path style="fill:#FF4B55;" d="M289.359,243.616c-13.079-3.14-26.716-3.14-39.795,0c-0.387-1.612-0.775-3.225-1.161-4.837   c13.843-3.323,28.276-3.323,42.118,0C290.134,240.391,289.746,242.002,289.359,243.616z"/>
	<path style="fill:#FF4B55;" d="M269.355,244.966l-3.429,0.857c-0.785,0.197-1.545-0.397-1.545-1.207v-1.789   c0-0.809,0.76-1.402,1.545-1.207l3.429,0.857V244.966z"/>
	<path style="fill:#FF4B55;" d="M269.355,242.479l3.429-0.857c0.785-0.197,1.545,0.397,1.545,1.207v1.789   c0,0.809-0.761,1.402-1.545,1.207l-3.429-0.857V242.479L269.355,242.479z"/>
</g>
<path style="fill:#FF6B71;" d="M269.611,244.966h-0.514c-0.545,0-0.987-0.442-0.987-0.987v-0.514c0-0.545,0.442-0.987,0.987-0.987  h0.514c0.545,0,0.987,0.442,0.987,0.987v0.514C270.597,244.524,270.156,244.966,269.611,244.966z"/>
<path style="fill:#2E3033;" d="M19.152,488.46L19.152,488.46C8.575,488.46,0,479.885,0,469.308V42.534  C0,32.044,8.504,23.54,18.994,23.54h0.157c10.577,0,19.152,8.575,19.152,19.152v426.617C38.303,479.885,29.728,488.46,19.152,488.46  z"/>
<g>
</g>
<g>
</g>
<g>
</g>
<g>
</g>
<g>
</g>
<g>
</g>
<g>
</g>
<g>
</g>
<g>
</g>
<g>
</g>
<g>
</g>
<g>
</g>
<g>
</g>
<g>
</g>
<g>
</g>
</svg>
