<?xml version="1.0" encoding="iso-8859-1"?>
<!-- Generator: Adobe Illustrator 19.0.0, SVG Export Plug-In . SVG Version: 6.00 Build 0)  -->
<svg xmlns="http://www.w3.org/2000/svg" xmlns:xlink="http://www.w3.org/1999/xlink" version="1.1" id="Layer_1" x="0px" y="0px" viewBox="0 0 512 512" style="enable-background:new 0 0 512 512;" xml:space="preserve">
<path style="fill:#FF4B55;" d="M512,294.786H27.43v70.929c0,4.661,3.779,8.44,8.44,8.44h467.69c4.661,0,8.44-3.779,8.44-8.44  V294.786z"/>
<path style="fill:#FFE15A;" d="M512,215.417H27.43V65.118c0-4.661,3.779-8.44,8.44-8.44h467.69c4.661,0,8.44,3.779,8.44,8.44  V215.417z"/>
<rect x="27.43" y="215.418" style="fill:#41479B;" width="484.57" height="79.37"/>
<path style="fill:#FFE15A;" d="M260.998,220.105l61.026-52.307V243.5c0,12.758-10.342,23.101-23.101,23.101l0,0  c-5.707,0-11.212-2.112-15.454-5.93l-22.471-20.223L260.998,220.105L260.998,220.105z"/>
<path style="fill:#FF4B55;" d="M293.188,249.87l-17.661-15.895v-26.324l31.966-27.4v19.137v44.111c0,4.726-3.844,8.571-8.571,8.571  C296.801,252.071,294.764,251.289,293.188,249.87z"/>
<path style="fill:#41479B;" d="M284.246,200.178v29.923l14.53,13.119v-44.015v-11.482l8.717-7.473v19.137v44.111  c0,4.726-3.844,8.571-8.571,8.571c-2.121,0-4.158-0.782-5.734-2.201l-17.661-15.895v-26.324L284.246,200.178z"/>
<path style="fill:#FFE15A;" d="M278.434,220.105l-61.026-52.307V243.5c0,12.758,10.342,23.101,23.1,23.101l0,0  c5.707,0,11.212-2.112,15.454-5.93l22.471-20.223L278.434,220.105L278.434,220.105L278.434,220.105z"/>
<path style="fill:#FF4B55;" d="M246.242,249.87l17.661-15.895v-26.324l-31.966-27.4v19.137v44.111c0,4.726,3.846,8.571,8.571,8.571  C242.63,252.071,244.666,251.289,246.242,249.87z"/>
<g>
	<path style="fill:#41479B;" d="M255.186,200.178v29.923l-14.53,13.119v-44.015v-11.482l-8.717-7.473v19.137v44.111   c0,4.726,3.845,8.571,8.571,8.571c2.121,0,4.158-0.782,5.734-2.201l17.661-15.895v-26.324L255.186,200.178z"/>
	<rect x="319.91" y="168.048" style="fill:#41479B;" width="4.177" height="25.03"/>
	<rect x="215.31" y="168.048" style="fill:#41479B;" width="4.178" height="25.03"/>
</g>
<g>
	<path style="fill:#5A4646;" d="M260.998,156.173c0,0,5.812-27.606-14.53-23.974s-20.342,9.444-43.59,21.068   c0,0,26.154,5.812,37.778,2.907c0,0,8.717,11.624,17.436,14.53h8.717L260.998,156.173z"/>
	<path style="fill:#5A4646;" d="M278.434,156.173c0,0-5.812-27.606,14.53-23.974s20.342,9.444,43.59,21.068   c0,0-26.154,5.812-37.778,2.907c0,0-8.717,11.624-17.436,14.53h-8.717L278.434,156.173z"/>
	<path style="fill:#5A4646;" d="M278.434,170.704h-17.436v-14.55c0-4.804,3.894-8.699,8.699-8.699h0.039   c4.804,0,8.698,3.894,8.698,8.699V170.704z"/>
</g>
<path style="fill:#E6E1CD;" d="M275.379,154.844c0.94,4.24-2.755,7.935-6.995,6.995c-2.136-0.474-3.86-2.198-4.334-4.334  c-0.94-4.24,2.755-7.935,6.995-6.995C273.182,150.982,274.906,152.706,275.379,154.844z"/>
<path style="fill:#FFD0AF;" d="M257.244,152.419l10.928,5.835c0.917,0.49,2.046,0.322,2.781-0.414l0,0  c0.922-0.922,0.922-2.416,0-3.338l-7.05-7.05h-1.695C259.467,147.455,257.244,149.678,257.244,152.419L257.244,152.419z"/>
<path style="fill:#FFAF94;" d="M261.033,153.267h-8.754l3.831-4.485c0.72-0.842,1.771-1.327,2.879-1.327h4.914v2.942  C263.903,151.982,262.618,153.267,261.033,153.267z"/>
<g>
	<path style="fill:#8CB400;" d="M294.498,170.71c-1.961-2.327-2.379-5.411-1.423-8.083c2.796-0.488,5.765,0.446,7.725,2.774   c1.675,1.988,2.161,4.518,1.689,6.882c0.58,0.986,1.29,2.255,2.072,3.751c0.039-0.213,0.031-0.424,0.091-0.637   c0.685-2.409,2.596-4.115,4.86-4.693c1.621,1.683,2.349,4.139,1.665,6.547c-0.589,2.073-2.108,3.574-3.956,4.336   c0.73,1.673,1.452,3.479,2.126,5.386c0.039-0.112,0.041-0.226,0.087-0.337c0.946-2.319,3.034-3.803,5.348-4.129   c1.425,1.85,1.879,4.372,0.934,6.691c-0.828,2.03-2.546,3.367-4.508,3.9c1.011,3.987,1.681,8.217,1.681,12.476h-2.905   c0-3.712-0.57-7.429-1.43-10.987c-1.794,0.579-3.797,0.456-5.531-0.607c-2.116-1.297-3.234-3.575-3.181-5.89   c2.038-1.098,4.576-1.138,6.693,0.158c0.076,0.046,0.128,0.115,0.202,0.165c-0.622-1.789-1.286-3.487-1.965-5.078   c-1.744,0.824-3.797,0.952-5.68,0.066c-2.246-1.055-3.607-3.198-3.811-5.504c1.899-1.311,4.407-1.63,6.648-0.587   c-0.801-1.539-1.521-2.825-2.087-3.787C297.831,173.3,295.903,172.378,294.498,170.71z"/>
	<path style="fill:#8CB400;" d="M244.932,170.71c1.961-2.327,2.379-5.411,1.423-8.083c-2.796-0.488-5.765,0.446-7.725,2.774   c-1.675,1.988-2.161,4.518-1.689,6.882c-0.58,0.986-1.29,2.255-2.072,3.751c-0.039-0.213-0.031-0.424-0.091-0.637   c-0.685-2.409-2.596-4.115-4.86-4.693c-1.62,1.683-2.35,4.139-1.665,6.547c0.59,2.073,2.108,3.574,3.956,4.336   c-0.73,1.673-1.452,3.479-2.126,5.386c-0.039-0.112-0.041-0.226-0.087-0.337c-0.946-2.319-3.034-3.803-5.348-4.129   c-1.425,1.85-1.879,4.372-0.934,6.691c0.828,2.03,2.546,3.367,4.508,3.9c-1.011,3.987-1.681,8.217-1.681,12.476h2.907   c0-3.712,0.57-7.429,1.43-10.987c1.794,0.579,3.797,0.456,5.531-0.607c2.116-1.297,3.234-3.575,3.181-5.89   c-2.038-1.098-4.577-1.138-6.693,0.158c-0.076,0.046-0.128,0.115-0.201,0.165c0.622-1.789,1.285-3.487,1.965-5.078   c1.744,0.824,3.797,0.952,5.68,0.066c2.246-1.055,3.607-3.198,3.811-5.504c-1.899-1.311-4.407-1.63-6.648-0.587   c0.801-1.539,1.521-2.825,2.087-3.787C241.6,173.3,243.528,172.378,244.932,170.71z"/>
</g>
<path style="fill:#FFE15A;" d="M269.715,234.635l-61.026-52.307v75.702c0,12.758,10.342,23.101,23.1,23.101l0,0  c5.707,0,11.212-2.112,15.454-5.93l22.471-20.223v-20.343L269.715,234.635L269.715,234.635z"/>
<path style="fill:#FF4B55;" d="M237.525,264.4l17.661-15.895v-26.324l-31.966-27.4v19.137v44.111c0,4.726,3.846,8.571,8.571,8.571  C233.912,266.6,235.949,265.818,237.525,264.4z"/>
<path style="fill:#41479B;" d="M246.467,214.708v29.923l-14.53,13.119v-44.014v-11.482l-8.717-7.473v19.137v44.111  c0,4.726,3.846,8.571,8.571,8.571c2.122,0,4.158-0.782,5.734-2.201l17.661-15.895V222.18L246.467,214.708z"/>
<path style="fill:#FFE15A;" d="M269.715,234.635l61.026-52.307v75.702c0,12.758-10.342,23.101-23.101,23.101l0,0  c-5.707,0-11.212-2.112-15.454-5.93l-22.471-20.223L269.715,234.635L269.715,234.635z"/>
<path style="fill:#FF4B55;" d="M301.905,264.4l-17.661-15.895v-26.324l31.966-27.4v19.137v44.111c0,4.726-3.845,8.571-8.571,8.571  C305.519,266.6,303.483,265.818,301.905,264.4z"/>
<path style="fill:#41479B;" d="M292.963,214.708v29.923l14.53,13.119v-44.014v-11.482l8.718-7.473v19.137v44.111  c0,4.726-3.845,8.571-8.571,8.571c-2.122,0-4.158-0.782-5.734-2.201l-17.661-15.895V222.18L292.963,214.708z"/>
<ellipse style="fill:#69C3FF;" cx="269.71" cy="214.288" rx="29.06" ry="43.593"/>
<path style="fill:#009B64;" d="M243.562,225.916h52.307l2.905-11.624l-13.243,2.207c-2.658,0.443-5.374-0.314-7.419-2.068  l-15.033-12.886c-1.343-1.151-3.054-1.784-4.824-1.784l0,0c-1.965,0-3.851,0.781-5.241,2.171l-9.453,9.453L243.562,225.916  L243.562,225.916z"/>
<path style="fill:#F5F5F5;" d="M266.958,212.34l4.992-3.189l-8.872-7.604c-1.343-1.151-3.054-1.784-4.823-1.784l0,0  c-1.965,0-3.851,0.781-5.241,2.171l-9.453,9.453v2.907l14.53-2.907l2.569,1.285C262.672,213.677,265.064,213.551,266.958,212.34z"/>
<polygon style="fill:#5AA0E6;" points="243.562,225.916 246.467,243.352 260.998,257.883 269.715,257.883 281.339,254.976   292.963,243.352 295.869,225.916 "/>
<path style="fill:#FFC88C;" d="M269.715,260.788c-17.626,0-31.966-20.859-31.966-46.495s14.34-46.495,31.966-46.495  s31.966,20.858,31.966,46.495S287.341,260.788,269.715,260.788z M269.715,173.609c-14.421,0-26.154,18.251-26.154,40.684  s11.733,40.683,26.154,40.683s26.154-18.251,26.154-40.683S284.136,173.609,269.715,173.609z"/>
<g>
	<path style="fill:#E1E1E1;" d="M249.215,257.621c-2.437-3.364-6.063-5.551-10.171-5.551s-7.734,2.187-10.171,5.551   c4.155,1.151,7.555,4.525,9.165,8.971c0.649,1.79,1.006,3.756,1.006,5.819C239.044,265.223,243.387,259.236,249.215,257.621z"/>
	<path style="fill:#E1E1E1;" d="M241.351,266.789c0,0-0.227,3.875-2.213,5.691l-0.083-0.068c-1.987-1.817-2.213-5.691-2.213-5.691   L241.351,266.789z"/>
</g>
<path style="fill:#966446;" d="M306.043,268.053h-72.656c-0.801,0-1.45-0.649-1.45-1.45v-0.006c0-0.801,0.649-1.45,1.45-1.45h72.656  c0.801,0,1.45,0.649,1.45,1.45v0.006C307.493,267.404,306.844,268.053,306.043,268.053z"/>
<path style="fill:#BE915A;" d="M284.258,272.412h-29.085c-3.203,0-5.799-2.596-5.799-5.799v-0.025c0-3.203,2.596-5.799,5.799-5.799  h29.085c3.203,0,5.799,2.596,5.799,5.799v0.025C290.057,269.816,287.46,272.412,284.258,272.412z"/>
<path style="fill:#B9B9B9;" d="M243.562,265.148H233.39c-0.803,0-1.453,0.651-1.453,1.453s0.651,1.453,1.453,1.453h10.171  L243.562,265.148L243.562,265.148z"/>
<polygon style="fill:#FF4B55;" points="269.715,272.412 269.715,298.963 258.091,295.659 263.903,272.412 "/>
<polygon style="fill:#41479B;" points="266.81,272.412 260.998,292.754 249.374,289.848 258.091,272.412 "/>
<polygon style="fill:#FFE15A;" points="255.186,272.412 246.467,284.036 255.186,286.942 260.998,272.412 "/>
<polygon style="fill:#FF4B55;" points="269.715,272.412 269.715,298.963 281.339,295.659 275.527,272.412 "/>
<polygon style="fill:#41479B;" points="272.622,272.412 278.434,292.754 290.057,289.848 281.339,272.412 "/>
<polygon style="fill:#FFE15A;" points="284.246,272.412 292.963,284.036 284.246,286.942 278.434,272.412 "/>
<g>
	<polygon style="fill:#41479B;" points="210.779,207.355 206.603,203.145 206.603,182.324 210.779,182.324  "/>
	<polygon style="fill:#41479B;" points="332.792,203.145 328.614,207.355 328.614,182.324 332.792,182.324  "/>
</g>
<path style="fill:#2E3033;" d="M19.122,488.101L19.122,488.101C8.561,488.101,0,479.539,0,468.979V42.864  C0,32.39,8.491,23.899,18.965,23.899h0.157c10.561,0,19.122,8.561,19.122,19.122v425.958  C38.244,479.539,29.683,488.101,19.122,488.101z"/>
<g>
</g>
<g>
</g>
<g>
</g>
<g>
</g>
<g>
</g>
<g>
</g>
<g>
</g>
<g>
</g>
<g>
</g>
<g>
</g>
<g>
</g>
<g>
</g>
<g>
</g>
<g>
</g>
<g>
</g>
</svg>
