<?xml version="1.0" encoding="iso-8859-1"?>
<!-- Generator: Adobe Illustrator 19.0.0, SVG Export Plug-In . SVG Version: 6.00 Build 0)  -->
<svg xmlns="http://www.w3.org/2000/svg" xmlns:xlink="http://www.w3.org/1999/xlink" version="1.1" id="Layer_1" x="0px" y="0px" viewBox="0 0 512 512" style="enable-background:new 0 0 512 512;" xml:space="preserve">
<path style="fill:#FF4B55;" d="M512,162.503H27.43V65.118c0-4.661,3.779-8.44,8.44-8.44h467.69c4.661,0,8.44,3.779,8.44,8.44  V162.503z"/>
<path style="fill:#464655;" d="M503.56,374.155H35.87c-4.661,0-8.44-3.779-8.44-8.44V268.33H512v97.385  C512,370.376,508.222,374.155,503.56,374.155z"/>
<rect x="27.43" y="162.498" style="fill:#F5F5F5;" width="484.57" height="105.83"/>
<path style="fill:#F0C727;" d="M296.392,198.92c0-4.143-4.06-7.069-7.99-5.758l-7.385,2.461l-1.794-10.831  c-1.073-6.461-6.609-11.15-13.16-11.15h-6.908l-7.225,8.893h9.567l-2.678,13.223l-7.792-2.597c-3.931-1.31-7.99,1.615-7.99,5.758  v44.932l10.755-10.755l-5.067,15.201h-5.686v8.892h53.353v-8.892h-5.686l-5.067-15.201l10.755,10.755L296.392,198.92L296.392,198.92  z M265.269,248.297H258.1l4.929-13.164l2.24,2.86L265.269,248.297L265.269,248.297z M274.161,248.297v-10.304l2.239-2.86  l4.929,13.164H274.161z M269.715,232.181c0,0-13.755-9.309-13.199-26.677c0,0,8.476-1.389,13.199-8.892  c4.724,7.503,13.199,8.892,13.199,8.892C283.47,222.871,269.715,232.181,269.715,232.181z"/>
<path style="fill:#2E3033;" d="M19.122,488.101L19.122,488.101C8.561,488.101,0,479.539,0,468.979V42.864  C0,32.39,8.491,23.899,18.965,23.899h0.157c10.561,0,19.122,8.561,19.122,19.122v425.958  C38.244,479.539,29.683,488.101,19.122,488.101z"/>
<g>
</g>
<g>
</g>
<g>
</g>
<g>
</g>
<g>
</g>
<g>
</g>
<g>
</g>
<g>
</g>
<g>
</g>
<g>
</g>
<g>
</g>
<g>
</g>
<g>
</g>
<g>
</g>
<g>
</g>
</svg>
