<?xml version="1.0" encoding="iso-8859-1"?>
<!-- Generator: Adobe Illustrator 19.0.0, SVG Export Plug-In . SVG Version: 6.00 Build 0)  -->
<svg xmlns="http://www.w3.org/2000/svg" xmlns:xlink="http://www.w3.org/1999/xlink" version="1.1" id="Layer_1" x="0px" y="0px" viewBox="0 0 512.001 512.001" style="enable-background:new 0 0 512.001 512.001;" xml:space="preserve">
<path style="fill:#73AF00;" d="M512,221.074H24.345V69.787c0-4.674,3.789-8.463,8.463-8.463h470.73c4.674,0,8.463,3.789,8.463,8.463  v151.287H512z"/>
<path style="fill:#4173CD;" d="M24.345,221.074H512v151.287c0,4.674-3.789,8.463-8.463,8.463H32.807  c-4.674,0-8.463-3.789-8.463-8.463V221.074H24.345z"/>
<path style="fill:#FF4B55;" d="M24.345,69.733v302.682c0,3.04,1.699,5.583,4.115,7.059l483.539-158.401L28.46,62.673  C26.042,64.149,24.345,66.693,24.345,69.733z"/>
<path style="fill:#FFE15A;" d="M204.174,269.069c0,0,23.68-8.636,30.366-34.545c0,0-10.308,13.372-17.551,17.273  c0,0,15.88-21.173,12.537-41.789c0,0-1.951,8.358-5.85,11.701c0,0,6.965-29.809-1.95-42.345c0,0,0.278,10.586-3.622,21.173  c0,0,1.486-33.524-13.744-42.067c0,0,5.943,10.586,3.436,19.502c0,0-4.179-18.944-23.587-26.466c0,0-1.207,1.393-0.929,5.572  c0,0-5.294-6.407-18.387-6.129c0,0,0.278,4.736,3.622,9.194c0,0-5.294,2.785-8.636,1.951c0,0,5.294,5.85,23.958,5.294  c0,0-2.507,2.229-7.521,2.785c0,0,7.625,3.503,15.137,4.179c10.308,0.929,14.394,6.965,16.344,14.486c0,0-8.079-4.736-11.143-9.472  c0,0-0.557,8.079,14.766,23.68l-7.801-3.343c0,0,5.014,14.486,11.143,30.923l-6.407-6.965c0,0-1.393,11.701-2.507,33.43  l-4.458-10.308c0,0-7.801,25.63-19.78,29.809c-9.378,3.271-19.749,5.511-23.825,6.333c-0.381-14.339,5.717-17.477,5.717-17.477  c10.865,0.557,13.372-11.422,13.372-11.422c-2.229,2.229-6.407,2.229-6.407,2.229c6.407-6.686,6.407-16.158,6.407-16.158  c-3.9,7.521-10.03,8.636-10.03,8.636l0.557-7.522c-11.332,8.241-10.523,17.893-10.335,19.307  c-0.256-1.804-2.273-15.919-3.315-19.307c-1.114-3.621,1.393-10.865,5.294-9.75c12.625,3.607,15.601-5.572,15.601-5.572  c-6.686,3.065-10.586,0.836-10.586,0.836c8.636-8.357,5.014-16.158,5.014-16.158c-2.786,8.079-10.586,9.472-10.586,9.472  l-0.278-8.915c-3.622,1.951-6.965,10.586-6.965,10.586s-0.836-6.965,1.671-13.094s8.915-3.065,8.915-3.065  c11.422,2.229,15.044-8.636,15.044-8.636l-7.521,1.114c8.358-6.129,5.85-13.651,5.85-13.651c-1.951,4.736-8.915,5.572-8.915,5.572  l3.343-8.915c-7.243,0-11.423,9.472-11.423,9.472l-0.557-9.194c3.343-11.979-4.458-17.273-4.458-17.273  c-1.671,2.229-0.836,6.965-0.836,6.965c-6.965-6.129-12.257,1.114-12.257,1.114c5.294,5.572,10.308,5.014,10.308,5.014  c-1.671,1.114-7.801,1.671-7.801,1.671c6.965,5.85,10.865,4.736,10.865,4.736c3.343,14.208-5.572,20.616-5.572,20.616  c-1.671-10.586-8.079-15.601-8.079-15.601l0.278,6.965c-4.179-2.507-7.522-10.03-7.522-10.03c-2.785,10.586,4.736,19.78,4.736,19.78  l-6.965-0.557c6.129,14.208,15.88,9.75,15.88,9.75c-0.836,10.03,2.507,26.466,2.507,26.466  c-1.393-1.671-16.158-15.601-16.158-15.601c-0.557,5.572,4.736,12.815,4.736,12.815c-2.786-0.557-10.865-6.686-10.865-6.686  c0.836,8.915,12.537,14.766,12.537,14.766c-4.458,0.557-13.094-4.458-13.094-4.458c5.014,21.451,23.402,11.979,23.402,11.979  l1.41,29.016c-3.883-0.932-12.378-3.097-21.19-6.172c-11.979-4.179-19.78-29.809-19.78-29.809l-4.458,10.308  c-1.114-21.731-2.507-33.43-2.507-33.43l-6.407,6.965c6.129-16.437,11.143-30.923,11.143-30.923l-7.801,3.343  c15.322-15.601,14.766-23.68,14.766-23.68c-3.065,4.736-11.143,9.472-11.143,9.472c1.95-7.522,8.079-15.322,15.601-15.88  c7.521-0.557,15.88-2.786,15.88-2.786c-5.014-0.557-7.522-2.785-7.522-2.785c21.729-1.95,23.958-7.801,23.958-7.801  c-3.343,0.836-13.651-0.278-13.651-0.278c8.636-4.736,22.844-9.194,22.844-9.194c-17.551-3.065-32.595,6.965-32.595,6.965  c2.507-4.736,6.965-10.03,6.965-10.03c-21.451,9.472-31.481,30.923-31.481,30.923c-2.507-8.915,3.436-19.502,3.436-19.502  c-15.23,8.543-13.744,42.067-13.744,42.067c-3.9-10.586-3.622-21.173-3.622-21.173c-8.915,12.537-1.951,42.345-1.951,42.345  c-3.9-3.343-5.85-11.701-5.85-11.701c-3.343,20.616,12.537,41.789,12.537,41.789c-7.243-3.9-17.551-17.273-17.551-17.273  c6.686,25.909,30.366,34.545,30.366,34.545c-13.093-5.014-18.666-0.836-18.666-0.836c9.194,1.95,18.108,7.521,25.352,12.815  c7.243,5.294,16.993,6.407,25.63,7.521c3.568,0.46,6.525,1.06,8.814,1.609c-4.719,2.31-7.978,7.146-7.978,12.755h28.416  c0-5.397-3.011-10.092-7.443-12.496c2.853-0.61,6.655-1.334,10.787-1.867c8.636-1.114,17.658-3.407,25.63-7.521  c8.636-4.458,16.158-10.865,25.352-12.815C222.84,268.233,217.269,264.054,204.174,269.069z"/>
<path style="fill:#2E3033;" d="M19.174,488.73L19.174,488.73C8.585,488.73,0,480.146,0,469.556V42.288  c0-10.502,8.514-19.016,19.016-19.016h0.158c10.589,0,19.174,8.585,19.174,19.174v427.111  C38.347,480.146,29.763,488.73,19.174,488.73z"/>
<g>
</g>
<g>
</g>
<g>
</g>
<g>
</g>
<g>
</g>
<g>
</g>
<g>
</g>
<g>
</g>
<g>
</g>
<g>
</g>
<g>
</g>
<g>
</g>
<g>
</g>
<g>
</g>
<g>
</g>
</svg>
