<?xml version="1.0" encoding="iso-8859-1"?>
<!-- Generator: Adobe Illustrator 19.0.0, SVG Export Plug-In . SVG Version: 6.00 Build 0)  -->
<svg xmlns="http://www.w3.org/2000/svg" xmlns:xlink="http://www.w3.org/1999/xlink" version="1.1" id="Layer_1" x="0px" y="0px" viewBox="0 0 512 512" style="enable-background:new 0 0 512 512;" xml:space="preserve">
<path style="fill:#C8414B;" d="M35.4,373.05h468.1c4.7,0,8.4-3.8,8.4-8.4V63.75c0-4.7-3.8-8.4-8.4-8.4H35.4c-4.7,0-8.4,3.8-8.4,8.4  v300.9C27,369.25,30.8,373.05,35.4,373.05z"/>
<rect x="27" y="122.25" style="fill:#FFD250;" width="485" height="184"/>
<path style="fill:#C8414B;" d="M231.9,214.15l7.1-31.9c0.7-2.9-1.6-5.7-4.6-5.7h-5c-3,0-5.2,2.8-4.6,5.7L231.9,214.15z"/>
<rect x="223.5" y="197.45" style="fill:#F5F5F5;" width="16.7" height="71.1"/>
<rect x="219.3" y="189.05" style="fill:#FAB446;" width="25.1" height="8.4"/>
<g>
	<rect x="202.6" y="214.15" style="fill:#C8414B;" width="41.8" height="8.4"/>
	<polygon style="fill:#C8414B;" points="244.4,247.65 219.3,239.25 219.3,230.95 244.4,239.25  "/>
	<path style="fill:#C8414B;" d="M106.4,214.15l7.1-31.9c0.7-2.9-1.6-5.7-4.6-5.7h-5c-3,0-5.2,2.8-4.6,5.7L106.4,214.15z"/>
</g>
<path style="fill:#F5F5F5;" d="M135.7,189.05c-4.6,0-8.4,3.7-8.4,8.4v54.4c0,10.2,9.5,29.3,41.8,29.3s41.9-19.2,41.9-29.3v-54.4  c0-4.6-3.7-8.4-8.4-8.4L135.7,189.05L135.7,189.05z"/>
<g>
	<path style="fill:#C8414B;" d="M169.2,230.95h-41.8v-33.4c0-4.7,3.8-8.4,8.4-8.4h33.4L169.2,230.95L169.2,230.95z"/>
	<path style="fill:#C8414B;" d="M169.2,230.95H211v20.9c0,11.5-9.4,20.9-20.9,20.9l0,0c-11.5,0-20.9-9.4-20.9-20.9L169.2,230.95   L169.2,230.95z"/>
</g>
<path style="fill:#FAB446;" d="M127.3,230.95h41.8v20.9c0,11.5-9.4,20.9-20.9,20.9l0,0c-11.5,0-20.9-9.4-20.9-20.9L127.3,230.95  L127.3,230.95z"/>
<g>
	<path style="fill:#C8414B;" d="M160.8,268.45v-37.5h-8.4v41.4C155.5,271.65,158.4,270.25,160.8,268.45z"/>
	<path style="fill:#C8414B;" d="M144.1,272.25v-41.3h-8.4v37.5C138.1,270.25,141,271.65,144.1,272.25z"/>
</g>
<rect x="135.7" y="214.15" style="fill:#FFB441;" width="25.1" height="8.4"/>
<g>
	<rect x="135.7" y="197.45" style="fill:#FAB446;" width="25.1" height="8.4"/>
	<rect x="139.9" y="202.45" style="fill:#FAB446;" width="16.7" height="15.1"/>
</g>
<rect x="98.1" y="197.45" style="fill:#F5F5F5;" width="16.7" height="71.1"/>
<g>
	<rect x="93.9" y="264.35" style="fill:#FAB446;" width="25.1" height="8.4"/>
	<rect x="93.9" y="189.05" style="fill:#FAB446;" width="25.1" height="8.4"/>
</g>
<rect x="89.7" y="272.75" style="fill:#5064AA;" width="33.4" height="8.4"/>
<rect x="223.5" y="264.35" style="fill:#FAB446;" width="25.1" height="8.4"/>
<rect x="215.1" y="272.75" style="fill:#5064AA;" width="33.4" height="8.4"/>
<rect x="144.1" y="180.75" style="fill:#FAB446;" width="50.2" height="8.4"/>
<rect x="165" y="155.65" style="fill:#FFB441;" width="8.4" height="25.1"/>
<g>
	<path style="fill:#F5F5F5;" d="M160.8,168.15c-6.9,0-12.5-5.6-12.5-12.5s5.6-12.5,12.5-12.5s12.5,5.6,12.5,12.5   C173.3,162.55,167.7,168.15,160.8,168.15z M160.8,151.45c-2.3,0-4.2,1.9-4.2,4.2s1.9,4.2,4.2,4.2s4.2-1.9,4.2-4.2   S163.1,151.45,160.8,151.45z"/>
	<path style="fill:#F5F5F5;" d="M177.5,168.15c-6.9,0-12.5-5.6-12.5-12.5s5.6-12.5,12.5-12.5s12.5,5.6,12.5,12.5   C190.1,162.55,184.4,168.15,177.5,168.15z M177.5,151.45c-2.3,0-4.2,1.9-4.2,4.2s1.9,4.2,4.2,4.2s4.2-1.9,4.2-4.2   S179.8,151.45,177.5,151.45z"/>
	<path style="fill:#F5F5F5;" d="M194.2,176.55c-6.9,0-12.5-5.6-12.5-12.5s5.6-12.5,12.5-12.5s12.5,5.6,12.5,12.5   C206.8,170.95,201.2,176.55,194.2,176.55z M194.2,159.85c-2.3,0-4.2,1.9-4.2,4.2s1.9,4.2,4.2,4.2s4.2-1.9,4.2-4.2   S196.5,159.85,194.2,159.85z"/>
	<path style="fill:#F5F5F5;" d="M144.1,176.55c-6.9,0-12.5-5.6-12.5-12.5s5.6-12.5,12.5-12.5s12.5,5.6,12.5,12.5   S151,176.55,144.1,176.55z M144.1,159.85c-2.3,0-4.2,1.9-4.2,4.2s1.9,4.2,4.2,4.2s4.2-1.9,4.2-4.2S146.4,159.85,144.1,159.85z"/>
</g>
<path style="fill:#FAB446;" d="M194.2,247.65v4.2c0,2.3-1.9,4.2-4.2,4.2s-4.2-1.9-4.2-4.2v-4.2H194.2 M202.6,239.25h-25.1v12.5  c0,6.9,5.6,12.5,12.5,12.5s12.5-5.6,12.5-12.5L202.6,239.25L202.6,239.25z"/>
<path style="fill:#FFA0D2;" d="M190.1,222.55L190.1,222.55c-4.6,0-8.4-3.7-8.4-8.4v-8.4c0-4.6,3.7-8.4,8.4-8.4l0,0  c4.6,0,8.4,3.7,8.4,8.4v8.4C198.4,218.85,194.7,222.55,190.1,222.55z"/>
<path style="fill:#5064AA;" d="M181.6,229.25c1,8.2-5.9,15.1-14.1,14.1c-5.6-0.7-10.1-5.2-10.8-10.8c-1-8.2,5.9-15.1,14.1-14.1  C176.4,219.15,180.9,223.65,181.6,229.25z"/>
<rect x="165" y="138.95" style="fill:#FAB446;" width="8.4" height="25.1"/>
<path style="fill:#C8414B;" d="M144.1,180.75l-8.4-8.4l4.9-4.9c7.6-7.6,17.8-11.8,28.5-11.8l0,0c10.7,0,21,4.3,28.5,11.8l4.9,4.9  l-8.4,8.4H144.1z"/>
<g>
	<path style="fill:#FFD250;" d="M173.3,171.75c0.4,2.8-2,5.2-4.8,4.8c-1.8-0.3-3.2-1.7-3.5-3.5c-0.4-2.8,2-5.2,4.8-4.8   C171.6,168.55,173,169.95,173.3,171.75z"/>
	<path style="fill:#FFD250;" d="M156.6,171.75c0.4,2.8-2,5.2-4.8,4.8c-1.8-0.3-3.2-1.7-3.5-3.5c-0.4-2.8,2-5.2,4.8-4.8   C154.9,168.55,156.3,169.95,156.6,171.75z"/>
	<path style="fill:#FFD250;" d="M190,171.75c0.4,2.8-2,5.2-4.8,4.8c-1.8-0.3-3.2-1.7-3.5-3.5c-0.4-2.8,2-5.2,4.8-4.8   C188.3,168.55,189.7,169.95,190,171.75z"/>
</g>
<g>
	<rect x="93.9" y="214.15" style="fill:#C8414B;" width="41.8" height="8.4"/>
	<polygon style="fill:#C8414B;" points="93.9,247.65 119,239.25 119,230.95 93.9,239.25  "/>
</g>
<path style="fill:#2E3033;" d="M19.7,494.85L19.7,494.85c-10.9,0-19.7-8.8-19.7-19.7V36.65c0-10.8,8.7-19.5,19.5-19.5h0.2  c10.9,0,19.7,8.8,19.7,19.7v438.4C39.4,486.05,30.5,494.85,19.7,494.85z"/>
<g>
</g>
<g>
</g>
<g>
</g>
<g>
</g>
<g>
</g>
<g>
</g>
<g>
</g>
<g>
</g>
<g>
</g>
<g>
</g>
<g>
</g>
<g>
</g>
<g>
</g>
<g>
</g>
<g>
</g>
</svg>
