<?xml version="1.0" encoding="iso-8859-1"?>
<!-- Generator: Adobe Illustrator 19.0.0, SVG Export Plug-In . SVG Version: 6.00 Build 0)  -->
<svg xmlns="http://www.w3.org/2000/svg" xmlns:xlink="http://www.w3.org/1999/xlink" version="1.1" id="Layer_1" x="0px" y="0px" viewBox="0 0 512 512" style="enable-background:new 0 0 512 512;" xml:space="preserve">
<path style="fill:#73AF00;" d="M512,162.357H26.68V64.821c0-4.668,3.785-8.453,8.453-8.453h468.414c4.668,0,8.453,3.785,8.453,8.453  V162.357z"/>
<path style="fill:#FF4B55;" d="M503.547,374.337H35.133c-4.668,0-8.453-3.785-8.453-8.453v-97.537H512v97.536  C512,370.552,508.216,374.337,503.547,374.337z"/>
<rect x="26.68" y="162.357" style="fill:#FFE15A;" width="485.32" height="105.99"/>
<path style="fill:#4173CD;" d="M369.765,215.447c0,55.382-44.963,100.425-100.425,100.425S168.915,270.83,168.915,215.447  c0-55.542,44.963-100.504,100.425-100.504C324.802,114.942,369.765,159.904,369.765,215.447L369.765,215.447z"/>
<g>
	<path style="fill:#F2DD30;" d="M192.959,190.199h58.349l13.203-40.633l3.506,10.899l-19.174,59.069l-5.712-4.167l5.973-18.353   h-46.926L192.959,190.199z M222.113,280.044l18.033-55.462l-34.563-25.167h11.4l50.234,36.469l-5.71,4.167l-15.649-11.381   l-14.527,44.722L222.113,280.044L222.113,280.044z M316.566,280.044l-47.225-34.302l-34.544,25.085l3.527-10.739l50.192-36.548   l2.144,6.732l-15.61,11.301l37.97,27.652L316.566,280.044L316.566,280.044z M345.72,190.199l-47.187,34.384l13.205,40.635   l-9.217-6.734l-19.156-59.069h7.013l5.971,18.435l37.99-27.652h11.381L345.72,190.199L345.72,190.199z M269.34,134.738   l18.033,55.462h42.739l-9.237,6.814H258.8l2.185-6.814h19.354l-14.527-44.643L269.34,134.738z"/>
	<path style="fill:#F2DD30;" d="M271.023,295.755h-3.346v-43.521h3.346V295.755L271.023,295.755z M345.219,241.733l-41.376-13.383   l1.043-3.124l41.397,13.383L345.219,241.733L345.219,241.733z M193.441,241.733l-1.042-3.124l41.415-13.383l1.024,3.124   L193.441,241.733L193.441,241.733z M292.363,186.591l-2.727-1.923l25.588-35.186l2.665,1.924L292.363,186.591L292.363,186.591z    M246.379,186.591l-25.629-35.184l2.706-1.924l25.567,35.186L246.379,186.591L246.379,186.591z"/>
</g>
<path style="fill:#2E3033;" d="M19.152,488.46L19.152,488.46C8.575,488.46,0,479.884,0,469.307V42.534  C0,32.044,8.504,23.54,18.994,23.54h0.157c10.577,0,19.152,8.575,19.152,19.152V469.31C38.303,479.884,29.728,488.46,19.152,488.46z  "/>
<g>
</g>
<g>
</g>
<g>
</g>
<g>
</g>
<g>
</g>
<g>
</g>
<g>
</g>
<g>
</g>
<g>
</g>
<g>
</g>
<g>
</g>
<g>
</g>
<g>
</g>
<g>
</g>
<g>
</g>
</svg>
