<?xml version="1.0" encoding="iso-8859-1"?>
<!-- Generator: Adobe Illustrator 19.0.0, SVG Export Plug-In . SVG Version: 6.00 Build 0)  -->
<svg xmlns="http://www.w3.org/2000/svg" xmlns:xlink="http://www.w3.org/1999/xlink" version="1.1" id="Layer_1" x="0px" y="0px" viewBox="0 0 512.802 512.802" style="enable-background:new 0 0 512.802 512.802;" xml:space="preserve">
<path style="fill:#41479B;" d="M504.5,374.301H36.2c-4.7,0-8.4-3.8-8.4-8.4v-301c0-4.7,3.8-8.4,8.4-8.4h468.2c4.7,0,8.4,3.8,8.4,8.4  v300.9C512.9,370.501,509,374.301,504.5,374.301z"/>
<g>
	<path style="fill:#FFE15A;" d="M273.7,92.901l3.4,10.1l10.6,0.1c1.4,0,1.9,1.8,0.8,2.6l-8.5,6.3l3.2,10.1c0.4,1.3-1.1,2.4-2.2,1.6   l-8.6-6.2l-8.6,6.2c-1.1,0.8-2.6-0.3-2.2-1.6l3.2-10.1l-8.5-6.3c-1.1-0.8-0.5-2.6,0.8-2.6l10.6-0.1l3.4-10.1   C271.4,91.501,273.3,91.501,273.7,92.901z"/>
	<path style="fill:#FFE15A;" d="M273.7,308.701l3.4,10.1l10.6,0.1c1.4,0,1.9,1.8,0.8,2.6l-8.5,6.3l3.2,10.1c0.4,1.3-1.1,2.4-2.2,1.6   l-8.6-6.2l-8.6,6.2c-1.1,0.8-2.6-0.3-2.2-1.6l3.2-10.1l-8.5-6.3c-1.1-0.8-0.5-2.6,0.8-2.6l10.6-0.1l3.4-10.1   C271.4,307.401,273.3,307.401,273.7,308.701z"/>
	<path style="fill:#FFE15A;" d="M381.6,200.801l3.4,10.1l10.6,0.1c1.4,0,1.9,1.8,0.8,2.6l-8.5,6.3l3.2,10.1c0.4,1.3-1.1,2.4-2.2,1.6   l-8.6-6.2l-8.6,6.2c-1.1,0.8-2.6-0.3-2.2-1.6l3.2-10.1l-8.5-6.3c-1.1-0.8-0.5-2.6,0.8-2.6l10.6-0.1l3.4-10.1   C379.3,199.401,381.2,199.401,381.6,200.801z"/>
	<path style="fill:#FFE15A;" d="M165.8,200.801l3.4,10.1l10.6,0.1c1.4,0,1.9,1.8,0.8,2.6l-8.5,6.3l3.2,10.1c0.4,1.3-1.1,2.4-2.2,1.6   l-8.6-6.2l-8.6,6.2c-1.1,0.8-2.6-0.3-2.2-1.6l3.2-10.1l-8.5-6.3c-1.1-0.8-0.5-2.6,0.8-2.6l10.6-0.1l3.4-10.1   C163.5,199.401,165.2,199.401,165.8,200.801z"/>
	<path style="fill:#FFE15A;" d="M181.9,144.501l3.4,10.1l10.6,0.1c1.4,0,1.9,1.8,0.8,2.6l-8.5,6.3l3.2,10.1c0.4,1.3-1.1,2.4-2.2,1.6   l-8.6-6.2l-8.6,6.2c-1.1,0.8-2.6-0.3-2.2-1.6l3.2-10.1l-8.5-6.3c-1.1-0.8-0.5-2.6,0.8-2.6l10.6-0.1l3.4-10.1   C179.7,143.101,181.5,143.101,181.9,144.501z"/>
	<path style="fill:#FFE15A;" d="M368.9,252.401l3.4,10.1l10.6,0.1c1.4,0,1.9,1.8,0.8,2.6l-8.5,6.3l3.2,10.1c0.4,1.3-1.1,2.4-2.2,1.6   l-8.6-6.2l-8.6,6.2c-1.1,0.8-2.6-0.3-2.2-1.6l3.2-10.1l-8.5-6.3c-1.1-0.8-0.5-2.6,0.8-2.6l10.5-0.2l3.4-10.1   C366.6,251.001,368.5,251.001,368.9,252.401z"/>
	<path style="fill:#FFE15A;" d="M329.4,104.901l3.4,10.1l10.6,0.1c1.4,0,1.9,1.8,0.8,2.6l-8.5,6.3l3.2,10.1c0.4,1.3-1.1,2.4-2.2,1.6   l-8.6-6.2l-8.6,6.2c-1.1,0.8-2.6-0.3-2.2-1.6l3.2-10.1l-8.5-6.3c-1.1-0.8-0.5-2.6,0.8-2.6l10.6-0.1l3.4-10.1   C327.1,103.601,329,103.601,329.4,104.901z"/>
	<path style="fill:#FFE15A;" d="M221.5,291.901l3.4,10.1l10.6,0.1c1.4,0,1.9,1.8,0.8,2.6l-8.5,6.3l3.2,10.1c0.4,1.3-1.1,2.4-2.2,1.6   l-8.6-6.2l-8.6,6.2c-1.1,0.8-2.6-0.3-2.2-1.6l3.2-10.1l-8.5-6.3c-1.1-0.8-0.5-2.6,0.8-2.6l10.6-0.1l3.4-10.1   C219.2,290.601,221,290.601,221.5,291.901z"/>
	<path style="fill:#FFE15A;" d="M366.2,144.501l-3.4,10.1l-10.6,0.1c-1.4,0-1.9,1.8-0.8,2.6l8.5,6.3l-3.2,10.1   c-0.4,1.3,1.1,2.4,2.2,1.6l8.6-6.2l8.6,6.2c1.1,0.8,2.6-0.3,2.2-1.6l-3.2-10.1l8.5-6.3c1.1-0.8,0.5-2.6-0.8-2.6l-10.6-0.1   l-3.4-10.1C368.5,143.101,366.6,143.101,366.2,144.501z"/>
	<path style="fill:#FFE15A;" d="M179.2,252.401l-3.4,10.1l-10.6,0.1c-1.4,0-1.9,1.8-0.8,2.6l8.5,6.3l-3.2,10.1   c-0.4,1.3,1.1,2.4,2.2,1.6l8.6-6.2l8.6,6.2c1.1,0.8,2.6-0.3,2.2-1.6l-3.2-10.1l8.5-6.3c1.1-0.8,0.5-2.6-0.8-2.6l-10.6-0.1   l-3.4-10.1C181.5,251.001,179.7,251.001,179.2,252.401z"/>
	<path style="fill:#FFE15A;" d="M218.8,104.901l-3.4,10.1l-10.6,0.1c-1.4,0-1.9,1.8-0.8,2.6l8.5,6.3l-3.2,10.1   c-0.4,1.3,1.1,2.4,2.2,1.6l8.6-6.2l8.6,6.2c1.1,0.8,2.6-0.3,2.2-1.6l-3.2-10.1l8.5-6.3c1.1-0.8,0.5-2.6-0.8-2.6l-10.6-0.1   l-3.4-10.1C221,103.601,219.2,103.601,218.8,104.901z"/>
	<path style="fill:#FFE15A;" d="M326.7,291.901l-3.4,10.1l-10.6,0.1c-1.4,0-1.9,1.8-0.8,2.6l8.5,6.3l-3.2,10.1   c-0.4,1.3,1.1,2.4,2.2,1.6l8.6-6.2l8.6,6.2c1.1,0.8,2.6-0.3,2.2-1.6l-3.2-10.1l8.5-6.3c1.1-0.8,0.5-2.6-0.8-2.6l-10.6-0.1   l-3.4-10.1C329,290.601,327.1,290.601,326.7,291.901z"/>
</g>
<path style="fill:#2E3033;" d="M19.1,488.501L19.1,488.501c-10.5,0-19.1-8.6-19.1-19.1v-426.1c0-10.5,8.5-19,19-19h0.2  c10.6,0,19.1,8.6,19.1,19.1v426C38.2,479.901,29.7,488.501,19.1,488.501z"/>
<g>
</g>
<g>
</g>
<g>
</g>
<g>
</g>
<g>
</g>
<g>
</g>
<g>
</g>
<g>
</g>
<g>
</g>
<g>
</g>
<g>
</g>
<g>
</g>
<g>
</g>
<g>
</g>
<g>
</g>
</svg>
