<?xml version="1.0" encoding="iso-8859-1"?>
<!-- Generator: Adobe Illustrator 19.0.0, SVG Export Plug-In . SVG Version: 6.00 Build 0)  -->
<svg xmlns="http://www.w3.org/2000/svg" xmlns:xlink="http://www.w3.org/1999/xlink" version="1.1" id="Layer_1" x="0px" y="0px" viewBox="0 0 512 512" style="enable-background:new 0 0 512 512;" xml:space="preserve">
<path style="fill:#F5F5F5;" d="M503.56,374.155H35.87c-4.661,0-8.44-3.779-8.44-8.44V65.118c0-4.661,3.779-8.44,8.44-8.44h467.69  c4.661,0,8.44,3.779,8.44,8.44v300.597C512,370.376,508.222,374.155,503.56,374.155z"/>
<polygon style="fill:#41479B;" points="512,190.352 227.942,190.352 227.942,56.678 177.814,56.678 177.814,190.352 27.43,190.352   27.43,240.481 177.814,240.481 177.814,374.155 227.942,374.155 227.942,240.481 512,240.481 "/>
<path style="fill:#2E3033;" d="M19.122,488.101L19.122,488.101C8.561,488.101,0,479.54,0,468.979V42.865  c0-10.474,8.491-18.966,18.965-18.966h0.157c10.561,0,19.122,8.561,19.122,19.122v425.958  C38.244,479.54,29.683,488.101,19.122,488.101z"/>
<g>
</g>
<g>
</g>
<g>
</g>
<g>
</g>
<g>
</g>
<g>
</g>
<g>
</g>
<g>
</g>
<g>
</g>
<g>
</g>
<g>
</g>
<g>
</g>
<g>
</g>
<g>
</g>
<g>
</g>
</svg>
