<?xml version="1.0" encoding="iso-8859-1"?>
<!-- Generator: Adobe Illustrator 19.0.0, SVG Export Plug-In . SVG Version: 6.00 Build 0)  -->
<svg xmlns="http://www.w3.org/2000/svg" xmlns:xlink="http://www.w3.org/1999/xlink" version="1.1" id="Layer_1" x="0px" y="0px" viewBox="0 0 512 512" style="enable-background:new 0 0 512 512;" xml:space="preserve">
<path style="fill:#82AFFF;" d="M503.666,379.992H40.111c-4.602,0-8.334-3.732-8.334-8.334V73.696c0-4.602,3.732-8.334,8.334-8.334  h463.555c4.602,0,8.334,3.731,8.334,8.334v297.961C512,376.26,508.268,379.992,503.666,379.992z"/>
<path style="fill:#41479B;" d="M263.555,222.677H40.111c-4.602,0-8.334-3.732-8.334-8.334V73.696c0-4.602,3.732-8.334,8.334-8.334  h223.443c4.602,0,8.334,3.731,8.334,8.334v140.647C271.889,218.945,268.158,222.677,263.555,222.677z"/>
<path style="fill:#F5F5F5;" d="M263.609,65.362h-14.382l-76.695,50.248V65.362h-41.399v50.248L54.439,65.362H40.057  c-4.573,0-8.28,3.707-8.28,8.28v6.567l65.8,43.11h-65.8v41.399h65.8l-65.8,43.11v6.568c0,4.572,3.706,8.28,8.28,8.28h14.382  l76.695-50.248v50.248h41.399v-50.247l76.695,50.248h14.382c4.573,0,8.28-3.708,8.28-8.28v-6.568l-65.8-43.11h65.8V123.32h-65.8  l65.8-43.11v-6.567C271.889,69.07,268.182,65.362,263.609,65.362z"/>
<g>
	<polygon style="fill:#FF4B55;" points="271.889,131.6 164.253,131.6 164.253,65.362 139.414,65.362 139.414,131.6 31.777,131.6    31.777,156.439 139.414,156.439 139.414,222.677 164.253,222.677 164.253,156.439 271.889,156.439  "/>
	<path style="fill:#FF4B55;" d="M122.854,123.32L35.723,66.761c-2.319,1.467-3.946,3.934-3.946,6.881v0.429l75.869,49.248   L122.854,123.32C122.854,123.319,122.854,123.32,122.854,123.32z"/>
	<path style="fill:#FF4B55;" d="M187.74,123.32l82.889-53.806c-1.441-2.438-3.983-4.152-7.02-4.152h-1.791l-89.286,57.958H187.74z"/>
	<path style="fill:#FF4B55;" d="M115.698,164.719l-82.73,53.701c1.426,2.497,4.008,4.257,7.089,4.257h1.563l89.287-57.958H115.698z"/>
	<path style="fill:#FF4B55;" d="M271.758,215.047l-77.535-50.328h-15.207l88.048,57.153   C269.699,220.648,271.509,218.083,271.758,215.047z"/>
</g>
<path style="fill:#F5F5F5;" d="M333.823,155.725v90.847c0,36.842,51.753,55.779,58.06,57.948c6.299-2.169,58.06-21.135,58.06-57.948  v-90.847L333.823,155.725L333.823,155.725z"/>
<polygon style="fill:#FF4B55;" points="451.993,197.391 451.993,153.675 331.774,153.675 331.774,197.391 383.687,197.391   383.687,238.374 331.774,238.374 331.774,254.768 383.687,254.768 383.687,303.948 391.884,306.679 400.081,303.948   400.081,254.768 451.993,254.768 451.993,238.374 400.081,238.374 400.081,197.391 "/>
<path style="fill:#F5F5F5;" d="M351.929,178.772c1.106,4.99-3.242,9.338-8.232,8.232c-2.515-0.557-4.544-2.587-5.101-5.101  c-1.106-4.99,3.242-9.338,8.232-8.232C349.342,174.228,351.372,176.257,351.929,178.772z"/>
<g>
	<path style="fill:#FFE15A;" d="M358.395,171.089c-2.189-1.204-6.129-4.433-7.716-3.886c-1.588,0.547-1.942,1.67-4.162,1.841   c-2.164,0.167-5.579,2.277-4.156,4.617c1.851,3.045,7.643,0.676,8.027-0.746c0,0,1.423,0.227,2.618-0.057   c0,0,2.379,3.321,5.334,3.101c2.955-0.219,4.323-3.886,3.667-3.886C361.35,172.074,358.395,171.089,358.395,171.089z"/>
	<path style="fill:#FFE15A;" d="M367.48,185.59c-0.493,0.903-4.242,4.108-10.507,5.582c-1.396,0.328-1.149,1.97-2.545,1.149   c-1.396-0.821-5.253-1.477-8.701-1.642c-3.447-0.165-3.79-3.359-3.201-4.515c0.747-1.468,6.251-2.363,7.236-0.557   c0.984,1.806,1.723,1.429,4.173,1.952c1.519,0.324,1.56,1.067,1.56,1.067s2.791-2.791,5.171-3.612s4.433-2.626,4.843-2.626   c0.41,0,2.545,0.575,2.545,0.575L367.48,185.59z"/>
	<path style="fill:#FFE15A;" d="M376.591,175.904c3.612,1.314,14.282,0.903,25.692-2.791c11.41-3.694,14.693-4.35,20.275-2.298   s7.998-4.432,4.333-5.529c-5.758-1.723-23.565,8.624-36.458,2.818c0,0-0.38,1.562,0.03,2.3c0,0-9.358,0.328-7.141-9.358   c0,0,0.638,3.536,5.062,3.129c8.367-0.769,9.563,5.123,27.28-0.339c9.836-3.033,17.478-1.544,17.546,3.242   c0.082,5.761-7.86,7.1-7.86,7.1s3.092,6.32,9.33,3.529c6.239-2.791,6.567,2.025,7.114,3.667c0.547,1.642,1.587,3.228,2.955,3.393   c0,0,0.984,2.955,0.602,3.338c-0.383,0.383-2.955,3.612-5.526,3.612c-2.572,0-8.154,0-8.154,0s-1.477-3.667,1.368-3.721   c2.845-0.054,6.293-0.274,5.856-1.806c-0.438-1.532-2.681-2.244-2.626-3.94c0,0-6.621,4.816-10.726-0.875l-0.109,2.681   c0,0-4.979-0.93-6.786-4.925c0,0,0.493,4.488-3.776,3.83c0,0,0.876,1.314,2.353,2.244c1.477,0.93-0.055,2.955-2.9,4.651   c-2.846,1.697-11.601,6.621-15.596,1.587c-3.995-5.035,0.876-7.935,2.079-7.607c1.204,0.328,4.651,5.637,7.005,4.925   c2.353-0.712,3.502-3.119,1.532-4.597c-1.97-1.477-3.446-2.874-2.203-4.366c1.707-2.049,8.004-1.436,7.785-2.803   c-0.219-1.368-6.074-0.985-9.905,2.846c-3.83,3.83-20.466,12.64-27.087,7.059C371.31,181.322,376.591,175.904,376.591,175.904z"/>
</g>
<path style="fill:#FFD25A;" d="M374.456,173.442c0,0,5.007,4.925,13.461,6.485c0,0-1.56,2.38-6.074,1.724  c0,0,1.806,1.559,3.037,4.187c0,0-2.873,0.656-5.418-0.739c0,0,0.328,2.135,1.559,3.858c0,0-3.366,0-6.238-2.545l-1.149,3.284  c0,0-1.97-1.314-3.201-3.858c0,0-2.298,1.806-4.597,1.806c0,0,0.821-2.463,0.821-3.858c0,0-3.284,1.97-5.992,1.231  c0,0,0.082-3.447,0.984-4.433c0,0-2.135,0.246-3.529-0.493c0,0,0.821-1.888,1.231-3.119c0,0-2.298,0.082-3.694-1.231  c0,0,4.433-1.724,5.418-3.366L374.456,173.442z"/>
<path style="fill:#FFBE5A;" d="M366.385,159.652c0.984,0.547,2.572,1.751,3.228,3.776c0,0,1.805-2.626,4.925-3.119  c0,0,1.368,1.532,0.984,5.526c0,0,3.447-0.985,5.308,0.821c0,0-3.667,0.821-5.363,3.886c0,0-0.658,3.13,0.492,4.991  c0,0-1.28,0.171-2.571-0.395c0,0-0.656,3.119,0,4.104c0,0-1.805-0.219-2.791-2.135c0,0-1.477,2.244-1.368,3.612  c0,0-1.97-1.149-2.079-2.846c0,0-1.368,2.572-2.846,2.791c0,0-0.165-3.612-0.821-4.979c0,0-1.258,1.368-2.9,1.314  c0,0,0-2.791,1.368-4.104c0,0-2.298,0.712-3.556-1.805c0,0,3.775,1.095,4.707-1.204c0.93-2.298,1.204-3.01,2.517-4.268  C366.932,164.357,366.385,159.652,366.385,159.652z"/>
<path style="fill:#FFE15A;" d="M374.456,170.24c0,0-4.678,8.947-8.947,6.239c-4.676-2.968,1.149-9.932,1.888-10.671  C367.398,165.809,370.845,166.711,374.456,170.24z"/>
<path style="fill:#5ABEA0;" d="M357.582,216.066c0,0-0.491-6.426-3.974-8.28c-3.276-1.743-5.21-2.615-5.586-4.848  c0,0,2.846,1.307,5.855,2.124c2.718,0.739,5.37,5.338,4.565,10.513L357.582,216.066z"/>
<path style="fill:#B46446;" d="M346.586,221.35l0.443,0.817l0.322,1.756l-0.645,2.083c0,0,2.56,1.018,3.142,4.494  c0.4,2.386,1.45,2.9,2.095,2.411c0.645-0.491,1.034-1.071,0.363-3.677c-0.858-3.328-3.182-6.495-3.182-6.495l-1.813-2.778  L346.586,221.35z"/>
<g>
	<path style="fill:#5ABEA0;" d="M349.123,222.739c-2.337-3.023-8.701-9.315-9.909-0.735c0,0-2.495-7.228,2.175-6.945   C346.787,215.386,349.123,222.739,349.123,222.739z"/>
	<path style="fill:#5ABEA0;" d="M347.029,222.168c-2.014-2.206-2.659-3.84-3.705-7.926c-1.047-4.086-1.37-5.311-2.578-5.23   c-1.208,0.082-1.933,1.389-1.933,4.003c0,0-3.545-3.187-1.128-5.719c2.417-2.532,7.814-1.144,8.137,3.35   c0.322,4.494,0.242,7.517,1.853,11.276L347.029,222.168z"/>
	<path style="fill:#5ABEA0;" d="M347.592,220.206c0,0-4.27-9.396,7.734-14.462c0,0-10.634-2.86-9.345,12.256L347.592,220.206z"/>
	<path style="fill:#5ABEA0;" d="M348.962,223.556c0,0-9.022-3.431-8.217,4.902c0,0,1.53-3.922,5.962-2.451L348.962,223.556z"/>
</g>
<path style="fill:#B46446;" d="M359.193,220.261c0,2.438,0.958,9.511-0.403,10.404c-0.684,0.449-2.618,0.081-2.457-1.634  c0.161-1.716,0.926-10.05,0.926-12.092C357.259,214.895,359.193,220.261,359.193,220.261z"/>
<g>
	<path style="fill:#5ABEA0;" d="M353.447,225.926c1.557-1.579,2.041-5.174,1.504-9.968c0,0,3.222,2.233,4.243,4.303   c0,0,1.021-4.739-2.31-5.992c-3.33-1.253-5.102-0.545-5.693,0.98s1.018,3.23,1.719,5.719   C353.554,223.257,353.447,225.926,353.447,225.926z"/>
	<path style="fill:#5ABEA0;" d="M358.978,219.008c0,0,0.538-2.505,2.31-3.541c0,0,3.652,2.561,3.384,5.992   c0,0,0.967-4.685-1.02-6.537c-1.988-1.852-4.243-2.343-5.371-0.708C357.152,215.848,358.978,219.008,358.978,219.008z"/>
	<path style="fill:#5ABEA0;" d="M359.838,214.215c0,0,1.128-6.7,3.974-8.17c2.847-1.471,8.11-2.832,8.432-3.16   c0,0-6.284,0.327-7.305,0.327s-6.66,4.086-6.66,10.132s0.538,1.906,0.698,1.852C359.14,215.14,359.838,214.215,359.838,214.215z"/>
</g>
<path style="fill:#B46446;" d="M362.456,231.932c0.645,1.348,2.175,1.675,2.497,0.98c0.322-0.695,1.772-6.006,1.772-6.006  l-2.054-0.98L362.456,231.932z"/>
<path style="fill:#5ABEA0;" d="M374.5,209.639c2.524-1.471,4.189,2.887,4.189,2.887c0-5.131-1.612-6.755-5.639-4.794  c-1.214,0.591-2.1,1.828-2.754,3.264c-2.04-5.859-6.537-5.769-6.537-5.769l-1.02,0.708c3.683,0.707,5.791,5.121,6.684,7.529  c-0.481,1.756-0.714,3.46-0.814,4.435c-2.414,2.502-3.937,8.028-3.937,8.028s1.732,1.021,2.054,0.98c0,0,1.128-3.473,2.538-3.391  c1.409,0.081,3.062,2.328,3.101,3.759c0,0,2.095-4.249-0.403-5.883c-0.939-0.614-1.689-0.847-2.294-0.858l1.851-2.083  c3.021,0.572,5.116,3.431,5.116,3.431c0.061-5.107-2.194-6.104-4.571-5.675C372.491,214.15,373.424,210.266,374.5,209.639z"/>
<path style="fill:#B46446;" d="M424.227,216.71c0,4.283,0,13.781,0,14.481c0,0.701-3.067,3.426-3.067,3.426h8.154  c0,0-2.618-3.037-2.618-3.426c0-0.39,0.598-13.392,0.598-13.392L424.227,216.71z"/>
<g>
	<path style="fill:#5ABEA0;" d="M424.751,218.189c-1.945-0.156-7.331,4.283-8.902,11.056c0,0-4.788-7.786,7.182-14.248   c0,0-5.311-1.557-13.39,6.852c-0.436,0.454-0.823-12.69,13.689-9.187c0,0-5.536-8.019-16.906-1.713c0,0,7.556-13.548,18.701-1.401   c0,0,0.075-10.511,0.15-9.42c0.075,1.09,0.898,5.917,0.898,5.917l2.17-3.815l-1.721,7.786c0,0,9.95-13.236,18.402,0.545   c0,0-10.922-4.516-16.158,0.545c0,0,11.221-3.037,10.324,9.966c0,0-4.414-7.708-11.595-6.695c0,0,8.453,3.893,5.76,14.404   C433.354,228.778,428.26,218.47,424.751,218.189z"/>
	<path style="fill:#5ABEA0;" d="M353.315,264.98c-0.417-0.565-1-0.835-1.572-0.905c0.221-0.759,0.367-1.106,0.308-1.659   c0.175,0.044,0.342,0.122,0.521,0.144l0.076-0.625c-0.665-0.08-1.388-0.377-2.132-0.831c0.458-0.394,0.791-0.997,0.791-1.737   c0-0.804-0.369-1.476-0.893-1.859c-0.524,0.382-0.893,1.055-0.893,1.859c0,0.603,0.247,1.087,0.573,1.475   c-0.277-0.192-0.556-0.413-0.837-0.651c-0.073-0.495-0.263-0.992-0.701-1.392c-0.594-0.542-1.34-0.722-1.975-0.593   c-0.071,0.645,0.178,1.371,0.773,1.913c0.458,0.418,0.998,0.56,1.517,0.572c0.118,0.1,0.243,0.201,0.373,0.303   c-0.356-0.043-0.74-0.006-1.124,0.133c-0.755,0.275-1.262,0.851-1.442,1.475c0.539,0.361,1.297,0.478,2.052,0.203   c0.658-0.24,1.083-0.723,1.313-1.253c0.443,0.282,0.927,0.518,1.428,0.706l-0.08,0.01c-0.017,0.453,0.014,0.64-0.213,1.481   c-0.507-0.328-1.179-0.477-1.889-0.268c-0.771,0.227-1.313,0.771-1.531,1.381c0.515,0.395,1.265,0.558,2.036,0.331   c0.579-0.171,0.973-0.544,1.253-0.966c-0.106,0.32-0.239,0.65-0.389,0.987c-0.453,0.209-0.878,0.531-1.138,1.066   c-0.352,0.723-0.315,1.489-0.01,2.063c0.639-0.115,1.265-0.558,1.616-1.281c0.271-0.557,0.256-1.116,0.121-1.617   c0.063-0.142,0.124-0.29,0.185-0.443c0.059,0.354,0.203,0.711,0.446,1.041c0.477,0.647,1.173,0.97,1.822,0.967   C353.895,266.387,353.793,265.627,353.315,264.98z"/>
</g>
<path style="fill:#FFECDE;" d="M349.619,262.962c2.73,0,6.301-0.105,6.196,2.625c-0.105,2.73-3.151,11.974,3.886,14.809  c7.037,2.836,7.877,2.416,7.877,2.416l3.151,7.247l7.667-2.73l-7.352-5.882c0,0-0.63-3.991-2.416-6.722c0,0,4.516-2.311,6.092-4.307  l-3.151-0.21c0,0,4.096-2.626,5.987-5.567l-2.205,0.21c0,0,2.521-2.521,3.151-5.462c0,0-4.096,4.096-8.297,4.621  c0,0,1.786-4.621,2.205-6.407c0,0-3.151,1.996-5.357,2.836c-2.205,0.841-5.671,0.945-4.096,8.087c0,0-1.891-1.575-3.046-4.937  c-1.155-3.361-1.575-4.621-3.151-4.621c-2.573,0-3.571,2.311-3.571,2.311L349.619,262.962z"/>
<path style="fill:#B46446;" d="M427.135,264.312c0.945-1.259,2.835-5.196,4.488-4.173s3.858,3.543,5.196,2.362  c1.339-1.181,1.417-2.677-0.63-3.386c-2.047-0.708-4.331-1.89-5.747-1.417c-1.417,0.472-5.747,4.96-5.747,4.96L427.135,264.312z"/>
<path style="fill:#FFE15A;" d="M414.932,267.698c-0.079-1.811,1.144-9.674,6.062-8.661c2.677,0.551,3.994,3.389,7.48,4.724  c3.7,1.417,6.062,2.283,5.353,4.724c-0.708,2.441-2.047,5.353-5.118,6.062C425.639,275.257,414.932,267.698,414.932,267.698z"/>
<g>
	<path style="fill:#5ABEA0;" d="M411.704,274.18c-1.05,0.21-4.934,5.879-0.315,11.652c0,0,5.669,2.31,10.183-1.259   s1.155-5.353,1.155-5.353L411.704,274.18z"/>
	<path style="fill:#5ABEA0;" d="M412.097,275.414c-0.472-0.708-0.394-1.233-0.394-1.233s-0.236-8.136,3.149-8.293   c3.386-0.157,15.589,7.873,15.589,9.212c0,1.339-3.937,5.196-7.243,5.984C419.892,281.869,412.097,275.414,412.097,275.414z"/>
</g>
<path style="fill:#B46446;" d="M403.752,295.096c0,0,10.754-4.832,8.733-8.762c-1.458-2.837-4.738-1.019-5.256,1.146  C406.582,290.184,404.48,293.949,403.752,295.096z"/>
<path style="fill:#464655;" d="M391.884,308.831l-0.622-0.198c-0.624-0.2-15.47-4.982-30.56-14.928  c-20.265-13.354-30.976-29.654-30.976-47.133v-94.945h124.317v94.945c0,17.479-10.711,33.779-30.976,47.133  c-15.09,9.948-29.935,14.728-30.56,14.928L391.884,308.831z M333.823,155.725v90.847c0,36.842,51.753,55.779,58.06,57.948  c6.299-2.169,58.06-21.135,58.06-57.948v-90.847L333.823,155.725L333.823,155.725z"/>
<path style="fill:#2E3033;" d="M18.881,485.182L18.881,485.182C8.454,485.182,0,476.729,0,466.301V45.545  c0-10.342,8.384-18.727,18.726-18.727h0.155c10.428,0,18.881,8.454,18.881,18.881V466.3  C37.763,476.729,29.309,485.182,18.881,485.182z"/>
<g>
</g>
<g>
</g>
<g>
</g>
<g>
</g>
<g>
</g>
<g>
</g>
<g>
</g>
<g>
</g>
<g>
</g>
<g>
</g>
<g>
</g>
<g>
</g>
<g>
</g>
<g>
</g>
<g>
</g>
</svg>
