<?xml version="1.0" encoding="iso-8859-1"?>
<!-- Generator: Adobe Illustrator 19.0.0, SVG Export Plug-In . SVG Version: 6.00 Build 0)  -->
<svg xmlns="http://www.w3.org/2000/svg" xmlns:xlink="http://www.w3.org/1999/xlink" version="1.1" id="Layer_1" x="0px" y="0px" viewBox="0 0 512 512" style="enable-background:new 0 0 512 512;" xml:space="preserve">
<path style="fill:#41479B;" d="M503.5,373.8H35.4c-4.6,0-8.4-3.7-8.4-8.4V64.5c0-4.6,3.7-8.4,8.4-8.4h468.2c4.6,0,8.4,3.7,8.4,8.4  v300.9C511.9,370,508.2,373.8,503.5,373.8z"/>
<path style="fill:#F5F5F5;" d="M259.8,56.1h-14l-74.9,49.1V56.1h-40.4v49.1L55.4,56.1h-14c-4.5,0-8.1,3.6-8.1,8.1v6.4l64.3,42.1  H33.3v40.4h64.3l-64.3,42.1v6.4c0,4.5,3.6,8.1,8.1,8.1h14l74.9-49.1v49.1h40.4v-49.1l74.9,49.1h14c4.5,0,8.1-3.6,8.1-8.1v-6.4  l-64.3-42.1h64.3v-40.4h-64.3l64.3-42.1v-6.4C267.8,59.7,264.2,56.1,259.8,56.1z"/>
<g>
	<polygon style="fill:#FF4B55;" points="267.8,120.8 162.7,120.8 162.7,56.1 138.5,56.1 138.5,120.8 33.4,120.8 33.4,145 138.5,145    138.5,209.7 162.7,209.7 162.7,145 267.8,145  "/>
	<path style="fill:#FF4B55;" d="M122.4,112.7L37.3,57.5c-2.3,1.4-3.9,3.8-3.9,6.7v0.4l74.1,48.1H122.4z"/>
	<path style="fill:#FF4B55;" d="M185.6,112.7l81-52.6c-1.4-2.4-3.9-4.1-6.9-4.1H258l-87.2,56.6L185.6,112.7L185.6,112.7z"/>
	<path style="fill:#FF4B55;" d="M115.4,153.1l-80.8,52.5c1.4,2.4,3.9,4.2,6.9,4.2H43l87.2-56.6L115.4,153.1L115.4,153.1z"/>
	<path style="fill:#FF4B55;" d="M267.7,202.2L192,153h-14.9l86,55.8C265.7,207.7,267.5,205.2,267.7,202.2z"/>
</g>
<path style="fill:#E67346;" d="M337.8,306.1l-4-9.3l2,4.6l-2-4.6c0.8-0.4,20.5-9.4,20.5-35.8h10.1  C364.5,294.3,338.9,305.6,337.8,306.1z"/>
<path style="fill:#EB7D4B;" d="M341.8,283.5l-7.1-7.1c13.7-13.7,20.7-17.4,21.5-17.8l4.5,9l-2.3-4.5l2.3,4.5  C360.6,267.6,354.2,271,341.8,283.5z"/>
<path style="fill:#E67346;" d="M441.6,306.1l4-9.3l-2,4.6l2-4.6c-0.8-0.4-20.5-9.4-20.5-35.8H415C415,294.3,440.5,305.6,441.6,306.1  z"/>
<path style="fill:#EB7D4B;" d="M437.7,283.5l7.1-7.1c-13.7-13.7-20.7-17.4-21.5-17.8l-4.5,9l2.3-4.5l-2.3,4.5  C418.8,267.6,425.2,271,437.7,283.5z"/>
<path style="fill:#4173CD;" d="M389.7,129.8h-53.9c0,0,0,64,0,80.8s3.4,60.6,53.9,77.4c50.5-16.8,53.9-60.6,53.9-77.4s0-80.8,0-80.8  H389.7L389.7,129.8z"/>
<path style="fill:#C8C8C8;" d="M413.3,149.9h-28.9c-3.1,0-6-1-8.4-3l-11.3-9c-1.2-1-2.7-1.5-4.2-1.5h-1c-3.7,0-6.7,3-6.7,6.7h-5  c-2.8,0-5,2.3-5,5c0,2.8,2.3,5,5,5h5c1.9,0,3.4,1.5,3.4,3.4v16.8c0,6.3,4.3,11.5,10.1,13v10.6h6.7l2.5-10.1h31.1l3.4,3.4v6.7h3.4  v-10.1h3.4v10.1h3.4v-11c2-1.2,3.4-3.3,3.4-5.8v-20.2C423.4,154.4,418.8,149.9,413.3,149.9z"/>
<polygon style="fill:#73AF00;" points="352.7,193.7 359.4,213.9 420,213.9 426.7,193.7 "/>
<path style="fill:#F5F5F5;" d="M425.6,207.2c-9,0-9,6.7-18,6.7s-9-6.7-17.9-6.7c-9,0-9,6.7-17.9,6.7c-9,0-9-6.7-17.9-6.7  c-9,0-9,6.7-17.9,6.7c0.1,3.8,0.4,8.3,1.3,13.4c7.7-0.6,8.1-6.7,16.6-6.7c9,0,9,6.7,17.9,6.7c9,0,9-6.7,17.9-6.7c9,0,9,6.7,17.9,6.7  c9,0,9-6.7,18-6.7c8.5,0,9,6.1,16.7,6.7c0.8-5.1,1.1-9.7,1.3-13.4C434.6,213.9,434.6,207.2,425.6,207.2z"/>
<path style="fill:#4173CD;" d="M425.6,220.6c-9,0-9,6.7-18,6.7s-9-6.7-17.9-6.7c-9,0-9,6.7-17.9,6.7c-9,0-9-6.7-17.9-6.7  c-8.5,0-9,6-16.6,6.7c0.7,4,1.6,8.4,3.1,12.8c4.9-1.7,6.3-6,13.5-6c9,0,9,6.7,17.9,6.7c9,0,9-6.7,17.9-6.7c9,0,9,6.7,17.9,6.7  c9,0,9-6.7,18-6.7c7.2,0,8.7,4.3,13.6,6c1.4-4.5,2.4-8.8,3.1-12.8C434.6,226.7,434.1,220.6,425.6,220.6z"/>
<path style="fill:#F5F5F5;" d="M425.6,234.1c-9,0-9,6.7-18,6.7s-9-6.7-17.9-6.7c-9,0-9,6.7-17.9,6.7c-9,0-9-6.7-17.9-6.7  c-7.2,0-8.6,4.3-13.5,6c1.2,3.6,2.6,7.2,4.5,10.9c2.3-1.7,4.5-3.4,9.1-3.4c9,0,9,6.7,17.9,6.7c9,0,9-6.7,17.9-6.7  c9,0,9,6.7,17.9,6.7c9,0,9-6.7,18-6.7c4.6,0,6.8,1.7,9.1,3.5c1.8-3.6,3.3-7.3,4.5-10.9C434.2,238.4,432.8,234.1,425.6,234.1z"/>
<path style="fill:#4173CD;" d="M425.6,247.6c-9,0-9,6.7-18,6.7s-9-6.7-17.9-6.7c-9,0-9,6.7-17.9,6.7c-9,0-9-6.7-17.9-6.7  c-4.6,0-6.8,1.7-9.1,3.4c1.8,3.5,3.8,6.9,6.3,10.3c0.8-0.2,1.7-0.3,2.7-0.3c9,0,9,6.7,17.9,6.7c9,0,9-6.7,17.9-6.7  c9,0,9,6.7,17.9,6.7c9,0,9-6.7,18-6.7c1,0,1.9,0.1,2.8,0.3c2.5-3.4,4.6-6.8,6.3-10.3C432.4,249.3,430.2,247.6,425.6,247.6z"/>
<path style="fill:#F5F5F5;" d="M428.3,261.3c-0.8-0.2-1.7-0.3-2.8-0.3c-9,0-9,6.7-18,6.7s-9-6.7-17.9-6.7c-9,0-9,6.7-17.9,6.7  c-9,0-9-6.7-17.9-6.7c-1,0-1.9,0.1-2.7,0.3c5.5,7.3,12.9,14.2,22.9,19.8c6.8-1,7.6-6.6,15.7-6.6c8.2,0,8.9,5.6,15.8,6.6  C415.5,275.5,422.9,268.6,428.3,261.3z"/>
<g>
	<rect x="388" y="207.2" style="fill:#FF965A;" width="3.4" height="57.2"/>
	<rect x="379.6" y="215.6" style="fill:#FF965A;" width="20.2" height="3.4"/>
	<rect x="379.6" y="235.8" style="fill:#FF965A;" width="20.2" height="3.4"/>
</g>
<rect x="379.6" y="218.9" style="fill:#FFE15A;" width="20.2" height="13.3"/>
<polygon style="fill:#FF4B55;" points="388,207.2 388,213.9 377.9,210.5 "/>
<g>
	<rect x="410.5" y="207.2" style="fill:#FF965A;" width="3.4" height="39.6"/>
	<rect x="402" y="215.6" style="fill:#FF965A;" width="20.2" height="3.4"/>
	<rect x="402" y="235.8" style="fill:#FF965A;" width="20.2" height="3.4"/>
</g>
<rect x="402" y="218.9" style="fill:#FFE15A;" width="20.2" height="13.3"/>
<polygon style="fill:#FF4B55;" points="410.5,207.2 410.5,213.9 400.4,210.5 "/>
<g>
	<rect x="365.4" y="207.2" style="fill:#FF965A;" width="3.4" height="39.3"/>
	<rect x="357" y="215.6" style="fill:#FF965A;" width="20.2" height="3.4"/>
	<rect x="357" y="235.8" style="fill:#FF965A;" width="20.2" height="3.4"/>
</g>
<rect x="357" y="218.9" style="fill:#FFE15A;" width="20.2" height="13.3"/>
<polygon style="fill:#FF4B55;" points="365.4,207.2 365.4,213.9 355.3,210.5 "/>
<path style="fill:#FF965A;" d="M406.5,244.2c0,9.3-7.6,16.8-16.8,16.8c-9.3,0-16.8-7.6-16.8-16.8h-3.4h-3.3l-22.8-5.1l-0.7,3.3  l10.1,2.3v3l7.4,3c2.9,13.7,15.1,24,29.6,24c14.4,0,26.4-10.1,29.5-23.6h10.9V241L406.5,244.2z"/>
<path style="fill:#F5F5F5;" d="M443.6,129.8c0,0,0,64,0,80.8s-3.4,60.6-53.9,77.4c-50.5-16.8-53.9-60.6-53.9-77.4s0-80.8,0-80.8  h53.9H443.6 M446.9,126.5h-3.4h-53.9h-53.9h-3.4v3.4v80.8c0,39.9,19.9,68.6,56.2,80.6l1.1,0.4l1.1-0.4  c36.2-12.1,56.2-40.7,56.2-80.6v-80.8L446.9,126.5L446.9,126.5z"/>
<path style="fill:#FF965A;" d="M389.7,304.8c-24.8,0-47.8-8.3-61.5-22.2l9.6-9.5c11.2,11.4,30.6,18.2,51.9,18.2s40.6-6.8,51.9-18.2  l9.6,9.5C437.5,296.5,414.5,304.8,389.7,304.8z"/>
<path style="fill:#2E3033;" d="M19.2,489L19.2,489C8.6,489,0,480.4,0,469.8V42c0-10.5,8.5-19,19-19h0.2c10.6,0,19.2,8.6,19.2,19.2  v427.7C38.4,480.4,29.8,489,19.2,489z"/>
<g>
</g>
<g>
</g>
<g>
</g>
<g>
</g>
<g>
</g>
<g>
</g>
<g>
</g>
<g>
</g>
<g>
</g>
<g>
</g>
<g>
</g>
<g>
</g>
<g>
</g>
<g>
</g>
<g>
</g>
</svg>
