<?xml version="1.0" encoding="iso-8859-1"?>
<!-- Generator: Adobe Illustrator 19.0.0, SVG Export Plug-In . SVG Version: 6.00 Build 0)  -->
<svg xmlns="http://www.w3.org/2000/svg" xmlns:xlink="http://www.w3.org/1999/xlink" version="1.1" id="Layer_1" x="0px" y="0px" viewBox="0 0 512 512" style="enable-background:new 0 0 512 512;" xml:space="preserve">
<path style="fill:#82AFFF;" d="M503.537,382.938H32.807c-4.674,0-8.463-3.789-8.463-8.463V71.902c0-4.674,3.789-8.463,8.463-8.463  h470.73c4.674,0,8.463,3.789,8.463,8.463v302.572C512,379.149,508.211,382.938,503.537,382.938z"/>
<g>
	<path style="fill:#F5F5F5;" d="M267.064,109.437l-6.477,19.422l-20.474,0.159c-1.122,0.008-1.588,1.441-0.684,2.108l16.47,12.162   l-6.176,19.521c-0.339,1.071,0.88,1.955,1.793,1.303l16.656-11.905l16.656,11.905c0.913,0.653,2.132-0.233,1.793-1.303   l-6.176-19.521l16.47-12.162c0.903-0.666,0.438-2.099-0.684-2.108l-20.473-0.159l-6.477-19.422   C268.925,108.371,267.419,108.371,267.064,109.437z"/>
	<path style="fill:#F5F5F5;" d="M267.064,282.842l-6.477,19.422l-20.474,0.159c-1.122,0.008-1.588,1.441-0.684,2.108l16.47,12.162   l-6.176,19.521c-0.339,1.071,0.88,1.955,1.793,1.303l16.656-11.905l16.656,11.905c0.913,0.653,2.132-0.233,1.793-1.302   l-6.176-19.521l16.47-12.162c0.903-0.666,0.438-2.099-0.684-2.108l-20.473-0.159l-6.477-19.422   C268.925,281.777,267.419,281.777,267.064,282.842z"/>
	<path style="fill:#F5F5F5;" d="M381.923,222.081l-19.422-6.477l-0.159-20.473c-0.008-1.122-1.441-1.588-2.108-0.686l-12.162,16.47   l-19.521-6.176c-1.071-0.339-1.956,0.88-1.303,1.793l11.905,16.656l-11.905,16.656c-0.653,0.913,0.233,2.132,1.303,1.793   l19.521-6.176l12.162,16.47c0.666,0.903,2.099,0.438,2.108-0.684l0.159-20.474l19.422-6.477   C382.989,223.942,382.989,222.435,381.923,222.081z"/>
	<path style="fill:#F5F5F5;" d="M154.42,222.081l19.422-6.477l0.159-20.473c0.008-1.122,1.441-1.588,2.108-0.686l12.162,16.47   l19.521-6.176c1.071-0.339,1.955,0.88,1.302,1.793l-11.905,16.656l11.905,16.656c0.653,0.913-0.233,2.132-1.303,1.793   l-19.521-6.176l-12.162,16.47c-0.666,0.903-2.099,0.438-2.108-0.684l-0.159-20.474l-19.422-6.477   C153.355,223.942,153.355,222.435,154.42,222.081z"/>
</g>
<path style="fill:#2E3033;" d="M19.174,488.729L19.174,488.729C8.585,488.729,0,480.145,0,469.555V42.287  c0-10.502,8.514-19.016,19.016-19.016h0.158c10.589,0,19.174,8.585,19.174,19.174v427.111  C38.347,480.145,29.763,488.729,19.174,488.729z"/>
<g>
</g>
<g>
</g>
<g>
</g>
<g>
</g>
<g>
</g>
<g>
</g>
<g>
</g>
<g>
</g>
<g>
</g>
<g>
</g>
<g>
</g>
<g>
</g>
<g>
</g>
<g>
</g>
<g>
</g>
</svg>
