<?xml version="1.0" encoding="iso-8859-1"?>
<!-- Generator: Adobe Illustrator 19.0.0, SVG Export Plug-In . SVG Version: 6.00 Build 0)  -->
<svg xmlns="http://www.w3.org/2000/svg" xmlns:xlink="http://www.w3.org/1999/xlink" version="1.1" id="Layer_1" x="0px" y="0px" viewBox="0 0 512.001 512.001" style="enable-background:new 0 0 512.001 512.001;" xml:space="preserve">
<path style="fill:#F5F5F5;" d="M503.5,374H35.4c-4.6,0-8.4-3.8-8.4-8.4v-301c0-4.6,3.8-8.4,8.4-8.4h468.2c4.6,0,8.4,3.8,8.4,8.4  v300.9C511.9,370.2,508.1,374,503.5,374z"/>
<polygon style="fill:#41479B;" points="511.9,173.3 244.4,173.3 244.4,56.2 160.8,56.2 160.8,173.3 27,173.3 27,256.9 160.8,256.9  160.8,374 244.4,374 244.4,256.9 511.9,256.9"/>
<polygon style="fill:#FF4B55;" points="511.9,190 227.7,190 227.7,56.2 177.5,56.2 177.5,190 27,190 27,240.2 177.5,240.2  177.5,374 227.7,374 227.7,240.2 511.9,240.2"/>
<path style="fill:#2E3033;" d="M18.7,483.4L18.7,483.4C8.4,483.4,0,475.1,0,464.7V47.2c0-10.3,8.3-18.6,18.6-18.6h0.2  c10.3,0,18.7,8.4,18.7,18.7v417.4C37.5,475.1,29.2,483.4,18.7,483.4z"/>
<g>
</g>
<g>
</g>
<g>
</g>
<g>
</g>
<g>
</g>
<g>
</g>
<g>
</g>
<g>
</g>
<g>
</g>
<g>
</g>
<g>
</g>
<g>
</g>
<g>
</g>
<g>
</g>
<g>
</g>
</svg>
