<?xml version="1.0" encoding="iso-8859-1"?>
<!-- Generator: Adobe Illustrator 19.0.0, SVG Export Plug-In . SVG Version: 6.00 Build 0)  -->
<svg xmlns="http://www.w3.org/2000/svg" xmlns:xlink="http://www.w3.org/1999/xlink" version="1.1" id="Layer_1" x="0px" y="0px" viewBox="0 0 512.001 512.001" style="enable-background:new 0 0 512.001 512.001;" xml:space="preserve">
<path style="fill:#4173CD;" d="M503.632,56.369H35.048c-4.622,0-8.368,3.747-8.368,8.368V365.97c0,4.621,3.746,8.368,8.368,8.368  h468.585c4.622,0,8.368-3.747,8.368-8.368V64.736C512,60.116,508.254,56.369,503.632,56.369z"/>
<path style="fill:#F5F5F5;" d="M512,64.736c0-4.621-3.746-8.368-8.368-8.368h-37.443L269.34,185.34L72.491,56.369H35.048  c-4.622,0-8.368,3.747-8.368,8.368v21.646l196.849,128.97L26.68,344.324v21.646c0,4.621,3.746,8.368,8.368,8.368h37.443  l196.849-128.97l196.849,128.97h37.443c4.622,0,8.368-3.747,8.368-8.368v-21.646l-196.849-128.97L512,86.383V64.736z"/>
<path style="fill:#2E3033;" d="M19.152,488.46L19.152,488.46C8.575,488.46,0,479.885,0,469.309V42.534  C0,32.044,8.504,23.54,18.994,23.54h0.157c10.577,0,19.152,8.575,19.152,19.152V469.31C38.303,479.885,29.728,488.46,19.152,488.46z  "/>
<g>
</g>
<g>
</g>
<g>
</g>
<g>
</g>
<g>
</g>
<g>
</g>
<g>
</g>
<g>
</g>
<g>
</g>
<g>
</g>
<g>
</g>
<g>
</g>
<g>
</g>
<g>
</g>
<g>
</g>
</svg>
