<?xml version="1.0" encoding="iso-8859-1"?>
<!-- Generator: Adobe Illustrator 19.0.0, SVG Export Plug-In . SVG Version: 6.00 Build 0)  -->
<svg xmlns="http://www.w3.org/2000/svg" xmlns:xlink="http://www.w3.org/1999/xlink" version="1.1" id="Layer_1" x="0px" y="0px" viewBox="0 0 512.1 512.1" style="enable-background:new 0 0 512.1 512.1;" xml:space="preserve">
<path style="fill:#FF4B55;" d="M503.6,373.9H35.4c-4.6,0-8.4-3.7-8.4-8.4v-301c0-4.6,3.7-8.4,8.4-8.4h468.3c4.6,0,8.4,3.7,8.4,8.4  v301C512,370.1,508.3,373.9,503.6,373.9z"/>
<path style="fill:#FFE15A;" d="M466.8,106.3v217.4H82.2V106.3H466.8"/>
<g>
	<polygon style="fill:#73AF00;" points="82.2,106.3 274.5,215 82.2,323.7  "/>
	<polygon style="fill:#73AF00;" points="466.8,106.3 274.5,215 466.8,323.7  "/>
</g>
<circle style="fill:#FF4B55;" cx="274.5" cy="215" r="33.4"/>
<g>
	<path style="fill:#FFE15A;" d="M276.6,190.5l5.2,15.7l16.5,0.1c2.1,0,3,2.7,1.3,4l-13.3,9.8l5,15.8c0.6,2-1.7,3.7-3.4,2.5   l-13.5-9.6l-13.5,9.6c-1.7,1.2-4.1-0.4-3.4-2.5l5-15.8l-13.3-9.8c-1.7-1.3-0.8-4,1.3-4l16.5-0.1l5.2-15.7   C273.1,188.5,275.9,188.5,276.6,190.5z"/>
	<path style="fill:#FFE15A;" d="M275.7,67.2l3.1,9.3l9.8,0.1c1.3,0,1.8,1.6,0.8,2.4l-7.9,5.8l2.9,9.3c0.4,1.2-1,2.2-2,1.5l-7.9-5.7   l-7.9,5.7c-1,0.7-2.4-0.3-2-1.5l2.9-9.3l-7.9-5.8c-1-0.8-0.5-2.4,0.8-2.4l9.8-0.1l3.1-9.3C273.7,66,275.3,66,275.7,67.2z"/>
	<path style="fill:#FFE15A;" d="M385.8,67.2l3.1,9.3l9.8,0.1c1.3,0,1.8,1.6,0.8,2.4l-7.9,5.8l2.9,9.3c0.4,1.2-1,2.2-2,1.5l-7.9-5.7   l-7.9,5.7c-1,0.7-2.4-0.3-2-1.5l2.9-9.3l-7.9-5.8c-1-0.8-0.5-2.4,0.8-2.4l9.8-0.1l3.1-9.3C383.7,66,385.4,66,385.8,67.2z"/>
	<path style="fill:#FFE15A;" d="M165.7,67.2l3.1,9.3l9.8,0.1c1.3,0,1.8,1.6,0.8,2.4l-7.9,5.8l2.9,9.3c0.4,1.2-1,2.2-2,1.5l-7.9-5.7   l-7.9,5.7c-1,0.7-2.4-0.3-2-1.5l2.9-9.3l-7.9-5.8c-1-0.8-0.5-2.4,0.8-2.4l9.8-0.1l3.1-9.3C163.6,66,165.3,66,165.7,67.2z"/>
	<path style="fill:#FFE15A;" d="M275.7,334.3l3.1,9.3l9.8,0.1c1.3,0,1.8,1.6,0.8,2.4l-7.9,5.8l2.9,9.3c0.4,1.2-1,2.2-2,1.5l-7.9-5.7   l-7.9,5.7c-1,0.7-2.4-0.3-2-1.5l2.9-9.3l-7.9-5.8c-1-0.8-0.5-2.4,0.8-2.4l9.8-0.1l3.1-9.3C273.7,333.1,275.3,333.1,275.7,334.3z"/>
	<path style="fill:#FFE15A;" d="M385.8,334.3l3.1,9.3l9.8,0.1c1.3,0,1.8,1.6,0.8,2.4l-7.9,5.8l2.9,9.3c0.4,1.2-1,2.2-2,1.5l-7.9-5.7   l-7.9,5.7c-1,0.7-2.4-0.3-2-1.5l2.9-9.3l-7.9-5.8c-1-0.8-0.5-2.4,0.8-2.4l9.8-0.1l3.1-9.3C383.7,333.1,385.4,333.1,385.8,334.3z"/>
	<path style="fill:#FFE15A;" d="M165.7,334.3l3.1,9.3l9.8,0.1c1.3,0,1.8,1.6,0.8,2.4l-7.9,5.8l2.9,9.3c0.4,1.2-1,2.2-2,1.5l-7.9-5.7   l-7.9,5.7c-1,0.7-2.4-0.3-2-1.5l2.9-9.3l-7.9-5.8c-1-0.8-0.5-2.4,0.8-2.4l9.8-0.1l3.1-9.3C163.6,333.1,165.3,333.1,165.7,334.3z"/>
	<path style="fill:#FFE15A;" d="M143.8,194.1h-20.9V215c0,11.5,9.4,20.9,20.9,20.9s20.9-9.4,20.9-20.9S155.4,194.1,143.8,194.1z"/>
</g>
<polygon style="fill:#FF4B55;" points="164.7,235.9 153.3,233.7 143.8,215 162.5,224.4 "/>
<path style="fill:#2E3033;" d="M19.2,489.1L19.2,489.1C8.6,489.1,0,480.5,0,469.9V42c0-10.5,8.5-19,19-19h0.2  c10.6,0,19.2,8.6,19.2,19.2V470C38.4,480.5,29.8,489.1,19.2,489.1z"/>
<g>
</g>
<g>
</g>
<g>
</g>
<g>
</g>
<g>
</g>
<g>
</g>
<g>
</g>
<g>
</g>
<g>
</g>
<g>
</g>
<g>
</g>
<g>
</g>
<g>
</g>
<g>
</g>
<g>
</g>
</svg>
