<?xml version="1.0" encoding="iso-8859-1"?>
<!-- Generator: Adobe Illustrator 19.0.0, SVG Export Plug-In . SVG Version: 6.00 Build 0)  -->
<svg xmlns="http://www.w3.org/2000/svg" xmlns:xlink="http://www.w3.org/1999/xlink" version="1.1" id="Layer_1" x="0px" y="0px" viewBox="0 0 512 512" style="enable-background:new 0 0 512 512;" xml:space="preserve">
<path style="fill:#F5F5F5;" d="M503.6,373.9H35.4c-4.7,0-8.4-3.8-8.4-8.4V64.6c0-4.7,3.8-8.4,8.4-8.4h468.1c4.7,0,8.4,3.8,8.4,8.4  v300.9C512,370.1,508.2,373.9,503.6,373.9z"/>
<g>
	<polygon style="fill:#FF4B55;" points="512,189.9 294.6,189.9 294.6,56.1 244.4,56.1 244.4,189.9 27,189.9 27,240.1 244.4,240.1    244.4,373.9 294.6,373.9 294.6,240.1 512,240.1  "/>
	<path style="fill:#FF4B55;" d="M169.2,111.6c-8.3,0.8-16.4,1.7-24.5,2.5c0.8-8.1,1.7-16.2,2.5-24.5c-7.6,1-15.3,1-22.9,0   c0.8,8.3,1.7,16.4,2.5,24.5c-8.1-0.8-16.2-1.7-24.5-2.5c1,7.6,1,15.3,0,22.9c8.3-0.8,16.4-1.7,24.5-2.5c-0.8,8.1-1.7,16.2-2.5,24.5   c7.6-1,15.3-1,22.9,0c-0.8-8.3-1.7-16.4-2.5-24.5c8.1,0.8,16.2,1.7,24.5,2.5C168.2,126.9,168.2,119.2,169.2,111.6z"/>
	<path style="fill:#FF4B55;" d="M436.7,111.6c-8.3,0.8-16.4,1.7-24.5,2.5c0.8-8.1,1.7-16.2,2.5-24.5c-7.6,1-15.3,1-22.9,0   c0.8,8.3,1.7,16.4,2.5,24.5c-8.1-0.8-16.2-1.7-24.5-2.5c1,7.6,1,15.3,0,22.9c8.3-0.8,16.4-1.7,24.5-2.5c-0.8,8.1-1.7,16.2-2.5,24.5   c7.6-1,15.3-1,22.9,0c-0.8-8.3-1.7-16.4-2.5-24.5c8.1,0.8,16.2,1.7,24.5,2.5C435.8,126.9,435.8,119.2,436.7,111.6z"/>
	<path style="fill:#FF4B55;" d="M169.2,295.6c-8.3,0.8-16.4,1.7-24.5,2.5c0.8-8.1,1.7-16.2,2.5-24.5c-7.6,1-15.3,1-22.9,0   c0.8,8.3,1.7,16.4,2.5,24.5c-8.1-0.8-16.2-1.7-24.5-2.5c1,7.6,1,15.3,0,22.9c8.3-0.8,16.4-1.7,24.5-2.5c-0.8,8.1-1.7,16.2-2.5,24.5   c7.6-1,15.3-1,22.9,0c-0.8-8.3-1.7-16.4-2.5-24.5c8.1,0.8,16.2,1.7,24.5,2.5C168.2,310.8,168.2,303.1,169.2,295.6z"/>
	<path style="fill:#FF4B55;" d="M436.7,295.6c-8.3,0.8-16.4,1.7-24.5,2.5c0.8-8.1,1.7-16.2,2.5-24.5c-7.6,1-15.3,1-22.9,0   c0.8,8.3,1.7,16.4,2.5,24.5c-8.1-0.8-16.2-1.7-24.5-2.5c1,7.6,1,15.3,0,22.9c8.3-0.8,16.4-1.7,24.5-2.5c-0.8,8.1-1.7,16.2-2.5,24.5   c7.6-1,15.3-1,22.9,0c-0.8-8.3-1.7-16.4-2.5-24.5c8.1,0.8,16.2,1.7,24.5,2.5C435.8,310.8,435.8,303.1,436.7,295.6z"/>
</g>
<path style="fill:#2E3033;" d="M19.2,488.5L19.2,488.5C8.6,488.5,0,479.9,0,469.3V42.5c0-10.5,8.5-19,19-19h0.2  c10.6,0,19.2,8.6,19.2,19.2v426.6C38.3,479.9,29.7,488.5,19.2,488.5z"/>
<g>
</g>
<g>
</g>
<g>
</g>
<g>
</g>
<g>
</g>
<g>
</g>
<g>
</g>
<g>
</g>
<g>
</g>
<g>
</g>
<g>
</g>
<g>
</g>
<g>
</g>
<g>
</g>
<g>
</g>
</svg>
