<?xml version="1.0" encoding="iso-8859-1"?>
<!-- Generator: Adobe Illustrator 19.0.0, SVG Export Plug-In . SVG Version: 6.00 Build 0)  -->
<svg xmlns="http://www.w3.org/2000/svg" xmlns:xlink="http://www.w3.org/1999/xlink" version="1.1" id="Layer_1" x="0px" y="0px" viewBox="0 0 512.1 512.1" style="enable-background:new 0 0 512.1 512.1;" xml:space="preserve">
<path style="fill:#F5F5F5;" d="M503.6,373.9H35.4c-4.6,0-8.4-3.7-8.4-8.4v-301c0-4.6,3.7-8.4,8.4-8.4h468.3c4.6,0,8.4,3.7,8.4,8.4  v301C512,370.1,508.3,373.9,503.6,373.9z"/>
<polygon style="fill:#FF4B55;" points="512,181.6 302.9,181.6 302.9,56.1 236.1,56.1 236.1,181.6 27,181.6 27,248.4 236.1,248.4   236.1,373.9 302.9,373.9 302.9,248.4 512,248.4 "/>
<g>
	<polygon style="fill:#FFE15A;" points="369.8,240.1 369.8,189.9 357.3,202.5 181.7,202.5 169.2,189.9 169.2,240.1 181.7,227.5    357.3,227.5  "/>
	<polygon style="fill:#FFE15A;" points="244.4,315.3 294.6,315.3 282,302.8 282,127.2 294.6,114.7 244.4,114.7 257,127.2 257,302.8     "/>
</g>
<path style="fill:#2E3033;" d="M19.2,489.1L19.2,489.1C8.6,489.1,0,480.5,0,469.9V42c0-10.5,8.5-19,19-19h0.2  c10.6,0,19.2,8.6,19.2,19.2V470C38.4,480.5,29.8,489.1,19.2,489.1z"/>
<g>
</g>
<g>
</g>
<g>
</g>
<g>
</g>
<g>
</g>
<g>
</g>
<g>
</g>
<g>
</g>
<g>
</g>
<g>
</g>
<g>
</g>
<g>
</g>
<g>
</g>
<g>
</g>
<g>
</g>
</svg>
