<?xml version="1.0" encoding="iso-8859-1"?>
<!-- Generator: Adobe Illustrator 19.0.0, SVG Export Plug-In . SVG Version: 6.00 Build 0)  -->
<svg xmlns="http://www.w3.org/2000/svg" xmlns:xlink="http://www.w3.org/1999/xlink" version="1.1" id="Layer_1" x="0px" y="0px" viewBox="0 0 512.001 512.001" style="enable-background:new 0 0 512.001 512.001;" xml:space="preserve">
<path style="fill:#F5F5F5;" d="M512,214.751H24.345V63.465c0-4.674,3.789-8.463,8.463-8.463h470.73c4.674,0,8.463,3.789,8.463,8.463  v151.286H512z"/>
<g>
	<path style="fill:#FF4B55;" d="M24.345,214.751H512v151.286c0,4.674-3.789,8.463-8.463,8.463H32.807   c-4.674,0-8.463-3.789-8.463-8.463V214.751H24.345z"/>
	<path style="fill:#FF4B55;" d="M192.502,105.448c-60.366,0-109.302,48.937-109.302,109.302h218.604   C301.803,154.385,252.867,105.448,192.502,105.448z"/>
</g>
<path style="fill:#F5F5F5;" d="M192.502,324.053c60.366,0,109.302-48.937,109.302-109.302H83.2  C83.2,275.117,132.136,324.053,192.502,324.053z"/>
<path style="fill:#2E3033;" d="M19.174,488.73L19.174,488.73C8.585,488.73,0,480.146,0,469.556V42.288  c0-10.502,8.514-19.016,19.016-19.016h0.158c10.589,0,19.174,8.585,19.174,19.174v427.111  C38.347,480.146,29.763,488.73,19.174,488.73z"/>
<g>
</g>
<g>
</g>
<g>
</g>
<g>
</g>
<g>
</g>
<g>
</g>
<g>
</g>
<g>
</g>
<g>
</g>
<g>
</g>
<g>
</g>
<g>
</g>
<g>
</g>
<g>
</g>
<g>
</g>
</svg>
