<?xml version="1.0" encoding="iso-8859-1"?>
<!-- Generator: Adobe Illustrator 19.0.0, SVG Export Plug-In . SVG Version: 6.00 Build 0)  -->
<svg xmlns="http://www.w3.org/2000/svg" xmlns:xlink="http://www.w3.org/1999/xlink" version="1.1" id="Layer_1" x="0px" y="0px" viewBox="0 0 512 512" style="enable-background:new 0 0 512 512;" xml:space="preserve">
<path style="fill:#73AF00;" d="M24.345,269.409H512v100.839c0,4.674-3.789,8.463-8.463,8.463H32.807  c-4.674,0-8.463-3.789-8.463-8.463V269.409H24.345z"/>
<path style="fill:#FF4B55;" d="M32.807,59.214h470.73c4.674,0,8.463,3.789,8.463,8.463v100.839H24.345V67.677  C24.345,63.002,28.134,59.214,32.807,59.214z"/>
<rect x="24.341" y="168.52" style="fill:#41479B;" width="487.65" height="100.9"/>
<g>
	<rect x="24.341" y="168.52" style="fill:#F5F5F5;" width="487.65" height="16.816"/>
	<rect x="24.341" y="252.6" style="fill:#F5F5F5;" width="487.65" height="16.816"/>
</g>
<path style="fill:#2E3033;" d="M19.174,488.729L19.174,488.729C8.585,488.729,0,480.145,0,469.555V42.287  c0-10.502,8.514-19.016,19.016-19.016h0.158c10.589,0,19.174,8.585,19.174,19.174v427.111  C38.347,480.145,29.763,488.729,19.174,488.729z"/>
<g>
</g>
<g>
</g>
<g>
</g>
<g>
</g>
<g>
</g>
<g>
</g>
<g>
</g>
<g>
</g>
<g>
</g>
<g>
</g>
<g>
</g>
<g>
</g>
<g>
</g>
<g>
</g>
<g>
</g>
</svg>
