<?xml version="1.0" encoding="iso-8859-1"?>
<!-- Generator: Adobe Illustrator 19.0.0, SVG Export Plug-In . SVG Version: 6.00 Build 0)  -->
<svg xmlns="http://www.w3.org/2000/svg" xmlns:xlink="http://www.w3.org/1999/xlink" version="1.1" id="Layer_1" x="0px" y="0px" viewBox="0 0 512 512" style="enable-background:new 0 0 512 512;" xml:space="preserve">
<path style="fill:#73AF00;" d="M348.18,53.433h155.291c4.71,0,8.529,3.819,8.529,8.529v304.932c0,4.71-3.819,8.529-8.529,8.529  H348.18V53.433z"/>
<rect x="184.36" y="53.429" style="fill:#FFE15A;" width="163.82" height="321.99"/>
<path style="fill:#FF4B55;" d="M29.07,53.433h155.291v321.99H29.07c-4.71,0-8.529-3.819-8.529-8.529V61.961  C20.541,57.25,24.36,53.433,29.07,53.433z"/>
<path style="fill:#2E3033;" d="M19.323,490.544L19.323,490.544C8.651,490.544,0,481.892,0,471.22V40.619  c0-10.584,8.58-19.164,19.164-19.164h0.159c10.672,0,19.323,8.651,19.323,19.323v430.443  C38.647,481.892,29.995,490.544,19.323,490.544z"/>
<g>
</g>
<g>
</g>
<g>
</g>
<g>
</g>
<g>
</g>
<g>
</g>
<g>
</g>
<g>
</g>
<g>
</g>
<g>
</g>
<g>
</g>
<g>
</g>
<g>
</g>
<g>
</g>
<g>
</g>
</svg>
