<?xml version="1.0" encoding="iso-8859-1"?>
<!-- Generator: Adobe Illustrator 19.0.0, SVG Export Plug-In . SVG Version: 6.00 Build 0)  -->
<svg xmlns="http://www.w3.org/2000/svg" xmlns:xlink="http://www.w3.org/1999/xlink" version="1.1" id="Layer_1" x="0px" y="0px" viewBox="0 0 512 512" style="enable-background:new 0 0 512 512;" xml:space="preserve">
<path style="fill:#73AF00;" d="M512,162.05H27v-97.5c0-4.6,3.8-8.4,8.4-8.4h468.2c4.6,0,8.4,3.8,8.4,8.4V162.05z"/>
<path style="fill:#FF4B55;" d="M503.6,373.95H35.4c-4.6,0-8.4-3.8-8.4-8.4v-97.5h485v97.5C512,370.15,508.2,373.95,503.6,373.95z"/>
<rect x="27" y="162.05" style="fill:#F5F5F5;" width="485" height="105.9"/>
<path style="fill:#4173CD;" d="M148.3,220.25c2.4-3,2.4-7.3,0-10.4L29.2,58.95c-1.3,1.5-2.2,3.4-2.2,5.6v301c0,2.2,0.9,4.1,2.2,5.6  L148.3,220.25z"/>
<path style="fill:#B46446;" d="M267.5,222.55c0,0.2-0.1,19.9-5.1,29.5h14.1c-5-9.7-5.1-29.3-5.1-29.5c0-6.8,7-12.2,7.1-12.2  l-2.4-3.1c-0.2,0.1-2.5,1.9-4.7,4.8v-5.2h-3.9v5.2c-2.2-2.9-4.5-4.7-4.7-4.8l-2.4,3.1C260.5,210.35,267.5,215.75,267.5,222.55z"/>
<path style="fill:#73AF00;" d="M289.2,198.95c-0.1,0-0.2,0-0.3,0c-0.8-2.3-3-4-5.6-4c-0.9,0-1.8,0.2-2.6,0.6  c-0.8-1.5-2.4-2.6-4.3-2.6c-0.5,0-1,0.1-1.5,0.3c-1-2.5-3.5-4.2-6.3-4.2c-3.5,0-6.4,2.6-6.8,6c-0.4-0.1-0.7-0.1-1.1-0.1  c-3.8,0-6.9,3.1-6.9,6.9c0,0.4,0.1,0.9,0.1,1.3c-1.7,0.6-3.1,1.9-3.7,3.7c-0.1,0-0.2,0-0.4,0c-2.2,0-3.9,1.8-3.9,3.9  c0,2.2,1.8,3.9,3.9,3.9c1,0,1.9-0.4,2.6-1c0.9,0.6,2.1,1,3.3,1c1.1,0,2.1-0.3,3-0.8c0.9,0.5,1.9,0.8,3,0.8c3.3,0,5.9-2.6,5.9-5.9  c0-0.2,0-0.5-0.1-0.7c0.9,0.5,1.9,0.7,3,0.7c1.4,0,2.6-0.4,3.7-1.1c1,1.8,2.9,3.1,5.2,3.1c0.5,0,0.9-0.1,1.4-0.2  c1.1,1.3,2.7,2.1,4.5,2.1s3.3-0.8,4.4-2c3-0.2,5.4-2.8,5.4-5.9C295.1,201.55,292.4,198.95,289.2,198.95z"/>
<path style="fill:#5FA000;" d="M283.2,203.85c0-0.2,0-0.4,0.1-0.6c-1.1,1-2.5,1.6-4,1.6c-2.1,0-3.9-1.1-4.9-2.6  c-1.1,1.6-2.9,2.6-4.9,2.6c-1.6,0-3-0.6-4.1-1.6c-0.6,3.2-3.4,5.6-6.8,5.6c-0.3,0-0.7-0.1-1-0.1v0.1c0,2.6-1.7,4.7-4,5.5  c0.6,0.2,1.3,0.4,2,0.4c1.1,0,2.1-0.3,3-0.8c0.9,0.5,1.9,0.8,3,0.8c3.3,0,5.9-2.6,5.9-5.9c0-0.2,0-0.5-0.1-0.7  c0.9,0.5,1.9,0.7,3,0.7c1.4,0,2.6-0.4,3.7-1.1c1,1.8,2.9,3.1,5.2,3.1c0.5,0,0.9-0.1,1.4-0.2c1.1,1.3,2.7,2.1,4.5,2.1s3.3-0.8,4.4-2  l0,0C286.1,210.45,283.2,207.45,283.2,203.85z"/>
<path style="fill:#464655;" d="M269.5,264.65c-0.3,0-0.6-0.2-0.7-0.5c-0.1-0.2-1.9-5.4-9.1-5.4h-9.8c-5.8,0-10.6-4.7-10.6-10.6v-65  c0-0.4,0.3-0.7,0.7-0.7h61c0.4,0,0.7,0.3,0.7,0.7v65c0,5.8-4.7,10.6-10.6,10.6h-11.8c-7.3,0-9.1,5.3-9.1,5.4  C270.1,264.45,269.8,264.65,269.5,264.65L269.5,264.65z M240.7,183.85v64.2c0,5,4.1,9.1,9.1,9.1h9.8c5.8,0,8.7,3.1,9.8,5  c1.2-1.9,4-5,9.8-5H291c5,0,9.1-4.1,9.1-9.1v-64.2L240.7,183.85L240.7,183.85z"/>
<g>
	<polygon style="fill:#FFE15A;" points="261.9,165.55 263.8,168.55 267.3,168.75 265.6,171.85 267.3,174.95 263.8,175.05    261.9,178.05 260,175.05 256.5,174.95 258.2,171.85 256.5,168.75 260,168.55  "/>
	<polygon style="fill:#FFE15A;" points="245.3,168.35 247.8,170.75 251.3,170.05 250.4,173.55 252.7,176.15 249.3,177.05    248.2,180.45 245.7,177.95 242.2,178.65 243.1,175.25 240.8,172.65 244.2,171.65  "/>
	<polygon style="fill:#FFE15A;" points="229.3,173.05 232.3,174.95 235.5,173.45 235.4,177.05 238.3,179.05 235.1,180.75    234.8,184.25 231.8,182.35 228.6,183.85 228.7,180.25 225.8,178.25 228.9,176.55  "/>
	<polygon style="fill:#FFE15A;" points="277.1,165.55 275.2,168.55 271.7,168.75 273.4,171.85 271.7,174.95 275.2,175.05    277.1,178.05 279,175.05 282.5,174.95 280.8,171.85 282.5,168.75 279,168.55  "/>
	<polygon style="fill:#FFE15A;" points="293.7,168.35 291.2,170.75 287.7,170.05 288.6,173.55 286.3,176.15 289.7,177.05    290.8,180.45 293.3,177.95 296.8,178.65 295.9,175.25 298.2,172.65 294.8,171.65  "/>
	<polygon style="fill:#FFE15A;" points="309.7,173.05 306.7,174.95 303.5,173.45 303.6,177.05 300.7,179.05 303.9,180.75    304.2,184.25 307.2,182.35 310.4,183.85 310.3,180.25 313.2,178.25 310.1,176.55  "/>
</g>
<path style="fill:#2E3033;" d="M18.7,483.45L18.7,483.45c-10.3,0-18.7-8.3-18.7-18.7V47.15c0-10.3,8.3-18.6,18.6-18.6h0.2  c10.3,0,18.7,8.4,18.7,18.7v417.4C37.5,475.15,29.1,483.45,18.7,483.45z"/>
<g>
</g>
<g>
</g>
<g>
</g>
<g>
</g>
<g>
</g>
<g>
</g>
<g>
</g>
<g>
</g>
<g>
</g>
<g>
</g>
<g>
</g>
<g>
</g>
<g>
</g>
<g>
</g>
<g>
</g>
</svg>
