<?xml version="1.0" encoding="iso-8859-1"?>
<!-- Generator: Adobe Illustrator 19.0.0, SVG Export Plug-In . SVG Version: 6.00 Build 0)  -->
<svg xmlns="http://www.w3.org/2000/svg" xmlns:xlink="http://www.w3.org/1999/xlink" version="1.1" id="Layer_1" x="0px" y="0px" viewBox="0 0 512.001 512.001" style="enable-background:new 0 0 512.001 512.001;" xml:space="preserve">
<g>
	<rect x="27.43" y="91.958" style="fill:#F5F5F5;" width="484.57" height="35.27"/>
	<rect x="27.43" y="162.498" style="fill:#F5F5F5;" width="484.57" height="35.27"/>
	<rect x="27.43" y="233.048" style="fill:#F5F5F5;" width="484.57" height="35.27"/>
</g>
<rect x="27.43" y="268.328" style="fill:#41479B;" width="484.57" height="35.27"/>
<rect x="27.43" y="303.608" style="fill:#F5F5F5;" width="484.57" height="35.27"/>
<g>
	<path style="fill:#41479B;" d="M35.87,374.156h467.69c4.661,0,8.44-3.779,8.44-8.44V338.88H27.43v26.835   C27.43,370.376,31.209,374.156,35.87,374.156z"/>
	<path style="fill:#41479B;" d="M512,91.953V65.032c0-4.615-3.74-8.355-8.355-8.355H35.785c-4.615,0-8.355,3.74-8.355,8.355v62.196   v35.275v70.55H512v-35.275H194.524v-35.275h317.477v-35.275H194.524V91.953H512z"/>
</g>
<polygon style="fill:#F5F5F5;" points="194.524,127.228 128.615,127.228 128.615,56.678 93.339,56.678 93.339,127.228   27.43,127.228 27.43,162.503 93.339,162.503 93.339,233.053 128.615,233.053 128.615,162.503 194.524,162.503 "/>
<path style="fill:#2E3033;" d="M19.122,488.102L19.122,488.102C8.561,488.102,0,479.539,0,468.979V42.864  C0,32.39,8.491,23.899,18.965,23.899h0.157c10.561,0,19.122,8.561,19.122,19.122v425.958  C38.244,479.539,29.683,488.102,19.122,488.102z"/>
<g>
</g>
<g>
</g>
<g>
</g>
<g>
</g>
<g>
</g>
<g>
</g>
<g>
</g>
<g>
</g>
<g>
</g>
<g>
</g>
<g>
</g>
<g>
</g>
<g>
</g>
<g>
</g>
<g>
</g>
</svg>
