<?xml version="1.0" encoding="iso-8859-1"?>
<!-- Generator: Adobe Illustrator 19.0.0, SVG Export Plug-In . SVG Version: 6.00 Build 0)  -->
<svg xmlns="http://www.w3.org/2000/svg" xmlns:xlink="http://www.w3.org/1999/xlink" version="1.1" id="Layer_1" x="0px" y="0px" viewBox="0 0 512.1 512.1" style="enable-background:new 0 0 512.1 512.1;" xml:space="preserve">
<path style="fill:#41479B;" d="M503.6,373.9H35.4c-4.6,0-8.4-3.7-8.4-8.4v-301c0-4.6,3.7-8.4,8.4-8.4h468.3c4.6,0,8.4,3.7,8.4,8.4  v301C512,370.1,508.3,373.9,503.6,373.9z"/>
<path style="fill:#3CC8FF;" d="M274.5,131.4c-31.8,16.7-53.2,56.5-53.2,83.6s21.4,66.9,53.2,83.6c31.8-16.7,53.2-56.5,53.2-83.6  S306.3,148.1,274.5,131.4z"/>
<path style="fill:#73AF00;" d="M281.4,186.4c5.1-2.7,13.9-5.7,23.9-2c0,0-9.6-10.7-22.9-2c3.6-4.3,9-9.7,14.8-11.2  c0,0-11.6-4.3-18.6,11.1c1.4-7.8,1.1-20.1-11.5-27.2c0,0,7,15.1,7.7,27.6c-0.4-2.2-1.2-4.5-3.4-6.8c-6.6-6.9-12.4-7.5-12.4-7.5  s9.2,10.2,13.7,19.9c-2.6-3.1-7.2-7.1-14.6-6.9c-17.3,0.6-21.1,11-21.1,11c7.2-3,18.6-4.5,27.4-3.8c-11.4,2-15.5,16.2-15.5,16.2  c9.2-11.4,19.2-13.3,23.2-13.6c-7.3,6-6.9,17.1-6.9,17.1c1.7-6.3,8.3-13.4,11.5-16.6c8.6,9.3,9.6,19.8,9.6,19.8s1.9-3.2,1-9.6  c-0.8-6.1-4.6-10-7.5-12.4c15.2,2.1,25.1,13.1,25.1,13.1C300,188.3,287.6,186.4,281.4,186.4z"/>
<path style="fill:#FF4B55;" d="M500.3,72.8v284.3H48.7V72.8H500.3 M503.6,56.1H35.4c-4.6,0-8.4,3.7-8.4,8.4v301  c0,4.6,3.7,8.4,8.4,8.4h468.3c4.6,0,8.4-3.7,8.4-8.4v-301C512,59.9,508.3,56.1,503.6,56.1L503.6,56.1z"/>
<polygon style="fill:#FF965A;" points="257.5,235.2 265.2,222 328.2,220.6 324,238 "/>
<path style="fill:#4173CD;" d="M223.6,231.7c6.3,24.8,25.2,53.4,50.9,66.9c25.7-13.5,44.6-42.1,50.9-66.9L223.6,231.7L223.6,231.7z"/>
<g>
	<path style="fill:#FFE15A;" d="M232.7,256.8c0,0,18.2-0.9,29.2,3.6c2.7,1.1,3.1,4.8,0.6,6.4c-5.3,3.5-13.1,9.6-13.1,15L232.7,256.8   z"/>
	<path style="fill:#FFE15A;" d="M264.7,290.3c-0.7-7,5.5-12,13.9-15.3c11-4.3,5-11.1-0.5-15.5c-6.5-5.3,1.9-6.8,37.5-7.5l-17.4,27.2   l-23.7,19.5L264.7,290.3z"/>
</g>
<path style="fill:#FF4B55;" d="M274.5,303.3l-1.9-1c-33.2-17.4-55.4-59.2-55.4-87.3s22.3-69.9,55.4-87.3l1.9-1l1.9,1  c33.2,17.4,55.4,59.2,55.4,87.3s-22.3,69.9-55.4,87.3L274.5,303.3z M274.5,136.1c-29.4,16.6-49,53.8-49,78.9s19.6,62.3,49,78.9  c29.4-16.6,49-53.8,49-78.9S303.9,152.7,274.5,136.1z"/>
<g>
	<path style="fill:#A54B37;" d="M292.3,262.7c-0.4,0-0.8-0.1-1.1-0.3c-11.4-7.1-17.9-19-17.9-32.4v-38.5c0-1.2,0.9-2.1,2.1-2.1   s2.1,0.9,2.1,2.1V230c0,12,5.8,22.5,15.9,28.9c1,0.6,1.3,1.9,0.7,2.9C293.6,262.4,293,262.7,292.3,262.7z"/>
	<circle style="fill:#A54B37;" cx="275.4" cy="191.6" r="4.6"/>
</g>
<path style="fill:#2E3033;" d="M19.2,489.1L19.2,489.1C8.6,489.1,0,480.5,0,469.9V42c0-10.5,8.5-19,19-19h0.2  c10.6,0,19.2,8.6,19.2,19.2v427.7C38.4,480.5,29.8,489.1,19.2,489.1z"/>
<g>
</g>
<g>
</g>
<g>
</g>
<g>
</g>
<g>
</g>
<g>
</g>
<g>
</g>
<g>
</g>
<g>
</g>
<g>
</g>
<g>
</g>
<g>
</g>
<g>
</g>
<g>
</g>
<g>
</g>
</svg>
