<?xml version="1.0" encoding="iso-8859-1"?>
<!-- Generator: Adobe Illustrator 19.0.0, SVG Export Plug-In . SVG Version: 6.00 Build 0)  -->
<svg xmlns="http://www.w3.org/2000/svg" xmlns:xlink="http://www.w3.org/1999/xlink" version="1.1" id="Layer_1" x="0px" y="0px" viewBox="0 0 512 512" style="enable-background:new 0 0 512 512;" xml:space="preserve">
<path style="fill:#FFE15A;" d="M512,215.05H27V64.55c0-4.6,3.8-8.4,8.4-8.4h468.2c4.6,0,8.4,3.8,8.4,8.4V215.05z"/>
<path style="fill:#73AF00;" d="M27,215.05h485v150.5c0,4.6-3.8,8.4-8.4,8.4H35.4c-4.6,0-8.4-3.8-8.4-8.4  C27,365.55,27,215.05,27,215.05z"/>
<path style="fill:#FF4B55;" d="M185.9,56.15v317.8H35.4c-4.6,0-8.4-3.8-8.4-8.4v-301c0-4.6,3.8-8.4,8.4-8.4L185.9,56.15L185.9,56.15  z"/>
<path style="fill:#464655;" d="M104.9,173.35l-9.2,27.6l-29.1,0.2c-1.6,0-2.3,2.1-1,3l23.4,17.4l-8.8,27.8c-0.5,1.5,1.3,2.8,2.6,1.9  l23.7-16.9l23.7,16.9c1.3,0.9,3-0.3,2.6-1.9l-8.8-27.8l23.4-17.3c1.3-0.9,0.6-3-1-3l-29.1-0.2l-9.2-27.6  C107.5,171.85,105.4,171.85,104.9,173.35z"/>
<path style="fill:#2E3033;" d="M18.7,483.45L18.7,483.45c-10.3,0-18.7-8.3-18.7-18.7V47.15c0-10.3,8.3-18.6,18.6-18.6h0.2  c10.3,0,18.7,8.4,18.7,18.7v417.4C37.5,475.15,29.1,483.45,18.7,483.45z"/>
<g>
</g>
<g>
</g>
<g>
</g>
<g>
</g>
<g>
</g>
<g>
</g>
<g>
</g>
<g>
</g>
<g>
</g>
<g>
</g>
<g>
</g>
<g>
</g>
<g>
</g>
<g>
</g>
<g>
</g>
</svg>
