<?xml version="1.0" encoding="iso-8859-1"?>
<!-- Generator: Adobe Illustrator 19.0.0, SVG Export Plug-In . SVG Version: 6.00 Build 0)  -->
<svg xmlns="http://www.w3.org/2000/svg" xmlns:xlink="http://www.w3.org/1999/xlink" version="1.1" id="Layer_1" x="0px" y="0px" viewBox="0 0 512 512" style="enable-background:new 0 0 512 512;" xml:space="preserve">
<path style="fill:#F5F5F5;" d="M503.5,56.2H35.4c-4.6,0-8.4,3.8-8.4,8.4v31.3v39.7v39.7v31.4v8.4v39.7v39.7v39.6v31.3  c0,4.6,3.8,8.4,8.4,8.4h468.2c4.6,0,8.4-3.8,8.4-8.4v-31.3v-39.7v-39.7v-39.6v-39.7v-39.7V95.9V64.6C511.9,60,508.1,56.2,503.5,56.2  z"/>
<rect x="27" y="95.9" style="fill:#FF4B55;" width="484.9" height="39.7"/>
<rect x="27" y="135.7" style="fill:#41479B;" width="484.9" height="39.7"/>
<g>
	<polygon style="fill:#FF4B55;" points="511.9,254.8 27,254.8 27,206.7 37.5,206.7 37.5,215.1 511.9,215.1  "/>
	<path style="fill:#FF4B55;" d="M503.5,374H35.4c-4.6,0-8.4-3.8-8.4-8.4v-31.3h484.9v31.3C511.9,370.2,508.1,374,503.5,374z"/>
</g>
<g>
	<rect x="27" y="254.8" style="fill:#41479B;" width="484.9" height="39.7"/>
	<path style="fill:#41479B;" d="M264.1,215.1H38.4c-4.6,0-8.4-3.8-8.4-8.4v-142c0-4.6,3.8-8.4,8.4-8.4H264c4.6,0,8.4,3.8,8.4,8.4   v142C272.5,211.3,268.6,215.1,264.1,215.1z"/>
</g>
<path style="fill:#F5F5F5;" d="M264.1,56.2h-14.5l-77.5,50.7V56.2h-41.8v50.7L52.9,56.2H38.4c-4.6,0-8.4,3.7-8.4,8.4v6.6l66.5,43.5  H30v41.8h66.5L30,200.1v6.6c0,4.6,3.7,8.4,8.4,8.4h14.5l77.5-50.7v50.7h41.8v-50.7l77.5,50.7h14.5c4.6,0,8.4-3.7,8.4-8.4v-6.6  L206,156.6h66.5v-41.8H206l66.5-43.5v-6.6C272.5,60,268.8,56.2,264.1,56.2z"/>
<g>
	<polygon style="fill:#FF4B55;" points="272.5,123.1 163.7,123.1 163.7,56.2 138.7,56.2 138.7,123.1 30,123.1 30,148.2 138.7,148.2    138.7,215.1 163.7,215.1 163.7,148.2 272.5,148.2  "/>
	<path style="fill:#FF4B55;" d="M121.9,114.8L34,57.6c-2.3,1.5-4,4-4,6.9v0.4l76.6,49.7L121.9,114.8L121.9,114.8z"/>
	<path style="fill:#FF4B55;" d="M187.5,114.8l83.7-54.3c-1.5-2.5-4-4.2-7.1-4.2h-1.8l-90.2,58.5H187.5z"/>
	<path style="fill:#FF4B55;" d="M114.8,156.6l-83.6,54.2c1.4,2.5,4,4.3,7.2,4.3H40l90.2-58.5H114.8z"/>
	<path style="fill:#FF4B55;" d="M272.4,207.4L194,156.6h-15.4l88.9,57.7C270.2,213.1,272,210.5,272.4,207.4z"/>
</g>
<path style="fill:#2E3033;" d="M18.7,483.4L18.7,483.4C8.4,483.4,0,475.1,0,464.7V47.2c0-10.3,8.3-18.6,18.6-18.6h0.2  c10.3,0,18.7,8.4,18.7,18.7v417.4C37.5,475.1,29.2,483.4,18.7,483.4z"/>
<g>
</g>
<g>
</g>
<g>
</g>
<g>
</g>
<g>
</g>
<g>
</g>
<g>
</g>
<g>
</g>
<g>
</g>
<g>
</g>
<g>
</g>
<g>
</g>
<g>
</g>
<g>
</g>
<g>
</g>
</svg>
