<?xml version="1.0" encoding="iso-8859-1"?>
<!-- Generator: Adobe Illustrator 19.0.0, SVG Export Plug-In . SVG Version: 6.00 Build 0)  -->
<svg xmlns="http://www.w3.org/2000/svg" xmlns:xlink="http://www.w3.org/1999/xlink" version="1.1" id="Layer_1" x="0px" y="0px" viewBox="0 0 512 512" style="enable-background:new 0 0 512 512;" xml:space="preserve">
<g>
	<path style="fill:#4173CD;" d="M512,162.357H26.68V64.821c0-4.668,3.785-8.453,8.453-8.453h468.414   c4.668,0,8.453,3.785,8.453,8.453V162.357z"/>
	<path style="fill:#4173CD;" d="M503.547,374.337H35.133c-4.668,0-8.453-3.785-8.453-8.453v-97.537H512v97.536   C512,370.552,508.216,374.337,503.547,374.337z"/>
</g>
<rect x="26.68" y="162.357" style="fill:#F5F5F5;" width="485.32" height="105.99"/>
<g>
	<path style="fill:#4173CD;" d="M270.55,201.682l2.995,8.979l9.465,0.074c1.226,0.01,1.734,1.573,0.748,2.301l-7.614,5.622   l2.855,9.025c0.37,1.169-0.96,2.135-1.958,1.422l-7.701-5.504l-7.701,5.504c-0.997,0.712-2.328-0.254-1.958-1.422l2.855-9.025   l-7.614-5.622c-0.986-0.728-0.478-2.292,0.748-2.301l9.465-0.074l2.995-8.979C268.518,200.52,270.162,200.52,270.55,201.682z"/>
	<path style="fill:#4173CD;" d="M185.076,225.781l2.995,8.979l9.465,0.073c1.226,0.01,1.734,1.573,0.748,2.301l-7.614,5.622   l2.855,9.025c0.37,1.169-0.96,2.135-1.958,1.422l-7.701-5.504l-7.701,5.504c-0.997,0.712-2.327-0.254-1.958-1.422l2.855-9.025   l-7.614-5.622c-0.986-0.728-0.478-2.292,0.748-2.301l9.465-0.073l2.995-8.979C183.044,224.619,184.689,224.619,185.076,225.781z"/>
	<path style="fill:#4173CD;" d="M185.076,177.583l2.995,8.979l9.465,0.073c1.226,0.01,1.734,1.573,0.748,2.301l-7.614,5.622   l2.855,9.025c0.37,1.169-0.96,2.134-1.958,1.422l-7.701-5.504l-7.701,5.504c-0.997,0.712-2.327-0.254-1.958-1.422l2.855-9.025   l-7.614-5.622c-0.986-0.728-0.478-2.292,0.748-2.301l9.465-0.073l2.995-8.979C183.044,176.421,184.689,176.421,185.076,177.583z"/>
	<path style="fill:#4173CD;" d="M356.023,225.781l2.995,8.979l9.465,0.073c1.226,0.01,1.734,1.573,0.748,2.301l-7.614,5.622   l2.855,9.025c0.37,1.169-0.96,2.135-1.958,1.422l-7.701-5.504l-7.701,5.504c-0.996,0.712-2.327-0.254-1.958-1.422l2.855-9.025   l-7.614-5.622c-0.986-0.728-0.478-2.292,0.748-2.301l9.465-0.073l2.995-8.979C353.991,224.619,355.636,224.619,356.023,225.781z"/>
	<path style="fill:#4173CD;" d="M356.023,177.583l2.995,8.979l9.465,0.073c1.226,0.01,1.734,1.573,0.748,2.301l-7.614,5.622   l2.855,9.025c0.37,1.169-0.96,2.134-1.958,1.422l-7.701-5.504l-7.701,5.504c-0.996,0.712-2.327-0.254-1.958-1.422l2.855-9.025   l-7.614-5.622c-0.986-0.728-0.478-2.292,0.748-2.301l9.465-0.073l2.995-8.979C353.991,176.421,355.636,176.421,356.023,177.583z"/>
</g>
<path style="fill:#2E3033;" d="M19.152,488.46L19.152,488.46C8.575,488.46,0,479.884,0,469.307V42.534  C0,32.044,8.504,23.54,18.994,23.54h0.157c10.577,0,19.152,8.575,19.152,19.152V469.31C38.303,479.884,29.728,488.46,19.152,488.46z  "/>
<g>
</g>
<g>
</g>
<g>
</g>
<g>
</g>
<g>
</g>
<g>
</g>
<g>
</g>
<g>
</g>
<g>
</g>
<g>
</g>
<g>
</g>
<g>
</g>
<g>
</g>
<g>
</g>
<g>
</g>
</svg>
