<?xml version="1.0" encoding="iso-8859-1"?>
<!-- Generator: Adobe Illustrator 19.0.0, SVG Export Plug-In . SVG Version: 6.00 Build 0)  -->
<svg xmlns="http://www.w3.org/2000/svg" xmlns:xlink="http://www.w3.org/1999/xlink" version="1.1" id="Layer_1" x="0px" y="0px" viewBox="0 0 512 512" style="enable-background:new 0 0 512 512;" xml:space="preserve">
<path style="fill:#4173CD;" d="M512,215H27V64.5c0-4.6,3.8-8.4,8.4-8.4h468.2c4.6,0,8.4,3.8,8.4,8.4V215z"/>
<path style="fill:#FF4B55;" d="M27,215h485v150.5c0,4.6-3.8,8.4-8.4,8.4H35.4c-4.6,0-8.4-3.8-8.4-8.4C27,365.5,27,215,27,215z"/>
<path style="fill:#2E3033;" d="M18.9,485.2L18.9,485.2C8.5,485.2,0,476.7,0,466.3V45.5c0-10.3,8.4-18.7,18.7-18.7h0.2  c10.4,0,18.9,8.5,18.9,18.9v420.6C37.8,476.7,29.3,485.2,18.9,485.2z"/>
<g>
</g>
<g>
</g>
<g>
</g>
<g>
</g>
<g>
</g>
<g>
</g>
<g>
</g>
<g>
</g>
<g>
</g>
<g>
</g>
<g>
</g>
<g>
</g>
<g>
</g>
<g>
</g>
<g>
</g>
</svg>
