<?xml version="1.0" encoding="iso-8859-1"?>
<!-- Generator: Adobe Illustrator 19.0.0, SVG Export Plug-In . SVG Version: 6.00 Build 0)  -->
<svg xmlns="http://www.w3.org/2000/svg" xmlns:xlink="http://www.w3.org/1999/xlink" version="1.1" id="Layer_1" x="0px" y="0px" viewBox="0 0 512 512" style="enable-background:new 0 0 512 512;" xml:space="preserve">
<path style="fill:#F5F5F5;" d="M184.263,374.608H28.871c-4.681,0-8.476-3.795-8.476-8.476V60.999c0-4.681,3.795-8.476,8.476-8.476  h155.392V374.608z"/>
<rect x="184.27" y="52.52" style="fill:#4173CD;" width="163.87" height="322.08"/>
<path style="fill:#FFE15A;" d="M503.524,374.608H348.132V52.523h155.392c4.681,0,8.476,3.795,8.476,8.476v305.133  C512,370.813,508.205,374.608,503.524,374.608z"/>
<g>
	<path style="fill:#C17400;" d="M240.615,222.968c-0.097,2.531-3.894,3.601-3.894,3.601c-0.389-4.282,3.991-12.166,4.866-12.847   c0.876-0.681,4.38-3.894,0.876-3.212s-6.911,8.565-7.69,9.927c-0.779,1.363-2.628,1.265-2.628,1.265s0-6.326,0-7.689   c0-1.363,6.035-4.282,6.035-4.282s0.974-5.84,0.097-6.424s-2.725,1.071-5.354,1.265c-2.628,0.195-5.84,0.292-8.565,2.822   c-2.725,2.531-2.822,4.282-2.822,8.565s0,0,0,10.317s-9.636,17.52-13.237,21.121c-0.98,0.98-1.356,2.179-1.388,3.437   c-0.724,0.678-2.32,1.666-3.654,1.379c-2.05-0.441-2.355-4.045-2.355-6.155c0-0.645-0.522-1.168-1.168-1.168   s-1.168,0.522-1.168,1.168c0,7.136,3.038,8.406,4.847,8.53c0.1,0.006,0.199,0.01,0.301,0.01c1.199,0,2.489-0.474,3.559-1.134   c0.696,2.519,2.162,4.861,2.583,5.807c0.779,1.752-3.504,4.575-3.504,4.575l3.504,10.804h4.77c0-2.676-3.26-2.141-3.747-2.822   c-0.486-0.681-1.07-6.862-1.07-6.862l6.767-5.662c0.522-0.437,0.824-1.083,0.824-1.764v-3.013c0,0,4.964,0.803,6.205,1.898   c1.241,1.096,0.146,4.38,0.146,4.818s6.277,5.986,6.277,5.986h4.307c0-1.971-2.044-1.898-3.066-2.263   c-1.022-0.366-4.088-4.161-4.088-4.161s1.655-5.134,1.655-6.399s-7.105-6.424-7.105-6.424s0.974-1.655,8.176-6.132   s6.619-9.539,6.619-9.539l6.23-7.007v-5.061C242.756,220.243,240.712,220.438,240.615,222.968z"/>
	<path style="fill:#C17400;" d="M291.958,222.968c0.097,2.531,3.894,3.601,3.894,3.601c0.389-4.282-3.991-12.166-4.866-12.847   c-0.876-0.681-4.38-3.894-0.876-3.212c3.504,0.681,6.911,8.565,7.69,9.927c0.779,1.363,2.628,1.265,2.628,1.265s0-6.326,0-7.689   c0-1.363-6.035-4.282-6.035-4.282s-0.974-5.84-0.098-6.424s2.725,1.071,5.354,1.265c2.628,0.195,5.84,0.292,8.565,2.822   c2.725,2.531,2.822,4.282,2.822,8.565s0,0,0,10.317s9.636,17.52,13.237,21.121c0.98,0.98,1.356,2.179,1.388,3.437   c0.724,0.678,2.32,1.666,3.654,1.379c2.05-0.441,2.355-4.045,2.355-6.155c0-0.645,0.522-1.168,1.168-1.168s1.168,0.522,1.168,1.168   c0,7.136-3.038,8.406-4.847,8.53c-0.1,0.006-0.199,0.01-0.301,0.01c-1.199,0-2.489-0.474-3.559-1.134   c-0.696,2.519-2.162,4.861-2.583,5.807c-0.779,1.752,3.504,4.575,3.504,4.575l-3.504,10.804h-4.77c0-2.676,3.261-2.141,3.747-2.822   s1.07-6.862,1.07-6.862l-6.767-5.662c-0.522-0.437-0.824-1.083-0.824-1.764v-3.013c0,0-4.964,0.803-6.205,1.898   c-1.241,1.096-0.146,4.38-0.146,4.818s-6.277,5.986-6.277,5.986h-4.307c0-1.971,2.044-1.898,3.066-2.263   c1.022-0.366,4.087-4.161,4.087-4.161s-1.655-5.134-1.655-6.399s7.105-6.424,7.105-6.424s-0.974-1.655-8.176-6.132   s-6.619-9.539-6.619-9.539l-6.23-7.007v-5.061C289.816,220.243,291.86,220.438,291.958,222.968z"/>
</g>
<g>
	<polygon style="fill:#C8C8C8;" points="256.917,216.3 249.91,223.309 263.926,223.309  "/>
	<polygon style="fill:#C8C8C8;" points="275.605,216.3 268.598,223.309 282.613,223.309  "/>
	<polygon style="fill:#C8C8C8;" points="256.917,227.981 249.91,234.989 263.926,234.989  "/>
	<polygon style="fill:#C8C8C8;" points="275.605,227.981 268.598,234.989 282.613,234.989  "/>
	<polygon style="fill:#C8C8C8;" points="256.917,239.661 249.91,246.669 263.926,246.669  "/>
	<polygon style="fill:#C8C8C8;" points="275.605,239.661 268.598,246.669 282.613,246.669  "/>
	<polygon style="fill:#C8C8C8;" points="266.262,251.341 259.253,258.348 273.269,258.348  "/>
</g>
<g>
	<rect x="265.1" y="178.93" style="fill:#FFE15A;" width="2.336" height="14.02"/>
	<path style="fill:#FFE15A;" d="M253.449,193.224c-0.039-0.15-0.9-3.737,1.516-6.351c2.127-2.304,5.998-3.007,11.488-2.091   l-0.384,2.304c-4.607-0.771-7.852-0.295-9.389,1.371c-1.544,1.672-0.972,4.177-0.966,4.202L253.449,193.224z"/>
	<path style="fill:#FFE15A;" d="M247.051,200.994c-2.919-1.46-4.353-5.699-3.133-9.257c0.512-1.492,2.812-6.232,10.893-4.613   l-0.459,2.291c-4.269-0.86-7.26,0.271-8.224,3.08c-0.833,2.425,0.106,5.48,1.967,6.41L247.051,200.994z"/>
	<path style="fill:#FFE15A;" d="M279.074,193.224l-2.265-0.566l1.133,0.283l-1.135-0.279c0.006-0.025,0.586-2.544-0.978-4.22   c-1.544-1.656-4.786-2.126-9.375-1.357l-0.384-2.304c5.498-0.918,9.362-0.212,11.488,2.091   C279.974,189.487,279.112,193.073,279.074,193.224z"/>
	<path style="fill:#FFE15A;" d="M285.471,200.994l-1.045-2.089c1.862-0.93,2.8-3.986,1.967-6.41c-0.964-2.809-3.96-3.937-8.224-3.08   l-0.459-2.291c8.086-1.618,10.381,3.123,10.893,4.613C289.826,195.295,288.39,199.534,285.471,200.994z"/>
</g>
<path style="fill:#FF4B55;" d="M275.605,192.941c0,0-4.672-2.336-9.344-2.336s-9.344,2.336-9.344,2.336  c-4.672-2.336-11.68,0-11.68,4.672s7.007,11.68,7.007,11.68h14.016h14.016c0,0,7.007-7.007,7.007-11.68  C287.285,192.941,280.278,190.606,275.605,192.941z"/>
<rect x="263.93" y="180.09" style="fill:#FFE15A;" width="4.672" height="2.336"/>
<g>
	<rect x="242.9" y="167.24" style="fill:#C8C8C8;" width="46.724" height="9.344"/>
	
		<rect x="237.051" y="171.534" transform="matrix(0.3161 0.9487 -0.9487 0.3161 334.2601 -105.8583)" style="fill:#C8C8C8;" width="7.01" height="14.773"/>
	
		<rect x="284.59" y="175.419" transform="matrix(0.9487 0.3162 -0.3162 0.9487 71.5557 -83.1425)" style="fill:#C8C8C8;" width="14.774" height="7.01"/>
</g>
<path style="fill:#464655;" d="M266.262,266.524c-13.524,0-24.528-6.811-24.528-15.184v-39.712c0-1.933,1.572-3.504,3.504-3.504  h42.048c1.933,0,3.504,1.572,3.504,3.504v39.712C290.789,259.713,279.786,266.524,266.262,266.524z M245.237,210.46  c-0.644,0-1.168,0.524-1.168,1.168v39.712c0,7.084,9.955,12.847,22.192,12.847c12.236,0,22.192-5.765,22.192-12.847v-39.712  c0-0.643-0.523-1.168-1.168-1.168H245.237z"/>
<path style="fill:#2E3033;" d="M19.203,489.087L19.203,489.087C8.598,489.087,0,480.49,0,469.884V41.958  c0-10.519,8.527-19.045,19.045-19.045h0.158c10.606,0,19.203,8.598,19.203,19.203v427.768  C38.407,480.49,29.809,489.087,19.203,489.087z"/>
<g>
</g>
<g>
</g>
<g>
</g>
<g>
</g>
<g>
</g>
<g>
</g>
<g>
</g>
<g>
</g>
<g>
</g>
<g>
</g>
<g>
</g>
<g>
</g>
<g>
</g>
<g>
</g>
<g>
</g>
</svg>
