<?xml version="1.0" encoding="iso-8859-1"?>
<!-- Generator: Adobe Illustrator 19.0.0, SVG Export Plug-In . SVG Version: 6.00 Build 0)  -->
<svg xmlns="http://www.w3.org/2000/svg" xmlns:xlink="http://www.w3.org/1999/xlink" version="1.1" id="Layer_1" x="0px" y="0px" viewBox="0 0 512 512" style="enable-background:new 0 0 512 512;" xml:space="preserve">
<path style="fill:#41479B;" d="M503.56,374.155H35.87c-4.661,0-8.44-3.779-8.44-8.44V65.118c0-4.661,3.779-8.44,8.44-8.44h467.69  c4.661,0,8.44,3.779,8.44,8.44v300.597C512,370.376,508.222,374.155,503.56,374.155z"/>
<rect x="27.43" y="115.168" style="fill:#F5F5F5;" width="484.57" height="200.51"/>
<path style="fill:#41479B;" d="M313.126,215.417l21.704-37.593h-43.408l-21.708-37.599l-21.708,37.599h-43.408l21.704,37.593  l-21.704,37.593h43.408l21.708,37.599l21.708-37.599h43.408L313.126,215.417z M313.537,190.118l-7.508,13.004l-7.507-13.004H313.537  z M298.93,215.417l-14.605,25.298h-29.219L240.5,215.417l14.605-25.298h29.219L298.93,215.417z M269.715,164.814l7.511,13.009  h-15.022L269.715,164.814z M225.893,190.118h15.016l-7.508,13.004L225.893,190.118z M225.893,240.715l7.508-13.004l7.508,13.004  H225.893z M269.715,266.019l-7.511-13.009h15.022L269.715,266.019z M306.028,227.711l7.508,13.004H298.52L306.028,227.711z"/>
<path style="fill:#2E3033;" d="M19.122,488.101L19.122,488.101C8.561,488.101,0,479.539,0,468.979V42.864  C0,32.39,8.491,23.899,18.965,23.899h0.157c10.561,0,19.122,8.561,19.122,19.122v425.958  C38.244,479.539,29.683,488.101,19.122,488.101z"/>
<g>
</g>
<g>
</g>
<g>
</g>
<g>
</g>
<g>
</g>
<g>
</g>
<g>
</g>
<g>
</g>
<g>
</g>
<g>
</g>
<g>
</g>
<g>
</g>
<g>
</g>
<g>
</g>
<g>
</g>
</svg>
