<?xml version="1.0" encoding="iso-8859-1"?>
<!-- Generator: Adobe Illustrator 19.0.0, SVG Export Plug-In . SVG Version: 6.00 Build 0)  -->
<svg xmlns="http://www.w3.org/2000/svg" xmlns:xlink="http://www.w3.org/1999/xlink" version="1.1" id="Layer_1" x="0px" y="0px" viewBox="0 0 512 512" style="enable-background:new 0 0 512 512;" xml:space="preserve">
<path style="fill:#FF4B55;" d="M503.6,373.9H35.4c-4.6,0-8.4-3.8-8.4-8.4v-301c0-4.6,3.8-8.4,8.4-8.4h468.2c4.6,0,8.4,3.8,8.4,8.4  v300.9C512,370.1,508.2,373.9,503.6,373.9z"/>
<g>
	<path style="fill:#FFE15A;" d="M273.1,224.5l-2.3,1.3c-4-5.7-3.8-19.7-3.8-19.9c0-0.4-0.2-0.8-0.6-1l-17.2-7.5l0.1-1.8   c9,1,19.3,5.2,19.5,5.3c0.4,0.2,0.8,0.2,1.1-0.1l14.3-11.9l3.1,2.7c-4.4,5.5-15.3,13-15.4,13.1c-0.4,0.2-0.6,0.6-0.6,1L273.1,224.5   z"/>
	<path style="fill:#FFE15A;" d="M335.4,139.8c0.4,0.2,0.8,0.1,1.1-0.1l3.7-2.8l-1.2,3.4c-0.1,0.4,0,0.8,0.3,1.1l1.8,1.6   c-0.5,0.9-0.7,2-0.7,3.1l-2.6,1.3c-0.2,0.1-0.4,0.3-0.5,0.5l-1.9,4.7l-1.1-3.9c-0.1-0.5-0.6-0.8-1.1-0.8l-4.7,0.6l3.8-4.3   c0.2-0.2,0.3-0.5,0.2-0.8l-0.8-5.7L335.4,139.8z"/>
	<path style="fill:#FFE15A;" d="M293.1,293.1c-0.3,0.2-0.5,0.6-0.5,1l0.6,4.6l-2.4-2.7c-0.3-0.3-0.7-0.4-1.1-0.3l-2.2,0.8   c-0.5-0.9-1.4-1.6-2.3-2.2l0.1-2.9c0-0.2-0.1-0.5-0.2-0.7l-3.2-4l3.9,1c0.5,0.1,1-0.1,1.2-0.6l1.7-4.4l1.9,5.4   c0.1,0.3,0.3,0.5,0.6,0.6l5.4,2L293.1,293.1z"/>
	<path style="fill:#FFE15A;" d="M179.2,185.3c-0.1-0.4-0.3-0.7-0.7-0.8l-4.4-1.5l3.5-1c0.4-0.1,0.7-0.5,0.8-0.9l0.3-2.3   c1-0.1,2-0.5,3-1.1l2.6,1.4c0.2,0.1,0.5,0.2,0.7,0.1l5-1.1l-2.6,3.1c-0.3,0.4-0.3,1,0,1.4l3.2,3.5l-5.7-0.7c-0.3,0-0.6,0.1-0.8,0.3   l-4.2,3.9L179.2,185.3z"/>
</g>
<g>
	<path style="fill:#F5F5F5;" d="M270.4,326.1c-2.5,5.1-8,9.3-9.4,9.6c-0.2,0-0.5,0-0.7-0.2c-0.6-0.7-0.9-2.6-0.1-5.1   c0.1-0.2,0.2-0.6,0.3-1L270.4,326.1z"/>
	<path style="fill:#F5F5F5;" d="M272.2,320.8c-0.3,1-0.6,2-0.8,2.7l-10.1,3.4c0.3-0.9,0.6-1.9,0.9-3L272.2,320.8z"/>
</g>
<path style="fill:#FFE15A;" d="M274.5,315.1c-0.5,1.1-1,2.2-1.4,3.2l-10.3,3.2c0.3-1.1,0.6-2.3,0.9-3.4L274.5,315.1z"/>
<g>
	<path style="fill:#F5F5F5;" d="M276.5,311c-0.3,0.5-0.6,1.1-0.9,1.7l-11.3,3.1c0.5-2,0.9-3.9,1.2-5.5L276.5,311z"/>
	<path style="fill:#F5F5F5;" d="M279.7,306.7c-0.7,0.6-1.3,1.4-1.9,2.3l-11.9-0.9c0.2-1.1,0.3-2,0.3-2.7c0-0.5,0-1-0.1-1.6   c0.5,0,1,0,1.4,0c3,0,5.1-0.5,6.6-1.3C275.8,305,278,306.1,279.7,306.7z"/>
	<path style="fill:#F5F5F5;" d="M282.1,305c-0.7-0.1-4.1-0.4-6.3-3.7c1.1-1,1.7-2,1.9-2.7c1.2-3.5-7.4-8.9-12.7-11.8   c-2.5-1.4-4.4-4.1-6.2-7.2c0.2,0,0.4,0,0.6,0c2.7,0,4.8-1.2,5.9-2.2c1,1.7,1.9,3.2,2.7,4.5c3.8,6.4,5.5,9.3,9.5,12.1   c0.1,0.1,0.3,0.2,0.5,0.2c2,0.2,7.6,1.5,7.9,4C286.4,301.7,285.1,303.8,282.1,305z"/>
	<path style="fill:#F5F5F5;" d="M275.7,297.9c-0.5,1.3-2.4,4.3-9.9,3.8c-0.7-4.3-2.6-7.4-5.6-8.8c-3.9-1.9-18.7-12.4-25.4-18.7   c1.3-4.2,4.8-7.7,9.8-9.5c0.7-0.3,1.3-0.5,1.9-0.8c1.3,1.1,2.5,2.3,3.5,3.7c1.5,2.2,2.9,4.9,4.3,7.8c2.6,5.3,5.3,10.8,9.7,13.2   C272.1,293.1,276.1,297,275.7,297.9z"/>
	<path style="fill:#F5F5F5;" d="M264.1,275.7c-0.8,0.8-3.4,2.6-6.6,1.7c-0.5-1-1-1.9-1.5-2.9c-1.5-3-2.8-5.8-4.5-8.1   c-1-1.4-2.2-2.6-3.4-3.7c1.9-1.6,2.2-3.4,2.2-4.9c3.3,2.8,6.3,6.3,9.2,10.7C261.4,271.3,262.8,273.6,264.1,275.7z"/>
	<path style="fill:#F5F5F5;" d="M248.5,256.3c0,0.3-0.1,0.7-0.1,1.1c-0.1,1.4-0.2,2.8-1.9,4c-3.5-2.5-7.5-4.2-11-5.3   c1.6-1.6,2.6-3.2,3.1-4.8l0,0C242.1,252.3,245.4,254,248.5,256.3z"/>
	<path style="fill:#F5F5F5;" d="M244.5,262.5c-0.2,0.1-0.4,0.2-0.6,0.3c-5.2,1.9-9,5.4-10.7,9.8c-2-2-3.5-3.9-4.6-5.3   c-1.3-1.7-2.4-2.9-3.7-3.9c3.7-1.9,6.7-3.8,9-5.7c0,0,0,0,0.1,0C237.1,258.8,241.1,260.2,244.5,262.5z"/>
	<path style="fill:#F5F5F5;" d="M231.9,256.6c-2.2,1.7-5.2,3.6-9.5,5.7c-1-0.2-2-0.5-2.8-0.6c-2-0.4-3.4-0.7-4.4-1.8   c-0.6-0.7-1.8-2.5-3-4.9c0.2,0.1,0.3,0.2,0.5,0.2c1.2,0.3,2.9-0.2,5-1c2.6-0.9,5.8-2,8.7-1.6c2.6,0.3,3.3,1.4,4.2,2.5   C231,255.6,231.3,256.2,231.9,256.6z"/>
</g>
<path style="fill:#FFE15A;" d="M236.8,250.4c-0.3,1.3-1.2,2.9-3.3,4.9c-0.5-0.3-0.8-0.8-1.2-1.3c-0.9-1.3-2.1-2.9-5.6-3.4  c-3.4-0.5-6.8,0.7-9.7,1.7c-1.6,0.5-3.2,1.1-3.9,1c-0.7-0.2-1.6-1.3-1.7-2.4c0-1.3,1.1-1.9,2.1-2.2c2.2-0.7,4.8-0.2,7.3,0.3  c2.6,0.5,5.1,1,7.1,0.2c1.4-0.5,2.9-2.2,4.9-4.7c1.3,0.3,2.4,0.7,3.1,1.7C236.9,247.5,237.2,248.9,236.8,250.4z"/>
<g>
	<path style="fill:#F5F5F5;" d="M230.5,244.1c-1.3,1.6-2.4,2.7-3.2,3.1c-1.4,0.6-3.6,0.2-5.9-0.3c-2.7-0.5-5.7-1-8.3-0.2   c-1.6,0.5-2.4,1.2-2.9,2c-0.5-2.3-0.5-4.5,0.6-6.2c1-1.8,2.4-3.4,3.8-4.9c1.9,0.2,3.2,0.6,8,4.8c1.6,1.4,4.2,1.6,6.8,1.7   C229.6,244,230.1,244.1,230.5,244.1z"/>
	<path style="fill:#F5F5F5;" d="M269,227c-4.6,3.1-25.4,16.7-29.7,18.5c-0.2,0.1-0.4,0.2-0.5,0.4s-0.2,0.4-0.3,0.6   c-0.2-0.5-0.5-1-0.8-1.5c-0.8-1.2-2.1-1.9-3.4-2.3c0.6-0.8,1.2-1.6,1.9-2.5c3-4.1,6.4-8.7,10.4-12.8c6.8-7.1,15.8-11.7,18.8-13.1   C265.8,218.5,266.8,223.7,269,227z"/>
	<path style="fill:#F5F5F5;" d="M265.2,211.9c-2.2,1-12.4,5.8-20.1,13.9c-4.1,4.2-7.7,9.1-10.5,13c-0.9,1.2-1.7,2.3-2.5,3.3   c-0.9-0.1-1.8-0.2-2.7-0.2c-2.3-0.2-4.4-0.3-5.5-1.2c-4-3.5-5.9-4.5-7.6-5c0.2-0.2,0.3-0.3,0.5-0.5c2.6-2.7,5.4-5.4,7.5-9.3   c3.7-6.7,16.2-21.2,24.4-26.5l16.5,7.2C265,207.6,265,209.6,265.2,211.9z"/>
	<path style="fill:#F5F5F5;" d="M159.9,150.3c-3.4-4.5-4.8-11.3-4.4-12.7c0.1-0.2,0.2-0.4,0.5-0.5c0.9-0.2,2.7,0.4,4.6,2.2   c0.2,0.2,0.4,0.4,0.7,0.7L159.9,150.3z"/>
	<path style="fill:#F5F5F5;" d="M163.8,154.3c-0.7-0.7-1.5-1.4-2.1-2l1.5-10.6c0.7,0.7,1.4,1.4,2.3,2.1L163.8,154.3z"/>
</g>
<path style="fill:#FFE15A;" d="M167.9,158.9c-0.8-0.9-1.5-1.8-2.3-2.7l1.8-10.6c0.9,0.8,1.8,1.6,2.7,2.4L167.9,158.9z"/>
<g>
	<path style="fill:#F5F5F5;" d="M170.6,162.5c-0.4-0.5-0.7-1-1.1-1.5l2.3-11.5c1.5,1.3,3,2.5,4.4,3.6L170.6,162.5z"/>
	<path style="fill:#F5F5F5;" d="M173.1,167.3c-0.3-0.9-0.7-1.8-1.2-2.7l6.1-10.3c0.9,0.6,1.7,1.2,2.3,1.5c0.5,0.2,0.9,0.4,1.4,0.6   c-0.2,0.4-0.5,0.8-0.6,1.2c-1.3,2.7-1.8,4.8-1.8,6.5C176.3,164.6,174.3,166,173.1,167.3z"/>
	<path style="fill:#F5F5F5;" d="M173.5,170.2c0.4-0.6,2.2-3.5,6.1-4c0.4,1.4,1,2.4,1.6,2.9c2.6,2.7,11.3-2.7,16.3-6.1   c2.3-1.6,5.6-2.2,9.2-2.3c-0.1,0.2-0.2,0.3-0.3,0.5c-1.2,2.4-1,4.8-0.7,6.3c-1.9,0.1-3.7,0.3-5.3,0.4c-7.4,0.5-10.8,0.8-15.1,3.1   c-0.1,0.1-0.3,0.2-0.4,0.3c-1.1,1.6-4.7,6.1-7.1,5.3C174.6,175.5,173.2,173.5,173.5,170.2z"/>
	<path style="fill:#F5F5F5;" d="M182.7,167.7c-1-1-2.8-4,1-10.6c4.2,1.3,7.8,1,10.4-1.1c3.4-2.7,19.4-11.2,28.1-14.4   c3.2,3.1,4.7,7.7,4.1,13c-0.1,0.8-0.1,1.4-0.1,2c-1.6,0.7-3.2,1.2-4.8,1.5c-2.6,0.4-5.7,0.4-8.9,0.3c-5.9,0-12.1-0.1-16.2,2.8   C188.6,166.6,183.4,168.5,182.7,167.7z"/>
	<path style="fill:#F5F5F5;" d="M207.8,167.3c-0.4-1.1-0.8-4.2,1.4-6.6c1.1,0,2.1,0,3.2,0c3.3,0,6.5,0.1,9.2-0.4   c1.7-0.2,3.3-0.8,4.8-1.4c0.6,2.4,2,3.4,3.3,4.2c-4,1.7-8.5,2.8-13.7,3.4C212.9,166.8,210.2,167,207.8,167.3z"/>
	<path style="fill:#F5F5F5;" d="M232,161.9c-0.3-0.2-0.6-0.4-0.9-0.6c-1.2-0.7-2.4-1.4-2.8-3.5c3.8-2,7.1-4.8,9.6-7.4   c0.7,2.1,1.7,3.8,2.9,4.9l0,0C238.5,158,235.5,160.2,232,161.9z"/>
	<path style="fill:#F5F5F5;" d="M228.3,155.6c0-0.2,0-0.4,0-0.7c0.6-5.5-0.8-10.5-4-14c2.7-0.9,5-1.4,6.8-1.8   c2.1-0.4,3.7-0.8,5.1-1.6c0,4.2,0.4,7.7,1.1,10.6c0,0,0,0,0,0.1C235,150.7,231.9,153.5,228.3,155.6z"/>
	<path style="fill:#F5F5F5;" d="M239.2,146.9c-0.6-2.7-0.9-6.3-0.9-11c0.7-0.8,1.3-1.6,1.8-2.2c1.2-1.7,2.1-2.7,3.6-3.1   c0.9-0.3,3.1-0.5,5.7-0.5c-0.1,0.1-0.3,0.2-0.4,0.4c-0.8,0.9-1.1,2.7-1.4,4.9c-0.4,2.7-0.9,6.1-2.5,8.5c-1.5,2.2-2.7,2.4-4.1,2.6   C240.5,146.5,239.9,146.6,239.2,146.9z"/>
</g>
<path style="fill:#FFE15A;" d="M242.6,154.1c-1-0.9-2-2.4-2.9-5.1c0.5-0.3,1.1-0.4,1.7-0.5c1.6-0.2,3.5-0.6,5.5-3.5  c1.9-2.8,2.4-6.4,2.8-9.4c0.2-1.7,0.4-3.4,0.9-3.9c0.5-0.6,1.9-0.9,2.9-0.4c1.2,0.5,1.2,1.8,1,2.8c-0.4,2.2-2,4.3-3.5,6.4  c-1.6,2.1-3.1,4.1-3.3,6.3c-0.1,1.5,0.7,3.6,2,6.4c-0.9,1.1-1.8,1.9-2.9,2C245.1,155.5,243.7,155.1,242.6,154.1z"/>
<g>
	<path style="fill:#F5F5F5;" d="M251,151.3c-0.8-1.9-1.4-3.4-1.3-4.3c0.1-1.5,1.5-3.3,2.9-5.2c1.6-2.2,3.5-4.6,3.9-7.3   c0.3-1.6,0-2.7-0.5-3.5c2.2,0.6,4.2,1.6,5.3,3.3c1.2,1.7,1.9,3.7,2.7,5.6c-1.1,1.6-2,2.6-7.8,5c-2,0.8-3.3,3.1-4.5,5.3   C251.5,150.5,251.3,150.9,251,151.3z"/>
	<path style="fill:#F5F5F5;" d="M249.1,193.4c-0.7-5.5-3.6-30.1-3.3-34.8c0-0.2-0.1-0.4-0.1-0.6c-0.1-0.2-0.2-0.4-0.4-0.6   c0.6,0.1,1.2,0,1.7-0.1c1.4-0.2,2.6-1,3.6-2.1c0.4,0.9,0.9,1.8,1.4,2.8c2.3,4.5,4.9,9.6,6.8,15c3.3,9.2,3.4,19.4,3.3,22.7   C258.2,195,253.5,194,249.1,193.4z"/>
	<path style="fill:#F5F5F5;" d="M264.3,196.7c0.1-2.4,0.3-13.7-3.4-24.2c-2-5.5-4.7-10.9-6.9-15.3c-0.7-1.3-1.3-2.5-1.9-3.7   c0.5-0.8,1-1.6,1.4-2.3c1.2-2,2.2-3.8,3.6-4.4c4.9-2,6.7-3.2,7.9-4.6c0.1,0.2,0.2,0.4,0.2,0.6c1.2,3.5,2.5,7.2,5,10.9   c4.3,6.3,11.8,24,12.8,33.6l-13.8,11.5C268.3,198.4,266.5,197.6,264.3,196.7z"/>
	<path style="fill:#F5F5F5;" d="M375.2,143.6c5.7-0.3,12.1,2.5,12.9,3.5c0.2,0.2,0.2,0.4,0.1,0.7c-0.3,0.9-1.8,2.1-4.5,2.6   c-0.3,0-0.6,0.1-1,0.2L375.2,143.6z"/>
	<path style="fill:#F5F5F5;" d="M369.7,144.6c1-0.2,2-0.4,2.8-0.6l7.9,7.2c-0.9,0.2-2,0.4-3,0.7L369.7,144.6z"/>
</g>
<path style="fill:#FFE15A;" d="M363.7,145.4c1.2-0.1,2.4-0.2,3.5-0.4l7.8,7.5c-1.1,0.3-2.3,0.6-3.5,0.9L363.7,145.4z"/>
<g>
	<path style="fill:#F5F5F5;" d="M359.1,145.6c0.6,0,1.2,0,1.9,0l8.2,8.4c-1.9,0.5-3.8,1.1-5.4,1.6L359.1,145.6z"/>
	<path style="fill:#F5F5F5;" d="M353.8,144.9c0.9,0.3,1.9,0.4,3,0.5l5,10.8c-1,0.4-1.9,0.7-2.5,1.1c-0.5,0.3-0.9,0.5-1.3,0.8   c-0.2-0.4-0.4-0.9-0.6-1.2c-1.5-2.6-2.9-4.2-4.4-5.2C354.2,149.1,354.1,146.7,353.8,144.9z"/>
	<path style="fill:#F5F5F5;" d="M351.1,143.6c0.3,0.7,1.6,3.8-0.1,7.3c-1.4-0.5-2.5-0.5-3.3-0.4c-3.7,0.6-4.2,10.8-4.2,16.9   c0,2.8-1.4,5.9-3.3,8.9c-0.1-0.2-0.1-0.3-0.2-0.5c-1.3-2.3-3.4-3.6-4.8-4.1c1-1.7,1.9-3.2,2.6-4.6c3.8-6.4,5.4-9.3,6-14.2   c0-0.1,0-0.3-0.1-0.5c-0.7-1.8-2.4-7.4-0.4-8.9C346.1,141.5,348.6,141.5,351.1,143.6z"/>
	<path style="fill:#F5F5F5;" d="M348,152.6c1.4-0.2,4.9,0,8.2,6.8c-3.5,2.7-5.2,5.8-5,9.2c0.3,4.4-1.8,22.3-4,31.3   c-4.3,0.9-9-0.5-13-3.9c-0.6-0.5-1.1-0.9-1.6-1.2c0.3-1.7,0.8-3.3,1.5-4.9c1.1-2.4,2.9-4.9,4.7-7.5c3.4-4.9,6.9-9.9,6.9-14.9   C345.6,158.1,347,152.7,348,152.6z"/>
	<path style="fill:#F5F5F5;" d="M334.2,173.6c1.1,0.3,3.9,1.7,4.6,4.9c-0.6,0.9-1.2,1.8-1.8,2.7c-1.9,2.7-3.7,5.3-4.9,7.8   c-0.7,1.5-1.2,3.1-1.5,4.8c-2.3-0.8-4-0.3-5.3,0.4c0.9-4.2,2.5-8.6,4.9-13.2C331.7,178.1,333,175.7,334.2,173.6z"/>
	<path style="fill:#F5F5F5;" d="M324.9,196.6c0.3-0.1,0.7-0.3,1-0.5c1.3-0.6,2.5-1.2,4.4-0.3c-0.5,4.3,0,8.6,0.7,12.2   c-2.2-0.6-4.1-0.7-5.7-0.4l0,0C324.4,204.1,324.3,200.5,324.9,196.6z"/>
	<path style="fill:#F5F5F5;" d="M332.2,197.1c0.2,0.1,0.4,0.2,0.6,0.4c4.2,3.6,9.1,5.2,13.8,4.6c-0.8,2.8-1.7,4.9-2.4,6.6   c-0.8,1.9-1.4,3.5-1.6,5.1c-3.5-2.3-6.6-4-9.3-5.1c0,0,0,0,0-0.1C332.5,205.4,331.9,201.2,332.2,197.1z"/>
	<path style="fill:#F5F5F5;" d="M333.2,211c2.5,1.1,5.7,2.8,9.6,5.5c0.3,1,0.6,2,0.8,2.8c0.7,2,1.1,3.3,0.5,4.7   c-0.3,0.9-1.3,2.8-2.8,5c0-0.2,0-0.4-0.1-0.5c-0.3-1.2-1.6-2.4-3.3-3.9c-2-1.9-4.5-4.1-5.6-6.9c-1-2.4-0.4-3.6,0.2-4.9   C332.8,212.3,333.1,211.7,333.2,211z"/>
</g>
<path style="fill:#FFE15A;" d="M325.4,209.7c1.3-0.3,3.1-0.3,5.9,0.5c0,0.6-0.3,1.1-0.6,1.7c-0.7,1.4-1.5,3.2-0.2,6.5  c1.2,3.2,3.9,5.6,6.1,7.6c1.2,1.1,2.6,2.3,2.7,2.9c0.2,0.7-0.3,2-1.3,2.6c-1.1,0.7-2.2-0.1-2.9-0.8c-1.6-1.6-2.5-4.1-3.3-6.6  s-1.6-4.9-3.3-6.3c-1.1-0.9-3.4-1.5-6.5-2c-0.4-1.3-0.5-2.5,0-3.5C322.7,211,323.9,210.1,325.4,209.7z"/>
<g>
	<path style="fill:#F5F5F5;" d="M322.9,218.3c2,0.4,3.6,0.8,4.3,1.3c1.2,1,1.9,3.1,2.6,5.3c0.9,2.6,1.9,5.5,3.8,7.4   c1.2,1.2,2.3,1.5,3.2,1.6c-1.8,1.5-3.7,2.6-5.7,2.5c-2.1,0-4.1-0.5-6.1-1c-0.7-1.8-1-3.1,0.3-9.3c0.4-2.1-0.7-4.5-1.8-6.7   C323.3,219.1,323.1,218.7,322.9,218.3z"/>
	<path style="fill:#F5F5F5;" d="M289.3,192.9c4.9,2.6,26.9,14.1,30.5,17c0.2,0.1,0.4,0.2,0.6,0.2s0.4,0,0.7,0   c-0.4,0.4-0.7,0.9-0.9,1.5c-0.7,1.3-0.6,2.7-0.3,4.1c-1-0.2-2-0.3-3.1-0.4c-5-0.6-10.7-1.4-16.2-2.8c-9.5-2.5-17.9-8.1-20.6-10.1   C282.8,199.7,286.7,196.2,289.3,192.9z"/>
	<path style="fill:#F5F5F5;" d="M278,203.6c1.9,1.4,11.1,8,21.9,10.9c5.7,1.5,11.7,2.3,16.5,2.9c1.4,0.2,2.8,0.4,4.1,0.6   c0.4,0.8,0.7,1.7,1.1,2.5c1,2.1,1.9,4,1.6,5.4c-1.1,5.2-1.1,7.3-0.6,9.1c-0.2-0.1-0.4-0.1-0.7-0.2c-3.6-1-7.4-2-11.8-2.1   c-7.7,0-26.5-3.9-35-8.4l-1.7-17.9C274.3,205.9,276,204.9,278,203.6z"/>
</g>
<path style="fill:#464655;" d="M390.1,146.3c-0.1-0.2-0.2-0.3-0.3-0.5c-1.6-2-11-5.6-17.7-3.9c-7.2,1.8-17,2.3-19.4,0.2  c-3.1-2.8-6.6-2.9-10-0.5l-1.4-1.2l2-5.9c0.1-0.3,0.1-0.6-0.1-0.8c-0.1-0.1-0.2-0.2-0.3-0.3c-0.4-0.3-0.9-0.3-1.2,0l-5.9,4.4l-5-2.5  c-0.3-0.2-0.8-0.1-1.1,0.1c-0.3,0.2-0.5,0.6-0.4,1l1.1,7.2l-5.3,6c-0.3,0.3-0.3,0.8-0.1,1.2c0.2,0.3,0.6,0.6,1.1,0.5l6.5-0.9  l1.6,5.9c0.1,0.4,0.5,0.7,0.9,0.8c0.4,0,0.9-0.2,1-0.6l3-7.2l1.5-0.8c0.3,2,0.9,3.8,1.2,4.5c-0.5,4.3-2.2,7.1-5.6,13.2  c-2,3.4-4.5,7.7-7.7,13.9c-5.4,10.2-7.1,19.7-5.1,28.1c-0.6,0-1.5,0.1-2.4,0c-5-3.7-30.5-16.9-31.6-17.5c-0.1,0-4.2-3.6-4.2-3.6  c-1.2-10.1-8.7-27.8-13.1-34.4c-2.4-3.5-3.6-7-4.7-10.4c-1.1-3.2-2.1-6.2-4-9c-4.1-6.3-16.9-5.4-20-4.6c-2.2,0.6-3.4,2.1-4.7,3.9  c-0.5,0.7-1.2,1.5-1.9,2.3c-1.3,1.4-3,1.8-5.9,2.4c-2.2,0.5-5,1.1-8.7,2.3c-8.6,3-25.6,12.1-29.3,15c-3.6,2.8-8.8,0.9-11.6-0.5  c-3.9-2-15.8-12.8-19-16c-2.2-2.2-4.8-3.2-6.7-2.7c-0.8,0.2-1.4,0.7-1.8,1.4c-0.1,0.2-0.2,0.3-0.2,0.5c-0.7,2.4,1.6,12.2,6.8,16.8  c5.6,4.9,11.5,12.7,11.2,15.9c-0.5,4.1,1.4,7,5.2,8.5l-0.2,1.8l-6.1,1.7c-0.3,0.1-0.5,0.3-0.7,0.5c-0.1,0.1-0.1,0.3-0.1,0.4  c0,0.5,0.3,0.9,0.7,1l6.9,2.4l0.7,5.6c0.1,0.4,0.3,0.7,0.7,0.8s0.8,0,1.1-0.2l5.3-5l8,1c0.4,0.1,0.8-0.2,1-0.6  c0.1-0.3,0.1-0.9-0.2-1.2l-4.4-4.9l4-4.7c0.3-0.3,0.3-0.8,0.1-1.2s-0.7-0.6-1.1-0.5l-7.6,1.6l-1.5-0.8c1.5-1.4,2.6-2.9,3.1-3.5  c3.8-2,7.1-2.2,14.1-2.8c4-0.3,8.9-0.7,15.8-1.5c11.5-1.4,20.3-5.3,26.1-11.6c0.4,0.5,0.9,1.2,1.4,2c-0.3,6.2,3.3,34.8,3.4,36  c0,0.1-0.1,3.1-0.1,3.1c-8.5,5.6-20.9,20.1-24.9,27c-2,3.7-4.6,6.3-7.2,8.9c-2.3,2.4-4.6,4.6-6.3,7.6c-3.8,6.5,2.7,17.5,4.8,19.9  c1.5,1.7,3.4,2.1,5.6,2.5c0.9,0.2,1.8,0.4,2.9,0.7c1.8,0.5,2.9,1.9,4.7,4.2c1.4,1.8,3.2,4,6,6.7c6.6,6.3,22.3,17.5,26.5,19.5  c4.1,2,4.7,7.5,4.7,10.6c0,4.4-4.4,19.9-5.8,24.2c-1,3-0.7,5.7,0.5,7.2c0.5,0.6,1.3,1,2,1c0.2,0,0.4,0,0.5,0  c2.5-0.5,10.2-6.9,12-13.6c1.9-7.2,6.3-16,9.3-17.1c3.9-1.4,5.7-4.4,5.3-8.5l1.7-0.6l4.2,4.7c0.2,0.2,0.5,0.3,0.8,0.3  c0.1,0,0.3,0,0.4-0.1c0.4-0.2,0.7-0.6,0.6-1.1l-1-7.3l4.7-3.1c0.3-0.2,0.5-0.6,0.5-1s-0.3-0.7-0.7-0.8l-6.8-2.6l-2.7-7.6  c-0.1-0.4-0.5-0.7-1-0.7c-0.3,0.1-0.8,0.3-1,0.7l-2.4,6.2l-6-1.5c-0.4-0.1-0.9,0.1-1.1,0.4c-0.2,0.4-0.2,0.9,0.1,1.2l4.8,6.1  l-0.1,1.7c-1.9-0.7-3.8-1-4.5-1.1c-3.5-2.5-5.2-5.4-8.8-11.3c-2-3.4-4.6-7.7-8.4-13.5c-6.3-9.7-13.8-15.8-22.1-18.1  c0.2-0.5,0.7-1.3,1.2-2.1c5.6-2.5,29.6-18.5,30.7-19.1l0,0l3.2-1.9c9,4.7,27.8,8.5,35.8,8.6c4.2,0,7.8,1,11.2,2  c3.2,0.9,6.3,1.7,9.6,1.8c7.5,0.2,14-10.9,15.1-13.8c0.8-2.1,0.2-4-0.5-6.1c-0.3-0.8-0.6-1.8-0.8-2.9c-0.5-1.8,0.2-3.5,1.4-6.2  c0.9-2.1,2-4.7,3-8.5c2.3-8.8,4.5-28,4.2-32.6c-0.3-4.5,4.2-7.8,7-9.3c3.8-2.1,19.5-5.8,24-6.7c3.1-0.6,5.4-2.1,6-4  C390.5,147.8,390.4,147,390.1,146.3z M340.4,146.2l-2.6,1.3c-0.2,0.1-0.4,0.3-0.5,0.5l-1.9,4.7l-1.1-3.9c-0.1-0.5-0.6-0.8-1.1-0.8  l-4.7,0.6l3.8-4.3c0.2-0.2,0.3-0.5,0.2-0.8l-0.8-5.7l3.8,1.9c0.3,0.2,0.8,0.1,1.1-0.1l3.7-2.8l-1.2,3.4c-0.1,0.4,0,0.8,0.3,1.1  l1.8,1.6C340.6,143.9,340.4,145,340.4,146.2z M337.9,167.1c3.8-6.4,5.4-9.3,6-14.2c0-0.1,0-0.3-0.1-0.5c-0.7-1.8-2.4-7.4-0.4-8.9  c2.8-2.1,5.2-2,7.7,0.1c0.3,0.7,1.6,3.8-0.1,7.3c-1.4-0.5-2.5-0.5-3.3-0.4c-3.7,0.6-4.2,10.8-4.2,16.9c0,2.8-1.4,5.9-3.3,8.9  c-0.1-0.2-0.1-0.3-0.2-0.5c-1.3-2.3-3.4-3.6-4.8-4.1C336.2,170,337.1,168.5,337.9,167.1z M330.2,181c1.5-2.9,2.8-5.3,4-7.4  c1.1,0.3,3.9,1.7,4.6,4.9c-0.6,0.9-1.2,1.8-1.8,2.7c-1.9,2.7-3.7,5.3-4.9,7.8c-0.7,1.5-1.2,3.1-1.5,4.8c-2.3-0.8-4-0.3-5.3,0.4  C326.2,189.9,327.8,185.5,330.2,181z M324.9,196.6c0.3-0.1,0.7-0.3,1-0.5c1.3-0.6,2.5-1.2,4.4-0.3c-0.5,4.3,0,8.6,0.7,12.2  c-2.2-0.6-4.1-0.7-5.7-0.4l0,0C324.4,204.1,324.3,200.5,324.9,196.6z M320.4,210.1c0.2,0,0.4,0,0.7,0c-0.4,0.4-0.7,0.9-0.9,1.5  c-0.6,1.3-0.6,2.7-0.3,4.1c-1-0.2-2-0.3-3.1-0.4c-5-0.6-10.7-1.4-16.2-2.8c-9.5-2.5-17.9-8.1-20.6-10.1c2.6-2.5,6.4-5.4,9.4-9.4  c4.9,2.6,26.9,14.1,30.5,17C320,210,320.2,210.1,320.4,210.1z M273.1,224.5l-2.3,1.3c-4-5.7-3.8-19.7-3.8-19.9c0-0.4-0.2-0.8-0.6-1  l-17.2-7.5l0.1-1.8c9,1,19.3,5.2,19.5,5.3c0.4,0.2,0.8,0.2,1.1-0.1l14.3-11.9l3.1,2.7c-4.4,5.5-15.3,13-15.4,13.1  c-0.4,0.2-0.6,0.6-0.6,1L273.1,224.5z M264.9,142.2c0.1,0.2,0.2,0.4,0.2,0.6c1.2,3.5,2.5,7.2,5,10.9c4.3,6.3,11.8,24,12.8,33.6  l-13.8,11.5c-0.9-0.4-2.7-1.3-4.8-2.2c0.1-2.4,0.3-13.7-3.4-24.2c-2-5.5-4.7-10.9-6.9-15.3c-0.7-1.3-1.3-2.5-1.9-3.7  c0.5-0.8,1-1.6,1.4-2.3c1.2-2,2.2-3.8,3.6-4.4C262,144.8,263.7,143.6,264.9,142.2z M261.4,134.3c1.2,1.7,1.9,3.7,2.7,5.6  c-1.1,1.6-2,2.6-7.8,5c-2,0.8-3.3,3.1-4.5,5.3c-0.2,0.4-0.5,0.7-0.7,1.1c-0.8-1.9-1.4-3.4-1.3-4.3c0.1-1.5,1.5-3.3,2.9-5.2  c1.6-2.2,3.5-4.6,3.9-7.3c0.3-1.6,0-2.7-0.5-3.5C258.4,131.6,260.3,132.6,261.4,134.3z M240.2,133.7c1.2-1.7,2.1-2.7,3.6-3.1  c0.9-0.3,3.1-0.5,5.7-0.5c-0.1,0.1-0.3,0.2-0.4,0.4c-0.8,0.9-1.1,2.7-1.4,4.9c-0.4,2.7-0.9,6.1-2.5,8.5c-1.5,2.2-2.7,2.4-4.1,2.6  c-0.6,0.1-1.3,0.2-1.9,0.5c-0.6-2.7-0.9-6.3-0.9-11C239,135.1,239.6,134.3,240.2,133.7z M231.2,139.1c2.1-0.4,3.7-0.8,5.1-1.6  c0,4.2,0.4,7.7,1.1,10.6c0,0,0,0,0,0.1c-2.3,2.5-5.4,5.3-9,7.3c0-0.2,0-0.4,0-0.7c0.6-5.5-0.8-10.5-4-14  C227.1,140,229.3,139.5,231.2,139.1z M194.1,156c3.4-2.7,19.4-11.2,28.1-14.4c3.2,3.1,4.7,7.7,4.1,13c-0.1,0.8-0.1,1.4-0.1,2  c-1.6,0.7-3.2,1.2-4.8,1.5c-2.6,0.4-5.7,0.4-8.9,0.3c-5.9,0-12.1-0.1-16.2,2.8c-7.6,5.3-12.9,7.1-13.6,6.4c-1-1-2.8-4,1-10.6  C187.8,158.5,191.4,158.1,194.1,156z M159.9,150.3c-3.4-4.5-4.8-11.3-4.4-12.7c0.1-0.2,0.2-0.4,0.5-0.5c0.9-0.2,2.7,0.4,4.6,2.2  c0.2,0.2,0.4,0.4,0.7,0.7L159.9,150.3z M163.8,154.3c-0.7-0.7-1.5-1.4-2.1-2l1.5-10.6c0.7,0.7,1.4,1.4,2.3,2.1L163.8,154.3z   M165.6,156.2l1.8-10.6c0.9,0.8,1.8,1.6,2.7,2.4l-2.2,10.9C167.1,157.9,166.3,157,165.6,156.2z M170.6,162.5c-0.4-0.5-0.7-1-1.1-1.5  l2.3-11.5c1.5,1.3,3,2.5,4.4,3.6L170.6,162.5z M171.8,164.6l6.1-10.3c0.9,0.6,1.7,1.2,2.3,1.5c0.5,0.2,0.9,0.4,1.4,0.6  c-0.2,0.4-0.5,0.8-0.6,1.2c-1.3,2.7-1.8,4.8-1.8,6.5c-3,0.4-5,1.9-6.2,3.2C172.8,166.4,172.4,165.5,171.8,164.6z M184.2,179.1  c0.2,0.1,0.5,0.2,0.7,0.1l5-1.1l-2.6,3.1c-0.3,0.4-0.3,1,0,1.4l3.2,3.5l-5.7-0.7c-0.3,0-0.6,0.1-0.8,0.3l-4.2,3.9l-0.6-4.2  c-0.1-0.4-0.3-0.7-0.7-0.8l-4.4-1.5l3.5-1c0.4-0.1,0.7-0.5,0.8-0.9l0.3-2.3c1-0.1,2-0.5,3-1.1L184.2,179.1z M206.3,161.2  c-1.2,2.4-1,4.8-0.7,6.3c-1.9,0.1-3.7,0.3-5.3,0.4c-7.4,0.5-10.8,0.8-15.1,3.1c-0.1,0.1-0.3,0.2-0.4,0.3c-1.1,1.6-4.7,6.1-7.1,5.3  c-3.2-1.1-4.6-3.2-4.3-6.4c0.4-0.6,2.2-3.5,6.1-4c0.4,1.4,1,2.4,1.6,2.9c2.6,2.7,11.3-2.7,16.3-6.1c2.3-1.6,5.6-2.2,9.2-2.3  C206.5,160.9,206.4,161,206.3,161.2z M216.1,166.4c-3.2,0.4-5.9,0.7-8.4,0.9c-0.4-1.1-0.8-4.2,1.4-6.6c1.1,0,2.1,0,3.2,0  c3.3,0,6.5,0.1,9.2-0.4c1.7-0.2,3.3-0.8,4.8-1.4c0.6,2.4,2,3.4,3.3,4.2C225.8,164.6,221.3,165.8,216.1,166.4z M240.9,155.4  c-2.4,2.6-5.4,4.8-8.8,6.5c-0.3-0.2-0.6-0.4-0.9-0.6c-1.2-0.7-2.4-1.4-2.8-3.5c3.8-2,7.1-4.8,9.6-7.4  C238.7,152.6,239.7,154.2,240.9,155.4L240.9,155.4z M242.6,154.1c-1-0.9-2-2.4-2.9-5.1c0.5-0.3,1.1-0.4,1.7-0.5  c1.6-0.2,3.5-0.6,5.5-3.5c1.9-2.8,2.4-6.4,2.8-9.4c0.2-1.7,0.4-3.4,0.9-3.9c0.5-0.6,1.9-0.9,2.9-0.4c1.2,0.5,1.2,1.8,1,2.8  c-0.4,2.2-2,4.3-3.5,6.4c-1.6,2.1-3.1,4.1-3.3,6.3c-0.1,1.5,0.7,3.6,2,6.4c-0.9,1.1-1.8,1.9-2.9,2  C245.1,155.5,243.7,155.1,242.6,154.1z M245.9,158.6c0-0.2-0.1-0.4-0.1-0.6c-0.1-0.2-0.2-0.4-0.4-0.6c0.6,0.1,1.2,0,1.7-0.1  c1.4-0.2,2.6-1,3.6-2.1c0.4,0.9,0.9,1.8,1.4,2.8c2.3,4.5,4.9,9.6,6.8,15c3.3,9.2,3.4,19.4,3.3,22.7c-4-0.9-8.1-1.8-13.1-2.5  C248.5,187.9,245.6,163.3,245.9,158.6z M216.6,235.2c2.6-2.7,5.4-5.4,7.5-9.3c3.7-6.7,16.2-21.2,24.4-26.5l16.5,7.2  c0,1,0,2.9,0.2,5.3c-2.2,1-12.4,5.8-20.1,13.9c-4.1,4.2-7.7,9.1-10.5,13c-0.9,1.2-1.7,2.3-2.5,3.3c-0.9-0.1-1.8-0.2-2.7-0.2  c-2.3-0.2-4.4-0.3-5.5-1.2c-4-3.5-5.9-4.5-7.6-5C216.3,235.6,216.4,235.4,216.6,235.2z M210.1,248.6c-0.5-2.3-0.5-4.5,0.6-6.2  c1-1.8,2.4-3.4,3.8-4.9c1.9,0.2,3.2,0.6,8,4.8c1.6,1.4,4.2,1.6,6.8,1.7c0.4,0,0.9,0.1,1.3,0.1c-1.3,1.6-2.4,2.7-3.2,3.1  c-1.4,0.6-3.6,0.2-5.9-0.3c-2.7-0.5-5.7-1-8.3-0.2C211.4,247.1,210.5,247.9,210.1,248.6z M213.6,248.6c2.2-0.7,4.8-0.2,7.3,0.3  c2.6,0.5,5.1,1,7.1,0.2c1.4-0.5,2.9-2.2,4.9-4.7c1.3,0.3,2.4,0.7,3.1,1.7c1,1.4,1.2,2.8,0.8,4.3c-0.3,1.3-1.2,2.9-3.3,4.9  c-0.5-0.3-0.8-0.8-1.2-1.3c-0.9-1.3-2.1-2.9-5.6-3.4c-3.4-0.5-6.8,0.7-9.7,1.7c-1.6,0.5-3.2,1.1-3.9,1c-0.7-0.2-1.6-1.3-1.7-2.4  C211.5,249.5,212.6,248.9,213.6,248.6z M222.4,262.3c-1-0.2-2-0.5-2.8-0.6c-2-0.4-3.4-0.7-4.4-1.8c-0.6-0.7-1.8-2.5-3-4.9  c0.2,0.1,0.3,0.2,0.5,0.2c1.2,0.3,2.9-0.2,5-1c2.6-0.9,5.8-2,8.7-1.6c2.6,0.3,3.3,1.4,4.2,2.5c0.4,0.5,0.7,1,1.3,1.5  C229.7,258.3,226.7,260.2,222.4,262.3z M228.5,267.3c-1.3-1.7-2.4-2.9-3.7-3.9c3.7-1.9,6.7-3.8,9-5.7c0,0,0,0,0.1,0  c3.2,1,7.2,2.5,10.6,4.8c-0.2,0.1-0.4,0.2-0.6,0.3c-5.2,1.9-9,5.4-10.7,9.8C231.1,270.6,229.7,268.8,228.5,267.3z M260.2,292.9  c-3.9-1.9-18.7-12.4-25.4-18.7c1.3-4.2,4.8-7.7,9.8-9.5c0.7-0.3,1.3-0.5,1.9-0.8c1.3,1.1,2.5,2.3,3.5,3.7c1.5,2.2,2.9,4.9,4.3,7.8  c2.6,5.3,5.3,10.8,9.7,13.2c8.1,4.5,12.2,8.3,11.8,9.3c-0.5,1.3-2.4,4.3-9.9,3.8C265.2,297.4,263.2,294.4,260.2,292.9z M261,335.6  c-0.2,0-0.5,0-0.7-0.2c-0.6-0.7-0.9-2.6-0.1-5.1c0.1-0.2,0.2-0.6,0.3-1l9.8-3.2C267.9,331.2,262.4,335.4,261,335.6z M271.4,323.5  l-10.1,3.4c0.3-0.9,0.6-1.9,0.9-3l10.1-3.1C271.9,321.8,271.6,322.8,271.4,323.5z M273.1,318.3l-10.3,3.2c0.3-1.1,0.6-2.3,0.9-3.4  l10.7-2.9C274,316.2,273.5,317.3,273.1,318.3z M275.6,312.7l-11.3,3.1c0.5-2,0.9-3.9,1.2-5.5l11,0.8  C276.2,311.5,275.9,312.1,275.6,312.7z M277.8,309l-11.9-0.9c0.2-1.1,0.3-2,0.3-2.7c0-0.5,0-1-0.1-1.6c0.5,0,1,0,1.4,0  c3,0,5.1-0.5,6.6-1.3c1.7,2.5,3.9,3.6,5.6,4.1C279,307.3,278.4,308.1,277.8,309z M281.8,286.8l3.9,1c0.5,0.1,1-0.1,1.2-0.6l1.7-4.4  l1.9,5.4c0.1,0.3,0.3,0.5,0.6,0.6l5.4,2l-3.5,2.4c-0.3,0.2-0.5,0.6-0.5,1l0.6,4.6l-2.4-2.7c-0.3-0.3-0.7-0.4-1.1-0.3l-2.2,0.8  c-0.5-0.9-1.4-1.6-2.3-2.2l0.1-2.9c0-0.2-0.1-0.5-0.2-0.7L281.8,286.8z M268,282c3.8,6.4,5.5,9.3,9.5,12.1c0.1,0.1,0.3,0.2,0.5,0.2  c2,0.2,7.6,1.5,7.9,4c0.5,3.4-0.8,5.6-3.8,6.7c-0.7-0.1-4.1-0.4-6.3-3.7c1.1-1,1.7-2,1.9-2.7c1.2-3.5-7.4-8.9-12.7-11.8  c-2.5-1.4-4.4-4.1-6.2-7.2c0.2,0,0.4,0,0.6,0c2.7,0,4.8-1.2,5.9-2.2C266.2,279.1,267.2,280.7,268,282z M259.6,268.6  c1.8,2.7,3.2,5,4.5,7.1c-0.8,0.8-3.4,2.6-6.6,1.7c-0.5-1-1-1.9-1.5-2.9c-1.5-3-2.8-5.8-4.5-8.1c-1-1.4-2.2-2.6-3.4-3.7  c1.9-1.6,2.2-3.4,2.2-4.9C253.7,260.7,256.8,264.2,259.6,268.6z M248.5,256.3c0,0.3-0.1,0.7-0.1,1.1c-0.1,1.4-0.2,2.8-1.9,4  c-3.5-2.5-7.5-4.2-11-5.3c1.6-1.6,2.6-3.2,3.1-4.8l0,0C242.1,252.3,245.4,254,248.5,256.3z M239.3,245.4c-0.2,0.1-0.4,0.2-0.5,0.4  s-0.2,0.4-0.3,0.6c-0.2-0.5-0.5-1-0.8-1.5c-0.8-1.2-2.1-1.9-3.4-2.3c0.6-0.8,1.2-1.6,1.9-2.5c3-4.1,6.4-8.7,10.4-12.8  c6.8-7.1,15.8-11.7,18.8-13.1c0.5,4.4,1.5,9.6,3.7,12.8C264.4,230,243.7,243.7,239.3,245.4z M323.2,225.8c-1.1,5.2-1.1,7.3-0.6,9.1  c-0.2-0.1-0.4-0.1-0.7-0.2c-3.6-1-7.4-2-11.8-2.1c-7.7,0-26.5-3.9-35-8.4l-1.7-17.9c0.9-0.5,2.6-1.5,4.5-2.8  c1.9,1.4,11.1,8,21.9,10.9c5.7,1.5,11.7,2.3,16.5,2.9c1.4,0.2,2.8,0.4,4.1,0.6c0.4,0.8,0.7,1.7,1.1,2.5  C322.6,222.4,323.5,224.4,323.2,225.8z M331.1,236.5c-2.1,0-4.1-0.5-6.1-1c-0.7-1.8-1-3.1,0.3-9.3c0.4-2.1-0.7-4.5-1.8-6.7  c-0.2-0.4-0.4-0.8-0.5-1.2c2,0.4,3.6,0.8,4.3,1.3c1.2,1,1.9,3.1,2.6,5.3c0.9,2.6,1.9,5.5,3.8,7.4c1.2,1.2,2.3,1.5,3.2,1.6  C335,235.5,333.1,236.5,331.1,236.5z M338,231.6c-1.1,0.7-2.2-0.1-2.9-0.8c-1.6-1.6-2.5-4.1-3.3-6.6s-1.6-4.9-3.3-6.3  c-1.1-0.9-3.4-1.5-6.5-2c-0.4-1.3-0.5-2.5,0-3.5c0.7-1.5,1.9-2.4,3.4-2.8c1.3-0.3,3.1-0.3,5.9,0.5c0,0.6-0.3,1.1-0.6,1.7  c-0.7,1.4-1.5,3.2-0.2,6.5c1.2,3.2,3.9,5.6,6.1,7.6c1.2,1.1,2.6,2.3,2.7,2.9C339.5,229.7,339,231.1,338,231.6z M344.1,224  c-0.3,0.9-1.3,2.8-2.8,5c0-0.2,0-0.4-0.1-0.5c-0.3-1.2-1.6-2.4-3.3-3.9c-2-1.9-4.5-4.1-5.6-6.9c-1-2.4-0.4-3.6,0.2-4.9  c0.3-0.6,0.5-1.2,0.7-1.9c2.5,1.1,5.7,2.8,9.6,5.5c0.3,1,0.6,2,0.8,2.8C344.3,221.2,344.7,222.5,344.1,224z M344.2,208.8  c-0.8,1.9-1.4,3.5-1.6,5.1c-3.5-2.3-6.6-4-9.3-5.1c0,0,0,0,0-0.1c-0.7-3.3-1.3-7.5-1-11.6c0.2,0.1,0.4,0.2,0.6,0.4  c4.2,3.6,9.1,5.2,13.8,4.6C345.8,204.9,344.9,207,344.2,208.8z M351.2,168.6c0.3,4.4-1.8,22.3-4,31.3c-4.3,0.9-9-0.5-13-3.9  c-0.6-0.5-1.1-0.9-1.6-1.2c0.3-1.7,0.8-3.3,1.5-4.9c1.1-2.4,2.9-4.9,4.7-7.5c3.4-4.9,6.9-9.9,6.9-14.9c0-9.3,1.4-14.7,2.4-14.8  c1.4-0.2,4.9,0,8.2,6.8C352.7,162.1,351,165.3,351.2,168.6z M359.2,157.4c-0.5,0.3-0.9,0.5-1.3,0.8c-0.2-0.4-0.4-0.9-0.6-1.2  c-1.5-2.6-2.9-4.2-4.4-5.2c1.4-2.7,1.3-5.2,0.9-6.9c0.9,0.3,1.9,0.4,3,0.5l5,10.8C360.7,156.7,359.8,157,359.2,157.4z M363.7,155.6  l-4.6-10c0.6,0,1.2,0,1.9,0l8.2,8.4C367.2,154.5,365.3,155,363.7,155.6z M371.5,153.4l-7.8-8c1.2-0.1,2.4-0.2,3.5-0.4l7.8,7.5  C373.8,152.8,372.6,153,371.5,153.4z M377.4,151.9l-7.6-7.3c1-0.2,2-0.4,2.8-0.6l7.9,7.2C379.4,151.4,378.4,151.6,377.4,151.9z   M383.8,150.4c-0.3,0-0.6,0.1-1,0.2l-7.6-7c5.7-0.3,12.1,2.5,12.9,3.5c0.2,0.2,0.2,0.4,0.1,0.7C388,148.8,386.4,149.9,383.8,150.4z"/>
<path style="fill:#2E3033;" d="M18.9,485.2L18.9,485.2C8.5,485.2,0,476.7,0,466.3V45.5c0-10.3,8.4-18.7,18.7-18.7h0.2  c10.4,0,18.9,8.5,18.9,18.9v420.6C37.8,476.7,29.3,485.2,18.9,485.2z"/>
<g>
</g>
<g>
</g>
<g>
</g>
<g>
</g>
<g>
</g>
<g>
</g>
<g>
</g>
<g>
</g>
<g>
</g>
<g>
</g>
<g>
</g>
<g>
</g>
<g>
</g>
<g>
</g>
<g>
</g>
</svg>
