<?xml version="1.0" encoding="iso-8859-1"?>
<!-- Generator: Adobe Illustrator 19.0.0, SVG Export Plug-In . SVG Version: 6.00 Build 0)  -->
<svg xmlns="http://www.w3.org/2000/svg" xmlns:xlink="http://www.w3.org/1999/xlink" version="1.1" id="Layer_1" x="0px" y="0px" viewBox="0 0 512 512" style="enable-background:new 0 0 512 512;" xml:space="preserve">
<path style="fill:#FAB446;" d="M512,162H27V64.6c0-4.7,3.8-8.4,8.4-8.4h468.1c4.7,0,8.4,3.8,8.4,8.4V162H512z"/>
<path style="fill:#73AF00;" d="M503.6,373.9H35.4c-4.7,0-8.4-3.8-8.4-8.4V268h485v97.5C512,370.1,508.2,373.9,503.6,373.9z"/>
<rect x="27" y="162" style="fill:#F5F5F5;" width="485" height="105.9"/>
<g>
	<path style="fill:#41479B;" d="M269.5,259.9c-24.8,0-44.9-20.2-44.9-44.9s20.2-44.9,44.9-44.9c24.8,0,44.9,20.2,44.9,44.9   C314.4,239.8,294.3,259.9,269.5,259.9z M269.5,178.4c-20.2,0-36.6,16.4-36.6,36.6s16.4,36.6,36.6,36.6s36.6-16.4,36.6-36.6   S289.7,178.4,269.5,178.4z"/>
	<path style="fill:#41479B;" d="M274.5,214.2c0.5,3.4-2.4,6.4-5.8,5.8c-2.1-0.3-3.9-2.1-4.2-4.2c-0.5-3.4,2.4-6.4,5.8-5.8   C272.5,210.3,274.2,212,274.5,214.2z"/>
	<polygon style="fill:#41479B;" points="269.5,215.8 256.6,217.1 228.7,215.8 228.7,214.2 256.6,212.9 269.5,214.2  "/>
	<polygon style="fill:#41479B;" points="269.5,215.8 282.4,217.1 310.3,215.8 310.3,214.2 282.4,212.9 269.5,214.2  "/>
	<polygon style="fill:#41479B;" points="268.7,215 267.4,202.1 268.7,174.2 270.3,174.2 271.6,202.1 270.3,215  "/>
	<polygon style="fill:#41479B;" points="268.7,215 267.4,227.9 268.7,255.8 270.3,255.8 271.6,227.9 270.3,215  "/>
	<polygon style="fill:#41479B;" points="269,215.5 258.9,207.3 240.1,186.7 241.2,185.6 261.8,204.4 270,214.5  "/>
	<polygon style="fill:#41479B;" points="269,215.5 277.2,225.6 297.8,244.4 298.9,243.3 280.1,222.7 270,214.5  "/>
	<polygon style="fill:#41479B;" points="269,214.5 277.2,204.4 297.8,185.6 298.9,186.7 280.1,207.3 270,215.5  "/>
	<polygon style="fill:#41479B;" points="269,214.5 258.9,222.7 240.1,243.3 241.2,244.4 261.8,225.6 270,215.5  "/>
	<polygon style="fill:#41479B;" points="269.8,215.7 258.3,221.9 232.1,231.3 231.5,229.9 256.7,218 269.2,214.3  "/>
	<polygon style="fill:#41479B;" points="269.8,215.7 282.3,212 307.5,200.1 306.9,198.7 280.7,208.1 269.2,214.3  "/>
	<polygon style="fill:#41479B;" points="268.8,215.3 262.6,203.8 253.2,177.6 254.6,177 266.5,202.2 270.2,214.7  "/>
	<polygon style="fill:#41479B;" points="268.8,215.3 272.5,227.8 284.4,253 285.8,252.4 276.4,226.2 270.2,214.7  "/>
	<polygon style="fill:#41479B;" points="269.2,215.7 256.7,212 231.5,200.1 232.1,198.7 258.3,208.1 269.8,214.3  "/>
	<polygon style="fill:#41479B;" points="269.2,215.7 280.7,221.9 306.9,231.3 307.5,229.9 282.3,218 269.8,214.3  "/>
	<polygon style="fill:#41479B;" points="268.8,214.7 272.5,202.2 284.4,177 285.8,177.6 276.4,203.8 270.2,215.3  "/>
	<polygon style="fill:#41479B;" points="268.8,214.7 262.6,226.2 253.2,252.4 254.6,253 266.5,227.8 270.2,215.3  "/>
</g>
<path style="fill:#F5F5F5;" d="M276.2,213.4c1.1,5-3.3,9.4-8.3,8.3c-2.5-0.6-4.6-2.6-5.1-5.1c-1.1-5,3.3-9.4,8.3-8.3  C273.6,208.9,275.6,210.9,276.2,213.4z"/>
<path style="fill:#41479B;" d="M273.6,214.3c0.4,2.8-1.9,5.1-4.7,4.7c-1.7-0.3-3.2-1.7-3.4-3.4c-0.4-2.8,1.9-5.1,4.7-4.7  C271.9,211.2,273.3,212.6,273.6,214.3z"/>
<path style="fill:#2E3033;" d="M19.1,488.1L19.1,488.1C8.6,488.1,0,479.5,0,469V42.9c0-10.5,8.5-19,19-19h0.2  c10.6,0,19.1,8.6,19.1,19.1v426C38.2,479.5,29.7,488.1,19.1,488.1z"/>
<g>
</g>
<g>
</g>
<g>
</g>
<g>
</g>
<g>
</g>
<g>
</g>
<g>
</g>
<g>
</g>
<g>
</g>
<g>
</g>
<g>
</g>
<g>
</g>
<g>
</g>
<g>
</g>
<g>
</g>
</svg>
