<?xml version="1.0" encoding="iso-8859-1"?>
<!-- Generator: Adobe Illustrator 19.0.0, SVG Export Plug-In . SVG Version: 6.00 Build 0)  -->
<svg xmlns="http://www.w3.org/2000/svg" xmlns:xlink="http://www.w3.org/1999/xlink" version="1.1" id="Layer_1" x="0px" y="0px" viewBox="0 0 512 512" style="enable-background:new 0 0 512 512;" xml:space="preserve">
<path style="fill:#FF4B55;" d="M512,162.357H26.68V64.821c0-4.668,3.785-8.453,8.453-8.453h468.414c4.668,0,8.453,3.785,8.453,8.453  V162.357z"/>
<path style="fill:#464655;" d="M503.547,374.337H35.133c-4.668,0-8.453-3.785-8.453-8.453v-97.537H512v97.536  C512,370.552,508.216,374.337,503.547,374.337z"/>
<rect x="26.68" y="162.357" style="fill:#F5F5F5;" width="485.32" height="105.99"/>
<g>
	<path style="fill:#73AF00;" d="M318.692,194.049c-0.879-0.459-1.921-2.096-1.597-2.812c0.342-0.752-0.19-0.688,1.608-0.153   c3.251,0.842,5.355,0.459,7.421-1.301l1.835-1.453l2.143,1.071c1.185,0.535,2.409,0.916,2.754,0.84   c0.995-0.229,2.908-2.678,2.869-3.52c-0.039-1.145,0.803-0.84,1.225,0.384c0.879,2.295-0.739,6.255-2.958,6.79   c-1.069,0.305-2.065,0.229-3.749-0.305c-1.988-0.766-2.295-0.766-3.365,0C324.66,195.35,321.485,195.505,318.692,194.049"/>
	<path style="fill:#73AF00;" d="M327.066,185.193c-1.072-1.505-2.363-6.769-1.985-8.056c0.374-1.182,0.751-1.397,1.771-1.076   c1.826,0.643,2.258,1.826,2.04,6.125C328.571,185.408,328.142,186.482,327.066,185.193"/>
	<path style="fill:#73AF00;" d="M255.127,208.462c-4.408,2.508-10.966,2.939-10.966,9.89c-9.602,0.358-20.925,0.787-31.138,0.573   c2.767-3.575,20.285-19.767,27.57-26.183c1.206-1.062,1.615-3.117,0.914-4.563l-0.188-0.389c-1.05-2.166-3.907-2.682-5.647-1.018   c-7.259,6.944-14.453,13.415-15.624,14.525c-9.399,9.498-12.155,12.265-13.631,13.752c-1.051,1.059-1.636,2.489-1.628,3.981v0.097   c0.016,3.099,2.533,5.602,5.632,5.602h41.12c2.33,0-0.536-8.098,2.473-8.098c2.092,0,2.284,2.906,2.193,5.983   c-0.07,2.34-1.998,4.193-4.341,4.196c-17.778,0.024-36.284,0.194-53.699,0.21c-1.438,0.001-2.593-1.165-2.593-2.605v-3.132   c0-2.656-2.95-4.201-5.17-2.742c-0.081,0.053-0.161,0.105-0.241,0.154c-1.159,0.725-1.754,2.145-1.301,3.435   c0.295,0.837,0.422,1.858,0.45,2.924c0.038,1.411-1.109,2.572-2.52,2.615c-5.759,0.176-12.018,0.228-13.797-3.168   c-1.003-1.916-3.136-2.819-5.071-1.852l-0.258,0.129c-2.036,1.018-2.852,3.537-1.736,5.52c2.121,3.771,4.057,8.147,3.053,14.275   c-0.819,1.932-2.363,3.14-4.034,4.229c-1.858,1.21-0.692,4.038,1.488,3.636c5.283-0.976,8.923-5.16,10.037-10.087h81.917   c3.004,0,5.44-2.436,5.44-5.44v-17.779C263.082,211.83,257.383,212.046,255.127,208.462z"/>
	<path style="fill:#73AF00;" d="M359.03,184.971c1.208,0.778,2.42,1.555,3.767,2.199c1.475,0.704,2.038,2.504,1.176,3.893   c-0.228,0.368-0.418,0.778-0.527,1.276v35.259c2.41,0.501,3.792,0.026,4.891-0.731c1.239-0.854,2.916-0.232,3.307,1.22   c0.832,3.093,2.193,6.114,2.918,8.864c0.454,1.719-0.837,3.401-2.615,3.401h-13.813c-1.223,0-2.214-0.991-2.214-2.215v-51.47   C355.92,185.072,357.687,184.106,359.03,184.971z"/>
	<path style="fill:#73AF00;" d="M342.305,193.557c0.011,9.736,0.124,20.224,0.141,30.66c0.002,1.352-1.095,2.448-2.447,2.448h-0.157   c-1.35,0-2.445-1.095-2.445-2.445v-24.731c0-1.346-1.582-2.067-2.594-1.179l-3.242,2.801c-0.663,0.573-1.044,1.396-1.047,2.272   c-0.011,4.023-0.045,15.735-0.061,20.847c-0.004,1.347-1.098,2.434-2.445,2.434h-0.222c-1.344,0-2.436-1.08-2.445-2.424   c-0.024-3.403-0.067-9.712-0.083-14.443c-0.005-1.361-1.616-2.072-2.638-1.175c-3.359,2.943-4.134,3.608-5.896,5.43   c0.143,0.932,0.86,0,1.29,0.715v4.732c-12.236-2.303-13.149,7.47-12.69,17.959c0.069,1.575,1.363,2.823,2.941,2.823h38.414   c1.424,0,2.579-1.155,2.579-2.579v-47.756c0-1.596-1.892-2.414-3.07-1.338c-0.938,0.859-1.94,1.718-2.801,2.497   C342.691,191.734,342.304,192.619,342.305,193.557z M314.034,226.307c-0.752-2.15,3.476-2.939,3.977-1.004   C318.191,227.669,314.966,227.74,314.034,226.307z"/>
	<path style="fill:#73AF00;" d="M187.154,244.149c1.47,0,2.651,1.218,2.651,2.651c0,1.506-1.181,2.653-2.651,2.653   c-1.505,0-2.724-1.146-2.724-2.653C184.43,245.368,185.65,244.149,187.154,244.149"/>
	<path style="fill:#73AF00;" d="M274.497,186.05c0.717,0.431,1.455,0.844,2.24,1.215c1.418,0.67,1.977,2.431,1.111,3.739   c-0.261,0.394-0.484,0.84-0.614,1.405v35.188c2.553,0.567,3.95,0.012,5.063-0.813c1.108-0.82,2.705-0.254,3.06,1.079   c0.637,2.389,1.598,4.751,2.338,6.993c0.906,2.742-1.128,5.567-4.016,5.567h-10.775c-1.745,0-3.159-1.415-3.159-3.159v-48.487   C269.745,186.339,272.406,184.794,274.497,186.05z"/>
</g>
<path style="fill:#2E3033;" d="M19.152,488.46L19.152,488.46C8.575,488.46,0,479.884,0,469.307V42.534  C0,32.044,8.504,23.54,18.994,23.54h0.157c10.577,0,19.152,8.575,19.152,19.152V469.31C38.303,479.884,29.728,488.46,19.152,488.46z  "/>
<g>
</g>
<g>
</g>
<g>
</g>
<g>
</g>
<g>
</g>
<g>
</g>
<g>
</g>
<g>
</g>
<g>
</g>
<g>
</g>
<g>
</g>
<g>
</g>
<g>
</g>
<g>
</g>
<g>
</g>
</svg>
