<?xml version="1.0" encoding="iso-8859-1"?>
<!-- Generator: Adobe Illustrator 19.0.0, SVG Export Plug-In . SVG Version: 6.00 Build 0)  -->
<svg xmlns="http://www.w3.org/2000/svg" xmlns:xlink="http://www.w3.org/1999/xlink" version="1.1" id="Layer_1" x="0px" y="0px" viewBox="0 0 512.007 512.007" style="enable-background:new 0 0 512.007 512.007;" xml:space="preserve">
<path style="fill:#73AF00;" d="M512,162.506H27.43V65.121c0-4.661,3.779-8.44,8.44-8.44h467.69c4.661,0,8.44,3.779,8.44,8.44  V162.506z"/>
<path style="fill:#FF4B55;" d="M503.56,374.159H35.87c-4.661,0-8.44-3.779-8.44-8.44v-97.385H512v97.385  C512,370.379,508.222,374.159,503.56,374.159z"/>
<g>
	<rect x="27.43" y="162.501" style="fill:#F5F5F5;" width="484.57" height="105.83"/>
	<path style="fill:#F5F5F5;" d="M28.745,156.907h0.074c0.726,0,1.315-0.589,1.315-1.315v-2.846c0-0.726,0.589-1.315,1.315-1.315   h5.516c0.726,0,1.315,0.589,1.315,1.315v2.846c0,0.726,0.589,1.315,1.315,1.315h10.887c0.726,0,1.315-0.589,1.315-1.315v-5.62   c0-0.726-0.589-1.315-1.315-1.315h-5.48c-0.726,0-1.315,0.589-1.315,1.315v0.145c0,0.726,0.589,1.315,1.315,1.315h2.778   c0.726,0,1.315,0.589,1.315,1.315v0.142c0,0.726-0.589,1.315-1.315,1.315h-5.482c-0.726,0-1.315-0.589-1.315-1.315v-2.916   c0-0.726-0.589-1.315-1.315-1.315H28.745c-0.726,0-1.315,0.589-1.315,1.315v5.62C27.43,156.318,28.019,156.907,28.745,156.907z    M34.184,156.907h0.075c0.726,0,1.315-0.589,1.315-1.315v-0.075c0-0.726-0.589-1.315-1.315-1.315h-0.075   c-0.726,0-1.315,0.589-1.315,1.315v0.075C32.87,156.318,33.458,156.907,34.184,156.907z M28.745,145.886h32.579   c0.726,0,1.315-0.589,1.315-1.315v-0.145c0-0.726-0.589-1.315-1.315-1.315H28.745c-0.726,0-1.315,0.589-1.315,1.315v0.145   C27.43,145.298,28.019,145.886,28.745,145.886z M61.323,156.907h-5.48c-0.726,0-1.315-0.589-1.315-1.315v-5.62   c0-0.726,0.589-1.315,1.315-1.315h8.184c0.726,0,1.315-0.589,1.315-1.315v-2.916c0-0.726,0.589-1.315,1.315-1.315h0.074   c0.726,0,1.315,0.589,1.315,1.315v8.461c0,0.726,0.589,1.315,1.315,1.315h0.075c0.726,0,1.315-0.589,1.315-1.315v-8.461   c0-0.726,0.589-1.315,1.315-1.315h0.074c0.726,0,1.315,0.589,1.315,1.315v8.461c0,0.726,0.589,1.315,1.315,1.315h0.109   c0.726,0,1.315-0.589,1.315-1.315v-8.461c0-0.726,0.589-1.315,1.315-1.315h0.04c0.726,0,1.315,0.589,1.315,1.315v11.165   c0,0.726-0.589,1.315-1.315,1.315H66.656c-0.726,0-1.315-0.589-1.315-1.315v-2.846c0-0.726-0.589-1.315-1.315-1.315h-5.48   c-0.726,0-1.315,0.589-1.315,1.315v0.142c0,0.726,0.589,1.315,1.315,1.315h2.776c0.726,0,1.315,0.589,1.315,1.315v0.075   C62.638,156.318,62.049,156.907,61.323,156.907z"/>
	<path style="fill:#F5F5F5;" d="M82.909,156.907h0.109c0.726,0,1.315-0.589,1.315-1.315v-2.846c0-0.726,0.589-1.315,1.315-1.315   h5.446c0.726,0,1.315,0.589,1.315,1.315v2.846c0,0.726,0.589,1.315,1.315,1.315h10.887c0.726,0,1.315-0.589,1.315-1.315v-5.62   c0-0.726-0.589-1.315-1.315-1.315h-5.48c-0.726,0-1.315,0.589-1.315,1.315v0.145c0,0.726,0.589,1.315,1.315,1.315h2.778   c0.726,0,1.315,0.589,1.315,1.315v0.142c0,0.726-0.589,1.315-1.315,1.315h-5.482c-0.726,0-1.315-0.589-1.315-1.315v-2.916   c0-0.726-0.589-1.315-1.315-1.315H82.909c-0.726,0-1.315,0.589-1.315,1.315v5.62C81.594,156.318,82.183,156.907,82.909,156.907z    M88.314,156.907h0.074c0.726,0,1.315-0.589,1.315-1.315v-0.075c0-0.726-0.589-1.315-1.315-1.315h-0.074   c-0.726,0-1.315,0.589-1.315,1.315v0.075C87.001,156.318,87.589,156.907,88.314,156.907z M82.909,145.886h32.545   c0.726,0,1.315-0.589,1.315-1.315v-0.145c0-0.726-0.589-1.315-1.315-1.315H82.909c-0.726,0-1.315,0.589-1.315,1.315v0.145   C81.594,145.298,82.183,145.886,82.909,145.886z M115.453,156.907h-5.516c-0.726,0-1.315-0.589-1.315-1.315v-5.62   c0-0.726,0.589-1.315,1.315-1.315h8.184c0.726,0,1.315-0.589,1.315-1.315v-2.916c0-0.726,0.589-1.315,1.315-1.315h0.109   c0.726,0,1.315,0.589,1.315,1.315v8.461c0,0.726,0.589,1.315,1.315,1.315h0.109c0.726,0,1.315-0.589,1.315-1.315v-8.461   c0-0.726,0.589-1.315,1.315-1.315h0.04c0.726,0,1.315,0.589,1.315,1.315v8.461c0,0.726,0.589,1.315,1.315,1.315h0.109   c0.726,0,1.315-0.589,1.315-1.315v-8.461c0-0.726,0.589-1.315,1.315-1.315h0.074c0.726,0,1.315,0.589,1.315,1.315v11.165   c0,0.726-0.589,1.315-1.315,1.315h-10.955c-0.726,0-1.315-0.589-1.315-1.315v-2.846c0-0.726-0.589-1.315-1.315-1.315h-5.446   c-0.726,0-1.315,0.589-1.315,1.315v0.142c0,0.726,0.589,1.315,1.315,1.315h2.778c0.726,0,1.315,0.589,1.315,1.315v0.075   C116.768,156.318,116.179,156.907,115.453,156.907z"/>
	<path style="fill:#F5F5F5;" d="M137.039,156.907h0.074c0.726,0,1.315-0.589,1.315-1.315v-2.846c0-0.726,0.589-1.315,1.315-1.315   h5.482c0.726,0,1.315,0.589,1.315,1.315v2.846c0,0.726,0.589,1.315,1.315,1.315h10.92c0.726,0,1.315-0.589,1.315-1.315v-5.62   c0-0.726-0.589-1.315-1.315-1.315h-5.48c-0.726,0-1.315,0.589-1.315,1.315v0.145c0,0.726,0.589,1.315,1.315,1.315h2.778   c0.726,0,1.315,0.589,1.315,1.315v0.142c0,0.726-0.589,1.315-1.315,1.315h-5.516c-0.726,0-1.315-0.589-1.315-1.315v-2.916   c0-0.726-0.589-1.315-1.315-1.315H137.04c-0.726,0-1.315,0.589-1.315,1.315v5.62C135.724,156.318,136.313,156.907,137.039,156.907z    M142.446,156.907h0.074c0.726,0,1.315-0.589,1.315-1.315v-0.075c0-0.726-0.589-1.315-1.315-1.315h-0.074   c-0.726,0-1.315,0.589-1.315,1.315v0.075C141.131,156.318,141.719,156.907,142.446,156.907z M137.039,145.886h32.581   c0.726,0,1.315-0.589,1.315-1.315v-0.145c0-0.726-0.589-1.315-1.315-1.315h-32.581c-0.726,0-1.315,0.589-1.315,1.315v0.145   C135.724,145.298,136.313,145.886,137.039,145.886z M169.619,156.907h-5.516c-0.726,0-1.315-0.589-1.315-1.315v-5.62   c0-0.726,0.589-1.315,1.315-1.315h8.183c0.726,0,1.315-0.589,1.315-1.315v-2.916c0-0.726,0.589-1.315,1.315-1.315h0.075   c0.726,0,1.315,0.589,1.315,1.315v8.461c0,0.726,0.589,1.315,1.315,1.315h0.109c0.726,0,1.315-0.589,1.315-1.315v-8.461   c0-0.726,0.589-1.315,1.315-1.315h0.109c0.726,0,1.315,0.589,1.315,1.315v8.461c0,0.726,0.589,1.315,1.315,1.315h0.04   c0.726,0,1.315-0.589,1.315-1.315v-8.461c0-0.726,0.589-1.315,1.315-1.315h0.074c0.726,0,1.315,0.589,1.315,1.315v11.165   c0,0.726-0.589,1.315-1.315,1.315h-10.921c-0.726,0-1.315-0.589-1.315-1.315v-2.846c0-0.726-0.589-1.315-1.315-1.315h-5.48   c-0.726,0-1.315,0.589-1.315,1.315v0.142c0,0.726,0.589,1.315,1.315,1.315h2.813c0.726,0,1.315,0.589,1.315,1.315v0.075   C170.934,156.318,170.345,156.907,169.619,156.907z"/>
	<path style="fill:#F5F5F5;" d="M191.169,156.907h0.074c0.726,0,1.315-0.589,1.315-1.315v-2.846c0-0.726,0.589-1.315,1.315-1.315   h5.48c0.726,0,1.315,0.589,1.315,1.315v2.846c0,0.726,0.589,1.315,1.315,1.315h10.921c0.726,0,1.315-0.589,1.315-1.315v-5.62   c0-0.726-0.589-1.315-1.315-1.315h-5.516c-0.726,0-1.315,0.589-1.315,1.315v0.145c0,0.726,0.589,1.315,1.315,1.315h2.778   c0.726,0,1.315,0.589,1.315,1.315v0.142c0,0.726-0.589,1.315-1.315,1.315h-5.48c-0.726,0-1.315-0.589-1.315-1.315v-2.916   c0-0.726-0.589-1.315-1.315-1.315h-10.887c-0.726,0-1.315,0.589-1.315,1.315v5.62C189.854,156.318,190.443,156.907,191.169,156.907   z M196.576,156.907h0.074c0.726,0,1.315-0.589,1.315-1.315v-0.075c0-0.726-0.589-1.315-1.315-1.315h-0.074   c-0.726,0-1.315,0.589-1.315,1.315v0.075C195.261,156.318,195.85,156.907,196.576,156.907z M191.169,145.886h32.545   c0.726,0,1.315-0.589,1.315-1.315v-0.145c0-0.726-0.589-1.315-1.315-1.315h-32.545c-0.726,0-1.315,0.589-1.315,1.315v0.145   C189.854,145.298,190.443,145.886,191.169,145.886z M223.715,156.907h-5.516c-0.726,0-1.315-0.589-1.315-1.315v-5.62   c0-0.726,0.589-1.315,1.315-1.315h8.253c0.726,0,1.315-0.589,1.315-1.315v-2.916c0-0.726,0.589-1.315,1.315-1.315h0.074   c0.726,0,1.315,0.589,1.315,1.315v8.461c0,0.726,0.589,1.315,1.315,1.315h0.04c0.726,0,1.315-0.589,1.315-1.315v-8.461   c0-0.726,0.589-1.315,1.315-1.315h0.109c0.726,0,1.315,0.589,1.315,1.315v8.461c0,0.726,0.589,1.315,1.315,1.315h0.075   c0.726,0,1.315-0.589,1.315-1.315v-8.461c0-0.726,0.589-1.315,1.315-1.315h0.074c0.726,0,1.315,0.589,1.315,1.315v11.165   c0,0.726-0.589,1.315-1.315,1.315h-10.887c-0.726,0-1.315-0.589-1.315-1.315v-2.846c0-0.726-0.589-1.315-1.315-1.315h-5.516   c-0.726,0-1.315,0.589-1.315,1.315v0.142c0,0.726,0.589,1.315,1.315,1.315h2.778c0.726,0,1.315,0.589,1.315,1.315v0.075   C225.028,156.318,224.441,156.907,223.715,156.907z"/>
	<path style="fill:#F5F5F5;" d="M245.298,156.907h0.075c0.726,0,1.315-0.589,1.315-1.315v-2.846c0-0.726,0.589-1.315,1.315-1.315   h5.48c0.726,0,1.315,0.589,1.315,1.315v2.846c0,0.726,0.589,1.315,1.315,1.315h10.921c0.726,0,1.315-0.589,1.315-1.315v-5.62   c0-0.726-0.589-1.315-1.315-1.315h-5.516c-0.726,0-1.315,0.589-1.315,1.315v0.145c0,0.726,0.589,1.315,1.315,1.315h2.812   c0.726,0,1.315,0.589,1.315,1.315v0.142c0,0.726-0.589,1.315-1.315,1.315h-5.48c-0.726,0-1.315-0.589-1.315-1.315v-2.916   c0-0.726-0.589-1.315-1.315-1.315h-10.921c-0.726,0-1.315,0.589-1.315,1.315v5.62C243.984,156.318,244.572,156.907,245.298,156.907   z M250.74,156.907h0.04c0.726,0,1.315-0.589,1.315-1.315v-0.075c0-0.726-0.589-1.315-1.315-1.315h-0.04   c-0.726,0-1.315,0.589-1.315,1.315v0.075C249.425,156.318,250.014,156.907,250.74,156.907z M245.298,145.886h32.581   c0.726,0,1.315-0.589,1.315-1.315v-0.145c0-0.726-0.589-1.315-1.315-1.315h-32.581c-0.726,0-1.315,0.589-1.315,1.315v0.145   C243.984,145.298,244.572,145.886,245.298,145.886z M277.879,156.907h-5.516c-0.726,0-1.315-0.589-1.315-1.315v-5.62   c0-0.726,0.589-1.315,1.315-1.315h8.22c0.726,0,1.315-0.589,1.315-1.315v-2.916c0-0.726,0.589-1.315,1.315-1.315h0.074   c0.726,0,1.315,0.589,1.315,1.315v8.461c0,0.726,0.589,1.315,1.315,1.315h0.076c0.726,0,1.315-0.589,1.315-1.315v-8.461   c0-0.726,0.589-1.315,1.315-1.315h0.074c0.726,0,1.315,0.589,1.315,1.315v8.461c0,0.726,0.589,1.315,1.315,1.315h0.074   c0.726,0,1.315-0.589,1.315-1.315v-8.461c0-0.726,0.589-1.315,1.315-1.315h0.076c0.726,0,1.315,0.589,1.315,1.315v11.165   c0,0.726-0.589,1.315-1.315,1.315H283.22c-0.726,0-1.315-0.589-1.315-1.315v-2.846c0-0.726-0.589-1.315-1.315-1.315h-5.516   c-0.726,0-1.315,0.589-1.315,1.315v0.142c0,0.726,0.589,1.315,1.315,1.315h2.812c0.726,0,1.315,0.589,1.315,1.315v0.075   C279.193,156.318,278.605,156.907,277.879,156.907z"/>
	<path style="fill:#F5F5F5;" d="M299.428,156.907h0.076c0.726,0,1.315-0.589,1.315-1.315v-2.846c0-0.726,0.589-1.315,1.315-1.315   h5.48c0.726,0,1.315,0.589,1.315,1.315v2.846c0,0.726,0.589,1.315,1.315,1.315h10.921c0.726,0,1.315-0.589,1.315-1.315v-5.62   c0-0.726-0.589-1.315-1.315-1.315h-5.482c-0.726,0-1.315,0.589-1.315,1.315v0.145c0,0.726,0.589,1.315,1.315,1.315h2.744   c0.726,0,1.315,0.589,1.315,1.315v0.142c0,0.726-0.589,1.315-1.315,1.315h-5.446c-0.726,0-1.315-0.589-1.315-1.315v-2.916   c0-0.726-0.589-1.315-1.315-1.315H299.43c-0.726,0-1.315,0.589-1.315,1.315v5.62C298.114,156.318,298.702,156.907,299.428,156.907z    M304.87,156.907h0.04c0.726,0,1.315-0.589,1.315-1.315v-0.075c0-0.726-0.589-1.315-1.315-1.315h-0.04   c-0.726,0-1.315,0.589-1.315,1.315v0.075C303.555,156.318,304.144,156.907,304.87,156.907z M299.428,145.886h32.581   c0.726,0,1.315-0.589,1.315-1.315v-0.145c0-0.726-0.589-1.315-1.315-1.315h-32.581c-0.726,0-1.315,0.589-1.315,1.315v0.145   C298.114,145.298,298.702,145.886,299.428,145.886z M332.009,156.907h-5.48c-0.726,0-1.315-0.589-1.315-1.315v-5.62   c0-0.726,0.589-1.315,1.315-1.315h8.182c0.726,0,1.315-0.589,1.315-1.315v-2.916c0-0.726,0.589-1.315,1.315-1.315h0.076   c0.726,0,1.315,0.589,1.315,1.315v8.461c0,0.726,0.589,1.315,1.315,1.315h0.074c0.726,0,1.315-0.589,1.315-1.315v-8.461   c0-0.726,0.589-1.315,1.315-1.315h0.075c0.726,0,1.315,0.589,1.315,1.315v8.461c0,0.726,0.589,1.315,1.315,1.315h0.074   c0.726,0,1.315-0.589,1.315-1.315v-8.461c0-0.726,0.589-1.315,1.315-1.315h0.075c0.726,0,1.315,0.589,1.315,1.315v11.165   c0,0.726-0.589,1.315-1.315,1.315h-10.888c-0.726,0-1.315-0.589-1.315-1.315v-2.846c0-0.726-0.589-1.315-1.315-1.315h-5.513   c-0.726,0-1.315,0.589-1.315,1.315v0.142c0,0.726,0.589,1.315,1.315,1.315h2.812c0.726,0,1.315,0.589,1.315,1.315v0.075   C333.323,156.318,332.735,156.907,332.009,156.907z"/>
	<path style="fill:#F5F5F5;" d="M353.558,156.907h0.076c0.726,0,1.315-0.589,1.315-1.315v-2.846c0-0.726,0.589-1.315,1.315-1.315   h5.513c0.726,0,1.315,0.589,1.315,1.315v2.846c0,0.726,0.589,1.315,1.315,1.315h10.888c0.726,0,1.315-0.589,1.315-1.315v-5.62   c0-0.726-0.589-1.315-1.315-1.315h-5.482c-0.726,0-1.315,0.589-1.315,1.315v0.145c0,0.726,0.589,1.315,1.315,1.315h2.814   c0.726,0,1.315,0.589,1.315,1.315v0.142c0,0.726-0.589,1.315-1.315,1.315h-5.551c-0.726,0-1.315-0.589-1.315-1.315v-2.916   c0-0.726-0.589-1.315-1.315-1.315h-10.887c-0.726,0-1.315,0.589-1.315,1.315v5.62C352.244,156.318,352.833,156.907,353.558,156.907   z M358.964,156.907h0.109c0.726,0,1.315-0.589,1.315-1.315v-0.075c0-0.726-0.589-1.315-1.315-1.315h-0.109   c-0.726,0-1.315,0.589-1.315,1.315v0.075C357.651,156.318,358.238,156.907,358.964,156.907z M353.558,145.886h32.581   c0.726,0,1.315-0.589,1.315-1.315v-0.145c0-0.726-0.589-1.315-1.315-1.315h-32.581c-0.726,0-1.315,0.589-1.315,1.315v0.145   C352.244,145.298,352.833,145.886,353.558,145.886z M386.139,156.907h-5.48c-0.726,0-1.315-0.589-1.315-1.315v-5.62   c0-0.726,0.589-1.315,1.315-1.315h8.183c0.726,0,1.315-0.589,1.315-1.315v-2.916c0-0.726,0.589-1.315,1.315-1.315h0.076   c0.726,0,1.315,0.589,1.315,1.315v8.461c0,0.726,0.589,1.315,1.315,1.315h0.074c0.726,0,1.315-0.589,1.315-1.315v-8.461   c0-0.726,0.589-1.315,1.315-1.315h0.076c0.726,0,1.315,0.589,1.315,1.315v8.461c0,0.726,0.589,1.315,1.315,1.315h0.109   c0.726,0,1.315-0.589,1.315-1.315v-8.461c0-0.726,0.589-1.315,1.315-1.315h0.038c0.726,0,1.315,0.589,1.315,1.315v11.165   c0,0.726-0.589,1.315-1.315,1.315h-10.89c-0.726,0-1.315-0.589-1.315-1.315v-2.846c0-0.726-0.589-1.315-1.315-1.315h-5.446   c-0.726,0-1.315,0.589-1.315,1.315v0.142c0,0.726,0.589,1.315,1.315,1.315h2.744c0.726,0,1.315,0.589,1.315,1.315v0.075   C387.454,156.318,386.865,156.907,386.139,156.907z"/>
	<path style="fill:#F5F5F5;" d="M407.722,156.907h0.04c0.726,0,1.315-0.589,1.315-1.315v-2.846c0-0.726,0.589-1.315,1.315-1.315   h5.482c0.726,0,1.315,0.589,1.315,1.315v2.846c0,0.726,0.589,1.315,1.315,1.315h10.92c0.726,0,1.315-0.589,1.315-1.315v-5.62   c0-0.726-0.589-1.315-1.315-1.315h-5.445c-0.726,0-1.315,0.589-1.315,1.315v0.145c0,0.726,0.589,1.315,1.315,1.315h2.776   c0.726,0,1.315,0.589,1.315,1.315v0.142c0,0.726-0.589,1.315-1.315,1.315h-5.513c-0.726,0-1.315-0.589-1.315-1.315v-2.916   c0-0.726-0.589-1.315-1.315-1.315h-10.888c-0.726,0-1.315,0.589-1.315,1.315v5.62C406.408,156.318,406.996,156.907,407.722,156.907   z M413.129,156.907h0.075c0.726,0,1.315-0.589,1.315-1.315v-0.075c0-0.726-0.589-1.315-1.315-1.315h-0.075   c-0.726,0-1.315,0.589-1.315,1.315v0.075C411.815,156.318,412.403,156.907,413.129,156.907z M407.722,145.886h32.617   c0.726,0,1.315-0.589,1.315-1.315v-0.145c0-0.726-0.589-1.315-1.315-1.315h-32.617c-0.726,0-1.315,0.589-1.315,1.315v0.145   C406.408,145.298,406.996,145.886,407.722,145.886z M440.339,156.907h-5.551c-0.726,0-1.315-0.589-1.315-1.315v-5.62   c0-0.726,0.589-1.315,1.315-1.315h8.184c0.726,0,1.315-0.589,1.315-1.315v-2.916c0-0.726,0.589-1.315,1.315-1.315h0.109   c0.726,0,1.315,0.589,1.315,1.315v8.461c0,0.726,0.589,1.315,1.315,1.315h0.074c0.726,0,1.315-0.589,1.315-1.315v-8.461   c0-0.726,0.589-1.315,1.315-1.315h0.04c0.726,0,1.315,0.589,1.315,1.315v8.461c0,0.726,0.589,1.315,1.315,1.315h0.109   c0.726,0,1.315-0.589,1.315-1.315v-8.461c0-0.726,0.589-1.315,1.315-1.315h0.075c0.726,0,1.315,0.589,1.315,1.315v11.165   c0,0.726-0.589,1.315-1.315,1.315h-10.921c-0.726,0-1.315-0.589-1.315-1.315v-2.846c0-0.726-0.589-1.315-1.315-1.315h-5.48   c-0.726,0-1.315,0.589-1.315,1.315v0.142c0,0.726,0.589,1.315,1.315,1.315h2.846c0.726,0,1.315,0.589,1.315,1.315v0.075   C441.653,156.318,441.065,156.907,440.339,156.907z"/>
	<path style="fill:#F5F5F5;" d="M461.852,156.907h0.075c0.726,0,1.315-0.589,1.315-1.315v-2.846c0-0.726,0.589-1.315,1.315-1.315   h5.48c0.726,0,1.315,0.589,1.315,1.315v2.846c0,0.726,0.589,1.315,1.315,1.315h10.921c0.726,0,1.315-0.589,1.315-1.315v-5.62   c0-0.726-0.589-1.315-1.315-1.315h-5.446c-0.726,0-1.315,0.589-1.315,1.315v0.145c0,0.726,0.589,1.315,1.315,1.315h2.778   c0.726,0,1.315,0.589,1.315,1.315v0.142c0,0.726-0.589,1.315-1.315,1.315h-5.551c-0.726,0-1.315-0.589-1.315-1.315v-2.916   c0-0.726-0.589-1.315-1.315-1.315h-10.887c-0.726,0-1.315,0.589-1.315,1.315v5.62C460.539,156.318,461.127,156.907,461.852,156.907   z M467.259,156.907h0.076c0.726,0,1.315-0.589,1.315-1.315v-0.075c0-0.726-0.589-1.315-1.315-1.315h-0.076   c-0.726,0-1.315,0.589-1.315,1.315v0.075C465.945,156.318,466.534,156.907,467.259,156.907z M461.852,145.886h32.545   c0.726,0,1.315-0.589,1.315-1.315v-0.145c0-0.726-0.589-1.315-1.315-1.315h-32.545c-0.726,0-1.315,0.589-1.315,1.315v0.145   C460.539,145.298,461.127,145.886,461.852,145.886z M494.398,156.907h-5.48c-0.726,0-1.315-0.589-1.315-1.315v-5.62   c0-0.726,0.589-1.315,1.315-1.315h8.253c0.726,0,1.315-0.589,1.315-1.315v-2.916c0-0.726,0.589-1.315,1.315-1.315h0.004   c0.726,0,1.315,0.589,1.315,1.315v8.461c0,0.726,0.589,1.315,1.315,1.315h0.145c0.726,0,1.315-0.589,1.315-1.315v-8.461   c0-0.726,0.589-1.315,1.315-1.315h0.004c0.726,0,1.315,0.589,1.315,1.315v8.461c0,0.726,0.589,1.315,1.315,1.315h0.076   c0.726,0,1.315-0.589,1.315-1.315v-8.461c0-0.726,0.589-1.315,1.315-1.315h0.142c0.726,0,1.315,0.589,1.315,1.315v11.165   c0,0.726-0.589,1.315-1.315,1.315h-10.887c-0.726,0-1.315-0.589-1.315-1.315v-2.846c0-0.726-0.589-1.315-1.315-1.315h-5.549   c-0.726,0-1.315,0.589-1.315,1.315v0.142c0,0.726,0.589,1.315,1.315,1.315h2.776c0.726,0,1.315,0.589,1.315,1.315v0.075   C495.712,156.318,495.124,156.907,494.398,156.907z"/>
	<path style="fill:#F5F5F5;" d="M28.745,165.292h21.732c0.726,0,1.315-0.589,1.315-1.315v-2.916c0-0.726-0.589-1.315-1.315-1.315   H28.745c-0.726,0-1.315,0.589-1.315,1.315v2.916C27.43,164.703,28.019,165.292,28.745,165.292z M55.843,165.292h21.698   c0.726,0,1.315-0.589,1.315-1.315v-2.916c0-0.726-0.589-1.315-1.315-1.315H55.843c-0.726,0-1.315,0.589-1.315,1.315v2.916   C54.529,164.703,55.118,165.292,55.843,165.292z"/>
	<path style="fill:#F5F5F5;" d="M82.909,165.292h21.698c0.726,0,1.315-0.589,1.315-1.315v-2.916c0-0.726-0.589-1.315-1.315-1.315   H82.909c-0.726,0-1.315,0.589-1.315,1.315v2.916C81.594,164.703,82.183,165.292,82.909,165.292z M109.938,165.292h21.768   c0.726,0,1.315-0.589,1.315-1.315v-2.916c0-0.726-0.589-1.315-1.315-1.315h-21.768c-0.726,0-1.315,0.589-1.315,1.315v2.916   C108.624,164.703,109.212,165.292,109.938,165.292z"/>
	<path style="fill:#F5F5F5;" d="M137.039,165.292h21.732c0.726,0,1.315-0.589,1.315-1.315v-2.916c0-0.726-0.589-1.315-1.315-1.315   h-21.732c-0.726,0-1.315,0.589-1.315,1.315v2.916C135.724,164.703,136.313,165.292,137.039,165.292z M164.104,165.292h21.732   c0.726,0,1.315-0.589,1.315-1.315v-2.916c0-0.726-0.589-1.315-1.315-1.315h-21.732c-0.726,0-1.315,0.589-1.315,1.315v2.916   C162.789,164.703,163.378,165.292,164.104,165.292z"/>
	<path style="fill:#F5F5F5;" d="M191.169,165.292h21.732c0.726,0,1.315-0.589,1.315-1.315v-2.916c0-0.726-0.589-1.315-1.315-1.315   h-21.732c-0.726,0-1.315,0.589-1.315,1.315v2.916C189.854,164.703,190.443,165.292,191.169,165.292z M218.199,165.292h21.768   c0.726,0,1.315-0.589,1.315-1.315v-2.916c0-0.726-0.589-1.315-1.315-1.315h-21.768c-0.726,0-1.315,0.589-1.315,1.315v2.916   C216.885,164.703,217.473,165.292,218.199,165.292z"/>
	<path style="fill:#F5F5F5;" d="M245.298,165.292h21.734c0.726,0,1.315-0.589,1.315-1.315v-2.916c0-0.726-0.589-1.315-1.315-1.315   h-21.734c-0.726,0-1.315,0.589-1.315,1.315v2.916C243.984,164.703,244.572,165.292,245.298,165.292z M272.363,165.292h21.734   c0.726,0,1.315-0.589,1.315-1.315v-2.916c0-0.726-0.589-1.315-1.315-1.315h-21.734c-0.726,0-1.315,0.589-1.315,1.315v2.916   C271.049,164.703,271.637,165.292,272.363,165.292z"/>
	<path style="fill:#F5F5F5;" d="M299.428,165.292h21.734c0.726,0,1.315-0.589,1.315-1.315v-2.916c0-0.726-0.589-1.315-1.315-1.315   h-21.734c-0.726,0-1.315,0.589-1.315,1.315v2.916C298.114,164.703,298.702,165.292,299.428,165.292z M326.529,165.292h21.698   c0.726,0,1.315-0.589,1.315-1.315v-2.916c0-0.726-0.589-1.315-1.315-1.315h-21.698c-0.726,0-1.315,0.589-1.315,1.315v2.916   C325.215,164.703,325.803,165.292,326.529,165.292z"/>
	<path style="fill:#F5F5F5;" d="M353.558,165.292h21.734c0.726,0,1.315-0.589,1.315-1.315v-2.916c0-0.726-0.589-1.315-1.315-1.315   h-21.734c-0.726,0-1.315,0.589-1.315,1.315v2.916C352.244,164.703,352.833,165.292,353.558,165.292z M380.659,165.292h21.697   c0.726,0,1.315-0.589,1.315-1.315v-2.916c0-0.726-0.589-1.315-1.315-1.315h-21.697c-0.726,0-1.315,0.589-1.315,1.315v2.916   C379.345,164.703,379.934,165.292,380.659,165.292z"/>
	<path style="fill:#F5F5F5;" d="M407.722,165.292h21.699c0.726,0,1.315-0.589,1.315-1.315v-2.916c0-0.726-0.589-1.315-1.315-1.315   h-21.699c-0.726,0-1.315,0.589-1.315,1.315v2.916C406.408,164.703,406.996,165.292,407.722,165.292z M434.787,165.292h21.734   c0.726,0,1.315-0.589,1.315-1.315v-2.916c0-0.726-0.589-1.315-1.315-1.315h-21.734c-0.726,0-1.315,0.589-1.315,1.315v2.916   C433.474,164.703,434.062,165.292,434.787,165.292z"/>
	<path style="fill:#F5F5F5;" d="M461.852,165.292h21.734c0.726,0,1.315-0.589,1.315-1.315v-2.916c0-0.726-0.589-1.315-1.315-1.315   h-21.734c-0.726,0-1.315,0.589-1.315,1.315v2.916C460.539,164.703,461.127,165.292,461.852,165.292z M488.918,165.292h21.768   c0.726,0,1.315-0.589,1.315-1.315v-2.916c0-0.726-0.589-1.315-1.315-1.315h-21.768c-0.726,0-1.315,0.589-1.315,1.315v2.916   C487.604,164.703,488.193,165.292,488.918,165.292z"/>
	<path style="fill:#F5F5F5;" d="M510.687,273.933h-0.074c-0.726,0-1.315,0.589-1.315,1.315v2.846c0,0.726-0.589,1.315-1.315,1.315   h-5.516c-0.726,0-1.315-0.589-1.315-1.315v-2.846c0-0.726-0.589-1.315-1.315-1.315H488.95c-0.726,0-1.315,0.589-1.315,1.315v5.62   c0,0.726,0.589,1.315,1.315,1.315h5.48c0.726,0,1.315-0.589,1.315-1.315v-0.145c0-0.726-0.589-1.315-1.315-1.315h-2.778   c-0.726,0-1.315-0.589-1.315-1.315v-0.142c0-0.726,0.589-1.315,1.315-1.315h5.482c0.726,0,1.315,0.589,1.315,1.315v2.916   c0,0.726,0.589,1.315,1.315,1.315h10.92c0.726,0,1.315-0.589,1.315-1.315v-5.62C512,274.522,511.412,273.933,510.687,273.933z    M505.246,273.933h-0.076c-0.726,0-1.315,0.589-1.315,1.315v0.075c0,0.726,0.589,1.315,1.315,1.315h0.076   c0.726,0,1.315-0.589,1.315-1.315v-0.075C506.56,274.522,505.972,273.933,505.246,273.933z M510.687,284.953h-32.579   c-0.726,0-1.315,0.589-1.315,1.315v0.145c0,0.726,0.589,1.315,1.315,1.315h32.579c0.726,0,1.315-0.589,1.315-1.315v-0.145   C512,285.542,511.412,284.953,510.687,284.953z M478.107,273.933h5.48c0.726,0,1.315,0.589,1.315,1.315v5.62   c0,0.726-0.589,1.315-1.315,1.315h-8.184c-0.726,0-1.315,0.589-1.315,1.315v2.916c0,0.726-0.589,1.315-1.315,1.315H472.7   c-0.726,0-1.315-0.589-1.315-1.315v-8.461c0-0.726-0.589-1.315-1.315-1.315h-0.076c-0.726,0-1.315,0.589-1.315,1.315v8.461   c0,0.726-0.589,1.315-1.315,1.315h-0.074c-0.726,0-1.315-0.589-1.315-1.315v-8.461c0-0.726-0.589-1.315-1.315-1.315h-0.109   c-0.726,0-1.315,0.589-1.315,1.315v8.461c0,0.726-0.589,1.315-1.315,1.315h-0.04c-0.726,0-1.315-0.589-1.315-1.315v-11.165   c0-0.726,0.589-1.315,1.315-1.315h10.887c0.726,0,1.315,0.589,1.315,1.315v2.846c0,0.726,0.589,1.315,1.315,1.315h5.48   c0.726,0,1.315-0.589,1.315-1.315v-0.142c0-0.726-0.589-1.315-1.315-1.315h-2.776c-0.726,0-1.315-0.589-1.315-1.315v-0.075   C476.792,274.522,477.381,273.933,478.107,273.933z"/>
	<path style="fill:#F5F5F5;" d="M456.522,273.933h-0.109c-0.726,0-1.315,0.589-1.315,1.315v2.846c0,0.726-0.589,1.315-1.315,1.315   h-5.446c-0.726,0-1.315-0.589-1.315-1.315v-2.846c0-0.726-0.589-1.315-1.315-1.315H434.82c-0.726,0-1.315,0.589-1.315,1.315v5.62   c0,0.726,0.589,1.315,1.315,1.315h5.48c0.726,0,1.315-0.589,1.315-1.315v-0.145c0-0.726-0.589-1.315-1.315-1.315h-2.778   c-0.726,0-1.315-0.589-1.315-1.315v-0.142c0-0.726,0.589-1.315,1.315-1.315h5.482c0.726,0,1.315,0.589,1.315,1.315v2.916   c0,0.726,0.589,1.315,1.315,1.315h10.887c0.726,0,1.315-0.589,1.315-1.315v-5.62C457.836,274.522,457.247,273.933,456.522,273.933z    M451.116,273.933h-0.074c-0.726,0-1.315,0.589-1.315,1.315v0.075c0,0.726,0.589,1.315,1.315,1.315h0.074   c0.726,0,1.315-0.589,1.315-1.315v-0.075C452.43,274.522,451.842,273.933,451.116,273.933z M456.522,284.953h-32.545   c-0.726,0-1.315,0.589-1.315,1.315v0.145c0,0.726,0.589,1.315,1.315,1.315h32.545c0.726,0,1.315-0.589,1.315-1.315v-0.145   C457.836,285.542,457.247,284.953,456.522,284.953z M423.977,273.933h5.516c0.726,0,1.315,0.589,1.315,1.315v5.62   c0,0.726-0.589,1.315-1.315,1.315h-8.184c-0.726,0-1.315,0.589-1.315,1.315v2.916c0,0.726-0.589,1.315-1.315,1.315h-0.109   c-0.726,0-1.315-0.589-1.315-1.315v-8.461c0-0.726-0.589-1.315-1.315-1.315h-0.109c-0.726,0-1.315,0.589-1.315,1.315v8.461   c0,0.726-0.589,1.315-1.315,1.315h-0.04c-0.726,0-1.315-0.589-1.315-1.315v-8.461c0-0.726-0.589-1.315-1.315-1.315h-0.109   c-0.726,0-1.315,0.589-1.315,1.315v8.461c0,0.726-0.589,1.315-1.315,1.315h-0.074c-0.726,0-1.315-0.589-1.315-1.315v-11.165   c0-0.726,0.589-1.315,1.315-1.315h10.955c0.726,0,1.315,0.589,1.315,1.315v2.846c0,0.726,0.589,1.315,1.315,1.315h5.446   c0.726,0,1.315-0.589,1.315-1.315v-0.142c0-0.726-0.589-1.315-1.315-1.315h-2.778c-0.726,0-1.315-0.589-1.315-1.315v-0.075   C422.662,274.522,423.251,273.933,423.977,273.933z"/>
	<path style="fill:#F5F5F5;" d="M402.391,273.933h-0.074c-0.726,0-1.315,0.589-1.315,1.315v2.846c0,0.726-0.589,1.315-1.315,1.315   h-5.482c-0.726,0-1.315-0.589-1.315-1.315v-2.846c0-0.726-0.589-1.315-1.315-1.315h-10.92c-0.726,0-1.315,0.589-1.315,1.315v5.62   c0,0.726,0.589,1.315,1.315,1.315h5.48c0.726,0,1.315-0.589,1.315-1.315v-0.145c0-0.726-0.589-1.315-1.315-1.315h-2.778   c-0.726,0-1.315-0.589-1.315-1.315v-0.142c0-0.726,0.589-1.315,1.315-1.315h5.516c0.726,0,1.315,0.589,1.315,1.315v2.916   c0,0.726,0.589,1.315,1.315,1.315h10.887c0.726,0,1.315-0.589,1.315-1.315v-5.62C403.706,274.522,403.117,273.933,402.391,273.933z    M396.986,273.933h-0.074c-0.726,0-1.315,0.589-1.315,1.315v0.075c0,0.726,0.589,1.315,1.315,1.315h0.074   c0.726,0,1.315-0.589,1.315-1.315v-0.075C398.3,274.522,397.711,273.933,396.986,273.933z M402.391,284.953H369.81   c-0.726,0-1.315,0.589-1.315,1.315v0.145c0,0.726,0.589,1.315,1.315,1.315h32.581c0.726,0,1.315-0.589,1.315-1.315v-0.145   C403.706,285.542,403.117,284.953,402.391,284.953z M369.811,273.933h5.516c0.726,0,1.315,0.589,1.315,1.315v5.62   c0,0.726-0.589,1.315-1.315,1.315h-8.183c-0.726,0-1.315,0.589-1.315,1.315v2.916c0,0.726-0.589,1.315-1.315,1.315h-0.075   c-0.726,0-1.315-0.589-1.315-1.315v-8.461c0-0.726-0.589-1.315-1.315-1.315H361.7c-0.726,0-1.315,0.589-1.315,1.315v8.461   c0,0.726-0.589,1.315-1.315,1.315h-0.109c-0.726,0-1.315-0.589-1.315-1.315v-8.461c0-0.726-0.589-1.315-1.315-1.315h-0.04   c-0.726,0-1.315,0.589-1.315,1.315v8.461c0,0.726-0.589,1.315-1.315,1.315h-0.074c-0.726,0-1.315-0.589-1.315-1.315v-11.165   c0-0.726,0.589-1.315,1.315-1.315h10.921c0.726,0,1.315,0.589,1.315,1.315v2.846c0,0.726,0.589,1.315,1.315,1.315h5.48   c0.726,0,1.315-0.589,1.315-1.315v-0.142c0-0.726-0.589-1.315-1.315-1.315h-2.814c-0.726,0-1.315-0.589-1.315-1.315v-0.075   C368.496,274.522,369.085,273.933,369.811,273.933z"/>
	<path style="fill:#F5F5F5;" d="M348.261,273.933h-0.074c-0.726,0-1.315,0.589-1.315,1.315v2.846c0,0.726-0.589,1.315-1.315,1.315   h-5.48c-0.726,0-1.315-0.589-1.315-1.315v-2.846c0-0.726-0.589-1.315-1.315-1.315h-10.921c-0.726,0-1.315,0.589-1.315,1.315v5.62   c0,0.726,0.589,1.315,1.315,1.315h5.516c0.726,0,1.315-0.589,1.315-1.315v-0.145c0-0.726-0.589-1.315-1.315-1.315h-2.777   c-0.726,0-1.315-0.589-1.315-1.315v-0.142c0-0.726,0.589-1.315,1.315-1.315h5.48c0.726,0,1.315,0.589,1.315,1.315v2.916   c0,0.726,0.589,1.315,1.315,1.315h10.887c0.726,0,1.315-0.589,1.315-1.315v-5.62C349.576,274.522,348.987,273.933,348.261,273.933z    M342.855,273.933h-0.074c-0.726,0-1.315,0.589-1.315,1.315v0.075c0,0.726,0.589,1.315,1.315,1.315h0.074   c0.726,0,1.315-0.589,1.315-1.315v-0.075C344.169,274.522,343.581,273.933,342.855,273.933z M348.261,284.953h-32.545   c-0.726,0-1.315,0.589-1.315,1.315v0.145c0,0.726,0.589,1.315,1.315,1.315h32.545c0.726,0,1.315-0.589,1.315-1.315v-0.145   C349.576,285.542,348.987,284.953,348.261,284.953z M315.716,273.933h5.516c0.726,0,1.315,0.589,1.315,1.315v5.62   c0,0.726-0.589,1.315-1.315,1.315h-8.253c-0.726,0-1.315,0.589-1.315,1.315v2.916c0,0.726-0.589,1.315-1.315,1.315h-0.074   c-0.726,0-1.315-0.589-1.315-1.315v-8.461c0-0.726-0.589-1.315-1.315-1.315h-0.04c-0.726,0-1.315,0.589-1.315,1.315v8.461   c0,0.726-0.589,1.315-1.315,1.315h-0.109c-0.726,0-1.315-0.589-1.315-1.315v-8.461c0-0.726-0.589-1.315-1.315-1.315h-0.076   c-0.726,0-1.315,0.589-1.315,1.315v8.461c0,0.726-0.589,1.315-1.315,1.315h-0.074c-0.726,0-1.315-0.589-1.315-1.315v-11.165   c0-0.726,0.589-1.315,1.315-1.315h10.887c0.726,0,1.315,0.589,1.315,1.315v2.846c0,0.726,0.589,1.315,1.315,1.315h5.516   c0.726,0,1.315-0.589,1.315-1.315v-0.142c0-0.726-0.589-1.315-1.315-1.315h-2.778c-0.726,0-1.315-0.589-1.315-1.315v-0.075   C314.402,274.522,314.991,273.933,315.716,273.933z"/>
	<path style="fill:#F5F5F5;" d="M294.133,273.933h-0.076c-0.726,0-1.315,0.589-1.315,1.315v2.846c0,0.726-0.589,1.315-1.315,1.315   h-5.48c-0.726,0-1.315-0.589-1.315-1.315v-2.846c0-0.726-0.589-1.315-1.315-1.315h-10.921c-0.726,0-1.315,0.589-1.315,1.315v5.62   c0,0.726,0.589,1.315,1.315,1.315h5.516c0.726,0,1.315-0.589,1.315-1.315v-0.145c0-0.726-0.589-1.315-1.315-1.315H275.1   c-0.726,0-1.315-0.589-1.315-1.315v-0.142c0-0.726,0.589-1.315,1.315-1.315h5.48c0.726,0,1.315,0.589,1.315,1.315v2.916   c0,0.726,0.589,1.315,1.315,1.315h10.921c0.726,0,1.315-0.589,1.315-1.315v-5.62C295.447,274.522,294.859,273.933,294.133,273.933z    M288.69,273.933h-0.04c-0.726,0-1.315,0.589-1.315,1.315v0.075c0,0.726,0.589,1.315,1.315,1.315h0.04   c0.726,0,1.315-0.589,1.315-1.315v-0.075C290.005,274.522,289.417,273.933,288.69,273.933z M294.133,284.953h-32.581   c-0.726,0-1.315,0.589-1.315,1.315v0.145c0,0.726,0.589,1.315,1.315,1.315h32.581c0.726,0,1.315-0.589,1.315-1.315v-0.145   C295.447,285.542,294.859,284.953,294.133,284.953z M261.552,273.933h5.516c0.726,0,1.315,0.589,1.315,1.315v5.62   c0,0.726-0.589,1.315-1.315,1.315h-8.22c-0.726,0-1.315,0.589-1.315,1.315v2.916c0,0.726-0.589,1.315-1.315,1.315h-0.074   c-0.726,0-1.315-0.589-1.315-1.315v-8.461c0-0.726-0.589-1.315-1.315-1.315h-0.075c-0.726,0-1.315,0.589-1.315,1.315v8.461   c0,0.726-0.589,1.315-1.315,1.315h-0.074c-0.726,0-1.315-0.589-1.315-1.315v-8.461c0-0.726-0.589-1.315-1.315-1.315h-0.074   c-0.726,0-1.315,0.589-1.315,1.315v8.461c0,0.726-0.589,1.315-1.315,1.315h-0.075c-0.726,0-1.315-0.589-1.315-1.315v-11.165   c0-0.726,0.589-1.315,1.315-1.315h10.887c0.726,0,1.315,0.589,1.315,1.315v2.846c0,0.726,0.589,1.315,1.315,1.315h5.516   c0.726,0,1.315-0.589,1.315-1.315v-0.142c0-0.726-0.589-1.315-1.315-1.315h-2.812c-0.726,0-1.315-0.589-1.315-1.315v-0.075   C260.238,274.522,260.827,273.933,261.552,273.933z"/>
	<path style="fill:#F5F5F5;" d="M240.002,273.933h-0.075c-0.726,0-1.315,0.589-1.315,1.315v2.846c0,0.726-0.589,1.315-1.315,1.315   h-5.48c-0.726,0-1.315-0.589-1.315-1.315v-2.846c0-0.726-0.589-1.315-1.315-1.315h-10.921c-0.726,0-1.315,0.589-1.315,1.315v5.62   c0,0.726,0.589,1.315,1.315,1.315h5.482c0.726,0,1.315-0.589,1.315-1.315v-0.145c0-0.726-0.589-1.315-1.315-1.315h-2.744   c-0.726,0-1.315-0.589-1.315-1.315v-0.142c0-0.726,0.589-1.315,1.315-1.315h5.446c0.726,0,1.315,0.589,1.315,1.315v2.916   c0,0.726,0.589,1.315,1.315,1.315h10.921c0.726,0,1.315-0.589,1.315-1.315v-5.62C241.316,274.522,240.729,273.933,240.002,273.933z    M234.56,273.933h-0.04c-0.726,0-1.315,0.589-1.315,1.315v0.075c0,0.726,0.589,1.315,1.315,1.315h0.04   c0.726,0,1.315-0.589,1.315-1.315v-0.075C235.875,274.522,235.286,273.933,234.56,273.933z M240.002,284.953h-32.581   c-0.726,0-1.315,0.589-1.315,1.315v0.145c0,0.726,0.589,1.315,1.315,1.315h32.581c0.726,0,1.315-0.589,1.315-1.315v-0.145   C241.316,285.542,240.729,284.953,240.002,284.953z M207.421,273.933h5.48c0.726,0,1.315,0.589,1.315,1.315v5.62   c0,0.726-0.589,1.315-1.315,1.315h-8.183c-0.726,0-1.315,0.589-1.315,1.315v2.916c0,0.726-0.589,1.315-1.315,1.315h-0.075   c-0.726,0-1.315-0.589-1.315-1.315v-8.461c0-0.726-0.589-1.315-1.315-1.315h-0.074c-0.726,0-1.315,0.589-1.315,1.315v8.461   c0,0.726-0.589,1.315-1.315,1.315h-0.075c-0.726,0-1.315-0.589-1.315-1.315v-8.461c0-0.726-0.589-1.315-1.315-1.315H193.9   c-0.726,0-1.315,0.589-1.315,1.315v8.461c0,0.726-0.589,1.315-1.315,1.315h-0.075c-0.726,0-1.315-0.589-1.315-1.315v-11.165   c0-0.726,0.589-1.315,1.315-1.315h10.888c0.726,0,1.315,0.589,1.315,1.315v2.846c0,0.726,0.589,1.315,1.315,1.315h5.513   c0.726,0,1.315-0.589,1.315-1.315v-0.142c0-0.726-0.589-1.315-1.315-1.315h-2.812c-0.726,0-1.315-0.589-1.315-1.315v-0.075   C206.108,274.522,206.695,273.933,207.421,273.933z"/>
	<path style="fill:#F5F5F5;" d="M185.872,273.933h-0.076c-0.726,0-1.315,0.589-1.315,1.315v2.846c0,0.726-0.589,1.315-1.315,1.315   h-5.513c-0.726,0-1.315-0.589-1.315-1.315v-2.846c0-0.726-0.589-1.315-1.315-1.315h-10.888c-0.726,0-1.315,0.589-1.315,1.315v5.62   c0,0.726,0.589,1.315,1.315,1.315h5.482c0.726,0,1.315-0.589,1.315-1.315v-0.145c0-0.726-0.589-1.315-1.315-1.315h-2.813   c-0.726,0-1.315-0.589-1.315-1.315v-0.142c0-0.726,0.589-1.315,1.315-1.315h5.55c0.726,0,1.315,0.589,1.315,1.315v2.916   c0,0.726,0.589,1.315,1.315,1.315h10.887c0.726,0,1.315-0.589,1.315-1.315v-5.62C187.186,274.522,186.598,273.933,185.872,273.933z    M180.466,273.933h-0.109c-0.726,0-1.315,0.589-1.315,1.315v0.075c0,0.726,0.589,1.315,1.315,1.315h0.109   c0.726,0,1.315-0.589,1.315-1.315v-0.075C181.78,274.522,181.192,273.933,180.466,273.933z M185.872,284.953h-32.581   c-0.726,0-1.315,0.589-1.315,1.315v0.145c0,0.726,0.589,1.315,1.315,1.315h32.581c0.726,0,1.315-0.589,1.315-1.315v-0.145   C187.186,285.542,186.598,284.953,185.872,284.953z M153.291,273.933h5.48c0.726,0,1.315,0.589,1.315,1.315v5.62   c0,0.726-0.589,1.315-1.315,1.315h-8.183c-0.726,0-1.315,0.589-1.315,1.315v2.916c0,0.726-0.589,1.315-1.315,1.315h-0.075   c-0.726,0-1.315-0.589-1.315-1.315v-8.461c0-0.726-0.589-1.315-1.315-1.315h-0.074c-0.726,0-1.315,0.589-1.315,1.315v8.461   c0,0.726-0.589,1.315-1.315,1.315h-0.075c-0.726,0-1.315-0.589-1.315-1.315v-8.461c0-0.726-0.589-1.315-1.315-1.315h-0.109   c-0.726,0-1.315,0.589-1.315,1.315v8.461c0,0.726-0.589,1.315-1.315,1.315h-0.038c-0.726,0-1.315-0.589-1.315-1.315v-11.165   c0-0.726,0.589-1.315,1.315-1.315h10.887c0.726,0,1.315,0.589,1.315,1.315v2.846c0,0.726,0.589,1.315,1.315,1.315h5.446   c0.726,0,1.315-0.589,1.315-1.315v-0.142c0-0.726-0.589-1.315-1.315-1.315h-2.744c-0.726,0-1.315-0.589-1.315-1.315v-0.075   C151.978,274.522,152.565,273.933,153.291,273.933z"/>
	<path style="fill:#F5F5F5;" d="M131.708,273.933h-0.04c-0.726,0-1.315,0.589-1.315,1.315v2.846c0,0.726-0.589,1.315-1.315,1.315   h-5.482c-0.726,0-1.315-0.589-1.315-1.315v-2.846c0-0.726-0.589-1.315-1.315-1.315h-10.92c-0.726,0-1.315,0.589-1.315,1.315v5.62   c0,0.726,0.589,1.315,1.315,1.315h5.444c0.726,0,1.315-0.589,1.315-1.315v-0.145c0-0.726-0.589-1.315-1.315-1.315h-2.776   c-0.726,0-1.315-0.589-1.315-1.315v-0.142c0-0.726,0.589-1.315,1.315-1.315h5.513c0.726,0,1.315,0.589,1.315,1.315v2.916   c0,0.726,0.589,1.315,1.315,1.315h10.888c0.726,0,1.315-0.589,1.315-1.315v-5.62C133.022,274.522,132.434,273.933,131.708,273.933z    M126.302,273.933h-0.075c-0.726,0-1.315,0.589-1.315,1.315v0.075c0,0.726,0.589,1.315,1.315,1.315h0.075   c0.726,0,1.315-0.589,1.315-1.315v-0.075C127.617,274.522,127.028,273.933,126.302,273.933z M131.708,284.953H99.092   c-0.726,0-1.315,0.589-1.315,1.315v0.145c0,0.726,0.589,1.315,1.315,1.315h32.617c0.726,0,1.315-0.589,1.315-1.315v-0.145   C133.022,285.542,132.434,284.953,131.708,284.953z M99.092,273.933h5.55c0.726,0,1.315,0.589,1.315,1.315v5.62   c0,0.726-0.589,1.315-1.315,1.315h-8.184c-0.726,0-1.315,0.589-1.315,1.315v2.916c0,0.726-0.589,1.315-1.315,1.315h-0.109   c-0.726,0-1.315-0.589-1.315-1.315v-8.461c0-0.726-0.589-1.315-1.315-1.315h-0.074c-0.726,0-1.315,0.589-1.315,1.315v8.461   c0,0.726-0.589,1.315-1.315,1.315h-0.04c-0.726,0-1.315-0.589-1.315-1.315v-8.461c0-0.726-0.589-1.315-1.315-1.315h-0.109   c-0.726,0-1.315,0.589-1.315,1.315v8.461c0,0.726-0.589,1.315-1.315,1.315H82.9c-0.726,0-1.315-0.589-1.315-1.315v-11.165   c0-0.726,0.589-1.315,1.315-1.315h10.921c0.726,0,1.315,0.589,1.315,1.315v2.846c0,0.726,0.589,1.315,1.315,1.315h5.48   c0.726,0,1.315-0.589,1.315-1.315v-0.142c0-0.726-0.589-1.315-1.315-1.315H99.09c-0.726,0-1.315-0.589-1.315-1.315v-0.075   C97.778,274.522,98.367,273.933,99.092,273.933z"/>
	<path style="fill:#F5F5F5;" d="M77.578,273.933h-0.075c-0.726,0-1.315,0.589-1.315,1.315v2.846c0,0.726-0.589,1.315-1.315,1.315   h-5.48c-0.726,0-1.315-0.589-1.315-1.315v-2.846c0-0.726-0.589-1.315-1.315-1.315h-10.92c-0.726,0-1.315,0.589-1.315,1.315v5.62   c0,0.726,0.589,1.315,1.315,1.315h5.446c0.726,0,1.315-0.589,1.315-1.315v-0.145c0-0.726-0.589-1.315-1.315-1.315h-2.778   c-0.726,0-1.315-0.589-1.315-1.315v-0.142c0-0.726,0.589-1.315,1.315-1.315h5.55c0.726,0,1.315,0.589,1.315,1.315v2.916   c0,0.726,0.589,1.315,1.315,1.315h10.887c0.726,0,1.315-0.589,1.315-1.315v-5.62C78.892,274.522,78.303,273.933,77.578,273.933z    M72.172,273.933h-0.075c-0.726,0-1.315,0.589-1.315,1.315v0.075c0,0.726,0.589,1.315,1.315,1.315h0.075   c0.726,0,1.315-0.589,1.315-1.315v-0.075C73.485,274.522,72.898,273.933,72.172,273.933z M77.578,284.953H45.033   c-0.726,0-1.315,0.589-1.315,1.315v0.145c0,0.726,0.589,1.315,1.315,1.315h32.545c0.726,0,1.315-0.589,1.315-1.315v-0.145   C78.892,285.542,78.303,284.953,77.578,284.953z M45.033,273.933h5.48c0.726,0,1.315,0.589,1.315,1.315v5.62   c0,0.726-0.589,1.315-1.315,1.315H42.26c-0.726,0-1.315,0.589-1.315,1.315v2.916c0,0.726-0.589,1.315-1.315,1.315h-0.004   c-0.726,0-1.315-0.589-1.315-1.315v-8.461c0-0.726-0.589-1.315-1.315-1.315h-0.145c-0.726,0-1.315,0.589-1.315,1.315v8.461   c0,0.726-0.589,1.315-1.315,1.315h-0.004c-0.726,0-1.315-0.589-1.315-1.315v-8.461c0-0.726-0.589-1.315-1.315-1.315h-0.075   c-0.726,0-1.315,0.589-1.315,1.315v8.461c0,0.726-0.589,1.315-1.315,1.315H28.74c-0.726,0-1.315-0.589-1.315-1.315v-11.165   c0-0.726,0.589-1.315,1.315-1.315h10.89c0.726,0,1.315,0.589,1.315,1.315v2.846c0,0.726,0.589,1.315,1.315,1.315h5.549   c0.726,0,1.315-0.589,1.315-1.315v-0.142c0-0.726-0.589-1.315-1.315-1.315h-2.776c-0.726,0-1.315-0.589-1.315-1.315v-0.075   C43.718,274.522,44.307,273.933,45.033,273.933z"/>
	<path style="fill:#F5F5F5;" d="M510.687,265.548h-21.732c-0.726,0-1.315,0.589-1.315,1.315v2.916c0,0.726,0.589,1.315,1.315,1.315   h21.732c0.726,0,1.315-0.589,1.315-1.315v-2.916C512,266.136,511.412,265.548,510.687,265.548z M483.587,265.548h-21.698   c-0.726,0-1.315,0.589-1.315,1.315v2.916c0,0.726,0.589,1.315,1.315,1.315h21.698c0.726,0,1.315-0.589,1.315-1.315v-2.916   C484.901,266.136,484.314,265.548,483.587,265.548z"/>
	<path style="fill:#F5F5F5;" d="M456.522,265.548h-21.698c-0.726,0-1.315,0.589-1.315,1.315v2.916c0,0.726,0.589,1.315,1.315,1.315   h21.698c0.726,0,1.315-0.589,1.315-1.315v-2.916C457.836,266.136,457.247,265.548,456.522,265.548z M429.492,265.548h-21.768   c-0.726,0-1.315,0.589-1.315,1.315v2.916c0,0.726,0.589,1.315,1.315,1.315h21.768c0.726,0,1.315-0.589,1.315-1.315v-2.916   C430.807,266.136,430.218,265.548,429.492,265.548z"/>
	<path style="fill:#F5F5F5;" d="M402.391,265.548h-21.732c-0.726,0-1.315,0.589-1.315,1.315v2.916c0,0.726,0.589,1.315,1.315,1.315   h21.732c0.726,0,1.315-0.589,1.315-1.315v-2.916C403.706,266.136,403.117,265.548,402.391,265.548z M375.326,265.548h-21.733   c-0.726,0-1.315,0.589-1.315,1.315v2.916c0,0.726,0.589,1.315,1.315,1.315h21.733c0.726,0,1.315-0.589,1.315-1.315v-2.916   C376.641,266.136,376.052,265.548,375.326,265.548z"/>
	<path style="fill:#F5F5F5;" d="M348.261,265.548h-21.732c-0.726,0-1.315,0.589-1.315,1.315v2.916c0,0.726,0.589,1.315,1.315,1.315   h21.732c0.726,0,1.315-0.589,1.315-1.315v-2.916C349.576,266.136,348.987,265.548,348.261,265.548z M321.232,265.548h-21.768   c-0.726,0-1.315,0.589-1.315,1.315v2.916c0,0.726,0.589,1.315,1.315,1.315h21.768c0.726,0,1.315-0.589,1.315-1.315v-2.916   C322.545,266.136,321.958,265.548,321.232,265.548z"/>
	<path style="fill:#F5F5F5;" d="M294.133,265.548h-21.734c-0.726,0-1.315,0.589-1.315,1.315v2.916c0,0.726,0.589,1.315,1.315,1.315   h21.734c0.726,0,1.315-0.589,1.315-1.315v-2.916C295.447,266.136,294.859,265.548,294.133,265.548z M267.067,265.548h-21.734   c-0.726,0-1.315,0.589-1.315,1.315v2.916c0,0.726,0.589,1.315,1.315,1.315h21.734c0.726,0,1.315-0.589,1.315-1.315v-2.916   C268.382,266.136,267.793,265.548,267.067,265.548z"/>
	<path style="fill:#F5F5F5;" d="M240.002,265.548h-21.734c-0.726,0-1.315,0.589-1.315,1.315v2.916c0,0.726,0.589,1.315,1.315,1.315   h21.734c0.726,0,1.315-0.589,1.315-1.315v-2.916C241.316,266.136,240.729,265.548,240.002,265.548z M212.902,265.548h-21.698   c-0.726,0-1.315,0.589-1.315,1.315v2.916c0,0.726,0.589,1.315,1.315,1.315h21.698c0.726,0,1.315-0.589,1.315-1.315v-2.916   C214.217,266.136,213.628,265.548,212.902,265.548z"/>
	<path style="fill:#F5F5F5;" d="M185.872,265.548h-21.734c-0.726,0-1.315,0.589-1.315,1.315v2.916c0,0.726,0.589,1.315,1.315,1.315   h21.734c0.726,0,1.315-0.589,1.315-1.315v-2.916C187.186,266.136,186.598,265.548,185.872,265.548z M158.772,265.548h-21.697   c-0.726,0-1.315,0.589-1.315,1.315v2.916c0,0.726,0.589,1.315,1.315,1.315h21.697c0.726,0,1.315-0.589,1.315-1.315v-2.916   C160.085,266.136,159.498,265.548,158.772,265.548z"/>
	<path style="fill:#F5F5F5;" d="M131.708,265.548H110.01c-0.726,0-1.315,0.589-1.315,1.315v2.916c0,0.726,0.589,1.315,1.315,1.315   h21.698c0.726,0,1.315-0.589,1.315-1.315v-2.916C133.022,266.136,132.434,265.548,131.708,265.548z M104.643,265.548H82.909   c-0.726,0-1.315,0.589-1.315,1.315v2.916c0,0.726,0.589,1.315,1.315,1.315h21.734c0.726,0,1.315-0.589,1.315-1.315v-2.916   C105.957,266.136,105.369,265.548,104.643,265.548z"/>
	<path style="fill:#F5F5F5;" d="M77.578,265.548H55.843c-0.726,0-1.315,0.589-1.315,1.315v2.916c0,0.726,0.589,1.315,1.315,1.315   h21.734c0.726,0,1.315-0.589,1.315-1.315v-2.916C78.892,266.136,78.303,265.548,77.578,265.548z M50.513,265.548H28.745   c-0.726,0-1.315,0.589-1.315,1.315v2.916c0,0.726,0.589,1.315,1.315,1.315h21.768c0.726,0,1.315-0.589,1.315-1.315v-2.916   C51.827,266.136,51.238,265.548,50.513,265.548z"/>
</g>
<g>
	<path style="fill:#FF4B55;" d="M262.805,175.929c2.479,0.661,5.123-0.066,6.941-1.917c2.743,2.777,7.236,2.842,10.08,0.133   c1.852-1.785,2.611-4.495,1.95-6.941c-2.412,3.9-7.501,5.156-11.401,2.71c-0.198-0.133-0.462-0.266-0.628-0.398   c-3.668,2.71-8.856,1.983-11.632-1.652c-0.1-0.199-0.298-0.464-0.429-0.661C256.692,171.038,259.005,175.003,262.805,175.929z"/>
	<path style="fill:#FF4B55;" d="M278.2,253.139c8.883-4.876,16.297-12.561,20.362-22.682c6.922-17.348,2.563-36.929-10.678-49.631   c-0.455-0.437-1.146,0.148-0.817,0.686c13.06,21.296,7.915,49.285-12.294,64.62l0.966-61.864c0.013-0.84-0.361-1.639-1.015-2.168   l-3.286-2.657c-1.007-0.813-2.445-0.81-3.448,0.01l-3.239,2.648c-0.646,0.529-1.015,1.323-1.003,2.157l0.939,61.909   c-20.212-15.328-25.368-43.341-12.329-64.653c0.329-0.538-0.362-1.121-0.818-0.685c-13.216,12.701-17.603,32.281-10.681,49.628   c4.064,10.12,11.477,17.804,20.363,22.68c-5.655,1.938-11.598,2.966-17.608,2.794c-0.635-0.018-0.763,0.875-0.155,1.059   c7.636,2.318,15.49,2.477,22.874,0.822l2.899,5.625c0.2,0.388,0.755,0.389,0.957,0.001l2.918-5.622   c7.385,1.652,15.241,1.49,22.882-0.827c0.608-0.185,0.48-1.077-0.154-1.059C289.823,256.103,283.865,255.076,278.2,253.139z"/>
	<path style="fill:#FF4B55;" d="M314.36,195.625c-4.547-8.495-12.098-14.933-21.085-18.087c-0.563-0.197-1.002,0.545-0.542,0.925   c19.843,16.346,23.821,45.458,8.476,66.535c-0.793,1.058-1.653,2.181-2.479,3.105C317.566,237.992,324.538,214.463,314.36,195.625z   "/>
	<path style="fill:#FF4B55;" d="M238.252,244.999c-15.345-21.077-11.398-50.188,8.44-66.534c0.461-0.38,0.021-1.124-0.542-0.925   c-8.977,3.154-16.475,9.592-21.052,18.086c-10.243,18.837-3.205,42.367,15.665,52.479   C239.871,247.18,239.012,246.057,238.252,244.999z"/>
</g>
<path style="fill:#2E3033;" d="M19.122,488.104L19.122,488.104C8.561,488.104,0,479.543,0,468.982V42.868  c0-10.474,8.491-18.966,18.965-18.966h0.157c10.561,0,19.122,8.561,19.122,19.122v425.958  C38.244,479.543,29.683,488.104,19.122,488.104z"/>
<g>
</g>
<g>
</g>
<g>
</g>
<g>
</g>
<g>
</g>
<g>
</g>
<g>
</g>
<g>
</g>
<g>
</g>
<g>
</g>
<g>
</g>
<g>
</g>
<g>
</g>
<g>
</g>
<g>
</g>
</svg>
