<?xml version="1.0" encoding="iso-8859-1"?>
<!-- Generator: Adobe Illustrator 19.0.0, SVG Export Plug-In . SVG Version: 6.00 Build 0)  -->
<svg xmlns="http://www.w3.org/2000/svg" xmlns:xlink="http://www.w3.org/1999/xlink" version="1.1" id="Layer_1" x="0px" y="0px" viewBox="0 0 512.2 512.2" style="enable-background:new 0 0 512.2 512.2;" xml:space="preserve">
<path style="fill:#F5F5F5;" d="M503.6,374H35.4c-4.6,0-8.4-3.8-8.4-8.4v-301c0-4.6,3.8-8.4,8.4-8.4h468.2c4.6,0,8.4,3.8,8.4,8.4  v300.9C512,370.2,508.2,374,503.6,374z"/>
<path style="fill:#FF4B55;" d="M512,64.6c0-4.6-3.7-8.4-8.4-8.4h-22.2L269.5,195.1L57.5,56.2H35.4c-4.6,0-8.4,3.7-8.4,8.4v11.6  l212,138.9L27,354v11.6c0,4.6,3.7,8.4,8.4,8.4h22.2l212-138.9l212,138.9h22.2c4.6,0,8.4-3.7,8.4-8.4V354L300,215.1L512,76.2V64.6z"/>
<path style="fill:#FFE15A;" d="M294.7,92.8c0,0-2.6-4-6.6-1.3c0,0,4.6,3.3,1.5,6.8c-3.3,3.7-7.8,0.1-8.1-2.6  c1.2-0.1,2.2-1.1,2.2-2.3c0-1.3-1-2.3-2.3-2.3s-2.3,1-2.3,2.3c0,1,0.6,1.9,1.5,2.2c-0.6,2.3-6.5,4-8.2,0.2c-1.9-4.2,1.1-7.8,5.2-7.3  c0,0-0.8-5.2-6.3-3c0,0,2.3-6-1.7-9.9c-4,4-1.7,9.9-1.7,9.9c-5.5-2.2-6.3,3-6.3,3c4.1-0.5,7.1,3.1,5.2,7.3c-1.7,3.7-7.6,2-8.2-0.2  c0.9-0.3,1.5-1.2,1.5-2.2c0-1.3-1-2.3-2.3-2.3s-2.3,1-2.3,2.3c0,1.2,1,2.2,2.2,2.3c-0.3,2.6-4.8,6.2-8.1,2.6  c-3.1-3.5,1.5-6.8,1.5-6.8c-4-2.6-6.6,1.3-6.6,1.3c-1.3-5.3-6.6-4-6.6-4c5.3,6.6,9.2,20.3,9.2,20.3h45.2c0,0,3.9-13.7,9.2-20.3  C301.3,88.8,296,87.5,294.7,92.8z"/>
<path style="fill:#FF4B55;" d="M292.1,109.1c-7.3-2.6-14.9-3.9-22.6-3.9c-7.6,0-15.3,1.3-22.6,3.9c-11.8,51.9,22.6,65.8,22.6,65.8  S303.9,161,292.1,109.1z"/>
<g>
	<path style="fill:#82AFFF;" d="M253,127.5c0,0-1.1-0.2-2,0.6c0,0-0.3-1.3,1.4-1.6C254.1,126.2,253,127.5,253,127.5z"/>
	<path style="fill:#82AFFF;" d="M251.7,125.9c0,0-0.9-0.7-2-0.5c0,0,0.3-1.3,2-0.8S251.7,125.9,251.7,125.9z"/>
	<path style="fill:#82AFFF;" d="M252.4,126.6c0,0-1.2-0.2-2.2,0.6c0,0-0.4-1.3,1.5-1.6C253.5,125.2,252.4,126.6,252.4,126.6z"/>
	<path style="fill:#82AFFF;" d="M272.9,130c0,0-1.1,0.1-1.8,1c0,0-0.6-1.2,1-1.9C273.6,128.4,272.9,130,272.9,130z"/>
	<path style="fill:#82AFFF;" d="M271.3,128.6c0,0-1-0.5-2.1,0c0,0,0-1.3,1.7-1.2C272.7,127.5,271.3,128.6,271.3,128.6z"/>
	<path style="fill:#82AFFF;" d="M272.1,129.2c0,0-1.2,0.1-2,1c0,0-0.7-1.2,1.1-1.9C272.9,127.6,272.1,129.2,272.1,129.2z"/>
	<path style="fill:#82AFFF;" d="M285.5,130.7c0,0-0.4,0-1.2,0.7c0,0-0.5-1.2,1-1.8C287,129.1,285.5,130.7,285.5,130.7z"/>
	<path style="fill:#82AFFF;" d="M284.7,129.1c0,0-0.9-0.5-2-0.1c0,0,0.1-1.3,1.7-1.1C286.1,128.1,284.7,129.1,284.7,129.1z"/>
	<path style="fill:#82AFFF;" d="M285.5,129.7c0,0-1.2,0-2,0.9c0,0-0.6-1.2,1.2-1.8C286.3,128.2,285.5,129.7,285.5,129.7z"/>
	<path style="fill:#82AFFF;" d="M251.2,119.3c0,0-1-0.7-2.3-0.3c0,0,0.2-1.4,2.1-1C252.8,118.4,251.2,119.3,251.2,119.3z"/>
	<path style="fill:#82AFFF;" d="M251.1,116.9c0,0-0.6-1-2-1.1c0,0,0.9-1.4,2.5-0.3C253.1,116.5,251.1,116.9,251.1,116.9z"/>
	<path style="fill:#82AFFF;" d="M251.1,118.2c0,0-1.1-0.8-2.4-0.5c0,0,0.3-1.5,2.3-1C252.9,117.3,251.1,118.2,251.1,118.2z"/>
</g>
<path style="fill:#FFE15A;" d="M282.4,122.7c1.7,0,3.8-0.6,4.2-2.5c0.4-2.1-1.4-3.1-3.8-3c-1.7,0.1-6.2,1.1-9.3,1  c-3.1-0.1-3.2-3.2,1.5-2.9c7,0.5,8.1-0.4,8.1-0.4c-3.8,0.7-5.3-0.6-9.3-0.6s-4.8,2.8-3.2,4.3c1.8,1.7,8.4,0.6,10.1,0.2  c1.7-0.4,4-0.3,4.1,0.9c0.2,1.1-2.8,1-4.8,1c-3.3-0.1-8.1,0.8-12.4,1c-3.6,0.2-4.1-0.8-4.9-1.8c0.2-0.3,0.3-0.7,0.3-1.1  c0-0.2,0-0.4-0.1-0.6c0.3-0.3,0.6-0.8,0.7-1.5c0,0-0.9-0.2-1.6,0.2c-0.6-0.4-1.3-0.7-2.1-0.7s-1.5,0.3-2.1,0.7  c-0.7-0.3-1.6-0.2-1.6-0.2c0.1,0.8,0.4,1.2,0.7,1.5c-0.1,0.2-0.1,0.4-0.1,0.6c0,0.7,0.4,1.4,0.9,1.9c0.3,0.2,0.5,0.5,0.6,0.9  l0.1,0.5c0,0.2,0.2,0.4,0.4,0.5c-2.9-0.3-4.3-2.1-5-3.2c-0.8-1.2-1.3-3.7-2.5-4l-0.7,3.9c0,0,1.6,3.6,4.4,5.1  c3.3,1.7,3.9,1.7,4.9,2.2c0.1,0.6-2,0.9-4.2,0.5c-1.5-0.3-3.6-2.5-4.7-2.4l1.4,3c3.7,2.3,6.9,2.4,9.7,1.9c2-0.3,2.7-1.9,2.8-2.6  c0.8-0.1,1.7-0.3,4.4-1c1.1-0.3,2.4-0.4,3.7-0.5c0.4,0.8,1.2,1.9,4.1,2c0,0,0.7,1.1-1.7,0.9c-2.4-0.2-3-1-4.4-0.8l1.2,2.9  c0,0,3-1,6.7-0.7c0,0,0.7,0.2,1.1-0.4c0.4-0.6,0.2-0.9-0.2-1.5c-0.2-0.3-0.3-1.3-0.4-2.1c1.4,0.3,5.5-0.5,7-0.4  c1.5,0.1,1.7,1.9,1.4,2.5c-0.3,0.6-3.5,0.1-3.5,0.1l1.1,2.9c0,0,0.3-0.2,1.1-0.9c0.7-0.6,3.3-0.4,3.3-0.9v-5.4  c0-0.3-0.2-0.5-0.5-0.4C283.6,123.7,282.4,122.7,282.4,122.7z"/>
<path style="fill:#FF4B55;" d="M258.8,120.8c0.1,0.2,0.2,0.4,0.2,0.6l0.1,0.5c0,0.2,0.2,0.3,0.3,0.3h1.4c0.2,0,0.3-0.1,0.3-0.3  l0.1-0.5c0-0.2,0.1-0.4,0.2-0.6H258.8z"/>
<g>
	<path style="fill:#82AFFF;" d="M260.1,121.8c-0.3,0-0.6,0-0.5,0.5l0.1,1.9c0,0.3,0.2,0.5,0.4,0.5s0.4-0.2,0.4-0.5l0.1-1.9   C260.6,121.8,260.4,121.8,260.1,121.8z"/>
	<path style="fill:#82AFFF;" d="M256,146.1c0,0-0.9-0.2-1.7,0.4c0,0-0.3-1.1,1.1-1.3C256.8,145,256,146.1,256,146.1z"/>
	<path style="fill:#82AFFF;" d="M254.9,144.8c0,0-0.7-0.6-1.7-0.4c0,0,0.3-1.1,1.6-0.6C256.2,144.2,254.9,144.8,254.9,144.8z"/>
	<path style="fill:#82AFFF;" d="M255.5,145.3c0,0-1-0.2-1.8,0.4c0,0-0.3-1.1,1.2-1.3S255.5,145.3,255.5,145.3z"/>
	<path style="fill:#82AFFF;" d="M272.3,148.1c0,0-0.9,0-1.5,0.8c0,0-0.5-1,0.8-1.5C272.8,146.9,272.3,148.1,272.3,148.1z"/>
	<path style="fill:#82AFFF;" d="M270.9,147c0,0-0.8-0.4-1.7,0c0,0,0-1.1,1.4-1C272,146.1,270.9,147,270.9,147z"/>
	<path style="fill:#82AFFF;" d="M271.6,147.5c0,0-1,0.1-1.7,0.9c0,0-0.5-1,0.9-1.6C272.2,146.2,271.6,147.5,271.6,147.5z"/>
	<path style="fill:#82AFFF;" d="M282.5,148.7c0,0-0.3,0-0.9,0.6c0,0-0.4-1,0.8-1.4C283.7,147.4,282.5,148.7,282.5,148.7z"/>
	<path style="fill:#82AFFF;" d="M281.9,147.4c0,0-0.8-0.4-1.6-0.1c0,0,0.1-1.1,1.4-0.9C283,146.6,281.9,147.4,281.9,147.4z"/>
	<path style="fill:#82AFFF;" d="M282.5,147.9c0,0-0.9,0-1.6,0.7c0,0-0.5-1,0.9-1.5C283.2,146.7,282.5,147.9,282.5,147.9z"/>
	<path style="fill:#82AFFF;" d="M254.5,139.4c0,0-0.8-0.5-1.8-0.3c0,0,0.2-1.2,1.7-0.8C255.8,138.7,254.5,139.4,254.5,139.4z"/>
	<path style="fill:#82AFFF;" d="M254.4,137.4c0,0-0.5-0.8-1.6-0.9c0,0,0.7-1.1,2-0.3C256.1,137.1,254.4,137.4,254.4,137.4z"/>
	<path style="fill:#82AFFF;" d="M254.4,138.5c0,0-0.9-0.6-2-0.4c0,0,0.3-1.2,1.9-0.8C255.9,137.8,254.4,138.5,254.4,138.5z"/>
</g>
<path style="fill:#FFE15A;" d="M279.9,142.2c1.4,0,3.1-0.5,3.4-2c0.3-1.7-1.1-2.6-3.1-2.5c-1.4,0.1-5,0.9-7.6,0.8  c-2.6-0.1-2.6-2.6,1.2-2.3c5.7,0.4,6.6-0.3,6.6-0.3c-3.1,0.6-4.3-0.5-7.6-0.5c-3.3,0-3.9,2.3-2.6,3.5c1.5,1.4,6.9,0.5,8.3,0.2  s3.2-0.3,3.4,0.7c0.1,0.9-2.3,0.9-3.9,0.8c-2.7-0.1-6.6,0.6-10.1,0.8c-2.9,0.1-3.3-0.7-4-1.5c0.2-0.3,0.2-0.6,0.2-0.9  c0-0.2,0-0.3-0.1-0.5c0.2-0.2,0.4-0.6,0.6-1.2c0,0-0.7-0.1-1.3,0.2c-0.4-0.4-1-0.6-1.7-0.6s-1.3,0.2-1.7,0.6  c-0.6-0.3-1.3-0.2-1.3-0.2c0.1,0.6,0.3,1,0.6,1.2c0,0.2-0.1,0.3-0.1,0.5c0,0.6,0.3,1.2,0.8,1.5c0.2,0.2,0.4,0.4,0.5,0.7l0.1,0.4  c0,0.2,0.2,0.3,0.3,0.4c-2.4-0.2-3.5-1.7-4.1-2.6c-0.7-0.9-1.1-3-2.1-3.3l-0.6,3.1c0,0,1.3,2.9,3.6,4.1c2.7,1.3,3.2,1.4,4,1.8  c0.1,0.5-1.6,0.7-3.4,0.4c-1.2-0.3-2.9-2-3.9-1.9l1.1,2.5c3,1.9,5.6,1.9,7.9,1.5c1.6-0.3,2.2-1.6,2.3-2.1c0.6-0.1,1.4-0.3,3.6-0.8  c0.9-0.2,2-0.3,3-0.4c0.3,0.7,1,1.5,3.3,1.6c0,0,0.6,0.9-1.4,0.7s-2.4-0.8-3.5-0.7l1,2.4c0,0,2.5-0.8,5.5-0.5c0,0,0.6,0.2,0.9-0.3  s0.2-0.8-0.1-1.2c-0.2-0.2-0.3-1-0.3-1.7c1.1,0.3,4.5-0.4,5.7-0.3c1.2,0.1,1.4,1.5,1.1,2s-2.9,0.1-2.9,0.1l0.9,2.4  c0,0,0.3-0.1,0.9-0.7c0.5-0.5,2.7-0.3,2.7-0.7V143c0-0.2-0.2-0.4-0.4-0.4C280.9,143,279.9,142.2,279.9,142.2z"/>
<path style="fill:#FF4B55;" d="M260.7,140.6c0.1,0.1,0.1,0.3,0.2,0.5l0.1,0.4c0,0.1,0.1,0.2,0.3,0.2h1.1c0.1,0,0.2-0.1,0.3-0.2  l0.1-0.4c0-0.2,0.1-0.3,0.2-0.5H260.7z"/>
<g>
	<path style="fill:#82AFFF;" d="M261.8,141.4c-0.3,0-0.5,0-0.4,0.4l0.1,1.5c0,0.2,0.2,0.4,0.3,0.4c0.2,0,0.3-0.2,0.3-0.4l0.1-1.5   C262.2,141.5,262,141.4,261.8,141.4z"/>
	<path style="fill:#82AFFF;" d="M259.3,160.9c0,0-0.7-0.1-1.2,0.3c0,0-0.2-0.8,0.8-1C260,160,259.3,160.9,259.3,160.9z"/>
	<path style="fill:#82AFFF;" d="M258.5,159.9c0,0-0.5-0.4-1.3-0.3c0,0,0.2-0.8,1.2-0.5C259.5,159.4,258.5,159.9,258.5,159.9z"/>
	<path style="fill:#82AFFF;" d="M259,160.3c0,0-0.7-0.1-1.4,0.3c0,0-0.2-0.8,0.9-1C259.7,159.4,259,160.3,259,160.3z"/>
	<path style="fill:#82AFFF;" d="M271.5,162.4c0,0-0.7,0-1.1,0.6c0,0-0.4-0.7,0.6-1.2C271.9,161.4,271.5,162.4,271.5,162.4z"/>
	<path style="fill:#82AFFF;" d="M270.5,161.5c0,0-0.6-0.3-1.3,0c0,0,0-0.8,1.1-0.7C271.4,160.9,270.5,161.5,270.5,161.5z"/>
	<path style="fill:#82AFFF;" d="M271,161.9c0,0-0.7,0-1.2,0.6c0,0-0.4-0.7,0.7-1.2C271.5,160.9,271,161.9,271,161.9z"/>
	<path style="fill:#82AFFF;" d="M279.2,162.8c0,0-0.3,0-0.7,0.4c0,0-0.3-0.7,0.6-1.1C280.1,161.8,279.2,162.8,279.2,162.8z"/>
	<path style="fill:#82AFFF;" d="M278.7,161.8c0,0-0.6-0.3-1.2-0.1c0,0,0.1-0.8,1.1-0.7C279.6,161.2,278.7,161.8,278.7,161.8z"/>
	<path style="fill:#82AFFF;" d="M279.2,162.2c0,0-0.7,0-1.2,0.5c0,0-0.3-0.7,0.7-1.1C279.7,161.3,279.2,162.2,279.2,162.2z"/>
	<path style="fill:#82AFFF;" d="M258.2,155.9c0,0-0.6-0.4-1.4-0.2c0,0,0.1-0.9,1.3-0.6C259.2,155.3,258.2,155.9,258.2,155.9z"/>
	<path style="fill:#82AFFF;" d="M258.2,154.4c0,0-0.4-0.6-1.2-0.7c0,0,0.5-0.8,1.5-0.2C259.4,154.1,258.2,154.4,258.2,154.4z"/>
	<path style="fill:#82AFFF;" d="M258.2,155.2c0,0-0.6-0.5-1.5-0.3c0,0,0.2-0.9,1.4-0.6C259.3,154.6,258.2,155.2,258.2,155.2z"/>
</g>
<path style="fill:#FFE15A;" d="M277.3,157.9c1.1,0,2.3-0.4,2.5-1.5c0.2-1.3-0.9-1.9-2.3-1.9c-1.1,0-3.8,0.7-5.7,0.6  c-1.9-0.1-2-2,0.9-1.8c4.3,0.3,5-0.3,5-0.3c-2.3,0.4-3.2-0.4-5.7-0.4c-2.4,0-2.9,1.7-1.9,2.6c1.1,1,5.1,0.3,6.2,0.1s2.4-0.2,2.5,0.5  s-1.7,0.6-3,0.6c-2-0.1-4.9,0.5-7.6,0.6c-2.2,0.1-2.5-0.5-3-1.1c0.1-0.2,0.2-0.4,0.2-0.7c0-0.1,0-0.2-0.1-0.4  c0.2-0.2,0.3-0.5,0.4-0.9c0,0-0.6-0.1-1,0.1c-0.3-0.3-0.8-0.4-1.3-0.4s-0.9,0.2-1.3,0.4c-0.4-0.2-1-0.1-1-0.1  c0.1,0.5,0.3,0.8,0.4,0.9c0,0.1-0.1,0.2-0.1,0.4c0,0.5,0.2,0.9,0.6,1.2c0.2,0.1,0.3,0.3,0.3,0.5l0.1,0.3c0,0.1,0.1,0.2,0.2,0.3  c-1.8-0.2-2.6-1.3-3.1-1.9c-0.5-0.7-0.8-2.3-1.5-2.4l-0.4,2.4c0,0,0.9,2.2,2.7,3.1c2,1,2.4,1,3,1.3c0.1,0.3-1.2,0.6-2.6,0.3  c-0.9-0.2-2.2-1.5-2.9-1.4l0.8,1.8c2.2,1.4,4.2,1.5,5.9,1.2c1.2-0.2,1.6-1.2,1.7-1.6c0.5-0.1,1-0.2,2.7-0.6c0.7-0.2,1.5-0.3,2.3-0.3  c0.2,0.5,0.7,1.2,2.5,1.2c0,0,0.4,0.7-1,0.5s-1.8-0.6-2.7-0.5l0.8,1.8c0,0,1.8-0.6,4.1-0.4c0,0,0.4,0.1,0.7-0.3  c0.2-0.4,0.1-0.6-0.1-0.9c-0.1-0.2-0.2-0.8-0.2-1.3c0.8,0.2,3.4-0.3,4.3-0.2s1.1,1.2,0.8,1.5c-0.2,0.4-2.1,0.1-2.1,0.1l0.6,1.8  c0,0,0.2-0.1,0.7-0.6c0.4-0.4,2-0.2,2-0.5v-3.3c0-0.2-0.1-0.3-0.3-0.3C278,158.5,277.3,157.9,277.3,157.9z"/>
<path style="fill:#FF4B55;" d="M262.9,156.8c0.1,0.1,0.1,0.2,0.1,0.3l0.1,0.3c0,0.1,0.1,0.2,0.2,0.2h0.8c0.1,0,0.2-0.1,0.2-0.2  l0.1-0.3c0-0.1,0.1-0.2,0.1-0.3H262.9z"/>
<path style="fill:#82AFFF;" d="M263.7,157.4c-0.2,0-0.3,0-0.3,0.3l0.1,1.1c0,0.2,0.1,0.3,0.2,0.3s0.2-0.1,0.2-0.3l0.1-1.1  C264,157.4,263.9,157.4,263.7,157.4z"/>
<path style="fill:#2E3033;" d="M19.2,488.8L19.2,488.8C8.6,488.8,0,480.2,0,469.7V42.4c0-10.5,8.5-19,19-19h0.2  c10.6,0,19.2,8.6,19.2,19.2v427.1C38.3,480.2,29.8,488.8,19.2,488.8z"/>
<g>
</g>
<g>
</g>
<g>
</g>
<g>
</g>
<g>
</g>
<g>
</g>
<g>
</g>
<g>
</g>
<g>
</g>
<g>
</g>
<g>
</g>
<g>
</g>
<g>
</g>
<g>
</g>
<g>
</g>
</svg>
