<?xml version="1.0" encoding="iso-8859-1"?>
<!-- Generator: Adobe Illustrator 19.0.0, SVG Export Plug-In . SVG Version: 6.00 Build 0)  -->
<svg xmlns="http://www.w3.org/2000/svg" xmlns:xlink="http://www.w3.org/1999/xlink" version="1.1" id="Layer_1" x="0px" y="0px" viewBox="0 0 512 512" style="enable-background:new 0 0 512 512;" xml:space="preserve">
<path style="fill:#464655;" d="M512,162.503H27.43V65.118c0-4.661,3.779-8.44,8.44-8.44h467.69c4.661,0,8.44,3.779,8.44,8.44  V162.503z"/>
<path style="fill:#73AF00;" d="M503.56,374.155H35.87c-4.661,0-8.44-3.779-8.44-8.44V268.33H512v97.385  C512,370.376,508.222,374.155,503.56,374.155z"/>
<rect x="27.43" y="162.498" style="fill:#F5F5F5;" width="484.57" height="105.83"/>
<path style="fill:#FF4B55;" d="M30.512,372.136l283.087-153.338c2.686-1.455,2.686-5.31,0-6.764L30.512,58.697  c-1.841,1.533-3.082,3.753-3.082,6.335V365.8C27.43,368.383,28.671,370.603,30.512,372.136z"/>
<path style="fill:#F5F5F5;" d="M117.718,193.804l4.966,10.772l11.517-2.834c0.72-0.177,1.315,0.57,0.982,1.232l-5.326,10.598  l9.396,7.238c0.587,0.452,0.373,1.383-0.35,1.536l-11.606,2.444l0.199,11.859c0.013,0.741-0.848,1.155-1.42,0.684l-9.148-7.55  l-9.147,7.55c-0.571,0.472-1.432,0.057-1.42-0.684l0.199-11.859l-11.606-2.444c-0.725-0.153-0.937-1.085-0.35-1.536l9.396-7.238  l-5.325-10.598c-0.332-0.661,0.264-1.408,0.982-1.232l11.517,2.834l4.966-10.772C116.452,193.132,117.408,193.132,117.718,193.804z"/>
<path style="fill:#2E3033;" d="M19.122,488.101L19.122,488.101C8.561,488.101,0,479.539,0,468.979V42.864  C0,32.39,8.491,23.899,18.965,23.899h0.157c10.561,0,19.122,8.561,19.122,19.122v425.958  C38.244,479.539,29.683,488.101,19.122,488.101z"/>
<g>
</g>
<g>
</g>
<g>
</g>
<g>
</g>
<g>
</g>
<g>
</g>
<g>
</g>
<g>
</g>
<g>
</g>
<g>
</g>
<g>
</g>
<g>
</g>
<g>
</g>
<g>
</g>
<g>
</g>
</svg>
