<?xml version="1.0" encoding="iso-8859-1"?>
<!-- Generator: Adobe Illustrator 19.0.0, SVG Export Plug-In . SVG Version: 6.00 Build 0)  -->
<svg xmlns="http://www.w3.org/2000/svg" xmlns:xlink="http://www.w3.org/1999/xlink" version="1.1" id="Layer_1" x="0px" y="0px" viewBox="0 0 512 512" style="enable-background:new 0 0 512 512;" xml:space="preserve">
<path style="fill:#73AF00;" d="M26.68,268.348H512v97.536c0,4.668-3.785,8.453-8.453,8.453H35.133c-4.668,0-8.453-3.785-8.453-8.453  V268.348z"/>
<path style="fill:#464655;" d="M35.133,56.368h468.414c4.668,0,8.453,3.785,8.453,8.453v97.536H26.68V64.821  C26.68,60.153,30.465,56.368,35.133,56.368z"/>
<rect x="26.68" y="162.357" style="fill:#C8414B;" width="485.32" height="105.99"/>
<g>
	<rect x="26.68" y="156.777" style="fill:#F5F5F5;" width="485.32" height="16.735"/>
	<rect x="26.68" y="257.198" style="fill:#F5F5F5;" width="485.32" height="16.735"/>
	<path style="fill:#F5F5F5;" d="M314.146,144.846c6.738-13.893,13.768-46.077,13.768-46.077s-20.922,25.446-27.661,39.339   c-1.413,2.912-0.814,6.261,1.227,8.526L224.732,304.87l5.209,2.526l76.748-158.235   C309.732,149.361,312.733,147.758,314.146,144.846z"/>
	<path style="fill:#F5F5F5;" d="M224.534,144.846c-6.738-13.893-13.768-46.077-13.768-46.077s20.922,25.446,27.661,39.339   c1.413,2.912,0.814,6.261-1.227,8.526l76.748,158.235l-5.21,2.526L231.99,149.16C228.948,149.361,225.947,147.758,224.534,144.846z   "/>
</g>
<path style="fill:#C8414B;" d="M311.179,215.354c0,46.213-34.136,83.676-41.838,83.676s-41.838-37.463-41.838-83.676  s34.136-83.676,41.838-83.676C277.042,131.677,311.179,169.141,311.179,215.354z"/>
<g>
	<path style="fill:#464655;" d="M302.81,255.725c4.929-11.973,8.368-25.726,8.368-40.371s-3.438-28.398-8.368-40.371   c-4.929,11.973-8.367,25.726-8.367,40.371S297.882,243.751,302.81,255.725z"/>
	<path style="fill:#464655;" d="M235.87,174.981c-4.929,11.973-8.368,25.726-8.368,40.371s3.438,28.398,8.368,40.371   c4.929-11.973,8.368-25.726,8.368-40.371C244.238,200.708,240.799,186.955,235.87,174.981z"/>
</g>
<g>
	<ellipse style="fill:#F5F5F5;" cx="269.34" cy="215.348" rx="8.368" ry="12.552"/>
	<path style="fill:#F5F5F5;" d="M270.595,131.677v71.124c2.281-4.749,6.328-18.782,6.328-35.562   C276.924,150.458,272.877,136.425,270.595,131.677z"/>
	<path style="fill:#F5F5F5;" d="M268.085,131.677c-2.281,4.749-6.328,18.781-6.328,35.562c0,16.78,4.047,30.814,6.328,35.562   V131.677z"/>
	<path style="fill:#F5F5F5;" d="M270.595,227.904v71.124c2.281-4.749,6.328-18.782,6.328-35.562   C276.924,246.684,272.877,232.654,270.595,227.904z"/>
	<path style="fill:#F5F5F5;" d="M268.085,227.904c-2.281,4.749-6.328,18.781-6.328,35.562c0,16.78,4.047,30.814,6.328,35.562   V227.904z"/>
</g>
<path style="fill:#2E3033;" d="M19.152,488.46L19.152,488.46C8.575,488.46,0,479.884,0,469.307V42.534  C0,32.044,8.504,23.54,18.994,23.54h0.157c10.577,0,19.152,8.575,19.152,19.152V469.31C38.303,479.884,29.728,488.46,19.152,488.46z  "/>
<g>
</g>
<g>
</g>
<g>
</g>
<g>
</g>
<g>
</g>
<g>
</g>
<g>
</g>
<g>
</g>
<g>
</g>
<g>
</g>
<g>
</g>
<g>
</g>
<g>
</g>
<g>
</g>
<g>
</g>
</svg>
