<?xml version="1.0" encoding="iso-8859-1"?>
<!-- Generator: Adobe Illustrator 19.0.0, SVG Export Plug-In . SVG Version: 6.00 Build 0)  -->
<svg xmlns="http://www.w3.org/2000/svg" xmlns:xlink="http://www.w3.org/1999/xlink" version="1.1" id="Layer_1" x="0px" y="0px" viewBox="0 0 512 512" style="enable-background:new 0 0 512 512;" xml:space="preserve">
<path style="fill:#FF4B55;" d="M503.666,376.841H40.111c-4.602,0-8.334-3.732-8.334-8.334V70.547c0-4.602,3.732-8.334,8.334-8.334  h463.555c4.602,0,8.334,3.732,8.334,8.334v297.961C512,373.111,508.268,376.841,503.666,376.841z"/>
<g>
	<path style="fill:#FFE15A;" d="M359.467,244.221c0,0-16.495-2.749-28.713-12.882c-3.604-2.989-8.835-5.273-13.931-6.961   c4.096-0.182,8.44-0.068,12.546,0.763c17.006,3.439,33.496-4.817,33.496-4.817s-16.638,1.679-31.087-4.89   c-3.908-1.776-8.978-2.614-13.925-2.967c3.558-1.024,7.335-1.824,11.063-2.03c17.324-0.96,31.2-13.106,31.2-13.106   s-15.677,5.819-31.317,3.105c-4.555-0.791-10.146-0.199-15.349,0.847c3.423-2.149,7.19-4.159,11.101-5.452   c16.473-5.45,26.696-20.797,26.696-20.797s-13.613,9.71-29.419,11.175c-4.694,0.434-10.039,2.542-14.862,4.968   c2.782-3.051,5.959-6.07,9.477-8.406c14.457-9.593,20.279-27.091,20.279-27.091s-10.578,12.951-25.44,18.525   c-4.051,1.519-8.252,4.563-12.022,7.841c1.802-3.277,3.922-6.556,6.438-9.37c11.563-12.935,12.777-31.335,12.777-31.335   s-6.962,15.203-19.935,24.351c-3.781,2.667-7.316,7.046-10.256,11.471c0.898-3.945,2.14-8.036,3.99-11.723   c7.784-15.506,4.149-33.586,4.149-33.586s-2.749,16.494-12.882,28.712c-2.989,3.604-5.273,8.835-6.961,13.931   c-0.182-4.096-0.068-8.44,0.763-12.546c3.439-17.006-4.817-33.496-4.817-33.496s1.678,16.638-4.89,31.087   c-1.776,3.908-2.614,8.978-2.967,13.925c-1.024-3.558-1.824-7.335-2.03-11.062c-0.96-17.324-13.105-31.2-13.105-31.2   s5.818,15.677,3.105,31.317c-0.791,4.554-0.198,10.145,0.847,15.349c-2.149-3.423-4.159-7.19-5.452-11.102   c-5.45-16.473-20.797-26.696-20.797-26.696s9.71,13.614,11.175,29.419c0.435,4.694,2.542,10.04,4.969,14.863   c-3.051-2.784-6.071-5.96-8.406-9.478c-9.593-14.457-27.091-20.279-27.091-20.279s12.952,10.578,18.525,25.44   c1.519,4.051,4.562,8.252,7.841,12.022c-3.276-1.802-6.556-3.922-9.37-6.438c-12.935-11.564-31.336-12.777-31.336-12.777   s15.203,6.962,24.352,19.934c2.667,3.782,7.045,7.316,11.47,10.255c-3.944-0.898-8.035-2.14-11.721-3.989   c-15.506-7.784-33.586-4.149-33.586-4.149s16.495,2.749,28.712,12.882c3.604,2.989,8.836,5.273,13.931,6.961   c-4.096,0.182-8.44,0.068-12.546-0.763c-17.006-3.439-33.496,4.817-33.496,4.817s16.638-1.678,31.087,4.89   c3.908,1.776,8.978,2.614,13.925,2.967c-3.558,1.024-7.335,1.824-11.063,2.03c-17.324,0.96-31.2,13.106-31.2,13.106   s15.677-5.819,31.317-3.105c4.554,0.791,10.145,0.198,15.349-0.847c-3.423,2.149-7.19,4.159-11.102,5.452   c-16.473,5.45-26.696,20.797-26.696,20.797s13.613-9.71,29.419-11.175c4.694-0.434,10.04-2.542,14.864-4.969   c-2.782,3.051-5.96,6.071-9.478,8.406c-14.457,9.594-20.279,27.091-20.279,27.091s10.578-12.952,25.44-18.525   c4.051-1.519,8.252-4.562,12.022-7.841c-1.802,3.276-3.922,6.556-6.438,9.369c-11.564,12.935-12.777,31.335-12.777,31.335   s6.962-15.203,19.935-24.351c3.782-2.667,7.316-7.046,10.255-11.47c-0.899,3.945-2.139,8.036-3.989,11.722   c-7.784,15.506-4.149,33.586-4.149,33.586s2.75-16.495,12.882-28.712c2.989-3.604,5.273-8.836,6.961-13.931   c0.182,4.097,0.068,8.441-0.763,12.547c-3.439,17.006,4.817,33.496,4.817,33.496s-1.678-16.638,4.89-31.088   c1.776-3.908,2.614-8.978,2.967-13.925c1.024,3.558,1.824,7.335,2.03,11.062c0.96,17.324,13.105,31.2,13.105,31.2   s-5.819-15.677-3.105-31.317c0.791-4.555,0.199-10.145-0.847-15.349c2.149,3.423,4.159,7.19,5.452,11.101   c5.45,16.472,20.797,26.696,20.797,26.696s-9.71-13.613-11.175-29.42c-0.435-4.694-2.542-10.04-4.969-14.863   c3.051,2.784,6.071,5.96,8.406,9.478c9.593,14.457,27.091,20.28,27.091,20.28s-12.952-10.578-18.525-25.44   c-1.519-4.051-4.562-8.252-7.84-12.022c3.276,1.802,6.555,3.921,9.369,6.438c12.935,11.564,31.335,12.777,31.335,12.777   s-15.203-6.962-24.351-19.935c-2.667-3.782-7.046-7.317-11.471-10.256c3.945,0.899,8.036,2.139,11.722,3.989   C341.387,247.856,359.467,244.221,359.467,244.221z M271.869,261.569c-23.217,0-42.037-18.821-42.037-42.037   c0-23.217,18.821-42.037,42.037-42.037s42.037,18.821,42.037,42.037C313.906,242.749,295.085,261.569,271.869,261.569z"/>
	<path style="fill:#FFE15A;" d="M258.54,202.52c0.896-0.7,1.789-1.402,2.696-2.027c-5.956-2.709-11.317-4.009-15.078-4.592   c-0.599,0.65-1.139,1.35-1.687,2.045C248.164,198.663,253.125,200.032,258.54,202.52z"/>
	<path style="fill:#FFE15A;" d="M247.966,194.046c4.041,0.457,9.891,1.661,16.383,4.452c1.088-0.648,2.17-1.223,3.254-1.777   c-7.009-2.877-13.336-3.95-17.692-4.281C249.258,192.971,248.579,193.47,247.966,194.046z"/>
	<path style="fill:#FFE15A;" d="M269.012,213.53c-0.839-0.792-1.688-1.541-2.544-2.249c-7.869,7.49-14.755,18.414-17.864,34.265   c1.13,1.012,2.252,2.035,3.506,2.893C254.394,232.319,261.088,221.192,269.012,213.53z"/>
	<path style="fill:#FFE15A;" d="M265.96,206.569c0.893-0.717,1.783-1.438,2.687-2.079c-1.101-0.703-2.198-1.319-3.292-1.921   c-0.937,0.642-1.875,1.263-2.8,1.984C263.686,205.176,264.82,205.839,265.96,206.569z"/>
	<path style="fill:#FFE15A;" d="M287.708,204.538c6.748,5.927,12.914,14.272,17.304,25.843c1.126-3.436,1.889-7.038,1.889-10.85   c0-7.237-2.199-13.96-5.959-19.543C297.461,200.683,292.789,202.034,287.708,204.538z"/>
	<path style="fill:#FFE15A;" d="M269.265,208.82c0.879,0.653,1.741,1.39,2.604,2.116c0.865-0.725,1.725-1.463,2.604-2.116   c-0.866-0.72-1.727-1.429-2.604-2.076C270.992,207.392,270.13,208.1,269.265,208.82z"/>
	<path style="fill:#FFE15A;" d="M271.869,198.676c-1.1,0.557-2.201,1.188-3.308,1.842c1.101,0.579,2.2,1.2,3.308,1.879   c1.107-0.679,2.207-1.3,3.307-1.879C274.07,199.864,272.969,199.234,271.869,198.676z"/>
	<path style="fill:#FFE15A;" d="M244.786,241.5c3.706-15.133,10.691-25.502,18.51-32.632c-1.093-0.772-2.181-1.479-3.273-2.136   c-7.522,6.615-14.331,16.175-18.525,29.948C242.463,238.387,243.556,239.986,244.786,241.5z"/>
	<path style="fill:#FFE15A;" d="M256.03,204.538c-5.081-2.504-9.753-3.855-13.233-4.549c-3.76,5.583-5.959,12.305-5.959,19.543   c0,3.812,0.763,7.414,1.889,10.85C243.115,218.81,249.281,210.466,256.03,204.538z"/>
	<path style="fill:#FFE15A;" d="M271.869,194.745c7.453-3.079,14.328-4.172,19.217-4.462c-5.522-3.636-12.112-5.783-19.217-5.783   c-7.106,0-13.696,2.147-19.218,5.783C257.541,190.573,264.417,191.665,271.869,194.745z"/>
	<path style="fill:#FFE15A;" d="M271.869,216.493c-6.988,7.742-12.753,18.86-14.624,34.78c4.463,2.062,9.386,3.29,14.624,3.29   c5.239,0,10.161-1.228,14.624-3.29C284.622,235.353,278.856,224.236,271.869,216.493z"/>
	<path style="fill:#FFE15A;" d="M283.716,206.732c-1.091,0.656-2.18,1.364-3.273,2.136c7.817,7.132,14.803,17.5,18.51,32.632   c1.229-1.514,2.322-3.113,3.289-4.82C298.048,222.906,291.239,213.347,283.716,206.732z"/>
	<path style="fill:#FFE15A;" d="M295.134,245.545c-3.109-15.851-9.993-26.774-17.864-34.265c-0.856,0.708-1.706,1.457-2.544,2.249   c7.924,7.662,14.618,18.789,16.901,34.909C292.882,247.58,294.004,246.557,295.134,245.545z"/>
	<path style="fill:#FFE15A;" d="M276.134,196.721c1.084,0.554,2.167,1.129,3.254,1.777c6.491-2.792,12.341-3.995,16.383-4.452   c-0.614-0.576-1.293-1.075-1.946-1.606C289.471,192.771,283.143,193.843,276.134,196.721z"/>
	<path style="fill:#FFE15A;" d="M277.779,206.569c1.139-0.729,2.272-1.392,3.405-2.016c-0.925-0.722-1.865-1.342-2.801-1.984   c-1.094,0.602-2.191,1.219-3.292,1.921C275.996,205.13,276.886,205.852,277.779,206.569z"/>
	<path style="fill:#FFE15A;" d="M285.197,202.52c5.415-2.488,10.378-3.858,14.07-4.574c-0.548-0.695-1.089-1.394-1.687-2.045   c-3.761,0.582-9.122,1.883-15.078,4.592C283.409,201.117,284.301,201.82,285.197,202.52z"/>
</g>
<path style="fill:#2E3033;" d="M18.881,485.182L18.881,485.182C8.454,485.182,0,476.729,0,466.301V45.545  c0-10.342,8.384-18.727,18.726-18.727h0.155c10.428,0,18.881,8.454,18.881,18.881V466.3  C37.763,476.729,29.309,485.182,18.881,485.182z"/>
<g>
</g>
<g>
</g>
<g>
</g>
<g>
</g>
<g>
</g>
<g>
</g>
<g>
</g>
<g>
</g>
<g>
</g>
<g>
</g>
<g>
</g>
<g>
</g>
<g>
</g>
<g>
</g>
<g>
</g>
</svg>
