<?xml version="1.0" encoding="iso-8859-1"?>
<!-- Generator: Adobe Illustrator 19.0.0, SVG Export Plug-In . SVG Version: 6.00 Build 0)  -->
<svg xmlns="http://www.w3.org/2000/svg" xmlns:xlink="http://www.w3.org/1999/xlink" version="1.1" id="Layer_1" x="0px" y="0px" viewBox="0 0 512.1 512.1" style="enable-background:new 0 0 512.1 512.1;" xml:space="preserve">
<path style="fill:#FF4B55;" d="M503.6,373.9H35.4c-4.6,0-8.4-3.7-8.4-8.4v-301c0-4.6,3.7-8.4,8.4-8.4h468.3c4.6,0,8.4,3.7,8.4,8.4  v301C512,370.1,508.3,373.9,503.6,373.9z"/>
<path style="fill:#FFE15A;" d="M316.4,217.6c-2.1-1.8-4.5-3.2-6.9-4.1c13.6-2.7,24.6-14.2,24.6-14.2c-6.6,2.9-9.7,3.5-20.3,0  c-2.7-0.9-5.4-1.2-8-1.2c11.6-7.7,17.3-22.6,17.3-22.6c-5,5.2-7.6,7-18.7,7.8c-2.8,0.2-5.4,1-7.8,2c7.7-11.6,7.4-27.5,7.4-27.5  c-2.6,6.8-4.4,9.3-14.3,14.4c-2.5,1.3-4.6,3-6.5,4.8c2.7-13.6-3.7-28.2-3.7-28.2c0.2,7.2-0.5,10.3-7.7,18.7  c-1.8,2.1-3.2,4.5-4.1,6.9c-2.7-13.6-14.2-24.6-14.2-24.6c2.9,6.6,3.5,9.7,0,20.3c-0.9,2.7-1.2,5.4-1.2,8  c-7.7-11.6-22.6-17.3-22.6-17.3c5.2,5,7,7.6,7.8,18.7c0.2,2.8,1,5.4,2,7.8c-11.6-7.7-27.5-7.4-27.5-7.4c6.8,2.6,9.3,4.4,14.4,14.3  c1.3,2.5,3,4.6,4.8,6.5c-13.6-2.7-28.2,3.7-28.2,3.7c7.2-0.2,10.3,0.5,18.7,7.7c2.1,1.8,4.5,3.2,6.9,4.1  c-13.6,2.7-24.6,14.2-24.6,14.2c6.6-2.9,9.7-3.5,20.3,0c2.7,0.9,5.4,1.2,8,1.2c-11.6,7.7-17.3,22.6-17.3,22.6c5-5.2,7.6-7,18.7-7.8  c2.8-0.2,5.4-1,7.8-2c-7.7,11.6-7.4,27.5-7.4,27.5c2.6-6.8,4.4-9.3,14.3-14.4c2.5-1.3,4.6-3,6.5-4.8c-2.7,13.6,3.7,28.2,3.7,28.2  c-0.2-7.2,0.5-10.3,7.7-18.7c1.8-2.1,3.2-4.5,4.1-6.9c2.7,13.6,14.2,24.6,14.2,24.6c-2.9-6.6-3.5-9.7,0-20.3c0.9-2.7,1.2-5.4,1.2-8  c7.7,11.6,22.6,17.3,22.6,17.3c-5.2-5-7-7.6-7.8-18.7c-0.2-2.8-1-5.4-2-7.8c11.6,7.7,27.5,7.4,27.5,7.4c-6.8-2.6-9.3-4.4-14.4-14.3  c-1.3-2.5-3-4.6-4.8-6.5c13.6,2.7,28.2-3.7,28.2-3.7C327.9,225.5,324.8,224.9,316.4,217.6z"/>
<path style="fill:#FFD25A;" d="M303,221.7l33.4-6.7l-33.4-6.7l28.3-18.9l-33.4,6.6l18.9-28.3l-28.3,18.9l6.6-33.4l-18.9,28.3  l-6.7-33.4l-6.7,33.4l-18.9-28.3l6.6,33.4l-28.3-18.9l18.9,28.3l-33.4-6.6l28.3,18.9l-33.4,6.7l33.4,6.7l-28.3,18.9l33.4-6.6  l-18.9,28.3l28.3-18.9l-6.6,33.4l18.9-28.3l6.7,33.4l6.7-33.4l18.9,28.3l-6.6-33.4l28.3,18.9L297.9,234l33.4,6.6L303,221.7z"/>
<circle style="fill:#FFE15A;" cx="269.5" cy="215" r="33.4"/>
<g>
	<path style="fill:#41479B;" d="M123.9,315.3c24.3,0,24.3,8.4,48.5,8.4c24.3,0,24.3-8.4,48.6-8.4s24.3,8.4,48.6,8.4   c24.2,0,24.2-8.4,48.4-8.4c24.2,0,24.2,8.4,48.5,8.4c24.2,0,24.2-8.4,48.5-8.4s24.2,8.4,48.5,8.4c24.2,0,24.2-8.4,48.5-8.4h0.1   v-25.1H512c-24.2,0-24.2,8.4-48.5,8.4c-24.2,0-24.2-8.4-48.5-8.4s-24.2,8.4-48.5,8.4c-24.2,0-24.2-8.4-48.5-8.4   c-24.2,0-24.2,8.4-48.4,8.4c-24.3,0-24.3-8.4-48.6-8.4s-24.3,8.4-48.6,8.4s-24.3-8.4-48.5-8.4s-24.2,8.4-48.5,8.4   c-24.2,0-24.3-8.3-48.4-8.4v25.1c24.1,0,24.2,8.4,48.4,8.4C99.6,323.7,99.6,315.3,123.9,315.3z"/>
	<path style="fill:#41479B;" d="M27,265.2c24.1,0,24.2,8.4,48.4,8.4s24.2-8.4,48.5-8.4s24.3,8.4,48.5,8.4c24.3,0,24.3-8.4,48.6-8.4   s24.3,8.4,48.6,8.4c24.2,0,24.2-8.4,48.4-8.4c24.2,0,24.2,8.4,48.5,8.4c24.2,0,24.2-8.4,48.5-8.4s24.2,8.4,48.5,8.4   c24.2,0,24.2-8.4,48.5-8.4h0.1v-25.1H512c-24.2,0-24.2,8.4-48.5,8.4c-24.2,0-24.2-8.4-48.5-8.4s-24.2,8.4-48.5,8.4   c-24.2,0-24.2-8.4-48.5-8.4c-24.2,0-24.2,8.4-48.4,8.4c-24.3,0-24.3-8.4-48.6-8.4s-24.3,8.4-48.6,8.4s-24.3-8.4-48.5-8.4   s-24.2,8.4-48.5,8.4c-24.2,0-24.3-8.3-48.4-8.4L27,265.2L27,265.2z"/>
</g>
<g>
	<path style="fill:#F5F5F5;" d="M27,340.4c24.1,0,24.2,8.4,48.4,8.4s24.2-8.4,48.5-8.4s24.3,8.4,48.5,8.4c24.3,0,24.3-8.4,48.6-8.4   s24.3,8.4,48.6,8.4c24.2,0,24.2-8.4,48.4-8.4c24.2,0,24.2,8.4,48.5,8.4c24.2,0,24.2-8.4,48.5-8.4s24.2,8.4,48.5,8.4   c24.2,0,24.2-8.4,48.5-8.4h0.1v-25.1H512c-24.2,0-24.2,8.4-48.5,8.4c-24.2,0-24.2-8.4-48.5-8.4s-24.2,8.4-48.5,8.4   c-24.2,0-24.2-8.4-48.5-8.4c-24.2,0-24.2,8.4-48.4,8.4c-24.3,0-24.3-8.4-48.6-8.4s-24.3,8.4-48.6,8.4s-24.3-8.4-48.5-8.4   s-24.2,8.4-48.5,8.4c-24.2,0-24.3-8.3-48.4-8.4L27,340.4L27,340.4z"/>
	<path style="fill:#F5F5F5;" d="M27,290.3c24.1,0,24.2,8.4,48.4,8.4s24.2-8.4,48.5-8.4s24.3,8.4,48.5,8.4c24.3,0,24.3-8.4,48.6-8.4   s24.3,8.4,48.6,8.4c24.2,0,24.2-8.4,48.4-8.4c24.2,0,24.2,8.4,48.5,8.4c24.2,0,24.2-8.4,48.5-8.4s24.2,8.4,48.5,8.4   c24.2,0,24.2-8.4,48.5-8.4h0.1v-25.1H512c-24.2,0-24.2,8.4-48.5,8.4c-24.2,0-24.2-8.4-48.5-8.4s-24.2,8.4-48.5,8.4   c-24.2,0-24.2-8.4-48.5-8.4c-24.2,0-24.2,8.4-48.4,8.4c-24.3,0-24.3-8.4-48.6-8.4s-24.3,8.4-48.6,8.4s-24.3-8.4-48.5-8.4   s-24.2,8.4-48.5,8.4c-24.2,0-24.3-8.3-48.4-8.4L27,290.3L27,290.3z"/>
	<path style="fill:#F5F5F5;" d="M27,240.1c24.1,0,24.2,8.4,48.4,8.4s24.2-8.4,48.5-8.4s24.3,8.4,48.5,8.4c24.3,0,24.3-8.4,48.6-8.4   s24.3,8.4,48.6,8.4c24.2,0,24.2-8.4,48.4-8.4c24.2,0,24.2,8.4,48.5,8.4c24.2,0,24.2-8.4,48.5-8.4s24.2,8.4,48.5,8.4   c24.2,0,24.2-8.4,48.5-8.4h0.1V215H512c-24.2,0-24.2,8.4-48.5,8.4c-24.2,0-24.2-8.4-48.5-8.4s-24.2,8.4-48.5,8.4   c-24.2,0-24.2-8.4-48.5-8.4c-24.2,0-24.2,8.4-48.4,8.4c-24.3,0-24.3-8.4-48.6-8.4s-24.3,8.4-48.6,8.4s-24.3-8.4-48.5-8.4   s-24.2,8.4-48.5,8.4c-24.2,0-24.3-8.3-48.4-8.4L27,240.1L27,240.1z"/>
</g>
<path style="fill:#41479B;" d="M463.4,348.8c-24.2,0-24.2-8.4-48.5-8.4c-24.2,0-24.2,8.4-48.5,8.4c-24.2,0-24.2-8.4-48.5-8.4  c-24.2,0-24.2,8.4-48.4,8.4c-24.3,0-24.3-8.4-48.6-8.4s-24.3,8.4-48.6,8.4s-24.3-8.4-48.5-8.4s-24.2,8.4-48.5,8.4  c-24.2,0-24.3-8.3-48.4-8.4v25.1c0,4.6,3.7,8.4,8.4,8.4h468.3c4.6,0,8.2-3.7,8.3-8.2c0-14.7,0-25.2,0-25.2l0,0h-0.1  C487.6,340.4,487.6,348.8,463.4,348.8z"/>
<path style="fill:#FFE15A;" d="M286.9,100.5c40.7-1.6,61.3-19.3,61.3-19.3c-2.9,1.1-48.5,4.9-61.6,6.1c-8.2,0.7-18.5,10.1-25,16.9  c-1.7-4.7-5.1-9.6-11.9-10.6c-13.7-2-50.1-4.3-59.1-8.5l0,0c0,0,5.8,9,35.8,13c14.4,1.9,22.3,6.9,26.1,10.2l-3.4-0.1  c0,0,0,0-5.8-2.9s-11.7,2-11.7,2h-9.3c-1.2,0-1.8,1.3-1.1,2.3l0.9,1.2c0.9,1.2,2.3,1.9,3.9,1.9h9.5c3.4,5.8,16.2,11.9,26.7,11.9  c10.6,0,42.9-14.4,46.1-14.4l-29.3-1L286.9,100.5z"/>
<path style="fill:#2E3033;" d="M19.2,489.1L19.2,489.1C8.6,489.1,0,480.5,0,469.9V42c0-10.5,8.5-19,19-19h0.2  c10.6,0,19.2,8.6,19.2,19.2v427.7C38.4,480.5,29.8,489.1,19.2,489.1z"/>
<g>
</g>
<g>
</g>
<g>
</g>
<g>
</g>
<g>
</g>
<g>
</g>
<g>
</g>
<g>
</g>
<g>
</g>
<g>
</g>
<g>
</g>
<g>
</g>
<g>
</g>
<g>
</g>
<g>
</g>
</svg>
