<?xml version="1.0" encoding="iso-8859-1"?>
<!-- Generator: Adobe Illustrator 19.0.0, SVG Export Plug-In . SVG Version: 6.00 Build 0)  -->
<svg xmlns="http://www.w3.org/2000/svg" xmlns:xlink="http://www.w3.org/1999/xlink" version="1.1" id="Layer_1" x="0px" y="0px" viewBox="0 0 512 512" style="enable-background:new 0 0 512 512;" xml:space="preserve">
<path style="fill:#73AF00;" d="M503.524,374.657H28.871c-4.681,0-8.476-3.795-8.476-8.476V61.048c0-4.681,3.795-8.476,8.476-8.476  h474.653c4.681,0,8.476,3.795,8.476,8.476v305.133C512,370.862,508.205,374.657,503.524,374.657z"/>
<g>
	<polygon style="fill:#FFE15A;" points="380.539,52.572 20.395,288.528 20.395,313.861 419.204,52.572  "/>
	<polygon style="fill:#FFE15A;" points="512,138.7 512,113.368 113.19,374.657 151.855,374.657  "/>
</g>
<path style="fill:#464655;" d="M512,113.368v-52.32c0-4.681-3.795-8.476-8.476-8.476h-84.319l-398.81,261.29v52.32  c0,4.681,3.795,8.476,8.476,8.476h84.319L512,113.368z"/>
<g>
	<path style="fill:#F5F5F5;" d="M170.199,232.72l17.397,14.009l18.886-11.926c2.445-1.544,5.449,0.913,4.419,3.616l-7.947,20.874   l17.178,14.277c2.224,1.849,0.815,5.464-2.073,5.321l-22.309-1.108l-8.27,20.749c-1.071,2.686-4.945,2.463-5.701-0.327l-5.84-21.56   l-22.289-1.454c-2.886-0.189-3.871-3.941-1.45-5.523l18.699-12.217l-5.505-21.648C164.682,233.004,167.946,230.906,170.199,232.72z   "/>
	<path style="fill:#F5F5F5;" d="M330.536,127.478l17.397,14.009l18.886-11.926c2.445-1.544,5.449,0.913,4.419,3.616l-7.947,20.874   l17.178,14.277c2.224,1.849,0.815,5.464-2.073,5.321l-22.309-1.108l-8.27,20.749c-1.071,2.686-4.945,2.463-5.701-0.327l-5.84-21.56   l-22.288-1.454c-2.886-0.189-3.871-3.941-1.45-5.523l18.699-12.217l-5.505-21.648C325.018,127.761,328.283,125.664,330.536,127.478   z"/>
</g>
<path style="fill:#FF4B55;" d="M512,366.181V138.7L151.855,374.657h351.668C508.205,374.657,512,370.862,512,366.181z"/>
<path style="fill:#2E3033;" d="M19.203,489.087L19.203,489.087C8.598,489.087,0,480.49,0,469.884V41.958  c0-10.519,8.527-19.045,19.045-19.045h0.158c10.606,0,19.203,8.598,19.203,19.203v427.768  C38.407,480.49,29.809,489.087,19.203,489.087z"/>
<g>
</g>
<g>
</g>
<g>
</g>
<g>
</g>
<g>
</g>
<g>
</g>
<g>
</g>
<g>
</g>
<g>
</g>
<g>
</g>
<g>
</g>
<g>
</g>
<g>
</g>
<g>
</g>
<g>
</g>
</svg>
