<?xml version="1.0" encoding="iso-8859-1"?>
<!-- Generator: Adobe Illustrator 19.0.0, SVG Export Plug-In . SVG Version: 6.00 Build 0)  -->
<svg xmlns="http://www.w3.org/2000/svg" xmlns:xlink="http://www.w3.org/1999/xlink" version="1.1" id="Layer_1" x="0px" y="0px" viewBox="0 0 512 512" style="enable-background:new 0 0 512 512;" xml:space="preserve">
<path style="fill:#41479B;" d="M503.547,374.337H35.133c-4.668,0-8.453-3.785-8.453-8.453V64.821c0-4.668,3.785-8.453,8.453-8.453  h468.414c4.668,0,8.453,3.785,8.453,8.453v301.062C512,370.552,508.216,374.337,503.547,374.337z"/>
<g>
	<rect x="26.68" y="98.197" style="fill:#F5F5F5;" width="485.32" height="16.735"/>
	<rect x="26.68" y="315.767" style="fill:#F5F5F5;" width="485.32" height="16.735"/>
</g>
<rect x="26.68" y="114.938" style="fill:#FF4B55;" width="485.32" height="200.82"/>
<path style="fill:#F5F5F5;" d="M227.468,213.161c1.235,38.703-30.394,70.332-69.097,69.097  c-35.05-1.119-63.596-29.665-64.715-64.715c-1.235-38.702,30.394-70.332,69.097-69.097  C197.801,149.566,226.349,178.113,227.468,213.161z"/>
<path style="fill:#FF4B55;" d="M162.344,154.408l13.429,40.265l42.444,0.329c1.806,0.014,2.554,2.318,1.102,3.391l-34.144,25.215  l12.803,40.468c0.544,1.721-1.415,3.146-2.885,2.095l-34.531-24.682l-34.531,24.682c-1.469,1.05-3.429-0.374-2.885-2.095  l12.803-40.468l-34.145-25.215c-1.453-1.072-0.704-3.377,1.102-3.391l42.444-0.329l13.429-40.265  C159.35,152.695,161.773,152.695,162.344,154.408z"/>
<path style="fill:#2E3033;" d="M19.152,488.46L19.152,488.46C8.575,488.46,0,479.884,0,469.307V42.534  C0,32.044,8.504,23.54,18.994,23.54h0.157c10.577,0,19.152,8.575,19.152,19.152V469.31C38.303,479.884,29.728,488.46,19.152,488.46z  "/>
<g>
</g>
<g>
</g>
<g>
</g>
<g>
</g>
<g>
</g>
<g>
</g>
<g>
</g>
<g>
</g>
<g>
</g>
<g>
</g>
<g>
</g>
<g>
</g>
<g>
</g>
<g>
</g>
<g>
</g>
</svg>
