<?xml version="1.0" encoding="iso-8859-1"?>
<!-- Generator: Adobe Illustrator 19.0.0, SVG Export Plug-In . SVG Version: 6.00 Build 0)  -->
<svg xmlns="http://www.w3.org/2000/svg" xmlns:xlink="http://www.w3.org/1999/xlink" version="1.1" id="Layer_1" x="0px" y="0px" viewBox="0 0 512 512" style="enable-background:new 0 0 512 512;" xml:space="preserve">
<path style="fill:#F5F5F5;" d="M503.56,374.155H35.87c-4.661,0-8.44-3.779-8.44-8.44V65.118c0-4.661,3.779-8.44,8.44-8.44h467.69  c4.661,0,8.44,3.779,8.44,8.44v300.597C512,370.376,508.222,374.155,503.56,374.155z"/>
<path style="fill:#FF4B55;" d="M316.098,145.884c-38.39-25.592-90.242-15.129-115.818,23.194  c-12.829,19.128-7.615,45.12,11.58,57.917c19.179,12.796,45.088,7.599,57.884-11.596s38.722-24.327,57.902-11.597  c19.21,12.796,24.376,38.788,11.563,57.917C364.802,223.33,354.455,171.478,316.098,145.884"/>
<path style="fill:#41479B;" d="M200.28,169.079c-12.829,19.128-7.615,45.12,11.58,57.917c19.179,12.796,45.088,7.599,57.884-11.596  s38.722-24.327,57.902-11.597c19.21,12.796,24.376,38.788,11.563,57.917c-25.559,38.456-77.394,48.787-115.784,23.194  C185.068,259.321,174.687,207.468,200.28,169.079"/>
<g>
	<path style="fill:#464655;" d="M358.604,114.328l15.176,22.809c1.276,1.917,0.76,4.504-1.154,5.785l-3.849,2.577   c-1.92,1.286-4.52,0.768-5.8-1.155l-15.194-22.805c-1.279-1.919-0.761-4.51,1.157-5.791l3.868-2.582   C354.727,111.885,357.325,112.405,358.604,114.328z"/>
	<path style="fill:#464655;" d="M382.018,149.499l15.226,22.797c1.286,1.925,0.761,4.529-1.17,5.806l-3.864,2.554   c-1.918,1.267-4.5,0.747-5.776-1.165l-15.217-22.772c-1.282-1.918-0.766-4.511,1.151-5.794l3.856-2.578   C378.141,147.063,380.736,147.579,382.018,149.499z"/>
	<path style="fill:#464655;" d="M374.853,103.485l38.642,57.991c1.279,1.92,0.761,4.512-1.159,5.792l-3.881,2.588   c-1.92,1.28-4.513,0.761-5.793-1.158l-38.654-57.987c-1.281-1.92-0.761-4.515,1.162-5.794l3.895-2.592   C370.981,101.046,373.573,101.566,374.853,103.485z"/>
	<path style="fill:#464655;" d="M391.057,92.656l15.209,22.856c1.281,1.925,0.754,4.525-1.174,5.799l-3.868,2.556   c-1.919,1.268-4.503,0.746-5.778-1.168l-15.221-22.825c-1.28-1.92-0.762-4.513,1.158-5.793l3.879-2.586   C387.184,90.215,389.779,90.735,391.057,92.656z"/>
	<path style="fill:#464655;" d="M414.487,127.901l15.186,22.808c1.277,1.918,0.76,4.507-1.155,5.788l-3.857,2.578   c-1.92,1.284-4.519,0.766-5.798-1.157l-15.186-22.808c-1.277-1.918-0.76-4.507,1.155-5.788l3.857-2.578   C410.609,125.46,413.207,125.978,414.487,127.901z"/>
	<path style="fill:#464655;" d="M153.04,251.364l38.637,57.928c1.28,1.919,0.763,4.511-1.156,5.792l-3.87,2.584   c-1.919,1.282-4.514,0.764-5.795-1.156l-38.637-57.928c-1.28-1.919-0.763-4.511,1.156-5.792l3.87-2.584   C149.165,248.926,151.759,249.444,153.04,251.364z"/>
	<path style="fill:#464655;" d="M136.819,262.199l15.169,22.753c1.278,1.917,0.763,4.507-1.152,5.789l-3.848,2.576   c-1.919,1.285-4.515,0.769-5.798-1.152l-15.188-22.748c-1.281-1.919-0.764-4.513,1.154-5.794l3.867-2.582   C132.944,259.761,135.54,260.279,136.819,262.199z"/>
	<path style="fill:#464655;" d="M160.262,297.381l15.187,22.81c1.277,1.918,0.76,4.507-1.155,5.788l-3.859,2.579   c-1.92,1.284-4.518,0.765-5.797-1.156l-15.196-22.806c-1.279-1.919-0.761-4.51,1.156-5.79l3.869-2.584   C156.385,294.94,158.982,295.459,160.262,297.381z"/>
	<path style="fill:#464655;" d="M120.598,273.031l38.612,57.931c1.279,1.918,0.762,4.508-1.154,5.79l-3.858,2.579   c-1.919,1.283-4.515,0.766-5.797-1.155l-38.635-57.924c-1.281-1.92-0.762-4.514,1.158-5.794l3.881-2.587   C116.725,270.592,119.319,271.111,120.598,273.031z"/>
	<path style="fill:#464655;" d="M142.226,172.299l38.631-57.975c1.28-1.921,3.876-2.44,5.795-1.158l3.868,2.583   c1.918,1.281,2.436,3.874,1.156,5.792l-38.646,57.942c-1.277,1.915-3.861,2.436-5.78,1.166l-3.853-2.55   C141.47,176.822,140.944,174.223,142.226,172.299z"/>
	<path style="fill:#464655;" d="M125.997,161.478l38.638-57.986c1.281-1.922,3.878-2.44,5.797-1.156l3.859,2.579   c1.916,1.281,2.433,3.871,1.155,5.789l-38.628,57.99c-1.28,1.921-3.876,2.44-5.796,1.158l-3.869-2.583   C125.236,165.989,124.719,163.396,125.997,161.478z"/>
	<path style="fill:#464655;" d="M109.761,150.705l38.642-58.044c1.281-1.923,3.878-2.441,5.799-1.157l3.858,2.579   c1.915,1.28,2.432,3.869,1.156,5.787l-38.618,58.052c-1.279,1.922-3.874,2.442-5.795,1.163l-3.881-2.587   C109.002,155.216,108.482,152.624,109.761,150.705z"/>
	<path style="fill:#464655;" d="M347.788,309.292l15.188-22.747c1.282-1.92,3.879-2.436,5.798-1.151l3.849,2.577   c1.915,1.282,2.43,3.872,1.151,5.789l-15.169,22.752c-1.281,1.92-3.875,2.438-5.795,1.157l-3.868-2.582   C347.024,313.804,346.507,311.21,347.788,309.292z"/>
	<path style="fill:#464655;" d="M371.213,274.228l15.212-22.86c1.279-1.922,3.874-2.442,5.795-1.162l3.876,2.584   c1.921,1.281,2.439,3.876,1.156,5.796l-15.244,22.824c-1.279,1.914-3.863,2.433-5.781,1.162l-3.844-2.548   C370.457,278.747,369.933,276.15,371.213,274.228z"/>
	<path style="fill:#464655;" d="M364.004,320.184l15.197-22.807c1.28-1.92,3.874-2.439,5.794-1.159l3.885,2.59   c1.919,1.28,2.438,3.871,1.159,5.791l-15.188,22.809c-1.279,1.92-3.872,2.44-5.792,1.163l-3.894-2.592   C363.244,324.699,362.724,322.105,364.004,320.184z"/>
	<path style="fill:#464655;" d="M387.453,284.944l15.206-22.753c1.281-1.917,3.872-2.434,5.79-1.154l3.881,2.588   c1.921,1.281,2.439,3.877,1.156,5.796l-15.205,22.754c-1.281,1.917-3.872,2.434-5.79,1.155l-3.882-2.588   C386.688,289.46,386.17,286.864,387.453,284.944z"/>
	<path style="fill:#464655;" d="M380.23,330.956l15.214-22.768c1.278-1.912,3.858-2.432,5.776-1.164l3.868,2.556   c1.931,1.276,2.456,3.877,1.172,5.803l-15.203,22.798c-1.28,1.919-3.873,2.438-5.793,1.158l-3.879-2.586   C379.465,335.473,378.947,332.877,380.23,330.956z"/>
	<path style="fill:#464655;" d="M403.685,295.833l15.176-22.794c1.281-1.923,3.878-2.441,5.798-1.157l3.854,2.576   c1.917,1.282,2.433,3.873,1.153,5.791l-15.189,22.765c-1.278,1.915-3.863,2.435-5.782,1.164l-3.841-2.547   C402.928,300.354,402.405,297.757,403.685,295.833z"/>
</g>
<path style="fill:#2E3033;" d="M19.122,488.1L19.122,488.1C8.561,488.1,0,479.539,0,468.979V42.864C0,32.39,8.491,23.9,18.965,23.9  h0.157c10.561,0,19.122,8.561,19.122,19.122V468.98C38.244,479.539,29.683,488.1,19.122,488.1z"/>
<g>
</g>
<g>
</g>
<g>
</g>
<g>
</g>
<g>
</g>
<g>
</g>
<g>
</g>
<g>
</g>
<g>
</g>
<g>
</g>
<g>
</g>
<g>
</g>
<g>
</g>
<g>
</g>
<g>
</g>
</svg>
