<?xml version="1.0" encoding="iso-8859-1"?>
<!-- Generator: Adobe Illustrator 19.0.0, SVG Export Plug-In . SVG Version: 6.00 Build 0)  -->
<svg xmlns="http://www.w3.org/2000/svg" xmlns:xlink="http://www.w3.org/1999/xlink" version="1.1" id="Layer_1" x="0px" y="0px" viewBox="0 0 512 512" style="enable-background:new 0 0 512 512;" xml:space="preserve">
<path style="fill:#73AF00;" d="M511.9,162.1H27V64.7c0-4.6,3.8-8.4,8.4-8.4h468.2c4.6,0,8.4,3.8,8.4,8.4L511.9,162.1L511.9,162.1z"/>
<path style="fill:#FF4B55;" d="M503.5,374H35.4c-4.6,0-8.4-3.8-8.4-8.4v-97.5h484.9v97.5C511.9,370.2,508.1,374,503.5,374z"/>
<rect x="27" y="162.1" style="fill:#F5F5F5;" width="484.9" height="105.9"/>
<path style="fill:#464655;" d="M30.1,372l130.7-103.8V162L30.1,58.2C28.3,59.7,27,62,27,64.5v301C27,368.2,28.2,370.4,30.1,372z"/>
<path style="fill:#2E3033;" d="M18.7,483.4L18.7,483.4C8.4,483.4,0,475.1,0,464.7V47.2c0-10.3,8.3-18.6,18.6-18.6h0.2  c10.3,0,18.7,8.4,18.7,18.7v417.4C37.5,475.1,29.2,483.4,18.7,483.4z"/>
<g>
</g>
<g>
</g>
<g>
</g>
<g>
</g>
<g>
</g>
<g>
</g>
<g>
</g>
<g>
</g>
<g>
</g>
<g>
</g>
<g>
</g>
<g>
</g>
<g>
</g>
<g>
</g>
<g>
</g>
</svg>
