<?xml version="1.0" encoding="iso-8859-1"?>
<!-- Generator: Adobe Illustrator 19.0.0, SVG Export Plug-In . SVG Version: 6.00 Build 0)  -->
<svg xmlns="http://www.w3.org/2000/svg" xmlns:xlink="http://www.w3.org/1999/xlink" version="1.1" id="Layer_1" x="0px" y="0px" viewBox="0 0 512.001 512.001" style="enable-background:new 0 0 512.001 512.001;" xml:space="preserve">
<path style="fill:#82C3D2;" d="M503.632,56.369H35.048c-4.622,0-8.368,3.747-8.368,8.368V365.97c0,4.621,3.746,8.368,8.368,8.368  h468.585c4.622,0,8.368-3.747,8.368-8.368V64.736C512,60.116,508.254,56.369,503.632,56.369z"/>
<g>
	<path style="fill:#FFE15A;" d="M83.094,94.447c-0.758-3.207-0.946-4.388,0.492-5.827c0.702-0.702,0.702-1.839,0-2.54   c-0.702-0.702-1.839-0.702-2.54,0c-2.912,2.912-2.218,5.936-1.463,9.136c-2.296-0.75-4.676-0.193-5.953,1.416   c-0.633,0.803-1.858,3.056,0.436,6.652c0.534,0.835,1.637,1.08,2.48,0.551c0.837-0.534,1.081-1.645,0.547-2.48   c-0.861-1.355-0.885-2.189-0.646-2.495c0.284-0.361,1.167-0.551,2.089-0.225c0.596,0.207,1.982,0.922,1.982,3.083   c0,1.727-0.798,3.308-2.189,4.336c-1.395,1.031-3.199,1.323-4.94,0.782c-2.149-0.656-3.649-2.918-3.649-5.504   c0-1.849,0.396-3.718,1.124-5.357c0.116-0.242,2.86-5.929,3.567-8.047c1.398-4.192-0.023-6.301-0.993-7.181   c-1.298-1.182-3.194-1.477-4.827-0.761c-0.247,0.11-0.453,0.269-0.668,0.417c-0.216-0.148-0.421-0.307-0.668-0.417   c-1.631-0.715-3.527-0.421-4.827,0.761c-0.97,0.88-2.391,2.989-0.993,7.181c0.707,2.119,3.452,7.805,3.543,7.995   c0.752,1.691,1.149,3.561,1.149,5.409c0,2.586-1.499,4.848-3.649,5.504c-1.746,0.54-3.545,0.253-4.94-0.782   c-1.391-1.028-2.189-2.61-2.189-4.336c0-2.161,1.385-2.876,1.982-3.083c0.926-0.326,1.804-0.136,2.089,0.225   c0.24,0.305,0.216,1.14-0.646,2.495c-0.534,0.835-0.29,1.947,0.547,2.48c0.843,0.534,1.951,0.284,2.48-0.551   c2.294-3.596,1.07-5.848,0.436-6.652c-1.276-1.61-3.657-2.166-5.953-1.416c0.754-3.2,1.449-6.224-1.463-9.136   c-0.702-0.702-1.839-0.702-2.54,0c-0.702,0.702-0.702,1.839,0,2.54c1.438,1.438,1.251,2.62,0.492,5.827   c-0.454,1.922-1.02,4.318-1.02,7.272c0,1.966,0.691,3.845,1.854,5.389h-0.058c-0.993,0-1.796,0.803-1.796,1.796   s0.803,1.796,1.796,1.796h0.058c-1.163,1.544-1.854,3.422-1.854,5.388c0,2.954,0.565,5.35,1.02,7.272   c0.758,3.207,0.946,4.388-0.492,5.827c-0.702,0.702-0.702,1.839,0,2.54c0.351,0.351,0.81,0.526,1.27,0.526s0.919-0.175,1.27-0.526   c2.912-2.912,2.218-5.936,1.463-9.136c2.296,0.747,4.676,0.194,5.953-1.416c0.633-0.803,1.858-3.056-0.436-6.652   c-0.531-0.835-1.642-1.084-2.48-0.551c-0.837,0.534-1.081,1.645-0.547,2.48c0.861,1.355,0.885,2.189,0.646,2.495   c-0.286,0.358-1.163,0.547-2.089,0.225c-0.596-0.207-1.982-0.922-1.982-3.083c0-1.725,0.798-3.308,2.189-4.336   c1.395-1.031,3.197-1.326,4.94-0.782c2.149,0.656,3.649,2.918,3.649,5.504c0,1.849-0.396,3.718-1.149,5.409l-11.762,26.465   c-0.967,2.175-1.458,4.486-1.458,6.869c0,3.064,1.394,5.863,3.586,7.571c-2.193,1.708-3.586,4.507-3.586,7.571   c0,2.382,0.491,4.694,1.458,6.869L65,203.693c0.752,1.691,1.149,3.561,1.149,5.41c0,2.586-1.499,4.848-3.649,5.504   c-1.746,0.544-3.545,0.253-4.94-0.782c-1.391-1.028-2.189-2.61-2.189-4.335c0-2.161,1.385-2.877,1.982-3.083   c0.926-0.322,1.804-0.137,2.089,0.224c0.24,0.305,0.216,1.14-0.646,2.495c-0.534,0.835-0.29,1.947,0.547,2.48   c0.843,0.534,1.951,0.287,2.48-0.551c2.294-3.596,1.07-5.848,0.436-6.652c-1.276-1.61-3.657-2.164-5.953-1.416   c0.754-3.199,1.449-6.224-1.463-9.136c-0.702-0.702-1.839-0.702-2.54,0c-0.702,0.702-0.702,1.839,0,2.54   c1.438,1.438,1.251,2.62,0.492,5.827c-0.454,1.922-1.02,4.318-1.02,7.272c0,1.965,0.691,3.845,1.854,5.388h-0.058   c-0.993,0-1.796,0.803-1.796,1.796c0,0.992,0.803,1.796,1.796,1.796h0.058c-1.163,1.544-1.854,3.422-1.854,5.389   c0,2.953,0.565,5.35,1.02,7.272c0.758,3.207,0.946,4.388-0.492,5.827c-0.702,0.702-0.702,1.839,0,2.54   c0.351,0.351,0.81,0.526,1.27,0.526s0.919-0.175,1.27-0.526c2.912-2.912,2.218-5.936,1.463-9.136   c2.296,0.747,4.676,0.193,5.953-1.416c0.633-0.803,1.858-3.056-0.436-6.652c-0.531-0.835-1.642-1.084-2.48-0.551   c-0.837,0.534-1.081,1.645-0.547,2.48c0.861,1.354,0.885,2.189,0.646,2.495c-0.286,0.361-1.163,0.551-2.089,0.224   c-0.596-0.207-1.982-0.922-1.982-3.083c0-1.725,0.798-3.308,2.189-4.336c1.395-1.031,3.197-1.326,4.94-0.782   c2.149,0.656,3.649,2.918,3.649,5.504c0,1.849-0.396,3.718-1.149,5.41l-11.762,26.465c-0.967,2.175-1.458,4.486-1.458,6.869   c0,3.064,1.394,5.863,3.586,7.571c-2.193,1.708-3.586,4.507-3.586,7.571c0,2.382,0.491,4.694,1.458,6.869L65,311.466   c0.752,1.691,1.149,3.561,1.149,5.41c0,2.586-1.499,4.848-3.649,5.504c-1.746,0.544-3.545,0.249-4.94-0.782   c-1.391-1.028-2.189-2.61-2.189-4.335c0-2.161,1.385-2.876,1.982-3.083c0.926-0.323,1.804-0.137,2.089,0.224   c0.24,0.305,0.216,1.14-0.646,2.495c-0.534,0.835-0.29,1.947,0.547,2.48c0.843,0.534,1.951,0.287,2.48-0.551   c2.294-3.596,1.07-5.847,0.436-6.652c-1.276-1.613-3.657-2.167-5.953-1.416c0.754-3.2,1.449-6.224-1.463-9.136   c-0.702-0.702-1.839-0.702-2.54,0c-0.702,0.702-0.702,1.839,0,2.54c1.438,1.438,1.251,2.62,0.492,5.827   c-0.454,1.922-1.02,4.318-1.02,7.272c0,2.815,1.349,5.496,3.604,7.184c-2.255,1.69-3.604,4.369-3.604,7.184   c0,2.954,0.565,5.35,1.02,7.272c0.758,3.206,0.946,4.388-0.492,5.827c-0.702,0.702-0.702,1.839,0,2.54   c0.351,0.351,0.81,0.526,1.27,0.526s0.919-0.175,1.27-0.526c2.912-2.913,2.218-5.936,1.463-9.136   c2.296,0.747,4.676,0.193,5.953-1.417c0.633-0.803,1.858-3.056-0.436-6.652c-0.531-0.835-1.642-1.081-2.48-0.551   c-0.837,0.534-1.081,1.645-0.547,2.48c0.861,1.354,0.885,2.189,0.646,2.495c-0.286,0.361-1.163,0.547-2.089,0.224   c-0.596-0.207-1.982-0.922-1.982-3.083c0-1.725,0.798-3.308,2.189-4.335c1.395-1.031,3.197-1.323,4.94-0.782   c2.149,0.656,3.649,2.918,3.649,5.504c0,1.849-0.396,3.718-1.124,5.357c-0.116,0.242-2.861,5.929-3.567,8.047   c-1.398,4.192,0.023,6.301,0.993,7.181c0.829,0.754,1.898,1.151,2.989,1.151c0.619,0,1.247-0.13,1.839-0.389   c0.247-0.11,0.453-0.269,0.668-0.417c0.216,0.148,0.421,0.307,0.668,0.417c0.591,0.26,1.219,0.389,1.839,0.389   c1.089,0,2.159-0.396,2.989-1.151c0.97-0.88,2.391-2.989,0.993-7.181c-0.707-2.119-3.452-7.805-3.543-7.995   c-0.752-1.691-1.149-3.561-1.149-5.41c0-2.586,1.499-4.848,3.649-5.504c1.747-0.54,3.545-0.249,4.94,0.782   c1.391,1.028,2.189,2.61,2.189,4.335c0,2.161-1.385,2.876-1.982,3.083c-0.922,0.323-1.805,0.136-2.089-0.224   c-0.24-0.305-0.216-1.14,0.646-2.495c0.534-0.835,0.29-1.947-0.547-2.48c-0.839-0.526-1.945-0.281-2.48,0.551   c-2.294,3.596-1.07,5.847-0.436,6.652c1.276,1.61,3.657,2.164,5.953,1.417c-0.754,3.2-1.449,6.224,1.463,9.136   c0.351,0.351,0.81,0.526,1.27,0.526s0.919-0.175,1.27-0.526c0.702-0.702,0.702-1.839,0-2.54c-1.438-1.438-1.251-2.62-0.492-5.827   c0.454-1.922,1.02-4.318,1.02-7.272c0-2.815-1.349-5.496-3.604-7.184c2.255-1.69,3.604-4.369,3.604-7.184   c0-2.954-0.565-5.35-1.02-7.272c-0.758-3.206-0.946-4.388,0.492-5.827c0.702-0.702,0.702-1.839,0-2.54   c-0.702-0.702-1.839-0.702-2.54,0c-2.912,2.913-2.218,5.936-1.463,9.136c-2.296-0.75-4.676-0.198-5.953,1.416   c-0.633,0.803-1.858,3.056,0.436,6.652c0.534,0.835,1.637,1.081,2.48,0.551c0.837-0.534,1.081-1.645,0.547-2.48   c-0.861-1.354-0.885-2.189-0.646-2.495c0.284-0.361,1.167-0.547,2.089-0.224c0.596,0.207,1.982,0.922,1.982,3.083   c0,1.725-0.798,3.308-2.189,4.335c-1.395,1.031-3.199,1.326-4.94,0.782c-2.149-0.656-3.649-2.918-3.649-5.504   c0-1.849,0.396-3.718,1.149-5.41L82.655,285c0.967-2.176,1.458-4.487,1.458-6.869c0-3.064-1.394-5.862-3.586-7.571   c2.193-1.708,3.586-4.507,3.586-7.571c0-2.382-0.491-4.694-1.458-6.869l-11.762-26.465c-0.752-1.691-1.149-3.561-1.149-5.41   c0-2.586,1.499-4.848,3.649-5.504c1.747-0.54,3.545-0.249,4.94,0.782c1.391,1.028,2.189,2.61,2.189,4.336   c0,2.161-1.385,2.876-1.982,3.083c-0.922,0.327-1.805,0.137-2.089-0.224c-0.24-0.305-0.216-1.14,0.646-2.495   c0.534-0.835,0.29-1.947-0.547-2.48c-0.839-0.526-1.945-0.281-2.48,0.551c-2.294,3.596-1.07,5.848-0.436,6.652   c1.276,1.61,3.657,2.164,5.953,1.416c-0.754,3.2-1.449,6.224,1.463,9.136c0.351,0.351,0.81,0.526,1.27,0.526   s0.919-0.175,1.27-0.526c0.702-0.702,0.702-1.839,0-2.54c-1.438-1.438-1.251-2.62-0.492-5.827c0.454-1.922,1.02-4.318,1.02-7.272   c0-1.965-0.691-3.845-1.854-5.389h0.058c0.993,0,1.796-0.803,1.796-1.796s-0.803-1.796-1.796-1.796h-0.06   c1.163-1.544,1.854-3.422,1.854-5.388c0-2.954-0.565-5.35-1.02-7.272c-0.758-3.207-0.946-4.388,0.492-5.827   c0.702-0.702,0.702-1.839,0-2.54c-0.702-0.702-1.839-0.702-2.54,0c-2.912,2.912-2.218,5.936-1.463,9.136   c-2.296-0.747-4.676-0.194-5.953,1.416c-0.633,0.803-1.858,3.056,0.436,6.652c0.534,0.835,1.637,1.077,2.48,0.551   c0.837-0.534,1.081-1.645,0.547-2.48c-0.861-1.355-0.885-2.189-0.646-2.495c0.284-0.361,1.167-0.547,2.089-0.224   c0.596,0.207,1.982,0.922,1.982,3.083c0,1.725-0.798,3.308-2.189,4.335c-1.395,1.031-3.199,1.323-4.94,0.782   c-2.149-0.656-3.649-2.918-3.649-5.504c0-1.849,0.396-3.718,1.149-5.41l11.762-26.465c0.967-2.175,1.458-4.486,1.458-6.869   c0-3.064-1.394-5.863-3.586-7.571c2.193-1.708,3.586-4.507,3.586-7.571c0-2.382-0.491-4.694-1.458-6.869L70.89,121.884   c-0.752-1.691-1.149-3.561-1.149-5.409c0-2.586,1.499-4.848,3.649-5.504c1.747-0.54,3.545-0.249,4.94,0.782   c1.391,1.028,2.189,2.61,2.189,4.336c0,2.161-1.385,2.877-1.982,3.083c-0.922,0.322-1.805,0.133-2.089-0.225   c-0.24-0.305-0.216-1.14,0.646-2.495c0.534-0.835,0.29-1.947-0.547-2.48c-0.839-0.526-1.945-0.284-2.48,0.551   c-2.294,3.596-1.07,5.848-0.436,6.652c1.276,1.61,3.657,2.164,5.953,1.416c-0.754,3.2-1.449,6.224,1.463,9.136   c0.351,0.351,0.81,0.526,1.27,0.526s0.919-0.175,1.27-0.526c0.702-0.702,0.702-1.839,0-2.54c-1.438-1.438-1.251-2.62-0.492-5.827   c0.454-1.922,1.02-4.318,1.02-7.272c0-1.965-0.691-3.845-1.854-5.388h0.058c0.993,0,1.796-0.803,1.796-1.796   c0-0.992-0.803-1.796-1.796-1.796h-0.058c1.163-1.544,1.854-3.422,1.854-5.389C84.114,98.765,83.548,96.369,83.094,94.447z    M64.866,86.793c-0.638-1.916-0.416-3.006,0.005-3.389c0.276-0.26,0.693-0.249,0.956-0.13c0.324,0.144,0.324,0.372,0.324,0.484   c0,0.993,0.803,1.796,1.796,1.796s1.796-0.803,1.796-1.796c0-0.112,0-0.34,0.324-0.484c0.26-0.119,0.674-0.13,0.956,0.13   c0.421,0.383,0.643,1.473,0.005,3.389c-0.465,1.389-2.145,5.003-3.081,6.966C67.033,91.842,65.334,88.191,64.866,86.793z    M67.948,160.903c0.516,0.701,1.099,1.352,1.808,1.884c-0.709,0.532-1.292,1.182-1.808,1.884c-0.516-0.702-1.099-1.352-1.808-1.884   C66.849,162.256,67.432,161.605,67.948,160.903z M67.948,268.671c0.516,0.702,1.099,1.353,1.808,1.884   c-0.709,0.531-1.292,1.182-1.808,1.884c-0.516-0.702-1.099-1.353-1.808-1.884C66.849,270.023,67.432,269.372,67.948,268.671z    M71.03,346.55c0.638,1.916,0.415,3.006-0.005,3.389c-0.282,0.256-0.696,0.245-0.956,0.13c-0.324-0.144-0.324-0.372-0.324-0.484   c0-0.993-0.803-1.796-1.796-1.796s-1.796,0.803-1.796,1.796c0,0.112,0,0.34-0.324,0.484c-0.263,0.116-0.68,0.127-0.956-0.13   c-0.421-0.383-0.643-1.474-0.005-3.389c0.465-1.389,2.145-5.003,3.081-6.966C68.863,341.5,70.562,345.151,71.03,346.55z    M69.738,324.439c-0.679,0.529-1.283,1.162-1.79,1.878c-0.507-0.715-1.111-1.348-1.79-1.878c0.68-0.529,1.283-1.162,1.79-1.878   C68.455,323.277,69.059,323.91,69.738,324.439z M79.372,283.534l-11.424,25.703l-11.424-25.703   c-0.752-1.691-1.149-3.561-1.149-5.41c0-2.586,1.499-4.848,3.649-5.504c1.746-0.54,3.547-0.249,4.94,0.782   c1.391,1.028,2.189,2.61,2.189,4.335c0,2.161-1.385,2.877-1.982,3.083c-0.927,0.323-1.807,0.137-2.089-0.224   c-0.241-0.305-0.216-1.14,0.646-2.495c0.534-0.835,0.29-1.947-0.547-2.48c-0.838-0.526-1.945-0.281-2.48,0.551   c-2.294,3.596-1.07,5.847-0.436,6.652c1.3,1.642,3.747,2.206,6.086,1.389c0.267-0.093,0.537-0.207,0.803-0.342v4.542   c0-0.001-0.003-0.003-0.003-0.003c-0.055-0.946-0.837-1.693-1.793-1.693c-0.993,0-1.796,0.803-1.796,1.796   c0,1.172,0.82,3.204,3.593,3.833v3.351c0,0.993,0.803,1.796,1.796,1.796s1.796-0.803,1.796-1.796v-3.351   c2.773-0.63,3.593-2.662,3.593-3.833c0-0.993-0.802-1.855-1.793-1.855c-0.992,0-1.793,0.744-1.793,1.736   c-0.001,0.003-0.006,0.007-0.007,0.011v-4.535c0.267,0.135,0.537,0.249,0.803,0.342c2.34,0.818,4.786,0.253,6.086-1.389   c0.633-0.803,1.858-3.056-0.436-6.652c-0.534-0.835-1.642-1.081-2.48-0.551c-0.837,0.534-1.081,1.645-0.547,2.48   c0.861,1.355,0.885,2.189,0.646,2.495c-0.284,0.361-1.164,0.547-2.089,0.224c-0.596-0.207-1.982-0.922-1.982-3.083   c0-1.725,0.798-3.308,2.189-4.335c1.395-1.031,3.2-1.326,4.94-0.782c2.149,0.656,3.649,2.918,3.649,5.504   C80.521,279.975,80.125,281.844,79.372,283.534z M79.372,257.576c0.752,1.691,1.149,3.561,1.149,5.41   c0,2.586-1.499,4.848-3.649,5.504c-1.743,0.544-3.546,0.249-4.94-0.782c-1.391-1.028-2.189-2.61-2.189-4.336   c0-2.161,1.386-2.876,1.982-3.083c0.925-0.322,1.805-0.137,2.089,0.224c0.241,0.305,0.216,1.14-0.646,2.495   c-0.534,0.835-0.29,1.947,0.547,2.48c0.843,0.534,1.951,0.287,2.48-0.551c2.294-3.596,1.07-5.849,0.436-6.652   c-1.302-1.642-3.747-2.2-6.086-1.389c-0.267,0.093-0.537,0.207-0.803,0.342v-4.542l0.003,0.005   c0.054,0.944,0.837,1.691,1.792,1.691c0.993,0,1.796-0.803,1.796-1.796c0-1.172-0.82-3.204-3.593-3.833v-3.351   c0-0.993-0.803-1.796-1.796-1.796s-1.796,0.803-1.796,1.796v3.351c-2.773,0.63-3.593,2.662-3.593,3.833   c0,0.993,0.802,1.855,1.793,1.855c0.992,0,1.792-0.744,1.792-1.736c0.001-0.003,0.006-0.007,0.006-0.007l0.001,4.531   c-0.266-0.135-0.536-0.25-0.803-0.342c-2.339-0.81-4.787-0.253-6.086,1.389c-0.633,0.803-1.858,3.056,0.436,6.652   c0.534,0.835,1.642,1.077,2.48,0.551c0.837-0.534,1.081-1.645,0.547-2.48c-0.861-1.354-0.885-2.189-0.646-2.495   c0.282-0.361,1.162-0.547,2.089-0.224c0.596,0.207,1.982,0.922,1.982,3.083c0,1.725-0.798,3.308-2.189,4.336   c-1.395,1.031-3.196,1.326-4.94,0.782c-2.149-0.656-3.649-2.918-3.649-5.504c0-1.849,0.396-3.718,1.149-5.41l11.424-25.703   L79.372,257.576z M69.738,216.671c-0.679,0.529-1.283,1.162-1.79,1.878c-0.507-0.715-1.111-1.348-1.79-1.878   c0.68-0.529,1.283-1.162,1.79-1.878C68.455,215.509,69.059,216.142,69.738,216.671z M79.372,175.767L67.948,201.47l-11.424-25.703   c-0.752-1.691-1.149-3.561-1.149-5.409c0-2.586,1.499-4.848,3.649-5.504c1.746-0.54,3.547-0.249,4.94,0.782   c1.391,1.028,2.189,2.61,2.189,4.336c0,2.161-1.385,2.876-1.982,3.083c-0.927,0.327-1.807,0.136-2.089-0.225   c-0.241-0.305-0.216-1.14,0.646-2.495c0.534-0.835,0.29-1.947-0.547-2.48c-0.838-0.529-1.945-0.284-2.48,0.551   c-2.294,3.596-1.07,5.848-0.436,6.652c1.3,1.642,3.747,2.203,6.086,1.389c0.267-0.093,0.537-0.207,0.803-0.342v4.542l-0.003-0.005   c-0.054-0.944-0.837-1.691-1.792-1.691c-0.993,0-1.796,0.803-1.796,1.796c0,1.172,0.82,3.204,3.593,3.833v3.351   c0,0.993,0.803,1.796,1.796,1.796s1.796-0.803,1.796-1.796v-3.351c2.773-0.63,3.593-2.662,3.593-3.833   c0-0.992-0.802-1.855-1.793-1.855c-0.992,0-1.793,0.744-1.793,1.736c-0.001,0.003-0.006,0.007-0.006,0.007l-0.001-4.531   c0.267,0.135,0.537,0.249,0.803,0.342c2.34,0.814,4.786,0.253,6.086-1.389c0.633-0.803,1.858-3.056-0.436-6.652   c-0.534-0.839-1.642-1.084-2.48-0.551c-0.837,0.534-1.081,1.645-0.547,2.48c0.861,1.355,0.885,2.189,0.646,2.495   c-0.284,0.361-1.164,0.551-2.089,0.225c-0.596-0.207-1.982-0.922-1.982-3.083c0-1.725,0.798-3.308,2.189-4.336   c1.395-1.031,3.199-1.323,4.94-0.782c2.149,0.656,3.649,2.918,3.649,5.504C80.521,172.207,80.125,174.076,79.372,175.767z    M79.372,149.807c0.752,1.691,1.149,3.561,1.149,5.409c0,2.586-1.499,4.848-3.649,5.504c-1.743,0.544-3.546,0.249-4.94-0.782   c-1.391-1.028-2.189-2.61-2.189-4.336c0-2.161,1.386-2.876,1.982-3.083c0.925-0.322,1.805-0.137,2.089,0.225   c0.241,0.305,0.216,1.14-0.646,2.494c-0.534,0.835-0.29,1.947,0.547,2.48c0.843,0.529,1.951,0.287,2.48-0.551   c2.294-3.596,1.07-5.848,0.436-6.652c-1.302-1.642-3.747-2.203-6.086-1.389c-0.267,0.093-0.537,0.207-0.803,0.342v-4.542   c0.001,0.001,0.003,0.003,0.003,0.003c0.055,0.946,0.837,1.693,1.793,1.693c0.993,0,1.796-0.803,1.796-1.796   c0-1.172-0.82-3.204-3.593-3.833v-3.351c0-0.993-0.803-1.796-1.796-1.796s-1.796,0.803-1.796,1.796v3.351   c-2.773,0.63-3.593,2.662-3.593,3.833c0,0.993,0.802,1.855,1.793,1.855c0.992,0,1.792-0.744,1.792-1.736   c0.001-0.003,0.006-0.007,0.007-0.011v4.535c-0.266-0.135-0.536-0.25-0.803-0.342c-2.339-0.814-4.787-0.253-6.086,1.389   c-0.633,0.803-1.858,3.056,0.436,6.652c0.534,0.835,1.642,1.077,2.48,0.551c0.837-0.534,1.081-1.645,0.547-2.48   c-0.861-1.354-0.885-2.189-0.646-2.494c0.282-0.361,1.162-0.547,2.089-0.225c0.596,0.207,1.982,0.922,1.982,3.083   c0,1.725-0.798,3.308-2.189,4.336c-1.395,1.031-3.196,1.326-4.94,0.782c-2.149-0.656-3.649-2.918-3.649-5.504   c0-1.849,0.396-3.718,1.149-5.409l11.424-25.703L79.372,149.807z M66.158,108.904c0.68-0.529,1.283-1.162,1.79-1.878   c0.507,0.715,1.111,1.348,1.79,1.878c-0.679,0.529-1.283,1.162-1.79,1.878C67.441,110.065,66.838,109.432,66.158,108.904z"/>
	<path style="fill:#FFE15A;" d="M326.495,193.231c1.3,25.653-19.773,46.726-45.425,45.425c-21.965-1.113-39.813-18.96-40.926-40.926   c-1.3-25.653,19.773-46.726,45.425-45.425C307.533,153.418,325.381,171.266,326.495,193.231z"/>
	<path style="fill:#FFE15A;" d="M286.561,140.359c0,1.791-1.452,3.243-3.243,3.243c-1.791,0-3.243-1.452-3.243-3.243   s3.243-9.727,3.243-9.727S286.561,138.568,286.561,140.359z"/>
	<path style="fill:#FFE15A;" d="M280.077,250.602c0-1.791,1.452-3.243,3.243-3.243c1.791,0,3.243,1.452,3.243,3.243   s-3.243,9.727-3.243,9.727S280.077,252.392,280.077,250.602z"/>
	<path style="fill:#FFE15A;" d="M338.44,198.722c-1.791,0-3.243-1.452-3.243-3.243s1.452-3.243,3.243-3.243s9.727,3.243,9.727,3.243   S340.231,198.722,338.44,198.722z"/>
	<path style="fill:#FFE15A;" d="M228.197,192.238c1.791,0,3.243,1.452,3.243,3.243s-1.452,3.243-3.243,3.243   s-9.727-3.243-9.727-3.243S226.407,192.238,228.197,192.238z"/>
	<path style="fill:#FFE15A;" d="M324.588,158.796c-1.266,1.266-3.319,1.266-4.586,0c-1.266-1.266-1.266-3.319,0-4.586   c1.266-1.266,9.171-4.586,9.171-4.586S325.854,157.53,324.588,158.796z"/>
	<path style="fill:#FFE15A;" d="M242.049,232.165c1.266-1.266,3.319-1.266,4.586,0c1.266,1.266,1.266,3.319,0,4.586   c-1.266,1.266-9.172,4.586-9.172,4.586S240.783,233.431,242.049,232.165z"/>
	<path style="fill:#FFE15A;" d="M320.003,236.75c-1.266-1.266-1.266-3.319,0-4.586c1.266-1.266,3.319-1.266,4.586,0   c1.266,1.266,4.586,9.171,4.586,9.171S321.268,238.017,320.003,236.75z"/>
	<path style="fill:#FFE15A;" d="M246.635,154.21c1.266,1.266,1.266,3.319,0,4.586c-1.266,1.266-3.319,1.266-4.586,0   c-1.266-1.266-4.586-9.171-4.586-9.171S245.368,152.945,246.635,154.21z"/>
	<path style="fill:#FFE15A;" d="M265.22,143.314c0.686,1.655-0.1,3.551-1.755,4.236s-3.551-0.1-4.236-1.755   s-0.727-10.227-0.727-10.227S264.534,141.66,265.22,143.314z"/>
	<path style="fill:#FFE15A;" d="M301.417,247.647c-0.686-1.655,0.1-3.551,1.755-4.236c1.655-0.686,3.551,0.1,4.236,1.755   s0.727,10.228,0.727,10.228S302.102,249.301,301.417,247.647z"/>
	<path style="fill:#FFE15A;" d="M335.486,177.381c-1.655,0.686-3.551-0.1-4.236-1.755c-0.686-1.655,0.1-3.551,1.755-4.236   c1.655-0.686,10.228-0.727,10.228-0.727S337.139,176.697,335.486,177.381z"/>
	<path style="fill:#FFE15A;" d="M231.152,213.579c1.655-0.685,3.551,0.1,4.236,1.755c0.686,1.655-0.1,3.551-1.755,4.236   c-1.655,0.686-10.227,0.727-10.227,0.727S229.497,214.264,231.152,213.579z"/>
	<path style="fill:#FFE15A;" d="M307.409,145.795c-0.686,1.655-2.582,2.44-4.236,1.755c-1.655-0.686-2.44-2.582-1.755-4.236   c0.685-1.655,6.718-7.746,6.718-7.746S308.093,144.141,307.409,145.795z"/>
	<path style="fill:#FFE15A;" d="M259.229,245.165c0.686-1.655,2.582-2.44,4.236-1.755c1.655,0.686,2.44,2.582,1.755,4.236   c-0.685,1.655-6.718,7.746-6.718,7.746S258.543,246.819,259.229,245.165z"/>
	<path style="fill:#FFE15A;" d="M333.004,219.57c-1.655-0.685-2.44-2.582-1.755-4.236c0.686-1.655,2.582-2.44,4.236-1.755   c1.655,0.686,7.746,6.718,7.746,6.718S334.658,220.256,333.004,219.57z"/>
	<path style="fill:#FFE15A;" d="M233.634,171.39c1.655,0.686,2.44,2.582,1.755,4.236c-0.685,1.655-2.582,2.44-4.236,1.755   c-1.655-0.685-7.746-6.718-7.746-6.718S231.979,170.706,233.634,171.39z"/>
	<path style="fill:#FFE15A;" d="M275.745,140.786c0.35,1.756-0.791,3.464-2.548,3.812c-1.756,0.349-3.464-0.791-3.812-2.548   c-0.35-1.756,1.283-10.173,1.283-10.173S275.396,139.029,275.745,140.786z"/>
	<path style="fill:#FFE15A;" d="M290.892,250.175c-0.35-1.756,0.791-3.464,2.548-3.812c1.756-0.35,3.464,0.791,3.812,2.548   c0.35,1.756-1.283,10.173-1.283,10.173S291.242,251.931,290.892,250.175z"/>
	<path style="fill:#FFE15A;" d="M338.014,187.907c-1.756,0.35-3.464-0.791-3.812-2.548c-0.35-1.756,0.791-3.464,2.548-3.812   c1.756-0.35,10.173,1.283,10.173,1.283S339.77,187.558,338.014,187.907z"/>
	<path style="fill:#FFE15A;" d="M228.624,203.053c1.756-0.35,3.464,0.791,3.812,2.548c0.35,1.756-0.791,3.464-2.548,3.812   c-1.756,0.349-10.173-1.283-10.173-1.283S226.867,203.403,228.624,203.053z"/>
	<path style="fill:#FFE15A;" d="M316.638,151.449c-0.995,1.489-3.008,1.889-4.497,0.895c-1.489-0.995-1.889-3.008-0.895-4.497   c0.995-1.489,8.1-6.287,8.1-6.287S317.634,149.961,316.638,151.449z"/>
	<path style="fill:#FFE15A;" d="M249.998,239.511c0.995-1.489,3.008-1.889,4.497-0.895s1.889,3.008,0.895,4.497   c-0.995,1.489-8.1,6.287-8.1,6.287S249.004,240.999,249.998,239.511z"/>
	<path style="fill:#FFE15A;" d="M327.349,228.801c-1.489-0.995-1.889-3.008-0.895-4.497c0.995-1.489,3.008-1.889,4.497-0.895   s6.287,8.1,6.287,8.1S328.838,229.795,327.349,228.801z"/>
	<path style="fill:#FFE15A;" d="M239.288,162.161c1.489,0.995,1.889,3.008,0.895,4.497c-0.995,1.489-3.008,1.889-4.497,0.895   c-1.489-0.995-6.287-8.1-6.287-8.1S237.799,161.165,239.288,162.161z"/>
	<path style="fill:#FFE15A;" d="M255.391,147.847c0.995,1.489,0.595,3.503-0.895,4.497c-1.489,0.995-3.503,0.595-4.497-0.895   c-0.994-1.489-2.708-9.889-2.708-9.889S254.396,146.359,255.391,147.847z"/>
	<path style="fill:#FFE15A;" d="M311.246,243.114c-0.995-1.489-0.595-3.503,0.895-4.497c1.489-0.995,3.503-0.595,4.497,0.895   c0.994,1.489,2.708,9.889,2.708,9.889S312.242,244.603,311.246,243.114z"/>
	<path style="fill:#FFE15A;" d="M330.952,167.553c-1.489,0.994-3.503,0.595-4.497-0.895c-0.994-1.489-0.595-3.503,0.895-4.497   c1.489-0.995,9.889-2.708,9.889-2.708S332.441,166.557,330.952,167.553z"/>
	<path style="fill:#FFE15A;" d="M235.685,223.409c1.489-0.995,3.503-0.595,4.497,0.895c0.994,1.489,0.595,3.503-0.895,4.497   c-1.489,0.995-9.889,2.708-9.889,2.708S234.196,224.403,235.685,223.409z"/>
	<path style="fill:#FFE15A;" d="M297.252,142.051c-0.35,1.756-2.056,2.897-3.812,2.548c-1.756-0.35-2.897-2.056-2.548-3.812   c0.35-1.756,5.078-8.907,5.078-8.907S297.602,140.294,297.252,142.051z"/>
	<path style="fill:#FFE15A;" d="M269.384,248.91c0.35-1.756,2.056-2.897,3.812-2.548c1.756,0.35,2.897,2.056,2.548,3.812   c-0.35,1.756-5.078,8.907-5.078,8.907S269.036,250.667,269.384,248.91z"/>
	<path style="fill:#FFE15A;" d="M336.748,209.414c-1.756-0.35-2.897-2.056-2.548-3.812c0.35-1.756,2.056-2.897,3.812-2.548   c1.756,0.35,8.907,5.078,8.907,5.078S338.505,209.763,336.748,209.414z"/>
	<path style="fill:#FFE15A;" d="M229.888,181.547c1.756,0.35,2.897,2.056,2.548,3.812c-0.35,1.756-2.056,2.897-3.812,2.548   s-8.907-5.078-8.907-5.078S228.132,181.197,229.888,181.547z"/>
	<path style="fill:#FFE15A;" d="M385.009,206.855c-1.266-0.533-2.715,0.077-3.242,1.337c0,0.005,0,0.005,0,0.005   c-0.01,0.024-0.058,0.141-0.143,0.339c-1.873,4.378-5.75,10.775-9.665,16.793c3.646-11.738,6.98-24.274,7.213-25.155   c0.349-1.318-0.431-2.668-1.746-3.026c-1.317-0.354-2.67,0.411-3.039,1.723c-1.702,6.097-5.182,14.12-8.392,20.914   c0.589-7.573,0.699-14.59,0.707-15.098c0.019-1.341-1.031-2.45-2.373-2.514c-1.262,0.039-2.479,0.958-2.578,2.3   c-3.174,43.668-45.193,63.202-49.285,64.998c-2.14,0.213-12.11,1.337-21.16,4.479c-1.027,0.357-1.9,0.713-2.771,1.067   c-0.323-0.12-0.67-0.189-1.036-0.167c-27.776,2.01-49.922-9.384-65.838-33.794c-12.026-18.445-15.798-37.803-15.835-37.998   c-0.255-1.346-1.543-2.213-2.896-1.976c-1.346,0.257-2.23,1.55-1.976,2.896c0.1,0.535,1.755,8.985,6.313,20.106   c-6.098-9.626-10.348-21.287-11.843-27.36c-0.03-0.122-0.108-0.213-0.153-0.325c-0.07-0.172-0.129-0.343-0.231-0.492   c-0.073-0.106-0.168-0.183-0.256-0.274c-0.135-0.143-0.265-0.283-0.431-0.39c-0.095-0.061-0.201-0.092-0.303-0.139   c-0.184-0.086-0.362-0.169-0.565-0.207c-0.141-0.027-0.285-0.01-0.431-0.012c-0.148-0.002-0.288-0.04-0.441-0.014   c-0.034,0.005-0.059,0.027-0.092,0.035c-0.032,0.006-0.062-0.004-0.095,0.003c-0.133,0.033-0.234,0.115-0.356,0.167   c-0.155,0.067-0.313,0.117-0.449,0.211c-0.133,0.092-0.232,0.211-0.344,0.326c-0.111,0.114-0.227,0.215-0.314,0.347   c-0.089,0.134-0.136,0.284-0.198,0.433c-0.06,0.145-0.129,0.281-0.161,0.438c-0.033,0.161-0.018,0.325-0.017,0.492   c0,0.134-0.036,0.261-0.014,0.398c0.01,0.058,0.029,0.117,0.038,0.175v0.008c0.003,0.011,0.006,0.024,0.01,0.035   c1.533,9.036,5.189,18.403,8.493,25.546c-5.249-5.956-9.633-12.818-11.188-16.881c-0.045-0.118-0.135-0.201-0.195-0.307   c-0.092-0.165-0.172-0.332-0.297-0.467c-0.088-0.096-0.195-0.16-0.296-0.24c-0.15-0.122-0.294-0.244-0.468-0.327   c-0.112-0.053-0.232-0.07-0.352-0.107c-0.183-0.056-0.36-0.116-0.555-0.127c-0.153-0.011-0.304,0.029-0.46,0.049   c-0.143,0.018-0.284,0-0.427,0.044c-0.027,0.008-0.045,0.031-0.073,0.04c-0.026,0.008-0.054,0.004-0.08,0.014   c-0.135,0.052-0.23,0.151-0.351,0.222c-0.142,0.085-0.292,0.152-0.412,0.261c-0.124,0.111-0.208,0.247-0.305,0.379   c-0.092,0.125-0.195,0.236-0.262,0.374c-0.071,0.145-0.097,0.302-0.138,0.459c-0.04,0.152-0.095,0.295-0.106,0.455   c-0.012,0.16,0.029,0.319,0.05,0.482c0.018,0.139-0.001,0.279,0.042,0.418c2.698,8.701,9.185,19.054,14.268,26.347   c-4.235-3.264-7.348-6.794-8.251-7.859c-0.097-0.116-0.193-0.232-0.291-0.349c-0.874-1.05-2.419-1.201-3.476-0.343   c-1.056,0.862-1.22,2.411-0.368,3.472c0.046,0.058,0.232,0.291,0.542,0.654c3.719,4.426,7.772,8.557,11.442,12.042l-5.021-2.141   c-1.145-0.493-2.492-0.049-3.118,1.041c-0.628,1.089-0.343,2.469,0.66,3.225c0.489,0.363,9.382,7.007,17.082,10.934   c-0.726,0.043-1.579-0.01-2.533-0.082c-1.164-0.111-2.31,0.722-2.593,1.903c-0.279,1.187,0.341,2.396,1.468,2.861   c0.189,0.077,2.535,1.046,5.433,2.077c-0.675,0.276-1.213,0.842-1.436,1.579c-0.334,1.099,0.135,2.291,1.133,2.861   c0.259,0.15,3.765,2.16,8.101,3.941c-0.116,0.18-0.21,0.373-0.281,0.586c-0.339,1.041,0.049,2.184,0.952,2.809   c0.753,0.518,17.592,11.946,37.259,11.946c1.29,0,2.595-0.049,3.907-0.155c1.363-0.107,2.383-1.303,2.274-2.668   s-1.293-2.398-2.67-2.271c-12.355,1.007-24.257-3.632-31.337-7.177c0.934-0.227,1.472-0.436,1.605-0.489   c1.092-0.446,1.721-1.593,1.509-2.75c-0.213-1.157-1.211-2.004-2.39-2.029c-2.874-0.058-6.854-1.457-10.282-2.959   c1.295-0.649,2.051-1.269,2.119-1.322c0.746-0.624,1.061-1.622,0.806-2.561c-0.257-0.934-1.037-1.637-1.995-1.792   c-1.053-0.174-2.366-0.514-3.74-0.93c1.337-0.77,1.905-1.618,2.123-2.048c0.343-0.688,0.351-1.491,0.022-2.184   c-0.332-0.692-0.964-1.191-1.714-1.351c-0.649-0.141-1.382-0.377-2.177-0.688c0.145-0.145,0.279-0.31,0.388-0.499   c0.632-1.07,0.371-2.445-0.61-3.215c-0.051-0.039-1.976-1.549-4.888-4.063c0.463-0.169,0.872-0.484,1.167-0.911   c0.624-0.9,0.581-2.106-0.105-2.959c-0.055-0.069-1.982-2.492-4.638-6.171c0.876,0.682,1.754,1.377,2.628,1.939   c0.411,0.261,0.879,0.392,1.341,0.392c0.628,0,1.247-0.238,1.724-0.697c0.197-0.189,0.35-0.408,0.47-0.64   c1.504,1.607,3.084,3.065,4.745,4.311c0.217,0.163,0.479,0.158,0.722,0.24c0.703,1.178,1.436,2.361,2.203,3.542   c15.055,23.165,36.283,35.573,61.744,36.318c-2.345,1.423-4.889,2.895-8.919,4.464c-0.879,0.342-1.657,0.687-2.439,1.03   c-0.377,0.074-0.731,0.21-1.026,0.444c-7.033,3.257-9.945,6.473-11.127,8.724c-1.179,2.237-0.163,4.532,1.279,5.724   c0.448,0.368,1.016,0.557,1.588,0.557c0.392,0,0.784-0.087,1.14-0.266c0.876-0.435,1.462-1.361,1.423-2.334   c0.101-0.111,0.533-0.469,1.884-0.514c0.986-0.082,3.058,0.141,5.477,0.334c2.301,0.189,5.061,0.405,7.996,0.556   c-1.835,2.141-3.97,4.621-3.97,4.621c-0.641,0.746-0.782,1.802-0.356,2.687c0.429,0.891,1.351,1.443,2.319,1.41   c1.959-0.068,3.29-0.107,4.164-0.126c0.763,0.997,1.697,1.395,2.3,1.549c1.704,0.435,3.404-0.247,4.685-1.056   c0.969,0.697,1.937,0.992,2.704,1.104c1.731,0.238,3.334-0.266,4.494-0.838c1.201,0.775,2.377,0.973,3.273,0.973   c0.013,0,0.026,0,0.041,0c1.935-0.01,3.626-0.945,4.826-1.86c1.058,0.63,2.07,0.833,2.852,0.866   c1.775,0.063,3.247-0.62,4.225-1.258c3.493,0.702,6.506-0.945,8.495-2.76c0.908,0.528,1.772,0.658,2.46,0.624   c1.77-0.063,3.118-1.138,3.982-2.102c3.961,0.48,6.804-0.251,8.448-2.203c0.896-1.061,1.258-2.256,1.358-3.346   c10.99-0.063,11.984-6.062,12.065-6.804c0.073-0.673-0.133-1.346-0.572-1.864c-0.435-0.518-1.067-0.838-1.743-0.876l-28.811-1.734   c-1.206-0.088-2.28,0.722-2.561,1.898c-0.005,0.019-0.497,1.85-2.034,3.313c-2.068,1.975-5.398,3.018-9.02,3.57   c0.014-0.332-0.034-0.67-0.161-0.999c-0.493-1.279-1.932-1.898-3.206-1.419c-5.948,2.308-15.578,2.018-23.113,1.493   c1.156-0.945,2.547-1.88,3.659-2.49c0.939-0.518,1.443-1.579,1.245-2.634c-0.145-0.766-0.698-1.3-1.367-1.643   c2.095-1.058,3.812-2.079,5.443-3.073c2.828-1.734,5.501-3.365,10.368-5.055c9.395-3.264,20.265-4.256,20.374-4.266   c0.247-0.019,0.489-0.082,0.72-0.174c0.388-0.16,31.051-13.006,45.498-42.646c-0.189,0.896-0.392,1.714-0.613,2.431   c-0.377,1.22,0.232,2.523,1.41,3.017c0.911,0.382,1.944,0.184,2.644-0.465c-0.913,2.407-1.738,4.299-2.411,5.418   c-0.688,1.138-0.356,2.615,0.75,3.351c0.259,0.169,0.538,0.285,0.823,0.354c-1.119,1.637-2.252,3.186-3.382,4.605   c-0.753,0.945-0.709,2.291,0.077,3.182c-1.942,2.034-3.663,3.709-4.97,4.775c-0.855,0.692-1.133,1.85-0.741,2.838   c-1.262,0.722-2.297,1.23-3.017,1.448c-1.206,0.363-1.946,1.579-1.719,2.818c0.118,0.654,0.487,1.206,0.995,1.569   c-1.515,0.407-3.174,0.799-4.976,1.157c-1.014,0.203-1.796,1.012-1.963,2.034c-0.165,1.022,0.319,2.038,1.217,2.552   c0.077,0.043,0.925,0.523,2.22,1.075c-4.796,1.933-13.36,4.455-27.412,5.84c-1.361,0.135-2.358,1.351-2.223,2.711   c0.133,1.361,1.31,2.305,2.711,2.227c26.676-2.639,34.913-9.316,35.249-9.603c0.77-0.643,1.075-1.695,0.77-2.653   c-0.204-0.634-0.649-1.147-1.22-1.443c8.523-2.683,12.181-5.651,12.372-5.81c0.934-0.775,1.17-2.116,0.555-3.167   c-0.62-1.05-1.91-1.506-3.036-1.05c-0.317,0.122-0.823,0.247-1.462,0.373c5.719-3.917,11.791-8.581,14.461-10.663   c0.47-0.349,0.896-0.683,1.271-0.997c1.037-0.872,1.181-2.411,0.326-3.463c-0.85-1.046-2.396-1.22-3.457-0.383   c-0.388,0.305-0.789,0.62-1.206,0.945c-1.232,0.915-2.809,1.952-4.528,3.017c6.491-7.37,13.026-15.359,14.892-17.655   c0.169-0.208,0.336-0.416,0.506-0.624c0.857-1.065,0.69-2.625-0.375-3.482c-1.067-0.872-2.629-0.692-3.484,0.368l-0.005,0.005   l-0.002,0.005c-0.045,0.053-0.257,0.315-0.61,0.75c-1.956,2.387-4.014,4.697-6.046,6.857c6.612-11.984,11.619-23.781,12.353-25.528   c0.026-0.062,0.051-0.126,0.077-0.189C386.871,208.831,386.273,207.378,385.009,206.855z M268.806,290.428l0.677,0.088   c-0.831,0.776-1.506,1.646-2.044,2.544c-1.178-0.095-2.245-0.177-3.082-0.216C265.512,292.091,266.996,291.273,268.806,290.428z"/>
</g>
<path style="fill:#2E3033;" d="M19.152,488.46L19.152,488.46C8.575,488.46,0,479.885,0,469.309V42.534  C0,32.044,8.504,23.54,18.994,23.54h0.157c10.577,0,19.152,8.575,19.152,19.152V469.31C38.303,479.885,29.728,488.46,19.152,488.46z  "/>
<g>
</g>
<g>
</g>
<g>
</g>
<g>
</g>
<g>
</g>
<g>
</g>
<g>
</g>
<g>
</g>
<g>
</g>
<g>
</g>
<g>
</g>
<g>
</g>
<g>
</g>
<g>
</g>
<g>
</g>
</svg>
