<?xml version="1.0" encoding="iso-8859-1"?>
<!-- Generator: Adobe Illustrator 19.0.0, SVG Export Plug-In . SVG Version: 6.00 Build 0)  -->
<svg xmlns="http://www.w3.org/2000/svg" xmlns:xlink="http://www.w3.org/1999/xlink" version="1.1" id="Layer_1" x="0px" y="0px" viewBox="0 0 512 512" style="enable-background:new 0 0 512 512;" xml:space="preserve">
<g>
	<path style="fill:#FF4B55;" d="M512,123.515H27.43V65.118c0-4.661,3.779-8.44,8.44-8.44h467.69c4.661,0,8.44,3.779,8.44,8.44   V123.515z"/>
	<path style="fill:#FF4B55;" d="M503.56,374.155H35.87c-4.661,0-8.44-3.779-8.44-8.44v-58.398H512v58.398   C512,370.376,508.222,374.155,503.56,374.155z"/>
</g>
<rect x="27.43" y="123.518" style="fill:#41479B;" width="484.57" height="183.8"/>
<path style="fill:#F5F5F5;" d="M336.518,213.229c1.233,38.643-30.347,70.223-68.99,68.99c-34.996-1.117-63.498-29.619-64.615-64.615  c-1.233-38.643,30.347-70.223,68.99-68.99C306.898,149.731,335.401,178.233,336.518,213.229z"/>
<path style="fill:#2E3033;" d="M19.122,488.101L19.122,488.101C8.561,488.101,0,479.539,0,468.979V42.864  C0,32.39,8.491,23.899,18.965,23.899h0.157c10.561,0,19.122,8.561,19.122,19.122v425.958  C38.244,479.539,29.683,488.101,19.122,488.101z"/>
<g>
</g>
<g>
</g>
<g>
</g>
<g>
</g>
<g>
</g>
<g>
</g>
<g>
</g>
<g>
</g>
<g>
</g>
<g>
</g>
<g>
</g>
<g>
</g>
<g>
</g>
<g>
</g>
<g>
</g>
</svg>
