<?xml version="1.0" encoding="iso-8859-1"?>
<!-- Generator: Adobe Illustrator 19.0.0, SVG Export Plug-In . SVG Version: 6.00 Build 0)  -->
<svg xmlns="http://www.w3.org/2000/svg" xmlns:xlink="http://www.w3.org/1999/xlink" version="1.1" id="Layer_1" x="0px" y="0px" viewBox="0 0 512 512" style="enable-background:new 0 0 512 512;" xml:space="preserve">
<g>
	<path style="fill:#FF4B55;" d="M512,123.309H26.68V64.821c0-4.668,3.785-8.453,8.453-8.453h468.414   c4.668,0,8.453,3.785,8.453,8.453V123.309z"/>
	<path style="fill:#FF4B55;" d="M503.547,374.337H35.133c-4.668,0-8.453-3.785-8.453-8.453v-58.488H512v58.488   C512,370.552,508.216,374.337,503.547,374.337z"/>
</g>
<rect x="26.68" y="123.307" style="fill:#F5F5F5;" width="485.32" height="184.09"/>
<path style="fill:#73AF00;" d="M287.219,271.638l77.33-15.466c5.581-1.116,8.073-7.685,4.635-12.221l0,0  c-1.207-1.593-2.985-2.655-4.96-2.964l-82.382-12.844c-2.277-0.355-3.889-2.493-3.507-4.857c0.371-2.289,2.69-3.746,4.988-3.444  l57.12,7.516c4.643,0.611,7.489-4.937,4.288-8.353l-4.586-4.891c-1.717-1.831-3.968-3.074-6.432-3.551l-47.716-9.24l40.685,2.931  c3.119,0.225,4.925-3.462,2.837-5.789l-2.087-2.325c-1.261-1.405-2.937-2.371-4.785-2.757l-40.392-8.441l28.707-0.831  c2.538-0.074,3.829-3.083,2.133-4.973l-1.287-1.434c-1.008-1.123-2.312-1.94-3.763-2.356l-25.602-7.35h20.119  c1.991,0,3.329-2.039,2.538-3.865l-0.678-1.566c-0.814-1.879-2.384-3.326-4.322-3.986l-18.606-6.33l9.15-0.03  c2.72-0.008,4.544-2.797,3.462-5.292l0,0c-0.871-2.01-2.409-3.658-4.353-4.667l-20.411-10.582l-20.412,10.582  c-1.945,1.008-3.483,2.656-4.353,4.667l0,0c-1.081,2.496,0.743,5.283,3.462,5.292l9.15,0.03l-18.607,6.33  c-1.938,0.659-3.508,2.107-4.322,3.986l-0.678,1.566c-0.791,1.826,0.547,3.865,2.538,3.865h20.119l-25.602,7.35  c-1.451,0.416-2.755,1.233-3.763,2.356l-1.287,1.434c-1.696,1.889-0.405,4.9,2.133,4.973l28.707,0.831l-40.393,8.441  c-1.848,0.386-3.524,1.352-4.786,2.757l-2.087,2.325c-2.089,2.328-0.282,6.013,2.837,5.789l40.685-2.931l-47.716,9.24  c-2.464,0.478-4.715,1.72-6.432,3.551l-4.585,4.891c-3.203,3.416-0.355,8.963,4.288,8.353l57.12-7.516  c2.298-0.302,4.617,1.155,4.988,3.444c0.383,2.365-1.23,4.502-3.507,4.857l-82.382,12.844c-1.975,0.309-3.753,1.37-4.96,2.964l0,0  c-3.437,4.536-0.945,11.105,4.635,12.221l77.33,15.466v9.65c0,5.268-2.093,10.321-5.819,14.047l-12.06,12.06h35.759h35.759  l-12.06-12.06c-3.726-3.726-5.819-8.779-5.819-14.047v-9.65H287.219z"/>
<path style="fill:#2E3033;" d="M19.152,488.46L19.152,488.46C8.575,488.46,0,479.884,0,469.307V42.534  C0,32.044,8.504,23.54,18.994,23.54h0.157c10.577,0,19.152,8.575,19.152,19.152V469.31C38.303,479.884,29.728,488.46,19.152,488.46z  "/>
<g>
</g>
<g>
</g>
<g>
</g>
<g>
</g>
<g>
</g>
<g>
</g>
<g>
</g>
<g>
</g>
<g>
</g>
<g>
</g>
<g>
</g>
<g>
</g>
<g>
</g>
<g>
</g>
<g>
</g>
</svg>
