<?xml version="1.0" encoding="iso-8859-1"?>
<!-- Generator: Adobe Illustrator 19.0.0, SVG Export Plug-In . SVG Version: 6.00 Build 0)  -->
<svg xmlns="http://www.w3.org/2000/svg" xmlns:xlink="http://www.w3.org/1999/xlink" version="1.1" id="Layer_1" x="0px" y="0px" viewBox="0 0 512 512" style="enable-background:new 0 0 512 512;" xml:space="preserve">
<path style="fill:#3CC8FF;" d="M503.525,374.645H28.924c-4.68,0-8.475-3.795-8.475-8.475V61.069c0-4.68,3.795-8.475,8.475-8.475  h474.601c4.68,0,8.475,3.795,8.475,8.475V366.17C512,370.85,508.205,374.645,503.525,374.645z"/>
<polygon style="fill:#464655;" points="266.224,78.019 147.573,349.22 384.874,349.22 "/>
<path style="fill:#F5F5F5;" d="M266.224,120.308l92.734,211.962H173.49L266.224,120.308 M266.224,78.019l-118.65,271.2h237.3  L266.224,78.019L266.224,78.019z"/>
<polygon style="fill:#FFE15A;" points="147.573,349.22 266.224,213.62 384.874,349.22 "/>
<path style="fill:#2E3033;" d="M19.201,489.063L19.201,489.063C8.597,489.063,0,480.466,0,469.862V41.982  c0-10.517,8.526-19.044,19.043-19.044h0.158c10.604,0,19.201,8.597,19.201,19.201v427.723  C38.402,480.466,29.806,489.063,19.201,489.063z"/>
<g>
</g>
<g>
</g>
<g>
</g>
<g>
</g>
<g>
</g>
<g>
</g>
<g>
</g>
<g>
</g>
<g>
</g>
<g>
</g>
<g>
</g>
<g>
</g>
<g>
</g>
<g>
</g>
<g>
</g>
</svg>
