<?xml version="1.0" encoding="iso-8859-1"?>
<!-- Generator: Adobe Illustrator 19.0.0, SVG Export Plug-In . SVG Version: 6.00 Build 0)  -->
<svg xmlns="http://www.w3.org/2000/svg" xmlns:xlink="http://www.w3.org/1999/xlink" version="1.1" id="Layer_1" x="0px" y="0px" viewBox="0 0 512.001 512.001" style="enable-background:new 0 0 512.001 512.001;" xml:space="preserve">
<path style="fill:#41479B;" d="M512,222.421H28.09V72.297c0-4.638,3.76-8.398,8.398-8.398h467.115c4.638,0,8.398,3.76,8.398,8.398  L512,222.421L512,222.421L512,222.421z"/>
<path style="fill:#FF4B55;" d="M28.09,222.421h483.911v150.124c0,4.638-3.76,8.398-8.398,8.398H36.488  c-4.638,0-8.398-3.76-8.398-8.398C28.09,372.545,28.09,222.421,28.09,222.421z"/>
<path style="fill:#FFE15A;" d="M183.118,158.802c-0.109-0.32-0.354-0.581-0.67-0.708c-0.031-0.013-0.688-0.262-1.738-0.557  c0.462-0.626,0.788-1.359,0.788-2.195c0-0.717-0.254-1.349-0.604-1.92c1.155-0.646,1.969-1.833,1.969-3.247  c0-1.12-0.514-2.099-1.292-2.79c0.933-0.687,1.58-1.739,1.58-2.984c0-1.389-0.79-2.554-1.912-3.208  c0.589-0.666,0.976-1.517,0.976-2.473c0-1.665-1.103-3.036-2.603-3.533c0.342-0.568,0.592-1.196,0.592-1.905  c0-2.046-1.644-3.698-3.679-3.751c0.085-0.314,0.194-0.619,0.194-0.959c0-2.078-1.691-3.769-3.771-3.769  c-0.351,0-0.667,0.11-0.989,0.201c0.005-0.084,0.048-0.154,0.048-0.239c0-2.078-1.691-3.769-3.769-3.769  c-0.714,0-1.345,0.253-1.915,0.598c-0.44-1.593-1.839-2.791-3.571-2.791c-1.038,0-1.981,0.422-2.662,1.104  c-0.638-1.178-1.842-2.009-3.273-2.009c-1.306,0-2.402,0.708-3.079,1.718c-0.688-0.732-1.648-1.201-2.728-1.201  c-1.396,0-2.567,0.796-3.218,1.925c-0.691-0.773-1.667-1.282-2.783-1.282c-1.379,0-2.536,0.781-3.193,1.888  c-0.641-0.505-1.414-0.854-2.292-0.854c-1.584,0-2.931,0.989-3.487,2.377c-0.678-0.656-1.595-1.07-2.611-1.07  c-1.437,0-2.647,0.837-3.284,2.023c-0.277-0.172-0.562-0.308-0.88-0.404c0.795-1.175,1.259-2.59,1.259-4.111  c0-2.954-1.759-5.489-4.277-6.658l1.057-2.114c0.164-0.326,0.164-0.714,0-1.04l-1.272-2.545c0.092-0.085,0.181-0.172,0.265-0.265  l2.547,1.272c0.164,0.082,0.34,0.121,0.519,0.121s0.355-0.042,0.519-0.124l6.196-3.098c0.395-0.196,0.642-0.598,0.642-1.037  s-0.248-0.841-0.642-1.037l-6.196-3.098c-0.326-0.164-0.711-0.164-1.037,0l-2.545,1.272c-0.085-0.093-0.174-0.182-0.268-0.268  l1.272-2.545c0.164-0.326,0.164-0.714,0-1.04l-3.098-6.195c-0.394-0.786-1.685-0.786-2.078,0l-3.098,6.195  c-0.164,0.326-0.164,0.714,0,1.04l1.272,2.545c-0.092,0.085-0.181,0.172-0.265,0.265l-2.547-1.272  c-0.326-0.164-0.711-0.161-1.037,0.003l-6.195,3.098c-0.395,0.196-0.642,0.599-0.642,1.037c0,0.439,0.248,0.841,0.642,1.037  l6.195,3.098c0.164,0.082,0.34,0.124,0.519,0.124c0.178,0,0.356-0.042,0.519-0.124l2.545-1.272c0.085,0.093,0.174,0.182,0.268,0.268  l-1.272,2.545c-0.164,0.326-0.164,0.714,0,1.04l1.057,2.114c-2.517,1.169-4.277,3.705-4.277,6.658c0,1.49,0.452,2.874,1.217,4.034  c-0.46,0.088-0.878,0.242-1.263,0.482c-0.636-1.186-1.846-2.023-3.284-2.023c-1.016,0-1.933,0.414-2.611,1.07  c-0.556-1.388-1.903-2.377-3.487-2.377c-0.878,0-1.65,0.35-2.292,0.854c-0.657-1.107-1.814-1.888-3.194-1.888  c-1.116,0-2.092,0.508-2.783,1.282c-0.652-1.13-1.823-1.925-3.218-1.925c-1.08,0-2.041,0.47-2.728,1.201  c-0.677-1.011-1.773-1.718-3.079-1.718c-1.431,0-2.636,0.831-3.274,2.009c-0.682-0.682-1.624-1.104-2.662-1.104  c-1.732,0-3.131,1.198-3.571,2.791c-0.57-0.346-1.2-0.598-1.915-0.598c-2.078,0-3.769,1.691-3.769,3.769  c0,0.085,0.043,0.156,0.048,0.239c-0.322-0.09-0.638-0.201-0.989-0.201c-2.08,0-3.771,1.691-3.771,3.769  c0,0.34,0.109,0.646,0.194,0.959c-2.035,0.051-3.679,1.705-3.679,3.751c0,0.711,0.25,1.337,0.592,1.905  c-1.501,0.498-2.603,1.869-2.603,3.533c0,0.956,0.387,1.808,0.976,2.473c-1.121,0.654-1.912,1.819-1.912,3.208  c0,1.245,0.647,2.298,1.58,2.984c-0.779,0.691-1.293,1.67-1.293,2.79c0,1.413,0.815,2.601,1.969,3.247  c-0.349,0.571-0.604,1.203-0.604,1.92c0,0.88,0.351,1.654,0.858,2.297c-0.839,0.249-1.354,0.445-1.383,0.456  c-0.316,0.127-0.562,0.387-0.67,0.708c-0.109,0.323-0.069,0.677,0.104,0.971c0.092,0.151,9.224,15.487,12.247,30.603  c0.075,0.375,0.346,0.615,0.666,0.766c2.322,3.137,22.444,5.589,46.935,5.589s44.613-2.452,46.935-5.589  c0.319-0.152,0.591-0.392,0.666-0.766c3.02-15.104,12.155-30.452,12.247-30.603C183.189,159.479,183.227,159.125,183.118,158.802z"/>
<g>
	<path style="fill:#464655;" d="M183.118,158.802c-0.109-0.32-0.354-0.581-0.67-0.708c-0.031-0.013-0.688-0.262-1.738-0.557   c0.462-0.626,0.788-1.359,0.788-2.195c0-0.717-0.254-1.349-0.604-1.92c1.155-0.646,1.969-1.833,1.969-3.247   c0-1.12-0.514-2.099-1.292-2.79c0.933-0.687,1.58-1.739,1.58-2.984c0-1.389-0.79-2.554-1.912-3.208   c0.589-0.666,0.976-1.517,0.976-2.473c0-1.665-1.103-3.036-2.603-3.533c0.342-0.568,0.592-1.196,0.592-1.905   c0-2.046-1.644-3.698-3.679-3.751c0.085-0.314,0.194-0.619,0.194-0.959c0-2.078-1.691-3.769-3.771-3.769   c-0.351,0-0.667,0.11-0.989,0.201c0.005-0.084,0.048-0.154,0.048-0.239c0-2.078-1.691-3.769-3.769-3.769   c-0.714,0-1.345,0.253-1.915,0.598c-0.44-1.593-1.839-2.791-3.571-2.791c-1.038,0-1.981,0.422-2.662,1.104   c-0.638-1.178-1.842-2.009-3.273-2.009c-1.306,0-2.402,0.708-3.079,1.718c-0.688-0.732-1.648-1.201-2.728-1.201   c-1.396,0-2.567,0.796-3.218,1.925c-0.691-0.773-1.667-1.282-2.783-1.282c-1.379,0-2.536,0.781-3.193,1.888   c-0.641-0.505-1.414-0.854-2.292-0.854c-1.584,0-2.931,0.989-3.487,2.377c-0.678-0.656-1.595-1.07-2.611-1.07   c-1.437,0-2.647,0.837-3.284,2.023c-0.277-0.172-0.562-0.308-0.88-0.404c0.795-1.175,1.259-2.59,1.259-4.111   c0-2.954-1.759-5.489-4.277-6.658l1.057-2.114c0.164-0.326,0.164-0.714,0-1.04l-1.272-2.545c0.092-0.085,0.181-0.172,0.265-0.265   l2.547,1.272c0.164,0.082,0.34,0.121,0.519,0.121s0.355-0.042,0.519-0.124l6.196-3.098c0.395-0.196,0.642-0.598,0.642-1.037   s-0.248-0.841-0.642-1.037l-6.196-3.098c-0.326-0.164-0.711-0.164-1.037,0l-2.545,1.272c-0.085-0.093-0.174-0.182-0.268-0.268   l1.272-2.545c0.164-0.326,0.164-0.714,0-1.04l-3.098-6.195c-0.394-0.786-1.685-0.786-2.078,0l-3.098,6.195   c-0.164,0.326-0.164,0.714,0,1.04l1.272,2.545c-0.092,0.085-0.181,0.172-0.265,0.265l-2.547-1.272   c-0.326-0.164-0.711-0.161-1.037,0.003l-6.195,3.098c-0.395,0.196-0.642,0.599-0.642,1.037c0,0.439,0.248,0.841,0.642,1.037   l6.195,3.098c0.164,0.082,0.34,0.124,0.519,0.124c0.178,0,0.356-0.042,0.519-0.124l2.545-1.272   c0.085,0.093,0.174,0.182,0.268,0.268l-1.272,2.545c-0.164,0.326-0.164,0.714,0,1.04l1.057,2.114   c-2.517,1.169-4.277,3.705-4.277,6.658c0,1.49,0.452,2.874,1.217,4.034c-0.46,0.088-0.878,0.242-1.263,0.482   c-0.636-1.186-1.846-2.023-3.284-2.023c-1.016,0-1.933,0.414-2.611,1.07c-0.556-1.388-1.903-2.377-3.487-2.377   c-0.878,0-1.65,0.35-2.292,0.854c-0.657-1.107-1.814-1.888-3.194-1.888c-1.116,0-2.092,0.508-2.783,1.282   c-0.652-1.13-1.823-1.925-3.218-1.925c-1.08,0-2.041,0.47-2.728,1.201c-0.677-1.011-1.773-1.718-3.079-1.718   c-1.431,0-2.636,0.831-3.274,2.009c-0.682-0.682-1.624-1.104-2.662-1.104c-1.732,0-3.131,1.198-3.571,2.791   c-0.57-0.346-1.2-0.598-1.915-0.598c-2.078,0-3.769,1.691-3.769,3.769c0,0.085,0.043,0.156,0.048,0.239   c-0.322-0.09-0.638-0.201-0.989-0.201c-2.08,0-3.771,1.691-3.771,3.769c0,0.34,0.109,0.646,0.194,0.959   c-2.035,0.051-3.679,1.705-3.679,3.751c0,0.711,0.25,1.337,0.592,1.905c-1.501,0.498-2.603,1.869-2.603,3.533   c0,0.956,0.387,1.808,0.976,2.473c-1.121,0.654-1.912,1.819-1.912,3.208c0,1.245,0.647,2.298,1.58,2.984   c-0.779,0.691-1.293,1.67-1.293,2.79c0,1.413,0.815,2.601,1.969,3.247c-0.349,0.571-0.604,1.203-0.604,1.92   c0,0.88,0.351,1.654,0.858,2.297c-0.839,0.249-1.354,0.445-1.383,0.456c-0.316,0.127-0.562,0.387-0.67,0.708   c-0.109,0.323-0.069,0.677,0.104,0.971c0.092,0.151,9.224,15.487,12.247,30.603c0.075,0.375,0.346,0.615,0.666,0.766   c2.322,3.137,22.444,5.589,46.935,5.589s44.613-2.452,46.935-5.589c0.319-0.152,0.591-0.392,0.666-0.766   c3.02-15.104,12.155-30.452,12.247-30.603C183.189,159.479,183.227,159.125,183.118,158.802z M150.283,151.319v-18.178   c1.474-0.127,2.907-0.168,4.285-0.12v18.884C153.286,151.286,151.838,151.106,150.283,151.319z M136.913,126.561   c0.033,0.031,0.078,0.045,0.11,0.075c-0.049,0.01-0.099,0.021-0.148,0.031C136.891,126.632,136.899,126.596,136.913,126.561z    M177.73,153.895c0.797,0,1.445,0.648,1.445,1.445c0,0.799-0.649,1.445-1.445,1.445s-1.445-0.648-1.445-1.445   S176.933,153.895,177.73,153.895z M179.095,151.62c-0.797,0-1.445-0.648-1.445-1.445c0-0.799,0.649-1.445,1.445-1.445   c0.799,0,1.448,0.648,1.448,1.445C180.541,150.973,179.892,151.62,179.095,151.62z M177.937,144.4c0-0.799,0.649-1.445,1.445-1.445   s1.445,0.648,1.445,1.445c0,0.799-0.649,1.445-1.445,1.445S177.937,145.199,177.937,144.4z M134.743,158.802   c-1.387-5.275-3.188-13.215-3.948-21.152c0.799-0.279,2.171-0.738,3.948-1.275V158.802z M115.382,137.744   c-0.818,8.446-2.812,16.907-4.219,22.116v-23.488C113.155,136.974,114.65,137.484,115.382,137.744z M124.612,128.199   c0,0.799-0.649,1.445-1.445,1.445s-1.445-0.648-1.445-1.445c0-0.799,0.649-1.445,1.445-1.445   C123.963,126.753,124.612,127.401,124.612,128.199z M108.995,126.568l-0.009-0.002c0,0,0.005-0.003,0.007-0.005   C108.994,126.563,108.994,126.566,108.995,126.568z M66.524,142.955c0.797,0,1.445,0.648,1.445,1.445   c0,0.799-0.649,1.445-1.445,1.445s-1.445-0.648-1.445-1.445C65.077,143.601,65.727,142.955,66.524,142.955z M68.258,150.175   c0,0.799-0.649,1.445-1.445,1.445c-0.799,0-1.448-0.648-1.448-1.445c0-0.799,0.649-1.445,1.448-1.445   C67.609,148.728,68.258,149.376,68.258,150.175z M68.177,153.895c0.797,0,1.445,0.648,1.445,1.445c0,0.799-0.649,1.445-1.445,1.445   s-1.445-0.648-1.445-1.445C66.731,154.543,67.379,153.895,68.177,153.895z M74.142,134.324c2.273-3.678,6.712-8.061,14.951-8.061   c8.045,0,19.396,2.457,26.666,4.266c0.003,1.577-0.069,3.192-0.181,4.818c-4.96-1.727-24.688-8.041-33.078-2.299   c-9.495,6.513-6.495,18.934-4.721,24.079c-1.511-0.408-3.038-0.594-4.5-0.625C69.85,149.621,70.195,140.713,74.142,134.324z    M80.685,158.254c-0.817-1.899-6.039-15.033,1.724-22.135v23.173C81.85,158.892,81.273,158.555,80.685,158.254z M84.732,134.481   c1.227-0.636,2.673-1.048,4.285-1.267v20.67c-2.33,2.363-3.365,5.612-3.822,8.057c-0.147-0.185-0.31-0.335-0.463-0.508V134.481z    M91.34,133.02c1.377-0.048,2.811-0.007,4.285,0.12v18.159c-0.253-0.022-0.519-0.087-0.765-0.087c-1.142,0-2.213,0.239-3.187,0.729   c-0.12,0.06-0.216,0.141-0.333,0.205C91.34,152.146,91.34,133.02,91.34,133.02z M97.948,133.389   c1.439,0.191,2.876,0.441,4.285,0.723v19.883c-1.474-1.016-2.909-1.752-4.285-2.201V133.389z M104.555,134.612   c1.523,0.351,2.96,0.719,4.285,1.088v24.585c-1.281-1.621-2.756-3.153-4.285-4.488   C104.555,155.797,104.555,134.612,104.555,134.612z M118.071,131.116c1.747,0.453,3.124,0.831,3.933,1.058v19.7   c-3.148,0.318-5.554,1.926-7.389,3.903C116.251,148.966,118.011,139.671,118.071,131.116z M124.328,132.174   c0.787-0.221,2.109-0.584,3.789-1.021c0.065,8.47,1.791,17.652,3.411,24.438c-1.813-1.887-4.155-3.407-7.199-3.715L124.328,132.174   L124.328,132.174z M137.066,135.701c1.325-0.368,2.762-0.737,4.285-1.088v21.366c0,0.055,0.024,0.101,0.031,0.154   c-1.564,1.413-3.045,3.034-4.315,4.715v-25.149h-0.001V135.701z M143.674,134.114c1.409-0.282,2.845-0.531,4.285-0.723v18.512   c-1.378,0.506-2.816,1.308-4.285,2.369V134.114z M156.891,133.216c1.612,0.218,3.058,0.63,4.285,1.266v27.208   c0,0.061,0.025,0.113,0.035,0.171c-0.023,0.028-0.049,0.05-0.072,0.08c-0.482-2.582-1.629-6.046-4.247-8.43v-20.295H156.891z    M163.498,136.119c8.316,7.614,1.691,22.216,1.62,22.371c-0.007,0.016-0.005,0.033-0.012,0.048   c-0.551,0.314-1.086,0.681-1.608,1.088V136.119z M163.405,133.047c-8.225-5.632-27.385,0.34-32.805,2.203   c-0.106-1.581-0.175-3.152-0.173-4.686c7.263-1.812,18.712-4.302,26.81-4.302c8.239,0,12.679,4.383,14.951,8.061   c3.947,6.389,4.292,15.297,0.862,22.178c-1.617,0.033-3.31,0.259-4.974,0.765C169.845,152.211,172.987,139.619,163.405,133.047z    M178.447,140.166c-0.797,0-1.445-0.648-1.445-1.445c0-0.799,0.649-1.445,1.445-1.445c0.799,0,1.448,0.648,1.448,1.445   S179.246,140.166,178.447,140.166z M177.882,133.28c0,0.799-0.649,1.449-1.448,1.449c-0.797,0-1.445-0.65-1.445-1.449   s0.649-1.445,1.445-1.445C177.233,131.835,177.882,132.483,177.882,133.28z M174.398,128.571c0,0.799-0.649,1.445-1.448,1.445   c-0.797,0-1.445-0.648-1.445-1.445c0-0.799,0.649-1.445,1.445-1.445C173.749,127.125,174.398,127.772,174.398,128.571z    M168.241,123.317c0.797,0,1.445,0.648,1.445,1.445c0,0.799-0.649,1.449-1.445,1.449c-0.799,0-1.448-0.651-1.448-1.449   C166.794,123.964,167.443,123.317,168.241,123.317z M162.755,121.123c0.797,0,1.445,0.648,1.445,1.445   c0,0.799-0.649,1.445-1.445,1.445c-0.797,0-1.445-0.648-1.445-1.445C161.309,121.771,161.959,121.123,162.755,121.123z    M156.819,120.22c0.797,0,1.445,0.648,1.445,1.445c0,0.799-0.649,1.449-1.445,1.449c-0.799,0-1.448-0.65-1.448-1.449   C155.372,120.866,156.02,120.22,156.819,120.22z M151.011,120.737c0.797,0,1.445,0.648,1.445,1.445   c0,0.799-0.649,1.445-1.445,1.445c-0.799,0-1.448-0.648-1.448-1.445C149.563,121.384,150.213,120.737,151.011,120.737z    M145.01,121.381c0.797,0,1.445,0.648,1.445,1.445c0,0.799-0.649,1.449-1.445,1.449c-0.799,0-1.448-0.65-1.448-1.449   C143.562,122.028,144.212,121.381,145.01,121.381z M139.525,122.416c0.797,0,1.445,0.648,1.445,1.445   c0,0.799-0.649,1.445-1.445,1.445s-1.445-0.648-1.445-1.445C138.078,123.062,138.727,122.416,139.525,122.416z M133.426,123.723   c0.797,0,1.445,0.648,1.445,1.445c0,0.799-0.649,1.445-1.445,1.445s-1.445-0.648-1.445-1.445   C131.98,124.369,132.629,123.723,133.426,123.723z M128.199,128.017c-0.797,0-1.445-0.648-1.445-1.445   c0-0.799,0.649-1.445,1.445-1.445c0.796,0,1.445,0.648,1.445,1.445C129.645,127.37,128.996,128.017,128.199,128.017z    M121.23,85.259c0-1.068,0.868-1.936,1.936-1.936s1.936,0.868,1.936,1.936s-0.868,1.936-1.936,1.936S121.23,86.327,121.23,85.259z    M129.361,83.459l3.598,1.799l-3.598,1.8l-2.015-1.009c0.048-0.257,0.08-0.521,0.08-0.792c0-0.271-0.031-0.534-0.08-0.793   L129.361,83.459z M121.367,79.064l1.798-3.596l1.798,3.596l-1.008,2.015c-0.257-0.048-0.52-0.08-0.79-0.08   c-0.271,0-0.533,0.031-0.79,0.08L121.367,79.064z M116.971,87.058l-3.599-1.8l3.599-1.799l2.015,1.009   c-0.048,0.257-0.08,0.521-0.08,0.792c0,0.271,0.031,0.535,0.08,0.793L116.971,87.058z M121.367,109.614l1.008-2.015   c0.257,0.048,0.52,0.08,0.79,0.08c0.271,0,0.533-0.031,0.79-0.08l1.008,2.015l-1.008,2.015c-0.263-0.028-0.52-0.08-0.79-0.08   c-0.271,0-0.527,0.051-0.79,0.08L121.367,109.614z M123.166,113.873c2.776,0,5.033,2.257,5.033,5.033s-2.258,5.033-5.033,5.033   c-2.775,0-5.033-2.257-5.033-5.033S120.39,113.873,123.166,113.873z M117.708,125.126c0.797,0,1.445,0.648,1.445,1.445   c0,0.799-0.649,1.445-1.445,1.445s-1.445-0.648-1.445-1.445C116.262,125.773,116.91,125.126,117.708,125.126z M112.48,123.723   c0.797,0,1.445,0.648,1.445,1.445c0,0.799-0.649,1.445-1.445,1.445c-0.797,0-1.445-0.648-1.445-1.445   C111.035,124.369,111.684,123.723,112.48,123.723z M106.382,122.416c0.797,0,1.445,0.648,1.445,1.445   c0,0.799-0.649,1.445-1.445,1.445c-0.797,0-1.445-0.648-1.445-1.445C104.937,123.062,105.586,122.416,106.382,122.416z    M100.897,121.381c0.799,0,1.448,0.648,1.448,1.445c0,0.799-0.649,1.449-1.448,1.449c-0.797,0-1.445-0.65-1.445-1.449   C99.451,122.028,100.1,121.381,100.897,121.381z M94.895,120.737c0.799,0,1.448,0.648,1.448,1.445c0,0.799-0.649,1.445-1.448,1.445   c-0.797,0-1.445-0.648-1.445-1.445C93.45,121.384,94.098,120.737,94.895,120.737z M89.088,120.22c0.799,0,1.448,0.648,1.448,1.445   c0,0.799-0.649,1.449-1.448,1.449c-0.797,0-1.445-0.65-1.445-1.449C87.642,120.866,88.29,120.22,89.088,120.22z M83.152,121.123   c0.797,0,1.445,0.648,1.445,1.445c0,0.799-0.649,1.445-1.445,1.445s-1.445-0.648-1.445-1.445   C81.705,121.771,82.354,121.123,83.152,121.123z M77.666,123.317c0.799,0,1.448,0.648,1.448,1.445c0,0.799-0.649,1.449-1.448,1.449   c-0.797,0-1.445-0.651-1.445-1.449C76.22,123.964,76.869,123.317,77.666,123.317z M72.956,127.125c0.797,0,1.445,0.648,1.445,1.445   c0,0.799-0.649,1.445-1.445,1.445c-0.799,0-1.448-0.648-1.448-1.445C71.509,127.772,72.158,127.125,72.956,127.125z    M69.472,131.835c0.797,0,1.445,0.648,1.445,1.445c0,0.799-0.649,1.449-1.445,1.449c-0.799,0-1.448-0.65-1.448-1.449   C68.024,132.483,68.673,131.835,69.472,131.835z M67.46,137.274c0.797,0,1.445,0.648,1.445,1.445c0,0.799-0.649,1.445-1.445,1.445   c-0.799,0-1.448-0.648-1.448-1.445C66.013,137.921,66.661,137.274,67.46,137.274z M168.704,188.944   c-5.357-2.648-23.685-4.603-45.538-4.603s-40.182,1.955-45.539,4.603c-2.77-12.825-9.394-25.233-11.602-29.131   c3.678-1.128,14.209-3.367,18.931,6.077c0.241,0.481,0.785,0.735,1.305,0.611c0.525-0.124,0.895-0.593,0.895-1.132   c0-0.085,0.064-8.606,5.552-11.352c5.436-2.704,14.229,6.273,17.027,11.873c0,0,0.003,0.002,0.004,0.004   c0.092,0.182,0.245,0.323,0.422,0.437c0.037,0.023,0.07,0.043,0.11,0.062c0.05,0.025,0.09,0.064,0.145,0.082   c0.12,0.039,0.24,0.058,0.358,0.058c0.022,0,0.039-0.018,0.061-0.02c0.023,0,0.041,0.015,0.064,0.014   c0.109-0.013,0.19-0.086,0.288-0.127c0.104-0.042,0.209-0.061,0.297-0.131c0.107-0.085,0.165-0.206,0.237-0.324   c0.048-0.078,0.128-0.126,0.157-0.216c0.035-0.106,0.178-0.557,0.392-1.261c1.015-2.935,4.231-10.324,10.892-10.324   c5.652,0,8.824,5.324,10.277,8.731c0.473,1.637,0.807,2.684,0.863,2.855c0.161,0.493,0.615,0.805,1.105,0.805   c0.118,0,0.239-0.018,0.358-0.058c0.021-0.007,0.036-0.024,0.057-0.031c0.323-0.083,0.615-0.245,0.769-0.552   c2.8-5.602,11.601-14.559,17.027-11.873c0.364,0.183,0.701,0.395,1.02,0.624c0.315,0.266,0.528,0.462,0.887,0.752   c3.576,3.491,3.646,9.903,3.646,9.977c0.001,0.539,0.372,1.008,0.895,1.132c0.528,0.121,1.064-0.13,1.305-0.611   c4.712-9.422,15.245-7.199,18.93-6.074C178.096,163.718,171.474,176.122,168.704,188.944z"/>
	<path style="fill:#464655;" d="M127.749,163.409c-0.15,0.125-0.297,0.255-0.442,0.391c-1.126,1.06-2.979,0.228-2.979-1.32v-0.208   c0-0.641-0.521-1.161-1.161-1.161c-0.641,0-1.162,0.521-1.162,1.161v0.208c0,1.547-1.853,2.381-2.979,1.32   c-0.145-0.135-0.292-0.266-0.442-0.391c-0.493-0.405-1.227-0.345-1.635,0.154c-0.409,0.493-0.342,1.225,0.153,1.637   c3.173,2.629,4.903,8.845,4.903,11.301v1.259c0,0.641,0.521,1.161,1.162,1.161s1.161-0.521,1.161-1.161v-1.259   c0-2.456,1.73-8.672,4.903-11.301c0.494-0.411,0.563-1.143,0.153-1.637C128.974,163.067,128.241,163.003,127.749,163.409z"/>
	<path style="fill:#464655;" d="M154.085,168.288c-0.136-0.01-0.272-0.015-0.409-0.01c-1.088,0.076-2.151-1.47-1.623-2.668   c0.022-0.05,0.044-0.102,0.067-0.152c0.204-0.463,0.048-1.221-0.339-1.713c-0.387-0.491-0.888-0.466-1.128,0.08   c-0.025,0.058-0.051,0.117-0.077,0.174c-0.548,1.245-2.127,0.873-2.377-0.957c-0.031-0.236-0.064-0.474-0.1-0.712   c-0.122-0.774-0.568-1.311-1.042-1.096c-0.471,0.207-0.79,1.075-0.677,1.86c0.671,5.193-0.099,10.668-0.978,12.66   c-0.154,0.352-0.31,0.703-0.464,1.055c-0.239,0.543,0.066,0.963,0.69,0.916c0.624-0.047,1.302-0.476,1.506-0.938   c0.135-0.307,0.27-0.614,0.405-0.921c0.833-1.9,4.326-6.113,7.187-5.893c0.461-0.003,0.656-0.302,0.472-0.752   C155.015,168.774,154.529,168.325,154.085,168.288z"/>
	<path style="fill:#464655;" d="M171.318,171.902c-0.113,0-0.226,0.006-0.34,0.02c-0.913,0.152-1.687-1.266-1.16-2.464   c0.022-0.05,0.045-0.102,0.067-0.152c0.204-0.463,0.129-1.185-0.157-1.633c-0.288-0.447-0.708-0.386-0.947,0.16   c-0.025,0.058-0.051,0.117-0.077,0.174c-0.548,1.245-1.838,1-1.913-0.753c-0.008-0.226-0.019-0.455-0.031-0.681   c-0.045-0.74-0.378-1.227-0.789-0.985c-0.408,0.235-0.738,1.098-0.7,1.85c0.182,4.978-0.861,10.334-1.739,12.325   c-0.154,0.352-0.31,0.703-0.464,1.055c-0.238,0.543-0.015,0.927,0.508,0.837c0.524-0.091,1.121-0.555,1.325-1.018   c0.135-0.307,0.27-0.614,0.405-0.921c0.833-1.9,4.055-6.231,6.425-6.228c0.384-0.036,0.57-0.34,0.449-0.762   C172.058,172.304,171.686,171.906,171.318,171.902z"/>
	<path style="fill:#464655;" d="M100.912,175.754c-0.88-1.991-1.65-7.467-0.978-12.66c0.113-0.785-0.205-1.653-0.677-1.86   c-0.474-0.215-0.921,0.322-1.042,1.096c-0.037,0.237-0.068,0.476-0.1,0.712c-0.249,1.83-1.828,2.202-2.377,0.957   c-0.025-0.059-0.051-0.117-0.077-0.174c-0.239-0.545-0.741-0.571-1.128-0.08c-0.386,0.492-0.543,1.25-0.339,1.713   c0.022,0.05,0.045,0.102,0.067,0.152c0.528,1.199-0.535,2.743-1.623,2.668c-0.136-0.004-0.272,0-0.409,0.01   c-0.444,0.037-0.93,0.486-1.114,0.933c-0.184,0.449,0.013,0.75,0.472,0.752c2.861-0.219,6.354,3.993,7.187,5.893   c0.135,0.307,0.27,0.614,0.405,0.921c0.204,0.463,0.882,0.891,1.506,0.938c0.624,0.045,0.929-0.374,0.69-0.916   C101.221,176.457,101.067,176.106,100.912,175.754z"/>
	<path style="fill:#464655;" d="M82.784,179.762c-0.88-1.991-1.921-7.347-1.739-12.325c0.038-0.752-0.292-1.616-0.7-1.85   c-0.411-0.242-0.744,0.245-0.789,0.985c-0.014,0.228-0.023,0.456-0.031,0.681c-0.075,1.753-1.364,1.999-1.913,0.753   c-0.025-0.058-0.051-0.117-0.077-0.174c-0.239-0.545-0.66-0.607-0.947-0.16c-0.287,0.448-0.361,1.17-0.157,1.633   c0.022,0.05,0.045,0.102,0.067,0.152c0.528,1.198-0.247,2.616-1.159,2.464c-0.114-0.014-0.227-0.02-0.34-0.02   c-0.368,0.003-0.74,0.403-0.861,0.823c-0.12,0.422,0.065,0.726,0.449,0.762c2.37-0.003,5.592,4.328,6.425,6.228   c0.135,0.307,0.27,0.614,0.405,0.921c0.204,0.463,0.801,0.927,1.325,1.018c0.524,0.089,0.747-0.294,0.509-0.837   C83.093,180.464,82.939,180.113,82.784,179.762z"/>
</g>
<path style="fill:#2E3033;" d="M19.026,486.943L19.026,486.943C8.519,486.943,0,478.425,0,467.917V43.929  c0-10.422,8.448-18.871,18.87-18.871h0.156c10.508,0,19.026,8.519,19.026,19.026v423.831  C38.053,478.425,29.534,486.943,19.026,486.943z"/>
<g>
</g>
<g>
</g>
<g>
</g>
<g>
</g>
<g>
</g>
<g>
</g>
<g>
</g>
<g>
</g>
<g>
</g>
<g>
</g>
<g>
</g>
<g>
</g>
<g>
</g>
<g>
</g>
<g>
</g>
</svg>
