<?xml version="1.0" encoding="iso-8859-1"?>
<!-- Generator: Adobe Illustrator 19.0.0, SVG Export Plug-In . SVG Version: 6.00 Build 0)  -->
<svg xmlns="http://www.w3.org/2000/svg" xmlns:xlink="http://www.w3.org/1999/xlink" version="1.1" id="Layer_1" x="0px" y="0px" viewBox="0 0 512.1 512.1" style="enable-background:new 0 0 512.1 512.1;" xml:space="preserve">
<path style="fill:#FFD250;" d="M503.6,56.15H35.4c-4.6,0-8.4,3.7-8.4,8.4v301c0,4.6,3.7,8.4,8.4,8.4h468.3c4.6,0,8.4-3.7,8.4-8.4  v-301C512,59.95,508.3,56.15,503.6,56.15z"/>
<path style="fill:#963C3C;" d="M208.6,89.65v250.9c0,4.6,3.7,8.4,8.4,8.4h267.6c4.6,0,8.4-3.7,8.4-8.4V89.65c0-4.6-3.7-8.4-8.4-8.4  H217C212.3,81.25,208.6,85.05,208.6,89.65z"/>
<path style="fill:#5AA587;" d="M120.8,81.25H66.5c-4.6,0-8.4,3.8-8.4,8.4v250.8c0,4.6,3.8,8.4,8.4,8.4h54.3V81.25z"/>
<path style="fill:#FF7350;" d="M175.1,81.25h-54.3v267.6h54.3c4.6,0,8.4-3.8,8.4-8.4V89.65C183.5,85.05,179.7,81.25,175.1,81.25z"/>
<g>
	<path style="fill:#FFD250;" d="M405.8,282.05c-0.3-1.9,1.4-4.3,3.9-7.8c0.9-1.3,2.2-3.1,2.6-3.9c-0.2,0-0.6,0-0.8,0   c-1.4,0.1-3.5,0.2-5.4-1.9c-0.7-0.8-1.1-1.8-1-2.9c0.1-2.2,2-4.5,3.1-5.6c-2.9-2.1-5.7-4.2-8.3-6.8c-4.9-4.9-10.6-7.3-16.8-7.2   c-0.6,6.2,2.6,10.3,6,14.5c1,1.3,2,2.5,2.9,3.8c4.5,6.5,3.5,19,3,20.3c-0.6,1.5-4.2,4.8-9,4.2c-2.2-0.3-4.8,0.5-6.4,1.9   c-0.7,0.6-1.5,1.6-1.5,3c0,0.1,0,0.4,0.1,0.5c0.7,0.4,3.1-0.4,4.8-1.3c0.5-0.3,1.1-0.2,1.5,0.2c3.4,3.2,6.9,0.4,7.3,0.1   c0.5-0.4,1.2-0.4,1.6,0c3.5,2.8,7.2-0.3,7.3-0.4c0.4-0.4,1.1-0.4,1.5-0.1c1.5,1,2.9,1.3,4.2,0.9c1.1-0.4,1.7-1.2,1.7-1.4   c0-0.5-0.7-3.2-1.1-5C406.5,285.25,406,283.35,405.8,282.05z"/>
	<path style="fill:#FFD250;" d="M443.8,163.55c-1.1-0.1-1.8,0.1-2.3,0.7c-1,1-0.9,2.7-0.9,2.7c0,0.4-0.1,0.8-0.4,1   c-0.3,0.3-0.7,0.4-1,0.3c-1.9-0.2-4.7-2.3-9.9-6.1c-8.3-6.1-20.8-15.3-32.8-16.8c-13.9-1.8-26.3,2.7-29.4,10.5   c-3.5,8.7,3.9,16.7,4,16.8c0.4,0.4,0.5,1,0.2,1.5c-2,3.7-0.5,6.4,0.9,7.9c0.4-1.2,1-2.1,1.9-2.6c2.1-1.2,4.8-0.2,8.6,1.2   c2.2,0.8,4.7,1.8,7.7,2.5c7.5,1.8,16.7,0.2,24.9-1.3c2.9-0.5,5.6-1,8.2-1.3c6.5-0.8,13,2,14.7,6.5c0.9,2.2,1.3,6.6-5.3,11.4   c-11.9,8.7-66.1,4.7-69.3,4.4c-0.1,0-0.1,0-0.3,0c1.2,1.3,2.6,2.6,3.2,2.8s1,0.8,0.9,1.4c-0.1,0.6-0.6,1.1-1.3,1.1l-5.6,0.1   l0.5,5.3c0,0.4-0.1,0.8-0.4,1.1s-0.7,0.4-1.1,0.3c-0.2,0-5-0.8-8.3-2.6l-6.3,4c-0.2,0.1-0.4,0.2-0.7,0.2c-0.1,0-0.3,0-0.4-0.1   c-0.4-0.1-0.7-0.4-0.8-0.8l-2.4-6.5l-2.8,5.7c-0.2,0.4-0.6,0.7-1.1,0.7s-0.9-0.2-1.1-0.6l-2.4-3.9c-1.1,1.4-2.9,3.4-4.7,4.7   c-0.3,0.2-0.8,0.3-1.1,0.2c-0.4-0.1-0.7-0.4-0.8-0.8l-1.3-4c-1.1,1.4-2.8,3.3-4.5,4.7c-0.4,0.3-0.9,0.4-1.3,0.2s-0.7-0.6-0.8-1.1   l-0.4-6.5c-1.5,0.7-3.4,1.7-4.6,2.1c-0.5,0.2-1.1,0-1.4-0.4s-0.4-1-0.1-1.4c2-3.4,3.8-7.7,3.9-9.9c-1.3,1.6-3.1,3.1-5.2,4.7   c-4.4,3.6-9.8,8-13.8,15.7c-2.8,5.4-4.8,14.8-1.3,23.6c3,7.5,9.5,13.1,19.2,16.7c-0.3-1.4-0.6-2.8-0.6-4.1   c-0.1-6.7,1.3-12.7,1.3-13c0.2-0.7,0.8-1.1,1.5-1c0.7,0.2,1.1,0.8,1,1.5c0,0.1-1.4,6-1.2,12.4c0.1,3.1,1.4,6.9,2.7,10.6   c1.7,4.9,3.5,10,2.7,14.3c-1,5.8-8.3,7.3-15,6.2c-1.9-0.3-3.6,0.2-4.9,1.3c-1.3,1.2-1.9,3-1.7,4.8c0.1,0.9,0.4,1,0.5,1.1   c0.8,0.4,2.7-0.2,3.7-0.7c0.5-0.3,1.2-0.2,1.6,0.3c2.7,3,6.3,0,6.5-0.1c0.5-0.4,1.3-0.4,1.8,0.1c1,1.1,2.1,1.6,3.3,1.6   c2.2,0.1,4.3-1.8,4.3-1.8c0.4-0.4,0.9-0.5,1.4-0.2c4.2,1.9,6.4,0.8,6.5,0.8c3.7-3.1,1.5-10.5,1.5-10.6c-0.1-0.3-0.1-0.7,0.1-1   s0.5-0.5,0.8-0.6c5.1-1.2,8-4.5,9.4-6.7c-2.5,0-4.6-0.9-5.7-2.8c-1.9-3-1-7.5,2.3-11.5c5.7-6.8,9.2-20.6,8.7-26.3   c-0.1-0.7,0.5-1.3,1.2-1.4c0.7-0.1,1.3,0.5,1.4,1.2c0.5,4.9-1.8,15.1-5.8,22.9c5.1-1.4,9.8-3.5,14.7-5.7c4.9-2.2,9.9-4.5,15.9-6.4   c10.2-3.2,19.2-1,26.8,6.6c3.7,3.7,7.7,6.3,12.3,9.5c2,1.4,4.2,2.8,6.3,4.4c6,4.3,5.8,7.9,5.7,11.7c0,1.2-0.1,2.3,0.1,3.6   c0.6,6.2-4.3,7.1-6.6,7.6c-0.3,0.1-0.6,0.1-0.9,0.2s-0.7,0.2-1.2,0.3c-2.4,0.5-6,1.2-6.9,4.3c-0.2,0.5-0.1,0.7-0.1,0.7   c0.4,0.2,2.3-0.3,3.9-1c0.3-0.2,0.7-0.2,1,0c0.3,0.1,0.6,0.4,0.7,0.8c0.5,1.3,1.2,1.6,1.4,1.6c1.6,0.5,4.3-1,5.1-1.5   c0.5-0.3,1.2-0.3,1.6,0.1c1.3,1.2,2.5,1.7,3.6,1.6c1.5-0.2,2.4-1.6,2.4-1.6c0.2-0.3,0.6-0.6,1-0.6s0.8,0.1,1.1,0.4   c0,0,1.1,1.2,3.4,1.9c1.5,0.5,1.9-0.1,2-0.3c0.6-0.9,0.4-3.3-0.8-4.8c-1.6-2-2.4-5.1-1.9-7.9c0.4-2.5,1.8-4.6,3.9-6   c4-2.5,4.9-5.2,4.6-5.7c-0.1,0-0.5-0.1-0.8-0.1c-1.8-0.2-4.7-0.6-7.8-6.2c-2.7-5-0.1-12.8,2.9-21.9c1.5-4.6,3.1-9.4,4.1-14   c2.7-12.9-5.8-23.2-5.8-23.3c-0.4-0.5-0.4-1.3,0.1-1.8c5.9-5.6,8.5-10.7,7.6-15.3c-0.9-4.8-5.6-8.2-9.3-9.6   c-4.6-1.8-13-0.8-21.2,0.2c-6.8,0.8-13.2,1.6-17.4,0.7c-2.1-0.4-3.7-1.5-4.7-3c-0.8-1.3-1-2.7-1-3.8c-2.1,0.8-3.5,2.7-3.5,2.7   c-0.2,0.3-0.6,0.5-1,0.5c-0.5,0-0.8-0.2-1-0.5c-1-1.4-1.5-2.9-1.2-4.4c0.3-2.1,1.6-3.8,2.7-5c-4.8-1.7-8.4,2.3-8.6,2.5   c-0.4,0.5-1.1,0.6-1.6,0.2c-2.3-1.4-3.7-4.2-3.6-7.1c0.1-2.7,1.5-5,3.9-6.3c1.6-0.9,3.2-1,4.6-0.5s2.3,1.6,2.9,2.5   c1.7-2,1.9-5.4,1.9-5.5c0-0.3,0.2-0.7,0.4-0.9c0.3-0.2,0.6-0.4,0.9-0.3c3,0.1,5.4,1.2,7,3.3c2.2,2.8,2.4,6.7,2.3,9   c4.8-2.5,4.2-8.2,4.2-8.5c-0.1-0.4,0.1-0.9,0.5-1.2c0.3-0.3,0.8-0.4,1.2-0.2c5.1,1.8,7,6.4,7.5,9.8c1.5-1.4,1.5-3.2,1.5-3.2   c0-0.6,0.4-1.1,1-1.2c0.6-0.1,1.2,0.1,1.4,0.6c2,3.6,5,5.9,7.2,7.2l-1.5-3.7c-0.2-0.5-0.1-1.1,0.3-1.4c0.4-0.4,1-0.4,1.5-0.2   c2.5,1.4,4.5,2.9,6.7,4.6c2.6,2,5.2,4,9,5.8c3.7,1.7,6.1,1.4,7.5,0.8c1.5-0.6,2.3-1.6,2.6-2.4c0.5-1.4,0.7-3.3-0.2-4.6   C446,164.15,445.1,163.65,443.8,163.55z"/>
	<path style="fill:#FFD250;" d="M292.5,182.05L292.5,182.05L292.5,182.05c0.1,0,9.7,3.1,18.4,3.6c0.5,0,0.9,0.3,1.1,0.8   c0.2,0.4,0.1,1-0.2,1.3l-0.3,0.4c1.7-0.3,3.9-0.5,6-0.5c-0.9-1-2-2.4-3.1-3.7c-2.3,0-10.8-0.4-17.8-3.8c-1.7-0.8-4.6-2.2-6-1.5   c-0.2,0.1-0.6,0.7-0.6,1.4C290.2,180.85,291.1,181.55,292.5,182.05z"/>
	<path style="fill:#FFD250;" d="M321.4,163.45c-0.1,0-0.3,0-0.4,0c-0.6,0.2-0.8,0.8-0.9,1.3c-0.1,0.6,0.1,1.5,0.8,2   c1,0.6,2,0.2,2.6-0.4c0.2-0.2,1.1-1.1,0.4-2.1l0,0C322.9,163.85,322,163.45,321.4,163.45z"/>
	<path style="fill:#FFD250;" d="M308.8,194.35c0.6,1.5,1.6,2.6,2.4,3.4c0.3-0.7,0.8-1.3,1.5-1.8s1.9-1,3.6-0.6h0.1h0.1   c0,0,0.1,0,0.1,0.1c0.1,0,0.1,0,0.2,0.1l0.1,0.1c0.7,0.3,1.2,0.7,1.5,1.4c1,2.3-0.7,6.7-2.2,9.8c1.1-0.5,2.1-1.1,2.6-1.4   c0.4-0.2,0.8-0.2,1.2,0c0.4,0.2,0.6,0.6,0.7,1l0.4,5.7c2-2.1,3.6-4.4,3.6-4.4c0.3-0.4,0.8-0.6,1.2-0.5c0.5,0.1,0.9,0.4,1,0.9   l1.5,4.6c2-1.9,3.8-4.4,3.9-4.4c0.2-0.4,0.7-0.5,1.1-0.5s0.8,0.2,1.1,0.6l2.2,3.5l3.1-6.3c0.2-0.5,0.7-0.7,1.2-0.7s1,0.4,1.1,0.8   l2.9,7.8l5.6-3.5c0.4-0.3,1-0.3,1.4,0c1.8,1.2,4.6,2,6.4,2.4l-0.5-5c0-0.4,0.1-0.7,0.3-1c0.2-0.3,0.6-0.4,0.9-0.4h3.2   c-0.8-0.8-1.4-1.5-1.7-1.9c-0.2-0.3-0.3-0.6-0.3-0.9c-2.4-0.1-5.7-0.5-8.9-1.9l-2,3c-0.2,0.3-0.5,0.5-0.8,0.6c-0.1,0-0.2,0-0.3,0   c-0.3,0-0.5-0.1-0.7-0.2l-7.4-5l-1.4,3.7c-0.2,0.4-0.5,0.7-1,0.8c-0.4,0.1-0.9-0.1-1.2-0.4c-1.3-1.5-3.3-3.7-4.5-4.9   c-1.1,1-2.9,2.7-5,3.8c-0.3,0.2-0.7,0.2-1.1,0.1c-0.4-0.1-0.6-0.4-0.8-0.8l-2-5.4c-0.2-0.7,0.1-1.4,0.8-1.6   c0.7-0.2,1.4,0.1,1.6,0.8l1.5,4c2.1-1.5,3.9-3.4,4-3.4c0.5-0.5,1.2-0.6,1.7-0.1c0.7,0.6,2.8,2.8,4.2,4.4l1.2-3.2   c0.1-0.4,0.4-0.7,0.8-0.8s0.8-0.1,1.1,0.2l7.7,5.2l1.9-2.9c0.4-0.6,1.1-0.7,1.6-0.4c3.4,1.7,7.1,2.1,9.4,2.2   c-1.4-2.7-1.6-6.1-1.6-6.9c-1.9-0.8-4.3-2.1-6.7-4.1l-0.9,2.3c-0.1,0.4-0.5,0.6-0.8,0.7c-0.4,0.1-0.8,0-1.1-0.2l-3.7-2.7l-0.4,2.8   c-0.1,0.4-0.3,0.8-0.7,1c-0.4,0.2-0.8,0.2-1.2-0.1c-0.1-0.1-3.2-1.9-5-4c-0.5-0.5-0.4-1.3,0.1-1.8s1.3-0.4,1.8,0.1   c0.8,0.9,1.8,1.7,2.7,2.4l0.4-2.9c0.1-0.4,0.3-0.8,0.8-1c0.4-0.2,0.9-0.1,1.3,0.1l4.1,3l1-2.4c0.2-0.4,0.5-0.7,0.9-0.8   s0.8,0,1.2,0.3c3.2,3,6.7,4.6,8.8,5.4c-0.7-3.4-1-7.7-1-7.9v-0.1c-2-1.1-4.8-3-7.3-6c0,1.6-0.1,3.2-0.5,4.2   c-0.1,0.4-0.4,0.6-0.8,0.8c-0.4,0.1-0.7,0.1-1.1-0.1c-0.2-0.1-2.9-1.7-5-4c-0.4,1.3-0.8,2.6-1.2,3.3c-0.3,0.6-1.1,0.8-1.7,0.5   c-0.1-0.1-2.1-1.1-3.8-2.6c-0.2,1.7-0.4,3.6-0.8,4.6c-0.1,0.3-0.4,0.6-0.8,0.7c-0.3,0.1-0.7,0.1-1-0.1c-0.1-0.1-2.3-1.3-4.4-2.8   l-0.6,2.1c-0.1,0.4-0.3,0.7-0.7,0.8c-0.3,0.2-0.7,0.2-1.1,0c-0.2-0.1-3.8-1.8-5.9-4.3c-0.4-0.5-0.4-1.4,0.2-1.8   c0.5-0.4,1.4-0.4,1.8,0.2c1,1.2,2.5,2.2,3.6,2.9l0.7-2.5c0.1-0.4,0.4-0.8,0.9-0.9c0.4-0.1,0.9,0,1.2,0.3c1.2,1.1,2.9,2.2,4.1,2.9   c0.3-1.6,0.4-3.9,0.5-5.4c0-0.6,0.4-1.1,1-1.2c0.6-0.1,1.1,0.1,1.4,0.6c0.7,1.3,2.4,2.6,3.7,3.4c0.4-1.1,0.8-2.7,1.1-4.1   c0.1-0.5,0.6-0.9,1.1-1s1.1,0.2,1.3,0.7c0.8,1.8,2.7,3.4,4.1,4.4c0.2-1.9,0-4.5-0.2-6.2c-0.1-0.6,0.3-1.2,0.9-1.4s1.2,0.1,1.5,0.7   c2.6,5.2,7.1,8.1,9.5,9.3c1.3-14.1-2.9-19.6-2.9-19.6c-0.2-0.3-0.3-0.7-0.3-1c0.1-0.4,0.3-0.7,0.6-0.9c2.3-1.3,3.7-3.8,4.6-6.1   c-5.2,5.1-13.5,7-17.5,7.7l2,2.4c0.3,0.4,0.4,0.9,0.2,1.3c-0.2,0.4-0.6,0.7-1.1,0.8c-4.9,0.5-8.5-0.2-10.9-1l0.8,1.5   c0.2,0.4,0.2,0.9,0,1.3c-0.2,0.4-0.7,0.7-1.1,0.6c-4-0.2-7.5-1.8-10.4-3.3c-0.1,0.9-0.6,1.9-1.4,2.6c-0.9,0.9-2.2,1.4-3.3,1.4   c-0.8,0-1.7-0.2-2.4-0.7c-1.4-1-2.2-2.7-1.9-4.5c0.2-1.7,1.3-2.9,2.7-3.4c1.9-0.6,4.1,0.5,6.9,1.9c2.2,1.1,4.8,2.4,7.6,3l-1.6-2.9   c-0.3-0.5-0.2-1.2,0.3-1.6c0.5-0.4,1.2-0.4,1.6,0c0,0,3.2,2.6,10.5,2.5l-1.8-2.2c-0.3-0.4-0.4-0.9-0.2-1.3c0.2-0.4,0.6-0.7,1.1-0.8   c0.1,0,10.7-1.1,17.1-6.3c-2.1,0.6-3.7,0.5-3.9,0.5c-0.4,0-0.7-0.2-0.9-0.5c-3-3.7-6-4.9-7.5-5.2c-0.9,2.7-2.9,4.9-3,5   c-0.3,0.3-0.7,0.4-1.1,0.4s-0.7-0.3-1-0.6c-2.3-3.7-5.6-4.7-7.5-4.9c0.2,2.7-1.7,5-2.9,5.9c-0.5,0.4-1.2,0.3-1.6-0.1   c-5.5-4.9-9.7-3.5-11.5-2.5c0.5,1.3,0.3,2.5-0.1,3.2c-2.6,5.3-18.9,6.4-22.1,6.6c-0.4,0-0.8-0.2-1.1-0.5c-0.3-0.3-0.3-0.7-0.2-1.1   c0.2-0.9,0.1-1.8-0.4-2.7s-1.4-1.5-2.3-1.7c-0.8-0.2-2.5-0.1-3.4,1c-1.1,1.2-1.2,3.5-0.2,6.5c1.7,5.4,7,10.8,10.3,13.7   c0-0.7,0-1.2,0-1.3c0-0.5,0.4-1,0.9-1.2s1.1,0,1.4,0.5c1.1,1.6,2.4,2.6,3.4,3.3l0.6-4.1c0.1-0.6,0.5-1,1.1-1.1   c0.6,0,1.1,0.3,1.3,0.8c1.2,2.8,8.5,11.7,11.2,14.8c0.4,0.4,0.4,1,0.2,1.5c-0.3,0.5-0.8,0.7-1.3,0.7c-4.7-0.7-11.6,0.9-11.6,0.9   c-0.5,0.1-1.1-0.1-1.4-0.6s-0.3-1.1,0.1-1.5l0.9-1.2c-6.5-0.7-12.8-2.4-15.4-3.1l-2.2,5.8l5.8-0.6c0.4-0.1,0.9,0.1,1.2,0.5   c0.3,0.4,0.3,0.8,0.2,1.3l-1.1,2.7l4.8-1.3c0.6-0.2,1.3,0.2,1.5,0.8c0.6,1.6,1.4,2.7,2,3.3l1.3-3c0.2-0.5,0.7-0.8,1.2-0.8   C308.1,193.65,308.6,193.95,308.8,194.35z"/>
	<path style="fill:#FFD250;" d="M292.2,259.95c5.1,3.4,9.1-0.5,11.3-3.4c-4.7-3.4-8-7.6-10-12.6c-0.7-1.6-1.1-3.3-1.4-4.9   c-0.5-0.4-7.5-5.9-13.4-12.5c-0.3,0.8-0.7,1.4-1,1.8c0.4,1.7,0,3.1-0.5,3.9c0.4,1.2,0.1,2.4-0.3,3.3c0.9,1.3,1.1,2.7,0.5,3.9   c-0.1,0.3-0.3,0.6-0.5,0.8c0.7,0.9,1.9,2.9,1.9,7c0,2.7,1,4.4,1.8,5.2c0.4-0.4,0.9-0.6,1.5-0.7c1.6-0.2,2.9,1.2,4.8,3.1   C288.1,256.55,289.9,258.35,292.2,259.95z"/>
	<path style="fill:#FFD250;" d="M267.1,225.15c-0.1,0-0.2,0-0.3,0c-1.8,0-3.5-0.2-5.1-0.5c-0.1,0.4,0.2,1.7,0.5,1.9   c0.3,0.3,0.5,0.7,0.5,1.1c0,0.4-0.2,0.8-0.5,1c-0.2,0.2-0.9,0.7-0.9,1.3s0.6,1.1,1,1.4c0.3,0.2,0.5,0.5,0.5,0.9s-0.1,0.7-0.3,1   c-0.2,0.2-0.6,0.9-0.6,1.5c0,0.1,0.1,0.5,0.7,1c0.3,0.2,0.5,0.5,0.5,0.9c0.1,0.3,0,0.7-0.2,1c0,0-0.4,0.5-0.2,1   c0.2,0.6,0.9,1,1.5,1.3c1.1,0.5,2.6,0.8,4.2,0.9h0.1c1.4,0,2.8-0.1,4-0.5s2-1.1,2.3-1.9c0.1-0.3,0.3-0.8-0.7-1.9   c-0.4-0.5-0.4-1.1,0-1.6c0,0,0.9-1.2,0.3-2.1c-0.3-0.5-0.2-1.1,0.2-1.5c0.1-0.1,0.9-1,0.2-2.7c-0.2-0.5-0.1-1,0.3-1.4   c0,0,1.2-1.3,1.2-3.1c-0.2-0.2-0.3-0.4-0.5-0.6C273.6,224.55,270.5,225.15,267.1,225.15z"/>
	<path style="fill:#FFD250;" d="M278.8,135.85c-5.2,2.8-16.2,11.5-16.6,35.5l0.3,40.3c0,0.1,0.1,0.1,0.1,0.2c0.7,1.3,0.4,2.9,0,4   c3.2,1.1,7.2,0.7,8.9,0.3c-0.3-1-0.6-2.6,0.5-4.4C271.9,163.55,276.5,143.05,278.8,135.85z"/>
	<path style="fill:#FFD250;" d="M279.3,216.65c0-2-1.5-3.6-3.1-4.2c-0.3-0.1-1.4-0.4-1.9,0.2c-0.9,1.2-0.6,2.1-0.3,2.9   c0.2,0.5,0.4,0.9,0.2,1.5c-0.2,0.7-0.8,1-1,1.1c-1.7,0.8-8.4,1.8-12.9-0.5c-0.6-0.3-0.9-1.1-0.6-1.7c0.5-1,0.8-2.4,0.6-2.9   c0,0-0.1-0.2-0.4-0.2s-0.7-0.1-1-0.1c-1.6,0-3,0.5-3.8,1.3c-0.6,0.7-0.8,1.5-0.6,2.6c0.8,3.7,5.4,5.9,12.3,6   c4.9,0,9.1-1.2,11.2-3.3C278.9,218.55,279.3,217.55,279.3,216.65z"/>
	<path style="fill:#FFD250;" d="M268.3,247.05c0.3-0.4,0.8-0.6,1.3-0.5c0.9,0.2,3.1,0.7,4.4-0.3c0.4-0.3,0.5-1.3,0.2-1.9   c-0.1-0.2-0.5-0.8-1.8-0.3s-3.1,1-4.2,0c-0.2-0.2-0.4-0.4-0.5-0.7c-0.3,0-0.7,0-1-0.1c-0.1,0.3-0.3,0.6-0.5,0.8c-1.1,1-3,0.5-4.2,0   c-1.3-0.5-1.7,0.1-1.8,0.3c-0.3,0.6-0.2,1.5,0.2,1.9c1.3,1,3.5,0.5,4.2,0.4c0.5-0.1,1.1,0.1,1.4,0.5s0.4,0.9,0.2,1.3   c-0.3,0.6-1.5,3-2.8,4.6c1.6,2.3,3,6.5-0.3,10.2c-0.3,0.3-0.7,0.5-1.1,0.4c-0.4,0-0.8-0.2-1-0.6c-0.2-0.3-0.8-1.1-1.6-1.2   c-0.2,0-0.6-0.1-1.1,0.3c-0.3,0.2-0.5,1-0.2,1.8c0.5,1.5,2.1,2.3,4.3,2.2c0.5-0.1,1,0.3,1.3,0.8c0.2,0.5,0.1,1.1-0.4,1.4l-2.1,1.8   l3.4,0.8c0.5,0.1,0.8,0.5,0.9,0.9c0,0,0.5,1.8,1.5,3.4c1-1.5,1.5-3.4,1.5-3.4c0.1-0.4,0.5-0.8,0.9-0.9l3.4-0.8l-2.1-1.8   c-0.4-0.4-0.6-0.9-0.4-1.4s0.7-0.9,1.3-0.8c2.2,0.1,3.8-0.7,4.3-2.2c0.3-0.8,0.1-1.6-0.2-1.8c-0.5-0.3-0.9-0.3-1.1-0.3   c-0.7,0.2-1.4,1-1.5,1.2c-0.2,0.3-0.6,0.6-1,0.6s-0.8-0.1-1.1-0.4c-3.2-3.7-1.9-7.9-0.3-10.2c-1.2-1.5-2.5-4-2.8-4.6   C267.9,247.95,268,247.45,268.3,247.05z"/>
</g>
<path style="fill:#464655;" d="M448.7,163.55c-0.7-1.1-2-2.4-4.7-2.5c-1.8-0.1-3.3,0.4-4.3,1.4c-0.9,0.8-1.3,1.9-1.5,2.8  c-1.7-0.9-4.5-3-7.5-5.1c-8.5-6.2-21.4-15.7-34-17.3c-10.2-1.3-21.9,0.7-28.3,6.7c0.1-0.8,0.1-1.3,0.1-1.4l0,0  c0-0.2-0.1-0.5-0.2-0.7l-0.1-0.1c-0.1-0.2-0.3-0.3-0.6-0.4l0,0l0,0c-0.2-0.1-0.5-0.1-0.7,0h-0.1c-0.2,0.1-0.4,0.2-0.6,0.4l0,0  c-2.7,3.6-6.3,4-7.7,4.1c-4.8-5.7-9.9-5.9-10.1-5.9c-0.7,0-1.2,0.5-1.3,1.1c-0.2,1.4-1,2.7-1.7,3.6c-4.2-5.3-10.2-4.7-10.4-4.7  c-0.4,0-0.8,0.3-1,0.6c-0.2,0.4-0.2,0.8-0.1,1.2c0.8,1.7-0.2,3.1-0.9,4c-8.3-6.7-14.7-1.2-14.8-1.2c-0.5,0.4-0.6,1.2-0.2,1.7  c0.6,0.9,0.5,1.4,0.3,1.7c-1.3,2.7-11.1,4.5-18.4,5c0-1-0.4-2.1-0.9-3c-0.9-1.5-2.3-2.5-3.9-2.9c-1.8-0.4-4.3,0-5.9,1.8  c-1.8,2-2,5-0.8,9c2,6.3,7.9,12.1,11.4,15.2c-0.8-0.3-1.7-0.7-2.5-1c-2-1-5.5-2.7-8-1.3c-1.3,0.7-2.1,2.3-1.9,3.9  c0.1,0.8,0.5,2.6,2.9,3.8l-2.8,7.7c-0.2,0.4-0.1,0.9,0.2,1.2c0.3,0.3,0.7,0.5,1.1,0.5l5.7-0.6l-1.3,3.1c-0.2,0.5-0.1,1,0.2,1.3  c0.3,0.4,0.8,0.5,1.3,0.4l6.2-1.6c1.6,3.3,3.7,4.4,3.8,4.5c0.3,0.2,0.7,0.2,1,0.1c0.3-0.1,0.6-0.4,0.8-0.7l1-2.2  c1,1.4,2.1,2.4,2.8,2.9c-0.4,0.3-0.8,0.7-1.3,1.1c-4.3,3.5-10.2,8.3-14.4,16.5c-2.1,4.1-3.8,10.4-3.3,17.1c-3.1-2.6-8.9-7.7-13.2-13  c0.5-0.4,1.1-0.7,1.5-1.1c1.3-1.3,2-2.9,2-4.5c0-3.4-2.5-5.8-4.8-6.6c-0.9-0.3-1.7-0.3-2.4-0.2c-0.1-55.9,6.3-73,7.6-75.9  c0.2-0.5,0.1-1-0.2-1.4c-0.3-0.4-0.8-0.5-1.3-0.4c-0.8,0.2-20.6,6.4-21,39.1l0.3,38.9c-2.7-0.3-5.2,0.5-6.7,2.1  c-0.8,0.9-1.7,2.5-1.2,4.9c0.7,3.2,3.2,5.6,7.2,6.9c-0.1,0.4-0.1,0.9-0.1,1.4c0.1,0.6,0.3,1.4,0.6,2.1c-0.5,0.6-1,1.4-1,2.4  s0.4,1.9,1.2,2.7c-0.3,0.6-0.6,1.5-0.5,2.4c0.1,0.6,0.3,1.3,1,2c-0.2,0.6-0.3,1.3-0.1,2.1c0.2,0.8,0.7,1.5,1.5,2.2  c-2-0.4-3.3,0.5-4,1.7c-1,1.7-0.6,4,0.9,5.2c1.2,0.9,2.6,1.2,3.9,1.1c-0.7,1.1-1.3,2.1-1.8,2.5c-0.3,0.2-0.5,0.5-0.5,0.9  s0.1,0.7,0.3,1c0.1,0.1,2.9,3.3,1.3,6.6c-0.5-0.4-1.2-0.8-2-1c-1-0.2-2.1,0-3,0.7c-1.4,0.9-1.9,2.9-1.2,4.8c0.5,1.4,1.7,2.9,3.8,3.6  l-1.8,1.5c-0.4,0.3-0.5,0.8-0.4,1.3s0.5,0.8,0.9,0.9l5.1,1.3c0.4,1.1,1.3,3.3,2.8,4.8c0.2,0.2,0.7,0.4,1,0.4s0.7-0.1,0.9-0.4  c1.5-1.5,2.4-3.7,2.8-4.8l5.1-1.3c0.5-0.1,0.8-0.5,0.9-0.9c0.1-0.5,0-1-0.4-1.3l-1.8-1.5c2.1-0.7,3.3-2.2,3.8-3.6  c0.6-1.9,0.1-3.8-1.2-4.8c-1-0.7-2-0.9-3-0.7c-0.8,0.2-1.5,0.6-2,1c-1.6-3.3,1.1-6.4,1.3-6.6c0.2-0.3,0.4-0.6,0.3-1  c0-0.4-0.2-0.7-0.5-0.9c-0.4-0.3-1.1-1.4-1.8-2.5c1.3,0,2.7-0.2,3.9-1.1c0.3-0.2,0.4-0.5,0.6-0.7c0.1,5.6,3.7,7.9,3.8,7.9  c0.6,0.4,1.4,0.2,1.8-0.4c0.3-0.5,0.5-0.6,0.5-0.6c0.5,0,1.7,1.4,2.6,2.3c1.5,1.6,3.4,3.6,6,5.3c1.9,1.3,3.7,1.8,5.3,1.8  c4.6,0,8.1-3.9,9.5-5.9c2.9,1.8,6.1,3.4,9.8,4.6c0.1,0,0.3,0.1,0.4,0.1c0.4,1.4,0.9,2.9,1.4,4.3c1.6,4.6,3.3,9.4,2.6,13  c-0.8,4.7-8.2,4.7-12.1,4.1c-2.7-0.4-5.2,0.3-7.1,2c-1.8,1.7-2.8,4.3-2.5,7c0.2,1.8,1.1,2.7,1.8,3.1c1.7,0.9,4,0.2,5.3-0.3  c2.9,2.5,6.3,1.5,8.4,0.1c1.3,1.1,2.7,1.6,4.3,1.7c0.1,0,0.1,0,0.2,0c2.3,0,4.3-1.2,5.3-2c5,2,7.8,0.5,8.3,0.2  c4-3.4,3.4-9.5,2.8-12.2c8.3-2.5,11-9.7,11.1-10c0.2-0.4,0.1-1-0.3-1.3c-0.3-0.3-0.8-0.5-1.3-0.4c-2.6,0.7-4.6,0.2-5.5-1.3  c-1.3-2-0.5-5.4,2.1-8.5c0.5-0.7,1.1-1.4,1.6-2.1c6.4-1.4,11.9-3.9,17.7-6.6c4.8-2.2,9.7-4.4,15.6-6.3c1.7-0.5,3.3-0.8,4.8-1  c-0.5,6.9,3.1,11.5,6.6,15.9c1,1.2,1.9,2.4,2.8,3.7c3.8,5.4,3,16.8,2.7,17.8c-0.3,0.6-2.8,3.1-6.3,2.7c-3-0.4-6.3,0.6-8.4,2.5  c-1.6,1.4-2.4,3.1-2.4,4.9c0,1.5,0.7,2.3,1.4,2.7c1.9,1.1,4.9-0.1,6.6-0.9c1.5,1.2,3.1,1.6,4.6,1.6c1.8,0,3.4-0.7,4.6-1.4  c3.4,2.2,7,0.9,9-0.5c2.5,1.4,4.5,1.1,5.8,0.6c0.4-0.2,0.8-0.4,1.2-0.6c0.1,0.1,0.1,0.1,0.2,0.2c1.4,1.2,3.9,0.5,5.5,0  c0.7,1.2,1.7,1.8,2.5,2c2.4,0.8,5.1-0.5,6.5-1.4c1.7,1.3,3.3,1.8,5,1.6c1.5-0.2,2.6-1,3.3-1.7c0.8,0.5,1.9,1.2,3.4,1.7  c0.7,0.2,1.3,0.3,1.8,0.3c1.8,0,2.7-1,3.1-1.6c1.5-2.2,0.7-5.8-0.9-7.9c-1-1.2-1.8-3.5-1.4-5.9c0.2-1.3,0.9-3,2.8-4.2  c3.5-2.2,5.8-5.2,5.8-7.6c0-1-0.4-1.8-1.1-2.3c-0.6-0.4-1.3-0.5-2-0.6c-1.5-0.2-3.4-0.5-5.8-4.9c-2.2-4,0.4-11.7,3.1-19.9  c1.5-4.7,3.1-9.5,4.1-14.3c2.5-11.9-3.5-21.5-5.7-24.5c6-5.9,8.5-11.6,7.5-16.9c-1.1-5.8-6.6-9.8-10.9-11.5c-5.2-2-13.9-1-22.4,0.1  c-6.6,0.8-12.8,1.5-16.5,0.7c-1.4-0.3-2.4-0.9-3-1.8c-1-1.6-0.5-3.7-0.5-3.7c0.1-0.4,0-0.8-0.2-1.1c-0.3-0.3-0.7-0.5-1-0.5  c-2.5,0.1-4.4,1.5-5.6,2.6c-0.1-0.3-0.1-0.7,0-1.1c0.3-2.5,3.2-4.6,3.2-4.6c0.3-0.3,0.5-0.7,0.5-1.1c0-0.4-0.2-0.8-0.6-1  c-5.2-3.2-10.1-0.8-12.6,1.4c-1.1-1-1.7-2.6-1.6-4.2c0-1,0.4-3,2.5-4.1c0.9-0.5,1.8-0.6,2.5-0.3c1.2,0.5,2,2,2.3,2.5  c0.1,0.3,0.4,0.6,0.8,0.7c0.4,0.1,0.7,0.1,1.1-0.1c2.9-1.7,3.8-5.2,4.1-7.1c1.7,0.3,3,1,3.9,2.2c2.6,3.3,1.5,9.1,1.5,9.2  c-0.1,0.4,0.1,0.9,0.4,1.2s0.8,0.4,1.2,0.3c5.8-1.6,7.7-6.3,7.9-9.7c4.4,2.8,4.1,8.5,4.1,8.7c0,0.4,0.2,0.9,0.5,1.1  c0.4,0.3,0.8,0.3,1.2,0.2c2.1-0.9,3.3-2.3,3.9-3.6c4,5.3,9.7,7.1,9.9,7.2c0.5,0.1,1,0,1.3-0.4s0.4-0.9,0.2-1.4l-1.3-3  c1,0.7,2,1.5,3,2.3c2.7,2.1,5.4,4.2,9.4,6.1c4.5,2.1,7.7,1.6,9.6,0.9c1.9-0.8,3.4-2.2,4-3.8C449.8,168.55,450.1,165.75,448.7,163.55  z M446.7,169.55c-0.3,0.7-1.1,1.8-2.6,2.4c-1.4,0.6-3.9,0.9-7.5-0.8c-3.7-1.8-6.4-3.8-9-5.8c-2.1-1.6-4.1-3.2-6.7-4.6  c-0.5-0.3-1.1-0.2-1.5,0.2s-0.5,0.9-0.3,1.4l1.5,3.7c-2.2-1.3-5.2-3.5-7.2-7.2c-0.3-0.5-0.9-0.8-1.4-0.6c-0.6,0.1-1,0.7-1,1.2  c0,0,0,1.8-1.5,3.2c-0.4-3.4-2.3-8-7.5-9.8c-0.4-0.2-0.9-0.1-1.2,0.2c-0.3,0.3-0.5,0.7-0.5,1.2c0,0.3,0.6,6-4.2,8.5  c0.1-2.4-0.1-6.3-2.3-9c-1.6-2-4-3.1-7-3.3c-0.3,0-0.7,0.1-0.9,0.3c-0.3,0.2-0.4,0.6-0.4,0.9c0,0-0.1,3.5-1.9,5.5  c-0.6-0.9-1.6-2-2.9-2.5c-1.4-0.5-3-0.4-4.6,0.5c-2.4,1.3-3.8,3.5-3.9,6.3c-0.1,2.9,1.3,5.7,3.6,7.1c0.5,0.3,1.2,0.2,1.6-0.2  c0.2-0.2,3.8-4.2,8.6-2.5c-1.1,1.1-2.4,2.9-2.7,5c-0.2,1.6,0.2,3.1,1.2,4.4c0.2,0.3,0.5,0.5,1,0.5c0.4,0,0.8-0.2,1-0.5  c0,0,1.4-1.9,3.5-2.7c0,1.1,0.2,2.5,1,3.8c1,1.5,2.5,2.6,4.7,3c4.1,0.9,10.6,0.1,17.4-0.7c8.1-1,16.6-2,21.2-0.2  c3.7,1.4,8.4,4.8,9.3,9.6c0.9,4.6-1.6,9.8-7.6,15.3c-0.5,0.5-0.5,1.2-0.1,1.8c0.1,0.1,8.5,10.4,5.8,23.3c-1,4.7-2.5,9.4-4.1,14  c-3,9.1-5.6,16.9-2.9,21.9c3,5.6,6,6,7.8,6.2c0.3,0,0.8,0.1,0.8,0.1c0.3,0.5-0.7,3.2-4.6,5.7c-2.2,1.4-3.5,3.4-3.9,6  c-0.5,2.8,0.3,5.8,1.9,7.9c1.2,1.5,1.5,3.9,0.8,4.8c-0.1,0.2-0.5,0.7-2,0.3c-2.3-0.7-3.4-1.9-3.4-1.9c-0.3-0.3-0.7-0.4-1.1-0.4  s-0.8,0.3-1,0.6c0,0-0.9,1.4-2.4,1.6c-1.1,0.1-2.3-0.4-3.6-1.6c-0.4-0.4-1.1-0.4-1.6-0.1c-0.8,0.6-3.4,2.1-5.1,1.5  c-0.2-0.1-0.9-0.3-1.4-1.6c-0.1-0.3-0.4-0.6-0.7-0.8c-0.3-0.1-0.7-0.1-1,0c-1.6,0.7-3.5,1.2-3.9,1c0,0-0.1-0.2,0.1-0.7  c0.9-3.1,4.5-3.8,6.9-4.3c0.4-0.1,0.8-0.2,1.2-0.3c0.3-0.1,0.6-0.1,0.9-0.2c2.4-0.5,7.2-1.4,6.6-7.6c-0.1-1.3-0.1-2.5-0.1-3.6  c0.1-3.8,0.2-7.4-5.7-11.7c-2.2-1.6-4.3-3-6.3-4.4c-4.6-3.1-8.6-5.8-12.3-9.5c-7.6-7.6-16.6-9.8-26.8-6.6c-6,1.9-11.1,4.2-15.9,6.4  c-4.9,2.2-9.6,4.3-14.7,5.7c4.1-7.7,6.3-17.9,5.8-22.9c-0.1-0.7-0.7-1.2-1.4-1.2c-0.7,0.1-1.2,0.7-1.2,1.4c0.5,5.6-3,19.4-8.7,26.3  c-3.3,4-4.3,8.5-2.3,11.5c1.2,1.9,3.2,2.7,5.7,2.8c-1.4,2.2-4.3,5.5-9.4,6.7c-0.3,0.1-0.6,0.3-0.8,0.6c-0.2,0.3-0.2,0.7-0.1,1  c0,0.1,2.1,7.5-1.5,10.6c-0.1,0.1-2.3,1.2-6.5-0.8c-0.5-0.2-1-0.1-1.4,0.2c0,0-2.1,2-4.3,1.8c-1.2,0-2.3-0.6-3.3-1.6  c-0.5-0.5-1.2-0.5-1.8-0.1c-0.2,0.1-3.8,3.1-6.5,0.1c-0.4-0.4-1-0.6-1.6-0.3c-1,0.5-2.9,1.1-3.7,0.7c-0.1-0.1-0.4-0.2-0.5-1.1  c-0.2-1.9,0.5-3.7,1.7-4.8c1.2-1.2,3-1.6,4.9-1.3c6.7,1.1,14-0.4,15-6.2c0.8-4.3-1-9.4-2.7-14.3c-1.3-3.7-2.6-7.5-2.7-10.6  c-0.1-6.3,1.2-12.3,1.2-12.4c0.2-0.7-0.3-1.4-1-1.5c-0.7-0.2-1.4,0.3-1.5,1c-0.1,0.3-1.4,6.3-1.3,13c0,1.3,0.3,2.7,0.6,4.1  c-9.7-3.6-16.2-9.2-19.2-16.7c-3.5-8.8-1.5-18.2,1.3-23.6c4-7.7,9.4-12.2,13.8-15.7c2.1-1.7,3.9-3.2,5.2-4.7c-0.1,2.1-2,6.4-3.9,9.9  c-0.3,0.5-0.2,1,0.1,1.4c0.3,0.4,0.9,0.6,1.4,0.4c1.1-0.3,3.1-1.3,4.6-2.1l0.4,6.5c0,0.5,0.3,0.9,0.8,1.1c0.4,0.2,1,0.1,1.3-0.2  c1.7-1.4,3.4-3.3,4.5-4.7l1.3,4c0.1,0.4,0.4,0.7,0.8,0.8s0.8,0.1,1.1-0.2c1.8-1.3,3.6-3.3,4.7-4.7l2.4,3.9c0.2,0.4,0.7,0.6,1.1,0.6  c0.5,0,0.9-0.3,1.1-0.7l2.8-5.7l2.4,6.5c0.1,0.4,0.4,0.6,0.8,0.8c0.1,0,0.3,0.1,0.4,0.1c0.2,0,0.5-0.1,0.7-0.2l6.3-4  c3.3,1.8,8.1,2.6,8.3,2.6c0.4,0.1,0.8-0.1,1.1-0.3c0.3-0.3,0.4-0.7,0.4-1.1l-0.5-5.3l5.6-0.1c0.6,0,1.2-0.5,1.3-1.1  c0.1-0.6-0.3-1.2-0.9-1.4s-2-1.5-3.2-2.8c0.2,0,0.2,0,0.3,0c3.2,0.2,57.4,4.2,69.3-4.4c6.6-4.8,6.2-9.2,5.3-11.4  c-1.8-4.5-8.3-7.4-14.7-6.5c-2.6,0.3-5.3,0.8-8.2,1.3c-8.1,1.5-17.3,3.1-24.9,1.3c-2.9-0.7-5.5-1.7-7.7-2.5  c-3.8-1.4-6.5-2.5-8.6-1.2c-0.9,0.5-1.5,1.4-1.9,2.6c-1.3-1.5-2.8-4.2-0.9-7.9c0.3-0.5,0.2-1.1-0.2-1.5c-0.1-0.1-7.5-8.1-4-16.8  c3.1-7.9,15.5-12.3,29.4-10.5c12,1.5,24.5,10.7,32.8,16.8c5.2,3.8,8,5.8,9.9,6.1c0.4,0.1,0.8-0.1,1-0.3c0.3-0.3,0.4-0.6,0.4-1  c0,0-0.1-1.7,0.9-2.7c0.5-0.5,1.3-0.7,2.3-0.7c1.2,0.1,2.1,0.5,2.7,1.4C447.3,166.25,447.2,168.15,446.7,169.55z M406.4,293.45  c-1.2,0.4-2.6,0.1-4.2-0.9c-0.5-0.3-1.1-0.3-1.5,0.1c-0.2,0.1-3.8,3.2-7.3,0.4c-0.5-0.4-1.2-0.4-1.6,0c-0.4,0.3-3.8,3.1-7.3-0.1  c-0.4-0.4-1-0.5-1.5-0.2c-1.7,0.9-4.2,1.7-4.8,1.3c-0.1-0.1-0.1-0.4-0.1-0.5c0-1.4,0.8-2.4,1.5-3c1.6-1.4,4.2-2.2,6.4-1.9  c4.9,0.6,8.4-2.7,9-4.2c0.6-1.3,1.5-13.8-3-20.3c-0.9-1.3-1.9-2.6-2.9-3.8c-3.4-4.3-6.6-8.4-6-14.5c6.2-0.1,11.9,2.2,16.8,7.2  c2.6,2.6,5.4,4.7,8.3,6.8c-1.1,1.2-3,3.4-3.1,5.6c-0.1,1.1,0.3,2.1,1,2.9c1.9,2.1,4,2,5.4,1.9c0.2,0,0.6,0,0.8,0  c-0.4,0.9-1.7,2.7-2.6,3.9c-2.5,3.5-4.2,5.9-3.9,7.8c0.2,1.3,0.7,3.2,1.2,5.1c0.5,1.8,1.2,4.5,1.1,5  C408,292.25,407.5,293.05,406.4,293.45z M411.8,275.85c2.5-3.4,3.7-5.2,3-6.6c-0.7-1.5-2.3-1.4-3.4-1.4c-1.2,0.1-2.3,0.1-3.4-1.1  c-0.3-0.3-0.4-0.6-0.4-1c0.1-1.5,1.7-3.4,2.7-4.3c0.7,0.5,1.5,1,2.2,1.5c2,1.3,4.1,2.8,6.3,4.3c4.8,3.5,4.8,5.9,4.7,9.5  c0,1.2-0.1,2.5,0.1,4c0.4,3.6-1.7,4.2-4.6,4.8c-0.4,0.1-0.7,0.1-1,0.2s-0.7,0.1-1.1,0.2c-1.9,0.4-4.8,1-6.9,2.9  c-0.2-0.7-0.4-1.5-0.6-2.4c-0.5-1.8-1-3.7-1.1-4.8C408.2,280.75,410.5,277.55,411.8,275.85z M281.9,251.95c-0.5,0.1-1,0.3-1.5,0.7  c-0.8-0.8-1.8-2.5-1.8-5.2c0-4.1-1.2-6.1-1.9-7c0.2-0.3,0.4-0.5,0.5-0.8c0.6-1.3,0.4-2.6-0.5-3.9c0.4-0.9,0.7-2.1,0.3-3.3  c0.5-0.9,0.9-2.3,0.5-3.9c0.3-0.4,0.7-1,1-1.8c5.9,6.5,12.9,12.1,13.4,12.5c0.3,1.6,0.8,3.3,1.4,4.9c2,5,5.4,9.2,10,12.6  c-2.2,3-6.3,6.8-11.3,3.4c-2.3-1.6-4.1-3.4-5.5-4.9C284.9,253.15,283.5,251.75,281.9,251.95z M271.2,263.15c0.3,0.3,0.6,0.5,1.1,0.4  c0.4,0,0.8-0.2,1-0.6c0.1-0.2,0.8-1,1.5-1.2c0.2,0,0.6-0.1,1.1,0.3c0.3,0.2,0.5,1,0.2,1.8c-0.5,1.5-2.1,2.3-4.3,2.2  c-0.5,0-1.1,0.3-1.3,0.8c-0.2,0.5-0.1,1.1,0.4,1.4l2.1,1.8l-3.4,0.8c-0.5,0.1-0.8,0.5-0.9,0.9c0,0-0.5,1.8-1.5,3.4  c-1-1.5-1.5-3.4-1.5-3.4c-0.1-0.4-0.5-0.8-0.9-0.9l-3.4-0.8l2.1-1.8c0.4-0.4,0.6-0.9,0.4-1.4s-0.7-0.9-1.3-0.8  c-2.2,0.1-3.8-0.7-4.3-2.2c-0.3-0.8-0.1-1.6,0.2-1.8c0.5-0.3,0.8-0.3,1.1-0.3c0.7,0.1,1.4,0.9,1.6,1.2c0.2,0.3,0.6,0.6,1,0.6  s0.8-0.1,1.1-0.4c3.3-3.7,1.9-7.9,0.3-10.2c1.2-1.5,2.5-4,2.8-4.6c0.2-0.4,0.1-1-0.2-1.3c-0.3-0.4-0.9-0.6-1.4-0.5  c-0.7,0.2-2.9,0.6-4.2-0.4c-0.4-0.3-0.5-1.3-0.2-1.9c0.1-0.2,0.5-0.8,1.8-0.3s3.1,1,4.2,0c0.3-0.2,0.4-0.5,0.5-0.8  c0.3,0.1,0.7,0.1,1,0.1c0.1,0.2,0.3,0.5,0.5,0.7c1.1,1,3,0.5,4.2,0c1.3-0.5,1.7,0.1,1.8,0.3c0.3,0.6,0.2,1.5-0.2,1.9  c-1.3,1-3.5,0.5-4.4,0.3c-0.5-0.1-1,0.1-1.3,0.5s-0.3,0.9-0.1,1.3c0.3,0.6,1.5,3,2.8,4.6C269.3,255.35,267.9,259.45,271.2,263.15z   M275.3,227.15c-0.4,0.4-0.5,0.9-0.3,1.4c0.6,1.7-0.2,2.6-0.2,2.7c-0.4,0.4-0.5,1-0.2,1.5c0.5,0.9-0.3,2.1-0.3,2.1  c-0.4,0.5-0.3,1.2,0,1.6c1,1.2,0.8,1.7,0.7,1.9c-0.4,0.8-1.1,1.4-2.3,1.9c-1.2,0.4-2.6,0.6-4,0.5c-0.1,0-0.1,0-0.1,0  c-1.6-0.1-3.2-0.4-4.2-0.9c-0.6-0.3-1.3-0.7-1.5-1.3c-0.1-0.5,0.2-1,0.2-1c0.2-0.3,0.3-0.6,0.2-1c-0.1-0.3-0.3-0.7-0.5-0.9  c-0.7-0.5-0.7-0.8-0.7-1c-0.1-0.6,0.4-1.3,0.6-1.5c0.2-0.3,0.3-0.6,0.3-1s-0.2-0.7-0.5-0.9c-0.4-0.3-1-0.9-1-1.4  c0-0.6,0.7-1.1,0.9-1.3c0.3-0.2,0.5-0.6,0.5-1s-0.2-0.8-0.5-1.1s-0.7-1.5-0.5-1.9c1.6,0.3,3.2,0.5,5.1,0.5c0.1,0,0.2,0,0.3,0  c3.5,0,6.5-0.6,9-1.7c0.2,0.2,0.3,0.4,0.5,0.6C276.5,225.95,275.4,227.15,275.3,227.15z M266.8,222.65c-6.9-0.1-11.5-2.3-12.3-6  c-0.2-1.1,0-1.9,0.6-2.6c0.8-0.8,2.2-1.3,3.8-1.3c0.3,0,0.7,0,1,0.1c0.4,0,0.4,0.2,0.4,0.2c0.3,0.5-0.1,2-0.6,2.9  c-0.3,0.6-0.1,1.4,0.6,1.7c4.6,2.4,11.2,1.3,12.9,0.5c0.2-0.1,0.8-0.4,1-1.1c0.1-0.5,0-1-0.2-1.5c-0.3-0.8-0.6-1.7,0.3-2.9  c0.5-0.6,1.6-0.3,1.9-0.2c1.5,0.5,3.1,2.1,3.1,4.2c0,1-0.4,1.9-1.3,2.7C275.9,221.45,271.7,222.65,266.8,222.65z M271.5,216.05  c-1.7,0.4-5.7,0.9-8.9-0.3c0.4-1.1,0.7-2.8,0-4c0-0.1-0.1-0.1-0.1-0.2l-0.3-40.3c0.3-23.9,11.4-32.7,16.6-35.5  c-2.3,7.2-6.9,27.7-6.7,75.8C270.9,213.45,271.2,215.05,271.5,216.05z M306.5,194.35l-1.3,3c-0.6-0.7-1.4-1.7-2-3.3  c-0.2-0.6-0.9-0.9-1.5-0.8l-4.8,1.3l1.1-2.7c0.2-0.4,0.1-0.9-0.2-1.3c-0.3-0.4-0.7-0.6-1.2-0.5l-5.8,0.6l2.2-5.8  c2.6,0.7,8.9,2.5,15.4,3.1l-0.9,1.2c-0.3,0.4-0.4,1-0.1,1.5s0.8,0.7,1.4,0.6c0.1,0,7-1.6,11.6-0.9c0.5,0.1,1-0.2,1.3-0.7  s0.2-1-0.2-1.5c-2.7-3.2-10.1-12-11.2-14.8c-0.2-0.5-0.8-0.8-1.3-0.8c-0.6,0.1-1,0.5-1.1,1.1l-0.6,4.1c-1-0.6-2.3-1.7-3.4-3.3  c-0.3-0.5-0.9-0.7-1.4-0.5s-0.9,0.6-0.9,1.2c0,0.1,0,0.6,0,1.3c-3.3-2.9-8.6-8.3-10.3-13.7c-1-3-0.9-5.3,0.2-6.5  c1-1.1,2.6-1.2,3.4-1c0.9,0.2,1.8,0.8,2.3,1.7s0.7,1.8,0.4,2.7c-0.1,0.4,0,0.8,0.2,1.1c0.3,0.3,0.7,0.5,1.1,0.5  c3.2-0.2,19.5-1.2,22.1-6.6c0.4-0.7,0.6-1.8,0.1-3.2c1.7-1,6-2.4,11.5,2.5c0.4,0.4,1.1,0.4,1.6,0.1c1.3-0.9,3.2-3.2,2.9-5.9  c1.9,0.2,5.2,1.2,7.5,4.9c0.2,0.3,0.6,0.6,1,0.6s0.8-0.1,1.1-0.4c0.1-0.1,2.2-2.3,3-5c1.5,0.4,4.6,1.5,7.5,5.2  c0.2,0.3,0.5,0.5,0.9,0.5c0.1,0,1.8,0.1,3.9-0.5c-6.5,5.2-17,6.3-17.1,6.3c-0.5,0-0.9,0.3-1.1,0.8c-0.2,0.4-0.1,0.9,0.2,1.3l1.8,2.2  c-7.2,0.1-10.4-2.5-10.5-2.5c-0.5-0.4-1.2-0.4-1.6,0c-0.5,0.4-0.6,1.1-0.3,1.6l1.6,2.9c-2.8-0.6-5.5-1.9-7.6-3  c-2.8-1.4-4.9-2.5-6.9-1.9c-1.4,0.4-2.5,1.7-2.7,3.4c-0.3,1.8,0.5,3.5,1.9,4.5c0.7,0.5,1.6,0.7,2.4,0.7c1.2,0,2.4-0.5,3.3-1.4  c0.8-0.8,1.2-1.7,1.4-2.6c2.9,1.5,6.4,3.1,10.4,3.3c0.5,0.1,0.9-0.2,1.1-0.6c0.2-0.4,0.3-0.9,0-1.3l-0.8-1.5c2.4,0.8,6,1.5,10.9,1  c0.5,0,0.9-0.3,1.1-0.8c0.2-0.4,0.1-0.9-0.2-1.3l-2-2.4c4-0.7,12.3-2.6,17.5-7.7c-0.9,2.4-2.3,4.8-4.6,6.1c-0.3,0.2-0.5,0.5-0.6,0.9  s0,0.7,0.3,1c0,0.1,4.2,5.5,2.9,19.6c-2.4-1.2-6.9-4.1-9.5-9.3c-0.3-0.6-0.9-0.8-1.5-0.7c-0.6,0.2-1,0.7-0.9,1.4  c0.2,1.7,0.3,4.3,0.2,6.2c-1.4-1-3.3-2.6-4.1-4.4c-0.2-0.5-0.7-0.8-1.3-0.7c-0.5,0.1-1,0.4-1.1,1c-0.3,1.4-0.8,3-1.1,4.1  c-1.3-0.8-3-2.1-3.7-3.4c-0.3-0.5-0.8-0.8-1.4-0.6c-0.6,0.1-1,0.6-1,1.2c-0.1,1.5-0.3,3.8-0.5,5.4c-1.2-0.7-2.8-1.8-4.1-2.9  c-0.3-0.3-0.8-0.4-1.2-0.3c-0.4,0.1-0.8,0.5-0.9,0.9l-0.7,2.5c-1.1-0.6-2.6-1.7-3.6-2.9c-0.4-0.5-1.3-0.6-1.8-0.2  c-0.5,0.4-0.6,1.3-0.2,1.8c2.1,2.6,5.8,4.2,5.9,4.3c0.3,0.2,0.7,0.2,1.1,0c0.3-0.2,0.6-0.5,0.7-0.8l0.6-2.1c2.1,1.5,4.3,2.8,4.4,2.8  c0.3,0.2,0.7,0.2,1,0.1c0.3-0.1,0.6-0.4,0.8-0.7c0.4-0.9,0.6-2.9,0.8-4.6c1.8,1.5,3.7,2.5,3.8,2.6c0.6,0.3,1.3,0.1,1.7-0.5  c0.4-0.6,0.8-2,1.2-3.3c2.1,2.3,4.9,3.9,5,4c0.3,0.2,0.7,0.2,1.1,0.1c0.4-0.1,0.6-0.4,0.8-0.8c0.4-1,0.5-2.6,0.5-4.2  c2.4,3,5.3,4.9,7.3,6v0.1c0,0.2,0.3,4.5,1,7.9c-2.2-0.8-5.6-2.4-8.8-5.4c-0.3-0.3-0.7-0.4-1.2-0.3c-0.4,0.1-0.8,0.4-0.9,0.8l-1,2.4  l-4.1-3c-0.4-0.3-0.8-0.3-1.3-0.1c-0.4,0.2-0.7,0.6-0.8,1l-0.4,2.9c-0.9-0.6-2-1.5-2.7-2.4c-0.5-0.5-1.3-0.6-1.8-0.1  s-0.6,1.3-0.1,1.8c1.8,2,4.9,3.9,5,4c0.4,0.2,0.8,0.2,1.2,0.1c0.4-0.2,0.7-0.6,0.7-1l0.4-2.8l3.7,2.7c0.3,0.2,0.7,0.3,1.1,0.2  s0.7-0.4,0.8-0.7l0.9-2.3c2.4,2,4.7,3.2,6.7,4.1c0,0.8,0.1,4.2,1.6,6.9c-2.3-0.1-6-0.5-9.4-2.2c-0.6-0.3-1.3-0.1-1.6,0.4l-1.9,2.9  l-7.7-5.2c-0.3-0.2-0.7-0.3-1.1-0.2s-0.7,0.4-0.8,0.8l-1.2,3.2c-1.4-1.6-3.4-3.8-4.2-4.4c-0.5-0.4-1.3-0.4-1.7,0.1  c0,0-1.8,1.9-4,3.4l-1.5-4c-0.2-0.7-1-1-1.6-0.8c-0.7,0.2-1,1-0.8,1.6l2,5.4c0.1,0.4,0.4,0.6,0.8,0.8c0.3,0.1,0.7,0.1,1.1-0.1  c2-1.1,3.9-2.8,5-3.8c1.2,1.2,3.2,3.5,4.5,4.9c0.3,0.3,0.8,0.5,1.2,0.4c0.4-0.1,0.8-0.4,1-0.8l1.4-3.7l7.4,5  c0.2,0.1,0.5,0.2,0.7,0.2c0.1,0,0.2,0,0.3,0c0.3-0.1,0.6-0.3,0.8-0.6l2-3c3.3,1.4,6.6,1.8,8.9,1.9c0,0.3,0.1,0.6,0.3,0.9  c0.3,0.4,1,1.1,1.7,1.9h-3.2c-0.4,0-0.7,0.2-0.9,0.4c-0.2,0.3-0.4,0.6-0.3,1l0.5,5c-1.8-0.4-4.6-1.2-6.4-2.4c-0.4-0.3-1-0.3-1.4,0  l-5.6,3.5l-2.9-7.8c-0.2-0.5-0.6-0.8-1.1-0.8c-0.6,0-1,0.2-1.2,0.7l-3.1,6.3l-2.2-3.5c-0.2-0.4-0.6-0.6-1.1-0.6  c-0.4,0-0.8,0.2-1.1,0.5c0,0-1.8,2.6-3.9,4.4l-1.5-4.6c-0.1-0.5-0.5-0.8-1-0.9c-0.5-0.1-1,0.1-1.2,0.5c0,0-1.6,2.3-3.6,4.4l-0.4-5.7  c0-0.4-0.3-0.8-0.7-1c-0.4-0.2-0.8-0.2-1.2,0c-0.6,0.3-1.6,0.8-2.6,1.4c1.5-3.1,3.2-7.5,2.2-9.8c-0.3-0.7-0.8-1.1-1.5-1.4l-0.1-0.1  c-0.1,0-0.1,0-0.2-0.1c0,0-0.1,0-0.1-0.1c-0.1,0-0.1,0-0.1,0h-0.1c-1.7-0.4-2.9,0.1-3.6,0.6s-1.2,1.2-1.5,1.8  c-0.8-0.8-1.8-1.9-2.4-3.4c-0.2-0.5-0.7-0.8-1.2-0.8C307.1,193.55,306.7,193.85,306.5,194.35z M296.7,180.05  c6.9,3.3,15.4,3.7,17.8,3.8c1.1,1.4,2.2,2.7,3.1,3.7c-2.1,0-4.3,0.2-6,0.5l0.3-0.4c0.3-0.4,0.4-0.9,0.2-1.3  c-0.2-0.4-0.6-0.7-1.1-0.8c-8.7-0.5-18.3-3.5-18.4-3.6l0,0l0,0c-1.4-0.4-2.3-1.2-2.3-2.1c-0.1-0.7,0.3-1.3,0.6-1.4  C292.1,177.85,295,179.25,296.7,180.05z M308.8,180.75c0.3-0.2,0.5-0.5,0.5-0.8l0.4-2.4c0.8,1.1,1.7,2.4,2.7,3.6  C311.4,181.05,310.2,180.95,308.8,180.75z M306.6,180.45c-0.6-0.1-1.3-0.3-1.9-0.4c0.1-0.3,0-0.6-0.1-0.8c0-0.1-0.1-0.2-0.1-0.2  C305.2,179.65,306,180.05,306.6,180.45z M323.5,166.45c-0.6,0.6-1.6,1-2.6,0.4c-0.7-0.5-0.9-1.3-0.8-2c0.1-0.5,0.4-1.1,0.9-1.3  c0.1,0,0.2,0,0.4,0c0.6,0,1.5,0.3,2.5,0.8l0,0C324.5,165.25,323.6,166.25,323.5,166.45z M372.2,185.65c0.4,0.2,0.8,0.3,1.2,0.1  c0.4-0.2,0.7-0.6,0.7-1c0.2-1.6,0.6-2.6,1.2-2.9c1-0.6,3.5,0.3,6.4,1.4c2.2,0.8,4.9,1.9,8,2.6c8.1,2,17.6,0.3,25.9-1.2  c2.8-0.5,5.6-1,8.1-1.3c5.3-0.7,10.7,1.5,12,4.9c1,2.6-0.5,5.5-4.4,8.3c-10.7,7.8-62,4.3-67.3,4c-1.4-1.3-1.9-4-2.1-5.8  c0.8,0.3,1.4,0.4,1.5,0.4s0.2,0,0.3,0c0.4,0,0.7-0.2,1-0.4c0.3-0.4,0.4-0.8,0.2-1.3c-0.8-2.2-1.2-6.2-1.4-8.3c0.3,0.1,0.7,0.1,1-0.1  c0.3-0.2,0.6-0.6,0.6-0.9c1.5-12.9-1.1-19.6-2.5-22.1c0.3-0.3,0.7-0.5,1-0.8c0.1,6.1,3.6,11,5.1,12.7  C366,179.65,369.7,184.05,372.2,185.65z"/>
<path style="fill:#FFD250;" d="M243.6,119.65c-0.5-10.3-2.9-27-10.8-27.4c-4.4-0.2-6.6,2.5-6.7,2.6c-0.3,0.3-0.7,0.5-1.1,0.5l-3-0.2  l0.5,2c0.1,0.5,0,1-0.4,1.3c-0.2,0.2-4.4,3.8-1.8,8.5c2,3.6,8.3,5.3,12.9,6.5c2.1,0.6,3.9,1,5,1.6  C240.4,116.05,242.2,117.75,243.6,119.65z"/>
<path style="fill:#464655;" d="M233,89.65c-4.5-0.2-7.3,2-8.4,3.1l-4.2-0.2c-0.4,0-0.8,0.2-1.1,0.5s-0.4,0.7-0.2,1.1l0.8,3  c-2,2.1-4.4,6.4-1.8,11.1c2.5,4.5,9.4,6.4,14.5,7.7c1.9,0.5,3.6,1,4.6,1.4c3,1.5,5.4,4.8,6.7,7.4c0.2,0.5,0.7,0.7,1.2,0.7  c0.1,0,0.2,0,0.3,0c0.6-0.1,1-0.6,1-1.2C246.3,122.85,246.5,90.25,233,89.65z M233.3,113.45c-4.6-1.2-11-2.9-12.9-6.5  c-2.6-4.7,1.7-8.4,1.8-8.5c0.4-0.3,0.5-0.8,0.4-1.3l-0.5-2l3,0.2c0.4,0,0.8-0.2,1.1-0.5c0.1-0.1,2.3-2.8,6.7-2.6  c7.8,0.4,10.3,17.1,10.8,27.4c-1.4-1.8-3.3-3.5-5.3-4.6C237.2,114.45,235.4,114.05,233.3,113.45z"/>
<path style="fill:#FFD250;" d="M457.9,119.65c0.5-10.3,2.9-27,10.8-27.4c4.4-0.2,6.6,2.5,6.7,2.6c0.3,0.3,0.7,0.5,1.1,0.5l3-0.2  l-0.5,2c-0.1,0.5,0,1,0.4,1.3c0.2,0.2,4.4,3.8,1.8,8.5c-2,3.6-8.3,5.3-12.9,6.5c-2.1,0.6-3.9,1-5,1.6  C461.1,116.05,459.3,117.75,457.9,119.65z"/>
<path style="fill:#464655;" d="M455.2,124.25c0,0.6,0.4,1.1,1,1.2c0.1,0,0.2,0,0.3,0c0.5,0,0.9-0.3,1.2-0.7c1.3-2.6,3.7-6,6.7-7.4  c0.9-0.5,2.6-0.9,4.5-1.4c5.1-1.4,12-3.2,14.5-7.7c2.6-4.7,0.2-9.1-1.8-11.1l0.8-3c0.1-0.4,0-0.8-0.2-1.1c-0.3-0.3-0.7-0.5-1.1-0.5  l-4.2,0.2c-1.1-1.1-3.9-3.3-8.4-3.1C455,90.25,455.2,122.85,455.2,124.25z M463.2,115.05c-2.1,1-3.9,2.7-5.3,4.6  c0.5-10.3,2.9-27,10.8-27.4c4.4-0.2,6.6,2.5,6.7,2.6c0.3,0.3,0.7,0.5,1.1,0.5l3-0.2l-0.5,2c-0.1,0.5,0,1,0.4,1.3  c0.2,0.2,4.4,3.8,1.8,8.5c-2,3.6-8.3,5.3-12.9,6.5C466.2,114.05,464.4,114.45,463.2,115.05z"/>
<path style="fill:#FFD250;" d="M457.9,310.45c0.5,10.3,2.9,27,10.8,27.4c4.4,0.2,6.6-2.5,6.7-2.6c0.3-0.3,0.7-0.5,1.1-0.5l3,0.2  l-0.5-2c-0.1-0.5,0-1,0.4-1.3c0.2-0.2,4.4-3.8,1.8-8.5c-2-3.6-8.3-5.3-12.9-6.5c-2.1-0.6-3.9-1-5-1.6  C461.1,314.05,459.3,312.35,457.9,310.45z"/>
<path style="fill:#464655;" d="M468.6,340.45c4.5,0.2,7.3-2,8.4-3.1l4.2,0.2c0.4,0,0.8-0.2,1.1-0.5c0.3-0.3,0.4-0.7,0.2-1.1l-0.8-3  c2-2.1,4.4-6.4,1.8-11.1c-2.5-4.5-9.4-6.4-14.5-7.7c-1.9-0.5-3.6-1-4.5-1.4c-3-1.5-5.4-4.8-6.7-7.4c-0.2-0.5-0.7-0.7-1.2-0.7  c-0.1,0-0.2,0-0.3,0c-0.6,0.1-1,0.6-1,1.2C455.2,307.25,455,339.85,468.6,340.45z M468.2,316.65c4.6,1.2,11,2.9,12.9,6.5  c2.6,4.7-1.7,8.4-1.8,8.5c-0.4,0.3-0.5,0.8-0.4,1.3l0.5,2l-3-0.2c-0.4,0-0.8,0.2-1.1,0.5c-0.1,0.1-2.3,2.8-6.7,2.6  c-7.8-0.4-10.3-17.1-10.8-27.4c1.4,1.8,3.3,3.5,5.3,4.6C464.4,315.65,466.2,316.15,468.2,316.65z"/>
<path style="fill:#FFD250;" d="M243.6,310.45c-0.5,10.3-2.9,27-10.8,27.4c-4.4,0.2-6.6-2.5-6.7-2.6c-0.3-0.3-0.7-0.5-1.1-0.5l-3,0.2  l0.5-2c0.1-0.5,0-1-0.4-1.3c-0.2-0.2-4.4-3.8-1.8-8.5c2-3.6,8.3-5.3,12.9-6.5c2.1-0.6,3.9-1,5-1.6  C240.4,314.05,242.2,312.35,243.6,310.45z"/>
<path style="fill:#464655;" d="M246.3,305.85c0-0.6-0.4-1.1-1-1.2c-0.1,0-0.2,0-0.3,0c-0.5,0-0.9,0.3-1.2,0.7  c-1.3,2.6-3.7,6-6.7,7.4c-0.9,0.5-2.6,0.9-4.6,1.4c-5.1,1.4-12,3.2-14.5,7.7c-2.6,4.7-0.2,9.1,1.8,11.1l-0.8,3  c-0.1,0.4,0,0.8,0.2,1.1c0.3,0.3,0.7,0.5,1.1,0.5l4.2-0.2c1.1,1.1,3.9,3.3,8.4,3.1C246.5,339.85,246.3,307.25,246.3,305.85z   M238.3,315.05c2.1-1,3.9-2.7,5.3-4.6c-0.5,10.3-2.9,27-10.8,27.4c-4.4,0.2-6.6-2.5-6.7-2.6c-0.3-0.3-0.7-0.5-1.1-0.5l-3,0.2l0.5-2  c0.1-0.5,0-1-0.4-1.3c-0.2-0.2-4.4-3.8-1.8-8.5c2-3.6,8.3-5.3,12.9-6.5C235.4,316.15,237.2,315.65,238.3,315.05z"/>
<path style="fill:#2E3033;" d="M19.3,490.55L19.3,490.55c-10.6,0-19.3-8.6-19.3-19.3V40.65c0-10.6,8.6-19.1,19.2-19.1h0.2  c10.7,0,19.3,8.7,19.3,19.3v430.4C38.6,481.95,30,490.55,19.3,490.55z"/>
<g>
</g>
<g>
</g>
<g>
</g>
<g>
</g>
<g>
</g>
<g>
</g>
<g>
</g>
<g>
</g>
<g>
</g>
<g>
</g>
<g>
</g>
<g>
</g>
<g>
</g>
<g>
</g>
<g>
</g>
</svg>
