<?xml version="1.0" encoding="iso-8859-1"?>
<!-- Generator: Adobe Illustrator 19.0.0, SVG Export Plug-In . SVG Version: 6.00 Build 0)  -->
<svg xmlns="http://www.w3.org/2000/svg" xmlns:xlink="http://www.w3.org/1999/xlink" version="1.1" id="Layer_1" x="0px" y="0px" viewBox="0 0 512 512" style="enable-background:new 0 0 512 512;" xml:space="preserve">
<path style="fill:#FF4B55;" d="M512,85H27V64.5c0-4.6,3.8-8.4,8.4-8.4h468.2c4.6,0,8.4,3.8,8.4,8.4V85z"/>
<rect x="27" y="85" style="fill:#F5F5F5;" width="485" height="28.9"/>
<rect x="27" y="113.9" style="fill:#FF4B55;" width="485" height="28.9"/>
<rect x="27" y="142.8" style="fill:#F5F5F5;" width="485" height="28.9"/>
<path style="fill:#FF4B55;" d="M512,200.6H35.4c-4.6,0-8.4-3.8-8.4-8.4v-20.5h485V200.6z"/>
<polygon style="fill:#F5F5F5;" points="512,229.4 27,229.4 27,189.9 35.4,189.9 35.4,200.6 512,200.6 "/>
<rect x="27" y="229.4" style="fill:#FF4B55;" width="485" height="28.9"/>
<rect x="27" y="258.3" style="fill:#F5F5F5;" width="485" height="28.9"/>
<rect x="27" y="287.2" style="fill:#FF4B55;" width="485" height="28.9"/>
<rect x="27" y="316.1" style="fill:#F5F5F5;" width="485" height="28.9"/>
<path style="fill:#FF4B55;" d="M503.6,373.9H35.4c-4.6,0-8.4-3.8-8.4-8.4V345h485v20.5C512,370.1,508.2,373.9,503.6,373.9z"/>
<path style="fill:#41479B;" d="M164.1,200.6H38.8c-4.6,0-8.4-3.8-8.4-8.4V64.5c0-4.6,3.8-8.4,8.4-8.4h125.3c4.6,0,8.4,3.8,8.4,8.4  v127.6C172.5,196.8,168.8,200.6,164.1,200.6z"/>
<path style="fill:#F5F5F5;" d="M99.1,93.5l-8,23.9l-25.2,0.2c-2.4,0-3.4,3.1-1.5,4.5l20.3,15l-7.6,24.1c-0.7,2.3,1.9,4.2,3.9,2.8  l20.5-14.7L122,164c2,1.4,4.6-0.5,3.9-2.8l-7.6-24.1l20.3-15c1.9-1.4,0.9-4.5-1.5-4.5l-25.2-0.2l-8-23.9  C103.1,91.2,99.8,91.2,99.1,93.5z"/>
<path style="fill:#2E3033;" d="M18.9,485.2L18.9,485.2C8.5,485.2,0,476.7,0,466.3V45.5c0-10.3,8.4-18.7,18.7-18.7h0.2  c10.4,0,18.9,8.5,18.9,18.9v420.6C37.8,476.7,29.3,485.2,18.9,485.2z"/>
<g>
</g>
<g>
</g>
<g>
</g>
<g>
</g>
<g>
</g>
<g>
</g>
<g>
</g>
<g>
</g>
<g>
</g>
<g>
</g>
<g>
</g>
<g>
</g>
<g>
</g>
<g>
</g>
<g>
</g>
</svg>
