<?xml version="1.0" encoding="iso-8859-1"?>
<!-- Generator: Adobe Illustrator 19.0.0, SVG Export Plug-In . SVG Version: 6.00 Build 0)  -->
<svg xmlns="http://www.w3.org/2000/svg" xmlns:xlink="http://www.w3.org/1999/xlink" version="1.1" id="Layer_1" x="0px" y="0px" viewBox="0 0 512 512" style="enable-background:new 0 0 512 512;" xml:space="preserve">
<path style="fill:#73AF00;" d="M27,268h485v97.5c0,4.6-3.8,8.4-8.4,8.4H35.4c-4.6,0-8.4-3.8-8.4-8.4C27,365.5,27,268,27,268z"/>
<path style="fill:#41479B;" d="M35.4,56.1h468.2c4.6,0,8.4,3.8,8.4,8.4V162H27V64.5C27,59.9,30.8,56.1,35.4,56.1z"/>
<rect x="27" y="162" style="fill:#F5F5F5;" width="485" height="105.9"/>
<path style="fill:#464655;" d="M298.4,233.9l-1.9,1c-0.3,0.1-0.6,0.3-0.8,0.4l-17.2-21.7c3.5-7.7,5.6-18.1,5.6-22.9  c0-7.8-5.1-14.3-11.9-15.7c-0.5-1-1.5-1.7-2.7-1.7s-2.2,0.7-2.7,1.7c-6.8,1.4-11.9,7.9-11.9,15.7c0,4.8,2.1,15.2,5.6,22.9  l-17.2,21.7c-0.3-0.1-0.6-0.2-0.8-0.4l-1.9-1l-7.3,14.3l1.9,1c9.9,5,21.7,7.7,34.2,7.7s24.3-2.7,34.2-7.7l1.9-1L298.4,233.9z   M281.1,190.6c0,3.5-1.3,11-3.7,17.8c-0.3,0.9-0.7,1.7-1,2.6l-2.5-3.2v-11.3h4.4l-5.8-5.8V178C277.4,179.4,281.1,184.6,281.1,190.6z   M261.6,208.4c-2.4-6.8-3.7-14.3-3.7-17.8c0-6.1,3.7-11.2,8.7-12.7v12.7l-5.8,5.8h4.4v11.3l-2.5,3.2  C262.3,210.2,261.9,209.3,261.6,208.4z M242.1,240.7l0.6,2.4l-2.1,0.6L242.1,240.7z M239.5,246.3l3.6-1l0.7,2.8  C242.4,247.5,240.9,246.9,239.5,246.3z M245.1,240.7c1.7,0.7,3.4,1.2,5.2,1.8l0.5,1.6l-4.6,1.1L245.1,240.7z M247.1,249.2l-0.4-1.8  l4.8-1.2l1.5,4.5C250.9,250.3,249,249.7,247.1,249.2z M253.6,243.3c1.8,0.4,3.7,0.8,5.6,1.1l0.8,1.4l-5,1.6L253.6,243.3z   M256.2,251.3l-0.6-1.8l5.5-1.7l2.5,4.4C261,252,258.6,251.7,256.2,251.3z M262.7,244.8c2.2,0.2,4.5,0.3,6.8,0.3c0.5,0,1,0,1.5,0  l0.6,0.9l-6.7,2.6L262.7,244.8z M269.5,252.4c-0.9,0-1.7,0-2.6-0.1l-1-1.8l6.9-2.7l2.8,4.3C273.6,252.3,271.6,252.4,269.5,252.4z   M274.3,245c2.3-0.2,4.6-0.4,6.8-0.8l0.7,0.8l-5.3,3.3L274.3,245z M278.8,251.9l-1.1-1.8l5.5-3.4l3,3.9  C283.8,251.2,281.3,251.6,278.8,251.9z M284.4,243.6c1.9-0.4,3.8-0.9,5.6-1.5l0.7,0.9l-3.9,3.6L284.4,243.6z M289.3,249.9l-1.2-1.5  l3.9-3.6l2.7,3.5C292.9,248.9,291.1,249.4,289.3,249.9z M292.9,241.1c1.2-0.5,2.4-0.9,3.6-1.5l0.6,1.1l-1.9,3.3L292.9,241.1z   M297.5,247.1l-0.9-1.1l1.6-2.9l1.5,3C299,246.5,298.2,246.8,297.5,247.1z"/>
<path style="fill:#2E3033;" d="M19.3,490.5L19.3,490.5C8.7,490.5,0,481.9,0,471.2V40.6C0,30,8.6,21.5,19.2,21.5h0.2  c10.7,0,19.3,8.7,19.3,19.3v430.4C38.6,481.9,30,490.5,19.3,490.5z"/>
<g>
</g>
<g>
</g>
<g>
</g>
<g>
</g>
<g>
</g>
<g>
</g>
<g>
</g>
<g>
</g>
<g>
</g>
<g>
</g>
<g>
</g>
<g>
</g>
<g>
</g>
<g>
</g>
<g>
</g>
</svg>
