<?xml version="1.0" encoding="iso-8859-1"?>
<!-- Generator: Adobe Illustrator 19.0.0, SVG Export Plug-In . SVG Version: 6.00 Build 0)  -->
<svg xmlns="http://www.w3.org/2000/svg" xmlns:xlink="http://www.w3.org/1999/xlink" version="1.1" id="Layer_1" x="0px" y="0px" viewBox="0 0 512 512" style="enable-background:new 0 0 512 512;" xml:space="preserve">
<path style="fill:#73AF00;" d="M28,290.1h484v75c0,4.6-3.8,8.4-8.4,8.4H36.4c-4.6,0-8.4-3.8-8.4-8.4C28,365.2,28,290.1,28,290.1z"/>
<path style="fill:#FF4B55;" d="M36.4,56.4h467.2c4.6,0,8.4,3.8,8.4,8.4v75H28v-75C28,60.2,31.8,56.4,36.4,56.4z"/>
<rect x="28" y="139.9" style="fill:#464655;" width="484" height="150.2"/>
<g>
	<path style="fill:#F5F5F5;" d="M317.3,188l12.6,16.5l19.7-6.6c1.1-0.4,2,0.9,1.4,1.8l-11.8,17.1l12.3,16.7c0.7,0.9-0.2,2.2-1.3,1.9   l-19.9-5.9l-12,16.9c-0.7,0.9-2.2,0.5-2.2-0.7l-0.5-20.7l-19.8-6.2c-1.1-0.3-1.1-1.9,0-2.3l19.5-6.9l-0.2-20.7   C315.1,187.6,316.6,187.1,317.3,188z"/>
	<path style="fill:#F5F5F5;" d="M283.3,255.5c-22.4,0-40.5-18.2-40.5-40.5c0-22.4,18.2-40.5,40.5-40.5c8.3,0,16,2.6,22.4,6.9   c1,0.7,2.1-0.6,1.3-1.5c-9.6-10-23.1-16-38.1-15.5c-25.7,0.9-47.1,21.6-48.8,47.3c-1.9,29.4,21.5,54,50.5,54   c14.3,0,27.1-6,36.4-15.6c0.8-0.8-0.3-2.1-1.3-1.5C299.2,253,291.6,255.5,283.3,255.5z"/>
</g>
<path style="fill:#2E3033;" d="M19.2,488.7L19.2,488.7C8.6,488.7,0,480.1,0,469.6V42.3c0-10.5,8.5-19,19-19h0.2  c10.6,0,19.2,8.6,19.2,19.2v427.1C38.3,480.1,29.8,488.7,19.2,488.7z"/>
<g>
</g>
<g>
</g>
<g>
</g>
<g>
</g>
<g>
</g>
<g>
</g>
<g>
</g>
<g>
</g>
<g>
</g>
<g>
</g>
<g>
</g>
<g>
</g>
<g>
</g>
<g>
</g>
<g>
</g>
</svg>
