<?xml version="1.0" encoding="iso-8859-1"?>
<!-- Generator: Adobe Illustrator 19.0.0, SVG Export Plug-In . SVG Version: 6.00 Build 0)  -->
<svg xmlns="http://www.w3.org/2000/svg" xmlns:xlink="http://www.w3.org/1999/xlink" version="1.1" id="Layer_1" x="0px" y="0px" viewBox="0 0 512 512" style="enable-background:new 0 0 512 512;" xml:space="preserve">
<path style="fill:#FF4B55;" d="M503.56,374.155H35.87c-4.661,0-8.44-3.779-8.44-8.44V65.118c0-4.661,3.779-8.44,8.44-8.44h467.69  c4.661,0,8.44,3.779,8.44,8.44v300.597C512,370.376,508.222,374.155,503.56,374.155z"/>
<path style="fill:#5A8250;" d="M309.418,236.2l63.82-46.827h-79.035l-24.489-75.372l-24.489,75.372H166.19l63.82,46.827  l-24.299,74.788l63.94-45.703l0.062,0.045l0.062-0.045l63.94,45.703L309.418,236.2z M322.222,206.082l-18.24,13.384l-4.349-13.384  H322.222z M249.636,229.875l7.731-23.792h24.697l7.731,23.792l-20.079,14.733L249.636,229.875z M269.715,168.079l6.919,21.294  h-13.839L269.715,168.079z M217.209,206.082h22.589l-4.349,13.384L217.209,206.082z M237.287,267.878l6.91-21.268l11.273,8.271  L237.287,267.878z M295.232,246.609l6.91,21.268L283.96,254.88L295.232,246.609z"/>
<path style="fill:#2E3033;" d="M19.122,488.1L19.122,488.1C8.561,488.1,0,479.539,0,468.979V42.864C0,32.39,8.491,23.9,18.965,23.9  h0.157c10.561,0,19.122,8.561,19.122,19.122V468.98C38.244,479.539,29.683,488.1,19.122,488.1z"/>
<g>
</g>
<g>
</g>
<g>
</g>
<g>
</g>
<g>
</g>
<g>
</g>
<g>
</g>
<g>
</g>
<g>
</g>
<g>
</g>
<g>
</g>
<g>
</g>
<g>
</g>
<g>
</g>
<g>
</g>
</svg>
