<?xml version="1.0" encoding="iso-8859-1"?>
<!-- Generator: Adobe Illustrator 19.0.0, SVG Export Plug-In . SVG Version: 6.00 Build 0)  -->
<svg xmlns="http://www.w3.org/2000/svg" xmlns:xlink="http://www.w3.org/1999/xlink" version="1.1" id="Layer_1" x="0px" y="0px" viewBox="0 0 512.001 512.001" style="enable-background:new 0 0 512.001 512.001;" xml:space="preserve">
<path style="fill:#41479B;" d="M350.697,60.726h152.906c4.638,0,8.398,3.76,8.398,8.398v300.249c0,4.638-3.76,8.398-8.398,8.398  H350.697V60.726z"/>
<rect x="189.39" y="60.726" style="fill:#FFE15A;" width="161.3" height="317.04"/>
<path style="fill:#41479B;" d="M36.488,60.726h152.906v317.045H36.488c-4.638,0-8.398-3.76-8.398-8.398V69.124  C28.09,64.485,31.849,60.726,36.488,60.726z"/>
<polygon style="fill:#FF4B55;" points="311.762,198.389 290.903,198.389 290.903,177.531 303.418,160.844 290.903,160.844   249.187,160.844 236.672,160.844 249.187,177.531 249.187,198.389 228.328,198.389 211.642,185.874 211.642,198.389   211.642,240.106 211.642,252.621 228.328,240.106 249.187,240.106 249.187,260.964 236.672,277.651 249.187,277.651   290.903,277.651 303.418,277.651 290.903,260.964 290.903,240.106 311.762,240.106 328.448,252.621 328.448,240.106   328.448,198.389 328.448,185.874 "/>
<polygon style="fill:#F5F5F5;" points="311.762,210.904 278.388,210.904 278.388,177.531 261.702,177.531 261.702,210.904   228.328,210.904 228.328,227.591 261.702,227.591 261.702,260.964 278.388,260.964 278.388,227.591 311.762,227.591 "/>
<path style="fill:#2E3033;" d="M19.026,486.943L19.026,486.943C8.519,486.943,0,478.425,0,467.917V43.929  c0-10.422,8.448-18.871,18.87-18.871h0.156c10.508,0,19.026,8.519,19.026,19.026v423.831  C38.053,478.425,29.534,486.943,19.026,486.943z"/>
<g>
</g>
<g>
</g>
<g>
</g>
<g>
</g>
<g>
</g>
<g>
</g>
<g>
</g>
<g>
</g>
<g>
</g>
<g>
</g>
<g>
</g>
<g>
</g>
<g>
</g>
<g>
</g>
<g>
</g>
</svg>
