<?xml version="1.0" encoding="iso-8859-1"?>
<!-- Generator: Adobe Illustrator 19.0.0, SVG Export Plug-In . SVG Version: 6.00 Build 0)  -->
<svg xmlns="http://www.w3.org/2000/svg" xmlns:xlink="http://www.w3.org/1999/xlink" version="1.1" id="Layer_1" x="0px" y="0px" viewBox="0 0 512 512" style="enable-background:new 0 0 512 512;" xml:space="preserve">
<path style="fill:#41479B;" d="M503.524,374.657H28.871c-4.681,0-8.476-3.795-8.476-8.476V61.048c0-4.681,3.795-8.476,8.476-8.476  h474.653c4.681,0,8.476,3.795,8.476,8.476v305.133C512,370.862,508.205,374.657,503.524,374.657z"/>
<g>
	<polygon style="fill:#F5F5F5;" points="512,196.663 283.149,196.663 283.149,52.572 249.245,52.572 249.245,196.663    20.395,196.663 20.395,230.566 249.245,230.566 249.245,374.657 283.149,374.657 283.149,230.566 512,230.566  "/>
	<path style="fill:#F5F5F5;" d="M185.937,162.839c-0.243-1.442-0.79-3.15-1.481-4.25c-1.374-1.9-2.964-3.229-4.504-4.057   c-12.135-5.575-22.295-4.482-31.99-4.521c-9.576,0.247-18.534,1.899-25.806,3.49c-1.974,0.397-3.684,0.694-5.514,1.038   c0.905-1.869,4.22-4.206,8.685-5.624c10.884-3.718,23.309-5.211,35.52-7.59c3.084-0.604,6.211-1.312,9.411-2.222   c1.724-0.59,3.174-1.051,5.204-1.994c1.302-0.736,2.584-1.663,3.681-2.653c1.168-1.05,1.079-1.344,1.679-2.053   c2.773-5.278,0.148-9.036-2.053-10.999c-2.121-1.741-3.907-2.421-5.608-3.12c-3.301-1.158-6.359-1.884-9.311-2.499   c-5.687-1.138-11.278-2.257-16.752-3.352c-2.6-0.602-5.115-1.27-7.321-2.081c-1.948-0.519-4.701-2.444-4.292-1.92   c-5.03-0.434,6.889-6.044,15.483-9.178c2.284-1.009,4.555-2.026,6.881-3.462c2.282-1.509,4.634-2.789,7.17-7.013   c0.498-0.876,0.477-1.09,0.738-1.663l0.29-0.729c0.629-2.246,0.283-1.64,0.429-2.614c0.297-2.356-0.628-4.875-2.091-6.973   c-2.987-3.228-5.958-4.152-8.164-4.77c-9.125-2.162-15.691-1.571-21.395-1.549c-10.817,0.509-17,0.799-17,0.799l-0.417,0.019   c-0.013,0.001-0.024,0.001-0.037,0.002c-3.457,0.202-6.095,3.169-5.893,6.625c0.019,0.338,0.178,0.621,0.248,0.941   c-4.899,1.35-12.65,2.73-20.319,0.923c-1.168-0.269-2.246,0.433-2.515,1.551c-0.269,1.127,0.433,2.254,1.551,2.515   c3.013,0.711,6.002,0.989,8.852,0.989c6.054,0,11.225-1.232,14.757-2.314c1.139,0.845,2.524,1.378,4.05,1.289   c0,0,6.247-0.366,17.18-1.005c5.118-0.184,11.998-0.455,17.673,0.879c0.469,0.073,0.722,0.219,1.032,0.351   c0.044-0.503-0.916,0.914-2.417,1.643c-1.457,0.94-3.352,1.84-5.324,2.736c-4.032,1.828-8.648,3.398-13.763,6.15   c-2.47,1.458-5.523,2.938-8.06,7.269c-1.186,2.007-1.748,5.251-1.125,7.538l0.184,0.932l0.105,0.461l0.056,0.229   c-0.393-0.815,0.598,1.377,0.519,1.179l0.512,0.852c0.455,0.649,0.384,0.918,1.474,2.051c0.875,0.947,1.863,1.853,2.882,2.644   c0.893,0.615,1.56,0.905,2.363,1.359c1.583,0.933,3.021,1.366,4.521,1.954c2.957,1.041,5.837,1.749,8.712,2.385   c5.551,1.045,11.222,2.112,16.99,3.198c2.419,0.467,4.682,1.057,6.774,1.702c-2.679,0.966-6.43,1.94-9.665,2.563   c-11.767,2.483-24.244,3.985-36.935,8.442c-3.176,1.209-6.43,2.654-9.621,5.097c-3.005,2.277-6.162,6.817-5.758,11.805   c-1.076,0.15-2.313,0.371-3.308,0.481c-10.765,1.425-15.29-0.47-14.998-0.525c-1.406-0.83-3.218-0.364-4.047,1.041   c-0.831,1.405-0.364,3.218,1.04,4.047c0,0,1.846,1.253,5.14,1.975c3.278,0.742,7.89,1.081,13.506,0.639   c1.547-0.106,3.359-0.337,5.06-0.517c1.176,1.695,2.546,3.566,3.823,4.472c2.966,2.488,6.106,4.079,9.237,5.472   c12.601,4.874,25.194,5.897,37.472,5.414c6.164-0.463,12.231-1.182,18.461-3.961c2.904-1.355,6.891-3.488,8.122-9.659   C185.923,164.328,186.058,163.968,185.937,162.839z M176.876,164.785c-0.16-0.912-0.662,1.157-3.015,1.727   c-4.049,1.779-9.576,2.594-15.009,2.88c-10.955,0.36-22.919-0.919-33.178-5.079c-1.613-0.745-2.927-1.684-4.311-2.58   c0.761-0.117,1.42-0.197,2.2-0.32c7.623-1.214,15.568-2.645,24.695-2.795c8.692-0.159,19.762-0.039,27.111,3.617   c0.854,0.46,1.227,0.939,1.51,1.228c0,0-0.244-0.292,0.028-0.479C177.027,163.169,176.876,164.209,176.876,164.785z"/>
	<path style="fill:#F5F5F5;" d="M448.692,162.839c-0.243-1.442-0.79-3.15-1.481-4.25c-1.374-1.9-2.964-3.229-4.504-4.057   c-12.135-5.575-22.295-4.482-31.99-4.521c-9.576,0.247-18.534,1.899-25.806,3.49c-1.974,0.397-3.684,0.694-5.514,1.038   c0.905-1.869,4.22-4.206,8.685-5.624c10.884-3.718,23.309-5.211,35.52-7.59c3.084-0.604,6.211-1.312,9.411-2.222   c1.724-0.59,3.174-1.051,5.204-1.994c1.302-0.736,2.584-1.663,3.681-2.653c1.168-1.05,1.079-1.344,1.679-2.053   c2.773-5.278,0.148-9.036-2.053-10.999c-2.121-1.741-3.907-2.421-5.608-3.12c-3.301-1.158-6.359-1.884-9.311-2.499   c-5.687-1.138-11.278-2.257-16.752-3.352c-2.6-0.602-5.115-1.27-7.321-2.081c-1.948-0.519-4.701-2.444-4.292-1.92   c-5.03-0.434,6.889-6.044,15.483-9.178c2.284-1.009,4.555-2.026,6.881-3.462c2.282-1.509,4.634-2.789,7.17-7.013   c0.498-0.876,0.477-1.09,0.738-1.663l0.29-0.729c0.629-2.246,0.283-1.64,0.429-2.614c0.297-2.356-0.628-4.875-2.091-6.973   c-2.987-3.228-5.958-4.152-8.164-4.77c-9.125-2.162-15.691-1.571-21.395-1.549c-10.817,0.509-17,0.799-17,0.799l-0.417,0.019   c-0.013,0.001-0.024,0.001-0.037,0.002c-3.457,0.202-6.095,3.169-5.893,6.625c0.019,0.338,0.178,0.621,0.248,0.941   c-4.899,1.35-12.65,2.73-20.319,0.923c-1.168-0.269-2.246,0.433-2.515,1.551c-0.269,1.127,0.433,2.254,1.552,2.515   c3.013,0.711,6.002,0.989,8.852,0.989c6.054,0,11.225-1.232,14.757-2.314c1.139,0.845,2.524,1.378,4.05,1.289   c0,0,6.247-0.366,17.18-1.005c5.118-0.184,11.998-0.455,17.673,0.879c0.469,0.073,0.721,0.219,1.032,0.351   c0.044-0.503-0.916,0.914-2.417,1.643c-1.457,0.94-3.352,1.84-5.324,2.736c-4.032,1.828-8.648,3.398-13.763,6.15   c-2.47,1.458-5.523,2.938-8.06,7.269c-1.186,2.007-1.748,5.251-1.125,7.538l0.184,0.932l0.105,0.461l0.056,0.229   c-0.393-0.815,0.598,1.377,0.519,1.179l0.512,0.852c0.455,0.649,0.384,0.918,1.474,2.051c0.875,0.947,1.863,1.853,2.882,2.644   c0.893,0.615,1.56,0.905,2.363,1.359c1.583,0.933,3.021,1.366,4.521,1.954c2.957,1.041,5.837,1.749,8.712,2.385   c5.551,1.045,11.222,2.112,16.99,3.198c2.419,0.467,4.682,1.057,6.774,1.702c-2.679,0.966-6.43,1.94-9.665,2.563   c-11.767,2.483-24.244,3.985-36.935,8.442c-3.176,1.209-6.43,2.654-9.621,5.097c-3.005,2.277-6.162,6.817-5.758,11.805   c-1.076,0.15-2.313,0.371-3.308,0.481c-10.766,1.425-15.29-0.47-14.998-0.525c-1.406-0.83-3.218-0.364-4.047,1.041   c-0.831,1.405-0.364,3.218,1.04,4.047c0,0,1.846,1.253,5.14,1.975c3.278,0.742,7.89,1.081,13.506,0.639   c1.547-0.106,3.359-0.337,5.06-0.517c1.176,1.695,2.546,3.566,3.823,4.472c2.966,2.488,6.107,4.079,9.237,5.472   c12.601,4.874,25.195,5.897,37.472,5.414c6.164-0.463,12.231-1.182,18.461-3.961c2.904-1.355,6.891-3.488,8.122-9.659   C448.676,164.328,448.812,163.968,448.692,162.839z M439.629,164.785c-0.16-0.912-0.662,1.157-3.015,1.727   c-4.049,1.779-9.576,2.594-15.009,2.88c-10.955,0.36-22.919-0.919-33.178-5.079c-1.613-0.745-2.927-1.684-4.311-2.58   c0.761-0.117,1.42-0.197,2.199-0.32c7.623-1.214,15.568-2.645,24.695-2.795c8.692-0.159,19.762-0.039,27.111,3.617   c0.854,0.46,1.227,0.939,1.51,1.228c0,0-0.244-0.292,0.028-0.479C439.781,163.169,439.63,164.209,439.629,164.785z"/>
	<path style="fill:#F5F5F5;" d="M185.937,340.835c-0.243-1.442-0.79-3.15-1.481-4.25c-1.374-1.9-2.964-3.229-4.504-4.057   c-12.135-5.575-22.295-4.482-31.99-4.521c-9.576,0.247-18.534,1.899-25.806,3.49c-1.974,0.397-3.684,0.694-5.514,1.038   c0.905-1.869,4.22-4.206,8.685-5.624c10.884-3.718,23.309-5.211,35.52-7.59c3.084-0.604,6.211-1.312,9.411-2.223   c1.724-0.59,3.174-1.051,5.204-1.994c1.302-0.736,2.584-1.663,3.681-2.653c1.168-1.05,1.079-1.345,1.679-2.053   c2.773-5.278,0.148-9.036-2.053-10.999c-2.121-1.741-3.907-2.421-5.608-3.12c-3.301-1.158-6.359-1.884-9.311-2.499   c-5.687-1.138-11.278-2.257-16.752-3.352c-2.6-0.602-5.115-1.27-7.321-2.081c-1.948-0.519-4.701-2.444-4.292-1.92   c-5.03-0.434,6.889-6.044,15.483-9.178c2.284-1.009,4.555-2.026,6.881-3.462c2.282-1.509,4.634-2.789,7.17-7.013   c0.498-0.876,0.477-1.09,0.738-1.663l0.29-0.729c0.629-2.246,0.283-1.64,0.429-2.614c0.297-2.356-0.628-4.875-2.091-6.972   c-2.987-3.228-5.958-4.152-8.164-4.77c-9.125-2.162-15.691-1.571-21.395-1.549c-10.817,0.509-17,0.799-17,0.799l-0.417,0.019   c-0.013,0.001-0.024,0.001-0.037,0.002c-3.457,0.202-6.095,3.169-5.893,6.625c0.019,0.338,0.178,0.621,0.248,0.941   c-4.899,1.35-12.65,2.73-20.319,0.923c-1.168-0.269-2.246,0.433-2.515,1.551c-0.269,1.127,0.433,2.254,1.551,2.515   c3.013,0.711,6.002,0.988,8.852,0.988c6.054,0,11.225-1.232,14.757-2.314c1.139,0.845,2.524,1.378,4.05,1.289   c0,0,6.247-0.366,17.18-1.005c5.118-0.184,11.998-0.455,17.673,0.879c0.469,0.073,0.722,0.219,1.032,0.351   c0.044-0.503-0.916,0.914-2.417,1.643c-1.457,0.94-3.352,1.84-5.324,2.736c-4.032,1.828-8.648,3.398-13.763,6.15   c-2.47,1.458-5.523,2.938-8.06,7.269c-1.186,2.007-1.748,5.251-1.125,7.538l0.184,0.932l0.105,0.461l0.056,0.229   c-0.393-0.815,0.598,1.377,0.519,1.179l0.512,0.853c0.455,0.649,0.384,0.918,1.474,2.051c0.875,0.947,1.863,1.853,2.882,2.645   c0.893,0.615,1.56,0.905,2.363,1.359c1.583,0.933,3.021,1.366,4.521,1.954c2.957,1.041,5.837,1.749,8.712,2.385   c5.551,1.045,11.222,2.112,16.99,3.198c2.419,0.467,4.682,1.057,6.774,1.702c-2.679,0.966-6.43,1.94-9.665,2.563   c-11.767,2.483-24.244,3.985-36.935,8.442c-3.176,1.209-6.43,2.654-9.621,5.097c-3.005,2.277-6.162,6.817-5.758,11.805   c-1.076,0.15-2.313,0.371-3.308,0.481c-10.765,1.425-15.29-0.47-14.998-0.526c-1.406-0.83-3.218-0.364-4.047,1.041   c-0.831,1.405-0.364,3.218,1.04,4.047c0,0,1.846,1.253,5.14,1.975c3.278,0.742,7.89,1.081,13.506,0.639   c1.547-0.106,3.359-0.337,5.06-0.517c1.176,1.695,2.546,3.566,3.823,4.472c2.966,2.488,6.106,4.079,9.237,5.472   c12.601,4.874,25.194,5.897,37.472,5.414c6.164-0.463,12.231-1.182,18.461-3.961c2.904-1.355,6.891-3.488,8.122-9.659   C185.923,342.323,186.058,341.962,185.937,340.835z M176.876,342.779c-0.16-0.912-0.662,1.157-3.015,1.727   c-4.049,1.779-9.576,2.594-15.009,2.88c-10.955,0.36-22.919-0.919-33.178-5.079c-1.613-0.745-2.927-1.684-4.311-2.58   c0.761-0.117,1.42-0.197,2.2-0.32c7.623-1.214,15.568-2.645,24.695-2.795c8.692-0.159,19.762-0.039,27.111,3.617   c0.854,0.46,1.227,0.939,1.51,1.228c0,0-0.244-0.292,0.028-0.479C177.027,341.163,176.876,342.205,176.876,342.779z"/>
	<path style="fill:#F5F5F5;" d="M448.692,340.835c-0.243-1.442-0.79-3.15-1.481-4.25c-1.374-1.9-2.964-3.229-4.504-4.057   c-12.135-5.575-22.295-4.482-31.99-4.521c-9.576,0.247-18.534,1.899-25.806,3.49c-1.974,0.397-3.684,0.694-5.514,1.038   c0.905-1.869,4.22-4.206,8.685-5.624c10.884-3.718,23.309-5.211,35.52-7.59c3.084-0.604,6.211-1.312,9.411-2.223   c1.724-0.59,3.174-1.051,5.204-1.994c1.302-0.736,2.584-1.663,3.681-2.653c1.168-1.05,1.079-1.345,1.679-2.053   c2.773-5.278,0.148-9.036-2.053-10.999c-2.121-1.741-3.907-2.421-5.608-3.12c-3.301-1.158-6.359-1.884-9.311-2.499   c-5.687-1.138-11.278-2.257-16.752-3.352c-2.6-0.602-5.115-1.27-7.321-2.081c-1.948-0.519-4.701-2.444-4.292-1.92   c-5.03-0.434,6.889-6.044,15.483-9.178c2.284-1.009,4.555-2.026,6.881-3.462c2.282-1.509,4.634-2.789,7.17-7.013   c0.498-0.876,0.477-1.09,0.738-1.663l0.29-0.729c0.629-2.246,0.283-1.64,0.429-2.614c0.297-2.356-0.628-4.875-2.091-6.972   c-2.987-3.228-5.958-4.152-8.164-4.77c-9.125-2.162-15.691-1.571-21.395-1.549c-10.817,0.509-17,0.799-17,0.799l-0.417,0.019   c-0.013,0.001-0.024,0.001-0.037,0.002c-3.457,0.202-6.095,3.169-5.893,6.625c0.019,0.338,0.178,0.621,0.248,0.941   c-4.899,1.35-12.65,2.73-20.319,0.923c-1.168-0.269-2.246,0.433-2.515,1.551c-0.269,1.127,0.433,2.254,1.552,2.515   c3.013,0.711,6.002,0.988,8.852,0.988c6.054,0,11.225-1.232,14.757-2.314c1.139,0.845,2.524,1.378,4.05,1.289   c0,0,6.247-0.366,17.18-1.005c5.118-0.184,11.998-0.455,17.673,0.879c0.469,0.073,0.721,0.219,1.032,0.351   c0.044-0.503-0.916,0.914-2.417,1.643c-1.457,0.94-3.352,1.84-5.324,2.736c-4.032,1.828-8.648,3.398-13.763,6.15   c-2.47,1.458-5.523,2.938-8.06,7.269c-1.186,2.007-1.748,5.251-1.125,7.538l0.184,0.932l0.105,0.461l0.056,0.229   c-0.393-0.815,0.598,1.377,0.519,1.179l0.512,0.853c0.455,0.649,0.384,0.918,1.474,2.051c0.875,0.947,1.863,1.853,2.882,2.645   c0.893,0.615,1.56,0.905,2.363,1.359c1.583,0.933,3.021,1.366,4.521,1.954c2.957,1.041,5.837,1.749,8.712,2.385   c5.551,1.045,11.222,2.112,16.99,3.198c2.419,0.467,4.682,1.057,6.774,1.702c-2.679,0.966-6.43,1.94-9.665,2.563   c-11.767,2.483-24.244,3.985-36.935,8.442c-3.176,1.209-6.43,2.654-9.621,5.097c-3.005,2.277-6.162,6.817-5.758,11.805   c-1.076,0.15-2.313,0.371-3.308,0.481c-10.766,1.425-15.29-0.47-14.998-0.526c-1.406-0.83-3.218-0.364-4.047,1.041   c-0.831,1.405-0.364,3.218,1.04,4.047c0,0,1.846,1.253,5.14,1.975c3.278,0.742,7.89,1.081,13.506,0.639   c1.547-0.106,3.359-0.337,5.06-0.517c1.176,1.695,2.546,3.566,3.823,4.472c2.966,2.488,6.107,4.079,9.237,5.472   c12.601,4.874,25.195,5.897,37.472,5.414c6.164-0.463,12.231-1.182,18.461-3.961c2.904-1.355,6.891-3.488,8.122-9.659   C448.676,342.323,448.812,341.962,448.692,340.835z M439.629,342.779c-0.16-0.912-0.662,1.157-3.015,1.727   c-4.049,1.779-9.576,2.594-15.009,2.88c-10.955,0.36-22.919-0.919-33.178-5.079c-1.613-0.745-2.927-1.684-4.311-2.58   c0.761-0.117,1.42-0.197,2.199-0.32c7.623-1.214,15.568-2.645,24.695-2.795c8.692-0.159,19.762-0.039,27.111,3.617   c0.854,0.46,1.227,0.939,1.51,1.228c0,0-0.244-0.292,0.028-0.479C439.781,341.163,439.63,342.205,439.629,342.779z"/>
</g>
<path style="fill:#2E3033;" d="M19.203,489.087L19.203,489.087C8.598,489.087,0,480.49,0,469.884V41.958  c0-10.519,8.527-19.045,19.045-19.045h0.158c10.606,0,19.203,8.598,19.203,19.203v427.768  C38.407,480.49,29.809,489.087,19.203,489.087z"/>
<g>
</g>
<g>
</g>
<g>
</g>
<g>
</g>
<g>
</g>
<g>
</g>
<g>
</g>
<g>
</g>
<g>
</g>
<g>
</g>
<g>
</g>
<g>
</g>
<g>
</g>
<g>
</g>
<g>
</g>
</svg>
