<?xml version="1.0" encoding="iso-8859-1"?>
<!-- Generator: Adobe Illustrator 19.0.0, SVG Export Plug-In . SVG Version: 6.00 Build 0)  -->
<svg xmlns="http://www.w3.org/2000/svg" xmlns:xlink="http://www.w3.org/1999/xlink" version="1.1" id="Layer_1" x="0px" y="0px" viewBox="0 0 511.9 511.9" style="enable-background:new 0 0 511.9 511.9;" xml:space="preserve">
<path style="fill:#FF4B55;" d="M350.3,56.05h153.2c4.6,0,8.4,3.8,8.4,8.4v300.9c0,4.6-3.8,8.4-8.4,8.4H350.3V56.05z"/>
<rect x="188.7" y="56.05" style="fill:#FFE15A;" width="161.7" height="317.8"/>
<path style="fill:#41479B;" d="M35.4,56.05h153.2v317.8H35.4c-4.6,0-8.4-3.8-8.4-8.4v-301C27,59.85,30.8,56.05,35.4,56.05z"/>
<rect x="289.073" y="243.906" transform="matrix(0.775 -0.6319 0.6319 0.775 -97.9679 242.6245)" style="fill:#FFCD5A;" width="5.4" height="29.998"/>
<rect x="281.011" y="245.893" transform="matrix(0.7753 -0.6316 0.6316 0.7753 -95.128 237.6009)" style="fill:#FFBE5A;" width="10.7" height="13.2"/>
<rect x="246.895" y="243.917" transform="matrix(-0.775 -0.6319 0.6319 -0.775 279.4225 617.3091)" style="fill:#FFCD5A;" width="5.4" height="29.998"/>
<rect x="249.591" y="245.862" transform="matrix(-0.7753 -0.6316 0.6316 -0.7753 293.1418 609.2158)" style="fill:#FFBE5A;" width="10.7" height="13.2"/>
<polygon style="fill:#FFE15A;" points="263.9,254.35 250.5,281.15 269.3,294.55 269.3,257.05 "/>
<polygon style="fill:#FFCD5A;" points="274.7,254.35 288.1,281.15 269.3,294.55 269.3,257.05 "/>
<path style="fill:#FFBE5A;" d="M231.7,254.35v-69.8h8c0,0,0,45.6,0,53.7C239.8,246.25,231.7,254.35,231.7,254.35z"/>
<path style="fill:#FFCD5A;" d="M226.4,267.75v-83.2h8c0,0,0,59,0,67.1C234.4,259.75,226.4,267.75,226.4,267.75z"/>
<path style="fill:#FFE15A;" d="M221,278.45v-93.9h8c0,0,0,69.8,0,77.8C229.1,270.45,221,278.45,221,278.45z"/>
<path style="fill:#FF4B55;" d="M239.8,187.25c0,0,0,38.2,0,51c0,13.4,19.5,11.6,29.5,21.5c10.1-9.8,29.5-8,29.5-21.5  c0-12.7,0-51,0-51H239.8L239.8,187.25z"/>
<path style="fill:#41479B;" d="M239.8,216.75c0,8.5,0,16.7,0,21.5c0,13.4,19.5,11.6,29.5,21.5c10.1-9.8,29.5-8,29.5-21.5  c0-4.7,0-13,0-21.5H239.8L239.8,216.75z"/>
<g>
	<polygon style="fill:#FFE15A;" points="269.3,251.65 261.3,246.25 261.3,243.65 263.9,240.95 263.9,224.85 255.9,219.45    263.9,208.75 266.6,208.75 269.3,211.45 272,208.75 274.7,208.75 282.7,219.45 274.7,224.85 274.7,240.95 277.4,243.65    277.4,246.25  "/>
	<path style="fill:#FFE15A;" d="M258.6,189.95c0,0-10.7,2.7-10.7,13.4s10.7,16.1,10.7,16.1l5.4-8   C247.8,206.05,258.6,189.95,258.6,189.95z"/>
	<path style="fill:#FFE15A;" d="M280,189.95c0,0,10.7,2.7,10.7,13.4s-10.7,16.1-10.7,16.1l-5.4-8   C290.8,206.05,280,189.95,280,189.95z"/>
	<polygon style="fill:#FFE15A;" points="242.5,216.75 247.8,219.45 253.2,216.75 247.8,214.05  "/>
	<polygon style="fill:#FFE15A;" points="285.4,216.75 290.8,219.45 296.1,216.75 290.8,214.05  "/>
	<polygon style="fill:#FFE15A;" points="269.3,191.25 271.3,193.25 274.1,193.25 274,196.05 276,197.95 274,199.95 274.1,202.75    271.3,202.75 269.3,204.75 267.4,202.75 264.6,202.75 264.6,199.95 262.6,197.95 264.6,196.05 264.6,193.25 267.4,193.25  "/>
	<path style="fill:#FFE15A;" d="M251.1,228.45l1.9,2.2l2.7-1.1c1.4-0.6,2.7,1,2,2.3l-1.4,2.5l1.8,2.2c1,1.2-0.1,2.9-1.5,2.6   l-2.8-0.6l-1.5,2.4c-0.8,1.3-2.8,0.8-2.9-0.7l-0.3-2.9l-2.8-0.7c-1.5-0.4-1.6-2.4-0.2-3l2.6-1.2l-0.2-2.9   C248.2,228.15,250.1,227.35,251.1,228.45z"/>
	<path style="fill:#FFE15A;" d="M286.8,234.65c0.6-3.1,3.1-5.2,6-5.5c-0.6-0.3-1.2-0.6-1.9-0.7c-3.8-0.7-7.4,1.7-8.1,5.5   s1.7,7.4,5.5,8.1c0.7,0.1,1.4,0.1,2.1,0.1C287.8,240.65,286.2,237.65,286.8,234.65z"/>
	<path style="fill:#FFE15A;" d="M258.6,187.25l5.4-26.8l-10.7-8l2.7-2.7h5.4c0,0,2.7-2.7,8-2.7s10.7,2.7,10.7,10.7   s2.7,29.5,2.7,29.5H258.6L258.6,187.25z"/>
</g>
<path style="fill:#FFAA5A;" d="M239.8,176.55c-5.9,0-10.7,4.8-10.7,10.7h21.5C250.5,181.35,245.7,176.55,239.8,176.55z"/>
<g>
	<path style="fill:#FFBE5A;" d="M237.1,187.25H221v-17.8c0-3.5,2.8-6.3,6.3-6.3h3.4c3.5,0,6.3,2.8,6.3,6.3v17.8H237.1z"/>
	<path style="fill:#FFBE5A;" d="M306.9,254.35v-69.8h-8c0,0,0,45.6,0,53.7C298.8,246.25,306.9,254.35,306.9,254.35z"/>
</g>
<path style="fill:#FFCD5A;" d="M312.2,267.75v-83.2h-8c0,0,0,59,0,67.1C304.2,259.75,312.2,267.75,312.2,267.75z"/>
<path style="fill:#FFE15A;" d="M317.6,278.45v-93.9h-8c0,0,0,69.8,0,77.8C309.6,270.45,317.6,278.45,317.6,278.45z"/>
<path style="fill:#FFAA5A;" d="M298.8,176.55c5.9,0,10.7,4.8,10.7,10.7H288C288.1,181.35,292.9,176.55,298.8,176.55z"/>
<path style="fill:#FFBE5A;" d="M301.5,187.25h16.1v-17.8c0-3.5-2.8-6.3-6.3-6.3h-3.4c-3.5,0-6.3,2.8-6.3,6.3L301.5,187.25  L301.5,187.25z"/>
<rect x="310.067" y="211.501" transform="matrix(-0.8541 -0.5201 0.5201 -0.8541 449.8267 621.3854)" style="fill:#FFAA5A;" width="4" height="72.2"/>
<rect x="294.503" y="264.988" transform="matrix(0.6244 -0.7811 0.7811 0.6244 -97.6397 335.3227)" style="fill:#FFE15A;" width="10.7" height="8.4"/>
<rect x="323.448" y="215.608" transform="matrix(-0.8542 -0.5199 0.5199 -0.8542 489.8286 584.0599)" style="fill:#FFCD5A;" width="6.7" height="15.5"/>
<g>
	
		<rect x="193.92" y="247.488" transform="matrix(-0.5429 -0.8398 0.8398 -0.5429 144.073 576.0953)" style="fill:#73AF00;" width="69.8" height="2.7"/>
	<path style="fill:#73AF00;" d="M234.8,246.55c-1,1.1-1.6,2.7-1.8,4.7c-1.3-1.3-2.8-2.2-4.3-2.4c-0.4,1.4-0.2,3.1,0.5,4.9   c-1.8-0.6-3.6-0.7-5-0.3c0.4,2,2,4.1,4.5,5.6s5.1,1.9,7.1,1.3l0.6-0.4c1.3-1.5,2.1-4.1,1.7-7   C237.8,250.05,236.5,247.75,234.8,246.55z"/>
</g>
<path style="fill:#FF4B55;" d="M238.2,258.35c1.1,1.4,0.6,3.5-1.1,4.2c-1.1,0.4-2.3,0.1-3.1-0.8c-1.1-1.4-0.6-3.5,1.1-4.2  C236.2,257.15,237.5,257.45,238.2,258.35z"/>
<path style="fill:#73AF00;" d="M224.6,230.85c-1,1.1-1.6,2.7-1.8,4.7c-1.3-1.3-2.8-2.2-4.3-2.4c-0.4,1.4-0.2,3.1,0.5,4.9  c-1.8-0.6-3.6-0.7-5-0.3c0.4,2,2,4.1,4.5,5.6s5.1,1.9,7.1,1.3l0.6-0.4c1.3-1.5,2.1-4.1,1.7-7  C227.6,234.35,226.3,231.95,224.6,230.85z"/>
<path style="fill:#FF4B55;" d="M228,242.65c1.1,1.4,0.6,3.5-1.1,4.2c-1.1,0.4-2.3,0.1-3.1-0.8c-1.1-1.4-0.6-3.5,1.1-4.2  C226,241.35,227.3,241.75,228,242.65z"/>
<path style="fill:#73AF00;" d="M214.4,215.05c-1,1.1-1.6,2.7-1.8,4.7c-1.3-1.3-2.8-2.2-4.3-2.4c-0.4,1.4-0.2,3.1,0.5,4.9  c-1.8-0.6-3.6-0.7-5-0.3c0.4,2,2,4.1,4.5,5.6s5.1,1.9,7.1,1.3l0.6-0.4c1.3-1.5,2.1-4.1,1.7-7  C217.4,218.55,216.1,216.15,214.4,215.05z"/>
<path style="fill:#FF4B55;" d="M217.8,226.85c1.1,1.4,0.6,3.5-1.1,4.2c-1.1,0.4-2.3,0.1-3.1-0.8c-1.1-1.4-0.6-3.5,1.1-4.2  C215.8,225.65,217.1,225.95,217.8,226.85z"/>
<g>
	
		<rect x="236.059" y="264.961" transform="matrix(-0.6244 -0.7811 0.7811 -0.6244 181.9034 625.7913)" style="fill:#FFE15A;" width="10.7" height="8.4"/>
	<rect x="253.2" y="141.65" style="fill:#FFE15A;" width="2.7" height="18.8"/>
	<rect x="250.5" y="144.35" style="fill:#FFE15A;" width="8" height="2.7"/>
</g>
<polygon style="fill:#FF875A;" points="253.2,152.35 261.3,158.45 261.3,149.65 255.9,149.65 "/>
<path style="fill:#FFAA5A;" d="M255.9,141.65v2.7h2.7v2.7h-2.7v2.7h5.4c0,0,2.7-2.7,8-2.7s10.7,2.7,10.7,10.7s2.7,29.5,2.7,29.5h5.4  c0-5.9,4.8-10.7,10.7-10.7c0.9,0,1.8,0.2,2.7,0.4v-5.7c0-4.4,3.6-8,8-8s8,3.6,8,8v13.4v2.7v47.4l3.5-5.7l-1.1-0.7l8-13.2l1.1,0.7  l0,0l1.7,1l2.9,1.7l-8,13.2l-1.1-0.7l-6.9,11.3v36.1c0,0-6.4-6.4-7.8-13.5c-1-1.3-2.1-2.9-3.1-4.7l-3.1,5l2.9,2.3l-6.7,8.4l-1.8-1.4  l-3,5l-3.4-2.1l3.3-5.4l-1.6-1.3l2.3-2.9l-7-8.6l-2.1,1.7l-6.3-7.7c-1.7,0.7-3.3,1.4-4.9,2.2l12.8,25.7l-18.8,13.4l-18.8-13.4  l12.8-25.7c-0.9-0.5-1.9-1-2.9-1.4l-5.6,6.8l-2.1-1.7l-7,8.6l2.3,2.9l-2.3,1.8l3.1,4.8l-2.3,1.5l-3-4.6l-2.2,1.7l-6.7-8.4l3-2.4  l-1.6-2.5h-0.1c-0.9,0-1.7-0.4-2.2-1.2c-0.2-0.3-0.3-0.7-0.4-1.1c-0.5,0-1-0.1-1.5-0.2c-1,1.8-2.1,3.5-3.1,4.7  c-1.4,7.1-7.8,13.5-7.8,13.5v-34.2c-0.8-0.3-1.6-0.6-2.4-1.1c-2.5-1.5-4.1-3.6-4.5-5.6c0.6-0.2,1.2-0.3,1.9-0.3c1,0,2,0.2,3.1,0.6  c-0.3-0.9-0.6-1.8-0.6-2.7l-2.6-4.1h-0.1c-0.9,0-1.7-0.4-2.2-1.2c-0.2-0.3-0.3-0.7-0.4-1.1c-1.5-0.1-3.1-0.5-4.7-1.5  c-2.5-1.5-4.1-3.6-4.5-5.6c0.6-0.2,1.2-0.3,1.9-0.3c1,0,2,0.2,3.1,0.6c-0.7-1.8-0.8-3.5-0.5-4.9c1.4,0.2,2.9,1.1,4.3,2.4  c0.2-1.9,0.8-3.6,1.8-4.7c1.6,1.2,2.9,3.5,3.3,6.4c0.2,1.8,0,3.5-0.6,4.9c0.3,0.2,0.6,0.5,0.8,0.8c0.5,0.8,0.5,1.8,0.1,2.6l2.6,4.1  c0.1,0.1,0.2,0.1,0.3,0.2v-46.7v-2.7v-13.4c0-4.4,3.6-8,8-8s8,3.6,8,8v5.7c0.9-0.2,1.8-0.4,2.7-0.4c5.9,0,10.7,4.8,10.7,10.7h8  l5.4-26.8l-2.7-2l-5.4-4v6H253v-13.4h-2.7v-2.7h2.7v-2.7L255.9,141.65 M299,263.55l1-1.2l0.5,0.4l4.3-7.1c-0.4-1.3-0.6-2.7-0.6-4  c0-0.1,0-0.3,0-0.5c-2.3-3.1-5.4-8-5.4-12.9c0,5.7-3.5,8.6-8.2,10.9l4.1,5.1l-2.1,1.7L299,263.55 M239.9,263.55l1.4-1.1l1,1.2  l6.3-7.7l-2.1-1.7l3.4-4.2c-5.7-2.4-10.2-5.3-10.2-11.7c0,3.6-1.6,7.2-3.4,10.1c0.8,1.2,1.5,2.8,1.7,4.7c0.2,1.8,0,3.5-0.6,4.9  c0.3,0.2,0.6,0.5,0.8,0.8c0.5,0.8,0.5,1.8,0.1,2.6L239.9,263.55 M255.9,139.65h-2.7c-1.1,0-2,0.9-2,2v0.7h-0.7c-1.1,0-2,0.9-2,2v2.7  c0,1.1,0.9,2,2,2h0.7v11.4c0,1.1,0.9,2,2,2h2.7c1.1,0,2-0.9,2-2v-2l2.1,1.6l1.7,1.3l-4.8,24h-4.5c-1-6.1-6.2-10.7-12.6-10.7  c-0.2,0-0.4,0-0.7,0v-3.4c0-5.5-4.5-10.1-10.1-10.1c-5.5,0-10.1,4.5-10.1,10.1v13.4v2.7v30.9c-0.7-2-1.9-3.7-3.4-4.7  c-0.4-0.3-0.8-0.4-1.2-0.4c-0.6,0-1.1,0.2-1.5,0.7c-0.6,0.7-1.1,1.6-1.5,2.5c-0.9-0.5-1.8-0.8-2.7-0.9c-0.1,0-0.2,0-0.3,0  c-0.9,0-1.7,0.6-1.9,1.5s-0.3,1.8-0.2,2.8c-0.2,0-0.3,0-0.5,0c-0.9,0-1.7,0.1-2.5,0.4c-1,0.3-1.6,1.3-1.4,2.3  c0.5,2.6,2.5,5.2,5.4,6.9c1.3,0.8,2.8,1.3,4.2,1.6c0.1,0.1,0.1,0.2,0.2,0.3c0.7,1,1.7,1.7,2.9,2l1.5,2.3h-0.1  c-0.9,0-1.7,0.1-2.5,0.4c-1,0.3-1.6,1.3-1.4,2.3c0.5,2.6,2.5,5.2,5.4,6.9c0.5,0.3,0.9,0.5,1.5,0.7v32.8c0,0.8,0.5,1.5,1.2,1.9  c0.2,0.1,0.5,0.2,0.8,0.2c0.5,0,1-0.2,1.4-0.6c0.3-0.3,6.6-6.7,8.2-14.1c0.7-0.9,1.3-1.8,1.9-2.7c0.6,0.7,1.5,1.3,2.5,1.5l0.1,0.1  l-1.6,1.3c-0.4,0.3-0.7,0.8-0.7,1.3c-0.1,0.5,0.1,1.1,0.4,1.5l6.7,8.4c0.3,0.4,0.8,0.7,1.3,0.7c0.1,0,0.1,0,0.2,0  c0.5,0,0.9-0.2,1.3-0.4l0.4-0.3l1.8,2.7c0.3,0.4,0.7,0.8,1.3,0.9c0.1,0,0.3,0,0.4,0c0.4,0,0.8-0.1,1.1-0.3l1.3-0.8l-0.3,0.6  c-0.4,0.9-0.2,2,0.6,2.5l18.8,13.4c0.4,0.3,0.8,0.4,1.2,0.4c0.4,0,0.8-0.1,1.2-0.4l18.8-13.4c0.8-0.6,1.1-1.7,0.6-2.5l-11.8-24.1  c0.5-0.2,1-0.5,1.6-0.7l5.3,6.5c0.4,0.5,1,0.7,1.6,0.7c0.4,0,0.9-0.1,1.3-0.5l0.5-0.4l4.7,5.8l-1.3,1.6c-0.3,0.4-0.5,0.9-0.4,1.5  c0.1,0.5,0.3,1,0.7,1.3l0.2,0.2l-2.4,3.9c-0.6,0.9-0.3,2.2,0.7,2.8l3.4,2.1c0.3,0.2,0.7,0.3,1,0.3c0.2,0,0.3,0,0.5-0.1  c0.5-0.1,1-0.5,1.2-0.9l1.8-3c0.4,0.3,0.8,0.4,1.2,0.4c0.6,0,1.2-0.3,1.6-0.8l6.7-8.4c0.2-0.3,0.4-0.7,0.4-1  c2.2,6.5,7.4,11.8,7.7,12.1c0.4,0.4,0.9,0.6,1.4,0.6c0.3,0,0.5,0,0.8-0.2c0.8-0.3,1.2-1,1.2-1.9v-35.4l5.6-9.2c0.1,0,0.3,0,0.4,0  c0.7,0,1.3-0.3,1.7-1l8-13.2c0.3-0.5,0.4-1,0.2-1.5c-0.1-0.5-0.5-1-0.9-1.2l-2.9-1.7l-1.7-1l-1.1-0.7c-0.3-0.2-0.7-0.3-1-0.3  c-0.7,0-1.3,0.3-1.7,1l-6.6,10.9v-37.6v-2.7v-13.4c0-5.5-4.5-10.1-10.1-10.1c-5.5,0-10.1,4.5-10.1,10.1v3.4c-0.2,0-0.4,0-0.7,0  c-6.3,0-11.6,4.7-12.6,10.7h-1.7c-0.6-5.3-2.5-21-2.5-27.5c0-9.4-6.6-12.7-12.7-12.7c-4.6,0-7.5,1.7-8.8,2.7h-0.1  c0.1-0.2,0.1-0.4,0.1-0.7v-2.7c0-1.1-0.9-2-2-2h-0.7v-0.7C257.9,140.55,257,139.65,255.9,139.65L255.9,139.65z M238.8,248.25  c0.5-0.9,1-1.8,1.4-2.7c1.7,2.3,4.1,3.9,6.7,5.1l-1.8,2.2c-0.3,0.4-0.5,0.9-0.4,1.5c0.1,0.5,0.3,1,0.7,1.4l0.5,0.4l-3.6,4.4  c-0.2-0.1-0.4-0.2-0.7-0.2c-0.1,0-0.1,0-0.2,0c-0.2,0-0.4,0-0.6,0.1c0.1-1-0.1-2-0.7-2.9c-0.1-0.1-0.1-0.2-0.2-0.3  c0.4-1.4,0.5-3,0.3-4.5C239.9,251.15,239.5,249.65,238.8,248.25L238.8,248.25z M293.7,249.75c1.8-1,3.5-2.3,4.8-4.1  c1,2.3,2.4,4.5,3.7,6.2c0,1.1,0.2,2.3,0.5,3.5l-3.1,5c-0.2,0-0.4,0.1-0.5,0.2l-3.6-4.4l0.5-0.4c0.4-0.3,0.7-0.8,0.7-1.4  c0.1-0.5-0.1-1.1-0.4-1.5L293.7,249.75L293.7,249.75z M254.9,262.95c0.6,0,1.2-0.3,1.6-0.7l3.4-4.2l-9.2,18.4l-0.1-0.1l-2.1-3.3  l0.9-0.7c0.4-0.3,0.7-0.8,0.7-1.3c0.1-0.5-0.1-1.1-0.4-1.5l-1.3-1.6l4.7-5.8l0.5,0.4C254,262.85,254.4,262.95,254.9,262.95  L254.9,262.95z M306.3,264.85l0.4-0.7c0.4,0.6,0.8,1.1,1.2,1.7c0,0.2,0.1,0.3,0.1,0.5c-0.1-0.1-0.2-0.2-0.3-0.3L306.3,264.85  L306.3,264.85z"/>
<path style="fill:#2E3033;" d="M19.2,488.65L19.2,488.65c-10.6,0-19.2-8.6-19.2-19.1V42.25c0-10.5,8.5-19,19-19h0.2  c10.6,0,19.2,8.6,19.2,19.2v427.1C38.3,480.05,29.8,488.65,19.2,488.65z"/>
<g>
</g>
<g>
</g>
<g>
</g>
<g>
</g>
<g>
</g>
<g>
</g>
<g>
</g>
<g>
</g>
<g>
</g>
<g>
</g>
<g>
</g>
<g>
</g>
<g>
</g>
<g>
</g>
<g>
</g>
</svg>
