<?xml version="1.0" encoding="iso-8859-1"?>
<!-- Generator: Adobe Illustrator 19.0.0, SVG Export Plug-In . SVG Version: 6.00 Build 0)  -->
<svg xmlns="http://www.w3.org/2000/svg" xmlns:xlink="http://www.w3.org/1999/xlink" version="1.1" id="Layer_1" x="0px" y="0px" viewBox="0 0 512.1 512.1" style="enable-background:new 0 0 512.1 512.1;" xml:space="preserve">
<rect x="48.7" y="72.9" style="fill:#C8414B;" width="451.6" height="284.3"/>
<path style="fill:#E6B432;" d="M503.6,56.2H35.4c-4.6,0-8.4,3.7-8.4,8.4v301c0,4.6,3.7,8.4,8.4,8.4h468.3c4.6,0,8.4-3.7,8.4-8.4  v-301C512,60,508.3,56.2,503.6,56.2z M500.3,357.3H48.7V72.9h451.6L500.3,357.3L500.3,357.3z"/>
<path style="fill:#41479B;" d="M355.7,265.9c1,8.3-6,15.3-14.3,14.3c-5.7-0.7-10.3-5.3-11-11c-1-8.3,6-15.3,14.3-14.3  C350.4,255.6,355,260.2,355.7,265.9z"/>
<g>
	<path style="fill:#E6B432;" d="M365.4,194.5c-9.4,7.9-15.7,8.2-15.7,8.2c16.7-6.8,14.9-19.7,14.9-19.7   c-7.9,10.4-15.9,13.3-15.9,13.3c16.7-11.4,14.1-26.6,14.1-26.6c-5.5,12.1-12.4,16.8-12.4,16.8c13.9-18.5,7.1-30.5,7.1-30.5   c-5.5,17.2-10.1,22.1-10.1,22.1c10.7-28.6,1.5-36.8,1.5-36.8c0,15.3-5.7,24.1-5.7,24.1c6-20.2-3.4-31.8-3.4-31.8   s-0.1,16.5-3.3,25.1c-0.8-1.2-1.2-1-1.2-1c-1.6,10.6-7.3,18-9.8,20.9c-0.5-2.6-2.2-3.4-2.2-3.4s-0.3,2.6-2.6,6.4   c-1.5,2.5-8.7,8.3-9.9,13.5c-0.9,4.1,3.1,7.5,4.5,8.4c1.3,0.8,2.7,2.3,2.2,4.7s-4.9,2.2-8,2.1c-3.1-0.1-3.5,5-6.9,4.8l-0.6,3.8   l-1.3,0.3c0,0-13.9,27.7-15.1,37.2l-10.3,1.4l-10.3-1.4c-1.2-9.4-15.1-37.2-15.1-37.2l-1.3-0.3l-0.6-3.8c-3.4,0.2-3.8-4.9-6.9-4.8   c-3.1,0.1-7.4,0.3-8-2.1c-0.6-2.4,0.8-3.9,2.2-4.7c1.3-0.8,5.4-4.3,4.5-8.4c-1.2-5.1-8.4-11-9.9-13.5c-2.3-3.8-2.6-6.4-2.6-6.4   s-1.6,0.8-2.2,3.4c-2.5-2.8-8.1-10.3-9.8-20.9c0,0-0.5-0.2-1.2,1c-3.2-8.6-3.3-25.1-3.3-25.1s-9.4,11.6-3.4,31.8   c0,0-5.7-8.8-5.7-24.1c0,0-9.2,8.2,1.5,36.8c0,0-4.6-5-10.1-22.1c0,0-6.8,11.9,7.1,30.5c0,0-6.9-4.7-12.4-16.8   c0,0-2.7,15.2,14.1,26.6c0,0-8-2.9-15.9-13.3c0,0-1.7,12.9,14.9,19.7c0,0-6.3-0.3-15.7-8.2c0,0-1.7,11.4,20.1,17.3   c0,0-8.9-0.2-17.9-6.2c0,0-0.2,11.3,18.3,13.5c0,0-6.1,0.9-13-1.6c0,0,0.2,9.1,16.4,10.3c0,0-6.4,0.5-10.5-0.5   c0,0,0.4,9.4,13.2,7.8c0,0-4.3,1.4-5.7,1.8c0,0,0.2,7.6,13.5,4.9c0,0-2.4,1.5-5.6,2c0,0,2.7,6.4,13.8,3.6l-2.3,2.5   c0,0,8.6,5,15.2-1.9l-2.4,4.2c0,0,5.6,2.1,9.1-3.4c0,0-1,8.2-12.6,9.7c0,0,0.4,1.7,0.9,2.4c0,0-0.7,1.4-7.5,2.6   c0,0,1.4,2.2,2.9,2.8c0,0-2.9,2.5-4.5,3c0,0,2.5,1.2,4.1,1.5c0,0-3.5,3.4-7.8,3.5s-12-0.4-12-0.4s-0.1-4.1-2.1-7.7   s-2.7-3.8-2.7-3.8s0.4-2.9-0.8-4c-1.2-1.2-1.9-1.7-1.9-1.7s0.7-5.7-1.2-9.3s-8.3-11.4-8.6-17.2s-0.1-8-0.1-8l-2,0.5l-1.3-2.7   l2.2-0.2l-0.9-4.1l-3.1,1.2l-0.4-3.6l-3.6,1.5l1.8,3.2l-3.2,0.9l1.9,3.8l2.5-1.6l0.7,3.3c0,0-1.5,0.3-2.3,1.7c0,0,4.1,2.7,5.3,6   c1.9,5.1,1.3,16.7,4.1,20.2c2.7,3.5,4.9,5.9,4.9,5.9s-0.8,2.4,0.1,3.7c0.9,1.3,2.1,1.7,2.1,1.7s-0.7,5.3,1.2,8.8s3,4.4,3,4.4   s-7,4.3-2.1,9.3c0,0-0.7,4.5,4.1,5.6c0,0,0.2,3.6,4.3,3.1c0,0,2-0.6,2.5,0.4s0,6.7,0,6.7s1.8-0.2,3-1l3.6,1.8l0.1-4.1l4.6-1.8   c0,0-2,0.3-6-3.5c0,0,0.7-0.4,1.2-3.6c0,0,3.2-2.6,3.9-4.6c0.7-2.1,5.2-6.6,10.5-8.1l0.7,3.2c0,0,7.6-6.7,10.8-7.1l2.6,3.4   c0,0,9.8-14.5,14.1-17.1c-0.3,1.2,2.1,1.3-3.3,7.3c-5.3,6-2,10.7-2,10.7c-3.3,2.7-2.7,5.2-3.1,8s-11.4,10.1-11.4,10.1   c3.5,4.4,7.4,3.4,7.4,3.4c-2.2,1.4-1.5,6.1-1.5,6.1c3.1,0.8,6.3-0.6,6.3-0.6c-1.1,3,0.6,5.1,0.6,5.1c2-1.2,6.5-2,6.5-2   c-0.6,5.1,2.7,7.9,2.7,7.9l2.9-3.1c0.5,5.8,5.6,9.1,5.6,9.1s5.1-3.3,5.6-9.1l2.9,3.1c0,0,3.3-2.7,2.7-7.9c0,0,4.6,0.7,6.5,2   c0,0,1.7-2.1,0.6-5.1c0,0,3.1,1.4,6.3,0.6c0,0,0.7-4.7-1.5-6.1c0,0,3.9,1,7.4-3.4c0,0-11-7.3-11.4-10.1c-0.4-2.8,0.2-5.3-3.1-8   c0,0,3.3-4.7-2-10.7s-2.9-6.1-3.3-7.3c4.3,2.6,14.1,17.1,14.1,17.1l2.6-3.4c3.2,0.4,10.8,7.1,10.8,7.1l0.7-3.2l0.1-0.1   c4,2.1,10.5,5,13.1,7c2.8,2.2,5.1,2.3,11.9,0s19.4-5.9,17.6-10.1c-0.1-0.2-0.2-0.4-0.3-0.6c0.3-1.1,0.4-3-1.6-4.7c0,0,0,0.5,0,1.1   l-6.5-2.4c-0.2-0.6-0.5-1.1-1.2-1.6c0,0,0,0.5-0.1,1.2l-1.7-0.6l3.3-9.3c-0.3-0.1-0.5-0.2-0.8-0.3c0.1-0.8,0.2-2,0.5-3.2   c0.8,0.3,1.5,0.6,2.1,1.1l0.9-3.4c0,0-1-0.1-2.3-0.3c0.3-1,0.7-2,1.2-2.6l-4.4-1.3c0,0,0.1,1.3,0,3c-0.8-0.3-1.6-0.8-2.3-1.3   l-1,3.8c0.4,0,1.6,0.1,2.9,0.4c-0.3,1.1-0.7,2.1-1.3,2.8c-0.2,0-0.3-0.1-0.5-0.1l-3.2,9.1l-8.7-3.3c-0.4,0.6-0.7,1.2-0.9,1.9   c0-0.1,0.1-0.2,0.1-0.3c0,0-3.4,1.8-3.3,4.4c-0.6,0.2-1.2,0.7-1.5,1.5c-1,2.6,5.1,8.5,3.6,9.2s-9.1-5.6-10.3-6.6   c1.6-0.3,3.9-1.5,3.9-1.5c-1.6-0.5-4.5-3-4.5-3c1.5-0.7,2.9-2.8,2.9-2.8c-6.7-1.2-7.5-2.6-7.5-2.6c0.5-0.7,0.9-2.4,0.9-2.4   c-11.6-1.5-12.6-9.7-12.6-9.7c3.5,5.5,9.1,3.4,9.1,3.4l-2.4-4.2c6.6,6.8,15.2,1.9,15.2,1.9l-2.3-2.5c11.1,2.8,13.8-3.6,13.8-3.6   c-3.2-0.5-5.6-2-5.6-2c13.3,2.7,13.5-4.9,13.5-4.9c-1.4-0.4-5.7-1.8-5.7-1.8c12.8,1.6,13.2-7.8,13.2-7.8c-4.1,1-10.5,0.5-10.5,0.5   c16.2-1.2,16.4-10.3,16.4-10.3c-6.9,2.5-13,1.6-13,1.6c18.6-2.2,18.3-13.5,18.3-13.5c-9,6-17.9,6.2-17.9,6.2   C367.1,205.9,365.4,194.5,365.4,194.5z M346.6,276.5c-0.9-1.4,1.2-2.7,2.2-4.1l3.7,1.4C351.2,275.2,347.5,278,346.6,276.5z    M344.2,270.7c-1.2,1.8-2,3.9-5.7,4c-4.6,0.1-5.3-4-6.3-6.2c-0.3-0.7-0.8-1.1-1.4-1.5c0-0.4,0-0.8,0.1-1.3L344.2,270.7z"/>
	<path style="fill:#E6B432;" d="M274.2,183.1c0,0-5.9-5-7.6-7.8c0,0,2-0.8,3-2.1c0,0-5.3-2.9-8.2-5.8c0,0,1.9-0.3,3.3-1.5   c0,0-4.8-0.9-7.2-4.8c5.6-1.9,3.7-7.1,3.7-7.1c-1.1,1.5-5.7,3.4-10.7,1.2c-5-2.1-10.4-0.6-10.4,2.1c0,0-11.2-3.2-8.4,7.6   c0,0,1.8-4,5.8-2.5s8,6.6,8,6.6s-2.5,1.4-7.1-0.1c0,0,1.9,7.1,10.3,3.5c0,0,3.3,1.8,3.5,7c0,0,1.4-0.7,2.3-2.4c0,0,1.3,5.1-0.4,9.2   c0,0,2.3-0.4,3.1-1.2c0,0,0.7,4.4-2.2,8c0,0,12.7,6.1,20.8-0.6c0,0-3-3.5-4-6.7C271.5,185.8,273.2,185.1,274.2,183.1z"/>
	<path style="fill:#E6B432;" d="M311.1,157.5c0-2.7-5.5-4.2-10.4-2.1c-5,2.1-9.6,0.2-10.7-1.2c0,0-1.9,5.2,3.7,7.1   c-2.4,3.9-7.2,4.8-7.2,4.8c1.4,1.2,3.3,1.5,3.3,1.5c-2.9,2.9-8.2,5.8-8.2,5.8c1,1.2,3,2.1,3,2.1c-1.7,2.7-7.6,7.8-7.6,7.8   c1,2.1,2.7,2.7,2.7,2.7c-1,3.2-4,6.7-4,6.7c8.1,6.7,20.8,0.6,20.8,0.6c-2.9-3.6-2.2-8-2.2-8c0.7,0.7,3.1,1.2,3.1,1.2   c-1.7-4.1-0.4-9.2-0.4-9.2c0.9,1.7,2.3,2.4,2.3,2.4c0.2-5.2,3.5-7,3.5-7c8.4,3.6,10.3-3.5,10.3-3.5c-4.6,1.5-7.1,0.1-7.1,0.1   s4-5.1,8-6.6s5.8,2.5,5.8,2.5C322.3,154.3,311.1,157.5,311.1,157.5z"/>
	<path style="fill:#E6B432;" d="M306.1,223.5c-1.1-6.4-2-11.8,0.7-18.1l0.5-1.2l-10.9-12.5l-1.3,0.4c-0.1,0-11.5,3.7-18.7,0.1   l-0.9-0.5l-0.9,0.5c-7.2,3.6-18.6-0.1-18.7-0.1l-1.3-0.4l-10.9,12.5l0.5,1.2c2.7,6.3,1.8,11.8,0.7,18.1c-1,6-2.2,12.8-0.1,21.1   c2.2,9,9.7,12.2,16.3,15c5.1,2.2,9.9,4.2,12.6,8.5l1.7,2.7l1.7-2.7c2.7-4.3,7.5-6.4,12.6-8.5c6.6-2.8,14.1-6,16.3-15   C308.3,236.3,307.1,229.5,306.1,223.5z M248.5,205l7.4-8.6c3.4,0.9,12.5,2.9,19.6-0.1c7.1,3,16.2,1,19.6,0.1l7.4,8.6   c-2.6,6.9-1.6,12.9-0.5,19.2c0.8,4.7,1.6,9.6,0.9,15.3h-55c-0.7-5.6,0.1-10.5,0.9-15.3C250.1,217.9,251.1,211.9,248.5,205z    M288.3,255.9c-4.6,2-9.4,4-12.8,7.8c-3.4-3.8-8.1-5.9-12.8-7.8c-6.5-2.8-12-5.2-13.9-12h53.3C300.3,250.7,294.7,253.1,288.3,255.9   z"/>
</g>
<path style="fill:#41479B;" d="M248.5,205l7.4-8.6c3.4,0.9,12.5,2.9,19.6-0.1c7.1,3,16.2,1,19.6,0.1l7.4,8.6  c-2.6,6.9-1.6,12.9-0.5,19.2c0.8,4.7,1.6,9.6,0.9,15.3h-55c-0.7-5.6,0.1-10.5,0.9-15.3C250.1,217.9,251.1,211.9,248.5,205z"/>
<path style="fill:#73AF00;" d="M248.6,242.8c0.1,0.3,0.1,0.6,0.2,0.9c1.7,7,7.4,9.5,14,12.3c4.6,2,9.4,4,12.8,7.8  c3.4-3.8,8.1-5.9,12.8-7.8c6.6-2.8,12.3-5.2,14-12.3c0.1-0.3,0.1-0.6,0.2-0.9L248.6,242.8L248.6,242.8z"/>
<g>
	<path style="fill:#E6B432;" d="M299.9,219.3c0-3.7-3.5-4.2-6.7-4.2c-3.2,0.1-7.8-0.5-7.9-3c-0.1-1.5,2.5-1.7,4.2-1.1   c1,0.3,7,1.4,8.9-2.7c0,0-2.2,0.1-4.6-0.5c-1.8-0.4-9.2,0.5-10.5,3.4s3,5.7,7.9,5.7s5.6,1,5.6,2.2c-0.1,1.6-4,2-6.2,2   c-3.5-1.3-11.8-0.3-11.9-0.4c0-0.2-1.9-3.4-1.9-3.4s3.4-0.2,3.8-0.9c0.4-0.6-2.6-3-2.6-3s2.5-1,2.6-1.7c0.1-0.8-2-2.7-2-2.7   s0.8-0.8,1.5-2.2c0.4-1-3.1-1.3-3.1-1.3c0.2-0.8,0.1-1.5-0.8-1.8c-0.7-0.3-3.4,0.8-5.3,0.8c-1.8,0-2.5,1.3-2.5,1.3   s-3.2,0.4-3.7,0.8c-0.4,0.4,0.1,2.9,0.1,2.9c-1.6-0.3-2.4-1.7-2.4-1.7c-0.8,3.7,3,4.1,3,4.1l0.6,2c0,0,0,0,1.6,0.2s0.8,1.7-1.6,1.7   c-2.5,0-3.5,2.9-3.5,2.9c-1.7,0-2.7-1.3-3.1-3.1c-0.4-1.9-0.2-4.9,0.1-6.8c0.4-2.3-0.8-3-0.8-3l-0.8,1.9c0-2-1.8-2.1-1.8-2.1   l-0.3,2.4c-0.9-1.6-2.3-0.9-2.3-0.9s1.4,5.2,1.4,5.4c0,0.3-0.5,0.5-1.2-0.2s-1.1-0.2-1.1-0.2c0.7,5.2,3.5,4.4,3.5,4.4   s0.1,1.6,1,4.9c0.9,3.5,4.6,2.8,4.6,2.8c0,1.1,0.9,2.8,1.1,6.6c0.3,3.8-3.2,6.5-3.2,6.5c-3.2-0.1-2.9,3-2.9,3h8.7   c0-8.1,3.5-9.5,3.5-9.5c5.2,0.2,10.1-1.9,10.1-1.9c-0.8,3.1,0.6,4.4,0.6,4.4c2.1-0.3,1,3.9,0.4,3.9s-1.9,0-2.7,0   c-0.8,0-3,2.4-3,2.4h9.1c0,0,1.4-2,1.9-3s-1-2.4-1.1-3.4s1.6-1.7,1.6-1.7c1.8,2.5,5.8,2.6,5.8,2.6l-0.1-1.9c0,0,2.1,0.7,2.6,1.3   s0.4,3.5-2.1,3.8s-2.7,2.1-2.7,2.1s5.8,0,6.9,0s2.1-2.1,2.1-3c0-0.8,0-6.1,0-7.3s-1-1-3.2-1.2c-2-0.2-1.8-2.4-2.7-5   C295.3,222.9,299.9,222.3,299.9,219.3z"/>
	<path style="fill:#E6B432;" d="M299.3,132.6c-0.6-5-4.6-11.4-19.7-14.4c-0.1-1.6-1-3-2.5-3.6v-2.8h2.5v-3h-2.5v-2.5h-3v2.5h-2.5v3   h2.5v2.8c-1.4,0.6-2.4,1.9-2.5,3.6c-15.2,3-19.2,9.4-19.7,14.4c-0.7,6.2,3.8,12.2,7.8,14.4v3.2h31.8V147   C295.6,144.7,300,138.8,299.3,132.6z M282.7,142.2h-4.5v-18.3c3.7,1.7,5.9,4.2,6.6,7.7C285.6,135.9,283.9,140.3,282.7,142.2z    M266.4,131.5c0.7-3.5,2.9-6,6.6-7.7v18.3h-4.5C267.3,140.3,265.6,135.9,266.4,131.5z M262.7,126.5c-0.7,1.5-1.2,2.9-1.4,4.3   c-0.7,4.1,0.1,8.2,1.5,11.4h-1c-2.2-1.5-5.1-5.3-4.7-9C257.4,130.5,259.3,128.3,262.7,126.5z M289.5,142.2h-1   c1.4-3.2,2.2-7.3,1.5-11.4c-0.2-1.3-0.7-2.8-1.4-4.3c3.4,1.8,5.4,4,5.7,6.6C294.6,136.9,291.7,140.7,289.5,142.2z"/>
</g>
<path style="fill:#2E3033;" d="M18.7,483.5L18.7,483.5C8.4,483.5,0,475.2,0,464.8V47.2c0-10.3,8.3-18.6,18.6-18.6h0.2  c10.3,0,18.7,8.4,18.7,18.7v417.4C37.5,475.2,29.1,483.5,18.7,483.5z"/>
<g>
</g>
<g>
</g>
<g>
</g>
<g>
</g>
<g>
</g>
<g>
</g>
<g>
</g>
<g>
</g>
<g>
</g>
<g>
</g>
<g>
</g>
<g>
</g>
<g>
</g>
<g>
</g>
<g>
</g>
</svg>
