<?xml version="1.0" encoding="iso-8859-1"?>
<!-- Generator: Adobe Illustrator 19.0.0, SVG Export Plug-In . SVG Version: 6.00 Build 0)  -->
<svg xmlns="http://www.w3.org/2000/svg" xmlns:xlink="http://www.w3.org/1999/xlink" version="1.1" id="Layer_1" x="0px" y="0px" viewBox="0 0 512.001 512.001" style="enable-background:new 0 0 512.001 512.001;" xml:space="preserve">
<path style="fill:#4173CD;" d="M503.524,374.658H28.87c-4.681,0-8.476-3.795-8.476-8.476V61.047c0-4.681,3.795-8.476,8.476-8.476  h474.655c4.681,0,8.476,3.795,8.476,8.476v305.135C512,370.864,508.205,374.658,503.524,374.658z"/>
<path style="fill:#73AF00;" d="M228.288,298.373c-0.712,12.663,7.67,14.223,12.211,14.292s11.421,2.064,17.821,3.371  c6.399,1.307,8.463-3.991,8.463-3.991c3.785,4.954,7.477,3.441,7.477,3.441c3.027-3.027,11.101-4.542,14.266-4.749  c3.165-0.207,2.408-4.541,2.408-4.541c3.316-1.845,5.56-3.958,7.164-6.094c0.069,0.031,0.129,0.078,0.198,0.108  c5.435,2.339,9.633-2.615,10.527-4.472c0.553-1.15,1.566-1.657,2.29-1.905l0.256,2.868c2.339-3.371,7.431-2.133,7.431-2.133  c-5.23-8.05-10.527-4.334-10.527-4.334l2.053,1.951c-3.115,1.57-4.964,7.785-9.552,5.963c-0.392-0.156-0.724-0.379-1.073-0.584  c1.852-3.672,1.912-7.137,1.418-9.117c-0.894-3.578-6.399-4.403-9.082-0.756c-1.875,2.549-0.689,6.487,2.03,9.44  c-1.436,1.001-3.269,1.933-5.677,2.601c-7.431,2.064-18.577-7.707-26.284-8.119c-7.707-0.413-14.449,6.055-18.303,10.183  c-3.853,4.129-9.024,0.471-8.945-2.202 M295.751,289.133c1.445-0.619,2.064,0.482,2.271,2.271c0.087,0.75-0.325,1.977-1.336,3.295  C295.094,292.25,294.833,289.526,295.751,289.133z"/>
<g>
	<polygon style="fill:#F5F5F5;" points="250.113,313.646 246.004,315.76 247.152,312.921  "/>
	<polygon style="fill:#F5F5F5;" points="246.28,312.666 242.481,314.621 243.542,311.996  "/>
	<polygon style="fill:#F5F5F5;" points="242.737,311.951 239.929,313.535 240.654,311.526  "/>
	<polygon style="fill:#F5F5F5;" points="274.26,315.486 269.788,316.65 271.531,314.13  "/>
	<polygon style="fill:#F5F5F5;" points="271.154,313.831 266.989,314.776 268.672,312.499  "/>
	<polygon style="fill:#F5F5F5;" points="268.248,312.306 265.39,313.793 266.181,311.809  "/>
	
		<ellipse transform="matrix(-0.8179 0.5754 -0.5754 -0.8179 475.6776 172.994)" style="fill:#F5F5F5;" cx="210.461" cy="161.777" rx="1.939" ry="2.532"/>
	
		<ellipse transform="matrix(0.8179 0.5754 -0.5754 0.8179 151.7141 -155.7741)" style="fill:#F5F5F5;" cx="321.934" cy="161.776" rx="1.939" ry="2.532"/>
	<path style="fill:#F5F5F5;" d="M292.788,203.72v49.384c0,14.662-11.929,26.591-26.591,26.591   c-14.662,0-26.591-11.929-26.591-26.591V203.72H292.788 M307.984,184.726h-83.573c-2.098,0-3.798,1.7-3.798,3.798v64.579   c0,25.176,20.409,45.585,45.585,45.585s45.585-20.409,45.585-45.585v-64.579C311.782,186.427,310.081,184.726,307.984,184.726   L307.984,184.726z"/>
</g>
<g>
	<path style="fill:#FF4B55;" d="M239.606,203.72h-18.994v-10.518c0-4.681,3.795-8.476,8.476-8.476h10.518V203.72z"/>
	<rect x="256.69" y="184.72" style="fill:#FF4B55;" width="18.994" height="18.994"/>
	<rect x="220.61" y="222.72" style="fill:#FF4B55;" width="18.994" height="18.994"/>
	<rect x="292.79" y="222.72" style="fill:#FF4B55;" width="18.994" height="18.994"/>
	<path style="fill:#FF4B55;" d="M311.782,203.72h-18.994v-18.994h10.518c4.681,0,8.476,3.795,8.476,8.476L311.782,203.72   L311.782,203.72z"/>
	<path style="fill:#FF4B55;" d="M282.358,295.687l-7.307-17.539c-2.774,0.984-5.746,1.547-8.852,1.547s-6.078-0.564-8.852-1.547   l-7.307,17.539c5.029,1.91,10.461,3.003,16.159,3.003C271.896,298.69,277.328,297.597,282.358,295.687z"/>
	<path style="fill:#FF4B55;" d="M232.57,283.805l14.856-11.884c-3.759-3.751-6.383-8.623-7.371-14.06l-18.311,5.232   C223.506,270.967,227.314,278.051,232.57,283.805z"/>
	<path style="fill:#FF4B55;" d="M310.65,263.092l-18.311-5.232c-0.987,5.436-3.612,10.309-7.371,14.06l14.856,11.884   C305.081,278.051,308.887,270.967,310.65,263.092z"/>
</g>
<g>
	<rect x="226.31" y="188.53" style="fill:#FFE15A;" width="7.598" height="11.396"/>
	<rect x="226.31" y="226.51" style="fill:#FFE15A;" width="7.598" height="11.396"/>
	<rect x="230.11" y="264.5" style="fill:#FFE15A;" width="7.598" height="11.396"/>
	<rect x="294.69" y="264.5" style="fill:#FFE15A;" width="7.598" height="11.396"/>
	<rect x="298.49" y="188.53" style="fill:#FFE15A;" width="7.598" height="11.396"/>
</g>
<g>
	<rect x="226.31" y="207.4" style="fill:#FF4B55;" width="7.598" height="11.396"/>
	<rect x="298.49" y="207.4" style="fill:#FF4B55;" width="7.598" height="11.396"/>
	<rect x="226.31" y="245.07" style="fill:#FF4B55;" width="7.598" height="11.396"/>
	<rect x="242.69" y="278.67" style="fill:#FF4B55;" width="7.598" height="11.396"/>
	<rect x="282.1" y="278.67" style="fill:#FF4B55;" width="7.598" height="11.396"/>
	<rect x="298.49" y="245.07" style="fill:#FF4B55;" width="7.598" height="11.396"/>
</g>
<rect x="262.39" y="188.53" style="fill:#FFE15A;" width="7.598" height="11.396"/>
<g>
	<rect x="244.35" y="188.53" style="fill:#FF4B55;" width="7.598" height="11.396"/>
	<rect x="280.13" y="188.53" style="fill:#FF4B55;" width="7.598" height="11.396"/>
</g>
<g>
	<rect x="298.49" y="226.51" style="fill:#FFE15A;" width="7.598" height="11.396"/>
	<rect x="262.39" y="283.49" style="fill:#FFE15A;" width="7.598" height="11.396"/>
	<path style="fill:#FFE15A;" d="M266.197,210.961c7.332,0,13.296,5.964,13.296,13.296s-5.965,13.296-13.296,13.296   c-7.332,0-13.296-5.964-13.296-13.296C252.902,216.925,258.865,210.961,266.197,210.961 M266.197,209.062   c-8.392,0-15.195,6.803-15.195,15.195s6.803,15.195,15.195,15.195s15.195-6.803,15.195-15.195S274.589,209.062,266.197,209.062   L266.197,209.062z"/>
</g>
<g>
	<path style="fill:#73AF00;" d="M263.902,223.189c-3.768,0-6.12,1.061-7.592,2.379c0.605-2.984,1.864-6.178,4.505-6.178   c0.524,0,0.949-0.427,0.949-0.949c0-0.523-0.425-0.949-0.949-0.949c-2.619,0-4.249,1.824-5.269,4.113   c-0.626-12.458-2.561-12.504-3.278-12.504c-0.524,0-0.949,0.427-0.949,0.949c0,0.457,0.319,0.835,0.748,0.927   c0.396,0.475,0.736,2.072,1.012,4.287c-1.229-2.61-3.015-4.502-5.638-4.502c-0.524,0-0.949,0.427-0.949,0.949   s0.425,0.949,0.949,0.949c2.594,0,4.186,3.164,5.136,6.965c-1.822-2.599-4.573-4.509-8.618-4.509c-0.524,0-0.949,0.427-0.949,0.949   s0.425,0.949,0.949,0.949c4.202,0,6.612,2.423,8.003,5.224c-1.629-1.379-3.953-2.375-7.291-2.375c-0.524,0-0.949,0.427-0.949,0.949   s0.425,0.949,0.949,0.949c9.036,0,9.178,8.502,9.179,8.866c0,0.138,0.094,0.235,0.147,0.354c0.048,0.104,0.05,0.232,0.129,0.311   l0.002,0.003c0.172,0.172,0.409,0.279,0.671,0.279h0.002c0.097-0.001,0.161-0.076,0.25-0.104c0.29-0.09,0.489-0.287,0.586-0.574   c0.032-0.093,0.111-0.16,0.112-0.264c0.004-0.227,0.163-5.546,8.152-5.546c0.524,0,0.949-0.427,0.949-0.949   S264.428,223.189,263.902,223.189z"/>
	<path style="fill:#73AF00;" d="M268.571,223.189c3.768,0,6.12,1.061,7.592,2.379c-0.605-2.984-1.864-6.178-4.505-6.178   c-0.524,0-0.949-0.427-0.949-0.949c0-0.523,0.425-0.949,0.949-0.949c2.619,0,4.249,1.824,5.269,4.113   c0.626-12.458,2.561-12.504,3.278-12.504c0.524,0,0.949,0.427,0.949,0.949c0,0.457-0.319,0.835-0.748,0.927   c-0.396,0.475-0.736,2.072-1.012,4.287c1.229-2.61,3.015-4.502,5.638-4.502c0.524,0,0.949,0.427,0.949,0.949   s-0.425,0.949-0.949,0.949c-2.594,0-4.186,3.164-5.136,6.965c1.822-2.599,4.573-4.509,8.618-4.509c0.524,0,0.949,0.427,0.949,0.949   s-0.425,0.949-0.949,0.949c-4.202,0-6.612,2.423-8.003,5.224c1.629-1.379,3.953-2.375,7.291-2.375c0.524,0,0.949,0.427,0.949,0.949   s-0.425,0.949-0.949,0.949c-9.036,0-9.178,8.502-9.179,8.866c0,0.138-0.094,0.235-0.147,0.354c-0.048,0.104-0.05,0.232-0.129,0.311   l-0.002,0.003c-0.172,0.172-0.409,0.279-0.671,0.279h-0.002c-0.097-0.001-0.161-0.076-0.25-0.104   c-0.29-0.09-0.49-0.287-0.586-0.574c-0.032-0.093-0.111-0.16-0.112-0.264c-0.004-0.227-0.163-5.546-8.152-5.546   c-0.524,0-0.949-0.427-0.949-0.949S268.047,223.189,268.571,223.189z"/>
</g>
<path style="fill:#FF4B55;" d="M251.539,228.056c1.694,6.542,7.586,11.396,14.658,11.396s12.963-4.854,14.658-11.396H251.539z"/>
<g>
	<path style="fill:#FFE15A;" d="M266.197,239.452c7.072,0,12.963-4.854,14.658-11.396h-14.658V239.452L266.197,239.452z"/>
	<path style="fill:#FFE15A;" d="M266.197,245.388c7.332,0,13.296,5.964,13.296,13.296c0,7.332-5.965,13.296-13.296,13.296   c-7.332,0-13.296-5.964-13.296-13.296C252.902,251.353,258.865,245.388,266.197,245.388 M266.197,243.489   c-8.392,0-15.195,6.803-15.195,15.195s6.803,15.195,15.195,15.195s15.195-6.803,15.195-15.195   C281.392,250.291,274.589,243.489,266.197,243.489L266.197,243.489z"/>
</g>
<g>
	<path style="fill:#73AF00;" d="M263.902,257.615c-3.768,0-6.12,1.061-7.592,2.379c0.605-2.984,1.864-6.178,4.505-6.178   c0.524,0,0.949-0.427,0.949-0.949c0-0.523-0.425-0.949-0.949-0.949c-2.619,0-4.249,1.824-5.269,4.113   c-0.626-12.458-2.561-12.504-3.278-12.504c-0.524,0-0.949,0.427-0.949,0.949c0,0.457,0.319,0.835,0.748,0.927   c0.396,0.475,0.736,2.072,1.012,4.287c-1.229-2.61-3.015-4.502-5.638-4.502c-0.524,0-0.949,0.427-0.949,0.949   s0.425,0.949,0.949,0.949c2.594,0,4.186,3.164,5.136,6.965c-1.822-2.599-4.573-4.509-8.618-4.509c-0.524,0-0.949,0.427-0.949,0.949   s0.425,0.949,0.949,0.949c4.202,0,6.612,2.423,8.003,5.224c-1.629-1.379-3.953-2.375-7.291-2.375c-0.524,0-0.949,0.427-0.949,0.949   s0.425,0.949,0.949,0.949c9.036,0,9.178,8.502,9.179,8.866c0,0.138,0.094,0.235,0.147,0.354c0.048,0.104,0.05,0.232,0.129,0.311   l0.002,0.003c0.172,0.172,0.409,0.279,0.671,0.279h0.002c0.097-0.001,0.161-0.076,0.25-0.104c0.29-0.09,0.489-0.287,0.586-0.574   c0.032-0.093,0.111-0.16,0.112-0.264c0.004-0.227,0.163-5.546,8.152-5.546c0.524,0,0.949-0.427,0.949-0.949   C264.852,258.041,264.428,257.615,263.902,257.615z"/>
	<path style="fill:#73AF00;" d="M268.571,257.615c3.768,0,6.12,1.061,7.592,2.379c-0.605-2.984-1.864-6.178-4.505-6.178   c-0.524,0-0.949-0.427-0.949-0.949c0-0.523,0.425-0.949,0.949-0.949c2.619,0,4.249,1.824,5.269,4.113   c0.626-12.458,2.561-12.504,3.278-12.504c0.524,0,0.949,0.427,0.949,0.949c0,0.457-0.319,0.835-0.748,0.927   c-0.396,0.475-0.736,2.072-1.012,4.287c1.229-2.61,3.015-4.502,5.638-4.502c0.524,0,0.949,0.427,0.949,0.949   s-0.425,0.949-0.949,0.949c-2.594,0-4.186,3.164-5.136,6.965c1.822-2.599,4.573-4.509,8.618-4.509c0.524,0,0.949,0.427,0.949,0.949   s-0.425,0.949-0.949,0.949c-4.202,0-6.612,2.423-8.003,5.224c1.629-1.379,3.953-2.375,7.291-2.375c0.524,0,0.949,0.427,0.949,0.949   s-0.425,0.949-0.949,0.949c-9.036,0-9.178,8.502-9.179,8.866c0,0.138-0.094,0.235-0.147,0.354c-0.048,0.104-0.05,0.232-0.129,0.311   l-0.002,0.003c-0.172,0.172-0.409,0.279-0.671,0.279h-0.002c-0.097-0.001-0.161-0.076-0.25-0.104   c-0.29-0.09-0.49-0.287-0.586-0.574c-0.032-0.093-0.111-0.16-0.112-0.264c-0.004-0.227-0.163-5.546-8.152-5.546   c-0.524,0-0.949-0.427-0.949-0.949C267.622,258.041,268.047,257.615,268.571,257.615z"/>
</g>
<path style="fill:#FF4B55;" d="M251.539,262.483c1.694,6.542,7.586,11.396,14.658,11.396s12.963-4.854,14.658-11.396H251.539z"/>
<path style="fill:#FFE15A;" d="M266.197,273.878c7.072,0,12.963-4.854,14.658-11.396h-14.658V273.878L266.197,273.878z"/>
<g>
	<polygon style="fill:#F5F5F5;" points="213.014,196.122 213.014,188.524 194.02,188.524 194.02,196.122 197.819,196.122    197.819,279.695 194.02,279.695 194.02,287.293 197.819,287.293 209.215,287.293 213.014,287.293 213.014,279.695 209.215,279.695    209.215,196.122  "/>
	<polygon style="fill:#F5F5F5;" points="338.374,196.122 338.374,188.524 319.38,188.524 319.38,196.122 323.179,196.122    323.179,279.695 319.38,279.695 319.38,287.293 323.179,287.293 334.575,287.293 338.374,287.293 338.374,279.695 334.575,279.695    334.575,196.122  "/>
</g>
<path style="fill:#FFE15A;" d="M307.984,184.726h-83.573c-4.196,0-7.598-3.402-7.598-7.598l0,0c0-4.196,3.402-7.598,7.598-7.598  h83.573c4.196,0,7.598,3.402,7.598,7.598l0,0C315.581,181.324,312.179,184.726,307.984,184.726z"/>
<path style="fill:#FF4B55;" d="M269.046,179.978h-5.698c-1.573,0-2.849-1.276-2.849-2.849l0,0c0-1.573,1.276-2.849,2.849-2.849  h5.698c1.573,0,2.849,1.276,2.849,2.849l0,0C271.895,178.702,270.619,179.978,269.046,179.978z"/>
<g>
	<path style="fill:#73AF00;" d="M297.537,179.978h-5.698c-1.573,0-2.849-1.276-2.849-2.849l0,0c0-1.573,1.276-2.849,2.849-2.849   h5.698c1.573,0,2.849,1.276,2.849,2.849l0,0C300.386,178.702,299.11,179.978,297.537,179.978z"/>
	<path style="fill:#73AF00;" d="M240.555,179.978h-5.698c-1.573,0-2.849-1.276-2.849-2.849l0,0c0-1.573,1.276-2.849,2.849-2.849   h5.698c1.573,0,2.849,1.276,2.849,2.849l0,0C243.404,178.702,242.129,179.978,240.555,179.978z"/>
</g>
<path style="fill:#FFE15A;" d="M319.54,153.781l-5.54,1.9l0.534,5.285c-6.119,6.952-9.189,7.401-10.453,6.961  c-1.565-0.54-2.286-2.771-2.577-4.481l2.286,2.286c11.396-11.396,4.867-28.135,4.867-28.135c-3.205,0.593-4.63,3.561-4.63,3.561  c-2.968-0.237-6.054,0-6.054,0c-0.237,2.612,0.712,6.291,0.712,6.291c-6.515,1.343-9.196,4.874-9.196,4.874  c1.118,3.129,4.686,5.81,4.686,5.81c-1.068,2.612,0.237,5.698,0.237,5.698c1.631,0,3.041-0.492,4.039-0.974  c-4.255,5.304-6.257,5.431-6.937,5.176c-2.055-0.763-2.577-6.834-2.289-10.901c0.03-0.415-0.217-0.803-0.606-0.954  c-0.386-0.145-0.83-0.026-1.089,0.301l-3.276,4.177c-13.671-18.214-2.862-29.114-2.862-29.114v-7.598h-3.798v3.798h-3.256v-3.798  h-3.256v3.798h-3.256v-3.798h-3.256v3.798h-3.256v-3.798h-3.256v3.798h-3.256v-3.798h-3.798v7.598c0,0,10.809,10.899-2.862,29.114  l-3.276-4.177c-0.26-0.331-0.704-0.452-1.089-0.301c-0.39,0.15-0.636,0.538-0.606,0.954c0.289,4.067-0.23,10.137-2.289,10.901  c-0.681,0.247-2.688,0.125-6.95-5.194c0.999,0.489,2.422,0.993,4.074,0.993c0,0,1.305-3.086,0.237-5.698c0,0,3.568-2.682,4.686-5.81  c0,0-2.682-3.53-9.196-4.874c0,0,0.949-3.68,0.712-6.291c0,0-3.086-0.237-6.054,0c0,0-1.425-2.968-4.63-3.561  c0,0-6.53,16.738,4.867,28.135l2.26-2.26c-0.293,1.707-1.015,3.917-2.572,4.455c-1.271,0.441-4.331-0.007-10.434-6.939l0.536-5.307  l-5.54-1.9c-2.849-8.626-9.655-7.598-9.655-7.598c4.511,3.878,5.461,13.77,5.461,13.77l11.713,11.396l0.634-1.82  c-0.262-1.521-0.67-2.712-1.108-3.676c3.674,3.395,6.658,4.694,9.018,3.866c2.318-0.803,3.301-3.422,3.717-5.399  c3.116,3.85,5.618,5.703,7.709,5.703c0.408,0,0.8-0.071,1.176-0.212c2.987-1.105,3.563-6.375,3.605-9.896l2.058,2.623v6.991h15.195  c0-2.098,1.701-3.798,3.798-3.798s3.798,1.7,3.798,3.798h15.195v-6.991l2.058-2.623c0.042,3.521,0.62,8.791,3.605,9.896  c0.376,0.141,0.768,0.212,1.176,0.212c2.09,0,4.593-1.855,7.709-5.703c0.415,1.977,1.399,4.596,3.717,5.399  c2.372,0.827,5.365-0.479,9.053-3.896c-0.443,0.969-0.857,2.169-1.122,3.707l0.634,1.82l11.713-11.396c0,0,0.949-9.893,5.461-13.77  C329.195,146.184,322.389,145.155,319.54,153.781z"/>
<g>
	<path style="fill:#F5F5F5;" d="M251.951,179.978L251.951,179.978c-1.573,0-2.849-1.276-2.849-2.849l0,0   c0-1.573,1.276-2.849,2.849-2.849l0,0c1.573,0,2.849,1.276,2.849,2.849l0,0C254.801,178.702,253.526,179.978,251.951,179.978z"/>
	<path style="fill:#F5F5F5;" d="M280.442,179.978L280.442,179.978c-1.573,0-2.849-1.276-2.849-2.849l0,0   c0-1.573,1.276-2.849,2.849-2.849l0,0c1.573,0,2.849,1.276,2.849,2.849l0,0C283.291,178.702,282.016,179.978,280.442,179.978z"/>
</g>
<g>
	<path style="fill:#FF4B55;" d="M308.933,179.978L308.933,179.978c-1.573,0-2.849-1.276-2.849-2.849l0,0   c0-1.573,1.276-2.849,2.849-2.849l0,0c1.573,0,2.849,1.276,2.849,2.849l0,0C311.782,178.702,310.506,179.978,308.933,179.978z"/>
	<path style="fill:#FF4B55;" d="M223.46,179.978L223.46,179.978c-1.573,0-2.849-1.276-2.849-2.849l0,0   c0-1.573,1.276-2.849,2.849-2.849l0,0c1.573,0,2.849,1.276,2.849,2.849l0,0C226.31,178.702,225.035,179.978,223.46,179.978z"/>
</g>
<g>
	<circle style="fill:#F5F5F5;" cx="266.2" cy="146.74" r="3.798"/>
	
		<ellipse transform="matrix(-0.9696 0.2447 -0.2447 -0.9696 486.6429 245.5136)" style="fill:#F5F5F5;" cx="228.07" cy="152.987" rx="2.454" ry="2.849"/>
	
		<ellipse transform="matrix(0.9696 0.2447 -0.2447 0.9696 46.6876 -69.8244)" style="fill:#F5F5F5;" cx="304.354" cy="152.983" rx="2.454" ry="2.849"/>
	<path style="fill:#F5F5F5;" d="M220.611,221.475c-3.589-0.679-8.369-1.174-13.617-0.62c-5.14,0.541-11.143,2.139-16.774,5.965   v24.063c7.863-19.004,25.397-15.331,30.391-13.823V221.475z"/>
	<path style="fill:#F5F5F5;" d="M311.782,221.475c3.589-0.679,8.369-1.174,13.617-0.62c5.14,0.541,11.143,2.139,16.774,5.965v24.063   c-7.862-19.004-25.397-15.331-30.391-13.823V221.475z"/>
</g>
<path style="fill:#FF4B55;" d="M245.469,285.768c0,0-4.093,6.424-6.165,7.046c0,0-2.809,2.046-3.379,1.839l9.855-11.423  L245.469,285.768z"/>
<path style="fill:#73AF00;" d="M245.109,289.476c-1.926-0.207-3.44,0.894-4.403,2.202s-3.558,1.738-3.826,0.039  c-0.242-1.528,5.14-6.302,5.14-6.302s-0.894-1.609-3.352-0.983c-2.337,0.595-4.635,4.356-4.635,4.356s-2.336-0.914-4.214,0.649  l-8.034,9.19c0,0,9.868,8.43,22.431-3.991l-2.133-0.689C242.77,291.335,245.109,289.476,245.109,289.476z"/>
<g>
	<circle style="fill:#F5F5F5;" cx="233.26" cy="291.85" r="0.932"/>
	<path style="fill:#F5F5F5;" d="M194.02,129.298c11.669-0.04,23.248,1.999,34.189,6.044v-11.903   c-10.981-3.786-22.551-5.584-34.189-5.3V129.298z"/>
	<path style="fill:#F5F5F5;" d="M288.99,116.348c-14.982-3.597-30.604-3.597-45.585,0c0-3.798,0-7.598,0-11.396   c14.982-3.597,30.604-3.597,45.585,0C288.99,108.751,288.99,112.549,288.99,116.348z"/>
	<path style="fill:#F5F5F5;" d="M247.204,107.666c-9.294,0.863-18.448,3.04-27.174,6.524c0.547,3.759,1.092,7.519,1.639,11.278   c8.211-3.279,16.806-5.375,25.535-6.336L247.204,107.666L247.204,107.666z"/>
	<path style="fill:#F5F5F5;" d="M190.222,142.307c5.176-1.445,10.445-2.51,15.778-3.096v-11.467   c-5.327,0.495-10.596,1.473-15.778,2.829V142.307z"/>
	<path style="fill:#F5F5F5;" d="M338.374,129.298c-11.669-0.04-23.249,1.999-34.189,6.044v-11.903   c10.981-3.786,22.551-5.584,34.189-5.3V129.298z"/>
	<path style="fill:#F5F5F5;" d="M285.191,107.666c9.294,0.863,18.448,3.04,27.174,6.524c-0.547,3.759-1.092,7.519-1.639,11.278   c-8.211-3.279-16.806-5.375-25.535-6.336V107.666z"/>
	<path style="fill:#F5F5F5;" d="M342.172,142.307c-5.176-1.445-10.444-2.51-15.778-3.096v-11.467   c5.327,0.495,10.596,1.473,15.778,2.829V142.307z"/>
</g>
<path style="fill:#2E3033;" d="M19.203,489.089L19.203,489.089C8.598,489.089,0,480.492,0,469.886V41.957  c0-10.519,8.527-19.045,19.045-19.045h0.158c10.606,0,19.203,8.598,19.203,19.203v427.771  C38.407,480.492,29.809,489.089,19.203,489.089z"/>
<g>
</g>
<g>
</g>
<g>
</g>
<g>
</g>
<g>
</g>
<g>
</g>
<g>
</g>
<g>
</g>
<g>
</g>
<g>
</g>
<g>
</g>
<g>
</g>
<g>
</g>
<g>
</g>
<g>
</g>
</svg>
