<?xml version="1.0" encoding="iso-8859-1"?>
<!-- Generator: Adobe Illustrator 19.0.0, SVG Export Plug-In . SVG Version: 6.00 Build 0)  -->
<svg xmlns="http://www.w3.org/2000/svg" xmlns:xlink="http://www.w3.org/1999/xlink" version="1.1" id="Layer_1" x="0px" y="0px" viewBox="0 0 512 512" style="enable-background:new 0 0 512 512;" xml:space="preserve">
<path style="fill:#FF4B55;" d="M512,215H185.9V56.1h317.7c4.6,0,8.4,3.8,8.4,8.4V215z"/>
<path style="fill:#73AF00;" d="M185.9,215H512v150.5c0,4.6-3.8,8.4-8.4,8.4H185.9V215z"/>
<path style="fill:#F5F5F5;" d="M185.9,56.1v317.8H35.4c-4.6,0-8.4-3.8-8.4-8.4v-301c0-4.6,3.8-8.4,8.4-8.4H185.9z"/>
<path style="fill:#2E3033;" d="M19.3,490.5L19.3,490.5C8.7,490.5,0,481.9,0,471.2V40.6C0,30,8.6,21.5,19.2,21.5h0.2  c10.7,0,19.3,8.7,19.3,19.3v430.4C38.6,481.9,30,490.5,19.3,490.5z"/>
<g>
</g>
<g>
</g>
<g>
</g>
<g>
</g>
<g>
</g>
<g>
</g>
<g>
</g>
<g>
</g>
<g>
</g>
<g>
</g>
<g>
</g>
<g>
</g>
<g>
</g>
<g>
</g>
<g>
</g>
</svg>
