<?xml version="1.0" encoding="iso-8859-1"?>
<!-- Generator: Adobe Illustrator 19.0.0, SVG Export Plug-In . SVG Version: 6.00 Build 0)  -->
<svg xmlns="http://www.w3.org/2000/svg" xmlns:xlink="http://www.w3.org/1999/xlink" version="1.1" id="Layer_1" x="0px" y="0px" viewBox="0 0 512 512" style="enable-background:new 0 0 512 512;" xml:space="preserve">
<path style="fill:#41479B;" d="M503.6,373.9H35.4c-4.6,0-8.4-3.8-8.4-8.4v-301c0-4.6,3.8-8.4,8.4-8.4h468.2c4.6,0,8.4,3.8,8.4,8.4  v300.9C512,370.1,508.2,373.9,503.6,373.9z"/>
<path style="fill:#F5F5F5;" d="M30.8,372.3L512,173.2v-58.5L27,365.5C27,368.4,28.5,370.8,30.8,372.3z"/>
<path style="fill:#FF9B55;" d="M508.8,58.1L27,357.2v8.4l485-250.9V64.5C512,61.9,510.7,59.6,508.8,58.1z"/>
<polygon style="fill:#F5F5F5;" points="165.2,171.6 219.3,164.8 165.2,158.1 192.6,141.2 158.5,149.6 179.3,121.3 150.9,142   159.3,107.9 142.5,135.3 135.7,81.2 128.9,135.3 112.1,107.9 120.5,142 92.1,121.3 112.9,149.6 78.8,141.2 106.2,158.1 52.1,164.8   106.2,171.6 78.8,188.4 112.9,180.1 92.1,208.4 120.5,187.6 112.1,221.8 128.9,194.3 135.7,248.4 142.5,194.3 159.3,221.8   150.9,187.6 179.3,208.4 158.5,180.1 192.6,188.4 "/>
<path style="fill:#2E3033;" d="M18.9,485.2L18.9,485.2C8.5,485.2,0,476.7,0,466.3V45.5c0-10.3,8.4-18.7,18.7-18.7h0.2  c10.4,0,18.9,8.5,18.9,18.9v420.6C37.8,476.7,29.3,485.2,18.9,485.2z"/>
<g>
</g>
<g>
</g>
<g>
</g>
<g>
</g>
<g>
</g>
<g>
</g>
<g>
</g>
<g>
</g>
<g>
</g>
<g>
</g>
<g>
</g>
<g>
</g>
<g>
</g>
<g>
</g>
<g>
</g>
</svg>
