<?xml version="1.0" encoding="iso-8859-1"?>
<!-- Generator: Adobe Illustrator 19.0.0, SVG Export Plug-In . SVG Version: 6.00 Build 0)  -->
<svg xmlns="http://www.w3.org/2000/svg" xmlns:xlink="http://www.w3.org/1999/xlink" version="1.1" id="Layer_1" x="0px" y="0px" viewBox="0 0 512 512" style="enable-background:new 0 0 512 512;" xml:space="preserve">
<path style="fill:#FF4B55;" d="M503.6,373.9H35.4c-4.6,0-8.4-3.8-8.4-8.4v-301c0-4.6,3.8-8.4,8.4-8.4h468.2c4.6,0,8.4,3.8,8.4,8.4  v300.9C512,370.1,508.2,373.9,503.6,373.9z"/>
<g>
	<path style="fill:#FFE15A;" d="M240.8,184.7L240.8,184.7L119,56.1H35.4c-2,0-3.8,0.8-5.3,2l204.5,134   C236.4,189.4,238.5,186.9,240.8,184.7z"/>
	<path style="fill:#FFE15A;" d="M228.1,219.3c-0.1-1.4-0.4-2.8-0.4-4.3s0.3-2.9,0.4-4.3l0,0L27,189.9v50.2L228.1,219.3L228.1,219.3z   "/>
	<path style="fill:#FFE15A;" d="M263,173.8c2.1-0.3,4.3-0.7,6.5-0.7s4.4,0.3,6.5,0.7l0,0l18.6-117.7h-50.2L263,173.8L263,173.8z"/>
	<path style="fill:#FFE15A;" d="M304.4,192.1l204.5-134c-1.4-1.2-3.2-2-5.3-2H420L298.2,184.7l0,0   C300.5,186.9,302.6,189.4,304.4,192.1z"/>
	<path style="fill:#FFE15A;" d="M298.2,245.3L298.2,245.3L420,373.9h83.6c2,0,3.8-0.8,5.3-2l-204.5-134   C302.6,240.6,300.5,243.1,298.2,245.3z"/>
	<path style="fill:#FFE15A;" d="M310.9,210.7L310.9,210.7c0.1,1.4,0.4,2.8,0.4,4.3s-0.3,2.9-0.4,4.3l0,0L512,240.1v-50.2   L310.9,210.7z"/>
	<path style="fill:#FFE15A;" d="M276,256.2c-2.1,0.3-4.3,0.7-6.5,0.7s-4.4-0.3-6.5-0.7l0,0l-18.6,117.7h50.2L276,256.2L276,256.2z"/>
	<path style="fill:#FFE15A;" d="M234.6,237.9l-204.5,134c1.4,1.2,3.2,2,5.3,2H119l121.8-128.6l0,0   C238.5,243.1,236.4,240.6,234.6,237.9z"/>
	<path style="fill:#FFE15A;" d="M302.9,212.8c1.3,20.2-15.4,36.8-35.6,35.6c-16.6-1.1-30.2-14.6-31.2-31.2   c-1.3-20.2,15.4-36.8,35.6-35.6C288.3,182.7,301.8,196.2,302.9,212.8z"/>
</g>
<path style="fill:#2E3033;" d="M18.9,485.2L18.9,485.2C8.5,485.2,0,476.7,0,466.3V45.5c0-10.3,8.4-18.7,18.7-18.7h0.2  c10.4,0,18.9,8.5,18.9,18.9v420.6C37.8,476.7,29.3,485.2,18.9,485.2z"/>
<g>
</g>
<g>
</g>
<g>
</g>
<g>
</g>
<g>
</g>
<g>
</g>
<g>
</g>
<g>
</g>
<g>
</g>
<g>
</g>
<g>
</g>
<g>
</g>
<g>
</g>
<g>
</g>
<g>
</g>
</svg>
