<?xml version="1.0" encoding="iso-8859-1"?>
<!-- Generator: Adobe Illustrator 19.0.0, SVG Export Plug-In . SVG Version: 6.00 Build 0)  -->
<svg xmlns="http://www.w3.org/2000/svg" xmlns:xlink="http://www.w3.org/1999/xlink" version="1.1" id="Layer_1" x="0px" y="0px" viewBox="0 0 511.9 511.9" style="enable-background:new 0 0 511.9 511.9;" xml:space="preserve">
<path style="fill:#FF4B55;" d="M350.3,56.1h153.2c4.6,0,8.4,3.8,8.4,8.4v300.9c0,4.6-3.8,8.4-8.4,8.4H350.3V56.1z"/>
<rect x="188.7" y="56.1" style="fill:#FFE15A;" width="161.7" height="317.8"/>
<path style="fill:#73AF00;" d="M35.4,56.1h153.2v317.8H35.4c-4.6,0-8.4-3.8-8.4-8.4v-301C27,59.9,30.8,56.1,35.4,56.1z"/>
<path style="fill:#2E3033;" d="M18.7,483.4L18.7,483.4C8.4,483.4,0,475.1,0,464.7V47.1c0-10.3,8.3-18.6,18.6-18.6h0.2  c10.3,0,18.7,8.4,18.7,18.7v417.4C37.5,475.1,29.1,483.4,18.7,483.4z"/>
<g>
</g>
<g>
</g>
<g>
</g>
<g>
</g>
<g>
</g>
<g>
</g>
<g>
</g>
<g>
</g>
<g>
</g>
<g>
</g>
<g>
</g>
<g>
</g>
<g>
</g>
<g>
</g>
<g>
</g>
</svg>
