<?xml version="1.0" encoding="iso-8859-1"?>
<!-- Generator: Adobe Illustrator 19.0.0, SVG Export Plug-In . SVG Version: 6.00 Build 0)  -->
<svg xmlns="http://www.w3.org/2000/svg" xmlns:xlink="http://www.w3.org/1999/xlink" version="1.1" id="Layer_1" x="0px" y="0px" viewBox="0 0 512 512" style="enable-background:new 0 0 512 512;" xml:space="preserve">
<path style="fill:#FF4B55;" d="M26.68,268.348H512v97.536c0,4.668-3.785,8.453-8.453,8.453H35.133c-4.668,0-8.453-3.785-8.453-8.453  V268.348z"/>
<path style="fill:#FFE15A;" d="M35.133,56.368h468.414c4.668,0,8.453,3.785,8.453,8.453v97.536H26.68V64.821  C26.68,60.153,30.465,56.368,35.133,56.368z"/>
<rect x="26.68" y="162.357" style="fill:#73AF00;" width="485.32" height="105.99"/>
<path style="fill:#F5F5F5;" d="M274.111,110.098l25.057,75.132l79.198,0.614c4.831,0.037,6.834,6.202,2.948,9.073l-63.712,47.049  l23.89,75.512c1.457,4.606-3.787,8.417-7.718,5.608l-64.434-46.055l-64.434,46.055c-3.931,2.81-9.176-1.001-7.718-5.608  l23.89-75.512l-63.712-47.049c-3.886-2.87-1.883-9.035,2.948-9.073l79.198-0.614l25.058-75.132  C266.098,105.514,272.582,105.514,274.111,110.098z"/>
<path style="fill:#2E3033;" d="M19.152,488.46L19.152,488.46C8.575,488.46,0,479.884,0,469.307V42.534  C0,32.044,8.504,23.54,18.994,23.54h0.157c10.577,0,19.152,8.575,19.152,19.152V469.31C38.303,479.884,29.728,488.46,19.152,488.46z  "/>
<g>
</g>
<g>
</g>
<g>
</g>
<g>
</g>
<g>
</g>
<g>
</g>
<g>
</g>
<g>
</g>
<g>
</g>
<g>
</g>
<g>
</g>
<g>
</g>
<g>
</g>
<g>
</g>
<g>
</g>
</svg>
