<?xml version="1.0" encoding="iso-8859-1"?>
<!-- Generator: Adobe Illustrator 19.0.0, SVG Export Plug-In . SVG Version: 6.00 Build 0)  -->
<svg xmlns="http://www.w3.org/2000/svg" xmlns:xlink="http://www.w3.org/1999/xlink" version="1.1" id="Layer_1" x="0px" y="0px" viewBox="0 0 512 512" style="enable-background:new 0 0 512 512;" xml:space="preserve">
<path style="fill:#FF4B55;" d="M350.4,56.1h153.2c4.6,0,8.4,3.8,8.4,8.4v301c0,4.6-3.8,8.4-8.4,8.4H350.4V56.1z"/>
<rect x="188.6" y="56.1" style="fill:#41479B;" width="161.6" height="317.8"/>
<path style="fill:#FF4B55;" d="M35.4,56.1h153.2v317.8H35.4c-4.6,0-8.4-3.8-8.4-8.4v-301C27,59.9,30.7,56.1,35.4,56.1z"/>
<g>
	<path style="fill:#F9CF02;" d="M108.1,187.5c-12.6,0-23.5-7.6-28.2-18.5c0,0.2-0.1,0.3-0.1,0.5c0,15.6,12.6,28.3,28.3,28.3   c15.6,0,28.3-12.6,28.3-28.3c0-0.2-0.1-0.3-0.1-0.5C131.6,179.9,120.8,187.5,108.1,187.5z"/>
	<circle style="fill:#F9CF02;" cx="108.1" cy="161.8" r="20.6"/>
	<path style="fill:#F9CF02;" d="M95.3,123.3c0,7.1,5.8,12.8,12.8,12.8s12.8-5.8,12.8-12.8c0-5.1-3.2-5.8-3.2-7.7s1.9-4.5-1.9-7.7   c1.9,3.2-1.3,3.9-1.3,7.1s1.3,3.2,1.3,5.8c0,1.4-1.2,2.6-2.6,2.6s-2.6-1.2-2.6-2.6c0-2.6,2.6-5.1,2.6-9s-0.6-5.1-2.6-8.3   c-1.9-3.2-5.1-5.8-2.6-8.3c-3.9,1.3-1.9,6.4-1.9,9.6s-2.6,5.1-2.6,9s1.9,4.5,1.9,7.1c0,1.4-1.2,2.6-2.6,2.6s-2.6-1.2-2.6-2.6   c0-2.6,1.3-2.6,1.3-5.8c0-3.2-3.2-3.9-1.3-7.1c-3.9,3.2-1.9,5.8-1.9,7.7C98.5,117.5,95.3,118.1,95.3,123.3z"/>
	<path style="fill:#F9CF02;" d="M51.6,205.1v119.2c0,1.2,1,2.1,2.1,2.1h21.4c1.2,0,2.1-1,2.1-2.1V205.1c0-1.2-1-2.1-2.1-2.1H53.7   C52.5,203,51.6,204,51.6,205.1z"/>
	<path style="fill:#F9CF02;" d="M139,205.1v119.2c0,1.2,1,2.1,2.1,2.1h21.4c1.2,0,2.1-1,2.1-2.1V205.1c0-1.2-1-2.1-2.1-2.1h-21.4   C140,203,139,204,139,205.1z"/>
	<path style="fill:#F9CF02;" d="M82.5,225.7v6c0,1.2,1,2.1,2.1,2.1h47.2c1.2,0,2.1-1,2.1-2.1v-6c0-1.2-1-2.1-2.1-2.1H84.6   C83.4,223.5,82.5,224.5,82.5,225.7z"/>
	<path style="fill:#F9CF02;" d="M82.5,297.7v6c0,1.2,1,2.1,2.1,2.1h47.2c1.2,0,2.1-1,2.1-2.1v-6c0-1.2-1-2.1-2.1-2.1H84.6   C83.4,295.6,82.5,296.5,82.5,297.7z"/>
	<path style="fill:#F9CF02;" d="M86.3,203H130c1.1,0,1.5,1.4,0.6,2l-20.8,12.5c-1,0.6-2.2,0.6-3.3,0L85.7,205   C84.8,204.4,85.2,203,86.3,203z"/>
	<path style="fill:#F9CF02;" d="M86.3,311H130c1.1,0,1.5,1.4,0.6,2l-20.8,12.5c-1,0.6-2.2,0.6-3.3,0L85.7,313   C84.8,312.4,85.2,311,86.3,311z"/>
	<path style="fill:#F9CF02;" d="M110.6,239.2c-0.8-0.1-1.6-0.3-2.4-0.3c-14.1,0-25.7,11.5-25.7,25.7c0,8.4,4.1,15.8,10.3,20.4   c0.7,0.5,1.7-0.3,1.3-1.1c-0.8-1.8-1.2-3.7-1.2-5.8c0-8.3,6.8-15.2,15.2-15.2c4.4,0,8.6-2.2,10.6-6.1   C122.8,248.8,118,240.7,110.6,239.2z M108.3,256.1c-2.8,0-5.1-2.3-5.1-5.1s2.3-5.1,5.1-5.1s5.1,2.3,5.1,5.1   C113.3,253.8,111.1,256.1,108.3,256.1z"/>
	<path style="fill:#F9CF02;" d="M123.6,244.1c-0.7-0.5-1.7,0.3-1.3,1.1c0.8,1.8,1.2,3.7,1.2,5.8c0,8.3-6.8,15.2-15.2,15.2   c-4.4,0-8.6,2.2-10.6,6.1c-4,8.2,0.9,16.2,8.2,17.8c0.8,0.1,1.6,0.3,2.4,0.3c14.1,0,25.7-11.5,25.7-25.7   C133.9,256.2,129.8,248.8,123.6,244.1z M108.3,283.3c-2.8,0-5.1-2.3-5.1-5.1c0-2.8,2.3-5.1,5.1-5.1s5.1,2.3,5.1,5.1   C113.3,281.1,111.1,283.3,108.3,283.3z"/>
</g>
<path style="fill:#2E3033;" d="M19.3,490.5L19.3,490.5C8.6,490.5,0,481.9,0,471.2V40.6C0,30,8.6,21.5,19.1,21.5h0.1  c10.7,0,19.3,8.6,19.3,19.3v430.5C38.7,481.9,30,490.5,19.3,490.5z"/>
<g>
</g>
<g>
</g>
<g>
</g>
<g>
</g>
<g>
</g>
<g>
</g>
<g>
</g>
<g>
</g>
<g>
</g>
<g>
</g>
<g>
</g>
<g>
</g>
<g>
</g>
<g>
</g>
<g>
</g>
</svg>
