<?xml version="1.0" encoding="iso-8859-1"?>
<!-- Generator: Adobe Illustrator 19.0.0, SVG Export Plug-In . SVG Version: 6.00 Build 0)  -->
<svg xmlns="http://www.w3.org/2000/svg" xmlns:xlink="http://www.w3.org/1999/xlink" version="1.1" id="Layer_1" x="0px" y="0px" viewBox="0 0 512.1 512.1" style="enable-background:new 0 0 512.1 512.1;" xml:space="preserve">
<path style="fill:#4173CD;" d="M503.6,373.9H35.4c-4.6,0-8.4-3.7-8.4-8.4v-301c0-4.6,3.7-8.4,8.4-8.4h468.3c4.6,0,8.4,3.7,8.4,8.4  v301C512,370.1,508.3,373.9,503.6,373.9z"/>
<path style="fill:#F5F5F5;" d="M269.5,336.2c-66.9,0-121.2-54.4-121.2-121.2S202.6,93.8,269.5,93.8S390.7,148.1,390.7,215  S336.4,336.2,269.5,336.2z M269.5,118.8c-53,0-96.2,43.1-96.2,96.2s43.1,96.2,96.2,96.2s96.2-43.1,96.2-96.2  S322.5,118.8,269.5,118.8z"/>
<g>
	<path style="fill:#FFDC00;" d="M269.5,327.9c-62.2,0-112.9-50.6-112.9-112.9s50.6-112.9,112.9-112.9S382.4,152.8,382.4,215   S331.7,327.9,269.5,327.9z M269.5,110.5C211.9,110.5,165,157.4,165,215s46.9,104.5,104.5,104.5S374,272.6,374,215   S327.1,110.5,269.5,110.5z"/>
	<circle style="fill:#FFDC00;" cx="160.8" cy="215" r="8.4"/>
	<circle style="fill:#FFDC00;" cx="378.2" cy="215" r="8.4"/>
	<circle style="fill:#FFDC00;" cx="269.5" cy="106.3" r="8.4"/>
	<circle style="fill:#FFDC00;" cx="192.6" cy="138.1" r="8.4"/>
	<circle style="fill:#FFDC00;" cx="346.4" cy="138.1" r="8.4"/>
	<circle style="fill:#FFDC00;" cx="369.9" cy="173.4" r="8.4"/>
	<circle style="fill:#FFDC00;" cx="227.9" cy="114.6" r="8.4"/>
	<circle style="fill:#FFDC00;" cx="169.1" cy="173.4" r="8.4"/>
	<circle style="fill:#FFDC00;" cx="311.1" cy="114.6" r="8.4"/>
	<circle style="fill:#FFDC00;" cx="376.1" cy="193.8" r="8.4"/>
	<circle style="fill:#FFDC00;" cx="248.3" cy="108.4" r="8.4"/>
	<circle style="fill:#FFDC00;" cx="179.1" cy="154.6" r="8.4"/>
	<circle style="fill:#FFDC00;" cx="329.9" cy="124.6" r="8.4"/>
	<circle style="fill:#FFDC00;" cx="359.9" cy="154.6" r="8.4"/>
	<circle style="fill:#FFDC00;" cx="209.1" cy="124.6" r="8.4"/>
	<circle style="fill:#FFDC00;" cx="162.9" cy="193.8" r="8.4"/>
	<circle style="fill:#FFDC00;" cx="290.7" cy="108.4" r="8.4"/>
</g>
<path style="fill:#FFA000;" d="M378.2,219.2c-2.3,0-4.2-1.9-4.2-4.2c0-57.6-46.9-104.5-104.5-104.5S165,157.4,165,215  c0,2.3-1.9,4.2-4.2,4.2s-4.2-1.9-4.2-4.2c0-62.2,50.6-112.9,112.9-112.9S382.4,152.8,382.4,215C382.4,217.3,380.5,219.2,378.2,219.2  z"/>
<path style="fill:#B4B4B4;" d="M292.7,340.4h-46.5c-9.9,0-17.7-8.6-16.6-18.5l14.8-140.4h50.2L309.4,322  C310.4,331.8,302.7,340.4,292.7,340.4z"/>
<path style="fill:#AAAAAA;" d="M294.3,181.6h-49.9c-2.2,0-4-1.7-4.3-3.8l-3.1-28.7c-0.5-4.9,3.3-9.3,8.3-9.3h48.3  c5,0,8.9,4.3,8.3,9.3l-3.1,28.5C298.6,179.8,296.7,181.6,294.3,181.6z"/>
<path style="fill:#F5F5F5;" d="M271.4,149.5l15.5,44.6l47.2,1c1.9,0,2.7,2.5,1.2,3.7l-37.6,28.5l13.7,45.2c0.6,1.9-1.5,3.4-3.1,2.3  l-38.8-27l-38.8,27c-1.6,1.1-3.7-0.4-3.1-2.3l13.7-45.2l-37.6-28.5c-1.5-1.2-0.7-3.6,1.2-3.7l47.2-1l15.5-44.6  C268.2,147.6,270.8,147.6,271.4,149.5z"/>
<path style="fill:#2E3033;" d="M19.2,489.1L19.2,489.1C8.6,489.1,0,480.5,0,469.9V42c0-10.5,8.5-19,19-19h0.2  c10.6,0,19.2,8.6,19.2,19.2V470C38.4,480.5,29.8,489.1,19.2,489.1z"/>
<g>
</g>
<g>
</g>
<g>
</g>
<g>
</g>
<g>
</g>
<g>
</g>
<g>
</g>
<g>
</g>
<g>
</g>
<g>
</g>
<g>
</g>
<g>
</g>
<g>
</g>
<g>
</g>
<g>
</g>
</svg>
