<?xml version="1.0" encoding="iso-8859-1"?>
<!-- Generator: Adobe Illustrator 19.0.0, SVG Export Plug-In . SVG Version: 6.00 Build 0)  -->
<svg xmlns="http://www.w3.org/2000/svg" xmlns:xlink="http://www.w3.org/1999/xlink" version="1.1" id="Layer_1" x="0px" y="0px" viewBox="0 0 512.001 512.001" style="enable-background:new 0 0 512.001 512.001;" xml:space="preserve">
<path style="fill:#73AF00;" d="M503.602,381.964H36.488c-4.638,0-8.398-3.76-8.398-8.398V73.316c0-4.638,3.76-8.398,8.398-8.398  h467.115c4.638,0,8.398,3.76,8.398,8.398v300.249C512,378.204,508.241,381.964,503.602,381.964z"/>
<g>
	<path style="fill:#FFE15A;" d="M359.878,194.123c-0.224-1.427-2.291-1.354-2.453,0.08c-4.977,43.856-42.177,77.93-87.38,77.93   c-45.188,0-82.401-34.072-87.38-77.927c-0.163-1.434-2.23-1.505-2.453-0.08c-0.691,4.411-1.07,8.923-1.07,13.529   c0,50.155,40.707,90.876,90.904,90.876c50.213,0,90.903-40.72,90.903-90.876C360.948,203.048,360.57,198.535,359.878,194.123z"/>
	<path style="fill:#FFE15A;" d="M268.921,156.589l-6.573,19.71l-20.777,0.161c-1.139,0.008-1.611,1.462-0.695,2.139l16.714,12.343   l-6.267,19.81c-0.343,1.086,0.893,1.984,1.82,1.322l16.904-12.082l16.904,12.082c0.927,0.662,2.164-0.236,1.82-1.322l-6.267-19.81   l16.714-12.343c0.916-0.677,0.444-2.13-0.695-2.139l-20.777-0.161l-6.573-19.71C270.809,155.508,269.281,155.508,268.921,156.589z"/>
</g>
<path style="fill:#2E3033;" d="M19.026,486.943L19.026,486.943C8.519,486.943,0,478.425,0,467.917V43.929  c0-10.422,8.448-18.871,18.87-18.871h0.156c10.508,0,19.026,8.519,19.026,19.026v423.831  C38.053,478.425,29.534,486.943,19.026,486.943z"/>
<g>
</g>
<g>
</g>
<g>
</g>
<g>
</g>
<g>
</g>
<g>
</g>
<g>
</g>
<g>
</g>
<g>
</g>
<g>
</g>
<g>
</g>
<g>
</g>
<g>
</g>
<g>
</g>
<g>
</g>
</svg>
