<?xml version="1.0" encoding="iso-8859-1"?>
<!-- Generator: Adobe Illustrator 19.0.0, SVG Export Plug-In . SVG Version: 6.00 Build 0)  -->
<svg xmlns="http://www.w3.org/2000/svg" xmlns:xlink="http://www.w3.org/1999/xlink" version="1.1" id="Layer_1" x="0px" y="0px" viewBox="0 0 512 512" style="enable-background:new 0 0 512 512;" xml:space="preserve">
<path style="fill:#41479B;" d="M503.6,373.9H35.4c-4.6,0-8.4-3.8-8.4-8.4v-301c0-4.6,3.8-8.4,8.4-8.4h468.2c4.6,0,8.4,3.8,8.4,8.4  v300.9C512,370.1,508.2,373.9,503.6,373.9z"/>
<path style="fill:#F5F5F5;" d="M266.1,56.1h-14.5l-77.5,50.7V56.1h-41.8v50.7L54.9,56.1H40.4c-4.6,0-8.4,3.7-8.4,8.4v6.6l66.5,43.5  H32v41.8h66.5L32,200v6.6c0,4.6,3.7,8.4,8.4,8.4h14.5l77.5-50.7V215h41.8v-50.7l77.5,50.7h14.5c4.6,0,8.4-3.7,8.4-8.4V200L208,156.5  h66.5v-41.8H208l66.5-43.5v-6.6C274.5,59.9,270.8,56.1,266.1,56.1z"/>
<g>
	<polygon style="fill:#FF4B55;" points="274.5,123 165.8,123 165.8,56.1 140.7,56.1 140.7,123 32,123 32,148.1 140.7,148.1    140.7,215 165.8,215 165.8,148.1 274.5,148.1  "/>
	<path style="fill:#FF4B55;" d="M124,114.7L36,57.5c-2.3,1.5-4,4-4,6.9v0.4l76.6,49.7H124V114.7z"/>
	<path style="fill:#FF4B55;" d="M189.5,114.7l83.7-54.3c-1.5-2.5-4-4.2-7.1-4.2h-1.8l-90.2,58.5H189.5z"/>
	<path style="fill:#FF4B55;" d="M116.8,156.5l-83.6,54.2c1.4,2.5,4,4.3,7.2,4.3H42l90.2-58.5H116.8L116.8,156.5z"/>
	<path style="fill:#FF4B55;" d="M274.4,207.3l-78.3-50.8h-15.4l88.9,57.7C272.3,213,274.1,210.4,274.4,207.3z"/>
</g>
<rect x="335.2" y="149.9" style="fill:#82AFFF;" width="111.1" height="85.8"/>
<path style="fill:#C86464;" d="M335.2,235.7c0,29.3,32.8,53,55.5,53l0,0c20.2,0,55.5-23.7,55.5-53L335.2,235.7L335.2,235.7z"/>
<path style="fill:#73AF00;" d="M405.6,181.2c1.8,0.3,4.8,0.7,5.2,5c0.3,4.3-1.3,19.7-2.8,21.6c0,0,5.2,11.7,5.4,18.6  c0.2,6.9-0.7,27.7-0.1,31c0.6,3.3,3,10.1,3,10.1s-7.3-4.3-10.1-1.6c-2.8,2.7-13.3,6.3-17.4,2.1c0,0,4.9-13.9,4.9-29.7s0-54.8,0-54.8  s2.1-1.6,4.7-1.7C401,181.9,405.6,181.2,405.6,181.2z"/>
<g>
	<path style="fill:#FFF5E1;" d="M406.6,264.6c0.3,2,1.2,3.5,0.7,4.2c-0.4,0.7-3.2,7.5-1.6,7.5s4.3-0.8,5.1-2.3   c0.7-1.5,1.1-3.7,1.5-4.3c0.4-0.6-0.7-3.8-1.7-4.3C409.7,264.9,406.6,264.6,406.6,264.6z"/>
	<path style="fill:#FFF5E1;" d="M388.4,185.6l-5.8,0.7c0,0,0.7-3.8,0.8-6.4c0.1-2.6,0.3-7.5,0.3-7.5s4.1-2.5,4.2-2.9   c0.1-0.2,0.5-1.5,0.2-2.2c-0.4-0.7-1.6-0.7-1.6-0.7s-4.8,2.5-4.8,2.9s0,2.9-0.5,3.9c-0.5,0.9-3.5,8.8-3.7,10.9   c-0.2,2.1-0.5,6.5,0.3,6.7s9.6,1.2,10.5,0.7C389.3,191.4,388.4,185.6,388.4,185.6z"/>
</g>
<polygon style="fill:#464655;" points="414.6,164.9 393.6,164.9 393.6,154.9 386.3,154.9 386.3,164.9 365.3,164.9 365.3,172.1   386.3,172.1 386.3,267.6 393.6,267.6 393.6,172.1 414.6,172.1 "/>
<path style="fill:#963C3C;" d="M402.2,177.7c0,0,7,2,8-0.3c1.1-2.7-2.6-3.1-3.3-6c-0.1-0.3-0.7-4.2-3.6-4.9s-5.5,0-5.6,1.9  C397.7,170.3,402.2,177.7,402.2,177.7z"/>
<path style="fill:#FFF5E1;" d="M398.4,186.7c-0.2,0-0.5-2.1-0.1-4.7s0-3.5,0-3.5s-2.9,0.3-2.9-0.8s0.6-6.5,2.4-9.3  c0,0,1.3,1.6,3.6,1.6c0,0-0.1,1.9,1.2,3.2c0,0-1.6,1.4-0.8,2.3s2.1,2.1,2.1,2.1s0.1,2.2,1.8,3.7  C405.6,181.2,403.5,185.9,398.4,186.7z"/>
<g>
	<rect x="369.6" y="232.3" style="fill:#464655;" width="0.6" height="12.5"/>
	<rect x="372.1" y="229.9" style="fill:#464655;" width="0.6" height="17.4"/>
	<rect x="374.7" y="227.7" style="fill:#464655;" width="0.6" height="21.8"/>
	<rect x="377.2" y="224.5" style="fill:#464655;" width="0.6" height="28.1"/>
	<rect x="379.8" y="220.4" style="fill:#464655;" width="0.6" height="36.4"/>
	<rect x="382.3" y="220.4" style="fill:#464655;" width="0.6" height="38.1"/>
</g>
<path style="fill:#FFE15A;" d="M393.7,240.3c-2.8-14.5-10.5-22.9-13.3-23.4c-2.7-0.4-4.7,1.8-4.9,3.4c-0.2,1.6-1.7,6.3-4.7,8.5  c-3.1,2.2-8.7,3.5-10,7.6s2.1,5.9,4.1,5.5c0.1,0,0.3-0.1,0.4-0.1l21.5,26.5c0.8,1,2.3,0.8,2.8-0.3  C391.9,263.4,396.1,252.7,393.7,240.3z M367.1,240.6c0.8-0.9,1.2-2.2,0.3-3.4c-1.6-2.2-3.4,0.9-3.4,0.9s-0.5-2.7,3.6-4.1  c4.1-1.4,8.7-3.7,10.8-8.6c2.1-4.9,2-4,2-4s8.4,4.7,9.6,19.6c1.2,14.8-2.9,20.8-2.9,20.8L367.1,240.6z"/>
<g>
	<path style="fill:#FFF5E1;" d="M386.3,208.6c-1,0.6-1.8,1.1-2.4,1.5c-2,1-4.3,2.1-4.6,3c-0.2,0.9-1.6,1.7-1.5,2.8s0,4.4,0,4.4   c1.2-0.2,3.6-0.6,4.3-2.1c0.8-1.4,1.5-4.2,4-5.4c0,0,0.1,0,0.2-0.1V208.6z"/>
	<path style="fill:#FFF5E1;" d="M407.2,188.5c-1.2,0.6-4.7,4.8-5.3,6.8c-0.6,2-2.3,6.6-2.3,6.6s-3.6,0.5-6.1,1.9v6.9   c1.4-0.4,2.6-0.8,3.3-1.2c2.1-1.1,5-3.2,6.5-3.6c1.5-0.4,2.8-2.9,3.3-4.4c0.6-1.5,2.3-5.9,2.5-8.9   C409.4,189.6,408.4,187.9,407.2,188.5z"/>
</g>
<path style="fill:#F5F5F5;" d="M390.7,290.5h-0.3c-56.4-8.9-57-57.7-57-59.8v-82.6H448v82.6c0,2.1-0.6,50.9-57,59.8H390.7z   M337,151.6v79c0,1.9,0.6,47.7,53.8,56.3c53.2-8.6,53.8-54.3,53.8-56.3v-79L337,151.6L337,151.6z"/>
<path style="fill:#2E3033;" d="M19.3,490.5L19.3,490.5C8.7,490.5,0,481.9,0,471.2V40.6C0,30,8.6,21.5,19.2,21.5h0.2  c10.7,0,19.3,8.7,19.3,19.3v430.4C38.6,481.9,30,490.5,19.3,490.5z"/>
<g>
</g>
<g>
</g>
<g>
</g>
<g>
</g>
<g>
</g>
<g>
</g>
<g>
</g>
<g>
</g>
<g>
</g>
<g>
</g>
<g>
</g>
<g>
</g>
<g>
</g>
<g>
</g>
<g>
</g>
</svg>
