<?xml version="1.0" encoding="iso-8859-1"?>
<!-- Generator: Adobe Illustrator 19.0.0, SVG Export Plug-In . SVG Version: 6.00 Build 0)  -->
<svg xmlns="http://www.w3.org/2000/svg" xmlns:xlink="http://www.w3.org/1999/xlink" version="1.1" id="Layer_1" x="0px" y="0px" viewBox="0 0 512 512" style="enable-background:new 0 0 512 512;" xml:space="preserve">
<path style="fill:#FF4B55;" d="M503.657,66.435H270.045V383.48h233.612c4.607,0,8.343-3.736,8.343-8.343V74.778  C512,70.17,508.265,66.435,503.657,66.435z"/>
<path style="fill:#F5F5F5;" d="M36.433,383.48h233.612V66.435H36.433c-4.608,0-8.343,3.735-8.343,8.343v300.358  C28.09,379.745,31.825,383.48,36.433,383.48z"/>
<path style="fill:#FF4B55;" d="M97.617,85.902v22.324c1.229,0.048,2.601,0.607,3.74,1.746c1.14,1.14,1.698,2.512,1.746,3.741h22.325  v22.249h-22.325c-0.048,1.229-0.606,2.601-1.746,3.74c-1.14,1.14-2.511,1.698-3.74,1.746v22.325H75.368v-22.325  c-1.229-0.048-2.601-0.606-3.74-1.746c-1.14-1.14-1.697-2.511-1.746-3.74H47.557v-22.249h22.325  c0.047-1.229,0.606-2.601,1.746-3.741s2.511-1.697,3.74-1.746V85.902H97.617 M100.398,83.121h-2.781H75.368h-2.781v2.781v20.134  c-1.062,0.436-2.057,1.101-2.926,1.969c-0.868,0.868-1.535,1.864-1.97,2.927H47.557h-2.781v2.781v22.249v2.781h2.781h20.135  c0.436,1.062,1.101,2.059,1.969,2.927c0.868,0.868,1.863,1.534,2.926,1.969v20.134v2.781h2.781h22.249h2.781v-2.781v-20.134  c1.062-0.436,2.059-1.101,2.927-1.969c0.868-0.868,1.534-1.863,1.969-2.926h20.135h2.781v-2.781v-22.249v-2.781h-2.781h-20.134  c-0.436-1.062-1.101-2.057-1.969-2.927c-0.868-0.868-1.864-1.534-2.926-1.969V85.903v-2.782H100.398z"/>
<polygon style="fill:#CDCDCD;" points="125.428,113.713 97.617,113.713 97.617,85.902 75.368,85.902 75.368,113.713 47.557,113.713   47.557,135.962 75.368,135.962 75.368,163.773 97.617,163.773 97.617,135.962 125.428,135.962 "/>
<g>
	<path style="fill:#B4A08C;" d="M97.462,122.954c1.249,7.614-5.24,14.102-12.854,12.854c-4.61-0.756-8.33-4.475-9.085-9.085   c-1.249-7.614,5.24-14.103,12.854-12.854C92.987,114.624,96.706,118.343,97.462,122.954z"/>
	
		<ellipse transform="matrix(-0.7071 -0.7071 0.7071 -0.7071 29.3992 286.6726)" style="fill:#B4A08C;" cx="74.071" cy="137.248" rx="4.946" ry="3.463"/>
	
		<ellipse transform="matrix(0.7071 -0.7071 0.7071 0.7071 -68.0795 110.139)" style="fill:#B4A08C;" cx="98.91" cy="137.249" rx="4.946" ry="3.463"/>
	
		<ellipse transform="matrix(0.7071 0.7071 -0.7071 0.7071 108.4676 -37.0039)" style="fill:#B4A08C;" cx="98.901" cy="112.43" rx="4.946" ry="3.463"/>
	
		<ellipse transform="matrix(-0.7071 0.7071 -0.7071 -0.7071 205.9494 139.5388)" style="fill:#B4A08C;" cx="74.075" cy="112.423" rx="4.946" ry="3.463"/>
	<path style="fill:#B4A08C;" d="M86.493,140.065c-8.398,0-15.229-6.831-15.229-15.229s6.831-15.229,15.229-15.229   s15.229,6.831,15.229,15.229S94.89,140.065,86.493,140.065z M86.493,111c-7.629,0-13.838,6.209-13.838,13.838   s6.208,13.838,13.838,13.838s13.838-6.208,13.838-13.838C100.33,117.208,94.122,111,86.493,111z"/>
</g>
<path style="fill:#2E3033;" d="M19.026,486.943L19.026,486.943C8.519,486.943,0,478.424,0,467.916V43.928  c0-10.422,8.448-18.871,18.87-18.871h0.156c10.508,0,19.026,8.519,19.026,19.026v423.831  C38.053,478.424,29.534,486.943,19.026,486.943z"/>
<g>
</g>
<g>
</g>
<g>
</g>
<g>
</g>
<g>
</g>
<g>
</g>
<g>
</g>
<g>
</g>
<g>
</g>
<g>
</g>
<g>
</g>
<g>
</g>
<g>
</g>
<g>
</g>
<g>
</g>
</svg>
