<?xml version="1.0" encoding="iso-8859-1"?>
<!-- Generator: Adobe Illustrator 19.0.0, SVG Export Plug-In . SVG Version: 6.00 Build 0)  -->
<svg xmlns="http://www.w3.org/2000/svg" xmlns:xlink="http://www.w3.org/1999/xlink" version="1.1" id="Layer_1" x="0px" y="0px" viewBox="0 0 512 512" style="enable-background:new 0 0 512 512;" xml:space="preserve">
<path style="fill:#FF4B55;" d="M503.6,373.9H35.4c-4.6,0-8.4-3.8-8.4-8.4v-301c0-4.6,3.8-8.4,8.4-8.4h468.2c4.6,0,8.4,3.8,8.4,8.4  v300.9C512,370.1,508.2,373.9,503.6,373.9z"/>
<path style="fill:#73AF00;" d="M448.6,120.8v188.4H89.1V120.8H448.6"/>
<path style="fill:#F5F5F5;" d="M251.7,215c0-32.5,22.1-59.6,52-67.5c1-0.3,0.9-1.7-0.1-1.8c-2.7-0.3-5.4-0.5-8.3-0.5  c-38.6,0-69.8,31.2-69.8,69.8c0,38.4,31.2,69.7,69.8,69.7c2.8,0,5.5-0.2,8.3-0.5c1-0.1,1.1-1.5,0.1-1.8  C273.9,274.5,251.7,247.4,251.7,215z"/>
<path style="fill:#2E3033;" d="M18.9,485.2L18.9,485.2C8.5,485.2,0,476.8,0,466.3V45.5c0-10.4,8.4-18.7,18.8-18.7H19  c10.5,0,18.9,8.5,18.9,18.9v420.6C37.7,476.8,29.3,485.2,18.9,485.2z"/>
<g>
</g>
<g>
</g>
<g>
</g>
<g>
</g>
<g>
</g>
<g>
</g>
<g>
</g>
<g>
</g>
<g>
</g>
<g>
</g>
<g>
</g>
<g>
</g>
<g>
</g>
<g>
</g>
<g>
</g>
</svg>
