<?xml version="1.0" encoding="iso-8859-1"?>
<!-- Generator: Adobe Illustrator 19.0.0, SVG Export Plug-In . SVG Version: 6.00 Build 0)  -->
<svg xmlns="http://www.w3.org/2000/svg" xmlns:xlink="http://www.w3.org/1999/xlink" version="1.1" id="Layer_1" x="0px" y="0px" viewBox="0 0 512 512" style="enable-background:new 0 0 512 512;" xml:space="preserve">
<path style="fill:#73AF00;" d="M27,267.95h485v97.5c0,4.6-3.8,8.4-8.4,8.4H35.4c-4.6,0-8.4-3.8-8.4-8.4  C27,365.45,27,267.95,27,267.95z"/>
<path style="fill:#464655;" d="M35.4,56.05h468.2c4.6,0,8.4,3.8,8.4,8.4v97.5H27v-97.5C27,59.85,30.8,56.05,35.4,56.05z"/>
<g>
	<rect x="27" y="161.95" style="fill:#FF4B55;" width="485" height="105.9"/>
	<path style="fill:#FF4B55;" d="M334.5,152.05c-13.1-22.3-37.2-37.4-65-37.4s-51.9,15.1-65,37.4H334.5z"/>
	<path style="fill:#FF4B55;" d="M273.8,79.05c0,3.8-4.3,27.2-4.3,27.2s-4.3-23.4-4.3-27.2s1.9-6.8,4.3-6.8S273.8,75.35,273.8,79.05z   "/>
	<path style="fill:#FF4B55;" d="M350.7,114.45c-2.7,2.7-22.3,16.2-22.3,16.2s13.5-19.6,16.2-22.3s6.2-3.4,7.9-1.7   S353.4,111.85,350.7,114.45z"/>
	<path style="fill:#FF4B55;" d="M194.4,108.35c2.7,2.7,16.2,22.3,16.2,22.3s-19.6-13.5-22.3-16.2s-3.4-6.2-1.7-7.9   C188.2,104.95,191.7,105.75,194.4,108.35z"/>
	<path style="fill:#FF4B55;" d="M231.2,85.85c1.4,3.5,6.4,26.8,6.4,26.8s-13-20-14.4-23.5s-0.8-7,1.4-7.9   C226.8,80.25,229.8,82.35,231.2,85.85z"/>
	<path style="fill:#FF4B55;" d="M315.8,89.15c-1.4,3.5-14.4,23.5-14.4,23.5s5-23.3,6.4-26.8s4.4-5.5,6.6-4.6   S317.2,85.65,315.8,89.15z"/>
	<path style="fill:#FF4B55;" d="M251.8,80.45c0.7,3.7,1.2,27.5,1.2,27.5s-8.9-22.1-9.6-25.8s0.5-7,2.9-7.5   C248.5,74.15,251,76.75,251.8,80.45z"/>
	<path style="fill:#FF4B55;" d="M334.2,99.85c-2.1,3.1-18.6,20.3-18.6,20.3s9.3-21.9,11.4-25s5.4-4.6,7.4-3.3   C336.3,93.15,336.2,96.75,334.2,99.85z"/>
	<path style="fill:#FF4B55;" d="M179.7,124.95c3.1,2.1,20.3,18.6,20.3,18.6s-21.9-9.3-25-11.4s-4.6-5.4-3.3-7.4   C173,122.75,176.6,122.85,179.7,124.95z"/>
	<path style="fill:#FF4B55;" d="M211.3,95.55c2.1,3.1,11.6,25,11.6,25s-16.7-17-18.8-20.1s-2.2-6.7-0.2-8   C205.9,90.95,209.2,92.45,211.3,95.55z"/>
	<path style="fill:#FF4B55;" d="M363.6,131.45c-3.1,2.1-25,11.6-25,11.6s17-16.7,20.1-18.8s6.7-2.2,8-0.2   C368.1,126.05,366.7,129.35,363.6,131.45z"/>
	<path style="fill:#FF4B55;" d="M294.9,81.95c-0.7,3.7-9.4,25.8-9.4,25.8s0.2-23.8,1-27.5c0.7-3.7,3.2-6.3,5.5-5.8   C294.3,74.85,295.6,78.25,294.9,81.95z"/>
	<path style="fill:#FF4B55;" d="M297.5,82.55c-1.1,3.6-3.8,27.3-3.8,27.3s10.9-21.2,12-24.8s0.1-7.1-2.2-7.8   C301.3,76.65,298.6,78.95,297.5,82.55z"/>
	<path style="fill:#FF4B55;" d="M213.6,94.15c1.8,3.3,16.6,21.9,16.6,21.9s-7.2-22.7-9-26s-4.9-5.1-7-4   C212.1,87.25,211.8,90.85,213.6,94.15z"/>
	<path style="fill:#FF4B55;" d="M365,133.75c-3.3,1.8-21.9,16.6-21.9,16.6s22.7-7.2,26-9s5.1-4.9,4-7   C371.9,132.25,368.3,131.95,365,133.75z"/>
	<path style="fill:#FF4B55;" d="M336.3,101.45c-2.4,2.9-13.9,23.7-13.9,23.7s18.2-15.4,20.6-18.3s2.8-6.5,1-8   C342.1,97.45,338.7,98.55,336.3,101.45z"/>
	<path style="fill:#FF4B55;" d="M181.3,122.85c2.9,2.4,23.7,13.9,23.7,13.9s-15.4-18.2-18.3-20.6s-6.5-2.8-8-1   C177.3,116.95,178.4,120.45,181.3,122.85z"/>
	<path style="fill:#FF4B55;" d="M254.4,80.05c0.4,3.7,7,26.6,7,26.6s2-23.7,1.6-27.5c-0.4-3.7-2.6-6.6-5-6.3   C255.6,73.05,254,76.25,254.4,80.05z"/>
	<path style="fill:#FF4B55;" d="M276.2,79.15c-0.4,3.7,1.6,27.5,1.6,27.5s6.6-22.9,7-26.6s-1.2-7-3.6-7.2   C278.8,72.65,276.6,75.45,276.2,79.15z"/>
	<path style="fill:#FF4B55;" d="M196.2,106.75c2.4,2.9,20.6,18.3,20.6,18.3s-11.5-20.9-13.9-23.8s-5.8-4-7.6-2.5   S193.8,103.85,196.2,106.75z"/>
	<path style="fill:#FF4B55;" d="M352.3,116.25c-2.9,2.4-18.3,20.6-18.3,20.6s20.9-11.5,23.8-13.9s4-5.8,2.5-7.6   C358.8,113.45,355.2,113.85,352.3,116.25z"/>
	<path style="fill:#FF4B55;" d="M317.9,90.15c-1.8,3.3-9,26-9,26s14.9-18.6,16.7-21.9c1.8-3.3,1.5-6.9-0.6-8   C322.8,85.05,319.7,86.85,317.9,90.15z"/>
	<path style="fill:#FF4B55;" d="M170,141.25c3.3,1.8,26,9,26,9s-18.6-14.9-21.9-16.7s-6.9-1.5-8,0.6S166.7,139.35,170,141.25z"/>
	<path style="fill:#FF4B55;" d="M233.4,85.05c1.1,3.6,12,24.8,12,24.8s-2.6-23.7-3.7-27.3s-3.8-5.9-6.1-5.3   C233.3,77.95,232.3,81.45,233.4,85.05z"/>
</g>
<path style="fill:#2E3033;" d="M19,486.95L19,486.95c-10.5,0-19-8.5-19-19v-424c0-10.4,8.4-18.9,18.9-18.9H19c10.5,0,19,8.5,19,19  v423.8C38.1,478.45,29.5,486.95,19,486.95z"/>
<g>
</g>
<g>
</g>
<g>
</g>
<g>
</g>
<g>
</g>
<g>
</g>
<g>
</g>
<g>
</g>
<g>
</g>
<g>
</g>
<g>
</g>
<g>
</g>
<g>
</g>
<g>
</g>
<g>
</g>
</svg>
