<?xml version="1.0" encoding="iso-8859-1"?>
<!-- Generator: Adobe Illustrator 19.0.0, SVG Export Plug-In . SVG Version: 6.00 Build 0)  -->
<svg xmlns="http://www.w3.org/2000/svg" xmlns:xlink="http://www.w3.org/1999/xlink" version="1.1" id="Layer_1" x="0px" y="0px" viewBox="0 0 512 512" style="enable-background:new 0 0 512 512;" xml:space="preserve">
<path style="fill:#FF4B55;" d="M512,79.355H27.43V65.118c0-4.661,3.779-8.44,8.44-8.44h467.69c4.661,0,8.44,3.779,8.44,8.44V79.355z  "/>
<rect x="27.43" y="79.358" style="fill:#F5F5F5;" width="484.57" height="22.677"/>
<rect x="27.43" y="102.028" style="fill:#FF4B55;" width="484.57" height="22.677"/>
<rect x="27.43" y="124.708" style="fill:#F5F5F5;" width="484.57" height="22.677"/>
<rect x="27.43" y="147.388" style="fill:#FF4B55;" width="484.57" height="22.677"/>
<rect x="27.43" y="170.068" style="fill:#F5F5F5;" width="484.57" height="22.677"/>
<rect x="27.43" y="192.738" style="fill:#FF4B55;" width="484.57" height="22.677"/>
<rect x="27.43" y="215.418" style="fill:#F5F5F5;" width="484.57" height="22.677"/>
<polygon style="fill:#FF4B55;" points="512,260.77 27.43,260.77 27.43,223.771 35.785,223.771 35.787,238.093 512,238.093 "/>
<rect x="27.43" y="260.778" style="fill:#F5F5F5;" width="484.57" height="22.677"/>
<rect x="27.43" y="283.448" style="fill:#FF4B55;" width="484.57" height="22.677"/>
<rect x="27.43" y="306.118" style="fill:#F5F5F5;" width="484.57" height="22.677"/>
<rect x="27.43" y="328.798" style="fill:#FF4B55;" width="484.57" height="22.677"/>
<path style="fill:#F5F5F5;" d="M503.56,374.155H35.87c-4.661,0-8.44-3.779-8.44-8.44v-14.237H512v14.237  C512,370.376,508.222,374.155,503.56,374.155z"/>
<path style="fill:#41479B;" d="M319.758,238.093H35.87c-4.661,0-8.44-3.779-8.44-8.44V65.118c0-4.661,3.779-8.44,8.44-8.44h283.888  c4.661,0,8.44,3.779,8.44,8.44v164.535C328.198,234.314,324.419,238.093,319.758,238.093z"/>
<g>
	<path style="fill:#FFE15A;" d="M106.799,147.294c0-31.598,25.647-57.231,57.216-57.231c7.943,0,15.496,1.627,22.375,4.556   c0.893,0.381,1.566-0.862,0.763-1.408c-11.381-7.748-25.299-11.992-40.228-11.217c-32.821,1.706-59.659,28.142-61.781,60.939   c-2.468,38.149,27.719,69.752,65.265,69.752c13.567,0,26.18-4.181,36.654-11.269c0.806-0.545,0.138-1.791-0.759-1.411   c-6.855,2.908-14.379,4.52-22.288,4.52C132.447,204.526,106.799,178.895,106.799,147.294"/>
	<path style="fill:#FFE15A;" d="M237.595,147.294l24.189-9.36c1.196-0.463,0.788-2.248-0.491-2.146l-25.844,2.07l17.761-18.985   c0.876-0.936-0.266-2.366-1.373-1.721l-22.446,13.095l7.748-24.773c0.383-1.224-1.266-2.016-1.983-0.955l-14.532,21.527   l-3.728-25.694c-0.184-1.269-2.015-1.27-2.201-0.001l-2.381,16.258l-0.989,6.88l-0.381,2.557l-14.532-21.508   c-0.717-1.062-2.367-0.267-1.982,0.956l7.776,24.753l-22.446-13.095c-1.107-0.646-2.248,0.785-1.373,1.721l17.76,18.986   l-25.851-2.07c-1.279-0.102-1.687,1.684-0.49,2.146l24.21,9.359l-24.211,9.361c-1.196,0.462-0.789,2.248,0.49,2.146l25.853-2.07   l-17.761,19.033c-0.875,0.937,0.269,2.366,1.375,1.719l22.444-13.141l-7.776,24.754c-0.384,1.224,1.265,2.018,1.982,0.956   l14.532-21.508l0.381,2.619l0.989,6.82l2.382,16.301c0.186,1.269,2.017,1.268,2.202-0.001l3.727-25.737l14.532,21.527   c0.717,1.062,2.366,0.269,1.983-0.955l-7.748-24.774l22.445,13.141c1.107,0.648,2.25-0.782,1.375-1.719l-17.762-19.033l25.847,2.07   c1.279,0.102,1.686-1.683,0.491-2.146L237.595,147.294z"/>
</g>
<path style="fill:#2E3033;" d="M19.122,488.101L19.122,488.101C8.561,488.101,0,479.539,0,468.979V42.864  C0,32.39,8.491,23.899,18.965,23.899h0.157c10.561,0,19.122,8.561,19.122,19.122v425.958  C38.244,479.539,29.683,488.101,19.122,488.101z"/>
<g>
</g>
<g>
</g>
<g>
</g>
<g>
</g>
<g>
</g>
<g>
</g>
<g>
</g>
<g>
</g>
<g>
</g>
<g>
</g>
<g>
</g>
<g>
</g>
<g>
</g>
<g>
</g>
<g>
</g>
</svg>
