<?xml version="1.0" encoding="iso-8859-1"?>
<!-- Generator: Adobe Illustrator 19.0.0, SVG Export Plug-In . SVG Version: 6.00 Build 0)  -->
<svg xmlns="http://www.w3.org/2000/svg" xmlns:xlink="http://www.w3.org/1999/xlink" version="1.1" id="Layer_1" x="0px" y="0px" viewBox="0 0 512 512" style="enable-background:new 0 0 512 512;" xml:space="preserve">
<path style="fill:#5AA587;" d="M512,162.05H27v-97.5c0-4.6,3.8-8.4,8.4-8.4h468.2c4.6,0,8.4,3.8,8.4,8.4V162.05z"/>
<path style="fill:#FFE15A;" d="M503.6,373.95H35.4c-4.6,0-8.4-3.8-8.4-8.4v-97.5h485v97.5C512,370.15,508.2,373.95,503.6,373.95z"/>
<rect x="27" y="162.05" style="fill:#464655;" width="485" height="105.9"/>
<g>
	<rect x="27" y="152.65" style="fill:#F5F5F5;" width="485" height="13.2"/>
	<rect x="27" y="264.25" style="fill:#F5F5F5;" width="485" height="13.2"/>
</g>
<path style="fill:#FF4B55;" d="M30.1,371.95l192.1-152.5c2.8-2.2,2.8-6.5,0-8.7L30.1,58.15c-1.8,1.5-3.1,3.8-3.1,6.3v301  C27,368.15,28.2,370.35,30.1,371.95z"/>
<path style="fill:#FFE15A;" d="M104.5,160.65l12.2,36.7l38.6,0.3c2.2,0,3.1,2.8,1.3,4.1l-31.1,23l11.7,36.8c0.7,2.1-1.7,3.8-3.5,2.5  l-31.4-22.5l-31.4,22.5c-1.8,1.3-4.1-0.4-3.5-2.5l11.7-36.8l-31.1-23c-1.7-1.3-0.8-4,1.3-4.1l38.6-0.3l12.2-36.7  C100.9,158.65,103.8,158.65,104.5,160.65z"/>
<g>
	<path style="fill:#F5F5F5;" d="M100.1,228.75l-3,3H71.8l6.9-25.3l2.8-1.4l-4.5,22.6c0,0.3,0,0.6,0.2,0.8s0.4,0.3,0.7,0.3   L100.1,228.75L100.1,228.75z"/>
	<path style="fill:#F5F5F5;" d="M106.2,232.95c-1.1,0.8-2.4,1.3-3.8,1.3s-2.7-0.5-3.8-1.3l3.8-3.8L106.2,232.95z"/>
	<path style="fill:#F5F5F5;" d="M132.9,231.75h-25.3l-3-3h22.2c0.3,0,0.5-0.1,0.7-0.3s0.2-0.5,0.2-0.8l-4.5-22.6l2.8,1.4   L132.9,231.75z"/>
	<path style="fill:#F5F5F5;" d="M125.7,226.85h-22.4v-23.1c3.7-3.2,13.6-1,17.8,0.3L125.7,226.85z"/>
	<path style="fill:#F5F5F5;" d="M101.4,203.75v23.1H79.1l4.6-22.8C87.8,202.75,97.7,200.65,101.4,203.75z"/>
</g>
<g>
	<path style="fill:#464655;" d="M135,232.45l-7.3-26.9c-0.1-0.2-0.2-0.5-0.5-0.6l-4.9-2.4c0,0,0,0-0.1,0l0,0   c-0.6-0.2-14.1-4.6-19.8-0.3c-5.7-4.3-19.2,0.1-19.8,0.3l0,0h-0.1l-4.9,2.4c-0.2,0.1-0.4,0.3-0.5,0.6l-7.3,26.9   c-0.1,0.3,0,0.6,0.1,0.8c0.2,0.2,0.5,0.4,0.7,0.4h26c1.5,1.5,3.6,2.4,5.8,2.4s4.3-0.9,5.8-2.4h26c0.3,0,0.6-0.1,0.7-0.4   C135,233.05,135.1,232.75,135,232.45z M103.3,203.75c3.7-3.2,13.6-1,17.8,0.3l4.6,22.8h-22.4V203.75L103.3,203.75z M83.6,204.05   c4.2-1.3,14.1-3.5,17.8-0.3v23.1H79.1L83.6,204.05z M71.8,231.75l6.9-25.3l2.8-1.4l-4.5,22.6c0,0.3,0,0.6,0.2,0.8s0.4,0.3,0.7,0.3   h22.2l-3,3L71.8,231.75L71.8,231.75z M102.4,234.25c-1.4,0-2.7-0.5-3.8-1.3l3.8-3.8l3.8,3.8   C105.1,233.75,103.8,234.25,102.4,234.25z M107.6,231.75l-3-3h22.2c0.3,0,0.5-0.1,0.7-0.3s0.2-0.5,0.2-0.8l-4.5-22.6l2.8,1.4   l6.9,25.3L107.6,231.75L107.6,231.75z"/>
	<path style="fill:#464655;" d="M125.5,179.55c-0.9,0.7-2.2,0.5-3-0.3l-1.2-1.2v3l-7.5,7.5h-3l-12.1,12.1h-3l-23.2,23.2   c-0.6,0.6-0.8,1.4-0.5,2.2l1.1,3.3l-4.5,4.5h-3l-9.2,9.2c-0.7,0.7-0.7,1.9,0,2.7l6.1,6.1c0.9,0.9,2.3,0.8,3.1-0.1l13.4-16.3   l1.5-4.5l3-3l6,9.1l4.5-4.5l-4.8-7.2l1.2-1.2c1.2-1.2,1.2-3.1,0-4.2l-0.9-0.9l0.8-0.8c6.4,5.5,14.2,6.9,21.5,3.8l-2.5-5.9   c-6.1,2.6-11.1,0.4-14.5-2.4l12.8-12.8l-0.5-2.5l3.5-3.5h3l22.6-22.6L125.5,179.55z"/>
	<path style="fill:#464655;" d="M80.5,176.55l-3,3c-0.8,0.8-0.8,2.2,0,3l0.5,0.5l-5,1l-13.6,13.6l7.5,7.5l13.6-13.6l1-5l2,2l1.5-1.5   l50.2,50.2l3-3L88,184.05l1.5-1.5l-6-6C82.7,175.75,81.4,175.75,80.5,176.55z"/>
</g>
<path style="fill:#2E3033;" d="M18.7,483.45L18.7,483.45c-10.3,0-18.7-8.3-18.7-18.7V47.15c0-10.3,8.3-18.6,18.6-18.6h0.2  c10.3,0,18.7,8.4,18.7,18.7v417.4C37.5,475.15,29.1,483.45,18.7,483.45z"/>
<g>
</g>
<g>
</g>
<g>
</g>
<g>
</g>
<g>
</g>
<g>
</g>
<g>
</g>
<g>
</g>
<g>
</g>
<g>
</g>
<g>
</g>
<g>
</g>
<g>
</g>
<g>
</g>
<g>
</g>
</svg>
