<?xml version="1.0" encoding="iso-8859-1"?>
<!-- Generator: Adobe Illustrator 19.0.0, SVG Export Plug-In . SVG Version: 6.00 Build 0)  -->
<svg xmlns="http://www.w3.org/2000/svg" xmlns:xlink="http://www.w3.org/1999/xlink" version="1.1" id="Layer_1" x="0px" y="0px" viewBox="0 0 512 512" style="enable-background:new 0 0 512 512;" xml:space="preserve">
<path style="fill:#41479B;" d="M31.777,304.089V72.257c0-4.573,3.708-8.28,8.28-8.28h356.027L31.777,304.089z"/>
<path style="fill:#73AF00;" d="M512,138.495v231.831c0,4.573-3.707,8.28-8.28,8.28H147.693L512,138.495z"/>
<path style="fill:#F5F5F5;" d="M512,143.163V72.257c0-4.572-3.707-8.28-8.28-8.28H391.138L31.777,299.421v70.906  c0,4.572,3.706,8.28,8.28,8.28H152.64L512,143.163z"/>
<path style="fill:#FF4B55;" d="M512,113.474V72.257c0-4.572-3.707-8.28-8.28-8.28h-67.266L31.777,329.11v41.216  c0,4.572,3.706,8.28,8.28,8.28h67.266L512,113.474z"/>
<g>
	<path style="fill:#FFE15A;" d="M116.386,118.019c8.151,0,15.53,3.302,20.873,8.642l2.93-20.34l-16.165,12.72l-7.639-19.098   l-7.639,19.098l-16.165-12.72l2.93,20.34C100.856,121.321,108.234,118.019,116.386,118.019z"/>
	<path style="fill:#FFE15A;" d="M95.496,168.424c-5.34-5.344-8.642-12.723-8.642-20.873c0-8.151,3.302-15.53,8.642-20.873   l-20.34-2.93l12.72,16.165l-19.098,7.639l19.098,7.639l-12.72,16.165L95.496,168.424z"/>
	<path style="fill:#FFE15A;" d="M163.994,147.551l-19.098-7.639l12.72-16.165l-20.34,2.93c5.34,5.343,8.642,12.723,8.642,20.873   c0,8.151-3.302,15.53-8.642,20.873l20.34,2.93l-12.72-16.165L163.994,147.551z"/>
	<path style="fill:#FFE15A;" d="M116.386,177.083c-8.151,0-15.53-3.302-20.873-8.642l-2.93,20.34l16.165-12.72l7.639,19.098   l7.639-19.098l16.165,12.72l-2.93-20.34C131.916,173.781,124.536,177.083,116.386,177.083z"/>
	<path style="fill:#FFE15A;" d="M140.376,145.08c1.518,15.259-11.203,27.98-26.462,26.462   c-11.279-1.122-20.397-10.241-21.519-21.519c-1.518-15.259,11.203-27.98,26.462-26.462   C130.136,124.682,139.254,133.801,140.376,145.08z"/>
</g>
<path style="fill:#2E3033;" d="M18.881,485.182L18.881,485.182C8.454,485.182,0,476.729,0,466.301V45.545  c0-10.342,8.384-18.727,18.726-18.727h0.155c10.428,0,18.881,8.454,18.881,18.881V466.3  C37.763,476.729,29.309,485.182,18.881,485.182z"/>
<g>
</g>
<g>
</g>
<g>
</g>
<g>
</g>
<g>
</g>
<g>
</g>
<g>
</g>
<g>
</g>
<g>
</g>
<g>
</g>
<g>
</g>
<g>
</g>
<g>
</g>
<g>
</g>
<g>
</g>
</svg>
