<?xml version="1.0" encoding="iso-8859-1"?>
<!-- Generator: Adobe Illustrator 19.0.0, SVG Export Plug-In . SVG Version: 6.00 Build 0)  -->
<svg xmlns="http://www.w3.org/2000/svg" xmlns:xlink="http://www.w3.org/1999/xlink" version="1.1" id="Layer_1" x="0px" y="0px" viewBox="0 0 511.902 511.902" style="enable-background:new 0 0 511.902 511.902;" xml:space="preserve">
<path style="fill:#41479B;" d="M503.7,56.101H35.3c-4.6,0-8.3,3.7-8.3,8.3v301c0,4.6,3.7,8.3,8.3,8.3h468.3c4.6,0,8.3-3.7,8.3-8.3  v-301C512,59.901,508.3,56.101,503.7,56.101z"/>
<g>
	<path style="fill:#F5F5F5;" d="M361.9,213.001l-24-5.3c-3.5-32.1-29-57.6-61.1-61.1l-5.3-24c-0.4-1.9-3.7-1.9-4.1,0l-5.3,23.9   c-32.2,3.5-57.6,29-61.1,61.1l-24,5.3c-1,0.2-1.7,1.1-1.7,2.1s0.7,1.9,1.7,2.1l24,5.3c3.5,32.2,29,57.6,61.1,61.1l5.3,23.9   c0.2,1,1.1,1.7,2.1,1.7s1.9-0.7,2.1-1.7l5.3-24c32.1-3.5,57.6-29,61.1-61.1l24-5.3c1-0.2,1.7-1.1,1.7-2.1   C363.6,214.101,362.9,213.201,361.9,213.001z M333.7,206.801l-45.7-10.3l-10.1-45.7C306.9,154.601,329.9,177.601,333.7,206.801z    M261.2,150.801l-10.2,45.7l-45.8,10.1C209.1,177.601,232.1,154.601,261.2,150.801z M252.1,200.601l14.4,14.4h-79.3L252.1,200.601z    M205.3,223.401l45.7,10.1l10.1,45.8C232.1,275.501,209.1,252.501,205.3,223.401z M269.5,297.401l-14.4-65l14.4-14.4V297.401z    M269.5,212.101v-79.4l14.4,65L269.5,212.101z M277.8,279.201l10.1-45.7l45.8-10.1C329.9,252.401,306.9,275.401,277.8,279.201z    M286.9,229.501l-14.5-14.5h79.4L286.9,229.501z"/>
	<path style="fill:#F5F5F5;" d="M160.8,217.201H43.7c-1.2,0-2.1-1-2.1-2.1s1-2.1,2.1-2.1h117.1c1.2,0,2.1,1,2.1,2.1   S161.9,217.201,160.8,217.201z"/>
	<path style="fill:#F5F5F5;" d="M495.2,217.201h-117c-1.2,0-2.1-1-2.1-2.1s1-2.1,2.1-2.1h117.1c1.2,0,2.1,1,2.1,2.1   C497.4,216.201,496.4,217.201,495.2,217.201z"/>
	<path style="fill:#F5F5F5;" d="M269.5,108.401c-1.2,0-2.1-1-2.1-2.1v-33.4c0-1.2,1-2.1,2.1-2.1s2.1,1,2.1,2.1v33.4   C271.6,107.501,270.6,108.401,269.5,108.401z"/>
	<path style="fill:#F5F5F5;" d="M269.5,359.301c-1.2,0-2.1-1-2.1-2.1v-33.4c0-1.2,1-2.1,2.1-2.1s2.1,1,2.1,2.1v33.4   C271.6,358.301,270.6,359.301,269.5,359.301z"/>
</g>
<path style="fill:#2E3033;" d="M18.8,483.401L18.8,483.401c-10.4,0-18.8-8.4-18.8-18.8v-417.5c0-10.2,8.3-18.6,18.6-18.6h0.1  c10.4,0,18.8,8.4,18.8,18.8v417.4C37.5,475.001,29.1,483.401,18.8,483.401z"/>
<g>
</g>
<g>
</g>
<g>
</g>
<g>
</g>
<g>
</g>
<g>
</g>
<g>
</g>
<g>
</g>
<g>
</g>
<g>
</g>
<g>
</g>
<g>
</g>
<g>
</g>
<g>
</g>
<g>
</g>
</svg>
