<?xml version="1.0" encoding="iso-8859-1"?>
<!-- Generator: Adobe Illustrator 19.0.0, SVG Export Plug-In . SVG Version: 6.00 Build 0)  -->
<svg xmlns="http://www.w3.org/2000/svg" xmlns:xlink="http://www.w3.org/1999/xlink" version="1.1" id="Layer_1" x="0px" y="0px" viewBox="0 0 512 512" style="enable-background:new 0 0 512 512;" xml:space="preserve">
<path style="fill:#73AF00;" d="M27,268.05h485v97.5c0,4.6-3.8,8.4-8.4,8.4H35.4c-4.6,0-8.4-3.8-8.4-8.4  C27,365.55,27,268.05,27,268.05z"/>
<path style="fill:#FF9B55;" d="M35.4,56.15h468.2c4.6,0,8.4,3.8,8.4,8.4v97.5H27v-97.5C27,59.95,30.8,56.15,35.4,56.15z"/>
<rect x="27" y="162.05" style="fill:#F5F5F5;" width="485" height="105.9"/>
<path style="fill:#FF9B55;" d="M311.3,212.85c1.3,24.8-19.1,45.2-43.9,43.9c-21.2-1.1-38.5-18.3-39.6-39.6  c-1.3-24.8,19.1-45.2,43.9-43.9C292.9,174.35,310.2,191.65,311.3,212.85z"/>
<path style="fill:#2E3033;" d="M18.7,483.45L18.7,483.45c-10.3,0-18.7-8.3-18.7-18.7V47.15c0-10.3,8.3-18.6,18.6-18.6h0.2  c10.3,0,18.7,8.4,18.7,18.7v417.4C37.5,475.15,29.1,483.45,18.7,483.45z"/>
<g>
</g>
<g>
</g>
<g>
</g>
<g>
</g>
<g>
</g>
<g>
</g>
<g>
</g>
<g>
</g>
<g>
</g>
<g>
</g>
<g>
</g>
<g>
</g>
<g>
</g>
<g>
</g>
<g>
</g>
</svg>
