<?xml version="1.0" encoding="iso-8859-1"?>
<!-- Generator: Adobe Illustrator 19.0.0, SVG Export Plug-In . SVG Version: 6.00 Build 0)  -->
<svg xmlns="http://www.w3.org/2000/svg" xmlns:xlink="http://www.w3.org/1999/xlink" version="1.1" id="Layer_1" x="0px" y="0px" viewBox="0 0 512 512" style="enable-background:new 0 0 512 512;" xml:space="preserve">
<path style="fill:#73AF00;" d="M188.7,373.85H35.4c-4.6,0-8.4-3.7-8.4-8.4v-301c0-4.6,3.7-8.4,8.4-8.4h153.3L188.7,373.85  L188.7,373.85z"/>
<rect x="188.7" y="56.05" style="fill:#F5F5F5;" width="161.7" height="317.8"/>
<g>
	<path style="fill:#73AF00;" d="M503.6,373.85H350.3V56.05h153.3c4.6,0,8.4,3.7,8.4,8.4v301C512,370.05,508.3,373.85,503.6,373.85z"/>
	<path style="fill:#73AF00;" d="M325.3,296.95l-26-151.4c-1-5.8-3-11.3-6.1-16.4l-23.8-39.7l-23.8,39.7c-3,5-5.1,10.6-6.1,16.4   l-26,151.4c-0.5,2.9,1.7,5.5,4.7,5.5H260v37.9h19v-37.9h41.7C323.6,302.55,325.8,299.85,325.3,296.95z"/>
</g>
<path style="fill:#2E3033;" d="M19.2,489.05L19.2,489.05c-10.6,0-19.2-8.6-19.2-19.2V41.95c0-10.5,8.5-19,19-19h0.2  c10.6,0,19.2,8.6,19.2,19.2v427.8C38.4,480.45,29.8,489.05,19.2,489.05z"/>
<g>
</g>
<g>
</g>
<g>
</g>
<g>
</g>
<g>
</g>
<g>
</g>
<g>
</g>
<g>
</g>
<g>
</g>
<g>
</g>
<g>
</g>
<g>
</g>
<g>
</g>
<g>
</g>
<g>
</g>
</svg>
