<?xml version="1.0" encoding="iso-8859-1"?>
<!-- Generator: Adobe Illustrator 19.0.0, SVG Export Plug-In . SVG Version: 6.00 Build 0)  -->
<svg xmlns="http://www.w3.org/2000/svg" xmlns:xlink="http://www.w3.org/1999/xlink" version="1.1" id="Layer_1" x="0px" y="0px" viewBox="0 0 512 512" style="enable-background:new 0 0 512 512;" xml:space="preserve">
<g>
	<path style="fill:#41479B;" d="M512,162.357H26.68V64.821c0-4.668,3.785-8.453,8.453-8.453h468.414   c4.668,0,8.453,3.785,8.453,8.453V162.357z"/>
	<path style="fill:#41479B;" d="M503.547,374.337H35.133c-4.668,0-8.453-3.785-8.453-8.453v-97.537H512v97.536   C512,370.552,508.216,374.337,503.547,374.337z"/>
</g>
<rect x="26.68" y="162.357" style="fill:#F5F5F5;" width="485.32" height="105.99"/>
<polygon style="fill:#AFEBFF;" points="269.34,184.714 243.816,222.251 294.864,222.251 "/>
<polygon style="fill:#557DE6;" points="243.816,222.251 227.3,246.272 311.38,246.272 294.864,222.251 "/>
<g>
	<path style="fill:#73AF00;" d="M275.872,220.152c0.101-0.209,0.208-0.415,0.3-0.63   C276.081,219.736,275.974,219.943,275.872,220.152z"/>
	<path style="fill:#73AF00;" d="M276.575,218.421c0.062-0.188,0.138-0.372,0.192-0.563   C276.713,218.049,276.637,218.232,276.575,218.421z"/>
	<path style="fill:#73AF00;" d="M275.004,221.727c0.129-0.206,0.257-0.41,0.376-0.621   C275.26,221.318,275.131,221.522,275.004,221.727z"/>
	<path style="fill:#73AF00;" d="M278.906,214.734c-0.228,0-0.447,0.037-0.649,0.106   C278.458,214.771,278.678,214.734,278.906,214.734L278.906,214.734z"/>
	<path style="fill:#73AF00;" d="M277.711,215.13c-0.318,0.247-0.535,0.594-0.584,0.989v0.002v-0.002   C277.175,215.725,277.392,215.378,277.711,215.13z"/>
	<path style="fill:#73AF00;" d="M276.936,226.333c0.358,0.339,0.712,0.663,1.068,0.97c1.905-1.649,3.894-3.746,5.29-6.197   c-0.1,0.175-0.208,0.346-0.314,0.518c-1.303-2.396-1.991-4.47-2.325-5.698c-0.19-0.703-0.917-1.19-1.746-1.192   C279.227,217.535,279.913,222.68,276.936,226.333z"/>
	<path style="fill:#73AF00;" d="M284.488,218.421c0.062-0.188,0.138-0.372,0.192-0.563   C284.626,218.049,284.55,218.232,284.488,218.421z"/>
	<path style="fill:#73AF00;" d="M285.623,215.13c-0.318,0.247-0.535,0.594-0.584,0.989v0.002v-0.002   C285.088,215.725,285.305,215.378,285.623,215.13z"/>
	<path style="fill:#73AF00;" d="M283.785,220.152c0.101-0.209,0.208-0.415,0.3-0.63   C283.995,219.736,283.887,219.943,283.785,220.152z"/>
	<path style="fill:#73AF00;" d="M299.994,228.255c-2.894,0-5.633-1.388-7.305-3.751c-2.518-3.559-3.66-6.876-4.122-8.578   c-0.191-0.704-0.918-1.192-1.749-1.192l0.003,0.001c0.38,3.342,1.287,10.024-4.143,13.521h-3.536   c-0.146-0.115-0.287-0.225-0.435-0.347c0.003,0.003,0.006,0.005,0.01,0.008c-0.989,1.291-2.969,1.654-4.503,0.863   c-6.425-3.31-5.427-10.53-5.027-14.046c-0.829,0.001-1.555,0.489-1.746,1.192c-0.334,1.229-1.022,3.302-2.325,5.698   c-0.106-0.172-0.215-0.342-0.315-0.518c1.57,2.759,3.899,5.087,6.003,6.811c-0.989,1.291-2.968,1.654-4.503,0.863   c-6.425-3.31-5.427-10.53-5.027-14.046c-0.829,0.001-1.555,0.489-1.746,1.192c-0.334,1.229-1.022,3.302-2.325,5.698   c-0.106-0.172-0.214-0.342-0.315-0.518c1.57,2.759,3.899,5.087,6.003,6.811c-0.989,1.291-2.969,1.654-4.503,0.863   c-6.425-3.31-5.427-10.53-5.027-14.046l0.003-0.001c-0.831,0-1.559,0.489-1.749,1.192c-0.462,1.702-1.604,5.019-4.122,8.578   c-1.672,2.363-4.41,3.751-7.305,3.751h-2.377v3.003h61.559h1.501v-3.003h-0.877L299.994,228.255L299.994,228.255z"/>
	<path style="fill:#73AF00;" d="M271.922,219.521c0.092,0.214,0.199,0.421,0.3,0.63   C272.121,219.943,272.013,219.736,271.922,219.521z"/>
	<path style="fill:#73AF00;" d="M271.329,217.857c0.054,0.191,0.13,0.375,0.192,0.563   C271.458,218.232,271.381,218.049,271.329,217.857z"/>
	<path style="fill:#73AF00;" d="M270.969,216.121v-0.002c-0.05-0.394-0.266-0.741-0.584-0.989c0.318,0.247,0.535,0.594,0.584,0.989   V216.121z"/>
	<path style="fill:#73AF00;" d="M272.715,221.106c0.12,0.211,0.248,0.415,0.377,0.621   C272.963,221.522,272.834,221.318,272.715,221.106z"/>
	<path style="fill:#73AF00;" d="M274.094,223.188c-0.015-0.02-0.03-0.041-0.045-0.061c0.129-0.171,0.253-0.344,0.376-0.52   c-0.123,0.175-0.25,0.347-0.378,0.518c-0.128-0.171-0.255-0.342-0.378-0.518C273.809,222.802,273.949,222.996,274.094,223.188z"/>
	<path style="fill:#73AF00;" d="M274.754,224.018c0.147,0.175,0.292,0.35,0.442,0.52C275.046,224.369,274.9,224.195,274.754,224.018   z"/>
	<path style="fill:#73AF00;" d="M276.357,225.781c-0.139-0.139-0.277-0.287-0.415-0.431   C276.081,225.492,276.217,225.639,276.357,225.781z"/>
</g>
<path style="fill:#FFE15A;" d="M286.821,214.734l-0.003-0.001c-0.456,0-0.877,0.149-1.195,0.396s-0.535,0.594-0.584,0.989v0.002  c-0.074,0.592-0.2,1.17-0.359,1.737c-0.054,0.191-0.13,0.375-0.192,0.563c-0.123,0.372-0.248,0.742-0.402,1.101  c-0.092,0.214-0.199,0.421-0.3,0.63c-0.156,0.322-0.315,0.643-0.492,0.954c-1.396,2.451-3.383,4.548-5.29,6.197  c-0.356-0.307-0.71-0.631-1.068-0.97c2.977-3.653,2.291-8.799,1.973-11.599l-0.003-0.001c-0.228,0-0.447,0.037-0.649,0.106  c-0.202,0.068-0.387,0.167-0.546,0.291c-0.318,0.247-0.535,0.594-0.584,0.989v0.002c-0.074,0.592-0.2,1.17-0.359,1.737  c-0.054,0.191-0.13,0.375-0.192,0.563c-0.123,0.372-0.248,0.742-0.402,1.101c-0.092,0.214-0.199,0.421-0.3,0.63  c-0.156,0.322-0.315,0.643-0.492,0.954c-0.12,0.211-0.248,0.415-0.376,0.621c-0.186,0.298-0.376,0.593-0.578,0.879  c-0.124,0.175-0.247,0.349-0.376,0.52c-0.129-0.171-0.256-0.343-0.38-0.52c-0.202-0.286-0.392-0.581-0.578-0.879  c-0.129-0.206-0.257-0.41-0.377-0.621c-0.178-0.312-0.336-0.633-0.492-0.954c-0.101-0.209-0.208-0.415-0.3-0.63  c-0.154-0.359-0.279-0.729-0.402-1.101c-0.062-0.188-0.138-0.372-0.192-0.563c-0.16-0.567-0.284-1.145-0.359-1.737v-0.002  c-0.05-0.395-0.266-0.741-0.584-0.989c-0.318-0.247-0.739-0.396-1.195-0.396l-0.003,0.001c-0.399,3.515-1.398,10.735,5.027,14.046  c1.083,0.558,2.384,0.537,3.403,0.023c0.651-0.329,1.35-0.548,2.079-0.548h2.982C288.109,224.759,287.201,218.076,286.821,214.734z"/>
<g>
	<path style="fill:#73AF00;" d="M263.415,217.857c0.054,0.191,0.13,0.375,0.192,0.563   C263.544,218.232,263.469,218.049,263.415,217.857z"/>
	<path style="fill:#73AF00;" d="M263.056,216.121v-0.002c-0.05-0.394-0.266-0.741-0.584-0.989c0.318,0.247,0.536,0.594,0.584,0.989   V216.121z"/>
	<path style="fill:#73AF00;" d="M264.009,219.521c0.092,0.214,0.199,0.421,0.3,0.63   C264.208,219.943,264.101,219.736,264.009,219.521z"/>
	<path style="fill:#73AF00;" d="M261.277,214.734L261.277,214.734c0.228,0,0.447,0.037,0.649,0.106   C261.724,214.771,261.505,214.734,261.277,214.734z"/>
</g>
<path style="fill:#FFE15A;" d="M266.301,228.781c1.535,0.79,3.514,0.429,4.503-0.863c-2.104-1.724-4.433-4.052-6.003-6.811  c-0.178-0.312-0.336-0.633-0.492-0.954c-0.101-0.209-0.208-0.415-0.3-0.63c-0.153-0.359-0.279-0.729-0.402-1.101  c-0.062-0.188-0.138-0.372-0.192-0.563c-0.158-0.567-0.284-1.145-0.359-1.737v-0.002c-0.05-0.395-0.266-0.741-0.584-0.989  c-0.16-0.124-0.344-0.223-0.546-0.291s-0.421-0.106-0.649-0.106l0,0l-0.003,0.001l0,0  C260.873,218.249,259.875,225.469,266.301,228.781z"/>
<g>
	<path style="fill:#73AF00;" d="M255.502,217.857c0.054,0.191,0.13,0.375,0.192,0.563   C255.632,218.232,255.556,218.049,255.502,217.857z"/>
	<path style="fill:#73AF00;" d="M256.096,219.521c0.092,0.214,0.199,0.421,0.3,0.63   C256.295,219.943,256.188,219.736,256.096,219.521z"/>
	<path style="fill:#73AF00;" d="M255.143,216.121v-0.002c-0.05-0.394-0.266-0.741-0.584-0.989c0.318,0.247,0.536,0.594,0.584,0.989   V216.121z"/>
</g>
<path style="fill:#FFE15A;" d="M258.388,228.781c1.535,0.79,3.514,0.429,4.503-0.863c-2.105-1.724-4.433-4.052-6.003-6.811  c-0.178-0.312-0.336-0.633-0.492-0.954c-0.101-0.209-0.208-0.415-0.3-0.63c-0.153-0.359-0.279-0.729-0.402-1.101  c-0.062-0.188-0.138-0.372-0.192-0.563c-0.158-0.567-0.284-1.145-0.359-1.737v-0.002c-0.05-0.395-0.266-0.741-0.584-0.989  c-0.318-0.247-0.739-0.396-1.195-0.396l-0.003,0.001C252.96,218.249,251.962,225.469,258.388,228.781z"/>
<path style="fill:#41479B;" d="M256.691,202.796c-0.125,0.479-0.249,0.957-0.374,1.437c4.099-1.229,8.621-1.967,13.53-1.967  c4.908,0.002,9.432,0.735,13.53,1.967c-0.125-0.48-0.249-0.958-0.374-1.437c-4.077-1.052-8.466-1.657-13.156-1.655  C265.157,201.139,260.769,201.742,256.691,202.796z"/>
<path style="fill:#5AA0E6;" d="M256.854,202.171c-0.125,0.479-0.249,0.957-0.374,1.437c4.053-1.232,8.521-1.972,13.368-1.974  c4.847,0.002,9.314,0.741,13.368,1.974c-0.125-0.48-0.249-0.958-0.374-1.437c-4.031-1.06-8.363-1.66-12.992-1.661  C265.216,200.51,260.885,201.113,256.854,202.171z"/>
<path style="fill:#9BC800;" d="M257.004,201.593c-0.125,0.479-0.249,0.957-0.374,1.437c4.013-1.236,8.429-1.981,13.217-1.979  c4.79,0,9.204,0.743,13.216,1.979c-0.125-0.479-0.249-0.958-0.374-1.437c-3.988-1.059-8.268-1.666-12.842-1.667  C265.272,199.925,260.994,200.535,257.004,201.593z"/>
<path style="fill:#FFE14E;" d="M257.176,200.934c-0.125,0.479-0.249,0.958-0.375,1.437c3.967-1.24,8.322-1.986,13.045-1.986  c4.723,0.002,9.079,0.745,13.045,1.986c-0.125-0.479-0.249-0.958-0.375-1.437c-3.941-1.064-8.16-1.673-12.67-1.674  C265.336,199.26,261.116,199.869,257.176,200.934z"/>
<path style="fill:#FFB14E;" d="M257.345,200.285c-0.125,0.479-0.249,0.957-0.374,1.437c3.92-1.244,8.216-1.992,12.876-1.993  c4.659,0.003,8.956,0.746,12.876,1.993c-0.125-0.479-0.249-0.958-0.374-1.437c-3.893-1.066-8.054-1.679-12.501-1.68  C265.4,198.606,261.238,199.217,257.345,200.285z"/>
<path style="fill:#FF4B55;" d="M257.417,200.008c-0.088,0.336-0.174,0.671-0.262,1.006c3.869-1.246,8.103-2,12.691-2  c4.589-0.002,8.823,0.752,12.691,2c-0.088-0.336-0.174-0.671-0.262-1.006c-3.872-1.068-8.009-1.682-12.429-1.683  C265.426,198.322,261.29,198.938,257.417,200.008z"/>
<path style="fill:#FFE15A;" d="M311.38,247.73H227.3c-0.555,0-1.063-0.305-1.324-0.791c-0.261-0.49-0.231-1.082,0.075-1.543  l42.04-63.061c0.557-0.833,1.941-0.833,2.499,0l42.04,63.061c0.306,0.461,0.336,1.052,0.075,1.543  C312.443,247.425,311.935,247.73,311.38,247.73z M230.105,244.727h78.471l-39.235-58.853L230.105,244.727z"/>
<path style="fill:#FF4B55;" d="M272.212,208.654c0-1.321-1.339-3.329-3.482-3.329c-1.252,0-2.268,0.765-2.268,1.71  c0,0.471,0.254,0.898,0.663,1.207c-0.002,0.017-0.003,0.035-0.004,0.053c-0.511,0.314-0.845,0.785-0.845,1.322  c0,0.9,0.928,1.631,2.101,1.697l0.965,1.93l0.871-1.742C271.355,211.206,272.212,210.046,272.212,208.654z"/>
<path style="fill:#2E3033;" d="M19.152,488.46L19.152,488.46C8.575,488.46,0,479.884,0,469.307V42.534  C0,32.044,8.504,23.54,18.994,23.54h0.157c10.577,0,19.152,8.575,19.152,19.152V469.31C38.303,479.884,29.728,488.46,19.152,488.46z  "/>
<g>
</g>
<g>
</g>
<g>
</g>
<g>
</g>
<g>
</g>
<g>
</g>
<g>
</g>
<g>
</g>
<g>
</g>
<g>
</g>
<g>
</g>
<g>
</g>
<g>
</g>
<g>
</g>
<g>
</g>
</svg>
