<?xml version="1.0" encoding="iso-8859-1"?>
<!-- Generator: Adobe Illustrator 19.0.0, SVG Export Plug-In . SVG Version: 6.00 Build 0)  -->
<svg xmlns="http://www.w3.org/2000/svg" xmlns:xlink="http://www.w3.org/1999/xlink" version="1.1" id="Layer_1" x="0px" y="0px" viewBox="0 0 512.001 512.001" style="enable-background:new 0 0 512.001 512.001;" xml:space="preserve">
<path style="fill:#F5F5F5;" d="M503.602,369.367H36.488c-4.638,0-8.398-3.76-8.398-8.398V60.719c0-4.638,3.76-8.398,8.398-8.398  h467.115c4.638,0,8.398,3.76,8.398,8.398v300.249C512,365.607,508.241,369.367,503.602,369.367z"/>
<g>
	<rect x="28.09" y="85.69" style="fill:#FF4B55;" width="483.91" height="33.373"/>
	<rect x="28.09" y="302.62" style="fill:#FF4B55;" width="483.91" height="33.373"/>
	<path style="fill:#FF4B55;" d="M262.959,185.168l11.744,15.364l18.339-6.139c1.026-0.343,1.898,0.817,1.284,1.707l-10.983,15.918   l11.505,15.545c0.643,0.869-0.19,2.057-1.226,1.748l-18.532-5.527l-11.228,15.746c-0.628,0.881-2.016,0.455-2.042-0.626   l-0.471-19.333l-18.445-5.813c-1.031-0.325-1.055-1.776-0.036-2.135l18.241-6.422l-0.171-19.338   C260.93,184.781,262.303,184.309,262.959,185.168z"/>
	<path style="fill:#FF4B55;" d="M202.457,270.951c-33.17,0-60.078-26.907-60.078-60.107c0-33.139,26.908-60.106,60.078-60.106   c12.341,0,23.722,3.796,33.206,10.219c1.453,0.984,3.11-0.925,1.894-2.189c-14.175-14.737-34.236-23.727-56.48-22.968   c-38.215,1.304-69.852,31.943-72.293,70.103c-2.797,43.708,31.812,80.032,74.902,80.032c21.226,0,40.302-8.873,53.924-23.062   c1.204-1.253-0.458-3.133-1.896-2.158C226.218,267.151,214.819,270.951,202.457,270.951z"/>
</g>
<path style="fill:#2E3033;" d="M19.026,486.943L19.026,486.943C8.519,486.943,0,478.425,0,467.917V43.929  c0-10.422,8.448-18.871,18.87-18.871h0.156c10.508,0,19.026,8.519,19.026,19.026v423.831  C38.053,478.425,29.534,486.943,19.026,486.943z"/>
<g>
</g>
<g>
</g>
<g>
</g>
<g>
</g>
<g>
</g>
<g>
</g>
<g>
</g>
<g>
</g>
<g>
</g>
<g>
</g>
<g>
</g>
<g>
</g>
<g>
</g>
<g>
</g>
<g>
</g>
</svg>
