<?xml version="1.0" encoding="iso-8859-1"?>
<!-- Generator: Adobe Illustrator 19.0.0, SVG Export Plug-In . SVG Version: 6.00 Build 0)  -->
<svg xmlns="http://www.w3.org/2000/svg" xmlns:xlink="http://www.w3.org/1999/xlink" version="1.1" id="Layer_1" x="0px" y="0px" viewBox="0 0 512 512" style="enable-background:new 0 0 512 512;" xml:space="preserve">
<path style="fill:#F5F5F5;" d="M503.547,374.338H35.133c-4.668,0-8.453-3.785-8.453-8.453V64.822c0-4.668,3.785-8.453,8.453-8.453  h468.414c4.668,0,8.453,3.785,8.453,8.453v301.062C512,370.553,508.216,374.338,503.547,374.338z"/>
<path style="fill:#41479B;" d="M37.558,77.791l173.357,126.683H101.7H77.337l16.263,18.14L219.876,363.46H37.558V77.791   M29.601,58.503c-1.756,1.534-2.921,3.718-2.921,6.233V365.97c0,4.621,3.746,8.368,8.368,8.368h209.19L101.7,215.354h142.537  L29.601,58.503L29.601,58.503z"/>
<polyline style="fill:#FF4B55;" points="37.558,77.791 210.915,204.475 101.7,204.475 77.337,204.475 93.6,222.615 219.876,363.459   37.558,363.459 37.558,77.791 "/>
<g>
	<path style="fill:#F5F5F5;" d="M90.516,253.646l6.699,13.823l12.712-8.622c0.561-0.38,1.313,0.054,1.265,0.73l-1.111,15.32   l15.32-1.111c0.676-0.049,1.111,0.704,0.73,1.265l-8.621,12.712l13.823,6.699c0.61,0.296,0.61,1.164,0,1.46l-13.823,6.699   l8.621,12.712c0.38,0.561-0.054,1.313-0.73,1.265l-15.32-1.111l1.111,15.32c0.049,0.676-0.704,1.111-1.265,0.73l-12.712-8.622   l-6.699,13.823c-0.296,0.61-1.164,0.61-1.46,0l-6.699-13.823l-12.712,8.622c-0.561,0.38-1.313-0.054-1.265-0.73l1.111-15.32   L54.17,316.6c-0.676,0.049-1.111-0.704-0.73-1.265l8.621-12.712l-13.823-6.699c-0.61-0.296-0.61-1.164,0-1.46l13.823-6.699   l-8.621-12.712c-0.38-0.561,0.054-1.313,0.73-1.265l15.32,1.111l-1.111-15.32c-0.049-0.676,0.704-1.111,1.265-0.73l12.712,8.622   l6.699-13.823C89.351,253.037,90.22,253.037,90.516,253.646z"/>
	<path style="fill:#F5F5F5;" d="M107.908,173.704l-5.816-3.973l5.119-5.366l-7.296-1.331l2.495-6.983l-7.206,1.752l-0.561-7.394   l-5.871,4.531l-3.521-6.527l-3.521,6.527l-5.871-4.531l-0.561,7.394l-7.206-1.752l2.495,6.983l-7.295,1.331l5.119,5.366   l-5.816,3.973c-7.337-3.426-13.788-8.431-18.866-14.623c3.411,19.869,20.678,35.004,41.522,35.004s38.111-15.136,41.522-35.004   C121.697,165.272,115.245,170.278,107.908,173.704z"/>
</g>
<path style="fill:#2E3033;" d="M19.152,488.46L19.152,488.46C8.575,488.46,0,479.885,0,469.308V42.534  C0,32.044,8.504,23.54,18.994,23.54h0.157c10.577,0,19.152,8.575,19.152,19.152v426.617C38.303,479.885,29.728,488.46,19.152,488.46  z"/>
<g>
</g>
<g>
</g>
<g>
</g>
<g>
</g>
<g>
</g>
<g>
</g>
<g>
</g>
<g>
</g>
<g>
</g>
<g>
</g>
<g>
</g>
<g>
</g>
<g>
</g>
<g>
</g>
<g>
</g>
</svg>
