<?xml version="1.0" encoding="iso-8859-1"?>
<!-- Generator: Adobe Illustrator 19.0.0, SVG Export Plug-In . SVG Version: 6.00 Build 0)  -->
<svg xmlns="http://www.w3.org/2000/svg" xmlns:xlink="http://www.w3.org/1999/xlink" version="1.1" id="Layer_1" x="0px" y="0px" viewBox="0 0 512 512" style="enable-background:new 0 0 512 512;" xml:space="preserve">
<path style="fill:#41479B;" d="M503.5,373.9H35.4c-4.6,0-8.4-3.7-8.4-8.4v-301c0-4.6,3.7-8.4,8.4-8.4h468.2c4.6,0,8.4,3.7,8.4,8.4  v300.9C511.9,370.1,508.2,373.9,503.5,373.9z"/>
<rect x="27" y="198.3" style="fill:#FFE15A;" width="484.9" height="33.4"/>
<polygon style="fill:#F5F5F5;" points="139.9,265.2 144.7,284.6 158.6,270.2 153.1,289.5 172.4,284 158,297.9 177.4,302.8   158,307.7 172.4,321.6 153.1,316.1 158.6,335.4 144.7,321 139.9,340.4 135,321 121.1,335.4 126.6,316.1 107.3,321.6 121.7,307.7   102.3,302.8 121.7,297.9 107.3,284 126.6,289.5 121.1,270.2 135,284.6 "/>
<path style="fill:#2E3033;" d="M18.9,485.2L18.9,485.2C8.5,485.2,0,476.7,0,466.3V45.5c0-10.3,8.4-18.7,18.7-18.7h0.2  c10.4,0,18.9,8.5,18.9,18.9v420.5C37.8,476.7,29.3,485.2,18.9,485.2z"/>
<g>
</g>
<g>
</g>
<g>
</g>
<g>
</g>
<g>
</g>
<g>
</g>
<g>
</g>
<g>
</g>
<g>
</g>
<g>
</g>
<g>
</g>
<g>
</g>
<g>
</g>
<g>
</g>
<g>
</g>
</svg>
