<?xml version="1.0" encoding="iso-8859-1"?>
<!-- Generator: Adobe Illustrator 19.0.0, SVG Export Plug-In . SVG Version: 6.00 Build 0)  -->
<svg xmlns="http://www.w3.org/2000/svg" xmlns:xlink="http://www.w3.org/1999/xlink" version="1.1" id="Layer_1" x="0px" y="0px" viewBox="0 0 512.1 512.1" style="enable-background:new 0 0 512.1 512.1;" xml:space="preserve">
<path style="fill:#FFE15A;" d="M503.6,373.9H35.4c-4.6,0-8.4-3.7-8.4-8.4v-301c0-4.6,3.7-8.4,8.4-8.4h468.3c4.6,0,8.4,3.7,8.4,8.4  v301C512,370.1,508.3,373.9,503.6,373.9z"/>
<path style="fill:#41479B;" d="M268,215H42.2c-4.6,0-8.4-3.7-8.4-8.4V64.5c0-4.6,3.7-8.4,8.4-8.4H268c4.6,0,8.4,3.7,8.4,8.4v142.2  C276.4,211.3,272.6,215,268,215z"/>
<path style="fill:#F5F5F5;" d="M268,56.1h-14.5L176,106.9V56.1h-41.8v50.7L56.8,56.1H42.2c-4.6,0-8.4,3.7-8.4,8.4v6.6l66.5,43.5  H33.9v41.8h66.5L33.9,200v6.6c0,4.6,3.7,8.4,8.4,8.4h14.5l77.5-50.7V215H176v-50.7l77.5,50.7H268c4.6,0,8.4-3.7,8.4-8.4V200  l-66.5-43.5h66.5v-41.8h-66.5l66.5-43.5v-6.6C276.4,59.9,272.6,56.1,268,56.1z"/>
<g>
	<polygon style="fill:#FF4B55;" points="276.4,123 167.7,123 167.7,56.1 142.6,56.1 142.6,123 33.9,123 33.9,148.1 142.6,148.1    142.6,215 167.7,215 167.7,148.1 276.4,148.1  "/>
	<path style="fill:#FF4B55;" d="M125.9,114.7l-88-57.1c-2.3,1.5-4,4-4,6.9v0.4l76.6,49.7C110.5,114.7,125.9,114.7,125.9,114.7z"/>
	<path style="fill:#FF4B55;" d="M191.4,114.7l83.7-54.3c-1.5-2.5-4-4.2-7.1-4.2h-1.8L176,114.7H191.4z"/>
	<path style="fill:#FF4B55;" d="M118.6,156.5L35,210.7c1.4,2.5,4,4.3,7.2,4.3h1.6l90.2-58.5H118.6z"/>
	<path style="fill:#FF4B55;" d="M276.2,207.3l-78.3-50.8h-15.4l88.9,57.7C274.2,213,276,210.4,276.2,207.3z"/>
</g>
<circle style="fill:#41479B;" cx="155.1" cy="135.6" r="25.1"/>
<g>
	<path style="fill:#FFE15A;" d="M156.8,115.2l4.2,12.6l13.2,0.1c1.7,0,2.4,2.2,1,3.2l-10.7,7.9l4,12.6c0.5,1.6-1.3,3-2.7,2   l-10.8-7.7l-10.8,7.7c-1.4,1-3.3-0.4-2.7-2l4-12.6l-10.7-7.9c-1.4-1-0.7-3.2,1-3.2l13.2-0.1l4.2-12.6   C154,113.6,156.3,113.6,156.8,115.2z"/>
	<path style="fill:#FFE15A;" d="M87.4,125.5l2.3,6.8l7.1,0.1c0.9,0,1.3,1.2,0.6,1.7l-5.7,4.2l2.1,6.8c0.3,0.9-0.7,1.6-1.5,1.1   l-5.8-4.1l-5.8,4.1c-0.8,0.5-1.8-0.2-1.5-1.1l2.1-6.8l-5.7-4.2c-0.7-0.5-0.4-1.7,0.6-1.7l7.1-0.1l2.3-6.8   C85.9,124.6,87.1,124.6,87.4,125.5z"/>
	<path style="fill:#FFE15A;" d="M225.3,125.5l2.3,6.8l7.1,0.1c0.9,0,1.3,1.2,0.6,1.7l-5.7,4.2l2.1,6.8c0.3,0.9-0.7,1.6-1.5,1.1   l-5.8-4.1l-5.8,4.1c-0.8,0.5-1.8-0.2-1.5-1.1l2.1-6.8l-5.7-4.2c-0.7-0.5-0.4-1.7,0.6-1.7l7.1-0.1l2.3-6.8   C223.8,124.6,225,124.6,225.3,125.5z"/>
	<path style="fill:#FFE15A;" d="M156.1,74.7l2.3,6.8l7.1,0.1c0.9,0,1.3,1.2,0.6,1.7l-5.7,4.2l2.1,6.8c0.3,0.9-0.7,1.6-1.5,1.1   l-5.8-4.1l-5.8,4.1c-0.8,0.5-1.8-0.2-1.5-1.1l2.1-6.8l-5.7-4.2c-0.7-0.5-0.4-1.7,0.6-1.7l7.1-0.1l2.3-6.8   C154.6,73.8,155.9,73.8,156.1,74.7z"/>
	<path style="fill:#FFE15A;" d="M156.1,177.4l2.3,6.8l7.1,0.1c0.9,0,1.3,1.2,0.6,1.7l-5.7,4.2l2.1,6.8c0.3,0.9-0.7,1.6-1.5,1.1   l-5.8-4.1l-5.8,4.1c-0.8,0.5-1.8-0.2-1.5-1.1l2.1-6.8l-5.7-4.2c-0.7-0.5-0.4-1.7,0.6-1.7l7.1-0.1l2.3-6.8   C154.6,176.5,155.9,176.5,156.1,177.4z"/>
</g>
<path style="fill:#2E3033;" d="M19.2,489.1L19.2,489.1C8.6,489.1,0,480.5,0,469.9V42c0-10.5,8.5-19,19-19h0.2  c10.6,0,19.2,8.6,19.2,19.2V470C38.4,480.5,29.8,489.1,19.2,489.1z"/>
<g>
</g>
<g>
</g>
<g>
</g>
<g>
</g>
<g>
</g>
<g>
</g>
<g>
</g>
<g>
</g>
<g>
</g>
<g>
</g>
<g>
</g>
<g>
</g>
<g>
</g>
<g>
</g>
<g>
</g>
</svg>
