<?xml version="1.0" encoding="iso-8859-1"?>
<!-- Generator: Adobe Illustrator 19.0.0, SVG Export Plug-In . SVG Version: 6.00 Build 0)  -->
<svg xmlns="http://www.w3.org/2000/svg" xmlns:xlink="http://www.w3.org/1999/xlink" version="1.1" id="Layer_1" x="0px" y="0px" viewBox="0 0 512 512" style="enable-background:new 0 0 512 512;" xml:space="preserve">
<path style="fill:#41479B;" d="M503.56,374.155H35.87c-4.661,0-8.44-3.779-8.44-8.44V65.118c0-4.661,3.779-8.44,8.44-8.44h467.69  c4.661,0,8.44,3.779,8.44,8.44v300.597C512,370.376,508.222,374.155,503.56,374.155z"/>
<path style="fill:#F5F5F5;" d="M261.36,56.677h-14.512l-77.389,50.704V56.677h-41.773v50.704L50.298,56.677H35.785  c-4.615,0-8.355,3.74-8.355,8.355v6.626l66.397,43.501H27.43v41.773h66.397L27.43,200.434v6.626c0,4.614,3.74,8.355,8.355,8.355  h14.512l77.389-50.704v50.704h41.773v-50.704l77.389,50.704h14.512c4.615,0,8.355-3.741,8.355-8.355v-6.626l-66.396-43.501h66.396  V115.16h-66.396l66.396-43.501v-6.626C269.715,60.419,265.975,56.677,261.36,56.677z"/>
<g>
	<polygon style="fill:#FF4B55;" points="269.715,123.515 161.104,123.515 161.104,56.677 136.041,56.677 136.041,123.515    27.43,123.515 27.43,148.579 136.041,148.579 136.041,215.417 161.104,215.417 161.104,148.579 269.715,148.579  "/>
	<path style="fill:#FF4B55;" d="M119.332,115.161l-87.92-57.07c-2.34,1.48-3.982,3.968-3.982,6.942v0.434l76.556,49.695   L119.332,115.161L119.332,115.161z"/>
	<path style="fill:#FF4B55;" d="M184.804,115.161l83.64-54.293c-1.454-2.46-4.019-4.19-7.083-4.19h-1.807l-90.094,58.483   C169.46,115.161,184.804,115.161,184.804,115.161z"/>
	<path style="fill:#FF4B55;" d="M112.111,156.933l-83.479,54.188c1.439,2.52,4.044,4.295,7.153,4.295h1.576l90.095-58.483H112.111   L112.111,156.933z"/>
	<path style="fill:#FF4B55;" d="M269.582,207.718l-78.237-50.785H176l88.844,57.67C267.506,213.369,269.332,210.781,269.582,207.718   z"/>
	<path style="fill:#FF4B55;" d="M401.717,321.522c-0.339,0-0.682-0.107-0.971-0.31l-9.889-7.065l-9.889,7.065   c-0.29,0.204-0.632,0.31-0.971,0.31c-0.347,0-0.69-0.107-0.983-0.319c-0.579-0.424-0.828-1.175-0.612-1.86l3.667-11.585   l-9.775-7.212c-0.579-0.433-0.82-1.175-0.599-1.86c0.225-0.686,0.857-1.15,1.578-1.158l12.153-0.098l3.842-11.528   c0.229-0.677,0.869-1.143,1.587-1.143c0.718,0,1.359,0.465,1.587,1.143l3.843,11.528l12.153,0.098   c0.722,0.008,1.355,0.474,1.578,1.158c0.221,0.686-0.02,1.427-0.599,1.86l-9.775,7.212l3.667,11.585   c0.216,0.686-0.033,1.436-0.612,1.86C402.407,321.416,402.06,321.522,401.717,321.522z"/>
</g>
<path style="fill:#F5F5F5;" d="M390.858,286.431l4.223,12.661l13.347,0.103l-10.737,7.928l4.026,12.725l-10.858-7.762l-10.858,7.762  l4.026-12.725l-10.737-7.928l13.347-0.103L390.858,286.431 M390.858,283.089c-1.438,0-2.716,0.92-3.17,2.285l-3.467,10.396  l-10.958,0.085c-1.438,0.011-2.708,0.941-3.152,2.309c-0.444,1.367,0.036,2.866,1.193,3.721l8.816,6.509l-3.305,10.448  c-0.434,1.371,0.058,2.866,1.222,3.711c0.586,0.425,1.274,0.638,1.964,0.638c0.682,0,1.362-0.208,1.943-0.624l8.915-6.372  l8.915,6.372c0.581,0.415,1.262,0.624,1.943,0.624c0.69,0,1.379-0.213,1.964-0.638c1.164-0.845,1.655-2.341,1.222-3.711  l-3.305-10.448l8.816-6.509c1.157-0.855,1.637-2.354,1.193-3.721c-0.444-1.368-1.714-2.298-3.152-2.309l-10.958-0.085l-3.467-10.396  C393.573,284.009,392.296,283.089,390.858,283.089L390.858,283.089z"/>
<path style="fill:#FF4B55;" d="M401.717,186.827c-0.343,0-0.682-0.105-0.971-0.31l-9.889-7.074l-9.889,7.074  c-0.29,0.204-0.632,0.31-0.971,0.31c-0.343,0-0.69-0.105-0.983-0.319c-0.579-0.424-0.828-1.175-0.612-1.86l3.667-11.585l-9.775-7.22  c-0.579-0.433-0.82-1.183-0.599-1.86c0.225-0.686,0.861-1.15,1.578-1.158l12.153-0.09l3.842-11.528  c0.229-0.677,0.869-1.143,1.587-1.143c0.718,0,1.359,0.465,1.587,1.143l3.843,11.528l12.153,0.09  c0.718,0.008,1.355,0.474,1.578,1.158c0.221,0.677-0.02,1.427-0.599,1.86l-9.775,7.22l3.667,11.585  c0.216,0.686-0.033,1.436-0.612,1.86C402.407,186.722,402.06,186.827,401.717,186.827z"/>
<path style="fill:#F5F5F5;" d="M390.858,151.733l4.223,12.661l13.347,0.103l-10.737,7.928l4.026,12.725l-10.858-7.761l-10.858,7.761  l4.026-12.725l-10.737-7.928l13.347-0.103L390.858,151.733 M390.858,148.392c-1.438,0-2.716,0.92-3.17,2.285l-3.467,10.395  l-10.958,0.085c-1.438,0.011-2.708,0.941-3.152,2.309c-0.444,1.367,0.036,2.866,1.193,3.721l8.816,6.509l-3.305,10.448  c-0.434,1.372,0.058,2.866,1.222,3.712c0.586,0.425,1.274,0.638,1.964,0.638c0.682,0,1.362-0.208,1.943-0.624l8.915-6.372  l8.915,6.372c0.581,0.415,1.262,0.624,1.943,0.624c0.69,0,1.379-0.213,1.964-0.638c1.164-0.845,1.655-2.341,1.222-3.712  l-3.305-10.448l8.816-6.509c1.157-0.855,1.637-2.354,1.193-3.721c-0.444-1.368-1.714-2.298-3.152-2.309l-10.958-0.085l-3.467-10.395  C393.573,149.312,392.296,148.392,390.858,148.392L390.858,148.392z"/>
<path style="fill:#FF4B55;" d="M460.2,228.601c-0.343,0-0.682-0.107-0.971-0.31l-9.889-7.074l-9.889,7.074  c-0.29,0.204-0.632,0.31-0.971,0.31c-0.343,0-0.689-0.107-0.983-0.319c-0.579-0.424-0.828-1.175-0.612-1.86l3.667-11.585  l-9.775-7.22c-0.579-0.433-0.82-1.183-0.599-1.86c0.225-0.686,0.861-1.15,1.579-1.158l12.153-0.09l3.842-11.528  c0.229-0.677,0.869-1.143,1.587-1.143c0.718,0,1.359,0.465,1.587,1.143l3.842,11.528l12.153,0.09  c0.718,0.008,1.355,0.474,1.579,1.158c0.22,0.677-0.02,1.427-0.6,1.86l-9.775,7.22l3.667,11.585c0.216,0.686-0.033,1.436-0.612,1.86  C460.889,228.494,460.542,228.601,460.2,228.601z"/>
<path style="fill:#F5F5F5;" d="M449.34,193.507l4.223,12.661l13.347,0.103l-10.737,7.928l4.026,12.725l-10.858-7.761l-10.858,7.761  l4.026-12.725l-10.737-7.928l13.347-0.103L449.34,193.507 M449.34,190.165c-1.438,0-2.716,0.92-3.17,2.285l-3.467,10.395  l-10.958,0.085c-1.438,0.011-2.708,0.941-3.152,2.309c-0.444,1.367,0.036,2.866,1.193,3.721l8.815,6.509l-3.305,10.448  c-0.434,1.372,0.058,2.866,1.222,3.712c0.586,0.425,1.274,0.638,1.964,0.638c0.68,0,1.362-0.208,1.943-0.624l8.915-6.372  l8.915,6.372c0.581,0.415,1.263,0.624,1.943,0.624c0.69,0,1.379-0.213,1.964-0.638c1.164-0.845,1.655-2.341,1.222-3.712  l-3.305-10.448l8.815-6.509c1.157-0.855,1.637-2.354,1.193-3.721c-0.444-1.368-1.714-2.298-3.152-2.309l-10.958-0.085l-3.467-10.395  C452.056,191.085,450.779,190.165,449.34,190.165L449.34,190.165z"/>
<path style="fill:#FF4B55;" d="M343.235,245.31c-0.343,0-0.682-0.105-0.971-0.31l-9.889-7.074L322.487,245  c-0.29,0.204-0.632,0.31-0.971,0.31c-0.343,0-0.69-0.105-0.983-0.319c-0.579-0.424-0.828-1.175-0.612-1.86l3.667-11.586l-9.775-7.22  c-0.579-0.433-0.82-1.183-0.599-1.86c0.225-0.686,0.861-1.15,1.578-1.158l12.153-0.09l3.843-11.528  c0.228-0.677,0.869-1.143,1.587-1.143c0.718,0,1.359,0.465,1.587,1.143l3.842,11.528l12.153,0.09  c0.717,0.008,1.355,0.474,1.578,1.158c0.22,0.677-0.02,1.427-0.599,1.86l-9.775,7.22l3.667,11.586  c0.216,0.686-0.033,1.436-0.612,1.86C343.924,245.205,343.577,245.31,343.235,245.31z"/>
<path style="fill:#F5F5F5;" d="M332.375,210.216l4.223,12.661l13.347,0.103l-10.737,7.928l4.026,12.725l-10.858-7.761l-10.858,7.761  l4.026-12.725l-10.737-7.928l13.347-0.103L332.375,210.216 M332.375,206.874c-1.438,0-2.716,0.92-3.17,2.285l-3.467,10.395  l-10.958,0.085c-1.438,0.011-2.708,0.941-3.152,2.309c-0.444,1.367,0.036,2.866,1.193,3.721l8.816,6.509l-3.305,10.448  c-0.434,1.372,0.058,2.866,1.222,3.712c0.586,0.425,1.274,0.638,1.964,0.638c0.68,0,1.362-0.208,1.943-0.624l8.915-6.372  l8.915,6.372c0.581,0.415,1.263,0.624,1.943,0.624c0.69,0,1.379-0.213,1.964-0.638c1.164-0.845,1.655-2.34,1.222-3.712  l-3.305-10.448l8.816-6.509c1.157-0.855,1.637-2.354,1.193-3.721c-0.444-1.368-1.714-2.298-3.152-2.309l-10.958-0.085l-3.467-10.395  C335.091,207.795,333.813,206.874,332.375,206.874L332.375,206.874z"/>
<path style="fill:#2E3033;" d="M19.122,488.1L19.122,488.1C8.561,488.1,0,479.539,0,468.979V42.864C0,32.39,8.491,23.9,18.965,23.9  h0.157c10.561,0,19.122,8.561,19.122,19.122V468.98C38.244,479.539,29.683,488.1,19.122,488.1z"/>
<g>
</g>
<g>
</g>
<g>
</g>
<g>
</g>
<g>
</g>
<g>
</g>
<g>
</g>
<g>
</g>
<g>
</g>
<g>
</g>
<g>
</g>
<g>
</g>
<g>
</g>
<g>
</g>
<g>
</g>
</svg>
