<?xml version="1.0" encoding="iso-8859-1"?>
<!-- Generator: Adobe Illustrator 19.0.0, SVG Export Plug-In . SVG Version: 6.00 Build 0)  -->
<svg xmlns="http://www.w3.org/2000/svg" xmlns:xlink="http://www.w3.org/1999/xlink" version="1.1" id="Layer_1" x="0px" y="0px" viewBox="0 0 512 512" style="enable-background:new 0 0 512 512;" xml:space="preserve">
<path style="fill:#F5F5F5;" d="M512,162.357H26.68V64.821c0-4.668,3.785-8.453,8.453-8.453h468.414c4.668,0,8.453,3.785,8.453,8.453  V162.357z"/>
<path style="fill:#73AF00;" d="M503.547,374.337H35.133c-4.668,0-8.453-3.785-8.453-8.453v-97.537H512v97.536  C512,370.552,508.216,374.337,503.547,374.337z"/>
<g>
	<rect x="26.68" y="162.357" style="fill:#FF4B55;" width="485.32" height="105.99"/>
	<path style="fill:#FF4B55;" d="M152.194,374.337H35.133c-4.668,0-8.453-3.785-8.453-8.453V64.821c0-4.668,3.785-8.453,8.453-8.453   h117.061V374.337L152.194,374.337z"/>
</g>
<g>
	<path style="fill:#F5F5F5;" d="M60.858,125.724c-0.468,0.054-0.92,0.11-1.361,0.168v5.959c0.444,0.113,0.895,0.225,1.361,0.334   V125.724z"/>
	<path style="fill:#F5F5F5;" d="M81.471,137.081c-1.243-0.099-3.151-0.291-5.43-0.568l-14.292,12.712   c1.851,0.283,4.07,0.657,4.997,0.953C70.416,146.964,75.339,142.587,81.471,137.081z"/>
	<polygon style="fill:#F5F5F5;" points="102.977,116.863 102.977,116.237 102.977,115.639 77.618,115.639 77.618,116.237    77.618,116.863 77.618,117.462 102.977,117.462  "/>
	<path style="fill:#F5F5F5;" d="M84.203,80.597c0,1.786,2.691,3.294,5.877,3.294s5.877-1.508,5.877-3.294s-2.691-3.294-5.877-3.294   S84.203,78.812,84.203,80.597z"/>
	<path style="fill:#F5F5F5;" d="M78.707,124.916c-5.725-0.029-11.437,0.182-16.107,0.623v7.035   c5.487,1.178,11.88,2.079,16.107,2.529V124.916z"/>
	<path style="fill:#F5F5F5;" d="M49.217,159.635c2.262-0.048,7.233-0.943,10.597-3.571c1.043-0.815,2.823-2.314,5.328-4.49   c-1.698-0.349-4.546-0.77-6.064-0.98L49.217,159.635z"/>
	<path style="fill:#F5F5F5;" d="M81.972,113.898v-3.198c-0.429-0.639-0.872-1.298-1.323-1.967l-3.894,2.832   c0.775,1.331,1.272,2.179,1.363,2.334L81.972,113.898L81.972,113.898z"/>
	<path style="fill:#F5F5F5;" d="M52.015,128.339c-0.013,0.053-0.043,0.173,0.153,0.425c0.723,0.926,2.813,1.81,5.588,2.615v-5.228   C54.424,126.702,52.242,127.433,52.015,128.339z"/>
	<path style="fill:#F5F5F5;" d="M96.556,125.842v-6.639H83.713v16.216h3.265C92.259,135.419,96.556,131.122,96.556,125.842z"/>
	<path style="fill:#F5F5F5;" d="M75.915,101.726C69.04,91.591,61.696,80.939,59.904,78.829c0.257,0.944,0.877,2.716,2.325,6.033   c1.868,4.281,6.403,12.492,10.156,19.099L75.915,101.726z"/>
	<path style="fill:#F5F5F5;" d="M73.248,105.478c0.977,1.712,1.874,3.269,2.629,4.573l3.799-2.762   c-0.903-1.341-1.833-2.717-2.782-4.118L73.248,105.478z"/>
	<path style="fill:#F5F5F5;" d="M81.972,135.389v-10.431c-0.507-0.011-1.014-0.021-1.524-0.027v10.344   C81.036,135.326,81.547,135.365,81.972,135.389z"/>
	<rect x="83.72" y="104.947" style="fill:#F5F5F5;" width="12.842" height="1.823"/>
	<path style="fill:#F5F5F5;" d="M114.405,113.789v0.109h0.653c0.481,0,0.871,0.389,0.871,0.871v3.564   c0,0.482-0.389,0.871-0.871,0.871h-0.653v0.109c0,0.48,0.39,0.871,0.871,0.871h14.693c0.481,0,0.871-0.391,0.871-0.871v-5.523   c0-0.48-0.39-0.871-0.871-0.871h-14.693C114.795,112.918,114.405,113.309,114.405,113.789z"/>
	<path style="fill:#F5F5F5;" d="M130.844,159.587l-9.806-8.991c-1.518,0.209-4.366,0.631-6.064,0.98   c2.55,2.21,4.329,3.711,5.327,4.491C123.614,158.654,128.482,159.559,130.844,159.587z"/>
	<polygon style="fill:#F5F5F5;" points="110.705,116.237 110.705,116.863 110.705,117.462 114.188,117.462 114.188,115.639    110.705,115.639  "/>
	<path style="fill:#F5F5F5;" d="M113.369,150.178c0.926-0.297,3.149-0.672,5.003-0.955l-21.057-18.79   c-0.572,1.281-1.367,2.441-2.348,3.418l0.554,0.495C103.151,141.176,109.113,146.464,113.369,150.178z"/>
	<path style="fill:#F5F5F5;" d="M66.191,119.313v-0.109h-0.653c-0.482,0-0.871-0.389-0.871-0.871v-3.564   c0-0.481,0.39-0.871,0.871-0.871h0.653v-0.109c0-0.48-0.39-0.871-0.871-0.871H50.627c-0.481,0-0.871,0.391-0.871,0.871v5.523   c0,0.48,0.39,0.871,0.871,0.871H65.32C65.8,120.183,66.191,119.792,66.191,119.313z"/>
	<polygon style="fill:#F5F5F5;" points="69.891,116.863 69.891,116.237 69.891,115.639 66.409,115.639 66.409,117.462    69.891,117.462  "/>
	<path style="fill:#F5F5F5;" d="M103.36,111.563l-3.893-2.831c-0.398,0.593-0.787,1.171-1.17,1.739v3.426h3.699   C102.088,113.742,102.585,112.896,103.36,111.563z"/>
	<polygon style="fill:#F5F5F5;" points="84.879,99.612 95.395,99.612 93.08,97.044 87.194,97.044  "/>
	<rect x="83.72" y="101.438" style="fill:#F5F5F5;" width="12.842" height="1.769"/>
	<path style="fill:#F5F5F5;" d="M90.08,85.633c-0.846,0-1.64-0.109-2.394-0.269v9.842h4.844v-9.853   C91.759,85.521,90.946,85.633,90.08,85.633z"/>
	<path style="fill:#F5F5F5;" d="M83.713,110.333H96.5c-0.002-0.109,0.016-0.216,0.056-0.32v-1.503H83.713V110.333z"/>
	<path style="fill:#F5F5F5;" d="M100.44,107.287l3.799,2.762c0.754-1.304,1.652-2.86,2.629-4.572l-3.645-2.308   C102.273,104.571,101.344,105.947,100.44,107.287z"/>
	<rect x="83.72" y="112.077" style="fill:#F5F5F5;" width="12.842" height="1.823"/>
	<path style="fill:#F5F5F5;" d="M107.731,103.961c3.754-6.608,8.288-14.817,10.157-19.099c1.452-3.326,2.071-5.1,2.327-6.041   c-1.76,2.066-9.122,12.743-16.014,22.904L107.731,103.961z"/>
</g>
<path style="fill:#D23741;" d="M133.269,159.449l-11.355-10.412c-0.19-0.175-0.447-0.26-0.705-0.221  c-0.096,0.013-0.316,0.042-0.607,0.083c-0.016-0.016-0.022-0.037-0.039-0.053L97.93,128.648c0.23-0.899,0.367-1.836,0.367-2.806  v-6.639h5.49c0.707,0.92,1.806,1.524,3.054,1.524s2.347-0.603,3.054-1.524h2.769v0.109c0,1.44,1.172,2.612,2.612,2.612h14.693  c1.44,0,2.612-1.172,2.612-2.612v-5.523c0-1.44-1.172-2.612-2.612-2.612h-14.693c-1.44,0-2.612,1.172-2.612,2.612v0.109h-2.769  c-0.707-0.92-1.806-1.524-3.054-1.524c-0.946,0-1.801,0.354-2.473,0.919c2.935-5.024,12.156-20.948,15.116-27.735  c3.176-7.281,2.921-8.223,2.169-8.826c-0.792-0.634-1.795,0.095-2.174,0.373c-1.457,1.058-15.583,21.928-21.183,30.246v-6.868  c0-0.019-0.01-0.035-0.011-0.055v-0.002c-0.02-0.295-0.185-0.54-0.426-0.683l-3.589-3.981V84.818  c2.076-0.891,3.429-2.43,3.429-4.221c0-2.823-3.346-5.036-7.618-5.036c-4.272,0-7.618,2.213-7.618,5.036  c0,1.806,1.378,3.354,3.483,4.24v10.992l-3.522,3.906c-0.264,0.15-0.45,0.423-0.45,0.748v7.096  c-5.491-8.158-19.867-29.406-21.336-30.473c-0.38-0.276-1.383-1.005-2.175-0.373c-0.751,0.603-1.008,1.544,2.169,8.826  c2.868,6.57,11.601,21.706,14.817,27.222c-0.514-0.253-1.083-0.408-1.694-0.408c-1.248,0-2.347,0.603-3.054,1.524h-2.769v-0.109  c0-1.44-1.172-2.612-2.612-2.612H50.627c-1.44,0-2.612,1.172-2.612,2.612v5.523c0,1.44,1.172,2.612,2.612,2.612H65.32  c1.44,0,2.612-1.172,2.612-2.612v-0.109h2.769c0.707,0.92,1.806,1.524,3.054,1.524s2.347-0.603,3.054-1.524h5.164v4.009  c-8.073-0.173-30.421-0.199-31.645,4.705c-0.114,0.454-0.125,1.158,0.469,1.918c2.355,3.017,14.293,5.219,22.952,6.383  l-14.196,12.626c-0.018,0.016-0.024,0.037-0.04,0.054c-0.292-0.04-0.51-0.071-0.607-0.083c-0.262-0.037-0.516,0.045-0.705,0.221  l-11.356,10.412c-0.342,0.313-0.378,0.842-0.08,1.199c0.376,0.452,1.332,0.673,2.611,0.673c3.148,0,8.253-1.342,11.509-3.884  c2.683-2.095,10.114-8.609,22.09-19.366c0.519-0.465,0.862-0.775,1.014-0.91h2.989c2.484,0,4.776-0.814,6.644-2.176l0.738,0.658  c13.787,12.342,22.155,19.672,24.87,21.793c3.254,2.544,8.359,3.884,11.507,3.884c1.28,0,2.236-0.221,2.613-0.673  C133.648,160.29,133.612,159.762,133.269,159.449z M83.713,135.419v-16.216h12.842v6.639c0,5.28-4.296,9.577-9.577,9.577H83.713z   M57.756,131.38c-2.774-0.805-4.865-1.69-5.587-2.615c-0.197-0.251-0.166-0.373-0.153-0.425c0.227-0.906,2.408-1.636,5.741-2.188  L57.756,131.38L57.756,131.38z M59.904,78.828c1.791,2.111,9.136,12.762,16.011,22.897l-3.529,2.235  c-3.753-6.608-8.288-14.817-10.156-19.099C60.78,81.544,60.161,79.772,59.904,78.828z M80.649,108.732  c0.451,0.67,0.893,1.328,1.323,1.967v3.198h-3.853c-0.092-0.155-0.589-1.003-1.363-2.334L80.649,108.732z M75.877,110.049  c-0.754-1.304-1.652-2.86-2.629-4.573l3.644-2.308c0.95,1.402,1.879,2.777,2.782,4.118L75.877,110.049z M81.972,124.958v10.431  c-0.425-0.024-0.936-0.062-1.524-0.114v-10.344C80.957,124.938,81.465,124.947,81.972,124.958z M62.599,125.54  c4.67-0.442,10.383-0.652,16.107-0.623v10.187c-4.228-0.449-10.62-1.351-16.107-2.529V125.54z M59.497,125.892  c0.441-0.059,0.892-0.115,1.361-0.168v6.462c-0.465-0.109-0.917-0.221-1.361-0.334V125.892z M76.041,136.512  c2.279,0.279,4.187,0.47,5.43,0.568c-6.132,5.505-11.055,9.884-14.726,13.096c-0.927-0.296-3.146-0.67-4.997-0.953L76.041,136.512z   M65.142,151.576c-2.503,2.175-4.284,3.675-5.328,4.49c-3.364,2.629-8.335,3.524-10.597,3.571l9.859-9.041  C60.596,150.805,63.444,151.227,65.142,151.576z M77.618,117.462v-0.599v-0.626v-0.599h25.359v0.599v0.626v0.598L77.618,117.462  L77.618,117.462z M95.957,80.597c0,1.786-2.691,3.294-5.877,3.294s-5.877-1.508-5.877-3.294s2.691-3.294,5.877-3.294  S95.957,78.812,95.957,80.597z M83.713,106.77v-1.823h12.842v1.823H83.713z M96.556,108.51v1.503  c-0.04,0.106-0.058,0.211-0.056,0.32H83.713v-1.823H96.556z M83.713,103.205v-1.769h12.842v1.769H83.713z M93.08,97.044l2.315,2.568  H84.879l2.315-2.568H93.08z M87.686,95.205v-9.842c0.754,0.162,1.548,0.269,2.394,0.269c0.866,0,1.679-0.112,2.449-0.281v9.853  C92.53,95.205,87.686,95.205,87.686,95.205z M83.713,112.075h12.842v1.823H83.713V112.075z M117.888,84.861  c-1.868,4.281-6.403,12.492-10.157,19.099l-3.53-2.235c6.892-10.162,14.254-20.839,16.014-22.904  C119.959,79.762,119.339,81.535,117.888,84.861z M108.964,116.237v0.626c0,1.17-0.952,2.122-2.123,2.122s-2.122-0.952-2.122-2.122  v-0.626c0-1.17,0.952-2.122,2.122-2.122S108.964,115.067,108.964,116.237z M104.238,110.049l-3.799-2.762  c0.903-1.341,1.833-2.716,2.782-4.118l3.645,2.308C105.89,107.189,104.993,108.746,104.238,110.049z M98.297,110.471  c0.381-0.568,0.77-1.148,1.17-1.739l3.893,2.831c-0.775,1.332-1.272,2.179-1.364,2.334h-3.699V110.471L98.297,110.471z   M97.315,130.434l21.057,18.79c-1.854,0.283-4.078,0.658-5.003,0.955c-4.256-3.716-10.218-9.003-17.848-15.833l-0.554-0.495  C95.948,132.874,96.744,131.714,97.315,130.434z M121.039,150.596l9.806,8.991c-2.363-0.027-7.231-0.934-10.543-3.521  c-0.999-0.781-2.778-2.28-5.327-4.491C116.673,151.227,119.52,150.805,121.039,150.596z M130.839,113.789v5.523  c0,0.48-0.39,0.871-0.871,0.871h-14.693c-0.481,0-0.871-0.391-0.871-0.871v-0.109h0.653c0.481,0,0.871-0.389,0.871-0.871v-3.564  c0-0.481-0.389-0.871-0.871-0.871h-0.653v-0.109c0-0.48,0.39-0.871,0.871-0.871h14.693  C130.449,112.918,130.839,113.309,130.839,113.789z M114.188,117.462h-3.483v-0.599v-0.626v-0.599h3.483V117.462z M49.756,119.313  v-5.523c0-0.48,0.39-0.871,0.871-0.871H65.32c0.481,0,0.871,0.391,0.871,0.871v0.109h-0.653c-0.482,0-0.871,0.389-0.871,0.871v3.564  c0,0.482,0.39,0.871,0.871,0.871h0.653v0.109c0,0.48-0.39,0.871-0.871,0.871H50.627C50.147,120.183,49.756,119.792,49.756,119.313z   M66.409,115.639h3.483v0.599v0.626v0.598h-3.483V115.639z M75.877,116.863c0,1.17-0.952,2.122-2.123,2.122  c-1.17,0-2.122-0.952-2.122-2.122v-0.626c0-1.17,0.952-2.122,2.122-2.122s2.123,0.952,2.123,2.122V116.863z"/>
<path style="fill:#2E3033;" d="M19.152,488.46L19.152,488.46C8.575,488.46,0,479.884,0,469.307V42.534  C0,32.044,8.504,23.54,18.994,23.54h0.157c10.577,0,19.152,8.575,19.152,19.152V469.31C38.303,479.884,29.728,488.46,19.152,488.46z  "/>
<g>
</g>
<g>
</g>
<g>
</g>
<g>
</g>
<g>
</g>
<g>
</g>
<g>
</g>
<g>
</g>
<g>
</g>
<g>
</g>
<g>
</g>
<g>
</g>
<g>
</g>
<g>
</g>
<g>
</g>
</svg>
