<?xml version="1.0" encoding="iso-8859-1"?>
<!-- Generator: Adobe Illustrator 19.0.0, SVG Export Plug-In . SVG Version: 6.00 Build 0)  -->
<svg xmlns="http://www.w3.org/2000/svg" xmlns:xlink="http://www.w3.org/1999/xlink" version="1.1" id="Layer_1" x="0px" y="0px" viewBox="0 0 512 512" style="enable-background:new 0 0 512 512;" xml:space="preserve">
<path style="fill:#F5F5F5;" d="M503.56,374.155H35.87c-4.661,0-8.44-3.779-8.44-8.44V65.118c0-4.661,3.779-8.44,8.44-8.44h467.69  c4.661,0,8.44,3.779,8.44,8.44v300.597C512,370.376,508.222,374.155,503.56,374.155z"/>
<path style="fill:#FF4B55;" d="M269.715,215.417H503.56c4.661,0,8.44-3.779,8.44-8.44V65.118c0-4.661-3.779-8.44-8.44-8.44H278.155  c-4.661,0-8.44,3.779-8.44,8.44V215.417L269.715,215.417z"/>
<g>
	<path style="fill:#4173CD;" d="M35.87,374.155h225.405c4.661,0,8.44-3.779,8.44-8.44V215.417H35.87c-4.661,0-8.44,3.779-8.44,8.44   v141.858C27.43,370.376,31.209,374.155,35.87,374.155z"/>
	<path style="fill:#4173CD;" d="M151.791,100.414l7.965,23.882l25.175,0.195c3.259,0.025,4.61,4.184,1.989,6.121l-20.252,14.955   l7.594,24.002c0.983,3.108-2.555,5.678-5.206,3.783l-20.481-14.639l-20.481,14.639c-2.651,1.895-6.19-0.675-5.206-3.783   l7.594-24.002l-20.252-14.955c-2.622-1.936-1.27-6.096,1.989-6.121l25.175-0.195l7.965-23.882   C146.386,97.322,150.759,97.322,151.791,100.414z"/>
</g>
<path style="fill:#FF4B55;" d="M394.076,259.152l7.965,23.882l25.174,0.195c3.259,0.025,4.61,4.185,1.989,6.121l-20.252,14.955  l7.594,24.002c0.983,3.108-2.555,5.678-5.206,3.783l-20.481-14.639l-20.481,14.639c-2.651,1.895-6.19-0.675-5.206-3.783  l7.594-24.002l-20.252-14.955c-2.622-1.936-1.27-6.096,1.989-6.121l25.175-0.195l7.965-23.882  C388.671,256.06,393.044,256.06,394.076,259.152z"/>
<path style="fill:#2E3033;" d="M19.122,488.1L19.122,488.1C8.561,488.1,0,479.539,0,468.979V42.864C0,32.39,8.491,23.9,18.965,23.9  h0.157c10.561,0,19.122,8.561,19.122,19.122V468.98C38.244,479.539,29.683,488.1,19.122,488.1z"/>
<g>
</g>
<g>
</g>
<g>
</g>
<g>
</g>
<g>
</g>
<g>
</g>
<g>
</g>
<g>
</g>
<g>
</g>
<g>
</g>
<g>
</g>
<g>
</g>
<g>
</g>
<g>
</g>
<g>
</g>
</svg>
