<?xml version="1.0" encoding="iso-8859-1"?>
<!-- Generator: Adobe Illustrator 19.0.0, SVG Export Plug-In . SVG Version: 6.00 Build 0)  -->
<svg xmlns="http://www.w3.org/2000/svg" xmlns:xlink="http://www.w3.org/1999/xlink" version="1.1" id="Layer_1" x="0px" y="0px" viewBox="0 0 512 512" style="enable-background:new 0 0 512 512;" xml:space="preserve">
<g>
	<path style="fill:#FF4B55;" d="M24.345,302.038H512v75.616c0,4.674-3.789,8.463-8.463,8.463H32.807   c-4.674,0-8.463-3.789-8.463-8.463v-75.616H24.345z"/>
	<path style="fill:#FF4B55;" d="M32.807,66.619h470.73c4.674,0,8.463,3.789,8.463,8.463v75.616H24.345V75.082   C24.345,70.407,28.134,66.619,32.807,66.619z"/>
</g>
<rect x="24.341" y="150.69" style="fill:#F5F5F5;" width="487.65" height="151.34"/>
<path style="fill:#FFB955;" d="M323.6,204.897l-53.371,21.786c-0.021-0.054-0.047-0.103-0.071-0.154l51.544-25.814  c-2.037-4.069-4.514-7.879-7.386-11.353l-44.439,36.75c-0.044-0.056-0.07-0.126-0.12-0.177l40.736-40.776  c-2.906-2.907-6.119-5.504-9.57-7.766l-31.539,48.275c-0.072-0.048-0.136-0.104-0.213-0.144l25.768-51.576  c-4.138-2.073-8.55-3.677-13.167-4.751l-13.095,56.163c-0.166-0.04-0.325-0.102-0.504-0.102s-0.337,0.061-0.504,0.102  l-13.095-56.163c-4.618,1.074-9.029,2.677-13.167,4.751l25.768,51.576c-0.077,0.04-0.142,0.096-0.213,0.144l-31.539-48.275  c-3.452,2.262-6.665,4.86-9.57,7.766l40.736,40.776c-0.05,0.051-0.075,0.122-0.12,0.177l-44.439-36.75  c-2.872,3.474-5.349,7.284-7.386,11.353l51.544,25.814c-0.024,0.052-0.051,0.101-0.071,0.154l-53.371-21.786  c-1.609,3.946-2.805,8.101-3.544,12.415l56.821,9.838c-0.007,0.05-0.025,0.095-0.03,0.145l-57.355-5.975  c-0.206,2.024-0.313,4.077-0.313,6.156c0,3.594,0.334,7.108,0.941,10.527l58.907-6.093l58.907,6.093  c0.607-3.419,0.942-6.933,0.942-10.527c0-2.079-0.107-4.132-0.313-6.156l-57.355,5.975c-0.004-0.051-0.022-0.096-0.03-0.145  l56.821-9.838C326.405,212.998,325.209,208.843,323.6,204.897z"/>
<g>
	<path style="fill:#4173CD;" d="M210.329,242.859c0.41,1.548,0.884,3.07,1.413,4.566h112.859c0.529-1.496,1.003-3.018,1.413-4.566   c-5.529-0.714-6.216-4.3-12.95-4.3c-7.478,0-7.478,4.433-14.956,4.433s-7.478-4.433-14.956-4.433c-7.48,0-7.48,4.433-14.96,4.433   c-7.476,0-7.476-4.433-14.952-4.433c-7.482,0-7.482,4.433-14.966,4.433c-7.488,0-7.488-4.433-14.975-4.433   C216.555,238.559,215.868,242.146,210.329,242.859z"/>
	<path style="fill:#4173CD;" d="M311.301,254.075c-7.199-0.001-7.2-4.433-14.4-4.433c-7.201,0-7.201,4.433-14.402,4.433   c-7.201,0-7.201-4.433-14.403-4.433c-7.203,0-7.203,4.433-14.406,4.433c-7.199,0-7.199-4.433-14.399-4.433   c-7.205,0-7.205,4.433-14.411,4.433c-6.393,0-7.128-3.478-12.235-4.268c1.22,3.029,2.665,5.942,4.341,8.702h94.311h0.005h8.053   c1.681-2.766,3.129-5.687,4.35-8.724C318.448,250.523,317.76,254.074,311.301,254.075z"/>
	<path style="fill:#4173CD;" d="M317.025,262.027c-1.393-0.73-3.043-1.302-5.623-1.302c-7.201,0-7.201,4.433-14.403,4.433   c-7.201,0-7.201-4.433-14.403-4.433c-7.203,0-7.203,4.433-14.406,4.433c-7.199,0-7.199-4.433-14.399-4.433   c-7.205,0-7.205,4.433-14.411,4.433c-7.21,0-7.21-4.433-14.421-4.433c-2.588,0-4.242,0.574-5.638,1.306   c1.907,2.691,4.021,5.224,6.337,7.561h85.027C313.002,267.254,315.117,264.72,317.025,262.027z"/>
	<path style="fill:#4173CD;" d="M305.052,274.593c-2.176-1.261-3.926-2.785-8.15-2.785c-7.201,0-7.201,4.434-14.402,4.434   c-7.201,0-7.201-4.434-14.403-4.434c-7.203,0-7.203,4.434-14.406,4.434c-7.199,0-7.199-4.434-14.399-4.434   c-4.169,0-5.929,1.482-8.065,2.734c2.966,2.332,6.157,4.388,9.538,6.133h54.815C298.935,278.942,302.104,276.904,305.052,274.593z"/>
	<path style="fill:#4173CD;" d="M253.792,282.891c-2.36,0-3.943,0.478-5.263,1.118c6.155,2.138,12.759,3.315,19.642,3.315h0.012   C260.992,287.321,260.989,282.891,253.792,282.891z"/>
	<path style="fill:#4173CD;" d="M268.226,287.323c6.873-0.006,13.468-1.184,19.614-3.323c-1.316-0.636-2.894-1.11-5.243-1.11   C275.406,282.891,275.392,287.308,268.226,287.323z"/>
</g>
<g>
	<path style="fill:#FF4B55;" d="M276.045,219.898l-18.965-5.482c-1.064-0.308-1.8-1.267-1.814-2.375   c-0.088-7.023-0.392-31.752-0.392-35.548c0-4.433,4.434-11.083,13.299-11.083h6.99c0.662,0,0.861,0.9,0.253,1.162   c-3.202,1.373-7.244,4.233-7.244,9.922c0,6.754,6.433,9.65,9.496,10.646c0.947,0.308,1.587,1.177,1.587,2.174v28.171   C279.255,219.157,277.651,220.363,276.045,219.898z"/>
	<path style="fill:#FF4B55;" d="M259.316,244.706c0.695-0.421,1.519,0.282,1.207,1.032c-1.857,4.457-6.405,12.769-14.518,12.769   c-11.083,0-13.299-8.867-13.299-15.517v-47.018c0-0.966,0.783-1.748,1.748-1.748h3.153c0.965,0,1.748,0.783,1.748,1.748v44.8   C239.356,246.769,251.96,249.161,259.316,244.706z"/>
	<path style="fill:#FF4B55;" d="M276.097,244.706c-0.695-0.421-1.52,0.282-1.207,1.032c1.857,4.457,6.405,12.769,14.518,12.769   c11.083,0,13.299-8.867,13.299-15.517v-47.018c0-0.966-0.783-1.748-1.748-1.748h-3.153c-0.966,0-1.748,0.783-1.748,1.748v44.8   C296.058,246.769,283.455,249.161,276.097,244.706z"/>
</g>
<g>
	<path style="fill:#AA4650;" d="M291.477,237.45h-46.611c-0.595,0-1.077-0.482-1.077-1.077v-0.062c0-0.595,0.482-1.077,1.077-1.077   h46.611c0.595,0,1.077,0.482,1.077,1.077v0.062C292.554,236.968,292.073,237.45,291.477,237.45z"/>
	<path style="fill:#AA4650;" d="M248.499,229.083l2.4-3.2c0.368-0.489,0.269-1.184-0.222-1.552   c-0.489-0.366-1.184-0.264-1.551,0.223l-0.934,1.245v-0.86c0-0.612-0.496-1.109-1.109-1.109c-0.613,0-1.109,0.496-1.109,1.109v0.78   l-0.874-1.165c-0.367-0.489-1.062-0.591-1.551-0.223c-0.491,0.368-0.59,1.063-0.222,1.552l2.4,3.2l-2.4,3.2   c-0.368,0.489-0.269,1.184,0.222,1.552c0.199,0.149,0.432,0.221,0.663,0.221c0.337,0,0.67-0.153,0.888-0.443l2.012-2.683   l2.012,2.683c0.218,0.29,0.55,0.443,0.888,0.443c0.232,0,0.464-0.072,0.663-0.221c0.491-0.368,0.59-1.063,0.222-1.552   L248.499,229.083z"/>
	<path style="fill:#AA4650;" d="M269.187,229.083l2.4-3.2c0.368-0.489,0.269-1.184-0.222-1.552   c-0.489-0.366-1.184-0.264-1.551,0.223l-0.934,1.245v-0.86c0-0.612-0.496-1.109-1.109-1.109s-1.109,0.496-1.109,1.109v0.78   l-0.874-1.165c-0.367-0.489-1.062-0.591-1.551-0.223c-0.491,0.368-0.59,1.063-0.222,1.552l2.4,3.2l-2.4,3.2   c-0.368,0.489-0.269,1.184,0.222,1.552c0.199,0.149,0.432,0.221,0.663,0.221c0.337,0,0.67-0.153,0.888-0.443l2.012-2.683   l2.012,2.683c0.218,0.29,0.55,0.443,0.888,0.443c0.232,0,0.464-0.072,0.663-0.221c0.491-0.368,0.59-1.063,0.222-1.552   L269.187,229.083z"/>
	<path style="fill:#AA4650;" d="M258.844,229.083l2.4-3.2c0.368-0.489,0.269-1.184-0.222-1.552   c-0.489-0.366-1.184-0.264-1.551,0.223l-0.934,1.245v-0.86c0-0.612-0.496-1.109-1.109-1.109c-0.612,0-1.109,0.496-1.109,1.109v0.78   l-0.874-1.165c-0.367-0.489-1.062-0.591-1.551-0.223c-0.491,0.368-0.59,1.063-0.222,1.552l2.4,3.2l-2.4,3.2   c-0.368,0.489-0.269,1.184,0.222,1.552c0.199,0.149,0.432,0.221,0.663,0.221c0.337,0,0.67-0.153,0.888-0.443l2.012-2.683   l2.012,2.683c0.218,0.29,0.55,0.443,0.888,0.443c0.232,0,0.464-0.072,0.663-0.221c0.491-0.368,0.59-1.063,0.222-1.552   L258.844,229.083z"/>
	<path style="fill:#AA4650;" d="M279.532,229.083l2.4-3.2c0.368-0.489,0.269-1.184-0.222-1.552   c-0.489-0.366-1.184-0.264-1.551,0.223l-0.934,1.245v-0.86c0-0.612-0.496-1.109-1.109-1.109s-1.109,0.496-1.109,1.109v0.78   l-0.874-1.165c-0.367-0.489-1.062-0.591-1.551-0.223c-0.49,0.368-0.59,1.063-0.222,1.552l2.4,3.2l-2.4,3.2   c-0.368,0.489-0.269,1.184,0.222,1.552c0.199,0.149,0.432,0.221,0.663,0.221c0.337,0,0.67-0.153,0.888-0.443l2.012-2.683   l2.012,2.683c0.218,0.29,0.55,0.443,0.888,0.443c0.232,0,0.464-0.072,0.663-0.221c0.491-0.368,0.59-1.063,0.222-1.552   L279.532,229.083z"/>
	<path style="fill:#AA4650;" d="M289.876,229.083l2.4-3.2c0.368-0.489,0.269-1.184-0.222-1.552   c-0.489-0.366-1.184-0.264-1.551,0.223l-0.934,1.245v-0.86c0-0.612-0.496-1.109-1.109-1.109s-1.109,0.496-1.109,1.109v0.78   l-0.874-1.165c-0.367-0.489-1.062-0.591-1.551-0.223c-0.491,0.368-0.59,1.063-0.222,1.552l2.4,3.2l-2.4,3.2   c-0.368,0.489-0.269,1.184,0.222,1.552c0.199,0.149,0.432,0.221,0.663,0.221c0.337,0,0.67-0.153,0.888-0.443l2.012-2.683   l2.012,2.683c0.218,0.29,0.55,0.443,0.888,0.443c0.232,0,0.464-0.072,0.663-0.221c0.49-0.368,0.59-1.063,0.222-1.552   L289.876,229.083z"/>
	<path style="fill:#AA4650;" d="M246.453,244.296c1.64,0.717,11.269,0.82,13.728-1.741c2.458-2.561,1.946-3.688,1.946-3.688   l-11.679,0.103L246.453,244.296z"/>
	<path style="fill:#AA4650;" d="M289.423,244.296c-1.639,0.717-11.269,0.82-13.728-1.741c-2.458-2.561-1.946-3.688-1.946-3.688   l11.679,0.103L289.423,244.296z"/>
</g>
<path style="fill:#2E3033;" d="M19.174,488.729L19.174,488.729C8.585,488.729,0,480.145,0,469.555V42.287  c0-10.502,8.514-19.016,19.016-19.016h0.158c10.589,0,19.174,8.585,19.174,19.174v427.111  C38.347,480.145,29.763,488.729,19.174,488.729z"/>
<g>
</g>
<g>
</g>
<g>
</g>
<g>
</g>
<g>
</g>
<g>
</g>
<g>
</g>
<g>
</g>
<g>
</g>
<g>
</g>
<g>
</g>
<g>
</g>
<g>
</g>
<g>
</g>
<g>
</g>
</svg>
