<?xml version="1.0" encoding="iso-8859-1"?>
<!-- Generator: Adobe Illustrator 19.0.0, SVG Export Plug-In . SVG Version: 6.00 Build 0)  -->
<svg xmlns="http://www.w3.org/2000/svg" xmlns:xlink="http://www.w3.org/1999/xlink" version="1.1" id="Layer_1" x="0px" y="0px" viewBox="0 0 512 512" style="enable-background:new 0 0 512 512;" xml:space="preserve">
<path style="fill:#FF4B55;" d="M503.6,373.9H35.4c-4.6,0-8.4-3.8-8.4-8.4v-301c0-4.6,3.8-8.4,8.4-8.4h468.2c4.6,0,8.4,3.8,8.4,8.4  v300.9C512,370.1,508.2,373.9,503.6,373.9z"/>
<path style="fill:#464655;" d="M30.1,58.1c-1.8,1.5-3.1,3.8-3.1,6.3v301c0,4.6,3.7,8.4,8.4,8.4h468.3c2,0,3.8-0.8,5.3-2L30.1,58.1z"/>
<g>
	<path style="fill:#F5F5F5;" d="M75.8,209.6L71,223.9L55.9,224c-1.5,0-2.1,1.9-0.9,2.7l12.2,9l-4.6,14.4c-0.4,1.4,1.1,2.5,2.3,1.7   l12.3-8.8l12.3,8.8c1.2,0.8,2.8-0.3,2.3-1.7l-4.6-14.4l12.2-9c1.2-0.9,0.6-2.7-0.9-2.7l-15.1-0.1l-4.8-14.3   C78.2,208.2,76.2,208.2,75.8,209.6z"/>
	<path style="fill:#F5F5F5;" d="M178.8,209.6l-4.8,14.3l-15.1,0.1c-1.5,0-2.1,1.9-0.9,2.7l12.2,9l-4.6,14.4   c-0.4,1.4,1.1,2.5,2.3,1.7l12.3-8.8l12.3,8.8c1.2,0.8,2.8-0.3,2.3-1.7l-4.6-14.4l12.2-9c1.2-0.9,0.6-2.7-0.9-2.7l-15.1-0.1   l-4.8-14.3C181.2,208.2,179.3,208.2,178.8,209.6z"/>
	<path style="fill:#F5F5F5;" d="M127.3,147.1l-4.8,14.3l-15.1,0.1c-1.5,0-2.1,1.9-0.9,2.7l12.2,9l-4.6,14.4   c-0.4,1.4,1.1,2.5,2.3,1.7l12.3-8.8l12.3,8.8c1.2,0.8,2.8-0.3,2.3-1.7l-4.6-14.4l12.2-9c1.2-0.9,0.6-2.7-0.9-2.7l-15.1-0.1   l-4.8-14.3C129.7,145.8,127.8,145.8,127.3,147.1z"/>
	<path style="fill:#F5F5F5;" d="M127.3,300.7l-4.8,14.3l-15.1,0.1c-1.5,0-2.1,1.9-0.9,2.7l12.2,9l-4.6,14.4   c-0.4,1.4,1.1,2.5,2.3,1.7l12.3-8.8L141,343c1.2,0.8,2.8-0.3,2.3-1.7l-4.6-14.4l12.2-9c1.2-0.9,0.6-2.7-0.9-2.7l-15.1-0.1   l-4.8-14.3C129.7,299.4,127.8,299.4,127.3,300.7z"/>
	<path style="fill:#F5F5F5;" d="M151.3,263.3l-2.5,7.6l-8,0.1c-0.8,0-1.1,1-0.5,1.4l6.5,4.8l-2.4,7.7c-0.2,0.7,0.6,1.3,1.2,0.9   l6.5-4.7l6.5,4.7c0.6,0.4,1.5-0.2,1.2-0.9l-2.4-7.7l6.5-4.8c0.6-0.5,0.3-1.4-0.5-1.4l-8-0.1l-2.5-7.6   C152.6,262.6,151.6,262.6,151.3,263.3z"/>
</g>
<path style="fill:#FFE15A;" d="M441.5,207.7c-1.2-9.5-5.3-18.8-8.2-24.6c1.5,0.7,3.7,2,3.7,2l-2-7.2c5,2,8.7,5.9,8.7,5.9  c-2.5-12.5-6.4-18.3-6.4-18.3l3.1,1.1c-5.9-14.5-14.6-18.6-14.6-18.6l5-1.2c-7.3-9.2-17.7-12.3-17.7-12.3l6.7-3.2  c-17.8-10.1-35,0.5-35,0.5s6-6.2,8.2-8.8c2.2-2.6-3.1-3.5-3.1-3.5s5.2-3.6,5-5.7s-5-1-5-1s4.1-4.2,4.1-6.6s-4.2-0.9-4.2-0.9  s1.4-2.9,1.7-5.1c0.4-2.2-3.7-0.4-3.7-0.4s4.6-8.2,4.4-10c-0.2-1.7-12.1,5.6-20.6,13.7s-7.5,21.1-6.7,24.2  c0.8,3.1,1.2,10.3-2.5,12.9c-3.8,2.5-10.4-3.7-13.8-7.5c-3.3-3.8-7.5-2.5-11.8-1s-12.5-0.5-14.9-0.8c-2.5-0.3,2.8,2.5,7.3,4.2  s6.5,5.6,12.8,8c5.5,2,10,7.2,5.6,9.6c-3.4,1.9-3.4-1.1-18.3-5s-32.9,34.1-32.9,34.1c9.6-1.2,14.5-6.9,14.5-6.9l-2.6,7.4  c7.1-1.3,10.6-5.7,10.6-5.7l-1.9,7.5c5.4-1.7,9.2-7.5,9.2-7.5l-1.6,7.4c5.3-2.5,8.2-7.4,8.2-7.4c0.6,2.7,1,8.3,1,8.3  c8.3-4.4,10.2-10.7,10.2-10.7c9.5,28.7,23.2,33.4,23.2,33.4l0.7-7.5c4.2,6,10.2,9,10.2,9l-1-6.5c14.7,17.9,31.6,22.4,31.6,22.4  l-4.3-9.9l5.3,1.1c-5.7-4.9-7.8-13.3-7.8-13.3l4.5,0.7c-7.2-6.6-10.8-14.2-10.8-14.2l4.4,0.7c-1.4-2.1-2.5-9.6-2.5-9.6  c8,2.5,12.1,5.6,12.1,5.6l0.5-2.7c6.8,4.9,18.1,14.1,25.9,25.6c0,3.8-0.6,7.6-2.2,11.4c-7.1,17.4-25.9,16.3-34.2,12.6  c0,0,25.7,20.1,39.9-8.5c0.9-1.8,1.5-3.7,1.9-5.7c1.8,4.2,3,8.6,3.2,13.1c1.5,29.2-28.9,26.4-28.9,26.4s33.6,13.5,35.1-25.4  C451,224.6,447.4,216,441.5,207.7z M410.9,178.6l0.1-0.8c5.1,1.5,10.5,5.1,10.5,5.1l1.2-3.6c5.1,6.1,9.1,12.6,11.3,19.4  C427.2,191.4,419.1,184.6,410.9,178.6z"/>
<path style="fill:#2E3033;" d="M19.2,488.7L19.2,488.7C8.6,488.7,0,480.1,0,469.6V42.3c0-10.5,8.5-19,19-19h0.2  c10.6,0,19.2,8.6,19.2,19.2v427.1C38.3,480.1,29.8,488.7,19.2,488.7z"/>
<g>
</g>
<g>
</g>
<g>
</g>
<g>
</g>
<g>
</g>
<g>
</g>
<g>
</g>
<g>
</g>
<g>
</g>
<g>
</g>
<g>
</g>
<g>
</g>
<g>
</g>
<g>
</g>
<g>
</g>
</svg>
