<?xml version="1.0" encoding="iso-8859-1"?>
<!-- Generator: Adobe Illustrator 19.0.0, SVG Export Plug-In . SVG Version: 6.00 Build 0)  -->
<svg xmlns="http://www.w3.org/2000/svg" xmlns:xlink="http://www.w3.org/1999/xlink" version="1.1" id="Layer_1" x="0px" y="0px" viewBox="0 0 512.001 512.001" style="enable-background:new 0 0 512.001 512.001;" xml:space="preserve">
<path style="fill:#F5F5F5;" d="M30.512,372.135l239.203-156.719L30.512,58.697c-1.841,1.533-3.082,3.753-3.082,6.335V365.8  C27.43,368.383,28.671,370.603,30.512,372.135z"/>
<path style="fill:#FF4B55;" d="M30.512,372.135c1.449,1.206,3.241,2.019,5.273,2.019h467.861c4.615,0,8.355-3.741,8.355-8.355  V215.417H269.715L30.512,372.135z"/>
<path style="fill:#41479B;" d="M30.512,58.697c1.449-1.206,3.241-2.019,5.273-2.019h467.861c4.615,0,8.355,3.741,8.355,8.355  v150.384H269.715L30.512,58.697z"/>
<g>
	<path style="fill:#FFE15A;" d="M142.22,213.213c1.319,16.73-12.539,30.588-29.269,29.269   c-13.161-1.038-23.824-11.701-24.862-24.862c-1.319-16.73,12.539-30.588,29.269-29.269   C130.519,189.389,141.182,200.052,142.22,213.213z"/>
	<polygon style="fill:#FFE15A;" points="115.154,215.417 104.972,174.687 115.154,161.111 125.337,174.687  "/>
	<polygon style="fill:#FFE15A;" points="115.154,215.417 125.337,256.145 115.154,269.722 104.972,256.145  "/>
	<polygon style="fill:#FFE15A;" points="115.154,215.417 74.425,225.598 60.848,215.417 74.425,205.234  "/>
	<polygon style="fill:#FFE15A;" points="115.154,215.417 155.883,205.234 169.459,215.417 155.883,225.598  "/>
	<polygon style="fill:#FFE15A;" points="115.154,215.417 136.754,179.417 153.554,177.017 151.154,193.816  "/>
	<polygon style="fill:#FFE15A;" points="115.154,215.417 93.555,251.415 76.755,253.816 79.154,237.016  "/>
	<polygon style="fill:#FFE15A;" points="115.154,215.417 79.154,193.816 76.755,177.017 93.555,179.417  "/>
	<polygon style="fill:#FFE15A;" points="115.154,215.417 151.154,237.016 153.554,253.816 136.754,251.415  "/>
	<path style="fill:#FFE15A;" d="M49.82,97.77l1.416,10.563l-9.535,4.759c-1.234,0.616-0.975,2.449,0.383,2.698l10.484,1.917   l1.579,10.539c0.205,1.364,2.028,1.684,2.684,0.469l5.063-9.377l10.511,1.754c1.361,0.227,2.228-1.408,1.276-2.408l-7.353-7.713   l4.917-9.455c0.636-1.224-0.651-2.554-1.895-1.957l-9.608,4.61l-7.473-7.598C51.301,95.589,49.638,96.403,49.82,97.77z"/>
	<path style="fill:#FFE15A;" d="M54.026,303.345l-1.788,10.506l-10.519,1.709c-1.362,0.222-1.658,2.049-0.437,2.689l9.439,4.948   l-1.626,10.532c-0.211,1.364,1.436,2.21,2.422,1.246l7.622-7.448l9.515,4.8c1.232,0.621,2.546-0.683,1.934-1.919l-4.729-9.551   l7.505-7.565c0.972-0.979,0.137-2.632-1.228-2.432l-10.544,1.546l-4.876-9.476C56.087,301.702,54.258,301.985,54.026,303.345z"/>
	<path style="fill:#FFE15A;" d="M219.304,199.852l-6.133,8.715l-10.231-2.981c-1.325-0.386-2.378,1.136-1.551,2.24l6.393,8.527   l-5.998,8.809c-0.776,1.14,0.346,2.613,1.651,2.167l10.085-3.446l6.525,8.426c0.845,1.091,2.592,0.479,2.571-0.901l-0.16-10.656   l10.03-3.602c1.299-0.466,1.257-2.317-0.062-2.724l-10.184-3.14l-0.326-10.652C221.871,199.255,220.097,198.723,219.304,199.852z"/>
</g>
<path style="fill:#2E3033;" d="M19.122,488.1L19.122,488.1C8.561,488.1,0,479.539,0,468.979V42.864C0,32.39,8.491,23.9,18.965,23.9  h0.157c10.561,0,19.122,8.561,19.122,19.122V468.98C38.244,479.539,29.683,488.1,19.122,488.1z"/>
<g>
</g>
<g>
</g>
<g>
</g>
<g>
</g>
<g>
</g>
<g>
</g>
<g>
</g>
<g>
</g>
<g>
</g>
<g>
</g>
<g>
</g>
<g>
</g>
<g>
</g>
<g>
</g>
<g>
</g>
</svg>
