<?xml version="1.0" encoding="iso-8859-1"?>
<!-- Generator: Adobe Illustrator 19.0.0, SVG Export Plug-In . SVG Version: 6.00 Build 0)  -->
<svg xmlns="http://www.w3.org/2000/svg" xmlns:xlink="http://www.w3.org/1999/xlink" version="1.1" id="Layer_1" x="0px" y="0px" viewBox="0 0 512 512" style="enable-background:new 0 0 512 512;" xml:space="preserve">
<path style="fill:#73AF00;" d="M503.56,374.155H152.75V56.677h350.81c4.661,0,8.44,3.779,8.44,8.44v300.597  C512,370.376,508.222,374.155,503.56,374.155z"/>
<g>
	<path style="fill:#F5F5F5;" d="M152.75,374.155H35.87c-4.661,0-8.44-3.779-8.44-8.44V65.118c0-4.661,3.779-8.44,8.44-8.44h116.88   V374.155L152.75,374.155z"/>
	<path style="fill:#F5F5F5;" d="M417.407,259.13c-38.456,34.258-97.323,30.736-131.512-7.787   c-34.123-38.453-30.669-97.491,7.785-131.747c0.056-0.05,0.112-0.099,0.169-0.149c0.908-0.8,0.031-2.249-1.097-1.81   c-37.923,14.768-64.81,51.655-64.81,94.845c0,56.259,45.496,101.824,101.621,101.824c38.825,0,72.471-21.846,89.564-53.917   c0.571-1.07-0.767-2.112-1.67-1.303C417.44,259.101,417.424,259.115,417.407,259.13z"/>
	<path style="fill:#F5F5F5;" d="M367.942,136.475l13.364,14.993l18.512-7.79c2.397-1.009,4.698,1.614,3.387,3.859l-10.129,17.342   l13.13,15.198c1.7,1.968-0.083,4.967-2.624,4.413l-19.624-4.275l-10.397,17.183c-1.346,2.225-4.75,1.456-5.008-1.132l-1.998-19.984   l-19.556-4.579c-2.532-0.593-2.852-4.067-0.472-5.113l18.389-8.076l-1.689-20.012C363.007,135.911,366.212,134.534,367.942,136.475   z"/>
</g>
<path style="fill:#2E3033;" d="M19.122,488.1L19.122,488.1C8.561,488.1,0,479.539,0,468.979V42.864C0,32.39,8.491,23.9,18.965,23.9  h0.157c10.561,0,19.122,8.561,19.122,19.122V468.98C38.244,479.539,29.683,488.1,19.122,488.1z"/>
<g>
</g>
<g>
</g>
<g>
</g>
<g>
</g>
<g>
</g>
<g>
</g>
<g>
</g>
<g>
</g>
<g>
</g>
<g>
</g>
<g>
</g>
<g>
</g>
<g>
</g>
<g>
</g>
<g>
</g>
</svg>
