<?xml version="1.0" encoding="iso-8859-1"?>
<!-- Generator: Adobe Illustrator 19.0.0, SVG Export Plug-In . SVG Version: 6.00 Build 0)  -->
<svg xmlns="http://www.w3.org/2000/svg" xmlns:xlink="http://www.w3.org/1999/xlink" version="1.1" id="Layer_1" x="0px" y="0px" viewBox="0 0 512.2 512.2" style="enable-background:new 0 0 512.2 512.2;" xml:space="preserve">
<path style="fill:#FF4B55;" d="M27.2,215.1h485v150.4c0,4.7-3.8,8.4-8.4,8.4H35.7c-4.7,0-8.4-3.8-8.4-8.4V215.1H27.2z"/>
<path style="fill:#F5F5F5;" d="M512.2,215.1h-485V64.7c0-4.7,3.8-8.4,8.4-8.4h468.1c4.7,0,8.4,3.8,8.4,8.4v150.4L512.2,215.1  L512.2,215.1z"/>
<path style="fill:#2E3033;" d="M19.1,488.2L19.1,488.2C8.6,488.2,0,479.6,0,469.1V43c0-10.5,8.5-19,19-19h0.2  c10.6,0,19.1,8.6,19.1,19.1v426C38.2,479.6,29.7,488.2,19.1,488.2z"/>
<g>
</g>
<g>
</g>
<g>
</g>
<g>
</g>
<g>
</g>
<g>
</g>
<g>
</g>
<g>
</g>
<g>
</g>
<g>
</g>
<g>
</g>
<g>
</g>
<g>
</g>
<g>
</g>
<g>
</g>
</svg>
