<?xml version="1.0" encoding="iso-8859-1"?>
<!-- Generator: Adobe Illustrator 19.0.0, SVG Export Plug-In . SVG Version: 6.00 Build 0)  -->
<svg xmlns="http://www.w3.org/2000/svg" xmlns:xlink="http://www.w3.org/1999/xlink" version="1.1" id="Layer_1" x="0px" y="0px" viewBox="0 0 512.1 512.1" style="enable-background:new 0 0 512.1 512.1;" xml:space="preserve">
<path style="fill:#41479B;" d="M503.6,373.9H35.4c-4.6,0-8.4-3.7-8.4-8.4v-301c0-4.6,3.7-8.4,8.4-8.4h468.3c4.6,0,8.4,3.7,8.4,8.4  v301C512,370.1,508.3,373.9,503.6,373.9z"/>
<path style="fill:#F5F5F5;" d="M265.1,56.1h-14.5l-77.5,50.7V56.1h-41.8v50.7L53.8,56.1H39.3c-4.6,0-8.4,3.7-8.4,8.4v6.6l66.5,43.5  H31v41.8h66.5L31,200v6.6c0,4.6,3.7,8.4,8.4,8.4h14.5l77.5-50.7V215h41.8v-50.7l77.5,50.7h14.5c4.6,0,8.4-3.7,8.4-8.4V200L207,156.5  h66.5v-41.8H207l66.5-43.5v-6.6C273.5,59.9,269.7,56.1,265.1,56.1z"/>
<g>
	<polygon style="fill:#FF4B55;" points="273.5,123 164.8,123 164.8,56.1 139.7,56.1 139.7,123 31,123 31,148.1 139.7,148.1    139.7,215 164.8,215 164.8,148.1 273.5,148.1  "/>
	<path style="fill:#FF4B55;" d="M122.9,114.7l-88-57.1c-2.3,1.5-4,4-4,6.9v0.4l76.6,49.7C107.6,114.7,122.9,114.7,122.9,114.7z"/>
	<path style="fill:#FF4B55;" d="M188.5,114.7l83.7-54.3c-1.5-2.5-4-4.2-7.1-4.2h-1.8l-90.2,58.5H188.5z"/>
	<path style="fill:#FF4B55;" d="M115.7,156.5l-83.6,54.2c1.4,2.5,4,4.3,7.2,4.3h1.6l90.2-58.5H115.7z"/>
	<path style="fill:#FF4B55;" d="M273.3,207.3L195,156.5h-15.4l88.9,57.7C271.2,213,273.1,210.4,273.3,207.3z"/>
</g>
<g>
	<path style="fill:#73AF00;" d="M393.8,140.5c-0.2,0-0.4-0.1-0.5-0.2c-0.1-0.1-13.1-10.2-5.5-27.4c0.2-0.5,0.7-0.7,1.2-0.5   s0.7,0.7,0.5,1.2c-7.1,15.8,4.4,24.8,4.9,25.2c0.4,0.3,0.5,0.9,0.2,1.3C394.3,140.4,394.1,140.5,393.8,140.5z"/>
	<path style="fill:#73AF00;" d="M386.3,125.7h-0.1c-0.5-0.1-0.8-0.5-0.8-1c0.4-3.2,1.6-5.5,3.6-6.7c3.3-2,7.4-0.4,7.5-0.3   c0.5,0.2,0.7,0.7,0.5,1.2s-0.7,0.7-1.2,0.5c0,0-3.4-1.3-5.9,0.2c-1.5,0.9-2.4,2.7-2.8,5.4C387.2,125.4,386.8,125.7,386.3,125.7z"/>
	<path style="fill:#73AF00;" d="M388.8,114.1c-0.1-0.2-2-4.8-10.8-2.9c-10,2.2-10.1,15.4-10.1,15.5c0,0.5,0.3,0.8,0.8,0.9h0.1   c0.4,0,0.8-0.3,0.9-0.7c3.7-14.2,17.6-11.8,18.2-11.7c0.3,0.1,0.7-0.1,0.9-0.3C388.8,114.7,388.9,114.4,388.8,114.1z"/>
	<path style="fill:#73AF00;" d="M386.7,121.4c0,0-6-3.8-8.5,1.1s-0.6,10.1,0.4,12.3c0,0,3.6-4,7-4.5c4.2-0.7,5.3-5.9,2.3-8.6   C384.4,118.5,386.7,121.4,386.7,121.4z"/>
	<path style="fill:#73AF00;" d="M393.3,112.4c-0.1,5.3,2.8,6,2.8,6C398,113.6,393.3,112.4,393.3,112.4z"/>
	<path style="fill:#73AF00;" d="M392.3,123.5c0-5,3.4-5.6,3.4-5.6C397.8,122.6,392.3,123.5,392.3,123.5z"/>
</g>
<path style="fill:#FF4B55;" d="M411.9,119.5c0,0-4.8-0.7-6.6-1.6c-1.5-0.7-3.5-2.5-6.1-2.1c-2,0-3.6,1.6-3.6,3.6s1.4,4.3,8.4,3.8  c3.4-0.3,6.4,1.3,6.4,1.3C409.9,122.6,411.9,119.5,411.9,119.5z"/>
<path style="fill:#FFE15A;" d="M406.9,121c0,0-7.3,0.5-9-0.7c-1.5-1.1-1.1-2.8,0.4-3C400.7,117.1,406.9,121,406.9,121z"/>
<path style="fill:#B49B91;" d="M421.2,129.3L405,139.5l-1.9-1.8l8.9-8.6l2.1,0.8l2-2.7l-4.8-2.5c0,0-12.9,12.1-23.8,13.1  c-3.7,0.3-7.4,0.1-10.4-1.1l-6.6,9.4l13.8,11.7l20.2-0.8l16.7-22.7l2.9,1.4l2.5-2.9L421.2,129.3z"/>
<path style="fill:#9B8278;" d="M375.9,156.7c-4.5,0-8.2-3.7-8.2-8.2s3.7-8.2,8.2-8.2s8.2,3.7,8.2,8.2S380.5,156.7,375.9,156.7z   M375.9,143c-3,0-5.5,2.5-5.5,5.5s2.5,5.5,5.5,5.5s5.5-2.5,5.5-5.5S379,143,375.9,143z"/>
<g>
	<path style="fill:#73AF00;" d="M410.1,164.3c0,0,1.5-1,3-5.6l-3.1,0.5c0,0,0.6-2.6-0.1-4.4l-3.5,2.7c0,0-1.6-3.3-2.3-3.8   c0,0-2.4,3.4-3.8,3.8c0,0-1.4-4.9-2.7-5.9l-2.3,3.3l-3.5-2.7c0,0,0,2.3-0.1,2.9c-0.1,0.5-4.5-4.7-4.5-4.7s-2,0.8-4.6,5l-3.3-3.4   l-1.4,4.4l-4.6-1.2l0.8,2.6l-4-0.3c0,0,0.7,3.9,2.6,5.3L410.1,164.3z"/>
	<path style="fill:#73AF00;" d="M370.2,181c0,0-12.4,15.8-35.9,14l25.5,3.5l13.1-12.4L370.2,181z"/>
</g>
<g>
	<path style="fill:#FFE15A;" d="M329.7,192.6c2.5,1.8,17.8,6.2,28.9,0.9c0,0,0.2,2.6-1,4.1c0,0,8.1-3.3,12.5-9.4   c4.4-6.1-9.1,13.1-9.1,13.1l-20.7,3.8l-8.5-7L329.7,192.6z"/>
	<path style="fill:#FFE15A;" d="M328.1,135.8c-2.8,0.2-5.7,1.9-7.3,3.9c-0.8-0.4-2.7-0.5-4.2,0.5c-2,1.4-5.8,6.3-9,5   c0,0-0.3,4.6,4.6,4.5c0,0-1.2,1.9-1,5c0.2,3-2,5.1-2,5.1s9.9,1.4,10.3-6.3c0-0.9,0.1-1.8,0.1-2.5c5.2,2.8,7.2-1.2,7.2-1.2   s-3.1-2.9,0.1-7.1c3.2-4.2,11.9,5.7,11.9,5.7C339.1,144.2,338.8,134.9,328.1,135.8z"/>
</g>
<g>
	<path style="fill:#73AF00;" d="M366.5,161.8c0,0-2.9,2-11.7,0.2c0,0,2-4.4,1.1-6.9c0,0-2.4,2.3-8.3,4.5   c-5.9,2.3-13.1,9.5-15.2,14.1c0,0,13.2-30.4,2.6-33.5c-3.6-1.1-6.8,0.7-7.9,2.3c0.5,0.6,1,1.5,1.1,2.7c0.1,2.6-2.5,20.1-6.3,32.1   c0,0-1.1-4.2-2.9-6.2s-3.2-5.3-3.2-5.3s-3,2-2.6,5.7c0,0-1.7-1.4-5-0.5s-4.5-1.2-4.5-1.2s-2.7,7.2,5.3,10.9c0,0-2.1,1-3.2,1.8   c-1,0.8-2.6,0.8-2.6,0.8s2.8,5.2,8.8,5.7c6,0.6,8.7,2.3,10.6,5.3c6.1,10,17.7,17.5,36.8,5.9c0,0-27.1,8.4-28.3-8.9   c-1.1-15.1,15.5-18.2,17.1-14.9c1.7,3.3-0.2,6.2-0.2,6.2s9-2.1,4.7-10.4C352.8,172.5,361.7,173.8,366.5,161.8z"/>
	<path style="fill:#73AF00;" d="M453.3,192.6c-2.5,1.8-18.2,8.6-29-2.3c-10.8-10.8-15-27.1-14.4-25.3h-10.8l3.6,32.5l40.1,7.6l8.5-7   L453.3,192.6z"/>
	<path style="fill:#73AF00;" d="M454.9,135.8c2.8,0.2,5.7,1.9,7.3,3.9c0.8-0.4,2.7-0.5,4.2,0.5c2,1.4,5.8,6.3,9,5   c0,0,0.3,4.6-4.6,4.5c0,0,1.2,1.9,1,5c-0.2,3,2,5.1,2,5.1s-9.9,1.4-10.3-6.3c0-0.9-0.1-1.8-0.1-2.5c-5.2,2.8-7.2-1.2-7.2-1.2   s3.1-2.9-0.1-7.1c-3.2-4.2-11.9,5.7-11.9,5.7C444,144.2,444.3,134.9,454.9,135.8z"/>
</g>
<path style="fill:#FFE15A;" d="M416.6,161.8c0,0,2.9,2,11.7,0.2c0,0-2-4.4-1.1-6.9c0,0,2.4,2.3,8.3,4.5s13.1,9.5,15.2,14.1  c0,0-13.2-30.4-2.6-33.5c3.6-1.1,6.8,0.7,7.9,2.3c-0.5,0.6-1,1.5-1.1,2.7c-0.1,2.6,2.5,20.1,6.3,32.1c0,0,1.1-4.2,2.9-6.2  s3.2-5.3,3.2-5.3s3,2,2.6,5.7c0,0,1.7-1.4,5-0.5s4.5-1.2,4.5-1.2s2.7,7.2-5.3,10.9c0,0,2.1,1,3.2,1.8c1,0.8,2.6,0.8,2.6,0.8  s-2.8,5.2-8.8,5.7c-6,0.6-8.7,2.3-10.6,5.3c-6.1,10-17.7,17.5-36.8,5.9c0,0,27.1,8.4,28.3-8.9c1.1-15.1-15.5-18.2-17.1-14.9  c-1.7,3.3,0.2,6.2,0.2,6.2s-9-2.1-4.7-10.4C430.3,172.5,421.4,173.8,416.6,161.8z"/>
<g>
	<path style="fill:#73AF00;" d="M408.9,187c4.4,6.5,10.6,12.3,28.5,17.9s22.7,6.4,32,14c0,0,1.8,1.9,2.5,4.9   c0.8,3.5-4.7,13.8-4.7,13.8s0.5-2.4-2.8-7.1c-3.3-4.7-22.9-13.1-33.1-15.6c-10.2-2.6-27.9-14.4-23-23.3L408.9,187z"/>
	<path style="fill:#73AF00;" d="M469.4,218.9C469.5,218.9,469.5,218.9,469.4,218.9C469.5,218.9,469.4,218.9,469.4,218.9L469.4,218.9   z"/>
</g>
<g>
	<path style="fill:#FFE15A;" d="M469,240.9c0,0,0.5,3.3-2.3,6.1c-2.7,2.8-4.6,4.8-4.5,7.2c0,0-4.1-2.9-3.4-9.5c0,0-5.3,4.4-13.3,0.1   c0,0,0.8-8,11.2-9c0,0-4.1-3.2,1.2-8c0,0,0.6,2.2,5.4,3.3c4.2,1,11.6-4.3,6.1-12.1C478.9,229.6,474.1,236.9,469,240.9z"/>
	<path style="fill:#FFE15A;" d="M405.1,181.1c0,0,2.3,3.7,8.2,7.4c7.1,4.4,7.8,6.4,7.8,6.4l-4.8-0.1c0,0,6.2,3.4,7.9,7.7   c0,0-2.6,0.5-5.5-0.3c0,0,2.4,2.1,1.2,9h-12.1L405.1,181.1z"/>
</g>
<path style="fill:#73AF00;" d="M381,212v-28.9c0,0-9.8,16.8-18.3,28.9H381z"/>
<path style="fill:#FFE15A;" d="M372.6,182.5c-2.4,4.4-9.9,18.7-27.8,24.3s-21.2,4.5-30.5,12.1c0,0-1.8,1.9-2.5,4.9  c-0.8,3.5,4.7,13.8,4.7,13.8s-0.5-2.4,2.8-7.1c3.3-4.7,22.7-13.6,33.1-15.6c14.3-2.9,27.2-18.2,25.1-28.1  C375.3,176.8,372.6,182.5,372.6,182.5z"/>
<g>
	<path style="fill:#73AF00;" d="M314.3,218.9L314.3,218.9L314.3,218.9L314.3,218.9z"/>
	<path style="fill:#73AF00;" d="M314.7,240.9c0,0-0.5,3.3,2.3,6.1c2.7,2.8,4.6,4.8,4.5,7.2c0,0,4.1-2.9,3.4-9.5   c0,0,5.3,4.4,13.3,0.1c0,0-0.8-8-11.2-9c0,0,4.1-3.2-1.2-8c0,0-0.6,2.2-5.4,3.3c-4.2,1-11.6-4.3-6.1-12.1   C304.8,229.6,309.7,236.9,314.7,240.9z"/>
</g>
<path style="fill:#FFE15A;" d="M339.7,289c0,0,2.6,11.5,2.7,23.4c0,0,11.2,0.4,16.6-8c0,0-10.8-5.6-16.6-16.5L339.7,289z"/>
<path style="fill:#73AF00;" d="M337.3,263.6c-0.5-5.4,2-19.1,12.9-29l0.3-12.2c0,0-3.3,0.3-6.2,2.9l-6.2,9.6l-5.7,21.8L337.3,263.6z  "/>
<path style="fill:#FFE15A;" d="M337.6,267.5c0,0,0,11.6,4.8,20.3l-2.7,1.2c0,0-9.7-7.6-11.7-23.3c0,0-8.7,5.7-11.9-6  c0,0,9.3,3.8,12.3-4.8c2.7-7.7,5.5-21.8,15.9-29.6c-5,7.6-12.4,27.2-6.7,34.1c1.5,1.8,5.9,3.4,10.8,1.3  C348.1,264.5,346.3,270.4,337.6,267.5z"/>
<path style="fill:#FFCE5A;" d="M339,291l-1.6-2.9c-0.3-0.5-0.1-1.1,0.4-1.4l2.9-1.6c0.5-0.3,1.1-0.1,1.4,0.4l1.6,2.9  c0.3,0.5,0.1,1.1-0.4,1.4l-2.9,1.6C339.9,291.7,339.3,291.5,339,291z"/>
<g>
	<path style="fill:#FFE15A;" d="M436.8,289c0,0-2.6,11.5-2.7,23.4c0,0-11.2,0.4-16.6-8c0,0,10.8-5.6,16.6-16.5L436.8,289z"/>
	<path style="fill:#FFE15A;" d="M439.2,263.6c0.5-5.4-2-19.1-12.9-29l-0.3-12.2c0,0,3.3,0.3,6.2,2.9l6.2,9.6l5.7,21.8L439.2,263.6z"/>
</g>
<path style="fill:#73AF00;" d="M428.1,260.7c4.8,2.1,9.2,0.5,10.8-1.3c5.8-6.9-1.7-26.4-6.7-34.1c10.4,7.8,13.2,21.8,15.9,29.6  c3,8.6,12.3,4.8,12.3,4.8c-3.2,11.8-11.9,6-11.9,6c-2,15.7-11.7,23.3-11.7,23.3l-2.7-1.2c4.8-8.7,4.8-20.3,4.8-20.3  C430.2,270.4,428.4,264.5,428.1,260.7z"/>
<path style="fill:#FFCE5A;" d="M437.5,291l1.6-2.9c0.3-0.5,0.1-1.1-0.4-1.4l-2.9-1.6c-0.5-0.3-1.1-0.1-1.4,0.4l-1.6,2.9  c-0.3,0.5-0.1,1.1,0.4,1.4l2.9,1.6C436.6,291.7,437.2,291.5,437.5,291z"/>
<path style="fill:#4173CD;" d="M352.2,208.4c-2,0-3.6,1.6-3.6,3.6v39.7c0,10.8,3.6,50.5,39.7,64.9c36.1-14.4,39.7-54.1,39.7-64.9  V212c0-2-1.6-3.6-3.6-3.6H352.2z"/>
<path style="fill:#FFE15A;" d="M386.1,208.4L351.9,274c0.9,3,1.9,6.2,3.3,9.3l33.1-63.5l33.1,63.5c1.3-3.2,2.4-6.3,3.3-9.3  l-34.2-65.6H386.1L386.1,208.4z"/>
<path style="fill:#73AF00;" d="M421.4,283.3l-33.1-63.5l-33.1,63.5l0,0c5.5,12.9,15.3,26.2,33.1,33.3  C406.1,309.5,415.9,296.2,421.4,283.3L421.4,283.3z"/>
<path style="fill:#FFE15A;" d="M401.7,287.4l2.2,1c-0.9,1.4-2.8,3.5-6.5,5.5c-2.8,1.5-5.4,3.3-7.3,4.6v-29.8l9-0.9v-3.6l-9-0.9v-4.5  c0-1-0.8-1.8-1.8-1.8c-0.8,0-1.5,0.6-1.7,1.4c-0.6-0.4-1.3-0.7-2.1-0.7c-2,0-3.7,1.6-3.7,3.7c0,1,0.4,1.8,1,2.5l-4.3,0.4v3.6l9,0.9  v29.8c-1.9-1.4-4.6-3.1-7.3-4.6c-3.6-2-5.5-4.2-6.5-5.5l2.2-1l-8.2-10.5v14.4l2.8-1.3c1.1,1.8,3.4,4.6,8,7.1  c3.8,2.1,7.6,4.8,9.1,5.9l1.8,1.4l1.8-1.4c1.5-1.1,5.2-3.8,9.1-5.9c4.6-2.5,6.9-5.4,8-7.1l2.8,1.3V277L401.7,287.4z M384.5,263.3  c-1,0-1.9-0.8-1.9-1.9c0-1,0.8-1.9,1.9-1.9s1.9,0.8,1.9,1.9C386.3,262.4,385.5,263.3,384.5,263.3z"/>
<path style="fill:#F5F5F5;" d="M391.1,255.3h-5.6c-1.4,0-2.6-1.2-2.6-2.6v-9.2c0-1.4,1.2-2.6,2.6-2.6h5.6c1.4,0,2.6,1.2,2.6,2.6v9.2  C393.7,254.1,392.5,255.3,391.1,255.3z"/>
<path style="fill:#B49B91;" d="M413.5,208.4c-7.2-10.8-7.2-32.5-7.2-32.5s0-14.4-18-14.4c-9.1,0-13.6,3.7-15.9,7.4  c-8.7,3.5-13,10.7-13,10.7c3.7,1.8,7,2.7,9.9,3c5.9,7,7.8,13.8,8.4,18.6c-3.4,3.5-5.3,11.8-0.2,18.1c0,0,10.7-2.5,19.7-10.8  L413.5,208.4L413.5,208.4z"/>
<g>
	<path style="fill:#9B8278;" d="M397.1,208.4h13.5C409.9,201.7,403.4,202.8,397.1,208.4z"/>
	<path style="fill:#9B8278;" d="M410.3,201.6c-3.9-11.2-3.9-25.7-3.9-25.7s0-0.2,0-0.6c-4.7-0.6-9.5-0.3-18.9,3.3   c-10,3.9-14.9,4-18.1,3.9c5.9,7,7.8,13.8,8.4,18.6l0.1,7.7c0,0,5.6,0.8,18-6.3C402,198.9,407.3,198.6,410.3,201.6z"/>
	<path style="fill:#9B8278;" d="M391,174.3c7.3-1.8,12-1.6,15-0.6c-0.8-4-4.1-12.3-17.8-12.3c-9.1,0-13.6,3.7-15.9,7.4l-5.5,7.7   C366.9,176.5,373.8,178.7,391,174.3z"/>
</g>
<path style="fill:#FFE15A;" d="M376.3,159.9c0.7,0.7,2.8,5.8,2.4,6.6c-0.3,0.5-5.9,1.9-6.8,1.2c-0.8-0.6-1.8-6.1-1.2-6.8  C371.2,160.3,375.7,159.3,376.3,159.9z"/>
<path style="fill:#73AF00;" d="M383.6,159.6c0.7,0.8,2.1,5.7,1.6,6.4c-0.4,0.4-6.7,0.9-7.5,0.1c-0.8-0.7-1-5.9-0.3-6.4  C378,159.3,383.1,159,383.6,159.6z"/>
<path style="fill:#FFE15A;" d="M390.5,159.4c0.7,0.7,2.2,5.4,1.6,6c-0.4,0.4-6.9,0.8-7.8,0.1c-0.8-0.7-1-5.5-0.3-6  C384.6,159.1,389.9,158.9,390.5,159.4z"/>
<g>
	<path style="fill:#73AF00;" d="M397.5,159.8c0.6,0.8,1.7,5.7,1.1,6.3c-0.4,0.4-6.7,0.4-7.5-0.4c-0.7-0.7-0.5-5.8,0.2-6.2   C391.9,159,397,159.1,397.5,159.8z"/>
	<path style="fill:#73AF00;" d="M411.9,162.8c0.5,0.9,0.4,5.4-0.3,5.9c-0.5,0.3-6.1-0.7-6.8-1.7c-0.6-0.8,0.4-5.8,1.2-6.1   C406.7,160.6,411.5,162,411.9,162.8z"/>
</g>
<path style="fill:#FFE15A;" d="M405.2,160.8c0.6,0.8,1,5.4,0.3,5.9c-0.4,0.3-6.9-0.2-7.7-1.1c-0.7-0.8-0.2-5.5,0.6-5.8  C399.1,159.4,404.8,160.1,405.2,160.8z"/>
<circle style="fill:#9B8278;" cx="375.9" cy="148.5" r="2.5"/>
<path style="fill:#2E3033;" d="M19.2,489.1L19.2,489.1C8.6,489.1,0,480.5,0,469.9V42c0-10.5,8.5-19,19-19h0.2  c10.6,0,19.2,8.6,19.2,19.2v427.7C38.4,480.5,29.8,489.1,19.2,489.1z"/>
<g>
</g>
<g>
</g>
<g>
</g>
<g>
</g>
<g>
</g>
<g>
</g>
<g>
</g>
<g>
</g>
<g>
</g>
<g>
</g>
<g>
</g>
<g>
</g>
<g>
</g>
<g>
</g>
<g>
</g>
</svg>
