<?xml version="1.0" encoding="iso-8859-1"?>
<!-- Generator: Adobe Illustrator 19.0.0, SVG Export Plug-In . SVG Version: 6.00 Build 0)  -->
<svg xmlns="http://www.w3.org/2000/svg" xmlns:xlink="http://www.w3.org/1999/xlink" version="1.1" id="Layer_1" x="0px" y="0px" viewBox="0 0 512 512" style="enable-background:new 0 0 512 512;" xml:space="preserve">
<path style="fill:#FF4B55;" d="M512,119.962H26.68V64.821c0-4.668,3.785-8.453,8.453-8.453h468.414c4.668,0,8.453,3.785,8.453,8.453  V119.962z"/>
<rect x="26.68" y="119.957" style="fill:#F5F5F5;" width="485.32" height="63.6"/>
<g>
	<rect x="26.68" y="183.557" style="fill:#FF4B55;" width="485.32" height="63.6"/>
	<path style="fill:#FF4B55;" d="M503.547,374.337H35.133c-4.668,0-8.453-3.785-8.453-8.453v-55.141H512v55.141   C512,370.552,508.216,374.337,503.547,374.337z"/>
</g>
<rect x="26.68" y="247.147" style="fill:#F5F5F5;" width="485.32" height="63.6"/>
<path style="fill:#41479B;" d="M29.767,372.314l231.61-151.744c3.76-2.463,3.76-7.973,0-10.435L29.767,58.39  c-1.844,1.534-3.086,3.758-3.086,6.345V365.97C26.68,368.556,27.923,370.78,29.767,372.314z"/>
<path style="fill:#F5F5F5;" d="M112.164,176.514l8.732,26.183l27.6,0.213c3.574,0.027,5.055,4.588,2.181,6.711l-22.203,16.396  l8.325,26.316c1.078,3.407-2.801,6.226-5.708,4.147l-22.455-16.05l-22.455,16.05c-2.907,2.078-6.787-0.741-5.709-4.147l8.325-26.316  L66.594,209.62c-2.875-2.123-1.393-6.683,2.181-6.711l27.6-0.213l8.732-26.183C106.239,173.124,111.034,173.124,112.164,176.514z"/>
<path style="fill:#2E3033;" d="M19.152,488.46L19.152,488.46C8.575,488.46,0,479.884,0,469.307V42.534  C0,32.044,8.504,23.54,18.994,23.54h0.157c10.577,0,19.152,8.575,19.152,19.152V469.31C38.303,479.884,29.728,488.46,19.152,488.46z  "/>
<g>
</g>
<g>
</g>
<g>
</g>
<g>
</g>
<g>
</g>
<g>
</g>
<g>
</g>
<g>
</g>
<g>
</g>
<g>
</g>
<g>
</g>
<g>
</g>
<g>
</g>
<g>
</g>
<g>
</g>
</svg>
