<?xml version="1.0" encoding="iso-8859-1"?>
<!-- Generator: Adobe Illustrator 19.0.0, SVG Export Plug-In . SVG Version: 6.00 Build 0)  -->
<svg xmlns="http://www.w3.org/2000/svg" xmlns:xlink="http://www.w3.org/1999/xlink" version="1.1" id="Layer_1" x="0px" y="0px" viewBox="0 0 512 512" style="enable-background:new 0 0 512 512;" xml:space="preserve">
<path style="fill:#464655;" d="M512,162H27V64.5c0-4.6,3.8-8.4,8.4-8.4h468.2c4.6,0,8.4,3.8,8.4,8.4V162z"/>
<path style="fill:#73AF00;" d="M503.6,373.9H35.4c-4.6,0-8.4-3.8-8.4-8.4V268h485v97.5C512,370.1,508.2,373.9,503.6,373.9z"/>
<rect x="27" y="162" style="fill:#F5F5F5;" width="485" height="105.9"/>
<path style="fill:#FF4B55;" d="M30.1,371.9l192.1-152.5c2.8-2.2,2.8-6.5,0-8.7L30.1,58.1c-1.8,1.5-3.1,3.8-3.1,6.3v301  C27,368.1,28.2,370.3,30.1,371.9z"/>
<path style="fill:#2E3033;" d="M19.3,490.5L19.3,490.5C8.7,490.5,0,481.9,0,471.2V40.6C0,30,8.6,21.5,19.2,21.5h0.2  c10.7,0,19.3,8.7,19.3,19.3v430.4C38.6,481.9,30,490.5,19.3,490.5z"/>
<g>
</g>
<g>
</g>
<g>
</g>
<g>
</g>
<g>
</g>
<g>
</g>
<g>
</g>
<g>
</g>
<g>
</g>
<g>
</g>
<g>
</g>
<g>
</g>
<g>
</g>
<g>
</g>
<g>
</g>
</svg>
