<?xml version="1.0" encoding="iso-8859-1"?>
<!-- Generator: Adobe Illustrator 19.0.0, SVG Export Plug-In . SVG Version: 6.00 Build 0)  -->
<svg xmlns="http://www.w3.org/2000/svg" xmlns:xlink="http://www.w3.org/1999/xlink" version="1.1" id="Layer_1" x="0px" y="0px" viewBox="0 0 512.002 512.002" style="enable-background:new 0 0 512.002 512.002;" xml:space="preserve">
<path style="fill:#FF4B55;" d="M503.7,373.901H35.4c-4.7,0-8.4-3.8-8.4-8.4v-301c0-4.7,3.8-8.4,8.4-8.4h468.2c4.7,0,8.4,3.8,8.4,8.4  v301C512.1,370.101,508.3,373.901,503.7,373.901z"/>
<path style="fill:#73AF00;" d="M202.7,56.101H35.4c-4.6,0-8.4,3.7-8.4,8.4v301.1c0,4.6,3.7,8.4,8.4,8.4h167.2v-317.9L202.7,56.101  L202.7,56.101z"/>
<path style="fill:#FFE15A;" d="M277.9,212.501c1.4,43.5-34.1,79-77.6,77.6c-39.4-1.3-71.4-33.3-72.7-72.7  c-1.4-43.5,34.1-79,77.6-77.6C244.6,141.101,276.7,173.201,277.9,212.501z"/>
<path style="fill:#FF4B55;" d="M227.9,189.901v33.4c0,13.8-11.3,25.1-25.1,25.1s-25.1-11.3-25.1-25.1v-33.4H227.9 M236.2,173.201  h-66.9c-4.6,0-8.4,3.7-8.4,8.4v41.8c0,23.1,18.7,41.8,41.8,41.8s41.8-18.7,41.8-41.8v-41.8  C244.6,176.901,240.8,173.201,236.2,173.201L236.2,173.201z"/>
<path style="fill:#F5F5F5;" d="M227.9,189.901v33.4c0,13.8-11.3,25.1-25.1,25.1s-25.1-11.3-25.1-25.1v-33.4H227.9"/>
<g>
	<path style="fill:#FFE15A;" d="M173.4,180.901c0.4,2.8-2,5.2-4.8,4.8c-1.8-0.3-3.2-1.7-3.5-3.5c-0.4-2.8,2-5.2,4.8-4.8   C171.7,177.701,173.1,179.101,173.4,180.901z"/>
	<path style="fill:#FFE15A;" d="M240.3,180.901c0.4,2.8-2,5.2-4.8,4.8c-1.8-0.3-3.2-1.7-3.5-3.5c-0.4-2.8,2-5.2,4.8-4.8   C238.6,177.701,240,179.101,240.3,180.901z"/>
	<path style="fill:#FFE15A;" d="M173.4,214.301c0.4,2.8-2,5.2-4.8,4.8c-1.8-0.3-3.2-1.7-3.5-3.5c-0.4-2.8,2-5.2,4.8-4.8   C171.7,211.101,173.1,212.601,173.4,214.301z"/>
	<path style="fill:#FFE15A;" d="M240.3,214.301c0.4,2.8-2,5.2-4.8,4.8c-1.8-0.3-3.2-1.7-3.5-3.5c-0.4-2.8,2-5.2,4.8-4.8   C238.6,211.101,240,212.601,240.3,214.301z"/>
	<path style="fill:#FFE15A;" d="M206.8,180.901c0.4,2.8-2,5.2-4.8,4.8c-1.8-0.3-3.2-1.7-3.5-3.5c-0.4-2.8,2-5.2,4.8-4.8   C205.1,177.701,206.6,179.101,206.8,180.901z"/>
	<path style="fill:#FFE15A;" d="M231.9,245.201c0.4,2.8-2,5.2-4.8,4.8c-1.8-0.3-3.2-1.7-3.5-3.5c-0.4-2.8,2-5.2,4.8-4.8   C230.2,242.001,231.7,243.401,231.9,245.201z"/>
	<path style="fill:#FFE15A;" d="M182.2,245.201c0.4,2.8-2,5.2-4.8,4.8c-1.8-0.3-3.2-1.7-3.5-3.5c-0.4-2.8,2-5.2,4.8-4.8   C180.5,242.001,182,243.401,182.2,245.201z"/>
</g>
<g>
	<path style="fill:#41479B;" d="M208.2,212.901v7.2c0,3-2.4,5.4-5.4,5.4s-5.4-2.4-5.4-5.4v-7.2H208.2"/>
	<path style="fill:#41479B;" d="M208.2,195.801v7.2c0,3-2.4,5.4-5.4,5.4s-5.4-2.4-5.4-5.4v-7.2H208.2"/>
	<path style="fill:#41479B;" d="M208.2,230.101v7.2c0,3-2.4,5.4-5.4,5.4s-5.4-2.4-5.4-5.4v-7.2H208.2"/>
	<path style="fill:#41479B;" d="M222.7,212.901v7.2c0,3-2.4,5.4-5.4,5.4s-5.4-2.4-5.4-5.4v-7.2H222.7"/>
	<path style="fill:#41479B;" d="M193.6,212.901v7.2c0,3-2.4,5.4-5.4,5.4s-5.4-2.4-5.4-5.4v-7.2H193.6"/>
</g>
<path style="fill:#2E3033;" d="M19.1,488.101L19.1,488.101c-10.5,0-19.1-8.6-19.1-19.1v-426.1c0-10.5,8.5-19,19-19h0.2  c10.6,0,19.1,8.6,19.1,19.1v426C38.2,479.501,29.7,488.101,19.1,488.101z"/>
<g>
</g>
<g>
</g>
<g>
</g>
<g>
</g>
<g>
</g>
<g>
</g>
<g>
</g>
<g>
</g>
<g>
</g>
<g>
</g>
<g>
</g>
<g>
</g>
<g>
</g>
<g>
</g>
<g>
</g>
</svg>
