<?xml version="1.0" encoding="iso-8859-1"?>
<!-- Generator: Adobe Illustrator 19.0.0, SVG Export Plug-In . SVG Version: 6.00 Build 0)  -->
<svg xmlns="http://www.w3.org/2000/svg" xmlns:xlink="http://www.w3.org/1999/xlink" version="1.1" id="Layer_1" x="0px" y="0px" viewBox="0 0 512 512" style="enable-background:new 0 0 512 512;" xml:space="preserve">
<path style="fill:#FF4B55;" d="M512,162.357H26.68V64.821c0-4.668,3.785-8.453,8.453-8.453h468.414c4.668,0,8.453,3.785,8.453,8.453  V162.357z"/>
<path style="fill:#41479B;" d="M503.547,374.337H35.133c-4.668,0-8.453-3.785-8.453-8.453v-97.537H512v97.536  C512,370.552,508.216,374.337,503.547,374.337z"/>
<rect x="26.68" y="162.357" style="fill:#F5F5F5;" width="485.32" height="105.99"/>
<path style="fill:#FF4B55;" d="M269.34,173.514c-23.107,0-41.838,18.731-41.838,41.838s18.731,41.838,41.838,41.838  s41.838-18.731,41.838-41.838C311.179,192.245,292.447,173.514,269.34,173.514z M269.34,246.906  c-17.426,0-31.552-14.127-31.552-31.553s14.126-31.552,31.552-31.552s31.553,14.127,31.553,31.552  C300.893,232.779,286.766,246.906,269.34,246.906z"/>
<circle style="fill:#41479B;" cx="269.34" cy="215.348" r="14.513"/>
<path style="fill:#FFE15A;" d="M270.286,204.361l2.339,7.014l7.393,0.057c0.957,0.007,1.354,1.229,0.584,1.797l-5.948,4.392  l2.231,7.049c0.288,0.913-0.75,1.667-1.529,1.111l-6.015-4.299l-6.015,4.299c-0.779,0.557-1.817-0.199-1.529-1.111l2.231-7.049  l-5.948-4.392c-0.77-0.568-0.373-1.79,0.584-1.797l7.393-0.057l2.339-7.014C268.698,203.452,269.982,203.452,270.286,204.361z"/>
<path style="fill:#64C86E;" d="M296.791,215.69c0,0,0.829-3.836-3.25,0.766c0,0,0.059-1.31-0.055-2.39  c0.897-0.972,2.01-3.097,1.75-7.632c0,0-0.639-3.872-2.741,1.908c0,0-0.573-1.704-1.183-2.649c0.506-1.049,0.897-2.963-0.317-6.586  c0,0-1.419-3.099-1.861,2.225c0,0-1.165-1.742-1.922-2.17c0.147-0.859,0.031-2.333-1.682-4.721c0,0-1.711-1.915-0.846,2.015  c0,0-1.565-1.268-2.066-1.118c-0.26-0.75-1.011-2.019-3.534-3.69c0,0-2.187-1.197,0.322,1.927c0,0-2.218-0.88-2.191-0.376  c0.026,0.504,1.099,1.434,1.979,1.849c0,0-3.252,0.338-1.918,1.062c0,0,3.3,1.138,5.282,0.043c0.16,0.577,0.482,1.225,0.963,1.69  c0,0-3.872-0.751-2.823,0.41c0,0,2.904,2.134,5.772,1.807c-0.014,0.79,0.226,1.812,0.646,2.576c0,0-4.615-2.467-3.742-0.583  c0,0,2.761,3.692,6.433,4.494c-0.151,0.821-0.148,1.814,0.051,2.634c0,0-4.382-4.138-3.98-1.78c0,0,1.831,4.854,5.544,6.918  c-0.302,0.616-0.551,1.306-0.641,1.948c0,0-2.552-5.461-3.046-3.119c0,0-0.085,5.454,2.828,8.715c-0.62,0.516-1.228,1.237-1.6,1.945  c0,0-0.559-6-1.814-3.964c0,0-1.735,4.547-0.561,8.464c-0.776,0.229-1.622,0.653-2.247,1.16c0,0,1.851-5.735-0.105-4.36  c0,0-3.484,3.767-3.749,8.007c-0.923-0.019-2.173,0.314-3.079,0.855c0,0,2.649-5.412,0.517-4.329c0,0-3.8,3.102-4.78,7.131  c-0.898,0.512-2.425,1.383-3.95,2.249c-0.887-0.515-1.749-1.016-2.485-1.445l0.024-0.04l-8.637-7.24l0.171,2.368l-4.336-7.756  l-0.536,2.639l-1.42-8.575l-1.26,1.265l0.488-7.999l-1.642,0.884l2.982-5.95l-1.401,0.395l3.684-3.532l-1.947,0.166l4.658-2.115  l-1.703-0.261l4.547-2.302l-1.959-0.095l5.895-2.039l-1.079-0.945l5.103-1.505l-6.114-0.466l1.742-2.144l-4.665,2.387l0.67-3.227  l-4.08,4.202l0.709-2.943l-3.82,3.8l0.247-2.868l-3.776,6.395l-0.487-2.861l-3.138,7.18l-0.864-3.128l-1.401,8.903l-1.169-1.325  l1.536,8.588l-1.948-1.461l3.574,7.715c0,0-2.598-1.137-2.924-1.137c-0.324,0,6.212,6.638,6.212,6.638l-3.411-0.366l6.59,4.633  l-2.449,0.604l5.482,2.131l-1.34,1.036l11.348,0.811c0,0,1.095,0.911,2.582,1.966c-0.785,0.443-1.476,0.829-1.904,1.063  c-0.431,0.236-0.937,0.258-1.391,0.07c-1.077-0.451-2.636-1.088-3.388-1.389c0,0,0.073,3.226,3.431,3.306  c1.38,0.032,3.261-0.846,5.01-1.885c1.791,1.117,3.766,2.102,5.194,2.068c3.285-0.08,3.357-3.306,3.357-3.306  c-0.735,0.301-2.261,0.938-3.315,1.389c-0.444,0.189-0.939,0.166-1.361-0.07c-0.465-0.26-1.231-0.698-2.109-1.206  c0.896-0.608,1.648-1.159,2.177-1.566c0.826,0.65,3.192,1.791,8.48-0.194c0,0,3.507-1.761-2.636-2.05c0,0,1.14-0.837,1.909-1.631  c1.007,0.519,3.499,1.133,8.231-1.467c0,0,3.221-2.243-2.9-1.654c0,0,0.817-0.796,1.46-1.606c1.057,0.118,3.664-0.164,7.122-4.586  c0,0,2.076-3.331-3.318-0.377c0,0,0.697-1.663,0.862-2.776C293.549,221.57,295.366,220.005,296.791,215.69z"/>
<path style="fill:#2E3033;" d="M19.152,488.46L19.152,488.46C8.575,488.46,0,479.884,0,469.307V42.534  C0,32.044,8.504,23.54,18.994,23.54h0.157c10.577,0,19.152,8.575,19.152,19.152V469.31C38.303,479.884,29.728,488.46,19.152,488.46z  "/>
<g>
</g>
<g>
</g>
<g>
</g>
<g>
</g>
<g>
</g>
<g>
</g>
<g>
</g>
<g>
</g>
<g>
</g>
<g>
</g>
<g>
</g>
<g>
</g>
<g>
</g>
<g>
</g>
<g>
</g>
</svg>
