<?xml version="1.0" encoding="iso-8859-1"?>
<!-- Generator: Adobe Illustrator 19.0.0, SVG Export Plug-In . SVG Version: 6.00 Build 0)  -->
<svg xmlns="http://www.w3.org/2000/svg" xmlns:xlink="http://www.w3.org/1999/xlink" version="1.1" id="Layer_1" x="0px" y="0px" viewBox="0 0 512.001 512.001" style="enable-background:new 0 0 512.001 512.001;" xml:space="preserve">
<path style="fill:#F5F5F5;" d="M252.605,374.338H35.133c-4.668,0-8.453-3.785-8.453-8.453V64.822c0-4.668,3.785-8.453,8.453-8.453  h217.472V374.338z"/>
<path style="fill:#873250;" d="M503.632,56.369H185.331c0.221,0,0.441,0.033,0.652,0.098l50.604,15.463  c2.108,0.643,2.106,3.628-0.002,4.271l-43.92,13.373c-2.108,0.642-2.11,3.626-0.002,4.271l43.925,13.424  c2.108,0.643,2.106,3.628-0.002,4.27l-43.921,13.374c-2.108,0.642-2.11,3.626-0.002,4.271l43.925,13.424  c2.108,0.643,2.106,3.628-0.002,4.27l-43.908,13.369c-2.11,0.643-2.11,3.63,0,4.272l43.908,13.369  c2.108,0.642,2.11,3.626,0.002,4.271l-43.925,13.424c-2.108,0.645-2.106,3.63,0.002,4.271l43.921,13.373  c2.108,0.641,2.11,3.626,0.002,4.271l-43.925,13.424c-2.108,0.645-2.106,3.628,0.002,4.271l43.921,13.373  c2.108,0.641,2.11,3.626,0.002,4.27l-43.925,13.424c-2.108,0.645-2.106,3.63,0.002,4.271l43.92,13.374  c2.108,0.641,2.11,3.626,0.002,4.27l-43.924,13.422c-2.108,0.645-2.106,3.628,0.002,4.271l43.909,13.371  c2.109,0.641,2.109,3.628,0,4.27l-43.909,13.371c-2.108,0.641-2.11,3.626-0.002,4.27l43.925,13.424  c2.108,0.644,2.106,3.628-0.002,4.27l-50.603,15.408c-0.21,0.064-0.43,0.097-0.65,0.097h318.301c4.622,0,8.367-3.747,8.367-8.368  V64.737C512,60.116,508.254,56.369,503.632,56.369z"/>
<path style="fill:#2E3033;" d="M19.152,488.46L19.152,488.46C8.575,488.46,0,479.885,0,469.308V42.534  C0,32.044,8.504,23.54,18.994,23.54h0.157c10.577,0,19.152,8.575,19.152,19.152v426.617C38.303,479.885,29.728,488.46,19.152,488.46  z"/>
<g>
</g>
<g>
</g>
<g>
</g>
<g>
</g>
<g>
</g>
<g>
</g>
<g>
</g>
<g>
</g>
<g>
</g>
<g>
</g>
<g>
</g>
<g>
</g>
<g>
</g>
<g>
</g>
<g>
</g>
</svg>
