<?xml version="1.0" encoding="iso-8859-1"?>
<!-- Generator: Adobe Illustrator 19.0.0, SVG Export Plug-In . SVG Version: 6.00 Build 0)  -->
<svg xmlns="http://www.w3.org/2000/svg" xmlns:xlink="http://www.w3.org/1999/xlink" version="1.1" id="Layer_1" x="0px" y="0px" viewBox="0 0 512.1 512.1" style="enable-background:new 0 0 512.1 512.1;" xml:space="preserve">
<path style="fill:#F5F5F5;" d="M503.6,373.9H35.4c-4.6,0-8.4-3.7-8.4-8.4v-301c0-4.6,3.7-8.4,8.4-8.4h468.3c4.6,0,8.4,3.7,8.4,8.4  v301C512,370.1,508.3,373.9,503.6,373.9z"/>
<path style="fill:#FF4B55;" d="M484.1,106.5c-1.6-0.6-3.4,0.3-4,1.9c-2.1,5.8-4.3,11.1-6.6,16c-5.9,5.8-13.3,10.2-20.4,11.5  c-11.5,2.1-17.1,7.7-17.1,7.7c-20.2-5.9-24,5.2-28.6,10.1c-2.5,2.7-5.8,3.7-8.8,3.7c-10.8-5.9-18.1-13.1-18.2-13.2  c-1.2-1.2-3.2-1.2-4.4,0c-1.2,1.2-1.2,3.2,0,4.4c0.9,0.9,18.5,18.4,41.2,22c-6.6,1.9-11.4,3.3-11.4,3.3s-7.3,0-29.3,17.8  s-37.3,19.5-47,19.2c-9.8-0.3-17.1-3.8-27.5,4.2s-24,6.6-32.4,6.6s-22,1.4-32.4-6.6c-10.5-8-17.8-4.5-27.5-4.2  c-9.8,0.3-25.1-1.4-47-19.2s-29.3-17.8-29.3-17.8s-4.8-1.4-11.4-3.3c22.6-3.6,40.2-21.1,41.2-22c1.2-1.2,1.2-3.2,0-4.4  s-3.2-1.2-4.4,0c-0.1,0.1-7.4,7.3-18.2,13.2c-3,0-6.3-1-8.8-3.7c-4.5-4.9-8.4-16-28.6-10.1c0,0-5.6-5.6-17.1-7.7  c-7.1-1.3-14.5-5.7-20.4-11.5c-2.3-4.9-4.6-10.2-6.6-16c-0.6-1.6-2.4-2.5-4-1.9s-2.5,2.4-1.9,4c0.1,0.2,0.1,0.3,0.2,0.5  c0.3,1.6,6.7,33.7,29.9,55.9c16.4,15.7,32.3,39.6,39,53c22,43.6,63.8,102.1,147.4,102.1s125.4-58.5,147.4-102.1  c6.7-13.4,22.6-37.3,39-53c23.3-22.2,29.6-54.3,29.9-55.9c0.1-0.2,0.1-0.3,0.2-0.5C486.6,108.8,485.8,107.1,484.1,106.5z"/>
<path style="fill:#2E3033;" d="M19.2,489.1L19.2,489.1C8.6,489.1,0,480.5,0,469.9V42c0-10.5,8.5-19,19-19h0.2  c10.6,0,19.2,8.6,19.2,19.2V470C38.4,480.5,29.8,489.1,19.2,489.1z"/>
<g>
</g>
<g>
</g>
<g>
</g>
<g>
</g>
<g>
</g>
<g>
</g>
<g>
</g>
<g>
</g>
<g>
</g>
<g>
</g>
<g>
</g>
<g>
</g>
<g>
</g>
<g>
</g>
<g>
</g>
</svg>
