<?xml version="1.0" encoding="iso-8859-1"?>
<!-- Generator: Adobe Illustrator 19.0.0, SVG Export Plug-In . SVG Version: 6.00 Build 0)  -->
<svg xmlns="http://www.w3.org/2000/svg" xmlns:xlink="http://www.w3.org/1999/xlink" version="1.1" id="Layer_1" x="0px" y="0px" viewBox="0 0 512 512" style="enable-background:new 0 0 512 512;" xml:space="preserve">
<path style="fill:#F5F5F5;" d="M26.68,268.348H512v97.536c0,4.668-3.785,8.453-8.453,8.453H35.133c-4.668,0-8.453-3.785-8.453-8.453  V268.348z"/>
<path style="fill:#FF4B55;" d="M35.133,56.368h468.414c4.668,0,8.453,3.785,8.453,8.453v97.536H26.68V64.821  C26.68,60.153,30.465,56.368,35.133,56.368z"/>
<rect x="26.68" y="162.357" style="fill:#41479B;" width="485.32" height="105.99"/>
<polygon style="fill:#FFE15A;" points="190.685,162.337 130.439,162.337 127.928,147.275 193.196,147.275 "/>
<polygon style="fill:#FFD350;" points="129.811,158.57 130.439,162.337 190.685,162.337 191.313,158.57 "/>
<g>
	<rect x="159.31" y="112.127" style="fill:#FFE15A;" width="2.511" height="10.04"/>
	<rect x="156.79" y="114.647" style="fill:#FFE15A;" width="7.531" height="2.511"/>
	<path style="fill:#FFE15A;" d="M190.882,152.296c-0.284,0-0.573-0.049-0.856-0.15c-1.303-0.473-1.977-1.913-1.504-3.216   l5.317-14.675c0.263-0.728,0.201-1.53-0.17-2.199c-0.198-0.355-0.659-0.981-1.54-1.17c-6.482-1.378-19.049-3.694-30.355-3.694   h-2.425c-11.306,0-23.873,2.317-30.357,3.697c-0.878,0.186-1.34,0.811-1.537,1.167c-0.371,0.669-0.434,1.471-0.169,2.199   l5.316,14.675c0.473,1.304-0.201,2.743-1.504,3.216c-1.302,0.466-2.744-0.203-3.215-1.505l-5.317-14.675   c-0.759-2.093-0.577-4.405,0.499-6.344c1.04-1.876,2.818-3.204,4.881-3.643c6.679-1.422,19.639-3.807,31.404-3.807h2.425   c11.766,0,24.725,2.385,31.402,3.805c2.066,0.442,3.844,1.77,4.884,3.645c1.077,1.939,1.257,4.251,0.5,6.344l-5.318,14.675   C192.871,151.66,191.906,152.296,190.882,152.296z"/>
	<path style="fill:#FFE15A;" d="M160.571,150.098c-1.386,0-2.511-1.123-2.511-2.511v-20.396c0-1.387,1.124-2.511,2.511-2.511   c1.386,0,2.511,1.123,2.511,2.511v20.396C163.081,148.977,161.958,150.098,160.571,150.098z"/>
	<path style="fill:#FFE15A;" d="M177.924,152.296c-0.169,0-0.34-0.017-0.512-0.052c-1.358-0.282-2.23-1.61-1.947-2.968l3.045-14.675   c0.396-1.913-0.224-3.586-0.576-3.881c-3.481-1.277-10.464-3.528-16.677-3.528h-1.388c-6.213,0-13.196,2.251-16.806,3.594   c-0.223,0.228-0.843,1.902-0.447,3.814l3.044,14.675c0.282,1.358-0.59,2.687-1.947,2.968c-1.359,0.262-2.688-0.591-2.967-1.948   l-3.045-14.675c-0.759-3.657,0.406-8.342,3.609-9.538c4.798-1.785,11.91-3.911,18.559-3.911h1.388   c6.648,0,13.76,2.125,18.556,3.907c3.207,1.198,4.371,5.883,3.613,9.541l-3.045,14.675   C180.133,151.481,179.088,152.296,177.924,152.296z"/>
</g>
<polygon style="fill:#FFD350;" points="128.556,151.04 192.568,151.04 193.196,147.275 127.928,147.275 "/>
<path style="fill:#FF4B55;" d="M112.866,162.337c-1.386,0-2.511,1.124-2.511,2.511v87.666c0,27.835,22.478,50.398,50.205,50.398  s50.205-22.565,50.205-50.398v-87.666c0-1.386-1.124-2.511-2.511-2.511H112.866L112.866,162.337z"/>
<path style="fill:#F5F5F5;" d="M165.582,245.175l5.02-12.552l-10.041,2.511l-10.041-2.511l5.02,12.552l-12.552,42.674  c0,0,7.531,5.02,17.572,5.02s17.572-5.02,17.572-5.02L165.582,245.175z"/>
<polygon style="fill:#FFE15A;" points="142.381,255.294 137.951,256.4 147.694,238.863 143.305,236.426 131.472,257.727   120.397,257.727 120.397,262.747 125.792,262.747 118.829,268.318 121.964,272.24 127.878,267.509 125.546,274.505 130.31,276.094   134.895,262.337 143.599,260.161 "/>
<path style="fill:#F5F5F5;" d="M142.989,187.439l-11.459-5.73c-2.105-1.052-3.196-3.426-2.626-5.708l0.648-2.592  c0.45-1.799-0.911-3.542-2.765-3.542c-0.866,0-1.684,0.393-2.225,1.069c-5.946,7.432-9.185,16.667-9.185,26.186v53.074  c0,0,10.483-2.096,19.951-15.87c1.738-2.529,4.601-4.026,7.651-4.182l-5.011,15.031l10.041,2.511l8.786-10.455L142.989,187.439z"/>
<polygon style="fill:#FFE15A;" points="178.743,255.294 183.171,256.4 173.429,238.863 177.817,236.426 189.651,257.727   200.726,257.727 200.726,262.747 195.331,262.747 202.293,268.318 199.158,272.24 193.244,267.509 195.577,274.505 190.814,276.094   186.229,262.337 177.525,260.161 "/>
<path style="fill:#F5F5F5;" d="M178.133,187.439l11.459-5.73c2.105-1.052,3.196-3.426,2.626-5.708l-0.648-2.592  c-0.45-1.799,0.911-3.542,2.765-3.542c0.866,0,1.685,0.393,2.226,1.069c5.946,7.432,9.185,16.667,9.185,26.186v53.074  c0,0-10.483-2.096-19.951-15.87c-1.738-2.529-4.601-4.026-7.651-4.182l5.011,15.031l-10.041,2.511l-8.786-10.455L178.133,187.439z"/>
<g>
	<polygon style="fill:#FFE15A;" points="145.5,169.867 132.948,169.867 136.714,174.889 145.5,177.397 140.479,179.908    148.011,179.908  "/>
	<polygon style="fill:#FFE15A;" points="175.624,169.867 188.174,169.867 184.41,174.889 175.624,177.397 180.644,179.908    173.113,179.908  "/>
</g>
<path style="fill:#F5F5F5;" d="M177.39,167.899l-11.808,1.967l-5.02,10.041l-5.02-10.041l-11.808-1.967  c-1.354-0.226-2.392,1.179-1.778,2.408l6.056,12.111l-5.02,5.02h17.572h17.572l-5.02-5.02l6.056-12.111  C179.783,169.079,178.744,167.673,177.39,167.899z"/>
<path style="fill:#FFBE50;" d="M164.257,147.635c0.503,2.653-1.779,4.936-4.433,4.433c-1.474-0.279-2.68-1.485-2.959-2.959  c-0.503-2.652,1.779-4.936,4.433-4.433C162.772,144.958,163.977,146.162,164.257,147.635z"/>
<ellipse style="fill:#41479B;" cx="160.51" cy="157.367" rx="2.977" ry="2.092"/>
<ellipse style="fill:#FF4B55;" cx="145.66" cy="157.367" rx="2.977" ry="2.092"/>
<g>
	<ellipse style="fill:#41479B;" cx="130.8" cy="157.367" rx="2.975" ry="2.092"/>
	<ellipse style="fill:#41479B;" cx="190.22" cy="157.367" rx="2.977" ry="2.092"/>
</g>
<ellipse style="fill:#FF4B55;" cx="175.36" cy="157.367" rx="2.977" ry="2.092"/>
<g>
	<path style="fill:#FFBE50;" d="M181.699,147.635c0.503,2.653-1.779,4.936-4.433,4.433c-1.474-0.279-2.679-1.485-2.959-2.959   c-0.503-2.652,1.779-4.936,4.433-4.433C180.215,144.958,181.42,146.162,181.699,147.635z"/>
	<path style="fill:#FFBE50;" d="M195.472,147.635c0.503,2.653-1.779,4.936-4.433,4.433c-1.474-0.279-2.679-1.485-2.959-2.959   c-0.503-2.652,1.779-4.936,4.433-4.433C193.987,144.958,195.193,146.162,195.472,147.635z"/>
	<path style="fill:#FFBE50;" d="M139.438,147.635c-0.503,2.653,1.779,4.936,4.433,4.433c1.474-0.279,2.679-1.485,2.959-2.959   c0.503-2.652-1.779-4.936-4.433-4.433C140.924,144.958,139.718,146.162,139.438,147.635z"/>
	<path style="fill:#FFBE50;" d="M125.666,147.635c-0.503,2.653,1.779,4.936,4.433,4.433c1.474-0.279,2.679-1.485,2.959-2.959   c0.503-2.652-1.779-4.936-4.433-4.433C127.152,144.958,125.946,146.162,125.666,147.635z"/>
</g>
<path style="fill:#41479B;" d="M164.886,127.192c0.431-0.741,0.696-1.591,0.696-2.511c0-2.773-2.247-5.02-5.02-5.02  s-5.02,2.247-5.02,5.02c0,0.919,0.265,1.769,0.696,2.511H164.886z"/>
<path style="fill:#FF4B55;" d="M160.561,238.9c-10.381,0-18.827-8.446-18.827-18.827v-33.888h37.654v33.888  C179.389,230.454,170.944,238.9,160.561,238.9z"/>
<path style="fill:#A54B50;" d="M178.133,187.439v32.633c0,9.704-7.868,17.572-17.572,17.572c-9.705,0-17.572-7.868-17.572-17.572  v-32.633H178.133 M180.644,184.93h-2.511h-35.144h-2.511v2.511v32.633c0,11.074,9.009,20.082,20.082,20.082  c11.074,0,20.082-9.009,20.082-20.082v-32.633L180.644,184.93L180.644,184.93z"/>
<g>
	<path style="fill:#F5F5F5;" d="M156.797,237.23c1.214,0.265,2.471,0.414,3.766,0.414s2.551-0.149,3.766-0.414v-49.791h-7.531   v49.791H156.797z"/>
	<rect x="142.98" y="208.147" style="fill:#F5F5F5;" width="35.14" height="7.531"/>
</g>
<path style="fill:#2E3033;" d="M19.152,488.46L19.152,488.46C8.575,488.46,0,479.884,0,469.307V42.534  C0,32.044,8.504,23.54,18.994,23.54h0.157c10.577,0,19.152,8.575,19.152,19.152V469.31C38.303,479.884,29.728,488.46,19.152,488.46z  "/>
<g>
</g>
<g>
</g>
<g>
</g>
<g>
</g>
<g>
</g>
<g>
</g>
<g>
</g>
<g>
</g>
<g>
</g>
<g>
</g>
<g>
</g>
<g>
</g>
<g>
</g>
<g>
</g>
<g>
</g>
</svg>
