<?xml version="1.0" encoding="iso-8859-1"?>
<!-- Generator: Adobe Illustrator 19.0.0, SVG Export Plug-In . SVG Version: 6.00 Build 0)  -->
<svg xmlns="http://www.w3.org/2000/svg" xmlns:xlink="http://www.w3.org/1999/xlink" version="1.1" id="Layer_1" x="0px" y="0px" viewBox="0 0 512 512" style="enable-background:new 0 0 512 512;" xml:space="preserve">
<g>
	<path style="fill:#4173CD;" d="M512,215.05H27V64.55c0-4.6,3.8-8.4,8.4-8.4h468.2c4.6,0,8.4,3.8,8.4,8.4V215.05z"/>
	<path style="fill:#4173CD;" d="M27,215.05h485v150.5c0,4.6-3.8,8.4-8.4,8.4H35.4c-4.6,0-8.4-3.8-8.4-8.4   C27,365.55,27,215.05,27,215.05z"/>
</g>
<rect x="27" y="215.05" style="fill:#FFE15A;" width="485" height="79.4"/>
<path style="fill:#73AF00;" d="M35.4,373.95h468.2c4.6,0,8.4-3.8,8.4-8.4v-71H27v71C27,370.15,30.8,373.95,35.4,373.95z"/>
<g>
	<path style="fill:#FFE15A;" d="M461,141.25l34.2-5.7l-34.2-5.7l29.5-18.3l-33.8,7.9l20.2-28.2l-28.2,20.2l7.9-33.8l-18.3,29.5   l-5.7-34.2l-5.7,34.2l-18.3-29.5l7.9,33.8l-28.2-20.2l20.2,28.2l-33.8-7.9l29.5,18.3l-34.2,5.7l34.2,5.7l-29.5,18.3l33.8-7.9   l-20.2,28.2l28.2-20.2l-7.9,33.8l18.3-29.5l5.7,34.2l5.7-34.2l18.3,29.5l-7.9-33.8l28.2,20.2l-20.2-28.2l33.8,7.9L461,141.25z    M432.6,156.55c-11.5,0-20.9-9.4-20.9-20.9s9.4-20.9,20.9-20.9s20.9,9.4,20.9,20.9S444.1,156.55,432.6,156.55z"/>
	<path style="fill:#FFE15A;" d="M448.1,133.55c1.3,10.3-7.3,18.9-17.6,17.6c-7-0.9-12.6-6.5-13.5-13.5c-1.3-10.3,7.3-18.9,17.6-17.6   C441.6,120.95,447.2,126.55,448.1,133.55z"/>
</g>
<path style="fill:#2E3033;" d="M18.7,483.45L18.7,483.45c-10.3,0-18.7-8.3-18.7-18.7V47.15c0-10.3,8.3-18.6,18.6-18.6h0.2  c10.3,0,18.7,8.4,18.7,18.7v417.4C37.5,475.15,29.1,483.45,18.7,483.45z"/>
<g>
</g>
<g>
</g>
<g>
</g>
<g>
</g>
<g>
</g>
<g>
</g>
<g>
</g>
<g>
</g>
<g>
</g>
<g>
</g>
<g>
</g>
<g>
</g>
<g>
</g>
<g>
</g>
<g>
</g>
</svg>
