<?xml version="1.0" encoding="iso-8859-1"?>
<!-- Generator: Adobe Illustrator 19.0.0, SVG Export Plug-In . SVG Version: 6.00 Build 0)  -->
<svg xmlns="http://www.w3.org/2000/svg" xmlns:xlink="http://www.w3.org/1999/xlink" version="1.1" id="Layer_1" x="0px" y="0px" viewBox="0 0 512 512" style="enable-background:new 0 0 512 512;" xml:space="preserve">
<path style="fill:#73AF00;" d="M503.56,374.155H35.87c-4.661,0-8.44-3.779-8.44-8.44V65.118c0-4.661,3.779-8.44,8.44-8.44h467.69  c4.661,0,8.44,3.779,8.44,8.44v300.597C512,370.376,508.222,374.155,503.56,374.155z"/>
<g>
	<path style="fill:#F5F5F5;" d="M127.695,164.572c0.823,5.278,4.013,6.934,6.788,6.718c3.271-0.254,6.14-3.245,6.14-6.403v-18.113   c0-0.907,0.738-1.647,1.647-1.647c0.908,0,1.647,0.74,1.647,1.647v18.19c0,2.187,1.08,4.226,2.893,5.451   c1.107,0.749,2.395,1.135,3.693,1.135c0.827,0,1.656-0.157,2.448-0.473l1.646-0.658c0.152,15.204-0.773,28.567-0.79,28.812   c-0.129,1.814,1.236,3.39,3.051,3.518c0.08,0.006,0.159,0.009,0.238,0.009c1.712,0,3.159-1.325,3.282-3.058   c0.077-1.071,1.092-15.705,0.787-31.909l0.995-0.398c0.874-0.347,1.853-0.306,2.692,0.113c3.628,1.807,7.992,1.104,10.859-1.763   l0.593-0.592c2.662-2.666,3.576-6.539,2.384-10.111l-2.804-8.414c1.516,0.457,3.182-0.215,3.914-1.675   c0.813-1.628,0.154-3.605-1.473-4.419l-6.586-3.294c-1.192-0.598-2.621-0.415-3.631,0.457c-1.006,0.875-1.387,2.267-0.966,3.531   l5.298,15.898c0.398,1.19,0.092,2.482-0.794,3.371l-0.592,0.592c-0.859,0.859-2.166,1.068-3.26,0.528   c-2.135-1.067-4.564-1.266-6.844-0.685c-0.463-10.57-1.602-21.097-4.026-28.373c-0.574-1.724-2.436-2.66-4.166-2.08   c-1.725,0.573-2.659,2.438-2.083,4.165c2.373,7.117,3.407,17.961,3.773,28.745l-3.941,1.577v-18.19   c0-4.542-3.694-8.233-8.233-8.233c-4.54,0-8.233,3.693-8.233,8.233v15.942l-3.359-16.595c-0.359-1.785-2.093-2.95-3.88-2.576   c-1.783,0.363-2.936,2.101-2.574,3.881L127.695,164.572z"/>
	<path style="fill:#F5F5F5;" d="M134.035,136.894c1.819,0,3.294-1.473,3.294-3.294v-3.294c0-1.82-1.475-3.294-3.294-3.294   s-3.294,1.473-3.294,3.294v3.294C130.741,135.421,132.216,136.894,134.035,136.894z"/>
	<path style="fill:#F5F5F5;" d="M166.968,133.6h3.294c1.819,0,3.294-1.473,3.294-3.294c0-1.82-1.475-3.294-3.294-3.294h-3.294   c-1.819,0-3.294,1.473-3.294,3.294C163.676,132.128,165.149,133.6,166.968,133.6z"/>
	<path style="fill:#F5F5F5;" d="M145.514,176.883l-16.467,9.88c-1.56,0.936-2.065,2.959-1.129,4.519   c0.617,1.03,1.708,1.598,2.827,1.598c0.577,0,1.162-0.151,1.692-0.469l16.466-9.88c1.56-0.936,2.065-2.959,1.129-4.519   C149.096,176.453,147.075,175.947,145.514,176.883z"/>
	<path style="fill:#F5F5F5;" d="M189.915,182.709l0.077-0.053c0.276,1.113,0.751,2.19,1.519,3.094   c1.338,1.576,3.345,2.367,5.613,2.181c3.217-0.235,5.404-1.705,6.85-3.602c0.221,0.151,0.452,0.289,0.695,0.411   c1.78,0.898,3.838,0.829,5.798-0.187c4.976-2.564,6.049-8.494,5.899-11.595c-0.089-1.807-1.626-3.084-3.429-3.12   c-1.809,0.077-3.217,1.611-3.152,3.419c0.001,0.042,0.076,3.949-2.314,5.4c-0.389-0.543-0.852-1.766-1.027-2.776   c-0.279-1.694-1.835-2.875-3.51-2.74c-1.708,0.135-3.027,1.57-3.033,3.284c-0.002,0.479-0.108,4.705-3.371,5.059   c-0.38-0.518-0.386-2.699-0.013-4.31c0.315-1.322-0.215-2.702-1.334-3.473c-1.12-0.775-2.598-0.775-3.723-0.013l-1.839,1.25   c-0.872-19.099-2.883-41.354-2.909-41.639c-0.165-1.807-1.757-3.156-3.579-2.981c-1.813,0.164-3.147,1.766-2.982,3.58   c0.028,0.305,2.355,26.053,3.072,45.718c-0.168,0.16-0.342,0.335-0.507,0.488c-1.303-3.283-3.883-5.352-7.209-5.666   c-4.693-0.415-9.777,2.779-11.599,7.34c-1.571,3.924-0.582,7.78,2.518,9.822c2.229,1.47,5.593,1.933,9.822,0.451   c-1.033,3.628-2.912,7.307-5.356,10.153c-2.188,2.55-5.844,5.493-10.522,5.362c-2.723-0.107-4.815-0.997-6.395-2.727   c-3.813-4.165-3.485-11.703-3.482-11.784c0.095-1.814-1.294-3.361-3.107-3.46c-1.825-0.193-3.371,1.289-3.47,3.107   c-0.022,0.418-0.5,10.324,5.172,16.554c2.792,3.071,6.501,4.715,11.025,4.892c0.22,0.009,0.441,0.013,0.663,0.013   c5.509,0,10.855-2.702,15.113-7.664c4.006-4.664,6.726-10.999,7.541-16.88c-0.011,11.266-6.8,23.973-15.802,29.571   c-3.822,2.374-9.782,4.515-16.496,1.206c-8.275-4.085-7.289-13.543-7.246-13.929c0.227-1.804-1.055-3.451-2.859-3.676   c-1.797-0.218-3.452,1.052-3.676,2.859c-0.074,0.589-1.656,14.473,10.868,20.651c3.216,1.589,6.58,2.377,9.97,2.377   c4.355,0,8.749-1.303,12.916-3.895c10.959-6.812,18.914-21.613,18.914-35.191C190.022,187.468,189.982,185.148,189.915,182.709z    M170.056,186.105c-0.589-0.389-0.129-1.634-0.028-1.881c0.693-1.737,2.862-3.239,4.596-3.239c0.089,0,0.178,0.003,0.265,0.013   c0.421,0.039,1.539,0.145,2.019,2.631c0.052,0.264,0.095,0.534,0.129,0.81C173.366,186.593,170.905,186.661,170.056,186.105z"/>
	<path style="fill:#F5F5F5;" d="M135.698,216.394c-1.56-0.917-3.576-0.392-4.503,1.168c-0.151,0.254-0.352,0.531-0.556,0.782   c-0.036-0.083-0.071-0.174-0.107-0.27c-1.374-3.663-0.396-9.307,0.098-11.172c0.465-1.756-0.58-3.557-2.337-4.027   c-1.752-0.451-3.555,0.573-4.027,2.328c-0.239,0.89-2.264,8.886,0.096,15.184c1.512,4.027,3.832,5.043,5.515,5.181   c0.15,0.013,0.298,0.019,0.444,0.019c3.546,0,5.905-3.573,6.561-4.705C137.793,219.311,137.261,217.314,135.698,216.394z"/>
	<path style="fill:#F5F5F5;" d="M196.473,156.654c0.712,0,1.43-0.228,2.033-0.705l16.604-13.035   c0.229-0.179,0.376-0.416,0.543-0.637c2.391-1.442,4.009-4.04,4.009-7.029c0-4.541-3.694-8.233-8.233-8.233   c-4.54,0-8.233,3.693-8.233,8.233c0,2.54,1.181,4.787,2.994,6.298l-11.752,9.226c-1.43,1.123-1.679,3.193-0.556,4.622   C194.531,156.223,195.498,156.654,196.473,156.654z M211.428,133.6c0.908,0,1.647,0.74,1.647,1.647   c0,0.907-0.739,1.647-1.647,1.647s-1.647-0.74-1.647-1.647C209.782,134.34,210.52,133.6,211.428,133.6z"/>
	<path style="fill:#F5F5F5;" d="M207.531,153.532c-1.735-0.579-3.592,0.357-4.166,2.08c-0.352,1.055-1.944,6.487,1.283,9.712   c1.252,1.254,2.899,1.881,4.921,1.878c1.35,0,2.869-0.276,4.549-0.84c1.725-0.573,2.658-2.438,2.083-4.165   c-0.576-1.724-2.438-2.663-4.166-2.08c-1.84,0.611-2.617,0.512-2.689,0.576c-0.194-0.488-0.066-1.959,0.272-3.01   C210.184,155.962,209.252,154.103,207.531,153.532z"/>
	<path style="fill:#F5F5F5;" d="M245.222,139.917c0.309,0.09,0.619,0.132,0.924,0.132c1.426,0,2.74-0.933,3.16-2.371l1.921-6.586   c0.51-1.746-0.494-3.576-2.239-4.084c-1.751-0.505-3.574,0.492-4.085,2.239l-1.921,6.586   C242.474,137.579,243.477,139.409,245.222,139.917z"/>
	<path style="fill:#F5F5F5;" d="M226.026,139.532c0.522,0.306,1.095,0.45,1.66,0.45c1.132,0,2.233-0.582,2.846-1.631   c0.918-1.57,0.389-3.589-1.181-4.506c-0.663-0.386-0.573-1.476-0.549-1.692c0.098-0.865,0.614-1.92,1.512-2.2   c1.737-0.54,2.706-2.386,2.166-4.123c-0.543-1.74-2.386-2.702-4.125-2.168c-3.284,1.022-5.677,4.062-6.098,7.742   C221.868,134.83,223.313,137.943,226.026,139.532z"/>
	<path style="fill:#F5F5F5;" d="M199.902,192.881c-1.819,0-3.294,1.473-3.294,3.294c0,1.608,1.151,2.946,2.675,3.236   c0.174,0.254,0.617,1.126,0.617,3.351c0,1.82,1.475,3.294,3.294,3.294s3.294-1.473,3.294-3.294   C206.489,192.993,200.17,192.881,199.902,192.881z"/>
	<path style="fill:#F5F5F5;" d="M255.774,179.244c0.414,0.068,0.825,0.1,1.239,0.1c2.587,0,5.202-1.306,7.791-3.895   c1.286-1.286,1.286-3.371,0-4.657c-1.286-1.286-3.371-1.286-4.657,0c-1.97,1.972-3.03,2.013-3.301,1.952   c-0.629-0.09-1.198-0.91-1.325-1.135c-0.826-1.602-2.785-2.242-4.398-1.435c-1.627,0.813-2.286,2.792-1.473,4.419   C249.854,175.002,251.756,178.591,255.774,179.244z"/>
	<path style="fill:#F5F5F5;" d="M311.755,156.101c-0.021-0.052-0.04-0.099-0.056-0.145c-0.583-1.711-2.449-2.641-4.157-2.058   c-1.727,0.573-2.66,2.438-2.084,4.165c0.257,0.772,1.724,4.644,5.358,5.133c0.243,0.033,0.484,0.049,0.724,0.049   c2.282,0,4.423-1.476,6.37-4.396c1.009-1.512,0.6-3.557-0.914-4.567c-1.515-1.006-3.561-0.601-4.567,0.914   C312.168,155.583,311.943,155.879,311.755,156.101z"/>
	<path style="fill:#F5F5F5;" d="M305.289,215.934c0-14.044-0.617-27.22-1.474-38.763c4.677,8.11,8.883,16.305,11.564,23.455   c0.497,1.322,1.751,2.135,3.084,2.135c0.384,0,0.775-0.068,1.156-0.209c1.703-0.64,2.567-2.537,1.929-4.242   c-4.168-11.113-11.661-24.348-19.046-36.096c-1.801-17.741-3.816-29.001-3.852-29.201c-0.325-1.791-2.036-3-3.829-2.65   c-1.79,0.325-2.976,2.039-2.651,3.828c0.026,0.143,1.064,5.944,2.304,15.706c-2.53-3.755-4.88-7.142-6.853-9.93l0.16,0.052   c1.735,0.579,3.591-0.357,4.166-2.08c0.576-1.727-0.357-3.592-2.083-4.165l-9.88-3.294c-1.37-0.463-2.874,0.025-3.713,1.196   c-0.225,0.312-0.379,0.655-0.481,1.01c-1.972-1.458-4.5-2.643-6.874-1.649c-1.436,0.595-3.147,2.094-3.147,5.859   c0,2.892,1.104,6.018,2.272,9.33c1.939,5.493,3.153,9.533,1.1,11.459c-1.135,1.064-2.269,1.466-3.375,1.187   c-2.031-0.515-4.041-3.219-5.381-7.236c-0.058-0.174-0.18-0.301-0.263-0.458c0.692-5.102,0.39-11.247-1.004-18.221   c-0.356-1.785-2.086-2.946-3.875-2.583c-1.783,0.357-2.939,2.09-2.583,3.875c2.15,10.755,1.505,19.528-1.725,23.469   c-1.249,1.524-2.814,2.232-4.926,2.232c-0.668,0-1.123-0.212-1.576-0.733c-2.598-2.994-2.587-12.656-1.749-18.564   c0.134-0.942-0.15-1.901-0.775-2.621c-0.626-0.721-1.533-1.135-2.486-1.135c-5.666,0-7.815,6.445-9.711,12.131   c-0.831,2.499-2.381,7.147-3.463,7.629c-1.994,0-3.282-5.853-3.294-9.883c-0.005-1.817-1.478-3.287-3.294-3.287   c0,0-0.003,0-0.004,0c-1.817,0-3.288,1.473-3.288,3.291c0,7.596,2.587,16.467,9.88,16.467c5.43,0,7.63-5.918,9.472-11.417   c0.32,4.374,1.307,8.905,3.736,11.703c1.706,1.969,3.972,3.007,6.553,3.007c4.065,0,7.529-1.605,10.018-4.641   c0.45-0.55,0.84-1.181,1.223-1.818c1.913,2.719,4.258,4.511,6.901,5.178c0.775,0.196,1.555,0.296,2.327,0.296   c2.543,0,5.027-1.049,7.172-3.065c0.446-0.42,0.76-0.878,1.1-1.328c0.805,0.23,1.622,0.367,2.433,0.367   c2.668,0,5.236-1.074,6.83-2.097c1.524-0.978,1.965-2.997,0.997-4.528c-0.97-1.528-2.999-1.984-4.534-1.025   c-0.029,0.014-2.227,1.277-3.728,0.981c0.004-3.61-1.303-7.445-2.495-10.822c-0.678-1.923-1.375-3.895-1.703-5.506   c0.272,0.228,0.537,0.466,0.773,0.697c1.283,1.286,3.369,1.286,4.656,0c0.213-0.213,0.337-0.472,0.478-0.721   c3.414,4.703,10.435,14.585,17.657,25.977c1.379,14.002,2.589,31.865,2.589,51.455c0,1.82,1.475,3.294,3.294,3.294   C303.817,219.231,305.289,217.755,305.289,215.934z"/>
	<path style="fill:#F5F5F5;" d="M308.582,143.481c0,1.82,1.475,3.294,3.294,3.294s3.294-1.473,3.294-3.294   c0-3.876-3.033-10.138-3.641-11.353c-0.813-1.624-2.79-2.28-4.419-1.473c-1.628,0.813-2.287,2.792-1.473,4.419   C306.825,137.45,308.582,141.763,308.582,143.481z"/>
	<path style="fill:#F5F5F5;" d="M293.596,216.295c-1.614-0.823-3.599-0.17-4.42,1.451c-0.353,0.691-0.902,1.46-1.365,1.956   c-0.147-1.309,0.203-3.924,0.867-6.092c0.442-1.447-0.157-3.01-1.454-3.789c-1.291-0.782-2.956-0.579-4.024,0.492l-6.586,6.586   c-1.286,1.286-1.286,3.371,0,4.657c1.286,1.286,3.371,1.286,4.657,0l0.168-0.167c0.285,1.322,0.829,2.528,1.763,3.46   c1.235,1.235,2.727,1.887,4.279,1.887c0.301,0,0.603-0.025,0.905-0.074c3.731-0.605,6.053-4.718,6.677-5.963   C295.872,219.076,295.216,217.111,293.596,216.295z"/>
	<path style="fill:#F5F5F5;" d="M292.322,189.793h-23.211c0.206-0.82,0.418-1.602,0.634-2.344   c9.256-1.923,14.757-4.911,16.375-8.899c0.559-1.383,1.144-4.178-1.239-7.39c-2.147-2.895-5.178-4.194-8.325-3.55   c-4.68,0.948-8.849,5.991-11.842,14.064c-9.297,1.592-15.249,4.929-19.015,8.223c-1.337-13.496-6.576-21.513-6.829-21.895   c-1.01-1.515-3.055-1.923-4.567-0.914c-1.513,1.01-1.922,3.052-0.914,4.567c0.059,0.09,6.034,9.227,6.034,24.52   c0,15.032-11.987,26.347-19.76,26.347c-3.698,0-5.316-4.396-6.028-8.112c7.611-5.334,14.327-11.507,15.81-17.437   c2.007-8.024-0.519-13.939-2.19-17.853c-0.079-0.18-0.16-0.373-0.245-0.573c0.071,0.064,0.138,0.132,0.206,0.196   c1.283,1.286,3.369,1.286,4.656,0c1.286-1.286,1.286-3.371,0-4.657c-1.925-1.926-5.663-4.953-9.061-3.531   c-1.436,0.595-3.147,2.094-3.147,5.859c0,1.702,0.711,3.364,1.534,5.294c1.482,3.47,3.327,7.789,1.857,13.669   c-0.869,3.479-5.142,7.699-10.78,11.89c-0.605-0.723-1.477-1.209-2.492-1.209h-0.005c-1.817,0.003-3.288,1.473-3.288,3.291   c0,0.592,0.025,1.226,0.064,1.876c-7.047,4.565-15.023,8.789-21.189,11.593c-1.654,0.752-2.386,2.705-1.634,4.361   c0.552,1.212,1.748,1.93,2.999,1.93c0.457,0,0.92-0.093,1.36-0.295c1.852-0.842,10.641-4.936,19.669-10.532   c1.663,5.646,5.186,10.829,11.902,10.829c7.901,0,16.864-6.46,22.036-16.106c0.624,1.102,1.342,2.159,2.198,3.145   c8.289,9.558,24.481,9.668,25.166,9.668c1.773,0,3.227-1.402,3.292-3.175c0.063-1.772-1.288-3.277-3.055-3.402   c-0.025-0.003-2.65-0.292-4.11-1.997c-0.881-1.03-1.233-2.444-1.077-4.326c0.338-4.059,13.429-7.092,24.967-7.272   c1.375-0.022,2.592-0.895,3.054-2.19l3.294-9.263c0.359-1.006,0.205-2.129-0.414-3C294.396,190.314,293.39,189.793,292.322,189.793   z M277.865,174.066c0.062-0.013,0.147-0.033,0.251-0.033c0.315,0,0.812,0.154,1.475,1.049c0.126,0.167,0.525,0.74,0.424,0.991   c-0.378,0.933-2.651,2.473-7.389,3.869C274.709,175.877,276.747,174.291,277.865,174.066z M257.976,217.359   c-3.346-1.087-6.755-2.811-9.116-5.542c-2.594-3-3.552-6.795-2.923-11.598c0.095-0.252,0.31-0.75,0.687-1.397   c4.638-0.425,17.027,1.403,17.885,4.951c-3.821,1.951-6.637,4.694-6.962,8.593C257.384,214.323,257.584,215.979,257.976,217.359z"/>
	<path style="fill:#F5F5F5;" d="M328.174,142.438l-3.294-9.88c-0.531-1.589-2.179-2.537-3.813-2.178   c-1.642,0.35-2.757,1.878-2.589,3.547c2.272,22.726,6.571,67.044,6.571,72.125c0,4.564-8.117,13.549-21.233,20.107   c-1.628,0.813-2.286,2.792-1.473,4.419c0.577,1.155,1.74,1.821,2.95,1.821c0.494,0,0.997-0.113,1.47-0.347   c11.981-5.991,24.874-16.682,24.874-26c0-4.866-3.365-39.877-5.294-59.543C327.905,145.845,328.72,144.079,328.174,142.438z"/>
	<path style="fill:#F5F5F5;" d="M355.654,172.156c0.634,0.634,1.476,0.965,2.331,0.965c0.556,0,1.117-0.141,1.627-0.432   c1.288-0.733,1.929-2.239,1.564-3.676c-0.59-2.316-0.786-5.211-0.475-6.393c1.65,0.052,3.181-1.123,3.423-2.823   c0.257-1.801-0.994-3.47-2.794-3.727c-2.178-0.295-4.089,0.344-5.426,1.83c-0.865,0.965-1.38,2.203-1.66,3.534l-3.815-3.814   c-1.286-1.286-3.371-1.286-4.657,0c-1.286,1.286-1.286,3.371,0,4.657L355.654,172.156z"/>
	<path style="fill:#F5F5F5;" d="M363.062,175.591l-12.35,8.85c-1.478,1.058-1.819,3.116-0.759,4.596   c0.644,0.897,1.654,1.374,2.681,1.374c0.664,0,1.335-0.199,1.915-0.617l12.35-8.85c1.478-1.058,1.819-3.116,0.76-4.596   C366.597,174.867,364.536,174.523,363.062,175.591z"/>
	<path style="fill:#F5F5F5;" d="M361.969,187.976c-1.036,1.335-0.887,3.212,0.288,4.368c0.141,0.238,0.783,1.499,0.668,4.74   c-0.064,1.82,1.357,3.344,3.175,3.409c0.04,0.003,0.08,0.003,0.119,0.003c1.766,0,3.226-1.399,3.291-3.174   c0.239-6.721-1.96-9.179-2.917-9.922C365.157,186.278,363.085,186.542,361.969,187.976z"/>
	<path style="fill:#F5F5F5;" d="M390.71,212.229c1.819,0,3.294-1.473,3.294-3.294c0-4.859-0.249-10.283-0.658-15.927   c3.265,5.351,5.979,10.284,7.717,14.342c0.534,1.251,1.749,1.997,3.028,1.997c0.433,0,0.874-0.083,1.297-0.267   c1.671-0.717,2.445-2.653,1.729-4.322c-3.015-7.036-8.65-16.357-15.068-25.981c-1.292-12.088-2.979-23.932-4.291-32.429   c0.697,0.071,1.422-0.099,2.056-0.512c1.04-0.667,1.528-1.823,1.458-2.975c0.084,0.324,0.175,0.649,0.364,0.946   c0.022,0.033,2.139,3.528,1.2,8.063c-0.368,1.779,0.776,3.522,2.558,3.892c0.225,0.045,0.451,0.068,0.671,0.068   c1.53,0,2.899-1.071,3.223-2.628c1.488-7.194-1.948-12.7-2.093-12.932c-0.978-1.531-3.014-1.981-4.548-1.01   c-1.044,0.666-1.538,1.824-1.471,2.978c-0.085-0.326-0.179-0.653-0.371-0.952l-5.558-8.645c-0.849-1.319-2.51-1.853-3.969-1.286   c-1.462,0.573-2.318,2.094-2.046,3.638c0.045,0.258,2.563,14.711,4.793,32.13c-2.526-3.566-5.049-7.052-7.498-10.378   c-0.398-4.982-0.797-9.589-1.143-13.399c0.181-0.055,0.36-0.126,0.536-0.212c1.628-0.813,2.286-2.792,1.473-4.419l-3.294-6.586   c-0.711-1.421-2.334-2.129-3.861-1.692c-1.527,0.444-2.52,1.911-2.362,3.493c0.393,3.93,0.802,8.282,1.204,12.851   c-2.083-2.746-4.011-5.259-5.659-7.387c0.322-0.276,0.596-0.62,0.8-1.025c0.813-1.627,0.154-3.605-1.473-4.419l-6.586-3.294   c-1.381-0.688-3.058-0.328-4.034,0.875c-0.972,1.203-0.976,2.92-0.01,4.129c0.178,0.222,8.286,10.387,17.987,23.507   c1.683,21.759,2.802,44.395,1.221,49.14c-0.289,0.868-0.794,1.891-1.269,1.926c-1.991,0.276-6.741-4.175-9.127-8.944   c-1.375-2.746-3.353-3.033-4.411-2.985c-3.54,0.218-4.921,4.113-7.43,11.183c-1.8,5.065-4.034,11.362-6.545,13.939   c-1.36-1.662-3.119-7.236-4.096-12.966c0.459,1.267,1.644,2.183,3.069,2.183c1.819,0,3.294-1.473,3.294-3.294   c0-4.911-3.435-42.315-5.353-62.815c1.602-0.644,2.444-2.435,1.892-4.094l-3.294-9.88c-0.529-1.589-2.154-2.525-3.806-2.181   c-1.638,0.347-2.757,1.868-2.597,3.534c2.238,23.494,6.436,68.874,6.566,75.136c-0.008-0.056-0.019-0.112-0.027-0.169   c-0.255-1.801-1.936-3.036-3.726-2.795c-1.801,0.261-3.05,1.926-2.794,3.727c0.961,6.731,3.418,18.306,9.079,20.191   c0.447,0.151,1.049,0.286,1.754,0.286c1.298,0,2.948-0.46,4.635-2.148c3.588-3.586,6.015-10.423,8.156-16.454   c0.484-1.363,1.056-2.978,1.597-4.361c3.022,4.412,8.293,9.905,13.633,9.475c1.878-0.135,5.294-1.145,7.05-6.413   c1.751-5.254,1.059-23.576-0.121-41.117c2.775,3.889,5.551,7.87,8.202,11.804c1.028,9.862,1.762,19.743,1.762,27.858   C387.417,210.756,388.892,212.229,390.71,212.229z"/>
	<path style="fill:#F5F5F5;" d="M415.702,194.907c-2.334-17.38-5.583-37.513-7.641-49.87c0.929,0.229,1.942,0.042,2.76-0.586   c1.447-1.104,1.724-3.171,0.62-4.616l-5.969-7.822c-0.921-1.203-2.546-1.627-3.936-1.019s-2.185,2.087-1.926,3.583   c0.059,0.338,5.932,34.146,9.565,61.204c1.387,10.34-0.638,19.58-5.423,24.712c-3.074,3.297-7.15,4.789-12.08,4.503   c-1.81-0.097-3.38,1.267-3.494,3.081c-0.114,1.814,1.264,3.377,3.08,3.493c0.556,0.035,1.105,0.052,1.648,0.052   c6.211,0,11.601-2.277,15.665-6.638C414.775,218.327,417.375,207.363,415.702,194.907z"/>
	<path style="fill:#F5F5F5;" d="M379.472,216.616c-1.211,1.316-1.117,3.387,0.162,4.628c0.178,0.174,0.392,0.515,0.394,0.682   c0.002,0.093-0.132,0.37-0.499,0.736c-1.286,1.286-1.286,3.371,0,4.657c0.644,0.644,1.485,0.964,2.328,0.964   s1.685-0.322,2.328-0.964c2.089-2.088,2.472-4.206,2.425-5.619c-0.101-3.039-2.171-5.001-2.584-5.365   C382.684,215.165,380.681,215.307,379.472,216.616z"/>
	<path style="fill:#F5F5F5;" d="M367.862,288.84h-3.294h-19.76v-3.294c0-1.82-1.475-3.294-3.294-3.294s-3.294,1.473-3.294,3.294   v3.294H163.676c6.586,6.586,19.76,9.88,29.64,9.88c7.085,0,95.475,0,144.907,0v6.586c0,1.82,1.475,3.294,3.294,3.294h26.347   c5.448,0,9.88-4.432,9.88-9.88C377.742,293.272,373.31,288.84,367.862,288.84z M367.862,302.014h-23.054v-3.294   c15.871,0,26.347,0,26.347,0l-0.591-1.772c0.342,0.519,0.591,1.105,0.591,1.772C371.156,300.538,369.678,302.014,367.862,302.014z"/>
</g>
<path style="fill:#2E3033;" d="M19.122,488.101L19.122,488.101C8.561,488.101,0,479.54,0,468.979V42.865  c0-10.474,8.491-18.966,18.965-18.966h0.157c10.561,0,19.122,8.561,19.122,19.122v425.958  C38.244,479.54,29.683,488.101,19.122,488.101z"/>
<g>
</g>
<g>
</g>
<g>
</g>
<g>
</g>
<g>
</g>
<g>
</g>
<g>
</g>
<g>
</g>
<g>
</g>
<g>
</g>
<g>
</g>
<g>
</g>
<g>
</g>
<g>
</g>
<g>
</g>
</svg>
