<?xml version="1.0" encoding="iso-8859-1"?>
<!-- Generator: Adobe Illustrator 19.0.0, SVG Export Plug-In . SVG Version: 6.00 Build 0)  -->
<svg xmlns="http://www.w3.org/2000/svg" xmlns:xlink="http://www.w3.org/1999/xlink" version="1.1" id="Layer_1" x="0px" y="0px" viewBox="0 0 512 512" style="enable-background:new 0 0 512 512;" xml:space="preserve">
<path style="fill:#464655;" d="M512,162H27V64.5c0-4.6,3.8-8.4,8.4-8.4h468.2c4.6,0,8.4,3.8,8.4,8.4V162z"/>
<path style="fill:#73AF00;" d="M503.6,373.9H35.4c-4.6,0-8.4-3.8-8.4-8.4V268h485v97.5C512,370.1,508.2,373.9,503.6,373.9z"/>
<rect x="27" y="162" style="fill:#F5F5F5;" width="485" height="105.9"/>
<g>
	<path style="fill:#FF4B55;" d="M30.1,371.9l192.1-152.5c2.8-2.2,2.8-6.5,0-8.7L30.1,58.1c-1.8,1.5-3.1,3.8-3.1,6.3v301   C27,368.1,28.2,370.3,30.1,371.9z"/>
	<path style="fill:#FF4B55;" d="M278,215c0-19.1,12.5-35.2,29.7-40.8c1-0.3,0.9-1.8-0.2-1.9c-3.3-0.3-6.7-0.3-10.2,0.2   c-20.2,2.8-35.8,19.9-36.8,40.3c-1.2,24.6,18.4,45,42.8,45c1.4,0,2.8-0.1,4.2-0.2c1-0.1,1.2-1.6,0.2-1.9   C290.4,250.2,278,234.1,278,215z"/>
	<path style="fill:#FF4B55;" d="M314.4,186.8l-5.6,16.9l-17.8,0.1c-2.3,0-3.3,3-1.4,4.3l14.3,10.6l-5.4,17c-0.7,2.2,1.8,4,3.7,2.7   l14.5-10.4l14.5,10.4c1.9,1.3,4.4-0.5,3.7-2.7l-5.4-17l14.3-10.6c1.9-1.4,0.9-4.3-1.4-4.3l-17.8-0.1l-5.6-16.9   C318.2,184.6,315.1,184.6,314.4,186.8z"/>
</g>
<path style="fill:#2E3033;" d="M18.9,485.2L18.9,485.2C8.5,485.2,0,476.7,0,466.3V45.5c0-10.3,8.4-18.7,18.7-18.7h0.2  c10.4,0,18.9,8.5,18.9,18.9v420.6C37.8,476.7,29.3,485.2,18.9,485.2z"/>
<g>
</g>
<g>
</g>
<g>
</g>
<g>
</g>
<g>
</g>
<g>
</g>
<g>
</g>
<g>
</g>
<g>
</g>
<g>
</g>
<g>
</g>
<g>
</g>
<g>
</g>
<g>
</g>
<g>
</g>
</svg>
