<?xml version="1.0" encoding="iso-8859-1"?>
<!-- Generator: Adobe Illustrator 19.0.0, SVG Export Plug-In . SVG Version: 6.00 Build 0)  -->
<svg xmlns="http://www.w3.org/2000/svg" xmlns:xlink="http://www.w3.org/1999/xlink" version="1.1" id="Layer_1" x="0px" y="0px" viewBox="0 0 512 512" style="enable-background:new 0 0 512 512;" xml:space="preserve">
<path style="fill:#F5F5F5;" d="M503.7,373.9H35.3c-4.6,0-8.3-3.7-8.3-8.3V64.5c0-4.6,3.7-8.3,8.3-8.3h468.3c4.6,0,8.3,3.7,8.3,8.3  v301C512,370.2,508.3,373.9,503.7,373.9z"/>
<polygon style="fill:#FF4B55;" points="512,198.2 286.2,198.2 286.2,56.1 252.8,56.1 252.8,198.2 27,198.2 27,231.8 252.8,231.8   252.8,373.9 286.2,373.9 286.2,231.8 512,231.8 "/>
<g>
	<path style="fill:#464655;" d="M183.4,131c1.4-2.8-6.4-11.9-6-14s1.3-5.2-2-17.2c-3.3-11.9-13.2-14.8-25.2-16   c-11.9-1.2-27.7,7.3-31.3,16.7c-2.2,5.6-0.7,11.9,1.5,18c-1,0.1-3,0.2-4.4-0.9c-1.2-0.8-1.7-2.3-1.9-4.3c-0.4-7.6,3.7-20,3.8-20.1   l0.3-0.9l-13-4.6l0.8,6.1l-10.1-2.1l0.6,1.7c0.9,2.4,8.7,23.7,9.7,25.6c1.7,3.1,4,5,6.9,5.8c1,0.3,2.1,0.4,3,0.4   c0.1,0,0.3-0.1,0.3-0.1c-0.6,1.1-1.8,2.4-4.8,3.9c-3.5,1.7-7.1,3.4-7.6,10l-0.1,0.1c0.1,0.1,0.1,0.1,0.1,0.1   c-0.1,1.7,0,3.8,0.4,6.3c1,6.2,3.1,12.3,3.3,12.6l0.2,0.6l0.6,0.1c0.1,0,4.1,0.5,5.4,4.8c0.7,2.5,3,4.4,5.2,4.4c0.1,0,0.1,0,0.2,0   c1-0.1,3.3-0.6,4-4.4l0.1-0.6l-6.2-5.6l2.1-6.7l-1-0.3c-0.1,0-4.1-1.2-8.3-5.8c-0.4-1.9-0.3-3.3,0.1-4c0.6-0.9,1.8-1.1,3.2-1.4   c1.3-0.3,2.7-0.5,3.8-1.4c3.5-2.8,5.5-7.5,6.5-10.8c0.5,1.2,1.1,2.4,1.5,3.6c3.5,8.7-6.2,18.6-6.2,18.6c6.2,2.5,6.8,3.9,15.5,14.6   s16.5,6.2,16.5,6.2s-1.1-6.9,4.6-9.8s5.8-6.6,5.8-6.6c14.2,3.3,15-2.5,14.4-4.5s0.1-5.2,0.1-5.2s1.4,0.1,2.5-0.6   c1.7-1.2,0.5-3.8,0.5-3.8c1.6-0.8,2.2-2.5,1-3.8s-1.2-2.8-1.2-2.8S182.5,132.9,183.4,131z M113.9,122.8c-2.4-0.6-4.3-2.3-5.7-4.9   c-0.7-1.2-5.5-14.3-9-23.6l7.2,1.5l1.3,10.8l1.9-0.3l-1.9-15.8l8.2,2.9c-1,3.1-3.9,13.1-3.6,19.9c0.1,2.6,1,4.6,2.6,5.8   c1.5,1.1,3.3,1.3,4.6,1.3c0.8,0,1.3-0.1,1.7-0.1c0.2,0.5,0.4,1,0.6,1.5C120.8,122.4,117.5,123.8,113.9,122.8z M121.6,163.6   c-0.3,1-0.8,2.2-2.1,2.2h-0.1c-1.3,0-2.9-1.3-3.3-3c0-0.1-0.1-0.1-0.1-0.2l1-3.3L121.6,163.6z M117.3,151.8l-2.5,8.3   c-1.6-2.2-3.9-3-5-3.3c-0.6-1.6-2.2-6.7-3-11.7c-0.2-1-0.3-1.9-0.3-2.8C110.6,148.4,115.3,151.1,117.3,151.8z M116.4,136   c-0.7,0.6-1.8,0.8-3,1c-1.6,0.3-3.5,0.7-4.5,2.2c-0.4,0.6-0.6,1.3-0.6,2.1c-0.6-0.9-1.3-1.7-1.9-2.8c0.4-5,3.2-6.3,6.4-7.8   c4.7-2.2,5.8-4.5,6.2-5.9c1.7-0.3,3-0.8,3.7-1.2c0.1,0.1,0.1,0.2,0.1,0.3C122.3,126.2,120.5,132.8,116.4,136z M127.4,127.1l-4-8.7   l47.5-22c3.1,5.9,3.4,12.9,3.4,12.9L127.4,127.1z"/>
	<path style="fill:#464655;" d="M442.7,131c1.4-2.8-6.4-11.9-6-14s1.3-5.2-2-17.2c-3.3-11.9-13.2-14.8-25.2-16   c-11.9-1.2-27.7,7.3-31.3,16.7c-2.2,5.6-0.7,11.9,1.5,18c-1,0.1-3,0.2-4.4-0.9c-1.2-0.8-1.7-2.3-1.9-4.3c-0.4-7.6,3.7-20,3.8-20.1   l0.3-0.9l-13-4.6l0.8,6.1l-10.1-2.2l0.6,1.7c0.9,2.4,8.7,23.7,9.7,25.6c1.7,3.1,4,5,6.9,5.8c1,0.3,2.1,0.4,3,0.4   c0.1,0,0.3-0.1,0.3-0.1c-0.6,1.1-1.8,2.4-4.8,3.9c-3.5,1.7-7.1,3.4-7.6,10l-0.1,0.1c0.1,0.1,0.1,0.1,0.1,0.1   c-0.1,1.7,0,3.8,0.4,6.3c1,6.2,3.1,12.3,3.3,12.6l0.2,0.6l0.6,0.1c0.1,0,4.1,0.5,5.4,4.8c0.7,2.5,3,4.4,5.2,4.4c0.1,0,0.1,0,0.2,0   c1-0.1,3.3-0.6,4-4.4l0.1-0.6l-6.2-5.6l2.1-6.8l-1-0.3c-0.1,0-4.1-1.2-8.3-5.8c-0.4-1.9-0.3-3.3,0.1-4c0.6-0.9,1.8-1.1,3.2-1.4   c1.3-0.3,2.7-0.5,3.8-1.4c3.5-2.8,5.5-7.5,6.5-10.8c0.5,1.2,1.1,2.4,1.5,3.6c3.5,8.7-6.2,18.6-6.2,18.6c6.2,2.5,6.8,3.9,15.5,14.6   s16.5,6.2,16.5,6.2s-1.1-6.9,4.6-9.8c5.7-2.9,5.8-6.6,5.8-6.6c14.2,3.3,15-2.5,14.4-4.5s0.1-5.2,0.1-5.2s1.4,0.1,2.5-0.6   c1.7-1.2,0.5-3.8,0.5-3.8c1.6-0.8,2.2-2.5,1-3.8s-1.2-2.8-1.2-2.8S441.7,132.9,442.7,131z M373.1,122.8c-2.4-0.6-4.3-2.3-5.7-4.9   c-0.7-1.2-5.5-14.3-8.9-23.6l7.2,1.5l1.3,10.8l1.9-0.3l-2-15.8l8.2,2.9c-1,3.1-3.9,13.1-3.6,19.9c0.1,2.6,1,4.6,2.6,5.8   c1.5,1.1,3.3,1.3,4.6,1.3c0.8,0,1.3-0.1,1.7-0.1c0.2,0.5,0.4,1,0.6,1.5C380,122.4,376.7,123.8,373.1,122.8z M380.8,163.6   c-0.3,1-0.8,2.2-2.1,2.2h-0.1c-1.3,0-2.9-1.3-3.3-3c0-0.1-0.1-0.1-0.1-0.2l1-3.3L380.8,163.6z M376.5,151.8l-2.5,8.3   c-1.6-2.2-3.9-3-5-3.3c-0.5-1.6-2.2-6.7-3-11.7c-0.2-1-0.3-1.9-0.3-2.8C369.8,148.4,374.5,151.1,376.5,151.8z M375.6,136   c-0.7,0.6-1.8,0.8-3,1c-1.6,0.3-3.5,0.7-4.5,2.2c-0.4,0.6-0.6,1.3-0.6,2.1c-0.6-0.9-1.3-1.7-1.9-2.8c0.4-5,3.2-6.3,6.4-7.8   c4.7-2.2,5.8-4.5,6.2-5.9c1.7-0.3,3-0.8,3.7-1.2c0.1,0.1,0.1,0.2,0.1,0.3C381.5,126.2,379.8,132.8,375.6,136z M386.6,127.1l-4-8.7   l47.5-22c3.1,5.9,3.4,12.9,3.4,12.9L386.6,127.1z"/>
	<path style="fill:#464655;" d="M183.4,306.6c1.4-2.8-6.4-11.9-6-14s1.3-5.2-2-17.2c-3.3-11.9-13.2-14.8-25.2-16   c-11.9-1.2-27.7,7.3-31.3,16.7c-2.2,5.6-0.7,11.9,1.5,18c-1,0.1-3,0.2-4.4-0.9c-1.2-0.8-1.7-2.3-1.9-4.3c-0.4-7.6,3.7-20,3.8-20.1   l0.3-0.9l-13-4.6l0.8,6.1l-10-2.1l0.6,1.7c0.9,2.4,8.7,23.7,9.7,25.6c1.7,3.1,4,5,6.9,5.8c1,0.3,2.1,0.4,3,0.4   c0.1,0,0.3-0.1,0.3-0.1c-0.6,1.1-1.8,2.4-4.8,3.9c-3.5,1.7-7.1,3.4-7.6,10l-0.1,0.1c0.1,0.1,0.1,0.1,0.1,0.1   c-0.1,1.7,0,3.8,0.4,6.3c1,6.2,3.1,12.3,3.3,12.6l0.2,0.6l0.6,0.1c0.1,0,4.1,0.5,5.4,4.8c0.7,2.5,3,4.4,5.2,4.4c0.1,0,0.1,0,0.2,0   c1-0.1,3.3-0.6,4-4.4l0.1-0.6l-6.2-5.6l2.1-6.8l-1-0.3c-0.1,0-4.1-1.2-8.3-5.8c-0.4-1.9-0.3-3.3,0.1-4c0.6-0.9,1.8-1.1,3.2-1.4   c1.3-0.3,2.7-0.5,3.8-1.4c3.5-2.8,5.5-7.5,6.5-10.8c0.5,1.2,1.1,2.4,1.5,3.6c3.5,8.7-6.2,18.6-6.2,18.6c6.2,2.5,6.8,3.9,15.5,14.6   s16.5,6.2,16.5,6.2s-1.1-6.9,4.6-9.8c5.7-2.9,5.8-6.6,5.8-6.6c14.2,3.3,15-2.5,14.4-4.5s0.1-5.2,0.1-5.2s1.4,0.1,2.5-0.6   c1.7-1.2,0.5-3.8,0.5-3.8c1.6-0.8,2.2-2.5,1-3.8s-1.2-2.8-1.2-2.8S182.5,308.5,183.4,306.6z M113.9,298.5c-2.4-0.6-4.3-2.3-5.7-4.9   c-0.7-1.2-5.5-14.3-8.9-23.6l7.2,1.5l1.3,10.8l1.9-0.3l-2-15.8l8.2,2.9c-1,3.1-3.9,13.1-3.6,19.9c0.1,2.6,1,4.6,2.6,5.8   c1.5,1.1,3.3,1.3,4.6,1.3c0.8,0,1.3-0.1,1.7-0.1c0.2,0.5,0.4,1,0.6,1.5C120.8,298,117.5,299.4,113.9,298.5z M121.6,339.2   c-0.3,1-0.8,2.2-2.1,2.2h-0.1c-1.3,0-2.9-1.3-3.3-3c0-0.1-0.1-0.1-0.1-0.2l1-3.3L121.6,339.2z M117.3,327.4l-2.5,8.3   c-1.6-2.2-3.9-3-5-3.3c-0.5-1.6-2.2-6.7-3-11.7c-0.2-1-0.3-1.9-0.3-2.8C110.6,324,115.3,326.6,117.3,327.4z M116.4,311.7   c-0.7,0.6-1.8,0.8-3,1c-1.6,0.3-3.5,0.7-4.5,2.2c-0.4,0.6-0.6,1.3-0.6,2.1c-0.6-0.9-1.3-1.7-1.9-2.8c0.4-5,3.2-6.3,6.4-7.8   c4.7-2.2,5.8-4.5,6.2-5.9c1.7-0.3,3-0.8,3.7-1.2c0.1,0.1,0.1,0.2,0.1,0.3C122.3,301.8,120.5,308.4,116.4,311.7z M127.4,302.8   l-4-8.7l47.5-22c3.1,5.9,3.4,12.9,3.4,12.9L127.4,302.8z"/>
	<path style="fill:#464655;" d="M442.7,306.6c1.4-2.8-6.4-11.9-6-14s1.3-5.2-2-17.2c-3.3-11.9-13.2-14.8-25.2-16   c-11.9-1.2-27.7,7.3-31.3,16.7c-2.2,5.6-0.7,11.9,1.5,18c-1,0.1-3,0.2-4.4-0.9c-1.2-0.8-1.7-2.3-1.9-4.3c-0.4-7.6,3.7-20,3.8-20.1   l0.3-0.9l-13-4.6l0.8,6.1l-10-2.1l0.6,1.7c0.9,2.4,8.7,23.7,9.7,25.6c1.7,3.1,4,5,6.9,5.8c1,0.3,2.1,0.4,3,0.4   c0.1,0,0.3-0.1,0.3-0.1c-0.6,1.1-1.8,2.4-4.8,3.9c-3.5,1.7-7.1,3.4-7.6,10l-0.1,0.1c0.1,0.1,0.1,0.1,0.1,0.1   c-0.1,1.7,0,3.8,0.4,6.3c1,6.2,3.1,12.3,3.3,12.6l0.2,0.6l0.6,0.1c0.1,0,4.1,0.5,5.4,4.8c0.7,2.5,3,4.4,5.2,4.4c0.1,0,0.1,0,0.2,0   c1-0.1,3.3-0.6,4-4.4l0.1-0.6l-6.2-5.6l2.1-6.8l-1-0.3c-0.1,0-4.1-1.2-8.3-5.8c-0.4-1.9-0.3-3.3,0.1-4c0.6-0.9,1.8-1.1,3.2-1.4   c1.3-0.3,2.7-0.5,3.8-1.4c3.5-2.8,5.5-7.5,6.5-10.8c0.5,1.2,1.1,2.4,1.5,3.6c3.5,8.7-6.2,18.6-6.2,18.6c6.2,2.5,6.8,3.9,15.5,14.6   s16.5,6.2,16.5,6.2s-1.1-6.9,4.6-9.8s5.8-6.6,5.8-6.6c14.2,3.3,15-2.5,14.4-4.5s0.1-5.2,0.1-5.2s1.4,0.1,2.5-0.6   c1.7-1.2,0.5-3.8,0.5-3.8c1.6-0.8,2.2-2.5,1-3.8s-1.2-2.8-1.2-2.8S441.7,308.5,442.7,306.6z M373.1,298.5c-2.4-0.6-4.3-2.3-5.7-4.9   c-0.7-1.2-5.5-14.3-8.9-23.6l7.2,1.5l1.3,10.8l1.9-0.3l-2-15.8l8.2,2.9c-1,3.1-3.9,13.1-3.6,19.9c0.1,2.6,1,4.6,2.6,5.8   c1.5,1.1,3.3,1.3,4.6,1.3c0.8,0,1.3-0.1,1.7-0.1c0.2,0.5,0.4,1,0.6,1.5C380,298,376.7,299.4,373.1,298.5z M380.8,339.2   c-0.3,1-0.8,2.2-2.1,2.2h-0.1c-1.3,0-2.9-1.3-3.3-3c0-0.1-0.1-0.1-0.1-0.2l1-3.3L380.8,339.2z M376.5,327.4l-2.5,8.3   c-1.6-2.2-3.9-3-5-3.3c-0.5-1.6-2.2-6.7-3-11.7c-0.2-1-0.3-1.9-0.3-2.8C369.8,324,374.5,326.6,376.5,327.4z M375.6,311.7   c-0.7,0.6-1.8,0.8-3,1c-1.6,0.3-3.5,0.7-4.5,2.2c-0.4,0.6-0.6,1.3-0.6,2.1c-0.6-0.9-1.3-1.7-1.9-2.8c0.4-5,3.2-6.3,6.4-7.8   c4.7-2.2,5.8-4.5,6.2-5.9c1.7-0.3,3-0.8,3.7-1.2c0.1,0.1,0.1,0.2,0.1,0.3C381.5,301.8,379.8,308.4,375.6,311.7z M386.6,302.8   l-4-8.7l47.5-22c3.1,5.9,3.4,12.9,3.4,12.9L386.6,302.8z"/>
</g>
<path style="fill:#2E3033;" d="M19.2,489.1L19.2,489.1C8.6,489.1,0,480.5,0,469.9V42c0-10.5,8.5-19.1,19.1-19.1h0.1  c10.6,0,19.2,8.6,19.2,19.2v427.8C38.4,480.5,29.8,489.1,19.2,489.1z"/>
<g>
</g>
<g>
</g>
<g>
</g>
<g>
</g>
<g>
</g>
<g>
</g>
<g>
</g>
<g>
</g>
<g>
</g>
<g>
</g>
<g>
</g>
<g>
</g>
<g>
</g>
<g>
</g>
<g>
</g>
</svg>
