<?xml version="1.0" encoding="iso-8859-1"?>
<!-- Generator: Adobe Illustrator 19.0.0, SVG Export Plug-In . SVG Version: 6.00 Build 0)  -->
<svg xmlns="http://www.w3.org/2000/svg" xmlns:xlink="http://www.w3.org/1999/xlink" version="1.1" id="Layer_1" x="0px" y="0px" viewBox="0 0 512 512" style="enable-background:new 0 0 512 512;" xml:space="preserve">
<path style="fill:#41479B;" d="M503.666,364.335H40.111c-4.602,0-8.334-3.732-8.334-8.334V58.041c0-4.602,3.732-8.334,8.334-8.334  h463.555c4.602,0,8.334,3.732,8.334,8.334v297.961C512,360.605,508.268,364.335,503.666,364.335z"/>
<path style="fill:#73AF00;" d="M508.946,51.708L34.832,362.334c1.436,1.195,3.212,2.001,5.225,2.001H503.72  c4.573,0,8.28-3.708,8.28-8.28V57.987C512,55.428,510.771,53.226,508.946,51.708z"/>
<path style="fill:#FFE15A;" d="M512,57.987c0-4.572-3.707-8.28-8.28-8.28h-14.387L31.777,349.485v6.57c0,4.572,3.706,8.28,8.28,8.28  h14.386L512,64.557V57.987z"/>
<g>
	<path style="fill:#F5F5F5;" d="M73.45,75.502l-4.433,13.29L55.008,88.9c-1.344,0.01-1.9,1.725-0.82,2.523l11.27,8.322   l-4.225,13.357c-0.405,1.281,1.053,2.341,2.146,1.559l11.398-8.146l11.398,8.146c1.093,0.781,2.551-0.278,2.146-1.559   l-4.226-13.357l11.27-8.322c1.08-0.798,0.524-2.513-0.82-2.523l-14.009-0.108l-4.433-13.29   C75.677,74.227,73.875,74.227,73.45,75.502z"/>
	<path style="fill:#F5F5F5;" d="M180.167,75.502l-4.433,13.29L161.725,88.9c-1.344,0.01-1.9,1.725-0.82,2.523l11.27,8.322   l-4.226,13.357c-0.405,1.281,1.053,2.341,2.146,1.559l11.398-8.146l11.398,8.146c1.093,0.781,2.551-0.278,2.146-1.559   l-4.226-13.357l11.27-8.322c1.08-0.798,0.524-2.513-0.82-2.523l-14.009-0.108l-4.433-13.29   C182.396,74.227,180.592,74.227,180.167,75.502z"/>
	<path style="fill:#F5F5F5;" d="M126.809,123.054l-4.433,13.29l-14.009,0.108c-1.344,0.01-1.9,1.725-0.82,2.523l11.27,8.322   l-4.225,13.357c-0.405,1.281,1.053,2.341,2.146,1.559l11.398-8.146l11.398,8.146c1.093,0.781,2.551-0.278,2.146-1.559   l-4.226-13.357l11.269-8.322c1.08-0.798,0.524-2.513-0.82-2.523l-14.009-0.108l-4.433-13.29   C129.037,121.78,127.234,121.78,126.809,123.054z"/>
	<path style="fill:#F5F5F5;" d="M73.45,170.605l-4.433,13.29l-14.009,0.108c-1.344,0.01-1.9,1.725-0.82,2.523l11.27,8.322   l-4.225,13.357c-0.405,1.281,1.053,2.341,2.146,1.559l11.398-8.146l11.398,8.146c1.093,0.781,2.551-0.278,2.146-1.559   l-4.226-13.357l11.27-8.322c1.08-0.798,0.524-2.513-0.82-2.523l-14.009-0.108l-4.433-13.29   C75.677,169.331,73.875,169.331,73.45,170.605z"/>
	<path style="fill:#F5F5F5;" d="M180.167,170.605l-4.433,13.29l-14.009,0.108c-1.344,0.01-1.9,1.725-0.82,2.523l11.27,8.322   l-4.226,13.357c-0.405,1.281,1.053,2.341,2.146,1.559l11.398-8.146l11.398,8.146c1.093,0.781,2.551-0.278,2.146-1.559   l-4.226-13.357l11.27-8.322c1.08-0.798,0.524-2.513-0.82-2.523l-14.009-0.108l-4.433-13.29   C182.396,169.331,180.592,169.331,180.167,170.605z"/>
</g>
<path style="fill:#2E3033;" d="M18.881,485.182L18.881,485.182C8.454,485.182,0,476.729,0,466.302V45.545  c0-10.342,8.384-18.727,18.726-18.727h0.155c10.428,0,18.881,8.454,18.881,18.881V466.3  C37.763,476.729,29.309,485.182,18.881,485.182z"/>
<g>
</g>
<g>
</g>
<g>
</g>
<g>
</g>
<g>
</g>
<g>
</g>
<g>
</g>
<g>
</g>
<g>
</g>
<g>
</g>
<g>
</g>
<g>
</g>
<g>
</g>
<g>
</g>
<g>
</g>
</svg>
