<?xml version="1.0" encoding="iso-8859-1"?>
<!-- Generator: Adobe Illustrator 19.0.0, SVG Export Plug-In . SVG Version: 6.00 Build 0)  -->
<svg xmlns="http://www.w3.org/2000/svg" xmlns:xlink="http://www.w3.org/1999/xlink" version="1.1" id="Layer_1" x="0px" y="0px" viewBox="0 0 512 512" style="enable-background:new 0 0 512 512;" xml:space="preserve">
<path style="fill:#73AF00;" d="M35.3,373.9h468.3c4.6,0,8.3-3.7,8.3-8.3V268L31.6,372.9C32.7,373.5,34,373.9,35.3,373.9z"/>
<path style="fill:#41479B;" d="M188.6,56.1H35.3c-4.6,0-8.3,3.7-8.3,8.3v301c0,1.9,0.7,3.5,1.7,4.9L188.6,56.1z"/>
<path style="fill:#FFE15A;" d="M29.4,371.4L350.3,56.1H188.6L28.7,370.4C29,370.7,29.2,371.2,29.4,371.4z"/>
<path style="fill:#FF4B55;" d="M503.7,56.1H350.4l-321,315.3c0.3,0.3,0.8,0.5,1.2,0.8L512,162V64.4C512,59.8,508.3,56.1,503.7,56.1z  "/>
<path style="fill:#F5F5F5;" d="M31.6,372.9L512,268V162L30.7,372.3C31,372.5,31.2,372.7,31.6,372.9z"/>
<path style="fill:#2E3033;" d="M19.2,489.1L19.2,489.1C8.6,489.1,0,480.5,0,469.9V42c0-10.5,8.5-19.1,19.1-19.1h0.1  c10.6,0,19.2,8.6,19.2,19.2v427.7C38.4,480.4,29.8,489.1,19.2,489.1z"/>
<g>
</g>
<g>
</g>
<g>
</g>
<g>
</g>
<g>
</g>
<g>
</g>
<g>
</g>
<g>
</g>
<g>
</g>
<g>
</g>
<g>
</g>
<g>
</g>
<g>
</g>
<g>
</g>
<g>
</g>
</svg>
