<?xml version="1.0" encoding="iso-8859-1"?>
<!-- Generator: Adobe Illustrator 19.0.0, SVG Export Plug-In . SVG Version: 6.00 Build 0)  -->
<svg xmlns="http://www.w3.org/2000/svg" xmlns:xlink="http://www.w3.org/1999/xlink" version="1.1" id="Layer_1" x="0px" y="0px" viewBox="0 0 512.001 512.001" style="enable-background:new 0 0 512.001 512.001;" xml:space="preserve">
<path style="fill:#FF4B55;" d="M512,167.148H28.09V69.864c0-4.638,3.76-8.398,8.398-8.398h467.115c4.638,0,8.398,3.76,8.398,8.398  L512,167.148L512,167.148z"/>
<path style="fill:#464655;" d="M503.602,378.512H36.488c-4.638,0-8.398-3.76-8.398-8.398V272.83h483.911v97.283  C512,374.752,508.241,378.512,503.602,378.512z"/>
<rect x="28.09" y="167.15" style="fill:#F5F5F5;" width="483.91" height="105.68"/>
<path style="fill:#73AF00;" d="M31.168,376.494l191.714-152.181c2.785-2.211,2.785-6.438,0-8.649L31.168,63.482  c-1.839,1.531-3.078,3.748-3.078,6.327v300.358C28.09,372.748,29.329,374.965,31.168,376.494z"/>
<path style="fill:#2E3033;" d="M19.026,486.943L19.026,486.943C8.519,486.943,0,478.425,0,467.917V43.929  c0-10.422,8.448-18.871,18.87-18.871h0.156c10.508,0,19.026,8.519,19.026,19.026v423.831  C38.053,478.425,29.534,486.943,19.026,486.943z"/>
<g>
</g>
<g>
</g>
<g>
</g>
<g>
</g>
<g>
</g>
<g>
</g>
<g>
</g>
<g>
</g>
<g>
</g>
<g>
</g>
<g>
</g>
<g>
</g>
<g>
</g>
<g>
</g>
<g>
</g>
</svg>
