<?xml version="1.0" encoding="iso-8859-1"?>
<!-- Generator: Adobe Illustrator 19.0.0, SVG Export Plug-In . SVG Version: 6.00 Build 0)  -->
<svg xmlns="http://www.w3.org/2000/svg" xmlns:xlink="http://www.w3.org/1999/xlink" version="1.1" id="Layer_1" x="0px" y="0px" viewBox="0 0 512 512" style="enable-background:new 0 0 512 512;" xml:space="preserve">
<path style="fill:#FF4B55;" d="M512,215H27V64.6c0-4.7,3.8-8.4,8.4-8.4h468.1c4.7,0,8.4,3.8,8.4,8.4L512,215L512,215z"/>
<g>
	<path style="fill:#F5F5F5;" d="M27,215h485v150.4c0,4.7-3.8,8.4-8.4,8.4H35.4c-4.7,0-8.4-3.8-8.4-8.4C27,365.4,27,215,27,215z"/>
	<path style="fill:#F5F5F5;" d="M95.7,135.7c0-27.5,20.2-50.3,46.5-54.5c1.4-0.2,1.5-2.2,0.1-2.5c-6.5-1.5-13.5-1.9-20.6-0.9   c-28.4,3.9-50.4,28.5-50.8,57.1c-0.5,32.7,25.9,59.4,58.5,59.4c4.4,0,8.7-0.5,12.9-1.5c1.4-0.3,1.3-2.3-0.1-2.5   C115.9,186,95.7,163.3,95.7,135.7z"/>
	<path style="fill:#F5F5F5;" d="M142.7,150.4l-2.5,7.4l-7.8,0.1c-1,0-1.4,1.3-0.6,1.9l6.3,4.6l-2.4,7.5c-0.3,1,0.8,1.8,1.6,1.2   l6.4-4.6l6.4,4.6c0.8,0.6,1.9-0.2,1.6-1.2l-2.4-7.5l6.3-4.6c0.8-0.6,0.4-1.9-0.6-1.9l-7.8-0.1l-2.5-7.4   C144.4,149.4,143,149.4,142.7,150.4z"/>
	<path style="fill:#F5F5F5;" d="M181.4,150.4l-2.5,7.4l-7.8,0.1c-1,0-1.4,1.3-0.6,1.9l6.3,4.6l-2.4,7.5c-0.3,1,0.8,1.8,1.6,1.2   l6.4-4.6l6.4,4.6c0.8,0.6,1.9-0.2,1.6-1.2l-2.4-7.5l6.3-4.6c0.8-0.6,0.4-1.9-0.6-1.9l-7.8-0.1l-2.5-7.4   C183.1,149.4,181.7,149.4,181.4,150.4z"/>
	<path style="fill:#F5F5F5;" d="M162.2,90.7l-2.5,7.4l-7.8,0.1c-1,0-1.4,1.3-0.6,1.9l6.3,4.6l-2.4,7.5c-0.3,1,0.8,1.8,1.6,1.2   l6.4-4.6l6.4,4.6c0.8,0.6,1.9-0.2,1.6-1.2l-2.4-7.5l6.3-4.6c0.8-0.6,0.4-1.9-0.6-1.9l-7.8-0.1l-2.5-7.4   C163.9,89.7,162.5,89.7,162.2,90.7z"/>
	<path style="fill:#F5F5F5;" d="M131.4,113.6l-2.5,7.4l-7.8,0.1c-1,0-1.4,1.3-0.6,1.9l6.3,4.6l-2.4,7.5c-0.3,1,0.8,1.8,1.6,1.2   l6.4-4.6l6.4,4.6c0.8,0.6,1.9-0.2,1.6-1.2l-2.4-7.5l6.3-4.6c0.8-0.6,0.4-1.9-0.6-1.9l-7.8-0.1l-2.5-7.4   C133.1,112.6,131.7,112.6,131.4,113.6z"/>
	<path style="fill:#F5F5F5;" d="M192.8,113.6l-2.5,7.4l-7.8,0.1c-1,0-1.4,1.3-0.6,1.9l6.3,4.6l-2.4,7.5c-0.3,1,0.8,1.8,1.6,1.2   l6.4-4.6l6.4,4.6c0.8,0.6,1.9-0.2,1.6-1.2l-2.4-7.5l6.3-4.6c0.8-0.6,0.4-1.9-0.6-1.9l-7.8-0.1l-2.5-7.4   C194.5,112.6,193.1,112.6,192.8,113.6z"/>
</g>
<path style="fill:#2E3033;" d="M19.1,488.1L19.1,488.1C8.6,488.1,0,479.5,0,469V42.9c0-10.5,8.5-19,19-19h0.2  c10.6,0,19.1,8.6,19.1,19.1v426C38.2,479.5,29.7,488.1,19.1,488.1z"/>
<g>
</g>
<g>
</g>
<g>
</g>
<g>
</g>
<g>
</g>
<g>
</g>
<g>
</g>
<g>
</g>
<g>
</g>
<g>
</g>
<g>
</g>
<g>
</g>
<g>
</g>
<g>
</g>
<g>
</g>
</svg>
