<?xml version="1.0" encoding="iso-8859-1"?>
<!-- Generator: Adobe Illustrator 19.0.0, SVG Export Plug-In . SVG Version: 6.00 Build 0)  -->
<svg xmlns="http://www.w3.org/2000/svg" xmlns:xlink="http://www.w3.org/1999/xlink" version="1.1" id="Layer_1" x="0px" y="0px" viewBox="0 0 512 512" style="enable-background:new 0 0 512 512;" xml:space="preserve">
<path style="fill:#F5F5F5;" d="M512,161.382H21.62V62.829c0-4.717,3.824-8.541,8.541-8.541h473.298c4.717,0,8.541,3.824,8.541,8.541  V161.382z"/>
<path style="fill:#FF4B55;" d="M503.459,375.572H30.161c-4.717,0-8.541-3.824-8.541-8.541v-98.553H512v98.553  C512,371.746,508.177,375.572,503.459,375.572z"/>
<g>
	<rect x="21.62" y="161.388" style="fill:#41479B;" width="490.38" height="107.1"/>
	<path style="fill:#41479B;" d="M186.371,120.464c0,0-1.702,54.237-9.313,69.467c-9.421,18.72-18.892,24.18-32.984,29.226   c-14.09-5.044-23.562-10.501-32.984-29.226c-7.609-15.231-9.314-69.462-9.313-69.467   C128.667,108.323,159.48,108.323,186.371,120.464z"/>
</g>
<g>
	<path style="fill:#F5F5F5;" d="M156.322,195.676c-1.03-0.661-1.773-1.134-3.465-1.134c-1.687,0-2.43,0.473-3.456,1.134   c-1.174,0.748-2.637,1.685-5.353,1.685c-2.719,0-4.181-0.936-5.356-1.689c-1.026-0.657-1.767-1.129-3.454-1.129   s-2.428,0.473-3.454,1.129c-1.11,0.711-2.513,1.559-4.953,1.654c5.135,6.263,10.52,9.232,17.238,11.813   c6.716-2.579,12.099-5.549,17.234-11.81C158.846,197.239,157.435,196.385,156.322,195.676z"/>
	<path style="fill:#F5F5F5;" d="M122.983,185.657c1.026,0.657,1.765,1.129,3.446,1.129c1.687,0,2.428-0.473,3.454-1.129   c1.174-0.753,2.637-1.689,5.353-1.689c2.717,0,4.179,0.936,5.353,1.685c1.026,0.661,1.769,1.134,3.456,1.134   s2.428-0.473,3.454-1.129c1.174-0.753,2.637-1.689,5.356-1.689c2.721,0,4.185,0.936,5.361,1.685   c1.03,0.661,1.771,1.134,3.462,1.134s2.435-0.473,3.465-1.134c0.982-0.626,2.214-1.35,4.166-1.581   c0.512-1.332,1.008-2.85,1.471-4.693l-12.614-21.023l-4.7,9.4l-9.4-18.798l-9.4,18.798l-4.7-9.4l-12.604,21.009   c0.461,1.843,0.957,3.367,1.469,4.707C120.777,184.306,122.004,185.028,122.983,185.657z"/>
	<path style="fill:#F5F5F5;" d="M167.04,188.626c-1.174,0.748-2.639,1.685-5.361,1.685c-2.719,0-4.183-0.936-5.359-1.685   c-1.03-0.661-1.773-1.134-3.465-1.134c-1.687,0-2.43,0.473-3.456,1.134c-1.174,0.748-2.637,1.685-5.353,1.685   c-2.719,0-4.181-0.936-5.356-1.689c-1.026-0.657-1.767-1.129-3.454-1.129s-2.428,0.473-3.454,1.129   c-1.174,0.753-2.637,1.689-5.353,1.689c-2.715,0-4.175-0.936-5.347-1.689c-0.005-0.003-0.011-0.006-0.016-0.011   c0.921,1.672,1.842,3.208,2.76,4.601c0.687,0.376,1.403,0.624,2.603,0.624c1.687,0,2.428-0.473,3.454-1.129   c1.174-0.753,2.637-1.689,5.353-1.689c2.717,0,4.179,0.936,5.353,1.685c1.026,0.661,1.769,1.134,3.456,1.134   s2.428-0.473,3.454-1.129c1.174-0.753,2.637-1.689,5.356-1.689c2.721,0,4.185,0.936,5.361,1.685   c1.03,0.661,1.771,1.134,3.462,1.134c1.218,0,1.942-0.251,2.638-0.635c0.917-1.391,1.837-2.926,2.758-4.596   C167.063,188.614,167.053,188.619,167.04,188.626z"/>
</g>
<g>
	<path style="fill:#FFE15A;" d="M144.259,132.774l0.824,2.695l2.746-0.633c0.187-0.043,0.316,0.182,0.186,0.321l-1.922,2.062   l1.922,2.062c0.13,0.14,0.001,0.364-0.186,0.321l-2.746-0.633l-0.824,2.695c-0.056,0.183-0.315,0.183-0.372,0l-0.824-2.695   l-2.746,0.633c-0.187,0.043-0.316-0.182-0.186-0.321l1.922-2.062l-1.922-2.062c-0.13-0.14-0.001-0.364,0.186-0.321l2.746,0.633   l0.824-2.695C143.944,132.592,144.204,132.592,144.259,132.774z"/>
	<path style="fill:#FFE15A;" d="M130.748,119.825l0.824,2.695l2.746-0.633c0.187-0.043,0.316,0.181,0.186,0.321l-1.922,2.062   l1.922,2.062c0.13,0.14,0.001,0.364-0.186,0.321l-2.746-0.633l-0.824,2.695c-0.056,0.183-0.315,0.183-0.372,0l-0.824-2.695   l-2.746,0.633c-0.187,0.043-0.316-0.182-0.186-0.321l1.922-2.062l-1.922-2.062c-0.13-0.14-0.001-0.364,0.186-0.321l2.746,0.633   l0.824-2.695C130.432,119.642,130.692,119.642,130.748,119.825z"/>
	<path style="fill:#FFE15A;" d="M157.869,119.825l0.824,2.695l2.746-0.633c0.187-0.043,0.316,0.181,0.186,0.321l-1.922,2.062   l1.922,2.062c0.13,0.14,0.001,0.364-0.186,0.321l-2.746-0.633l-0.824,2.695c-0.056,0.183-0.315,0.183-0.372,0l-0.824-2.695   l-2.746,0.633c-0.187,0.043-0.316-0.182-0.186-0.321l1.922-2.062l-1.922-2.062c-0.13-0.14-0.001-0.364,0.186-0.321l2.746,0.633   l0.824-2.695C157.554,119.642,157.813,119.642,157.869,119.825z"/>
</g>
<path style="fill:#FF1722;" d="M181.505,118.423c0.028,1.499,0.053,3.011,0.053,4.643c-0.678,16.956-3.201,53.883-8.699,65.003  c-8.106,16.279-15.59,21.658-28.785,26.618c-13.196-4.958-20.679-10.337-28.78-26.605c-5.518-11.163-8.059-48.718-8.708-65.016  c0-1.635,0.027-3.13,0.05-4.642c-1.627,0.636-3.244,1.311-4.845,2.033c0.113,3.293,0.933,24.895,3.395,43.888  c1.389,10.603,3.3,20.376,5.903,25.585c9.422,18.725,18.893,24.182,32.984,29.226c14.092-5.046,23.563-10.507,32.984-29.226  c2.603-5.209,4.514-14.981,5.903-25.585c2.462-18.994,3.281-40.595,3.394-43.888C184.752,119.734,183.135,119.06,181.505,118.423z"/>
<path style="fill:#2E3033;" d="M19.351,490.883L19.351,490.883C8.664,490.883,0,482.219,0,471.531V40.309  c0-10.6,8.592-19.192,19.192-19.192h0.159c10.687,0,19.351,8.664,19.351,19.351v431.065  C38.702,482.219,30.038,490.883,19.351,490.883z"/>
<g>
</g>
<g>
</g>
<g>
</g>
<g>
</g>
<g>
</g>
<g>
</g>
<g>
</g>
<g>
</g>
<g>
</g>
<g>
</g>
<g>
</g>
<g>
</g>
<g>
</g>
<g>
</g>
<g>
</g>
</svg>
