<?xml version="1.0" encoding="iso-8859-1"?>
<!-- Generator: Adobe Illustrator 19.0.0, SVG Export Plug-In . SVG Version: 6.00 Build 0)  -->
<svg xmlns="http://www.w3.org/2000/svg" xmlns:xlink="http://www.w3.org/1999/xlink" version="1.1" id="Layer_1" x="0px" y="0px" viewBox="0 0 512 512" style="enable-background:new 0 0 512 512;" xml:space="preserve">
<path style="fill:#FFE15A;" d="M503.537,381.91H32.807c-4.674,0-8.463-3.789-8.463-8.463V70.875c0-4.674,3.789-8.463,8.463-8.463  h470.73c4.674,0,8.463,3.789,8.463,8.463v302.572C512,378.121,508.211,381.91,503.537,381.91z"/>
<path style="fill:#FF4B55;" d="M503.592,62.412H32.752c-2.045,0-3.848,0.819-5.306,2.032l481.452,315.434  c1.853-1.542,3.102-3.777,3.102-6.376V70.82C512,66.176,508.235,62.412,503.592,62.412z"/>
<g>
	<path style="fill:#FFBE55;" d="M284.193,199.638c0.941-0.756,1.72-1.693,1.425-2.481c-0.245-0.654-1.46-1.26-2.746-1.902   c-2.387-1.192-5.575-2.829-6.633-6.747c-0.126-0.013-0.243-0.001-0.373-0.025c-1.048-0.195-1.702,0.166-2.458,2.628   c-0.139,0.45-0.435,1.17-0.826,1.994c0.785,0.52,2.746,1.729,4.655,2.162C281.018,196.127,283.347,197.589,284.193,199.638z"/>
	<path style="fill:#FFBE55;" d="M269.512,197.971c1.13,1.03,2.167,2.199,3.186,3.506c0.059,0.075,0.123,0.15,0.181,0.225   c2.535-1.943,5.756-1.955,7.998-1.588c-0.651-0.675-1.917-1.336-4.318-1.883c-2.227-0.505-4.383-1.765-5.448-2.45   C270.619,196.572,270.081,197.321,269.512,197.971z"/>
	<path style="fill:#FFBE55;" d="M282.356,209.124c1.187,0.687,3.572,2.231,5.638,4.461c0.305-1.714,0.214-3.99-1.396-5.994   C285.221,208.351,283.749,208.834,282.356,209.124z"/>
	<path style="fill:#FFBE55;" d="M262.602,189.093l-0.398,0.483c-1.982,2.424-4.23,5.066-6.38,7.22   c1.308-0.618,2.849-1.07,4.446-1.31c0.571-0.915,2.313-3.343,4.451-6.269C264.207,188.891,263.183,188.388,262.602,189.093z"/>
	<path style="fill:#FFBE55;" d="M254.831,201.377c0.01,0.016,0.145,0.182,0.524,0.325c0.658,0.254,1.879,0.341,3.15-0.245   c3.706-1.724,7.446-0.781,11.123,2.778c0.011,0.011,0.006,0.027,0.017,0.038s0.026,0.007,0.037,0.018   c0.021,0.021,1.259,1.263,3.49,2.4c-1.073-1.127-2.036-2.275-2.868-3.34c-1.333-1.704-2.487-3.175-3.859-4.049   c-3.484-2.211-9.55-0.273-11.266,1.537C254.899,201.136,254.831,201.329,254.831,201.377z"/>
	<path style="fill:#FFBE55;" d="M283.638,203.576c0,0-0.008,0.001-0.012,0.003c-0.191,0.089-0.399,0.133-0.614,0.138   c-0.01,0-0.019,0.006-0.029,0.006c-0.022,0-0.041-0.02-0.063-0.021c-0.156-0.006-0.313-0.017-0.468-0.074   c-0.051-0.019-4.756-1.677-7.629,0.403c0.804,0.904,1.715,1.739,2.73,2.499c1.412,0.033,6.3-0.052,9.084-2.653   c1.407-1.313,1.524-2.747,1.288-3.875C286.888,201.632,285.049,202.906,283.638,203.576z"/>
	<path style="fill:#FFBE55;" d="M240.732,202.03c-0.237-0.344-0.497-0.642-0.701-1.049c-0.334-0.67-0.511-1.381-0.69-2.088   c-1.081,1.73-2.219,4.422-1.526,7.401C238.629,204.365,239.859,202.901,240.732,202.03z"/>
	<path style="fill:#FFBE55;" d="M267.008,196.229c1.369-1.43,3.055-4.606,3.489-6.015c0.416-1.359,1.684-5.492,5.91-4.728   c0.941,0.175,1.639-0.424,2.065-0.951c-1.028-1.173-2.372-1.934-3.539-1.961c-0.872-0.084-1.872,0.472-2.647,1.514   c-3.803,5.124-6.696,9.081-8.263,11.289C265.078,195.498,266.071,195.806,267.008,196.229z"/>
	<path style="fill:#FFBE55;" d="M257.191,187.008c-2.358,3.146-4.834,4.921-6.641,6.217c-2.381,1.708-2.97,2.286-2.828,3.61   c0.03,0.27,0.145,0.468,0.384,0.658c0.316,0.251,0.772,0.431,1.291,0.564c0.032-0.015,0.052-0.043,0.085-0.056   c2.844-1.157,8.506-8.076,10.368-10.35l0.402-0.492c1.973-2.387,4.75-1.431,6.27-0.396c0.524-0.712,1.053-1.428,1.581-2.143   C265.36,181.308,260.82,182.171,257.191,187.008z"/>
	<path style="fill:#FFBE55;" d="M281.165,185.991c-0.449,0.647-1.093,1.321-1.914,1.826c0.756,2.511,2.868,3.662,4.979,4.715   c1.253,0.624,2.432,1.247,3.283,2.129c0.713-2.55,0.62-4.579-0.366-5.99C285.701,186.605,282.624,186.1,281.165,185.991z"/>
	<path style="fill:#FFBE55;" d="M270.052,277.196l0.331,0.377c4.185,4.764,8.137,9.364,10.771,13.239   c-0.079-2.092-0.222-4.26-0.474-5.765c-0.008-0.048-0.014-0.099-0.016-0.147c-1.343-1.736-2.79-3.352-4.315-4.719   c-4.46-3.986-6.974-7.985-8.381-11.068C267.727,271.763,268.029,274.897,270.052,277.196z"/>
	<path style="fill:#FFBE55;" d="M267.911,261.82c-0.357-0.626-0.68-1.301-0.945-2.052c-0.002-0.006,0-0.013-0.003-0.019   c-0.022-0.008-0.044-0.017-0.066-0.024c-0.911,1.58-2.581,2.668-4.366,2.671c0,0-0.006,0-0.008,0c-0.138,0-0.26-0.053-0.395-0.066   c-0.233,1.026-0.308,2.187,0.342,2.808c0.731,0.706,2.217,0.696,2.994,0.497c0.378-1.608,0.796-2.747,0.847-2.879   C266.57,262.115,267.218,261.742,267.911,261.82z"/>
	<path style="fill:#FFBE55;" d="M264.936,268.769c-0.161,0.011-0.309,0.037-0.477,0.037c-0.454,0-0.927-0.06-1.401-0.154   c-0.279,1.05-0.377,2.234,0.321,2.948c0.436,0.445,1.075,0.618,1.597,0.651C264.861,271.05,264.833,269.867,264.936,268.769z"/>
	<path style="fill:#FFBE55;" d="M208.361,201.02l-0.007,0.004c-3.055,1.022-6.684,0.772-9.857,0.15   c1.85,2.853,2.558,6.293,2.641,9.491c3.986-5.199,8.398-7.581,11.557-8.709C211.071,201.811,209.606,201.51,208.361,201.02z"/>
	<path style="fill:#FFBE55;" d="M280.393,276.655c-0.689-0.053-2.245-0.25-4.091-0.811c0.651,0.687,1.301,1.375,2.076,2.068   c5.088,4.549,9.226,11.476,11.927,16.818c0.963-3.448,3.228-6.403,5.663-8.647C289.167,285.634,283.85,280.899,280.393,276.655z"/>
	<path style="fill:#FFBE55;" d="M245.986,220.984c-1.114-0.245-2.367-0.708-3.586-1.457c-0.815,2.592-1.385,4.992-1.697,7.183   c1.686-0.156,2.961-0.141,3.827-0.07C244.946,224.316,245.522,222.325,245.986,220.984z"/>
	<path style="fill:#FFBE55;" d="M197.971,213.57c0.364-3.596,0.169-9.336-3.82-12.785c-0.013-0.002-0.024,0.003-0.037,0.001   c-0.123-0.016-11.528-1.66-19.14,6.114c-2.863,2.924-4.725,5.215-6.219,7.054c-2.027,2.497-3.484,4.287-5.845,5.674   C170.055,222.174,187.371,226.464,197.971,213.57z"/>
	<path style="fill:#FFBE55;" d="M303.927,167.485c3.185,1.712,8.566,3.724,13.272,1.361c0.006-0.012,0.006-0.024,0.013-0.036   c0.059-0.099,5.938-10.014,1.668-20.023c-1.607-3.765-3.012-6.36-4.14-8.445c-1.53-2.826-2.63-4.859-3.01-7.573   C306.651,138.406,296.062,152.762,303.927,167.485z"/>
	<path style="fill:#FFBE55;" d="M299.576,287.048c-2.867,2.199-6.915,6.27-6.695,11.536c0.01,0.014,0.025,0.02,0.035,0.034   c0.066,0.095,6.689,9.526,17.569,9.744c4.103,0.084,7.04-0.131,9.405-0.305c3.207-0.238,5.508-0.4,8.134,0.361   C324.974,301.476,316.227,285.944,299.576,287.048z"/>
	<path style="fill:#FFBE55;" d="M275.881,269.841c-0.029-0.059-0.004-0.125-0.024-0.186l-2.079,1.774   c1.361,0.847,2.799,1.366,4.027,1.688C276.58,271.239,275.906,269.892,275.881,269.841z"/>
	<path style="fill:#FFBE55;" d="M267.304,249.551c-0.578-0.039-1.15-0.101-1.714-0.201c-0.437,0.706-1.392,2.711,0.02,5.243   c0.525,0.944,1.411,2.124,2.644,2.413c0.736,0.167,1.579-0.079,2.473-0.559C268.904,253.498,267.806,250.898,267.304,249.551z"/>
	<path style="fill:#FFBE55;" d="M298.412,196.024c1.581-1.184,4.464-3.406,7.883-6.329c1.025-6.507,4.821-12.565,8.219-16.878   c-3.456,0.479-6.998-0.368-9.984-1.644c3.996,10.696-4.656,22.547-6.278,24.635C298.303,195.883,298.362,195.948,298.412,196.024z"/>
	<path style="fill:#FFBE55;" d="M271.528,269.346l2.755-2.352c-1.791-0.618-3.507-1.626-4.91-3.16   C269.582,264.804,270.162,266.798,271.528,269.346z"/>
	<path style="fill:#FFBE55;" d="M237.549,227.154c0.348-2.938,1.12-6.212,2.322-9.783c-0.77-0.877-1.446-1.944-1.983-3.219   c-1.422,3.289-3.477,8.672-4.268,13.888C235.064,227.657,236.372,227.366,237.549,227.154z"/>
	<path style="fill:#FFBE55;" d="M290.832,190.079c0.347,1.976,0.122,4.249-0.829,6.879c0.571,1.017,1.054,2.431,1.056,3.968   c1.205-0.257,1.294-0.986,1.667-4.967l0.159-1.645c0.15-1.51-0.121-2.663-0.808-3.42   C291.719,190.502,291.278,190.263,290.832,190.079z"/>
	<path style="fill:#FFBE55;" d="M290.502,216.084c0.989-0.205,2.242-0.636,3.243-1.559c1.516-1.398,3.194-4.363,2.919-5.694   c-0.034-0.166-0.075-0.273-0.365-0.377c-1.1-0.392-1.43-0.25-1.428-0.245c-0.068,0.052-0.193,0.329-0.266,0.492   c-0.19,0.42-0.447,0.99-1.022,1.367c-0.877,0.572-1.706,0.724-2.47,0.727C291.334,212.919,290.914,214.848,290.502,216.084z"/>
	<path style="fill:#FFBE55;" d="M234.738,202.745c0.209-1.396,0.617-2.698,1.168-3.866c-2.768-1.035-9.024-3.055-14.134-2.352   c-7.218,0.971-12.706,0.163-16.189-0.772c1.668,1.72,4.533,3.507,9.017,3.321C225.724,198.853,232.101,201.368,234.738,202.745z"/>
	<path style="fill:#FFBE55;" d="M220.774,202.31c-2.633,2.062-4.574,4.54-5.901,6.656c4.09-2.12,9.34-4.236,12.813-5.564   C225.815,202.928,223.514,202.536,220.774,202.31z"/>
	<path style="fill:#FFBE55;" d="M295.679,205.206c0.471,0.056,0.982,0.158,1.573,0.363c-0.023-0.117-0.043-0.222-0.074-0.364   c-0.185-0.858-0.425-2.042-0.365-3.765c-0.001-0.011-0.007-0.02-0.007-0.032c0-0.011,0.005-0.02,0.005-0.031   c0.001-0.036-0.005-0.055-0.003-0.092c0.074-1.598-0.465-2.892-1.172-3.851c-0.208,2.056-0.477,3.61-1.208,4.702   C294.864,202.824,295.375,203.889,295.679,205.206z"/>
	<path style="fill:#FFBE55;" d="M299.608,198.931c0.051,0.223,0.097,0.447,0.131,0.679c8.915-1.21,15.245-10.176,18.896-17.357   C310.876,190.466,302.16,197.058,299.608,198.931z"/>
	<path style="fill:#FFBE55;" d="M262.525,259.351h0.002c0.761-0.003,1.538-0.575,1.869-1.334c-0.525-0.556-1.02-1.181-1.445-1.943   c-0.285-0.51-0.472-0.999-0.641-1.482c-0.601,0.365-1.266,0.884-1.565,1.554c-0.224,0.495-0.214,1.014,0.027,1.632   C261.054,258.495,261.586,259.351,262.525,259.351z"/>
	<path style="fill:#FFBE55;" d="M230.448,228.967c0.606-5.478,2.603-11.148,4.181-14.936c-0.987,0.752-2.219,1.522-3.741,2.251   c-0.17,0.378-3.243,7.262-4.411,14.079C227.883,229.827,229.208,229.364,230.448,228.967z"/>
	<path style="fill:#FFBE55;" d="M284.35,276.609c1.775,0.186,3.42,0.103,4.85-0.099c-2.708-0.923-5.409-2.147-7.62-3.25   C282.36,274.33,283.288,275.483,284.35,276.609z"/>
	<path style="fill:#FFBE55;" d="M262.597,248.517c-7.32-2.78-13.095-10.659-15.165-20.677c-0.609,3.889-0.647,8.704,1.423,13.025   c2.244,4.684,6.688,7.977,13.064,9.914C262.056,249.876,262.315,249.112,262.597,248.517z"/>
	<path style="fill:#FFBE55;" d="M301.547,202.48c-0.162,0.034-0.337,0.033-0.5,0.062c2.033,2.225,10.206,12.119,12.42,29.385   c1.521,0.582,2.939,1.18,4.139,1.785C316.812,226.687,313.632,208.917,301.547,202.48z"/>
	<path style="fill:#FFBE55;" d="M223.222,231.668c0.635-5.254,2.483-10.657,3.74-13.859c-1.273,0.397-2.688,0.748-4.246,1.045   c-2.743,4.596-4.405,11.49-5.171,15.381C219.564,233.254,221.439,232.42,223.222,231.668z"/>
	<path style="fill:#FFBE55;" d="M272.472,259.008c-0.762,0.444-1.473,0.733-2.126,0.894c1.697,3.359,4.85,4.505,7.527,4.803   C275.709,262.991,273.944,261,272.472,259.008z"/>
	<path style="fill:#FFBE55;" d="M250.577,202.087c0.377-0.173,0.844-0.309,1.272-0.461c-0.007-0.078-0.027-0.151-0.029-0.233   c-1.783-0.035-4.112-0.325-5.609-1.517c-0.874-0.697-1.396-1.632-1.514-2.707c-0.354-3.237,1.799-4.783,4.078-6.416   c0.929-0.667,1.983-1.44,3.078-2.42c-3.334-0.227-6.325,0.889-8.181,3.304c-1.836,2.385-2.19,5.445-0.919,7.98   C244.483,203.089,248.217,202.74,250.577,202.087z"/>
	<path style="fill:#FFBE55;" d="M246.466,205.471c-0.889-0.103-1.749-0.378-2.578-0.75c-0.129,1.74-0.022,4.1,1.109,5.487   c0.028-0.778,0.124-1.569,0.351-2.347C245.566,207.115,245.915,206.291,246.466,205.471z"/>
	<path style="fill:#FFBE55;" d="M257.865,206.517c3.621,0.286,6.4-0.637,8.056-1.416c-2.779-1.982-4.799-1.51-6.136-0.886   c-2.149,1-4.552,0.936-6.176,0c-0.6,0.272-1.249,0.543-2.009,0.761c-1.698,0.852-2.801,2.065-3.291,3.618   c-0.154,0.489-0.18,0.97-0.217,1.451c0.031-0.026,0.033-0.075,0.066-0.099C251.644,207.448,254.906,206.327,257.865,206.517z"/>
	<path style="fill:#FFBE55;" d="M274.405,248.447c-1.244,0.49-2.526,0.852-3.85,1.029c0.877,2.09,2.608,5.648,5.349,8.987   C277.331,256.058,275.649,250.882,274.405,248.447z"/>
	<path style="fill:#FFBE55;" d="M245.502,214.043c-3.232-0.952-4.48-3.916-4.71-6.979c-0.696,1.455-1.068,3.273-0.37,5.295   c1.402,4.054,4.465,5.235,6.264,5.612c0.02-0.472,0.04-0.943,0.076-1.411c-0.01-0.011-0.024-0.014-0.034-0.024   C246.309,216.07,245.848,215.17,245.502,214.043z"/>
	<path style="fill:#FFBE55;" d="M234.683,206.149c-0.11-0.048-0.234-0.036-0.333-0.112c-0.017-0.012-0.716-0.476-2.015-1.067   c-4.574,2.469-7.144,7.506-8.318,10.507c8.289-2.008,10.917-5.78,11.431-6.66C235.07,207.919,234.815,207.027,234.683,206.149z"/>
	<path style="fill:#FFBE55;" d="M288.243,239.597c1.537-3.33,1.869-7.145,1.056-11.37c-1.839,8.466-6.336,15.365-12.161,18.876   c0.267,0.533,0.561,1.194,0.866,1.979C280.292,248.081,285.633,245.245,288.243,239.597z"/>
	<path style="fill:#FFBE55;" d="M291.914,207.523c0.185-0.496,0.46-1.01,0.862-1.439c-0.179-0.948-0.555-1.743-0.873-2.255   c-0.453,0.12-0.962,0.208-1.541,0.267c-0.04,0.003-0.079,0.005-0.12,0.006c-0.305,0.567-0.709,1.126-1.231,1.667   c0.463,0.585,0.864,1.173,1.157,1.777c0.079,0.044,0.178,0.017,0.251,0.076C290.543,207.709,291.111,208.046,291.914,207.523z"/>
	<path style="fill:#FFBE55;" d="M296.241,216.318c1.573,4.129,2.553,7.886,2.941,11.203c1.238,0.323,2.558,0.678,3.929,1.063   c-0.786-5.845-3.243-11.991-4.697-15.246C297.77,214.496,296.987,215.54,296.241,216.318z"/>
	<path style="fill:#FFBE55;" d="M295.991,226.712c-0.404-2.563-1.176-5.411-2.308-8.509c-1.288,0.629-2.555,0.899-3.488,1.019   c0.002,0.161,0.017,0.318,0.017,0.48c0,0.387-0.032,0.763-0.042,1.147c0.036,0.062,0.09,0.109,0.117,0.177   c0.662,1.612,1.166,3.178,1.566,4.711C292.333,225.842,293.848,226.185,295.991,226.712z"/>
	<path style="fill:#FFBE55;" d="M306.286,229.506c1.299,0.392,2.601,0.804,3.87,1.23c-1.922-12.317-6.965-20.503-9.78-24.193   c-0.026,0.593-0.151,1.235-0.509,1.978c-0.042,0.088-0.128,0.13-0.184,0.205c0.014,0.167,0.041,0.33,0.037,0.502   c0.112,0.11,0.222,0.225,0.297,0.373C300.238,210.031,305.415,220.198,306.286,229.506z"/>
</g>
<g>
	<path style="fill:#FFD7AA;" d="M268.401,246.583c10.348,0,18.767-12.059,18.767-26.883c0-0.812-0.025-1.613-0.075-2.409   c-2.011-3.023-5.528-5.132-6.57-5.71c-6.203-0.111-10.345-2.873-12.11-4.335c-1.756,1.019-5.563,2.683-10.776,2.306   c-2.113-0.134-4.533,0.694-7.232,2.533c-0.511,2.469-0.771,5.025-0.771,7.617C249.634,234.525,258.053,246.583,268.401,246.583z"/>
	<path style="fill:#FFD7AA;" d="M194.953,265.576c0.277-0.075,3.069-0.833,7.156-1.169c18.928-4.266,41.153-17.844,45.16-20.355   c-0.394-0.626-0.843-1.212-1.166-1.887c-1.992-4.166-2.31-8.613-1.977-12.492c-2.851-0.182-11.549,0.225-27.908,8.629   c-0.22,0.111-0.458,0.166-0.695,0.166c-0.311,0-0.62-0.095-0.881-0.281c-0.463-0.329-0.706-0.892-0.624-1.455   c0.048-0.337,0.822-5.63,2.59-11.257c-9.4,1.971-29.245,21.999-40.17,33.036c-2.065,2.088-3.923,3.967-5.497,5.516   c-0.218,0.214-0.447,0.416-0.68,0.622c-1.381,1.221-2.808,2.481-1.797,9.748c0.931,6.709,9.657,7.394,16.15,7.438h0.476   c2.043,0,6.963,1.7,15.484,4.707c8.275,2.921,17.651,6.23,23.725,7.367c2.905,0.538,5.631,1.026,8.146,1.474   c7.676,1.371,13.221,2.358,16.124,3.559c3.523,1.459,7.408,8.659,10.774,15.292l0.646,1.264c1.983,3.828,2.356,8.618,0.969,12.499   c-0.674,1.89-0.193,2.881,0.048,3.222c0.236,0.333,0.511,0.452,0.676,0.452c0.783,0,1.348,0,1.974-1.981   c0.79-2.501,0.989-2.742,4.313-6.764l0.91-1.098c3.427-4.157-0.006-12.685-1.657-16.786l-0.232-0.574   c-1.173-2.932-0.134-6.012,0.87-8.988c0.683-2.025,1.389-4.117,1.389-6.119c0-0.436-0.117-0.729-0.392-0.99   c-1.597-1.514-7.012-1.225-10.969-1.022c-1.459,0.079-2.841,0.15-4.026,0.15c-6.126,0-15.956-6.123-30.252-15.467   c-7.088-4.624-15.49-5.025-21.192-4.569c-2.362,0.515-4.68,0.892-6.917,1.094c-0.771,0.068-1.492-0.463-1.634-1.241   C193.723,266.543,194.193,265.787,194.953,265.576z"/>
	<path style="fill:#FFD7AA;" d="M369.807,165.641c-2.572,0.543-2.881,0.483-8.055-0.46l-1.364-0.245   c-5.316-0.979-11.056,6.217-13.822,9.661l-0.39,0.483c-1.983,2.457-5.173,3.055-8.257,3.638c-2.102,0.397-4.276,0.804-6.021,1.787   c-0.379,0.211-0.579,0.46-0.672,0.828c-0.538,2.128,2.362,6.713,4.48,10.061c0.781,1.232,1.52,2.406,2.1,3.436   c2.998,5.338,2.469,16.909,1.319,33.952c-0.599,8.897,3.612,16.766,6.893,21.458c1.323,1.494,2.601,3.071,3.808,4.723   c0.47,0.642,0.365,1.537-0.24,2.052c-0.604,0.523-1.505,0.479-2.067-0.084c-0.188-0.19-1.93-1.966-4.002-4.914   c-8.319-9.267-18.536-15.393-22.783-17.716c0.111,1.209,0.153,2.032,0.16,2.207c0.023,0.595-0.304,1.146-0.833,1.414   c-0.218,0.107-0.454,0.163-0.688,0.163c-0.336,0-0.672-0.111-0.947-0.329c-4.034-3.213-18.856-7.116-25.892-8.746   c0.62,4.343,0.108,8.324-1.548,11.894c-1.701,3.662-4.316,6.24-6.778,8.053c12.906,15.945,43.467,22.759,61.869,26.842   c4.737,1.05,8.831,1.957,11.841,2.83c0.295,0.087,0.585,0.186,0.876,0.289c1.741,0.606,3.534,1.237,9.383-3.205   c5.395-4.097,1.773-12.079-1.423-17.726l-0.232-0.413c-0.999-1.779-1.924-6.903-3.471-15.803   c-1.504-8.647-3.207-18.446-5.191-24.299c-0.953-2.81-1.866-5.436-2.71-7.858c-2.556-7.347-4.405-12.657-4.777-15.767   c-0.452-3.784,3.919-10.692,8.052-16.87l0.794-1.196c2.372-3.606,6.366-6.273,10.426-6.963c1.975-0.336,2.606-1.244,2.784-1.616   c0.175-0.368,0.145-0.665,0.066-0.808C372.117,165.712,371.842,165.21,369.807,165.641z"/>
	<path style="fill:#FFD7AA;" d="M171.619,164.611c1.773,1.938,1.882,2.231,3.709,7.129l0.495,1.323   c1.89,5.052,11.001,6.337,15.377,6.95l0.606,0.087c3.125,0.447,5.27,2.881,7.347,5.239c1.414,1.605,2.876,3.261,4.61,4.26   c0.381,0.218,0.695,0.266,1.056,0.154c2.108-0.622,4.565-5.456,6.358-8.988c0.663-1.303,1.292-2.54,1.884-3.566   c3.053-5.298,13.269-10.758,28.506-18.482c8.397-4.26,13.073-12.542,15.3-17.741c0.513-1.704,1.087-3.325,1.736-4.839   c0.315-0.733,1.133-1.078,1.888-0.844c0.753,0.257,1.183,1.05,0.985,1.823c-0.059,0.234-0.59,2.231-1.789,5.057   c-4.077,13.87-3.894,33.516-3.621,41.428c3.073-3.364,5.994-4.127,8.006-4.127c2.222,0,4.256,0.973,5.881,2.681   c1.702-2.209,3.644-2.636,5.059-2.625c2.567,0.063,4.697,1.712,6.05,3.423c1.485,0.076,4.837,0.471,7.279,2.562   c3.365-16.517-4.37-39.986-9.593-55.792c-1.634-4.95-3.048-9.226-3.935-12.633c-0.077-0.297-0.141-0.599-0.202-0.903   c-0.368-1.803-0.749-3.67-7.547-6.423c-6.285-2.564-11.287,4.644-14.512,10.272l-0.238,0.416   c-1.021,1.771-4.955,5.187-11.823,11.072c-6.657,5.706-14.204,12.177-18.218,16.87c-1.92,2.243-3.704,4.359-5.345,6.312   c-5.018,5.967-8.647,10.279-11.137,12.193c-3.028,2.33-11.21,2.1-18.65,1.7l-1.398-0.072c-2.345-0.104-4.67-0.803-6.759-1.89   l-0.173-0.043l-0.103-0.124c-1.631-0.891-3.126-1.992-4.275-3.343c-0.754-0.888-1.423-1.259-1.949-1.43l-1.672,0.371   C170.475,162.672,170.323,163.198,171.619,164.611z"/>
</g>
<path style="fill:#464655;" d="M375.153,164.904c-1.21-2.16-3.055-2.849-5.968-2.243c-1.991,0.42-1.991,0.416-6.887-0.472  l-1.367-0.25c-7.101-1.292-13.606,6.848-16.736,10.751l-0.386,0.479c-1.278,1.585-3.675,2.033-6.451,2.556  c-2.342,0.443-4.766,0.899-6.947,2.124c-1.098,0.618-1.836,1.561-2.134,2.735c-0.858,3.4,2.049,7.993,4.86,12.435  c0.749,1.185,1.46,2.31,2.017,3.301c2.778,4.95,1.843,18.831,0.939,32.256c-0.354,5.266,0.772,10.148,2.442,14.326  c-8.63-7.426-16.904-11.617-18.245-12.274c-1.191-8.062-4.723-22.285-15.007-29.394c13.372-5.926,19.728-26.086,20.031-27.077  c0.218-0.71-0.107-1.47-0.771-1.803c-0.658-0.336-1.468-0.143-1.908,0.456c-3.494,4.741-7.986,9.345-12.226,13.243  c2.596-7.334,8.361-13.737,10.861-16.259c0.44-0.377,0.87-0.797,1.287-1.253c0.547-0.599,0.529-1.521-0.043-2.1  c-0.204-0.206-0.478-0.257-0.742-0.321c1.555-4.294,2.997-11.286-0.092-18.531c-1.661-3.891-3.103-6.558-4.262-8.698  c-2.079-3.84-3.028-5.591-2.742-9.646c0.043-0.618-0.291-1.201-0.846-1.47c-0.554-0.277-1.219-0.186-1.682,0.225  c-0.212,0.187-19.827,17.958-12.379,37.633c-0.225,0.078-0.465,0.125-0.639,0.31c-0.529,0.57-0.543,1.45-0.03,2.036  c8.358,9.537-0.904,22.87-3.025,25.667c-0.048-0.031-0.093-0.073-0.141-0.103c0-1.903-0.514-3.492-1.604-4.696  c-0.956-1.057-2.145-1.614-3.196-1.913c3.969-17.327-3.765-40.827-9.494-58.17c-1.619-4.902-3.018-9.13-3.881-12.447  c-0.063-0.245-0.113-0.492-0.164-0.742c-0.588-2.885-1.7-5.524-9.385-8.638c-9.459-3.828-16.112,7.771-18.296,11.584l-0.232,0.404  c-0.81,1.407-6.077,5.92-11.169,10.283c-6.741,5.778-14.383,12.328-18.552,17.199c-1.924,2.251-3.711,4.378-5.359,6.337  c-4.714,5.603-8.434,10.025-10.663,11.741c-2.388,1.839-12.74,1.28-16.632,1.069l-1.426-0.075c-3.491-0.154-6.988-1.811-9.128-4.331  c-1.564-1.843-3.533-2.782-5.405-2.628c-1.33,0.123-2.487,0.82-3.093,1.87c-1.237,2.144-0.89,4.081,1.123,6.273  c1.373,1.502,1.373,1.502,3.101,6.135l0.497,1.332c2.524,6.745,12.843,8.195,17.803,8.897l0.599,0.084  c2.015,0.29,3.627,2.12,5.497,4.24c1.321,1.498,2.75,2.965,4.431,4.161c-0.104,0.052-0.223,0.056-0.314,0.131  c-0.477,0.397-0.67,1.038-0.486,1.629c0.017,0.051,1.068,2.895,3.887,5.35c-4.446,0.218-9.527-1.484-11.565-2.267  c-0.323-0.143-0.658-0.277-1.003-0.404c-0.772-0.286-1.625,0.107-1.932,0.864c-0.105,0.261-0.107,0.529-0.068,0.789  c-4.563,0.214-11.536,1.569-17.022,7.164c-2.962,3.028-4.874,5.377-6.407,7.267c-2.755,3.388-4.012,4.934-7.866,6.221  c-0.586,0.195-0.997,0.726-1.036,1.343c-0.041,0.618,0.295,1.196,0.852,1.466c0.157,0.075,9.208,4.374,19.721,4.374  c6.642,0,13.865-1.726,19.801-7.309c0.158,0.17,0.287,0.371,0.517,0.457c0.175,0.063,0.352,0.095,0.529,0.095  c0.565,0,1.101-0.317,1.365-0.848c4.392-8.891,10.448-12.089,13.973-13.234c-3.142,4.001-4.524,7.779-4.602,8.003  c-0.226,0.646,0.01,1.367,0.577,1.756c0.567,0.388,1.326,0.349,1.847-0.099c2.295-1.954,7.882-4.471,12.619-6.403  c-2.866,3.925-4.108,8.087-4.37,9.047c-0.997,1.601-1.858,3.447-2.596,5.36c-9.255,0.334-26.525,17.004-43.449,34.103  c-2.054,2.077-3.906,3.943-5.47,5.484c-0.18,0.179-0.368,0.345-0.561,0.515c-2.204,1.95-3.937,4.228-2.796,12.447  c1.407,10.113,14.785,10.089,19.176,10.061h0.465c1.621,0,8.153,2.306,14.469,4.533c8.379,2.96,17.876,6.309,24.181,7.485  c2.912,0.547,5.649,1.035,8.171,1.482c7.204,1.284,12.894,2.302,15.492,3.377c2.78,1.149,7.462,10.379,9.226,13.854l0.658,1.292  c1.609,3.098,1.918,6.963,0.806,10.073c-0.812,2.274-0.658,4.458,0.424,5.996c0.77,1.09,1.954,1.743,3.164,1.743  c2.474,0,3.979-1.268,4.874-4.106c0.612-1.938,0.612-1.938,3.756-5.742l0.912-1.105c4.581-5.552,0.692-15.213-1.178-19.857  l-0.23-0.57c-0.755-1.89,0.024-4.205,0.928-6.879c0.763-2.259,1.55-4.593,1.55-7.093c0-1.26-0.463-2.365-1.341-3.202  c-2.544-2.413-7.977-2.12-13.223-1.85c-1.401,0.075-2.728,0.147-3.865,0.147c-5.679,0-17.325-7.608-28.587-14.968  c-4.226-2.762-8.807-4.169-13.098-4.803c17.056-5.838,33.7-16.141,36.901-18.174c2.497,2.844,5.831,5.102,10.116,6.65  c-0.477,0.475-0.911,1.046-1.217,1.72c-0.563,1.244-0.574,2.628-0.036,4.006c0.334,0.855,0.827,1.526,1.388,2.088  c-0.975,3.413-0.019,5.298,0.985,6.292c-1.095,3.398-0.148,5.396,0.89,6.46c1.087,1.114,2.597,1.589,3.929,1.589  c0.176,0,0.318-0.054,0.486-0.07c0.454,1.389,1.085,2.75,2.15,3.962l0.331,0.372c4.595,5.227,12.283,13.972,13.19,18.055  c0.17,0.761,0.885,1.252,1.644,1.185c0.769-0.079,1.355-0.726,1.364-1.498c0.002-0.226,0.034-3.741-0.127-7.322  c3.376,5.477,5.706,10.91,6.487,12.819c0.095,0.257,0.2,0.519,0.313,0.781c0.248,0.574,0.808,0.919,1.396,0.919  c0.19,0,0.384-0.036,0.572-0.111c0.255-0.104,0.446-0.282,0.605-0.485c3.285,3.176,9.051,7.326,16.884,7.482  c4.23,0.068,7.258-0.139,9.687-0.313c4.353-0.321,6.339-0.463,9.914,1.459c0.226,0.123,0.474,0.182,0.721,0.182  c0.347,0,0.69-0.118,0.969-0.349c0.477-0.392,0.668-1.038,0.483-1.625c-0.086-0.27-8.239-25.424-29.226-26.74  c0.021-0.239,0.076-0.479-0.023-0.714c-0.304-0.721-1.098-1.101-1.845-0.864c-5.193,1.589-9.709-0.071-13.297-2.73  c4.642-0.289,7.864-1.886,8.032-1.97c0.602-0.305,0.933-0.971,0.81-1.632c-0.121-0.665-0.665-1.169-1.337-1.241  c-6.802-0.717-17.176-6.931-17.279-6.995c-0.041-0.024-0.091-0.01-0.133-0.03c0.02-0.023,0.038-0.048,0.057-0.073  c0.582,0.055,1.154,0.083,1.705,0.083c1.29,0,2.469-0.134,3.422-0.336c0.636-0.134,1.116-0.658,1.194-1.3  c0.081-0.646-0.256-1.268-0.838-1.557c-2.074-1.02-3.871-2.399-5.435-3.92c1.875-2.274,1.698-5.708,0.92-8.742  c0.682-0.281,1.608-0.723,2.724-1.356c13.455,16.934,43.675,23.668,63.771,28.131c4.687,1.038,8.736,1.938,11.657,2.782  c0.241,0.071,0.477,0.154,0.719,0.238c0.957,0.333,1.92,0.599,3.041,0.599c2.136,0,4.848-0.963,9.183-4.252  c8.136-6.182,1.552-17.824-0.615-21.648l-0.226-0.404c-0.792-1.41-1.979-8.234-3.127-14.832c-1.523-8.758-3.25-18.681-5.31-24.755  c-0.955-2.821-1.872-5.456-2.717-7.882c-2.401-6.899-4.298-12.344-4.628-15.134c-0.359-2.98,5.393-11.579,7.558-14.812l0.808-1.217  c1.922-2.924,5.136-5.08,8.391-5.631c2.381-0.408,4.212-1.613,5.021-3.313C375.755,167.305,375.746,165.959,375.153,164.904z   M372.434,167.203c-0.179,0.372-0.808,1.28-2.784,1.616c-4.06,0.69-8.055,3.357-10.426,6.963l-0.794,1.196  c-4.133,6.178-8.504,13.085-8.052,16.87c0.372,3.111,2.221,8.421,4.777,15.767c0.844,2.421,1.757,5.048,2.71,7.858  c1.983,5.853,3.688,15.652,5.191,24.299c1.548,8.9,2.472,14.024,3.471,15.803l0.232,0.413c3.196,5.647,6.818,13.627,1.423,17.726  c-5.849,4.442-7.642,3.813-9.383,3.205c-0.291-0.103-0.581-0.202-0.876-0.289c-3.01-0.872-7.104-1.779-11.841-2.83  c-18.401-4.083-48.963-10.896-61.869-26.842c2.461-1.813,5.077-4.391,6.778-8.053c1.656-3.569,2.168-7.551,1.548-11.894  c7.036,1.631,21.859,5.535,25.892,8.746c0.275,0.218,0.61,0.329,0.947,0.329c0.234,0,0.47-0.055,0.688-0.163  c0.529-0.27,0.856-0.82,0.833-1.414c-0.006-0.173-0.05-0.997-0.16-2.207c4.247,2.324,14.463,8.45,22.783,17.716  c2.072,2.948,3.814,4.723,4.002,4.914c0.561,0.563,1.462,0.606,2.067,0.084c0.604-0.515,0.71-1.411,0.24-2.052  c-1.207-1.652-2.485-3.23-3.808-4.723c-3.281-4.692-7.492-12.562-6.893-21.458c1.149-17.043,1.678-28.615-1.319-33.952  c-0.581-1.03-1.319-2.204-2.1-3.436c-2.118-3.348-5.018-7.933-4.48-10.061c0.093-0.368,0.293-0.618,0.672-0.828  c1.745-0.983,3.919-1.391,6.021-1.787c3.083-0.583,6.273-1.181,8.257-3.638l0.39-0.483c2.766-3.443,8.506-10.64,13.822-9.661  l1.364,0.245c5.173,0.944,5.482,1.003,8.055,0.46c2.034-0.432,2.31,0.071,2.692,0.753  C372.579,166.537,372.609,166.834,372.434,167.203z M319.891,308.057c-2.365,0.175-5.302,0.388-9.405,0.305  c-10.88-0.218-17.503-9.649-17.569-9.744c-0.01-0.014-0.025-0.021-0.035-0.034c-0.22-5.266,3.827-9.337,6.695-11.536  c16.651-1.103,25.397,14.428,28.448,21.37C325.399,307.657,323.099,307.819,319.891,308.057z M290.305,294.73  c-2.703-5.342-6.84-12.269-11.927-16.818c-0.774-0.693-1.426-1.382-2.076-2.068c1.847,0.561,3.402,0.757,4.091,0.811  c3.457,4.244,8.775,8.978,15.575,9.428C293.533,288.327,291.268,291.282,290.305,294.73z M263.058,268.651  c0.473,0.094,0.947,0.154,1.401,0.154c0.168,0,0.315-0.026,0.477-0.037c-0.102,1.098-0.074,2.281,0.04,3.481  c-0.523-0.033-1.162-0.205-1.597-0.651C262.681,270.886,262.779,269.702,263.058,268.651z M265.466,265.634  c-0.776,0.198-2.263,0.207-2.994-0.497c-0.648-0.621-0.573-1.781-0.342-2.808c0.134,0.012,0.257,0.066,0.395,0.066  c0.002,0,0.004,0,0.004,0c1.788-0.003,3.459-1.091,4.37-2.671c0.022,0.008,0.043,0.017,0.066,0.024  c0.002,0.006,0.001,0.013,0.003,0.019c0.264,0.751,0.587,1.426,0.945,2.052c-0.693-0.078-1.34,0.295-1.598,0.936  C266.26,262.887,265.843,264.027,265.466,265.634z M195.5,268.556c2.237-0.202,4.555-0.579,6.917-1.094  c5.702-0.456,14.105-0.055,21.192,4.569c14.296,9.344,24.125,15.467,30.252,15.467c1.185,0,2.567-0.071,4.026-0.15  c3.956-0.202,9.372-0.492,10.969,1.022c0.275,0.261,0.392,0.554,0.392,0.99c0,2.001-0.706,4.094-1.389,6.119  c-1.005,2.976-2.043,6.055-0.87,8.988l0.232,0.574c1.65,4.101,5.084,12.629,1.657,16.786l-0.91,1.098  c-3.325,4.022-3.523,4.264-4.313,6.764c-0.626,1.981-1.191,1.981-1.974,1.981c-0.165,0-0.44-0.118-0.676-0.452  c-0.24-0.341-0.721-1.332-0.048-3.222c1.387-3.879,1.014-8.67-0.969-12.499l-0.646-1.264c-3.366-6.634-7.252-13.834-10.774-15.292  c-2.903-1.201-8.448-2.188-16.124-3.559c-2.515-0.447-5.241-0.935-8.146-1.474c-6.073-1.137-15.45-4.446-23.725-7.367  c-8.522-3.008-13.441-4.707-15.484-4.707h-0.476c-6.493-0.043-15.218-0.729-16.15-7.438c-1.01-7.267,0.416-8.527,1.797-9.748  c0.232-0.206,0.461-0.408,0.68-0.622c1.573-1.55,3.432-3.427,5.497-5.516c10.926-11.037,30.77-31.065,40.17-33.036  c-1.768,5.627-2.542,10.919-2.59,11.257c-0.081,0.563,0.161,1.126,0.624,1.455c0.261,0.186,0.57,0.281,0.881,0.281  c0.238,0,0.475-0.055,0.695-0.166c16.36-8.404,25.058-8.81,27.908-8.629c-0.333,3.879-0.015,8.326,1.977,12.492  c0.323,0.675,0.772,1.261,1.166,1.887c-4.006,2.511-26.231,16.09-45.16,20.355c-4.088,0.336-6.879,1.094-7.156,1.169  c-0.758,0.211-1.23,0.967-1.087,1.739C194.007,268.093,194.729,268.624,195.5,268.556z M201.138,210.666  c-0.084-3.198-0.79-6.638-2.641-9.491c3.175,0.622,6.802,0.872,9.857-0.15l0.007-0.004c1.244,0.49,2.709,0.79,4.334,0.935  C209.537,203.085,205.124,205.467,201.138,210.666z M168.755,213.955c1.494-1.839,3.357-4.129,6.219-7.054  c7.612-7.775,19.017-6.13,19.14-6.114c0.013,0.002,0.024-0.003,0.037-0.001c3.989,3.449,4.184,9.19,3.82,12.785  c-10.601,12.894-27.917,8.605-35.062,6.059C165.272,218.242,166.728,216.451,168.755,213.955z M318.88,148.787  c4.27,10.009-1.609,19.925-1.668,20.023c-0.007,0.012-0.006,0.024-0.013,0.036c-4.706,2.362-10.086,0.35-13.272-1.361  c-7.865-14.724,2.723-29.08,7.802-34.715c0.381,2.714,1.48,4.748,3.01,7.573C315.869,142.428,317.273,145.024,318.88,148.787z   M304.529,171.173c2.986,1.276,6.528,2.124,9.984,1.644c-3.398,4.313-7.193,10.371-8.219,16.878  c-3.419,2.923-6.303,5.144-7.883,6.329c-0.05-0.077-0.109-0.141-0.161-0.216C299.874,193.72,308.525,181.869,304.529,171.173z   M271.528,269.346c-1.367-2.548-1.946-4.542-2.156-5.511c1.404,1.533,3.12,2.542,4.91,3.16L271.528,269.346z M275.856,269.654  c0.02,0.061-0.004,0.127,0.024,0.186c0.024,0.052,0.699,1.398,1.924,3.276c-1.228-0.324-2.666-0.841-4.027-1.688L275.856,269.654z   M276.349,280.179c1.525,1.367,2.973,2.984,4.315,4.719c0.002,0.048,0.008,0.099,0.016,0.147c0.252,1.505,0.395,3.674,0.474,5.765  c-2.633-3.875-6.586-8.477-10.771-13.239l-0.331-0.377c-2.023-2.299-2.324-5.433-2.084-8.084  C269.375,272.194,271.889,276.193,276.349,280.179z M268.253,257.006c-1.232-0.289-2.118-1.47-2.644-2.413  c-1.412-2.531-0.456-4.537-0.02-5.243c0.565,0.1,1.137,0.162,1.714,0.201c0.501,1.348,1.599,3.947,3.422,6.896  C269.833,256.925,268.988,257.173,268.253,257.006z M274.934,182.573c1.167,0.028,2.51,0.788,3.539,1.961  c-0.426,0.527-1.123,1.126-2.065,0.951c-4.226-0.765-5.495,3.368-5.91,4.728c-0.434,1.409-2.12,4.585-3.489,6.015  c-0.938-0.422-1.932-0.731-2.984-0.853c1.567-2.208,4.46-6.165,8.263-11.289C273.061,183.045,274.062,182.491,274.934,182.573z   M266.444,199.3c1.373,0.876,2.526,2.346,3.859,4.049c0.831,1.064,1.796,2.213,2.868,3.34c-2.231-1.138-3.469-2.379-3.49-2.4  c-0.011-0.011-0.026-0.007-0.037-0.018s-0.005-0.027-0.017-0.038c-3.677-3.559-7.418-4.501-11.123-2.778  c-1.272,0.586-2.492,0.499-3.15,0.245c-0.379-0.143-0.513-0.309-0.524-0.325c0-0.048,0.068-0.242,0.347-0.54  C256.894,199.027,262.961,197.089,266.444,199.3z M255.823,196.795c2.15-2.154,4.398-4.796,6.38-7.22l0.398-0.483  c0.581-0.703,1.605-0.201,2.12,0.125c-2.139,2.926-3.88,5.353-4.451,6.269C258.672,195.727,257.131,196.179,255.823,196.795z   M276.561,198.231c2.401,0.547,3.667,1.208,4.318,1.883c-2.243-0.367-5.464-0.355-7.998,1.588c-0.059-0.075-0.123-0.15-0.181-0.225  c-1.02-1.305-2.058-2.475-3.186-3.506c0.568-0.65,1.107-1.398,1.601-2.19C272.178,196.466,274.335,197.726,276.561,198.231z   M272.58,193.104c0.392-0.824,0.689-1.546,0.826-1.994c0.756-2.461,1.411-2.821,2.458-2.628c0.13,0.023,0.246,0.012,0.373,0.025  c1.058,3.918,4.246,5.555,6.633,6.747c1.286,0.642,2.501,1.248,2.746,1.902c0.295,0.788-0.483,1.724-1.425,2.481  c-0.846-2.049-3.175-3.511-6.959-4.371C275.326,194.833,273.365,193.625,272.58,193.104z M250.405,212.085  c2.699-1.839,5.12-2.667,7.232-2.533c5.213,0.377,9.021-1.287,10.776-2.306c1.766,1.462,5.906,4.224,12.11,4.335  c1.042,0.579,4.559,2.687,6.57,5.71c0.05,0.797,0.075,1.597,0.075,2.409c0,14.825-8.418,26.883-18.767,26.883  s-18.767-12.059-18.767-26.883C249.634,217.109,249.894,214.553,250.405,212.085z M287.994,213.585  c-2.066-2.229-4.451-3.774-5.638-4.461c1.393-0.29,2.866-0.772,4.242-1.533C288.208,209.594,288.299,211.871,287.994,213.585z   M286.638,203.878c-2.784,2.601-7.672,2.686-9.084,2.653c-1.016-0.761-1.926-1.595-2.73-2.499c2.873-2.08,7.579-0.422,7.629-0.403  c0.154,0.057,0.311,0.068,0.468,0.074c0.022,0.001,0.041,0.021,0.063,0.021c0.01,0,0.019-0.006,0.029-0.006  c0.214-0.004,0.422-0.049,0.614-0.138c0.004-0.002,0.008-0.001,0.008-0.001c1.414-0.673,3.254-1.946,4.293-3.576  C288.163,201.13,288.045,202.565,286.638,203.878z M287.513,194.662c-0.85-0.882-2.03-1.505-3.283-2.129  c-2.111-1.053-4.222-2.205-4.979-4.715c0.821-0.505,1.464-1.178,1.914-1.826c1.459,0.11,4.535,0.614,5.982,2.682  C288.132,190.082,288.226,192.111,287.513,194.662z M266.521,186.764c-1.52-1.036-4.297-1.992-6.27,0.396l-0.402,0.492  c-1.863,2.274-7.526,9.194-10.368,10.35c-0.033,0.014-0.054,0.041-0.085,0.056c-0.518-0.133-0.974-0.312-1.291-0.564  c-0.24-0.19-0.354-0.388-0.384-0.658c-0.143-1.323,0.445-1.902,2.828-3.61c1.807-1.296,4.283-3.071,6.641-6.217  c3.63-4.837,8.169-5.701,10.913-2.388C267.575,185.335,267.046,186.052,266.521,186.764z M253.082,185.345  c-4.755-0.651-9.127,0.937-11.821,4.433c-1.118,1.453-1.761,3.104-2.066,4.789c-0.183,0.075-0.39,0.078-0.537,0.229  c-0.382,0.389-0.785,0.879-1.187,1.423c-2.67-1.048-9.894-3.553-16.107-2.711c-7.182,0.972-12.487,0.022-15.578-0.876  c3.309-1.065,5.749-5.848,8.106-10.484c0.636-1.253,1.239-2.437,1.805-3.423c2.831-4.91,15.243-11.203,27.245-17.29  c5.05-2.56,8.849-6.36,11.648-10.196C252.409,164.995,252.834,180.016,253.082,185.345z M239.341,198.893  c0.179,0.708,0.355,1.419,0.69,2.088c0.204,0.407,0.464,0.706,0.701,1.049c-0.873,0.871-2.102,2.336-2.918,4.263  C237.121,203.315,238.259,200.622,239.341,198.893z M237.886,214.152c0.537,1.274,1.213,2.342,1.983,3.219  c-1.202,3.571-1.974,6.844-2.322,9.783c-1.176,0.213-2.485,0.504-3.931,0.886C234.41,222.824,236.465,217.442,237.886,214.152z   M240.703,226.712c0.313-2.191,0.882-4.591,1.697-7.183c1.219,0.749,2.472,1.21,3.586,1.457c-0.464,1.34-1.041,3.331-1.456,5.656  C243.664,226.571,242.39,226.556,240.703,226.712z M234.629,214.03c-1.577,3.789-3.574,9.459-4.181,14.936  c-1.241,0.397-2.565,0.861-3.971,1.394c1.168-6.817,4.241-13.701,4.411-14.079C232.41,215.552,233.642,214.782,234.629,214.03z   M224.017,215.476c1.173-3.001,3.743-8.038,8.318-10.507c1.3,0.59,1.998,1.056,2.015,1.067c0.101,0.075,0.223,0.065,0.333,0.112  c0.132,0.878,0.387,1.77,0.765,2.667C234.934,209.696,232.306,213.468,224.017,215.476z M246.684,217.969  c-1.798-0.376-4.862-1.558-6.264-5.612c-0.697-2.021-0.325-3.84,0.37-5.295c0.23,3.063,1.479,6.027,4.71,6.979  c0.346,1.128,0.807,2.027,1.226,2.492c0.01,0.011,0.023,0.014,0.034,0.024C246.725,217.027,246.705,217.498,246.684,217.969z   M243.888,204.721c0.83,0.372,1.689,0.647,2.578,0.75c-0.551,0.82-0.899,1.645-1.117,2.39c-0.227,0.779-0.324,1.57-0.351,2.347  C243.865,208.82,243.758,206.46,243.888,204.721z M242.752,199.618c-1.271-2.536-0.917-5.595,0.919-7.981  c1.857-2.415,4.847-3.531,8.181-3.304c-1.095,0.98-2.149,1.753-3.078,2.42c-2.279,1.632-4.432,3.178-4.078,6.416  c0.117,1.074,0.64,2.009,1.514,2.707c1.497,1.192,3.826,1.482,5.609,1.517c0.001,0.081,0.021,0.154,0.029,0.233  c-0.428,0.152-0.895,0.288-1.272,0.461C248.217,202.74,244.483,203.089,242.752,199.618z M248.308,208.593  c0.49-1.553,1.593-2.766,3.291-3.618c0.76-0.218,1.409-0.489,2.009-0.761c1.624,0.936,4.028,1,6.176,0  c1.337-0.623,3.358-1.096,6.136,0.886c-1.656,0.78-4.435,1.701-8.056,1.416c-2.958-0.19-6.221,0.931-9.707,3.427  c-0.034,0.024-0.035,0.073-0.066,0.099C248.13,209.564,248.154,209.082,248.308,208.593z M270.555,249.477  c1.323-0.179,2.605-0.54,3.85-1.029c1.245,2.434,2.927,7.61,1.499,10.016C273.162,255.126,271.431,251.568,270.555,249.477z   M289.298,228.227c0.814,4.225,0.482,8.04-1.056,11.37c-2.61,5.649-7.952,8.484-10.239,9.485c-0.307-0.784-0.601-1.446-0.866-1.979  C282.963,243.593,287.46,236.694,289.298,228.227z M290.17,220.847c0.011-0.383,0.042-0.76,0.042-1.147  c0-0.162-0.015-0.318-0.017-0.48c0.933-0.12,2.198-0.389,3.488-1.019c1.133,3.098,1.904,5.947,2.308,8.509  c-2.142-0.527-3.658-0.87-4.137-0.976c-0.4-1.533-0.903-3.098-1.566-4.711C290.26,220.956,290.206,220.909,290.17,220.847z   M290.17,207.546c-0.293-0.604-0.694-1.192-1.157-1.777c0.523-0.542,0.927-1.1,1.231-1.667c0.04-0.001,0.078-0.003,0.12-0.006  c0.58-0.058,1.089-0.147,1.541-0.267c0.317,0.512,0.694,1.308,0.873,2.255c-0.402,0.428-0.678,0.943-0.862,1.439  c-0.803,0.523-1.371,0.186-1.494,0.099C290.348,207.562,290.249,207.59,290.17,207.546z M303.111,228.584  c-1.371-0.385-2.691-0.741-3.929-1.063c-0.388-3.316-1.369-7.074-2.941-11.203c0.747-0.779,1.529-1.821,2.174-2.98  C299.867,216.593,302.325,222.739,303.111,228.584z M299.683,208.727c0.056-0.076,0.142-0.117,0.184-0.205  c0.358-0.744,0.482-1.384,0.509-1.978c2.815,3.69,7.857,11.877,9.78,24.193c-1.268-0.426-2.571-0.838-3.87-1.23  c-0.872-9.308-6.049-19.476-6.269-19.904c-0.075-0.148-0.185-0.262-0.297-0.373C299.723,209.058,299.697,208.895,299.683,208.727z   M313.467,231.928c-2.213-17.266-10.386-27.161-12.42-29.385c0.163-0.031,0.339-0.029,0.5-0.062  c12.085,6.437,15.265,24.207,16.059,31.232C316.405,233.107,314.987,232.511,313.467,231.928z M299.739,199.61  c-0.034-0.232-0.08-0.456-0.131-0.679c2.552-1.872,11.268-8.465,19.027-16.678C314.984,189.435,308.654,198.4,299.739,199.61z   M296.808,201.286c-0.002,0.036,0.004,0.056,0.003,0.092c0,0.011-0.005,0.02-0.005,0.031c0,0.012,0.006,0.021,0.007,0.032  c-0.06,1.722,0.18,2.907,0.365,3.765c0.031,0.142,0.051,0.246,0.074,0.364c-0.591-0.205-1.102-0.307-1.573-0.363  c-0.306-1.317-0.816-2.381-1.251-3.069c0.731-1.092,1.001-2.646,1.208-4.702C296.343,198.394,296.882,199.687,296.808,201.286z   M294.604,208.7c0.073-0.163,0.198-0.44,0.266-0.492c-0.002-0.004,0.329-0.147,1.428,0.245c0.289,0.103,0.331,0.209,0.365,0.377  c0.275,1.332-1.403,4.296-2.919,5.694c-1.002,0.924-2.254,1.354-3.243,1.559c0.413-1.236,0.831-3.165,0.611-5.29  c0.764-0.003,1.592-0.154,2.47-0.727C294.157,209.691,294.414,209.12,294.604,208.7z M292.725,195.96  c-0.372,3.981-0.462,4.71-1.667,4.967c-0.002-1.537-0.485-2.951-1.056-3.968c0.951-2.631,1.176-4.903,0.829-6.879  c0.445,0.184,0.888,0.424,1.243,0.817c0.688,0.756,0.959,1.91,0.808,3.42L292.725,195.96z M221.772,196.527  c5.111-0.703,11.366,1.317,14.134,2.352c-0.55,1.169-0.958,2.47-1.168,3.866c-2.637-1.377-9.015-3.892-20.138-3.671  c-4.483,0.186-7.349-1.601-9.017-3.321C209.066,196.69,214.554,197.498,221.772,196.527z M220.774,202.31  c2.74,0.226,5.042,0.618,6.912,1.092c-3.473,1.329-8.723,3.444-12.813,5.564C216.2,206.849,218.141,204.372,220.774,202.31z   M226.962,217.809c-1.257,3.202-3.105,8.604-3.74,13.859c-1.784,0.751-3.658,1.587-5.678,2.567  c0.766-3.891,2.428-10.785,5.171-15.381C224.273,218.558,225.688,218.205,226.962,217.809z M248.855,240.866  c-2.071-4.32-2.032-9.136-1.423-13.025c2.069,10.019,7.845,17.897,15.165,20.677c-0.282,0.595-0.542,1.358-0.678,2.263  C255.543,248.842,251.099,245.55,248.855,240.866z M260.746,256.145c0.298-0.67,0.964-1.189,1.565-1.554  c0.169,0.483,0.357,0.973,0.641,1.482c0.425,0.763,0.92,1.388,1.445,1.943c-0.331,0.757-1.109,1.33-1.869,1.334h-0.002  c-0.939,0-1.47-0.856-1.752-1.573C260.532,257.16,260.521,256.641,260.746,256.145z M284.35,276.609  c-1.062-1.126-1.99-2.279-2.77-3.348c2.211,1.101,4.912,2.326,7.62,3.25C287.77,276.712,286.125,276.795,284.35,276.609z   M270.346,259.902c0.654-0.16,1.365-0.45,2.126-0.894c1.474,1.991,3.237,3.983,5.4,5.697  C275.196,264.408,272.042,263.262,270.346,259.902z M171.621,161.556c0.169-0.015,0.483,0.016,0.863,0.14  c0.525,0.17,1.194,0.543,1.949,1.43c1.149,1.351,2.644,2.452,4.275,3.343c0.095,0.052,0.18,0.117,0.276,0.167  c2.087,1.087,4.413,1.788,6.759,1.89l1.398,0.072c7.44,0.4,15.622,0.63,18.65-1.7c2.49-1.914,6.119-6.226,11.137-12.193  c1.643-1.954,3.425-4.07,5.345-6.312c4.015-4.692,11.561-11.163,18.218-16.87c6.868-5.885,10.803-9.301,11.823-11.072l0.238-0.416  c3.223-5.627,8.227-12.835,14.512-10.272c6.798,2.754,7.179,4.621,7.547,6.423c0.061,0.305,0.125,0.606,0.202,0.903  c0.888,3.408,2.301,7.683,3.935,12.633c5.223,15.807,12.958,39.275,9.593,55.792c-2.443-2.09-5.794-2.486-7.279-2.562  c-1.354-1.712-3.484-3.36-6.05-3.423c-1.414-0.012-3.356,0.416-5.059,2.625c-1.625-1.706-3.659-2.681-5.881-2.681  c-2.012,0-4.933,0.763-8.006,4.127c-0.273-7.912-0.456-27.557,3.621-41.428c1.199-2.826,1.73-4.823,1.789-5.057  c0.198-0.772-0.232-1.566-0.985-1.823c-0.755-0.234-1.573,0.111-1.888,0.844c-0.648,1.514-1.223,3.134-1.736,4.839  c-2.227,5.199-6.903,13.481-15.3,17.741c-15.236,7.723-25.452,13.184-28.506,18.482c-0.592,1.026-1.221,2.263-1.884,3.566  c-1.793,3.531-4.25,8.366-6.358,8.988c-0.361,0.111-0.676,0.063-1.056-0.154c-1.734-0.999-3.196-2.655-4.61-4.26  c-2.077-2.358-4.222-4.791-7.347-5.239l-0.606-0.087c-4.376-0.615-13.487-1.898-15.377-6.95l-0.495-1.323  c-1.827-4.898-1.936-5.191-3.709-7.129c-1.296-1.413-1.144-1.939-0.806-2.545c0.028-0.05,0.045-0.098,0.075-0.15  C170.97,161.774,171.213,161.595,171.621,161.556z"/>
<path style="fill:#2E3033;" d="M19.174,488.73L19.174,488.73C8.585,488.73,0,480.145,0,469.556V42.287  C0,31.785,8.514,23.27,19.016,23.27h0.158c10.589,0,19.174,8.585,19.174,19.174v427.111C38.347,480.145,29.763,488.73,19.174,488.73  z"/>
<g>
</g>
<g>
</g>
<g>
</g>
<g>
</g>
<g>
</g>
<g>
</g>
<g>
</g>
<g>
</g>
<g>
</g>
<g>
</g>
<g>
</g>
<g>
</g>
<g>
</g>
<g>
</g>
<g>
</g>
</svg>
