<?xml version="1.0" encoding="iso-8859-1"?>
<!-- Generator: Adobe Illustrator 19.0.0, SVG Export Plug-In . SVG Version: 6.00 Build 0)  -->
<svg xmlns="http://www.w3.org/2000/svg" xmlns:xlink="http://www.w3.org/1999/xlink" version="1.1" id="Layer_1" x="0px" y="0px" viewBox="0 0 512.1 512.1" style="enable-background:new 0 0 512.1 512.1;" xml:space="preserve">
<path style="fill:#41479B;" d="M503.6,373.9H35.4c-4.6,0-8.4-3.7-8.4-8.4v-301c0-4.6,3.7-8.4,8.4-8.4h468.3c4.6,0,8.4,3.7,8.4,8.4  v301C512,370.1,508.3,373.9,503.6,373.9z"/>
<path style="fill:#FF4B55;" d="M503.6,56.1H35.4c-4.6,0-8.4,3.7-8.4,8.4v301c0,4.6,3.7,8.4,8.4,8.4h468.3c4.6,0,8.4-3.7,8.4-8.4  v-301C512,59.9,508.3,56.1,503.6,56.1z M500.3,206.6h-81.5l-135.9-71.9V72.8h217.4V206.6z M274.5,280.8L150.2,215l124.3-65.8  L398.8,215L274.5,280.8z M266.1,72.8v61.9l-135.9,71.9H48.7V72.8H266.1z M48.7,223.4h81.5l135.9,71.9v61.9H48.7V223.4z M282.9,357.2  v-61.9l135.9-71.9h81.5v133.8H282.9L282.9,357.2z"/>
<polygon style="fill:#F5F5F5;" points="274.5,149.2 150.2,215 274.5,280.8 398.8,215 "/>
<polygon style="fill:#73AF00;" points="232.7,258.7 316.3,258.7 374.5,227.8 348.3,201.6 339.2,201.6 332.4,208.4 327.6,203.6   318,203.6 281.1,240.5 234.7,240.5 224.2,224.9 210.8,224.9 205.5,232.3 199.6,232.3 196.1,239.3 "/>
<path style="fill:#FFE15A;" d="M275.6,174.9l3.3,10l10.5,0.1c1.4,0,1.9,1.7,0.8,2.6l-8.5,6.2l3.2,10c0.4,1.3-1.1,2.4-2.2,1.6  l-8.5-6.1l-8.5,6.1c-1.1,0.8-2.6-0.3-2.2-1.6l3.2-10l-8.5-6.2c-1.1-0.8-0.5-2.5,0.8-2.6l10.5-0.1l3.3-10  C273.4,173.6,275.2,173.6,275.6,174.9z"/>
<path style="fill:#2E3033;" d="M19.2,489.1L19.2,489.1C8.6,489.1,0,480.5,0,469.9V42c0-10.5,8.5-19,19-19h0.2  c10.6,0,19.2,8.6,19.2,19.2V470C38.4,480.5,29.8,489.1,19.2,489.1z"/>
<g>
</g>
<g>
</g>
<g>
</g>
<g>
</g>
<g>
</g>
<g>
</g>
<g>
</g>
<g>
</g>
<g>
</g>
<g>
</g>
<g>
</g>
<g>
</g>
<g>
</g>
<g>
</g>
<g>
</g>
</svg>
