<?xml version="1.0" encoding="iso-8859-1"?>
<!-- Generator: Adobe Illustrator 19.0.0, SVG Export Plug-In . SVG Version: 6.00 Build 0)  -->
<svg xmlns="http://www.w3.org/2000/svg" xmlns:xlink="http://www.w3.org/1999/xlink" version="1.1" id="Layer_1" x="0px" y="0px" viewBox="0 0 512 512" style="enable-background:new 0 0 512 512;" xml:space="preserve">
<path style="fill:#F5F5F5;" d="M512,162.503H27.43V65.118c0-4.661,3.779-8.44,8.44-8.44h467.69c4.661,0,8.44,3.779,8.44,8.44  V162.503z"/>
<path style="fill:#FF4B55;" d="M503.56,374.155H35.87c-4.661,0-8.44-3.779-8.44-8.44V268.33H512v97.385  C512,370.376,508.222,374.155,503.56,374.155z"/>
<rect x="27.43" y="162.498" style="fill:#41479B;" width="484.57" height="105.83"/>
<path style="fill:#FF4B55;" d="M150.678,294.239c-2.472-1.42-60.588-35.221-60.588-87.177v-71.014h125.32v71.014  c0,51.956-58.115,85.758-60.588,87.177l-2.072,1.183L150.678,294.239z"/>
<polygon style="fill:#F5F5F5;" points="185.572,194.53 165.878,197.123 159.314,197.123 159.314,185.37 163.252,185.37   179.007,187.965 176.874,178.806 179.007,169.649 163.252,172.242 159.314,172.242 159.314,168.272 161.908,148.579 152.75,151.246   143.591,148.579 146.186,168.272 146.186,172.242 142.246,172.242 126.492,169.649 128.626,178.806 126.492,187.965 142.246,185.37   146.186,185.37 146.186,197.123 139.621,197.123 119.928,194.53 122.595,203.688 119.928,212.846 139.621,210.252 146.186,210.252   146.186,240.48 159.314,240.48 159.314,210.252 165.878,210.252 185.572,212.846 182.905,203.688 "/>
<path style="fill:#41479B;" d="M152.75,227.948c-8.629,0-16.031,5.235-19.215,12.7c-0.561-0.045-1.099-0.169-1.671-0.169  c-11.122,0-20.127,8.716-20.765,19.677c16.917,20.826,38.107,33.235,39.578,34.082l2.072,1.183l2.072-1.183  c1.473-0.846,22.661-13.256,39.58-34.082c-0.638-10.96-9.644-19.677-20.765-19.677c-0.573,0-1.111,0.122-1.671,0.169  C168.781,233.183,161.379,227.948,152.75,227.948z"/>
<path style="fill:#F5F5F5;" d="M211.233,140.224c0,0,0,50.127,0,66.838c0,50.127-58.483,83.547-58.483,83.547  s-58.483-33.418-58.483-83.547c0-16.709,0-66.838,0-66.838H211.233 M219.588,131.87h-8.355H94.268h-8.355v8.355v66.838  c0,54.352,60.132,89.338,62.692,90.801l4.145,2.368l4.145-2.368c2.559-1.463,62.693-36.449,62.693-90.801v-66.838L219.588,131.87  L219.588,131.87z"/>
<path style="fill:#2E3033;" d="M19.122,488.101L19.122,488.101C8.561,488.101,0,479.539,0,468.979V42.864  C0,32.39,8.491,23.899,18.965,23.899h0.157c10.561,0,19.122,8.561,19.122,19.122v425.958  C38.244,479.539,29.683,488.101,19.122,488.101z"/>
<g>
</g>
<g>
</g>
<g>
</g>
<g>
</g>
<g>
</g>
<g>
</g>
<g>
</g>
<g>
</g>
<g>
</g>
<g>
</g>
<g>
</g>
<g>
</g>
<g>
</g>
<g>
</g>
<g>
</g>
</svg>
