<?xml version="1.0" encoding="iso-8859-1"?>
<!-- Generator: Adobe Illustrator 19.0.0, SVG Export Plug-In . SVG Version: 6.00 Build 0)  -->
<svg xmlns="http://www.w3.org/2000/svg" xmlns:xlink="http://www.w3.org/1999/xlink" version="1.1" id="Layer_1" x="0px" y="0px" viewBox="0 0 512.001 512.001" style="enable-background:new 0 0 512.001 512.001;" xml:space="preserve">
<path style="fill:#41479B;" d="M20.541,263.804H512v98.801c0,4.71-3.819,8.529-8.529,8.529H29.07c-4.71,0-8.529-3.819-8.529-8.529  V263.804z"/>
<path style="fill:#73AF00;" d="M29.07,49.145h474.401c4.71,0,8.529,3.819,8.529,8.529v98.801H20.541V57.673  C20.541,52.962,24.36,49.145,29.07,49.145z"/>
<rect x="20.541" y="156.47" style="fill:#F5F5F5;" width="491.46" height="107.33"/>
<path style="fill:#2E3033;" d="M19.323,490.545L19.323,490.545C8.651,490.545,0,481.893,0,471.221v-430.6  c0-10.584,8.58-19.165,19.164-19.165h0.159c10.672,0,19.323,8.651,19.323,19.323v430.443  C38.647,481.893,29.995,490.545,19.323,490.545z"/>
<g>
</g>
<g>
</g>
<g>
</g>
<g>
</g>
<g>
</g>
<g>
</g>
<g>
</g>
<g>
</g>
<g>
</g>
<g>
</g>
<g>
</g>
<g>
</g>
<g>
</g>
<g>
</g>
<g>
</g>
</svg>
