<?xml version="1.0" encoding="iso-8859-1"?>
<!-- Generator: Adobe Illustrator 19.0.0, SVG Export Plug-In . SVG Version: 6.00 Build 0)  -->
<svg xmlns="http://www.w3.org/2000/svg" xmlns:xlink="http://www.w3.org/1999/xlink" version="1.1" id="Layer_1" x="0px" y="0px" viewBox="0 0 512.001 512.001" style="enable-background:new 0 0 512.001 512.001;" xml:space="preserve">
<path style="fill:#F5F5F5;" d="M512,210.495H24.345V59.209c0-4.674,3.789-8.463,8.463-8.463h470.73c4.674,0,8.463,3.789,8.463,8.463  v151.286H512z"/>
<path style="fill:#82AFFF;" d="M24.345,210.495H512v151.287c0,4.674-3.789,8.463-8.463,8.463H32.807  c-4.674,0-8.463-3.789-8.463-8.463V210.495H24.345z"/>
<path style="fill:#B46446;" d="M268.952,279.053c-1.424-0.061-35.042-1.781-51.912-24.897c-9.833-13.469-11.795-31.386-5.832-53.249  l2.409,0.657c-5.752,21.09-3.924,38.284,5.432,51.109c16.151,22.143,49.675,23.87,50.012,23.882L268.952,279.053z"/>
<g>
	<path style="fill:#41AA5A;" d="M211.184,176.654c-1.658,4.318-1.28,8.838,0.64,12.266c3.719-1.263,7.026-4.369,8.684-8.686   c1.658-4.318,1.28-8.838-0.64-12.266C216.147,169.23,212.841,172.336,211.184,176.654z"/>
	<path style="fill:#41AA5A;" d="M232.242,250.902c-1.84,3.035-2.322,7.106-0.959,11.056c1.273,3.692,3.899,6.415,6.944,7.789   c-2.958-1.55-6.72-1.938-10.409-0.665c-3.951,1.363-6.858,4.25-8.114,7.57c3.035,1.84,7.105,2.322,11.056,0.961   c3.951-1.363,6.858-4.25,8.114-7.57l-0.004-0.002c1.825-3.032,2.303-7.086,0.945-11.023   C238.45,255.066,235.561,252.158,232.242,250.902z"/>
	<path style="fill:#41AA5A;" d="M225.042,225.324c-2.839,2.131-4.804,5.727-5.013,9.901c-0.196,3.9,1.226,7.407,3.54,9.817   c-2.167-2.541-5.513-4.304-9.411-4.499c-4.174-0.209-7.949,1.387-10.352,3.999c2.131,2.839,5.726,4.804,9.9,5.013   c4.173,0.209,7.949-1.387,10.352-3.999c-0.001-0.001-0.002-0.002-0.002-0.002c2.822-2.135,4.777-5.718,4.986-9.877   C229.25,231.502,227.654,227.728,225.042,225.324z"/>
	<path style="fill:#41AA5A;" d="M221.93,212.903c-3.433,0.901-6.611,3.49-8.379,7.276c-1.652,3.539-1.66,7.321-0.427,10.426   c-1.047-3.17-3.48-6.066-7.017-7.718c-3.786-1.769-7.884-1.715-11.096-0.203c0.901,3.433,3.49,6.611,7.276,8.379   c3.786,1.769,7.884,1.715,11.096,0.203c0,0-0.001-0.003-0.002-0.004c3.42-0.91,6.583-3.49,8.345-7.263   C223.494,220.211,223.441,216.113,221.93,212.903z"/>
	<path style="fill:#41AA5A;" d="M223.695,200.576c-3.532-0.351-7.412,0.968-10.389,3.901c-2.782,2.741-4.107,6.285-4.034,9.623   c0.123-3.336-1.149-6.898-3.889-9.679c-2.932-2.977-6.793-4.354-10.329-4.057c-0.351,3.532,0.968,7.412,3.901,10.389   c2.933,2.977,6.793,4.354,10.329,4.057c0,0,0-0.003,0-0.005c3.523,0.339,7.386-0.977,10.353-3.9   C222.615,207.973,223.992,204.113,223.695,200.576z"/>
	<path style="fill:#41AA5A;" d="M226.192,188.844c-3.425-0.931-7.471-0.272-10.892,2.128c-3.197,2.243-5.09,5.518-5.571,8.824   c0.673-3.271,0.008-6.993-2.233-10.189c-2.399-3.421-5.978-5.418-9.515-5.71c-0.931,3.425-0.272,7.47,2.128,10.892   c2.4,3.422,5.978,5.418,9.515,5.71c0-0.002,0-0.003,0-0.003c3.418,0.915,7.446,0.256,10.856-2.136   C223.903,195.96,225.901,192.381,226.192,188.844z"/>
</g>
<g>
	<path style="fill:#FFE15A;" d="M229.708,252.924c0.467,1.936-1.233,3.637-3.17,3.169c-0.91-0.219-1.657-0.966-1.876-1.876   c-0.467-1.936,1.233-3.637,3.169-3.17C228.742,251.267,229.488,252.013,229.708,252.924z"/>
	<path style="fill:#FFE15A;" d="M241.671,268.939c0.467,1.936-1.233,3.637-3.169,3.169c-0.91-0.219-1.657-0.966-1.876-1.876   c-0.467-1.936,1.233-3.637,3.169-3.17C240.705,267.282,241.452,268.029,241.671,268.939z"/>
	<path style="fill:#FFE15A;" d="M222.841,233.26c0.467,1.936-1.233,3.637-3.169,3.17c-0.91-0.219-1.657-0.966-1.876-1.876   c-0.467-1.936,1.233-3.637,3.169-3.169C221.876,231.605,222.622,232.35,222.841,233.26z"/>
	<path style="fill:#FFE15A;" d="M206.3,213.702c0.467,1.936-1.233,3.637-3.169,3.169c-0.91-0.219-1.657-0.966-1.876-1.876   c-0.467-1.936,1.233-3.637,3.169-3.169C205.335,212.046,206.081,212.793,206.3,213.702z"/>
	<path style="fill:#FFE15A;" d="M217.848,200.455c0.467,1.936-1.233,3.637-3.169,3.17c-0.91-0.219-1.657-0.966-1.876-1.876   c-0.467-1.936,1.233-3.637,3.169-3.169C216.882,198.799,217.628,199.545,217.848,200.455z"/>
	<path style="fill:#FFE15A;" d="M213.47,186.883c0.467,1.936-1.233,3.637-3.169,3.169c-0.91-0.219-1.657-0.966-1.876-1.876   c-0.467-1.936,1.233-3.637,3.169-3.17C212.505,185.226,213.251,185.973,213.47,186.883z"/>
</g>
<path style="fill:#B46446;" d="M269.06,279.053l-0.109-2.497c0.339-0.013,33.861-1.739,50.012-23.882  c9.357-12.825,11.184-30.02,5.432-51.109l2.409-0.657c5.962,21.863,4.001,39.78-5.832,53.25  C304.102,277.271,270.484,278.991,269.06,279.053z"/>
<g>
	<path style="fill:#41AA5A;" d="M326.829,191.213c1.658,4.318,1.28,8.838-0.639,12.266c-3.72-1.263-7.026-4.369-8.684-8.686   c-1.658-4.318-1.28-8.838,0.64-12.266C321.866,183.789,325.171,186.895,326.829,191.213z"/>
	<path style="fill:#41AA5A;" d="M305.771,250.902c1.84,3.035,2.322,7.106,0.961,11.056c-1.273,3.692-3.899,6.415-6.944,7.789   c2.958-1.55,6.72-1.938,10.409-0.665c3.951,1.363,6.858,4.25,8.114,7.57c-3.035,1.84-7.105,2.322-11.056,0.961   c-3.951-1.363-6.858-4.25-8.114-7.57c0.001-0.001,0.003-0.001,0.003-0.001c-1.823-3.033-2.301-7.087-0.944-11.024   C299.563,255.066,302.452,252.158,305.771,250.902z"/>
	<path style="fill:#41AA5A;" d="M312.971,239.883c2.839,2.131,4.804,5.727,5.013,9.9c0.196,3.9-1.226,7.407-3.539,9.817   c2.166-2.541,5.512-4.304,9.411-4.499c4.173-0.209,7.949,1.387,10.352,3.999c-2.131,2.839-5.726,4.804-9.901,5.013   c-4.174,0.209-7.949-1.387-10.352-3.999c0.001-0.001,0.002-0.002,0.002-0.002c-2.822-2.135-4.777-5.718-4.986-9.877   C308.763,246.061,310.359,242.287,312.971,239.883z"/>
	<path style="fill:#41AA5A;" d="M316.084,227.462c3.433,0.901,6.611,3.49,8.379,7.276c1.653,3.539,1.66,7.321,0.427,10.426   c1.047-3.17,3.48-6.066,7.017-7.718c3.786-1.769,7.884-1.715,11.096-0.203c-0.901,3.433-3.49,6.611-7.277,8.379   c-3.786,1.769-7.884,1.715-11.096,0.203c0,0,0.001-0.003,0.002-0.004c-3.42-0.91-6.583-3.49-8.345-7.263   C314.519,234.771,314.572,230.673,316.084,227.462z"/>
	<path style="fill:#41AA5A;" d="M314.319,215.135c3.532-0.351,7.412,0.968,10.389,3.901c2.782,2.741,4.107,6.285,4.034,9.623   c-0.123-3.336,1.149-6.898,3.889-9.679c2.932-2.977,6.793-4.354,10.329-4.057c0.351,3.532-0.968,7.412-3.901,10.389   s-6.793,4.354-10.329,4.057c0,0,0-0.003,0-0.005c-3.523,0.339-7.386-0.977-10.353-3.9   C315.398,222.532,314.02,218.672,314.319,215.135z"/>
	<path style="fill:#41AA5A;" d="M311.821,203.403c3.425-0.931,7.471-0.272,10.892,2.128c3.197,2.243,5.09,5.518,5.571,8.824   c-0.673-3.271-0.008-6.994,2.233-10.189c2.399-3.421,5.978-5.418,9.515-5.71c0.931,3.425,0.272,7.471-2.128,10.892   s-5.978,5.418-9.515,5.71c0-0.001,0-0.003,0-0.003c-3.418,0.915-7.446,0.256-10.856-2.136   C314.109,210.519,312.112,206.941,311.821,203.403z"/>
</g>
<g>
	<path style="fill:#FFE15A;" d="M308.305,267.483c-0.467,1.936,1.233,3.637,3.169,3.169c0.91-0.219,1.657-0.966,1.876-1.876   c0.467-1.936-1.233-3.637-3.169-3.17C309.271,265.826,308.525,266.572,308.305,267.483z"/>
	<path style="fill:#FFE15A;" d="M296.341,268.939c-0.467,1.936,1.233,3.637,3.169,3.169c0.91-0.219,1.657-0.966,1.876-1.876   c0.467-1.936-1.233-3.637-3.169-3.17C297.307,267.282,296.56,268.029,296.341,268.939z"/>
	<path style="fill:#FFE15A;" d="M315.171,247.821c-0.467,1.936,1.233,3.637,3.169,3.169c0.91-0.219,1.657-0.966,1.876-1.876   c0.467-1.936-1.233-3.637-3.169-3.169C316.137,246.164,315.39,246.91,315.171,247.821z"/>
	<path style="fill:#FFE15A;" d="M331.713,228.262c-0.467,1.936,1.233,3.637,3.169,3.169c0.91-0.219,1.657-0.966,1.876-1.876   c0.467-1.936-1.233-3.637-3.169-3.169C332.679,226.605,331.932,227.352,331.713,228.262z"/>
	<path style="fill:#FFE15A;" d="M320.166,215.014c-0.467,1.936,1.233,3.637,3.169,3.17c0.91-0.219,1.657-0.966,1.876-1.876   c0.467-1.936-1.233-3.637-3.169-3.169C321.13,213.359,320.385,214.104,320.166,215.014z"/>
	<path style="fill:#FFE15A;" d="M324.543,201.442c-0.467,1.936,1.233,3.637,3.169,3.169c0.91-0.219,1.657-0.966,1.876-1.876   c0.467-1.936-1.233-3.637-3.17-3.17C325.508,199.785,324.762,200.532,324.543,201.442z"/>
</g>
<path style="fill:#8CD7FF;" d="M283.647,191.678h-29.836c-9.287,0-16.816,7.528-16.816,16.816v26.283  c0,9.288,7.529,16.816,16.816,16.816h29.836c9.287,0,16.816-7.528,16.816-16.816v-26.283  C300.463,199.207,292.934,191.678,283.647,191.678z"/>
<g>
	<polygon style="fill:#F5F5F5;" points="273.653,214.552 273.653,217.881 270.323,217.881 270.323,214.552 267.76,214.552    267.76,217.881 264.43,217.881 264.43,214.552 262.348,214.552 262.348,221.21 264.012,223.318 264.012,247.843 274,247.843    274,223.318 275.665,221.21 275.665,214.552  "/>
	<path style="fill:#F5F5F5;" d="M269.492,204.009c1.647-0.798,2.081,2.566,2.081,2.566c3.468-1.734,2.563-4.548,1.734-5.895   c-1.11-1.803-5.548-2.497-7.421,1.248c-1.872,3.745,3.191,11.167,3.191,11.167C269.353,210.807,267.342,205.051,269.492,204.009z"/>
	<polygon style="fill:#F5F5F5;" points="290.766,220.759 290.766,224.089 287.436,224.089 287.436,220.759 284.873,220.759    284.873,224.089 281.544,224.089 281.544,220.759 279.462,220.759 279.462,227.418 281.126,229.526 281.126,254.05 291.114,254.05    291.114,229.526 292.778,227.418 292.778,220.759  "/>
	<path style="fill:#F5F5F5;" d="M286.605,210.217c1.647-0.798,2.081,2.566,2.081,2.566c3.468-1.734,2.563-4.548,1.734-5.895   c-1.11-1.803-5.548-2.497-7.421,1.248c-1.872,3.745,3.191,11.167,3.191,11.167C286.466,217.015,284.455,211.258,286.605,210.217z"/>
	<polygon style="fill:#F5F5F5;" points="256.538,220.759 256.538,224.089 253.209,224.089 253.209,220.759 250.646,220.759    250.646,224.089 247.317,224.089 247.317,220.759 245.235,220.759 245.235,227.418 246.899,229.526 246.899,254.05 256.887,254.05    256.887,229.526 258.552,227.418 258.552,220.759  "/>
	<path style="fill:#F5F5F5;" d="M252.378,210.217c1.647-0.798,2.081,2.566,2.081,2.566c3.468-1.734,2.563-4.548,1.734-5.895   c-1.11-1.803-5.548-2.497-7.421,1.248c-1.872,3.745,3.191,11.167,3.191,11.167C252.239,217.015,250.228,211.258,252.378,210.217z"/>
</g>
<path style="fill:#6EC86E;" d="M296.32,249.618c-2.223-1.1-4.692-1.775-7.339-1.775c-2.837,0-5.468,0.776-7.806,2.029  c-3.04-3.276-7.347-5.358-12.169-5.358s-9.128,2.082-12.169,5.358c-2.338-1.253-4.969-2.029-7.806-2.029  c-2.648,0-5.117,0.675-7.339,1.775c4.753,8.717,13.855,22.803,27.314,28.187C282.467,272.421,291.568,258.335,296.32,249.618z"/>
<g>
	<path style="fill:#FFE15A;" d="M268.856,138.058l0.15-0.075C269.006,137.983,268.957,137.997,268.856,138.058z"/>
	<path style="fill:#FFE15A;" d="M269.006,137.983l0.15,0.075C269.056,137.997,269.006,137.983,269.006,137.983z"/>
	<path style="fill:#FFE15A;" d="M300.944,152.236c-0.936-5.41-7.906-6.346-15.918-6.867c-8.01-0.52-11.444-5.098-11.444-5.098   h-9.155c0,0-3.433,4.577-11.444,5.098c-8.01,0.52-14.98,1.457-15.918,6.867c-0.936,5.41,5.93,13.94,5.93,13.94l6.034-4.889   c0,0-7.386-7.074-3.745-9.675c3.596-2.568,14.079-0.789,18.748-6.955c-0.198,1.288-0.128,2.88,0.671,4.84   c1.525,3.745,0.971,8.462,0.971,8.462h3.329h3.329c0,0-0.555-4.716,0.971-8.462c0.799-1.96,0.868-3.552,0.671-4.84   c4.669,6.166,15.153,4.387,18.748,6.955c3.641,2.601-3.745,9.675-3.745,9.675l6.034,4.889   C295.015,166.176,301.882,157.645,300.944,152.236z"/>
	<path style="fill:#FFE15A;" d="M272.404,121.546h-1.734v-1.872c0-0.919-0.745-1.665-1.665-1.665c-0.919,0-1.665,0.745-1.665,1.665   v1.872h-1.804c-0.919,0-1.664,0.745-1.664,1.664s0.745,1.665,1.664,1.665h1.804v4.786c0,0.919,0.746,1.664,1.665,1.664   s1.665-0.746,1.665-1.664v-4.786h1.734c0.919,0,1.665-0.746,1.665-1.665C274.069,122.292,273.325,121.546,272.404,121.546z"/>
</g>
<path style="fill:#FFF0E1;" d="M272.274,130.673c0.444,2.345-1.573,4.364-3.919,3.918c-1.303-0.246-2.369-1.313-2.616-2.615  c-0.444-2.345,1.574-4.364,3.918-3.918C270.961,128.305,272.027,129.371,272.274,130.673z"/>
<g>
	<path style="fill:#FFC75A;" d="M245.148,198.323c1.341,0.67,2.907,1.248,4.509,1.248c5.516,0,8.219-3.119,8.219-8.635   c0-5.516-3.327-9.675-8.843-9.675c0,0-0.622,0.011-1.619,0.163c-0.214,0.035-0.427,0.067-0.636,0.114   c-5.302,1.011-18.406,5.898-21.049,29.684c-3.694,33.253,23.304,63.253,43.278,69.911v-3.329   C269.006,277.805,221.845,241.74,245.148,198.323z"/>
	<polygon style="fill:#FFC75A;" points="249.032,184.59 269.006,191.248 249.032,197.907  "/>
</g>
<g>
	<polygon style="fill:#FFE15A;" points="288.981,197.907 269.006,191.248 288.981,184.59  "/>
	<path style="fill:#FFE15A;" d="M229.037,211.591c2.385-21.466,13.637-25.88,18.484-26.806c0.106-0.024,0.214-0.039,0.397-0.069   c0.609-0.093,1.03-0.12,1.16-0.125c3.65,0.025,6.056,2.775,6.056,6.104c0,3.671-2.151,5.063-4.3,5.133c0,0,1.734-3.606-1.804-4.577   c-2.388-0.656-5.41,1.248-5.133,4.716c0.195,2.437,2.508,4.786,5.133,4.786c5.516,0,9.987-3.986,9.987-9.502   c0-5.516-4.472-9.987-9.987-9.987c0,0-0.622,0.011-1.619,0.163c-0.214,0.035-0.427,0.067-0.636,0.114   c-5.302,1.011-18.406,5.898-21.049,29.684c-3.694,33.253,23.304,63.253,43.278,69.911v-3.329c0,0-7.074-3.537-11.91-6.973   C242.153,260.216,226.34,235.869,229.037,211.591z"/>
</g>
<g>
	<path style="fill:#FFC75A;" d="M292.864,198.323c-1.341,0.67-2.907,1.248-4.509,1.248c-5.516,0-8.219-3.119-8.219-8.635   c0-5.516,3.327-9.675,8.843-9.675c0,0,0.622,0.011,1.619,0.163c0.214,0.035,0.427,0.067,0.636,0.114   c5.302,1.011,18.406,5.898,21.049,29.684c3.694,33.253-23.304,63.253-43.278,69.911v-3.329   C269.006,277.805,316.168,241.74,292.864,198.323z"/>
	<polygon style="fill:#FFC75A;" points="288.981,184.59 269.006,191.248 288.981,197.907  "/>
</g>
<g>
	<path style="fill:#FFE15A;" d="M308.976,211.591c-2.385-21.466-13.637-25.88-18.484-26.806c-0.106-0.024-0.215-0.039-0.397-0.069   c-0.609-0.093-1.03-0.12-1.16-0.125c-3.65,0.025-6.056,2.775-6.056,6.104c0,3.671,2.15,5.063,4.3,5.133   c0,0-1.734-3.606,1.804-4.577c2.388-0.656,5.41,1.248,5.133,4.716c-0.195,2.437-2.508,4.786-5.133,4.786   c-5.516,0-9.987-3.986-9.987-9.502c0-5.516,4.472-9.987,9.987-9.987c0,0,0.622,0.011,1.619,0.163   c0.214,0.035,0.427,0.067,0.636,0.114c5.302,1.011,18.406,5.898,21.049,29.684c3.694,33.253-23.304,63.253-43.278,69.911v-3.329   c0,0,7.074-3.537,11.91-6.973C295.86,260.216,311.673,235.869,308.976,211.591z"/>
	<path style="fill:#FFE15A;" d="M272.274,190.597c0.444,2.345-1.573,4.364-3.919,3.918c-1.303-0.248-2.369-1.313-2.616-2.616   c-0.444-2.345,1.574-4.364,3.918-3.918C270.961,188.228,272.027,189.294,272.274,190.597z"/>
</g>
<path style="fill:#FFC75A;" d="M292.778,164.512c0.884-2.289-0.312-5.358-0.312-5.358c-3.069-0.104-5.201,2.133-5.201,2.133  c0.26-2.757-0.936-5.253-0.936-5.253c-3.953,0.469-5.253,2.809-5.253,2.809c-0.208-4.317-2.809-6.086-2.809-6.086  c-3.433,1.041-4.474,4.786-4.474,4.786c-0.52-4.265-4.786-6.242-4.786-6.242s-4.265,1.977-4.786,6.242c0,0-1.04-3.745-4.474-4.786  c0,0-2.601,1.769-2.809,6.086c0,0-1.3-2.341-5.253-2.809c0,0-1.196,2.497-0.936,5.253c0,0-2.133-2.236-5.201-2.133  c0,0-1.196,3.069-0.312,5.358c0,0-3.486-1.093-6.346,0.572c0,0,5.245,2.029,6.991,4.526h46.252c1.747-2.497,6.991-4.526,6.991-4.526  C296.263,163.419,292.778,164.512,292.778,164.512z"/>
<path style="fill:#FFE15A;" d="M292.132,169.61c0,1.498-3.5,6.128-3.5,6.128s-11.348,1.58-19.625,1.58  c-8.332,0-19.705-1.623-19.705-1.623s-3.421-4.606-3.421-6.086c0-4.257,10.353-7.709,23.126-7.709  C281.779,161.901,292.132,165.352,292.132,169.61z"/>
<g>
	<ellipse style="fill:#FFC75A;" cx="269" cy="174.601" rx="19.975" ry="6.658"/>
	<path style="fill:#FFC75A;" d="M273.896,137.671c0-2.184-1.63-4.959-4.889-3.017c-3.259-1.942-4.889,0.833-4.889,3.017   s-2.497,2.497-2.809,2.289c0,0,2.081,2.705,4.474,0.936c0,0,1.283,1.872,3.225,1.872c1.942,0,3.225-1.872,3.225-1.872   c2.393,1.769,4.474-0.936,4.474-0.936C276.392,140.169,273.896,139.855,273.896,137.671z"/>
</g>
<g>
	<path style="fill:#B46446;" d="M262.346,299.027c-0.187,0-0.377-0.042-0.555-0.133c-0.618-0.306-0.868-1.057-0.56-1.675   l6.658-13.316c0.309-0.611,1.058-0.867,1.675-0.555c0.618,0.306,0.868,1.057,0.56,1.675l-6.658,13.316   C263.245,298.773,262.805,299.027,262.346,299.027z"/>
	<path style="fill:#B46446;" d="M275.667,299.027c-0.458,0-0.899-0.254-1.118-0.69l-6.658-13.316   c-0.309-0.618-0.058-1.369,0.56-1.675c0.615-0.315,1.366-0.058,1.675,0.555l6.658,13.316c0.309,0.618,0.058,1.369-0.56,1.675   C276.043,298.985,275.853,299.027,275.667,299.027z"/>
</g>
<g>
	<path style="fill:#F5F5F5;" d="M298.968,287.376c-19.731,4.41-40.192,4.41-59.924,0c0-3.329,0-9.56,0-12.889   c19.731,4.41,40.192,4.41,59.924,0C298.968,277.815,298.968,284.047,298.968,287.376z"/>
	<path style="fill:#F5F5F5;" d="M255.551,282.523c-12.742,2.458-25.798,3.133-38.791,1.919c0.219,1.716,10.493,6.818,10.493,6.818   s-9.066,4.382-8.864,5.968c12.437,1.163,24.938,0.608,37.16-1.597v-13.108H255.551z"/>
	<path style="fill:#F5F5F5;" d="M282.51,282.523c12.742,2.458,25.798,3.133,38.791,1.919c-0.219,1.716-10.493,6.818-10.493,6.818   s9.066,4.382,8.864,5.968c-12.437,1.163-24.938,0.608-37.161-1.597v-13.108H282.51z"/>
</g>
<path style="fill:#2E3033;" d="M19.174,488.73L19.174,488.73C8.585,488.73,0,480.146,0,469.556V42.288  c0-10.502,8.514-19.016,19.016-19.016h0.158c10.589,0,19.174,8.585,19.174,19.174v427.111  C38.347,480.146,29.763,488.73,19.174,488.73z"/>
<g>
</g>
<g>
</g>
<g>
</g>
<g>
</g>
<g>
</g>
<g>
</g>
<g>
</g>
<g>
</g>
<g>
</g>
<g>
</g>
<g>
</g>
<g>
</g>
<g>
</g>
<g>
</g>
<g>
</g>
</svg>
