<?xml version="1.0" encoding="iso-8859-1"?>
<!-- Generator: Adobe Illustrator 19.0.0, SVG Export Plug-In . SVG Version: 6.00 Build 0)  -->
<svg xmlns="http://www.w3.org/2000/svg" xmlns:xlink="http://www.w3.org/1999/xlink" version="1.1" id="Layer_1" x="0px" y="0px" viewBox="0 0 512.002 512.002" style="enable-background:new 0 0 512.002 512.002;" xml:space="preserve">
<path style="fill:#73AF00;" d="M189.8,373.901H35.4c-4.6,0-8.4-3.8-8.4-8.4v-301c0-4.6,3.8-8.4,8.4-8.4h154.2v317.9h0.2V373.901z"/>
<rect x="189.8" y="56.1" style="fill:#FFE15A;" width="161.7" height="317.9"/>
<path style="fill:#FF4B55;" d="M503.7,373.901H351.4v-317.8h152.2c4.6,0,8.4,3.8,8.4,8.4v301  C512.1,370.101,508.3,373.901,503.7,373.901z"/>
<path style="fill:#73AF00;" d="M272.5,167.401l11.1,33.2l35,0.3c2,0,2.8,2.5,1.2,3.7l-28.2,20.8l10.6,33.4c0.6,1.9-1.5,3.4-3.1,2.3  l-28.5-20.4l-28.5,20.3c-1.6,1.1-3.7-0.4-3.1-2.3l10.6-33.4l-28.2-20.8c-1.6-1.2-0.8-3.7,1.2-3.7l35-0.3l11.1-33.2  C269.3,165.601,271.9,165.601,272.5,167.401z"/>
<path style="fill:#2E3033;" d="M18.9,485.201L18.9,485.201c-10.4,0-18.9-8.5-18.9-18.9v-420.8c0-10.3,8.4-18.7,18.7-18.7h0.2  c10.4,0,18.9,8.5,18.9,18.9v420.7C37.8,476.701,29.3,485.201,18.9,485.201z"/>
<g>
</g>
<g>
</g>
<g>
</g>
<g>
</g>
<g>
</g>
<g>
</g>
<g>
</g>
<g>
</g>
<g>
</g>
<g>
</g>
<g>
</g>
<g>
</g>
<g>
</g>
<g>
</g>
<g>
</g>
</svg>
