<?xml version="1.0" encoding="iso-8859-1"?>
<!-- Generator: Adobe Illustrator 19.0.0, SVG Export Plug-In . SVG Version: 6.00 Build 0)  -->
<svg xmlns="http://www.w3.org/2000/svg" xmlns:xlink="http://www.w3.org/1999/xlink" version="1.1" id="Layer_1" x="0px" y="0px" viewBox="0 0 512.001 512.001" style="enable-background:new 0 0 512.001 512.001;" xml:space="preserve">
<path style="fill:#82AFFF;" d="M503.602,365.168H36.488c-4.638,0-8.398-3.76-8.398-8.398V56.52c0-4.638,3.76-8.398,8.398-8.398  h467.115c4.638,0,8.398,3.76,8.398,8.398v300.25C512,361.408,508.241,365.168,503.602,365.168z"/>
<path style="fill:#F5F5F5;" d="M267.651,147.52l-13.998,41.973l-44.244,0.343c-2.426,0.019-3.432,3.115-1.48,4.555l35.592,26.283  l-13.346,42.185c-0.732,2.313,1.901,4.226,3.875,2.815l35.996-25.728l35.995,25.728c1.974,1.411,4.606-0.503,3.875-2.815  l-13.346-42.185l35.592-26.283c1.951-1.441,0.946-4.537-1.48-4.555l-44.244-0.343L272.44,147.52  C271.672,145.219,268.418,145.219,267.651,147.52z"/>
<path style="fill:#2E3033;" d="M19.026,486.943L19.026,486.943C8.519,486.943,0,478.425,0,467.917V43.929  c0-10.422,8.448-18.871,18.87-18.871h0.156c10.508,0,19.026,8.519,19.026,19.026v423.831  C38.053,478.425,29.534,486.943,19.026,486.943z"/>
<g>
</g>
<g>
</g>
<g>
</g>
<g>
</g>
<g>
</g>
<g>
</g>
<g>
</g>
<g>
</g>
<g>
</g>
<g>
</g>
<g>
</g>
<g>
</g>
<g>
</g>
<g>
</g>
<g>
</g>
</svg>
