<?xml version="1.0" encoding="iso-8859-1"?>
<!-- Generator: Adobe Illustrator 19.0.0, SVG Export Plug-In . SVG Version: 6.00 Build 0)  -->
<svg xmlns="http://www.w3.org/2000/svg" xmlns:xlink="http://www.w3.org/1999/xlink" version="1.1" id="Layer_1" x="0px" y="0px" viewBox="0 0 512.1 512.1" style="enable-background:new 0 0 512.1 512.1;" xml:space="preserve">
<path style="fill:#73AF00;" d="M512,162H27V64.5c0-4.6,3.7-8.4,8.4-8.4h468.3c4.6,0,8.4,3.7,8.4,8.4V162H512z"/>
<path style="fill:#FF4B55;" d="M503.6,373.9H35.4c-4.6,0-8.4-3.7-8.4-8.4V268h485v97.6C512,370.1,508.3,373.9,503.6,373.9z"/>
<rect x="27" y="162" style="fill:#F5F5F5;" width="485" height="105.9"/>
<path style="fill:#464655;" d="M271.6,190.8l5.2,15.6l16.5,0.1c2.1,0,3,2.7,1.3,4l-13.3,9.8l5,15.7c0.6,2-1.7,3.7-3.4,2.5l-13.4-9.6  l-13.4,9.6c-1.7,1.2-4.1-0.4-3.4-2.5l5-15.7l-13.3-9.8c-1.7-1.3-0.8-4,1.3-4l16.5-0.1l5.2-15.6C268.1,188.8,270.9,188.8,271.6,190.8  z"/>
<g>
	<path style="fill:#F5F5F5;" d="M156.3,99.3c0.7,4.2,3.2,5.5,5.4,5.4c2.6-0.2,4.9-2.6,4.9-5.1V85.1c0-0.7,0.6-1.3,1.3-1.3   s1.3,0.6,1.3,1.3v14.5c0,1.7,0.9,3.4,2.3,4.3c0.9,0.6,1.9,0.9,2.9,0.9c0.7,0,1.3-0.1,2-0.4l1.3-0.5c0.1,12.1-0.6,22.8-0.6,23   c-0.1,1.4,1,2.7,2.4,2.8c0.1,0,0.1,0,0.2,0c1.4,0,2.5-1.1,2.6-2.4c0.1-0.9,0.9-12.5,0.6-25.4l0.8-0.3c0.7-0.3,1.5-0.2,2.1,0.1   c2.9,1.4,6.4,0.9,8.7-1.4l0.5-0.5c2.1-2.1,2.9-5.2,1.9-8.1l-2.2-6.7c1.2,0.4,2.5-0.2,3.1-1.3c0.6-1.3,0.1-2.9-1.2-3.5l-5.3-2.6   c-1-0.5-2.1-0.3-2.9,0.4c-0.8,0.7-1.1,1.8-0.8,2.8l4.2,12.7c0.3,0.9,0.1,2-0.6,2.7l-0.5,0.5c-0.7,0.7-1.7,0.9-2.6,0.4   c-1.7-0.8-3.6-1-5.5-0.5c-0.4-8.4-1.3-16.8-3.2-22.6c-0.5-1.4-1.9-2.1-3.3-1.7c-1.4,0.5-2.1,1.9-1.7,3.3c1.9,5.7,2.7,14.3,3,22.9   l-3.1,1.3V85.1c0-3.6-2.9-6.6-6.6-6.6s-6.6,2.9-6.6,6.6v12.7l-2.7-13.2c-0.3-1.4-1.7-2.4-3.1-2.1c-1.4,0.3-2.3,1.7-2.1,3.1   L156.3,99.3z"/>
	<path style="fill:#F5F5F5;" d="M161.3,77.2c1.4,0,2.6-1.2,2.6-2.6V72c0-1.5-1.2-2.6-2.6-2.6s-2.6,1.2-2.6,2.6v2.6   C158.7,76.1,159.9,77.2,161.3,77.2z"/>
	<path style="fill:#F5F5F5;" d="M187.6,74.6h2.6c1.4,0,2.6-1.2,2.6-2.6c0-1.5-1.2-2.6-2.6-2.6h-2.6c-1.4,0-2.6,1.2-2.6,2.6   S186.1,74.6,187.6,74.6z"/>
	<path style="fill:#F5F5F5;" d="M170.5,109.1l-13.1,7.9c-1.2,0.7-1.6,2.4-0.9,3.6c0.5,0.8,1.4,1.3,2.3,1.3c0.5,0,0.9-0.1,1.3-0.4   l13.1-7.9c1.2-0.7,1.6-2.4,0.9-3.6C173.3,108.8,171.7,108.4,170.5,109.1z"/>
	<path style="fill:#F5F5F5;" d="M205.9,113.8L205.9,113.8c0.3,0.8,0.7,1.7,1.3,2.4c1.1,1.3,2.7,1.9,4.5,1.7c2.6-0.2,4.3-1.4,5.5-2.9   c0.2,0.1,0.4,0.2,0.6,0.3c1.4,0.7,3.1,0.7,4.6-0.1c4-2,4.8-6.8,4.7-9.2c-0.1-1.4-1.3-2.5-2.7-2.5c-1.4,0.1-2.6,1.3-2.5,2.7   c0,0,0.1,3.1-1.8,4.3c-0.3-0.4-0.7-1.4-0.8-2.2c-0.2-1.4-1.5-2.3-2.8-2.2c-1.4,0.1-2.4,1.3-2.4,2.6c0,0.4-0.1,3.8-2.7,4   c-0.3-0.4-0.3-2.2,0-3.4c0.3-1.1-0.2-2.2-1.1-2.8c-0.9-0.6-2.1-0.6-3,0l-1.5,1c-0.7-15.2-2.3-33-2.3-33.2c-0.1-1.4-1.4-2.5-2.9-2.4   c-1.4,0.1-2.5,1.4-2.4,2.9c0,0.2,1.9,20.8,2.4,36.4c-0.1,0.1-0.3,0.3-0.4,0.4c-1-2.6-3.1-4.3-5.7-4.5c-3.7-0.3-7.8,2.2-9.2,5.9   c-1.3,3.1-0.5,6.2,2,7.8c1.8,1.2,4.5,1.5,7.8,0.4c-0.8,2.9-2.3,5.8-4.3,8.1c-1.7,2-4.7,4.4-8.4,4.3c-2.2-0.1-3.8-0.8-5.1-2.2   c-3-3.3-2.8-9.3-2.8-9.4c0.1-1.4-1-2.7-2.5-2.8c-1.5-0.2-2.7,1-2.8,2.5c0,0.3-0.4,8.2,4.1,13.2c2.2,2.4,5.2,3.8,8.8,3.9   c0.2,0,0.4,0,0.5,0c4.4,0,8.7-2.2,12-6.1c3.2-3.7,5.4-8.8,6-13.5c0,9-5.4,19.1-12.6,23.6c-3,1.9-7.8,3.6-13.1,1   c-6.6-3.3-5.8-10.8-5.8-11.1c0.2-1.4-0.8-2.8-2.3-2.9c-1.4-0.2-2.8,0.8-2.9,2.3c-0.1,0.5-1.3,11.5,8.7,16.5   c2.6,1.3,5.2,1.9,7.9,1.9c3.5,0,7-1,10.3-3.1c8.7-5.4,15.1-17.2,15.1-28.1C206,117.6,205.9,115.7,205.9,113.8z M190.1,116.5   c-0.5-0.3-0.1-1.3,0-1.5c0.6-1.4,2.3-2.6,3.7-2.6c0.1,0,0.1,0,0.2,0c0.3,0,1.2,0.1,1.6,2.1c0,0.2,0.1,0.4,0.1,0.6   C192.7,116.9,190.7,116.9,190.1,116.5z"/>
	<path style="fill:#F5F5F5;" d="M162.7,140.6c-1.2-0.7-2.9-0.3-3.6,0.9c-0.1,0.2-0.3,0.4-0.4,0.6c0-0.1-0.1-0.1-0.1-0.2   c-1.1-2.9-0.3-7.4,0.1-8.9c0.4-1.4-0.5-2.8-1.9-3.2s-2.8,0.5-3.2,1.9c-0.2,0.7-1.8,7.1,0.1,12.1c1.2,3.2,3.1,4,4.4,4.1   c0.1,0,0.2,0,0.4,0c2.8,0,4.7-2.8,5.2-3.8C164.3,142.9,163.9,141.3,162.7,140.6z"/>
	<path style="fill:#F5F5F5;" d="M211.1,93c0.6,0,1.1-0.2,1.6-0.6L226,82c0.2-0.1,0.3-0.3,0.4-0.5c1.9-1.1,3.2-3.2,3.2-5.6   c0-3.6-2.9-6.6-6.6-6.6s-6.6,2.9-6.6,6.6c0,2,0.9,3.8,2.4,5l-9.4,7.4c-1.1,0.9-1.3,2.5-0.4,3.7C209.6,92.6,210.3,93,211.1,93z    M223,74.6c0.7,0,1.3,0.6,1.3,1.3c0,0.7-0.6,1.3-1.3,1.3s-1.3-0.6-1.3-1.3S222.3,74.6,223,74.6z"/>
	<path style="fill:#F5F5F5;" d="M219.9,90.5c-1.4-0.5-2.9,0.3-3.3,1.7c-0.3,0.8-1.6,5.2,1,7.7c1,1,2.3,1.5,3.9,1.5   c1.1,0,2.3-0.2,3.6-0.7c1.4-0.5,2.1-1.9,1.7-3.3c-0.5-1.4-1.9-2.1-3.3-1.7c-1.5,0.5-2.1,0.4-2.1,0.5c-0.2-0.4-0.1-1.6,0.2-2.4   C222,92.4,221.3,91,219.9,90.5z"/>
	<path style="fill:#F5F5F5;" d="M250,79.6c0.2,0.1,0.5,0.1,0.7,0.1c1.1,0,2.2-0.7,2.5-1.9l1.5-5.3c0.4-1.4-0.4-2.9-1.8-3.3   c-1.4-0.4-2.8,0.4-3.3,1.8l-1.5,5.3C247.8,77.8,248.6,79.2,250,79.6z"/>
	<path style="fill:#F5F5F5;" d="M234.7,79.3c0.4,0.2,0.9,0.4,1.3,0.4c0.9,0,1.8-0.5,2.3-1.3c0.7-1.3,0.3-2.9-0.9-3.6   c-0.5-0.3-0.5-1.2-0.4-1.3c0.1-0.7,0.5-1.5,1.2-1.8c1.4-0.4,2.2-1.9,1.7-3.3c-0.4-1.4-1.9-2.2-3.3-1.7c-2.6,0.8-4.5,3.2-4.9,6.2   C231.4,75.6,232.5,78.1,234.7,79.3z"/>
	<path style="fill:#F5F5F5;" d="M213.8,121.9c-1.4,0-2.6,1.2-2.6,2.6c0,1.3,0.9,2.3,2.1,2.6c0.1,0.2,0.5,0.9,0.5,2.7   c0,1.5,1.2,2.6,2.6,2.6c1.4,0,2.6-1.2,2.6-2.6C219.1,122,214.1,121.9,213.8,121.9z"/>
	<path style="fill:#F5F5F5;" d="M258.4,111c0.3,0.1,0.7,0.1,1,0.1c2.1,0,4.1-1,6.2-3.1c1-1,1-2.7,0-3.7s-2.7-1-3.7,0   c-1.6,1.6-2.4,1.6-2.6,1.6c-0.5-0.1-1-0.7-1.1-0.9c-0.7-1.3-2.2-1.8-3.5-1.1c-1.3,0.6-1.8,2.2-1.2,3.5   C253.7,107.6,255.2,110.5,258.4,111z"/>
	<path style="fill:#F5F5F5;" d="M303,92.5v-0.1c-0.5-1.4-2-2.1-3.3-1.6c-1.4,0.5-2.1,1.9-1.7,3.3c0.2,0.6,1.4,3.7,4.3,4.1   c0.2,0,0.4,0,0.6,0c1.8,0,3.5-1.2,5.1-3.5c0.8-1.2,0.5-2.8-0.7-3.6c-1.2-0.8-2.8-0.5-3.6,0.7C303.3,92.1,303.2,92.4,303,92.5z"/>
	<path style="fill:#F5F5F5;" d="M297.9,140.2c0-11.2-0.5-21.7-1.2-30.9c3.7,6.5,7.1,13,9.2,18.7c0.4,1.1,1.4,1.7,2.5,1.7   c0.3,0,0.6-0.1,0.9-0.2c1.4-0.5,2-2,1.5-3.4c-3.3-8.9-9.3-19.4-15.2-28.8c-1.4-14.1-3-23.1-3.1-23.3c-0.3-1.4-1.6-2.4-3.1-2.1   c-1.4,0.3-2.4,1.6-2.1,3.1c0,0.1,0.8,4.7,1.8,12.5c-2-3-3.9-5.7-5.5-7.9h0.1c1.4,0.5,2.9-0.3,3.3-1.7c0.5-1.4-0.3-2.9-1.7-3.3   l-7.9-2.6c-1.1-0.4-2.3,0-3,1c-0.2,0.2-0.3,0.5-0.4,0.8c-1.6-1.2-3.6-2.1-5.5-1.3c-1.1,0.5-2.5,1.7-2.5,4.7c0,2.3,0.9,4.8,1.8,7.4   c1.5,4.4,2.5,7.6,0.9,9.1c-0.9,0.8-1.8,1.2-2.7,0.9c-1.6-0.4-3.2-2.6-4.3-5.8c0-0.1-0.1-0.2-0.2-0.4c0.6-4.1,0.3-9-0.8-14.5   c-0.3-1.4-1.7-2.3-3.1-2.1c-1.4,0.3-2.3,1.7-2.1,3.1c1.7,8.6,1.2,15.6-1.4,18.7c-1,1.2-2.2,1.8-3.9,1.8c-0.5,0-0.9-0.2-1.3-0.6   c-2.1-2.4-2.1-10.1-1.4-14.8c0.1-0.8-0.1-1.5-0.6-2.1s-1.2-0.9-2-0.9c-4.5,0-6.2,5.1-7.7,9.7c-0.7,2-1.9,5.7-2.8,6.1   c-1.6,0-2.6-4.7-2.6-7.9c0-1.4-1.2-2.6-2.6-2.6l0,0c-1.4,0-2.6,1.2-2.6,2.6c0,6.1,2.1,13.1,7.9,13.1c4.3,0,6.1-4.7,7.5-9.1   c0.3,3.5,1,7.1,3,9.3c1.4,1.6,3.2,2.4,5.2,2.4c3.2,0,6-1.3,8-3.7c0.4-0.4,0.7-0.9,1-1.4c1.5,2.2,3.4,3.6,5.5,4.1   c0.6,0.2,1.2,0.2,1.9,0.2c2,0,4-0.8,5.7-2.4c0.4-0.3,0.6-0.7,0.9-1.1c0.6,0.2,1.3,0.3,1.9,0.3c2.1,0,4.2-0.9,5.4-1.7   c1.2-0.8,1.6-2.4,0.8-3.6c-0.8-1.2-2.4-1.6-3.6-0.8c0,0-1.8,1-3,0.8c0-2.9-1-5.9-2-8.6c-0.5-1.5-1.1-3.1-1.4-4.4   c0.2,0.2,0.4,0.4,0.6,0.6c1,1,2.7,1,3.7,0c0.2-0.2,0.3-0.4,0.4-0.6c2.7,3.7,8.3,11.6,14.1,20.7c1.1,11.2,2.1,25.4,2.1,41   c0,1.5,1.2,2.6,2.6,2.6C296.7,142.9,297.9,141.7,297.9,140.2z"/>
	<path style="fill:#F5F5F5;" d="M300.5,82.5c0,1.5,1.2,2.6,2.6,2.6s2.6-1.2,2.6-2.6c0-3.1-2.4-8.1-2.9-9c-0.6-1.3-2.2-1.8-3.5-1.2   c-1.3,0.6-1.8,2.2-1.2,3.5C299.1,77.7,300.5,81.1,300.5,82.5z"/>
	<path style="fill:#F5F5F5;" d="M288.5,140.5c-1.3-0.7-2.9-0.1-3.5,1.2c-0.3,0.6-0.7,1.2-1.1,1.6c-0.1-1,0.2-3.1,0.7-4.9   c0.4-1.2-0.1-2.4-1.2-3c-1-0.6-2.4-0.5-3.2,0.4L275,141c-1,1-1,2.7,0,3.7s2.7,1,3.7,0l0.1-0.1c0.2,1.1,0.7,2,1.4,2.8   c1,1,2.2,1.5,3.4,1.5c0.2,0,0.5,0,0.7-0.1c3-0.5,4.8-3.8,5.3-4.8C290.4,142.7,289.8,141.2,288.5,140.5z"/>
	<path style="fill:#F5F5F5;" d="M287.5,119.4H269c0.2-0.7,0.3-1.3,0.5-1.9c7.4-1.5,11.8-3.9,13.1-7.1c0.4-1.1,0.9-3.3-1-5.9   c-1.7-2.3-4.1-3.3-6.6-2.8c-3.7,0.8-7.1,4.8-9.4,11.2c-7.4,1.3-12.2,3.9-15.2,6.6c-1.1-10.8-5.2-17.1-5.4-17.5   c-0.8-1.2-2.4-1.5-3.6-0.7c-1.2,0.8-1.5,2.4-0.7,3.6c0,0.1,4.8,7.4,4.8,19.5c0,12-9.6,21-15.8,21c-2.9,0-4.2-3.5-4.8-6.5   c6.1-4.3,11.4-9.2,12.6-13.9c1.6-6.4-0.4-11.1-1.7-14.2c-0.1-0.1-0.1-0.3-0.2-0.5c0.1,0.1,0.1,0.1,0.2,0.2c1,1,2.7,1,3.7,0   s1-2.7,0-3.7c-1.5-1.5-4.5-3.9-7.2-2.8c-1.1,0.5-2.5,1.7-2.5,4.7c0,1.4,0.6,2.7,1.2,4.2c1.2,2.8,2.7,6.2,1.5,10.9   c-0.7,2.8-4.1,6.1-8.6,9.5c-0.5-0.6-1.2-1-2-1l0,0c-1.4,0-2.6,1.2-2.6,2.6c0,0.5,0,1,0.1,1.5c-5.6,3.6-12,7-16.9,9.2   c-1.3,0.6-1.9,2.2-1.3,3.5c0.4,1,1.4,1.5,2.4,1.5c0.4,0,0.7-0.1,1.1-0.2c1.5-0.7,8.5-3.9,15.7-8.4c1.3,4.5,4.1,8.6,9.5,8.6   c6.3,0,13.4-5.1,17.6-12.8c0.5,0.9,1.1,1.7,1.8,2.5c6.6,7.6,19.5,7.7,20.1,7.7c1.4,0,2.6-1.1,2.6-2.5c0.1-1.4-1-2.6-2.4-2.7   c0,0-2.1-0.2-3.3-1.6c-0.7-0.8-1-1.9-0.9-3.4c0.3-3.2,10.7-5.7,19.9-5.8c1.1,0,2.1-0.7,2.4-1.7l2.6-7.4c0.3-0.8,0.2-1.7-0.3-2.4   C289.2,119.8,288.4,119.4,287.5,119.4z M276,106.9c0.1,0,0.1,0,0.2,0c0.3,0,0.6,0.1,1.2,0.8c0.1,0.1,0.4,0.6,0.3,0.8   c-0.3,0.7-2.1,2-5.9,3.1C273.5,108.3,275.1,107,276,106.9z M260.1,141.4c-2.7-0.9-5.4-2.2-7.3-4.4c-2.1-2.4-2.8-5.4-2.3-9.2   c0.1-0.2,0.2-0.6,0.5-1.1c3.7-0.3,13.6,1.1,14.3,3.9c-3,1.6-5.3,3.7-5.5,6.8C259.7,139,259.8,140.3,260.1,141.4z"/>
	<path style="fill:#F5F5F5;" d="M316.1,81.7l-2.6-7.9c-0.4-1.3-1.7-2-3-1.7s-2.2,1.5-2.1,2.8c1.8,18.1,5.2,53.4,5.2,57.5   c0,3.6-6.5,10.8-16.9,16c-1.3,0.6-1.8,2.2-1.2,3.5c0.5,0.9,1.4,1.5,2.4,1.5c0.4,0,0.8-0.1,1.2-0.3c9.5-4.8,19.8-13.3,19.8-20.7   c0-3.9-2.7-31.8-4.2-47.5C315.9,84.4,316.5,83,316.1,81.7z"/>
	<path style="fill:#F5F5F5;" d="M338,105.3c0.5,0.5,1.2,0.8,1.9,0.8c0.4,0,0.9-0.1,1.3-0.3c1-0.6,1.5-1.8,1.2-2.9   c-0.5-1.8-0.6-4.2-0.4-5.1c1.3,0,2.5-0.9,2.7-2.3s-0.8-2.8-2.2-3c-1.7-0.2-3.3,0.3-4.3,1.5c-0.7,0.8-1.1,1.8-1.3,2.8l-3-3   c-1-1-2.7-1-3.7,0s-1,2.7,0,3.7L338,105.3z"/>
	<path style="fill:#F5F5F5;" d="M343.9,108.1l-9.8,7.1c-1.2,0.8-1.4,2.5-0.6,3.7c0.5,0.7,1.3,1.1,2.1,1.1c0.5,0,1.1-0.2,1.5-0.5   l9.8-7.1c1.2-0.8,1.4-2.5,0.6-3.7S345.1,107.2,343.9,108.1z"/>
	<path style="fill:#F5F5F5;" d="M343,118c-0.8,1.1-0.7,2.6,0.2,3.5c0.1,0.2,0.6,1.2,0.5,3.8c-0.1,1.5,1.1,2.7,2.5,2.7h0.1   c1.4,0,2.6-1.1,2.6-2.5c0.2-5.4-1.6-7.3-2.3-7.9C345.6,116.6,343.9,116.8,343,118z"/>
	<path style="fill:#F5F5F5;" d="M366,137.3c1.4,0,2.6-1.2,2.6-2.6c0-3.9-0.2-8.2-0.5-12.7c2.6,4.3,4.8,8.2,6.2,11.4   c0.4,1,1.4,1.6,2.4,1.6c0.3,0,0.7-0.1,1-0.2c1.3-0.6,1.9-2.1,1.4-3.4c-2.4-5.6-6.9-13-12-20.7c-1-9.6-2.4-19.1-3.4-25.9   c0.6,0.1,1.1-0.1,1.6-0.4c0.8-0.5,1.2-1.5,1.2-2.4c0.1,0.3,0.1,0.5,0.3,0.8c0,0,1.7,2.8,1,6.4c-0.3,1.4,0.6,2.8,2,3.1   c0.2,0,0.4,0.1,0.5,0.1c1.2,0,2.3-0.9,2.6-2.1c1.2-5.7-1.6-10.1-1.7-10.3c-0.8-1.2-2.4-1.6-3.6-0.8c-0.8,0.5-1.2,1.5-1.2,2.4   c-0.1-0.3-0.1-0.5-0.3-0.8l-4.4-6.9c-0.7-1.1-2-1.5-3.2-1s-1.8,1.7-1.6,2.9c0,0.2,2,11.7,3.8,25.6c-2-2.8-4-5.6-6-8.3   c-0.3-4-0.6-7.6-0.9-10.7c0.1,0,0.3-0.1,0.4-0.2c1.3-0.6,1.8-2.2,1.2-3.5l-2.6-5.3c-0.6-1.1-1.9-1.7-3.1-1.3   c-1.2,0.4-2,1.5-1.9,2.8c0.3,3.1,0.6,6.6,1,10.2c-1.7-2.2-3.2-4.2-4.5-5.9c0.3-0.2,0.5-0.5,0.6-0.8c0.6-1.3,0.1-2.9-1.2-3.5   l-5.3-2.6c-1.1-0.5-2.4-0.3-3.2,0.7c-0.8,1-0.8,2.3,0,3.3c0.1,0.2,6.6,8.3,14.3,18.7c1.3,17.3,2.2,35.4,1,39.2   c-0.2,0.7-0.6,1.5-1,1.5c-1.6,0.2-5.4-3.3-7.3-7.1c-1.1-2.2-2.7-2.4-3.5-2.4c-2.8,0.2-3.9,3.3-5.9,8.9c-1.4,4-3.2,9.1-5.2,11.1   c-1.1-1.3-2.5-5.8-3.3-10.3c0.4,1,1.3,1.7,2.4,1.7c1.4,0,2.6-1.2,2.6-2.6c0-3.9-2.7-33.7-4.3-50.1c1.3-0.5,1.9-1.9,1.5-3.3   l-2.6-7.9c-0.4-1.3-1.7-2-3-1.7s-2.2,1.5-2.1,2.8c1.8,18.7,5.1,54.9,5.2,59.9v-0.1c-0.2-1.4-1.5-2.4-3-2.2c-1.4,0.2-2.4,1.5-2.2,3   c0.8,5.4,2.7,14.6,7.2,16.1c0.4,0.1,0.8,0.2,1.4,0.2c1,0,2.3-0.4,3.7-1.7c2.9-2.9,4.8-8.3,6.5-13.1c0.4-1.1,0.8-2.4,1.3-3.5   c2.4,3.5,6.6,7.9,10.9,7.6c1.5-0.1,4.2-0.9,5.6-5.1c1.4-4.2,0.8-18.8-0.1-32.8c2.2,3.1,4.4,6.3,6.5,9.4c0.8,7.9,1.4,15.7,1.4,22.2   C363.3,136.1,364.5,137.3,366,137.3z"/>
	<path style="fill:#F5F5F5;" d="M385.9,123.5c-1.9-13.9-4.5-29.9-6.1-39.8c0.7,0.2,1.5,0,2.2-0.5c1.2-0.9,1.4-2.5,0.5-3.7l-4.8-6.2   c-0.7-1-2-1.3-3.1-0.8s-1.7,1.7-1.5,2.9c0,0.3,4.7,27.2,7.6,48.8c1.1,8.2-0.5,15.6-4.3,19.7c-2.5,2.6-5.7,3.8-9.6,3.6   c-1.4-0.1-2.7,1-2.8,2.5c-0.1,1.4,1,2.7,2.5,2.8c0.4,0,0.9,0,1.3,0c5,0,9.2-1.8,12.5-5.3C385.1,142.2,387.2,133.4,385.9,123.5z"/>
	<path style="fill:#F5F5F5;" d="M357,140.8c-1,1-0.9,2.7,0.1,3.7c0.1,0.1,0.3,0.4,0.3,0.5s-0.1,0.3-0.4,0.6c-1,1-1,2.7,0,3.7   c0.5,0.5,1.2,0.8,1.9,0.8c0.7,0,1.3-0.3,1.9-0.8c1.7-1.7,2-3.4,1.9-4.5c-0.1-2.4-1.7-4-2.1-4.3C359.6,139.6,358,139.7,357,140.8z"/>
</g>
<path style="fill:#2E3033;" d="M19.2,489.1L19.2,489.1C8.6,489.1,0,480.5,0,469.9V42c0-10.5,8.5-19,19-19h0.2  c10.6,0,19.2,8.6,19.2,19.2V470C38.4,480.5,29.8,489.1,19.2,489.1z"/>
<g>
</g>
<g>
</g>
<g>
</g>
<g>
</g>
<g>
</g>
<g>
</g>
<g>
</g>
<g>
</g>
<g>
</g>
<g>
</g>
<g>
</g>
<g>
</g>
<g>
</g>
<g>
</g>
<g>
</g>
</svg>
