<?xml version="1.0" encoding="iso-8859-1"?>
<!-- Generator: Adobe Illustrator 19.0.0, SVG Export Plug-In . SVG Version: 6.00 Build 0)  -->
<svg xmlns="http://www.w3.org/2000/svg" xmlns:xlink="http://www.w3.org/1999/xlink" version="1.1" id="Layer_1" x="0px" y="0px" viewBox="0 0 512.001 512.001" style="enable-background:new 0 0 512.001 512.001;" xml:space="preserve">
<path style="fill:#73AF00;" d="M503.471,366.87H29.07c-4.71,0-8.529-3.819-8.529-8.529V53.409c0-4.71,3.819-8.529,8.529-8.529  h474.401c4.71,0,8.529,3.819,8.529,8.529v304.932C512,363.051,508.181,366.87,503.471,366.87z"/>
<g>
	<rect x="20.541" y="104.19" style="fill:#F5F5F5;" width="491.46" height="33.894"/>
	<rect x="20.541" y="273.66" style="fill:#F5F5F5;" width="491.46" height="33.894"/>
</g>
<rect x="20.541" y="138.08" style="fill:#C8414B;" width="491.46" height="135.58"/>
<path style="fill:#FFE15A;" d="M264.16,153.67l-12.338,36.995l-38.997,0.303c-2.138,0.017-3.025,2.745-1.305,4.015l31.371,23.167  l-11.763,37.182c-0.645,2.038,1.676,3.725,3.416,2.481l31.727-22.677l31.727,22.677c1.74,1.243,4.061-0.442,3.416-2.482  l-11.763-37.182l31.371-23.167c1.72-1.27,0.834-3.999-1.305-4.015l-38.997-0.303l-12.338-36.995  C267.705,151.643,264.836,151.643,264.16,153.67z"/>
<path style="fill:#2E3033;" d="M19.323,490.545L19.323,490.545C8.651,490.545,0,481.893,0,471.221v-430.6  c0-10.584,8.58-19.165,19.164-19.165h0.159c10.672,0,19.323,8.651,19.323,19.323v430.443  C38.647,481.893,29.995,490.545,19.323,490.545z"/>
<g>
</g>
<g>
</g>
<g>
</g>
<g>
</g>
<g>
</g>
<g>
</g>
<g>
</g>
<g>
</g>
<g>
</g>
<g>
</g>
<g>
</g>
<g>
</g>
<g>
</g>
<g>
</g>
<g>
</g>
</svg>
