<?xml version="1.0" encoding="iso-8859-1"?>
<!-- Generator: Adobe Illustrator 19.0.0, SVG Export Plug-In . SVG Version: 6.00 Build 0)  -->
<svg xmlns="http://www.w3.org/2000/svg" xmlns:xlink="http://www.w3.org/1999/xlink" version="1.1" id="Layer_1" x="0px" y="0px" viewBox="0 0 512.1 512.1" style="enable-background:new 0 0 512.1 512.1;" xml:space="preserve">
<path style="fill:#464655;" d="M512,162H27V64.5c0-4.6,3.7-8.4,8.4-8.4h468.3c4.6,0,8.4,3.7,8.4,8.4L512,162L512,162z"/>
<path style="fill:#73AF00;" d="M503.6,373.9H35.4c-4.6,0-8.4-3.7-8.4-8.4V268h485v97.6C512,370.1,508.3,373.9,503.6,373.9z"/>
<rect x="27" y="162" style="fill:#FF4B55;" width="485" height="105.9"/>
<g>
	<path style="fill:#F5F5F5;" d="M117.4,193.4l5,10.8l11.5-2.8c0.7-0.2,1.3,0.6,1,1.2l-5.3,10.6l9.4,7.2c0.6,0.5,0.4,1.4-0.4,1.5   l-11.6,2.4l0.2,11.9c0,0.7-0.8,1.2-1.4,0.7l-9.2-7.6l-9.2,7.6c-0.6,0.5-1.4,0.1-1.4-0.7l0.2-11.9l-11.6-2.4   c-0.7-0.2-0.9-1.1-0.4-1.5l9.4-7.2l-5.3-10.6c-0.3-0.7,0.3-1.4,1-1.2l11.5,2.8l5-10.8C116.1,192.7,117.1,192.7,117.4,193.4z"/>
	<rect x="27" y="156.5" style="fill:#F5F5F5;" width="485" height="14.2"/>
	<rect x="27" y="259.3" style="fill:#F5F5F5;" width="485" height="14.2"/>
</g>
<path style="fill:#41479B;" d="M29.7,371.6l218.2-153.2c2.4-1.7,2.4-5.2,0-6.8L29.7,58.4C28,59.9,27,62.1,27,64.5v301  C27,367.9,28.1,370.1,29.7,371.6z"/>
<path style="fill:#FFE15A;" d="M96.7,176l18.8,19.2l24.3-11.5c3.1-1.5,6.4,1.9,4.8,5L132,212.5l18.5,19.5c2.4,2.5,0.2,6.6-3.2,6.1  l-26.5-4.5L108,257.2c-1.7,3.1-6.3,2.2-6.8-1.2l-3.9-26.6l-26.4-4.9c-3.4-0.6-4.1-5.3-0.9-6.8l24-12L90.5,179  C90,175.6,94.2,173.5,96.7,176z"/>
<path style="fill:#2E3033;" d="M19.2,489.1L19.2,489.1C8.6,489.1,0,480.5,0,469.9V42c0-10.5,8.5-19,19-19h0.2  c10.6,0,19.2,8.6,19.2,19.2V470C38.4,480.5,29.8,489.1,19.2,489.1z"/>
<g>
</g>
<g>
</g>
<g>
</g>
<g>
</g>
<g>
</g>
<g>
</g>
<g>
</g>
<g>
</g>
<g>
</g>
<g>
</g>
<g>
</g>
<g>
</g>
<g>
</g>
<g>
</g>
<g>
</g>
</svg>
