<?xml version="1.0" encoding="iso-8859-1"?>
<!-- Generator: Adobe Illustrator 19.0.0, SVG Export Plug-In . SVG Version: 6.00 Build 0)  -->
<svg xmlns="http://www.w3.org/2000/svg" xmlns:xlink="http://www.w3.org/1999/xlink" version="1.1" id="Layer_1" x="0px" y="0px" viewBox="0 0 512 512" style="enable-background:new 0 0 512 512;" xml:space="preserve">
<path style="fill:#F5F5F5;" d="M503.537,366.012H32.807c-4.674,0-8.463-3.789-8.463-8.463V54.977c0-4.674,3.789-8.463,8.463-8.463  h470.73c4.674,0,8.463,3.789,8.463,8.463v302.572C512,362.223,508.211,366.012,503.537,366.012z"/>
<g>
	<path style="fill:#FFECD7;" d="M223.278,269.263c-19.411-4.43-36.716-14.452-50.104-28.301v29.619   c14.609,10.656,31.655,18.123,50.104,21.537V269.263z"/>
	<path style="fill:#FFECD7;" d="M313.019,269.263c19.411-4.43,36.716-14.452,50.106-28.301v29.619   c-14.609,10.656-31.655,18.123-50.106,21.537V269.263z"/>
</g>
<g>
	<path style="fill:#FFE15A;" d="M214.679,205.067c-0.935,0.187-2.244,2.617-2.617,6.73c-0.374,4.113-2.992,21.5-8.6,19.631   s-9.348-10.096-9.348-10.096l-7.852,11.405c0,0,5.235-2.056,10.657,0.374c5.422,2.431,6.73,3.74,8.226,2.244   s5.048-5.983,7.853-5.609l3.179-22.622L214.679,205.067z"/>
	<path style="fill:#FFE15A;" d="M183.643,242.271c0,0-1.309,10.844-0.561,12.153s21.313,6.169,21.313,6.169   s-5.982,4.861-6.169,7.478c0,0-7.292,1.309-9.909,3.552l-9.722-16.078l-0.374-13.274L183.643,242.271L183.643,242.271z"/>
</g>
<path style="fill:#FFECD7;" d="M177.147,143.651l0.141-5.609c0,0-6.59-0.701-7.431,14.162l-2.383-6.59c0,0-4.907,6.59-1.963,17.247  l-1.262,0.982c0,0-6.45-8.554-10.377-19.631c0,0-6.59,5.188,1.121,19.911l-9.534-12.059c0,0-4.768,10.096,9.534,22.155  l-13.461-9.535c0,0-0.841,10.937,12.199,17.948l-13.04-7.01c0,0,0.421,10.516,15.564,15.704l-14.302-2.664  c0,0,3.621,8.597,14.198,10.918c-2.22,2.48-4.273,5.811-4.803,10.115l10.657-5.889c0,0-5.048,5.188-3.645,12.339l16.405-16.405  l-2.242-1.002c12.412-2.328,9.814-3.204,9.814-3.204s-9.161-23.556-2.992-39.822s11.592-18.509,11.592-19.257  C190.935,135.705,184.298,134.817,177.147,143.651z"/>
<path style="fill:#FFE15A;" d="M189.813,153.092c0,0,21.314,22.435,21.687,24.492c0.373,2.056-2.244,1.683-2.244,1.683  s-5.235-6.73-12.339-9.348c-7.105-2.617-11.778-10.843-14.583-12.713C179.53,155.336,189.813,153.092,189.813,153.092z"/>
<path style="fill:#FFF5E1;" d="M182.708,158.514c2.804,0.935,9.161-0.373,8.974-6.169s-5.982-8.039-10.282-6.73  s-12.339,7.292-7.292,18.883c5.048,11.591,12.526,15.891,14.022,25.8c0,0-6.73,1.028-10.282,0.187  c-3.053-0.723-8.226-3.178-7.105-9.909c1.121-6.73,3.74-10.657,1.496-14.396c-2.244-3.74-9.348-10.282-9.348-10.282  s-15.331,39.261,12.339,49.544c0,0-13.087,12.526-19.631,24.679l3.926,1.121c0,0-6.917,7.478-10.844,10.282  c0,0,12.901,4.487,25.613-10.096c0,0,3.178,5.235,3.926,10.843h5.422c0,0,1.869-8.974,10.47-16.452  c8.6-7.478,17.328-18.142,16.452-27.857c-1.028-11.405-9.617-16.535-18.556-23.604C179.952,164.824,182.708,158.514,182.708,158.514  z"/>
<g>
	<path style="fill:#FFE15A;" d="M321.666,205.067c0.935,0.187,2.244,2.617,2.617,6.73s2.992,21.5,8.6,19.631   c5.609-1.869,9.348-10.096,9.348-10.096l7.852,11.405c0,0-5.235-2.056-10.657,0.374c-5.422,2.431-6.73,3.74-8.226,2.244   s-5.048-5.983-7.853-5.609l-3.178-22.622L321.666,205.067z"/>
	<path style="fill:#FFE15A;" d="M352.701,242.271c0,0,1.309,10.844,0.561,12.153s-21.313,6.169-21.313,6.169   s5.982,4.861,6.169,7.478c0,0,7.291,1.309,9.909,3.552l9.722-16.078l0.374-13.274L352.701,242.271L352.701,242.271z"/>
</g>
<path style="fill:#FFECD7;" d="M359.197,143.651l-0.141-5.609c0,0,6.59-0.701,7.431,14.162l2.383-6.59c0,0,4.907,6.59,1.963,17.247  l1.262,0.982c0,0,6.45-8.554,10.377-19.631c0,0,6.59,5.188-1.121,19.911l9.534-12.059c0,0,4.768,10.096-9.534,22.155l13.461-9.535  c0,0,0.841,10.937-12.199,17.948l13.04-7.01c0,0-0.421,10.516-15.564,15.704l14.302-2.664c0,0-3.622,8.597-14.198,10.918  c2.22,2.48,4.273,5.811,4.803,10.115l-10.657-5.889c0,0,5.048,5.188,3.645,12.339l-16.405-16.405l2.242-1.002  c-12.412-2.328-9.814-3.204-9.814-3.204s9.161-23.556,2.992-39.822s-11.592-18.509-11.592-19.257  C345.409,135.705,352.046,134.817,359.197,143.651z"/>
<path style="fill:#FFE15A;" d="M346.531,153.092c0,0-21.313,22.435-21.687,24.492c-0.373,2.056,2.244,1.683,2.244,1.683  s5.234-6.73,12.339-9.348c7.105-2.617,11.778-10.843,14.583-12.713C356.814,155.336,346.531,153.092,346.531,153.092z"/>
<path style="fill:#FFF5E1;" d="M353.635,158.514c-2.804,0.935-9.161-0.373-8.974-6.169s5.983-8.039,10.282-6.73  c4.3,1.309,12.339,7.292,7.292,18.883c-5.048,11.591-12.526,15.891-14.022,25.8c0,0,6.73,1.028,10.282,0.187  c3.053-0.723,8.226-3.178,7.105-9.909c-1.121-6.73-3.74-10.657-1.496-14.396c2.244-3.74,9.348-10.282,9.348-10.282  s15.331,39.261-12.339,49.544c0,0,13.087,12.526,19.631,24.679l-3.926,1.121c0,0,6.917,7.478,10.843,10.282  c0,0-12.9,4.487-25.613-10.096c0,0-3.179,5.235-3.926,10.843H352.7c0,0-1.869-8.974-10.47-16.452s-17.328-18.142-16.452-27.857  c1.028-11.405,9.617-16.535,18.556-23.604C356.393,164.824,353.635,158.514,353.635,158.514z"/>
<rect x="214.3" y="120.56" style="fill:#464655;" width="107.69" height="21.687"/>
<path style="fill:#41479B;" d="M268.148,137.762h-53.844c0,0,0,58.331,0,71.792s8.974,49.357,53.844,62.818  c44.87-13.461,53.844-49.357,53.844-62.818s0-71.792,0-71.792H268.148L268.148,137.762z"/>
<path style="fill:#FF4B55;" d="M214.304,209.554c0,3.335,0.556,8.053,2.068,13.461h103.551c1.512-5.408,2.068-10.126,2.068-13.461  v-26.923H214.304V209.554z"/>
<g>
	<polygon style="fill:#F5F5F5;" points="268.148,202.824 261.867,218.527 268.148,215.387 274.43,218.527  "/>
	<polygon style="fill:#F5F5F5;" points="268.148,202.824 274.43,187.119 268.148,190.259 261.867,187.119  "/>
	<polygon style="fill:#F5F5F5;" points="268.148,202.824 252.445,196.542 255.585,202.824 252.445,209.105  "/>
	<polygon style="fill:#F5F5F5;" points="268.148,202.824 283.853,209.105 280.713,202.824 283.853,196.542  "/>
</g>
<g>
	<path style="fill:#FFE15A;" d="M275.203,153.627c-1.047,0.168-1.969,0.303-2.801,0.739c0.945-2.362,1.611-4.577,1.025-6.129   c-1.433-3.795-4.19-3.115-5.251-5.883v-0.106c-0.007,0.021-0.019,0.032-0.026,0.053c-0.007-0.021-0.019-0.032-0.026-0.053v0.106   c-1.061,2.767-3.818,2.088-5.251,5.883c-0.586,1.552,0.08,3.767,1.025,6.129c-0.831-0.437-1.754-0.571-2.801-0.739   c-2.139-0.343-5.39,1.882-4.705,6.16c0.685,4.278,5.646,4.62,5.646,4.62c-0.684-0.684-1.283-1.796-0.941-2.994   c0.342-1.197,2.823-2.225,4.107,1.796c1.283,4.021-3.079,9.752-3.079,9.752c1.494-0.079,2.584-0.544,3.371-1.016   c-1.036,3.377,2.353,5.99,2.63,6.195v0.04l0.026-0.02c0.003,0.002,0.026,0.02,0.026,0.02v-0.04c0.277-0.204,3.665-2.818,2.63-6.194   c0.788,0.472,1.879,0.936,3.371,1.016c0,0-4.363-5.731-3.079-9.752c1.283-4.021,3.764-2.995,4.107-1.796   c0.342,1.197-0.257,2.31-0.941,2.994c0,0,4.962-0.342,5.647-4.62C280.593,155.509,277.341,153.285,275.203,153.627z"/>
	<path style="fill:#FFE15A;" d="M308.22,153.627c-1.047,0.168-1.969,0.303-2.801,0.739c0.945-2.362,1.611-4.577,1.024-6.129   c-1.433-3.795-4.19-3.115-5.251-5.883v-0.106c-0.007,0.021-0.019,0.032-0.026,0.053c-0.007-0.021-0.019-0.032-0.026-0.053v0.106   c-1.061,2.767-3.818,2.088-5.251,5.883c-0.586,1.552,0.08,3.767,1.025,6.129c-0.831-0.437-1.754-0.571-2.801-0.739   c-2.139-0.343-5.39,1.882-4.705,6.16c0.684,4.278,5.646,4.62,5.646,4.62c-0.684-0.684-1.283-1.796-0.941-2.994   c0.342-1.197,2.823-2.225,4.107,1.796s-3.079,9.752-3.079,9.752c1.494-0.079,2.584-0.544,3.372-1.016   c-1.036,3.377,2.353,5.99,2.63,6.195v0.04l0.026-0.02c0.003,0.002,0.026,0.02,0.026,0.02v-0.04c0.277-0.204,3.665-2.818,2.63-6.194   c0.788,0.472,1.879,0.936,3.371,1.016c0,0-4.363-5.731-3.079-9.752c1.283-4.021,3.764-2.995,4.107-1.796   c0.342,1.197-0.257,2.31-0.942,2.994c0,0,4.961-0.342,5.646-4.62C313.61,155.509,310.359,153.285,308.22,153.627z"/>
	<path style="fill:#FFE15A;" d="M242.185,153.627c-1.047,0.168-1.969,0.303-2.8,0.739c0.945-2.362,1.611-4.577,1.024-6.129   c-1.433-3.795-4.19-3.115-5.251-5.883v-0.106c-0.007,0.021-0.019,0.032-0.026,0.053c-0.007-0.021-0.019-0.032-0.026-0.053v0.106   c-1.061,2.767-3.818,2.088-5.251,5.883c-0.586,1.552,0.08,3.767,1.025,6.129c-0.831-0.437-1.754-0.571-2.801-0.739   c-2.139-0.343-5.39,1.882-4.705,6.16c0.684,4.278,5.646,4.62,5.646,4.62c-0.684-0.684-1.283-1.796-0.941-2.994   s2.823-2.225,4.107,1.796c1.283,4.021-3.079,9.752-3.079,9.752c1.494-0.079,2.584-0.544,3.372-1.016   c-1.036,3.377,2.353,5.99,2.63,6.195v0.04l0.026-0.02c0.003,0.002,0.026,0.02,0.026,0.02v-0.04c0.277-0.204,3.665-2.818,2.63-6.194   c0.788,0.472,1.879,0.936,3.371,1.016c0,0-4.363-5.731-3.079-9.752c1.283-4.021,3.764-2.995,4.107-1.796   c0.343,1.197-0.257,2.31-0.94,2.994c0,0,4.962-0.342,5.646-4.62C247.575,155.509,244.324,153.285,242.185,153.627z"/>
	<path style="fill:#FFE15A;" d="M278.681,246.077c0,0-2.399-0.377-2.59,2.041c0,0,0,0.277-0.012,0.66   c-0.296-0.141-0.62-0.232-0.969-0.232c-1.268,0-2.296,1.028-2.296,2.296s1.028,2.296,2.296,2.296c0.1,0,0.187-0.045,0.284-0.057   c-0.342,1.094-0.884,2.09-1.647,2.811h-3.065c-0.806-0.893-1.052-2.639-1.103-3.905c0.05,0.003,0.087,0.038,0.138,0.038   c1.04,0,1.884-0.843,1.884-1.884c0-1.027-0.825-1.857-1.847-1.877c0.163-0.278,0.281-0.585,0.281-0.931   c0-1.04-0.843-1.884-1.884-1.884c-1.04,0-1.884,0.843-1.884,1.884c0,0.346,0.118,0.653,0.281,0.931   c-1.023,0.021-1.847,0.849-1.847,1.877c0,1.04,0.843,1.884,1.884,1.884c0.051,0,0.088-0.034,0.138-0.038   c-0.052,1.266-0.297,3.012-1.103,3.905h-3.065c-0.763-0.719-1.306-1.717-1.647-2.811c0.097,0.013,0.183,0.057,0.284,0.057   c1.268,0,2.296-1.028,2.296-2.296s-1.028-2.296-2.296-2.296c-0.35,0-0.673,0.091-0.969,0.232c-0.012-0.384-0.012-0.66-0.012-0.66   c-0.191-2.417-2.591-2.041-2.591-2.041c1.492,4.553,1.099,9.814,1.099,9.814v4.628h18.837V255.9l0.027-0.011   C277.581,255.892,277.189,250.63,278.681,246.077z"/>
	<path style="fill:#FFE15A;" d="M256.665,228.13c0,0-2.399-0.377-2.591,2.041c0,0,0,0.277-0.012,0.66   c-0.296-0.141-0.62-0.232-0.969-0.232c-1.268,0-2.296,1.028-2.296,2.296s1.028,2.296,2.296,2.296c0.1,0,0.186-0.045,0.284-0.057   c-0.342,1.094-0.884,2.09-1.647,2.811h-3.065c-0.806-0.893-1.052-2.639-1.103-3.905c0.05,0.003,0.087,0.038,0.138,0.038   c1.04,0,1.884-0.843,1.884-1.884c0-1.027-0.825-1.857-1.847-1.877c0.163-0.279,0.281-0.585,0.281-0.931   c0-1.04-0.843-1.884-1.884-1.884c-1.04,0-1.884,0.843-1.884,1.884c0,0.346,0.118,0.653,0.281,0.931   c-1.023,0.021-1.847,0.849-1.847,1.877c0,1.04,0.843,1.884,1.884,1.884c0.051,0,0.088-0.034,0.138-0.038   c-0.052,1.265-0.297,3.012-1.103,3.905h-3.065c-0.763-0.719-1.306-1.717-1.648-2.811c0.097,0.013,0.183,0.057,0.285,0.057   c1.268,0,2.296-1.028,2.296-2.296s-1.028-2.296-2.296-2.296c-0.35,0-0.673,0.091-0.969,0.232c-0.012-0.384-0.012-0.66-0.012-0.66   c-0.191-2.417-2.591-2.041-2.591-2.041c1.492,4.553,1.099,9.814,1.099,9.814v4.628h18.837v-4.619l0.028-0.011   C255.567,237.943,255.174,232.683,256.665,228.13z"/>
	<path style="fill:#FFE15A;" d="M300.695,228.13c0,0-2.399-0.377-2.59,2.041c0,0,0,0.277-0.012,0.66   c-0.296-0.141-0.62-0.232-0.969-0.232c-1.268,0-2.296,1.028-2.296,2.296s1.028,2.296,2.296,2.296c0.1,0,0.187-0.045,0.284-0.057   c-0.342,1.094-0.884,2.09-1.647,2.811h-3.065c-0.806-0.893-1.052-2.639-1.103-3.905c0.05,0.003,0.087,0.038,0.138,0.038   c1.04,0,1.884-0.843,1.884-1.884c0-1.027-0.825-1.857-1.847-1.877c0.163-0.279,0.281-0.585,0.281-0.931   c0-1.04-0.843-1.884-1.884-1.884c-1.04,0-1.884,0.843-1.884,1.884c0,0.346,0.118,0.653,0.281,0.931   c-1.023,0.021-1.847,0.849-1.847,1.877c0,1.04,0.843,1.884,1.884,1.884c0.051,0,0.088-0.034,0.138-0.038   c-0.052,1.265-0.297,3.012-1.103,3.905h-3.065c-0.763-0.719-1.306-1.717-1.647-2.811c0.097,0.013,0.183,0.057,0.284,0.057   c1.268,0,2.296-1.028,2.296-2.296s-1.028-2.296-2.296-2.296c-0.35,0-0.673,0.091-0.969,0.232c-0.012-0.384-0.012-0.66-0.012-0.66   c-0.191-2.417-2.591-2.041-2.591-2.041c1.492,4.553,1.099,9.814,1.099,9.814v4.628h18.838v-4.619l0.027-0.011   C299.595,237.943,299.203,232.683,300.695,228.13z"/>
	<path style="fill:#FFE15A;" d="M337.832,110.248c-2.582-1.025-5.181-1.992-7.796-2.899c-0.731,2.12-1.463,4.24-2.194,6.36   c-1.261-0.437-2.525-0.861-3.793-1.27c0.684-2.136,1.37-4.271,2.054-6.407c-2.629-0.848-5.272-1.638-7.927-2.366   c-0.591,2.163-1.182,4.327-1.773,6.491c-1.28-0.351-2.563-0.689-3.85-1.012c0.544-2.177,1.087-4.352,1.632-6.528   c-2.667-0.671-5.344-1.282-8.03-1.834c-0.898,4.395-1.796,8.791-2.694,13.186c1.664,0.343,3.324,0.708,4.98,1.099   c-0.342,1.456-0.683,2.911-1.025,4.368c-9.684-2.286-19.516-3.714-29.387-4.285c0.086-1.493,0.172-2.986,0.258-4.48   c1.688,0.097,3.376,0.22,5.061,0.366c0.386-4.469,0.773-8.94,1.159-13.41c-2.722-0.237-5.446-0.414-8.173-0.532   c-0.096,2.242-0.194,4.483-0.29,6.724c-1.315-0.057-2.631-0.099-3.947-0.128c0.049-2.243,0.096-4.486,0.145-6.729   c-2.728-0.059-5.457-0.059-8.187,0c0.049,2.243,0.097,4.486,0.145,6.729c-1.316,0.029-2.632,0.071-3.947,0.128   c-0.096-2.242-0.194-4.483-0.29-6.724c-2.727,0.117-5.452,0.295-8.173,0.532c0.386,4.469,0.773,8.941,1.159,13.41   c1.685-0.146,3.372-0.269,5.061-0.366c0.086,1.494,0.172,2.986,0.258,4.48c-9.871,0.571-19.705,1.999-29.387,4.285   c-0.342-1.456-0.683-2.911-1.025-4.368c1.656-0.391,3.316-0.757,4.98-1.099c-0.898-4.395-1.796-8.792-2.694-13.186   c-2.687,0.552-5.363,1.164-8.03,1.834c0.544,2.176,1.087,4.353,1.632,6.528c-1.286,0.324-2.57,0.661-3.85,1.012   c-0.591-2.164-1.182-4.328-1.773-6.491c-2.655,0.73-5.298,1.519-7.927,2.366c0.684,2.136,1.37,4.271,2.054,6.407   c-1.268,0.409-2.533,0.834-3.793,1.27c-0.731-2.12-1.462-4.24-2.194-6.36c-2.614,0.908-5.214,1.873-7.796,2.899   c1.647,4.171,3.293,8.344,4.94,12.516c1.599-0.635,3.206-1.246,4.82-1.832c2.032,5.625,4.064,11.248,6.096,16.874   c4.347-1.58,8.745-2.963,13.183-4.148c1.479-0.395,2.963-0.769,4.45-1.119c8.925-2.106,17.989-3.424,27.087-3.95   c6.066-0.351,12.146-0.35,18.212,0c9.099,0.526,18.162,1.844,27.087,3.95c1.487,0.351,2.97,0.725,4.45,1.119   c4.438,1.185,8.837,2.567,13.184,4.148c2.032-5.626,4.064-11.249,6.096-16.874c1.613,0.586,3.22,1.198,4.82,1.832   C334.539,118.591,336.185,114.419,337.832,110.248z"/>
</g>
<path style="fill:#FFE1CD;" d="M268.148,323.973c26.767,0,51.55-8.595,71.792-23.13v-29.367  c-18.316,18.545-43.73,30.062-71.792,30.062c-28.451,0-54.172-11.848-72.54-30.847v29.619  C215.986,315.172,241.054,323.973,268.148,323.973z"/>
<path style="fill:#2E3033;" d="M19.174,488.729L19.174,488.729C8.585,488.729,0,480.145,0,469.555V42.287  c0-10.502,8.514-19.016,19.016-19.016h0.158c10.589,0,19.174,8.585,19.174,19.174v427.111  C38.347,480.145,29.763,488.729,19.174,488.729z"/>
<g>
</g>
<g>
</g>
<g>
</g>
<g>
</g>
<g>
</g>
<g>
</g>
<g>
</g>
<g>
</g>
<g>
</g>
<g>
</g>
<g>
</g>
<g>
</g>
<g>
</g>
<g>
</g>
<g>
</g>
</svg>
