<?xml version="1.0" encoding="iso-8859-1"?>
<!-- Generator: Adobe Illustrator 19.0.0, SVG Export Plug-In . SVG Version: 6.00 Build 0)  -->
<svg xmlns="http://www.w3.org/2000/svg" xmlns:xlink="http://www.w3.org/1999/xlink" version="1.1" id="Layer_1" x="0px" y="0px" viewBox="0 0 512.004 512.004" style="enable-background:new 0 0 512.004 512.004;" xml:space="preserve">
<path style="fill:#73AF00;" d="M503.524,374.659H28.87c-4.681,0-8.476-3.795-8.476-8.476V61.048c0-4.681,3.795-8.476,8.476-8.476  h474.655c4.681,0,8.476,3.795,8.476,8.476v305.135C512,370.866,508.205,374.659,503.524,374.659z"/>
<rect x="20.394" y="128.861" style="fill:#FFE15A;" width="491.61" height="169.52"/>
<path style="fill:#FF4B55;" d="M22.953,372.228l166.961-158.613L22.953,55.003c-1.572,1.538-2.56,3.671-2.56,6.045v305.135  C20.394,368.557,21.381,370.689,22.953,372.228z"/>
<g>
	<path style="fill:#464655;" d="M287.607,174.985l8.687,26.046l27.455,0.213c3.555,0.028,5.028,4.563,2.169,6.676l-22.086,16.31   l8.282,26.177c1.072,3.389-2.786,6.193-5.679,4.126l-22.336-15.966l-22.336,15.966c-2.891,2.067-6.751-0.736-5.679-4.126   l8.282-26.177l-22.086-16.31c-2.86-2.112-1.386-6.648,2.169-6.676l27.455-0.213l8.687-26.046   C281.712,171.613,286.482,171.613,287.607,174.985z"/>
	<path style="fill:#464655;" d="M414.35,174.985l8.687,26.046l27.455,0.213c3.555,0.028,5.028,4.563,2.169,6.676l-22.086,16.31   l8.282,26.177c1.072,3.389-2.786,6.193-5.679,4.126l-22.336-15.966l-22.336,15.966c-2.891,2.067-6.751-0.736-5.679-4.126   l8.282-26.177l-22.086-16.31c-2.86-2.112-1.386-6.648,2.169-6.676l27.455-0.213l8.687-26.046   C408.456,171.613,413.225,171.613,414.35,174.985z"/>
</g>
<path style="fill:#2E3033;" d="M19.203,489.09L19.203,489.09C8.598,489.09,0,480.493,0,469.887V41.958  c0-10.519,8.527-19.045,19.045-19.045h0.158c10.606,0,19.203,8.598,19.203,19.203v427.771  C38.407,480.493,29.809,489.09,19.203,489.09z"/>
<g>
</g>
<g>
</g>
<g>
</g>
<g>
</g>
<g>
</g>
<g>
</g>
<g>
</g>
<g>
</g>
<g>
</g>
<g>
</g>
<g>
</g>
<g>
</g>
<g>
</g>
<g>
</g>
<g>
</g>
</svg>
