<?xml version="1.0" encoding="iso-8859-1"?>
<!-- Generator: Adobe Illustrator 19.0.0, SVG Export Plug-In . SVG Version: 6.00 Build 0)  -->
<svg xmlns="http://www.w3.org/2000/svg" xmlns:xlink="http://www.w3.org/1999/xlink" version="1.1" id="Layer_1" x="0px" y="0px" viewBox="0 0 512 512" style="enable-background:new 0 0 512 512;" xml:space="preserve">
<g>
	<path style="fill:#41479B;" d="M512,162.357H26.68V64.821c0-4.668,3.785-8.453,8.453-8.453h468.414   c4.668,0,8.453,3.785,8.453,8.453V162.357z"/>
	<path style="fill:#41479B;" d="M503.547,374.337H35.133c-4.668,0-8.453-3.785-8.453-8.453v-97.537H512v97.536   C512,370.552,508.216,374.337,503.547,374.337z"/>
</g>
<rect x="26.68" y="162.357" style="fill:#F5F5F5;" width="485.32" height="105.99"/>
<g>
	<path style="fill:#50AF69;" d="M269.14,250.958c-20.186,0-36.608-16.422-36.608-36.608c0-8.623,3.056-16.997,8.606-23.581   l1.6,1.348c-5.232,6.207-8.114,14.102-8.114,22.233c0,19.031,15.484,34.516,34.516,34.516V250.958L269.14,250.958z"/>
	<path style="fill:#50AF69;" d="M255.749,240.148c-0.458,0.78-0.683,1.851-0.782,2.939c-0.413-0.298-0.852-0.574-1.328-0.806   c0,0-0.72,2.535-0.156,4.36c0,0-1.908,0.237-3.659,1.994c0,0,0.603,0.427,1.64,0.872c-1.739,1.358-2.276,2.7-2.276,2.7   c10.265,5.133,15.185-2.028,15.399-2.349C262.071,242.682,255.749,240.148,255.749,240.148z"/>
	<path style="fill:#50AF69;" d="M264.586,249.856c0.006,0.018,0.015,0.034,0.02,0.052v-0.082   C264.607,249.827,264.592,249.85,264.586,249.856z"/>
	<path style="fill:#50AF69;" d="M246.269,233.305c-0.671,0.49-1.252,1.311-1.734,2.191c-0.24-0.403-0.507-0.795-0.824-1.164   c0,0-1.533,1.873-1.727,3.618c0,0-1.695-0.498-3.813,0.342c0,0,0.353,0.581,1.064,1.335c-1.962,0.508-2.906,1.443-2.906,1.443   c6.777,8.081,13.543,3.844,13.841,3.651C250.673,237.753,246.269,233.305,246.269,233.305z"/>
	<path style="fill:#50AF69;" d="M250.169,244.721c-0.001,0.018,0,0.034-0.002,0.052l0.031-0.07   C250.198,244.704,250.176,244.717,250.169,244.721z"/>
	<path style="fill:#50AF69;" d="M240.387,224.363c-0.732,0.154-1.514,0.613-2.236,1.157c-0.048-0.419-0.123-0.841-0.246-1.263   c0,0-1.954,0.971-2.758,2.332c0,0-1.208-1.038-3.26-1.132c0,0,0.074,0.608,0.379,1.491c-1.801-0.31-2.922,0.109-2.922,0.109   c2.572,9.148,9.7,8.175,10.016,8.128C242.358,229.646,240.387,224.363,240.387,224.363z"/>
	<path style="fill:#50AF69;" d="M239.36,235.184c-0.007,0.014-0.013,0.027-0.02,0.041l0.051-0.045   C239.391,235.18,239.367,235.184,239.36,235.184z"/>
	<path style="fill:#50AF69;" d="M238.059,214.167c-0.695,0.045-1.504,0.349-2.278,0.733c0.053-0.369,0.082-0.745,0.069-1.125   c0,0-1.981,0.605-3.018,1.69c0,0-0.848-1.046-2.674-1.376c0,0-0.073,0.537,0,1.339c-1.549-0.486-2.654-0.259-2.654-0.259   c0.217,8.248,6.854,8.266,7.15,8.263C238.619,218.99,238.059,214.167,238.059,214.167z"/>
	<path style="fill:#50AF69;" d="M234.652,223.432c-0.01,0.011-0.018,0.022-0.027,0.034l0.056-0.034   C234.68,223.432,234.659,223.432,234.652,223.432z"/>
	<path style="fill:#50AF69;" d="M238.831,205.725c-0.595-0.142-1.351-0.097-2.101,0.025c0.141-0.296,0.262-0.603,0.349-0.926   c0,0-1.818-0.004-2.968,0.637c0,0-0.442-1.097-1.887-1.846c0,0-0.2,0.431-0.347,1.123c-1.174-0.809-2.16-0.904-2.16-0.904   c-1.953,6.975,3.612,8.707,3.86,8.781C238.053,209.915,238.831,205.725,238.831,205.725z"/>
	<path style="fill:#50AF69;" d="M233.576,212.615c-0.012,0.006-0.021,0.014-0.033,0.021l0.056-0.014   C233.599,212.62,233.581,212.615,233.576,212.615z"/>
	<path style="fill:#50AF69;" d="M234.427,195.456c0,0-1.896,4.968,1.046,7.844c0,0,3.836-1.133,5.731-5.12l-1.612-0.305   l-0.828-2.484l-2.745,1.22L234.427,195.456z"/>
	<path style="fill:#50AF69;" d="M239.768,187.471c0,0-2.972,4.409-0.758,7.877c0,0,3.992-0.235,6.741-3.69l-1.501-0.663   l-0.244-2.607l-2.95,0.566L239.768,187.471z"/>
	<path style="fill:#50AF69;" d="M269.541,250.958v-2.092c19.032,0,34.516-15.485,34.516-34.516c0-8.131-2.881-16.026-8.114-22.233   l1.6-1.348c5.551,6.584,8.606,14.958,8.606,23.581C306.149,234.535,289.726,250.958,269.541,250.958z"/>
	<path style="fill:#50AF69;" d="M282.932,240.148c0.458,0.78,0.683,1.851,0.782,2.939c0.413-0.298,0.852-0.574,1.328-0.806   c0,0,0.72,2.535,0.156,4.36c0,0,1.907,0.237,3.659,1.994c0,0-0.603,0.427-1.64,0.872c1.739,1.358,2.276,2.7,2.276,2.7   c-10.265,5.133-15.185-2.028-15.399-2.349C276.609,242.682,282.932,240.148,282.932,240.148z"/>
	<path style="fill:#50AF69;" d="M274.094,249.856c-0.006,0.018-0.014,0.034-0.02,0.052v-0.082   C274.074,249.827,274.089,249.85,274.094,249.856z"/>
	<path style="fill:#50AF69;" d="M292.412,233.305c0.671,0.49,1.252,1.311,1.734,2.191c0.24-0.403,0.507-0.795,0.824-1.164   c0,0,1.533,1.873,1.727,3.618c0,0,1.695-0.498,3.813,0.342c0,0-0.353,0.581-1.064,1.335c1.963,0.508,2.906,1.443,2.906,1.443   c-6.777,8.081-13.543,3.844-13.841,3.651C288.007,237.753,292.412,233.305,292.412,233.305z"/>
	<path style="fill:#50AF69;" d="M288.512,244.721c0.001,0.018,0,0.034,0.002,0.052l-0.03-0.07   C288.483,244.704,288.504,244.717,288.512,244.721z"/>
	<path style="fill:#50AF69;" d="M298.293,224.363c0.732,0.154,1.514,0.613,2.236,1.157c0.048-0.419,0.123-0.841,0.245-1.263   c0,0,1.954,0.971,2.759,2.332c0,0,1.208-1.038,3.26-1.132c0,0-0.074,0.608-0.379,1.491c1.801-0.31,2.922,0.109,2.922,0.109   c-2.572,9.148-9.7,8.175-10.016,8.128C296.323,229.646,298.293,224.363,298.293,224.363z"/>
	<path style="fill:#50AF69;" d="M299.32,235.184c0.007,0.014,0.013,0.027,0.02,0.041l-0.051-0.045   C299.29,235.18,299.313,235.184,299.32,235.184z"/>
	<path style="fill:#50AF69;" d="M300.622,214.167c0.695,0.045,1.504,0.349,2.278,0.733c-0.053-0.369-0.082-0.745-0.069-1.125   c0,0,1.981,0.605,3.018,1.69c0,0,0.848-1.046,2.674-1.376c0,0,0.073,0.537,0.001,1.339c1.549-0.486,2.654-0.259,2.654-0.259   c-0.217,8.248-6.854,8.266-7.15,8.263C300.061,218.99,300.622,214.167,300.622,214.167z"/>
	<path style="fill:#50AF69;" d="M304.028,223.432c0.01,0.011,0.018,0.022,0.029,0.034l-0.056-0.034   C304.001,223.432,304.021,223.432,304.028,223.432z"/>
	<path style="fill:#50AF69;" d="M299.85,205.725c0.595-0.142,1.351-0.097,2.101,0.025c-0.141-0.296-0.262-0.603-0.349-0.926   c0,0,1.818-0.004,2.968,0.637c0,0,0.442-1.097,1.887-1.846c0,0,0.2,0.431,0.347,1.123c1.174-0.809,2.16-0.904,2.16-0.904   c1.953,6.975-3.611,8.707-3.86,8.781C300.627,209.915,299.85,205.725,299.85,205.725z"/>
	<path style="fill:#50AF69;" d="M305.105,212.615c0.012,0.006,0.021,0.014,0.032,0.021l-0.055-0.014   C305.082,212.62,305.099,212.615,305.105,212.615z"/>
	<path style="fill:#50AF69;" d="M304.253,195.456c0,0,1.896,4.968-1.046,7.844c0,0-3.836-1.133-5.731-5.12l1.612-0.305l0.828-2.484   l2.745,1.22L304.253,195.456z"/>
	<path style="fill:#50AF69;" d="M298.912,187.471c0,0,2.972,4.409,0.758,7.877c0,0-3.992-0.235-6.741-3.69l1.501-0.663l0.244-2.607   l2.951,0.566L298.912,187.471z"/>
</g>
<path style="fill:#41479B;" d="M269.34,228.951l-3.234,4.851c-0.553,0.828-0.443,1.932,0.261,2.636l2.973,2.972l2.972-2.972  c0.704-0.704,0.814-1.807,0.261-2.636L269.34,228.951z"/>
<path style="fill:#F5F5F5;" d="M270.718,233.801l-1.378-4.851l-1.378,4.851c-0.236,0.828-0.189,1.932,0.111,2.636l1.267,2.972  l1.267-2.972C270.907,235.732,270.954,234.63,270.718,233.801z"/>
<g>
	<path style="fill:#41479B;" d="M269.34,185.544v-13.075c0,0-4.968,7.147-4.184,17.607"/>
	<path style="fill:#41479B;" d="M247.06,185.587c-7.186,15.598,0.185,28.433,1.733,30.85c0.041,0.064,10.263-16.471,10.263-16.471   L247.06,185.587"/>
</g>
<path style="fill:#F5F5F5;" d="M254.625,207.119c-1.134-3.531-1.299-7.654,0.063-12.386l-4.447-5.331  c-3.655,9.847-2.142,17.118,1.515,22.334C252.656,210.294,253.653,208.688,254.625,207.119z"/>
<path style="fill:#FFE15A;" d="M258.881,200.839c-0.312,0-0.62-0.139-0.826-0.405l-13.116-16.864  c-0.355-0.455-0.273-1.114,0.183-1.467c0.459-0.355,1.114-0.272,1.468,0.184l13.116,16.864c0.355,0.455,0.273,1.114-0.183,1.467  C259.333,200.766,259.105,200.839,258.881,200.839z"/>
<path style="fill:#41479B;" d="M237.961,201.796c-4.183,41.838,29.287,31.379,31.379,27.195l-20.919-10.46l4.184-8.368  L237.961,201.796"/>
<path style="fill:#F5F5F5;" d="M248.076,206.611l-5.829-3.499c-1.311,24.862,11.965,29.002,21.756,27.767  C256.064,229.814,248.132,223.953,248.076,206.611z"/>
<path style="fill:#FFE15A;" d="M252.603,211.208c-0.189,0-0.381-0.051-0.554-0.16l-16.734-10.458  c-0.489-0.306-0.638-0.952-0.332-1.44c0.305-0.492,0.95-0.641,1.441-0.333l16.734,10.458c0.489,0.306,0.638,0.952,0.332,1.44  C253.293,211.033,252.952,211.208,252.603,211.208z"/>
<path style="fill:#41479B;" d="M291.621,185.546c7.186,15.598-0.185,28.433-1.733,30.85c-0.041,0.064-10.263-16.471-10.263-16.471  L291.621,185.546"/>
<path style="fill:#F5F5F5;" d="M284.055,207.077c1.134-3.531,1.299-7.654-0.063-12.385l4.447-5.331  c3.655,9.847,2.142,17.118-1.515,22.334C286.025,210.251,285.028,208.646,284.055,207.077z"/>
<path style="fill:#FFE15A;" d="M279.799,200.798c-0.224,0-0.45-0.072-0.641-0.221c-0.455-0.354-0.539-1.011-0.183-1.467  l13.116-16.864c0.355-0.455,1.011-0.537,1.468-0.184c0.455,0.354,0.538,1.011,0.183,1.467l-13.116,16.864  C280.419,200.658,280.11,200.798,279.799,200.798z"/>
<path style="fill:#41479B;" d="M300.719,201.755c4.184,41.838-29.287,31.379-31.379,27.195l20.919-10.46l-4.184-8.368  L300.719,201.755"/>
<path style="fill:#F5F5F5;" d="M290.604,206.57l5.829-3.499c1.311,24.862-11.965,29.002-21.756,27.767  C282.617,229.773,290.548,223.912,290.604,206.57z"/>
<path style="fill:#FFE15A;" d="M286.077,211.167c-0.349,0-0.689-0.173-0.888-0.492c-0.306-0.488-0.157-1.134,0.332-1.44  l16.734-10.458c0.491-0.309,1.136-0.16,1.441,0.333c0.306,0.488,0.157,1.134-0.332,1.44l-16.734,10.458  C286.459,211.117,286.266,211.167,286.077,211.167z"/>
<path style="fill:#FFE6E6;" d="M277.552,202.21c1.117,5.895-3.955,10.968-9.85,9.85c-3.294-0.624-5.95-3.281-6.574-6.574  c-1.118-5.895,3.955-10.968,9.85-9.85C274.271,196.259,276.928,198.917,277.552,202.21z"/>
<path style="fill:#F5F5F5;" d="M273.474,203.186c0.433,2.828-1.967,5.227-4.795,4.794c-1.761-0.269-3.202-1.71-3.471-3.471  c-0.433-2.828,1.967-5.227,4.795-4.795C271.764,199.984,273.203,201.423,273.474,203.186z"/>
<path style="fill:#FFE15A;" d="M269.34,217.445c-0.578,0-1.046-0.468-1.046-1.046v-12.552c0-0.578,0.468-1.046,1.046-1.046  s1.046,0.468,1.046,1.046v12.552C270.386,216.977,269.918,217.445,269.34,217.445z"/>
<polygon style="fill:#5AA0E6;" points="297.929,228.775 241.884,228.775 248.421,216.337 290.434,216.337 "/>
<path style="fill:#FFB750;" d="M271.042,218.665h14.575l-4.534-4.534c-0.213-0.213-0.473-0.374-0.76-0.469l-1.579-0.526  c-0.57-0.19-1.194-0.106-1.693,0.226l-5.039,3.36L271.042,218.665z"/>
<path style="fill:#FFC455;" d="M266.086,219.449h17.396l-5.411-5.412c-0.255-0.255-0.565-0.447-0.907-0.56l-1.884-0.628  c-0.679-0.226-1.424-0.127-2.02,0.271l-6.014,4.01L266.086,219.449z"/>
<path style="fill:#FFCD55;" d="M260.034,220.32h21.007l-6.535-6.535c-0.307-0.307-0.683-0.539-1.095-0.676l-2.275-0.759  c-0.82-0.274-1.72-0.153-2.44,0.327l-7.263,4.843L260.034,220.32z"/>
<path style="fill:#FFD25A;" d="M254.046,221.105H278.1l-7.483-7.483c-0.352-0.352-0.781-0.617-1.253-0.775l-2.605-0.869  c-0.939-0.313-1.97-0.175-2.794,0.374l-8.317,5.544L254.046,221.105z"/>
<path style="fill:#FFE15A;" d="M244.238,222.674h31.378l-9.761-9.761c-0.46-0.46-1.02-0.805-1.636-1.011l-3.397-1.133  c-1.225-0.408-2.57-0.228-3.643,0.488l-10.849,7.233L244.238,222.674z"/>
<g>
	<path style="fill:#FF4B55;" d="M271.598,205.723h-4.522l1.041-4.367h1.572c0.509,0,0.952,0.35,1.069,0.844L271.598,205.723z"/>
	<path style="fill:#FF4B55;" d="M271.332,206.425h-4.048c-0.336,0-0.608-0.272-0.608-0.608v-0.188c0-0.336,0.273-0.608,0.608-0.608   h4.048c0.336,0,0.608,0.273,0.608,0.608v0.188C271.939,206.154,271.667,206.425,271.332,206.425z"/>
	<path style="fill:#FF4B55;" d="M268.654,203.346l-1.015-0.258c-0.306-0.077-0.439-0.438-0.257-0.695l0.734-1.036L268.654,203.346z"/>
</g>
<path style="fill:#41479B;" d="M264.122,193.102c-0.05,0.385-0.099,0.768-0.149,1.153c1.625-0.986,3.419-1.579,5.367-1.579  c1.946,0.002,3.741,0.591,5.367,1.579c-0.05-0.385-0.099-0.769-0.149-1.153c-1.617-0.844-3.357-1.329-5.218-1.327  C267.48,191.773,265.74,192.257,264.122,193.102z"/>
<path style="fill:#5AA0E6;" d="M264.187,192.6c-0.05,0.385-0.099,0.768-0.149,1.153c1.608-0.989,3.379-1.582,5.302-1.583  c1.922,0.001,3.694,0.595,5.302,1.583c-0.05-0.385-0.099-0.768-0.149-1.153c-1.599-0.85-3.317-1.331-5.153-1.332  C267.504,191.27,265.786,191.753,264.187,192.6z"/>
<path style="fill:#9BC800;" d="M264.247,192.139c-0.05,0.385-0.099,0.768-0.149,1.153c1.592-0.992,3.343-1.589,5.242-1.588  c1.9,0,3.651,0.596,5.242,1.588c-0.05-0.385-0.099-0.768-0.149-1.153c-1.582-0.85-3.28-1.337-5.094-1.338  C267.526,190.799,265.829,191.288,264.247,192.139z"/>
<path style="fill:#FFE14E;" d="M264.315,191.608c-0.05,0.385-0.099,0.768-0.149,1.153c1.573-0.995,3.301-1.593,5.173-1.593  c1.873,0.002,3.601,0.598,5.173,1.593c-0.05-0.385-0.099-0.768-0.149-1.153c-1.563-0.854-3.236-1.342-5.025-1.343  C267.551,190.266,265.877,190.755,264.315,191.608z"/>
<path style="fill:#FFB14E;" d="M264.382,191.089c-0.05,0.385-0.099,0.768-0.149,1.153c1.555-0.997,3.259-1.598,5.107-1.599  c1.848,0.002,3.551,0.599,5.107,1.599c-0.05-0.385-0.099-0.768-0.149-1.153c-1.544-0.855-3.194-1.347-4.958-1.348  C267.577,189.742,265.926,190.231,264.382,191.089z"/>
<path style="fill:#FF4B55;" d="M264.411,190.867c-0.035,0.269-0.07,0.538-0.104,0.807c1.534-1,3.214-1.605,5.034-1.604  c1.82-0.001,3.5,0.603,5.034,1.604c-0.035-0.269-0.07-0.538-0.104-0.807c-1.535-0.857-3.177-1.349-4.93-1.35  C267.587,189.514,265.946,190.007,264.411,190.867z"/>
<g>
	<path style="fill:#FFE15A;" d="M298.627,229.996h-58.573c-0.386,0-0.741-0.212-0.922-0.552c-0.182-0.341-0.162-0.753,0.052-1.075   l29.287-43.93c0.388-0.58,1.352-0.58,1.74,0l29.287,43.93c0.213,0.32,0.234,0.733,0.052,1.075   C299.368,229.783,299.013,229.996,298.627,229.996z M242.008,227.904h54.665l-27.333-40.999L242.008,227.904z"/>
	<path style="fill:#FFE15A;" d="M269.34,175.606c-0.578,0-1.046-0.468-1.046-1.046v-4.184c0-0.578,0.468-1.046,1.046-1.046   s1.046,0.468,1.046,1.046v4.184C270.386,175.139,269.918,175.606,269.34,175.606z"/>
	<path style="fill:#FFE15A;" d="M271.432,175.606h-4.183c-0.578,0-1.046-0.468-1.046-1.046s0.468-1.046,1.046-1.046h4.183   c0.578,0,1.046,0.468,1.046,1.046S272.01,175.606,271.432,175.606z"/>
</g>
<g>
	<path style="fill:#41479B;" d="M269.34,250.915c-0.076,0-0.152-0.008-0.227-0.024c-1.024-0.229-4.44-1.048-5.447-2.047   c-1.279-1.27-1.287-3.344-0.017-4.625c0.616-0.619,1.435-0.963,2.309-0.965h0.012c0.87,0,1.686,0.337,2.303,0.95   c1.007,1.001,1.853,4.408,2.088,5.43c0.08,0.35-0.024,0.717-0.277,0.972C269.883,250.807,269.616,250.915,269.34,250.915z    M265.968,245.346c-0.278,0.092-0.613,0.125-0.836,0.348c-0.456,0.46-0.453,1.208,0.007,1.665c0.254,0.247,1.384,0.674,2.74,1.061   c-0.396-1.35-0.832-2.478-1.082-2.731l0.736-0.742l-0.738,0.742C266.575,245.466,266.281,245.346,265.968,245.346z"/>
	<path style="fill:#41479B;" d="M269.34,250.915c-0.276,0-0.543-0.108-0.743-0.309c-0.253-0.256-0.357-0.623-0.277-0.972   c0.235-1.022,1.081-4.429,2.088-5.43l0,0c0.62-0.615,1.359-0.895,2.315-0.95c0.874,0.002,1.693,0.346,2.308,0.965   c1.271,1.281,1.263,3.355-0.015,4.623c-1.008,1.001-4.425,1.821-5.448,2.049C269.492,250.908,269.416,250.915,269.34,250.915z    M271.146,244.945l0.736,0.742c-0.25,0.254-0.686,1.381-1.082,2.731c1.356-0.386,2.486-0.814,2.741-1.062   c0.46-0.455,0.463-1.204,0.005-1.663c-0.221-0.223-0.516-0.348-0.831-0.348h-0.004c-0.313,0-0.607,0.12-0.828,0.341   L271.146,244.945z M271.146,244.945h0.02H271.146z"/>
	<path style="fill:#41479B;" d="M265.157,257.19c-0.578,0-1.046-0.468-1.046-1.046c0-4.776,4.568-7.113,4.762-7.212   c0.52-0.26,1.142-0.048,1.4,0.466c0.259,0.515,0.052,1.142-0.462,1.403c-0.037,0.018-3.608,1.873-3.608,5.342   C266.202,256.723,265.735,257.19,265.157,257.19z"/>
	<path style="fill:#41479B;" d="M273.524,257.19c-0.578,0-1.046-0.468-1.046-1.046c0-3.469-3.571-5.323-3.608-5.342   c-0.514-0.261-0.721-0.889-0.462-1.403c0.261-0.512,0.882-0.725,1.4-0.466c0.194,0.098,4.762,2.434,4.762,7.212   C274.57,256.723,274.102,257.19,273.524,257.19z"/>
</g>
<path style="fill:#2E3033;" d="M19.152,488.46L19.152,488.46C8.575,488.46,0,479.884,0,469.307V42.534  C0,32.044,8.504,23.54,18.994,23.54h0.157c10.577,0,19.152,8.575,19.152,19.152V469.31C38.303,479.884,29.728,488.46,19.152,488.46z  "/>
<g>
</g>
<g>
</g>
<g>
</g>
<g>
</g>
<g>
</g>
<g>
</g>
<g>
</g>
<g>
</g>
<g>
</g>
<g>
</g>
<g>
</g>
<g>
</g>
<g>
</g>
<g>
</g>
<g>
</g>
</svg>
