<?xml version="1.0" encoding="iso-8859-1"?>
<!-- Generator: Adobe Illustrator 19.0.0, SVG Export Plug-In . SVG Version: 6.00 Build 0)  -->
<svg xmlns="http://www.w3.org/2000/svg" xmlns:xlink="http://www.w3.org/1999/xlink" version="1.1" id="Layer_1" x="0px" y="0px" viewBox="0 0 512 512" style="enable-background:new 0 0 512 512;" xml:space="preserve">
<path style="fill:#FF4B55;" d="M35.4,56.15h468.2c4.6,0,8.4,3.8,8.4,8.4v150.5H27V64.55C27,59.95,30.8,56.15,35.4,56.15z"/>
<path style="fill:#41479B;" d="M503.6,373.95H35.4c-4.6,0-8.4-3.8-8.4-8.4v-150.5h485v150.5C512,370.15,508.2,373.95,503.6,373.95z"/>
<path style="fill:#F5F5F5;" d="M30.1,371.95l231.5-151.6c3.8-2.5,3.8-8,0-10.4L30.1,58.15c-1.8,1.5-3.1,3.8-3.1,6.3v301  C27,368.15,28.2,370.35,30.1,371.95z"/>
<path style="fill:#FFE15A;" d="M138.9,180.65c1.3,16.2-12.1,29.6-28.3,28.3c-12.7-1-23-11.3-24-24c-1.3-16.2,12.1-29.6,28.3-28.3  C127.6,157.65,137.9,167.95,138.9,180.65z"/>
<path style="fill:#8CD7FF;" d="M144.8,207.05c0.1,3.2,0.5,6.5,0.8,9.7c1.3,12.5,2.4,23.2-9.5,27.4c-2.8,1-6.7,1.5-10.4,2.1  c-5.4,0.8-10.1,1.5-12.9,3.4c-2.8-1.9-7.6-2.6-12.9-3.4c-3.7-0.5-7.6-1.1-10.4-2.1c-12-4.2-10.8-14.9-9.5-27.4  c0.3-3.2,0.7-6.5,0.8-9.7c0.4-11.3-2-22.4-3.7-28.6c2.8,1.1,6.6,2.2,11.4,2.1c2,0,4.3-0.3,6.8-0.6c5.5-0.7,11.8-1.5,16.8,0.5  l0.8,0.4l0.8-0.4c5-2,11.3-1.2,16.8-0.5c2.4,0.3,4.7,0.6,6.8,0.6c4.7,0.1,8.6-0.9,11.4-2.1C146.8,184.75,144.5,195.85,144.8,207.05z  "/>
<path style="fill:#FF4B55;" d="M149.2,206.95c-0.5-16,4.9-32.1,5-32.2l-3.4-2.4c0,0-5.2,4.1-13.5,3.9c-1.8,0-4-0.3-6.3-0.6  c-5.8-0.7-12.3-1.6-18.2,0.5c-5.9-2-12.4-1.2-18.2-0.5c-2.3,0.3-4.5,0.6-6.3,0.6c-8.3,0.2-13.5-3.9-13.5-3.9l-3.4,2.4  c0.1,0.2,5.5,16.2,5,32.2c-0.1,3-0.4,6.2-0.8,9.3c-1.3,12.5-2.8,26.7,12.4,32c3.2,1.1,7.3,1.6,11.2,2.3c11.8,2,13.6,5,13.6,5  s1.8-3,13.6-5c3.9-0.7,8-1.1,11.2-2.3c15.2-5.3,13.8-19.5,12.4-32C149.6,213.15,149.3,209.95,149.2,206.95z M144.8,207.05  c0.1,3.2,0.5,6.5,0.8,9.7c1.3,12.5,2.4,23.2-9.5,27.4c-2.8,1-6.7,1.5-10.4,2.1c-5.4,0.8-10.1,1.5-12.9,3.4  c-2.8-1.9-7.6-2.6-12.9-3.4c-3.7-0.5-7.6-1.1-10.4-2.1c-12-4.2-10.8-14.9-9.5-27.4c0.3-3.2,0.7-6.5,0.8-9.7  c0.4-11.3-2-22.4-3.7-28.6c2.8,1.1,6.6,2.2,11.4,2.1c2,0,4.3-0.3,6.8-0.6c5.5-0.7,11.8-1.5,16.8,0.5l0.8,0.4l0.8-0.4  c5-2,11.3-1.2,16.8-0.5c2.4,0.3,4.7,0.6,6.8,0.6c4.7,0.1,8.6-0.9,11.4-2.1C146.8,184.75,144.5,195.85,144.8,207.05z"/>
<polygon style="fill:#F5F5F5;" points="135.3,233.95 135.3,224.35 137,224.35 137,221.55 132.9,221.55 132.9,211.65 137,211.65   118.5,198.55 118.5,193.55 121,193.55 112.7,187.65 104.4,193.55 107,193.55 107,198.55 88.5,211.65 92.6,211.65 92.6,221.55   88.5,221.55 88.5,224.35 90.2,224.35 90.2,233.95 87.8,233.95 87.8,238.15 137.7,238.15 137.7,233.95 "/>
<g>
	<path style="fill:#41AA5A;" d="M88.8,194.55c-0.6,1.4-0.5,2.9,0.1,4c1.2-0.3,2.3-1.3,2.9-2.7s0.5-2.9-0.1-4   C90.5,192.15,89.3,193.15,88.8,194.55z"/>
	<path style="fill:#41AA5A;" d="M91.6,194.95c0.4,1.5,1.4,2.6,2.5,3.1c0.8-1,1.1-2.4,0.7-3.9s-1.4-2.6-2.5-3.1   C91.5,192.05,91.2,193.45,91.6,194.95z"/>
	<path style="fill:#41AA5A;" d="M96.1,192.55c1.4,0.5,2.9,0.4,4-0.3c-0.4-1.2-1.4-2.3-2.8-2.8s-2.9-0.4-4,0.3   C93.6,190.95,94.6,191.95,96.1,192.55z"/>
	<path style="fill:#41AA5A;" d="M97.4,190.05c1.4-0.6,2.3-1.8,2.6-3c-1.1-0.6-2.6-0.7-4-0.1s-2.3,1.8-2.6,3   C94.5,190.55,96,190.65,97.4,190.05z"/>
	<path style="fill:#41AA5A;" d="M88.1,191.25c1.2-0.9,1.9-2.2,2-3.4c-1.2-0.4-2.7-0.2-3.9,0.7c-1.2,0.9-1.9,2.2-2,3.4   C85.4,192.35,86.8,192.15,88.1,191.25z"/>
	<path style="fill:#41AA5A;" d="M87,189.45c1.9,1.1,3.9,1.4,5.5,0.9c-0.4-1.5-1.7-3.1-3.6-4.2c-1.9-1.1-3.9-1.4-5.5-0.9   C83.9,186.75,85.1,188.35,87,189.45z"/>
</g>
<path style="fill:#FFE15A;" d="M95.1,191.65c0-0.7-0.6-1.3-1.3-1.4c0-0.7-0.6-1.3-1.4-1.3s-1.3,0.6-1.4,1.3c-0.7,0-1.3,0.6-1.3,1.4  c0,0.7,0.6,1.3,1.3,1.4c0,0.7,0.6,1.3,1.4,1.3s1.3-0.6,1.4-1.3C94.5,193.05,95.1,192.45,95.1,191.65z"/>
<path style="fill:#F5F5F5;" d="M93.1,191.35c0.3,0.7-0.4,1.4-1.1,1.1c-0.2-0.1-0.3-0.2-0.3-0.3c-0.3-0.7,0.4-1.4,1.1-1.1  C92.9,191.05,93,191.15,93.1,191.35z"/>
<path style="fill:#FFE15A;" d="M90.8,190.35c0-0.6-0.5-1.1-1.1-1.1c0-0.6-0.5-1.1-1.1-1.1s-1.1,0.5-1.1,1.1c-0.6,0-1.1,0.5-1.1,1.1  s0.5,1.1,1.1,1.1c0,0.6,0.5,1.1,1.1,1.1s1.1-0.5,1.1-1.1C90.3,191.45,90.8,190.95,90.8,190.35z"/>
<path style="fill:#F5F5F5;" d="M89.2,190.05c0.3,0.6-0.3,1.2-0.9,0.9c-0.1-0.1-0.2-0.2-0.3-0.3c-0.3-0.6,0.3-1.2,0.9-0.9  C89,189.85,89.1,189.95,89.2,190.05z"/>
<path style="fill:#FFE15A;" d="M94.9,188.45c0-0.4-0.3-0.8-0.8-0.8c0-0.4-0.4-0.8-0.8-0.8s-0.8,0.3-0.8,0.8c-0.4,0-0.8,0.4-0.8,0.8  c0,0.4,0.3,0.8,0.8,0.8c0,0.4,0.4,0.8,0.8,0.8s0.8-0.3,0.8-0.8C94.5,189.25,94.9,188.85,94.9,188.45z"/>
<path style="fill:#F5F5F5;" d="M93.7,188.25c0.2,0.4-0.2,0.8-0.6,0.6c-0.1,0-0.2-0.1-0.2-0.2c-0.2-0.4,0.2-0.8,0.6-0.6  C93.6,188.05,93.7,188.15,93.7,188.25z"/>
<path style="fill:#FFE15A;" d="M91.9,187.05c0-0.4-0.3-0.8-0.8-0.8c0-0.4-0.4-0.8-0.8-0.8s-0.8,0.3-0.8,0.8c-0.4,0-0.8,0.4-0.8,0.8  c0,0.4,0.3,0.8,0.8,0.8c0,0.4,0.4,0.8,0.8,0.8s0.8-0.3,0.8-0.8C91.5,187.85,91.9,187.55,91.9,187.05z"/>
<g>
	<path style="fill:#F5F5F5;" d="M90.7,186.85c0.2,0.4-0.2,0.8-0.6,0.6c-0.1,0-0.2-0.1-0.2-0.2c-0.2-0.4,0.2-0.8,0.6-0.6   C90.6,186.65,90.7,186.75,90.7,186.85z"/>
	<path style="fill:#F5F5F5;" d="M126.8,199.05H142c-1-2.2-2.9-3.9-5.2-4.6c0.2-1.1,0.3-2.3,0.3-3.6c0-4.6-1.2-8.3-2.6-8.3   c-1.4,0-2.6,3.7-2.6,8.3c0,1.3,0.1,2.5,0.3,3.6C129.7,195.15,127.8,196.85,126.8,199.05z"/>
</g>
<path style="fill:#FFE15A;" d="M112.7,273.55c-32,0-58-26-58-58h10.9c0,25.9,21.1,47,47,47s47-21.1,47-47h10.9  C170.7,247.55,144.7,273.55,112.7,273.55z"/>
<path style="fill:#C87878;" d="M134.2,163.75h-9.5c1,0,1.7-0.8,1.7-1.7s-0.8-1.7-1.7-1.7h-12c-0.9,0-1.7,0.8-1.7,1.7  c0,1,0.8,1.7,1.7,1.7H91.2c-1.4,0-2.6,1.2-2.6,2.6s1.2,2.6,2.6,2.6H99c-0.9,0-1.7,0.8-1.7,1.7s0.8,1.7,1.7,1.7h15.5  c1,0,1.7-0.8,1.7-1.7s-0.8-1.7-1.7-1.7h19.8c1.4,0,2.6-1.2,2.6-2.6S135.7,163.75,134.2,163.75z"/>
<path style="fill:#2E3033;" d="M18.7,483.45L18.7,483.45c-10.3,0-18.7-8.3-18.7-18.7V47.15c0-10.3,8.3-18.6,18.6-18.6h0.2  c10.3,0,18.7,8.4,18.7,18.7v417.4C37.5,475.15,29.1,483.45,18.7,483.45z"/>
<g>
</g>
<g>
</g>
<g>
</g>
<g>
</g>
<g>
</g>
<g>
</g>
<g>
</g>
<g>
</g>
<g>
</g>
<g>
</g>
<g>
</g>
<g>
</g>
<g>
</g>
<g>
</g>
<g>
</g>
</svg>
