<?xml version="1.0" encoding="iso-8859-1"?>
<!-- Generator: Adobe Illustrator 19.0.0, SVG Export Plug-In . SVG Version: 6.00 Build 0)  -->
<svg xmlns="http://www.w3.org/2000/svg" xmlns:xlink="http://www.w3.org/1999/xlink" version="1.1" id="Layer_1" x="0px" y="0px" viewBox="0 0 512 512" style="enable-background:new 0 0 512 512;" xml:space="preserve">
<path style="fill:#FF4B55;" d="M512,162.357H26.68V64.821c0-4.668,3.785-8.453,8.453-8.453h468.414c4.668,0,8.453,3.785,8.453,8.453  V162.357z"/>
<path style="fill:#464655;" d="M503.547,374.337H35.133c-4.668,0-8.453-3.785-8.453-8.453v-97.537H512v97.536  C512,370.552,508.216,374.337,503.547,374.337z"/>
<rect x="26.68" y="162.357" style="fill:#F5F5F5;" width="485.32" height="105.99"/>
<g>
	<path style="fill:#73AF00;" d="M168.892,184.369l6.976,20.918l22.05,0.171c2.855,0.022,4.038,3.665,1.742,5.361l-17.739,13.099   l6.652,21.024c0.861,2.722-2.238,4.974-4.56,3.314l-17.94-12.822l-17.94,12.822c-2.322,1.66-5.422-0.592-4.56-3.314l6.652-21.024   l-17.739-13.099c-2.296-1.696-1.113-5.339,1.742-5.361l22.05-0.171l6.977-20.918C164.158,181.661,167.99,181.661,168.892,184.369z"/>
	<path style="fill:#73AF00;" d="M375.425,184.369l6.976,20.918l22.05,0.171c2.855,0.022,4.038,3.665,1.742,5.361l-17.739,13.099   l6.652,21.024c0.861,2.722-2.238,4.974-4.56,3.314l-17.94-12.822l-17.94,12.822c-2.322,1.66-5.422-0.592-4.56-3.314l6.652-21.024   l-17.739-13.099c-2.296-1.696-1.113-5.339,1.742-5.361l22.05-0.171l6.976-20.918C370.692,181.661,374.522,181.661,375.425,184.369z   "/>
</g>
<path style="fill:#2E3033;" d="M19.152,488.46L19.152,488.46C8.575,488.46,0,479.884,0,469.307V42.534  C0,32.044,8.504,23.54,18.994,23.54h0.157c10.577,0,19.152,8.575,19.152,19.152V469.31C38.303,479.884,29.728,488.46,19.152,488.46z  "/>
<g>
</g>
<g>
</g>
<g>
</g>
<g>
</g>
<g>
</g>
<g>
</g>
<g>
</g>
<g>
</g>
<g>
</g>
<g>
</g>
<g>
</g>
<g>
</g>
<g>
</g>
<g>
</g>
<g>
</g>
</svg>
