<?xml version="1.0" encoding="iso-8859-1"?>
<!-- Generator: Adobe Illustrator 19.0.0, SVG Export Plug-In . SVG Version: 6.00 Build 0)  -->
<svg xmlns="http://www.w3.org/2000/svg" xmlns:xlink="http://www.w3.org/1999/xlink" version="1.1" id="Layer_1" x="0px" y="0px" viewBox="0 0 512 512" style="enable-background:new 0 0 512 512;" xml:space="preserve">
<g>
	<path style="fill:#4173CD;" d="M35.41,318.408H512v49.249c0,4.568-3.703,8.271-8.271,8.271H43.68c-4.568,0-8.271-3.703-8.271-8.271   L35.41,318.408L35.41,318.408z"/>
	<path style="fill:#4173CD;" d="M43.68,63.678h460.049c4.568,0,8.271,3.703,8.271,8.271v49.249H35.41V71.949   C35.41,67.382,39.113,63.678,43.68,63.678z"/>
</g>
<rect x="35.41" y="121.2" style="fill:#FF4B55;" width="476.59" height="197.21"/>
<g>
	<rect x="35.41" y="112.98" style="fill:#FFE15A;" width="476.59" height="16.434"/>
	<rect x="35.41" y="310.19" style="fill:#FFE15A;" width="476.59" height="16.434"/>
	<path style="fill:#FFE15A;" d="M453.232,227.733H93.835c-2.455,0-4.446-1.99-4.446-4.446v-1.339c0-2.455,1.99-4.446,4.446-4.446   h359.398c2.455,0,4.446,1.99,4.446,4.446v1.339C457.678,225.742,455.688,227.733,453.232,227.733z"/>
</g>
<polygon style="fill:#F5F5F5;" points="383.508,207.272 401.411,199.599 419.315,207.272 401.411,214.945 "/>
<path style="fill:#FFE15A;" d="M387.913,204.004H125.195c-1.805,0-3.268,1.463-3.268,3.268s1.463,3.268,3.268,3.268h262.719  c1.805,0,3.268-1.463,3.268-3.268C391.181,205.467,389.719,204.004,387.913,204.004z"/>
<polygon style="fill:#F5F5F5;" points="402.122,189.368 420.025,181.696 437.928,189.368 420.025,197.042 "/>
<path style="fill:#FFE15A;" d="M406.527,186.1H143.808c-1.805,0-3.268,1.463-3.268,3.268s1.463,3.268,3.268,3.268h262.719  c1.805,0,3.268-1.463,3.268-3.268C409.795,187.564,408.332,186.1,406.527,186.1z"/>
<path style="fill:#F5F5F5;" d="M273.534,156.121c-45.432,0-85.07,25.728-106.299,63.939c21.229,38.211,60.867,63.939,106.299,63.939  s85.07-25.728,106.299-63.939C358.603,181.848,318.965,156.121,273.534,156.121z"/>
<path style="fill:#464655;" d="M167.235,220.06c21.229,38.211,60.867,63.939,106.299,63.939c7.586,0,14.992-0.778,22.196-2.151  c-5.501-12.074-24.846-12.054-26.033-16.604c-1.279-4.902,15.771-3.837,18.755-7.886s-16.198-5.754-17.05-9.804  s7.672-6.82,9.165-13.214c1.492-6.393,4.901-8.312,7.459-12.149s-4.263-5.116-5.967-17.903  c-1.705-12.788-11.722-14.493-16.624-24.937c-4.903-10.443,2.984-18.116,8.099-23.231  C228.102,156.121,188.464,181.848,167.235,220.06z"/>
<g>
	<rect x="207.04" y="197.04" style="fill:#F5F5F5;" width="5.116" height="20.461"/>
	<rect x="217.26" y="197.04" style="fill:#F5F5F5;" width="5.116" height="20.461"/>
	<rect x="227.5" y="197.04" style="fill:#F5F5F5;" width="5.116" height="20.461"/>
	<rect x="237.72" y="197.04" style="fill:#F5F5F5;" width="5.116" height="20.461"/>
	<rect x="247.96" y="197.04" style="fill:#F5F5F5;" width="5.116" height="20.461"/>
	<rect x="258.19" y="197.04" style="fill:#F5F5F5;" width="5.116" height="20.461"/>
	<rect x="207.04" y="227.74" style="fill:#F5F5F5;" width="5.116" height="20.46"/>
	<rect x="217.26" y="227.74" style="fill:#F5F5F5;" width="5.116" height="20.46"/>
	<rect x="227.5" y="227.74" style="fill:#F5F5F5;" width="5.116" height="20.46"/>
	<rect x="237.72" y="227.74" style="fill:#F5F5F5;" width="5.116" height="20.46"/>
	<rect x="247.96" y="227.74" style="fill:#F5F5F5;" width="5.116" height="20.46"/>
	<rect x="258.19" y="227.74" style="fill:#F5F5F5;" width="5.116" height="20.46"/>
</g>
<g>
	<rect x="283.76" y="197.04" style="fill:#464655;" width="5.116" height="20.461"/>
	<rect x="294" y="197.04" style="fill:#464655;" width="5.116" height="20.461"/>
	<rect x="304.22" y="197.04" style="fill:#464655;" width="5.116" height="20.461"/>
	<rect x="314.46" y="197.04" style="fill:#464655;" width="5.116" height="20.461"/>
	<rect x="324.68" y="197.04" style="fill:#464655;" width="5.116" height="20.461"/>
	<rect x="334.92" y="197.04" style="fill:#464655;" width="5.116" height="20.461"/>
	<rect x="283.76" y="227.74" style="fill:#464655;" width="5.116" height="20.46"/>
	<rect x="294" y="227.74" style="fill:#464655;" width="5.116" height="20.46"/>
	<rect x="304.22" y="227.74" style="fill:#464655;" width="5.116" height="20.46"/>
	<rect x="314.46" y="227.74" style="fill:#464655;" width="5.116" height="20.46"/>
	<rect x="324.68" y="227.74" style="fill:#464655;" width="5.116" height="20.46"/>
	<rect x="334.92" y="227.74" style="fill:#464655;" width="5.116" height="20.46"/>
</g>
<path style="fill:#245DBD;" d="M431.376,216.703c-4.096,9.517-15.754,10.636-9.294,34.894l3.308-3.359  c0,0,3.465,9.143,11.815,15.301c0,0,10.24-8.583,11.028-22.205l4.253,1.866C452.486,243.199,450.438,218.383,431.376,216.703z"/>
<g>
	<path style="fill:#FF4B55;" d="M446.499,236.202c-0.328,0-0.652-0.152-0.898-0.449c-4.012-4.839-9.123-6.391-9.171-6.409   c-0.674-0.199-1.088-1.009-0.921-1.807c0.167-0.793,0.852-1.288,1.524-1.091c0.237,0.07,5.836,1.755,10.365,7.218   c0.487,0.583,0.48,1.533-0.014,2.111C447.137,236.063,446.819,236.202,446.499,236.202z"/>
	<path style="fill:#FF4B55;" d="M443.612,247.491c-0.376,0-0.751-0.199-1-0.583c-2.976-4.583-6.351-7.079-6.385-7.103   c-0.593-0.431-0.775-1.353-0.411-2.058c0.367-0.7,1.142-0.915,1.735-0.484c0.155,0.111,3.806,2.816,7.06,7.825   c0.423,0.653,0.319,1.592-0.232,2.094C444.151,247.392,443.88,247.491,443.612,247.491z"/>
	<path style="fill:#FF4B55;" d="M436.998,260.057c-0.071,0-0.143-0.006-0.217-0.024c-0.684-0.14-1.147-0.91-1.029-1.72   c0.497-3.417,0.082-9.02-0.601-11.913c-0.187-0.793,0.205-1.615,0.874-1.842c0.677-0.216,1.366,0.245,1.553,1.038   c0.77,3.265,1.221,9.358,0.66,13.219C438.133,259.544,437.598,260.057,436.998,260.057z"/>
	<path style="fill:#FF4B55;" d="M428.134,246.272c-0.36,0-0.716-0.181-0.965-0.53c-0.448-0.63-0.381-1.575,0.15-2.105   c0.032-0.029,3.249-3.295,4.089-7.814c0.15-0.804,0.817-1.312,1.501-1.137c0.679,0.175,1.11,0.974,0.959,1.778   c-1.029,5.528-4.768,9.301-4.928,9.458C428.705,246.156,428.419,246.272,428.134,246.272z"/>
	<path style="fill:#FF4B55;" d="M424.634,236.721c-0.423,0-0.837-0.251-1.075-0.711c-0.364-0.7-0.18-1.621,0.414-2.052   c0.047-0.035,4.618-3.399,6.036-7.074c0.288-0.758,1.041-1.091,1.672-0.74c0.633,0.344,0.911,1.23,0.622,1.977   c-1.74,4.508-6.797,8.222-7.011,8.379C425.084,236.651,424.857,236.721,424.634,236.721z"/>
</g>
<path style="fill:#245DBD;" d="M112.004,219.907c-3.425,7.958-13.173,8.893-7.773,29.176l2.767-2.809c0,0,2.898,7.645,9.88,12.794  c0,0,8.562-7.177,9.221-18.567l3.556,1.56C129.655,242.062,127.943,221.31,112.004,219.907z"/>
<g>
	<path style="fill:#FF4B55;" d="M124.649,236.21c-0.274,0-0.545-0.127-0.752-0.375c-3.355-4.047-7.628-5.344-7.669-5.358   c-0.563-0.165-0.91-0.844-0.77-1.512c0.14-0.663,0.712-1.077,1.274-0.912c0.197,0.059,4.88,1.468,8.667,6.037   c0.407,0.488,0.401,1.282-0.012,1.765C125.182,236.094,124.917,236.21,124.649,236.21z"/>
	<path style="fill:#FF4B55;" d="M122.235,245.651c-0.315,0-0.628-0.165-0.835-0.488c-2.488-3.833-5.311-5.919-5.339-5.938   c-0.496-0.361-0.648-1.131-0.343-1.721c0.307-0.585,0.955-0.765,1.452-0.404c0.129,0.093,3.182,2.355,5.903,6.543   c0.355,0.546,0.268,1.331-0.193,1.75C122.686,245.568,122.459,245.651,122.235,245.651z"/>
	<path style="fill:#FF4B55;" d="M116.705,256.158c-0.06,0-0.119-0.005-0.181-0.02c-0.573-0.117-0.959-0.761-0.86-1.438   c0.416-2.858,0.068-7.543-0.502-9.961c-0.156-0.663,0.171-1.35,0.731-1.54c0.567-0.18,1.142,0.205,1.299,0.867   c0.644,2.73,1.021,7.825,0.552,11.053C117.654,255.729,117.207,256.158,116.705,256.158z"/>
	<path style="fill:#FF4B55;" d="M109.293,244.631c-0.301,0-0.599-0.151-0.807-0.444c-0.374-0.526-0.318-1.316,0.126-1.76   c0.027-0.025,2.717-2.755,3.419-6.534c0.125-0.673,0.683-1.097,1.255-0.951c0.568,0.147,0.928,0.815,0.803,1.487   c-0.86,4.622-3.987,7.777-4.121,7.909C109.77,244.534,109.532,244.631,109.293,244.631z"/>
	<path style="fill:#FF4B55;" d="M106.366,236.645c-0.354,0-0.7-0.21-0.899-0.594c-0.305-0.585-0.15-1.355,0.345-1.716   c0.039-0.029,3.861-2.843,5.047-5.915c0.241-0.634,0.871-0.912,1.398-0.619c0.529,0.287,0.762,1.029,0.521,1.653   c-1.456,3.769-5.683,6.875-5.862,7.006C106.743,236.587,106.553,236.645,106.366,236.645z"/>
</g>
<path style="fill:#2E3033;" d="M18.739,483.448L18.739,483.448C8.39,483.448,0,475.059,0,464.709V47.137  c0-10.264,8.32-18.585,18.585-18.585h0.154c10.349,0,18.739,8.39,18.739,18.739v417.42  C37.477,475.059,29.088,483.448,18.739,483.448z"/>
<g>
</g>
<g>
</g>
<g>
</g>
<g>
</g>
<g>
</g>
<g>
</g>
<g>
</g>
<g>
</g>
<g>
</g>
<g>
</g>
<g>
</g>
<g>
</g>
<g>
</g>
<g>
</g>
<g>
</g>
</svg>
