<?xml version="1.0" encoding="iso-8859-1"?>
<!-- Generator: Adobe Illustrator 19.0.0, SVG Export Plug-In . SVG Version: 6.00 Build 0)  -->
<svg xmlns="http://www.w3.org/2000/svg" xmlns:xlink="http://www.w3.org/1999/xlink" version="1.1" id="Layer_1" x="0px" y="0px" viewBox="0 0 512 512" style="enable-background:new 0 0 512 512;" xml:space="preserve">
<path style="fill:#41479B;" d="M503.5,373.8H35.4c-4.6,0-8.4-3.7-8.4-8.4V64.5c0-4.6,3.7-8.4,8.4-8.4h468.2c4.6,0,8.4,3.7,8.4,8.4  v300.9C511.9,370,508.2,373.8,503.5,373.8z"/>
<path style="fill:#F5F5F5;" d="M265,56.1h-14.5L173,106.8V56.1h-41.8v50.7L53.8,56.1H39.3c-4.6,0-8.4,3.7-8.4,8.4v6.6l66.5,43.5H31  v41.8h66.5L31,199.9v6.6c0,4.6,3.7,8.4,8.4,8.4h14.5l77.5-50.7v50.7h41.8v-50.7l77.5,50.7h14.5c4.6,0,8.4-3.7,8.4-8.4v-6.6  L207,156.4h66.5v-41.8H207l66.5-43.5v-6.6C273.4,59.9,269.7,56.1,265,56.1z"/>
<g>
	<polygon style="fill:#FF4B55;" points="273.4,123 164.8,123 164.8,56.1 139.7,56.1 139.7,123 31,123 31,148 139.7,148 139.7,214.9    164.8,214.9 164.8,148 273.4,148  "/>
	<path style="fill:#FF4B55;" d="M123,114.7L35,57.5c-2.3,1.5-4,4-4,6.9v0.4l76.6,49.7C107.6,114.7,123,114.7,123,114.7z"/>
	<path style="fill:#FF4B55;" d="M188.5,114.7l83.7-54.3c-1.5-2.5-4-4.2-7.1-4.2h-1.8l-90.2,58.5H188.5z"/>
	<path style="fill:#FF4B55;" d="M115.8,156.4l-83.6,54.2c1.4,2.5,4,4.3,7.2,4.3H41l90.2-58.5H115.8z"/>
	<path style="fill:#FF4B55;" d="M273.3,207.2L195,156.4h-15.4l88.9,57.7C271.2,212.9,273,210.3,273.3,207.2z"/>
</g>
<path style="fill:#FFE15A;" d="M352.8,167.5c-1,0-1.8,0.8-1.8,1.8v31c0,62.1,43.8,73,43.8,73s43.8-11,43.8-73v-31  c0-1-0.8-1.8-1.8-1.8L352.8,167.5L352.8,167.5z"/>
<path style="fill:#F5F5F5;" d="M434.1,172.1v28.3c0,52.8-32.6,66.1-39.3,68.3c-6.7-2.2-39.3-15.5-39.3-68.3v-28.3H434.1   M436.8,167.5h-84c-1,0-1.8,0.8-1.8,1.8v31c0,62.1,43.8,73,43.8,73s43.8-11,43.8-73v-31C438.7,168.3,437.8,167.5,436.8,167.5  L436.8,167.5z"/>
<path style="fill:#73AF00;" d="M399.7,225.4h-9.3c0,0-7.5,7.5-9.3,24.1c-0.1,0.5,0.2,1.1,0.6,1.4c1.6,1.2,6,4.1,13.4,4.1  c7.3,0,11.8-2.9,13.4-4.1c0.4-0.3,0.6-0.9,0.6-1.4C407.3,232.9,399.7,225.4,399.7,225.4z"/>
<g>
	<path style="fill:#FF4B55;" d="M399.7,223.8h-9.3V216c0-2.6,2.1-4.7,4.7-4.7l0,0c2.6,0,4.7,2.1,4.7,4.7v7.8H399.7z"/>
	<path style="fill:#FF4B55;" d="M399.7,226.9h-9.3c-0.9,0-1.6-0.7-1.6-1.6l0,0c0-0.9,0.7-1.6,1.6-1.6h9.3c0.9,0,1.6,0.7,1.6,1.6l0,0   C401.3,226.2,400.6,226.9,399.7,226.9z"/>
</g>
<path style="fill:#D35A10;" d="M430.9,192.5c-0.3,0-4.3,0-8.6,0.7v-2.4c3.6-1.6,7.1-2.5,7.1-2.5c0.4-0.1,0.7-0.5,0.6-0.9  s-0.5-0.7-0.9-0.6c-0.2,0.1-3.4,0.8-6.8,2.3c-0.1-0.9-0.4-1.8-0.9-2.5c2.8-2.2,5.2-3.5,5.2-3.6c0.4-0.2,0.5-0.7,0.3-1.1  s-0.7-0.5-1.1-0.3c-0.2,0.1-2.7,1.5-5.6,3.8c-0.7-0.5-1.6-0.8-2.6-0.8s-1.9,0.3-2.7,0.9c0.8-4,2.4-5.7,2.5-5.8  c0.3-0.3,0.3-0.8,0-1.1s-0.8-0.3-1.1,0c-0.1,0.1-1.6,1.7-2.6,5.2c-1-3.5-2.5-5.1-2.6-5.2c-0.3-0.3-0.8-0.3-1.1,0s-0.3,0.8,0,1.1  c0,0,1.7,1.8,2.5,5.8c-0.8-0.5-1.7-0.9-2.7-0.9s-1.9,0.3-2.6,0.8c-2.9-2.3-5.4-3.7-5.6-3.8c-0.4-0.2-0.8-0.1-1.1,0.3  c-0.2,0.4-0.1,0.8,0.3,1.1c0,0,2.4,1.4,5.2,3.6c-0.5,0.7-0.8,1.6-0.9,2.5c-3.4-1.5-6.6-2.2-6.8-2.3c-0.4-0.1-0.8,0.2-0.9,0.6  c-0.1,0.4,0.2,0.8,0.6,0.9c0.1,0,3.6,0.9,7.1,2.5v2.4c-4.2-0.7-8.3-0.7-8.6-0.7c-0.4,0-0.8,0.3-0.8,0.8c0,0.4,0.3,0.8,0.8,0.8  c0.1,0,4.3,0,8.6,0.8v2.5c-2.3-0.1-4.9,0.3-7.4,1.5c-0.4,0.2-0.5,0.7-0.3,1c0.1,0.3,0.4,0.4,0.7,0.4c0.1,0,0.2,0,0.3-0.1  c2.1-1.1,4.5-1.4,6.7-1.3v9.6c0,1.2-0.1,2.4-0.3,3.5l-1.2,6c-0.1,0.4,0.2,0.8,0.6,0.9c0.1,0,0.1,0,0.2,0c0.4,0,0.7-0.3,0.8-0.6  l1.2-6c0.3-1.3,0.4-2.5,0.4-3.8V199c1.2,0.1,2.2,0.3,3.1,0.6l0.6,7.7c0.1,1,0.6,1.8,1.3,2.4l-2.5,3.8c-1.4,2,0.1,4.7,2.5,4.7h4.2  c2.4,0,3.9-2.7,2.5-4.7l-2.5-3.8c0.7-0.6,1.2-1.4,1.3-2.4l0.6-7.7c0.8-0.2,1.9-0.4,3.1-0.6v9.5c0,1.3,0.1,2.6,0.4,3.8l1.2,6  c0.1,0.4,0.4,0.6,0.8,0.6c0.1,0,0.1,0,0.2,0c0.4-0.1,0.7-0.5,0.6-0.9l-1.2-6c-0.2-1.2-0.3-2.3-0.3-3.5v-9.6c2.1-0.1,4.5,0.2,6.7,1.3  c0.1,0.1,0.2,0.1,0.3,0.1c0.3,0,0.6-0.2,0.7-0.4c0.2-0.4,0-0.9-0.3-1c-2.4-1.2-5-1.5-7.4-1.5v-2.5c4.2-0.8,8.5-0.8,8.6-0.8  c0.4,0,0.8-0.3,0.8-0.8C431.7,192.8,431.3,192.5,430.9,192.5z M420.8,193.5c-0.9,0.2-1.8,0.4-2.7,0.7c0-0.3-0.1-0.6-0.1-0.9  c0.9-0.7,1.8-1.3,2.8-1.8L420.8,193.5L420.8,193.5z M420.8,189.4v0.4c-1.2,0.6-2.4,1.3-3.5,2.1c-0.2-0.3-0.5-0.6-0.8-0.8  c1.2-1.3,2.5-2.5,3.7-3.5C420.5,188.1,420.8,188.7,420.8,189.4z M417.6,186.3c0.5,0,0.9,0.1,1.3,0.3c-1.3,1.1-2.7,2.4-3.9,3.8  c-0.2,0-0.3-0.1-0.5-0.1v-0.1c0-0.4,0-0.7,0-1C414.7,187.5,416,186.3,417.6,186.3z M409.9,186.3c1.6,0,3,1.3,3.1,2.9  c0,0.3,0,0.7,0,1v0.1c-0.2,0-0.3,0.1-0.5,0.1c-1.2-1.4-2.6-2.7-3.9-3.8C409,186.4,409.4,186.3,409.9,186.3z M406.7,189.4  c0-0.7,0.2-1.3,0.6-1.8c1.3,1.1,2.6,2.3,3.7,3.5c-0.3,0.2-0.6,0.5-0.8,0.8c-1.1-0.8-2.3-1.5-3.5-2.1L406.7,189.4L406.7,189.4z   M406.7,191.6c1,0.5,2,1.1,2.8,1.8c-0.1,0.3-0.1,0.6-0.1,0.9c-0.9-0.3-1.8-0.5-2.7-0.7L406.7,191.6L406.7,191.6z M406.7,197.4v-2.3  c1,0.2,1.9,0.5,2.8,0.8l0.2,2C408.8,197.7,407.8,197.6,406.7,197.4z M420.8,197.4c-1.1,0.1-2.1,0.3-2.9,0.5l0.2-2  c0.9-0.3,1.8-0.6,2.8-0.8L420.8,197.4L420.8,197.4z"/>
<path style="fill:#FFA033;" d="M381.7,213.5h-3.5l-13.4-11.9c-1.5-1.3-2.1-3.3-1.6-5.2l3.7-14.9c0.3-1.3,2-1.8,2.9-0.8l6,6  c0.3,0.3,0.8,0.5,1.2,0.5h4.5L381.7,213.5L381.7,213.5z"/>
<path style="fill:#FF9480;" d="M379.2,183.7l-2.1,9.7c-0.4,1.8-0.3,3.6,0.2,5.3l4.5,14.9h3.5l4.5-14.9c0.5-1.7,0.6-3.5,0.2-5.3  l-2.1-9.7c-0.4-2-2.2-3.4-4.3-3.4l0,0C381.4,180.3,379.6,181.7,379.2,183.7z"/>
<path style="fill:#FFA0E4;" d="M383.4,183.8L383.4,183.8c-1,0-1.7,0.8-1.7,1.7v28h3.5v-28C385.2,184.6,384.4,183.8,383.4,183.8z"/>
<path style="fill:#2E3033;" d="M19.2,489L19.2,489C8.6,489,0,480.4,0,469.8V42c0-10.5,8.5-19,19-19h0.2c10.6,0,19.2,8.6,19.2,19.2  v427.7C38.4,480.4,29.8,489,19.2,489z"/>
<g>
</g>
<g>
</g>
<g>
</g>
<g>
</g>
<g>
</g>
<g>
</g>
<g>
</g>
<g>
</g>
<g>
</g>
<g>
</g>
<g>
</g>
<g>
</g>
<g>
</g>
<g>
</g>
<g>
</g>
</svg>
