<?xml version="1.0" encoding="iso-8859-1"?>
<!-- Generator: Adobe Illustrator 19.0.0, SVG Export Plug-In . SVG Version: 6.00 Build 0)  -->
<svg xmlns="http://www.w3.org/2000/svg" xmlns:xlink="http://www.w3.org/1999/xlink" version="1.1" id="Layer_1" x="0px" y="0px" viewBox="0 0 512.001 512.001" style="enable-background:new 0 0 512.001 512.001;" xml:space="preserve">
<g>
	<path style="fill:#73AF00;" d="M512,128.192H35.41V74.013c0-4.568,3.703-8.271,8.271-8.271H503.73c4.568,0,8.271,3.703,8.271,8.271   v54.179H512z"/>
	<rect x="35.41" y="190.641" style="fill:#73AF00;" width="476.59" height="62.45"/>
</g>
<rect x="35.41" y="128.191" style="fill:#FFE15A;" width="476.59" height="62.45"/>
<path style="fill:#73AF00;" d="M503.729,377.99H43.68c-4.568,0-8.271-3.703-8.271-8.271V315.54H512v54.179  C512,374.287,508.297,377.99,503.729,377.99z"/>
<rect x="35.41" y="253.091" style="fill:#FFE15A;" width="476.59" height="62.45"/>
<path style="fill:#FF4B55;" d="M216.131,253.091H43.68c-4.568,0-8.271-3.703-8.271-8.271V74.013c0-4.568,3.703-8.271,8.271-8.271  h172.45c4.568,0,8.271,3.703,8.271,8.271v170.808C224.402,249.388,220.699,253.091,216.131,253.091z"/>
<path style="fill:#F5F5F5;" d="M127.875,109.828l-11.876,35.606l-37.534,0.292c-2.057,0.016-2.911,2.641-1.256,3.865l30.195,22.297  l-11.322,35.787c-0.62,1.962,1.613,3.584,3.288,2.388l30.536-21.826l30.536,21.826c1.674,1.196,3.908-0.426,3.288-2.388  l-11.322-35.787l30.195-22.297c1.655-1.222,0.802-3.848-1.256-3.865l-37.533-0.291l-11.875-35.607  C131.286,107.875,128.525,107.875,127.875,109.828z"/>
<path style="fill:#2E3033;" d="M18.739,483.449L18.739,483.449C8.39,483.449,0,475.059,0,464.71V47.138  c0-10.264,8.32-18.585,18.585-18.585h0.154c10.349,0,18.739,8.39,18.739,18.739v417.42  C37.477,475.059,29.088,483.449,18.739,483.449z"/>
<g>
</g>
<g>
</g>
<g>
</g>
<g>
</g>
<g>
</g>
<g>
</g>
<g>
</g>
<g>
</g>
<g>
</g>
<g>
</g>
<g>
</g>
<g>
</g>
<g>
</g>
<g>
</g>
<g>
</g>
</svg>
