<?xml version="1.0" encoding="iso-8859-1"?>
<!-- Generator: Adobe Illustrator 19.0.0, SVG Export Plug-In . SVG Version: 6.00 Build 0)  -->
<svg xmlns="http://www.w3.org/2000/svg" xmlns:xlink="http://www.w3.org/1999/xlink" version="1.1" id="Layer_1" x="0px" y="0px" viewBox="0 0 512 512" style="enable-background:new 0 0 512 512;" xml:space="preserve">
<path style="fill:#F5F5F5;" d="M503.6,373.9H35.4c-4.7,0-8.4-3.8-8.4-8.4V64.6c0-4.7,3.8-8.4,8.4-8.4h468.1c4.7,0,8.4,3.8,8.4,8.4  v300.9C512,370.1,508.2,373.9,503.6,373.9z"/>
<g>
	<path style="fill:#FF4B55;" d="M503.6,373.9H35.4c-4.7,0-8.4-3.8-8.4-8.4v-41.7h485v41.7C512,370.1,508.2,373.9,503.6,373.9z"/>
	<path style="fill:#FF4B55;" d="M35.4,56.1h468.1c4.7,0,8.4,3.8,8.4,8.4v41.7H27V64.6C27,59.9,30.8,56.1,35.4,56.1z"/>
</g>
<rect x="27" y="156.5" style="fill:#41479B;" width="485" height="117.1"/>
<path style="fill:#2E3033;" d="M19.1,488.1L19.1,488.1C8.6,488.1,0,479.5,0,469V42.9c0-10.5,8.5-19,19-19h0.2  c10.6,0,19.1,8.6,19.1,19.1v426C38.2,479.5,29.7,488.1,19.1,488.1z"/>
<g>
</g>
<g>
</g>
<g>
</g>
<g>
</g>
<g>
</g>
<g>
</g>
<g>
</g>
<g>
</g>
<g>
</g>
<g>
</g>
<g>
</g>
<g>
</g>
<g>
</g>
<g>
</g>
<g>
</g>
</svg>
