<?xml version="1.0" encoding="iso-8859-1"?>
<!-- Generator: Adobe Illustrator 19.0.0, SVG Export Plug-In . SVG Version: 6.00 Build 0)  -->
<svg xmlns="http://www.w3.org/2000/svg" xmlns:xlink="http://www.w3.org/1999/xlink" version="1.1" id="Layer_1" x="0px" y="0px" viewBox="0 0 512 512" style="enable-background:new 0 0 512 512;" xml:space="preserve">
<path style="fill:#FFE15A;" d="M503.471,379.668H29.07c-4.71,0-8.529-3.819-8.529-8.529V66.207c0-4.71,3.819-8.529,8.529-8.529  h474.401c4.71,0,8.529,3.819,8.529,8.529v304.932C512,375.849,508.181,379.668,503.471,379.668z"/>
<rect x="45.96" y="83.099" style="fill:#41479B;" width="466.04" height="271.15"/>
<g>
	<polygon style="fill:#FF4B55;" points="45.961,83.098 278.981,218.673 162.472,83.099  "/>
	<polygon style="fill:#FF4B55;" points="278.981,218.673 278.981,83.098 395.492,83.099  "/>
	<polygon style="fill:#FF4B55;" points="512,83.098 278.981,218.673 512,150.886  "/>
	<polygon style="fill:#FF4B55;" points="278.981,218.673 512,218.673 512,286.46  "/>
	<polygon style="fill:#FF4B55;" points="278.981,218.673 45.963,150.887 45.963,218.673  "/>
	<polygon style="fill:#FF4B55;" points="45.963,286.461 278.981,218.673 45.963,354.249  "/>
</g>
<g>
	<polygon style="fill:#FFE15A;" points="282.879,193.873 313.264,123.799 290.829,196.809  "/>
	<path style="fill:#FFE15A;" d="M322.89,234.169c0.662-1.874,1.24-3.786,1.66-5.761l50.64,4.492l-49.815-10.069   c0.122-1.372,0.21-2.754,0.21-4.157c0-1.351-0.09-2.68-0.203-4.002l49.409-10.405l-50.193,4.863   c-0.439-2.111-1.064-4.147-1.778-6.143l44.851-23.448l-47.053,18.289c-1.198-2.389-2.596-4.654-4.171-6.786l37.19-34.29   l-40.785,29.979c-4.324-4.583-9.544-8.308-15.413-10.843l14.813-48.202l-20.08,46.31c-4.186-1.233-8.606-1.924-13.192-1.924   c-4.623,0-9.079,0.696-13.294,1.95l-20.091-46.336l14.827,48.25c-5.849,2.543-11.05,6.266-15.358,10.846l-40.853-30.029   l37.257,34.353c-1.565,2.126-2.952,4.381-4.143,6.76l-47.149-18.326l44.947,23.498c-0.707,1.983-1.327,4.006-1.763,6.104   l-50.303-4.873l49.52,10.43c-0.111,1.315-0.2,2.635-0.2,3.979c0,1.396,0.088,2.77,0.208,4.134l-49.927,10.092l50.75-4.501   c0.417,1.962,0.989,3.86,1.645,5.723l-44.757,22.871l46.92-17.737c7.606,15.401,23.426,26.022,41.765,26.022   c18.325,0,34.134-10.602,41.747-25.984l46.824,17.7L322.89,234.169z"/>
</g>
<path style="fill:#F5F5F5;" d="M512,354.248L284.307,221.772c-3.293-1.916-7.36-1.916-10.654,0L45.961,354.248H512z"/>
<g>
	<circle style="fill:#FF4B55;" cx="279.02" cy="285.149" r="1.763"/>
	<path style="fill:#FF4B55;" d="M276.332,226.087c5.29,6.54-3.27,9.809-2.212,16.061c0,0-1.731-2.597-1.058-6.252   c0.673-3.655-1.635-4.808-1.635-4.808s1.058,4.135-1.538,6.444c-2.597,2.308-1.827,7.598-1.827,7.598s-3.27-2.212-2.597-5.578   c0,0-4.424,3.847-0.481,10.29c0,0-2.597-0.192-3.559-1.827c0,0-2.303,6.78,6.976,11.95c9.278,5.17,10.625-7.141,10.625-7.141   l6.637,8.271c0,0,7.95-0.224,11.734-8.752l-4.552,0.834c0.289-2.404,6.38-3.046,3.976-10.259c0,0-0.192,1.538-1.923,2.597   c0,0,0.064-4.969-3.527-8.239c0,0-0.128,2.661-1.283,3.623c0,0,0.385-3.43-1.731-6.123c-2.021-2.574-2.212-4.937-2.212-4.937   s-2.404,4.424-1.538,6.637c0,0-2.005-0.487-2.212-3.174C281.943,227.466,276.332,226.087,276.332,226.087z"/>
</g>
<ellipse style="fill:#FFE15A;" cx="279.02" cy="278.569" rx="15.01" ry="6.429"/>
<ellipse style="fill:#FF4B55;" cx="279.02" cy="277.169" rx="12.98" ry="5.816"/>
<g>
	<path style="fill:#FF82AA;" d="M281.742,277.925h-5.441c-0.096,1.697,0.672,4.159,2.716,5.051v0.005   c0.001,0,0.002-0.002,0.002-0.002s0.004,0.002,0.005,0.002v-0.005C281.07,282.084,281.838,279.622,281.742,277.925z"/>
	<path style="fill:#FF82AA;" d="M286.069,276.878l-4.937,1.159c0.301,1.673,1.56,3.906,3.618,4.339l0.001,0.005l0.003-0.004   c0.001,0,0.003,0.002,0.003,0.002v-0.005C286.409,281.07,286.544,278.51,286.069,276.878z"/>
	<path style="fill:#FF82AA;" d="M288.623,275.106l-3.437,2.252c0.869,1.459,2.704,3.2,4.484,3.101l0.003,0.004l0.001-0.004   c0,0,0.003,0.001,0.004,0.001l-0.003-0.004C290.478,278.862,289.615,276.485,288.623,275.106z"/>
	<path style="fill:#FF82AA;" d="M288.523,271.626l-1.352,3.414c1.833,2.333,4.838,2.092,4.838,2.092   C292.128,275.233,289.761,272.789,288.523,271.626z"/>
	<path style="fill:#FF82AA;" d="M271.929,276.878l4.937,1.159c-0.301,1.673-1.56,3.906-3.618,4.339l-0.001,0.005l-0.003-0.004   l-0.004,0.002l0.001-0.005C271.589,281.07,271.453,278.51,271.929,276.878z"/>
	<path style="fill:#FF82AA;" d="M269.373,275.106l3.437,2.252c-0.869,1.459-2.704,3.2-4.484,3.101l-0.003,0.004l-0.001-0.004   l-0.004,0.001l0.003-0.004C267.519,278.862,268.383,276.485,269.373,275.106z"/>
	<path style="fill:#FF82AA;" d="M269.475,271.626l1.352,3.414c-1.834,2.333-4.839,2.092-4.839,2.092   C265.869,275.233,268.237,272.789,269.475,271.626z"/>
</g>
<ellipse style="fill:#FFE15A;" cx="279.02" cy="273.639" rx="10.534" ry="4.721"/>
<ellipse style="fill:#FF4B55;" cx="279.02" cy="273.639" rx="7.838" ry="3.067"/>
<path style="fill:#41479B;" d="M279.816,326.683c-5.124,0.435-9.624-3.373-10.061-8.489c-0.225-2.558,1.681-4.815,4.243-5.032  c2.561-0.219,4.81,1.681,5.028,4.243s2.473,4.456,5.03,4.244c2.563-0.217,4.465-2.477,4.242-5.033  C288.734,321.739,284.936,326.245,279.816,326.683"/>
<path style="fill:#FF9B55;" d="M269.755,318.194c-0.225-2.558,1.681-4.815,4.243-5.032c2.561-0.219,4.81,1.681,5.028,4.243  s2.473,4.456,5.03,4.244c2.563-0.217,4.465-2.477,4.242-5.033c-0.429-5.128-4.934-8.923-10.058-8.487  C273.12,308.565,269.319,313.07,269.755,318.194"/>
<path style="fill:#FFE15A;" d="M279.025,302.169c-8.414,0-15.234,6.82-15.234,15.234c0,8.413,6.82,15.234,15.234,15.234  s15.234-6.821,15.234-15.234C294.258,308.989,287.439,302.169,279.025,302.169z M279.025,329.463c-6.66,0-12.06-5.4-12.06-12.06  s5.4-12.06,12.06-12.06s12.06,5.4,12.06,12.06S285.686,329.463,279.025,329.463z"/>
<path style="fill:#FF4B55;" d="M279.025,305.343c-6.66,0-12.06,5.4-12.06,12.06s5.4,12.06,12.06,12.06s12.06-5.4,12.06-12.06  S285.686,305.343,279.025,305.343z M279.025,326.641c-5.101,0-9.238-4.135-9.238-9.238s4.135-9.238,9.238-9.238  c5.101,0,9.238,4.135,9.238,9.238S284.127,326.641,279.025,326.641z"/>
<circle style="fill:#FF9B55;" cx="274.33" cy="317.399" r="1.163"/>
<circle style="fill:#41479B;" cx="283.65" cy="317.399" r="1.163"/>
<g>
	<circle style="fill:#FF4B55;" cx="279.02" cy="298.429" r="1.409"/>
	<circle style="fill:#FF4B55;" cx="280.43" cy="300.889" r="1.409"/>
	<circle style="fill:#FF4B55;" cx="277.62" cy="300.889" r="1.409"/>
	<circle style="fill:#FF4B55;" cx="279.02" cy="336.419" r="1.409"/>
	<circle style="fill:#FF4B55;" cx="277.62" cy="333.959" r="1.409"/>
	<circle style="fill:#FF4B55;" cx="280.43" cy="333.959" r="1.409"/>
</g>
<path style="fill:#FF9B55;" d="M276.447,258.522c-0.968-5.403-3.554-9.46-5.776-9.061c-2.222,0.399-3.239,5.1-2.27,10.503  c0.698,3.899,2.246,7.032,3.885,8.362c-0.677,1.161-1.089,2.931-1.098,5.123c1.216,0.104,2.471,0.098,3.759-0.132  c1.287-0.23,2.466-0.661,3.57-1.181c-0.77-2.053-1.771-3.569-2.809-4.423C276.784,265.897,277.146,262.421,276.447,258.522z"/>
<path style="fill:#41479B;" d="M281.573,258.522c0.968-5.403,3.554-9.46,5.776-9.061c2.222,0.399,3.239,5.1,2.27,10.503  c-0.698,3.899-2.246,7.032-3.885,8.362c0.676,1.161,1.088,2.931,1.098,5.123c-1.217,0.104-2.471,0.098-3.759-0.132  c-1.287-0.23-2.466-0.661-3.57-1.181c0.77-2.053,1.771-3.569,2.808-4.423C281.236,265.897,280.873,262.421,281.573,258.522z"/>
<path style="fill:#F5F5F5;" d="M283.157,258.397c0-5.952-1.831-10.776-4.087-10.776s-4.087,4.824-4.087,10.776  c0,4.294,0.97,7.935,2.349,9.668c-0.871,1.11-1.588,2.919-1.984,5.258c1.179,0.344,2.416,0.578,3.723,0.578  c1.308,0,2.544-0.233,3.723-0.578c-0.396-2.339-1.114-4.148-1.984-5.258C282.188,266.333,283.157,262.692,283.157,258.397z"/>
<g>
	<path style="fill:#FFE15A;" d="M279.025,269.653c-2.662,0-5.106-0.247-6.694-0.687c-0.547-0.144-0.867-0.703-0.719-1.254   c0.151-0.543,0.727-0.902,1.254-0.71c2.81,0.751,9.508,0.751,12.318,0c0.547-0.199,1.106,0.167,1.254,0.71   c0.147,0.551-0.172,1.11-0.719,1.254C284.13,269.405,281.688,269.653,279.025,269.653z"/>
	<path style="fill:#FFE15A;" d="M270.273,285.812c1.107-0.144,2.501-0.481,2.597-2.164c0,0-2.5-0.241-2.5-0.048   C270.369,283.793,270.273,285.812,270.273,285.812z"/>
</g>
<g>
	<path style="fill:#FF4B55;" d="M245.172,279.56c1.251,0.353,2.468,0.609,2.853,2.148c0,0,1.283-2.565-0.513-4.103   C247.185,277.324,245.172,279.56,245.172,279.56z"/>
	<path style="fill:#FF4B55;" d="M250.494,275.265c1.251,0.353,2.469,0.609,2.853,2.148c0,0,1.283-2.565-0.513-4.103   C252.506,273.029,250.494,275.265,250.494,275.265z"/>
</g>
<path style="fill:#FFE15A;" d="M245.556,284.176c-0.77-0.192-2.116-1.923-0.385-4.616s-5.867,1.347-6.155,3.559  c-0.289,2.212-0.577,6.155,1.154,5.097C241.902,287.158,245.556,284.176,245.556,284.176z"/>
<path style="fill:#FF4B55;" d="M253.795,284.465c0.256-1.41,0-2.372,1.795-3.655c1.795-1.283,2.051-1.987,2.051-2.821  c0,0-0.978,1.042-2.709,1.474c-1.06,0.264-1.971,1.026-1.971,1.026s-0.449-1.603,1.155-2.5c0,0-2.821,0-3.27,2.565  s1.026,2.95-1.09,3.206c-2.116,0.256-7.053-0.77-8.784,3.142s3.527,1.09,4.937,0.577s5.899,0.577,6.604-0.385  C253.219,286.133,253.795,284.465,253.795,284.465z"/>
<path style="fill:#FFF5E6;" d="M235.313,291.486l7.598-12.502c0,0,7.55-2.917,7.614-3.302s2.501-3.527,2.501-3.976  s-0.257-2.629-1.219-3.014s-4.025,0.907-5.354,1.247c-1.329,0.34-3.43-2.145-3.43-2.145s-12.246,2.308-13.144,3.783  c-0.898,1.474-5.129,12.055-5.322,13.144c-0.192,1.09,0,8.592,0.257,8.464C225.071,293.057,235.313,291.486,235.313,291.486z"/>
<path style="fill:#FF4B55;" d="M253.474,269.847c-1.154-1.667-3.27-1.667-4.167-0.321s-2.821,1.346-3.27,3.013  c-0.355,1.317,1.795,3.719,3.078,3.27s3.655-1.923,3.655-1.923S254.629,271.513,253.474,269.847z M249.964,273.24  c-0.527,0.673-1.848-0.163-1.856-0.91c-0.009-0.746,1.094-0.789,1.643-0.401C250.108,272.183,250.393,272.693,249.964,273.24z   M251.94,271.579c-0.77,0.37-1.585-0.963-1.263-1.637c0.322-0.674,1.329-0.225,1.65,0.366  C252.536,270.693,252.567,271.277,251.94,271.579z"/>
<path style="fill:#FFF5E6;" d="M255.905,318.351c1.277,0.128,2.969-0.047,3.321-2.938c0.403-3.313,1.405-4.47,3.065-3.704  c1.661,0.767,1.248,2.091,1.248,2.091s1.827,4.808,0.866,6.732c-0.962,1.923-3.174,4.231-4.809,4.616s-5.001-1.827-5.001-1.827  L255.905,318.351z"/>
<path style="fill:#FFE6D7;" d="M246.678,307.163c1.09-0.513,14.555-9.874,16.157-13.4c1.603-3.527,0.706-6.091,2.821-6.22  c2.116-0.128,5.706-0.257,5.386-2.885c-0.321-2.629-3.847-0.962-4.808-1.474c-0.962-0.513-3.976-1.923-4.552,0.128  c-0.577,2.051,0,3.912-0.834,4.937c-0.834,1.026-4.552,2.821-5.193,2.693s-2.011-0.295-3.057,0.365  c-1.047,0.661-1.624,1.559-1.624,1.559s-3.944,0.16-4.504,0.689c-0.561,0.529-2.677,3.35-2.677,3.35L246.678,307.163z"/>
<path style="fill:#5AA587;" d="M248.088,305.047c0,0,2.565-0.962,4.392-4.52c1.827-3.559,3.655-2.116,6.348-4.04  c2.693-1.923,0.962-4.809,0.193-5.963c-0.77-1.155-0.241-4.135,2.404-4.039c1.741,0.063,7.309,5.482,4.809,10.868  c0,0-0.385-0.962-1.346-2.116c0,0,1.442,3.559-1.923,7.501c0,0,0.096-2.019-0.962-3.366c0,0-0.096,5.001-3.944,8.175  c0,0,0.481-3.27-0.096-4.616c0,0-0.577,4.327-6.252,8.271c0,0,0.866-1.538,0.674-4.039l-4.809,2.501L248.088,305.047z"/>
<path style="fill:#F5DCD2;" d="M211.51,321.492c0,0-1.731,5.29,2.981,6.828s7.309-0.481,9.041,0s1.346,3.559-1.058,6.155  c-2.404,2.597-4.809,2.885-7.502,0.962s-2.885-3.655-5.674-2.982c-2.789,0.674-6.637-2.019-6.637-2.019s2.501-10.868,2.789-10.772  C205.739,319.761,211.51,321.492,211.51,321.492z"/>
<path style="fill:#FFF5E6;" d="M187.058,308.26c0,0,3.321-3.193,16.222-7.154c12.901-3.96,19.799-5.621,19.799-5.621l10.091-3.193  c0,0,4.75-0.018,7.867-0.903c3.118-0.885,3.118-0.885,3.118-0.885s8.303,11.752,2.044,23.63l2.172,2.044  c0,0,2.283,0.697,4.015,1.306c1.732,0.61,0.455,3.931,0.455,3.931l-6.642,3.065l-19.415-0.894c0,0-0.383-0.894-6.77,1.149  c-6.386,2.044-9.196-2.554-21.459-2.938C186.291,321.416,187.058,308.26,187.058,308.26z"/>
<g>
	<path style="fill:#5AA587;" d="M242.255,262.41c0,0,1.955,1.955,0.898,4.039c0,0-2.18-2.244-3.976-2.757   c-2.763-0.789-3.334,0.722-9.441,1.01c-3.843,0.181-5.395,3.864-9.153,2.965c-4.024-0.962-7.341,0.882-7.341,0.882   s2.308-0.288,4.183,1.491c1.875,1.778,5.193,1.394,5.193,1.394s-3.029,2.116-5.578,1.107s-6.204,0.866-6.204,0.866   c0.673-0.048,2.164,0.192,3.847,1.971c1.683,1.779,5.434,1.346,5.434,1.346c-0.673,0.818-2.549,1.731-4.321,1.391   c-4.016-0.77-8.303,1.021-8.303,1.021s2.554-0.894,6.003,1.66c3.449,2.554,7.408,1.021,7.408,1.021   c0,1.661-3.456,8.058-9.589,7.839c-7.635-0.271-9.57,4.167-9.57,4.167s3.066-1.021,7.026-0.383   c7.671,1.237,12.901-3.193,12.901-3.193s-1.277,6.003-6.514,5.747c-5.237-0.256-11.88,5.109-11.88,5.109s5.901-1.063,13.52-1.157   c2.506-0.031,4.544-1.018,6.286-2.195c4.582-3.095,8.814-3.095,8.814-3.095c-5.001,1.154-7.597,6.637-7.597,6.637   s3.847-3.366,9.424-3.366c5.578,0,7.309-6.54,7.309-6.54c-5.194,0.096-5.963-4.135-5.963-4.135s-1.538,0.481-2.981,2.212   c-0.913,1.095-2.455,1.467-3.512,1.615c-0.385-3.373,2.162-6.452,2.162-6.452s-3.449-5.237,1.021-10.857s14.689-3.832,14.689-3.832   C247.512,265.23,243.536,262.281,242.255,262.41z"/>
	<path style="fill:#5AA587;" d="M231.868,281.003c1.667-0.257,9.425-2.821,9.296-6.284c-0.128-3.463-4.744-2.244-4.488-0.385   c0.257,1.859,1.923,1.474,1.923,1.474s-0.161,0.838-3.591,1.538C232.188,277.926,231.868,281.003,231.868,281.003z"/>
	<path style="fill:#5AA587;" d="M252.385,317.486c0,0,4.808-0.77,4.616,2.693c-0.192,3.463-2.95,7.117-8.656,8.72   c0,0,2.116-1.827,1.635-2.885s-2.885-1.346-4.135,0.481s-3.366,2.597-5.193,2.308c0,0,3.27-2.404,0.962-3.27   c-2.079-0.779-1.283,2.597-6.252,3.174c0,0,3.655-2.885,1.538-3.655c-2.116-0.77-3.27,4.231-7.02,3.847   c0,0,3.142-3.142,1.442-3.655c-2.676-0.808-3.366,3.847-8.175,1.827c0,0,2.404-1.058,0.481-3.655s0.77-5.867,2.116-7.213   c1.347-1.346,2.308-2.212,1.923-3.559c0,0,3.43,2.148,1.699,5.931c-1.626,3.552,4.955,1.591,10.066,1.155   c5.258-0.449,8.376,2.566,11.734,1.538C254.308,320.307,252.385,317.486,252.385,317.486z"/>
	<path style="fill:#5AA587;" d="M159.34,319.117c0,0,6.309,2.909,9.885-0.029c3.577-2.938,4.548,0.539,8.763-2.015   c4.215-2.554,3.96-1.149,7.28-1.149c3.321,0,5.748-5.365,3.705-9.069c0,0,6.936-2.69,5.514-8.252   c-1.058-4.135-6.28-2.861-6.28-2.861s-5.511-3.464-9.324,1.021c-3.117,3.666-1.405,6.131-6.642,6.77   c-5.237,0.639-6.003,6.003-11.624,5.365c0,0,3.832,4.982,9.708,1.788C170.325,310.686,170.187,315.498,159.34,319.117z"/>
	<path style="fill:#5AA587;" d="M215.165,328.514c0,0,5.386,4.808-5.193,7.694c0,0,0.674-0.866,1.442-2.404   c0,0-3.27,2.404-7.501,2.212c0,0,1.251-0.962,1.538-2.116c0,0-3.847,1.058-6.637-0.77c0,0,3.366-0.192,5.482-3.366   c0,0,0.962,1.923,2.982,0.962c2.02-0.962,3.177,0.422,5.001,0.481C213.77,331.255,215.069,330.485,215.165,328.514z"/>
	<path style="fill:#5AA587;" d="M212.504,298.828c0,0-3.847,1.795-2.051,5.193c1.197,2.265,4.946,2.81,6.412,0.706   c1.251-1.795,0.258-3.538-1.058-3.783c-1.378-0.257-2.212,0.321-2.853,1.474C212.953,302.418,210.58,301.52,212.504,298.828z"/>
	<path style="fill:#5AA587;" d="M229.783,304.807c0,0,8.354,0.318,7.934,6.107c-0.184,2.547-3.629,4.325-5.803,2.989   c-1.855-1.14-1.554-3.037-0.586-3.88c1.065-0.927,2.119-0.593,3.165,0.205C234.493,310.229,235.025,307.067,229.783,304.807z"/>
	<path style="fill:#5AA587;" d="M246.47,293.554c0,0,4.51-3.026,6.264,0.577c0.772,1.584-0.668,3.84-2.429,3.795   c-1.502-0.037-1.98-1.275-1.694-2.113c0.314-0.922,1.06-1.089,1.961-0.974C250.572,294.839,250.845,292.496,246.47,293.554z"/>
	<path style="fill:#5AA587;" d="M252.598,291.306c0,0,4.16-2.79,5.778,0.532c0.712,1.462-0.616,3.542-2.24,3.501   c-1.385-0.035-1.826-1.176-1.563-1.949c0.29-0.851,0.978-1.003,1.809-0.899C256.382,292.491,256.634,290.33,252.598,291.306z"/>
	<path style="fill:#5AA587;" d="M237.018,309.754c0,0,7.189,0.273,6.827,5.255c-0.159,2.192-3.123,3.722-4.994,2.573   c-1.596-0.981-1.682-2.78-0.989-3.639c1.203-1.49,2.645-0.818,2.645-0.818S241.529,311.699,237.018,309.754z"/>
	<path style="fill:#5AA587;" d="M242.287,313.702c0,0,7.934-0.77,7.346,4.586c-0.154,1.398-1.998,2.381-3.194,1.646   c-1.021-0.627-1.076-1.778-0.633-2.328c0.769-0.953,1.692-0.522,1.692-0.522S246.999,314.712,242.287,313.702z"/>
</g>
<path style="fill:#FFE6D7;" d="M191.4,339.171c0,0,1.086,2.205,1.788,4.343c0.601,1.831,3.705,3.065,5.365,1.916  c1.66-1.149,4.465-4.585,3.315-5.351c-1.149-0.767-6.125-0.142-6.891-2.823c-0.767-2.682-0.511-4.47-0.511-4.47  s6.657,1.981,9.831-3.02c3.174-5.001,2.72-9.885,3.964-12.307c0.972-1.894,2.682-2.81,2.682-2.81  c-1.955-7.742-25.802-13.284-23.034,6.812l-3.746,8.515L191.4,339.171z"/>
<g>
	<path style="fill:#5AA587;" d="M182.946,338.836c1.635,1.058,7.63,4.103,11.349,1.795c3.041-1.888,3.078-4.039,1.155-4.52   s-2.982,0.866-4.04,0s-7.02-5.771-4.808-7.309s3.409-2.784,3.366-5.482c-0.032-1.987-1.763-3.912-3.815-4.103   c-2.559-0.24-4.552,0.834-7.245,0.834l3.142,1.602c-2.02,0.962-2.18,3.687-4.584,4.167c0,0,1.635,1.859,3.687,1.283   c0,0-0.705,1.923-2.629,2.18c0,0,1.795,2.051,3.463,2.629c0,0-1.09,0.77-2.789,0.449c0,0,2.661,3.912,6.637,4.905L182.946,338.836z   "/>
	<path style="fill:#5AA587;" d="M194.532,331.513c0,0,1.068-0.186,1.16-1.486c0.053-0.751-0.696-1.722-1.97-1.649   c-1.493,0.085-2.505,2.067-1.789,3.382c1.831,3.36,8.645,2.012,9.479,0.793C201.412,332.553,195.962,332.809,194.532,331.513z"/>
</g>
<g>
	<path style="fill:#FFE15A;" d="M197.725,347.492c0.296-0.417,0.537-1.547-0.04-2.244c0,0,0.312-1.611,1.538-1.034   c0,0,0.521,1.29,0.104,2.188C198.912,347.3,197.725,347.492,197.725,347.492z"/>
	<path style="fill:#FFE15A;" d="M200.226,346.589c-0.021-1.162-0.281-1.797-1.22-1.893c0,0-0.241-1.683,1.155-1.683   c0,0,1.033,0.914,1.044,1.903C201.215,345.904,200.226,346.589,200.226,346.589z"/>
	<path style="fill:#FFE15A;" d="M201.772,345.462c-0.229-1.14-0.445-1.932-1.488-2.01c0,0-0.555-1.378,0.983-1.57   c0,0,0.981,0.787,1.167,1.759C202.622,344.612,201.772,345.462,201.772,345.462z"/>
	<path style="fill:#FFE15A;" d="M203.319,343.695c-0.473-1.061-0.945-1.486-1.98-1.333c0,0-0.889-1.251,0.337-1.923   c0,0,1.493,0.426,1.889,1.333C203.961,342.679,203.319,343.695,203.319,343.695z"/>
	<path style="fill:#FFE15A;" d="M221.576,337.191c0.217-0.463,0.254-1.617-0.438-2.202c0,0,0.021-1.641,1.331-1.291   c0,0,0.742,1.177,0.49,2.134C222.71,336.791,221.576,337.191,221.576,337.191z"/>
	<path style="fill:#FFE15A;" d="M223.878,335.857c-0.227-1.14-0.596-1.719-1.536-1.647c0,0-0.535-1.614,0.837-1.861   c0,0,1.179,0.715,1.365,1.688C224.729,335.009,223.878,335.857,223.878,335.857z"/>
	<path style="fill:#FFE15A;" d="M225.199,334.474c-0.428-1.081-0.78-1.823-1.822-1.713c0,0-0.791-1.258,0.689-1.721   c0,0,1.104,0.6,1.462,1.523C225.884,333.487,225.199,334.474,225.199,334.474z"/>
	<path style="fill:#FFE15A;" d="M226.408,332.461c-0.655-0.961-1.193-1.295-2.184-0.959c0,0-1.097-1.073-0.011-1.953   c0,0,1.545,0.155,2.096,0.977C226.859,331.348,226.408,332.461,226.408,332.461z"/>
</g>
<path style="fill:#FFE6D7;" d="M253.538,273.244c0.208,1.041-0.321,2.18-2.821,3.27c-2.501,1.09-2.436,0.641-4.103,2.757  s-1.859,2.18-3.912,2.565c-2.051,0.385-3.014,6.732-0.577,5.771c2.436-0.962,2.757-2.95,5.45-2.308  c2.693,0.641,4.103,1.538,6.22-0.834c0,0,2.051,2.757-1.795,3.912c-3.847,1.154-5.946,1.243-7.846,2.128  c-1.9,0.885-8.639,3.049-9.081-3.251c-0.128-1.827,1.219-2.532,1.987-3.879c0.77-1.346,1.538-2.244,3.398-3.719  s0.706-2.693,3.719-3.142c3.014-0.449,5.514-0.385,6.412-2.565C251.487,271.77,253.283,271.963,253.538,273.244z"/>
<g>
	<path style="fill:#5AA587;" d="M203.047,303.812c0,0-0.578-2.297,2.101-3.271c-0.63,0.191-1.207,0.362-1.869,0.565   c-0.564,0.173-1.011,0.335-1.538,0.505c-0.206,0.278-0.482,0.424-0.62,0.813c-0.815,2.283,1.202,5.244,3.606,4.921   c2.05-0.276,2.632-2.081,1.962-3.156C205.986,303.067,204.442,302.802,203.047,303.812z"/>
	<path style="fill:#5AA587;" d="M203.877,328.201c-2.907,0.65-4.215-0.472-4.215-0.472s1.068-0.186,1.16-1.486   c0.053-0.749-0.696-1.722-1.97-1.649c-1.493,0.086-2.505,2.067-1.789,3.382c1.575,2.89,6.049,2.207,8.021,0.159   c0.103-0.211,0.211-0.42,0.304-0.63C204.956,327.776,204.404,328.084,203.877,328.201z"/>
	<path style="fill:#5AA587;" d="M206.815,323.341c0.074-0.329,0.179-0.661,0.241-0.975c-3.417,1.382-4.413-0.358-4.413-0.358   s1.068-0.186,1.16-1.486c0.053-0.749-0.696-1.722-1.97-1.648c-1.493,0.085-2.505,2.067-1.789,3.382   C201.714,325.32,204.689,324.466,206.815,323.341z"/>
	<path style="fill:#5AA587;" d="M214.502,324.968c-1.986,1.779-3.504,1.681-3.504,1.681s0.794-0.739,0.16-1.878   c-0.366-0.658-1.523-1.063-2.55-0.306c-1.204,0.887-0.97,3.1,0.346,3.81c3.242,1.747,5.347-0.955,6.472-3.131   C215.12,325.103,214.81,325.031,214.502,324.968z"/>
</g>
<g>
	<path style="fill:#FFE15A;" d="M265.687,323.247c-0.144-0.709-0.886-2.058-1.799-2.149c0,0-1.077-1.891,0.147-2.578   c0,0,1.346,0.728,1.794,2.03C266.278,321.85,265.687,323.247,265.687,323.247z"/>
	<path style="fill:#FFE15A;" d="M266.541,319.814c-0.932-1.113-1.597-1.467-2.261-0.606c0,0-1.481-1.398-0.607-2.82   c0,0,1.37-0.162,2.158,0.794C266.62,318.139,266.541,319.814,266.541,319.814z"/>
	<path style="fill:#FFE15A;" d="M266.62,317.139c-1.044-0.88-1.806-1.433-2.521-0.445c0,0-1.437-0.779-0.625-2.535   c0,0,1.237-0.231,2.122,0.527C266.481,315.444,266.62,317.139,266.62,317.139z"/>
	<path style="fill:#FFE15A;" d="M266.193,313.838c-1.135-0.553-1.767-0.488-2.294,0.717c0,0-1.546-0.313-1.309-2.221   c0,0,1.273-1.106,2.238-0.625C265.793,312.192,266.193,313.838,266.193,313.838z"/>
</g>
<path style="fill:#F5F5F5;" d="M243.095,276.165c0.547,1.501-0.843,2.891-2.344,2.344c-0.458-0.167-0.836-0.545-1.003-1.003  c-0.547-1.5,0.843-2.891,2.344-2.344C242.55,275.329,242.927,275.706,243.095,276.165z"/>
<path style="fill:#41479B;" d="M242.003,276.534c0.268,0.585-0.3,1.151-0.884,0.884c-0.123-0.055-0.225-0.159-0.281-0.281  c-0.268-0.585,0.3-1.151,0.884-0.884C241.844,276.308,241.948,276.412,242.003,276.534z"/>
<path style="fill:#F5F5F5;" d="M246.505,269.8c0.375,1.172-0.69,2.237-1.861,1.861c-0.421-0.134-0.768-0.482-0.902-0.903  c-0.375-1.172,0.69-2.237,1.861-1.861C246.023,269.032,246.371,269.379,246.505,269.8z"/>
<path style="fill:#41479B;" d="M245.609,270.063c0.182,0.455-0.246,0.885-0.702,0.702c-0.119-0.048-0.221-0.149-0.269-0.269  c-0.182-0.455,0.246-0.885,0.702-0.703C245.459,269.842,245.561,269.944,245.609,270.063z"/>
<path style="fill:#FFF5E6;" d="M193.333,305.527c-1.66,1.277-7.405-1.538-11.445-0.192c-5.221,1.74-5.177,5.096-5.177,5.096  s3.254-4.037,8.672-2.05c2.998,1.1,4.741,1.156,4.741,1.156L193.333,305.527z"/>
<path style="fill:#FFE15A;" d="M287.685,285.812c-1.106-0.144-2.5-0.481-2.597-2.164c0,0,2.5-0.241,2.5-0.048  C287.589,283.793,287.685,285.812,287.685,285.812z"/>
<g>
	<path style="fill:#FF4B55;" d="M312.786,279.56c-1.251,0.353-2.468,0.609-2.853,2.148c0,0-1.283-2.565,0.513-4.103   C310.773,277.324,312.786,279.56,312.786,279.56z"/>
	<path style="fill:#FF4B55;" d="M307.464,275.265c-1.251,0.353-2.468,0.609-2.853,2.148c0,0-1.283-2.565,0.513-4.103   C305.452,273.029,307.464,275.265,307.464,275.265z"/>
</g>
<path style="fill:#FFE15A;" d="M312.402,284.176c0.77-0.192,2.116-1.923,0.385-4.616s5.867,1.347,6.155,3.559  c0.289,2.212,0.577,6.155-1.155,5.097C316.056,287.158,312.402,284.176,312.402,284.176z"/>
<path style="fill:#FF4B55;" d="M304.163,284.465c-0.256-1.41,0-2.372-1.795-3.655s-2.051-1.987-2.051-2.821  c0,0,0.978,1.042,2.709,1.474c1.06,0.264,1.971,1.026,1.971,1.026s0.449-1.603-1.155-2.5c0,0,2.821,0,3.27,2.565  c0.449,2.565-1.026,2.95,1.09,3.206c2.116,0.256,7.053-0.77,8.784,3.142s-3.527,1.09-4.937,0.577s-5.899,0.577-6.603-0.385  C304.739,286.133,304.163,284.465,304.163,284.465z"/>
<path style="fill:#FFF5E6;" d="M322.645,291.486l-7.598-12.502c0,0-7.55-2.917-7.614-3.302s-2.5-3.527-2.5-3.976  s0.257-2.629,1.219-3.014s4.025,0.907,5.354,1.247s3.43-2.145,3.43-2.145s12.246,2.308,13.144,3.783  c0.898,1.474,5.129,12.055,5.322,13.144c0.192,1.09,0,8.592-0.257,8.464C332.887,293.057,322.645,291.486,322.645,291.486z"/>
<path style="fill:#FF4B55;" d="M305.189,273.886c0,0,2.372,1.474,3.655,1.923s3.432-1.954,3.078-3.27  c-0.449-1.667-2.372-1.667-3.27-3.013c-0.898-1.346-3.014-1.346-4.167,0.321C303.329,271.513,305.189,273.886,305.189,273.886z   M308.209,271.929c0.549-0.388,1.651-0.345,1.643,0.401c-0.009,0.747-1.329,1.583-1.856,0.91  C307.565,272.693,307.85,272.183,308.209,271.929z M305.631,270.308c0.321-0.591,1.328-1.039,1.65-0.366  c0.322,0.674-0.494,2.006-1.264,1.637C305.391,271.277,305.422,270.693,305.631,270.308z"/>
<path style="fill:#FFF5E6;" d="M302.053,318.351c-1.277,0.128-2.969-0.047-3.321-2.938c-0.403-3.313-1.405-4.47-3.066-3.704  c-1.661,0.767-1.248,2.091-1.248,2.091s-1.827,4.808-0.866,6.732c0.962,1.923,3.174,4.231,4.808,4.616  c1.635,0.385,5.001-1.827,5.001-1.827L302.053,318.351z"/>
<path style="fill:#FFE6D7;" d="M311.28,307.163c-1.09-0.513-14.555-9.874-16.158-13.4c-1.602-3.527-0.705-6.091-2.821-6.22  c-2.116-0.128-5.707-0.257-5.386-2.885c0.321-2.629,3.847-0.962,4.809-1.474c0.962-0.513,3.976-1.923,4.552,0.128  c0.577,2.051,0,3.912,0.834,4.937c0.834,1.026,4.552,2.821,5.193,2.693s2.011-0.295,3.057,0.365  c1.047,0.661,1.624,1.559,1.624,1.559s3.944,0.16,4.504,0.689c0.561,0.529,2.677,3.35,2.677,3.35L311.28,307.163z"/>
<path style="fill:#5AA587;" d="M309.87,305.047c0,0-2.565-0.962-4.392-4.52c-1.827-3.559-3.655-2.116-6.348-4.04  c-2.693-1.923-0.962-4.809-0.192-5.963c0.77-1.155,0.241-4.135-2.404-4.039c-1.741,0.063-7.309,5.482-4.808,10.868  c0,0,0.385-0.962,1.346-2.116c0,0-1.442,3.559,1.923,7.501c0,0-0.096-2.019,0.962-3.366c0,0,0.096,5.001,3.944,8.175  c0,0-0.481-3.27,0.096-4.616c0,0,0.577,4.327,6.252,8.271c0,0-0.866-1.538-0.674-4.039l4.809,2.501L309.87,305.047z"/>
<path style="fill:#F5DCD2;" d="M346.448,321.492c0,0,1.731,5.29-2.982,6.828c-4.712,1.538-7.309-0.481-9.041,0  s-1.346,3.559,1.058,6.155c2.404,2.597,4.808,2.885,7.501,0.962s2.885-3.655,5.674-2.982c2.789,0.674,6.637-2.019,6.637-2.019  s-2.5-10.868-2.789-10.772C352.219,319.761,346.448,321.492,346.448,321.492z"/>
<path style="fill:#FFF5E6;" d="M370.9,308.26c0,0-3.321-3.193-16.222-7.154c-12.901-3.96-19.799-5.621-19.799-5.621l-10.091-3.193  c0,0-4.748-0.018-7.867-0.903c-3.118-0.885-3.118-0.885-3.118-0.885s-8.303,11.752-2.044,23.63l-2.172,2.044  c0,0-2.283,0.697-4.015,1.306c-1.732,0.61-0.455,3.931-0.455,3.931l6.642,3.065l19.415-0.894c0,0,0.383-0.894,6.77,1.149  c6.387,2.044,9.196-2.554,21.459-2.938S370.9,308.26,370.9,308.26z"/>
<g>
	<path style="fill:#5AA587;" d="M315.703,262.41c0,0-1.955,1.955-0.898,4.039c0,0,2.18-2.244,3.976-2.757   c2.763-0.789,3.334,0.722,9.441,1.01c3.843,0.181,5.395,3.864,9.153,2.965c4.023-0.962,7.341,0.882,7.341,0.882   s-2.308-0.288-4.183,1.491c-1.875,1.778-5.193,1.394-5.193,1.394s3.029,2.116,5.578,1.107c2.549-1.01,6.204,0.866,6.204,0.866   c-0.673-0.048-2.164,0.192-3.847,1.971c-1.683,1.779-5.434,1.346-5.434,1.346c0.673,0.818,2.549,1.731,4.32,1.391   c4.016-0.77,8.303,1.021,8.303,1.021s-2.554-0.894-6.003,1.66c-3.449,2.554-7.408,1.021-7.408,1.021   c0,1.661,3.456,8.058,9.589,7.839c7.635-0.271,9.572,4.167,9.572,4.167s-3.065-1.021-7.026-0.383   c-7.671,1.237-12.901-3.193-12.901-3.193s1.277,6.003,6.514,5.747c5.237-0.256,11.879,5.109,11.879,5.109s-5.901-1.063-13.52-1.157   c-2.506-0.031-4.545-1.018-6.286-2.195c-4.582-3.095-8.814-3.095-8.814-3.095c5.001,1.154,7.597,6.637,7.597,6.637   s-3.847-3.366-9.424-3.366s-7.309-6.54-7.309-6.54c5.194,0.096,5.963-4.135,5.963-4.135s1.538,0.481,2.981,2.212   c0.913,1.095,2.455,1.467,3.512,1.615c0.385-3.373-2.162-6.452-2.162-6.452s3.449-5.237-1.021-10.857s-14.689-3.832-14.689-3.832   C310.446,265.23,314.422,262.281,315.703,262.41z"/>
	<path style="fill:#5AA587;" d="M326.09,281.003c-1.667-0.257-9.425-2.821-9.296-6.284c0.128-3.463,4.744-2.244,4.488-0.385   c-0.257,1.859-1.923,1.474-1.923,1.474s0.161,0.838,3.591,1.538C325.771,277.926,326.09,281.003,326.09,281.003z"/>
	<path style="fill:#5AA587;" d="M305.573,317.486c0,0-4.808-0.77-4.616,2.693c0.192,3.463,2.95,7.117,8.656,8.72   c0,0-2.116-1.827-1.635-2.885s2.885-1.346,4.135,0.481s3.366,2.597,5.193,2.308c0,0-3.27-2.404-0.962-3.27   c2.079-0.779,1.283,2.597,6.252,3.174c0,0-3.655-2.885-1.538-3.655c2.116-0.77,3.27,4.231,7.02,3.847c0,0-3.142-3.142-1.442-3.655   c2.676-0.808,3.366,3.847,8.175,1.827c0,0-2.404-1.058-0.481-3.655s-0.77-5.867-2.116-7.213c-1.347-1.346-2.308-2.212-1.923-3.559   c0,0-3.431,2.148-1.699,5.931c1.626,3.552-4.955,1.591-10.066,1.155c-5.258-0.449-8.378,2.566-11.734,1.538   C303.65,320.307,305.573,317.486,305.573,317.486z"/>
	<path style="fill:#5AA587;" d="M398.618,319.117c0,0-6.309,2.909-9.885-0.029c-3.577-2.938-4.548,0.539-8.763-2.015   c-4.215-2.554-3.96-1.149-7.28-1.149c-3.321,0-5.747-5.365-3.704-9.069c0,0-6.936-2.69-5.514-8.252   c1.058-4.135,6.28-2.861,6.28-2.861s5.511-3.464,9.324,1.021c3.117,3.666,1.405,6.131,6.642,6.77   c5.237,0.639,6.003,6.003,11.624,5.365c0,0-3.832,4.982-9.708,1.788C387.633,310.686,387.771,315.498,398.618,319.117z"/>
	<path style="fill:#5AA587;" d="M342.793,328.514c0,0-5.386,4.808,5.193,7.694c0,0-0.674-0.866-1.442-2.404   c0,0,3.27,2.404,7.501,2.212c0,0-1.251-0.962-1.538-2.116c0,0,3.848,1.058,6.637-0.77c0,0-3.366-0.192-5.482-3.366   c0,0-0.962,1.923-2.982,0.962s-3.177,0.422-5.001,0.481C344.188,331.255,342.889,330.485,342.793,328.514z"/>
	<path style="fill:#5AA587;" d="M345.454,298.828c0,0,3.847,1.795,2.051,5.193c-1.197,2.265-4.946,2.81-6.412,0.706   c-1.251-1.795-0.258-3.538,1.058-3.783c1.378-0.257,2.212,0.321,2.853,1.474C345.005,302.418,347.378,301.52,345.454,298.828z"/>
	<path style="fill:#5AA587;" d="M328.175,304.807c0,0-8.354,0.318-7.934,6.107c0.184,2.547,3.629,4.325,5.803,2.989   c1.855-1.14,1.554-3.037,0.586-3.88c-1.065-0.927-2.119-0.593-3.166,0.205C323.465,310.229,322.933,307.067,328.175,304.807z"/>
	<path style="fill:#5AA587;" d="M311.488,293.554c0,0-4.51-3.026-6.264,0.577c-0.772,1.584,0.668,3.84,2.429,3.795   c1.502-0.037,1.98-1.275,1.694-2.113c-0.315-0.922-1.061-1.089-1.961-0.974C307.386,294.839,307.113,292.496,311.488,293.554z"/>
	<path style="fill:#5AA587;" d="M305.36,291.306c0,0-4.159-2.79-5.778,0.532c-0.712,1.462,0.616,3.542,2.24,3.501   c1.385-0.035,1.826-1.176,1.563-1.949c-0.29-0.851-0.978-1.003-1.809-0.899C301.576,292.491,301.324,290.33,305.36,291.306z"/>
	<path style="fill:#5AA587;" d="M320.94,309.754c0,0-7.189,0.273-6.827,5.255c0.159,2.192,3.123,3.722,4.994,2.573   c1.596-0.981,1.682-2.78,0.989-3.639c-1.203-1.49-2.645-0.818-2.645-0.818S316.429,311.699,320.94,309.754z"/>
	<path style="fill:#5AA587;" d="M315.671,313.702c0,0-7.934-0.77-7.346,4.586c0.154,1.398,1.998,2.381,3.194,1.646   c1.02-0.627,1.076-1.778,0.633-2.328c-0.769-0.953-1.692-0.522-1.692-0.522S310.959,314.712,315.671,313.702z"/>
</g>
<path style="fill:#FFE6D7;" d="M366.558,339.171c0,0-1.086,2.205-1.788,4.343c-0.601,1.831-3.705,3.065-5.365,1.916  c-1.66-1.149-4.465-4.585-3.315-5.351c1.149-0.767,6.125-0.142,6.891-2.823c0.767-2.682,0.511-4.47,0.511-4.47  s-6.657,1.981-9.831-3.02c-3.174-5.001-2.72-9.885-3.964-12.307c-0.973-1.894-2.682-2.81-2.682-2.81  c1.955-7.742,25.802-13.284,23.034,6.812l3.747,8.515L366.558,339.171z"/>
<g>
	<path style="fill:#5AA587;" d="M375.012,338.836c-1.635,1.058-7.63,4.103-11.349,1.795c-3.042-1.888-3.078-4.039-1.154-4.52   c1.923-0.481,2.982,0.866,4.039,0s7.02-5.771,4.809-7.309c-2.212-1.538-3.409-2.784-3.366-5.482   c0.032-1.987,1.763-3.912,3.815-4.103c2.559-0.24,4.552,0.834,7.245,0.834l-3.142,1.602c2.019,0.962,2.18,3.687,4.584,4.167   c0,0-1.635,1.859-3.687,1.283c0,0,0.706,1.923,2.629,2.18c0,0-1.795,2.051-3.463,2.629c0,0,1.09,0.77,2.789,0.449   c0,0-2.661,3.912-6.637,4.905L375.012,338.836z"/>
	<path style="fill:#5AA587;" d="M363.426,331.513c0,0-1.068-0.186-1.16-1.486c-0.053-0.751,0.696-1.722,1.97-1.649   c1.493,0.085,2.505,2.067,1.79,3.382c-1.831,3.36-8.645,2.012-9.479,0.793C356.546,332.553,361.996,332.809,363.426,331.513z"/>
</g>
<g>
	<path style="fill:#FFE15A;" d="M360.233,347.492c-0.296-0.417-0.537-1.547,0.041-2.244c0,0-0.312-1.611-1.538-1.034   c0,0-0.521,1.29-0.104,2.188C359.047,347.3,360.233,347.492,360.233,347.492z"/>
	<path style="fill:#FFE15A;" d="M357.732,346.589c0.021-1.162,0.281-1.797,1.22-1.893c0,0,0.24-1.683-1.155-1.683   c0,0-1.033,0.914-1.044,1.903C356.743,345.904,357.732,346.589,357.732,346.589z"/>
	<path style="fill:#FFE15A;" d="M356.186,345.462c0.228-1.14,0.445-1.932,1.488-2.01c0,0,0.555-1.378-0.983-1.57   c0,0-0.981,0.787-1.167,1.759C355.336,344.612,356.186,345.462,356.186,345.462z"/>
	<path style="fill:#FFE15A;" d="M354.639,343.695c0.473-1.061,0.945-1.486,1.98-1.333c0,0,0.89-1.251-0.337-1.923   c0,0-1.493,0.426-1.889,1.333C353.997,342.679,354.639,343.695,354.639,343.695z"/>
	<path style="fill:#FFE15A;" d="M336.382,337.191c-0.217-0.463-0.254-1.617,0.438-2.202c0,0-0.021-1.641-1.33-1.291   c0,0-0.742,1.177-0.491,2.134C335.248,336.791,336.382,337.191,336.382,337.191z"/>
	<path style="fill:#FFE15A;" d="M334.08,335.857c0.227-1.14,0.596-1.719,1.536-1.647c0,0,0.535-1.614-0.837-1.861   c0,0-1.179,0.715-1.365,1.688S334.08,335.857,334.08,335.857z"/>
	<path style="fill:#FFE15A;" d="M332.759,334.474c0.427-1.081,0.78-1.823,1.821-1.713c0,0,0.791-1.258-0.689-1.721   c0,0-1.104,0.6-1.462,1.523C332.073,333.487,332.759,334.474,332.759,334.474z"/>
	<path style="fill:#FFE15A;" d="M331.55,332.461c0.655-0.961,1.193-1.295,2.184-0.959c0,0,1.097-1.073,0.011-1.953   c0,0-1.545,0.155-2.096,0.977C331.099,331.348,331.55,332.461,331.55,332.461z"/>
</g>
<path style="fill:#FFE6D7;" d="M304.42,273.244c-0.208,1.041,0.321,2.18,2.821,3.27s2.436,0.641,4.103,2.757s1.859,2.18,3.912,2.565  c2.051,0.385,3.014,6.732,0.577,5.771c-2.436-0.962-2.757-2.95-5.45-2.308s-4.103,1.538-6.22-0.834c0,0-2.051,2.757,1.795,3.912  c3.847,1.154,5.946,1.243,7.846,2.128c1.9,0.885,8.639,3.049,9.081-3.251c0.128-1.827-1.219-2.532-1.987-3.879  c-0.77-1.346-1.538-2.244-3.399-3.719c-1.859-1.474-0.705-2.693-3.719-3.142s-5.514-0.385-6.412-2.565  C306.471,271.77,304.675,271.963,304.42,273.244z"/>
<g>
	<path style="fill:#5AA587;" d="M354.912,303.812c0,0,0.578-2.297-2.101-3.271c0.63,0.191,1.207,0.362,1.869,0.565   c0.564,0.173,1.011,0.335,1.538,0.505c0.206,0.278,0.482,0.424,0.62,0.813c0.815,2.283-1.202,5.244-3.606,4.921   c-2.051-0.276-2.632-2.081-1.962-3.156C351.972,303.067,353.517,302.802,354.912,303.812z"/>
	<path style="fill:#5AA587;" d="M354.081,328.201c2.907,0.65,4.215-0.472,4.215-0.472s-1.068-0.186-1.16-1.486   c-0.053-0.749,0.696-1.722,1.97-1.649c1.493,0.086,2.505,2.067,1.789,3.382c-1.575,2.89-6.049,2.207-8.021,0.159   c-0.103-0.211-0.211-0.42-0.304-0.63C353.002,327.776,353.555,328.084,354.081,328.201z"/>
	<path style="fill:#5AA587;" d="M351.143,323.341c-0.074-0.329-0.179-0.661-0.241-0.975c3.417,1.382,4.414-0.358,4.414-0.358   s-1.068-0.186-1.16-1.486c-0.053-0.749,0.696-1.722,1.97-1.648c1.493,0.085,2.505,2.067,1.789,3.382   C356.244,325.32,353.269,324.466,351.143,323.341z"/>
	<path style="fill:#5AA587;" d="M343.456,324.968c1.986,1.779,3.504,1.681,3.504,1.681s-0.794-0.739-0.16-1.878   c0.366-0.658,1.523-1.063,2.55-0.306c1.204,0.887,0.97,3.1-0.346,3.81c-3.242,1.747-5.347-0.955-6.472-3.131   C342.838,325.103,343.148,325.031,343.456,324.968z"/>
</g>
<g>
	<path style="fill:#FFE15A;" d="M292.271,323.247c0.144-0.709,0.886-2.058,1.799-2.149c0,0,1.077-1.891-0.147-2.578   c0,0-1.346,0.728-1.794,2.03C291.68,321.85,292.271,323.247,292.271,323.247z"/>
	<path style="fill:#FFE15A;" d="M291.417,319.814c0.932-1.113,1.597-1.467,2.261-0.606c0,0,1.481-1.398,0.607-2.82   c0,0-1.37-0.162-2.158,0.794C291.338,318.139,291.417,319.814,291.417,319.814z"/>
	<path style="fill:#FFE15A;" d="M291.338,317.139c1.044-0.88,1.806-1.433,2.521-0.445c0,0,1.437-0.779,0.625-2.535   c0,0-1.237-0.231-2.123,0.527C291.477,315.444,291.338,317.139,291.338,317.139z"/>
	<path style="fill:#FFE15A;" d="M291.765,313.838c1.135-0.553,1.767-0.488,2.294,0.717c0,0,1.546-0.313,1.309-2.221   c0,0-1.273-1.106-2.238-0.625C292.166,312.192,291.765,313.838,291.765,313.838z"/>
</g>
<path style="fill:#F5F5F5;" d="M314.863,276.165c-0.547,1.501,0.843,2.891,2.344,2.344c0.458-0.167,0.836-0.545,1.003-1.003  c0.547-1.5-0.843-2.891-2.344-2.344C315.408,275.329,315.031,275.706,314.863,276.165z"/>
<path style="fill:#41479B;" d="M315.955,276.534c-0.268,0.585,0.3,1.151,0.884,0.884c0.123-0.055,0.225-0.159,0.281-0.281  c0.268-0.585-0.3-1.151-0.884-0.884C316.114,276.308,316.01,276.412,315.955,276.534z"/>
<path style="fill:#F5F5F5;" d="M311.453,269.8c-0.375,1.172,0.69,2.237,1.861,1.861c0.421-0.134,0.768-0.482,0.902-0.903  c0.375-1.172-0.69-2.237-1.861-1.861C311.935,269.032,311.587,269.379,311.453,269.8z"/>
<path style="fill:#41479B;" d="M312.349,270.063c-0.182,0.455,0.246,0.885,0.703,0.702c0.119-0.048,0.221-0.149,0.269-0.269  c0.182-0.455-0.246-0.885-0.702-0.703C312.499,269.842,312.397,269.944,312.349,270.063z"/>
<path style="fill:#FFF5E6;" d="M364.625,305.527c1.661,1.277,7.405-1.538,11.445-0.192c5.221,1.74,5.177,5.096,5.177,5.096  s-3.254-4.037-8.672-2.05c-2.998,1.1-4.741,1.156-4.741,1.156L364.625,305.527z"/>
<path style="fill:#2E3033;" d="M19.323,490.544L19.323,490.544C8.651,490.544,0,481.892,0,471.22V40.62  c0-10.584,8.58-19.165,19.164-19.165h0.159c10.672,0,19.323,8.651,19.323,19.323v430.443  C38.647,481.892,29.995,490.544,19.323,490.544z"/>
<g>
</g>
<g>
</g>
<g>
</g>
<g>
</g>
<g>
</g>
<g>
</g>
<g>
</g>
<g>
</g>
<g>
</g>
<g>
</g>
<g>
</g>
<g>
</g>
<g>
</g>
<g>
</g>
<g>
</g>
</svg>
