<?xml version="1.0" encoding="iso-8859-1"?>
<!-- Generator: Adobe Illustrator 19.0.0, SVG Export Plug-In . SVG Version: 6.00 Build 0)  -->
<svg xmlns="http://www.w3.org/2000/svg" xmlns:xlink="http://www.w3.org/1999/xlink" version="1.1" id="Layer_1" x="0px" y="0px" viewBox="0 0 512 512" style="enable-background:new 0 0 512 512;" xml:space="preserve">
<path style="fill:#73AF00;" d="M24.345,272.959H512v98.036c0,4.674-3.789,8.463-8.463,8.463H32.807  c-4.674,0-8.463-3.789-8.463-8.463v-98.036H24.345z"/>
<path style="fill:#FF4B55;" d="M32.807,59.961h470.73c4.674,0,8.463,3.789,8.463,8.463v98.036H24.345V68.422  C24.345,63.749,28.134,59.961,32.807,59.961z"/>
<rect x="24.341" y="166.45" style="fill:#F5F5F5;" width="487.65" height="106.5"/>
<g>
	<path style="fill:#FFCD5A;" d="M240.617,249.745c3.495-1.762,5.541-4.664,6.634-6.76c6.263,4.091,11.628,2.702,14.425,1.393   c2.728-1.278,4.975-3.364,6.475-5.488c1.5,2.124,3.747,4.21,6.475,5.488c2.795,1.309,8.161,2.695,14.425-1.393   c1.093,2.096,3.139,4.997,6.634,6.76c2.015,1.014,4.237,1.524,6.648,1.524c2.475,0,5.152-0.536,8.008-1.607l-1.387-3.701   c-4.545,1.704-8.399,1.796-11.453,0.272c-4.275-2.131-5.701-6.83-5.712-6.868l-0.834-2.918l-2.332,1.941   c-4.112,3.425-8.371,4.264-12.32,2.41c-4.011-1.878-6.175-5.679-6.175-6.82v-17.056c0.855-1.882,2.742-3.199,4.94-3.199   c0.755,0,1.502,0.164,2.218,0.487l2.446,1.103l-0.369-2.659c-0.775-5.587-5.595-9.799-11.211-9.799   c-5.615,0-10.435,4.212-11.21,9.799l-0.369,2.659l2.446-1.103c0.716-0.323,1.463-0.487,2.218-0.487c2.198,0,4.084,1.317,4.94,3.199   v17.056c0,1.14-2.164,4.942-6.175,6.82c-3.947,1.854-8.208,1.017-12.32-2.41l-2.312-1.916l-0.851,2.885   c-0.014,0.047-1.441,4.746-5.715,6.875c-3.056,1.524-6.91,1.433-11.453-0.272l-1.387,3.701c2.857,1.071,5.533,1.607,8.008,1.607   C236.379,251.269,238.601,250.759,240.617,249.745z M261.234,210.761c-0.236,0-0.472,0.01-0.707,0.031   c1.322-2.948,4.282-4.971,7.622-4.971c3.341,0,6.3,2.023,7.622,4.971c-3.073-0.27-5.979,1.231-7.622,3.608   C266.634,212.202,264.099,210.761,261.234,210.761z"/>
	<path style="fill:#FFCD5A;" d="M233.932,262.309l1.253,3.747c8.402-2.803,20.418-4.413,32.966-4.413   c12.548,0,24.565,1.609,32.966,4.413l1.253-3.747c-8.79-2.935-21.262-4.618-34.219-4.618   C255.195,257.692,242.722,259.375,233.932,262.309z"/>
	<path style="fill:#FFCD5A;" d="M268.151,253.739c2.06,0.006,3.875-1.218,5.105-2.867c-0.818-0.505-1.909-0.8-3.144-0.953   c0.001-0.045,0.016-0.086,0.016-0.132c0-1.694-0.8-3.157-1.976-3.952c-1.176,0.794-1.976,2.257-1.976,3.952   c0,0.045,0.014,0.087,0.015,0.131c-1.235,0.153-2.326,0.449-3.144,0.953C264.276,252.522,266.09,253.746,268.151,253.739z"/>
	<path style="fill:#FFCD5A;" d="M250.014,255.608c2.019-0.406,3.553-1.969,4.428-3.831c-0.902-0.331-2.03-0.402-3.271-0.305   c-0.007-0.044-0.002-0.088-0.012-0.132c-0.339-1.66-1.415-2.933-2.726-3.477c-0.993,1.014-1.484,2.608-1.146,4.267   c0.01,0.044,0.031,0.081,0.041,0.126c-1.18,0.397-2.19,0.904-2.89,1.562C245.973,255.19,247.995,256.025,250.014,255.608z"/>
	<path style="fill:#FFCD5A;" d="M287.869,247.863c-1.312,0.544-2.388,1.817-2.726,3.477c-0.01,0.044-0.003,0.088-0.012,0.132   c-1.241-0.097-2.37-0.026-3.271,0.305c0.875,1.862,2.409,3.424,4.428,3.831c2.017,0.418,4.04-0.418,5.575-1.789   c-0.7-0.658-1.711-1.166-2.89-1.562c0.011-0.044,0.033-0.081,0.041-0.126C289.353,250.471,288.862,248.877,287.869,247.863z"/>
	<path style="fill:#FFCD5A;" d="M267.623,175.086l-1.331,3.991l-4.207,0.033c-0.545,0.004-0.77,0.699-0.332,1.023l3.384,2.5   l-1.269,4.011c-0.164,0.519,0.427,0.949,0.871,0.633l3.423-2.447l3.423,2.447c0.443,0.316,1.035-0.113,0.87-0.633l-1.269-4.011   l3.384-2.5c0.438-0.324,0.213-1.019-0.332-1.023l-4.207-0.033l-1.331-3.991C268.526,174.569,267.795,174.569,267.623,175.086z"/>
	<path style="fill:#FFCD5A;" d="M243.541,181.673l-1.331,3.991l-4.207,0.033c-0.545,0.004-0.77,0.699-0.332,1.023l3.384,2.5   l-1.269,4.011c-0.164,0.519,0.427,0.949,0.87,0.633l3.423-2.447l3.423,2.447c0.443,0.316,1.035-0.113,0.871-0.633l-1.269-4.011   l3.384-2.5c0.438-0.324,0.213-1.019-0.332-1.023l-4.207-0.033l-1.331-3.991C244.444,181.156,243.713,181.156,243.541,181.673z"/>
	<path style="fill:#FFCD5A;" d="M225.838,199.457l-1.331,3.991l-4.207,0.033c-0.545,0.004-0.77,0.699-0.332,1.023l3.384,2.5   l-1.269,4.011c-0.164,0.519,0.427,0.949,0.871,0.633l3.423-2.447l3.423,2.447c0.443,0.316,1.035-0.113,0.871-0.633l-1.269-4.011   l3.384-2.5c0.438-0.324,0.213-1.019-0.332-1.023l-4.207-0.033l-1.331-3.991C226.742,198.94,226.011,198.94,225.838,199.457z"/>
	<path style="fill:#FFCD5A;" d="M219.334,223.498l-1.331,3.991l-4.207,0.033c-0.545,0.004-0.77,0.699-0.332,1.023l3.384,2.5   l-1.269,4.011c-0.164,0.519,0.427,0.949,0.871,0.633l3.423-2.447l3.423,2.447c0.443,0.316,1.035-0.113,0.871-0.633l-1.269-4.011   l3.384-2.5c0.438-0.324,0.213-1.019-0.332-1.023l-4.207-0.033l-1.331-3.991C220.237,222.982,219.506,222.982,219.334,223.498z"/>
	<path style="fill:#FFCD5A;" d="M292.804,181.673l1.331,3.991l4.207,0.033c0.545,0.004,0.77,0.699,0.332,1.023l-3.384,2.5   l1.269,4.011c0.164,0.519-0.427,0.949-0.87,0.633l-3.423-2.447l-3.423,2.447c-0.443,0.316-1.035-0.113-0.871-0.633l1.269-4.011   l-3.384-2.5c-0.438-0.324-0.213-1.019,0.332-1.023l4.207-0.033l1.331-3.991C291.901,181.156,292.632,181.156,292.804,181.673z"/>
	<path style="fill:#FFCD5A;" d="M310.505,199.457l1.331,3.991l4.207,0.033c0.545,0.004,0.77,0.699,0.332,1.023l-3.384,2.5   l1.269,4.011c0.164,0.519-0.427,0.949-0.871,0.633l-3.423-2.447l-3.423,2.447c-0.443,0.316-1.035-0.113-0.871-0.633l1.269-4.011   l-3.384-2.5c-0.438-0.324-0.213-1.019,0.332-1.023l4.207-0.033l1.331-3.991C309.603,198.94,310.334,198.94,310.505,199.457z"/>
	<path style="fill:#FFCD5A;" d="M317.01,223.498l1.331,3.991l4.207,0.033c0.545,0.004,0.77,0.699,0.332,1.023l-3.384,2.5   l1.269,4.011c0.164,0.519-0.427,0.949-0.87,0.633l-3.423-2.447l-3.423,2.447c-0.443,0.316-1.035-0.113-0.87-0.633l1.269-4.011   l-3.384-2.5c-0.438-0.324-0.213-1.019,0.332-1.023l4.207-0.033l1.331-3.991C316.107,222.982,316.838,222.982,317.01,223.498z"/>
</g>
<path style="fill:#2E3033;" d="M19.174,488.729L19.174,488.729C8.585,488.729,0,480.145,0,469.555V42.287  c0-10.502,8.514-19.016,19.016-19.016h0.158c10.589,0,19.174,8.585,19.174,19.174v427.111  C38.347,480.145,29.763,488.729,19.174,488.729z"/>
<g>
</g>
<g>
</g>
<g>
</g>
<g>
</g>
<g>
</g>
<g>
</g>
<g>
</g>
<g>
</g>
<g>
</g>
<g>
</g>
<g>
</g>
<g>
</g>
<g>
</g>
<g>
</g>
<g>
</g>
</svg>
