<?xml version="1.0" encoding="iso-8859-1"?>
<!-- Generator: Adobe Illustrator 19.0.0, SVG Export Plug-In . SVG Version: 6.00 Build 0)  -->
<svg xmlns="http://www.w3.org/2000/svg" xmlns:xlink="http://www.w3.org/1999/xlink" version="1.1" id="Layer_1" x="0px" y="0px" viewBox="0 0 512.1 512.1" style="enable-background:new 0 0 512.1 512.1;" xml:space="preserve">
<path style="fill:#41479B;" d="M503.6,373.9H35.4c-4.6,0-8.4-3.7-8.4-8.4v-301c0-4.6,3.7-8.4,8.4-8.4h468.3c4.6,0,8.4,3.7,8.4,8.4  v301C512,370.1,508.3,373.9,503.6,373.9z"/>
<g>
	<path style="fill:#FFE15A;" d="M478.6,323.7H144.1c-4.6,0-8.4-3.7-8.4-8.4l0,0c0-4.6,3.7-8.4,8.4-8.4h334.5l8.4,8.4L478.6,323.7z"/>
	<path style="fill:#FFE15A;" d="M482.7,298.6H144.1c0,0,133.8-150.5,259.2-184c0,0-41.8,108.7,58.5,175.6h20.9   c2.3,0,4.2,1.9,4.2,4.2l0,0C486.9,296.7,485,298.6,482.7,298.6z"/>
</g>
<g>
	<path style="fill:#F5F5F5;" d="M129.5,250.2l3.2,9.7L143,260c1.3,0,1.9,1.7,0.8,2.5l-8.3,6.1l3.1,9.8c0.4,1.3-1,2.3-2.1,1.5l-8.3-6   l-8.3,6c-1.1,0.8-2.5-0.3-2.1-1.5l3.1-9.8l-8.3-6.1c-1.1-0.8-0.5-2.5,0.8-2.5l10.3-0.1l3.2-9.7C127.3,249,129,249,129.5,250.2z"/>
	<path style="fill:#F5F5F5;" d="M129.2,116.5l2.6,7.9l8.3,0.1c1.1,0,1.5,1.4,0.7,2l-6.7,4.9l2.5,7.9c0.3,1-0.8,1.9-1.7,1.3l-6.8-4.8   l-6.8,4.8c-0.9,0.6-2-0.2-1.7-1.3l2.5-7.9l-6.7-4.9c-0.9-0.6-0.4-2,0.7-2l8.3-0.1l2.6-7.9C127.4,115.4,128.9,115.4,129.2,116.5z"/>
	<path style="fill:#F5F5F5;" d="M66.2,165.3l2.6,7.9l8.3,0.1c1.1,0,1.5,1.4,0.7,2l-6.7,4.9l2.5,7.9c0.3,1-0.8,1.9-1.7,1.3l-6.8-4.8   l-6.8,4.8c-0.9,0.6-2-0.2-1.7-1.3l2.5-7.9l-6.7-4.9c-0.9-0.6-0.4-2,0.7-2l8.3-0.1l2.6-7.9C64.4,164.3,65.8,164.3,66.2,165.3z"/>
	<path style="fill:#F5F5F5;" d="M174.3,162l2,6.1h6.4c0.8,0,1.2,1.1,0.5,1.6l-5.2,3.8l1.9,6.1c0.2,0.8-0.7,1.4-1.3,1l-5.2-3.7   l-5.2,3.7c-0.7,0.5-1.6-0.2-1.3-1l1.9-6.1l-5.2-3.8c-0.7-0.5-0.3-1.6,0.5-1.6h6.4l2-6.1C172.9,161.2,174,161.2,174.3,162z"/>
</g>
<path style="fill:#2E3033;" d="M19.2,489.1L19.2,489.1C8.6,489.1,0,480.5,0,469.9V42c0-10.5,8.5-19,19-19h0.2  c10.6,0,19.2,8.6,19.2,19.2V470C38.4,480.5,29.8,489.1,19.2,489.1z"/>
<g>
</g>
<g>
</g>
<g>
</g>
<g>
</g>
<g>
</g>
<g>
</g>
<g>
</g>
<g>
</g>
<g>
</g>
<g>
</g>
<g>
</g>
<g>
</g>
<g>
</g>
<g>
</g>
<g>
</g>
</svg>
