<?xml version="1.0" encoding="iso-8859-1"?>
<!-- Generator: Adobe Illustrator 19.0.0, SVG Export Plug-In . SVG Version: 6.00 Build 0)  -->
<svg xmlns="http://www.w3.org/2000/svg" xmlns:xlink="http://www.w3.org/1999/xlink" version="1.1" id="Layer_1" x="0px" y="0px" viewBox="0 0 512.1 512.1" style="enable-background:new 0 0 512.1 512.1;" xml:space="preserve">
<path style="fill:#FF4B55;" d="M503.6,56.2H35.4c-4.6,0-8.4,3.7-8.4,8.4v301c0,4.6,3.7,8.4,8.4,8.4h468.3c4.6,0,8.4-3.7,8.4-8.4  v-301C512,60,508.3,56.2,503.6,56.2z"/>
<path style="fill:#FFE15A;" d="M30.3,372.1l268.9-151.8c4-2.3,4-8.1,0-10.4L30.3,58.1c-2,1.5-3.3,3.8-3.3,6.5v301  C27,368.3,28.3,370.6,30.3,372.1z"/>
<path style="fill:#464655;" d="M29.6,371.6l182.8-150.8c3.6-3,3.6-8.5,0-11.5L29.6,58.6c-1.6,1.5-2.6,3.6-2.6,6v301  C27,368,28,370.1,29.6,371.6z"/>
<path style="fill:#F5F5F5;" d="M79.2,175.8l0.8,30.1l-28.2,10.5c-2.7,1-2.6,4.9,0.2,5.7l28.9,8.5l1.3,30.1c0.1,2.9,3.8,4,5.5,1.6  l17-24.8l29,8.1c2.8,0.8,4.9-2.4,3.2-4.7L118.6,217l16.7-25.1c1.6-2.4-0.8-5.5-3.5-4.5l-28.4,10.1l-18.7-23.6  C82.8,171.6,79.1,172.9,79.2,175.8z"/>
<path style="fill:#2E3033;" d="M18.7,483.5L18.7,483.5C8.4,483.5,0,475.2,0,464.8V47.2c0-10.3,8.3-18.6,18.6-18.6h0.2  c10.3,0,18.7,8.4,18.7,18.7v417.4C37.5,475.2,29.1,483.5,18.7,483.5z"/>
<g>
</g>
<g>
</g>
<g>
</g>
<g>
</g>
<g>
</g>
<g>
</g>
<g>
</g>
<g>
</g>
<g>
</g>
<g>
</g>
<g>
</g>
<g>
</g>
<g>
</g>
<g>
</g>
<g>
</g>
</svg>
