<?xml version="1.0" encoding="iso-8859-1"?>
<!-- Generator: Adobe Illustrator 19.0.0, SVG Export Plug-In . SVG Version: 6.00 Build 0)  -->
<svg xmlns="http://www.w3.org/2000/svg" xmlns:xlink="http://www.w3.org/1999/xlink" version="1.1" id="Layer_1" x="0px" y="0px" viewBox="0 0 512.001 512.001" style="enable-background:new 0 0 512.001 512.001;" xml:space="preserve">
<path style="fill:#73AF00;" d="M503.524,374.658H28.87c-4.681,0-8.476-3.795-8.476-8.476V61.047c0-4.681,3.795-8.476,8.476-8.476  h474.655c4.681,0,8.476,3.795,8.476,8.476v305.135C512,370.864,508.205,374.658,503.524,374.658z"/>
<rect x="88.2" y="52.57" style="fill:#FF4B55;" width="84.76" height="322.09"/>
<polygon style="fill:#F5F5F5;" points="164.486,89.301 147.534,103.427 113.63,103.427 96.678,89.301 96.678,75.173 113.63,61.047   147.534,61.047 164.486,75.173 "/>
<g>
	<polygon style="fill:#73AF00;" points="164.486,207.964 147.534,222.09 113.63,222.09 96.678,207.964 96.678,193.837    113.63,179.711 147.534,179.711 164.486,193.837  "/>
	<polygon style="fill:#73AF00;" points="164.486,148.632 147.534,162.759 113.63,162.759 96.678,148.632 96.678,134.505    113.63,120.379 147.534,120.379 164.486,134.505  "/>
	<polygon style="fill:#73AF00;" points="164.486,267.296 147.534,281.422 113.63,281.422 96.678,267.296 96.678,253.17    113.63,239.042 147.534,239.042 164.486,253.17  "/>
</g>
<g>
	<polygon style="fill:#FFB400;" points="88.202,94.951 105.154,111.903 88.202,128.855  "/>
	<polygon style="fill:#FFB400;" points="172.962,128.855 156.01,111.903 172.962,94.951  "/>
	<polygon style="fill:#FFB400;" points="88.202,154.283 105.154,171.235 88.202,188.186  "/>
	<polygon style="fill:#FFB400;" points="172.962,188.186 156.01,171.235 172.962,154.283  "/>
	<polygon style="fill:#FFB400;" points="88.202,213.614 105.154,230.566 88.202,247.518  "/>
	<polygon style="fill:#FFB400;" points="172.962,247.518 156.01,230.566 172.962,213.614  "/>
	<polygon style="fill:#FFB400;" points="88.202,272.946 105.154,289.898 88.202,306.85  "/>
	<polygon style="fill:#FFB400;" points="172.962,306.85 156.01,289.898 172.962,272.946  "/>
	<polygon style="fill:#FFB400;" points="88.202,52.571 105.154,52.571 88.202,69.523  "/>
	<polygon style="fill:#FFB400;" points="172.962,69.523 156.01,52.571 172.962,52.571  "/>
	<rect x="126.34" y="120.38" style="fill:#FFB400;" width="8.476" height="42.38"/>
</g>
<rect x="113.63" y="137.33" style="fill:#FF4B55;" width="33.904" height="8.476"/>
<g>
	<polygon style="fill:#FFB400;" points="156.01,127.442 147.534,120.379 147.534,162.759 156.01,155.695  "/>
	<polygon style="fill:#FFB400;" points="105.154,155.695 113.63,162.759 113.63,120.38 105.154,127.442  "/>
	<polygon style="fill:#FFB400;" points="130.582,61.047 113.63,61.047 96.678,75.173 96.678,82.237 130.582,82.237  "/>
	<polygon style="fill:#FFB400;" points="130.582,103.427 147.533,103.427 164.486,89.301 164.486,82.237 130.582,82.237  "/>
</g>
<polygon style="fill:#FF4B55;" points="130.582,94.951 113.63,82.287 130.582,69.523 147.534,82.287 "/>
<g>
	<polygon style="fill:#73AF00;" points="130.582,94.951 147.534,82.287 147.467,82.237 130.582,82.237  "/>
	<polygon style="fill:#73AF00;" points="130.582,82.237 130.582,69.523 113.695,82.237  "/>
</g>
<rect x="113.63" y="188.19" style="fill:#FF4B55;" width="33.904" height="25.428"/>
<rect x="147.53" y="196.66" style="fill:#FFB400;" width="8.476" height="8.476"/>
<rect x="126.34" y="196.66" style="fill:#F5F5F5;" width="8.476" height="8.476"/>
<rect x="126.34" y="247.52" style="fill:#FF4B55;" width="8.476" height="8.476"/>
<g>
	<rect x="139.06" y="256" style="fill:#FFB400;" width="8.476" height="8.476"/>
	<rect x="113.63" y="256" style="fill:#FFB400;" width="8.476" height="8.476"/>
</g>
<rect x="126.34" y="264.47" style="fill:#FF4B55;" width="8.476" height="8.476"/>
<rect x="105.16" y="196.66" style="fill:#FFB400;" width="8.476" height="8.476"/>
<polygon style="fill:#F5F5F5;" points="164.486,326.628 147.534,340.754 113.63,340.754 96.678,326.628 96.678,312.501   113.63,298.374 147.534,298.374 164.486,312.501 "/>
<g>
	<polygon style="fill:#FFB400;" points="130.582,298.374 113.63,298.374 96.678,312.5 96.678,319.564 130.582,319.564  "/>
	<polygon style="fill:#FFB400;" points="130.582,340.754 147.533,340.754 164.486,326.628 164.486,319.564 130.582,319.564  "/>
</g>
<polygon style="fill:#FF4B55;" points="147.534,323.802 130.582,332.278 113.63,323.802 113.63,315.326 130.582,306.85   147.534,315.326 "/>
<g>
	<path style="fill:#F5F5F5;" d="M289.251,98.724c-0.903-0.444-1.72,0.731-0.987,1.421c9.592,9.051,15.654,21.763,15.654,35.942   c0,27.852-22.387,50.197-49.915,50.197c-5.081,0-9.975-0.793-14.591-2.236c-0.957-0.299-1.575,0.984-0.752,1.556   c8.048,5.595,17.749,8.939,28.338,8.939c27.892,0,50.684-22.348,50.684-50.603C317.681,124.082,306.026,106.97,289.251,98.724z"/>
	<path style="fill:#F5F5F5;" d="M220.274,131.426l-2.073,5.865l4.878,3.861c0.631,0.5,0.264,1.516-0.541,1.495l-6.219-0.16   l-2.165,5.833c-0.281,0.755-1.36,0.719-1.589-0.053l-1.769-5.964l-6.216-0.256c-0.805-0.033-1.104-1.071-0.441-1.528l5.126-3.526   l-1.677-5.991c-0.217-0.776,0.678-1.382,1.317-0.891l4.937,3.785l5.18-3.447C219.691,130.003,220.543,130.668,220.274,131.426z"/>
	<path style="fill:#F5F5F5;" d="M245.465,144.149l-2.073,5.865l4.878,3.861c0.631,0.5,0.264,1.516-0.541,1.495l-6.219-0.16   l-2.166,5.834c-0.281,0.755-1.36,0.719-1.589-0.053l-1.769-5.964l-6.216-0.256c-0.805-0.033-1.104-1.071-0.441-1.528l5.126-3.526   l-1.677-5.991c-0.217-0.776,0.678-1.382,1.317-0.891l4.937,3.785l5.18-3.447C244.88,142.726,245.733,143.39,245.465,144.149z"/>
	<path style="fill:#F5F5F5;" d="M245.211,117.941l-2.073,5.865l4.878,3.861c0.631,0.5,0.264,1.516-0.541,1.495l-6.219-0.16   l-2.165,5.833c-0.281,0.755-1.36,0.719-1.589-0.053l-1.769-5.964l-6.216-0.256c-0.805-0.033-1.104-1.071-0.441-1.528l5.126-3.526   l-1.677-5.991c-0.217-0.776,0.678-1.382,1.317-0.891l4.937,3.785l5.18-3.447C244.626,116.518,245.479,117.181,245.211,117.941z"/>
	<path style="fill:#F5F5F5;" d="M246.068,92.645l-2.073,5.865l4.878,3.861c0.631,0.5,0.264,1.516-0.541,1.495l-6.219-0.16   l-2.165,5.833c-0.281,0.755-1.36,0.719-1.589-0.053l-1.769-5.964l-6.216-0.256c-0.805-0.033-1.104-1.071-0.441-1.528l5.126-3.526   l-1.677-5.991c-0.217-0.776,0.678-1.382,1.317-0.891l4.937,3.785l5.18-3.447C245.484,91.221,246.337,91.886,246.068,92.645z"/>
	<path style="fill:#F5F5F5;" d="M270.749,105.368l-2.073,5.865l4.878,3.861c0.631,0.5,0.264,1.516-0.541,1.495l-6.219-0.16   l-2.165,5.833c-0.281,0.755-1.36,0.719-1.589-0.053l-1.769-5.964l-6.216-0.256c-0.805-0.033-1.104-1.071-0.441-1.528l5.126-3.526   l-1.677-5.991c-0.217-0.776,0.678-1.382,1.317-0.891l4.937,3.785l5.18-3.447C270.165,103.944,271.018,104.608,270.749,105.368z"/>
</g>
<path style="fill:#2E3033;" d="M19.203,489.089L19.203,489.089C8.598,489.089,0,480.492,0,469.886V41.957  c0-10.519,8.527-19.045,19.045-19.045h0.158c10.606,0,19.203,8.598,19.203,19.203v427.771  C38.407,480.492,29.809,489.089,19.203,489.089z"/>
<g>
</g>
<g>
</g>
<g>
</g>
<g>
</g>
<g>
</g>
<g>
</g>
<g>
</g>
<g>
</g>
<g>
</g>
<g>
</g>
<g>
</g>
<g>
</g>
<g>
</g>
<g>
</g>
<g>
</g>
</svg>
