<?xml version="1.0" encoding="iso-8859-1"?>
<!-- Generator: Adobe Illustrator 19.0.0, SVG Export Plug-In . SVG Version: 6.00 Build 0)  -->
<svg xmlns="http://www.w3.org/2000/svg" xmlns:xlink="http://www.w3.org/1999/xlink" version="1.1" id="Layer_1" x="0px" y="0px" viewBox="0 0 512 512" style="enable-background:new 0 0 512 512;" xml:space="preserve">
<path style="fill:#FF4B55;" d="M503.547,374.338H35.133c-4.668,0-8.453-3.785-8.453-8.453V64.822c0-4.668,3.785-8.453,8.453-8.453  h468.414c4.668,0,8.453,3.785,8.453,8.453v301.062C512,370.553,508.216,374.338,503.547,374.338z"/>
<path style="fill:#F5F5F5;" d="M270.29,131.678c46.179,0,83.61,37.531,83.61,83.676c0,46.279-37.429,83.676-83.61,83.676  c-46.279,0-83.743-37.398-83.743-83.676C186.547,169.208,224.011,131.678,270.29,131.678"/>
<g>
	<path style="fill:#FF4B55;" d="M285.494,262.242c-25.903,0-46.914-21.01-46.914-46.883c0-25.812,21.01-46.821,46.914-46.821   c8.811,0,17.044,2.468,24.081,6.731c1.055,0.638,2.163-0.742,1.285-1.607c-10.558-10.402-25.014-16.845-40.983-16.845   c-32.419,0-58.667,26.249-58.667,58.542c0,32.356,26.248,58.604,58.667,58.604c15.961,0,30.41-6.437,40.967-16.838   c0.878-0.865-0.23-2.245-1.285-1.607C302.526,259.778,294.299,262.242,285.494,262.242z"/>
	<path style="fill:#FF4B55;" d="M281.208,182.544l12.933,17.56l20.801-6.552c2.693-0.848,4.917,2.22,3.271,4.515l-12.704,17.726   l12.659,17.759c1.639,2.299-0.592,5.361-3.283,4.507l-20.785-6.605l-12.978,17.527c-1.68,2.27-5.282,1.094-5.3-1.73l-0.142-21.808   l-20.679-6.926c-2.678-0.897-2.672-4.685,0.007-5.576l20.697-6.873l0.197-21.808C275.929,181.437,279.533,180.27,281.208,182.544z"/>
</g>
<path style="fill:#2E3033;" d="M19.152,488.46L19.152,488.46C8.575,488.46,0,479.885,0,469.308V42.534  C0,32.044,8.504,23.54,18.994,23.54h0.157c10.577,0,19.152,8.575,19.152,19.152v426.617C38.303,479.885,29.728,488.46,19.152,488.46  z"/>
<g>
</g>
<g>
</g>
<g>
</g>
<g>
</g>
<g>
</g>
<g>
</g>
<g>
</g>
<g>
</g>
<g>
</g>
<g>
</g>
<g>
</g>
<g>
</g>
<g>
</g>
<g>
</g>
<g>
</g>
</svg>
