<?xml version="1.0" encoding="iso-8859-1"?>
<!-- Generator: Adobe Illustrator 19.0.0, SVG Export Plug-In . SVG Version: 6.00 Build 0)  -->
<svg xmlns="http://www.w3.org/2000/svg" xmlns:xlink="http://www.w3.org/1999/xlink" version="1.1" id="Layer_1" x="0px" y="0px" viewBox="0 0 512.1 512.1" style="enable-background:new 0 0 512.1 512.1;" xml:space="preserve">
<path style="fill:#FF4B55;" d="M503.6,373.9H35.4c-4.6,0-8.4-3.7-8.4-8.4v-301c0-4.6,3.7-8.4,8.4-8.4h468.3c4.6,0,8.4,3.7,8.4,8.4  v301C512,370.1,508.3,373.9,503.6,373.9z"/>
<path style="fill:#F5F5F5;" d="M213,215H37.4c-4.6,0-8.4-3.7-8.4-8.4V64.5c0-4.6,3.7-8.4,8.4-8.4H213c4.6,0,8.4,3.7,8.4,8.4v142.2  C221.3,211.3,217.6,215,213,215z"/>
<polygon style="fill:#FF4B55;" points="187.9,114.7 146.1,114.7 146.1,72.8 104.3,72.8 104.3,114.7 62.4,114.7 62.4,156.5   104.3,156.5 104.3,198.3 146.1,198.3 146.1,156.5 187.9,156.5 "/>
<path style="fill:#2E3033;" d="M19.2,489.1L19.2,489.1C8.6,489.1,0,480.5,0,469.9V42c0-10.5,8.5-19,19-19h0.2  c10.6,0,19.2,8.6,19.2,19.2V470C38.4,480.5,29.8,489.1,19.2,489.1z"/>
<g>
</g>
<g>
</g>
<g>
</g>
<g>
</g>
<g>
</g>
<g>
</g>
<g>
</g>
<g>
</g>
<g>
</g>
<g>
</g>
<g>
</g>
<g>
</g>
<g>
</g>
<g>
</g>
<g>
</g>
</svg>
