<?xml version="1.0" encoding="iso-8859-1"?>
<!-- Generator: Adobe Illustrator 19.0.0, SVG Export Plug-In . SVG Version: 6.00 Build 0)  -->
<svg xmlns="http://www.w3.org/2000/svg" xmlns:xlink="http://www.w3.org/1999/xlink" version="1.1" id="Layer_1" x="0px" y="0px" viewBox="0 0 511.902 511.902" style="enable-background:new 0 0 511.902 511.902;" xml:space="preserve">
<path style="fill:#FF4B55;" d="M503.6,373.851H35.4c-4.7,0-8.4-3.8-8.4-8.4v-300.9c0-4.7,3.8-8.4,8.4-8.4h468.1  c4.7,0,8.4,3.8,8.4,8.4v300.9C512,370.051,508.2,373.851,503.6,373.851z"/>
<g>
	<path style="fill:#F5F5F5;" d="M267.3,186.251l13.1,17.1l20.5-6.9c1.1-0.4,2.1,0.9,1.4,1.9l-12.3,17.8l12.8,17.3   c0.7,1-0.2,2.3-1.4,2l-20.7-6.2l-12.4,17.7c-0.7,1-2.2,0.5-2.3-0.7l-0.5-21.6l-20.6-6.5c-1.2-0.4-1.2-2,0-2.4l20.4-7.2l-0.2-21.6   C265.1,185.851,266.6,185.351,267.3,186.251z"/>
	<path style="fill:#F5F5F5;" d="M194.8,281.851c-36.9,0-66.9-30-66.9-66.9s30-66.9,66.9-66.9c13.7,0,26.4,4.2,37,11.4   c1.6,1.1,3.5-1,2.1-2.4c-15.8-16.4-38.1-26.4-62.9-25.6c-42.6,1.5-77.8,35.6-80.5,78.1c-3.1,48.7,35.4,89.1,83.4,89.1   c23.6,0,44.9-9.9,60.1-25.7c1.3-1.4-0.5-3.5-2.1-2.4C221.3,277.651,208.6,281.851,194.8,281.851z"/>
</g>
<path style="fill:#2E3033;" d="M19.1,488.051L19.1,488.051c-10.5,0-19.1-8.6-19.1-19.1v-426.1c0-10.5,8.5-19,19-19h0.2  c10.6,0,19.1,8.6,19.1,19.1v426C38.2,479.451,29.7,488.051,19.1,488.051z"/>
<g>
</g>
<g>
</g>
<g>
</g>
<g>
</g>
<g>
</g>
<g>
</g>
<g>
</g>
<g>
</g>
<g>
</g>
<g>
</g>
<g>
</g>
<g>
</g>
<g>
</g>
<g>
</g>
<g>
</g>
</svg>
