<?xml version="1.0" encoding="iso-8859-1"?>
<!-- Generator: Adobe Illustrator 19.0.0, SVG Export Plug-In . SVG Version: 6.00 Build 0)  -->
<svg xmlns="http://www.w3.org/2000/svg" xmlns:xlink="http://www.w3.org/1999/xlink" version="1.1" id="Layer_1" x="0px" y="0px" viewBox="0 0 512.6 512.6" style="enable-background:new 0 0 512.6 512.6;" xml:space="preserve">
<path style="fill:#FF4B55;" d="M504.1,374.25H36c-4.6,0-8.4-3.8-8.4-8.4v-301c0-4.6,3.8-8.4,8.4-8.4h468.2c4.6,0,8.4,3.8,8.4,8.4  v300.9C512.5,370.45,508.8,374.25,504.1,374.25z"/>
<g>
	<path style="fill:#F5F5F5;" d="M35.9,56.45c-2.3,0-4.3,0.9-5.8,2.4l340.3,315.4h25.1L52.6,56.45H35.9z"/>
	<path style="fill:#F5F5F5;" d="M169.7,56.45h-25.1l342.8,317.8h16.7c2.3,0,4.3-0.9,5.8-2.4L169.7,56.45z"/>
</g>
<polygon style="fill:#464655;" points="52.6,56.45 395.5,374.25 487.5,374.25 144.6,56.45 "/>
<path style="fill:#2E3033;" d="M19,487.25L19,487.25c-10.5,0-19-8.5-19-19v-424c0-10.4,8.4-18.9,18.9-18.9H19c10.5,0,19,8.5,19,19  v423.8C38.1,478.75,29.5,487.25,19,487.25z"/>
<g>
</g>
<g>
</g>
<g>
</g>
<g>
</g>
<g>
</g>
<g>
</g>
<g>
</g>
<g>
</g>
<g>
</g>
<g>
</g>
<g>
</g>
<g>
</g>
<g>
</g>
<g>
</g>
<g>
</g>
</svg>
