<?xml version="1.0" encoding="iso-8859-1"?>
<!-- Generator: Adobe Illustrator 19.0.0, SVG Export Plug-In . SVG Version: 6.00 Build 0)  -->
<svg xmlns="http://www.w3.org/2000/svg" xmlns:xlink="http://www.w3.org/1999/xlink" version="1.1" id="Layer_1" x="0px" y="0px" viewBox="0 0 512 512" style="enable-background:new 0 0 512 512;" xml:space="preserve">
<path style="fill:#82AFFF;" d="M503.666,378.92H40.111c-4.602,0-8.334-3.732-8.334-8.334V72.625c0-4.602,3.732-8.334,8.334-8.334  h463.555c4.602,0,8.334,3.732,8.334,8.334v297.961C512,375.189,508.268,378.92,503.666,378.92z"/>
<path style="fill:#41479B;" d="M263.555,221.606H40.111c-4.602,0-8.334-3.731-8.334-8.334V72.625c0-4.602,3.732-8.334,8.334-8.334  h223.443c4.602,0,8.334,3.732,8.334,8.334v140.647C271.889,217.875,268.158,221.606,263.555,221.606z"/>
<path style="fill:#F5F5F5;" d="M263.609,64.291h-14.382l-76.695,50.248V64.291h-41.399v50.248L54.439,64.291H40.057  c-4.573,0-8.28,3.706-8.28,8.28v6.567l65.8,43.11h-65.8v41.399h65.8l-65.8,43.11v6.568c0,4.572,3.706,8.28,8.28,8.28h14.382  l76.695-50.248v50.248h41.399v-50.248l76.695,50.248h14.382c4.573,0,8.28-3.708,8.28-8.28v-6.568l-65.8-43.11h65.8v-41.399h-65.8  l65.8-43.11v-6.567C271.889,67.998,268.182,64.291,263.609,64.291z"/>
<g>
	<polygon style="fill:#FF4B55;" points="271.889,130.529 164.253,130.529 164.253,64.291 139.414,64.291 139.414,130.529    31.777,130.529 31.777,155.368 139.414,155.368 139.414,221.606 164.253,221.606 164.253,155.368 271.889,155.368  "/>
	<path style="fill:#FF4B55;" d="M122.854,122.249L35.723,65.69c-2.319,1.467-3.946,3.934-3.946,6.881V73l75.869,49.249H122.854z"/>
	<path style="fill:#FF4B55;" d="M187.74,122.249l82.889-53.806c-1.441-2.438-3.983-4.152-7.02-4.152h-1.791l-89.286,57.958H187.74z"/>
	<path style="fill:#FF4B55;" d="M115.698,163.648L32.967,217.35c1.426,2.497,4.008,4.257,7.089,4.257h1.563l89.287-57.958   L115.698,163.648L115.698,163.648z"/>
	<path style="fill:#FF4B55;" d="M271.758,213.976l-77.535-50.328h-15.207l88.048,57.153   C269.699,219.577,271.509,217.012,271.758,213.976z"/>
</g>
<g>
	<path style="fill:#FFE15A;" d="M236.872,312.926l-4.433,13.29l-14.009,0.108c-1.344,0.01-1.9,1.725-0.82,2.523l11.27,8.322   l-4.226,13.357c-0.405,1.281,1.053,2.341,2.146,1.56l11.398-8.146l11.398,8.146c1.093,0.781,2.551-0.278,2.146-1.56l-4.224-13.358   l11.27-8.322c1.08-0.798,0.524-2.513-0.82-2.523l-14.009-0.108l-4.433-13.29C239.099,311.651,237.297,311.651,236.872,312.926z"/>
	<path style="fill:#FFE15A;" d="M452.662,209.429l-4.433,13.29l-14.009,0.108c-1.344,0.01-1.9,1.725-0.82,2.523l11.27,8.322   l-4.226,13.357c-0.405,1.281,1.053,2.341,2.146,1.559l11.398-8.146l11.398,8.146c1.093,0.781,2.551-0.278,2.146-1.559   l-4.226-13.357l11.27-8.322c1.081-0.798,0.524-2.513-0.82-2.523l-14.009-0.108l-4.433-13.29   C454.89,208.154,453.087,208.154,452.662,209.429z"/>
	<path style="fill:#FFE15A;" d="M452.662,97.653l-4.433,13.29l-14.009,0.108c-1.344,0.01-1.9,1.725-0.82,2.523l11.27,8.322   l-4.226,13.357c-0.405,1.281,1.053,2.341,2.146,1.559l11.398-8.146l11.398,8.146c1.093,0.781,2.551-0.278,2.146-1.559   l-4.226-13.357l11.27-8.322c1.081-0.798,0.524-2.513-0.82-2.523l-14.009-0.108l-4.433-13.29   C454.89,96.379,453.087,96.379,452.662,97.653z"/>
	<path style="fill:#FFE15A;" d="M292.347,243.005l4.376,13.309l-11.176,8.448c-1.072,0.81-0.495,2.518,0.848,2.514l14.009-0.049   l4.582,13.239c0.44,1.27,2.242,1.249,2.652-0.03l4.283-13.339l14.007-0.267c1.343-0.026,1.881-1.746,0.792-2.532l-11.363-8.195   l4.075-13.404c0.391-1.285-1.079-2.328-2.164-1.534l-11.305,8.275l-11.488-8.018C293.374,240.653,291.927,241.729,292.347,243.005z   "/>
	<path style="fill:#FFE15A;" d="M291.311,300.446l4.376,13.309l-11.176,8.448c-1.072,0.81-0.495,2.518,0.848,2.514l14.009-0.049   l4.582,13.239c0.44,1.27,2.242,1.249,2.652-0.03l4.283-13.339l14.007-0.267c1.343-0.026,1.881-1.746,0.792-2.532l-11.363-8.195   l4.075-13.404c0.391-1.286-1.079-2.328-2.164-1.536l-11.305,8.275l-11.488-8.018C292.338,298.093,290.892,299.17,291.311,300.446z"/>
	<path style="fill:#FFE15A;" d="M351.857,285.956l4.376,13.309l-11.176,8.448c-1.072,0.81-0.495,2.518,0.848,2.514l14.009-0.049   l4.582,13.239c0.44,1.27,2.242,1.249,2.652-0.03l4.283-13.339l14.007-0.266c1.343-0.026,1.881-1.746,0.792-2.532l-11.363-8.195   l4.075-13.404c0.391-1.286-1.079-2.328-2.164-1.534l-11.305,8.275l-11.488-8.018C352.884,283.604,351.437,284.68,351.857,285.956z"/>
	<path style="fill:#FFE15A;" d="M350.823,160.726l4.376,13.309l-11.176,8.448c-1.072,0.81-0.495,2.518,0.848,2.514l14.009-0.049   l4.582,13.239c0.44,1.27,2.242,1.249,2.652-0.03l4.283-13.339l14.007-0.267c1.343-0.026,1.881-1.746,0.792-2.532l-11.363-8.195   l4.075-13.404c0.391-1.285-1.079-2.328-2.164-1.534l-11.305,8.275l-11.488-8.018C351.849,158.374,350.403,159.45,350.823,160.726z"/>
	<path style="fill:#FFE15A;" d="M402.053,143.649l4.376,13.309l-11.176,8.448c-1.072,0.81-0.495,2.518,0.848,2.514l14.009-0.049   l4.582,13.239c0.44,1.27,2.242,1.249,2.652-0.03l4.283-13.339l14.007-0.267c1.343-0.026,1.881-1.746,0.792-2.532l-11.363-8.195   l4.075-13.404c0.391-1.285-1.079-2.328-2.164-1.534l-11.305,8.275l-11.488-8.018C403.079,141.296,401.633,142.373,402.053,143.649z   "/>
</g>
<path style="fill:#2E3033;" d="M18.881,485.182L18.881,485.182C8.454,485.182,0,476.729,0,466.302V45.545  c0-10.342,8.384-18.727,18.726-18.727h0.155c10.428,0,18.881,8.454,18.881,18.881V466.3  C37.763,476.729,29.309,485.182,18.881,485.182z"/>
<g>
</g>
<g>
</g>
<g>
</g>
<g>
</g>
<g>
</g>
<g>
</g>
<g>
</g>
<g>
</g>
<g>
</g>
<g>
</g>
<g>
</g>
<g>
</g>
<g>
</g>
<g>
</g>
<g>
</g>
</svg>
