<?xml version="1.0" encoding="iso-8859-1"?>
<!-- Generator: Adobe Illustrator 19.0.0, SVG Export Plug-In . SVG Version: 6.00 Build 0)  -->
<svg xmlns="http://www.w3.org/2000/svg" xmlns:xlink="http://www.w3.org/1999/xlink" version="1.1" id="Layer_1" x="0px" y="0px" viewBox="0 0 512.1 512.1" style="enable-background:new 0 0 512.1 512.1;" xml:space="preserve">
<path style="fill:#3CC8FF;" d="M503.6,373.9H35.4c-4.6,0-8.4-3.7-8.4-8.4v-301c0-4.6,3.7-8.4,8.4-8.4h468.3c4.6,0,8.4,3.7,8.4,8.4  v301C512,370.1,508.3,373.9,503.6,373.9z"/>
<path style="fill:#41479B;" d="M265.1,215H39.4c-4.6,0-8.4-3.7-8.4-8.4V64.5c0-4.6,3.7-8.4,8.4-8.4h225.8c4.6,0,8.4,3.7,8.4,8.4  v142.2C273.5,211.3,269.8,215,265.1,215z"/>
<path style="fill:#F5F5F5;" d="M265.1,56.1h-14.5l-77.5,50.7V56.1h-41.8v50.7L53.9,56.1H39.4c-4.6,0-8.4,3.7-8.4,8.4v6.6l66.5,43.5  H31v41.8h66.5L31,200v6.6c0,4.6,3.7,8.4,8.4,8.4h14.5l77.5-50.7V215h41.8v-50.7l77.5,50.7h14.5c4.6,0,8.4-3.7,8.4-8.4V200L207,156.5  h66.5v-41.8H207l66.5-43.5v-6.6C273.5,59.9,269.8,56.1,265.1,56.1z"/>
<g>
	<polygon style="fill:#FF4B55;" points="273.5,123 164.8,123 164.8,56.1 139.7,56.1 139.7,123 31,123 31,148.1 139.7,148.1    139.7,215 164.8,215 164.8,148.1 273.5,148.1  "/>
	<path style="fill:#FF4B55;" d="M123,114.7L35,57.5c-2.3,1.5-4,4-4,6.9v0.4l76.6,49.7C107.6,114.7,123,114.7,123,114.7z"/>
	<path style="fill:#FF4B55;" d="M188.5,114.7l83.7-54.3c-1.5-2.5-4-4.2-7.1-4.2h-1.8l-90.2,58.5H188.5z"/>
	<path style="fill:#FF4B55;" d="M115.8,156.5l-83.6,54.2c1.4,2.5,4,4.3,7.2,4.3H41l90.2-58.5H115.8z"/>
	<path style="fill:#FF4B55;" d="M273.4,207.3l-78.3-50.8h-15.4l88.9,57.7C271.3,213,273.1,210.4,273.4,207.3z"/>
</g>
<g>
	<path style="fill:#FFE15A;" d="M296.3,316.2l4.1,12.2l12.9,0.1c1.7,0,2.4,2.1,1,3.1l-10.3,7.6l3.9,12.3c0.5,1.6-1.3,2.9-2.7,1.9   l-10.5-7.5l-10.5,7.5c-1.4,1-3.2-0.3-2.7-1.9l3.9-12.3l-10.3-7.6c-1.3-1-0.6-3.1,1-3.1l12.9-0.1l4.1-12.2   C293.6,314.6,295.8,314.6,296.3,316.2z"/>
	<path style="fill:#FFE15A;" d="M414.7,224.1l4.1,12.2l12.9,0.1c1.7,0,2.4,2.1,1,3.1l-10.3,7.6l3.9,12.3c0.5,1.6-1.3,2.9-2.7,1.9   l-10.5-7.5l-10.5,7.5c-1.4,1-3.2-0.3-2.7-1.9l3.9-12.3l-10.3-7.6c-1.3-1-0.6-3.1,1-3.1l12.9-0.1l4.1-12.2   C412,222.5,414.2,222.5,414.7,224.1z"/>
	<path style="fill:#FFE15A;" d="M470.6,189.8l4.1,12.2l12.9,0.1c1.7,0,2.4,2.1,1,3.1l-10.3,7.6l3.9,12.3c0.5,1.6-1.3,2.9-2.7,1.9   l-10.5-7.5l-10.5,7.5c-1.4,1-3.2-0.3-2.7-1.9l3.9-12.3l-10.3-7.6c-1.3-1-0.6-3.1,1-3.1l12.9-0.1l4.1-12.2   C467.8,188.3,470,188.3,470.6,189.8z"/>
	<path style="fill:#FFE15A;" d="M457.3,72.4l4.1,12.2l12.9,0.1c1.7,0,2.4,2.1,1,3.1L465,95.4l3.9,12.3c0.5,1.6-1.3,2.9-2.7,1.9   l-10.5-7.5l-10.5,7.5c-1.4,1-3.2-0.3-2.7-1.9l3.9-12.3L436,87.9c-1.3-1-0.6-3.1,1-3.1l12.9-0.1l4.1-12.2   C454.5,70.9,456.7,70.9,457.3,72.4z"/>
	<path style="fill:#FFE15A;" d="M345.8,346.7l-4.1-12.2l-12.9-0.1c-1.7,0-2.4-2.1-1-3.1l10.3-7.6l-3.9-12.3   c-0.5-1.6,1.3-2.9,2.7-1.9l10.5,7.5l10.5-7.5c1.4-1,3.2,0.3,2.7,1.9l-3.9,12.3l10.3,7.6c1.3,1,0.6,3.1-1,3.1l-12.9,0.1l-4.1,12.2   C348.6,348.2,346.4,348.2,345.8,346.7z"/>
	<path style="fill:#FFE15A;" d="M384.3,312.1l-4.1-12.2l-12.9-0.1c-1.7,0-2.4-2.1-1-3.1l10.3-7.6l-3.9-12.3   c-0.5-1.6,1.3-2.9,2.7-1.9l10.5,7.5l10.5-7.5c1.4-1,3.2,0.3,2.7,1.9l-3.9,12.3l10.3,7.6c1.3,1,0.6,3.1-1,3.1l-12.9,0.1l-4.1,12.2   C387.1,313.7,384.8,313.7,384.3,312.1z"/>
	<path style="fill:#FFE15A;" d="M418.9,161.5l-4.1-12.2l-12.9-0.1c-1.7,0-2.4-2.1-1-3.1l10.3-7.6l-3.9-12.3   c-0.5-1.6,1.3-2.9,2.7-1.9l10.5,7.5l10.5-7.5c1.4-1,3.2,0.3,2.7,1.9l-3.9,12.3l10.3,7.6c1.3,1,0.6,3.1-1,3.1l-12.9,0.1l-4.1,12.2   C421.7,163.1,419.5,163.1,418.9,161.5z"/>
	<path style="fill:#FFE15A;" d="M379,174.3l-4.1-12.2L362,162c-1.7,0-2.4-2.1-1-3.1l10.3-7.6l-3.9-12.3c-0.5-1.6,1.3-2.9,2.7-1.9   l10.5,7.5l10.5-7.5c1.4-1,3.2,0.3,2.7,1.9l-3.9,12.3l10.3,7.6c1.3,1,0.6,3.1-1,3.1l-12.9,0.1l-4.1,12.2   C381.7,175.9,379.5,175.9,379,174.3z"/>
	<path style="fill:#FFE15A;" d="M353.4,274l-4.1-12.2l-12.9-0.1c-1.7,0-2.4-2.1-1-3.1l10.3-7.6l-3.9-12.3c-0.5-1.6,1.3-2.9,2.7-1.9   l10.5,7.5l10.5-7.5c1.4-1,3.2,0.3,2.7,1.9l-3.9,12.3l10.3,7.6c1.3,1,0.6,3.1-1,3.1l-12.9,0.1l-4.1,12.2   C356.2,275.5,353.9,275.5,353.4,274z"/>
</g>
<path style="fill:#2E3033;" d="M19.2,489.1L19.2,489.1C8.6,489.1,0,480.5,0,469.9V42c0-10.5,8.5-19,19-19h0.2  c10.6,0,19.2,8.6,19.2,19.2v427.7C38.4,480.5,29.8,489.1,19.2,489.1z"/>
<g>
</g>
<g>
</g>
<g>
</g>
<g>
</g>
<g>
</g>
<g>
</g>
<g>
</g>
<g>
</g>
<g>
</g>
<g>
</g>
<g>
</g>
<g>
</g>
<g>
</g>
<g>
</g>
<g>
</g>
</svg>
