<?xml version="1.0" encoding="iso-8859-1"?>
<!-- Generator: Adobe Illustrator 19.0.0, SVG Export Plug-In . SVG Version: 6.00 Build 0)  -->
<svg xmlns="http://www.w3.org/2000/svg" xmlns:xlink="http://www.w3.org/1999/xlink" version="1.1" id="Layer_1" x="0px" y="0px" viewBox="0 0 512 512" style="enable-background:new 0 0 512 512;" xml:space="preserve">
<path style="fill:#FF4B55;" d="M503.56,374.155H35.87c-4.661,0-8.44-3.779-8.44-8.44V65.118c0-4.661,3.779-8.44,8.44-8.44h467.69  c4.661,0,8.44,3.779,8.44,8.44v300.597C512,370.376,508.222,374.155,503.56,374.155z"/>
<path style="fill:#41479B;" d="M35.87,56.677h225.405c4.661,0,8.44,3.779,8.44,8.44v141.858c0,4.661-3.779,8.44-8.44,8.44H35.87  c-4.661,0-8.44-3.779-8.44-8.44V65.118C27.43,60.456,31.209,56.677,35.87,56.677z"/>
<g>
	<path style="fill:#F5F5F5;" d="M118.668,136.047c0-8.254,3.345-15.727,8.752-21.138l-25.056-7.168   c-1.455-0.417-2.497,1.391-1.409,2.441l18.75,18.129l-25.302,6.326c-1.468,0.367-1.468,2.453,0,2.819l25.302,6.326l-18.748,18.129   c-1.088,1.052-0.044,2.858,1.409,2.441l25.056-7.168C122.013,151.775,118.668,144.301,118.668,136.047z"/>
	<path style="fill:#F5F5F5;" d="M127.434,114.895c5.411-5.408,12.885-8.752,21.138-8.752c8.254,0,15.727,3.345,21.138,8.752   l7.168-25.056c0.417-1.455-1.39-2.497-2.441-1.409l-18.129,18.75l-6.326-25.302c-0.367-1.468-2.453-1.468-2.82,0l-6.326,25.302   l-18.129-18.75c-1.052-1.088-2.858-0.044-2.441,1.409L127.434,114.895z"/>
	<path style="fill:#F5F5F5;" d="M169.711,157.198c-5.411,5.408-12.884,8.752-21.138,8.752s-15.727-3.345-21.138-8.752l-7.168,25.056   c-0.416,1.454,1.39,2.497,2.441,1.409l18.129-18.75l6.326,25.302c0.367,1.468,2.453,1.468,2.82,0l6.326-25.302l18.129,18.75   c1.052,1.088,2.858,0.044,2.441-1.409L169.711,157.198z"/>
	<path style="fill:#F5F5F5;" d="M202.742,134.637l-25.302-6.326l18.75-18.129c1.088-1.052,0.044-2.858-1.409-2.441l-25.056,7.168   c5.408,5.411,8.752,12.884,8.752,21.138s-3.345,15.727-8.752,21.138l25.056,7.168c1.455,0.416,2.497-1.39,1.409-2.441   l-18.75-18.129l25.302-6.326C204.211,137.09,204.211,135.004,202.742,134.637z"/>
	<path style="fill:#F5F5F5;" d="M172.263,133.618c1.492,15.059-11.061,27.611-26.12,26.12c-11.144-1.104-20.157-10.117-21.26-21.26   c-1.492-15.059,11.061-27.612,26.12-26.12C162.146,113.46,171.16,122.474,172.263,133.618z"/>
</g>
<path style="fill:#2E3033;" d="M19.122,488.1L19.122,488.1C8.561,488.1,0,479.539,0,468.979V42.864C0,32.39,8.491,23.9,18.965,23.9  h0.157c10.561,0,19.122,8.561,19.122,19.122V468.98C38.244,479.539,29.683,488.1,19.122,488.1z"/>
<g>
</g>
<g>
</g>
<g>
</g>
<g>
</g>
<g>
</g>
<g>
</g>
<g>
</g>
<g>
</g>
<g>
</g>
<g>
</g>
<g>
</g>
<g>
</g>
<g>
</g>
<g>
</g>
<g>
</g>
</svg>
