<?xml version="1.0" encoding="iso-8859-1"?>
<!-- Generator: Adobe Illustrator 19.0.0, SVG Export Plug-In . SVG Version: 6.00 Build 0)  -->
<svg xmlns="http://www.w3.org/2000/svg" xmlns:xlink="http://www.w3.org/1999/xlink" version="1.1" id="Layer_1" x="0px" y="0px" viewBox="0 0 512 512" style="enable-background:new 0 0 512 512;" xml:space="preserve">
<path style="fill:#73AF00;" d="M26.68,299.029V64.736c0-4.622,3.746-8.368,8.368-8.368h359.806L26.68,299.029z"/>
<path style="fill:#4173CD;" d="M512,131.678V365.97c0,4.622-3.747,8.368-8.368,8.368H143.826L512,131.678z"/>
<path style="fill:#FFE15A;" d="M512,136.396v-71.66c0-4.621-3.746-8.368-8.368-8.368H389.855L26.68,294.311v71.659  c0,4.621,3.746,8.368,8.368,8.368h113.778L512,136.396z"/>
<path style="fill:#464655;" d="M512,106.391V64.736c0-4.621-3.746-8.368-8.368-8.368h-67.98L26.68,324.316v41.654  c0,4.621,3.746,8.368,8.368,8.368h67.98L512,106.391z"/>
<path style="fill:#2E3033;" d="M19.152,488.46L19.152,488.46C8.575,488.46,0,479.885,0,469.308V42.534  C0,32.044,8.504,23.54,18.994,23.54h0.157c10.577,0,19.152,8.575,19.152,19.152v426.617C38.303,479.885,29.728,488.46,19.152,488.46  z"/>
<g>
</g>
<g>
</g>
<g>
</g>
<g>
</g>
<g>
</g>
<g>
</g>
<g>
</g>
<g>
</g>
<g>
</g>
<g>
</g>
<g>
</g>
<g>
</g>
<g>
</g>
<g>
</g>
<g>
</g>
</svg>
