<?xml version="1.0" encoding="iso-8859-1"?>
<!-- Generator: Adobe Illustrator 19.0.0, SVG Export Plug-In . SVG Version: 6.00 Build 0)  -->
<svg xmlns="http://www.w3.org/2000/svg" xmlns:xlink="http://www.w3.org/1999/xlink" version="1.1" id="Layer_1" x="0px" y="0px" viewBox="0 0 512 512" style="enable-background:new 0 0 512 512;" xml:space="preserve">
<path style="fill:#464655;" d="M512,109.363H26.68V64.821c0-4.668,3.785-8.453,8.453-8.453h468.414c4.668,0,8.453,3.785,8.453,8.453  V109.363z"/>
<rect x="26.68" y="109.357" style="fill:#FFE15A;" width="485.32" height="52.99"/>
<rect x="26.68" y="162.357" style="fill:#FF4B55;" width="485.32" height="52.99"/>
<rect x="26.68" y="215.348" style="fill:#464655;" width="485.32" height="52.99"/>
<rect x="26.68" y="268.357" style="fill:#FFE15A;" width="485.32" height="52.99"/>
<path style="fill:#FF4B55;" d="M503.547,374.337H35.133c-4.668,0-8.453-3.785-8.453-8.453v-44.542H512v44.542  C512,370.552,508.216,374.337,503.547,374.337z"/>
<path style="fill:#F5F5F5;" d="M319.48,212.74c1.51,29.79-22.962,54.262-52.752,52.752c-25.507-1.292-46.234-22.019-47.527-47.526  c-1.51-29.79,22.962-54.261,52.752-52.752C297.46,166.507,318.187,187.232,319.48,212.74z"/>
<path style="fill:#FF4B55;" d="M272.368,184.785l4.946-1.978c0.716-0.286,1.063-1.108,0.746-1.812  c-1.109-2.46-4.081-7.548-9.728-7.701c-3.577-0.097-6.25,0.709-7.759,1.331c-0.771,0.318-1.081,1.235-0.659,1.955l2.984,5.098  L272.368,184.785z"/>
<path style="fill:#FFE15A;" d="M268.331,173.296c-0.411-0.011-0.783,0.013-1.17,0.024l-0.539,7.895l2.873,1.591l6.213-5.621  C274.072,175.205,271.673,173.385,268.331,173.296z"/>
<path style="fill:#464655;" d="M289.604,231.212l-22.359-26.086c0-5.399,1.952-9.809,3.029-11.835  c3.078-1.374,5.062-4.759,4.236-8.495c-0.6-2.718-2.794-4.934-5.506-5.555c-4.881-1.116-9.213,2.561-9.213,7.252  c0,0.176,0.04,0.342,0.052,0.516c-4.824,1.272-5.72,2.823-5.72,2.823s3.16-0.841,5.904-1.56c0.055,0.224,0.129,0.44,0.204,0.655  l-5.41,1.836l5.908-0.719c0.656,1.2,1.628,2.198,2.802,2.887c-4.415,3.557-11.194,10.24-11.194,17.785  c0,6.899,5.111,11.496,11.546,14.553c2.25,1.068,4.318,2.479,6.019,4.298l0.063,0.068l0.56,8.564c-4.615,0-10.118,0-12.597,0  c-4.659,0-5.939,3.028-5.939,8.036l2.213-3.145l1.864,3.494l0.232-3.959l1.98,2.562c0,0-0.02-3.346,2.504-3.785  c1.34-0.232,5.98-0.524,9.92-0.524l0.835,12.763c-5.344-0.025-11.395,2.493-11.395,2.493c1.863-0.35,6.405,0.35,6.405,0.35  l-0.757,2.213c5.241-2.853,14.848-2.911,14.848-2.911s-2.096-1.43-6.988-1.989l0.113-12.917h7.689l1.164-3.028  c0,0-3.968-5.263-3.968-8.051C284.8,230.968,289.604,231.212,289.604,231.212z M273.786,238.201l0.039-4.432  c2.309,2.474,4.134,4.432,4.134,4.432S276.235,238.201,273.786,238.201z"/>
<path style="fill:#696E7D;" d="M289.604,234.939c-1.863-7.454-10.029-9.744-18.633-14.906c-9.316-5.59-3.727-14.906-3.727-14.906  s31.21,9.161,33.54,22.359c1.814,10.279-5.59,16.77-9.316,18.633l1.34-3.727h-6.929c0,0,7.336-5.706,7.453-11.18L289.604,234.939z"/>
<path style="fill:#FFFCFF;" d="M300.783,227.486c-1.557-8.823-16.012-15.837-25.431-19.52l0,0  c-3.015-0.336-5.663,4.731,2.606,10.204c11.123,7.364,11.645,16.77,11.645,16.77l3.727-3.727c-0.116,5.473-7.453,11.18-7.453,11.18  h6.929l-1.34,3.727C295.194,244.257,302.598,237.764,300.783,227.486z"/>
<path style="fill:#FF4B55;" d="M300.783,227.486c-1.032-5.847-7.734-10.893-14.875-14.708c-3.439-1.028-6.436-0.897-6.436-0.897  c2.096,1.281,3.028,4.541,3.028,4.541c-1.514-0.932-4.891-0.466-4.891-0.466c0.939,0.805,1.83,2.448,2.424,3.707  c9.108,7.081,9.57,15.276,9.57,15.276l3.727-3.727c-0.116,5.473-7.453,11.18-7.453,11.18h6.929l-1.34,3.727  C295.194,244.257,302.598,237.764,300.783,227.486z"/>
<path style="fill:#F5F5F5;" d="M265.393,185.387c0.319,0.999-0.587,1.905-1.585,1.586c-0.358-0.114-0.654-0.41-0.768-0.768  c-0.319-0.999,0.587-1.905,1.586-1.586C264.982,184.733,265.278,185.027,265.393,185.387z"/>
<path style="fill:#FF4B55;" d="M260.956,190.531c0,0-2.718,3.183-0.932,4.115c1.786,0.932,3.508-1.714,3.508-1.714L260.956,190.531z  "/>
<path style="fill:#2E3033;" d="M19.152,488.46L19.152,488.46C8.575,488.46,0,479.884,0,469.307V42.534  C0,32.044,8.504,23.54,18.994,23.54h0.157c10.577,0,19.152,8.575,19.152,19.152V469.31C38.303,479.884,29.728,488.46,19.152,488.46z  "/>
<g>
</g>
<g>
</g>
<g>
</g>
<g>
</g>
<g>
</g>
<g>
</g>
<g>
</g>
<g>
</g>
<g>
</g>
<g>
</g>
<g>
</g>
<g>
</g>
<g>
</g>
<g>
</g>
<g>
</g>
</svg>
