<?xml version="1.0" encoding="iso-8859-1"?>
<!-- Generator: Adobe Illustrator 19.0.0, SVG Export Plug-In . SVG Version: 6.00 Build 0)  -->
<svg xmlns="http://www.w3.org/2000/svg" xmlns:xlink="http://www.w3.org/1999/xlink" version="1.1" id="Layer_1" x="0px" y="0px" viewBox="0 0 512.001 512.001" style="enable-background:new 0 0 512.001 512.001;" xml:space="preserve">
<path style="fill:#82AFFF;" d="M503.645,56.677H35.785c-4.615,0-8.355,3.741-8.355,8.355V365.8c0,4.614,3.74,8.355,8.355,8.355  h467.861c4.615,0,8.355-3.741,8.355-8.355V65.032C512,60.419,508.26,56.677,503.645,56.677z"/>
<g>
	<path style="fill:#F5F5F5;" d="M269.005,277.553c42.496,0,77.068-34.575,77.068-77.068c0-42.495-34.572-77.068-77.068-77.068   c-42.497,0-77.069,34.575-77.069,77.068C191.936,242.979,226.508,277.553,269.005,277.553z M277.797,131.476l6.624-2.44   c9.347,2.016,18.04,5.805,25.69,11.027c-0.657-0.065-2.397-0.244-2.697-0.345c-0.37-0.123-0.944,2.36-0.944,2.36l3.04,1.209   l0.829-3.054c3.157,2.172,6.105,4.615,8.879,7.244l-4.469,4.469h-0.789l-0.643-2.523l-2.445-4.394l-8.635-3.113l-5.972,2.891   l3.389,7.338c-8.351-5.314-18.149-8.507-28.674-8.868V133.05l6.085,1.922l-2.53-4.458l-3.556,1.521v-4.566   c2.641,0.071,5.241,0.287,7.806,0.633l-2.989,0.996L277.797,131.476z M317.791,187.886l1.455-0.616l0.366-3.58   c1.559,4.687,2.458,9.66,2.649,14.818h-13.404l0.494-2.142l3.787-0.329l3.134-5.338l-0.089-1.001l-3.211,4.118l-1.961,0.481   l-1.249-1.47l1.471-2.498l-3.2-2.36l-2.875,2.52c-0.773-2.794-1.829-5.47-3.192-7.963l1.559-0.568l1.25-0.746l-0.011-1.471   l0.802-0.997l-0.464-0.285c-0.343,0.162-2.13,0.683-2.13,0.683l-0.62,2.013l-0.889,0.541c-1.311-2.257-2.853-4.356-4.589-6.285   l7.391-7.39l0.064,0.104l1.801-1.081l-0.279-0.609l2.197-2.197c4.952,5.331,8.819,11.659,11.275,18.663l-1.84-2.734l-0.948,0.353   L317.791,187.886z M308.047,236.731l-3.997-3.998l-1.509-4l-0.776,1.714l-1.547-1.547l1.585-4.86l-1.026-3.527l-0.074,0.009   c1.087-1.712,2.066-3.497,2.867-5.382l0.019-0.002c0.247,0,1.153-1.152,1.153-1.152l2.223,0.247l5.747-2.271l-2.206-2.092   l-1.299-1.161l-1.006-2.05l-1.801-3.135c0.029-0.352,0.036-0.709,0.054-1.064h15.809   C321.772,215.677,316.476,227.657,308.047,236.731z M231.335,234.202l1.979-3.458l-4.26-14.888l-3.359-8.29l3.047-1.318l0.823-2.47   l2.057-0.06c0.718,8.366,4.199,15.937,9.515,21.84l-8.728,8.727L231.335,234.202z M236.09,197.705l-0.042,0.803h-0.536   c0.018-0.304,0.021-0.612,0.046-0.914L236.09,197.705z M286.825,228.91l-0.676-0.367l-8.621,3.333l-4.468-1.72l-2.078,0.574v-2.842   l2.151-0.65l1.305,0.314l2.745,1.075l-1.654-3.027l3.547,2.973l1.701,0.388l-0.518-2.268l1.153-3.749l4.02-2.452l0.348,2.257   l-4.903,2.666l0.941,1.876l5.1-1.03l0.08,2.544C286.941,228.842,286.882,228.875,286.825,228.91z M266.508,214.064l-0.153-0.328   l-0.925,0.054c-1.191-0.321-2.309-0.793-3.351-1.402l3.439-0.418l1.511-4.056v6.204   C266.857,214.093,266.678,214.096,266.508,214.064z M252.061,205.602l-3.36-0.518l1.713-2.624h1.005   C251.542,203.544,251.753,204.587,252.061,205.602z M270.981,191.929l0.926,0.281l1.166,1.413l-2.092,2.092L270.981,191.929   L270.981,191.929z M277.214,217.047l-1.604,1.878l-2.674,1.329l-0.897-1.571l-0.54,3.124l-0.518,0.203v-3.94   c0.375-0.042,0.759-0.049,1.126-0.114l1.28,1.604l1.062-1.322l-0.083-0.883c0.59-0.188,1.191-0.345,1.753-0.592L277.214,217.047z    M276.011,196.274l-0.042,2.137l-0.077,0.097h-2.115L276.011,196.274z M277.279,203.634l2.558-0.081l1.395,1.163l-0.465,0.837   l-1.953-1.116l-1.07,0.837l0.537,1.603l-0.022,0.071l-4.486-4.486h2.988L277.279,203.634z M275.587,209.861l-2.444-0.263   l-1.726,4.475c-0.142,0.025-0.292,0.023-0.436,0.044v-8.863L275.587,209.861z M262.9,198.508l-0.172-0.721l-1.715,0.721h-0.76   l0.251-1.042l1.109-1.074l-0.88-0.199l-0.914,1.299l-0.949,0.436l0.112,0.581h-0.997l0.601-2.335l1.757-1.558l3.894,3.893   L262.9,198.508L262.9,198.508z M255.567,202.461l0.405,0.478l0.273-0.478h1.414l-1.838,1.989c-0.195-0.648-0.35-1.305-0.449-1.989   H255.567z M257.756,208.477l2.554-4.412l-0.668-0.597l1.126-0.581l0.14-0.426h1.798l-0.413,0.22l-0.171,0.593l1.393-0.095   l-1.036,1.036l-1.054,0.222l-0.218,1.051l-3.243,3.242C257.899,208.641,257.82,208.566,257.756,208.477z M267.029,187.265   l-0.738-0.114l0.572,2.371l0.167,0.131v6.062l-3.321-3.321l2.331-1.26l-2.105-3.488c0.981-0.389,2.021-0.637,3.095-0.793   L267.029,187.265L267.029,187.265z M235.837,202.461l-0.04,0.752l-0.166,1.003c-0.064-0.578-0.085-1.169-0.12-1.756   L235.837,202.461L235.837,202.461z M237.77,207.154l2.458,2.471l2.016-1.404l4.751,3.987l5.11,0.899l1.43-4.021   c0.481,0.862,1.023,1.672,1.636,2.439l-4.391,4.39l0.706-1.8l-2.614-0.425l0.837,3.069l0.124,0.103l-5.902,5.902   c-3.847-4.324-6.621-9.621-7.83-15.497L237.77,207.154z M257.965,214.318c2.552,2.04,5.651,3.368,9.064,3.752v4.57l-0.044,0.108   l0.044-0.015v3.418l-1.151,0.231l-0.668,4.29l1.818-0.211v1.361l-2.879,0.794l-0.959,0.924c-6.256-1.098-11.908-3.927-16.465-7.982   L257.965,214.318z M291.3,230.623l2.9,0.615l2.852,0.088l1.569,1.569l-4.792-0.174l-3.087-1.679   C290.932,230.906,291.114,230.762,291.3,230.623z M294.079,222.764l-0.864-0.865l1.761-0.135   C294.691,222.111,294.377,222.429,294.079,222.764z M298.612,184.638c-1.345,0.019-2.648,0.038-2.765,0.038   c-0.247,0-2.185,1.655-2.185,1.655l-1.48,1.916l-0.446-2.338l1.049-2.389l-0.808-0.74l-3.623,2.305l-0.768-0.388l2.831-2.831   l0.622,0.206l1.803-0.424l-0.917-1.29l2.154-2.154C295.822,180.166,297.36,182.31,298.612,184.638z M288.013,178.683l-0.173-0.554   l-1.173,0.186l-0.729,1.412l-3.223,0.318c0.236,0.472,1.239,2.431,1.329,2.608l-3.998,3.998c-0.85-0.68-1.758-1.273-2.724-1.79   l0.495-0.267l-0.588-1.986l-0.4-0.732l-1.783,1.951c-1.292-0.471-2.652-0.769-4.063-0.927v-15.908   c7.773,0.456,14.83,3.551,20.304,8.42L288.013,178.683z M267.029,182.899c-1.276,0.143-2.505,0.409-3.684,0.809l0.592-1.374   l-3.083,2.422l0.005,0.009c-1.031,0.537-1.993,1.164-2.894,1.883l-11.24-11.24c5.473-4.869,12.531-7.964,20.304-8.42V182.899z    M254.537,188.812l-5.314,0.929l0.186-2.019l-4.404-1.519l-7.042,1.473c1.45-3.498,3.489-6.681,5.969-9.47L254.537,188.812z    M237.48,188.988l2.211,0.463l-2.65,0.733C237.173,189.778,237.335,189.386,237.48,188.988z M231.559,198.508h-0.342l0.359-0.332   C231.569,198.286,231.565,198.397,231.559,198.508z M235.772,236.51l8.159-8.158c4.453,4.01,9.856,6.961,15.84,8.483l-2.811,2.707   l6.048,7.993l4.021,0.222v5.983c-10.555-0.389-20.334-3.821-28.468-9.498l1.306-0.848L235.772,236.51z M270.981,247.974   l5.097,0.281l0.13,1.169l3.101,3.397c-2.705,0.532-5.492,0.814-8.326,0.919v-5.766L270.981,247.974L270.981,247.974z    M303.355,237.628l1.897,1.897c-0.907,0.843-1.82,1.679-2.784,2.458L303.355,237.628z M305.252,161.444l-1.157,1.157l-1.373-2.998   l-2.495-1.327c0,0-2.323-2.051-3.533-3.313C299.766,156.84,302.629,159.008,305.252,161.444z M296.157,154.637l1.746,6.11   l4.079,3.551l0.159,0.26l-8.062,8.061c-6.195-5.58-14.236-9.114-23.097-9.579v-15.81   C280.154,147.568,288.726,150.219,296.157,154.637z M267.029,163.039c-8.861,0.464-16.902,3.998-23.097,9.579l-11.174-11.174   c9.074-8.431,21.055-13.727,34.271-14.214V163.039z M241.137,175.412c-4.235,4.702-7.305,10.457-8.741,16.841l-3.474,6.255h-13.173   c0.487-13.216,5.784-25.197,14.213-34.27L241.137,175.412z M227.018,202.461l-3.754,8.068l-5.31-1.975l-0.997,3.534   c-0.694-3.115-1.088-6.335-1.209-9.627L227.018,202.461L227.018,202.461z M223.061,242.477l0.613,0.543l-7.677,7.677   c-5.3-5.593-9.705-12.015-13.04-19.058l2.041,1.192l13.617,12.116L223.061,242.477z M226.636,245.647l1.859,1.648l6.028-1.146   c9.113,6.899,20.321,11.125,32.506,11.544v15.809c-18.663-0.502-35.576-8.008-48.238-20.009L226.636,245.647z M270.981,257.692   c3.349-0.115,6.637-0.464,9.818-1.133l0.369,2.435l9.419,6.946l10.605-5.884l3.045-6.418l-0.199-3.971l2.002-4.698l-0.49-0.383   c0.865-0.718,1.672-1.5,2.494-2.267l1.822,1.822l0.554,3.442l2.069-0.82l6.73,6.729c-12.662,12.002-29.576,19.507-48.238,20.009   V257.692L270.981,257.692z M313.434,242.118l-0.378-4.499l-0.506,0.023c8.157-9.545,13.202-21.782,13.663-35.181h15.809   c-0.502,18.662-8.007,35.574-20.007,48.236L313.434,242.118z M326.213,198.508c-0.343-9.972-3.234-19.287-8.059-27.344l6.719,6.285   l5.392-4.631l-8.275-12.474l-5.462-4.199l0.015-0.402l5.471-5.471c12,12.662,19.505,29.574,20.007,48.237h-15.808V198.508z    M267.029,143.278c-14.305,0.491-27.272,6.23-37.064,15.374l-11.175-11.174c12.662-12.002,29.576-19.507,48.238-20.009v15.809   H267.029z M227.171,161.446c-9.144,9.793-14.881,22.759-15.372,37.063h-15.81c0.502-18.662,8.007-35.574,20.007-48.237   L227.171,161.446z M211.797,202.461c0.202,5.875,1.283,11.52,3.131,16.821l-0.597,2.116l-15.446-0.34   c-1.742-5.924-2.724-12.159-2.898-18.598L211.797,202.461L211.797,202.461z"/>
	<path style="fill:#F5F5F5;" d="M215.762,292.046l14.269-2.309c1.275-0.207,1.804-1.747,0.922-2.69   c-3.432-3.667-10.253-11.261-14.202-17.725c-5.434-8.893-15.003-16.224-15.003-16.224s1.829,24.457,20.273,32.856   c0,0-18.279-4.611-29.972-7.74c-11.692-3.129-14.892-6.573-14.892-6.573S186.285,295.008,215.762,292.046z"/>
	<path style="fill:#F5F5F5;" d="M201.6,264.71c-0.494-6.094-4.948-21.672-13.343-34.549c0,0,0.011,31.297,11.123,41.898   c0,0-15.73-15.089-25.116-22.005c-8.788-6.475-12.68-13.833-12.68-13.833s2.361,19.776,15.15,29.641   c8.646,6.67,27.83,11.362,27.83,11.362S202.095,270.801,201.6,264.71z"/>
	<path style="fill:#F5F5F5;" d="M171.465,241.324l9.61,8.311c1.002,0.866,2.564,0.183,2.585-1.143   c0.053-3.343,0.257-8.417,0.979-11.616c1.153-5.105,2.578-21.681-3.239-33.731c0,0-7.033,21.594-1.536,39.577   c0,0-8.634-13.728-17.456-24.126c-4.61-5.434-6.437-11.841-6.437-11.841S155.82,228.315,171.465,241.324z"/>
	<path style="fill:#F5F5F5;" d="M168.828,220.052c0.753,1.016,2.316,0.801,2.746-0.387c1.264-3.486,3.715-9.754,6.97-15.723   c5.928-10.869,3.195-23.661,3.195-23.661s-9.517,16.314-12.276,34.442c-0.179-0.808-0.377-1.672-0.612-2.66   c-2.612-10.98-12.772-38.369-12.772-38.369s-3.573,15.042,0.894,26.954C159.266,206.763,165.679,215.804,168.828,220.052z"/>
	<path style="fill:#F5F5F5;" d="M166.868,196.005c0.287,1.093,1.817,1.12,2.143,0.038c0.909-3.018,2.801-7.18,6.736-11.202   c7.41-7.575,13.029-18.09,15.901-27.488c0,0-15.811,12.685-20.796,21.24c0,0,0.493-11.763-1.197-20.265   c-1.441-7.246,1.62-14.227,1.62-14.227s-10.019,9.615-8.537,27.236C163.669,182.422,165.579,191.096,166.868,196.005z"/>
	<path style="fill:#F5F5F5;" d="M176.88,165.802c2.999-2.749,8.252-7.434,13.316-10.274c6.725-3.773,12.042-15.942,13.215-18.649   c0,0-18.737,15.332-23.837,20.255c0,0,3.088-13.71,5.064-19.638s1.729-7.904,3.458-10.375c0,0-9.016,7.904-11.486,14.204   c-2.03,5.177-1.641,16.944-1.918,23.44C174.642,165.94,176.013,166.596,176.88,165.802z"/>
	<path style="fill:#F5F5F5;" d="M195.836,138.237c5.27-4.282,13.668-16.797,13.668-16.797c-2.08,1.189-10.54,4.117-17.621,11.362   c-7.081,7.246-8.563,17.126-8.563,17.126S190.567,142.518,195.836,138.237z"/>
	<path style="fill:#F5F5F5;" d="M315.496,295.668c-15.48-3.046-28.736-5.27-44.274-1.227c-0.765,0.198-1.479,0.428-2.217,0.645   c-0.737-0.215-1.452-0.445-2.217-0.645c-15.538-4.042-28.795-1.819-44.274,1.227c-13.952,2.745-27.312,0.369-27.312,0.369   s9.691,9.841,31.758,9.841c9.626,0,21.726-8.103,29.36-8.535c1.88-0.107,3.737,0.007,5.576,0.213   c-16.393,6.687-23.959,16.827-24.108,17.024c-0.658,0.868-0.488,2.107,0.38,2.763c0.357,0.274,0.775,0.405,1.192,0.405   c0.596,0,1.187-0.27,1.575-0.78c0.602-0.793,12.712-13.319,28.069-17.947c15.358,4.628,27.467,17.154,28.069,17.947   c0.388,0.51,0.978,0.78,1.575,0.78c0.417,0,0.836-0.131,1.192-0.405c0.868-0.656,1.038-1.895,0.38-2.763   c-0.149-0.196-7.715-10.337-24.108-17.024c1.84-0.205,3.696-0.319,5.576-0.213c7.634,0.431,19.733,8.535,29.36,8.535   c22.066,0,31.758-9.841,31.758-9.841S329.448,298.413,315.496,295.668z"/>
	<path style="fill:#F5F5F5;" d="M315.99,285.952c18.444-8.399,20.273-32.856,20.273-32.856s-9.569,7.331-15.003,16.224   c-3.95,6.463-10.771,14.058-14.202,17.725c-0.883,0.943-0.354,2.483,0.921,2.69l14.269,2.309   c29.477,2.965,38.606-20.405,38.606-20.405s-3.201,3.444-14.892,6.573C334.269,281.341,315.99,285.952,315.99,285.952z"/>
	<path style="fill:#F5F5F5;" d="M363.747,250.052c-9.386,6.917-25.117,22.005-25.117,22.005   c11.112-10.601,11.123-41.898,11.123-41.898c-8.395,12.877-12.848,28.456-13.343,34.549c-0.494,6.093-2.965,12.516-2.965,12.516   s19.185-4.694,27.83-11.362c12.789-9.865,15.15-29.641,15.15-29.641S372.534,243.577,363.747,250.052z"/>
	<path style="fill:#F5F5F5;" d="M358.147,242.724c5.497-17.984-1.536-39.577-1.536-39.577c-5.817,12.049-4.392,28.626-3.239,33.731   c0.723,3.199,0.927,8.272,0.979,11.616c0.021,1.325,1.583,2.01,2.585,1.143l9.61-8.311c15.644-13.009,15.494-34.566,15.494-34.566   s-1.826,6.407-6.437,11.841C366.781,228.996,358.147,242.724,358.147,242.724z"/>
	<path style="fill:#F5F5F5;" d="M368.547,214.725c-2.759-18.128-12.276-34.442-12.276-34.442s-2.735,12.792,3.194,23.661   c3.256,5.969,5.708,12.237,6.97,15.723c0.43,1.188,1.994,1.403,2.746,0.387c3.149-4.248,9.563-13.29,11.855-19.404   c4.467-11.912,0.894-26.954,0.894-26.954s-10.16,27.39-12.773,38.369C368.923,213.052,368.726,213.916,368.547,214.725z"/>
	<path style="fill:#F5F5F5;" d="M368.357,158.327c-1.69,8.501-1.197,20.265-1.197,20.265c-4.985-8.554-20.796-21.24-20.796-21.24   c2.872,9.398,8.491,19.913,15.901,27.488c3.934,4.023,5.827,8.184,6.735,11.202c0.326,1.082,1.856,1.055,2.143-0.038   c1.288-4.909,3.199-13.582,4.131-24.668c1.482-17.621-8.537-27.236-8.537-27.236S369.798,151.081,368.357,158.327z"/>
	<path style="fill:#F5F5F5;" d="M358.436,157.134c-5.1-4.923-23.837-20.255-23.837-20.255c1.173,2.708,6.49,14.878,13.215,18.649   c5.064,2.841,10.317,7.524,13.316,10.274c0.867,0.795,2.238,0.139,2.187-1.037c-0.277-6.497,0.113-18.263-1.918-23.44   c-2.47-6.299-11.486-14.204-11.486-14.204c1.729,2.47,1.482,4.447,3.458,10.375C355.348,143.424,358.436,157.134,358.436,157.134z"/>
	<path style="fill:#F5F5F5;" d="M342.174,138.237c5.27,4.281,12.516,11.692,12.516,11.692s-1.482-9.88-8.563-17.126   c-7.081-7.246-15.539-10.174-17.621-11.362C328.505,121.44,336.904,133.955,342.174,138.237z"/>
	<polygon style="fill:#F5F5F5;" points="309.885,178.97 306.526,181.182 310.11,181.742 314.025,186.073 316.218,184.66    313.587,179.282  "/>
	<polygon style="fill:#F5F5F5;" points="315.189,197.415 316.432,197.891 319.581,189.431 318.717,188.258 317.358,188.937    315.196,196.594  "/>
	<polygon style="fill:#F5F5F5;" points="283.579,183.07 282.59,182.02 280.367,184.861 280.92,185.72  "/>
	<polygon style="fill:#F5F5F5;" points="306.335,176.464 306.935,174.531 304.947,174.934 304.385,175.092 303.795,175.881    305.944,178.374 306.815,177.635  "/>
	<polygon style="fill:#F5F5F5;" points="266.411,221.728 266.442,220.526 264.93,222.716 265.361,223.457  "/>
</g>
<path style="fill:#2E3033;" d="M19.122,488.1L19.122,488.1C8.561,488.1,0,479.539,0,468.979V42.864C0,32.39,8.491,23.9,18.965,23.9  h0.157c10.561,0,19.122,8.561,19.122,19.122V468.98C38.244,479.539,29.683,488.1,19.122,488.1z"/>
<g>
</g>
<g>
</g>
<g>
</g>
<g>
</g>
<g>
</g>
<g>
</g>
<g>
</g>
<g>
</g>
<g>
</g>
<g>
</g>
<g>
</g>
<g>
</g>
<g>
</g>
<g>
</g>
<g>
</g>
</svg>
