<?xml version="1.0" encoding="iso-8859-1"?>
<!-- Generator: Adobe Illustrator 19.0.0, SVG Export Plug-In . SVG Version: 6.00 Build 0)  -->
<svg xmlns="http://www.w3.org/2000/svg" xmlns:xlink="http://www.w3.org/1999/xlink" version="1.1" id="Layer_1" x="0px" y="0px" viewBox="0 0 512.01 512.01" style="enable-background:new 0 0 512.01 512.01;" xml:space="preserve">
<path style="fill:#F5F5F5;" d="M503.645,56.683H35.785c-4.615,0-8.355,3.741-8.355,8.355v300.768c0,4.614,3.74,8.355,8.355,8.355  h467.861c4.615,0,8.355-3.741,8.355-8.355V65.037C512,60.424,508.26,56.683,503.645,56.683z"/>
<rect x="202.88" y="91.963" style="fill:#4173CD;" width="309.13" height="35.27"/>
<rect x="27.43" y="127.223" style="fill:#F5F5F5;" width="484.57" height="35.27"/>
<rect x="202.88" y="162.503" style="fill:#4173CD;" width="309.13" height="35.27"/>
<rect x="27.43" y="197.783" style="fill:#F5F5F5;" width="484.57" height="35.27"/>
<rect x="27.43" y="233.053" style="fill:#4173CD;" width="484.57" height="35.27"/>
<rect x="27.43" y="268.333" style="fill:#F5F5F5;" width="484.57" height="35.27"/>
<rect x="27.43" y="303.613" style="fill:#4173CD;" width="484.57" height="35.27"/>
<polygon style="fill:#FFE15A;" points="87.978,78.798 101.955,143.468 123.824,134.41 "/>
<polygon style="fill:#FFCD5A;" points="87.978,78.798 112.89,138.939 101.955,143.468 "/>
<polygon style="fill:#FFE15A;" points="142.331,210.016 128.354,145.345 106.484,154.403 "/>
<polygon style="fill:#FFCD5A;" points="142.331,210.016 117.419,149.874 128.354,145.345 "/>
<polygon style="fill:#FFE15A;" points="180.763,117.23 116.092,131.207 125.151,153.077 "/>
<polygon style="fill:#FFCD5A;" points="180.763,117.23 120.622,142.142 116.092,131.207 "/>
<polygon style="fill:#FFE15A;" points="49.545,171.583 114.216,157.606 105.158,135.736 "/>
<polygon style="fill:#FFCD5A;" points="49.545,171.583 109.687,146.671 114.216,157.606 "/>
<polygon style="fill:#FFE15A;" points="142.331,78.798 106.484,134.41 128.354,143.468 "/>
<polygon style="fill:#FFCD5A;" points="142.331,78.798 117.419,138.939 106.484,134.41 "/>
<polygon style="fill:#FFE15A;" points="87.978,210.016 123.824,154.403 101.955,145.345 "/>
<polygon style="fill:#FFCD5A;" points="87.978,210.016 112.89,149.874 123.824,154.403 "/>
<polygon style="fill:#FFE15A;" points="180.763,171.583 125.151,135.736 116.092,157.606 "/>
<polygon style="fill:#FFCD5A;" points="180.763,171.583 120.622,146.671 125.151,135.736 "/>
<polygon style="fill:#FFE15A;" points="49.545,117.23 105.158,153.077 114.216,131.207 "/>
<polygon style="fill:#FFCD5A;" points="49.545,117.23 109.687,142.142 105.158,153.077 "/>
<polygon style="fill:#FFE15A;" points="115.154,73.392 103.319,138.489 126.99,138.489 "/>
<polygon style="fill:#FFCD5A;" points="115.154,73.392 115.154,138.489 103.319,138.489 "/>
<polygon style="fill:#FFE15A;" points="115.154,215.422 126.99,150.325 103.319,150.325 "/>
<polygon style="fill:#FFCD5A;" points="115.154,215.422 115.154,150.325 126.99,150.325 "/>
<polygon style="fill:#FFE15A;" points="186.168,144.406 121.072,132.571 121.072,156.242 "/>
<polygon style="fill:#FFCD5A;" points="186.168,144.406 121.072,144.406 121.072,132.571 "/>
<polygon style="fill:#FFE15A;" points="44.139,144.406 109.236,156.242 109.236,132.571 "/>
<polygon style="fill:#FFCD5A;" points="44.139,144.406 109.236,144.406 109.236,156.242 "/>
<polygon style="fill:#FFE15A;" points="165.369,94.192 110.97,131.853 127.707,148.591 "/>
<polygon style="fill:#FFCD5A;" points="165.369,94.192 119.339,140.222 110.97,131.853 "/>
<polygon style="fill:#FFE15A;" points="64.939,194.621 119.339,156.961 102.6,140.222 "/>
<polygon style="fill:#FFCD5A;" points="64.939,194.621 110.97,148.591 119.339,156.961 "/>
<polygon style="fill:#FFE15A;" points="165.369,194.621 127.707,140.222 110.97,156.961 "/>
<polygon style="fill:#FFCD5A;" points="165.369,194.621 119.339,148.591 127.707,140.222 "/>
<polygon style="fill:#FFE15A;" points="64.939,94.192 102.6,148.591 119.339,131.853 "/>
<polygon style="fill:#FFCD5A;" points="64.939,94.192 110.97,140.222 102.6,148.591 "/>
<circle style="fill:#FFE15A;" cx="115.15" cy="144.403" r="23.671"/>
<path style="fill:#2E3033;" d="M19.122,488.106L19.122,488.106C8.561,488.106,0,479.544,0,468.984V42.869  c0-10.474,8.491-18.965,18.965-18.965h0.157c10.561,0,19.122,8.561,19.122,19.122v425.958  C38.244,479.544,29.683,488.106,19.122,488.106z"/>
<g>
</g>
<g>
</g>
<g>
</g>
<g>
</g>
<g>
</g>
<g>
</g>
<g>
</g>
<g>
</g>
<g>
</g>
<g>
</g>
<g>
</g>
<g>
</g>
<g>
</g>
<g>
</g>
<g>
</g>
</svg>
