<?xml version="1.0" encoding="iso-8859-1"?>
<!-- Generator: Adobe Illustrator 19.0.0, SVG Export Plug-In . SVG Version: 6.00 Build 0)  -->
<svg xmlns="http://www.w3.org/2000/svg" xmlns:xlink="http://www.w3.org/1999/xlink" version="1.1" id="Layer_1" x="0px" y="0px" viewBox="0 0 512.001 512.001" style="enable-background:new 0 0 512.001 512.001;" xml:space="preserve">
<path style="fill:#82AFFF;" d="M512,165.761H20.541V66.96c0-4.71,3.819-8.529,8.529-8.529h474.401c4.71,0,8.529,3.819,8.529,8.529  V165.761z"/>
<path style="fill:#73AF00;" d="M503.471,380.422H29.07c-4.71,0-8.529-3.819-8.529-8.529v-98.801H512v98.801  C512,376.603,508.181,380.422,503.471,380.422z"/>
<rect x="20.541" y="165.76" style="fill:#F5F5F5;" width="491.46" height="107.33"/>
<g>
	<rect x="20.541" y="156.23" style="fill:#FF4B55;" width="491.46" height="13.383"/>
	<rect x="20.541" y="269.25" style="fill:#FF4B55;" width="491.46" height="13.383"/>
</g>
<g>
	<path style="fill:#F5F5F5;" d="M129.479,138.864c-17.348,0-31.408-14.028-31.408-31.313c0-17.348,14.06-31.439,31.408-31.439   c0.066,0,0.132,0.001,0.198,0.001c1.021,0.014,1.38-1.343,0.479-1.825c-5.341-2.863-11.438-4.484-17.919-4.437   C91.481,70,74.62,87.2,74.84,107.956c0.217,20.543,17.012,37.171,37.667,37.171c6.392,0,12.403-1.617,17.677-4.44   c0.898-0.481,0.535-1.838-0.483-1.823C129.627,138.864,129.553,138.864,129.479,138.864z"/>
	<path style="fill:#F5F5F5;" d="M154.073,130.205l-1.403,4.206l-4.434,0.034c-0.574,0.004-0.812,0.737-0.351,1.078l3.567,2.634   l-1.337,4.227c-0.174,0.547,0.45,1,0.917,0.666l3.607-2.578l3.608,2.578c0.467,0.334,1.091-0.119,0.917-0.666l-1.338-4.227   l3.567-2.634c0.462-0.341,0.224-1.074-0.351-1.078l-4.434-0.034l-1.403-4.206C155.024,129.66,154.255,129.66,154.073,130.205z"/>
	<path style="fill:#F5F5F5;" d="M185.309,130.205l-1.403,4.206l-4.434,0.034c-0.574,0.004-0.812,0.737-0.351,1.078l3.567,2.634   l-1.337,4.227c-0.173,0.547,0.45,1,0.917,0.666l3.607-2.578l3.607,2.578c0.467,0.334,1.091-0.119,0.917-0.666l-1.338-4.227   l3.567-2.634c0.462-0.341,0.224-1.074-0.351-1.078l-4.434-0.034l-1.403-4.206C186.261,129.66,185.492,129.66,185.309,130.205z"/>
	<path style="fill:#F5F5F5;" d="M216.546,130.205l-1.403,4.206l-4.434,0.034c-0.574,0.004-0.812,0.737-0.351,1.078l3.567,2.634   l-1.338,4.227c-0.173,0.547,0.45,1,0.917,0.666l3.607-2.578l3.607,2.578c0.467,0.334,1.091-0.119,0.917-0.666l-1.338-4.227   l3.567-2.634c0.462-0.341,0.224-1.074-0.35-1.078l-4.434-0.034l-1.403-4.206C217.498,129.66,216.729,129.66,216.546,130.205z"/>
	<path style="fill:#F5F5F5;" d="M247.783,130.205l-1.403,4.206l-4.434,0.034c-0.574,0.004-0.812,0.737-0.35,1.078l3.567,2.634   l-1.338,4.227c-0.173,0.547,0.45,1,0.917,0.666l3.607-2.578l3.607,2.578c0.467,0.334,1.091-0.119,0.917-0.666l-1.338-4.227   l3.567-2.634c0.462-0.341,0.224-1.074-0.351-1.078l-4.434-0.034l-1.403-4.206C248.736,129.66,247.966,129.66,247.783,130.205z"/>
	<path style="fill:#F5F5F5;" d="M279.021,130.205l-1.403,4.206l-4.434,0.034c-0.575,0.004-0.812,0.737-0.351,1.078l3.567,2.634   l-1.338,4.227c-0.173,0.547,0.45,1,0.917,0.666l3.608-2.578l3.607,2.578c0.467,0.334,1.091-0.119,0.917-0.666l-1.337-4.227   l3.567-2.634c0.462-0.341,0.224-1.074-0.35-1.078l-4.434-0.034l-1.403-4.206C279.973,129.66,279.202,129.66,279.021,130.205z"/>
	<path style="fill:#F5F5F5;" d="M185.309,101.051l-1.403,4.206l-4.434,0.034c-0.574,0.004-0.812,0.737-0.351,1.078l3.567,2.633   l-1.337,4.227c-0.173,0.547,0.45,1,0.917,0.666l3.607-2.578l3.607,2.578c0.467,0.334,1.091-0.119,0.917-0.666l-1.338-4.227   l3.567-2.633c0.462-0.341,0.224-1.074-0.351-1.078l-4.434-0.034l-1.403-4.206C186.261,100.507,185.492,100.507,185.309,101.051z"/>
	<path style="fill:#F5F5F5;" d="M216.546,101.051l-1.403,4.206l-4.434,0.034c-0.574,0.004-0.812,0.737-0.351,1.078l3.567,2.633   l-1.338,4.227c-0.173,0.547,0.45,1,0.917,0.666l3.607-2.578l3.607,2.578c0.467,0.334,1.091-0.119,0.917-0.666l-1.338-4.227   l3.567-2.633c0.462-0.341,0.224-1.074-0.35-1.078l-4.434-0.034l-1.403-4.206C217.498,100.507,216.729,100.507,216.546,101.051z"/>
	<path style="fill:#F5F5F5;" d="M247.783,101.051l-1.403,4.206l-4.434,0.034c-0.574,0.004-0.812,0.737-0.35,1.078l3.567,2.633   l-1.338,4.227c-0.173,0.547,0.45,1,0.917,0.666l3.607-2.578l3.607,2.578c0.467,0.334,1.091-0.119,0.917-0.666l-1.338-4.227   l3.567-2.633c0.462-0.341,0.224-1.074-0.351-1.078l-4.434-0.034l-1.403-4.206C248.736,100.507,247.966,100.507,247.783,101.051z"/>
	<path style="fill:#F5F5F5;" d="M279.021,101.051l-1.403,4.206l-4.434,0.034c-0.575,0.004-0.812,0.737-0.351,1.078l3.567,2.633   l-1.338,4.227c-0.173,0.547,0.45,1,0.917,0.666l3.608-2.578l3.607,2.578c0.467,0.334,1.091-0.119,0.917-0.666l-1.337-4.227   l3.567-2.633c0.462-0.341,0.224-1.074-0.35-1.078l-4.434-0.034l-1.403-4.206C279.973,100.507,279.202,100.507,279.021,101.051z"/>
	<path style="fill:#F5F5F5;" d="M216.546,130.205l-1.403,4.206l-4.434,0.034c-0.574,0.004-0.812,0.737-0.351,1.078l3.567,2.634   l-1.338,4.227c-0.173,0.547,0.45,1,0.917,0.666l3.607-2.578l3.607,2.578c0.467,0.334,1.091-0.119,0.917-0.666l-1.338-4.227   l3.567-2.634c0.462-0.341,0.224-1.074-0.35-1.078l-4.434-0.034l-1.403-4.206C217.498,129.66,216.729,129.66,216.546,130.205z"/>
	<path style="fill:#F5F5F5;" d="M216.546,71.896l-1.403,4.206l-4.434,0.034c-0.574,0.004-0.812,0.737-0.351,1.078l3.567,2.633   l-1.338,4.227c-0.173,0.547,0.45,1,0.917,0.666l3.607-2.578l3.607,2.578c0.467,0.334,1.091-0.119,0.917-0.666l-1.338-4.227   l3.567-2.633c0.462-0.341,0.224-1.074-0.35-1.078l-4.434-0.034l-1.403-4.206C217.498,71.352,216.729,71.352,216.546,71.896z"/>
	<path style="fill:#F5F5F5;" d="M247.783,130.205l-1.403,4.206l-4.434,0.034c-0.574,0.004-0.812,0.737-0.35,1.078l3.567,2.634   l-1.338,4.227c-0.173,0.547,0.45,1,0.917,0.666l3.607-2.578l3.607,2.578c0.467,0.334,1.091-0.119,0.917-0.666l-1.338-4.227   l3.567-2.634c0.462-0.341,0.224-1.074-0.351-1.078l-4.434-0.034l-1.403-4.206C248.736,129.66,247.966,129.66,247.783,130.205z"/>
	<path style="fill:#F5F5F5;" d="M279.021,130.205l-1.403,4.206l-4.434,0.034c-0.575,0.004-0.812,0.737-0.351,1.078l3.567,2.634   l-1.338,4.227c-0.173,0.547,0.45,1,0.917,0.666l3.608-2.578l3.607,2.578c0.467,0.334,1.091-0.119,0.917-0.666l-1.337-4.227   l3.567-2.634c0.462-0.341,0.224-1.074-0.35-1.078l-4.434-0.034l-1.403-4.206C279.973,129.66,279.202,129.66,279.021,130.205z"/>
	<path style="fill:#F5F5F5;" d="M247.783,71.896l-1.403,4.206l-4.434,0.034c-0.574,0.004-0.812,0.737-0.35,1.078l3.567,2.633   l-1.338,4.227c-0.173,0.547,0.45,1,0.917,0.666l3.607-2.578l3.607,2.578c0.467,0.334,1.091-0.119,0.917-0.666l-1.338-4.227   l3.567-2.633c0.462-0.341,0.224-1.074-0.351-1.078l-4.434-0.034l-1.403-4.206C248.736,71.352,247.966,71.352,247.783,71.896z"/>
	<path style="fill:#F5F5F5;" d="M279.021,71.896l-1.403,4.206l-4.434,0.034c-0.575,0.004-0.812,0.737-0.351,1.078l3.567,2.633   l-1.338,4.227c-0.173,0.547,0.45,1,0.917,0.666l3.608-2.578l3.607,2.578c0.467,0.334,1.091-0.119,0.917-0.666l-1.337-4.227   l3.567-2.633c0.462-0.341,0.224-1.074-0.35-1.078l-4.434-0.034l-1.403-4.206C279.973,71.352,279.202,71.352,279.021,71.896z"/>
</g>
<path style="fill:#2E3033;" d="M19.323,490.545L19.323,490.545C8.651,490.545,0,481.893,0,471.221v-430.6  c0-10.584,8.58-19.165,19.164-19.165h0.159c10.672,0,19.323,8.651,19.323,19.323v430.443  C38.647,481.893,29.995,490.545,19.323,490.545z"/>
<g>
</g>
<g>
</g>
<g>
</g>
<g>
</g>
<g>
</g>
<g>
</g>
<g>
</g>
<g>
</g>
<g>
</g>
<g>
</g>
<g>
</g>
<g>
</g>
<g>
</g>
<g>
</g>
<g>
</g>
</svg>
