<?xml version="1.0" encoding="iso-8859-1"?>
<!-- Generator: Adobe Illustrator 19.0.0, SVG Export Plug-In . SVG Version: 6.00 Build 0)  -->
<svg xmlns="http://www.w3.org/2000/svg" xmlns:xlink="http://www.w3.org/1999/xlink" version="1.1" id="Layer_1" x="0px" y="0px" viewBox="0 0 512 512" style="enable-background:new 0 0 512 512;" xml:space="preserve">
<path style="fill:#F5F5F5;" d="M503.527,60.901H266.271v321.99h237.256c4.68,0,8.473-3.793,8.473-8.473V69.374  C512,64.694,508.207,60.901,503.527,60.901z"/>
<path style="fill:#FFE15A;" d="M29.014,382.891H266.27V60.901H29.014c-4.679,0-8.473,3.793-8.473,8.473v305.043  C20.541,379.098,24.335,382.891,29.014,382.891z"/>
<g>
	<path style="fill:#EBEBEB;" d="M412.429,143.908l-0.563,1.126c1.819,0.931,2.858,1.991,2.858,3.118l-0.283-5.596   C414.062,143.308,413.321,143.846,412.429,143.908z"/>
	<path style="fill:#EBEBEB;" d="M368.439,145.034l-0.563-1.126c-0.891-0.061-1.632-0.6-2.014-1.352l-0.283,5.596   C365.579,147.025,366.619,145.965,368.439,145.034z"/>
	<path style="fill:#EBEBEB;" d="M368.037,139.025c1.357,0,2.457,1.1,2.457,2.457c0,0.491-0.181,0.923-0.43,1.307l0.647,1.294   c1.854-0.651,4.14-1.206,6.745-1.634l-0.276-1.106c-1.016-0.302-1.771-1.205-1.771-2.319c0-1.357,1.1-2.457,2.457-2.457   s2.457,1.1,2.457,2.457c0,0.692-0.291,1.312-0.752,1.759l0.328,1.312c1.369-0.171,2.804-0.307,4.295-0.408   c-0.111-0.462-0.186-0.938-0.186-1.434c0-3.393,2.751-6.143,6.143-6.143s6.143,2.751,6.143,6.143c0,0.496-0.075,0.972-0.186,1.434   c1.49,0.101,2.926,0.238,4.295,0.408l0.328-1.312c-0.461-0.447-0.752-1.067-0.752-1.759c0-1.357,1.1-2.457,2.457-2.457   s2.457,1.1,2.457,2.457c0,1.114-0.755,2.017-1.771,2.319l-0.276,1.106c2.606,0.429,4.89,0.982,6.745,1.634l0.647-1.294   c-0.248-0.384-0.43-0.816-0.43-1.307c0-1.357,1.1-2.457,2.457-2.457c0.885,0,1.625,0.493,2.058,1.194l-0.189-3.747   c-2.426-2.755-12.235-4.818-23.983-4.818s-21.558,2.063-23.983,4.818l-0.189,3.747   C366.412,139.518,367.152,139.025,368.037,139.025z"/>
</g>
<path style="fill:#E6B432;" d="M393.988,110.119c0.665-0.838,1.079-1.885,1.079-3.037c0-2.288-1.57-4.193-3.686-4.741v-3.007  c0.722-0.429,1.228-1.181,1.228-2.081c0-1.357-1.1-2.457-2.457-2.457s-2.457,1.1-2.457,2.457c0,0.9,0.507,1.652,1.228,2.081v3.007  c-2.116,0.548-3.686,2.453-3.686,4.741c0,1.152,0.414,2.199,1.079,3.037c1.251-0.342,2.522-0.581,3.836-0.581  S392.738,109.776,393.988,110.119z"/>
<path style="fill:#EBEBEB;" d="M379.854,122.558l-0.219-0.872c-1.016-0.302-1.771-1.205-1.771-2.319c0-1.357,1.1-2.457,2.457-2.457  s2.457,1.1,2.457,2.457c0,0.692-0.291,1.312-0.752,1.759l0.277,1.108c2.405-0.262,5.056-0.409,7.847-0.409  c-2.035,0-3.686-1.65-3.686-3.686s1.65-3.686,3.686-3.686s3.686,1.65,3.686,3.686c0,2.035-1.65,3.686-3.686,3.686  c2.791,0,5.441,0.147,7.847,0.409l0.277-1.108c-0.461-0.447-0.752-1.067-0.752-1.759c0-1.357,1.1-2.457,2.457-2.457  s2.457,1.1,2.457,2.457c0,1.114-0.755,2.017-1.771,2.319l-0.219,0.872c1.248,0.193,2.41,0.416,3.453,0.672l1.811-3.623  c-3.134-4.857-7.183-8.245-11.726-9.488c-1.249-0.342-2.522-0.581-3.836-0.581c-1.313,0-2.586,0.239-3.836,0.581  c-4.543,1.244-8.592,4.632-11.726,9.488l1.811,3.623C377.444,122.975,378.606,122.751,379.854,122.558z"/>
<g>
	<path style="fill:#E6B432;" d="M387.695,323.774v-5.366c0-0.575,0.081-1.128,0.206-1.664c-0.065-0.043-0.138-0.072-0.206-0.112   c-0.725-0.422-1.558-0.681-2.457-0.681c-0.9,0-1.732,0.259-2.457,0.681c-1.463,0.851-2.457,2.418-2.457,4.232   c0,1.322,0.528,2.516,1.377,3.399c1.054-0.582,2.248-0.942,3.537-0.942C386.104,323.323,386.923,323.5,387.695,323.774z"/>
	<path style="fill:#E6B432;" d="M392.609,304.346c-1.463,0.851-2.457,2.418-2.457,4.234c0,1.322,0.528,2.516,1.377,3.399   c1.054-0.582,2.248-0.942,3.537-0.942c1.29,0,2.483,0.36,3.537,0.942c0.849-0.883,1.377-2.078,1.377-3.399   c0-1.815-0.995-3.382-2.457-4.234c-0.725-0.422-1.558-0.681-2.457-0.681C394.167,303.665,393.334,303.924,392.609,304.346z"/>
</g>
<path style="fill:#FF4B57;" d="M391.529,311.978c-1.805,0.996-3.151,2.704-3.629,4.766c-0.125,0.536-0.206,1.09-0.206,1.664v5.366  c-0.772-0.274-1.591-0.451-2.457-0.451c-1.29,0-2.483,0.36-3.537,0.942c-2.275,1.255-3.834,3.648-3.834,6.43v9.83h14.743v-9.83  c0-0.867-0.177-1.686-0.451-2.457h10.281v-9.83c0-2.781-1.56-5.175-3.834-6.43c-1.054-0.582-2.248-0.942-3.537-0.942  C393.777,311.036,392.584,311.396,391.529,311.978z"/>
<g>
	<path style="fill:#E6B432;" d="M392.609,213.157l4.198,4.199l1.436-1.436c0.341-0.341,0.764-0.517,1.203-0.616l20.782-20.787   l13.311,13.311l8.688-8.688l-3.476-3.476l-1.738,1.738l-3.476-3.476l1.738-1.738l-1.738-1.738l3.476-3.474l1.738,1.738l1.738-1.738   l3.476,3.474l-1.738,1.738l3.476,3.474l8.688-8.688l-13.315-13.315l9.111-9.114c-0.439-0.18-0.852-0.447-1.209-0.804l-4.915-4.915   c-0.367-0.367-0.635-0.792-0.815-1.244l-51.194,51.207c0.327,0.417,0.553,0.92,0.553,1.491v2.873h0.002V213.157z"/>
	<path style="fill:#E6B432;" d="M386.973,227.783l-6.951-6.951l-21.605,21.61c-1.919,1.92-1.919,5.032,0.001,6.95   c0.96,0.959,2.217,1.44,3.474,1.44s2.516-0.48,3.476-1.44l16.886-16.891L386.973,227.783z"/>
</g>
<g>
	<path style="fill:#D2D2D2;" d="M319.894,253.289c0.136-0.386,0.225-0.795,0.225-1.227c0-2.036-1.65-3.686-3.686-3.686   c-2.035,0-3.686,1.65-3.686,3.686s1.65,3.686,3.686,3.686c0.433,0,0.842-0.088,1.227-0.225   C318.358,254.73,319.102,253.985,319.894,253.289z"/>
	<path style="fill:#D2D2D2;" d="M317.661,287.917c-0.386-0.138-0.795-0.225-1.227-0.225c-2.035,0-3.686,1.65-3.686,3.686   c0,2.035,1.65,3.686,3.686,3.686s3.686-1.65,3.686-3.686c0-0.433-0.089-0.841-0.225-1.227   C319.102,289.454,318.358,288.708,317.661,287.917z"/>
	<path style="fill:#D2D2D2;" d="M354.523,255.521c0.386,0.136,0.795,0.225,1.227,0.225c2.035,0,3.686-1.65,3.686-3.686   c0-2.036-1.65-3.686-3.686-3.686s-3.686,1.65-3.686,3.686c0,0.433,0.089,0.842,0.225,1.227   C353.081,253.985,353.825,254.73,354.523,255.521z"/>
	<path style="fill:#D2D2D2;" d="M352.064,291.378c0,2.035,1.65,3.686,3.686,3.686c1.135,0,2.138-0.523,2.813-1.332   c-2.309-0.836-4.469-1.767-6.456-2.787C352.091,291.089,352.064,291.23,352.064,291.378z"/>
</g>
<path style="fill:#E6B432;" d="M346.932,287.819c-0.517-0.375-0.827-0.919-0.947-1.498c-0.418,0.09-0.849,0.143-1.293,0.143  c-2.918,0-5.357-2.049-5.98-4.783c-0.668,0.676-1.595,1.097-2.62,1.097s-1.953-0.421-2.621-1.097  c-0.623,2.734-3.061,4.783-5.98,4.783c-3.387,0-6.143-2.755-6.143-6.143c0-2.919,2.05-5.357,4.783-5.98  c-0.676-0.668-1.097-1.595-1.097-2.62c0-1.026,0.421-1.953,1.097-2.621c-2.732-0.623-4.783-3.061-4.783-5.98  c0-3.388,2.756-6.143,6.143-6.143c2.918,0,5.357,2.05,5.98,4.783c0.668-0.677,1.595-1.097,2.621-1.097s1.953,0.42,2.62,1.097  c0.623-2.733,3.061-4.783,5.98-4.783c3.387,0,6.143,2.755,6.143,6.143c0,2.919-2.05,5.357-4.783,5.98  c0.676,0.668,1.097,1.595,1.097,2.62c0,1.026-0.421,1.953-1.097,2.621c2.732,0.623,4.783,3.061,4.783,5.98  c0,1.295-0.408,2.495-1.095,3.487c0.023,0.016,0.051,0.017,0.074,0.033c1.59,1.151,3.422,2.221,5.457,3.199  c0.612-0.764,1.168-1.573,1.688-2.408c1.619-2.608,2.763-5.532,3.312-8.665c0.242-1.383,0.393-2.795,0.393-4.246  c0-6.207-2.332-11.868-6.142-16.197c-0.696-0.792-1.441-1.536-2.233-2.233c-4.329-3.81-9.991-6.142-16.197-6.142  c-6.207,0-11.868,2.333-16.197,6.142c-0.792,0.696-1.536,1.441-2.233,2.233c-3.81,4.331-6.142,9.991-6.142,16.197  c0,6.207,2.332,11.868,6.142,16.197c0.696,0.791,1.441,1.536,2.233,2.233c4.329,3.81,9.991,6.142,16.197,6.142  c5.904,0,11.327-2.096,15.568-5.579C349.95,289.812,348.356,288.851,346.932,287.819z M355.089,266.749  c0.417,1.591,0.662,3.251,0.662,4.971s-0.244,3.38-0.662,4.971c-0.694-1.98-1.924-3.686-3.532-4.971  C353.163,270.434,354.395,268.728,355.089,266.749z M341.063,252.723c-1.98,0.694-3.686,1.924-4.971,3.532  c-1.286-1.608-2.992-2.838-4.971-3.532c1.591-0.417,3.252-0.661,4.971-0.661C337.811,252.062,339.471,252.306,341.063,252.723z   M317.095,266.749c0.694,1.98,1.924,3.686,3.532,4.971c-1.607,1.286-2.838,2.992-3.532,4.971c-0.417-1.591-0.662-3.251-0.662-4.971  C316.434,269.999,316.678,268.339,317.095,266.749z M331.12,290.716c1.98-0.693,3.686-1.924,4.971-3.532  c1.286,1.608,2.991,2.838,4.971,3.532c-1.591,0.417-3.252,0.662-4.971,0.662S332.712,291.133,331.12,290.716z"/>
<g>
	<path style="fill:#F0C814;" d="M332.406,271.72c0-2.035-1.65-3.686-3.686-3.686c-1.01,0-1.923,0.407-2.589,1.065   c-0.676,0.668-1.097,1.595-1.097,2.621s0.421,1.953,1.097,2.62c0.666,0.658,1.579,1.065,2.589,1.065   C330.756,275.405,332.406,273.755,332.406,271.72z"/>
	<path style="fill:#F0C814;" d="M339.777,271.72c0,2.035,1.65,3.686,3.686,3.686c1.01,0,1.923-0.407,2.589-1.065   c0.676-0.668,1.097-1.595,1.097-2.62c0-1.026-0.421-1.953-1.097-2.621c-0.666-0.658-1.579-1.065-2.589-1.065   C341.428,268.033,339.777,269.684,339.777,271.72z"/>
	<path style="fill:#F0C814;" d="M336.092,268.033c2.035,0,3.686-1.65,3.686-3.686c0-1.01-0.407-1.923-1.065-2.589   c-0.668-0.677-1.595-1.097-2.621-1.097s-1.953,0.42-2.621,1.097c-0.658,0.665-1.065,1.579-1.065,2.589   C332.406,266.383,334.056,268.033,336.092,268.033z"/>
	<path style="fill:#F0C814;" d="M336.092,275.405c-2.035,0-3.686,1.65-3.686,3.686c0,1.01,0.407,1.923,1.065,2.589   c0.668,0.676,1.595,1.097,2.621,1.097s1.953-0.421,2.621-1.097c0.658-0.665,1.065-1.579,1.065-2.589   C339.777,277.056,338.127,275.405,336.092,275.405z"/>
</g>
<g>
	<path style="fill:#D2D2D2;" d="M448.979,163.747c0.357,0.357,0.77,0.624,1.209,0.804c0.447,0.182,0.921,0.276,1.397,0.276   c0.944,0,1.886-0.36,2.606-1.08c1.277-1.277,1.355-3.226,0.366-4.662l1.358-5.434c0.192,0.049,0.377,0.118,0.585,0.118   c1.357,0,2.457-1.1,2.457-2.457s-1.1-2.457-2.457-2.457s-2.457,1.1-2.457,2.457c0,0.208,0.069,0.392,0.118,0.584l-5.434,1.358   c-1.436-0.989-3.385-0.913-4.662,0.366c-1.074,1.074-1.341,2.642-0.815,3.967c0.18,0.453,0.449,0.878,0.815,1.244L448.979,163.747z   "/>
	<path style="fill:#D2D2D2;" d="M387.695,221.556v-1.439v-9.83c0-0.572,0.226-1.075,0.553-1.491l-51.194-51.207   c-0.18,0.453-0.449,0.878-0.815,1.244l-4.915,4.915c-0.357,0.357-0.77,0.624-1.209,0.804l9.111,9.114l-13.315,13.315l8.688,8.688   l3.476-3.474l-1.738-1.738l3.476-3.474l1.738,1.738l1.738-1.738l3.476,3.474l-1.738,1.738l1.738,1.738l-3.476,3.476l-1.738-1.738   l-3.476,3.476l8.688,8.688l13.311-13.311l20.782,20.787c0.438,0.099,0.861,0.275,1.203,0.616L387.695,221.556z"/>
	<path style="fill:#D2D2D2;" d="M393.331,227.783l4.716,4.719l16.886,16.891c0.96,0.96,2.217,1.44,3.476,1.44s2.515-0.48,3.474-1.44   c1.92-1.917,1.92-5.03,0.001-6.95l-21.605-21.61L393.331,227.783z"/>
	<polygon style="fill:#D2D2D2;" points="392.609,220.117 392.609,221.556 396.808,217.358 392.609,213.157  "/>
	<path style="fill:#D2D2D2;" d="M462.643,255.521c0.386,0.136,0.795,0.225,1.227,0.225c2.036,0,3.686-1.65,3.686-3.686   c0-2.036-1.65-3.686-3.686-3.686c-2.035,0-3.686,1.65-3.686,3.686c0,0.433,0.089,0.842,0.225,1.227   C461.202,253.985,461.947,254.73,462.643,255.521z"/>
	<path style="fill:#D2D2D2;" d="M463.87,287.692c-0.433,0-0.842,0.089-1.227,0.225c-0.696,0.791-1.441,1.536-2.234,2.234   c-0.136,0.386-0.225,0.795-0.225,1.227c0,2.035,1.65,3.686,3.686,3.686s3.686-1.65,3.686-3.686   C467.556,289.343,465.907,287.692,463.87,287.692z"/>
	<path style="fill:#D2D2D2;" d="M428.015,253.289c0.138-0.386,0.225-0.795,0.225-1.227c0-2.036-1.65-3.686-3.686-3.686   s-3.686,1.65-3.686,3.686s1.65,3.686,3.686,3.686c0.433,0,0.842-0.088,1.227-0.225C426.479,254.73,427.223,253.985,428.015,253.289   z"/>
	<path style="fill:#D2D2D2;" d="M424.554,295.063c2.035,0,3.686-1.65,3.686-3.686c0-0.148-0.027-0.289-0.044-0.432   c-1.987,1.02-4.146,1.951-6.456,2.787C422.417,294.54,423.419,295.063,424.554,295.063z"/>
</g>
<path style="fill:#E6B432;" d="M462.643,287.917c3.81-4.329,6.142-9.991,6.142-16.197s-2.332-11.868-6.142-16.197  c-0.696-0.792-1.441-1.536-2.234-2.234c-4.329-3.81-9.991-6.142-16.197-6.142c-6.207,0-11.868,2.333-16.197,6.142  c-0.791,0.696-1.536,1.441-2.233,2.234c-3.81,4.331-6.142,9.991-6.142,16.197c0,1.458,0.151,2.88,0.397,4.269  c0.551,3.126,1.693,6.042,3.309,8.643c0.519,0.836,1.076,1.643,1.688,2.408c2.033-0.978,3.865-2.047,5.453-3.196  c0.025-0.018,0.054-0.019,0.079-0.036c-0.688-0.991-1.095-2.191-1.095-3.487c0-2.919,2.05-5.357,4.783-5.98  c-0.676-0.668-1.097-1.595-1.097-2.62c0-1.026,0.42-1.953,1.097-2.621c-2.732-0.623-4.783-3.061-4.783-5.98  c0-3.388,2.756-6.143,6.143-6.143c2.918,0,5.357,2.05,5.98,4.783c0.668-0.677,1.595-1.097,2.62-1.097s1.953,0.42,2.621,1.097  c0.623-2.733,3.062-4.783,5.98-4.783c3.387,0,6.143,2.755,6.143,6.143c0,2.919-2.05,5.357-4.783,5.98  c0.676,0.668,1.097,1.595,1.097,2.62c0,1.026-0.421,1.953-1.097,2.621c2.732,0.623,4.783,3.061,4.783,5.98  c0,3.388-2.756,6.143-6.143,6.143c-2.918,0-5.357-2.049-5.98-4.783c-0.668,0.676-1.595,1.097-2.621,1.097s-1.953-0.421-2.62-1.097  c-0.623,2.734-3.061,4.783-5.98,4.783c-0.446,0-0.877-0.053-1.296-0.143c-0.119,0.581-0.431,1.127-0.949,1.501  c-1.423,1.031-3.015,1.99-4.724,2.891c4.242,3.483,9.664,5.579,15.569,5.579c6.208,0,11.868-2.332,16.197-6.142  C461.202,289.454,461.947,288.708,462.643,287.917z M425.215,276.69c-0.417-1.591-0.662-3.251-0.662-4.971s0.244-3.38,0.662-4.971  c0.694,1.98,1.924,3.686,3.532,4.971C427.141,273.006,425.909,274.711,425.215,276.69z M444.212,256.255  c-1.286-1.608-2.992-2.838-4.971-3.532c1.591-0.417,3.252-0.661,4.971-0.661s3.38,0.244,4.971,0.661  C447.204,253.417,445.498,254.647,444.212,256.255z M463.209,266.749c0.417,1.591,0.662,3.251,0.662,4.971s-0.244,3.38-0.662,4.971  c-0.694-1.98-1.924-3.686-3.532-4.971C461.285,270.434,462.515,268.728,463.209,266.749z M439.241,290.716  c1.98-0.693,3.686-1.924,4.971-3.532c1.286,1.608,2.992,2.838,4.971,3.532c-1.591,0.417-3.251,0.662-4.971,0.662  S440.833,291.133,439.241,290.716z"/>
<g>
	<path style="fill:#F0C814;" d="M447.899,271.72c0,2.035,1.65,3.686,3.686,3.686c1.01,0,1.923-0.407,2.589-1.065   c0.676-0.668,1.097-1.595,1.097-2.62c0-1.026-0.421-1.953-1.097-2.621c-0.666-0.658-1.579-1.065-2.589-1.065   C449.549,268.033,447.899,269.684,447.899,271.72z"/>
	<path style="fill:#F0C814;" d="M440.527,271.72c0-2.035-1.65-3.686-3.686-3.686c-1.01,0-1.923,0.407-2.589,1.065   c-0.676,0.668-1.097,1.595-1.097,2.621s0.42,1.953,1.097,2.62c0.666,0.658,1.579,1.065,2.589,1.065   C438.877,275.405,440.527,273.755,440.527,271.72z"/>
	<path style="fill:#F0C814;" d="M444.212,268.033c2.035,0,3.686-1.65,3.686-3.686c0-1.01-0.407-1.923-1.065-2.589   c-0.668-0.677-1.595-1.097-2.621-1.097s-1.953,0.42-2.621,1.097c-0.658,0.665-1.065,1.579-1.065,2.589   C440.527,266.383,442.177,268.033,444.212,268.033z"/>
	<path style="fill:#F0C814;" d="M444.212,275.405c-2.035,0-3.686,1.65-3.686,3.686c0,1.01,0.407,1.923,1.065,2.589   c0.668,0.676,1.595,1.097,2.621,1.097s1.953-0.421,2.621-1.097c0.658-0.665,1.065-1.579,1.065-2.589   C447.899,277.056,446.249,275.405,444.212,275.405z"/>
</g>
<path style="fill:#F7B518;" d="M336.241,158.833c0.367-0.367,0.635-0.792,0.815-1.244c0.527-1.326,0.258-2.895-0.815-3.967  c-1.277-1.277-3.226-1.355-4.662-0.366l-5.434-1.358c0.049-0.192,0.118-0.377,0.118-0.584c0-1.357-1.1-2.457-2.457-2.457  s-2.457,1.1-2.457,2.457s1.1,2.457,2.457,2.457c0.208,0,0.392-0.069,0.584-0.118l1.358,5.434c-0.989,1.436-0.913,3.385,0.366,4.662  c0.72,0.72,1.663,1.08,2.606,1.08c0.476,0,0.95-0.094,1.397-0.276c0.439-0.18,0.852-0.447,1.209-0.804L336.241,158.833z"/>
<path style="fill:#FF4B55;" d="M433.367,287.821c0.518-0.375,0.829-0.92,0.949-1.501c0.133-0.651,0.021-1.35-0.4-1.93  c-0.779-1.073-2.258-1.319-3.353-0.583c-0.025,0.017-0.054,0.018-0.079,0.036c-1.589,1.15-3.42,2.219-5.453,3.196  c-7.205,3.466-16.959,5.778-27.509,6.526v-34.515c10.725,14.645,21.169,22.515,25.821,25.582c-1.615-2.601-2.758-5.517-3.309-8.643  c-5.948-4.92-14.357-13.185-22.512-25.646v-16.696c0.174-0.384,0.352-0.756,0.525-1.144l-4.716-4.719l6.951-6.951l1.436-1.436  c0.96-0.959,0.96-2.515,0-3.474c-0.618-0.618-1.478-0.794-2.272-0.616c-0.438,0.099-0.861,0.275-1.203,0.616l-1.436,1.436  l-4.198,4.198v-1.439v-6.958v-2.87c0-0.573-0.226-1.075-0.553-1.491c-0.45-0.574-1.118-0.966-1.903-0.966  c-0.786,0-1.453,0.392-1.903,0.966c-0.327,0.417-0.553,0.92-0.553,1.491v9.83v1.439l-5.634-5.634  c-0.341-0.341-0.764-0.517-1.203-0.616c-0.794-0.179-1.654-0.003-2.272,0.616c-0.96,0.96-0.96,2.515,0,3.474l1.436,1.436  l6.951,6.951l-4.716,4.719c0.173,0.388,0.351,0.761,0.525,1.144v16.677c-8.146,12.436-16.558,20.71-22.509,25.643  c-0.549,3.133-1.693,6.058-3.312,8.665c4.653-3.066,15.096-10.936,25.821-25.582v34.515c-10.55-0.746-20.304-3.059-27.509-6.525  c-2.035-0.979-3.868-2.048-5.457-3.199c-0.023-0.017-0.051-0.018-0.074-0.033c-1.094-0.74-2.577-0.49-3.358,0.581  c-0.421,0.582-0.532,1.28-0.398,1.933c0.119,0.58,0.43,1.124,0.947,1.498c1.424,1.032,3.017,1.993,4.728,2.895  c0.148,0.078,0.296,0.156,0.447,0.233c1.987,1.02,4.147,1.951,6.456,2.787c6.978,2.525,15.292,4.177,24.217,4.767v18.133  c0.725-0.422,1.558-0.681,2.457-0.681c0.9,0,1.732,0.259,2.457,0.681V298.72c0.817,0.017,1.633,0.035,2.457,0.035  s1.641-0.018,2.457-0.035v5.631c0.725-0.422,1.558-0.681,2.457-0.681c0.9,0,1.732,0.259,2.457,0.681v-5.847  c8.924-0.59,17.239-2.241,24.217-4.766c2.309-0.836,4.469-1.767,6.456-2.787c0.15-0.077,0.299-0.155,0.447-0.232  C430.353,289.812,431.945,288.852,433.367,287.821z M390.152,293.835c-0.822,0-1.641-0.017-2.457-0.036V251.86  c0.824-1.293,1.643-2.639,2.457-4.017c0.815,1.378,1.633,2.724,2.457,4.017v41.939C391.793,293.818,390.974,293.835,390.152,293.835  z"/>
<g>
	<path style="fill:#E6B432;" d="M390.152,153.224c13.572,0,24.573,2.323,24.573,5.188c0-4.82,0-9.524,0-10.258   c0-1.127-1.039-2.188-2.858-3.118l0.563-1.126c0.891-0.061,1.632-0.6,2.014-1.352c0.165-0.326,0.283-0.68,0.283-1.074   c0-0.472-0.168-0.889-0.4-1.263c-0.433-0.702-1.173-1.194-2.058-1.194c-1.357,0-2.457,1.1-2.457,2.457   c0,0.491,0.181,0.923,0.43,1.307l-0.647,1.294c-1.854-0.651-4.14-1.206-6.745-1.634l0.276-1.106   c1.016-0.302,1.771-1.205,1.771-2.319c0-1.357-1.1-2.457-2.457-2.457s-2.457,1.1-2.457,2.457c0,0.692,0.291,1.312,0.752,1.759   l-0.328,1.312c-1.369-0.171-2.804-0.307-4.295-0.408c0.111-0.462,0.186-0.938,0.186-1.434c0-3.393-2.751-6.143-6.143-6.143   s-6.143,2.751-6.143,6.143c0,0.496,0.075,0.972,0.186,1.434c-1.49,0.101-2.926,0.238-4.295,0.408l-0.328-1.312   c0.461-0.447,0.752-1.067,0.752-1.759c0-1.357-1.1-2.457-2.457-2.457s-2.457,1.1-2.457,2.457c0,1.114,0.755,2.017,1.771,2.319   l0.276,1.106c-2.606,0.429-4.89,0.982-6.745,1.634l-0.647-1.294c0.248-0.384,0.43-0.816,0.43-1.307c0-1.357-1.1-2.457-2.457-2.457   c-0.885,0-1.625,0.493-2.058,1.194c-0.231,0.374-0.4,0.791-0.4,1.263c0,0.393,0.116,0.747,0.283,1.074   c0.382,0.752,1.123,1.29,2.014,1.352l0.563,1.126c-1.819,0.931-2.859,1.992-2.859,3.118c0,0.735,0,5.438,0,10.258   C365.579,155.546,376.58,153.224,390.152,153.224z"/>
	<path style="fill:#E6B432;" d="M365.579,158.684l0.031-0.013c-0.007-0.082-0.031-0.194-0.031-0.261   C365.579,158.502,365.579,158.593,365.579,158.684z"/>
	<path style="fill:#E6B432;" d="M414.725,158.684c0-0.092,0-0.181,0-0.273c0,0.067-0.023,0.178-0.031,0.261L414.725,158.684z"/>
</g>
<path style="fill:#EBEBEB;" d="M370.494,163.599c0,0.491-0.181,0.923-0.43,1.307l0.932,1.862c1.626-0.806,3.847-1.499,6.503-2.03  l-0.32-1.279c-1.016-0.302-1.771-1.205-1.771-2.319c0-1.357,1.1-2.457,2.457-2.457s2.457,1.1,2.457,2.457  c0,0.692-0.291,1.312-0.752,1.759l0.355,1.418c2.371-0.354,4.99-0.591,7.769-0.678v-2.226c-0.749-0.675-1.228-1.642-1.228-2.729  c0-2.036,1.65-3.686,3.686-3.686s3.686,1.65,3.686,3.686c0,1.087-0.48,2.054-1.228,2.729v2.226c2.779,0.087,5.399,0.324,7.769,0.678  l0.354-1.418c-0.461-0.447-0.752-1.067-0.752-1.759c0-1.357,1.1-2.457,2.457-2.457s2.457,1.1,2.457,2.457  c0,1.113-0.755,2.017-1.771,2.319l-0.32,1.279c2.657,0.531,4.879,1.224,6.503,2.03l0.932-1.862c-0.248-0.384-0.43-0.816-0.43-1.307  c0-1.357,1.1-2.457,2.457-2.457c0.589,0,1.106,0.235,1.529,0.579c0.547-1.343,0.838-2.409,0.898-3.049  c0.007-0.082,0.031-0.194,0.031-0.261c0-2.865-11.001-5.188-24.573-5.188s-24.573,2.323-24.573,5.188  c0,0.067,0.023,0.178,0.031,0.261c0.06,0.64,0.351,1.706,0.898,3.049c0.423-0.344,0.941-0.579,1.529-0.579  C369.394,161.142,370.494,162.242,370.494,163.599z"/>
<path style="fill:#E6B432;" d="M365.579,163.599c0,1.3,1.018,2.337,2.295,2.424l1.061,2.12c-0.576,0.563-0.899,1.157-0.899,1.773  c0,0.709,0.428,1.388,1.181,2.025l3.734,6.4c0-2.714,7.702-4.915,17.201-4.915s17.201,2.2,17.201,4.915l3.734-6.4  c0.754-0.636,1.181-1.316,1.181-2.025c0-0.616-0.323-1.21-0.899-1.773l1.061-2.12c1.278-0.087,2.295-1.125,2.295-2.424  c0-0.77-0.375-1.428-0.929-1.878c-0.423-0.344-0.941-0.579-1.529-0.579c-1.357,0-2.457,1.1-2.457,2.457  c0,0.491,0.181,0.923,0.43,1.307l-0.932,1.862c-1.626-0.806-3.847-1.499-6.503-2.03l0.32-1.279c1.016-0.302,1.771-1.205,1.771-2.319  c0-1.357-1.1-2.457-2.457-2.457s-2.457,1.1-2.457,2.457c0,0.692,0.291,1.312,0.752,1.759l-0.354,1.418  c-2.371-0.354-4.99-0.591-7.769-0.678v-2.226c0.749-0.675,1.228-1.642,1.228-2.729c0-2.036-1.65-3.686-3.686-3.686  c-2.035,0-3.686,1.65-3.686,3.686c0,1.087,0.48,2.054,1.228,2.729v2.226c-2.779,0.087-5.399,0.324-7.769,0.678l-0.355-1.418  c0.461-0.447,0.752-1.067,0.752-1.759c0-1.357-1.1-2.457-2.457-2.457s-2.457,1.1-2.457,2.457c0,1.113,0.755,2.017,1.771,2.319  l0.32,1.279c-2.657,0.531-4.879,1.224-6.503,2.03l-0.932-1.862c0.248-0.384,0.43-0.816,0.43-1.307c0-1.357-1.1-2.457-2.457-2.457  c-0.587,0-1.106,0.235-1.529,0.579C365.954,162.171,365.579,162.829,365.579,163.599z"/>
<ellipse style="fill:#EBEBEB;" cx="390.15" cy="178.339" rx="17.196" ry="4.915"/>
<g>
	<path style="fill:#E6B432;" d="M414.136,136.472l-4.325-9.733c0-0.614-0.471-1.2-1.295-1.743l3.494-6.987   c0.607-1.214,0.115-2.69-1.099-3.297c-1.216-0.602-2.69-0.113-3.297,1.099l-1.898,3.796l-1.811,3.623   c-1.043-0.255-2.205-0.479-3.453-0.672l0.219-0.872c1.016-0.302,1.771-1.205,1.771-2.319c0-1.357-1.1-2.457-2.457-2.457   s-2.457,1.1-2.457,2.457c0,0.692,0.291,1.312,0.752,1.759l-0.28,1.108c-2.405-0.262-5.056-0.409-7.847-0.409   s-5.441,0.147-7.847,0.409l-0.277-1.108c0.461-0.447,0.752-1.067,0.752-1.759c0-1.357-1.1-2.457-2.457-2.457   s-2.457,1.1-2.457,2.457c0,1.114,0.755,2.017,1.771,2.319l0.219,0.872c-1.248,0.193-2.41,0.416-3.453,0.672l-1.811-3.623   l-1.899-3.796c-0.609-1.212-2.079-1.702-3.297-1.099c-1.214,0.608-1.706,2.083-1.099,3.297l3.494,6.987   c-0.824,0.543-1.295,1.128-1.295,1.743l-4.325,9.733c2.426-2.755,12.235-4.818,23.983-4.818S411.71,133.716,414.136,136.472z"/>
	<circle style="fill:#E6B432;" cx="390.15" cy="118.139" r="3.686"/>
</g>
<path style="fill:#2E3033;" d="M19.323,490.544L19.323,490.544C8.651,490.544,0,481.892,0,471.22V40.62  c0-10.584,8.58-19.165,19.164-19.165h0.159c10.672,0,19.323,8.651,19.323,19.323v430.443  C38.647,481.892,29.995,490.544,19.323,490.544z"/>
<g>
</g>
<g>
</g>
<g>
</g>
<g>
</g>
<g>
</g>
<g>
</g>
<g>
</g>
<g>
</g>
<g>
</g>
<g>
</g>
<g>
</g>
<g>
</g>
<g>
</g>
<g>
</g>
<g>
</g>
</svg>
