<?xml version="1.0" encoding="iso-8859-1"?>
<!-- Generator: Adobe Illustrator 19.0.0, SVG Export Plug-In . SVG Version: 6.00 Build 0)  -->
<svg xmlns="http://www.w3.org/2000/svg" xmlns:xlink="http://www.w3.org/1999/xlink" version="1.1" id="Layer_1" x="0px" y="0px" viewBox="0 0 512 512" style="enable-background:new 0 0 512 512;" xml:space="preserve">
<rect x="135.7" y="56.05" style="fill:#FFE15A;" width="267.6" height="317.8"/>
<path style="fill:#73AF00;" d="M503.6,373.85H403.3V56.05h100.3c4.6,0,8.4,3.7,8.4,8.4v301C512,370.05,508.3,373.85,503.6,373.85z"/>
<path style="fill:#4173CD;" d="M35.4,56.05h100.3v317.8H35.4c-4.6,0-8.4-3.7-8.4-8.4v-301C27,59.85,30.7,56.05,35.4,56.05z"/>
<g>
	<polygon style="fill:#73AF00;" points="208.8,210.65 235.9,264.95 263,210.65 235.9,156.45  "/>
	<polygon style="fill:#73AF00;" points="276,210.65 303.1,264.95 330.2,210.65 303.1,156.45  "/>
	<polygon style="fill:#73AF00;" points="242.4,275.85 269.5,330.15 296.6,275.85 269.5,221.65  "/>
</g>
<path style="fill:#2E3033;" d="M19.2,489.05L19.2,489.05c-10.6,0-19.2-8.6-19.2-19.2V41.95c0-10.5,8.5-19,19-19h0.2  c10.6,0,19.2,8.6,19.2,19.2v427.8C38.4,480.45,29.8,489.05,19.2,489.05z"/>
<g>
</g>
<g>
</g>
<g>
</g>
<g>
</g>
<g>
</g>
<g>
</g>
<g>
</g>
<g>
</g>
<g>
</g>
<g>
</g>
<g>
</g>
<g>
</g>
<g>
</g>
<g>
</g>
<g>
</g>
</svg>
