<?xml version="1.0" encoding="iso-8859-1"?>
<!-- Generator: Adobe Illustrator 19.0.0, SVG Export Plug-In . SVG Version: 6.00 Build 0)  -->
<svg xmlns="http://www.w3.org/2000/svg" xmlns:xlink="http://www.w3.org/1999/xlink" version="1.1" id="Layer_1" x="0px" y="0px" viewBox="0 0 512 512" style="enable-background:new 0 0 512 512;" xml:space="preserve">
<path style="fill:#FFE15A;" d="M512,162.503H27.43V65.118c0-4.661,3.779-8.44,8.44-8.44h467.69c4.661,0,8.44,3.779,8.44,8.44  V162.503z"/>
<path style="fill:#FF4B55;" d="M503.56,374.155H35.87c-4.661,0-8.44-3.779-8.44-8.44V268.33H512v97.385  C512,370.376,508.222,374.155,503.56,374.155z"/>
<rect x="27.43" y="162.498" style="fill:#41479B;" width="484.57" height="105.83"/>
<g>
	<path style="fill:#F5F5F5;" d="M196.026,235.763l2.093,6.277l6.617,0.052c0.857,0.006,1.212,1.1,0.523,1.609l-5.324,3.931   l1.996,6.309c0.258,0.817-0.672,1.493-1.368,0.995l-5.384-3.849l-5.384,3.849c-0.697,0.498-1.627-0.177-1.368-0.995l1.996-6.309   l-5.324-3.931c-0.689-0.508-0.333-1.603,0.522-1.609l6.617-0.052l2.093-6.277C194.606,234.95,195.755,234.95,196.026,235.763z"/>
	<path style="fill:#F5F5F5;" d="M208.882,215.779l-1.123,6.522l5.808,3.172c0.752,0.41,0.549,1.542-0.3,1.665l-6.549,0.948   l-1.223,6.504c-0.158,0.842-1.298,0.998-1.676,0.229l-2.926-5.935l-6.563,0.847c-0.849,0.11-1.35-0.925-0.736-1.523l4.741-4.617   l-2.834-5.981c-0.367-0.774,0.463-1.57,1.222-1.171l5.856,3.083l4.812-4.543C208.014,214.391,209.027,214.934,208.882,215.779z"/>
	<path style="fill:#F5F5F5;" d="M225.15,198.288l-3.106,5.844l4.524,4.83c0.586,0.626,0.038,1.636-0.806,1.488l-6.518-1.148   l-3.196,5.795c-0.414,0.75-1.545,0.542-1.664-0.307l-0.922-6.553l-6.499-1.249c-0.842-0.161-0.993-1.301-0.223-1.677l5.947-2.902   l-0.821-6.566c-0.107-0.85,0.931-1.346,1.527-0.73l4.598,4.759l5.991-2.809C224.76,196.698,225.553,197.532,225.15,198.288z"/>
	<path style="fill:#F5F5F5;" d="M244.728,187.436l-4.566,4.79l3.054,5.87c0.396,0.76-0.404,1.586-1.176,1.215l-5.967-2.862   l-4.64,4.719c-0.6,0.611-1.633,0.105-1.519-0.744l0.878-6.559l-5.922-2.954c-0.767-0.382-0.606-1.52,0.237-1.675l6.509-1.192   l0.98-6.544c0.127-0.847,1.26-1.046,1.666-0.292l3.145,5.823l6.527-1.091C244.78,185.801,245.319,186.816,244.728,187.436z"/>
	<path style="fill:#F5F5F5;" d="M267.229,182.408l-5.682,3.392l1.37,6.475c0.177,0.838-0.814,1.42-1.459,0.856l-4.982-4.356   l-5.734,3.303c-0.743,0.427-1.602-0.335-1.265-1.124l2.603-6.084l-4.914-4.432c-0.636-0.574-0.176-1.627,0.677-1.55l6.591,0.596   l2.698-6.043c0.349-0.783,1.493-0.67,1.684,0.166l1.47,6.452l6.581,0.697C267.719,180.846,267.966,181.969,267.229,182.408z"/>
	<path style="fill:#F5F5F5;" d="M343.404,235.763l-2.093,6.277l-6.617,0.052c-0.857,0.006-1.212,1.1-0.523,1.609l5.324,3.931   l-1.996,6.309c-0.258,0.817,0.672,1.493,1.368,0.995l5.384-3.849l5.384,3.849c0.697,0.498,1.627-0.177,1.368-0.995l-1.996-6.309   l5.324-3.931c0.689-0.508,0.333-1.603-0.523-1.609l-6.617-0.052l-2.094-6.277C344.824,234.95,343.675,234.95,343.404,235.763z"/>
	<path style="fill:#F5F5F5;" d="M330.549,215.779l1.121,6.522l-5.807,3.172c-0.752,0.41-0.549,1.542,0.3,1.665l6.549,0.948   l1.223,6.504c0.158,0.842,1.298,0.998,1.676,0.229l2.926-5.935l6.563,0.847c0.849,0.11,1.35-0.925,0.736-1.523l-4.741-4.617   l2.834-5.981c0.367-0.774-0.463-1.57-1.222-1.171l-5.855,3.083l-4.812-4.543C331.417,214.391,330.403,214.934,330.549,215.779z"/>
	<path style="fill:#F5F5F5;" d="M314.281,198.288l3.106,5.844l-4.524,4.83c-0.586,0.626-0.038,1.636,0.806,1.488l6.517-1.148   l3.196,5.795c0.414,0.75,1.545,0.542,1.664-0.307l0.922-6.553l6.499-1.249c0.842-0.161,0.993-1.301,0.223-1.677l-5.947-2.902   l0.821-6.566c0.107-0.85-0.93-1.346-1.527-0.73l-4.598,4.759l-5.991-2.808C314.671,196.698,313.879,197.532,314.281,198.288z"/>
	<path style="fill:#F5F5F5;" d="M294.703,187.436l4.566,4.79l-3.054,5.87c-0.396,0.76,0.404,1.586,1.176,1.215l5.967-2.862   l4.64,4.719c0.6,0.611,1.633,0.105,1.519-0.744l-0.878-6.559l5.922-2.954c0.767-0.382,0.606-1.52-0.237-1.675l-6.509-1.192   l-0.98-6.544c-0.127-0.847-1.26-1.046-1.667-0.292l-3.145,5.823l-6.527-1.091C294.65,185.801,294.112,186.816,294.703,187.436z"/>
	<path style="fill:#F5F5F5;" d="M272.201,182.408l5.682,3.392l-1.369,6.475c-0.177,0.838,0.814,1.42,1.459,0.856l4.982-4.356   l5.734,3.303c0.743,0.427,1.602-0.335,1.265-1.124l-2.603-6.084l4.914-4.432c0.636-0.574,0.176-1.627-0.677-1.55l-6.591,0.596   l-2.698-6.043c-0.349-0.783-1.493-0.67-1.684,0.166l-1.47,6.452l-6.581,0.697C271.712,180.846,271.465,181.969,272.201,182.408z"/>
</g>
<path style="fill:#2E3033;" d="M19.122,488.101L19.122,488.101C8.561,488.101,0,479.54,0,468.979V42.865  c0-10.474,8.491-18.966,18.965-18.966h0.157c10.561,0,19.122,8.561,19.122,19.122v425.958  C38.244,479.54,29.683,488.101,19.122,488.101z"/>
<g>
</g>
<g>
</g>
<g>
</g>
<g>
</g>
<g>
</g>
<g>
</g>
<g>
</g>
<g>
</g>
<g>
</g>
<g>
</g>
<g>
</g>
<g>
</g>
<g>
</g>
<g>
</g>
<g>
</g>
</svg>
