<?xml version="1.0" encoding="iso-8859-1"?>
<!-- Generator: Adobe Illustrator 19.0.0, SVG Export Plug-In . SVG Version: 6.00 Build 0)  -->
<svg xmlns="http://www.w3.org/2000/svg" xmlns:xlink="http://www.w3.org/1999/xlink" version="1.1" id="Layer_1" x="0px" y="0px" viewBox="0 0 512.1 512.1" style="enable-background:new 0 0 512.1 512.1;" xml:space="preserve">
<path style="fill:#F5F5F5;" d="M503.6,373.9H35.4c-4.6,0-8.4-3.7-8.4-8.4v-301c0-4.6,3.7-8.4,8.4-8.4h468.3c4.6,0,8.4,3.7,8.4,8.4  v301C512,370.1,508.3,373.9,503.6,373.9z"/>
<polygon style="fill:#4173CD;" points="405,247.2 408.1,257.9 418.7,226.4 389.3,241.9 400.3,243.2 365,284.7 364.7,283.8   392.9,225.4 398.6,235 400.9,201.8 376.3,224.3 387.3,222.7 359.1,281.1 358.3,281.4 368.8,228 376.7,235.8 370.5,203.2   352.5,231.1 362.7,226.8 351.4,284.4 347.7,292.1 343.7,294.8 342,303.1 328,319.6 338.9,318.7 337,328.7 340.8,326.1 341.2,330.8   347.8,323 353.9,332.1 358.1,310.9 363.6,304.4 363.2,299.6 366.9,291.9 "/>
<path style="fill:#73AF00;" d="M151,215.9c1.2-5.4,0.5-10.4-1.6-13.6c-3.2,1.9-6,6.2-7.2,11.6c-0.6,2.5-0.7,4.9-0.4,7.1l-6.6-9.8  c2.7-2.2,5-5.9,6.1-10.7c1.2-5.4,0.5-10.4-1.6-13.6c-3.2,1.9-6,6.2-7.2,11.6c-0.6,2.9-0.7,5.6-0.3,8.1l-4.5-6.7  c0.2-3.4-0.8-7.5-3.3-11.4c-3-4.7-7.1-7.7-10.7-8.5c-0.9,3.6,0.2,8.6,3.1,13.3c2.5,4,5.8,6.7,9,7.9l4.1,6.8  c-2.1-1.4-4.6-2.5-7.4-3.1c-5.4-1.2-10.4-0.5-13.6,1.6c1.9,3.2,6.2,6,11.6,7.2c4.7,1.1,9.1,0.5,12.2-1l6.1,10.2  c-1.9-1.1-4.1-2.1-6.6-2.6c-5.4-1.2-10.4-0.5-13.6,1.6c1.9,3.2,6.2,6,11.6,7.2c4.5,1,8.7,0.6,11.8-0.8l5.6,9.3  c-1.7-0.9-3.7-1.7-5.9-2.2c-5.4-1.2-10.4-0.5-13.6,1.6c1.9,3.2,6.2,6,11.6,7.2c4.3,1,8.4,0.6,11.4-0.6l5.4,9  c-1.6-0.8-3.2-1.4-5.1-1.9c-5.4-1.2-10.4-0.5-13.6,1.6c1.9,3.2,6.2,6,11.6,7.2c4.1,0.9,8,0.7,11-0.4l4.9,8.2  c-1.4-0.6-2.8-1.1-4.4-1.5c-5.4-1.2-10.4-0.5-13.6,1.6c1.9,3.2,6.2,6,11.6,7.2c3.9,0.9,7.7,0.7,10.6-0.3l15.7,26.1l6.7-4.2l-17-25.3  c2.1-2.3,3.8-5.6,4.7-9.5c1.2-5.4,0.5-10.4-1.6-13.6c-3.2,1.9-6,6.2-7.2,11.6c-0.4,1.6-0.5,3.1-0.5,4.6l-5.3-8  c2.2-2.3,4.1-5.7,5-9.8c1.2-5.4,0.5-10.4-1.6-13.6c-3.2,1.9-6,6.2-7.2,11.6c-0.4,1.9-0.5,3.7-0.5,5.4l-5.9-8.7  c2.4-2.3,4.4-5.8,5.4-10.1c1.2-5.4,0.5-10.4-1.6-13.6c-3.2,1.9-6,6.2-7.2,11.6c-0.5,2.2-0.6,4.3-0.5,6.3l-6.1-9.1  C147.8,224,150,220.4,151,215.9z"/>
<g>
	<path style="fill:#FFE15A;" d="M219.3,215l-8.4-50.2h-1.3c-7.6,0-13-7.4-10.6-14.6v-0.1c1.9-5.8-1.1-12-6.8-14L77.5,95.6   c-6.5-2.3-12.6,4.2-9.9,10.6l12.4,29c3.6,8.4,9.8,15.3,17.7,19.8l31.9,18.2c9.5,5.4,20.3,8.3,31.2,8.3l0,0l2.9,5.7   c8.5,17,25.9,27.7,44.9,27.7h10.7L219.3,215L219.3,215z"/>
	<path style="fill:#FFE15A;" d="M319.7,215l8.4-50.2h1.3c7.6,0,13-7.4,10.6-14.6v-0.1c-1.9-5.8,1.1-12,6.8-14l114.8-40.5   c6.5-2.3,12.7,4.3,9.9,10.6l-12.4,29c-3.6,8.4-9.8,15.3-17.7,19.8l-31.9,18.2c-9.5,5.4-20.3,8.3-31.2,8.3l0,0l-2.9,5.7   c-8.5,17-25.9,27.7-44.9,27.7h-10.8L319.7,215L319.7,215z"/>
	<path style="fill:#FFE15A;" d="M302.9,156.5l-20.7-48.4c-2.6-6.1-8.7-10.1-15.4-10.1h-5.7l-8.4,8.4h-8.4l-8.4,8.4h11.7   c3,0,5,3,3.8,5.7l-15.5,36.1h67V156.5z"/>
	<path style="fill:#FFE15A;" d="M244.4,240.1L227.7,215l-15.3,15.3c-6.4,6.4-11.3,14.3-14.1,22.9l-4,12l-8.4,8.4H175   c-3.6,0-6.9,2-8.5,5.2l-2.4,4.7c-1.6,3.1,0.7,6.8,4.2,6.8h17.5l5.6-11.1l26.7-13.3c0.8-0.4,1.5-0.9,2.2-1.6L244.4,240.1z"/>
	<path style="fill:#FFE15A;" d="M294.6,240.1l16.7-25.1l15.3,15.3c6.4,6.4,11.3,14.3,14.1,22.9l4,12l8.4,8.4H364   c3.6,0,6.9,2,8.5,5.2l2.4,4.7c1.6,3.1-0.7,6.8-4.2,6.8h-17.5l-5.6-11.1l-26.7-13.3c-0.8-0.4-1.5-0.9-2.2-1.6L294.6,240.1z"/>
	<path style="fill:#FFE15A;" d="M244.4,248.4l-20.3,33.9c-2.7,4.6-1.7,10.5,2.3,13.9l30.9,25.7c7.1,5.9,17.3,5.9,24.4,0l30.9-25.7   c4.1-3.4,5.1-9.3,2.3-13.9l-20.3-33.9H244.4z"/>
</g>
<path style="fill:#F5F5F5;" d="M269.5,148.1c0,0-25.1,8.4-58.5,0c0,0,0,16.7,0,33.4s8.4,66.9,58.5,83.6  c50.2-16.7,58.5-66.9,58.5-83.6s0-33.4,0-33.4C294.6,156.5,269.5,148.1,269.5,148.1z"/>
<path style="fill:#41479B;" d="M269.5,148.1c0,0-25.1,8.4-58.5,0c0,0,0,16.7,0,33.4h117c0-16.7,0-33.4,0-33.4  C294.6,156.5,269.5,148.1,269.5,148.1z"/>
<g>
	<path style="fill:#FF4B55;" d="M228.4,235v-53.5h-9.1v37.2C221.7,224.2,224.7,229.7,228.4,235z"/>
	<path style="fill:#FF4B55;" d="M246.7,181.6h-9.1v64.2c2.8,2.7,5.8,5.3,9.1,7.8V181.6z"/>
	<path style="fill:#FF4B55;" d="M310.5,235c3.8-5.3,6.8-10.8,9.1-16.3v-37.2h-9.1V235z"/>
	<path style="fill:#FF4B55;" d="M264.9,181.6h-9.1v77.6c2.9,1.5,5.9,2.9,9.1,4.2V181.6z"/>
	<path style="fill:#FF4B55;" d="M301.4,181.6h-9.1v72c3.3-2.4,6.4-5,9.1-7.8V181.6z"/>
	<path style="fill:#FF4B55;" d="M283.2,259.2v-77.6h-9.1v81.8C277.3,262.1,280.3,260.7,283.2,259.2z"/>
</g>
<polygon style="fill:#73AF00;" points="181.6,280.3 175.6,284 185.6,300.6 192.3,296.3 "/>
<g>
	<polygon style="fill:#4173CD;" points="366.7,292.4 361.5,281.9 351.9,281.9 351.4,284.4 347.7,292.1 343.7,294.8 342,303.1    328,319.6 338.9,318.7 337,328.7 340.8,326.1 341.2,330.8 347.8,323 353.9,332.1 358.1,310.9 363.6,304.4 363.2,299.6  "/>
	<polygon style="fill:#4173CD;" points="107,181.6 85.5,181.6 87.5,187.3 74.8,231.7 62.1,187.3 64,181.6 42.5,181.6 48.3,189.3    66,251 64,256.8 85.5,256.8 83.6,251 101.2,189.3  "/>
	<polygon style="fill:#4173CD;" points="471.4,186.9 475,181.6 471.4,181.6 457,181.6 453.5,181.6 457,186.9 457,251.4 453.5,256.8    457,256.8 471.4,256.8 475,256.8 471.4,251.4  "/>
</g>
<path style="fill:#2E3033;" d="M19.2,489.1L19.2,489.1C8.6,489.1,0,480.5,0,469.9V42c0-10.5,8.5-19,19-19h0.2  c10.6,0,19.2,8.6,19.2,19.2V470C38.4,480.5,29.8,489.1,19.2,489.1z"/>
<g>
</g>
<g>
</g>
<g>
</g>
<g>
</g>
<g>
</g>
<g>
</g>
<g>
</g>
<g>
</g>
<g>
</g>
<g>
</g>
<g>
</g>
<g>
</g>
<g>
</g>
<g>
</g>
<g>
</g>
</svg>
