<?xml version="1.0" encoding="iso-8859-1"?>
<!-- Generator: Adobe Illustrator 19.0.0, SVG Export Plug-In . SVG Version: 6.00 Build 0)  -->
<svg xmlns="http://www.w3.org/2000/svg" xmlns:xlink="http://www.w3.org/1999/xlink" version="1.1" id="Layer_1" x="0px" y="0px" viewBox="0 0 511.902 511.902" style="enable-background:new 0 0 511.902 511.902;" xml:space="preserve">
<path style="fill:#FF4B55;" d="M503.6,373.851H35.4c-4.7,0-8.4-3.8-8.4-8.4v-300.9c0-4.7,3.8-8.4,8.4-8.4h468.1  c4.7,0,8.4,3.8,8.4,8.4v300.9C512,370.051,508.2,373.851,503.6,373.851z"/>
<path style="fill:#FFE15A;" d="M273.6,120.651l22.3,67l70.6,0.5c3.9,0,5.6,5.1,2.4,7.4l-56.8,42l21.3,67.3c1.2,3.8-3.1,6.9-6.3,4.6  l-57.5-41.1l-57.5,41.1c-3.2,2.3-7.5-0.8-6.3-4.6l21.3-67.3l-56.8-42c-3.2-2.3-1.5-7.4,2.4-7.4l70.6-0.5l22.3-67  C267.1,116.951,272.4,116.951,273.6,120.651z"/>
<path style="fill:#2E3033;" d="M19.1,488.051L19.1,488.051c-10.5,0-19.1-8.6-19.1-19.1v-426.1c0-10.5,8.5-19,19-19h0.2  c10.6,0,19.1,8.6,19.1,19.1v426C38.2,479.451,29.7,488.051,19.1,488.051z"/>
<g>
</g>
<g>
</g>
<g>
</g>
<g>
</g>
<g>
</g>
<g>
</g>
<g>
</g>
<g>
</g>
<g>
</g>
<g>
</g>
<g>
</g>
<g>
</g>
<g>
</g>
<g>
</g>
<g>
</g>
</svg>
