<?xml version="1.0" encoding="iso-8859-1"?>
<!-- Generator: Adobe Illustrator 19.0.0, SVG Export Plug-In . SVG Version: 6.00 Build 0)  -->
<svg xmlns="http://www.w3.org/2000/svg" xmlns:xlink="http://www.w3.org/1999/xlink" version="1.1" id="Layer_1" x="0px" y="0px" viewBox="0 0 512.1 512.1" style="enable-background:new 0 0 512.1 512.1;" xml:space="preserve">
<path style="fill:#464655;" d="M503.6,373.9H35.4c-4.6,0-8.4-3.7-8.4-8.4v-301c0-4.6,3.7-8.4,8.4-8.4h468.3c4.6,0,8.4,3.7,8.4,8.4  v301C512,370.1,508.3,373.9,503.6,373.9z"/>
<polygon style="fill:#FFE15A;" points="512,206.6 263.3,206.6 27,76.3 27,95.4 243.8,215 27,334.6 27,353.7 263.3,223.4 512,223.4   "/>
<path style="fill:#73AF00;" d="M30.3,372c1.4,1.1,3.1,1.8,5,1.8h468.3c4.6,0,8.4-3.7,8.4-8.4V240.1H269.5L30.3,372z"/>
<path style="fill:#FF4B55;" d="M503.6,56.1H35.4c-1.9,0-3.6,0.8-5,1.8l239.2,131.9H512V64.5C512,59.9,508.3,56.1,503.6,56.1z"/>
<g>
	<path style="fill:#FFE15A;" d="M99.4,168.1c-23.9-7.5-41.9,9.8-46,18.8c-3.5,7.6-10,41.8,22.3,47.3s31.9-25,31.9-25   c-1.5,4.9-4.1,18.7-27.4,18.7c-8.7,0-21.3-13-18.9-27.3c2.2-13.5,14.3-20.4,23.4-20.8c8.6-0.4,28.7,5.6,28.7,30.1   c0,27.5-28.4,30.6-28.4,30.6V257c24.7-2.4,38.6-16.1,42.3-38C131.1,197.2,123.7,175.7,99.4,168.1z"/>
	<path style="fill:#FFE15A;" d="M73,208.9c-0.6,0.7-0.9,1.6-0.9,2.5l-0.1,4.5l-0.9,1.5c-0.3,0.5-0.1,1.2,0.4,1.6   c0.6,0.3,1.3,0.1,1.6-0.4L74,217l3.6-1.3c1.1-0.4,1.9-1.2,2.4-2.3c0.9-2.1,2.9-5.9,6.2-9.9c3.2,4,5.2,7.8,6.2,9.9   c0.5,1,1.3,1.9,2.4,2.3l3.6,1.3l0.9,1.6c0.3,0.6,1,0.7,1.6,0.4c0.5-0.3,0.7-1,0.4-1.6l-0.9-1.5l-0.1-4.5c0-0.9-0.3-1.8-0.9-2.5   c-3-3.8-6.2-6.8-9.3-9.4c2.5-2.4,5.3-4.6,8.9-6.3c0.8-0.4,1.3-1.3,1-2.2c-0.3-1.2-1.6-1.9-2.8-1.3c-2.4,1.1-6.5,3.3-11.1,6.7   c-4.6-3.4-8.7-5.6-11.1-6.7c-1.1-0.5-2.5,0.1-2.8,1.3c-0.2,0.9,0.2,1.8,1,2.2c3.6,1.7,6.4,4,8.9,6.3C79.2,202.1,76,205.1,73,208.9z   "/>
</g>
<path style="fill:#2E3033;" d="M19.2,489.1L19.2,489.1C8.6,489.1,0,480.5,0,469.9V42c0-10.5,8.5-19,19-19h0.2  c10.6,0,19.2,8.6,19.2,19.2v427.7C38.4,480.5,29.8,489.1,19.2,489.1z"/>
<g>
</g>
<g>
</g>
<g>
</g>
<g>
</g>
<g>
</g>
<g>
</g>
<g>
</g>
<g>
</g>
<g>
</g>
<g>
</g>
<g>
</g>
<g>
</g>
<g>
</g>
<g>
</g>
<g>
</g>
</svg>
