<?xml version="1.0" encoding="iso-8859-1"?>
<!-- Generator: Adobe Illustrator 19.0.0, SVG Export Plug-In . SVG Version: 6.00 Build 0)  -->
<svg xmlns="http://www.w3.org/2000/svg" xmlns:xlink="http://www.w3.org/1999/xlink" version="1.1" id="Layer_1" x="0px" y="0px" viewBox="0 0 512 512" style="enable-background:new 0 0 512 512;" xml:space="preserve">
<path style="fill:#F5F5F5;" d="M512,215.354H26.68V64.822c0-4.668,3.785-8.453,8.453-8.453h468.414c4.668,0,8.453,3.785,8.453,8.453  V215.354z"/>
<path style="fill:#73AF00;" d="M26.68,215.354H512v150.531c0,4.668-3.785,8.453-8.453,8.453H35.133  c-4.668,0-8.453-3.785-8.453-8.453V215.354z"/>
<g>
	<path style="fill:#FF4B55;" d="M395.876,149.414c0,0,5.784,15.865,6.28,16.692l0.661-1.322l3.967-20.657l10.246-19.171   l-2.974,0.331l-23.302,11.237c0,0-13.882,15.204-14.047,15.7C376.54,152.721,395.876,149.414,395.876,149.414z"/>
	<path style="fill:#FF4B55;" d="M404.084,301.124c-0.771-0.11-12.23,0.441-12.23,0.441l-3.746-12.56l-2.148-23.742l4.049-1.075   l5.04,2.396l1.818-9.502c0,0-4.38-4.793-5.206-5.123c-0.826-0.331-10.742-2.561-10.742-2.561l-13.303-17.6l15.865-8.841   l12.394-17.022l2.974-15.37l-2.479-12.725l-5.636-9.438c-0.083-0.269-0.148-0.478-0.148-0.478c-0.04-0.05-0.18-0.146-0.268-0.218   l-1.055-1.765l-0.017,1.029c-2.444-1.527-7.448-4.183-8.743-4.83c-1.653-0.826-10.411-2.314-12.23-0.991   c-1.817,1.322-10.246,5.288-11.734,8.098s-2.479,12.89-2.479,12.89s2.479,5.619,5.619,6.941s9.255,2.81,10.246,2.479   c0.856-0.285,10.557-3.152,13.203-4.358l1.175,2.374l-0.496,6.776l-5.453,3.801l-10.081,3.967c0,0-15.37-4.296-16.03-4.131   c-0.661,0.165-19.666-5.619-19.666-5.619l-17.849-4.131l5.949-2.974l16.196-1.157c0,0,3.14-18.344,3.636-18.675   c0.496-0.331,11.073-8.758,11.073-8.758l8.758-2.148l-5.288-22.421l7.932-24.459l-20.713,5.95l-32.832,8.153l-20.933-1.322   l-18.509,5.95l-11.899,10.798l-6.831,9.254l-2.424,14.763l-1.54,19.608l-5.729,10.797l-6.492,5.089   c-0.728-1.922-4.14-9.274-4.14-9.274l8.263-1.983l-2.148-5.453l-5.784-4.296l1.817-6.61l6.61,3.636l1.818,1.322l1.157-6.775   l-7.272-10.246l1.157-5.123l8.758,4.627l-0.991-11.899l-7.767-4.793l0.496-6.61l8.484,2.534l-0.881-6.28l-9.254-6.721l9.034-14.543   l-11.018,0.552l-0.881-4.738l-2.865-1.102c0,0-15.314,6.5-16.416,6.28s-13.331-1.872-14.763-1.543   c-1.432,0.331-6.5,1.653-6.5,1.653l-1.433,5.619l-9.365-1.543l-13.882-1.157l-4.186,5.123l6.61,2.645c0,0-1.543,11.678-1.102,12.56   c0.441,0.881,4.407,6.61,4.407,6.61l-9.034,12.339l9.254,1.322l12.78-1.983l-0.441,3.085l16.967-1.764l-3.746,1.983l-4.848,14.544   l-14.102,28.645l-4.958,25.45l-7.932-8.263l-5.288-21.814l-7.932-21.484c0,0-1.653-6.61-2.644-6.776s-5.288-0.991-5.288-0.991   l-5.453,4.462l-6.941-0.991l-3.967,5.453l4.462,6.941c0,0-7.437,2.974-7.437,3.801c0,0.826,0.496,5.619,0.991,5.784   c0.496,0.165,11.734-0.165,11.734-0.165l6.776,12.064l-5.288,13.882l2.644,5.288l4.627,0.661l4.296-4.958l14.873,44.455   c0,0-1.157,5.784-1.983,6.28s-4.793,4.958-3.801,4.958s7.106,0.826,7.767,0.496c0.661-0.331,9.254-6.941,9.254-6.941   s13.551-10.411,14.378-9.585c0.826,0.826,13.716,8.758,13.716,8.758l-5.949,20.492l-14.047,20.492l-8.758-5.288l-6.28-8.924   l-4.627,1.488l-1.653,2.81l0.661,5.949c0,0-4.793,3.801-4.793,4.627c0,0.826,0.496,6.776,0.496,6.776s3.14,1.488,3.305,2.314   s1.817,6.776,1.817,6.776l3.305,1.157l6.28-3.801h10.411l6.445,0.991l13.716-4.296l19.997,0.992l-1.817-3.801   c0,0-8.098-4.131-10.908-4.958c-2.81-0.826-5.619-1.488-5.619-1.488l-1.157-5.784l19.666-23.302l7.272-1.488l2.479,6.115   c0,0,8.153-1.983,8.153-2.645c0-0.661,0-7.712,0-8.374s-1.764-6.17-1.764-6.17s-0.023-0.203-0.059-0.505l6.229-1.038l21.595-10.356   l7.603,9.144l9.475,4.517l-11.789,21.154l-10.135,6.831l-7.272-3.305l-10.136-7.493l-3.967,2.424l0.881,7.492l-5.949-0.441   l-2.645,5.288l4.407,6.389l-1.543,5.069c0,0,1.102,4.627,2.203,4.627s7.712-2.424,7.712-2.424l19.39-1.543l14.102-4.627   l14.763,1.102c0,0,2.865-9.915,2.204-9.915c-0.661,0-0.881-0.221-2.645-0.221c-1.764,0-7.932,0.221-7.932,0.221l-0.221-2.204   l4.848-8.813l18.73-15.645l5.508,1.102l1.983,2.865l5.509-4.186l-0.221-7.051l-4.848-5.068l-4.848-5.729l1.543-8.594l8.373,3.967   c0,0,13.221,9.255,14.323,9.696s26.662,7.051,26.662,7.051l5.288,12.56l-2.644,19.831l-8.153-2.424l-7.712-9.915   c0,0-2.203-1.102-3.305-0.882c-1.102,0.221-3.746,4.627-3.746,4.627l2.644,6.17l-3.526,1.101l-3.305,2.204l-0.661,4.627   l3.084,2.865c0,0,0,5.288,0,5.949s1.764,3.085,2.424,3.305c0.661,0.22,5.729,0.881,6.941,0.771   c1.212-0.11,10.246-3.857,10.246-3.857s16.966,0.331,17.407,0.221s15.094-3.305,15.094-3.305l8.263,1.322   c0,0,5.509-4.187,5.288-4.738C410.363,306.413,404.855,301.234,404.084,301.124z M372.409,181.806   c-4.462,0.496-6.776,1.817-7.106-0.661c-0.331-2.479-0.331-7.437,0.165-7.603s5.619-3.14,5.784-2.644s5.288,2.974,5.288,2.974   l3.119,6.306C378.013,181.053,375.473,181.465,372.409,181.806z"/>
	<path style="fill:#FF4B55;" d="M147.158,141.317c0,0,1.817-9.42,2.314-9.42c0.496,0,7.272-2.479,7.272-2.479l-20.162-13.056   c0,0,3.471,16.03,3.801,17.352C140.712,135.037,147.158,141.317,147.158,141.317z"/>
</g>
<g>
	<path style="fill:#464655;" d="M198.44,121.93c0.07,0.016,0.472,0.106,1.087,0.227l-0.152,0.661   c-0.248,1.064,0.418,2.133,1.488,2.375c0.15,0.036,0.3,0.052,0.447,0.052c0.901,0,1.72-0.62,1.929-1.54l0.212-0.924   c1.429,0.176,3.001,0.314,4.52,0.314c1.284,0,2.523-0.093,3.589-0.341c1.066-0.248,1.733-1.311,1.485-2.375   c-0.248-1.069-1.304-1.751-2.378-1.488c-3.137,0.739-9.255-0.351-11.341-0.826c-1.046-0.248-2.128,0.418-2.375,1.488   C196.708,120.623,197.374,121.687,198.44,121.93z"/>
	<path style="fill:#464655;" d="M394.777,153.946l4.998,15.259c0.268,0.816,1.03,1.363,1.885,1.363c0.029,0,0.057,0,0.088,0   c0.889-0.041,1.642-0.666,1.844-1.534c3.656-15.669,10.974-40.452,16.146-44.501c0.721-0.563,0.96-1.538,0.586-2.375   c-0.372-0.826-1.257-1.302-2.166-1.136c-1.059,0.197-26.144,5.081-43.598,31.261c-0.447,0.671-0.444,1.544,0.005,2.21   c0.452,0.666,1.257,0.976,2.048,0.832l14.534-3.005c-2.036,4.907-3.333,9.223-3.782,10.808c-6.618-4.028-14.082-4.744-19.258-3.403   c-5.908,1.549-10.874,5.314-13.626,10.334c-2.11,3.847-2.667,8.072-1.531,11.589c1.32,4.085,4.842,9.166,10.772,11.165   c3.93,1.335,10.28,1.63,18.651-3.55c0,0.04,0.006,0.077,0.005,0.116c-0.057,3.305-1.753,6.001-5.049,8.02   c-6.548,4.013-18.031,4.281-25.59,0.583c-9.966-4.866-24.952-7.635-33.324-8.892c5.191-1.655,11.467-2.122,19.008-0.394   c0.102,0.025,0.202-0.014,0.304-0.006c0.051,0.004,0.09,0.058,0.139,0.058c0.055,0,0.097-0.059,0.152-0.063   c0.456-0.036,0.897-0.175,1.232-0.5c0.005-0.005,0.005-0.013,0.011-0.017c0.002-0.002,0.005-0.001,0.005-0.001   c0.01-0.01,0.006-0.022,0.014-0.031c0.319-0.333,0.462-0.761,0.501-1.209c0.01-0.107,0.021-0.189,0.014-0.296   c-0.005-0.09,0.031-0.175,0.013-0.264c-0.023-0.113-2.221-11.372,3.829-19.129c3.636-4.663,9.583-7.209,17.675-7.576   c0.128-0.005,0.234-0.078,0.355-0.109c0.175-0.041,0.35-0.067,0.508-0.155c0.145-0.08,0.245-0.206,0.367-0.32   c0.1-0.094,0.225-0.151,0.306-0.268c0.018-0.024,0.019-0.054,0.035-0.08c0.014-0.022,0.04-0.032,0.053-0.054   c0.036-0.061,0.027-0.134,0.056-0.199c0.09-0.199,0.152-0.397,0.172-0.607c0.011-0.1,0.011-0.192,0.004-0.293   c-0.012-0.224-0.062-0.434-0.147-0.641c-0.021-0.052-0.011-0.111-0.037-0.162c-0.16-0.315-15.721-31.431,9.631-52.207   c0.824-0.676,0.966-1.885,0.322-2.732c-0.646-0.842-1.841-1.038-2.719-0.424c-25.032,17.574-59.628,19.47-73.34,19.47   c-24.456,0-39.908,9.209-47.241,28.146c-0.762,1.969-1.301,4.302-1.754,6.801c0.245-3.504-0.396-6.577-1.977-9.145   c-2.257-3.663-5.708-5.197-7.26-5.729c0.001-0.898-0.006-1.789-0.033-2.663c2.679-0.412,5.858,1.666,6.906,2.55   c0.367,0.31,0.824,0.475,1.286,0.475c0.304,0,0.612-0.072,0.893-0.217c0.712-0.361,1.141-1.111,1.084-1.905   c-0.649-9.222-6.904-13.704-11.196-15.22c3.784-3.007,7.818-7.927,10.287-15.952c0.238-0.775-0.018-1.617-0.648-2.123   c-0.63-0.511-1.508-0.589-2.21-0.197c-0.067,0.037-4.104,2.223-10.173,4.026l0.555-7.207c0.054-0.728-0.295-1.431-0.914-1.823   c-0.617-0.397-1.407-0.413-2.04-0.052c-0.102,0.056-10.256,5.757-20.611,8.764c-7.816-1.965-17.989-3.494-21.845,0.522   c-0.93,0.966-1.794,2.536-1.581,4.968c-6.655-1.389-21.931-3.661-31.204,2.334c-0.731,0.47-1.066,1.363-0.832,2.2   c0.238,0.837,0.991,1.425,1.862,1.445c2.944,0.073,7.494,0.749,9.391,2.003c-0.837,2.257-2.221,7.039-1.012,11.65   c-4.025,1.165-8.247,1.346-13.382-1.432l4.477-1.099c0.803-0.197,1.399-0.873,1.497-1.694c0.095-0.821-0.328-1.617-1.061-1.994   c-0.113-0.062-11.403-5.934-20.791-15.803c-0.531-0.553-1.34-0.753-2.082-0.506c-0.733,0.254-1.252,0.909-1.327,1.678   c-0.08,0.796-1.764,19.557,12.485,30.682c0.356,0.274,0.787,0.418,1.221,0.418c0.272,0,0.542-0.057,0.801-0.17   c0.667-0.295,1.121-0.93,1.177-1.658l0.553-7.087c7.108,4.256,12.993,3.848,18.042,2.315c0.633,0.966,1.438,1.885,2.454,2.727   c0.163,0.135,0.387,0.283,0.613,0.431c-3.244,7.596-9.688,9.553-9.963,9.63c-0.803,0.232-1.379,0.939-1.436,1.771   c-0.059,0.832,0.406,1.611,1.168,1.953c0.48,0.211,10.858,4.7,22.491,0.558l-0.184,1.327c-0.077,0.558,0.088,1.126,0.458,1.554   c0.367,0.433,0.901,0.687,1.467,0.697c0.05,0,0.181,0.005,0.388,0.005c1.336,0,5.766-0.101,10.788-1.255   c-0.759,7.095-5.082,15.553-9.681,24.474c-6.226,12.087-13.165,25.717-13.054,39.483c-2.375-3.075-5.333-7.869-6.796-14.234   c-0.506-2.21-0.842-4.194-1.146-6.006c-0.741-4.384-1.381-8.175-3.974-11.738c-2.931-4.028-7.075-13.02-6.895-17.931   c0.17-4.539-2.804-7.209-5.825-7.844c-0.218-0.045-0.424,0.012-0.64-0.014c-0.715-1.441-2.654-4.202-7.107-4.52   c-1.071-0.145-2.042,0.744-2.12,1.839c-0.077,1.089,0.744,2.04,1.836,2.118c1.553,0.11,2.517,0.703,3.109,1.295   c-1.454,0.747-2.633,1.996-3.453,3.594c-2.654-1.53-5.337-1.914-7.389-1.443c-0.531,0.12-0.933,0.408-1.393,0.624   c-1.343-0.702-4.92-2.035-9.231,0.708c-0.925,0.583-1.198,1.812-0.61,2.737c0.377,0.594,1.02,0.919,1.676,0.919   c0.361,0,0.731-0.098,1.061-0.31c1.54-0.977,2.854-1.105,3.819-0.983c-0.707,1.309-1.108,2.753-1.04,4.097   c0.137,2.67,1.681,4.741,4.067,5.619c-2.846,0.542-5.258,1.864-6.546,3.651c-0.208,0.29-0.251,0.62-0.4,0.926   c-1.812,0.187-4.6,1.407-6.362,5.132c-0.47,0.987-0.046,2.169,0.943,2.639c0.276,0.129,0.563,0.191,0.847,0.191   c0.744,0,1.456-0.418,1.794-1.136c0.786-1.659,1.71-2.315,2.4-2.616c1.884,6.213,8.007,4.798,11.702,3.933l1.479-0.336   c2.071-0.413,5.722,5.634,6.703,9.559c0.682,2.727-0.486,6.063-4.162,11.899c-2.234,3.553-1.59,6.125-0.656,7.659   c0.018,0.031,0.049,0.048,0.068,0.077c-0.593,0.178-1.324,0.306-2.312,0.175c-1.066-0.217-2.087,0.61-2.234,1.694   c-0.147,1.084,0.612,2.087,1.697,2.232c0.506,0.072,0.984,0.104,1.436,0.104c2.307,0,3.842-0.787,4.766-1.432   c1.289,0.552,2.617,0.76,3.598,0.683c2.735-0.227,4.586-2.624,5.838-5.598c3.649,20.115,12.033,38.794,13.489,41.945   c-0.295,7.127-7.987,8.801-8.32,8.873c-0.855,0.175-1.495,0.889-1.575,1.761c-0.08,0.868,0.413,1.683,1.218,2.014   c3.346,1.368,6.274,1.916,8.819,1.916c7.844,0,11.992-5.174,13.298-7.168c5.794-2.018,12.586-6.742,15.237-8.675   c4.421,3.313,8.096,5.149,9.324,5.724c-2.137,21.028-14.464,35.233-18.072,38.957c-2.443-1.399-7.837-4.854-9.619-8.971   c-1.685-3.891-4.81-4.986-7.359-4.758c-0.856-1.106-2.777-3.168-5.471-3.464c-1.325-0.139-3.334,0.104-5.376,2.148   c-0.775,0.775-0.775,2.03,0,2.804c0.772,0.775,2.027,0.78,2.804,0.005c1.121-1.121,1.882-1.053,2.13-1.018   c0.763,0.081,1.501,0.634,2.086,1.204c-1.445,1.232-2.34,2.956-2.197,4.839c0.102,1.322,0.598,2.567,1.296,3.723   c-1.444,0.752-3.185,1.985-4.331,3.936c-0.041,0.07-0.088,0.182-0.13,0.258c-2.368,0.15-6.629,1.823-7.294,7.338   c-0.129,1.089,0.646,2.076,1.733,2.205c0.082,0.011,0.161,0.016,0.24,0.016c0.989,0,1.846-0.739,1.967-1.746   c0.237-1.976,1.194-2.926,2.091-3.401c-0.022,0.815,0.044,1.66,0.336,2.544c0.685,2.082,2.302,3.769,4.718,5.081   c-0.256,0.814-0.422,1.68-0.444,2.617c-1.275,0.643-3.155,1.843-4.119,3.885c-0.721,1.524-0.764,3.228-0.132,4.932   c0.297,0.801,1.053,1.291,1.86,1.291c0.229,0,0.465-0.041,0.692-0.124c1.028-0.383,1.549-1.524,1.167-2.551   c-0.346-0.925-0.168-1.497-0.002-1.849c0.293-0.624,0.875-1.15,1.471-1.557c0.735,1.32,1.846,2.327,3.333,2.817   c0.679,0.222,1.384,0.331,2.091,0.331c2.361,0,4.752-1.193,6.285-3.269c1.836-2.489,5.428-1.064,5.66-0.966   c7.51,2.727,17.654,0.671,23.795-2.779c3.406-1.916,15.406-0.883,22.174,0.227c0.529,0.072,1.093-0.057,1.529-0.383   c0.434-0.336,0.71-0.832,0.764-1.379c0.685-6.848-8.175-8.665-15.295-10.128c-1.939-0.397-3.786-0.775-5.526-1.518   c-0.694-4.018,9.745-18.643,19.691-25.956c2.438-1.792,4.4-2.51,5.384-1.983c1.404,0.769,1.851,4.353,1.71,6.533   c-0.004,0.057,0.03,0.108,0.031,0.164c0.002,0.217,0.043,0.424,0.118,0.634c0.033,0.089,0.056,0.172,0.1,0.255   c0.027,0.053,0.031,0.111,0.063,0.162c0.113,0.174,0.267,0.302,0.421,0.427c0.031,0.025,0.041,0.066,0.073,0.089   c0.007,0.005,0.017,0.004,0.017,0.004c0.257,0.183,0.54,0.291,0.838,0.34c0.076,0.013,0.148,0.001,0.226,0.004   c0.222,0.012,0.436-0.012,0.654-0.077c0.052-0.014,0.106,0.001,0.156-0.018c0.162-0.062,0.336-0.152,0.501-0.219   c1.058-0.542,2.851,0.063,4.104,0.705c-0.234,0.723-0.374,1.478-0.307,2.297c0.082,1.023,0.4,2.04,0.896,3.016   c-1.965-0.222-3.804,0-5.133,1.023c-0.474,0.365-0.85,0.823-1.228,1.275c-2.792,0.277-6.283,2.035-7.113,6.192   c-0.214,1.075,0.481,2.118,1.554,2.334c0.132,0.025,0.263,0.036,0.392,0.036c0.925,0,1.753-0.651,1.942-1.596   c0.199-0.993,0.707-1.593,1.267-2.046c-0.017,0.724,0.06,1.441,0.275,2.119c0.389,1.227,1.436,3.057,4.101,4.08   c-0.24,0.408-0.447,0.842-0.63,1.286c-1.984,0.638-4.975,2.697-4.975,7.066c0,1.095,0.889,1.983,1.983,1.983   c1.095,0,1.983-0.889,1.983-1.983c0-0.772,0.191-1.331,0.444-1.794c0.064,0.286,0.11,0.581,0.212,0.85   c0.481,1.255,1.924,3.609,5.968,3.609c1.332,0,2.944-0.254,4.895-0.889c4.733-1.534,8.088-1.694,11.33-1.854   c3.879-0.186,7.542-0.367,12.689-2.753c7.417-3.445,16.601-2.277,21.414-1.27c2.608,0.537,5.16-0.744,6.21-3.135   c0.361-0.815,0.597-1.529,0.846-2.254c2.243,0.269,2.708,2.45,2.768,2.93c0.111,1.012,0.969,1.767,1.967,1.767   c0.068,0,0.137-0.005,0.206-0.011c1.089-0.114,1.882-1.089,1.769-2.18c-0.215-2.072-1.75-5.789-5.859-6.436   c0.052-1.406-0.221-2.564-0.911-3.418c-0.754-0.93-2.254-1.905-5.193-1.302c-3.042,0.63-4.441,0.754-5.072,0.697   c0.095-0.388,0.32-1.075,0.844-2.246c1.771-3.987,13.533-14.501,21.236-20.797c1.857-0.418,4.212-0.444,4.756,0.175   c0.191,0.211,0.191,0.939-0.243,2.091c-0.31,0.816-0.049,1.735,0.638,2.268c0.685,0.531,1.64,0.558,2.352,0.062   c0.307-0.217,7.501-5.324,7.356-11.548c-0.075-3.146-1.908-5.877-5.451-8.118c-3.003-1.896-4.728-4.09-5.131-6.517   c-0.421-2.538,0.661-4.791,1.384-5.991c2.84,1.361,5.692,3.122,8.531,5.469c16.747,13.847,30.998,16.052,38.696,16.017   c1.615,3.567,6.356,15.74,2.309,28.243c-2.153-0.383-6.383-1.756-9.286-6.594c-2.822-4.7-6.208-5.877-8.555-6.032   c-3.649-0.284-7.519,1.792-10.561,5.593c-0.651,0.816-0.56,1.994,0.204,2.695c0.767,0.708,1.953,0.703,2.704-0.011   c0.506-0.48,1.449-1.064,1.854-0.749l0.411,1.146c0.22,0.635,0.444,1.275,0.712,1.896c-1.578,0.232-3.096,0.878-4.281,2.221   c-0.782,0.884-1.272,1.907-1.628,2.96c-3.633,0.65-5.612,3.404-5.695,3.532c-0.604,0.903-0.359,2.117,0.54,2.727   c0.338,0.232,0.726,0.347,1.107,0.347c0.633,0,1.255-0.3,1.642-0.857c0.038-0.052,0.77-1.045,2.082-1.601   c0.165,0.747,0.431,1.47,0.839,2.128c0.685,1.103,1.656,1.842,2.759,2.235c-0.149,0.574-0.277,1.198-0.358,1.872   c-0.042,0.015-0.087,0.007-0.128,0.024c-4.749,1.998-3.781,7.902-2.606,10.742c0.318,0.764,1.053,1.224,1.831,1.224   c0.254,0,0.508-0.052,0.754-0.15c1.012-0.418,1.495-1.575,1.082-2.588c-0.015-0.037-1.13-2.952-0.412-4.613   c0.019,0.044,0.023,0.092,0.043,0.135c0.821,1.854,2.404,3.176,4.575,3.827c1.069,0.32,2.091,0.454,3.071,0.454   c3.246,0,6.001-1.503,8.32-2.774c1.805-0.987,3.512-1.89,4.857-1.797c0.978,0.093,2.1,0.268,3.328,0.46   c4.638,0.723,10.995,1.704,17.303-0.325c1.175-0.377,2.239-0.744,3.212-1.079c5.126-1.756,7.041-2.412,10.174-0.63   c3.793,2.169,8.685,0.712,11.205-1.947c0.789-0.834,1.245-1.762,1.489-2.704c1.293,0.516,2.342,1.071,2.511,1.382   c-0.369,1.032,0.168,2.164,1.2,2.536c0.22,0.077,0.444,0.114,0.666,0.114c0.814,0,1.578-0.506,1.867-1.317   c0.372-1.038,0.281-2.107-0.256-3.089c-1.31-2.387-5.149-3.669-7.069-4.177c-3.173-4.313-8.013-5.656-16.005-4.39   c-0.318,0.047-0.565-0.011-0.839-0.238c-2.917-2.361-3.561-14.621-3.943-21.938c-0.307-5.857-0.517-9.255-1.415-10.887   c0.46-0.377,2.969-0.424,4.534,0.717c0.754,0.558,0.828,1.059,0.648,1.627c-0.031,0.082-0.059,0.16-0.088,0.238   c-0.387,1.012,0.114,2.153,1.123,2.551c1.01,0.388,2.153-0.088,2.564-1.095c0.059-0.139,0.111-0.284,0.157-0.424   c0.708-2.009,3.604-11.108,0.191-16.872c-1.534-2.588-4.031-4.131-7.426-4.591c-8.65-1.165-15.242-6.693-19.676-16.325   c6.716-2.361,26.488-11.322,30.185-36.058c2.456-16.443-3.437-25.652-8.816-30.481c-0.257-0.231-0.536-0.407-0.798-0.624   c0.155-0.202,0.353-0.368,0.423-0.63C391.038,164.715,392.397,159.713,394.777,153.946z M380.774,150.412   c11.303-14.708,25.164-21.256,32.66-23.901c-4.917,8.857-9.601,25.425-12.044,34.886l-4.126-12.601   c-0.016-0.049-0.067-0.071-0.086-0.117c1.209-2.387,2.57-4.698,4.07-6.648c0.666-0.867,0.504-2.112-0.365-2.779   c-0.871-0.671-2.112-0.506-2.781,0.361c-1.871,2.433-3.522,5.32-4.945,8.236L380.774,150.412z M145.99,138.616   c-6.109-6.471-7.7-14.868-8.064-19.97c5.226,4.845,10.499,8.47,14.054,10.679l-3.159,0.776c-0.604-0.484-1.197-0.932-1.827-1.499   c-0.808-0.728-2.06-0.656-2.799,0.15c-0.733,0.816-0.666,2.071,0.15,2.804c0.708,0.636,1.38,1.125,2.066,1.671L145.99,138.616z    M295.579,204.034c-3.707-9.89-14.892-33.568-42.296-53.38c0.021-0.057,0.036-0.134,0.057-0.19c0.351-0.908,0.81-1.69,1.205-2.549   c41.49,10.602,66.745,27.852,76.832,35.882C310.767,182.277,299.863,196.474,295.579,204.034z M340.495,164.82   c-4.381,5.63-5.145,12.488-5.059,17.12c-9.098-7.617-34.671-26.155-79.147-37.658c0.575-0.997,1.265-1.866,1.908-2.786   c0.144,0.034,0.281,0.086,0.432,0.094c54.722-2.351,85.252,9.399,96.434,14.937C348.789,157.798,343.845,160.512,340.495,164.82z    M296.883,124.848c12.095,0,40.019-1.451,64.103-13.387c-10.338,15.572-6.622,33.05-3.7,41.684   c-11.09-5.68-41.128-17.48-95.913-15.592C269.277,129.09,280.962,124.848,296.883,124.848z M250.371,167.102   c0.493-4.482,0.987-8.746,1.765-12.337c26.336,19.522,36.942,43.121,40.081,51.678c-6.468-1.451-12.328-0.98-17.377,1.624   c-4.133,2.134-7.016,5.269-8.993,8.14c-0.88-9.979-4.176-27.786-16.21-41.807c-0.038-0.045-0.093-0.064-0.134-0.106   C249.825,171.883,250.11,169.466,250.371,167.102z M247.866,227.646c-9.216-2.148-13.086-11.434-13.265-11.873   c-0.243-0.599-0.762-1.048-1.392-1.193c-0.15-0.031-0.299-0.052-0.449-0.052c-0.483,0-0.955,0.181-1.325,0.511   c-6.621,5.954-14.721,7.524-18.765,7.937c3.196-10.039,12.185-15.256,24.278-22.274l0.558-0.325c3.015-1.75,5.189-4.406,6.889-7.53   c-0.002,4.991,0.266,10.551,1.182,15.229c0.186,0.946,1.014,1.601,1.944,1.601c0.127,0,0.256-0.011,0.385-0.036   c1.075-0.211,1.774-1.255,1.565-2.329c-1.984-10.122-0.728-25.343-0.545-27.394c11.534,15.57,13.061,35.218,13.233,41.624   c-6.766-1.171-10.536-6.429-10.576-6.484c-0.369-0.537-0.976-0.857-1.624-0.857h-0.007c-0.646,0-1.25,0.31-1.622,0.837   C245.398,219.191,246.541,224.309,247.866,227.646z M240.843,173.388c-1.536-1.89-3.603-3.97-5.65-4.884   c0.463-1.848,0.896-3.813,1.291-5.879C238.605,164.367,241.817,167.957,240.843,173.388z M231.909,180.476   c0.594,0.087,4.209,0.785,5.709,5.425c-1.682-0.29-3.661-0.137-5.658,0.938C231.641,184.981,231.578,182.86,231.909,180.476z    M238.991,190.647c0.574,0.442,1.335,0.496,1.988,0.213c-1.151,2.135-2.596,3.902-4.376,5.228   c-0.972-0.982-2.402-2.736-3.479-5.279C236.061,188.669,238.697,190.435,238.991,190.647z M245.826,161.411   c0.692-0.179,1.228-0.727,1.408-1.42c-0.288,2.158-0.554,4.377-0.806,6.678c-0.831,7.541-1.736,15.707-4.306,21.905   c-0.728-8.334-6.168-11.4-9.353-11.956c0.169-0.575,0.323-1.142,0.539-1.743c0.282-0.784,0.559-1.625,0.832-2.515   c1.812,1.143,4.316,4.238,5.72,6.393c0.369,0.568,0.994,0.903,1.663,0.903c0.046,0,0.093,0,0.139-0.005   c0.721-0.052,1.356-0.49,1.658-1.141c4.746-10.208-1.643-17.488-6.09-20.236c0.112-0.727,0.224-1.453,0.325-2.191   c2.578,1.212,5.329,3.706,6.32,4.764c0.379,0.408,0.907,0.63,1.449,0.63C245.491,161.479,245.658,161.458,245.826,161.411z    M242.533,148.764c1.131,1.839,1.606,4.101,1.425,6.755c-1.61-1.337-3.736-2.781-5.915-3.55c0.235-2.254,0.41-4.516,0.511-6.75   C239.762,145.819,241.384,146.897,242.533,148.764z M243.967,135.29c-1.628-0.711-3.587-1.194-5.597-0.973   c-0.202-2.206-0.524-4.259-0.974-6.117C239.481,129.18,242.476,131.227,243.967,135.29z M231.169,105.812l-0.381,4.965   c-3.077,0.686-6.461,1.199-10.048,1.284c-0.537-0.186-1.287-0.437-2.158-0.717C223.688,109.455,228.273,107.285,231.169,105.812z    M173.217,137.867c-0.408-0.341-0.767-0.703-1.079-1.079c0.39-0.155,0.777-0.31,1.157-0.46c2.753-1.105,5.35-2.148,7.85-2.288   c5.616-0.346,7.256,1.874,7.623,2.556c0.374,0.697,0.315,1.311,0.093,1.617c-0.935,1.27-2.432,2.035-4.455,2.282   C179.786,141.023,174.289,138.76,173.217,137.867z M187.151,150.448c-0.599-0.434-1.389-0.501-2.042-0.161   c-6.804,3.398-13.575,2.969-17.874,2.112c2.581-1.76,5.608-4.71,7.633-9.368c2.318,0.84,5.2,1.518,8.049,1.518   c0.661,0,1.32-0.041,1.967-0.118c3.104-0.377,5.582-1.715,7.17-3.863c1.196-1.627,1.273-3.874,0.202-5.856   c-0.832-1.538-3.597-5.087-11.328-4.627c-3.153,0.17-6.179,1.384-9.107,2.561c-0.47,0.186-0.94,0.377-1.407,0.558   c-1.064-4.695,1.312-9.869,1.345-9.937c0.295-0.63,0.24-1.368-0.145-1.947c-1.102-1.658-3.298-2.691-5.605-3.336   c10.69-2.236,24.415,1.456,24.583,1.503c0.733,0.191,1.503-0.021,2.003-0.589c0.501-0.558,0.643-1.354,0.367-2.055   c-0.798-2.009-0.834-3.409-0.109-4.162c3.083-3.212,17.597-0.036,26.911,3.239c0.222,0.077,0.47,0.057,0.689,0.114   c9.177-0.145,17.198-2.768,21.946-4.731c-5.36,11.641-14.478,13.278-14.907,13.35c-1.077,0.17-1.813,1.177-1.647,2.257   c0.165,1.084,1.18,1.844,2.262,1.663c0.209-0.034,2.148-0.371,4.787-1.64c3.928,10.864,0.852,35.017-3.32,46.601   c-4.667,12.968,0.51,21.204,3.679,24.737c-12.525,7.287-22.317,13.48-25.058,26.199c-0.004,0.011-0.014,0.019-0.017,0.031   c-0.066,0.207-0.736,2.437-1.51,6.412c-4.854-3.226-13.9-16.466-9.03-31.985c1.327-4.235,2.887-8.377,4.395-12.384   c4.482-11.898,8.704-23.146,5.56-33.679c1.227-0.879,2.375-1.866,3.37-3.024c3.457-4.028,4.666-9.177,3.592-15.308   c-0.186-1.084-1.211-1.817-2.296-1.611c-1.077,0.186-1.799,1.214-1.608,2.293c0.871,4.974-0.011,8.908-2.693,12.038   c-5.185,6.052-15.728,7.302-20.337,7.556l0.341-2.479C188.059,151.599,187.748,150.877,187.151,150.448z M204.953,240.872   c-3.415,4.176-10.348,9.728-13.039,11.827c-2.485-2.37-4.975-5.183-7.168-8.478c10.147-1.721,16.237-8.02,18.52-10.939   c0.761,0.647,1.485,1.167,2.123,1.507c0.185,0.099,0.385,0.11,0.58,0.145c-0.267,1.699-0.52,3.624-0.759,5.729   C205.125,240.734,205.026,240.782,204.953,240.872z M180.818,204.727c1.598,0.449,5.739,1.507,9.56,1.507   c0.699,0,1.327-0.129,1.983-0.21c-0.141,2.442-0.021,4.792,0.321,7.028c-3.163,2.058-10.53,2.232-14.511,2.062   C178.705,211.641,179.618,208.17,180.818,204.727z M185.781,192.892c1.461,0.35,4.327,0.932,7.221,0.932   c0.751,0,1.498-0.045,2.225-0.138c-0.466,1.345-0.944,2.679-1.376,4.053c-0.455,1.452-0.77,2.876-1.023,4.285   c-0.015,0.002-0.029-0.002-0.044,0.001c-2.944,0.727-7.995-0.323-10.574-1.026C183.307,198.262,184.502,195.551,185.781,192.892z    M190.314,183.877c0.512-0.995,1.019-1.98,1.522-2.964c1.725,0.415,5.129,1.196,7.512,1.491c-0.34,0.91-0.675,1.813-1.026,2.744   c-0.527,1.399-1.057,2.837-1.585,4.27c-0.246-0.021-0.5-0.001-0.749,0.079c-2.351,0.726-6.022,0.229-8.4-0.265   C188.497,187.419,189.412,185.627,190.314,183.877z M196.605,170.936c1.428,0.54,3.713,1.258,6.021,1.258   c0.073,0,0.138-0.031,0.211-0.033c-0.597,2.074-1.316,4.212-2.091,6.393c-1.104-0.013-4.343-0.656-7.077-1.29   C194.729,175.119,195.712,173.01,196.605,170.936z M199.345,163.358c1.121,0.078,2.16,0.13,3.038,0.13   c0.864,0,1.554-0.057,2.181-0.133c-0.138,1.541-0.358,3.103-0.698,4.7c-1.506,0.446-3.966-0.132-5.787-0.805   C198.564,165.932,198.987,164.634,199.345,163.358z M180.719,219.134c3.798,0,9.111-0.432,12.781-2.138   c0.515,1.877,1.163,3.645,1.904,5.292c-6.813,4.734-14.425,5.823-17.118,6.046c-0.296-1.64-0.51-3.336-0.612-5.105   c-0.079-1.384-0.026-2.775,0.055-4.166C178.498,219.1,179.512,219.134,180.719,219.134z M197.246,225.824   c1.024,1.739,2.114,3.296,3.209,4.6c-1.686,2.235-7.632,9.069-17.874,10.179c-1.365-2.545-2.518-5.334-3.376-8.36   C182.661,231.903,190.204,230.566,197.246,225.824z M204.01,154.985c0.354,1.435,0.558,2.895,0.633,4.377l0,0   c-0.504,0.162-2.385,0.176-4.416,0.071c0.163-1.018,0.257-2.017,0.298-3.004C201.7,156.023,202.87,155.539,204.01,154.985z    M177.305,265.294c-0.514,0.165-0.943,0.527-1.182,1.007c-0.163,0.325-3.522,6.853-12.384,5.578   c3.135-2.066,6.006-5.541,6.006-10.856c0-0.295-0.064-0.583-0.191-0.847c-0.129-0.274-13.029-27.79-14.798-52.403   c-0.075-1.033-0.932-1.833-1.967-1.839h-0.011c-1.03,0-1.89,0.79-1.975,1.817c-0.514,6.192-2.564,13.215-4.689,13.392   c-0.783,0.082-2.613-0.506-3.3-1.637c-0.511-0.842-0.299-2.014,0.624-3.481c3.607-5.732,5.779-10.468,4.653-14.977   c-0.943-3.775-5.35-13.701-11.369-12.482l-1.57,0.356c-5.115,1.214-6.433,0.955-7.068-1.358c-0.157-0.578-0.072-1.048,0.274-1.529   c0.867-1.209,3.089-2.112,5.528-2.252c4.578-0.248,6.404,1.704,6.453,1.761c0.604,0.733,1.635,0.93,2.466,0.49   c0.832-0.444,1.237-1.415,0.966-2.319c-0.077-0.254-1.953-6.213-9.924-7.184c-1.79-0.217-2.221-1.368-2.27-2.288   c-0.077-1.524,0.885-3.332,2.634-3.729c3.135-0.697,8.984,1.962,11.519,12.101c0.266,1.069,1.366,1.683,2.404,1.447   c1.064-0.268,1.71-1.343,1.443-2.407c-1.298-5.189-3.4-8.746-5.751-11.143c0.04-0.074,0.102-0.128,0.134-0.208   c0.95-2.417,2.908-2.917,4.323-2.634c1.35,0.284,2.765,1.436,2.678,3.817c-0.245,6.569,4.947,16.697,7.649,20.41   c2.046,2.81,2.559,5.852,3.269,10.066c0.318,1.88,0.666,3.935,1.193,6.233c2.63,11.443,9.54,18.377,11.167,19.885   c2.146,13.765,9.901,23.377,17.009,29.493C188.185,259.747,182.098,263.8,177.305,265.294z M194.925,255.38   c2.29-1.802,6.324-5.098,9.704-8.394c-0.284,3.863-0.492,8.105-0.511,12.925c-0.002,0.563-0.049,1.1-0.067,1.655   C202.092,260.514,198.694,258.495,194.925,255.38z M317.421,242.163l3.454-10.228c3.377,1.199,6.56,2.572,9.552,4.072l-6.597,9.209   C321.734,243.988,319.597,242.972,317.421,242.163z M313.629,240.99c-1.852-0.475-3.727-0.825-5.626-1.01l1.284-11.19   c0.462,0.087,0.934,0.135,1.392,0.234c2.216,0.478,4.342,1.058,6.422,1.685L313.629,240.99z M304.029,239.813   c-1.957,0.018-3.935,0.195-5.93,0.512l-1.089-12.532c2.803-0.038,5.599,0.08,8.354,0.39L304.029,239.813z M293.044,227.957   l1.144,13.165c-2.047,0.52-4.112,1.218-6.192,2.047l-3.5-14.279C287.303,228.458,290.159,228.138,293.044,227.957z M286.94,266.055   c-1.591-0.56-3.081-1.32-4.492-2.163l7.09-13.456c0.166,0.189,0.347,0.351,0.484,0.582c0.705,1.188,0.81,2.753,0.315,4.653   C289.678,258.199,288.496,261.92,286.94,266.055z M278.152,252.869c2.455-1.637,5.153-3.206,8.033-4.571l-7.04,13.361   c-2.709-2.096-4.809-4.286-5.996-5.651C274.803,255.023,276.473,253.988,278.152,252.869z M280.577,229.557l3.733,15.234   c-1.914,0.921-3.838,1.973-5.771,3.152l-5.744-16.661C275.277,230.648,277.892,230.069,280.577,229.557z M268.96,232.319   l6.052,17.558c0.027,0.079,0.105,0.113,0.141,0.186c-2.419,1.582-4.81,2.998-7.161,4.301l-5.863-19.906   C264.219,233.752,266.496,233.025,268.96,232.319z M258.38,235.776l6.028,20.464c0.004,0.014,0.02,0.021,0.024,0.035   c-2.633,1.348-5.157,2.54-7.48,3.545l-6.557-20.468c0.083-0.143,0.175-0.327,0.257-0.46   C251.739,238.404,254.485,237.209,258.38,235.776z M247.869,244.462l5.409,16.881c-4.128,1.639-7.353,2.682-8.957,3.16   C243.29,257.943,245.445,250.175,247.869,244.462z M246.702,280.741c1.343-3.228,0.946-7.204-1.214-12.142   c-0.039-0.088-0.077-0.175-0.113-0.268c3.328-0.972,13.062-4.149,24.261-10.332c2.001,2.423,7.921,8.896,15.856,11.738   c-4.505,11.022-11.234,23.375-18.011,24.473c-5.68,0.898-8.756-2.489-11.725-5.789c-2.59-2.871-5.532-6.125-9.704-3.925   c-0.325,0.172-0.57,0.391-0.854,0.587c-0.323-0.188-0.768-0.421-1.295-0.663C245.042,283.424,246.068,282.271,246.702,280.741z    M313.847,253.865c0.581,3.609,2.913,6.729,6.934,9.275c2.347,1.482,3.559,3.114,3.602,4.849c0.047,1.854-1.164,3.786-2.536,5.351   c-0.188-0.388-0.418-0.708-0.653-0.966c-2.531-2.81-8.034-1.544-9.112-1.261c-0.274,0.068-0.529,0.202-0.749,0.377   c-2.032,1.653-19.947,16.345-22.705,22.548c-1.033,2.324-1.924,4.736-0.529,6.466c1.454,1.808,4.235,1.606,9.193,0.578   c0.426-0.088,0.733-0.114,0.94-0.114c0.238,0,0.354,0,0.354,0.026c0.168,0.284,0.279,1.88-1.327,5.505   c-0.292,0.656-1.03,1.002-1.771,0.852c-5.291-1.095-15.44-2.355-23.893,1.56c-4.444,2.06-7.581,2.21-11.212,2.386   c-3.341,0.16-7.127,0.346-12.364,2.045c-1.206,0.388-5.206,1.529-5.936-0.372c-0.611-1.597,0.579-4.392,1.843-5.212   c7.804,0.303,10.986,0.306,10.986,0.306c1.095,0,1.983-0.889,1.983-1.983c0-1.095-0.889-1.983-1.983-1.983   c-0.034,0-3.323,0-11.488-0.331c-1.41-0.057-3.856-0.397-4.382-2.06c-0.392-1.234,0.3-3.016,1.544-3.967   c1.079-0.837,4.718,0.082,8.273,1.617c1.128,0.712,2.303,1.286,3.441,1.663c0.966,0.346,2.032-0.145,2.443-1.084   c0.413-0.939,0.041-2.035-0.857-2.531c-0.705-0.392-1.857-0.996-3.246-1.617c-2.309-1.565-4.137-3.806-4.278-5.557   c-0.052-0.63,0.075-1.456,1.542-2.226c1.273-0.666,2.185,0.057,4.909,3.073c3.164,3.507,7.483,8.268,15.307,7.045   c15.235-2.468,25.959-41.062,26.06-41.45c0.772-2.96,0.524-5.541-0.741-7.674c-0.731-1.233-1.671-2.035-2.569-2.647   c7.481-2.692,15.914-3.613,24.573-0.613C314.448,247.558,313.306,250.508,313.847,253.865z M327.173,247.361l6.78-9.464   c2.47,1.386,4.789,2.843,6.969,4.348l-8.698,8.988c-0.675-0.526-1.331-0.978-2.017-1.546   C329.207,248.86,328.196,248.084,327.173,247.361z M344.171,258.963l8.71-6.94c1.678,1.621,3.208,3.205,4.559,4.699l-7.044,5.005   C348.421,260.989,346.344,260.073,344.171,258.963z M340.386,256.91c-1.623-0.966-3.289-2.046-4.993-3.248l8.782-9.074   c2.064,1.562,3.998,3.14,5.765,4.709L340.386,256.91z M355.118,263.24l4.926-3.502c1.615,1.947,2.922,3.674,3.864,5.003   C361.457,264.597,358.47,264.138,355.118,263.24z M396.28,195.947c-3.504,23.462-22.305,31.238-27.903,33.054   c-4.706-10.586-12.507-19.492-17.7-22.182c-0.966-0.496-2.166-0.118-2.672,0.846c-0.504,0.976-0.124,2.169,0.85,2.675   c3.956,2.05,11.966,10.391,16.59,21.789c4.992,12.296,12.973,19.269,23.717,20.725c2.162,0.29,3.646,1.168,4.545,2.675   c1.317,2.221,1.25,5.557,0.767,8.49c-2.531-1.606-6.649-2.123-8.893-0.403c-1.4,1.069-1.799,2.768-1.075,4.545   c0.49,1.204,0.717,5.521,0.937,9.699c0.633,12.09,1.436,21.598,5.407,24.815c1.146,0.93,2.527,1.311,3.956,1.069   c7.839-1.239,10.701,0.424,12.568,3.31c0.113,0.175,0.46,0.708-0.47,1.694c-1.41,1.488-4.366,2.361-6.358,1.234   c-4.691-2.686-7.984-1.554-13.43,0.32c-0.953,0.325-1.996,0.682-3.146,1.059c-5.407,1.746-10.985,0.878-15.472,0.175   c-1.317-0.202-2.515-0.387-3.561-0.485c-2.556-0.243-4.886,1.028-7.14,2.262c-2.729,1.493-5.306,2.923-8.343,1.999   c-1.41-0.424-1.867-1.131-2.091-1.631c-0.667-1.491-0.174-3.654,0.301-5.029c1.7-0.3,3.23-0.243,4.912-0.069   c2.427,0.243,5.19,0.531,8.671-0.749c1.028-0.377,1.552-1.518,1.175-2.545c-0.379-1.028-1.513-1.54-2.549-1.173   c-2.615,0.955-4.604,0.764-6.889,0.522c-2.084-0.211-4.434-0.449-7.259,0.299c-0.431,0.114-1.082,0.181-1.581-0.624   c-0.656-1.053-0.628-3.001,0.715-4.519c1.033-1.172,3.034-1.136,4.883-0.744c1.035,0.578,2.352,1.053,4.054,1.379   c0.971,0.206,1.934-0.377,2.252-1.311c0.318-0.939-0.106-1.967-0.991-2.411c-0.15-0.072-1.71-0.837-3.788-1.363   c-1.095-0.796-1.485-1.916-2.071-3.595l-0.442-1.234c-0.263-0.703-0.601-1.234-0.971-1.637c0.953-0.413,1.885-0.599,2.792-0.542   c2.04,0.139,3.863,1.524,5.417,4.121c5.147,8.573,13.68,8.671,14.042,8.671c0.824,0,1.563-0.511,1.854-1.281   c6.414-16.95-2.161-33.336-2.531-34.028c-0.005-0.011-0.017-0.017-0.023-0.027c-0.005-0.009-0.003-0.02-0.008-0.029   c-0.762-1.317-19.065-32.257-57.818-40.608c-27.916-6.038-61.65,9.714-63.073,10.391c-0.336,0.155-0.617,0.403-0.819,0.712   c-4.013,6.202-10.704,22.662-5.771,33.935c1.681,3.842,2.082,6.879,1.188,9.032c-0.599,1.441-1.766,2.597-3.752,3.667   c-0.266-2.479-1.121-5.707-3.672-7.111c-2.495-1.363-5.738-0.604-9.647,2.268c-9.252,6.802-22.452,22.868-21.249,29.825   c0.295,1.71,1.366,2.923,3.014,3.419c1.593,0.476,3.556,0.883,5.621,1.307c4.085,0.842,8.903,1.828,11.042,3.6   c-5.768-0.739-16.944-1.761-21.362,0.717c-5.211,2.933-14.168,4.803-20.405,2.547c-2.268-0.945-7.344-1.694-10.295,2.303   c-1.1,1.492-2.828,1.901-3.943,1.524c-1.297-0.424-1.567-1.771-1.567-2.824c0-4.602,4.428-4.958,5.784-4.958   c1.095,0,1.983-0.889,1.983-1.983s-0.889-1.983-1.983-1.983c-3.038,0-5.536,0.989-7.252,2.674c-1.585-0.829-2.61-1.807-2.982-2.937   c-0.508-1.544,0.222-3.146,0.705-3.961c0.918-1.561,2.544-2.389,3.54-2.791c2.252,2.114,4.871,3.628,6.186,4.205   c0.991,0.429,2.166-0.021,2.613-1.023c0.438-1.002-0.021-2.175-1.023-2.613c-2.654-1.162-7.512-4.746-7.742-7.751   c-0.086-1.1,0.93-1.937,1.978-2.2c0.757-0.191,2.663-0.341,3.809,2.309c2.899,6.709,12.33,11.429,12.73,11.625   c0.279,0.139,0.578,0.206,0.878,0.206c0.483,0,0.958-0.175,1.332-0.511c0.839-0.764,20.591-19.005,20.704-48.845   c0.068-18.038,2.576-29.291,3.508-32.87c3.505-0.169,12.465-1.248,20.512-7.419c2.329,4.126,8.24,12.137,19.119,12.41   c0.016,0,0.034,0,0.049,0c0.712,0,1.372-0.388,1.725-1.007c0.361-0.64,0.341-1.425-0.052-2.04   c-0.039-0.062-3.085-4.938-2.391-9.141c2.5,2.412,7.052,5.675,13.539,5.908h0.001h0.001c0.023,0,0.047,0,0.07,0   c0.343,0,0.651-0.112,0.935-0.268c0.129-0.072,0.243-0.127,0.35-0.228c0.255-0.22,0.44-0.501,0.557-0.826   c0.011-0.031,0.042-0.045,0.052-0.076c0.025-0.088,2.771-8.728,10.602-12.772c5.002-2.588,11.033-2.747,17.951-0.47   c0.17,0.056,0.341,0.053,0.512,0.062c0.039,0.002,0.068,0.036,0.107,0.036c0.031,0,0.061-0.011,0.092-0.013   c0.052-0.002,0.099-0.014,0.151-0.02c0.088-0.011,0.176-0.011,0.263-0.035c0.061-0.016,0.105-0.059,0.163-0.08   c0.131-0.048,0.249-0.107,0.368-0.181c0.104-0.064,0.199-0.132,0.287-0.213c0.094-0.086,0.171-0.18,0.248-0.283   c0.077-0.104,0.144-0.207,0.199-0.323c0.025-0.054,0.07-0.092,0.091-0.149c0.264-0.722,4.366-11.432,14.594-17.753   c0.037,0.006,0.067,0.03,0.104,0.033c0.245,0.025,24.683,2.731,38.209,9.338c4.124,2.014,9.157,3.011,14.138,3.011   c5.624,0,11.178-1.27,15.266-3.775c4.462-2.732,6.861-6.657,6.941-11.336c0.163-9.595-5.743-16.98-11.382-19.051   c-3.538-1.296-6.943-0.517-9.097,2.112c-2.681,3.264-2.523,7.494,0.377,10.06c3.008,2.665,8.565,3.089,14.124-1.828   c0.651,1.263,1.171,2.657,1.522,4.146c-6.272,4.334-12.121,5.779-16.899,4.168c-4.537-1.529-7.243-5.459-8.266-8.624   c-0.803-2.484-0.351-5.573,1.234-8.465c2.231-4.069,6.295-7.132,11.15-8.397c5.061-1.327,13.363-0.186,19.632,5.444   C393.394,173.187,398.478,181.248,396.28,195.947z M378.123,177.416c-3.897,3.667-7.483,3.749-9.252,2.18   c-1.302-1.152-1.279-2.949,0.059-4.571c0.792-0.966,1.774-1.291,2.727-1.291c0.687,0,1.361,0.17,1.939,0.382   C375.165,174.694,376.744,175.841,378.123,177.416z"/>
</g>
<path style="fill:#2E3033;" d="M19.152,488.46L19.152,488.46C8.575,488.46,0,479.885,0,469.308V42.534  C0,32.044,8.504,23.54,18.994,23.54h0.157c10.577,0,19.152,8.575,19.152,19.152v426.617C38.303,479.885,29.728,488.46,19.152,488.46  z"/>
<g>
</g>
<g>
</g>
<g>
</g>
<g>
</g>
<g>
</g>
<g>
</g>
<g>
</g>
<g>
</g>
<g>
</g>
<g>
</g>
<g>
</g>
<g>
</g>
<g>
</g>
<g>
</g>
<g>
</g>
</svg>
