<?xml version="1.0" encoding="iso-8859-1"?>
<!-- Generator: Adobe Illustrator 19.0.0, SVG Export Plug-In . SVG Version: 6.00 Build 0)  -->
<svg xmlns="http://www.w3.org/2000/svg" xmlns:xlink="http://www.w3.org/1999/xlink" version="1.1" id="Layer_1" x="0px" y="0px" viewBox="0 0 512 512" style="enable-background:new 0 0 512 512;" xml:space="preserve">
<path style="fill:#FF4B55;" d="M503.6,373.9H35.4c-4.6,0-8.4-3.8-8.4-8.4v-301c0-4.6,3.8-8.4,8.4-8.4h468.2c4.6,0,8.4,3.8,8.4,8.4  v300.9C512,370.1,508.2,373.9,503.6,373.9z"/>
<path style="fill:#41479B;" d="M35.4,56.1h225.7c4.6,0,8.4,3.8,8.4,8.4v142c0,4.6-3.8,8.4-8.4,8.4H35.4c-4.6,0-8.4-3.8-8.4-8.4v-142  C27,59.9,30.8,56.1,35.4,56.1z"/>
<g>
	<path style="fill:#F5F5F5;" d="M146.1,159.7l-3.8,11.5l-12.1,0.1c-1.6,0-2.2,2-1,3l9.8,7.2l-3.7,11.6c-0.5,1.5,1.2,2.7,2.5,1.8   l9.9-7.1l9.9,7.1c1.3,0.9,3-0.3,2.5-1.8l-3.7-11.6l9.8-7.2c1.3-0.9,0.6-2.9-1-3l-12.1-0.1l-3.8-11.5   C148.7,158.2,146.6,158.2,146.1,159.7z"/>
	<path style="fill:#F5F5F5;" d="M146.4,69.9l-3.1,9.3l-9.8,0.1c-1.3,0-1.8,1.6-0.8,2.4l7.9,5.8l-3,9.4c-0.4,1.2,1,2.2,2,1.5l8-5.7   l8,5.7c1,0.7,2.4-0.3,2-1.5l-3-9.4l7.9-5.8c1-0.8,0.5-2.4-0.8-2.4l-9.8-0.1l-3.1-9.3C148.5,68.7,146.8,68.7,146.4,69.9z"/>
	<path style="fill:#F5F5F5;" d="M196.1,97.6l-3.1,9.3l-9.8,0.1c-1.3,0-1.8,1.6-0.8,2.4l7.9,5.8l-3,9.4c-0.4,1.2,1,2.2,2,1.5l8-5.7   l8,5.7c1,0.7,2.4-0.3,2-1.5l-3-9.4l7.9-5.8c1-0.8,0.5-2.4-0.8-2.4l-9.8-0.1l-3.1-9.3C198.2,96.4,196.5,96.4,196.1,97.6z"/>
	<path style="fill:#F5F5F5;" d="M97.8,108.6l-3.1,9.3l-9.8,0.1c-1.3,0-1.8,1.6-0.8,2.4l7.9,5.8l-3,9.4c-0.4,1.2,1,2.2,2,1.5l8-5.7   l8,5.7c1,0.7,2.4-0.3,2-1.5l-3-9.4l7.9-5.8c1-0.8,0.5-2.4-0.8-2.4l-9.8-0.1l-3.1-9.3C99.9,107.4,98.2,107.4,97.8,108.6z"/>
	<path style="fill:#F5F5F5;" d="M174.7,139l-1.7,5.2h-5.5c-0.7,0-1,0.9-0.4,1.3l4.4,3.3l-1.7,5.3c-0.2,0.7,0.6,1.2,1.1,0.8l4.5-3.2   l4.5,3.2c0.6,0.4,1.4-0.1,1.1-0.8l-1.7-5.3l4.4-3.3c0.6-0.4,0.3-1.3-0.4-1.3h-5.5l-1.7-5.2C175.9,138.3,174.9,138.3,174.7,139z"/>
</g>
<path style="fill:#2E3033;" d="M18.9,485.2L18.9,485.2C8.5,485.2,0,476.7,0,466.3V45.5c0-10.3,8.4-18.7,18.7-18.7h0.2  c10.4,0,18.9,8.5,18.9,18.9v420.6C37.8,476.7,29.3,485.2,18.9,485.2z"/>
<g>
</g>
<g>
</g>
<g>
</g>
<g>
</g>
<g>
</g>
<g>
</g>
<g>
</g>
<g>
</g>
<g>
</g>
<g>
</g>
<g>
</g>
<g>
</g>
<g>
</g>
<g>
</g>
<g>
</g>
</svg>
