<?xml version="1.0" encoding="iso-8859-1"?>
<!-- Generator: Adobe Illustrator 19.0.0, SVG Export Plug-In . SVG Version: 6.00 Build 0)  -->
<svg xmlns="http://www.w3.org/2000/svg" xmlns:xlink="http://www.w3.org/1999/xlink" version="1.1" id="Layer_1" x="0px" y="0px" viewBox="0 0 512 512" style="enable-background:new 0 0 512 512;" xml:space="preserve">
<path style="fill:#41479B;" d="M503.666,381.003H40.111c-4.602,0-8.334-3.732-8.334-8.334V74.709c0-4.602,3.732-8.334,8.334-8.334  h463.555c4.602,0,8.334,3.732,8.334,8.334V372.67C512,377.273,508.268,381.003,503.666,381.003z"/>
<path style="fill:#FF9B55;" d="M282.497,173.493c-4.787-0.905-10.608-6.986-8.538-10.35s-1.812-10.867-6.468-8.28  c-4.658,2.588-7.762,5.692-12.161,6.728c-4.398,1.034-8.021,4.398-4.658,7.504c3.364,3.104,8.538,9.314,3.622,15.783  s-3.364,2.07-9.314,4.916c-5.951,2.846-10.091,8.538-8.28,11.902c1.812,3.364,3.364,4.658-1.812,6.986  c-5.174,2.328-7.504,0.776-11.643,1.812c-4.14,1.034-14.231,6.21-17.336,10.608c-3.104,4.398-9.832,0.258-12.678-0.258  c-2.846-0.518-8.538,1.552-9.832,4.916s1.034,6.468,5.951,8.021c4.916,1.552,6.986,1.812,4.658,5.951  c-2.328,4.14-0.776,12.161,3.104,14.49c3.88,2.328,11.384,9.574,11.384,14.49s-1.034,12.161,6.21,13.196  c7.244,1.034,18.371,4.14,22.251,10.867c3.882,6.728,4.916,10.608,5.692,14.748s1.552,7.504,3.882,12.161  c2.329,4.658,3.882,12.678,1.552,14.49c-2.328,1.812-4.14,3.104-2.328,6.597s2.199,4.787,5.563,2.846  c3.364-1.941,3.364,0.129,5.174-0.258c1.812-0.388,10.091-3.364,8.538-7.374c-1.552-4.011-4.916-13.196-0.129-17.982  s11.255-5.563,15.395-8.797c4.14-3.235,10.997-3.751,16.301-8.927c5.305-5.175,10.997-2.07,11.902,1.552s2.328,10.608,6.468,10.479  s5.045-0.129,5.821-5.174s7.244-16.3,9.832-14.877c2.588,1.423,4.916,0.258,5.045-1.941c0.129-2.199,5.045-4.14,7.115-1.034  c2.07,3.105,6.598,5.563,6.468,1.682c-0.129-3.882-5.434-3.364-5.563-7.633c-0.129-4.269,4.269-6.986,8.151-8.797  c3.882-1.812,1.552-6.468,2.717-9.056s7.504-5.821,7.762-8.409s-1.552-3.622,1.165-4.269s6.081-1.812,4.14-4.787  s-1.294-5.174,0.776-6.597s3.041-8.178,0.021-9.055c-3.02-0.876-8.475,1.656-9.838,3.312c-1.364,1.656-6.916-5.455-9.546-7.208  c-2.63-1.753-19.579-0.682-19.19-3.604s7.504-13.588,4.398-15.271c-3.104-1.681-8.021-4.14-12.031-5.434  c-4.011-1.294-3.104,3.104-5.305-0.389c-2.199-3.493-2.975-15.913-5.434-15.913c-2.457,0-4.269,5.175-5.305,3.235  c-1.034-1.941,0.388-15.395-5.305-15.654c-5.692-0.258-5.821,3.104-9.056,0.647C288.578,173.623,289.041,174.731,282.497,173.493z"/>
<g>
	<path style="fill:#F5F5F5;" d="M247.349,99.895l-4.298,12.887l-13.584,0.105c-0.745,0.006-1.053,0.956-0.454,1.399l10.928,8.07   l-4.098,12.952c-0.225,0.71,0.584,1.297,1.19,0.865l11.052-7.899l11.052,7.899c0.606,0.433,1.415-0.154,1.19-0.865l-4.098-12.952   l10.928-8.07c0.599-0.443,0.291-1.393-0.454-1.399l-13.584-0.105l-4.298-12.887C248.584,99.188,247.585,99.188,247.349,99.895z"/>
	<path style="fill:#F5F5F5;" d="M295.217,99.895l-4.298,12.887l-13.584,0.105c-0.745,0.006-1.053,0.956-0.454,1.399l10.928,8.07   l-4.098,12.952c-0.225,0.71,0.583,1.297,1.19,0.865l11.052-7.899l11.052,7.899c0.606,0.433,1.415-0.154,1.19-0.865l-4.098-12.952   l10.928-8.07c0.599-0.443,0.291-1.393-0.454-1.399l-13.584-0.105l-4.297-12.887C296.451,99.188,295.452,99.188,295.217,99.895z"/>
	<path style="fill:#F5F5F5;" d="M200.129,107.786l-4.298,12.887l-13.584,0.105c-0.745,0.006-1.053,0.956-0.454,1.398l10.928,8.07   l-4.098,12.952c-0.225,0.71,0.584,1.298,1.19,0.865l11.052-7.899l11.052,7.899c0.606,0.433,1.415-0.154,1.19-0.865l-4.098-12.952   l10.928-8.07c0.599-0.443,0.291-1.393-0.454-1.399l-13.584-0.105l-4.298-12.887C201.365,107.08,200.365,107.08,200.129,107.786z"/>
	<path style="fill:#F5F5F5;" d="M155.453,124.024l-4.298,12.887l-13.584,0.105c-0.745,0.006-1.053,0.956-0.454,1.398l10.928,8.07   l-4.097,12.952c-0.225,0.71,0.583,1.297,1.19,0.865l11.052-7.899l11.052,7.899c0.606,0.433,1.415-0.154,1.19-0.865l-4.098-12.952   l10.928-8.07c0.599-0.443,0.291-1.393-0.454-1.399l-13.584-0.105l-4.298-12.887C156.688,123.318,155.689,123.318,155.453,124.024z"/>
	<path style="fill:#F5F5F5;" d="M343.778,107.786l4.298,12.887l13.584,0.105c0.745,0.006,1.053,0.956,0.454,1.398l-10.928,8.07   l4.097,12.952c0.225,0.71-0.583,1.298-1.19,0.865l-11.052-7.899l-11.052,7.899c-0.606,0.433-1.415-0.154-1.19-0.865l4.098-12.952   l-10.928-8.07c-0.599-0.443-0.291-1.393,0.454-1.399l13.584-0.105l4.298-12.887C342.544,107.08,343.543,107.08,343.778,107.786z"/>
	<path style="fill:#F5F5F5;" d="M388.455,124.024l4.298,12.887l13.584,0.105c0.745,0.006,1.053,0.956,0.454,1.398l-10.928,8.07   l4.098,12.952c0.225,0.71-0.583,1.297-1.19,0.865l-11.052-7.899l-11.052,7.899c-0.606,0.433-1.415-0.154-1.19-0.865l4.098-12.952   l-10.928-8.07c-0.599-0.443-0.291-1.393,0.454-1.399l13.584-0.105l4.298-12.887C387.22,123.318,388.22,123.318,388.455,124.024z"/>
</g>
<path style="fill:#2E3033;" d="M18.881,485.182L18.881,485.182C8.454,485.182,0,476.729,0,466.302V45.545  c0-10.342,8.384-18.727,18.726-18.727h0.155c10.428,0,18.881,8.454,18.881,18.881V466.3  C37.763,476.729,29.309,485.182,18.881,485.182z"/>
<g>
</g>
<g>
</g>
<g>
</g>
<g>
</g>
<g>
</g>
<g>
</g>
<g>
</g>
<g>
</g>
<g>
</g>
<g>
</g>
<g>
</g>
<g>
</g>
<g>
</g>
<g>
</g>
<g>
</g>
</svg>
