<?xml version="1.0" encoding="iso-8859-1"?>
<!-- Generator: Adobe Illustrator 19.0.0, SVG Export Plug-In . SVG Version: 6.00 Build 0)  -->
<svg xmlns="http://www.w3.org/2000/svg" xmlns:xlink="http://www.w3.org/1999/xlink" version="1.1" id="Layer_1" x="0px" y="0px" viewBox="0 0 512 512" style="enable-background:new 0 0 512 512;" xml:space="preserve">
<path style="fill:#464655;" d="M27,268.05h484.9v97.5c0,4.6-3.8,8.4-8.4,8.4h-468c-4.6,0-8.4-3.8-8.4-8.4  C27,365.55,27,268.05,27,268.05z"/>
<path style="fill:#FF4B55;" d="M35.5,56.15h468.1c4.6,0,8.4,3.8,8.4,8.4v97.5H27.1v-97.5C27,59.95,30.8,56.15,35.5,56.15z"/>
<rect x="27" y="162.05" style="fill:#F5F5F5;" width="484.9" height="105.9"/>
<path style="fill:#2E3033;" d="M19,486.95L19,486.95c-10.5,0-19-8.5-19-19v-424c0-10.4,8.4-18.9,18.9-18.9H19c10.5,0,19,8.5,19,19  v423.8C38.1,478.45,29.5,486.95,19,486.95z"/>
<g>
</g>
<g>
</g>
<g>
</g>
<g>
</g>
<g>
</g>
<g>
</g>
<g>
</g>
<g>
</g>
<g>
</g>
<g>
</g>
<g>
</g>
<g>
</g>
<g>
</g>
<g>
</g>
<g>
</g>
</svg>
