<?xml version="1.0" encoding="iso-8859-1"?>
<!-- Generator: Adobe Illustrator 19.0.0, SVG Export Plug-In . SVG Version: 6.00 Build 0)  -->
<svg xmlns="http://www.w3.org/2000/svg" xmlns:xlink="http://www.w3.org/1999/xlink" version="1.1" id="Layer_1" x="0px" y="0px" viewBox="0 0 512 512" style="enable-background:new 0 0 512 512;" xml:space="preserve">
<path style="fill:#41479B;" d="M182,377.15H25.6c-4.8,0-8.6-3.9-8.6-8.6V61.45c0-4.8,3.9-8.6,8.6-8.6H182V377.15z"/>
<rect x="182" y="52.75" style="fill:#F5F5F5;" width="165" height="324.3"/>
<path style="fill:#FF4B55;" d="M503.4,377.15H347V52.75h156.4c4.8,0,8.6,3.9,8.6,8.6v307.1C512,373.25,508.1,377.15,503.4,377.15z"/>
<path style="fill:#2E3033;" d="M19.7,494.85L19.7,494.85c-10.9,0-19.7-8.8-19.7-19.7V36.65c0-10.8,8.7-19.5,19.5-19.5h0.2  c10.9,0,19.7,8.8,19.7,19.7v438.4C39.4,486.05,30.5,494.85,19.7,494.85z"/>
<g>
</g>
<g>
</g>
<g>
</g>
<g>
</g>
<g>
</g>
<g>
</g>
<g>
</g>
<g>
</g>
<g>
</g>
<g>
</g>
<g>
</g>
<g>
</g>
<g>
</g>
<g>
</g>
<g>
</g>
</svg>
