<?xml version="1.0" encoding="iso-8859-1"?>
<!-- Generator: Adobe Illustrator 19.0.0, SVG Export Plug-In . SVG Version: 6.00 Build 0)  -->
<svg xmlns="http://www.w3.org/2000/svg" xmlns:xlink="http://www.w3.org/1999/xlink" version="1.1" id="Layer_1" x="0px" y="0px" viewBox="0 0 512 512" style="enable-background:new 0 0 512 512;" xml:space="preserve">
<polygon style="fill:#464655;" points="27.43,115.161 27.43,315.672 161.104,215.417 "/>
<path style="fill:#FF4B55;" d="M94.268,56.677l150.384,116.965H512V65.032c0-4.615-3.741-8.355-8.355-8.355H94.268z"/>
<path style="fill:#41479B;" d="M94.268,374.155L244.651,257.19H512V365.8c0,4.615-3.741,8.355-8.355,8.355H94.268z"/>
<path style="fill:#73AF00;" d="M81.271,56.677H35.785c-4.615,0-8.355,3.74-8.355,8.355v34.27l146.672,116.114L27.43,331.534V365.8  c0,4.614,3.74,8.355,8.355,8.355h45.482l158.301-125.32H512v-66.838H239.569L81.271,56.677z"/>
<polygon style="fill:#F5F5F5;" points="108.192,56.677 81.271,56.677 239.569,181.997 512,181.997 512,165.288 245.382,165.288 "/>
<polygon style="fill:#FFE15A;" points="27.43,99.302 27.43,120.613 147.182,215.417 27.43,310.222 27.43,331.534 174.102,215.417   "/>
<polygon style="fill:#F5F5F5;" points="239.568,248.835 81.267,374.155 108.188,374.155 245.381,265.544 512,265.544 512,248.835   "/>
<path style="fill:#2E3033;" d="M19.122,488.1L19.122,488.1C8.561,488.1,0,479.539,0,468.979V42.864C0,32.39,8.491,23.9,18.965,23.9  h0.157c10.561,0,19.122,8.561,19.122,19.122V468.98C38.244,479.539,29.683,488.1,19.122,488.1z"/>
<g>
</g>
<g>
</g>
<g>
</g>
<g>
</g>
<g>
</g>
<g>
</g>
<g>
</g>
<g>
</g>
<g>
</g>
<g>
</g>
<g>
</g>
<g>
</g>
<g>
</g>
<g>
</g>
<g>
</g>
</svg>
