<?xml version="1.0" encoding="iso-8859-1"?>
<!-- Generator: Adobe Illustrator 19.0.0, SVG Export Plug-In . SVG Version: 6.00 Build 0)  -->
<svg xmlns="http://www.w3.org/2000/svg" xmlns:xlink="http://www.w3.org/1999/xlink" version="1.1" id="Layer_1" x="0px" y="0px" viewBox="0 0 512.001 512.001" style="enable-background:new 0 0 512.001 512.001;" xml:space="preserve">
<path style="fill:#73AF00;" d="M503.657,62.503H36.433c-4.608,0-8.343,3.735-8.343,8.343v300.358c0,4.607,3.735,8.343,8.343,8.343  h467.225c4.608,0,8.343-3.736,8.343-8.343V70.846C512,66.238,508.265,62.503,503.657,62.503z"/>
<rect x="336.79" y="170.968" style="fill:#FF4B55;" width="58.4" height="208.58"/>
<rect x="395.19" y="170.968" style="fill:#464655;" width="58.4" height="208.58"/>
<g>
	<rect x="453.6" y="170.968" style="fill:#FF9B55;" width="58.4" height="208.58"/>
	<path style="fill:#FF9B55;" d="M497.778,100.859c0.182-0.365,0.094-0.808-0.212-1.078c-0.308-0.272-0.758-0.3-1.097-0.076   c-1.687,1.12-3.389,2.138-5.075,3.061c5.43-4.489,6.191-8.386,6.241-8.67c0.061-0.357-0.097-0.716-0.401-0.911   c-0.305-0.197-0.696-0.192-0.996,0.012c-5.866,3.979-11.738,6.819-16.8,8.818c6.799-4.297,9.493-8.678,9.658-8.955   c0.213-0.356,0.155-0.81-0.138-1.103s-0.748-0.347-1.103-0.134c-5.428,3.272-11.858,5.852-18.001,7.838   c0.816-1.259,1.397-2.674,0.876-3.467c-0.485-0.737-1.369-0.737-2.634,0.003c-2.557,1.499-21.937,6.439-29.447,8.28   c-7.655-1.384-13.996,0.579-15.973,1.304c-0.526-0.627-0.767-1.233-0.868-1.708c-0.165-0.772-0.045-1.557,0.32-2.101   c0.595-0.886,1.826-0.97,2.911-1.046c0.472-0.033,0.893-0.061,1.263-0.154c0.236,0.069,0.526,0.207,0.521,0.312   c-0.022,0.411,0.238,0.784,0.631,0.908c0.394,0.123,0.819-0.035,1.037-0.384c0.056-0.088,1.331-2.179,0.343-3.959   c-0.719-1.294-2.37-1.975-4.91-2.023c-1.042-0.727-4.978-3.093-9.829-1.265c-4.913,1.853-7.093,6.899-7.814,9.031   c-3.823-0.531-21.377-3.21-30.919-8.811c-0.464-0.211-2.047-0.831-2.931,0.009c-0.543,0.515-0.607,1.315-0.19,2.378   c0.22,0.563,0.56,1.114,1.01,1.653c-5.108-2.344-11.994-5.62-17.2-8.531c-0.814-0.378-2.293-0.89-3.054-0.09   c-0.478,0.503-0.471,1.233,0.022,2.173c0.104,0.198,0.207,0.42,0.318,0.662c0.507,1.092,1.197,2.58,2.886,4.3   c-1.262-0.689-2.399-1.398-3.311-2.107c-4.569-3.554-5.188-3.902-6.007-3.351c-0.704,0.474-0.478,1.276-0.236,2.126l0.063,0.225   c0.198,0.706,0.523,1.843,1.41,3.216c-0.708-0.482-1.316-0.579-1.796-0.246c-0.287,0.197-0.716,0.69-0.384,1.772   c0.795,2.591,6.286,9.411,16.731,11.42c-1.051,0.153-2.154,0.267-3.221,0.288c-0.405,0.008-0.756,0.286-0.857,0.678   c-0.101,0.393,0.072,0.805,0.424,1.007c0.19,0.109,3.883,2.175,10.652,2.001c-1.012,0.255-2.161,0.452-3.432,0.528   c-0.395,0.023-0.729,0.301-0.823,0.685c-0.094,0.384,0.071,0.784,0.41,0.989c0.202,0.122,4.129,2.432,10.211,2.091l-0.53,0.326   c-0.305,0.188-0.47,0.537-0.421,0.891c0.049,0.355,0.302,0.648,0.647,0.745c0.19,0.055,3.618,1.008,7.888,0.557l-0.751,0.534   c-0.301,0.214-0.442,0.591-0.354,0.951c0.088,0.359,0.386,0.629,0.753,0.679c0.078,0.012,0.63,0.083,1.515,0.083   c0.583,0,1.311-0.033,2.141-0.133c-0.019,0.215,0.006,0.43,0.078,0.643c0.427,1.286,2.321,1.598,2.951,1.606   c0.039,0.001,0.077,0.001,0.114,0.001c0.762,0,1.568-0.107,2.39-0.271c1.316,1.23,3.72,1.117,6.052,0.575   c-0.138,0.209-0.244,0.419-0.309,0.628c-0.134,0.426-0.033,0.862,0.273,1.165c0.297,0.295,1.013,1.006,7.53-0.828   c-0.027,0.021-0.054,0.042-0.081,0.063c-0.866,0.671-0.811,1.365-0.701,1.717c0.399,1.282,3.274,2.103,8.492,2.453   c0.115,2.901-0.691,6.053-0.699,6.087c-0.09,0.347,0.034,0.716,0.316,0.937c0.281,0.22,0.669,0.254,0.986,0.085   c0.301-0.163,0.602-0.373,0.885-0.599l-0.024,0.959c-0.009,0.347,0.183,0.67,0.492,0.828c0.13,0.066,0.27,0.098,0.409,0.098   c0.036,0,0.069-0.013,0.104-0.017c-0.098,0.818-0.428,1.794-1.477,2.023c-0.476,0.104-0.98,0.155-1.468,0.206   c-2.221,0.228-4.739,0.485-5.136,5.576c-0.03,0.382,0.185,0.741,0.534,0.896c0.35,0.153,0.759,0.071,1.022-0.207l0.967-1.028   c0.569,0.14,1.476,0.283,2.446,0.126c-0.245,1.178-0.172,2.626,1.007,3.857c0.256,0.266,0.647,0.35,0.989,0.213   c0.342-0.138,0.566-0.469,0.566-0.838v-0.652c0.561-0.13,1.305-0.402,2.008-0.963c0.411,0.889,1.199,1.933,2.696,2.813   c0.142,0.083,0.3,0.125,0.458,0.125c0.207,0,0.411-0.07,0.577-0.209c0.293-0.244,0.401-0.645,0.272-1.002l-0.471-1.296   c0.329-0.324,0.757-0.788,1.13-1.284c0.185,0.269,0.494,0.423,0.825,0.391c0.343-0.033,0.638-0.258,0.76-0.582l0.332-0.884   c0.196-0.054,0.383-0.119,0.561-0.192c0.223,1.956,1.727,3.584,1.816,3.679c0.173,0.184,0.411,0.284,0.658,0.284   c0.073,0,0.147-0.008,0.219-0.027c0.318-0.08,0.567-0.325,0.653-0.641l0.503-1.877c1.332-0.675,1.463-1.899,1.544-2.659   c0.016-0.149,0.038-0.357,0.043-0.461c0.521,0.256,1.625,1.497,2.457,2.783c0.166,0.256,0.449,0.411,0.754,0.413   c0.31-0.022,0.59-0.15,0.758-0.405c0,0,0.705-1.068,1.049-1.691c1.455-2.642-0.751-4.224-1.81-4.984   c-0.259-0.186-0.616-0.442-0.674-0.513c-0.198-0.483-0.129-0.934,0.002-1.285c0.884,0.61,1.888,1.122,3,1.384   c0.068,0.017,0.139,0.024,0.207,0.024c0.291,0,0.569-0.141,0.739-0.385c0.212-0.302,0.218-0.703,0.016-1.013   c-0.02-0.031-1.681-2.584-2.75-5.726c1.729,1.013,4.068,2.238,5.28,2.238c0.832,0,1.151-0.518,1.249-0.741   c0.058-0.13,0.162-0.366,0.08-0.809c1.606,0.868,3.418,1.54,4.794,1.184c0.406-0.105,1.36-0.351,1.504-1.205   c0.073-0.434-0.072-0.783-0.393-1.128c1.492,0.362,3.1,0.542,4.676,0.333c1.315-0.173,1.703-0.811,1.796-1.316   c0.06-0.323,0.166-0.944-1.008-2.118c2.265-0.124,4.289-0.619,4.455-1.986c0.015-0.123-0.008-0.234-0.019-0.35   c7.282-0.794,12.822-5.347,13.067-5.553c0.071-0.059,0.119-0.133,0.167-0.208c4.408-0.55,9.416-1.546,13.469-3.369   c7.649-3.439,11.524-8.082,10.83-9.768c-0.202-0.49-0.78-0.845-1.493-0.578c-0.199,0.075-0.606,0.238-1.136,0.455   C495.836,104.61,497.609,101.199,497.778,100.859z"/>
</g>
<path style="fill:#464655;" d="M497.778,100.859c0.182-0.365,0.094-0.808-0.211-1.078c-0.308-0.272-0.758-0.299-1.097-0.076  c-1.687,1.121-3.389,2.138-5.077,3.061c5.43-4.489,6.192-8.386,6.241-8.67c0.062-0.357-0.097-0.716-0.401-0.911  c-0.305-0.197-0.697-0.192-0.995,0.012c-5.866,3.979-11.738,6.819-16.8,8.818c6.799-4.296,9.493-8.677,9.658-8.955  c0.213-0.356,0.155-0.81-0.138-1.103s-0.748-0.347-1.103-0.134c-5.428,3.272-11.857,5.852-18,7.839  c0.816-1.259,1.397-2.674,0.874-3.467c-0.485-0.737-1.369-0.737-2.633,0.003c-2.557,1.499-21.937,6.439-29.447,8.279  c-7.655-1.384-13.996,0.579-15.973,1.303c-0.526-0.627-0.767-1.233-0.868-1.707c-0.165-0.773-0.045-1.557,0.32-2.101  c0.596-0.886,1.827-0.97,2.912-1.044c0.471-0.033,0.893-0.061,1.263-0.153c0.236,0.069,0.526,0.206,0.521,0.311  c-0.022,0.411,0.238,0.785,0.631,0.908c0.394,0.123,0.819-0.035,1.037-0.384c0.055-0.088,1.331-2.179,0.342-3.959  c-0.719-1.294-2.37-1.975-4.91-2.023c-1.042-0.727-4.978-3.094-9.829-1.265c-4.913,1.853-7.093,6.899-7.814,9.031  c-3.823-0.53-21.377-3.21-30.919-8.811c-0.463-0.211-2.047-0.831-2.931,0.01c-0.544,0.515-0.607,1.315-0.19,2.378  c0.221,0.564,0.56,1.114,1.01,1.654c-5.108-2.344-11.994-5.62-17.2-8.531c-0.814-0.378-2.292-0.89-3.054-0.09  c-0.479,0.503-0.471,1.233,0.022,2.173c0.104,0.198,0.207,0.42,0.318,0.662c0.507,1.093,1.197,2.58,2.886,4.3  c-1.262-0.689-2.399-1.398-3.311-2.107c-4.57-3.554-5.188-3.903-6.007-3.352c-0.704,0.476-0.477,1.276-0.236,2.126l0.064,0.225  c0.198,0.706,0.522,1.844,1.41,3.216c-0.708-0.482-1.316-0.579-1.796-0.246c-0.287,0.196-0.715,0.69-0.384,1.772  c0.794,2.591,6.286,9.411,16.73,11.42c-1.051,0.153-2.154,0.267-3.221,0.288c-0.405,0.008-0.756,0.286-0.857,0.678  c-0.101,0.393,0.072,0.804,0.424,1.007c0.19,0.109,3.883,2.175,10.652,2.001c-1.012,0.255-2.161,0.452-3.432,0.528  c-0.395,0.023-0.729,0.301-0.823,0.685c-0.094,0.384,0.071,0.785,0.41,0.989c0.202,0.122,4.129,2.432,10.211,2.091l-0.53,0.326  c-0.305,0.187-0.47,0.537-0.422,0.891c0.049,0.355,0.303,0.648,0.647,0.745c0.19,0.054,3.618,1.008,7.889,0.557l-0.752,0.534  c-0.301,0.215-0.442,0.591-0.354,0.951c0.088,0.359,0.386,0.629,0.752,0.679c0.078,0.012,0.63,0.083,1.515,0.083  c0.583,0,1.311-0.033,2.14-0.133c-0.019,0.215,0.006,0.43,0.078,0.643c0.427,1.286,2.321,1.598,2.952,1.606  c0.039,0.001,0.077,0.001,0.114,0.001c0.762,0,1.568-0.107,2.39-0.271c1.316,1.23,3.72,1.117,6.052,0.575  c-0.138,0.209-0.244,0.419-0.31,0.628c-0.134,0.426-0.031,0.862,0.273,1.165c0.297,0.294,1.013,1.005,7.531-0.828  c-0.027,0.021-0.055,0.042-0.082,0.063c-0.866,0.671-0.811,1.365-0.7,1.717c0.399,1.282,3.274,2.103,8.492,2.453  c0.115,2.901-0.691,6.053-0.7,6.087c-0.09,0.347,0.034,0.716,0.316,0.937c0.281,0.22,0.669,0.255,0.986,0.085  c0.302-0.163,0.602-0.373,0.886-0.598l-0.025,0.958c-0.009,0.349,0.183,0.67,0.493,0.828c0.13,0.066,0.27,0.099,0.409,0.099  c0.035,0,0.069-0.014,0.104-0.018c-0.098,0.818-0.428,1.794-1.477,2.023c-0.476,0.104-0.979,0.155-1.468,0.206  c-2.221,0.228-4.739,0.486-5.136,5.576c-0.029,0.382,0.185,0.741,0.535,0.896c0.349,0.153,0.759,0.071,1.022-0.207l0.967-1.028  c0.569,0.14,1.476,0.283,2.446,0.126c-0.245,1.178-0.172,2.626,1.007,3.857c0.256,0.266,0.647,0.35,0.989,0.213  c0.342-0.138,0.566-0.469,0.566-0.838v-0.652c0.561-0.13,1.305-0.402,2.008-0.963c0.411,0.89,1.199,1.934,2.697,2.814  c0.142,0.084,0.3,0.125,0.458,0.125c0.206,0,0.411-0.07,0.577-0.209c0.293-0.244,0.401-0.645,0.272-1.003l-0.471-1.297  c0.329-0.324,0.757-0.788,1.13-1.284c0.185,0.269,0.494,0.422,0.825,0.39c0.343-0.034,0.638-0.259,0.76-0.583l0.332-0.884  c0.196-0.054,0.383-0.119,0.561-0.192c0.221,1.956,1.727,3.584,1.816,3.679c0.173,0.185,0.413,0.284,0.657,0.284  c0.073,0,0.147-0.008,0.22-0.027c0.318-0.08,0.567-0.325,0.652-0.641l0.503-1.877c1.333-0.675,1.463-1.898,1.544-2.659  c0.016-0.149,0.038-0.357,0.043-0.461c0.521,0.256,1.624,1.497,2.457,2.783c0.166,0.255,0.449,0.411,0.754,0.413  c0.31-0.022,0.59-0.151,0.758-0.405c0,0,0.705-1.068,1.049-1.691c1.455-2.642-0.751-4.223-1.81-4.984  c-0.259-0.187-0.616-0.442-0.674-0.512c-0.198-0.484-0.129-0.934,0.001-1.285c0.884,0.61,1.888,1.122,3,1.385  c0.068,0.016,0.139,0.024,0.207,0.024c0.291,0,0.568-0.141,0.739-0.385c0.212-0.302,0.218-0.703,0.016-1.013  c-0.02-0.031-1.68-2.584-2.75-5.726c1.729,1.013,4.068,2.238,5.281,2.238c0.832,0,1.151-0.518,1.248-0.741  c0.058-0.13,0.162-0.366,0.08-0.809c1.606,0.868,3.417,1.54,4.794,1.184c0.406-0.105,1.36-0.352,1.505-1.206  c0.073-0.434-0.073-0.783-0.393-1.127c1.491,0.362,3.099,0.542,4.676,0.334c1.315-0.173,1.703-0.811,1.797-1.316  c0.059-0.323,0.166-0.944-1.008-2.118c2.265-0.124,4.289-0.619,4.454-1.986c0.015-0.123-0.007-0.234-0.019-0.35  c7.282-0.794,12.821-5.348,13.066-5.553c0.071-0.06,0.119-0.134,0.167-0.208c4.408-0.55,9.416-1.546,13.469-3.369  c7.649-3.439,11.524-8.082,10.83-9.768c-0.202-0.49-0.78-0.845-1.493-0.578c-0.199,0.076-0.606,0.238-1.136,0.456  C495.836,104.61,497.609,101.199,497.778,100.859z M484.481,95.734c-3.325,3.253-9.59,7.932-19.92,10.646  c-0.09,0.024-0.167,0.07-0.242,0.118c-2.173-0.169-4.918-0.566-7.326-1.465C464.626,103.3,475.353,100.318,484.481,95.734z   M438.509,106.288c0.127,0.023,0.256,0.019,0.381-0.01c1.074-0.262,25.943-6.361,29.935-8.421c-0.464,0.915-1.356,2.196-2.085,2.731  c-0.021,0.015-0.03,0.038-0.049,0.054c-10.708,3.18-19.795,4.518-19.946,4.54c-0.493,0.07-0.836,0.529-0.765,1.022  c0.07,0.493,0.527,0.836,1.022,0.765c0.083-0.013,2.842-0.419,7.078-1.303c2.193,1.258,4.891,1.951,7.346,2.326  c-3.668,0.31-7.063,0.133-7.118,0.129c-0.428-0.016-0.843,0.281-0.933,0.719c-0.09,0.439,0.153,0.877,0.574,1.03l3.415,1.251  c-4.803,1.022-9.432,0.063-9.485,0.051c-0.371-0.082-0.748,0.079-0.95,0.397c-0.203,0.317-0.188,0.726,0.038,1.028  c0.652,0.87,2.492,1.784,4.096,2.457c-6.6,1.249-11.144-2.797-11.357-2.991c-0.367-0.335-0.935-0.311-1.271,0.054  c-0.337,0.364-0.317,0.932,0.045,1.271c5.214,4.88,14.933,6.959,19.294,7.675c-0.646,0.382-1.424,0.741-2.24,0.887  c-3.349,0.595-11.077-3.081-16.516-6.056l-4.355-2.514c-0.426-0.247-0.974-0.104-1.227,0.319c-0.253,0.425-0.119,0.973,0.302,1.232  c0.209,0.128,1.917,1.175,4.343,2.507l10.6,6.118c-3.252,0.402-6.684-0.326-6.726-0.336c-0.026-0.005-0.051,0.002-0.078-0.001  c-2.481-1.745-6.485-4.683-12.496-9.667c-0.968-3.453-2.78-4.971-5.05-6.412C426.898,106.354,432.308,105.124,438.509,106.288z   M445.061,125.432c-0.005,0.002-0.009,0.006-0.016,0.008c0,0-0.008-0.006-0.013-0.009  C445.044,125.431,445.052,125.432,445.061,125.432z M386.253,121.337l2.066-1.47c0.367-0.261,0.486-0.754,0.277-1.153  c-0.209-0.4-0.681-0.583-1.104-0.434c-3.412,1.219-6.865,1.094-9.028,0.817l2.391-1.472c0.381-0.234,0.533-0.713,0.357-1.124  c-0.175-0.41-0.625-0.632-1.059-0.519c-4.352,1.143-7.977,0.668-10.35,0.014c3.772-0.882,5.963-2.55,6.078-2.639  c0.33-0.255,0.442-0.703,0.271-1.084c-0.172-0.38-0.581-0.59-0.991-0.516c-4.973,0.936-8.812,0.628-11.39,0.094  c2.664-0.447,4.78-1.083,4.912-1.123c0.016-0.004,0.026-0.017,0.041-0.022c0.061-0.022,0.112-0.056,0.167-0.09  c0.046-0.029,0.093-0.052,0.133-0.089c0.043-0.039,0.075-0.087,0.109-0.134c0.035-0.046,0.07-0.087,0.096-0.139  c0.023-0.049,0.034-0.103,0.048-0.156c0.017-0.061,0.035-0.119,0.039-0.184c0-0.015,0.008-0.027,0.008-0.042  c0-0.047-0.019-0.088-0.026-0.134c-0.006-0.045,0.001-0.09-0.013-0.136c-0.004-0.015-0.016-0.024-0.02-0.038  c-0.022-0.061-0.056-0.111-0.089-0.166c-0.029-0.047-0.054-0.097-0.09-0.136c-0.038-0.043-0.086-0.072-0.131-0.107  c-0.047-0.036-0.089-0.072-0.143-0.099c-0.048-0.023-0.102-0.034-0.154-0.047c-0.061-0.017-0.121-0.036-0.185-0.039  c-0.016-0.001-0.027-0.009-0.043-0.009c-11.599-0.109-17.999-6.209-20.048-9.323c3.614,2.517,8.36,4.655,11.818,5.883h0.003  c4.598,1.776,10.329,2.908,10.572,2.954c0.488,0.096,0.964-0.223,1.059-0.713c0.096-0.489-0.224-0.964-0.713-1.059  c-0.058-0.012-5.839-1.152-10.294-2.876c-9.609-3.718-11.556-7.746-12.204-9.779c1.038,0.738,2.434,1.824,3.181,2.405  c5.624,4.374,18.712,8.511,19.266,8.684c0.474,0.15,0.974-0.111,1.128-0.581c0.153-0.47-0.1-0.976-0.567-1.136  c-13.531-4.609-15.563-8.991-16.655-11.347c-0.094-0.205-0.184-0.396-0.272-0.573c0.183,0.056,0.373,0.126,0.527,0.195  c7.503,4.198,18.526,9.167,22.693,11.013c-0.749,0.36-1.536,0.662-2.056,0.692c-0.347,0.02-0.654,0.237-0.785,0.56  c-0.132,0.322-0.067,0.692,0.167,0.949c0.055,0.061,0.939,1.009,2.657,1.379l-1.219,0.795c-0.287,0.187-0.443,0.52-0.404,0.86  s0.267,0.629,0.589,0.745c0.083,0.03,1.476,0.521,3.317,0.715l-1.014,0.74c-0.257,0.188-0.397,0.499-0.366,0.816  c0.03,0.317,0.227,0.595,0.514,0.731c0.119,0.055,1.506,0.685,3.733,0.579l-0.077,0.054c-0.293,0.206-0.438,0.567-0.366,0.919  c0.071,0.352,0.343,0.628,0.694,0.703c0.139,0.029,1.843,0.38,4.289,0.102l-0.555,0.371c-0.296,0.196-0.448,0.549-0.389,0.9  s0.317,0.634,0.661,0.724c0.262,0.067,4.214,1.052,9.399-0.594c-1.088,0.715-2.101,1.234-2.938,1.422  c-0.382,0.086-0.666,0.409-0.701,0.8c-0.035,0.391,0.186,0.759,0.546,0.912c0.024,0.01,0.113,0.045,0.231,0.087  C391.079,120.509,388.246,121.147,386.253,121.337z M381.885,104.958c-0.175-0.404-0.614-0.625-1.042-0.519  c-1.046,0.255-1.892,0.229-2.544,0.091c1.071-0.477,1.984-1.044,2.146-1.147c0.065-0.041,0.122-0.091,0.173-0.146  c1.606,0.647,3.431,1.267,5.475,1.86l-3.465,2.53c-1.161,0.123-2.311,0.013-3.23-0.152l2.151-1.402  C381.918,105.832,382.059,105.362,381.885,104.958z M389.997,123.536c-0.343-0.004-0.976-0.18-1.211-0.347  c0.059-0.096,0.21-0.28,0.544-0.546c2.132-0.547,4.579-1.582,6.924-3.496c2.462,0.178,6.332-0.407,10.276-4.37  c0.146,0.265,0.298,0.531,0.476,0.803C406.577,115.903,396.385,123.592,389.997,123.536z M397.04,117.371  c2.919-1.757,6.186-4.813,8.223-6.855c0.031,0.747,0.176,1.604,0.5,2.546c-0.07,0.042-0.143,0.08-0.203,0.142  C402.326,116.615,399.177,117.367,397.04,117.371z M414,129.057c-2.972-0.203-5.74-0.664-6.751-1.112  c2.46-1.92,3.164-2.767,3.238-2.859c0.249-0.311,0.263-0.748,0.038-1.077c-0.228-0.329-0.643-0.47-1.021-0.345  c-3.241,1.048-7.026,2.069-8.894,2.331c0.858-0.771,2.385-1.744,3.764-2.434c0.442-0.221,0.625-0.757,0.408-1.201  c-0.216-0.445-0.75-0.633-1.197-0.423c-2.457,1.156-5.974,2.321-8.176,2.303c5.992-2.157,12.101-6.772,12.683-7.218  c0.461,0.55,0.97,1.107,1.582,1.675C415.065,123.711,414.475,127.644,414,129.057z M415.487,134.562  c-0.049,0.06-0.117,0.139-0.197,0.229c0.196-1.336,0.336-3.013,0.207-4.608c0.497-1.092,1.502-4.328-1.101-8.62  c1.716,0.249,5.656,1.076,7.362,3.555c0.226,0.329,0.45,0.693,0.673,1.073l-0.002,0.003c-0.085,0.199-1.792,4.334-1.247,9.503  c-0.399-0.47-0.781-1.047-1.037-1.724c-0.121-0.317-0.407-0.541-0.745-0.577c-0.334-0.036-0.667,0.119-0.853,0.401  c-0.38,0.578-0.931,1.369-1.479,2.091l0.019-0.73c0.01-0.385-0.225-0.734-0.586-0.869  C416.141,134.157,415.733,134.264,415.487,134.562z M421.308,145.803c-0.179,0.539-1.143,1.577-1.769,2.141  c-0.022,0.02-0.044,0.041-0.064,0.063c-0.471-0.78-0.455-1.397-0.453-1.431c0.031-0.423-0.235-0.809-0.64-0.932  c-0.407-0.122-0.841,0.055-1.048,0.424c-0.825,1.474-2.276,1.626-2.541,1.642c0.046-1.089,0.674-2.076,0.714-2.137  c0.25-0.38,0.177-0.886-0.168-1.182c-0.344-0.295-0.856-0.289-1.193,0.016c-1.326,1.2-3.431,0.424-3.449,0.417  c-0.087-0.034-0.176-0.054-0.266-0.059c0.584-1.268,1.603-1.373,3.012-1.517c0.537-0.056,1.094-0.112,1.669-0.238  c2.779-0.608,3.106-3.679,2.891-5.218c-0.006-0.043-0.029-0.077-0.041-0.118c0.436-0.535,0.869-1.121,1.229-1.626  c0.176,0.27,0.364,0.512,0.555,0.742c0.005,0.659,0.042,2.689,0.271,3.759c0.182,0.849,0.802,1.421,1.397,1.788  c-0.098,0.192-0.182,0.394-0.235,0.613c-0.212,0.873-0.033,1.836,0.237,2.66C421.378,145.672,421.333,145.729,421.308,145.803z   M421.783,140.171c-0.086-0.403-0.141-1.036-0.176-1.673c0.253,0.174,0.429,0.278,0.456,0.293c0.314,0.173,0.703,0.147,0.989-0.072  s0.414-0.587,0.325-0.935c-0.953-3.814-0.315-7.382,0.214-9.336c1.555,3.417,2.669,7.634,2.284,10.413  c-0.06,0.425,0.19,0.833,0.595,0.975c0.085,0.029,0.171,0.038,0.257,0.042c-0.009,0.096-0.018,0.194-0.03,0.282  c-0.913-0.028-2.419,0.112-3.877,0.87C422.403,140.856,421.862,140.537,421.783,140.171z M433.674,144.838  c-0.071,0.13-0.161,0.28-0.255,0.437c-1.077-1.427-2.557-2.895-3.824-2.416c-1.02,0.388-1.125,1.372-1.196,2.022  c-0.083,0.785-0.143,1.113-0.798,1.337c-0.284,0.097-0.502,0.33-0.581,0.619l-0.101,0.375c-0.344-0.758-0.527-1.672-0.014-2.452  c0.263-0.4,0.167-0.933-0.217-1.219s-0.926-0.22-1.232,0.147c-0.008,0.009-0.826,0.972-2.016,1.141  c-0.123,0.018-0.239,0.06-0.342,0.123c-0.172-0.551-0.272-1.13-0.164-1.577c0.066-0.267,0.197-0.448,0.426-0.587  c1.809-1.095,3.918-0.783,3.937-0.78c0.477,0.079,0.915-0.223,1.023-0.684c0.049-0.206,0.436-1.966,0.153-3.442l1.167-1.962  c0.42,0.537,0.988,1.196,1.683,1.843c-0.383,0.702-0.758,1.839-0.225,3.135c0.214,0.521,0.713,0.879,1.291,1.292  C433.865,143.249,434.256,143.779,433.674,144.838z M430.35,133.798c-0.166-0.271-0.494-0.419-0.776-0.434  c-0.317,0.001-0.61,0.168-0.773,0.441l-1.174,1.971c-0.495-3.992-2.376-8.762-4.383-11.68c-2.609-3.795-9.058-4.514-10.275-4.51  c-0.591-0.718-1.252-1.453-2.068-2.211c-5.354-4.977-3.594-8.956-3.508-9.14c0.007-0.016,0.005-0.033,0.013-0.048  c0.024-0.058,0.035-0.117,0.045-0.177c0.01-0.056,0.024-0.109,0.024-0.165c0-0.057-0.014-0.11-0.023-0.167  c-0.012-0.058-0.019-0.114-0.041-0.168c-0.021-0.05-0.051-0.092-0.081-0.14c-0.034-0.054-0.066-0.106-0.111-0.152  c-0.013-0.013-0.017-0.029-0.03-0.041c-0.033-0.029-0.072-0.041-0.107-0.065c-0.036-0.025-0.063-0.059-0.103-0.079  c-0.017-0.008-0.035-0.006-0.05-0.014c-0.059-0.024-0.118-0.036-0.178-0.047c-0.056-0.01-0.109-0.024-0.165-0.024  c-0.057,0-0.11,0.013-0.167,0.023c-0.058,0.01-0.114,0.019-0.169,0.041c-0.05,0.02-0.094,0.051-0.141,0.081  c-0.054,0.034-0.106,0.066-0.153,0.111c-0.013,0.013-0.029,0.018-0.041,0.03l-0.001,0.002h-0.001  c-6.126,6.692-12.538,7.488-15.86,7.349l3.854-2.57c0.757-0.423,1.521-0.927,2.281-1.524c0.382-0.3,0.459-0.847,0.173-1.24  c-0.284-0.395-0.829-0.49-1.231-0.221l-2.116,1.41c-2.61,1.448-5.131,1.838-6.893,1.892l2.008-1.407  c1.542-0.746,3.226-1.865,4.999-3.516c0.347-0.323,0.385-0.86,0.087-1.229c-0.297-0.368-0.829-0.443-1.22-0.172l-4.786,3.355  c-2.274,1.072-4.136,1.202-5.387,1.089l6.843-4.996c0.281-0.205,0.419-0.554,0.355-0.895c-0.064-0.342-0.319-0.617-0.655-0.706  c-11.157-2.969-13.838-6-14.442-7.544c-0.054-0.136-0.087-0.244-0.109-0.329c0.225,0.035,0.527,0.119,0.72,0.202  c10.931,6.423,31.408,8.996,32.274,9.103c0.446,0.045,0.86-0.225,0.979-0.655c0.309-1.112,2.094-6.749,6.945-8.58  c4.575-1.723,8.178,1.063,8.328,1.18c0.161,0.128,0.359,0.198,0.564,0.198c1.944,0,3.232,0.388,3.629,1.093  c0.126,0.226,0.164,0.485,0.15,0.743c-0.316-0.161-0.663-0.268-1.006-0.319c-0.155-0.024-0.313-0.005-0.46,0.051  c-0.177,0.069-0.627,0.1-1.022,0.127c-1.273,0.087-3.199,0.219-4.287,1.84c-0.642,0.955-0.856,2.225-0.587,3.484  c0.168,0.785,0.589,1.812,1.547,2.814c0.094,0.187,0.245,0.323,0.423,0.406c0.329,0.292,0.695,0.579,1.134,0.854  c2.131,1.332,3.695,2.561,4.524,5.575c0.006,0.106,0.035,0.207,0.077,0.305c0.34,1.362,0.544,3.063,0.59,5.278  c0.01,0.492,0.413,0.884,0.903,0.884c0,0,0.014,0,0.019,0c0.499-0.01,0.894-0.423,0.884-0.922c-0.026-1.241-0.107-2.33-0.23-3.318  c6.725,5.493,10.696,8.223,12.687,9.589c0.28,0.193,0.547,0.376,0.78,0.54c-2.026,0.185-5.235-1.665-7.745-3.579  c-0.825-0.744-1.605-1.36-2.027-1.683c-0.383-0.294-0.931-0.234-1.241,0.139c-0.311,0.371-0.273,0.92,0.083,1.246  c0.228,0.209,0.956,0.86,1.98,1.651c1.182,1.075,2.095,2.089,2.382,2.673c-1.406-0.296-5.261-2.589-8.395-4.827  c-0.387-0.276-0.919-0.206-1.221,0.16c-0.301,0.366-0.27,0.903,0.075,1.23c2.164,2.054,3.497,3.931,4.344,7.955v0.001  c0.483,2.295,1.419,4.472,2.218,6.051C431.727,136.03,430.368,133.827,430.35,133.798z M450.941,131.293  c-4.778,0.628-10.187-3.015-10.239-3.052c-0.386-0.262-0.908-0.189-1.204,0.17c-0.298,0.358-0.273,0.885,0.056,1.215  c1.565,1.565,3.161,2.627,4.326,3.402c0.169,0.113,0.351,0.234,0.525,0.353c-1.737-0.086-4.755-2.045-6.42-3.407  c-0.364-0.299-0.901-0.267-1.227,0.078c-0.324,0.343-0.33,0.88-0.012,1.229c0.673,0.738,1.313,1.563,1.7,2.166  c-1.318-0.482-3.545-1.749-5.153-2.778c-0.372-1.647-0.829-2.988-1.392-4.123c5.246,3.124,6.127,2.07,6.459,1.672  c0.192-0.232,0.408-0.63,0.343-1.215c0-0.003,0-0.006,0-0.006c2.141,1.083,4.435,1.723,6.197,0.9  c0.185-0.086,0.449-0.225,0.662-0.442c3.25,1.815,4.95,3.174,5.467,3.827C451.001,131.285,450.971,131.289,450.941,131.293z   M449.714,127.864c-0.996-0.677-2.273-1.456-3.952-2.366c-0.035-0.019-0.072-0.019-0.108-0.034c0.296,0.012,0.598,0.019,0.909,0.019  c0.868,0,1.781-0.059,2.688-0.192c0.069,0.045,0.135,0.094,0.218,0.12c2.797,0.88,4.48,1.548,5.018,1.993  C453.768,127.718,451.704,127.921,449.714,127.864z M455.035,125.614c0,0-0.01,0.003-0.016,0.003  c-0.725-0.423-1.757-0.838-3.072-1.29c0.047-0.096,0.083-0.196,0.093-0.307c0.022-0.224-0.04-0.442-0.166-0.616  c1.534,0.367,2.905,0.511,3.975,0.321c1.347-0.24,2.567-0.903,3.45-1.5h0.002c0.906,0,3.48-0.033,6.778-0.303  C463.698,123.394,459.638,125.413,455.035,125.614z M491.448,110.186c-1.228,1.545-4.017,4.074-9.085,6.353  c-6.92,3.111-17.138,3.732-21.398,3.851c-0.006-0.067-0.015-0.135-0.037-0.202c-0.113-0.332-0.407-0.569-0.756-0.608  c-0.08-0.008-4.652-0.54-9.736-2.073c3.048,0.289,5.925,0.43,8.616,0.43c7.602,0,13.811-1.059,18.861-2.646  c0.026-0.004,0.051,0.002,0.079-0.004c2.783-0.729,9.413-3.445,12.976-4.904C491.135,110.314,491.296,110.249,491.448,110.186z   M486.633,109.324c-5.874,3.635-16.117,7.52-32.321,6.652c0.315-0.153,0.521-0.468,0.514-0.823c-0.007-0.38-0.253-0.715-0.613-0.838  c-0.725-0.245-1.586-0.569-2.424-0.92c2.481,0.072,5.708-0.159,8.777-1.342c0.351-0.135,0.581-0.473,0.577-0.85  c-0.003-0.376-0.238-0.711-0.592-0.84l-1.18-0.431c2.994-0.125,6.663-0.518,9.222-1.595c0.403-0.169,0.626-0.604,0.53-1.03  c-0.005-0.022-0.019-0.04-0.025-0.061c5.407-1.355,15.364-4.48,25.642-10.919c-2.213,3.678-8.644,10.519-26.844,14.82  c-0.471,0.111-0.772,0.575-0.679,1.051c0.092,0.477,0.545,0.788,1.022,0.721c0.136-0.021,12.509-1.964,25.284-9.277  C492.01,105.325,489.774,107.381,486.633,109.324z"/>
<path style="fill:#2E3033;" d="M19.026,486.943L19.026,486.943C8.519,486.943,0,478.425,0,467.917V43.929  c0-10.422,8.448-18.871,18.87-18.871h0.156c10.508,0,19.026,8.519,19.026,19.026v423.831  C38.053,478.425,29.534,486.943,19.026,486.943z"/>
<g>
</g>
<g>
</g>
<g>
</g>
<g>
</g>
<g>
</g>
<g>
</g>
<g>
</g>
<g>
</g>
<g>
</g>
<g>
</g>
<g>
</g>
<g>
</g>
<g>
</g>
<g>
</g>
<g>
</g>
</svg>
