<?xml version="1.0" encoding="iso-8859-1"?>
<!-- Generator: Adobe Illustrator 19.0.0, SVG Export Plug-In . SVG Version: 6.00 Build 0)  -->
<svg xmlns="http://www.w3.org/2000/svg" xmlns:xlink="http://www.w3.org/1999/xlink" version="1.1" id="Layer_1" x="0px" y="0px" viewBox="0 0 512.001 512.001" style="enable-background:new 0 0 512.001 512.001;" xml:space="preserve">
<path style="fill:#73AF00;" d="M512,106.648H24.345v-37.18c0-4.674,3.789-8.463,8.463-8.463h470.73c4.674,0,8.463,3.789,8.463,8.463  v37.18H512z"/>
<rect x="24.341" y="106.641" style="fill:#FFE15A;" width="487.65" height="45.647"/>
<rect x="24.341" y="152.291" style="fill:#FF4B55;" width="487.65" height="45.647"/>
<path style="fill:#73AF00;" d="M24.345,334.861H512v37.18c0,4.674-3.789,8.463-8.463,8.463H32.807c-4.674,0-8.463-3.789-8.463-8.463  v-37.18H24.345z"/>
<rect x="24.341" y="289.221" style="fill:#FFE15A;" width="487.65" height="45.647"/>
<rect x="24.341" y="243.571" style="fill:#FF4B55;" width="487.65" height="45.647"/>
<path style="fill:#464655;" d="M512,197.934H210.852L37.89,61.006h-5.138c-2.17,0-4.103,0.877-5.595,2.227v315.044  c1.492,1.35,3.425,2.227,5.595,2.227h5.138l172.961-136.927h301.147v-45.642L512,197.934L512,197.934z"/>
<path style="fill:#F5F5F5;" d="M27.157,378.278l198.975-157.523L27.157,63.232c-1.701,1.538-2.813,3.707-2.813,6.181v302.682  C24.345,374.57,25.456,376.739,27.157,378.278z"/>
<polygon style="fill:#FF4B55;" points="106.317,159.272 124.035,195.173 163.653,200.93 134.985,228.874 141.753,268.334   106.317,249.704 70.882,268.334 77.649,228.874 48.981,200.93 88.599,195.173 "/>
<path style="fill:#FFE15A;" d="M152.285,225.33L105.2,188.88c-5.509-12.909-13.34-21.235-19.987-21.235  c-5.647,0-8.407,5.234-9.199,8.378c-4.067,1.883-5.022,5.631-5.062,5.795c-0.066,0.269-0.003,0.553,0.167,0.772  c0.171,0.217,0.433,0.344,0.71,0.344l0.842-0.015c3.783-0.087,10.087-0.254,11.698,11.766c1.006,7.504-0.488,20.946-5.236,31.078  c-3.317,7.078-2.222,12.802-2.174,13.042c0.09,0.453,0.511,0.748,0.98,0.72c0.073-0.007,0.249-0.015,0.471-0.022l3.809,21.539  c0.076,0.432,0.45,0.745,0.889,0.745h56.845c0.416,0,0.778-0.285,0.877-0.689l6.35-26.082c0.002-0.007,0.011-0.011,0.013-0.019  c0.004-0.015-0.001-0.029,0.002-0.043l2.017-8.285c1.492,0.177,2.381,0.27,2.43,0.274c0.432,0.055,0.782-0.189,0.93-0.563  C152.72,226.005,152.604,225.577,152.285,225.33z"/>
<g>
	<path style="fill:#464655;" d="M152.285,225.33L105.2,188.88c-5.509-12.909-13.34-21.235-19.987-21.235   c-5.647,0-8.407,5.234-9.199,8.378c-4.067,1.883-5.022,5.631-5.062,5.795c-0.066,0.269-0.003,0.553,0.167,0.772   c0.171,0.217,0.433,0.344,0.71,0.344l0.842-0.015c3.783-0.087,10.087-0.254,11.698,11.766c1.006,7.504-0.488,20.946-5.236,31.078   c-3.317,7.078-2.222,12.802-2.174,13.042c0.09,0.453,0.511,0.748,0.98,0.72c0.073-0.007,0.249-0.015,0.471-0.022l3.809,21.539   c0.076,0.432,0.45,0.745,0.889,0.745h56.845c0.416,0,0.778-0.285,0.877-0.689l6.35-26.082c0.002-0.007,0.011-0.011,0.013-0.019   c0.004-0.015-0.001-0.029,0.002-0.043l2.017-8.285c1.492,0.177,2.381,0.27,2.43,0.274c0.432,0.055,0.782-0.189,0.93-0.563   C152.72,226.005,152.604,225.577,152.285,225.33z M80.767,226.527c4.298-9.166,6.615-22.96,5.392-32.084   c-1.744-13.012-9.048-13.42-12.992-13.342c0.56-1.086,1.721-2.684,3.966-3.599c0.278-0.113,0.481-0.36,0.543-0.655   c0.063-0.301,1.599-7.4,7.538-7.4c5.866,0,13.268,8.179,18.418,20.352c0.06,0.143,0.157,0.268,0.278,0.362l44.717,34.617   c-7.881-0.956-28.477-3.793-40.676-8.6c-6.376-2.511-7.829-6.333-9.112-9.707c-0.177-0.467-0.7-0.697-1.165-0.523   c-0.465,0.178-0.7,0.699-0.523,1.165c1.275,3.351,3.02,7.941,10.137,10.746c1.45,0.571,3.016,1.115,4.663,1.631   c-0.287,0.87-2.111,5.301-10.203,8.208c-6.557,2.356-11.223,6.328-11.861,9.916c-2.396-0.01-4.535-0.005-6.331,0.005v-2.606   c0-1.978,1.906-4.845,3.926-7.88c2.813-4.229,6-9.024,6-13.926c0-0.498-0.404-0.902-0.902-0.902s-0.902,0.404-0.902,0.902   c0,4.357-3.028,8.91-5.698,12.926c-2.269,3.411-4.227,6.356-4.227,8.88v2.62c-1.363,0.014-2.43,0.033-3.125,0.053   C78.467,235.992,78.375,231.63,80.767,226.527z M116.551,220.811c-1.044,2.901-4.134,3.883-6.424,4.198   c2.484-2.207,3.322-4.247,3.557-4.994C114.619,220.289,115.579,220.553,116.551,220.811z M118.291,221.259   c0.992,0.249,1.996,0.49,3.007,0.721c-0.92,1.873-3.382,2.793-6.071,3.177C116.56,224.313,117.69,223.066,118.291,221.259z    M143.8,241.27c-9.147-2.819-35.545-3.54-52.09-3.644c0.561-2.05,3.156-4.741,7.554-6.898c0.045,0.007,0.086,0.027,0.133,0.027   c24.698,0.088,41.888,3.751,45.825,4.674L143.8,241.27z M142.635,246.052l-3.608-4.025c1.72,0.299,3.185,0.633,4.345,1.003   L142.635,246.052z M95.962,246.689l1.754,1.651c-0.541-0.004-1.072-0.01-1.625-0.013C96.043,247.797,96.004,247.237,95.962,246.689   z M141.556,250.484l-4.584-5.024c-0.301-0.331-0.801-0.392-1.168-0.141l-5.383,3.603l-4.051-4.44   c-0.314-0.344-0.845-0.391-1.214-0.107l-4.866,3.731l-4.416-4.359c-0.331-0.328-0.861-0.349-1.214-0.049l-4.753,3.998l-4.454-4.132   c-0.337-0.312-0.86-0.319-1.209-0.017l-4.647,4.082l-3.82-3.595c-0.067-1.073-0.126-2.177-0.178-3.314l3.42,3.358   c0.333,0.329,0.863,0.343,1.221,0.04l4.784-4.119l4.37,4.303c0.33,0.324,0.854,0.345,1.211,0.051l4.8-4l4.606,4.339   c0.325,0.305,0.82,0.33,1.168,0.058l4.817-3.694l4.029,4.624c0.305,0.35,0.826,0.41,1.204,0.141l5.357-3.817l5.327,5.941   c0.063,0.071,0.144,0.114,0.222,0.16L141.556,250.484z M138.847,250.193c-1.437-0.182-3.441-0.397-6.159-0.616l3.474-2.325   L138.847,250.193z M128.289,249.264c-1.812-0.114-3.843-0.225-6.111-0.329l3.419-2.621L128.289,249.264z M118.398,248.777   c-2.065-0.077-4.31-0.148-6.721-0.211l3.514-2.957L118.398,248.777z M108.098,248.484c-2.081-0.042-4.292-0.078-6.617-0.107   l3.34-2.933L108.098,248.484z M96.917,239.49c1.873,0.024,3.823,0.058,5.818,0.1l-3.046,2.622L96.917,239.49z M107.288,239.699   c1.939,0.054,3.898,0.118,5.854,0.193l-3.065,2.554L107.288,239.699z M117.754,240.091c2.07,0.099,4.115,0.212,6.096,0.34   l-3.162,2.425L117.754,240.091z M128.113,240.743c2.228,0.181,4.333,0.386,6.273,0.617l-3.539,2.521L128.113,240.743z    M80.236,239.463c2.711-0.039,7.572-0.062,13.501-0.008c0.339,8.576,1.087,15.466,2.226,20.526H83.865L80.236,239.463z    M139.245,259.98H97.81c-0.634-2.713-1.147-6.009-1.54-9.848c30.183,0.199,41.649,1.697,44.515,2.165   c0.086,0.083,0.179,0.15,0.284,0.193L139.245,259.98z M145.649,233.675c-3.815-0.893-19.564-4.235-42.285-4.67   c1.601-0.638,2.965-1.329,4.116-2.043c0.537,0.067,2.119,0.241,4.101,0.241c4.118,0,9.902-0.779,11.499-4.823   c9.378,2.052,18.99,3.4,24.328,4.066L145.649,233.675z"/>
	<path style="fill:#464655;" d="M87.77,175.614c0-1.659-1.349-3.008-3.007-3.008c-1.659,0-3.007,1.349-3.007,3.008   s1.349,3.007,3.007,3.007C86.421,178.622,87.77,177.273,87.77,175.614z M84.762,176.817c-0.664,0-1.203-0.54-1.203-1.203   c0-0.663,0.54-1.203,1.203-1.203s1.203,0.54,1.203,1.203C85.965,176.278,85.426,176.817,84.762,176.817z"/>
	<path style="fill:#464655;" d="M109.976,231.539c-1.63,0-2.957,1.327-2.957,2.957c0,1.631,1.327,2.957,2.957,2.957   c1.631,0,2.959-1.327,2.959-2.957C112.934,232.865,111.607,231.539,109.976,231.539z M109.976,235.648   c-0.636,0-1.153-0.517-1.153-1.153s0.517-1.152,1.153-1.152s1.154,0.517,1.154,1.152   C111.13,235.132,110.612,235.648,109.976,235.648z"/>
	<path style="fill:#464655;" d="M118.819,232.043c-1.631,0-2.959,1.328-2.959,2.958c0,1.631,1.328,2.957,2.959,2.957   c1.63,0,2.957-1.327,2.957-2.957S120.449,232.043,118.819,232.043z M118.819,236.153c-0.636,0-1.154-0.517-1.154-1.153   s0.518-1.154,1.154-1.154s1.152,0.518,1.152,1.154S119.454,236.153,118.819,236.153z"/>
</g>
<path style="fill:#2E3033;" d="M19.174,488.73L19.174,488.73C8.585,488.73,0,480.146,0,469.556V42.288  c0-10.502,8.514-19.016,19.016-19.016h0.158c10.589,0,19.174,8.585,19.174,19.174v427.111  C38.347,480.146,29.763,488.73,19.174,488.73z"/>
<g>
</g>
<g>
</g>
<g>
</g>
<g>
</g>
<g>
</g>
<g>
</g>
<g>
</g>
<g>
</g>
<g>
</g>
<g>
</g>
<g>
</g>
<g>
</g>
<g>
</g>
<g>
</g>
<g>
</g>
</svg>
